<svg height='300px' width='300px'  fill="#000000" xmlns="http://www.w3.org/2000/svg" data-name="Layer 1" viewBox="0 0 100 100" x="0px" y="0px"><title>avatar simple JADI</title><path d="M66.85,43.89a.77.77,0,0,0,.77.77c.86,0,1.83-1.32,1.83-3.08s-.79-2.82-1.56-3a.8.8,0,0,0-1,.51.72.72,0,0,0,.48.93,2.12,2.12,0,0,1,.54,1.6,2.24,2.24,0,0,1-.5,1.58A.77.77,0,0,0,66.85,43.89Z"></path><path d="M32.6,43.15a2.22,2.22,0,0,1-.51-1.57,2.26,2.26,0,0,1,.5-1.56.77.77,0,0,0-.27-1.5c-.83.06-1.76,1.33-1.76,3.06s1,3,1.8,3.07h0a.77.77,0,0,0,.22-1.5Z"></path><path d="M67.31,64.11,55.69,61V59.89A19.19,19.19,0,0,0,67.47,47.51c2.65.14,4.84-2.6,4.84-5.94s-2-5.82-4.51-5.94C67.39,19.74,55.26,18,50,18c-11.78,0-18.36,6.31-18.6,17.78-2.13.57-3.71,3-3.71,5.79,0,3,1.72,5.46,4,5.87a19.16,19.16,0,0,0,12.6,12.7V61l-11.62,3.1a10,10,0,0,0-7.4,9.63v7.5a.77.77,0,0,0,.77.77H73.94a.77.77,0,0,0,.77-.77v-7.5A10,10,0,0,0,67.31,64.11ZM33,46.53a.77.77,0,0,0-.72-.56c-1.71,0-3.09-2-3.09-4.4s1.31-4.26,3-4.38a.77.77,0,0,0,.71-.76c0-14,9.28-16.9,17.07-16.9,6.08,0,16.28,2.2,16.28,16.94a.77.77,0,0,0,.3.59.8.8,0,0,0,.65.16,2,2,0,0,1,.39-.05c1.74,0,3.15,2,3.15,4.41S69.36,46,67.62,46a2.26,2.26,0,0,1-.52-.07.76.76,0,0,0-.92.54A17.62,17.62,0,0,1,54.29,58.73l-.7.2-.42.09a16.73,16.73,0,0,1-2.75.37l-.59,0h-.64l-.73,0-.53,0L47,59.21l-.31,0A17.56,17.56,0,0,1,33,46.53Zm13.6,14.17c.46.07.91.13,1.37.17l.28,0q.52,0,1,0h.46c.39,0,.78,0,1.17,0l.5-.05.85-.11.57-.1.79-.17.48-.11V63c0,.71-1.62,1.75-4.16,1.75s-4.16-1-4.16-1.75v-2.4l.67.12ZM73.17,80.47H69.51V77.1a.77.77,0,1,0-1.53,0v3.37H32V77.1a.77.77,0,1,0-1.53,0v3.37H26.83V73.74a8.44,8.44,0,0,1,6.26-8.15l11.23-3V63c0,1.87,2.45,3.28,5.69,3.28s5.69-1.41,5.69-3.28v-.37l11.23,3a8.44,8.44,0,0,1,6.26,8.15Z"></path><path d="M48.15,22.47a.75.75,0,0,0,.78-.75.77.77,0,0,0-.75-.78c-8.75-.11-11.1,5.22-11.2,5.45a.77.77,0,0,0,1.41.6C38.47,26.8,40.53,22.34,48.15,22.47Z"></path></svg>