<svg viewBox="0 0 511.99 511.99">
  <path
    d="m508.58 74.684c-3.389-5.888-8.981-10.185-15.542-11.944l-230.78-61.854c-8.78-2.375-18.159 0.113-24.607 6.528l-218.69 58.597c-6.557 1.758-12.148 6.049-15.541 11.929-3.394 5.88-4.312 12.867-2.554 19.425l106.01 395.64c2.996 11.175 13.11 18.954 24.679 18.983 2.253-1e-3 4.495-0.298 6.671-0.883l123.93-33.204 111.58 29.862c2.202 0.598 4.473 0.902 6.754 0.905 11.551-0.033 21.644-7.807 24.625-18.967l105.98-395.58c1.775-6.557 0.868-13.551-2.52-19.439zm-374.77 419.94c-2.185 0.587-4.514 0.28-6.473-0.851-1.959-1.132-3.388-2.996-3.972-5.182l-106.01-395.65c-0.593-2.184-0.286-4.515 0.854-6.471 1.126-1.965 2.991-3.398 5.179-3.979l230.79-61.842c2.186-0.587 4.517-0.28 6.477 0.852s3.39 2.998 3.973 5.185l6.707 25.03 0.025 0.093 99.281 370.52c1.213 4.551-1.486 9.224-6.033 10.45l-230.8 61.838zm159.82-425.61c1.615-0.264 3.119-0.991 4.329-2.093 1.498-1.468 3.587-2.165 5.667-1.892 1.756 0.174 3.363 1.067 4.437 2.467 1.654 2.629 0.175 8.854-5.9 15.304-1.197 1.231-2.526 2.325-3.964 3.263l-4.569-17.049zm20.842 77.783c0.824-4.617 3.554-8.673 7.521-11.176 4.214-1.959 9.067-2.015 13.325-0.154 4.842 1.962 8.519 6.034 9.979 11.05 0.881 2.777 3.117 4.914 5.932 5.666 2.815 0.753 5.819 0.018 7.968-1.95 3.769-3.618 8.987-5.312 14.162-4.596 4.625 0.509 8.812 2.972 11.504 6.767 4.713 7.504 0.433 20.733-10.554 32.338-10.658 9.511-23.393 16.396-37.188 20.104-3.819-4.216-7.379-8.659-10.66-13.305l-11.989-44.744zm180.14-57.118-105.98 395.58c-0.577 2.197-2.01 4.071-3.979 5.204-1.962 1.138-4.301 1.433-6.483 0.817l-83.034-22.22 73.884-19.796h4e-3c6.558-1.758 12.148-6.049 15.542-11.929s4.312-12.867 2.554-19.425l-52.208-194.84c0.675-0.016 1.345-0.113 1.996-0.29 13.292-3.917 37.471-12.588 49.946-26.462 16.708-17.637 21.6-38.433 12.442-53.029-9.433-13.749-27.399-18.704-42.546-11.733-3.737-5.31-8.925-9.431-14.942-11.871-8.915-3.791-19.043-3.494-27.721 0.813-2.022 1.071-3.907 2.382-5.614 3.905l-5.673-21.173c4.415-2.271 8.427-5.25 11.878-8.819 11.096-11.775 14.175-25.9 7.817-36.033-3.788-5.697-9.879-9.45-16.671-10.271-3.565-0.476-7.191-0.134-10.604 1-2.369-2.621-5.287-4.689-8.545-6.056l-5.182-19.342 207.15 55.522c2.169 0.575 4.015 1.997 5.126 3.946 1.142 1.965 1.447 4.309 0.844 6.502z"
  />
  <path
    d="m242.56 194.42c-11.929-5.868-25.825-6.24-38.05-1.017-9.428 3.841-17.336 10.667-22.513 19.433-8.868-4.993-19.124-6.951-29.208-5.575-13.203 1.586-25.055 8.857-32.45 19.908-12.75 20.117-5.633 49.283 17.971 74.138 18.07 20.146 53.583 32.892 73.141 38.696 3.079 0.916 6.411 0.024 8.62-2.308 14.037-14.808 38.417-43.6 43.942-69.846 8.072-33.562-0.349-62.387-21.453-73.429zm4.808 69.675c-3.25 15.429-16.321 36.383-36.092 58.004-27.938-8.837-49.746-20.462-60.429-32.367-17.637-18.579-24.258-40.546-16.096-53.421 4.711-6.765 12.099-11.182 20.287-12.129 9.01-1.218 18.086 1.711 24.683 7.967 2.151 1.967 5.156 2.7 7.971 1.946s5.05-2.893 5.929-5.671c2.608-8.705 8.997-15.772 17.396-19.242 7.565-3.273 16.172-3.141 23.633 0.362 13.51 7.068 18.76 29.405 12.718 54.551z"
  />
  <path
    d="m99.974 85.694c-6.115-3.046-13.256-3.265-19.546-0.6-3.347 1.366-6.339 3.477-8.75 6.171-3.434-1.129-7.081-1.461-10.663-0.971-6.781 0.841-12.855 4.604-16.629 10.3-6.4 10.096-3.312 24.221 7.7 35.808 8.983 8.169 19.841 13.997 31.612 16.971 3.079 0.916 6.412 0.024 8.621-2.308 8.658-8.399 15.127-18.79 18.842-30.267 3.792-15.779-0.596-29.558-11.187-35.104zm-5.459 31.354c-2.287 6.84-6.048 13.094-11.017 18.321-6.993-2.071-13.439-5.67-18.871-10.537-5.779-6.088-7.5-12.459-5.829-15.1 1.076-1.421 2.693-2.333 4.467-2.517 0.309-0.043 0.621-0.064 0.933-0.062 1.794 7e-3 3.516 0.705 4.808 1.95 2.151 1.967 5.156 2.7 7.971 1.946s5.05-2.892 5.929-5.671c0.582-2.041 2.067-3.702 4.029-4.508 1.628-0.725 3.483-0.745 5.125-0.054 2.772 1.453 4.468 7.833 2.455 16.232z"
  />
  <path
    d="m328.97 360.05c-6.112-3.061-13.26-3.283-19.55-0.608-3.348 1.366-6.341 3.478-8.75 6.175-3.435-1.125-7.08-1.458-10.662-0.975-6.781 0.841-12.855 4.604-16.629 10.3-6.396 10.092-3.308 24.221 7.704 35.817 8.982 8.168 19.84 13.994 31.612 16.963 3.078 0.916 6.409 0.024 8.617-2.308 8.658-8.399 15.127-18.79 18.842-30.267 3.792-15.784-0.6-29.559-11.184-35.097zm-5.462 31.346c-2.288 6.841-6.05 13.097-11.021 18.325-6.991-2.072-13.436-5.671-18.867-10.537-5.779-6.088-7.5-12.463-5.829-15.104 1.076-1.421 2.693-2.333 4.467-2.517 0.309-0.043 0.621-0.064 0.933-0.062 1.794 7e-3 3.516 0.705 4.808 1.95 2.151 1.967 5.156 2.7 7.971 1.946s5.05-2.892 5.929-5.671c0.583-2.04 2.067-3.701 4.029-4.508 1.63-0.721 3.486-0.737 5.129-0.046 2.772 1.449 4.464 7.824 2.451 16.224z"
  />
</svg>
