<svg
  enableBackground="new 0 0 64 64"
  viewBox="0 0 64 64"
  xmlns="http://www.w3.org/2000/svg"
>
  <path
    d="m55.868 30.178c-0.591-0.298-1.6 0.075-1.757-0.842-0.115-0.675 0.111-1.404 0.162-2.111 0.06-0.836 0.055-1.678 0.148-2.51 0.54-4.802 0.734-9.629 1.097-14.443 0.07-0.928-0.341-1.424-1.289-1.455-1.641-0.054-3.286-0.131-4.869 0.429-0.438 0.155-0.811 0.304-1.181-0.157-2.501-3.123-5.997-4.078-9.759-4.406-0.57-0.05-0.952-0.225-1.34-0.672-1.935-2.23-7.132-2.607-9.423-0.723-0.205 0.168-0.44 0.335-0.565 0.557-0.375 0.661-0.944 0.79-1.656 0.86-3.131 0.306-6.205 0.928-8.488 3.296-1.025 1.063-1.853 1.575-3.365 1-0.944-0.359-2.101-0.21-3.161-0.197-1.78 0.021-1.981 0.246-1.846 2.063 0.428 5.783 0.863 11.566 1.341 17.345 0.081 0.979 0.108 1.647-1.159 1.821-1.03 0.141-1.812 0.892-2.375 1.792-1.381 2.209-0.837 5.508 1.762 6.815 2.325 1.169 2.507 2.831 2.534 4.875 4e-3 0.31 0.041 0.619 0.069 0.928 0.394 4.442 2.054 8.311 5.206 11.506 4.422 4.48 9.805 6.37 15.835 5.907 1.229 0 2.249 0.021 3.267-3e-3 8.575-0.205 16.393-6.819 17.931-15.246 0.333-1.824 0.432-3.696 0.559-5.551 0.051-0.744 0.236-1.188 0.991-1.491 1.579-0.632 2.765-1.747 3.428-3.346 0.987-2.387 0.042-4.962-2.097-6.041zm-46.163 7.438c-1.964-0.672-2.835-3.768-1.441-5.204 0.376-0.387 0.839-0.776 1.379-0.649 0.63 0.148 0.361 0.803 0.425 1.236 0.095 0.652 0.091 1.318 0.129 1.978h0.07v2.114c-1e-3 0.373 0.037 0.73-0.562 0.525zm27.451-28.429c0.315-0.574 0.575-1.21 0.7-1.85 0.132-0.671 0.382-0.965 0.903-0.796 2.832 0.377 5.372 1.005 7.381 3.001 0.714 0.71 0.912 1.175 0.115 2.035-1.498 1.615-2.607 3.576-4.361 4.979-1.339 1.071-1.33 1.078-2.239-0.314-0.773-1.185-1.555-2.365-2.327-3.551-0.736-1.133-0.844-2.279-0.172-3.504zm-18.426-0.351c1.518-1.201 4.585-2.273 6.579-2.288 0.514-0.099 0.783 0.118 0.857 0.681 0.051 0.388 0.132 0.819 0.344 1.132 1.335 1.974 0.817 3.742-0.484 5.484-0.687 0.92-1.342 1.873-1.912 2.868-0.437 0.764-0.837 0.707-1.454 0.245-1.583-1.183-2.783-2.706-3.943-4.273-0.132-0.178-0.267-0.352-0.403-0.527-1.435-1.839-1.433-1.859 0.416-3.322zm-6.799 24.55c-0.032-0.793-0.076-1.586-0.097-2.008 0.186-1.707-0.073-3.014-0.247-4.323-0.099-0.747 0.031-1.145 0.911-1.178 1.632-0.06 3.262-0.201 4.887-0.36 0.766-0.075 0.988 0.182 0.741 0.886-1.05 2.997-2.828 5.47-5.335 7.423-0.625 0.487-0.833 0.227-0.86-0.44zm39.984 4.415c-0.262 2.777-0.217 5.578-0.703 8.339-1.43 8.124-9.285 14.331-17.502 13.82-0.618-0.038-1.24-5e-3 -1.86-5e-3 -5.146 0.568-9.639-0.923-13.526-4.298-3.327-2.889-5.265-6.526-5.683-10.921-0.226-2.381-0.324-4.773-0.504-7.159-0.05-0.669 0.079-1.147 0.7-1.562 3.677-2.453 6.209-5.76 7.284-10.094 0.151-0.608 0.472-0.755 1.036-0.743 1.506 0.03 3.013 0.032 4.52 0.019 0.612-5e-3 1.115 0.216 1.592 0.568 1.248 0.92 2.531 1.796 3.743 2.76 0.709 0.563 1.311 0.66 1.99 0.019 0.256-0.242 0.59-0.405 0.833-0.657 2.502-2.593 5.629-3.05 9.019-2.721 0.623 0.06 0.934 0.203 1.097 0.848 1.055 4.183 3.486 7.42 7.013 9.827 0.771 0.525 1.036 1.066 0.951 1.96zm-21.898-12.492h3.768c-1.24 1.821-1.774 1.843-3.768 0zm22.459 1.151c-0.433 2.522-0.154 5.092-0.456 7.832-2.11-1.288-3.479-2.978-4.663-4.85-0.569-0.899-1.029-1.852-1.38-2.858-0.257-0.737-0.248-1.177 0.765-1.065 1.624 0.179 3.259 0.255 4.889 0.384 0.379 0.03 0.945-0.023 0.845 0.557zm1.115-14.806c-0.132 1.857-0.257 3.714-0.384 5.571-2e-3 0-5e-3 0-7e-3 -1e-3 -0.139 1.945-0.313 3.889-0.401 5.836-0.037 0.81-0.315 1.089-1.125 0.994-6.438-0.755-12.908-0.767-19.374-0.71-6.196 0.054-12.404-0.192-18.582 0.608-2.318 0.3-2.349 0.21-2.523-2.073-0.256-3.359-0.457-6.722-0.737-10.078-0.078-0.933 0.181-1.235 1.142-1.227 2.267 0.02 3.993 0.929 5.311 2.761 1.425 1.981 2.906 3.923 4.97 5.313 1.988 1.338 2.362 1.255 3.653-0.76 0.908-1.418 1.858-2.81 2.755-4.234 1.075-1.707 1.179-3.432 0.249-5.292-1.33-2.661-0.259-4.277 2.75-4.306 0.841-8e-3 1.694-0.054 2.522 0.061 1.841 0.255 2.91 1.902 2.003 3.494-1.632 2.866-0.827 5.242 0.92 7.621 0.839 1.142 1.596 2.345 2.36 3.539 0.535 0.835 1.183 0.951 2.035 0.498 1.84-0.979 3.273-2.41 4.557-4.014 0.747-0.934 1.465-1.893 2.229-2.813 1.283-1.547 3.043-1.846 4.922-1.852 0.818-3e-3 0.795 0.497 0.755 1.064zm2.72 23.71c-0.06 0.165-0.116 0.337-0.209 0.484-0.516 0.827-1.135 1.866-2.104 1.711-0.533-0.085-0.05-1.33-0.144-2.046-0.023-0.173-3e-3 -0.352-3e-3 -0.429 0.053-0.891 0.124-1.682 0.143-2.475 0.026-1.081 0.567-1.019 1.279-0.611 1.096 0.628 1.523 2.019 1.038 3.366z"
  />
  <path
    d="m42.237 33.406c0.576 0 1.152 0.015 1.728-4e-3 0.539-0.018 0.982-0.238 1.012-0.834 0.031-0.599-0.393-0.883-0.926-0.922-0.882-0.064-1.77-0.094-2.655-0.087-3.425 0.031-4.919 1.498-5.05 4.939-0.059 1.548 3e-3 3.103-0.292 4.637-0.4 2.082-1.663 3.14-3.784 3.164-2.805 0.032-4.07-1.034-4.379-3.862-0.187-1.714-0.136-3.455-0.326-5.169-0.198-1.784-1.166-3.057-2.975-3.501-1.481-0.363-2.997-0.24-4.5-0.14-0.574 0.038-1.075 0.302-1.011 0.981 0.054 0.582 0.511 0.79 1.053 0.794 0.886 6e-3 1.773-0.017 2.658-3e-3 2.18 0.035 2.97 0.782 3.063 2.946 0.068 1.593 0.033 3.188 0.272 4.773 0.486 3.231 2.643 5.094 5.925 5.082 3.289-0.012 5.425-1.89 5.885-5.129 0.238-1.674 0.181-3.36 0.283-5.039 0.109-1.794 0.903-2.535 2.69-2.625 0.442-0.02 0.886-1e-3 1.329-1e-3z"
  />
  <path
    d="M19.477 35.092c-2.583.005-4.672 2.071-4.678 4.626-.006 2.586 2.054 4.657 4.636 4.662 2.592.005 4.686-2.062 4.682-4.62C24.112 37.176 22.036 35.087 19.477 35.092zM19.441 42.554c-1.536-.006-2.776-1.251-2.783-2.793-.007-1.529 1.243-2.818 2.753-2.841 1.579-.024 2.865 1.274 2.847 2.873C22.241 41.32 20.975 42.56 19.441 42.554zM44.53 35.092c-2.572.03-4.612 2.124-4.593 4.712.019 2.559 2.13 4.604 4.721 4.573 2.583-.03 4.628-2.123 4.596-4.703C49.221 37.126 47.094 35.062 44.53 35.092zM44.551 42.556c-1.537-.027-2.767-1.287-2.754-2.821.013-1.555 1.23-2.791 2.767-2.81 1.562-.02 2.873 1.319 2.834 2.894C47.36 41.348 46.076 42.583 44.551 42.556zM34.517 49.712c-1.641-.784-3.364-.787-5.002.009-2.288 1.113-2.622 3.961-.698 5.617.9.775 1.978 1.148 3.172 1.267 1.206-.093 2.328-.472 3.262-1.281C37.166 53.663 36.812 50.808 34.517 49.712zM32.084 54.634c-1.433.016-2.629-.819-2.658-1.855-.029-1.063.872-1.649 2.54-1.651 1.778-.002 2.704.577 2.661 1.666C34.588 53.785 33.437 54.618 32.084 54.634zM31.452 13.917c-1.238 1.26-2.512 2.52-2.523 4.933.005 1.352 1.591 3.053 3.19 2.966 1.678-.09 3.072-1.778 2.994-3.611-.078-1.845-1.316-3.023-2.455-4.246C32.326 13.601 31.797 13.566 31.452 13.917zM32.074 19.781c-.957.023-1.323-.637-1.284-1.481.041-.866.428-1.983 1.185-1.992.921-.012 1.132 1.154 1.316 1.975C33.222 19.102 32.96 19.759 32.074 19.781zM15.997 15.663c-.668-.745-1.516-.605-1.918.31-.497 1.132-.914 2.308-.955 3.247-.06 2.639 1.702 3.561 4.11 2.481 1.474-.661 1.897-1.756 1.043-3.105C17.617 17.553 16.822 16.583 15.997 15.663zM16.488 19.949c-.158.309-.88.529-1.192.236-.711-.67-.217-1.412.16-2.412C15.925 18.681 16.972 19.004 16.488 19.949zM48.052 15.656c-.751.811-1.435 1.691-2.08 2.59-.592.825-.96 1.731-.229 2.69.678.89 2.684 1.454 3.787 1.06 1.158-.413 1.417-1.358 1.416-2.455-.07-1.256-.478-2.435-.977-3.568C49.564 15.053 48.736 14.917 48.052 15.656zM48.791 20.169c-.341.326-1.149.088-1.283-.281-.333-.911.58-1.277 1.162-2.036C48.974 18.801 49.436 19.552 48.791 20.169z"
  />
</svg>
