<svg xmlns="http://www.w3.org/2000/svg" viewBox="0 0 208 326">
    <defs>
        <style>
            .cls-1 {
                fill: #fff;
            }

            .cls-2 {
                fill: #6f7072;
            }
        </style>
    </defs>
    <title>2C-fr-2c</title>
    <g id="Calque_2" data-name="Calque 2">
        <g id="FR_-_EN" data-name="FR - EN">
            <path class="cls-1" d="M14.83,325A13.84,13.84,0,0,1,1,311.18V14.82A13.84,13.84,0,0,1,14.83,1H193.17A13.84,13.84,0,0,1,207,14.82V311.18A13.84,13.84,0,0,1,193.17,325Z"
            />
            <path class="cls-2" d="M193.17,2A12.84,12.84,0,0,1,206,14.82V309.18h0v2A12.84,12.84,0,0,1,193.17,324H14.83A12.84,12.84,0,0,1,2,311.18V14.82A12.84,12.84,0,0,1,14.83,2H193.17m0-2H14.83A14.83,14.83,0,0,0,0,14.82V311.18A14.83,14.83,0,0,0,14.83,326H193.17A14.83,14.83,0,0,0,208,311.18h0V14.82A14.83,14.83,0,0,0,193.17,0Z"
            />
            <path d="M104.71,40.65c5.59,0,8,4.11,8,8.44s-3.87,6.92-5.38,9.52a8,8,0,0,0-1.07,5h-3a7.91,7.91,0,0,0-1.08-5c-1.51-2.6-5.38-5.19-5.38-9.52S99.12,40.65,104.71,40.65Z"
            />
            <path d="M127.52,65.43c0,5.62-4.09,8-8.39,8s-6.88-3.89-9.46-5.4a7.85,7.85,0,0,0-5-1.09v-3a7.8,7.8,0,0,0,5-1.08c2.58-1.51,5.16-5.4,9.46-5.4S127.52,59.81,127.52,65.43Z"
            />
            <path d="M80.49,65.43c0-5.62,4.09-8,8.39-8s6.88,3.89,9.46,5.4a7.83,7.83,0,0,0,5,1.09v3a7.78,7.78,0,0,0-5,1.08c-2.58,1.51-5.16,5.4-9.46,5.4S80.49,71.05,80.49,65.43Z"
            />
            <path d="M106.37,61.76V73.88c0,5.7,8.06,11.22,8.06,11.22H95s8.06-5.52,8.06-11.22V61.76Z" />
            <path d="M104.71,284.79c5.59,0,8-4.11,8-8.43s-3.87-6.93-5.38-9.52a8,8,0,0,1-1.07-5h-3a8,8,0,0,1-1.08,5c-1.51,2.59-5.38,5.19-5.38,9.52S99.12,284.79,104.71,284.79Z"
            />
            <path d="M127.52,260c0-5.63-4.09-8-8.39-8s-6.88,3.9-9.46,5.41a7.88,7.88,0,0,1-5,1.08v3a7.88,7.88,0,0,1,5,1.08c2.58,1.52,5.16,5.41,9.46,5.41S127.52,265.64,127.52,260Z"
            />
            <path d="M80.49,260c0,5.62,4.09,8,8.39,8s6.88-3.89,9.46-5.41a7.86,7.86,0,0,1,5-1.08v-3a7.86,7.86,0,0,1-5-1.08c-2.58-1.51-5.16-5.41-9.46-5.41S80.49,254.39,80.49,260Z"
            />
            <path d="M106.37,263.68V251.56c0-5.7,8.06-11.22,8.06-11.22H95s8.06,5.52,8.06,11.22v12.12Z" />
            <path d="M30.08,39.13H14.41l-.2-1.38c0-.23-.77-5.66,3.14-8.54,2.56-1.87,7.88-5.78,8.9-7.31s1.14-5.11-.71-6.82c-1.17-1.08-3.84-1.25-5.85-.36a3.67,3.67,0,0,0-2.43,3.41H14a6.81,6.81,0,0,1,4.36-6.37c3.19-1.41,7.2-1,9.3.93,3,2.79,3.14,8.11,1.22,11-1.12,1.68-4.53,4.36-9.68,8.13a5.38,5.38,0,0,0-1.88,4.08h9.51V33.75h3.22v5.38Z"
            />
            <path d="M194.08,39.13H178.41l-.2-1.38c0-.23-.77-5.66,3.15-8.54,2.55-1.87,7.87-5.78,8.89-7.31s1.14-5.11-.71-6.82c-1.17-1.08-3.84-1.25-5.85-.36a3.67,3.67,0,0,0-2.44,3.41H178a6.81,6.81,0,0,1,4.36-6.37c3.19-1.41,7.2-1,9.3.93,3,2.79,3.14,8.11,1.22,11-1.12,1.68-4.53,4.36-9.68,8.13a5.38,5.38,0,0,0-1.88,4.08h9.51V33.75h3.21v5.38Z"
            />
            <path d="M178.16,286.66h15.67L194,288c0,.23.77,5.67-3.14,8.54-2.56,1.87-7.88,5.78-8.9,7.31s-1.15,5.11.71,6.82c1.17,1.08,3.84,1.25,5.84.36a3.66,3.66,0,0,0,2.44-3.41h3.22a6.81,6.81,0,0,1-4.36,6.37c-3.19,1.41-7.2,1-9.3-.93-3-2.79-3.14-8.11-1.22-11,1.12-1.68,4.53-4.35,9.68-8.13a5.38,5.38,0,0,0,1.88-4.08h-9.51v2.16h-3.21v-5.39Z"
            />
            <path d="M14.16,286.66H29.83L30,288c0,.23.78,5.67-3.14,8.54-2.55,1.87-7.88,5.78-8.9,7.31s-1.14,5.11.72,6.82c1.16,1.08,3.84,1.25,5.84.36A3.67,3.67,0,0,0,27,307.66H30.2A6.82,6.82,0,0,1,25.85,314c-3.2,1.41-7.21,1-9.31-.93-3-2.79-3.14-8.11-1.21-11,1.11-1.68,4.52-4.35,9.67-8.13a5.38,5.38,0,0,0,1.88-4.08H17.37v2.16H14.16v-5.39Z"
            />
            <path d="M28.13,52.94c-1.79,0-2.87,1.67-3.94,2.32a1.35,1.35,0,0,1-.81.2,1.7,1.7,0,0,1-.18-1.83c.63-1.12,2.24-2.23,2.24-4.09s-1-3.62-3.32-3.62-3.31,1.76-3.31,3.62,1.61,3,2.24,4.09a1.67,1.67,0,0,1-.2,1.83,1.29,1.29,0,0,1-.79-.2c-1.07-.65-2.15-2.32-3.95-2.32a3.44,3.44,0,1,0,0,6.88c1.8,0,2.87-1.68,3.95-2.33A1.35,1.35,0,0,1,21,57.3c.94,3.37-2.17,8.62-2.17,8.62a10.41,10.41,0,0,1,3.32-.46,10.41,10.41,0,0,1,3.32.46s-3.53-5.33-2.26-8.6a1.32,1.32,0,0,1,1,.17c1.08.65,2.16,2.33,3.95,2.33a3.44,3.44,0,1,0,0-6.88Z"
            />
            <path d="M192.13,52.94c-1.79,0-2.87,1.67-3.94,2.32a1.35,1.35,0,0,1-.81.2,1.7,1.7,0,0,1-.18-1.83c.63-1.12,2.24-2.23,2.24-4.09s-1-3.62-3.32-3.62-3.31,1.76-3.31,3.62,1.61,3,2.24,4.09a1.67,1.67,0,0,1-.2,1.83,1.29,1.29,0,0,1-.79-.2c-1.07-.65-2.15-2.32-3.95-2.32a3.44,3.44,0,1,0,0,6.88c1.8,0,2.87-1.68,3.95-2.33a1.35,1.35,0,0,1,.91-.19c.94,3.37-2.17,8.62-2.17,8.62a12.21,12.21,0,0,1,6.64,0s-3.53-5.33-2.26-8.6a1.32,1.32,0,0,1,1,.17c1.08.65,2.16,2.33,3.95,2.33a3.44,3.44,0,1,0,0-6.88Z"
            />
            <path d="M180.11,272.77c1.8,0,2.87-1.67,3.95-2.32a1.31,1.31,0,0,1,.8-.2,1.68,1.68,0,0,1,.18,1.83c-.63,1.12-2.24,2.23-2.24,4.09s1,3.62,3.32,3.62,3.32-1.76,3.32-3.62-1.62-3-2.24-4.09a1.67,1.67,0,0,1,.19-1.83,1.26,1.26,0,0,1,.79.2c1.08.65,2.15,2.32,3.95,2.32a3.44,3.44,0,1,0,0-6.88c-1.8,0-2.87,1.68-3.95,2.33a1.27,1.27,0,0,1-.9.18c-.95-3.36,2.16-8.61,2.16-8.61a12.21,12.21,0,0,1-6.64,0s3.53,5.33,2.26,8.6a1.37,1.37,0,0,1-1-.17c-1.07-.65-2.15-2.33-3.95-2.33a3.44,3.44,0,1,0,0,6.88Z"
            />
            <path d="M16.11,272.77c1.8,0,2.87-1.67,3.95-2.32a1.31,1.31,0,0,1,.8-.2,1.68,1.68,0,0,1,.18,1.83c-.63,1.12-2.24,2.23-2.24,4.09s1,3.62,3.32,3.62,3.32-1.76,3.32-3.62-1.62-3-2.24-4.09a1.67,1.67,0,0,1,.19-1.83,1.26,1.26,0,0,1,.79.2c1.08.65,2.16,2.32,3.95,2.32a3.44,3.44,0,1,0,0-6.88c-1.79,0-2.87,1.68-3.95,2.33a1.27,1.27,0,0,1-.9.18c-1-3.36,2.16-8.61,2.16-8.61a10.41,10.41,0,0,1-3.32.46,10.41,10.41,0,0,1-3.32-.46s3.53,5.33,2.26,8.6a1.37,1.37,0,0,1-1-.17c-1.07-.65-2.15-2.33-3.95-2.33a3.44,3.44,0,1,0,0,6.88Z"
            />
        </g>
    </g>
</svg>
