<svg xmlns="http://www.w3.org/2000/svg" viewBox="0 0 208 326">
    <defs>
        <style>
            .cls-1 {
                fill: #fff;
            }

            .cls-2 {
                fill: #6f7072;
            }

            .cls-3 {
                fill: #1e657f;
            }
        </style>
    </defs>
    <title>2C-us-4c</title>
    <g id="Calque_2" data-name="Calque 2">
        <g id="FR_-_EN" data-name="FR - EN">
            <path class="cls-1" d="M14.83,325A13.84,13.84,0,0,1,1,311.18V14.82A13.84,13.84,0,0,1,14.83,1H193.17A13.84,13.84,0,0,1,207,14.82V311.18A13.84,13.84,0,0,1,193.17,325Z"
            />
            <path class="cls-2" d="M193.17,2A12.84,12.84,0,0,1,206,14.82V309.18h0v2A12.84,12.84,0,0,1,193.17,324H14.83A12.84,12.84,0,0,1,2,311.18V14.82A12.84,12.84,0,0,1,14.83,2H193.17m0-2H14.83A14.83,14.83,0,0,0,0,14.82V311.18A14.83,14.83,0,0,0,14.83,326H193.17A14.83,14.83,0,0,0,208,311.18h0V14.82A14.83,14.83,0,0,0,193.17,0Z"
            />
            <path class="cls-3" d="M32.77,65c.39-4.5-3.51-8.2-7.56-4.35l-.83-1.2c4.52-2.93,2.29-8.43-2.71-8.69-5.1.05-7.58,5.69-3,8.69l-.83,1.2c-4.62-4.38-8.81,1.05-7.28,5.67a5.25,5.25,0,0,0,4.52,3.91,3.84,3.84,0,0,0,2.93-1c.81-.61,1-1.77,1.56-2.32.65.34.62.28.59,1a16.5,16.5,0,0,1-2.58,5.58,26.35,26.35,0,0,1,7.83,0,16.47,16.47,0,0,1-2.57-5.58c0-.71,0-.67.59-1,.55.54.77,1.75,1.56,2.32a3.82,3.82,0,0,0,2.92,1c2.39-.08,4.26-2.26,4.7-4.53"
            />
            <path class="cls-3" d="M198.21,65c.39-4.5-3.51-8.2-7.57-4.35l-.82-1.2c4.51-2.93,2.29-8.43-2.71-8.69-5.1.05-7.58,5.69-3,8.69l-.83,1.2c-4.62-4.38-8.81,1.05-7.28,5.67a5.24,5.24,0,0,0,4.52,3.91,3.86,3.86,0,0,0,2.93-1c.81-.61,1-1.77,1.55-2.32.65.34.63.28.6,1a16.5,16.5,0,0,1-2.58,5.58,26.35,26.35,0,0,1,7.83,0,16.47,16.47,0,0,1-2.57-5.58c-.05-.71,0-.67.59-1,.55.54.77,1.75,1.56,2.32a3.82,3.82,0,0,0,2.92,1c2.38-.08,4.26-2.26,4.69-4.53"
            />
            <path class="cls-3" d="M175.75,260.86c-.38,4.5,3.51,8.21,7.57,4.36l.83,1.19c-4.52,2.93-2.3,8.43,2.71,8.69,5.1,0,7.58-5.69,2.95-8.69l.82-1.19c4.63,4.37,8.82-1.05,7.29-5.68a5.24,5.24,0,0,0-4.52-3.9,3.84,3.84,0,0,0-2.93,1c-.81.61-1,1.77-1.56,2.32-.65-.34-.62-.27-.59-1a16.39,16.39,0,0,1,2.57-5.58,27,27,0,0,1-7.82,0,16.28,16.28,0,0,1,2.56,5.58c.05.7,0,.66-.59,1-.54-.53-.76-1.75-1.56-2.32a3.76,3.76,0,0,0-2.92-1c-2.38.08-4.25,2.26-4.69,4.52"
            />
            <path class="cls-3" d="M10.31,260.86c-.38,4.5,3.52,8.21,7.57,4.36l.83,1.19c-4.52,2.93-2.29,8.43,2.71,8.69,5.1,0,7.58-5.69,2.95-8.69l.82-1.19c4.63,4.37,8.82-1.05,7.29-5.68a5.24,5.24,0,0,0-4.52-3.9,3.84,3.84,0,0,0-2.93,1c-.81.61-1,1.77-1.56,2.32-.65-.34-.62-.27-.59-1a16.41,16.41,0,0,1,2.58-5.58,27,27,0,0,1-7.83,0A16.3,16.3,0,0,1,20.2,258c0,.7,0,.66-.59,1-.55-.53-.77-1.75-1.56-2.32a3.78,3.78,0,0,0-2.93-1c-2.38.08-4.25,2.26-4.69,4.52"
            />
            <path class="cls-3" d="M15.72,18.05c.55-6.23,8.29-7.85,11.1-2.24a6.24,6.24,0,0,1-1.26,7C19.77,28,10.77,34.28,12,43.25H31.24V35l-3.29,0v4.49H15.81c2-10.82,20.79-13.42,13.27-26.66C23.53,5,11.85,9.45,12.33,19.06h3.44l0-.28"
            />
            <path class="cls-3" d="M181.16,18.05c.55-6.23,8.29-7.85,11.1-2.24a6.26,6.26,0,0,1-1.26,7c-5.8,5.19-14.8,11.45-13.61,20.42h19.29V35l-3.29,0v4.49H181.25c2-10.82,20.79-13.42,13.27-26.66C189,5,177.29,9.45,177.77,19.06h3.44l-.05-.28"
            />
            <path class="cls-3" d="M192.81,306.07c-.55,6.23-8.29,7.86-11.11,2.24a6.26,6.26,0,0,1,1.27-7c5.79-5.19,14.79-11.45,13.6-20.42H177.29v8.23l3.29-.05v-4.49h12.14c-2,10.82-20.79,13.42-13.28,26.66,5.56,7.93,17.23,3.45,16.75-6.16h-3.43l.05.28"
            />
            <path class="cls-3" d="M27.37,306.07c-.55,6.23-8.29,7.86-11.11,2.24a6.26,6.26,0,0,1,1.27-7c5.79-5.19,14.79-11.45,13.6-20.42H11.85v8.23l3.29-.05v-4.49H27.28C25.28,295.38,6.49,298,14,311.22c5.56,7.93,17.23,3.45,16.75-6.16H27.32l.05.28"
            />
            <path class="cls-3" d="M126.57,56.54c.78-9-7-16.41-15.13-8.71l-1.65-2.39c9-5.85,4.58-16.87-5.42-17.39-10.21.1-15.17,11.38-5.9,17.39l-1.65,2.39c-9.25-8.75-17.63,2.1-14.58,11.35,1.17,4,4.76,7.66,9.05,7.8a7.61,7.61,0,0,0,5.85-2.06c1.63-1.22,2-3.54,3.12-4.64,1.3.68,1.24.55,1.18,2-.61,3.78-3.12,8-5.15,11.16a52.69,52.69,0,0,1,15.66,0c-2-3.26-4.53-7.29-5.14-11.16-.09-1.42-.06-1.33,1.18-2,1.09,1.06,1.53,3.5,3.12,4.64A7.64,7.64,0,0,0,117,67c4.77-.16,8.52-4.51,9.39-9"
            />
            <path class="cls-3" d="M81.66,269.29c-.78,9,7,16.42,15.13,8.71l1.65,2.4c-9,5.85-4.58,16.86,5.43,17.38,10.2-.09,15.16-11.38,5.89-17.38l1.66-2.4c9.24,8.75,17.62-2.09,14.57-11.34-1.17-4-4.76-7.67-9-7.81a7.65,7.65,0,0,0-5.85,2.06c-1.63,1.22-2,3.55-3.12,4.64-1.3-.67-1.24-.54-1.18-2,.61-3.79,3.12-8,5.15-11.16a53.37,53.37,0,0,1-15.66,0c2,3.25,4.53,7.29,5.14,11.16.09,1.41.06,1.32-1.18,2-1.09-1.06-1.53-3.5-3.12-4.64a7.64,7.64,0,0,0-5.84-2.06c-4.77.16-8.52,4.51-9.38,9"
            />
        </g>
    </g>
</svg>
