<svg xmlns="http://www.w3.org/2000/svg" viewBox="0 0 208 326">
    <defs>
        <style>
            .cls-1 {
                fill: #fff;
            }

            .cls-2 {
                fill: #6f7072;
            }

            .cls-3 {
                fill: #f72014;
            }
        </style>
    </defs>
    <title>2D-fr-2c</title>
    <g id="Calque_2" data-name="Calque 2">
        <g id="FR_-_EN" data-name="FR - EN">
            <path class="cls-1" d="M14.83,325A13.84,13.84,0,0,1,1,311.18V14.82A13.84,13.84,0,0,1,14.83,1H193.17A13.84,13.84,0,0,1,207,14.82V311.18A13.84,13.84,0,0,1,193.17,325Z"
            />
            <path class="cls-2" d="M193.17,2A12.84,12.84,0,0,1,206,14.82V311.18A12.84,12.84,0,0,1,193.17,324H14.83A12.84,12.84,0,0,1,2,311.18V14.82A12.84,12.84,0,0,1,14.83,2H193.17m0-2H14.83A14.83,14.83,0,0,0,0,14.82V311.18A14.82,14.82,0,0,0,14.83,326H193.17A14.83,14.83,0,0,0,208,311.18V14.82A14.83,14.83,0,0,0,193.17,0Z"
            />
            <path class="cls-3" d="M22,45.84s3.67,8.07,9.1,10.11A23.7,23.7,0,0,0,22,65.84s-1.63-5.81-8.9-10A17.25,17.25,0,0,0,22,45.84Z"
            />
            <path class="cls-3" d="M185.9,46s3.67,8.08,9.1,10.12A23.63,23.63,0,0,0,185.9,66s-1.63-5.81-8.9-10A17.17,17.17,0,0,0,185.9,46Z"
            />
            <path class="cls-3" d="M21.9,260.09s3.67,8.07,9.1,10.11a23.62,23.62,0,0,0-9.1,9.89s-1.63-5.82-8.9-10A17.18,17.18,0,0,0,21.9,260.09Z"
            />
            <path class="cls-3" d="M185.9,259.85s3.67,8.08,9.1,10.11a23.7,23.7,0,0,0-9.1,9.89s-1.63-5.81-8.9-10A17.21,17.21,0,0,0,185.9,259.85Z"
            />
            <path class="cls-3" d="M30,39.23H14.29l-.2-1.38c0-.23-.77-5.66,3.14-8.54,2.55-1.87,7.88-5.77,8.9-7.31s1.14-5.11-.71-6.82c-1.17-1.08-3.85-1.24-5.85-.36a3.66,3.66,0,0,0-2.43,3.41H13.92a6.82,6.82,0,0,1,4.36-6.37c3.19-1.41,7.2-1,9.3.94,3,2.79,3.14,8.1,1.22,11-1.12,1.67-4.53,4.35-9.68,8.12A5.41,5.41,0,0,0,17.24,36h9.51V33.85H30v5.38Z"
            />
            <path class="cls-3" d="M194,39.23H178.29l-.2-1.38c0-.23-.77-5.66,3.14-8.54,2.56-1.87,7.88-5.77,8.9-7.31s1.14-5.11-.71-6.82c-1.17-1.08-3.84-1.24-5.85-.36a3.67,3.67,0,0,0-2.44,3.41h-3.21a6.82,6.82,0,0,1,4.36-6.37c3.19-1.41,7.2-1,9.3.94,3,2.79,3.14,8.1,1.21,11-1.11,1.67-4.52,4.35-9.67,8.12A5.41,5.41,0,0,0,181.24,36h9.51V33.85H194v5.38Z"
            />
            <path class="cls-3" d="M178,286.76h15.68l.2,1.38c0,.23.77,5.67-3.14,8.54-2.56,1.88-7.88,5.78-8.9,7.31s-1.15,5.11.71,6.83c1.17,1.08,3.84,1.24,5.84.36a3.68,3.68,0,0,0,2.44-3.42h3.22a6.84,6.84,0,0,1-4.36,6.38c-3.19,1.41-7.2,1-9.3-.94-3-2.79-3.14-8.11-1.22-11,1.12-1.67,4.53-4.35,9.68-8.13a5.38,5.38,0,0,0,1.88-4.08h-9.51v2.16H178v-5.39Z"
            />
            <path class="cls-3" d="M14,286.76H29.71l.2,1.38c0,.23.77,5.67-3.14,8.54-2.56,1.88-7.88,5.78-8.9,7.31s-1.14,5.11.71,6.83c1.17,1.08,3.85,1.24,5.85.36a3.68,3.68,0,0,0,2.44-3.42h3.21a6.84,6.84,0,0,1-4.36,6.38c-3.19,1.41-7.2,1-9.3-.94-3-2.79-3.14-8.11-1.22-11,1.12-1.67,4.53-4.35,9.68-8.13A5.38,5.38,0,0,0,26.76,290H17.25v2.16H14v-5.39Z"
            />
            <path class="cls-3" d="M103.61,40.9s9.63,19.23,23.9,24.08a59.56,59.56,0,0,0-23.9,23.53s-4.29-13.83-23.37-23.8C80.23,64.71,97,58.51,103.61,40.9Z"
            />
            <path class="cls-3" d="M103.61,237.17s9.63,19.22,23.9,24.07a59.54,59.54,0,0,0-23.9,23.54S99.32,270.94,80.24,261C80.23,261,97,254.78,103.61,237.17Z"
            />
        </g>
    </g>
</svg>
