<svg xmlns="http://www.w3.org/2000/svg" viewBox="0 0 208 326">
    <defs>
        <style>
            .cls-1 {
                fill: #fff;
            }

            .cls-2 {
                fill: #6f7072;
            }

            .cls-3 {
                fill: #f5a11a;
            }
        </style>
    </defs>
    <title>2D-us-4c</title>
    <g id="Calque_2" data-name="Calque 2">
        <g id="FR_-_EN" data-name="FR - EN">
            <path class="cls-1" d="M14.83,325A13.84,13.84,0,0,1,1,311.18V14.82A13.84,13.84,0,0,1,14.83,1H193.17A13.84,13.84,0,0,1,207,14.82V311.18A13.84,13.84,0,0,1,193.17,325Z"
            />
            <path class="cls-2" d="M193.17,2A12.84,12.84,0,0,1,206,14.82V311.18A12.84,12.84,0,0,1,193.17,324H14.83A12.84,12.84,0,0,1,2,311.18V14.82A12.84,12.84,0,0,1,14.83,2H193.17m0-2H14.83A14.83,14.83,0,0,0,0,14.82V311.18A14.82,14.82,0,0,0,14.83,326H193.17A14.82,14.82,0,0,0,208,311.18V14.82A14.82,14.82,0,0,0,193.17,0Z"
            />
            <path class="cls-3" d="M178.05,263.9a64.48,64.48,0,0,1,8.75,12.75,63.81,63.81,0,0,1,8.76-12.75,63.46,63.46,0,0,1-8.76-12.74,65.58,65.58,0,0,1-8.05,12"
            />
            <path class="cls-3" d="M12.61,263.9a65,65,0,0,1,8.76,12.75,63.36,63.36,0,0,1,8.75-12.75,63,63,0,0,1-8.75-12.74,66.14,66.14,0,0,1-8.06,12"
            />
            <path class="cls-3" d="M178.05,62.21A64.12,64.12,0,0,1,186.8,75a63.46,63.46,0,0,1,8.76-12.74,63.75,63.75,0,0,1-8.76-12.74,65.5,65.5,0,0,1-8.05,12"
            />
            <path class="cls-3" d="M12.61,62.21A64.59,64.59,0,0,1,21.37,75a63,63,0,0,1,8.75-12.74,63.29,63.29,0,0,1-8.75-12.74,66.07,66.07,0,0,1-8.06,12"
            />
            <path class="cls-3" d="M15.54,18.2c.55-6.24,8.29-7.86,11.1-2.25a6.24,6.24,0,0,1-1.26,7c-5.79,5.19-14.79,11.45-13.6,20.42H31.06V35.16l-3.29.05V39.7H15.63c2-10.82,20.79-13.41,13.28-26.66C23.35,5.11,11.67,9.6,12.15,19.2h3.44l-.05-.28"
            />
            <path class="cls-3" d="M181,18.2c.55-6.24,8.29-7.86,11.1-2.25a6.26,6.26,0,0,1-1.26,7C185,28.16,176,34.42,177.21,43.39H196.5V35.16l-3.29.05V39.7H181.07c2-10.82,20.79-13.41,13.27-26.66-5.55-7.93-17.23-3.44-16.75,6.16H181l-.05-.28"
            />
            <path class="cls-3" d="M192.63,306.21c-.55,6.23-8.29,7.86-11.11,2.25a6.27,6.27,0,0,1,1.27-7c5.79-5.19,14.79-11.45,13.6-20.42H177.11v8.24l3.29-.06V284.7h12.14c-2,10.82-20.79,13.42-13.28,26.66,5.56,7.93,17.23,3.45,16.75-6.16h-3.43l0,.28"
            />
            <path class="cls-3" d="M27.19,306.21c-.55,6.23-8.29,7.86-11.11,2.25a6.27,6.27,0,0,1,1.27-7C23.14,296.24,32.14,290,31,281H11.67v8.24l3.29-.06V284.7H27.1c-2,10.82-20.79,13.42-13.27,26.66,5.55,7.93,17.22,3.45,16.74-6.16H27.14l.05.28"
            />
            <path class="cls-3" d="M86.56,51a128,128,0,0,1,17.52,25.5A126.24,126.24,0,0,1,121.6,51,126.38,126.38,0,0,1,104.08,25.5,131.65,131.65,0,0,1,88,49.41"
            />
            <path class="cls-3" d="M86.56,275.24a128.27,128.27,0,0,1,17.52,25.49,126.45,126.45,0,0,1,17.52-25.49,126.38,126.38,0,0,1-17.52-25.48A131.65,131.65,0,0,1,88,273.67"
            />
        </g>
    </g>
</svg>
