<svg xmlns="http://www.w3.org/2000/svg" viewBox="0 0 208 326">
    <defs>
        <style>
            .cls-1 {
                fill: #fff;
            }

            .cls-2 {
                fill: #6f7072;
            }

            .cls-3 {
                fill: #f72014;
            }
        </style>
    </defs>
    <title>2H-fr-2c</title>
    <g id="Calque_2" data-name="Calque 2">
        <g id="FR_-_EN" data-name="FR - EN">
            <path class="cls-1" d="M14.83,325A13.84,13.84,0,0,1,1,311.18V14.82A13.84,13.84,0,0,1,14.83,1H193.17A13.84,13.84,0,0,1,207,14.82V311.18A13.84,13.84,0,0,1,193.17,325Z"
            />
            <path class="cls-2" d="M193.17,2A12.84,12.84,0,0,1,206,14.82V311.18A12.84,12.84,0,0,1,193.17,324H14.83A12.84,12.84,0,0,1,2,311.18V14.82A12.84,12.84,0,0,1,14.83,2H193.17m0-2H14.83A14.83,14.83,0,0,0,0,14.82V311.18A14.82,14.82,0,0,0,14.83,326H193.17A14.83,14.83,0,0,0,208,311.18V14.82A14.83,14.83,0,0,0,193.17,0Z"
            />
            <path class="cls-3" d="M103.84,90.16s.29-3.09,7.63-10.47,15-14.44,16.67-22.72c1.09-5.57-1.42-15.91-13.56-15.91-9.61,0-10.74,12.5-10.74,12.5s-1.13-12.5-10.73-12.5C81,41.06,78.45,51.4,79.55,57c1.64,8.28,9.32,15.33,16.67,22.72S103.84,90.16,103.84,90.16Z"
            />
            <path class="cls-3" d="M103.84,235.8s-.28,3.09-7.62,10.48-15,14.43-16.67,22.72c-1.1,5.57,1.41,15.9,13.56,15.9,9.6,0,10.73-12.5,10.73-12.5s1.14,12.5,10.74,12.5c12.14,0,14.66-10.33,13.56-15.9-1.65-8.29-9.33-15.34-16.67-22.72S103.84,235.8,103.84,235.8Z"
            />
            <path class="cls-3" d="M30,39.22H14.29l-.2-1.39c0-.23-.77-5.66,3.14-8.54,2.55-1.87,7.88-5.77,8.9-7.31s1.14-5.11-.71-6.82c-1.17-1.08-3.85-1.24-5.85-.36a3.66,3.66,0,0,0-2.43,3.41H13.92a6.82,6.82,0,0,1,4.36-6.37c3.19-1.41,7.2-1,9.3.94,3,2.79,3.14,8.1,1.22,11-1.12,1.67-4.53,4.35-9.68,8.12A5.41,5.41,0,0,0,17.24,36h9.51V33.83H30v5.39Z"
            />
            <path class="cls-3" d="M194,39.22H178.29l-.2-1.39c0-.23-.77-5.66,3.14-8.54,2.56-1.87,7.88-5.77,8.9-7.31s1.14-5.11-.71-6.82c-1.17-1.08-3.84-1.24-5.85-.36a3.67,3.67,0,0,0-2.44,3.41h-3.21a6.82,6.82,0,0,1,4.36-6.37c3.19-1.41,7.2-1,9.3.94,3,2.79,3.14,8.1,1.21,11-1.11,1.67-4.52,4.35-9.67,8.12A5.41,5.41,0,0,0,181.24,36h9.51V33.83H194v5.39Z"
            />
            <path class="cls-3" d="M178,286.74h15.68l.2,1.38c0,.23.77,5.67-3.14,8.54-2.56,1.88-7.88,5.78-8.9,7.31s-1.15,5.12.71,6.83c1.17,1.08,3.84,1.24,5.84.36a3.68,3.68,0,0,0,2.44-3.42h3.22a6.84,6.84,0,0,1-4.36,6.38c-3.19,1.41-7.2,1-9.3-.94-3-2.79-3.14-8.11-1.22-11,1.12-1.67,4.53-4.35,9.68-8.13a5.38,5.38,0,0,0,1.88-4.08h-9.51v2.16H178v-5.39Z"
            />
            <path class="cls-3" d="M14,286.74H29.71l.2,1.38c0,.23.77,5.67-3.14,8.54-2.56,1.88-7.88,5.78-8.9,7.31s-1.14,5.12.71,6.83c1.17,1.08,3.85,1.24,5.85.36a3.68,3.68,0,0,0,2.44-3.42h3.21a6.84,6.84,0,0,1-4.36,6.38c-3.19,1.41-7.2,1-9.3-.94-3-2.79-3.14-8.11-1.22-11,1.12-1.67,4.53-4.35,9.68-8.13A5.38,5.38,0,0,0,26.76,290H17.25v2.16H14v-5.39Z"
            />
            <path class="cls-3" d="M22,64a8.43,8.43,0,0,1,2.49-5.12c2.39-2.46,4.9-4.81,5.43-7.58A4.32,4.32,0,0,0,25.5,46c-3.13,0-3.5,4.17-3.5,4.17S21.63,46,18.5,46a4.32,4.32,0,0,0-4.42,5.3c.53,2.77,3,5.12,5.43,7.58A8.45,8.45,0,0,1,22,64Z"
            />
            <path class="cls-3" d="M186,64a8.45,8.45,0,0,1,2.48-5.12c2.4-2.46,4.91-4.81,5.44-7.58A4.32,4.32,0,0,0,189.5,46c-3.13,0-3.5,4.17-3.5,4.17S185.63,46,182.5,46a4.32,4.32,0,0,0-4.42,5.3c.53,2.77,3,5.12,5.43,7.58A8.45,8.45,0,0,1,186,64Z"
            />
            <path class="cls-3" d="M186,262a8.43,8.43,0,0,1-2.49,5.12c-2.39,2.46-4.9,4.81-5.43,7.58a4.32,4.32,0,0,0,4.42,5.3c3.13,0,3.5-4.17,3.5-4.17s.37,4.17,3.5,4.17a4.32,4.32,0,0,0,4.42-5.3c-.53-2.77-3-5.12-5.43-7.58A8.45,8.45,0,0,1,186,262Z"
            />
            <path class="cls-3" d="M22,262a8.43,8.43,0,0,1-2.49,5.12c-2.39,2.46-4.9,4.81-5.43,7.58A4.32,4.32,0,0,0,18.5,280c3.13,0,3.5-4.17,3.5-4.17s.37,4.17,3.5,4.17a4.32,4.32,0,0,0,4.42-5.3c-.53-2.77-3-5.12-5.43-7.58A8.45,8.45,0,0,1,22,262Z"
            />
        </g>
    </g>
</svg>
