<svg xmlns="http://www.w3.org/2000/svg" viewBox="0 0 208 326">
    <defs>
        <style>
            .cls-1 {
                fill: #fff;
            }

            .cls-2 {
                fill: #6f7072;
            }

            .cls-3 {
                fill: #f8261b;
            }
        </style>
    </defs>
    <title>2H-us-2c</title>
    <g id="Calque_2" data-name="Calque 2">
        <g id="FR_-_EN" data-name="FR - EN">
            <path class="cls-1" d="M14.83,325A13.84,13.84,0,0,1,1,311.18V14.82A13.84,13.84,0,0,1,14.83,1H193.17A13.84,13.84,0,0,1,207,14.82V311.18A13.84,13.84,0,0,1,193.17,325Z"
            />
            <path class="cls-2" d="M193.17,2A12.84,12.84,0,0,1,206,14.82V311.18A12.84,12.84,0,0,1,193.17,324H14.83A12.84,12.84,0,0,1,2,311.18V14.82A12.84,12.84,0,0,1,14.83,2H193.17m0-2H14.83A14.83,14.83,0,0,0,0,14.82V311.18A14.82,14.82,0,0,0,14.83,326H193.17A14.83,14.83,0,0,0,208,311.18V14.82A14.83,14.83,0,0,0,193.17,0Z"
            />
            <path class="cls-3" d="M21.42,69.57C24.76,66.77,31.86,56,30.16,51a4.59,4.59,0,0,0-8.74-.47c-1.59-3.57-6.21-4.1-8.25-.65C10,54.79,17.72,65.92,20.8,69"
            />
            <path class="cls-3" d="M186.86,69.57C190.2,66.77,197.3,56,195.6,51a4.59,4.59,0,0,0-8.74-.47c-1.59-3.57-6.21-4.1-8.25-.65-3.17,4.89,4.54,16,7.62,19.14"
            />
            <path class="cls-3" d="M21.43,254.64c-3.35,2.8-10.45,13.61-8.75,18.56,1.46,4.41,6.85,4.61,8.75.46,1.58,3.58,6.21,4.11,8.24.66,3.18-4.9-4.54-16-7.62-19.14"
            />
            <path class="cls-3" d="M186.87,254.64c-3.35,2.8-10.45,13.61-8.75,18.56,1.46,4.41,6.85,4.61,8.75.46,1.58,3.58,6.2,4.11,8.24.66,3.17-4.9-4.54-16-7.62-19.14"
            />
            <path class="cls-3" d="M15.46,18.14c.55-6.23,8.29-7.86,11.11-2.25a6.27,6.27,0,0,1-1.27,7c-5.79,5.19-14.79,11.45-13.6,20.41H31V35.1l-3.29.06v4.48H15.55c2-10.82,20.79-13.41,13.28-26.65C23.28,5.06,11.6,9.54,12.08,19.15h3.43l0-.28"
            />
            <path class="cls-3" d="M180.9,18.14c.55-6.23,8.29-7.86,11.11-2.25a6.27,6.27,0,0,1-1.27,7C185,28.11,176,34.37,177.14,43.33h19.28V35.1l-3.29.06v4.48H181c2-10.82,20.79-13.41,13.28-26.65-5.56-7.93-17.23-3.45-16.75,6.16H181l0-.28"
            />
            <path class="cls-3" d="M192.55,306.15c-.55,6.24-8.29,7.86-11.1,2.25a6.26,6.26,0,0,1,1.26-7c5.8-5.18,14.79-11.44,13.61-20.41H177v8.23l3.29-.05v-4.49h12.14c-2,10.82-20.79,13.41-13.27,26.65,5.55,7.94,17.23,3.45,16.75-6.15H192.5l.05.27"
            />
            <path class="cls-3" d="M27.11,306.15c-.55,6.24-8.29,7.86-11.1,2.25a6.26,6.26,0,0,1,1.27-7c5.79-5.18,14.79-11.44,13.6-20.41H11.59v8.23l3.29-.05v-4.49H27c-2,10.82-20.79,13.41-13.27,26.65,5.55,7.94,17.23,3.45,16.75-6.15H27.06l.05.27"
            />
            <path class="cls-3" d="M104.52,67.74c2.73-2.13,4-4.48,6-7.29a58.63,58.63,0,0,0,6.91-12.69,17.17,17.17,0,0,0,1.28-10.61c-2.37-7.27-11.14-7.6-14.23-.77-2.57-5.89-10.09-6.76-13.4-1.07-1.92,2.94-1.23,8,0,11.16a59.11,59.11,0,0,0,5.54,11.22c1.94,2.65,4.41,7,6.89,9.17"
            />
            <path class="cls-3" d="M104.52,258.26c-2.72,2.13-4,4.48-6,7.29a58.48,58.48,0,0,0-6.92,12.69,17.17,17.17,0,0,0-1.28,10.61c2.37,7.27,11.14,7.6,14.23.77,2.57,5.89,10.09,6.77,13.4,1.08,1.92-2.95,1.23-8,0-11.16a59.84,59.84,0,0,0-5.55-11.23c-1.94-2.64-4.41-7-6.89-9.17"
            />
        </g>
    </g>
</svg>
