<svg xmlns="http://www.w3.org/2000/svg" viewBox="0 0 208 326">
    <defs>
        <style>
            .cls-1 {
                fill: #fff;
            }

            .cls-2 {
                fill: #6f7072;
            }
        </style>
    </defs>
    <title>2S-fr-2c</title>
    <g id="Calque_2" data-name="Calque 2">
        <g id="FR_-_EN" data-name="FR - EN">
            <path class="cls-1" d="M14.83,325A13.84,13.84,0,0,1,1,311.18V14.82A13.84,13.84,0,0,1,14.83,1H193.17A13.84,13.84,0,0,1,207,14.82V311.18A13.84,13.84,0,0,1,193.17,325Z"
            />
            <path class="cls-2" d="M193.17,2A12.84,12.84,0,0,1,206,14.82V311.18A12.84,12.84,0,0,1,193.17,324H14.83A12.84,12.84,0,0,1,2,311.18V14.82A12.84,12.84,0,0,1,14.83,2H193.17m0-2H14.83A14.83,14.83,0,0,0,0,14.82V311.18A14.82,14.82,0,0,0,14.83,326H193.17A14.83,14.83,0,0,0,208,311.18V14.82A14.83,14.83,0,0,0,193.17,0Z"
            />
            <path d="M121.87,60.52c-2.12-4.09-9.27-10-13.52-13.42s-4.18-6.27-4.91-6.27S103,43.66,98.7,47.1,88.61,55.27,86.48,59.36,84.15,70.1,91.17,73.54c4.51,2.22,8.31-.64,10.7-3.4.37,7.53-9.62,17.46-9.62,17.46a36.86,36.86,0,0,1,20.08-.24s-8.89-11.79-7.66-17.93c2.48,3.15,6.77,7.18,11.3,5C123,71,124,64.6,121.87,60.52Z"
            />
            <path d="M86.17,265c2.13,4.09,9.28,10,13.52,13.42s4.18,6.27,4.91,6.27.48-2.82,4.74-6.27,10.09-8.17,12.22-12.26,2.33-10.73-4.68-14.18c-4.52-2.21-8.32.64-10.71,3.4-.37-7.52,9.62-17.46,9.62-17.46a36.7,36.7,0,0,1-20.07.24s8.88,11.8,7.65,17.94c-2.48-3.15-6.77-7.19-11.3-5C85.05,254.58,84,260.94,86.17,265Z"
            />
            <path d="M29.58,54.25c-.9-1.75-3.93-4.27-5.74-5.74s-1.77-2.68-2.09-2.68-.2,1.21-2,2.68-4.28,3.5-5.18,5.24a4.27,4.27,0,0,0,2,6.07c1.92,1,3.53-.27,4.54-1.45.17,3.21-4.07,7.46-4.07,7.46a15.47,15.47,0,0,1,8.52-.1s-3.77-5.05-3.25-7.67c1,1.35,2.87,3.07,4.79,2.12C30.05,58.71,30.48,56,29.58,54.25Z"
            />
            <path d="M193.58,54.25c-.9-1.75-3.93-4.27-5.74-5.74s-1.77-2.68-2.09-2.68-.2,1.21-2,2.68-4.28,3.5-5.19,5.24a4.28,4.28,0,0,0,2,6.07c1.91,1,3.53-.27,4.54-1.45.17,3.21-4.07,7.46-4.07,7.46a15.48,15.48,0,0,1,8.52-.1s-3.77-5.05-3.25-7.67c1.05,1.35,2.87,3.07,4.79,2.12C194.05,58.71,194.48,56,193.58,54.25Z"
            />
            <path d="M178.42,271.29c.9,1.75,3.93,4.27,5.74,5.74s1.77,2.68,2.09,2.68.2-1.21,2-2.68,4.28-3.5,5.18-5.24a4.27,4.27,0,0,0-2-6.07c-1.92-.94-3.53.28-4.55,1.46-.16-3.22,4.08-7.47,4.08-7.47a15.47,15.47,0,0,1-8.52.1s3.77,5.05,3.25,7.67c-1.05-1.34-2.87-3.07-4.79-2.12C178,266.83,177.52,269.55,178.42,271.29Z"
            />
            <path d="M14.42,271.29c.9,1.75,3.93,4.27,5.74,5.74s1.77,2.68,2.09,2.68.2-1.21,2-2.68,4.28-3.5,5.18-5.24a4.27,4.27,0,0,0-2-6.07c-1.92-.94-3.53.28-4.54,1.46C22.75,264,27,259.71,27,259.71a15.47,15.47,0,0,1-8.52.1s3.77,5.05,3.25,7.67c-1-1.34-2.87-3.07-4.79-2.12C14,266.83,13.52,269.55,14.42,271.29Z"
            />
            <path d="M30,39.19H14.29l-.2-1.38c0-.23-.77-5.67,3.14-8.54,2.55-1.88,7.88-5.78,8.9-7.31s1.14-5.11-.71-6.83c-1.17-1.07-3.85-1.24-5.85-.36a3.69,3.69,0,0,0-2.43,3.42H13.92a6.81,6.81,0,0,1,4.36-6.37c3.19-1.41,7.2-1,9.3.93,3,2.79,3.14,8.11,1.22,11-1.12,1.68-4.53,4.35-9.68,8.13A5.38,5.38,0,0,0,17.24,36h9.51V33.8H30v5.39Z"
            />
            <path d="M194,39.19H178.29l-.2-1.38c0-.23-.77-5.67,3.14-8.54,2.56-1.88,7.88-5.78,8.9-7.31s1.14-5.11-.71-6.83c-1.17-1.07-3.84-1.24-5.85-.36a3.69,3.69,0,0,0-2.44,3.42h-3.21a6.81,6.81,0,0,1,4.36-6.37c3.19-1.41,7.2-1,9.3.93,3,2.79,3.14,8.11,1.21,11-1.11,1.68-4.52,4.35-9.67,8.13A5.38,5.38,0,0,0,181.24,36h9.51V33.8H194v5.39Z"
            />
            <path d="M178,286.72h15.68l.2,1.38c0,.23.77,5.66-3.14,8.54-2.56,1.87-7.88,5.78-8.9,7.31s-1.15,5.11.71,6.82c1.17,1.08,3.84,1.25,5.84.36a3.67,3.67,0,0,0,2.44-3.41h3.22a6.82,6.82,0,0,1-4.36,6.37c-3.19,1.41-7.2,1-9.3-.93-3-2.79-3.14-8.11-1.22-11,1.12-1.67,4.53-4.35,9.68-8.12a5.4,5.4,0,0,0,1.88-4.08h-9.51v2.15H178v-5.38Z"
            />
            <path d="M14,286.72H29.71l.2,1.38c0,.23.77,5.66-3.14,8.54-2.56,1.87-7.88,5.78-8.9,7.31s-1.14,5.11.71,6.82c1.17,1.08,3.85,1.25,5.85.36a3.67,3.67,0,0,0,2.44-3.41h3.21a6.82,6.82,0,0,1-4.36,6.37c-3.19,1.41-7.2,1-9.3-.93-3-2.79-3.14-8.11-1.22-11,1.12-1.67,4.53-4.35,9.68-8.12A5.4,5.4,0,0,0,26.76,290H17.25v2.15H14v-5.38Z"
            />
        </g>
    </g>
</svg>
