<svg xmlns="http://www.w3.org/2000/svg" viewBox="0 0 208 326">
    <defs>
        <style>
            .cls-1 {
                fill: #fff;
            }

            .cls-2 {
                fill: #6f7072;
            }

            .cls-3 {
                fill: #1d1d1b;
            }

            .cls-4 {
                fill: #1c1c1c;
            }
        </style>
    </defs>
    <title>2S-us-2c</title>
    <g id="Calque_2" data-name="Calque 2">
        <g id="FR_-_EN" data-name="FR - EN">
            <path class="cls-1" d="M14.83,325A13.84,13.84,0,0,1,1,311.18V14.82A13.84,13.84,0,0,1,14.83,1H193.17A13.84,13.84,0,0,1,207,14.82V311.18A13.84,13.84,0,0,1,193.17,325Z"
            />
            <path class="cls-2" d="M193.17,2A12.84,12.84,0,0,1,206,14.82V311.18A12.84,12.84,0,0,1,193.17,324H14.83A12.84,12.84,0,0,1,2,311.18V14.82A12.84,12.84,0,0,1,14.83,2H193.17m0-2H14.83A14.83,14.83,0,0,0,0,14.82V311.18A14.83,14.83,0,0,0,14.83,326H193.17A14.83,14.83,0,0,0,208,311.18V14.82A14.83,14.83,0,0,0,193.17,0Z"
            />
            <path class="cls-3" d="M21.25,73.47l1.26,0,1.23.07,1.24.12.4.07a23.66,23.66,0,0,1-3-6.28l-.07-.33,0-.48,0-.15,0,0,.09,0,.07.1A3.76,3.76,0,0,0,26.35,69c10.82-2.11-1.37-17.15-5.1-20.43C17.9,52,8.61,62.17,12.94,67.57a4.57,4.57,0,0,0,4.82,1.21l.74-.33.32-.24L19.1,68l.24-.26.19-.27.31-.52.18-.38.07-.1.1,0,0,0,0,.15,0,.48-.07.33a23.82,23.82,0,0,1-3,6.28l.39-.07,1.25-.12L20,73.42"
            />
            <path class="cls-3" d="M186.69,73.47l1.26,0,1.23.07,1.24.12.4.07a23.66,23.66,0,0,1-3-6.28l-.07-.33,0-.48,0-.15,0,0,.1,0,.07.1A3.76,3.76,0,0,0,191.79,69c10.82-2.11-1.37-17.15-5.1-20.43-3.35,3.39-12.64,13.58-8.31,19a4.57,4.57,0,0,0,4.82,1.21l.74-.33.32-.24.28-.24.24-.26.19-.27.3-.52.19-.38.07-.1.1,0,0,0,0,.15,0,.48-.07.33a23.54,23.54,0,0,1-3,6.28l.4-.07,1.25-.12,1.22-.07"
            />
            <path class="cls-3" d="M186.73,250.5l-1.26.05-1.23-.07-1.24-.12-.4-.07a23.57,23.57,0,0,1,3,6.29l.07.33,0,.48,0,.14,0,0-.1,0-.07-.1a3.76,3.76,0,0,0-3.88-2.48c-10.82,2.11,1.37,17.15,5.1,20.43,3.35-3.39,12.64-13.57,8.31-19a4.57,4.57,0,0,0-4.82-1.21l-.74.33-.32.24-.28.24-.24.26-.19.27-.3.52-.19.38-.07.1-.1,0,0,0,0-.14,0-.48.07-.33a23.46,23.46,0,0,1,3-6.29l-.4.07-1.25.12-1.22.07"
            />
            <path class="cls-3" d="M21.29,250.5l-1.26.05-1.23-.07-1.24-.12-.4-.07a23.57,23.57,0,0,1,3,6.29l.07.33,0,.48,0,.14,0,0-.1,0-.07-.1A3.75,3.75,0,0,0,16.19,255c-10.82,2.11,1.37,17.15,5.1,20.43,3.35-3.39,12.64-13.57,8.31-19a4.57,4.57,0,0,0-4.82-1.21l-.74.33-.32.24-.28.24-.24.26-.19.27-.3.52-.19.38-.07.1-.1,0,0,0,0-.14,0-.48.08-.33a23.13,23.13,0,0,1,3-6.29l-.4.07-1.25.12-1.22.07"
            />
            <path class="cls-4" d="M15.44,17.12c.56-6.23,8.3-7.85,11.11-2.24a6.24,6.24,0,0,1-1.27,7c-5.79,5.19-14.79,11.45-13.6,20.42H31V34.09l-3.3,0v4.49H15.54c2-10.82,20.79-13.42,13.27-26.66C23.26,4,11.58,8.52,12.06,18.13H15.5l-.06-.28"
            />
            <path class="cls-4" d="M180.88,17.12c.56-6.23,8.29-7.85,11.11-2.24a6.26,6.26,0,0,1-1.27,7c-5.79,5.19-14.79,11.45-13.6,20.42h19.29V34.09l-3.3,0v4.49H181c2-10.82,20.79-13.42,13.28-26.66C188.7,4,177,8.52,177.5,18.13h3.44l-.06-.28"
            />
            <path class="cls-4" d="M192.53,305.14c-.55,6.23-8.28,7.85-11.1,2.24a6.26,6.26,0,0,1,1.27-7c5.79-5.19,14.79-11.45,13.6-20.42H177v8.23l3.3-.05v-4.49h12.13c-2,10.82-20.79,13.42-13.27,26.66,5.55,7.93,17.23,3.45,16.75-6.16h-3.44l.05.28"
            />
            <path class="cls-4" d="M27.1,305.14c-.56,6.23-8.29,7.85-11.11,2.24a6.26,6.26,0,0,1,1.27-7c5.79-5.19,14.79-11.45,13.6-20.42H11.57v8.23l3.3-.05v-4.49H27c-2,10.82-20.79,13.42-13.28,26.66,5.55,7.93,17.23,3.45,16.75-6.16H27l.06.28"
            />
            <path class="cls-3" d="M103.86,68.38l2-.09,1.94.12,2,.19.63.12a37.78,37.78,0,0,1-4.82-10.09l-.12-.53,0-.77,0-.23,0,0,.15,0,.11.16c1.21,2.84,3.18,4,6.18,4,5-.41,7.38-4.11,6.78-9.08-.91-8.36-9.38-17.87-14.9-23.7-5.33,5.45-20.12,21.78-13.22,30.45a7.28,7.28,0,0,0,7.68,2l1.16-.53.52-.39.45-.38.37-.43.3-.42.49-.84.3-.61.11-.16.15,0,0,0,0,.23,0,.77-.12.53a37.8,37.8,0,0,1-4.82,10.09l.63-.12,2-.19,1.94-.12"
            />
            <path class="cls-3" d="M103.84,255.59l-2,.09-1.95-.12-2-.19-.64-.12a38.12,38.12,0,0,1,4.83,10.09l.11.53,0,.77,0,.23,0,0-.14,0-.12-.16c-1.2-2.84-3.17-4-6.18-4-5,.41-7.37,4.11-6.78,9.08.91,8.37,9.38,17.87,14.91,23.7,5.32-5.44,20.11-21.78,13.21-30.45a7.26,7.26,0,0,0-7.67-1.95l-1.17.54-.52.38-.44.38-.38.43-.3.42-.49.85-.3.6-.1.16-.16,0,0,0,0-.23,0-.77.11-.53a37.83,37.83,0,0,1,4.83-10.09l-.63.12-2,.19-2,.12"
            />
        </g>
    </g>
</svg>
