<svg xmlns="http://www.w3.org/2000/svg" viewBox="0 0 208 326">
    <defs>
        <style>
            .cls-1 {
                fill: #fff;
            }

            .cls-2 {
                fill: #6f7072;
            }
        </style>
    </defs>
    <title>3C-fr-2c</title>
    <g id="Calque_2" data-name="Calque 2">
        <g id="FR_-_EN" data-name="FR - EN">
            <path class="cls-1" d="M14.83,325A13.84,13.84,0,0,1,1,311.18V14.82A13.84,13.84,0,0,1,14.83,1H193.17A13.84,13.84,0,0,1,207,14.82V311.18A13.84,13.84,0,0,1,193.17,325Z"
            />
            <path class="cls-2" d="M193.17,2A12.84,12.84,0,0,1,206,14.82V311.18A12.84,12.84,0,0,1,193.17,324H14.83A12.84,12.84,0,0,1,2,311.18V14.82A12.84,12.84,0,0,1,14.83,2H193.17m0-2H14.83A14.83,14.83,0,0,0,0,14.82V311.18A14.83,14.83,0,0,0,14.83,326H193.17A14.83,14.83,0,0,0,208,311.18V14.82A14.83,14.83,0,0,0,193.17,0Z"
            />
            <path d="M104.71,40.92c5.59,0,8,4.11,8,8.43s-3.87,6.92-5.38,9.52a8,8,0,0,0-1.08,5h-3a8,8,0,0,0-1.07-5c-1.51-2.6-5.38-5.19-5.38-9.52S99.12,40.92,104.71,40.92Z"
            />
            <path d="M127.52,65.69c0,5.62-4.09,8-8.4,8s-6.88-3.89-9.46-5.4a7.78,7.78,0,0,0-5-1.08v-3a7.83,7.83,0,0,0,5-1.09c2.58-1.51,5.16-5.4,9.46-5.4S127.52,60.07,127.52,65.69Z"
            />
            <path d="M80.48,65.69c0-5.62,4.09-8,8.39-8s6.89,3.89,9.47,5.41a7.86,7.86,0,0,0,5,1.08v3a7.78,7.78,0,0,0-5,1.08c-2.58,1.51-5.16,5.4-9.47,5.4S80.48,71.32,80.48,65.69Z"
            />
            <path d="M106.37,62V74.15c0,5.69,8.06,11.21,8.06,11.21H95s8.06-5.52,8.06-11.21V62Z" />
            <path d="M104.7,138.4c5.59,0,8,4.11,8,8.43s-3.88,6.93-5.38,9.52a8,8,0,0,0-1.08,5h-3a8,8,0,0,0-1.07-5c-1.51-2.59-5.38-5.19-5.38-9.52S99.11,138.4,104.7,138.4Z"
            />
            <path d="M127.5,163.17c0,5.63-4.09,8-8.39,8s-6.88-3.9-9.46-5.41a7.86,7.86,0,0,0-5-1.08v-3a7.86,7.86,0,0,0,5-1.08c2.58-1.52,5.16-5.41,9.46-5.41S127.5,157.55,127.5,163.17Z"
            />
            <path d="M80.47,163.18c0-5.63,4.09-8,8.39-8s6.89,3.89,9.47,5.41a7.86,7.86,0,0,0,5,1.08v3a7.86,7.86,0,0,0-5,1.08c-2.58,1.51-5.17,5.41-9.47,5.41S80.47,168.8,80.47,163.18Z"
            />
            <path d="M106.36,159.51v12.12c0,5.7,8.06,11.22,8.06,11.22H95s8.07-5.52,8.07-11.22V159.51Z" />
            <path d="M104.71,284.79c5.59,0,8-4.11,8-8.43s-3.87-6.93-5.38-9.52a8,8,0,0,1-1.08-5h-3a8,8,0,0,1-1.07,5c-1.51,2.59-5.38,5.19-5.38,9.52S99.12,284.79,104.71,284.79Z"
            />
            <path d="M127.52,260c0-5.63-4.09-8-8.4-8s-6.88,3.9-9.46,5.41a7.86,7.86,0,0,1-5,1.08v3a7.86,7.86,0,0,1,5,1.08c2.58,1.52,5.16,5.41,9.46,5.41S127.52,265.64,127.52,260Z"
            />
            <path d="M80.48,260c0,5.62,4.09,8,8.39,8s6.89-3.89,9.47-5.41a7.86,7.86,0,0,1,5-1.08v-3a7.86,7.86,0,0,1-5-1.08c-2.58-1.51-5.16-5.41-9.47-5.41S80.48,254.39,80.48,260Z"
            />
            <path d="M106.37,263.68V251.56c0-5.7,8.06-11.22,8.06-11.22H95s8.06,5.52,8.06,11.22v12.12Z" />
            <path d="M20.9,39a7.14,7.14,0,0,1-5.3-1.94,7.4,7.4,0,0,1-1.95-5.43h3.22a4.35,4.35,0,0,0,1,3.14,4.09,4.09,0,0,0,3,1h0a5.77,5.77,0,0,0,5.72-6.15,4.64,4.64,0,0,0-1.3-3.49c-1.93-1.9-5.37-1.89-5.41-1.88l-3.18,0L24,14.15H16.88v1.23H13.66V10.92H30.24L22.77,21.37a10,10,0,0,1,4.78,2.45,7.83,7.83,0,0,1,2.27,5.81A9,9,0,0,1,20.93,39Z"
            />
            <path d="M184.9,39a7.14,7.14,0,0,1-5.3-1.94,7.39,7.39,0,0,1-1.94-5.43h3.21a4.35,4.35,0,0,0,1,3.14,4.09,4.09,0,0,0,3,1h0a5.77,5.77,0,0,0,5.72-6.15,4.64,4.64,0,0,0-1.3-3.49c-1.92-1.9-5.37-1.89-5.41-1.88l-3.18,0L188,14.15h-7.09v1.23h-3.22V10.92h16.57l-7.46,10.45a10,10,0,0,1,4.78,2.45,7.87,7.87,0,0,1,2.27,5.81A9,9,0,0,1,184.94,39Z"
            />
            <path d="M187,286.72a7.14,7.14,0,0,1,5.3,1.94,7.38,7.38,0,0,1,2,5.43H191a4.36,4.36,0,0,0-1-3.15,4.09,4.09,0,0,0-3-1h0a5.77,5.77,0,0,0-5.72,6.15,4.64,4.64,0,0,0,1.3,3.49c1.93,1.91,5.38,1.89,5.41,1.88l3.18,0-7.25,10.16H191v-1.24h3.22v4.47H177.65l7.48-10.46a10,10,0,0,1-4.79-2.45,7.83,7.83,0,0,1-2.27-5.81,9,9,0,0,1,8.89-9.38Z"
            />
            <path d="M23,286.72a7.14,7.14,0,0,1,5.3,1.94,7.38,7.38,0,0,1,1.95,5.43H27a4.36,4.36,0,0,0-1-3.15,4.09,4.09,0,0,0-3-1h0a5.77,5.77,0,0,0-5.72,6.15,4.68,4.68,0,0,0,1.3,3.49c1.93,1.91,5.38,1.89,5.41,1.88l3.18,0-7.25,10.16H27v-1.24h3.22v4.47H13.65l7.48-10.46a10,10,0,0,1-4.79-2.45,7.87,7.87,0,0,1-2.27-5.81A9,9,0,0,1,23,286.72Z"
            />
            <path d="M28,52.94c-1.79,0-2.86,1.67-3.94,2.32a1.31,1.31,0,0,1-.8.2A1.68,1.68,0,0,1,23,53.63c.62-1.12,2.24-2.23,2.24-4.09s-1-3.62-3.32-3.62-3.32,1.76-3.32,3.62,1.62,3,2.24,4.09a1.67,1.67,0,0,1-.19,1.83,1.31,1.31,0,0,1-.8-.2c-1.07-.65-2.15-2.32-3.94-2.32a3.44,3.44,0,1,0,0,6.88c1.79,0,2.87-1.68,3.94-2.33a1.36,1.36,0,0,1,.91-.19c.95,3.37-2.16,8.62-2.16,8.62A10.41,10.41,0,0,1,22,65.46a10.3,10.3,0,0,1,3.31.46s-3.52-5.33-2.25-8.6a1.33,1.33,0,0,1,1,.17c1.07.65,2.15,2.33,3.94,2.33a3.44,3.44,0,1,0,0-6.88Z"
            />
            <path d="M191.89,52.94c-1.79,0-2.86,1.67-3.94,2.32a1.31,1.31,0,0,1-.8.2,1.68,1.68,0,0,1-.18-1.83c.62-1.12,2.24-2.23,2.24-4.09s-1-3.62-3.32-3.62-3.32,1.76-3.32,3.62,1.62,3,2.24,4.09a1.67,1.67,0,0,1-.19,1.83,1.31,1.31,0,0,1-.8-.2c-1.07-.65-2.15-2.32-3.94-2.32a3.44,3.44,0,1,0,0,6.88c1.79,0,2.87-1.68,3.94-2.33a1.36,1.36,0,0,1,.91-.19c1,3.37-2.16,8.62-2.16,8.62a10.41,10.41,0,0,1,3.32-.46,10.3,10.3,0,0,1,3.31.46s-3.52-5.33-2.25-8.6a1.33,1.33,0,0,1,1,.17c1.07.65,2.15,2.33,3.94,2.33a3.44,3.44,0,1,0,0-6.88Z"
            />
            <path d="M179.94,272.77c1.79,0,2.86-1.67,3.94-2.32a1.31,1.31,0,0,1,.8-.2,1.66,1.66,0,0,1,.18,1.83c-.62,1.12-2.24,2.23-2.24,4.09s1,3.62,3.32,3.62,3.32-1.76,3.32-3.62-1.62-3-2.24-4.09a1.67,1.67,0,0,1,.19-1.83,1.31,1.31,0,0,1,.8.2c1.07.65,2.15,2.32,3.94,2.32a3.44,3.44,0,1,0,0-6.88c-1.79,0-2.87,1.68-3.94,2.33a1.3,1.3,0,0,1-.91.18c-.95-3.36,2.16-8.61,2.16-8.61a12.17,12.17,0,0,1-6.63,0s3.52,5.33,2.25,8.6a1.38,1.38,0,0,1-1-.17c-1.07-.65-2.15-2.33-3.94-2.33a3.44,3.44,0,1,0,0,6.88Z"
            />
            <path d="M15.94,272.77c1.79,0,2.86-1.67,3.94-2.32a1.31,1.31,0,0,1,.8-.2,1.68,1.68,0,0,1,.19,1.83c-.63,1.12-2.25,2.23-2.25,4.09s1,3.62,3.32,3.62,3.32-1.76,3.32-3.62-1.62-3-2.24-4.09a1.67,1.67,0,0,1,.19-1.83,1.31,1.31,0,0,1,.8.2c1.07.65,2.15,2.32,3.94,2.32a3.44,3.44,0,1,0,0-6.88c-1.79,0-2.86,1.68-3.94,2.33a1.3,1.3,0,0,1-.91.18c-1-3.36,2.16-8.61,2.16-8.61a10.34,10.34,0,0,1-3.32.46,10.38,10.38,0,0,1-3.31-.46s3.52,5.33,2.25,8.6a1.38,1.38,0,0,1-1-.17c-1.07-.65-2.15-2.33-3.94-2.33a3.44,3.44,0,1,0,0,6.88Z"
            />
        </g>
    </g>
</svg>
