<svg xmlns="http://www.w3.org/2000/svg" viewBox="0 0 208 326">
    <defs>
        <style>
            .cls-1 {
                fill: #fff;
            }

            .cls-2 {
                fill: #6f7072;
            }

            .cls-3 {
                fill: #1e657f;
            }

            .cls-4 {
                fill: none;
            }
        </style>
    </defs>
    <title>3C-us-4c</title>
    <g id="Calque_2" data-name="Calque 2">
        <g id="FR_-_EN" data-name="FR - EN">
            <path class="cls-1" d="M14.83,325A13.84,13.84,0,0,1,1,311.18V14.82A13.84,13.84,0,0,1,14.83,1H193.17A13.84,13.84,0,0,1,207,14.82V311.18A13.84,13.84,0,0,1,193.17,325Z"
            />
            <path class="cls-2" d="M193.17,2A12.84,12.84,0,0,1,206,14.82V311.18A12.84,12.84,0,0,1,193.17,324H14.83A12.84,12.84,0,0,1,2,311.18V14.82A12.84,12.84,0,0,1,14.83,2H193.17m0-2H14.83A14.83,14.83,0,0,0,0,14.82V311.18A14.83,14.83,0,0,0,14.83,326H193.17A14.83,14.83,0,0,0,208,311.18V14.82A14.83,14.83,0,0,0,193.17,0Z"
            />
            <path class="cls-3" d="M32.6,65c.39-4.5-3.51-8.2-7.57-4.35l-.83-1.2c4.52-2.93,2.3-8.43-2.71-8.69-5.1.05-7.58,5.69-2.95,8.69l-.82,1.2c-4.63-4.38-8.82,1.05-7.29,5.67A5.26,5.26,0,0,0,15,70.2a3.84,3.84,0,0,0,2.93-1c.82-.61,1-1.77,1.56-2.32.65.34.62.28.59,1a16.47,16.47,0,0,1-2.57,5.58,26.35,26.35,0,0,1,7.83,0,16.29,16.29,0,0,1-2.57-5.58c0-.71,0-.67.59-1,.54.54.76,1.75,1.56,2.32a3.82,3.82,0,0,0,2.92,1c2.38-.08,4.26-2.26,4.69-4.53"
            />
            <path class="cls-3" d="M198,65c.39-4.5-3.51-8.2-7.56-4.35l-.83-1.2c4.52-2.93,2.3-8.43-2.71-8.69-5.1.05-7.58,5.69-3,8.69l-.82,1.2c-4.63-4.38-8.82,1.05-7.29,5.67a5.25,5.25,0,0,0,4.52,3.91,3.84,3.84,0,0,0,2.93-1c.81-.61,1-1.77,1.56-2.32.65.34.62.28.59,1a16.5,16.5,0,0,1-2.58,5.58,26.35,26.35,0,0,1,7.83,0,16.47,16.47,0,0,1-2.57-5.58c0-.71,0-.67.59-1,.55.54.77,1.75,1.56,2.32a3.84,3.84,0,0,0,2.93,1c2.38-.08,4.25-2.26,4.69-4.53"
            />
            <path class="cls-3" d="M175.58,260.86c-.39,4.5,3.51,8.21,7.56,4.36l.83,1.19c-4.51,2.93-2.29,8.43,2.71,8.69,5.1,0,7.58-5.69,2.95-8.69l.83-1.19c4.62,4.37,8.81-1.05,7.28-5.68a5.23,5.23,0,0,0-4.52-3.9,3.84,3.84,0,0,0-2.93,1c-.81.61-1,1.77-1.56,2.32-.65-.34-.62-.27-.59-1a16.41,16.41,0,0,1,2.58-5.58,27,27,0,0,1-7.83,0,16.3,16.3,0,0,1,2.57,5.58c0,.7,0,.66-.59,1-.55-.53-.77-1.75-1.56-2.32a3.78,3.78,0,0,0-2.92-1c-2.39.08-4.26,2.26-4.69,4.52"
            />
            <path class="cls-3" d="M10.14,260.86c-.39,4.5,3.51,8.21,7.57,4.36l.82,1.19c-4.51,2.93-2.29,8.43,2.72,8.69,5.1,0,7.58-5.69,2.94-8.69l.83-1.19c4.62,4.37,8.81-1.05,7.29-5.68a5.25,5.25,0,0,0-4.53-3.9,3.85,3.85,0,0,0-2.93,1c-.81.61-1,1.77-1.56,2.32-.65-.34-.61-.27-.58-1a16.39,16.39,0,0,1,2.57-5.58,27,27,0,0,1-7.83,0A16.3,16.3,0,0,1,20,258c0,.7,0,.66-.59,1-.55-.53-.77-1.75-1.56-2.32a3.78,3.78,0,0,0-2.92-1c-2.38.08-4.26,2.26-4.69,4.52"
            />
            <path class="cls-3" d="M126.4,54.53c.77-9-7-16.42-15.14-8.72l-1.65-2.39c9-5.85,4.58-16.87-5.42-17.38C94,26.13,89,37.41,98.29,43.42l-1.65,2.39C87.39,37.06,79,47.91,82.07,57.16c1.16,4,4.75,7.67,9,7.81A7.72,7.72,0,0,0,97,62.91c1.62-1.23,2-3.55,3.12-4.65,1.3.68,1.24.55,1.18,2-.61,3.78-3.12,8-5.15,11.16a53.3,53.3,0,0,1,15.65,0c-2-3.25-4.52-7.29-5.13-11.16-.09-1.41-.06-1.32,1.18-2,1.09,1.07,1.53,3.51,3.11,4.65A7.65,7.65,0,0,0,116.78,65c4.76-.16,8.51-4.52,9.38-9"
            />
            <path class="cls-3" d="M81.48,271.31c-.77,9,7,16.41,15.14,8.71l1.65,2.39c-9,5.85-4.58,16.87,5.42,17.39,10.2-.1,15.16-11.38,5.9-17.39l1.65-2.39c9.25,8.75,17.63-2.1,14.57-11.35-1.16-4-4.75-7.67-9-7.8a7.65,7.65,0,0,0-5.86,2.06c-1.62,1.22-2,3.54-3.12,4.64-1.3-.68-1.23-.55-1.18-2,.61-3.78,3.12-8,5.15-11.16a52.69,52.69,0,0,1-15.66,0c2,3.26,4.53,7.29,5.14,11.16.1,1.42.06,1.33-1.18,2-1.09-1.06-1.53-3.5-3.11-4.64a7.66,7.66,0,0,0-5.85-2.06c-4.76.16-8.51,4.51-9.38,9"
            />
            <rect class="cls-4" x="81.4" y="26.04" width="45.09" height="45.35" />
            <path class="cls-3" d="M126.4,168.73c.77-9-7-16.42-15.14-8.71l-1.65-2.4c9-5.85,4.58-16.86-5.42-17.38-10.2.09-15.16,11.38-5.9,17.38L96.64,160c-9.25-8.75-17.63,2.09-14.57,11.34,1.16,4,4.75,7.67,9,7.81A7.68,7.68,0,0,0,97,177.11c1.62-1.22,2-3.55,3.12-4.64,1.3.67,1.24.54,1.18,2-.61,3.79-3.12,8-5.15,11.16a53.3,53.3,0,0,1,15.65,0c-2-3.25-4.52-7.29-5.13-11.16-.09-1.41-.06-1.32,1.18-2,1.09,1.06,1.53,3.5,3.11,4.64a7.65,7.65,0,0,0,5.85,2.06c4.76-.16,8.51-4.51,9.38-9"
            />
            <rect class="cls-4" x="10.23" y="50.73" width="22.28" height="22.68" />
            <rect class="cls-4" x="10.23" y="46.99" width="22.28" height="30.16" />
            <rect class="cls-4" x="175.66" y="46.99" width="22.29" height="30.16" />
            <path class="cls-3" d="M183.74,26.15c6.3-3.51,12.58,1.89,10,8.91-2.45,7.4-13.26,9.28-15,.72l-3.21,1.82c2.74,10.4,15.34,9.09,20.24.76,4.16-6.86,1.52-16.48-7.36-16.85l7.26-7.13V10.25H176.48l-.43,5.51-.14,2.49h3.59l.28-4.4h11.69L180.86,24.23l1.79,3"
            />
            <path class="cls-3" d="M18.3,26.15c6.3-3.51,12.58,1.89,10.06,8.91-2.46,7.4-13.27,9.28-15,.72L10.14,37.6c2.74,10.4,15.34,9.09,20.25.76C34.55,31.5,31.91,21.88,23,21.51l7.26-7.13V10.25H11l-.43,5.51-.14,2.49h3.59l.29-4.4H26L15.42,24.23l1.8,3"
            />
            <path class="cls-3" d="M24.15,299.7c-6.3,3.51-12.58-1.89-10-8.91,2.45-7.4,13.27-9.28,15-.72l3.21-1.82c-2.74-10.4-15.34-9.09-20.24-.75-4.16,6.85-1.52,16.47,7.36,16.85l-7.26,7.13v4.12H31.41l.43-5.51L32,307.6H28.4L28.1,312H16.42L27,301.62l-1.79-3"
            />
            <path class="cls-3" d="M189.58,299.7c-6.29,3.51-12.57-1.89-10.05-8.91,2.46-7.4,13.27-9.28,15-.72l3.21-1.82c-2.74-10.4-15.34-9.09-20.24-.75-4.17,6.85-1.53,16.47,7.36,16.85l-7.26,7.13v4.12h19.23l.44-5.51.14-2.49h-3.59l-.29,4.41H181.85l10.62-10.39-1.8-3"
            />
        </g>
    </g>
</svg>
