<svg xmlns="http://www.w3.org/2000/svg" viewBox="0 0 208 326">
    <defs>
        <style>
            .cls-1 {
                fill: #fff;
            }

            .cls-2 {
                fill: #6f7072;
            }

            .cls-3 {
                fill: #f72014;
            }
        </style>
    </defs>
    <title>3D-fr-2c</title>
    <g id="Calque_2" data-name="Calque 2">
        <g id="FR_-_EN" data-name="FR - EN">
            <path class="cls-1" d="M14.83,325A13.84,13.84,0,0,1,1,311.18V14.82A13.84,13.84,0,0,1,14.83,1H193.17A13.84,13.84,0,0,1,207,14.82V311.18A13.84,13.84,0,0,1,193.17,325Z"
            />
            <path class="cls-2" d="M193.17,2A12.84,12.84,0,0,1,206,14.82V311.18A12.84,12.84,0,0,1,193.17,324H14.83A12.84,12.84,0,0,1,2,311.18V14.82A12.84,12.84,0,0,1,14.83,2H193.17m0-2H14.83A14.83,14.83,0,0,0,0,14.82V311.18A14.82,14.82,0,0,0,14.83,326H193.17A14.83,14.83,0,0,0,208,311.18V14.82A14.83,14.83,0,0,0,193.17,0Z"
            />
            <path class="cls-3" d="M22,45.84s3.67,8.07,9.1,10.11A23.7,23.7,0,0,0,22,65.84s-1.63-5.81-8.9-10A17.25,17.25,0,0,0,22,45.84Z"
            />
            <path class="cls-3" d="M185.9,46s3.67,8.08,9.1,10.12A23.63,23.63,0,0,0,185.9,66s-1.63-5.81-8.9-10A17.17,17.17,0,0,0,185.9,46Z"
            />
            <path class="cls-3" d="M21.9,260.09s3.67,8.07,9.1,10.11a23.62,23.62,0,0,0-9.1,9.89s-1.63-5.82-8.9-10A17.18,17.18,0,0,0,21.9,260.09Z"
            />
            <path class="cls-3" d="M185.9,259.85s3.67,8.08,9.1,10.11a23.7,23.7,0,0,0-9.1,9.89s-1.63-5.81-8.9-10A17.21,17.21,0,0,0,185.9,259.85Z"
            />
            <path class="cls-3" d="M103.74,138.65s9.63,19.23,23.9,24.08a59.6,59.6,0,0,0-23.9,23.54s-4.29-13.84-23.37-23.81C80.37,162.46,97.13,156.26,103.74,138.65Z"
            />
            <path class="cls-3" d="M21,39.12a7.11,7.11,0,0,1-5.29-1.94,7.34,7.34,0,0,1-1.95-5.43h3.22a4.29,4.29,0,0,0,1,3.14,4.06,4.06,0,0,0,3,1h0a5.78,5.78,0,0,0,5.72-6.16,4.6,4.6,0,0,0-1.3-3.48C23.44,24.34,20,24.36,20,24.36l-3.19.05L24,14.25h-7.1v1.24H13.71V11H30.29L22.82,21.48a9.87,9.87,0,0,1,4.79,2.45,7.84,7.84,0,0,1,2.27,5.8A9,9,0,0,1,21,39.12Z"
            />
            <path class="cls-3" d="M185,39.12a7.12,7.12,0,0,1-5.3-1.94,7.34,7.34,0,0,1-1.95-5.43h3.22a4.29,4.29,0,0,0,1,3.14,4.07,4.07,0,0,0,3,1h0a5.78,5.78,0,0,0,5.72-6.16,4.6,4.6,0,0,0-1.3-3.48c-1.92-1.91-5.37-1.89-5.4-1.89l-3.19.05L188,14.25h-7.1v1.24h-3.22V11h16.58l-7.47,10.46a9.87,9.87,0,0,1,4.79,2.45,7.84,7.84,0,0,1,2.27,5.8A9,9,0,0,1,185,39.12Z"
            />
            <path class="cls-3" d="M187,286.82a7.12,7.12,0,0,1,5.3,1.94,7.34,7.34,0,0,1,1.95,5.43h-3.22a4.27,4.27,0,0,0-1-3.14,4.06,4.06,0,0,0-3-1h0a5.77,5.77,0,0,0-5.72,6.15,4.64,4.64,0,0,0,1.29,3.49c1.93,1.91,5.38,1.89,5.41,1.88l3.19,0L184,311.69h7.09v-1.24h3.22v4.47H177.71l7.47-10.46a10,10,0,0,1-4.79-2.45,7.87,7.87,0,0,1-2.27-5.81,9,9,0,0,1,8.89-9.38Z"
            />
            <path class="cls-3" d="M23.05,286.82a7.11,7.11,0,0,1,5.29,1.94,7.34,7.34,0,0,1,1.95,5.43H27.08a4.28,4.28,0,0,0-1-3.14,4.07,4.07,0,0,0-3-1h0a5.77,5.77,0,0,0-5.72,6.15,4.64,4.64,0,0,0,1.29,3.49c1.93,1.91,5.38,1.89,5.41,1.88l3.19,0L20,311.69h7.1v-1.24h3.22v4.47H13.71l7.47-10.46A10,10,0,0,1,16.39,302a7.87,7.87,0,0,1-2.27-5.81A9,9,0,0,1,23,286.82Z"
            />
            <path class="cls-3" d="M103.73,40.94s9.63,19.22,23.9,24.07a59.54,59.54,0,0,0-23.9,23.54S99.44,74.71,80.36,64.74C80.36,64.74,97.12,58.54,103.73,40.94Z"
            />
            <path class="cls-3" d="M103.73,237.2s9.63,19.22,23.9,24.08a59.47,59.47,0,0,0-23.9,23.53S99.44,271,80.36,261C80.36,261,97.12,254.81,103.73,237.2Z"
            />
        </g>
    </g>
</svg>
