<svg xmlns="http://www.w3.org/2000/svg" viewBox="0 0 208 326">
    <defs>
        <style>
            .cls-1 {
                fill: #fff;
            }

            .cls-2 {
                fill: #6f7072;
            }

            .cls-3 {
                fill: #f8261b;
            }
        </style>
    </defs>
    <title>3D-us-2c</title>
    <g id="Calque_2" data-name="Calque 2">
        <g id="FR_-_EN" data-name="FR - EN">
            <path class="cls-1" d="M14.83,325A13.84,13.84,0,0,1,1,311.18V14.82A13.84,13.84,0,0,1,14.83,1H193.17A13.84,13.84,0,0,1,207,14.82V311.18A13.84,13.84,0,0,1,193.17,325Z"
            />
            <path class="cls-2" d="M193.17,2A12.84,12.84,0,0,1,206,14.82V311.18A12.84,12.84,0,0,1,193.17,324H14.83A12.84,12.84,0,0,1,2,311.18V14.82A12.84,12.84,0,0,1,14.83,2H193.17m0-2H14.83A14.83,14.83,0,0,0,0,14.82V311.18A14.82,14.82,0,0,0,14.83,326H193.17A14.82,14.82,0,0,0,208,311.18V14.82A14.82,14.82,0,0,0,193.17,0Z"
            />
            <path class="cls-3" d="M178,263.9a64.1,64.1,0,0,1,8.76,12.75,63.4,63.4,0,0,1,8.76-12.75,63.05,63.05,0,0,1-8.76-12.74,65.58,65.58,0,0,1-8.05,12"
            />
            <path class="cls-3" d="M12.54,263.9a64.1,64.1,0,0,1,8.76,12.75,63.4,63.4,0,0,1,8.76-12.75,63.05,63.05,0,0,1-8.76-12.74,65.58,65.58,0,0,1-8,12"
            />
            <path class="cls-3" d="M178,62.21A63.75,63.75,0,0,1,186.74,75a63.05,63.05,0,0,1,8.76-12.74,63.33,63.33,0,0,1-8.76-12.74,65.5,65.5,0,0,1-8.05,12"
            />
            <path class="cls-3" d="M12.54,62.21A63.75,63.75,0,0,1,21.3,75a63.05,63.05,0,0,1,8.76-12.74A63.33,63.33,0,0,1,21.3,49.47a65.5,65.5,0,0,1-8,12"
            />
            <path class="cls-3" d="M183.67,26.29c6.3-3.5,12.58,1.89,10.05,8.91-2.45,7.4-13.26,9.28-15,.72l-3.21,1.82c2.74,10.4,15.34,9.09,20.24.76,4.17-6.86,1.53-16.48-7.36-16.85l7.26-7.13V10.4H176.41L176,15.9l-.14,2.49h3.59l.29-4.4H191.4L180.79,24.37l1.8,3"
            />
            <path class="cls-3" d="M18.24,26.29c6.29-3.5,12.58,1.89,10.05,8.91-2.46,7.4-13.27,9.28-15,.72l-3.2,1.82c2.74,10.4,15.34,9.09,20.24.76C34.48,31.64,31.84,22,23,21.65l7.26-7.13V10.4H11l-.43,5.5-.15,2.49H14l.29-4.4H26L15.35,24.37l1.8,3"
            />
            <path class="cls-3" d="M24.08,299.84c-6.29,3.51-12.58-1.89-10-8.9,2.46-7.41,13.27-9.29,15-.72l3.21-1.83C29.5,278,16.9,279.3,12,287.64c-4.16,6.85-1.52,16.47,7.37,16.85l-7.26,7.13v4.12H31.34l.43-5.51.15-2.48H28.33l-.29,4.4H16.35L27,301.76l-1.79-3"
            />
            <path class="cls-3" d="M189.52,299.84c-6.3,3.51-12.58-1.89-10.05-8.9,2.45-7.41,13.26-9.29,15-.72l3.21-1.83c-2.74-10.39-15.34-9.09-20.24-.75-4.17,6.85-1.53,16.47,7.36,16.85l-7.26,7.13v4.12h19.24l.43-5.51.14-2.48h-3.59l-.29,4.4H181.79l10.61-10.39-1.8-3"
            />
            <path class="cls-3" d="M86.5,51A128,128,0,0,1,104,76.48,126.65,126.65,0,0,1,121.53,51,126.79,126.79,0,0,1,104,25.5a131.09,131.09,0,0,1-16.1,23.91"
            />
            <path class="cls-3" d="M86.5,163.05A128,128,0,0,1,104,188.55a126.93,126.93,0,0,1,17.52-25.5A126.51,126.51,0,0,1,104,137.57a131.51,131.51,0,0,1-16.1,23.92"
            />
            <path class="cls-3" d="M86.5,275.13A127.93,127.93,0,0,1,104,300.62a126.58,126.58,0,0,1,17.52-25.49A126.86,126.86,0,0,1,104,249.64a131.16,131.16,0,0,1-16.1,23.92"
            />
        </g>
    </g>
</svg>
