<svg xmlns="http://www.w3.org/2000/svg" viewBox="0 0 208 326">
    <defs>
        <style>
            .cls-1 {
                fill: #fff;
            }

            .cls-2 {
                fill: #6f7072;
            }

            .cls-3 {
                fill: #f72014;
            }
        </style>
    </defs>
    <title>3H-fr-2c</title>
    <g id="Calque_2" data-name="Calque 2">
        <g id="FR_-_EN" data-name="FR - EN">
            <path class="cls-1" d="M14.83,325A13.84,13.84,0,0,1,1,311.18V14.82A13.84,13.84,0,0,1,14.83,1H193.17A13.84,13.84,0,0,1,207,14.82V311.18A13.84,13.84,0,0,1,193.17,325Z"
            />
            <path class="cls-2" d="M193.17,2A12.84,12.84,0,0,1,206,14.82V311.18A12.84,12.84,0,0,1,193.17,324H14.83A12.84,12.84,0,0,1,2,311.18V14.82A12.84,12.84,0,0,1,14.83,2H193.17m0-2H14.83A14.83,14.83,0,0,0,0,14.82V311.18A14.82,14.82,0,0,0,14.83,326H193.17A14.83,14.83,0,0,0,208,311.18V14.82A14.83,14.83,0,0,0,193.17,0Z"
            />
            <path class="cls-3" d="M104,90.16s.29-3.09,7.62-10.47,15-14.44,16.68-22.72c1.09-5.57-1.42-15.91-13.56-15.91-9.61,0-10.74,12.5-10.74,12.5s-1.13-12.5-10.74-12.5C81.14,41.06,78.62,51.4,79.72,57c1.65,8.28,9.33,15.33,16.67,22.72S104,90.16,104,90.16Z"
            />
            <path class="cls-3" d="M104,186s.29-1.95,7.62-9.33,15-14.44,16.68-22.72c1.09-5.57-1.42-15.9-13.56-15.9-9.61,0-10.74,12.49-10.74,12.49S102.89,138,93.28,138c-12.14,0-14.66,10.33-13.56,15.9,1.65,8.28,9.33,15.33,16.67,22.72S104,186,104,186Z"
            />
            <path class="cls-3" d="M104,235.8s-.28,3.09-7.62,10.48-15,14.43-16.68,22.72c-1.09,5.57,1.42,15.9,13.56,15.9,9.61,0,10.74-12.5,10.74-12.5s1.14,12.5,10.74,12.5c12.14,0,14.66-10.33,13.56-15.9-1.65-8.29-9.33-15.34-16.67-22.72S104,235.8,104,235.8Z"
            />
            <path class="cls-3" d="M21,39.1a7.14,7.14,0,0,1-5.3-1.94,7.38,7.38,0,0,1-1.94-5.43h3.21a4.32,4.32,0,0,0,1,3.14,4.1,4.1,0,0,0,3,1h0a5.77,5.77,0,0,0,5.72-6.15,4.61,4.61,0,0,0-1.3-3.49C23.45,24.32,20,24.34,20,24.35l-3.18,0L24,14.23H17v1.24H13.73V11H30.31L22.84,21.46a10,10,0,0,1,4.78,2.45,7.83,7.83,0,0,1,2.27,5.81A9,9,0,0,1,21,39.1Z"
            />
            <path class="cls-3" d="M185,39.1a7.14,7.14,0,0,1-5.3-1.94,7.38,7.38,0,0,1-1.94-5.43h3.21a4.32,4.32,0,0,0,1,3.14,4.1,4.1,0,0,0,3,1h0a5.77,5.77,0,0,0,5.72-6.15,4.61,4.61,0,0,0-1.3-3.49c-1.92-1.91-5.37-1.89-5.41-1.88l-3.18,0L188,14.23H181v1.24h-3.22V11H194.3l-7.46,10.46a10,10,0,0,1,4.78,2.45,7.87,7.87,0,0,1,2.27,5.81A9,9,0,0,1,185,39.1Z"
            />
            <path class="cls-3" d="M187.06,286.8a7.14,7.14,0,0,1,5.3,1.94,7.38,7.38,0,0,1,1.95,5.43h-3.22a4.33,4.33,0,0,0-1-3.14,4.1,4.1,0,0,0-3-1h0a5.77,5.77,0,0,0-5.72,6.15,4.61,4.61,0,0,0,1.3,3.49c1.93,1.91,5.38,1.89,5.41,1.89l3.18-.05L184,311.67h7.09v-1.24h3.22v4.47H177.72l7.48-10.46a9.91,9.91,0,0,1-4.79-2.45,7.83,7.83,0,0,1-2.27-5.81A9,9,0,0,1,187,286.8Z"
            />
            <path class="cls-3" d="M23.06,286.8a7.14,7.14,0,0,1,5.3,1.94,7.38,7.38,0,0,1,1.95,5.43H27.09a4.33,4.33,0,0,0-1-3.14,4.1,4.1,0,0,0-3-1h0a5.77,5.77,0,0,0-5.72,6.15,4.65,4.65,0,0,0,1.3,3.49c1.93,1.91,5.38,1.89,5.41,1.89l3.18-.05L20,311.67h7.09v-1.24H30.3v4.47H13.73l7.47-10.46A9.91,9.91,0,0,1,16.41,302a7.87,7.87,0,0,1-2.27-5.81A9,9,0,0,1,23,286.8Z"
            />
            <path class="cls-3" d="M22,64a8.43,8.43,0,0,1,2.49-5.12c2.39-2.46,4.9-4.81,5.43-7.58A4.32,4.32,0,0,0,25.5,46c-3.13,0-3.5,4.17-3.5,4.17S21.63,46,18.5,46a4.32,4.32,0,0,0-4.42,5.3c.53,2.77,3,5.12,5.43,7.58A8.45,8.45,0,0,1,22,64Z"
            />
            <path class="cls-3" d="M186,64a8.45,8.45,0,0,1,2.48-5.12c2.4-2.46,4.91-4.81,5.44-7.58A4.32,4.32,0,0,0,189.5,46c-3.13,0-3.5,4.17-3.5,4.17S185.63,46,182.5,46a4.32,4.32,0,0,0-4.42,5.3c.53,2.77,3,5.12,5.43,7.58A8.45,8.45,0,0,1,186,64Z"
            />
            <path class="cls-3" d="M186,262a8.43,8.43,0,0,1-2.49,5.12c-2.39,2.46-4.9,4.81-5.43,7.58a4.32,4.32,0,0,0,4.42,5.3c3.13,0,3.5-4.17,3.5-4.17s.37,4.17,3.5,4.17a4.32,4.32,0,0,0,4.42-5.3c-.53-2.77-3-5.12-5.43-7.58A8.45,8.45,0,0,1,186,262Z"
            />
            <path class="cls-3" d="M22,262a8.43,8.43,0,0,1-2.49,5.12c-2.39,2.46-4.9,4.81-5.43,7.58A4.32,4.32,0,0,0,18.5,280c3.13,0,3.5-4.17,3.5-4.17s.37,4.17,3.5,4.17a4.32,4.32,0,0,0,4.42-5.3c-.53-2.77-3-5.12-5.43-7.58A8.45,8.45,0,0,1,22,262Z"
            />
        </g>
    </g>
</svg>
