<svg xmlns="http://www.w3.org/2000/svg" viewBox="0 0 208 326">
    <defs>
        <style>
            .cls-1 {
                fill: #fff;
            }

            .cls-2 {
                fill: #6f7072;
            }

            .cls-3 {
                fill: #f8261b;
            }
        </style>
    </defs>
    <title>3H-us-2c</title>
    <g id="Calque_2" data-name="Calque 2">
        <g id="FR_-_EN" data-name="FR - EN">
            <path class="cls-1" d="M14.83,325A13.84,13.84,0,0,1,1,311.18V14.82A13.84,13.84,0,0,1,14.83,1H193.17A13.84,13.84,0,0,1,207,14.82V311.18A13.84,13.84,0,0,1,193.17,325Z"
            />
            <path class="cls-2" d="M193.17,2A12.84,12.84,0,0,1,206,14.82V311.18A12.84,12.84,0,0,1,193.17,324H14.83A12.84,12.84,0,0,1,2,311.18V14.82A12.84,12.84,0,0,1,14.83,2H193.17m0-2H14.83A14.83,14.83,0,0,0,0,14.82V311.18A14.82,14.82,0,0,0,14.83,326H193.17A14.83,14.83,0,0,0,208,311.18V14.82A14.83,14.83,0,0,0,193.17,0Z"
            />
            <path class="cls-3" d="M21.42,69.57C24.76,66.77,31.86,56,30.16,51a4.59,4.59,0,0,0-8.74-.47c-1.59-3.57-6.21-4.1-8.25-.65C10,54.79,17.71,65.92,20.8,69"
            />
            <path class="cls-3" d="M186.85,69.57C190.2,66.77,197.3,56,195.6,51c-1.45-4.41-6.85-4.61-8.75-.47-1.58-3.57-6.2-4.1-8.24-.65-3.17,4.89,4.54,16,7.62,19.14"
            />
            <path class="cls-3" d="M21.43,254.64c-3.35,2.8-10.45,13.61-8.75,18.56,1.46,4.41,6.85,4.61,8.75.46,1.58,3.58,6.2,4.11,8.24.66,3.18-4.9-4.54-16-7.62-19.14"
            />
            <path class="cls-3" d="M186.87,254.64c-3.35,2.8-10.45,13.61-8.75,18.56,1.46,4.41,6.85,4.61,8.75.46,1.58,3.58,6.2,4.11,8.24.66,3.17-4.9-4.54-16-7.62-19.14"
            />
            <path class="cls-3" d="M183.7,26.23c6.3-3.5,12.58,1.89,10.05,8.91-2.45,7.4-13.26,9.28-15,.72l-3.21,1.82c2.74,10.4,15.34,9.09,20.24.76,4.17-6.86,1.53-16.47-7.36-16.85l7.26-7.13V10.34H176.44l-.43,5.5-.14,2.49h3.59l.29-4.4h11.68L180.82,24.32l1.8,3"
            />
            <path class="cls-3" d="M18.27,26.23c6.29-3.5,12.57,1.89,10.05,8.91-2.46,7.4-13.27,9.28-15,.72L10.1,37.68c2.75,10.4,15.34,9.09,20.25.76C34.51,31.58,31.87,22,23,21.59l7.26-7.13V10.34H11l-.44,5.5-.14,2.49H14l.29-4.4H26L15.38,24.32l1.8,3"
            />
            <path class="cls-3" d="M24.11,299.79c-6.29,3.5-12.58-1.9-10-8.91,2.45-7.41,13.27-9.29,15-.72l3.21-1.82c-2.74-10.4-15.34-9.09-20.24-.76-4.16,6.86-1.52,16.47,7.36,16.85l-7.26,7.13v4.12H31.37l.43-5.5.15-2.49H28.36l-.29,4.4H16.38L27,301.7l-1.79-3"
            />
            <path class="cls-3" d="M189.55,299.79c-6.3,3.5-12.58-1.9-10.05-8.91,2.45-7.41,13.26-9.29,15-.72l3.21-1.82c-2.74-10.4-15.34-9.09-20.24-.76-4.17,6.86-1.53,16.47,7.36,16.85l-7.26,7.13v4.12h19.24l.43-5.5.14-2.49h-3.59l-.29,4.4H181.82l10.61-10.39-1.8-3"
            />
            <path class="cls-3" d="M104.56,67.74c2.73-2.13,4-4.48,6-7.29a58.87,58.87,0,0,0,6.91-12.69,17.1,17.1,0,0,0,1.28-10.61c-2.37-7.27-11.14-7.6-14.23-.77-2.57-5.89-10.09-6.77-13.4-1.08-1.92,3-1.23,8,0,11.17a59.41,59.41,0,0,0,5.54,11.22c2,2.64,4.42,7,6.9,9.17"
            />
            <path class="cls-3" d="M104.56,181.67c2.73-2.13,4-4.49,6-7.29a59.1,59.1,0,0,0,6.91-12.69,17.12,17.12,0,0,0,1.28-10.62c-2.37-7.26-11.14-7.6-14.23-.76-2.57-5.89-10.09-6.77-13.4-1.08-1.92,2.94-1.23,8,0,11.16a59.2,59.2,0,0,0,5.54,11.23c2,2.64,4.42,7,6.9,9.17"
            />
            <path class="cls-3" d="M104.56,258.26c-2.72,2.13-4,4.48-6,7.29a58.9,58.9,0,0,0-6.92,12.69,17.17,17.17,0,0,0-1.28,10.61c2.37,7.27,11.14,7.6,14.23.77,2.58,5.89,10.09,6.77,13.41,1.08,1.91-2.95,1.23-8,0-11.17a59.75,59.75,0,0,0-5.55-11.22c-1.94-2.64-4.41-7-6.89-9.17"
            />
        </g>
    </g>
</svg>
