<svg xmlns="http://www.w3.org/2000/svg" viewBox="0 0 208 326">
    <defs>
        <style>
            .cls-1 {
                fill: #fff;
            }

            .cls-2 {
                fill: #6f7072;
            }
        </style>
    </defs>
    <title>3S-fr-2c</title>
    <g id="Calque_2" data-name="Calque 2">
        <g id="FR_-_EN" data-name="FR - EN">
            <path class="cls-1" d="M14.83,325A13.84,13.84,0,0,1,1,311.18V14.82A13.84,13.84,0,0,1,14.83,1H193.17A13.84,13.84,0,0,1,207,14.82V311.18A13.84,13.84,0,0,1,193.17,325Z"
            />
            <path class="cls-2" d="M193.17,2A12.84,12.84,0,0,1,206,14.82V311.18A12.84,12.84,0,0,1,193.17,324H14.83A12.84,12.84,0,0,1,2,311.18V14.82A12.84,12.84,0,0,1,14.83,2H193.17m0-2H14.83A14.83,14.83,0,0,0,0,14.82V311.18A14.82,14.82,0,0,0,14.83,326H193.17A14.83,14.83,0,0,0,208,311.18V14.82A14.83,14.83,0,0,0,193.17,0Z"
            />
            <path d="M121.88,60.52c-2.13-4.09-9.27-10-13.53-13.42s-4.17-6.27-4.9-6.27-.48,2.83-4.74,6.27-10.1,8.17-12.22,12.26S84.15,70.1,91.17,73.54c4.52,2.22,8.31-.64,10.7-3.4.38,7.53-9.61,17.46-9.61,17.46a36.82,36.82,0,0,1,20.07-.24s-8.88-11.79-7.65-17.93c2.48,3.15,6.77,7.18,11.3,5C123,71,124,64.6,121.88,60.52Z"
            />
            <path d="M121.88,158.74c-2.13-4.08-9.27-10-13.53-13.41s-4.17-6.27-4.9-6.27-.48,2.83-4.74,6.27-10.1,8.17-12.22,12.26-2.34,10.73,4.68,14.18c4.52,2.22,8.31-.64,10.7-3.4.38,7.52-9.61,17.46-9.61,17.46a36.82,36.82,0,0,1,20.07-.24s-8.88-11.8-7.65-17.94c2.48,3.15,6.77,7.19,11.3,5C123,169.18,124,162.83,121.88,158.74Z"
            />
            <path d="M86.18,265c2.12,4.09,9.27,10,13.52,13.42s4.18,6.27,4.91,6.27.48-2.82,4.74-6.27,10.09-8.17,12.22-12.26,2.34-10.73-4.68-14.18c-4.52-2.21-8.31.64-10.7,3.4-.38-7.52,9.61-17.46,9.61-17.46a36.75,36.75,0,0,1-20.08.24s8.89,11.8,7.66,17.94c-2.48-3.15-6.77-7.19-11.3-5C85.06,254.58,84.05,260.94,86.18,265Z"
            />
            <path d="M29.58,54.25c-.9-1.75-3.93-4.27-5.74-5.74s-1.77-2.68-2.09-2.68-.2,1.21-2,2.68-4.28,3.5-5.18,5.24a4.27,4.27,0,0,0,2,6.07c1.92,1,3.53-.27,4.54-1.45.17,3.21-4.07,7.46-4.07,7.46a15.47,15.47,0,0,1,8.52-.1s-3.77-5.05-3.25-7.67c1,1.35,2.87,3.07,4.79,2.12C30.05,58.71,30.48,56,29.58,54.25Z"
            />
            <path d="M193.58,54.25c-.9-1.75-3.93-4.27-5.74-5.74s-1.77-2.68-2.09-2.68-.2,1.21-2,2.68-4.28,3.5-5.19,5.24a4.28,4.28,0,0,0,2,6.07c1.91,1,3.53-.27,4.54-1.45.17,3.21-4.07,7.46-4.07,7.46a15.48,15.48,0,0,1,8.52-.1s-3.77-5.05-3.25-7.67c1.05,1.35,2.87,3.07,4.79,2.12C194.05,58.71,194.48,56,193.58,54.25Z"
            />
            <path d="M178.42,271.29c.9,1.75,3.93,4.27,5.74,5.74s1.77,2.68,2.09,2.68.2-1.21,2-2.68,4.28-3.5,5.18-5.24a4.27,4.27,0,0,0-2-6.07c-1.92-.94-3.53.28-4.55,1.46-.16-3.22,4.08-7.47,4.08-7.47a15.47,15.47,0,0,1-8.52.1s3.77,5.05,3.25,7.67c-1.05-1.34-2.87-3.07-4.79-2.12C178,266.83,177.52,269.55,178.42,271.29Z"
            />
            <path d="M14.42,271.29c.9,1.75,3.93,4.27,5.74,5.74s1.77,2.68,2.09,2.68.2-1.21,2-2.68,4.28-3.5,5.18-5.24a4.27,4.27,0,0,0-2-6.07c-1.92-.94-3.53.28-4.54,1.46C22.75,264,27,259.71,27,259.71a15.47,15.47,0,0,1-8.52.1s3.77,5.05,3.25,7.67c-1-1.34-2.87-3.07-4.79-2.12C14,266.83,13.52,269.55,14.42,271.29Z"
            />
            <path d="M21,39.08a7.15,7.15,0,0,1-5.29-1.94,7.38,7.38,0,0,1-1.95-5.44h3.22a4.32,4.32,0,0,0,1,3.15,4.05,4.05,0,0,0,3,1h0a5.77,5.77,0,0,0,5.72-6.15,4.64,4.64,0,0,0-1.3-3.49C23.44,24.3,20,24.31,20,24.32l-3.19,0L24,14.21h-7.1v1.23H13.71V11H30.29L22.82,21.43a10,10,0,0,1,4.79,2.45,7.87,7.87,0,0,1,2.27,5.81A9,9,0,0,1,21,39.08Z"
            />
            <path d="M185,39.08a7.16,7.16,0,0,1-5.3-1.94,7.38,7.38,0,0,1-1.95-5.44h3.22a4.32,4.32,0,0,0,1,3.15,4.07,4.07,0,0,0,3,1h0a5.77,5.77,0,0,0,5.72-6.15,4.64,4.64,0,0,0-1.3-3.49c-1.92-1.9-5.37-1.89-5.4-1.88l-3.19,0L188,14.21h-7.1v1.23h-3.22V11h16.58l-7.47,10.45a10,10,0,0,1,4.79,2.45,7.87,7.87,0,0,1,2.27,5.81A9,9,0,0,1,185,39.08Z"
            />
            <path d="M187,286.77a7.16,7.16,0,0,1,5.3,1.94,7.38,7.38,0,0,1,1.95,5.44h-3.22a4.32,4.32,0,0,0-1-3.15,4.05,4.05,0,0,0-3-1h0a5.77,5.77,0,0,0-5.72,6.15,4.67,4.67,0,0,0,1.29,3.49c1.93,1.9,5.38,1.89,5.41,1.88l3.19,0L184,311.64h7.09v-1.23h3.22v4.46H177.71l7.47-10.45a10,10,0,0,1-4.79-2.45,7.87,7.87,0,0,1-2.27-5.81,9,9,0,0,1,8.89-9.38Z"
            />
            <path d="M23.05,286.77a7.15,7.15,0,0,1,5.29,1.94,7.38,7.38,0,0,1,1.95,5.44H27.08a4.32,4.32,0,0,0-1-3.15,4.07,4.07,0,0,0-3-1h0a5.77,5.77,0,0,0-5.72,6.15,4.67,4.67,0,0,0,1.29,3.49c1.93,1.9,5.38,1.89,5.41,1.88l3.19,0L20,311.64h7.1v-1.23h3.22v4.46H13.71l7.47-10.45A10,10,0,0,1,16.39,302a7.87,7.87,0,0,1-2.27-5.81A9,9,0,0,1,23,286.78Z"
            />
        </g>
    </g>
</svg>
