<svg xmlns="http://www.w3.org/2000/svg" viewBox="0 0 208 326">
    <defs>
        <style>
            .cls-1 {
                fill: #fff;
            }

            .cls-2 {
                fill: #6f7072;
            }

            .cls-3 {
                fill: #1d1d1b;
            }

            .cls-4 {
                fill: none;
            }

            .cls-5 {
                fill: #1c1c1c;
            }
        </style>
    </defs>
    <title>3S-us-2c</title>
    <g id="Calque_2" data-name="Calque 2">
        <g id="FR_-_EN" data-name="FR - EN">
            <path class="cls-1" d="M14.83,325A13.84,13.84,0,0,1,1,311.18V14.82A13.84,13.84,0,0,1,14.83,1H193.17A13.84,13.84,0,0,1,207,14.82V311.18A13.84,13.84,0,0,1,193.17,325Z"
            />
            <path class="cls-2" d="M193.17,2A12.84,12.84,0,0,1,206,14.82V311.18A12.84,12.84,0,0,1,193.17,324H14.83A12.84,12.84,0,0,1,2,311.18V14.82A12.84,12.84,0,0,1,14.83,2H193.17m0-2H14.83A14.83,14.83,0,0,0,0,14.82V311.18A14.83,14.83,0,0,0,14.83,326H193.17A14.83,14.83,0,0,0,208,311.18V14.82A14.83,14.83,0,0,0,193.17,0Z"
            />
            <path class="cls-3" d="M21.28,74.47l1.27,0,1.22.07,1.24.12.4.07a23.66,23.66,0,0,1-3-6.28l-.07-.33,0-.48,0-.15,0,0,.09,0,.07.1A3.76,3.76,0,0,0,26.38,70C37.2,67.91,25,52.87,21.28,49.59,17.93,53,8.64,63.17,13,68.57a4.57,4.57,0,0,0,4.82,1.21l.74-.33.32-.24.29-.24.23-.26.19-.27.31-.52.19-.38.06-.1.1,0,0,0,0,.15,0,.48-.07.33a23.82,23.82,0,0,1-3,6.28l.39-.07,1.25-.12L20,74.42"
            />
            <path class="cls-3" d="M186.72,74.47l1.26,0,1.23.07,1.24.12.4.07a23.66,23.66,0,0,1-3-6.28l-.07-.33,0-.48,0-.15,0,0,.09,0,.07.1A3.76,3.76,0,0,0,191.82,70c10.82-2.11-1.37-17.15-5.1-20.43-3.35,3.39-12.64,13.58-8.31,19a4.57,4.57,0,0,0,4.82,1.21l.74-.33.32-.24.28-.24.24-.26.19-.27.31-.52.18-.38.07-.1.1,0,0,0,0,.15,0,.48-.07.33a23.82,23.82,0,0,1-3,6.28l.39-.07,1.25-.12,1.22-.07"
            />
            <path class="cls-3" d="M186.76,251.5l-1.26.05-1.23-.07-1.24-.12-.4-.07a23.57,23.57,0,0,1,3,6.29l.07.33,0,.48,0,.14,0,0-.1,0-.07-.1a3.75,3.75,0,0,0-3.88-2.48c-10.82,2.11,1.37,17.15,5.1,20.43,3.35-3.39,12.64-13.57,8.31-19a4.57,4.57,0,0,0-4.82-1.21l-.74.33-.32.24-.28.24-.24.26-.19.27-.3.52-.19.38-.07.1-.1,0,0,0,0-.14,0-.48.08-.33a23.13,23.13,0,0,1,3-6.29l-.4.07-1.25.12-1.22.07"
            />
            <path class="cls-3" d="M21.32,251.5l-1.26.05-1.23-.07-1.24-.12-.4-.07a23.57,23.57,0,0,1,3,6.29l.07.33,0,.48,0,.14,0,0-.09,0-.08-.1A3.75,3.75,0,0,0,16.22,256c-10.82,2.11,1.37,17.15,5.1,20.43,3.35-3.39,12.64-13.57,8.31-19a4.57,4.57,0,0,0-4.82-1.21l-.73.33-.33.24-.28.24-.24.26-.19.27-.3.52-.19.38-.07.1-.1,0,0,0,0-.14,0-.48.08-.33a23.13,23.13,0,0,1,3-6.29l-.4.07-1.25.12-1.22.07"
            />
            <rect class="cls-4" x="10.16" y="50.8" width="22.28" height="22.68" />
            <rect class="cls-4" x="10.16" y="47.06" width="22.28" height="30.16" />
            <rect class="cls-4" x="175.6" y="47.06" width="22.29" height="30.16" />
            <path class="cls-5" d="M183.67,26.22c6.3-3.51,12.58,1.89,10.06,8.91-2.46,7.4-13.27,9.28-15,.72l-3.21,1.82c2.75,10.4,15.34,9.09,20.24.75,4.17-6.85,1.53-16.47-7.36-16.84l7.26-7.13V10.32H176.41L176,15.83l-.14,2.49h3.59l.29-4.41h11.69L180.79,24.3l1.8,3"
            />
            <path class="cls-5" d="M18.24,26.22c6.29-3.51,12.58,1.89,10.05,8.91-2.46,7.4-13.27,9.28-15,.72l-3.21,1.82c2.74,10.4,15.34,9.09,20.24.75C34.48,31.57,31.84,22,23,21.58l7.26-7.13V10.32H11l-.43,5.51-.15,2.49H14l.29-4.41H26L15.36,24.3l1.79,3"
            />
            <path class="cls-5" d="M24.08,299.77c-6.29,3.51-12.58-1.89-10-8.91,2.46-7.4,13.27-9.28,15-.72l3.2-1.82c-2.74-10.4-15.34-9.09-20.24-.76-4.16,6.86-1.52,16.48,7.37,16.85l-7.26,7.13v4.13H31.34l.43-5.51.15-2.49H28.33L28,312.08H16.35L27,301.69l-1.8-3"
            />
            <path class="cls-5" d="M189.52,299.77c-6.3,3.51-12.58-1.89-10.05-8.91,2.45-7.4,13.26-9.28,15-.72l3.21-1.82c-2.74-10.4-15.34-9.09-20.24-.76-4.17,6.86-1.52,16.48,7.36,16.85l-7.26,7.13v4.13h19.24l.43-5.51.14-2.49h-3.59l-.28,4.41H181.79l10.61-10.39-1.79-3"
            />
            <path class="cls-3" d="M103.89,69.38l2-.09,1.94.12,2,.19.63.12a38.4,38.4,0,0,1-4.82-10.09l-.12-.53,0-.77,0-.23,0,0,.14,0,.12.16c1.2,2.84,3.17,4,6.17,4,5-.41,7.38-4.11,6.78-9.08-.91-8.36-9.38-17.87-14.9-23.7-5.32,5.45-20.11,21.78-13.22,30.45a7.28,7.28,0,0,0,7.68,2l1.16-.53.52-.39.45-.38.37-.43.31-.42.48-.84.31-.61.1-.16.16,0,0,0,0,.23,0,.77-.12.53A37.5,37.5,0,0,1,97.3,69.72l.63-.12,2-.19,1.94-.12"
            />
            <path class="cls-3" d="M103.89,182.34l2-.09,1.94.12,2,.19.63.12a38.34,38.34,0,0,1-4.82-10.08l-.12-.53,0-.77,0-.24,0,0,.14,0,.12.16c1.2,2.84,3.17,4,6.17,4,5-.42,7.38-4.12,6.78-9.09-.91-8.36-9.38-17.86-14.9-23.69-5.32,5.44-20.11,21.77-13.22,30.44a7.26,7.26,0,0,0,7.68,1.95l1.16-.53.52-.38.45-.38.37-.43.31-.43.48-.84.31-.61.1-.16.16,0,0,0,0,.24,0,.77-.12.53a37.44,37.44,0,0,1-4.82,10.08l.63-.12,2-.19,1.94-.12"
            />
            <path class="cls-3" d="M103.87,256.59l-2,.09-1.95-.12-2-.19-.64-.12a38.12,38.12,0,0,1,4.83,10.09l.11.53,0,.77,0,.23,0,0-.14,0-.12-.16c-1.2-2.84-3.17-4-6.18-4-5,.41-7.37,4.11-6.78,9.08.91,8.37,9.38,17.87,14.91,23.7,5.32-5.44,20.11-21.78,13.21-30.45a7.26,7.26,0,0,0-7.67-1.95l-1.17.54-.52.38-.44.38-.38.43-.3.42-.49.85-.3.6-.1.16-.16,0,0,0,0-.23,0-.77.11-.53a37.83,37.83,0,0,1,4.83-10.09l-.63.12-2,.19-2,.12"
            />
        </g>
    </g>
</svg>
