<svg xmlns="http://www.w3.org/2000/svg" viewBox="0 0 208 326">
    <defs>
        <style>
            .cls-1 {
                fill: #fff;
            }

            .cls-2 {
                fill: #6f7072;
            }
        </style>
    </defs>
    <title>4C-fr-2c</title>
    <g id="Calque_2" data-name="Calque 2">
        <g id="FR_-_EN" data-name="FR - EN">
            <path class="cls-1" d="M14.83,325A13.84,13.84,0,0,1,1,311.18V14.82A13.84,13.84,0,0,1,14.83,1H193.17A13.84,13.84,0,0,1,207,14.82V311.18A13.84,13.84,0,0,1,193.16,325Z"
            />
            <path class="cls-2" d="M193.17,2A12.84,12.84,0,0,1,206,14.82V309.18h0v2A12.84,12.84,0,0,1,193.16,324H14.83A12.84,12.84,0,0,1,2,311.18V14.82A12.84,12.84,0,0,1,14.83,2H193.17m0-2H14.83A14.83,14.83,0,0,0,0,14.82V311.18A14.83,14.83,0,0,0,14.83,326H193.16A14.83,14.83,0,0,0,208,311.18h0V14.82A14.83,14.83,0,0,0,193.17,0Z"
            />
            <path d="M62.21,40.92c5.59,0,8,4.11,8,8.43s-3.87,6.92-5.38,9.52a8,8,0,0,0-1.07,5h-3a8,8,0,0,0-1.08-5c-1.5-2.6-5.38-5.19-5.38-9.52S56.62,40.92,62.21,40.92Z"
            />
            <path d="M85,65.69c0,5.62-4.09,8-8.39,8s-6.89-3.89-9.47-5.4a7.83,7.83,0,0,0-4.95-1.09v-3a7.83,7.83,0,0,0,4.95-1.09c2.58-1.51,5.17-5.4,9.47-5.4S85,60.07,85,65.69Z"
            />
            <path d="M38,65.69c0-5.62,4.08-8,8.39-8s6.88,3.89,9.46,5.4a7.83,7.83,0,0,0,4.95,1.09v3a7.83,7.83,0,0,0-4.95,1.09c-2.58,1.51-5.16,5.4-9.46,5.4S38,71.32,38,65.69Z"
            />
            <path d="M63.87,62V74.14c0,5.7,8.06,11.22,8.06,11.22H52.49s8.06-5.52,8.06-11.22V62Z" />
            <path d="M148,40.92c5.59,0,8,4.11,8,8.43s-3.87,6.92-5.38,9.52a8,8,0,0,0-1.08,5h-3a8,8,0,0,0-1.07-5c-1.51-2.6-5.38-5.19-5.38-9.52S142.39,40.92,148,40.92Z"
            />
            <path d="M170.79,65.69c0,5.62-4.08,8-8.39,8s-6.88-3.89-9.46-5.4A7.83,7.83,0,0,0,148,67.2v-3a7.83,7.83,0,0,0,4.95-1.09c2.58-1.51,5.16-5.4,9.46-5.4S170.79,60.07,170.79,65.69Z"
            />
            <path d="M123.76,65.69c0-5.62,4.09-8,8.39-8s6.89,3.89,9.47,5.4a7.83,7.83,0,0,0,4.95,1.09v3a7.83,7.83,0,0,0-4.95,1.09c-2.58,1.51-5.16,5.4-9.47,5.4S123.76,71.32,123.76,65.69Z"
            />
            <path d="M149.65,62V74.14c0,5.7,8.06,11.22,8.06,11.22H138.27s8.06-5.52,8.06-11.22V62Z" />
            <path d="M62.21,284.79c5.59,0,8-4.11,8-8.43s-3.87-6.93-5.38-9.52a8,8,0,0,1-1.07-5h-3a8,8,0,0,1-1.08,5c-1.5,2.59-5.38,5.19-5.38,9.52S56.62,284.79,62.21,284.79Z"
            />
            <path d="M85,260c0-5.63-4.09-8-8.39-8s-6.89,3.9-9.47,5.41a7.86,7.86,0,0,1-4.95,1.08v3a7.86,7.86,0,0,1,4.95,1.08c2.58,1.52,5.17,5.41,9.47,5.41S85,265.64,85,260Z"
            />
            <path d="M38,260c0,5.62,4.08,8,8.39,8s6.88-3.9,9.46-5.41a7.86,7.86,0,0,1,4.95-1.08v-3a7.86,7.86,0,0,1-4.95-1.08c-2.58-1.51-5.16-5.41-9.46-5.41S38,254.39,38,260Z"
            />
            <path d="M63.87,263.68V251.56c0-5.7,8.06-11.22,8.06-11.22H52.49s8.06,5.52,8.06,11.22v12.12Z" />
            <path d="M148,284.79c5.59,0,8-4.11,8-8.43s-3.87-6.93-5.38-9.52a8,8,0,0,1-1.08-5h-3a8,8,0,0,1-1.07,5c-1.51,2.59-5.38,5.19-5.38,9.52S142.39,284.79,148,284.79Z"
            />
            <path d="M170.79,260c0-5.63-4.08-8-8.39-8s-6.88,3.9-9.46,5.41A7.86,7.86,0,0,1,148,258.5v3a7.86,7.86,0,0,1,4.95,1.08c2.58,1.52,5.16,5.41,9.46,5.41S170.79,265.64,170.79,260Z"
            />
            <path d="M123.76,260c0,5.62,4.09,8,8.39,8s6.89-3.9,9.47-5.41a7.86,7.86,0,0,1,4.95-1.08v-3a7.86,7.86,0,0,1-4.95-1.08c-2.58-1.51-5.16-5.41-9.47-5.41S123.76,254.39,123.76,260Z"
            />
            <path d="M149.65,263.68V251.56c0-5.7,8.06-11.22,8.06-11.22H138.27s8.06,5.52,8.06,11.22v12.12Z" />
            <path d="M28,28.65V10.93H25.12l-13,18.4,1.31,2.55H24.82V36.1H22.77v3.23h7.06V36.1H28V31.88h1.62V28.65Zm-3.21,0h-8.3l8.3-11.73Z"
            />
            <polygon points="31.9 33.41 31.9 27.1 29.64 27.1 29.64 28.65 29.64 31.88 29.64 33.41 31.9 33.41" />
            <polygon points="195.9 33.4 195.9 27.09 193.65 27.09 193.65 28.64 193.65 31.87 193.65 33.4 195.9 33.4" />
            <path d="M192,28.64V10.92h-2.91l-13,18.4,1.31,2.55h11.41v4.22h-2v3.23h7.06V36.09H192V31.87h1.61V28.64Zm-3.21,0h-8.29l8.29-11.73Z"
            />
            <path d="M180,297.09v17.73h2.91l13-18.4-1.31-2.56H183.18v-4.21h2v-3.24h-7.06v3.24H180v4.21h-1.62v3.23Zm3.21,0h8.3l-8.3,11.73Z"
            />
            <polygon points="176.1 292.33 176.1 298.65 178.35 298.65 178.35 297.09 178.35 293.86 178.35 292.33 176.1 292.33" />
            <path d="M16,297.13v17.72h2.91l13-18.4-1.31-2.55H19.18v-4.22h2.05v-3.23H14.17v3.23H16v4.22H14.35v3.23Zm3.21,0h8.3l-8.3,11.73Z"
            />
            <polygon points="12.1 292.37 12.1 298.69 14.35 298.69 14.35 297.13 14.35 293.9 14.35 292.37 12.1 292.37" />
            <path d="M28,52.94c-1.79,0-2.86,1.67-3.94,2.32a1.31,1.31,0,0,1-.8.2,1.68,1.68,0,0,1-.18-1.83c.63-1.12,2.24-2.23,2.24-4.09s-1-3.62-3.32-3.62-3.31,1.76-3.31,3.62,1.61,3,2.24,4.09a1.67,1.67,0,0,1-.2,1.83,1.29,1.29,0,0,1-.79-.2c-1.07-.65-2.15-2.32-3.94-2.32a3.44,3.44,0,1,0,0,6.88c1.79,0,2.86-1.68,3.94-2.33a1.36,1.36,0,0,1,.91-.19c.94,3.37-2.16,8.62-2.16,8.62A10.3,10.3,0,0,1,22,65.46a10.3,10.3,0,0,1,3.31.46s-3.52-5.33-2.25-8.6a1.32,1.32,0,0,1,1,.17c1.07.65,2.15,2.33,3.94,2.33a3.44,3.44,0,1,0,0-6.88Z"
            />
            <path d="M192,52.94c-1.79,0-2.86,1.67-3.94,2.32a1.31,1.31,0,0,1-.8.2,1.68,1.68,0,0,1-.18-1.83c.63-1.12,2.24-2.23,2.24-4.09s-1-3.62-3.32-3.62-3.31,1.76-3.31,3.62,1.61,3,2.24,4.09a1.67,1.67,0,0,1-.2,1.83,1.29,1.29,0,0,1-.79-.2c-1.07-.65-2.15-2.32-3.94-2.32a3.44,3.44,0,1,0,0,6.88c1.79,0,2.86-1.68,3.94-2.33a1.35,1.35,0,0,1,.91-.19c.94,3.37-2.17,8.62-2.17,8.62a10.41,10.41,0,0,1,3.32-.46,10.3,10.3,0,0,1,3.31.46s-3.52-5.33-2.25-8.6a1.32,1.32,0,0,1,1,.17c1.07.65,2.15,2.33,3.94,2.33a3.44,3.44,0,1,0,0-6.88Z"
            />
            <path d="M180,272.77c1.79,0,2.86-1.67,3.94-2.32a1.31,1.31,0,0,1,.8-.2,1.68,1.68,0,0,1,.18,1.83c-.63,1.12-2.24,2.23-2.24,4.09s1,3.62,3.32,3.62,3.31-1.76,3.31-3.62-1.61-3-2.24-4.09a1.67,1.67,0,0,1,.2-1.83,1.29,1.29,0,0,1,.79.2c1.07.65,2.15,2.32,3.94,2.32a3.44,3.44,0,1,0,0-6.88c-1.79,0-2.86,1.68-3.94,2.33a1.3,1.3,0,0,1-.91.18c-.94-3.36,2.16-8.61,2.16-8.61a12.14,12.14,0,0,1-6.62,0s3.52,5.33,2.25,8.6a1.37,1.37,0,0,1-1-.17c-1.07-.65-2.15-2.33-3.94-2.33a3.44,3.44,0,1,0,0,6.88Z"
            />
            <path d="M16,272.77c1.79,0,2.86-1.67,3.94-2.32a1.31,1.31,0,0,1,.8-.2,1.68,1.68,0,0,1,.18,1.83c-.63,1.12-2.24,2.23-2.24,4.09s1,3.62,3.32,3.62,3.31-1.76,3.31-3.62-1.61-3-2.24-4.09a1.67,1.67,0,0,1,.2-1.83,1.29,1.29,0,0,1,.79.2c1.07.65,2.15,2.32,3.94,2.32a3.44,3.44,0,1,0,0-6.88c-1.79,0-2.86,1.68-3.94,2.33a1.3,1.3,0,0,1-.91.18c-.94-3.36,2.16-8.61,2.16-8.61a10.3,10.3,0,0,1-3.31.46,10.3,10.3,0,0,1-3.31-.46s3.52,5.33,2.25,8.6a1.37,1.37,0,0,1-1-.17c-1.07-.65-2.15-2.33-3.94-2.33a3.44,3.44,0,1,0,0,6.88Z"
            />
        </g>
    </g>
</svg>
