<svg xmlns="http://www.w3.org/2000/svg" viewBox="0 0 208 326">
    <defs>
        <style>
            .cls-1 {
                fill: #fff;
            }

            .cls-2 {
                fill: #6f7072;
            }

            .cls-3 {
                fill: #f72014;
            }
        </style>
    </defs>
    <title>4D-fr-2c</title>
    <g id="Calque_2" data-name="Calque 2">
        <g id="FR_-_EN" data-name="FR - EN">
            <path class="cls-1" d="M14.83,325A13.84,13.84,0,0,1,1,311.18V14.82A13.84,13.84,0,0,1,14.83,1H193.17A13.84,13.84,0,0,1,207,14.82V311.18A13.84,13.84,0,0,1,193.17,325Z"
            />
            <path class="cls-2" d="M193.17,2A12.84,12.84,0,0,1,206,14.82V311.18A12.84,12.84,0,0,1,193.17,324H14.83A12.84,12.84,0,0,1,2,311.18V14.82A12.84,12.84,0,0,1,14.83,2H193.17m0-2H14.83A14.83,14.83,0,0,0,0,14.82V311.18A14.82,14.82,0,0,0,14.83,326H193.17A14.83,14.83,0,0,0,208,311.18V14.82A14.83,14.83,0,0,0,193.17,0Z"
            />
            <path class="cls-3" d="M22,45.84s3.67,8.07,9.1,10.11A23.7,23.7,0,0,0,22,65.84s-1.63-5.81-8.9-10A17.25,17.25,0,0,0,22,45.84Z"
            />
            <path class="cls-3" d="M185.9,46s3.67,8.08,9.1,10.12A23.63,23.63,0,0,0,185.9,66s-1.63-5.81-8.9-10A17.17,17.17,0,0,0,185.9,46Z"
            />
            <path class="cls-3" d="M21.9,260.09s3.67,8.07,9.1,10.11a23.62,23.62,0,0,0-9.1,9.89s-1.63-5.82-8.9-10A17.18,17.18,0,0,0,21.9,260.09Z"
            />
            <path class="cls-3" d="M185.9,259.85s3.67,8.08,9.1,10.11a23.7,23.7,0,0,0-9.1,9.89s-1.63-5.81-8.9-10A17.21,17.21,0,0,0,185.9,259.85Z"
            />
            <path class="cls-3" d="M147.43,41.58s9.63,19.23,23.9,24.08a59.6,59.6,0,0,0-23.9,23.54s-4.29-13.84-23.37-23.81C124.06,65.39,140.82,59.19,147.43,41.58Z"
            />
            <path class="cls-3" d="M60,41.58s9.63,19.23,23.9,24.08A59.6,59.6,0,0,0,60,89.2S55.67,75.36,36.59,65.39C36.59,65.39,53.35,59.19,60,41.58Z"
            />
            <path class="cls-3" d="M147.43,236.65s9.63,19.22,23.9,24.07a59.6,59.6,0,0,0-23.9,23.54s-4.29-13.84-23.37-23.81C124.06,260.45,140.82,254.26,147.43,236.65Z"
            />
            <path class="cls-3" d="M60,236.65s9.63,19.22,23.9,24.07A59.6,59.6,0,0,0,60,284.26s-4.29-13.84-23.37-23.81C36.59,260.45,53.35,254.26,60,236.65Z"
            />
            <path class="cls-3" d="M28,28.75V11H25.12l-13,18.4L13.41,32H24.82V36.2H22.77v3.23h7.06V36.2H28V32h1.62V28.75Zm-3.21,0h-8.3L24.82,17Z"
            />
            <polygon class="cls-3" points="31.9 33.51 31.9 27.2 29.64 27.2 29.64 28.75 29.64 31.98 29.64 33.51 31.9 33.51"
            />
            <polygon class="cls-3" points="195.9 33.5 195.9 27.19 193.65 27.19 193.65 28.74 193.65 31.98 193.65 33.5 195.9 33.5"
            />
            <path class="cls-3" d="M192,28.74V11h-2.91l-13,18.4L177.41,32h11.41v4.22h-2v3.23h7.06V36.19H192V32h1.61V28.74Zm-3.21,0h-8.29L188.82,17Z"
            />
            <path class="cls-3" d="M180,297.2v17.72h2.91l13-18.4L194.59,294H183.18v-4.21h2v-3.23h-7.06v3.23H180V294h-1.62v3.24Zm3.21,0h8.3l-8.3,11.73Z"
            />
            <polygon class="cls-3" points="176.1 292.43 176.1 298.75 178.35 298.75 178.35 297.2 178.35 293.96 178.35 292.43 176.1 292.43"
            />
            <path class="cls-3" d="M16,297.23V315h2.91l13-18.4L30.59,294H19.18v-4.21h2.05v-3.24H14.17v3.24H16V294H14.35v3.23Zm3.21,0h8.3L19.18,309Z"
            />
            <polygon class="cls-3" points="12.1 292.47 12.1 298.79 14.35 298.79 14.35 297.23 14.35 294 14.35 292.47 12.1 292.47"
            />
        </g>
    </g>
</svg>
