<svg xmlns="http://www.w3.org/2000/svg" viewBox="0 0 208 326">
    <defs>
        <style>
            .cls-1 {
                fill: #fff;
            }

            .cls-2 {
                fill: #6f7072;
            }

            .cls-3 {
                fill: #f5a11a;
            }
        </style>
    </defs>
    <title>4D-us-4c</title>
    <g id="Calque_2" data-name="Calque 2">
        <g id="FR_-_EN" data-name="FR - EN">
            <path class="cls-1" d="M14.83,325A13.84,13.84,0,0,1,1,311.18V14.82A13.84,13.84,0,0,1,14.83,1H193.17A13.84,13.84,0,0,1,207,14.82V311.18A13.84,13.84,0,0,1,193.17,325Z"
            />
            <path class="cls-2" d="M193.17,2A12.84,12.84,0,0,1,206,14.82V311.18A12.84,12.84,0,0,1,193.17,324H14.83A12.84,12.84,0,0,1,2,311.18V14.82A12.84,12.84,0,0,1,14.83,2H193.17m0-2H14.83A14.83,14.83,0,0,0,0,14.82V311.18A14.82,14.82,0,0,0,14.83,326H193.17A14.82,14.82,0,0,0,208,311.18V14.82A14.82,14.82,0,0,0,193.17,0Z"
            />
            <path class="cls-3" d="M177.89,263.9a64.48,64.48,0,0,1,8.75,12.75,63.81,63.81,0,0,1,8.76-12.75,63.46,63.46,0,0,1-8.76-12.74,65.58,65.58,0,0,1-8,12"
            />
            <path class="cls-3" d="M12.45,263.9a64.52,64.52,0,0,1,8.76,12.75A63.36,63.36,0,0,1,30,263.9a63,63,0,0,1-8.75-12.74,66.14,66.14,0,0,1-8.06,12"
            />
            <path class="cls-3" d="M177.89,62.21A64.12,64.12,0,0,1,186.64,75a63.46,63.46,0,0,1,8.76-12.74,63.75,63.75,0,0,1-8.76-12.74,65.5,65.5,0,0,1-8,12"
            />
            <path class="cls-3" d="M12.45,62.21A64.16,64.16,0,0,1,21.21,75,63,63,0,0,1,30,62.21a63.29,63.29,0,0,1-8.75-12.74,66.07,66.07,0,0,1-8.06,12"
            />
            <path class="cls-3" d="M10.79,31.69v3.4l13.27.06v4.24h-3.2v3.92h9.73V39.39H27.35V35.15h4.28v-3.4H27.35V9.05H25l-1.65,2.68m.71,5.15V31.75H14.69Z"
            />
            <path class="cls-3" d="M176.69,31.69v3.4l13.27.06v4.24h-3.2v3.92h9.74V39.39h-3.25V35.15h4.28v-3.4h-4.28V9.05H190.9l-1.64,2.68m.7,5.15V31.75H180.6Z"
            />
            <path class="cls-3" d="M197.53,292.71v-3.4l-13.28-.05V285h3.2V281.1h-9.73V285H181v4.25h-4.27v3.4H181v22.7h2.35l1.65-2.68m-.71-5.15V292.66h9.37Z"
            />
            <path class="cls-3" d="M31.62,292.71v-3.4l-13.27-.05V285h3.2V281.1H11.81V285h3.25v4.25H10.78v3.4h4.28v22.7h2.35l1.64-2.68m-.7-5.15V292.66h9.37Z"
            />
            <path class="cls-3" d="M122.66,50.87a128,128,0,0,1,17.52,25.49,126.54,126.54,0,0,1,17.51-25.49,126.82,126.82,0,0,1-17.51-25.49A131.72,131.72,0,0,1,124.07,49.3"
            />
            <path class="cls-3" d="M49.86,50.87A128,128,0,0,1,67.38,76.36,126.54,126.54,0,0,1,84.89,50.87,126.82,126.82,0,0,1,67.38,25.38,131.72,131.72,0,0,1,51.27,49.3"
            />
            <path class="cls-3" d="M49.86,275.24a128.27,128.27,0,0,1,17.52,25.49,126.82,126.82,0,0,1,17.51-25.49,126.54,126.54,0,0,1-17.51-25.49,131.38,131.38,0,0,1-16.11,23.92"
            />
            <path class="cls-3" d="M123,275.24a127.85,127.85,0,0,1,17.52,25.49A126.86,126.86,0,0,1,158,275.24a126.58,126.58,0,0,1-17.52-25.49,130.36,130.36,0,0,1-16.11,23.92"
            />
        </g>
    </g>
</svg>
