<svg xmlns="http://www.w3.org/2000/svg" viewBox="0 0 208 326">
    <defs>
        <style>
            .cls-1 {
                fill: #fff;
            }

            .cls-2 {
                fill: #6f7072;
            }

            .cls-3 {
                fill: #f72014;
            }
        </style>
    </defs>
    <title>4H-fr-2c</title>
    <g id="Calque_2" data-name="Calque 2">
        <g id="FR_-_EN" data-name="FR - EN">
            <path class="cls-1" d="M14.83,325A13.84,13.84,0,0,1,1,311.18V14.82A13.84,13.84,0,0,1,14.83,1H193.17A13.84,13.84,0,0,1,207,14.82V311.18A13.84,13.84,0,0,1,193.17,325Z"
            />
            <path class="cls-2" d="M193.17,2A12.84,12.84,0,0,1,206,14.82V311.18A12.84,12.84,0,0,1,193.17,324H14.83A12.84,12.84,0,0,1,2,311.18V14.82A12.84,12.84,0,0,1,14.83,2H193.17m0-2H14.83A14.83,14.83,0,0,0,0,14.82V311.18A14.82,14.82,0,0,0,14.83,326H193.17A14.83,14.83,0,0,0,208,311.18V14.82A14.83,14.83,0,0,0,193.17,0Z"
            />
            <path class="cls-3" d="M60.29,90.1s.29-3.09,7.63-10.48,15-14.43,16.67-22.71C85.69,51.34,83.17,41,71,41c-9.6,0-10.74,12.49-10.74,12.49S59.16,41,49.56,41C37.42,41,34.9,51.34,36,56.91c1.65,8.28,9.33,15.33,16.67,22.71S60.29,90.1,60.29,90.1Z"
            />
            <path class="cls-3" d="M147.77,90.1s.29-3.09,7.62-10.48,15-14.43,16.68-22.71C173.16,51.34,170.65,41,158.51,41c-9.61,0-10.74,12.49-10.74,12.49S146.64,41,137,41c-12.14,0-14.66,10.34-13.55,15.91,1.64,8.28,9.32,15.33,16.66,22.71S147.77,90.1,147.77,90.1Z"
            />
            <path class="cls-3" d="M147.77,235.83s-.29,3.09-7.62,10.47-15,14.43-16.68,22.72c-1.09,5.57,1.42,15.9,13.57,15.9,9.6,0,10.73-12.49,10.73-12.49s1.13,12.49,10.74,12.49c12.14,0,14.66-10.33,13.56-15.9-1.65-8.28-9.33-15.33-16.67-22.72S147.77,235.83,147.77,235.83Z"
            />
            <path class="cls-3" d="M60.3,235.83s-.29,3.09-7.63,10.47S37.65,260.73,36,269c-1.09,5.57,1.42,15.9,13.56,15.9,9.61,0,10.74-12.49,10.74-12.49S61.43,284.92,71,284.92c12.15,0,14.66-10.33,13.56-15.9-1.64-8.28-9.33-15.33-16.67-22.72S60.3,235.83,60.3,235.83Z"
            />
            <path class="cls-3" d="M28,28.73V11H25.12l-13,18.4L13.4,32H24.82v4.21H22.77v3.23h7.05V36.18H28V32h1.61V28.73Zm-3.21,0h-8.3L24.82,17Z"
            />
            <polygon class="cls-3" points="31.89 33.49 31.89 27.18 29.64 27.18 29.64 28.73 29.64 31.97 29.64 33.49 31.89 33.49"
            />
            <polygon class="cls-3" points="195.89 33.48 195.89 27.17 193.64 27.17 193.64 28.72 193.64 31.96 193.64 33.48 195.89 33.48"
            />
            <path class="cls-3" d="M192,28.72V11h-2.91l-13,18.4L177.4,32h11.42v4.21h-2V39.4h7V36.17H192V32h1.62V28.72Zm-3.21,0h-8.3L188.82,17Z"
            />
            <path class="cls-3" d="M180,297.18V314.9h2.91l13-18.4L194.58,294H183.17v-4.22h2.05V286.5h-7.06v3.23H180V294h-1.61v3.23Zm3.21,0h8.3l-8.3,11.73Z"
            />
            <polygon class="cls-3" points="176.1 292.42 176.1 298.73 178.35 298.73 178.35 297.18 178.35 293.95 178.35 292.42 176.1 292.42"
            />
            <path class="cls-3" d="M16,297.21v17.73h2.92l13-18.4L30.59,294H19.17v-4.21h2v-3.23h-7v3.23H16V294H14.35v3.23Zm3.21,0h8.3L19.17,309Z"
            />
            <polygon class="cls-3" points="12.1 292.45 12.1 298.77 14.35 298.77 14.35 297.21 14.35 293.98 14.35 292.45 12.1 292.45"
            />
            <path class="cls-3" d="M22,64a8.43,8.43,0,0,1,2.49-5.12c2.39-2.46,4.9-4.81,5.43-7.58A4.32,4.32,0,0,0,25.5,46c-3.13,0-3.5,4.17-3.5,4.17S21.63,46,18.5,46a4.32,4.32,0,0,0-4.42,5.3c.53,2.77,3,5.12,5.43,7.58A8.45,8.45,0,0,1,22,64Z"
            />
            <path class="cls-3" d="M186,64a8.45,8.45,0,0,1,2.48-5.12c2.4-2.46,4.91-4.81,5.44-7.58A4.32,4.32,0,0,0,189.5,46c-3.13,0-3.5,4.17-3.5,4.17S185.63,46,182.5,46a4.32,4.32,0,0,0-4.42,5.3c.53,2.77,3,5.12,5.43,7.58A8.45,8.45,0,0,1,186,64Z"
            />
            <path class="cls-3" d="M186,262a8.43,8.43,0,0,1-2.49,5.12c-2.39,2.46-4.9,4.81-5.43,7.58a4.32,4.32,0,0,0,4.42,5.3c3.13,0,3.5-4.17,3.5-4.17s.37,4.17,3.5,4.17a4.32,4.32,0,0,0,4.42-5.3c-.53-2.77-3-5.12-5.43-7.58A8.45,8.45,0,0,1,186,262Z"
            />
            <path class="cls-3" d="M22,262a8.43,8.43,0,0,1-2.49,5.12c-2.39,2.46-4.9,4.81-5.43,7.58A4.32,4.32,0,0,0,18.5,280c3.13,0,3.5-4.17,3.5-4.17s.37,4.17,3.5,4.17a4.32,4.32,0,0,0,4.42-5.3c-.53-2.77-3-5.12-5.43-7.58A8.45,8.45,0,0,1,22,262Z"
            />
        </g>
    </g>
</svg>
