<svg xmlns="http://www.w3.org/2000/svg" viewBox="0 0 208 326">
    <defs>
        <style>
            .cls-1 {
                fill: #fff;
            }

            .cls-2 {
                fill: #6f7072;
            }

            .cls-3 {
                fill: #f8261b;
            }
        </style>
    </defs>
    <title>4H-us-2c</title>
    <g id="Calque_2" data-name="Calque 2">
        <g id="FR_-_EN" data-name="FR - EN">
            <path class="cls-1" d="M14.83,325A13.84,13.84,0,0,1,1,311.18V14.82A13.84,13.84,0,0,1,14.83,1H193.17A13.84,13.84,0,0,1,207,14.82V311.18A13.84,13.84,0,0,1,193.17,325Z"
            />
            <path class="cls-2" d="M193.17,2A12.84,12.84,0,0,1,206,14.82V311.18A12.84,12.84,0,0,1,193.17,324H14.83A12.84,12.84,0,0,1,2,311.18V14.82A12.84,12.84,0,0,1,14.83,2H193.17m0-2H14.83A14.83,14.83,0,0,0,0,14.82V311.18A14.82,14.82,0,0,0,14.83,326H193.17A14.83,14.83,0,0,0,208,311.18V14.82A14.83,14.83,0,0,0,193.17,0Z"
            />
            <path class="cls-3" d="M21.42,69.57C24.76,66.77,31.86,56,30.16,51a4.59,4.59,0,0,0-8.74-.47c-1.59-3.57-6.21-4.1-8.25-.65C10,54.79,17.72,65.92,20.8,69"
            />
            <path class="cls-3" d="M186.86,69.57C190.2,66.77,197.3,56,195.6,51a4.59,4.59,0,0,0-8.74-.47c-1.59-3.57-6.21-4.1-8.25-.65-3.17,4.89,4.54,16,7.62,19.14"
            />
            <path class="cls-3" d="M21.43,254.64c-3.35,2.8-10.45,13.61-8.75,18.56,1.46,4.41,6.85,4.61,8.75.46,1.58,3.58,6.21,4.11,8.24.66,3.18-4.9-4.54-16-7.62-19.14"
            />
            <path class="cls-3" d="M186.87,254.64c-3.35,2.8-10.45,13.61-8.75,18.56,1.46,4.41,6.85,4.61,8.75.46,1.58,3.58,6.2,4.11,8.24.66,3.17-4.9-4.54-16-7.62-19.14"
            />
            <path class="cls-3" d="M10.73,31.64V35L24,35.09v4.25h-3.2v3.91h9.73V39.34H27.3V35.09h4.27v-3.4H27.3V9H25L23.3,11.67M24,16.82V31.69H14.64Z"
            />
            <path class="cls-3" d="M176.64,31.64V35l13.27.05v4.25h-3.2v3.91h9.73V39.34H193.2V35.09h4.28v-3.4H193.2V9h-2.35l-1.64,2.68m.7,5.15V31.69h-9.37Z"
            />
            <path class="cls-3" d="M197.48,292.65v-3.39l-13.28-.06V285h3.2V281h-9.73V285h3.24v4.25h-4.27v3.4h4.27v22.7h2.35l1.65-2.68m-.71-5.15V292.6h9.37Z"
            />
            <path class="cls-3" d="M31.57,292.65v-3.39L18.3,289.2V285h3.2V281H11.76V285H15v4.25H10.73v3.4H15v22.7h2.35L19,312.62m-.7-5.15V292.6h9.36Z"
            />
            <path class="cls-3" d="M67.33,67.74c2.72-2.13,4-4.48,6-7.29a58.87,58.87,0,0,0,6.91-12.69,17.17,17.17,0,0,0,1.29-10.61c-2.38-7.27-11.15-7.6-14.23-.77-2.58-5.89-10.1-6.77-13.41-1.08-1.92,3-1.23,8,0,11.17a59.41,59.41,0,0,0,5.54,11.22c1.95,2.64,4.42,7,6.9,9.17"
            />
            <path class="cls-3" d="M140.13,67.74c2.72-2.13,4-4.48,6-7.29a59.34,59.34,0,0,0,6.92-12.69,17.24,17.24,0,0,0,1.28-10.61c-2.38-7.27-11.15-7.6-14.23-.77-2.58-5.89-10.1-6.77-13.41-1.08-1.92,3-1.23,8,0,11.17a59.41,59.41,0,0,0,5.54,11.22c1.95,2.64,4.42,7,6.9,9.17"
            />
            <path class="cls-3" d="M140.12,257.05c-2.72,2.13-4,4.49-6,7.29A59.34,59.34,0,0,0,127.17,277a17.26,17.26,0,0,0-1.28,10.62c2.37,7.26,11.14,7.6,14.23.76,2.58,5.89,10.1,6.77,13.41,1.08,1.92-2.95,1.23-8,0-11.16A59.2,59.2,0,0,0,148,267.1c-1.95-2.64-4.42-7-6.9-9.17"
            />
            <path class="cls-3" d="M67.32,257.05c-2.72,2.13-4,4.49-6,7.29A58.9,58.9,0,0,0,54.37,277a17.26,17.26,0,0,0-1.28,10.62c2.37,7.26,11.14,7.6,14.23.76,2.58,5.89,10.1,6.77,13.41,1.08,1.91-2.95,1.23-8,0-11.16a59.2,59.2,0,0,0-5.54-11.23c-2-2.64-4.42-7-6.9-9.17"
            />
        </g>
    </g>
</svg>
