<svg xmlns="http://www.w3.org/2000/svg" viewBox="0 0 208 326">
    <defs>
        <style>
            .cls-1 {
                fill: #fff;
            }

            .cls-2 {
                fill: #6f7072;
            }
        </style>
    </defs>
    <title>4S-fr-2c</title>
    <g id="Calque_2" data-name="Calque 2">
        <g id="FR_-_EN" data-name="FR - EN">
            <path class="cls-1" d="M14.83,325A13.84,13.84,0,0,1,1,311.18V14.82A13.84,13.84,0,0,1,14.83,1H193.17A13.84,13.84,0,0,1,207,14.82V311.18A13.84,13.84,0,0,1,193.17,325Z"
            />
            <path class="cls-2" d="M193.17,2A12.84,12.84,0,0,1,206,14.82V311.18A12.84,12.84,0,0,1,193.17,324H14.83A12.84,12.84,0,0,1,2,311.18V14.82A12.84,12.84,0,0,1,14.83,2H193.17m0-2H14.83A14.83,14.83,0,0,0,0,14.82V311.18A14.82,14.82,0,0,0,14.83,326H193.17A14.83,14.83,0,0,0,208,311.18V14.82A14.83,14.83,0,0,0,193.17,0Z"
            />
            <path d="M78.13,61.57c-2.12-4.09-9.27-10-13.52-13.41s-4.18-6.27-4.91-6.27-.48,2.83-4.74,6.27S44.87,56.33,42.75,60.42,40.41,71.15,47.43,74.6c4.51,2.21,8.31-.64,10.7-3.4.38,7.52-9.62,17.46-9.62,17.46a36.86,36.86,0,0,1,20.08-.24s-8.88-11.8-7.65-17.94c2.47,3.16,6.77,7.19,11.29,5C79.25,72,80.26,65.66,78.13,61.57Z"
            />
            <path d="M165.61,61.57c-2.13-4.09-9.28-10-13.53-13.41s-4.17-6.27-4.91-6.27-.48,2.83-4.73,6.27-10.1,8.17-12.22,12.26-2.34,10.73,4.68,14.18c4.51,2.21,8.31-.64,10.7-3.4C146,78.72,136,88.66,136,88.66a36.82,36.82,0,0,1,20.07-.24s-8.88-11.8-7.65-17.94c2.48,3.16,6.77,7.19,11.3,5C166.72,72,167.74,65.66,165.61,61.57Z"
            />
            <path d="M129.9,263.45c2.13,4.09,9.28,10,13.53,13.41s4.17,6.27,4.91,6.27.48-2.82,4.73-6.27,10.1-8.17,12.22-12.25,2.34-10.74-4.68-14.18c-4.51-2.22-8.31.63-10.7,3.4-.38-7.53,9.61-17.46,9.61-17.46a36.76,36.76,0,0,1-20.07.23s8.88,11.8,7.65,17.94c-2.48-3.15-6.77-7.19-11.3-5C128.79,253,127.77,259.36,129.9,263.45Z"
            />
            <path d="M42.43,263.45c2.13,4.09,9.27,10,13.52,13.41s4.18,6.27,4.92,6.27.47-2.82,4.73-6.27,10.09-8.17,12.22-12.25,2.34-10.74-4.69-14.18c-4.51-2.22-8.31.63-10.7,3.4-.38-7.53,9.62-17.46,9.62-17.46A36.8,36.8,0,0,1,52,236.6s8.89,11.8,7.66,17.94c-2.48-3.15-6.77-7.19-11.3-5C41.31,253,40.3,259.36,42.43,263.45Z"
            />
            <path d="M78.15,61.57c-2.12-4.09-9.27-10-13.52-13.41s-4.18-6.27-4.91-6.27-.48,2.83-4.74,6.27S44.89,56.33,42.76,60.42,40.43,71.15,47.45,74.6c4.51,2.21,8.31-.64,10.7-3.4.37,7.52-9.62,17.46-9.62,17.46a36.86,36.86,0,0,1,20.08-.24S59.72,76.62,61,70.48c2.48,3.16,6.77,7.19,11.3,5C79.27,72,80.28,65.66,78.15,61.57Z"
            />
            <path d="M165.62,61.57c-2.12-4.09-9.27-10-13.52-13.41s-4.18-6.27-4.91-6.27-.48,2.83-4.74,6.27-10.09,8.17-12.21,12.26-2.34,10.73,4.68,14.18c4.51,2.21,8.31-.64,10.7-3.4C146,78.72,136,88.66,136,88.66a36.82,36.82,0,0,1,20.07-.24s-8.88-11.8-7.65-17.94c2.47,3.16,6.77,7.19,11.29,5C166.74,72,167.76,65.66,165.62,61.57Z"
            />
            <path d="M129.92,263.45c2.13,4.09,9.28,10,13.53,13.41s4.18,6.27,4.91,6.27.48-2.82,4.74-6.27,10.09-8.17,12.21-12.25,2.34-10.74-4.68-14.18c-4.51-2.22-8.31.63-10.7,3.4-.38-7.53,9.62-17.46,9.62-17.46a36.8,36.8,0,0,1-20.08.23s8.88,11.8,7.65,17.94c-2.47-3.15-6.76-7.19-11.29-5C128.81,253,127.8,259.36,129.92,263.45Z"
            />
            <path d="M42.45,263.45c2.13,4.09,9.27,10,13.53,13.41s4.17,6.27,4.91,6.27.47-2.82,4.73-6.27,10.09-8.17,12.22-12.25,2.34-10.74-4.68-14.18c-4.52-2.22-8.32.63-10.7,3.4-.38-7.53,9.61-17.46,9.61-17.46A36.76,36.76,0,0,1,52,236.6s8.88,11.8,7.65,17.94c-2.48-3.15-6.77-7.19-11.3-5C41.33,253,40.32,259.36,42.45,263.45Z"
            />
            <path d="M29.58,54.25c-.9-1.75-3.93-4.27-5.74-5.74s-1.77-2.68-2.09-2.68-.2,1.21-2,2.68-4.28,3.5-5.18,5.24a4.27,4.27,0,0,0,2,6.07c1.92,1,3.53-.27,4.54-1.45.17,3.21-4.07,7.46-4.07,7.46a15.47,15.47,0,0,1,8.52-.1s-3.77-5.05-3.25-7.67c1,1.35,2.87,3.07,4.79,2.12C30.05,58.71,30.48,56,29.58,54.25Z"
            />
            <path d="M193.58,54.25c-.9-1.75-3.93-4.27-5.74-5.74s-1.77-2.68-2.09-2.68-.2,1.21-2,2.68-4.28,3.5-5.19,5.24a4.28,4.28,0,0,0,2,6.07c1.91,1,3.53-.27,4.54-1.45.17,3.21-4.07,7.46-4.07,7.46a15.48,15.48,0,0,1,8.52-.1s-3.77-5.05-3.25-7.67c1.05,1.35,2.87,3.07,4.79,2.12C194.05,58.71,194.48,56,193.58,54.25Z"
            />
            <path d="M178.42,271.29c.9,1.75,3.93,4.27,5.74,5.74s1.77,2.68,2.09,2.68.2-1.21,2-2.68,4.28-3.5,5.18-5.24a4.27,4.27,0,0,0-2-6.07c-1.92-.94-3.53.28-4.55,1.46-.16-3.22,4.08-7.47,4.08-7.47a15.47,15.47,0,0,1-8.52.1s3.77,5.05,3.25,7.67c-1.05-1.34-2.87-3.07-4.79-2.12C178,266.83,177.52,269.55,178.42,271.29Z"
            />
            <path d="M14.42,271.29c.9,1.75,3.93,4.27,5.74,5.74s1.77,2.68,2.09,2.68.2-1.21,2-2.68,4.28-3.5,5.18-5.24a4.27,4.27,0,0,0-2-6.07c-1.92-.94-3.53.28-4.54,1.46C22.75,264,27,259.71,27,259.71a15.47,15.47,0,0,1-8.52.1s3.77,5.05,3.25,7.67c-1-1.34-2.87-3.07-4.79-2.12C14,266.83,13.52,269.55,14.42,271.29Z"
            />
            <path d="M28,28.71V11H25.12l-13,18.4,1.31,2.55H24.82v4.22H22.77v3.23h7.06V36.16H28V31.94h1.62V28.71Zm-3.21,0h-8.3L24.82,17Z"
            />
            <polygon points="31.9 33.47 31.9 27.16 29.64 27.16 29.64 28.71 29.64 31.94 29.64 33.47 31.9 33.47" />
            <polygon points="195.9 33.46 195.9 27.14 193.65 27.14 193.65 28.7 193.65 31.93 193.65 33.46 195.9 33.46" />
            <path d="M192,28.7V11h-2.91l-13,18.4,1.31,2.55h11.41v4.22h-2v3.23h7.06V36.15H192V31.93h1.61V28.7Zm-3.21,0h-8.29L188.82,17Z"
            />
            <path d="M180,297.15v17.72h2.91l13-18.4-1.31-2.55H183.18V289.7h2v-3.23h-7.06v3.23H180v4.22h-1.62v3.23Zm3.21,0h8.3l-8.3,11.73Z"
            />
            <polygon points="176.1 292.39 176.1 298.71 178.35 298.71 178.35 297.15 178.35 293.92 178.35 292.39 176.1 292.39"
            />
            <path d="M16,297.19v17.72h2.91l13-18.4L30.59,294H19.18v-4.22h2.05v-3.23H14.17v3.23H16V294H14.35v3.23Zm3.21,0h8.3l-8.3,11.73Z"
            />
            <polygon points="12.1 292.43 12.1 298.74 14.35 298.74 14.35 297.19 14.35 293.96 14.35 292.43 12.1 292.43" />
        </g>
    </g>
</svg>
