<svg xmlns="http://www.w3.org/2000/svg" viewBox="0 0 208 326">
    <defs>
        <style>
            .cls-1 {
                fill: #fff;
            }

            .cls-2 {
                fill: #6f7072;
            }

            .cls-3 {
                fill: #1d1d1b;
            }

            .cls-4 {
                fill: #1c1c1c;
            }
        </style>
    </defs>
    <title>4S-us-2c</title>
    <g id="Calque_2" data-name="Calque 2">
        <g id="FR_-_EN" data-name="FR - EN">
            <path class="cls-1" d="M14.83,325A13.84,13.84,0,0,1,1,311.18V14.82A13.84,13.84,0,0,1,14.83,1H193.17A13.84,13.84,0,0,1,207,14.82V311.18A13.84,13.84,0,0,1,193.17,325Z"
            />
            <path class="cls-2" d="M193.17,2A12.84,12.84,0,0,1,206,14.82V311.18A12.84,12.84,0,0,1,193.17,324H14.83A12.84,12.84,0,0,1,2,311.18V14.82A12.84,12.84,0,0,1,14.83,2H193.17m0-2H14.83A14.83,14.83,0,0,0,0,14.82V311.18A14.83,14.83,0,0,0,14.83,326H193.17A14.83,14.83,0,0,0,208,311.18V14.82A14.83,14.83,0,0,0,193.17,0Z"
            />
            <path class="cls-3" d="M21.12,74.47l1.27,0,1.22.07,1.25.12.4.07a23.69,23.69,0,0,1-3-6.28l-.07-.33,0-.48,0-.15,0,0,.09,0,.07.1A3.77,3.77,0,0,0,26.22,70c10.82-2.11-1.36-17.15-5.1-20.43-3.35,3.39-12.63,13.58-8.3,19a4.56,4.56,0,0,0,4.82,1.21l.73-.33.33-.24L19,69l.23-.26.19-.27.31-.52.19-.38.06-.1.1,0,0,0,0,.15,0,.48L20,68.4a23.21,23.21,0,0,1-3,6.28l.4-.07,1.24-.12,1.22-.07"
            />
            <path class="cls-3" d="M186.56,74.47l1.27,0,1.22.07,1.25.12.4.07a23.69,23.69,0,0,1-3-6.28l-.07-.33,0-.48,0-.15,0,0,.09,0,.07.1A3.77,3.77,0,0,0,191.66,70c10.82-2.11-1.36-17.15-5.1-20.43-3.35,3.39-12.63,13.58-8.3,19a4.56,4.56,0,0,0,4.82,1.21l.73-.33.32-.24.29-.24.23-.26.19-.27.31-.52.19-.38.06-.1.1,0,0,0,0,.15,0,.48-.07.33a23.51,23.51,0,0,1-3,6.28l.4-.07,1.24-.12,1.22-.07"
            />
            <path class="cls-3" d="M186.61,251.5l-1.27.05-1.22-.07-1.25-.12-.4-.07a23.27,23.27,0,0,1,3,6.29l.07.33,0,.48,0,.14,0,0-.09,0-.07-.1A3.77,3.77,0,0,0,181.5,256c-10.82,2.11,1.37,17.15,5.11,20.43,3.34-3.39,12.63-13.57,8.3-19a4.57,4.57,0,0,0-4.82-1.21l-.73.33-.33.24-.28.24-.24.26-.19.27-.3.52-.19.38-.07.1-.1,0v0l0-.14,0-.48.07-.33a23.13,23.13,0,0,1,3-6.29l-.4.07-1.25.12-1.22.07"
            />
            <path class="cls-3" d="M21.17,251.5l-1.27.05-1.22-.07-1.25-.12-.4-.07a23.27,23.27,0,0,1,3,6.29l.08.33,0,.48,0,.14,0,0-.09,0-.07-.1A3.77,3.77,0,0,0,16.06,256c-10.82,2.11,1.37,17.15,5.11,20.43,3.34-3.39,12.63-13.57,8.3-19a4.57,4.57,0,0,0-4.82-1.21l-.73.33-.33.24-.28.24-.24.26-.18.27-.31.52-.19.38-.07.1-.09,0,0,0,0-.14,0-.48.07-.33a23.13,23.13,0,0,1,3-6.29l-.4.07-1.25.12-1.22.07"
            />
            <path class="cls-4" d="M10.72,31.62V35l13.28,0v4.25H20.8v3.92h9.73V39.32H27.29V35.07h4.28V31.68H27.29V9H24.94l-1.65,2.69M24,16.81V31.68H14.63Z"
            />
            <path class="cls-4" d="M176.63,31.62V35l13.27,0v4.25h-3.2v3.92h9.74V39.32h-3.25V35.07h4.28V31.68h-4.28V9h-2.35l-1.64,2.69m.7,5.15V31.68h-9.37Z"
            />
            <path class="cls-4" d="M197.47,292.64v-3.4l-13.28-.05v-4.25h3.2V281h-9.73v3.92h3.24v4.25h-4.27v3.4h4.27v22.7h2.35l1.65-2.68m-.71-5.16V292.59h9.37Z"
            />
            <path class="cls-4" d="M31.56,292.64v-3.4l-13.27-.05v-4.25h3.2V281H11.75v3.92H15v4.25H10.72v3.4H15v22.7h2.35L19,312.61m-.7-5.16V292.59h9.36Z"
            />
            <path class="cls-3" d="M67.33,69.38l2-.09,2,.12,2,.19.64.12a38.12,38.12,0,0,1-4.83-10.09L69,59.1l0-.77,0-.23,0,0,.15,0,.11.16c1.21,2.84,3.17,4,6.18,4,5-.41,7.37-4.11,6.78-9.08-.91-8.36-9.38-17.87-14.9-23.7C62,34.91,47.21,51.24,54.11,59.91a7.26,7.26,0,0,0,7.67,2L63,61.33l.52-.39.45-.38.37-.43.3-.42.49-.84.3-.61.11-.16.15,0,0,0,0,.23,0,.77-.11.53a37.52,37.52,0,0,1-4.83,10.09l.64-.12,2-.19,1.95-.12"
            />
            <path class="cls-3" d="M140.13,69.38l2-.09,2,.12,2,.19.64.12a38.12,38.12,0,0,1-4.83-10.09l-.11-.53,0-.77,0-.23,0,0,.15,0,.11.16c1.21,2.84,3.17,4,6.18,4,5-.41,7.37-4.11,6.78-9.08-.91-8.36-9.38-17.87-14.9-23.7C134.8,34.91,120,51.24,126.91,59.91a7.26,7.26,0,0,0,7.67,2l1.17-.53.52-.39.45-.38.37-.43.3-.42.49-.84.3-.61.11-.16.15,0,0,0,.05.23-.05.77-.11.53a37.52,37.52,0,0,1-4.83,10.09l.64-.12,2-.19,1.95-.12"
            />
            <path class="cls-3" d="M140.1,255.39l-2,.08-2-.12-2-.19-.64-.12a38.12,38.12,0,0,1,4.83,10.09l.11.53,0,.77,0,.23,0,0-.15,0-.11-.16c-1.21-2.83-3.17-4-6.18-4-5,.41-7.37,4.12-6.78,9.09.91,8.36,9.38,17.86,14.9,23.69,5.33-5.44,20.12-21.77,13.22-30.45a7.24,7.24,0,0,0-7.67-1.94l-1.17.53-.52.38-.44.38-.38.43-.3.43-.49.84-.3.6-.1.16-.16,0,0,0,0-.23,0-.77.11-.53A37.52,37.52,0,0,1,146.7,255l-.64.12-2,.19-2,.12"
            />
            <path class="cls-3" d="M67.3,255.39l-2,.08-2-.12-2-.19-.64-.12a38.12,38.12,0,0,1,4.83,10.09l.11.53,0,.77,0,.23,0,0-.15,0-.11-.16c-1.21-2.83-3.17-4-6.18-4-5,.41-7.37,4.12-6.78,9.09.91,8.36,9.38,17.86,14.9,23.69,5.33-5.44,20.12-21.77,13.22-30.45a7.24,7.24,0,0,0-7.67-1.94l-1.17.53-.52.38-.45.38-.37.43-.3.43-.49.84-.3.6-.11.16-.15,0,0,0,0-.23,0-.77.11-.53A37.52,37.52,0,0,1,73.9,255l-.64.12-2,.19-2,.12"
            />
        </g>
    </g>
</svg>
