<svg xmlns="http://www.w3.org/2000/svg" viewBox="0 0 208 326">
    <defs>
        <style>
            .cls-1 {
                fill: #fff;
            }

            .cls-2 {
                fill: #6f7072;
            }

            .cls-3 {
                fill: #1e657f;
            }
        </style>
    </defs>
    <title>5C-fr-4C</title>
    <g id="Calque_2" data-name="Calque 2">
        <g id="FR_-_EN" data-name="FR - EN">
            <path class="cls-1" d="M14.83,325A13.84,13.84,0,0,1,1,311.18V14.82A13.84,13.84,0,0,1,14.83,1H193.17A13.84,13.84,0,0,1,207,14.82V311.18A13.84,13.84,0,0,1,193.16,325Z"
            />
            <path class="cls-2" d="M193.17,2A12.84,12.84,0,0,1,206,14.82V309.18h0v2A12.84,12.84,0,0,1,193.16,324H14.83A12.84,12.84,0,0,1,2,311.18V14.82A12.84,12.84,0,0,1,14.83,2H193.17m0-2H14.83A14.83,14.83,0,0,0,0,14.82V311.18A14.83,14.83,0,0,0,14.83,326H193.16A14.83,14.83,0,0,0,208,311.18h0V14.82A14.83,14.83,0,0,0,193.17,0Z"
            />
            <path class="cls-3" d="M62.21,40.92c5.59,0,8,4.11,8,8.43s-3.87,6.92-5.38,9.52a8,8,0,0,0-1.07,5h-3a8,8,0,0,0-1.08-5c-1.5-2.6-5.38-5.19-5.38-9.52S56.62,40.92,62.21,40.92Z"
            />
            <path class="cls-3" d="M85,65.69c0,5.62-4.09,8-8.39,8s-6.89-3.89-9.47-5.4a7.83,7.83,0,0,0-4.95-1.09v-3a7.83,7.83,0,0,0,4.95-1.09c2.58-1.51,5.17-5.4,9.47-5.4S85,60.07,85,65.69Z"
            />
            <path class="cls-3" d="M38,65.69c0-5.62,4.08-8,8.39-8s6.88,3.89,9.46,5.4a7.83,7.83,0,0,0,4.95,1.09v3a7.83,7.83,0,0,0-4.95,1.09c-2.58,1.51-5.16,5.4-9.46,5.4S38,71.32,38,65.69Z"
            />
            <path class="cls-3" d="M63.87,62V74.14c0,5.7,8.06,11.22,8.06,11.22H52.49s8.06-5.52,8.06-11.22V62Z" />
            <path class="cls-3" d="M148,40.92c5.59,0,8,4.11,8,8.43s-3.87,6.92-5.38,9.52a8,8,0,0,0-1.08,5h-3a8,8,0,0,0-1.07-5c-1.51-2.6-5.38-5.19-5.38-9.52S142.39,40.92,148,40.92Z"
            />
            <path class="cls-3" d="M170.79,65.69c0,5.62-4.08,8-8.39,8s-6.88-3.89-9.46-5.4A7.83,7.83,0,0,0,148,67.2v-3a7.83,7.83,0,0,0,4.95-1.09c2.58-1.51,5.16-5.4,9.46-5.4S170.79,60.07,170.79,65.69Z"
            />
            <path class="cls-3" d="M123.76,65.69c0-5.62,4.09-8,8.39-8s6.89,3.89,9.47,5.4a7.83,7.83,0,0,0,4.95,1.09v3a7.83,7.83,0,0,0-4.95,1.09c-2.58,1.51-5.16,5.4-9.47,5.4S123.76,71.32,123.76,65.69Z"
            />
            <path class="cls-3" d="M149.65,62V74.14c0,5.7,8.06,11.22,8.06,11.22H138.27s8.06-5.52,8.06-11.22V62Z" />
            <path class="cls-3" d="M62.21,284.79c5.59,0,8-4.11,8-8.43s-3.87-6.93-5.38-9.52a8,8,0,0,1-1.07-5h-3a8,8,0,0,1-1.08,5c-1.5,2.59-5.38,5.19-5.38,9.52S56.62,284.79,62.21,284.79Z"
            />
            <path class="cls-3" d="M85,260c0-5.63-4.09-8-8.39-8s-6.89,3.9-9.47,5.41a7.86,7.86,0,0,1-4.95,1.08v3a7.86,7.86,0,0,1,4.95,1.08c2.58,1.52,5.17,5.41,9.47,5.41S85,265.64,85,260Z"
            />
            <path class="cls-3" d="M38,260c0,5.62,4.08,8,8.39,8s6.88-3.9,9.46-5.41a7.86,7.86,0,0,1,4.95-1.08v-3a7.86,7.86,0,0,1-4.95-1.08c-2.58-1.51-5.16-5.41-9.46-5.41S38,254.39,38,260Z"
            />
            <path class="cls-3" d="M63.87,263.68V251.56c0-5.7,8.06-11.22,8.06-11.22H52.49s8.06,5.52,8.06,11.22v12.12Z" />
            <path class="cls-3" d="M148,284.79c5.59,0,8-4.11,8-8.43s-3.87-6.93-5.38-9.52a8,8,0,0,1-1.08-5h-3a8,8,0,0,1-1.07,5c-1.51,2.59-5.38,5.19-5.38,9.52S142.39,284.79,148,284.79Z"
            />
            <path class="cls-3" d="M170.79,260c0-5.63-4.08-8-8.39-8s-6.88,3.9-9.46,5.41A7.86,7.86,0,0,1,148,258.5v3a7.86,7.86,0,0,1,4.95,1.08c2.58,1.52,5.16,5.41,9.46,5.41S170.79,265.64,170.79,260Z"
            />
            <path class="cls-3" d="M123.76,260c0,5.62,4.09,8,8.39,8s6.89-3.9,9.47-5.41a7.86,7.86,0,0,1,4.95-1.08v-3a7.86,7.86,0,0,1-4.95-1.08c-2.58-1.51-5.16-5.41-9.47-5.41S123.76,254.39,123.76,260Z"
            />
            <path class="cls-3" d="M149.65,263.68V251.56c0-5.7,8.06-11.22,8.06-11.22H138.27s8.06,5.52,8.06,11.22v12.12Z"
            />
            <path class="cls-3" d="M104.64,138.4c5.59,0,8,4.11,8,8.43s-3.87,6.93-5.38,9.52a8,8,0,0,0-1.07,5h-3a8,8,0,0,0-1.07-5c-1.51-2.59-5.38-5.19-5.38-9.52S99,138.4,104.64,138.4Z"
            />
            <path class="cls-3" d="M127.44,163.17c0,5.63-4.09,8-8.39,8s-6.88-3.9-9.46-5.41a7.86,7.86,0,0,0-5-1.08v-3a7.86,7.86,0,0,0,5-1.08c2.58-1.52,5.16-5.41,9.46-5.41S127.44,157.55,127.44,163.17Z"
            />
            <path class="cls-3" d="M80.42,163.18c0-5.63,4.08-8,8.39-8s6.88,3.89,9.46,5.41a7.86,7.86,0,0,0,5,1.08v3a7.86,7.86,0,0,0-5,1.08c-2.58,1.51-5.16,5.41-9.46,5.41S80.42,168.8,80.42,163.18Z"
            />
            <path class="cls-3" d="M106.3,159.51v12.12c0,5.7,8.06,11.22,8.06,11.22H94.92s8.06-5.52,8.06-11.22V159.51Z" />
            <path class="cls-3" d="M22,18.82a10.3,10.3,0,0,0-4.7,1V14.15h10.4V12.31h2.57v1.84h0V10.92H15.64L14,12.53V23.9l3.18.32c0-.08.57-2.17,4.74-2.17,4.57,0,5.07,5.23,5.07,7.48s-1.78,5.9-5.59,5.9a4.21,4.21,0,0,1-4.56-4H13.66a7.45,7.45,0,0,0,7.78,7.25c6,0,8.8-5.45,8.8-9.13C30.24,24.36,28.06,18.82,22,18.82Z"
            />
            <polygon class="cls-3" points="27.64 12.31 27.64 14.15 27.64 15.81 30.22 15.81 30.22 14.15 30.22 12.31 27.64 12.31"
            />
            <path class="cls-3" d="M186,18.88a10.32,10.32,0,0,0-4.7,1V14.2h10.4V12.37h2.57V14.2h0V11h-14.6L178,12.58V24l3.18.33c0-.09.57-2.17,4.74-2.17,4.57,0,5.07,5.22,5.07,7.47s-1.78,5.9-5.59,5.9a4.21,4.21,0,0,1-4.56-4h-3.22a7.46,7.46,0,0,0,7.78,7.25c6,0,8.8-5.45,8.8-9.13C194.24,24.41,192.06,18.88,186,18.88Z"
            />
            <polygon class="cls-3" points="191.64 12.37 191.64 14.2 191.64 15.86 194.22 15.86 194.22 14.2 194.22 12.37 191.64 12.37"
            />
            <path class="cls-3" d="M186,307a10.3,10.3,0,0,0,4.7-1v5.64H180.26v1.84h-2.58v-1.84h0v3.23h14.6l1.61-1.61V301.87l-3.19-.32c0,.08-.57,2.17-4.73,2.17-4.58,0-5.07-5.23-5.07-7.48s1.77-5.9,5.59-5.9a4.2,4.2,0,0,1,4.55,4h3.22a7.45,7.45,0,0,0-7.77-7.25c-6,0-8.8,5.45-8.8,9.13C177.67,301.41,179.84,307,186,307Z"
            />
            <polygon class="cls-3" points="180.26 313.46 180.26 311.63 180.26 309.96 177.69 309.96 177.69 311.63 177.69 313.46 180.26 313.46"
            />
            <path class="cls-3" d="M22,307a10.29,10.29,0,0,0,4.69-1v5.64H16.26v1.84H13.69v-1.84h0v3.23h14.6l1.61-1.61V301.87l-3.19-.32c0,.08-.57,2.17-4.73,2.17-4.58,0-5.07-5.23-5.07-7.48s1.77-5.9,5.59-5.9a4.2,4.2,0,0,1,4.55,4h3.22a7.45,7.45,0,0,0-7.77-7.25c-6,0-8.8,5.45-8.8,9.13C13.67,301.41,15.84,307,22,307Z"
            />
            <polygon class="cls-3" points="16.26 313.46 16.26 311.63 16.26 309.96 13.69 309.96 13.69 311.63 13.69 313.46 16.26 313.46"
            />
            <path class="cls-3" d="M28,52.91c-1.79,0-2.87,1.67-3.94,2.32a1.34,1.34,0,0,1-.81.2A1.7,1.7,0,0,1,23,53.6c.63-1.12,2.24-2.23,2.24-4.09s-1-3.62-3.31-3.62-3.32,1.76-3.32,3.62,1.61,3,2.24,4.09a1.65,1.65,0,0,1-.2,1.83,1.29,1.29,0,0,1-.79-.2c-1.07-.65-2.15-2.32-3.94-2.32a3.44,3.44,0,1,0,0,6.88c1.79,0,2.86-1.68,3.94-2.33a1.36,1.36,0,0,1,.91-.19c.95,3.37-2.17,8.62-2.17,8.62A10.41,10.41,0,0,1,22,65.43a10.41,10.41,0,0,1,3.32.46s-3.52-5.33-2.25-8.6a1.3,1.3,0,0,1,1,.17c1.08.65,2.16,2.33,3.95,2.33a3.44,3.44,0,1,0,0-6.88Z"
            />
            <path class="cls-3" d="M192,52.94c-1.79,0-2.87,1.67-3.94,2.32a1.34,1.34,0,0,1-.81.2,1.7,1.7,0,0,1-.18-1.83c.63-1.12,2.24-2.23,2.24-4.09s-1-3.62-3.32-3.62-3.31,1.76-3.31,3.62,1.61,3,2.24,4.09a1.67,1.67,0,0,1-.2,1.83,1.29,1.29,0,0,1-.79-.2c-1.07-.65-2.15-2.32-3.94-2.32a3.44,3.44,0,1,0,0,6.88c1.79,0,2.86-1.68,3.94-2.33a1.36,1.36,0,0,1,.91-.19c.95,3.37-2.17,8.62-2.17,8.62a12.21,12.21,0,0,1,6.64,0s-3.52-5.33-2.26-8.6a1.32,1.32,0,0,1,1,.17c1.08.65,2.16,2.33,4,2.33a3.44,3.44,0,1,0,0-6.88Z"
            />
            <path class="cls-3" d="M179.94,272.77c1.8,0,2.87-1.67,3.95-2.32a1.31,1.31,0,0,1,.8-.2,1.68,1.68,0,0,1,.18,1.83c-.63,1.12-2.24,2.23-2.24,4.09s1,3.62,3.32,3.62,3.32-1.76,3.32-3.62-1.62-3-2.24-4.09a1.67,1.67,0,0,1,.19-1.83,1.31,1.31,0,0,1,.8.2c1.07.65,2.15,2.32,3.94,2.32a3.44,3.44,0,1,0,0-6.88c-1.79,0-2.87,1.68-3.94,2.33a1.3,1.3,0,0,1-.91.18c-1-3.36,2.16-8.61,2.16-8.61a10.41,10.41,0,0,1-3.32.46,10.3,10.3,0,0,1-3.31-.46s3.52,5.33,2.25,8.6a1.37,1.37,0,0,1-1-.17c-1.07-.65-2.15-2.33-3.94-2.33a3.44,3.44,0,1,0,0,6.88Z"
            />
            <path class="cls-3" d="M15.94,272.77c1.8,0,2.87-1.67,4-2.32a1.31,1.31,0,0,1,.8-.2,1.68,1.68,0,0,1,.18,1.83c-.63,1.12-2.24,2.23-2.24,4.09s1,3.62,3.32,3.62,3.32-1.76,3.32-3.62-1.62-3-2.24-4.09a1.67,1.67,0,0,1,.19-1.83,1.31,1.31,0,0,1,.8.2c1.07.65,2.15,2.32,3.94,2.32a3.44,3.44,0,1,0,0-6.88c-1.79,0-2.87,1.68-3.94,2.33a1.3,1.3,0,0,1-.91.18c-.95-3.36,2.16-8.61,2.16-8.61a10.41,10.41,0,0,1-3.32.46,10.3,10.3,0,0,1-3.31-.46s3.52,5.33,2.25,8.6a1.37,1.37,0,0,1-1-.17c-1.07-.65-2.15-2.33-3.94-2.33a3.44,3.44,0,1,0,0,6.88Z"
            />
        </g>
    </g>
</svg>
