<svg xmlns="http://www.w3.org/2000/svg" viewBox="0 0 208 326">
    <defs>
        <style>
            .cls-1 {
                fill: #fff;
            }

            .cls-2 {
                fill: #6f7072;
            }

            .cls-3 {
                fill: #1c1c1c;
            }
        </style>
    </defs>
    <title>5C-us-2c</title>
    <g id="Calque_2" data-name="Calque 2">
        <g id="FR_-_EN" data-name="FR - EN">
            <path class="cls-1" d="M14.83,325A13.84,13.84,0,0,1,1,311.18V14.82A13.84,13.84,0,0,1,14.83,1H193.17A13.84,13.84,0,0,1,207,14.82V311.18A13.84,13.84,0,0,1,193.16,325Z"
            />
            <path class="cls-2" d="M193.17,2A12.84,12.84,0,0,1,206,14.82V309.18h0v2A12.84,12.84,0,0,1,193.16,324H14.83A12.84,12.84,0,0,1,2,311.18V14.82A12.84,12.84,0,0,1,14.83,2H193.17m0-2H14.83A14.83,14.83,0,0,0,0,14.82V311.18A14.83,14.83,0,0,0,14.83,326H193.16A14.83,14.83,0,0,0,208,311.18h0V14.82A14.83,14.83,0,0,0,193.17,0Z"
            />
            <path class="cls-3" d="M32.61,65c.38-4.5-3.51-8.2-7.57-4.35l-.83-1.2c4.52-2.93,2.3-8.43-2.71-8.69-5.1.05-7.58,5.69-2.95,8.69l-.82,1.2c-4.63-4.38-8.82,1.05-7.29,5.67A5.25,5.25,0,0,0,15,70.2a3.84,3.84,0,0,0,2.93-1c.81-.61,1-1.77,1.56-2.32.65.34.62.28.59,1a16.31,16.31,0,0,1-2.58,5.58,26.35,26.35,0,0,1,7.83,0,16.45,16.45,0,0,1-2.56-5.58c-.05-.71,0-.67.58-1,.55.54.77,1.75,1.56,2.32a3.84,3.84,0,0,0,2.93,1c2.38-.08,4.25-2.26,4.69-4.53"
            />
            <path class="cls-3" d="M198,65c.39-4.5-3.51-8.2-7.56-4.35l-.83-1.2c4.52-2.93,2.29-8.43-2.71-8.69-5.1.05-7.58,5.69-2.95,8.69l-.83,1.2c-4.62-4.38-8.81,1.05-7.28,5.67a5.24,5.24,0,0,0,4.52,3.91,3.84,3.84,0,0,0,2.93-1c.81-.61,1-1.77,1.56-2.32.65.34.62.28.59,1a16.5,16.5,0,0,1-2.58,5.58,26.35,26.35,0,0,1,7.83,0,16.47,16.47,0,0,1-2.57-5.58c0-.71,0-.67.59-1,.55.54.77,1.75,1.56,2.32a3.82,3.82,0,0,0,2.92,1c2.39-.08,4.26-2.26,4.69-4.53"
            />
            <path class="cls-3" d="M175.59,260.86c-.39,4.5,3.51,8.21,7.56,4.36l.83,1.19c-4.52,2.93-2.29,8.43,2.71,8.69,5.1,0,7.58-5.69,2.95-8.69l.82-1.19c4.63,4.37,8.82-1.05,7.29-5.68a5.24,5.24,0,0,0-4.52-3.9,3.84,3.84,0,0,0-2.93,1c-.81.61-1,1.77-1.56,2.32-.65-.34-.62-.27-.59-1a16.41,16.41,0,0,1,2.58-5.58,27,27,0,0,1-7.83,0,16.49,16.49,0,0,1,2.57,5.58c0,.7,0,.66-.6,1-.54-.53-.76-1.75-1.55-2.32a3.8,3.8,0,0,0-2.93-1c-2.38.08-4.25,2.26-4.69,4.52"
            />
            <path class="cls-3" d="M10.15,260.86c-.39,4.5,3.51,8.21,7.56,4.36l.83,1.19c-4.51,2.93-2.29,8.43,2.71,8.69,5.1,0,7.58-5.69,2.95-8.69l.82-1.19c4.63,4.37,8.82-1.05,7.29-5.68a5.23,5.23,0,0,0-4.52-3.9,3.85,3.85,0,0,0-2.93,1c-.81.61-1,1.77-1.56,2.32-.65-.34-.62-.27-.59-1a16.41,16.41,0,0,1,2.58-5.58,27,27,0,0,1-7.83,0A16.3,16.3,0,0,1,20,258c0,.7,0,.66-.59,1-.55-.53-.77-1.75-1.56-2.32a3.78,3.78,0,0,0-2.92-1c-2.38.08-4.26,2.26-4.69,4.52"
            />
            <path class="cls-3" d="M15.35,23.19c5.4-6.65,13.27-1.11,13.32,6.45C28.94,39.85,18,44.41,13.71,34l-3.2,1.44c4,9.74,15.34,10.73,20.18,1.19,5.36-10.17-4-24.5-15.1-18.07l-.06-.05.85-6.12H29V8.8H13.38L11.45,22.65l3.11,2.83.09-.71.14-.54.15-.33"
            />
            <path class="cls-3" d="M180.79,23.19c5.39-6.65,13.27-1.11,13.31,6.45.27,10.21-10.65,14.77-15,4.35l-3.2,1.44c4,9.74,15.35,10.73,20.19,1.19,5.36-10.17-4-24.5-15.11-18.07L181,18.5l.85-6.12h12.61V8.8H178.82l-1.94,13.85L180,25.48l.09-.71.15-.54.14-.33"
            />
            <path class="cls-3" d="M192.84,301.05c-5.39,6.65-13.27,1.1-13.32-6.45-.27-10.21,10.66-14.78,15-4.36l3.21-1.44c-4-9.74-15.35-10.73-20.19-1.19-5.36,10.17,4,24.51,15.1,18.07l.05.05-.85,6.12H179.2v3.59h15.61l1.93-13.86-3.11-2.83-.09.72-.14.53-.14.33"
            />
            <path class="cls-3" d="M27.4,301.05c-5.39,6.65-13.27,1.1-13.31-6.45-.27-10.21,10.65-14.78,15-4.36l3.2-1.44c-4-9.74-15.35-10.73-20.19-1.19-5.36,10.17,4,24.51,15.11,18.07l0,.05-.85,6.12H13.76v3.59H29.37l1.94-13.86-3.11-2.83-.09.72L28,300l-.14.33"
            />
            <path class="cls-3" d="M126.41,169.26c.77-9-7-16.41-15.14-8.71l-1.65-2.4c9-5.84,4.58-16.86-5.42-17.38-10.2.1-15.16,11.38-5.9,17.38l-1.65,2.4c-9.25-8.75-17.63,2.1-14.57,11.34,1.16,4,4.75,7.67,9,7.81A7.68,7.68,0,0,0,97,177.64c1.62-1.22,2-3.54,3.11-4.64,1.31.68,1.24.55,1.18,2-.61,3.79-3.12,8-5.15,11.17a52.69,52.69,0,0,1,15.66,0c-2-3.26-4.52-7.29-5.13-11.17-.1-1.41-.06-1.32,1.17-2,1.09,1.06,1.53,3.5,3.12,4.64a7.65,7.65,0,0,0,5.85,2.06c4.76-.16,8.51-4.51,9.38-9"
            />
            <path class="cls-3" d="M90,56.54c.77-9-7-16.41-15.14-8.71l-1.65-2.39c9-5.85,4.58-16.87-5.42-17.39-10.2.1-15.17,11.38-5.9,17.39l-1.65,2.39C51,39.08,42.62,49.93,45.68,59.18c1.16,4,4.75,7.66,9,7.8a7.65,7.65,0,0,0,5.86-2.06c1.62-1.22,2-3.54,3.11-4.64,1.31.68,1.24.55,1.18,2-.61,3.78-3.12,8-5.15,11.16a52.69,52.69,0,0,1,15.66,0c-2-3.26-4.52-7.29-5.13-11.16-.1-1.42-.06-1.33,1.17-2,1.09,1.06,1.53,3.5,3.12,4.64A7.65,7.65,0,0,0,80.39,67c4.76-.16,8.51-4.51,9.38-9"
            />
            <path class="cls-3" d="M45.09,269.29c-.78,9,7,16.42,15.13,8.71l1.66,2.4c-9,5.85-4.59,16.86,5.42,17.38,10.2-.09,15.16-11.38,5.9-17.38l1.65-2.4c9.25,8.75,17.63-2.09,14.57-11.34-1.17-4-4.75-7.67-9-7.81a7.67,7.67,0,0,0-5.86,2.06c-1.63,1.22-2,3.55-3.12,4.64-1.3-.67-1.24-.54-1.18-2,.61-3.79,3.12-8,5.15-11.16a53.37,53.37,0,0,1-15.66,0c2,3.25,4.53,7.29,5.14,11.16.09,1.41.06,1.32-1.18,2-1.09-1.06-1.53-3.5-3.12-4.64a7.63,7.63,0,0,0-5.84-2.06c-4.77.16-8.51,4.51-9.38,9"
            />
            <path class="cls-3" d="M162.81,56.54c.77-9-7-16.41-15.14-8.71L146,45.44c9-5.85,4.58-16.87-5.42-17.39-10.2.1-15.16,11.38-5.9,17.39l-1.65,2.39c-9.25-8.75-17.63,2.1-14.57,11.35,1.16,4,4.75,7.66,9,7.8a7.65,7.65,0,0,0,5.86-2.06c1.62-1.22,2-3.54,3.11-4.64,1.31.68,1.24.55,1.18,2-.61,3.78-3.12,8-5.15,11.16a52.69,52.69,0,0,1,15.66,0c-2-3.26-4.52-7.29-5.13-11.16-.1-1.42-.06-1.33,1.17-2,1.09,1.06,1.53,3.5,3.12,4.64A7.65,7.65,0,0,0,153.19,67c4.76-.16,8.51-4.51,9.38-9"
            />
            <path class="cls-3" d="M117.89,269.29c-.78,9,7,16.42,15.13,8.71l1.66,2.4c-9,5.85-4.59,16.86,5.42,17.38,10.2-.09,15.16-11.38,5.9-17.38l1.65-2.4c9.25,8.75,17.63-2.09,14.57-11.34-1.17-4-4.75-7.67-9-7.81a7.67,7.67,0,0,0-5.86,2.06c-1.63,1.22-2,3.55-3.12,4.64-1.3-.67-1.24-.54-1.18-2,.61-3.79,3.12-8,5.15-11.16a53.37,53.37,0,0,1-15.66,0c2,3.25,4.53,7.29,5.14,11.16.09,1.41.06,1.32-1.18,2-1.09-1.06-1.53-3.5-3.12-4.64a7.63,7.63,0,0,0-5.84-2.06c-4.77.16-8.51,4.51-9.38,9"
            />
        </g>
    </g>
</svg>
