<svg xmlns="http://www.w3.org/2000/svg" viewBox="0 0 208 326">
    <defs>
        <style>
            .cls-1 {
                fill: #fff;
            }

            .cls-2 {
                fill: #6f7072;
            }

            .cls-3 {
                fill: #f72014;
            }
        </style>
    </defs>
    <title>5D-fr-2c</title>
    <g id="Calque_2" data-name="Calque 2">
        <g id="FR_-_EN" data-name="FR - EN">
            <path class="cls-1" d="M14.83,325A13.84,13.84,0,0,1,1,311.18V14.82A13.84,13.84,0,0,1,14.83,1H193.17A13.84,13.84,0,0,1,207,14.82V311.18A13.84,13.84,0,0,1,193.17,325Z"
            />
            <path class="cls-2" d="M193.17,2A12.84,12.84,0,0,1,206,14.82V311.18A12.84,12.84,0,0,1,193.17,324H14.83A12.84,12.84,0,0,1,2,311.18V14.82A12.84,12.84,0,0,1,14.83,2H193.17m0-2H14.83A14.83,14.83,0,0,0,0,14.82V311.18A14.82,14.82,0,0,0,14.83,326H193.17A14.83,14.83,0,0,0,208,311.18V14.82A14.83,14.83,0,0,0,193.17,0Z"
            />
            <path class="cls-3" d="M22,45.84s3.67,8.07,9.1,10.11A23.7,23.7,0,0,0,22,65.84s-1.63-5.81-8.9-10A17.25,17.25,0,0,0,22,45.84Z"
            />
            <path class="cls-3" d="M185.9,46s3.67,8.08,9.1,10.12A23.63,23.63,0,0,0,185.9,66s-1.63-5.81-8.9-10A17.17,17.17,0,0,0,185.9,46Z"
            />
            <path class="cls-3" d="M21.9,260.09s3.67,8.07,9.1,10.11a23.62,23.62,0,0,0-9.1,9.89s-1.63-5.82-8.9-10A17.18,17.18,0,0,0,21.9,260.09Z"
            />
            <path class="cls-3" d="M185.9,259.85s3.67,8.08,9.1,10.11a23.7,23.7,0,0,0-9.1,9.89s-1.63-5.81-8.9-10A17.21,17.21,0,0,0,185.9,259.85Z"
            />
            <path class="cls-3" d="M147.52,41.58s9.63,19.23,23.9,24.08a59.54,59.54,0,0,0-23.9,23.54s-4.29-13.84-23.37-23.81C124.14,65.39,140.91,59.19,147.52,41.58Z"
            />
            <path class="cls-3" d="M60.05,41.58S69.68,60.81,84,65.66A59.54,59.54,0,0,0,60.05,89.2S55.76,75.36,36.68,65.39C36.67,65.39,53.44,59.19,60.05,41.58Z"
            />
            <path class="cls-3" d="M147.52,236.65s9.63,19.22,23.9,24.07a59.54,59.54,0,0,0-23.9,23.54s-4.29-13.84-23.37-23.81C124.14,260.45,140.91,254.26,147.52,236.65Z"
            />
            <path class="cls-3" d="M60.05,236.65s9.63,19.22,23.9,24.07a59.54,59.54,0,0,0-23.9,23.54s-4.29-13.84-23.37-23.81C36.67,260.45,53.44,254.26,60.05,236.65Z"
            />
            <path class="cls-3" d="M22,18.93a10.35,10.35,0,0,0-4.7,1V14.25h10.4V12.42h2.57v1.83h0V11H15.68l-1.61,1.61V24l3.18.33c0-.09.58-2.17,4.74-2.17,4.58,0,5.07,5.23,5.07,7.47s-1.77,5.9-5.59,5.9a4.2,4.2,0,0,1-4.56-4H13.7a7.43,7.43,0,0,0,7.77,7.25c6,0,8.8-5.45,8.8-9.13C30.27,24.46,28.09,18.93,22,18.93Z"
            />
            <polygon class="cls-3" points="27.68 12.42 27.68 14.25 27.68 15.91 30.25 15.91 30.25 14.25 30.25 12.42 27.68 12.42"
            />
            <path class="cls-3" d="M186,19a10.48,10.48,0,0,0-4.7,1V14.3h10.4V12.47h2.57V14.3h0V11.07h-14.6l-1.6,1.61V24.05l3.18.33c0-.09.58-2.17,4.74-2.17,4.57,0,5.07,5.23,5.07,7.48s-1.77,5.9-5.59,5.9a4.21,4.21,0,0,1-4.56-4H177.7a7.44,7.44,0,0,0,7.77,7.25c6,0,8.8-5.44,8.8-9.13C194.27,24.51,192.09,19,186,19Z"
            />
            <polygon class="cls-3" points="191.68 12.47 191.68 14.3 191.68 15.96 194.25 15.96 194.25 14.3 194.25 12.47 191.68 12.47"
            />
            <path class="cls-3" d="M186,307.05a10.37,10.37,0,0,0,4.7-1v5.65h-10.4v1.83h-2.57v-1.83h0V315h14.59l1.61-1.62V302l-3.18-.32c0,.09-.58,2.17-4.74,2.17-4.57,0-5.07-5.23-5.07-7.48s1.77-5.9,5.59-5.9a4.21,4.21,0,0,1,4.56,4h3.21a7.45,7.45,0,0,0-7.77-7.25c-6,0-8.8,5.45-8.8,9.13C177.7,301.52,179.88,307.05,186,307.05Z"
            />
            <polygon class="cls-3" points="180.29 313.56 180.29 311.73 180.29 310.06 177.72 310.06 177.72 311.73 177.72 313.56 180.29 313.56"
            />
            <path class="cls-3" d="M22,307.05a10.37,10.37,0,0,0,4.7-1v5.65H16.29v1.83H13.72v-1.83h0V315H28.29l1.61-1.62V302l-3.18-.32c0,.09-.58,2.17-4.74,2.17-4.57,0-5.07-5.23-5.07-7.48s1.77-5.9,5.59-5.9a4.21,4.21,0,0,1,4.56,4h3.21a7.45,7.45,0,0,0-7.77-7.25c-6,0-8.8,5.45-8.8,9.13C13.7,301.52,15.88,307.05,22,307.05Z"
            />
            <polygon class="cls-3" points="16.29 313.56 16.29 311.73 16.29 310.06 13.72 310.06 13.72 311.73 13.72 313.56 16.29 313.56"
            />
            <path class="cls-3" d="M103.73,138.65s9.64,19.23,23.91,24.08a59.6,59.6,0,0,0-23.91,23.54s-4.28-13.84-23.37-23.81C80.36,162.46,97.13,156.26,103.73,138.65Z"
            />
        </g>
    </g>
</svg>
