<svg xmlns="http://www.w3.org/2000/svg" viewBox="0 0 208 326">
    <defs>
        <style>
            .cls-1 {
                fill: #fff;
            }

            .cls-2 {
                fill: #6f7072;
            }

            .cls-3 {
                fill: #f5a11a;
            }
        </style>
    </defs>
    <title>5D-us-4c</title>
    <g id="Calque_2" data-name="Calque 2">
        <g id="FR_-_EN" data-name="FR - EN">
            <path class="cls-1" d="M14.83,325A13.84,13.84,0,0,1,1,311.18V14.82A13.84,13.84,0,0,1,14.83,1H193.17A13.84,13.84,0,0,1,207,14.82V311.18A13.84,13.84,0,0,1,193.17,325Z"
            />
            <path class="cls-2" d="M193.17,2A12.84,12.84,0,0,1,206,14.82V311.18A12.84,12.84,0,0,1,193.17,324H14.83A12.84,12.84,0,0,1,2,311.18V14.82A12.84,12.84,0,0,1,14.83,2H193.17m0-2H14.83A14.83,14.83,0,0,0,0,14.82V311.18A14.82,14.82,0,0,0,14.83,326H193.17A14.82,14.82,0,0,0,208,311.18V14.82A14.82,14.82,0,0,0,193.17,0Z"
            />
            <path class="cls-3" d="M178,263.9a64.52,64.52,0,0,1,8.76,12.75,63.77,63.77,0,0,1,8.75-12.75,63.42,63.42,0,0,1-8.75-12.74,66.14,66.14,0,0,1-8.06,12"
            />
            <path class="cls-3" d="M12.55,263.9a64.1,64.1,0,0,1,8.76,12.75,63.4,63.4,0,0,1,8.76-12.75,63.05,63.05,0,0,1-8.76-12.74,65.63,65.63,0,0,1-8.06,12"
            />
            <path class="cls-3" d="M178,62.21A64.16,64.16,0,0,1,186.75,75a63.42,63.42,0,0,1,8.75-12.74,63.7,63.7,0,0,1-8.75-12.74,66.07,66.07,0,0,1-8.06,12"
            />
            <path class="cls-3" d="M12.55,62.21A63.75,63.75,0,0,1,21.31,75a63.05,63.05,0,0,1,8.76-12.74,63.33,63.33,0,0,1-8.76-12.74,65.55,65.55,0,0,1-8.06,12"
            />
            <path class="cls-3" d="M15.28,23.33c5.4-6.65,13.27-1.11,13.32,6.45.27,10.21-10.66,14.77-15,4.35l-3.2,1.44c4,9.74,15.35,10.73,20.19,1.19,5.35-10.16-4-24.5-15.11-18.06l0-.06.85-6.12H28.93V8.94H13.31L11.38,22.8l3.11,2.82.09-.71.14-.53.15-.34"
            />
            <path class="cls-3" d="M180.72,23.33c5.39-6.65,13.27-1.11,13.32,6.45.26,10.21-10.66,14.77-15,4.35l-3.21,1.44c4,9.74,15.35,10.73,20.19,1.19,5.36-10.16-4-24.5-15.1-18.06l-.06-.06.85-6.12h12.61V8.94H178.75L176.81,22.8l3.11,2.82.1-.71.14-.53.14-.34"
            />
            <path class="cls-3" d="M192.77,301.19c-5.39,6.65-13.27,1.1-13.31-6.45-.27-10.21,10.65-14.78,15-4.36l3.2-1.43c-4-9.75-15.35-10.73-20.19-1.2-5.36,10.17,4,24.51,15.1,18.07l.06.05-.85,6.13H179.13v3.58h15.61l1.94-13.86-3.11-2.83-.09.72-.15.53-.14.33"
            />
            <path class="cls-3" d="M27.33,301.19c-5.39,6.65-13.27,1.1-13.31-6.45-.27-10.21,10.65-14.78,15-4.36l3.2-1.43c-4-9.75-15.35-10.73-20.19-1.2-5.36,10.17,4,24.51,15.11,18.07l0,.05L26.3,312H13.69v3.58H29.31l1.93-13.86-3.11-2.83-.09.72-.15.53-.14.33"
            />
            <path class="cls-3" d="M122.76,50.87a128,128,0,0,1,17.52,25.49A126.17,126.17,0,0,1,157.8,50.87a126.45,126.45,0,0,1-17.52-25.49A131.72,131.72,0,0,1,124.17,49.3"
            />
            <path class="cls-3" d="M50,50.87A128,128,0,0,1,67.48,76.36,126.17,126.17,0,0,1,85,50.87,126.45,126.45,0,0,1,67.48,25.38,131.72,131.72,0,0,1,51.37,49.3"
            />
            <path class="cls-3" d="M86.5,163.58A128.34,128.34,0,0,1,104,189.08a126.52,126.52,0,0,1,17.52-25.5A126.51,126.51,0,0,1,104,138.1,131.56,131.56,0,0,1,87.91,162"
            />
            <path class="cls-3" d="M50,275.24a128.27,128.27,0,0,1,17.52,25.49A126.45,126.45,0,0,1,85,275.24a126.17,126.17,0,0,1-17.52-25.49,131.38,131.38,0,0,1-16.11,23.92"
            />
            <path class="cls-3" d="M122.76,275.24a128.27,128.27,0,0,1,17.52,25.49,126.45,126.45,0,0,1,17.52-25.49,126.58,126.58,0,0,1-17.52-25.49,130.87,130.87,0,0,1-16.11,23.92"
            />
        </g>
    </g>
</svg>
