<svg xmlns="http://www.w3.org/2000/svg" viewBox="0 0 208 326">
    <defs>
        <style>
            .cls-1 {
                fill: #fff;
            }

            .cls-2 {
                fill: #6f7072;
            }

            .cls-3 {
                fill: #f72014;
            }
        </style>
    </defs>
    <title>5H-fr-2c</title>
    <g id="Calque_2" data-name="Calque 2">
        <g id="FR_-_EN" data-name="FR - EN">
            <path class="cls-1" d="M14.83,325A13.84,13.84,0,0,1,1,311.18V14.82A13.84,13.84,0,0,1,14.83,1H193.17A13.84,13.84,0,0,1,207,14.82V311.18A13.84,13.84,0,0,1,193.17,325Z"
            />
            <path class="cls-2" d="M193.17,2A12.84,12.84,0,0,1,206,14.82V311.18A12.84,12.84,0,0,1,193.17,324H14.83A12.84,12.84,0,0,1,2,311.18V14.82A12.84,12.84,0,0,1,14.83,2H193.17m0-2H14.83A14.83,14.83,0,0,0,0,14.82V311.18A14.82,14.82,0,0,0,14.83,326H193.17A14.83,14.83,0,0,0,208,311.18V14.82A14.83,14.83,0,0,0,193.17,0Z"
            />
            <path class="cls-3" d="M60.3,90.1s.29-3.09,7.62-10.48S83,65.19,84.6,56.91C85.69,51.34,83.18,41,71,41,61.43,41,60.3,53.49,60.3,53.49S59.17,41,49.57,41C37.42,41,34.9,51.34,36,56.91c1.64,8.28,9.32,15.33,16.66,22.71S60.3,90.1,60.3,90.1Z"
            />
            <path class="cls-3" d="M147.77,90.1s.29-3.09,7.63-10.48,15-14.43,16.67-22.71c1.1-5.57-1.42-15.91-13.56-15.91-9.6,0-10.74,12.49-10.74,12.49S146.64,41,137,41c-12.15,0-14.66,10.34-13.56,15.91,1.64,8.28,9.33,15.33,16.67,22.71S147.77,90.1,147.77,90.1Z"
            />
            <path class="cls-3" d="M147.78,235.83s-.29,3.09-7.63,10.47-15,14.43-16.67,22.72c-1.1,5.57,1.42,15.9,13.56,15.9,9.61,0,10.74-12.49,10.74-12.49s1.13,12.49,10.73,12.49c12.15,0,14.66-10.33,13.56-15.9-1.64-8.28-9.33-15.33-16.67-22.72S147.78,235.83,147.78,235.83Z"
            />
            <path class="cls-3" d="M60.3,235.83s-.28,3.09-7.62,10.47S37.65,260.73,36,269c-1.1,5.57,1.41,15.9,13.56,15.9,9.6,0,10.73-12.49,10.73-12.49S61.44,284.92,71,284.92c12.14,0,14.66-10.33,13.56-15.9-1.65-8.28-9.33-15.33-16.67-22.72S60.3,235.83,60.3,235.83Z"
            />
            <path class="cls-3" d="M104,185.89s.28-1.95,7.62-9.33,15-14.44,16.68-22.72c1.09-5.57-1.42-15.91-13.57-15.91-9.6,0-10.73,12.49-10.73,12.49s-1.14-12.49-10.74-12.49c-12.14,0-14.66,10.34-13.56,15.91,1.65,8.28,9.33,15.33,16.67,22.72S104,185.89,104,185.89Z"
            />
            <path class="cls-3" d="M22,18.91a10.45,10.45,0,0,0-4.7,1V14.23H27.69V12.4h2.58v1.83h0V11H15.69l-1.6,1.61V24l3.18.33c0-.09.57-2.17,4.73-2.17,4.58,0,5.08,5.23,5.08,7.48s-1.78,5.9-5.59,5.9a4.21,4.21,0,0,1-4.56-4H13.71a7.44,7.44,0,0,0,7.77,7.25c6,0,8.81-5.44,8.81-9.13C30.28,24.44,28.11,18.91,22,18.91Z"
            />
            <polygon class="cls-3" points="27.69 12.4 27.69 14.23 27.69 15.89 30.26 15.89 30.26 14.23 30.26 12.4 27.69 12.4"
            />
            <path class="cls-3" d="M186,19a10.45,10.45,0,0,0-4.7,1V14.28h10.39V12.45h2.57v1.83h0V11.05h-14.6l-1.6,1.62V24l3.18.33c0-.09.57-2.17,4.73-2.17,4.58,0,5.08,5.23,5.08,7.48s-1.78,5.9-5.59,5.9a4.21,4.21,0,0,1-4.56-4h-3.22a7.45,7.45,0,0,0,7.77,7.25c6,0,8.81-5.45,8.81-9.13C194.28,24.49,192.11,19,186,19Z"
            />
            <polygon class="cls-3" points="191.69 12.45 191.69 14.28 191.69 15.94 194.26 15.94 194.26 14.28 194.26 12.45 191.69 12.45"
            />
            <path class="cls-3" d="M186,307a10.45,10.45,0,0,0,4.7-1v5.64H180.3v1.83h-2.57v-1.83h0v3.23h14.6l1.6-1.62V302l-3.18-.33c0,.09-.57,2.17-4.73,2.17-4.58,0-5.08-5.23-5.08-7.48s1.78-5.9,5.59-5.9a4.21,4.21,0,0,1,4.56,4h3.22a7.45,7.45,0,0,0-7.77-7.25c-6,0-8.8,5.45-8.8,9.13C177.72,301.5,179.89,307,186,307Z"
            />
            <polygon class="cls-3" points="180.31 313.54 180.31 311.71 180.31 310.05 177.73 310.05 177.73 311.71 177.73 313.54 180.31 313.54"
            />
            <path class="cls-3" d="M22,307a10.45,10.45,0,0,0,4.7-1v5.64H16.31v1.83H13.74v-1.83h0v3.23h14.6l1.6-1.62V302l-3.18-.33c0,.09-.57,2.17-4.73,2.17-4.58,0-5.08-5.23-5.08-7.48s1.78-5.9,5.59-5.9a4.21,4.21,0,0,1,4.56,4h3.22a7.45,7.45,0,0,0-7.77-7.25c-6,0-8.81,5.45-8.81,9.13C13.71,301.5,15.89,307,22,307Z"
            />
            <polygon class="cls-3" points="16.31 313.54 16.31 311.71 16.31 310.05 13.74 310.05 13.74 311.71 13.74 313.54 16.31 313.54"
            />
            <path class="cls-3" d="M22,64a8.43,8.43,0,0,1,2.49-5.12c2.39-2.46,4.9-4.81,5.43-7.58A4.32,4.32,0,0,0,25.5,46c-3.13,0-3.5,4.17-3.5,4.17S21.63,46,18.5,46a4.32,4.32,0,0,0-4.42,5.3c.53,2.77,3,5.12,5.43,7.58A8.45,8.45,0,0,1,22,64Z"
            />
            <path class="cls-3" d="M186,64a8.45,8.45,0,0,1,2.48-5.12c2.4-2.46,4.91-4.81,5.44-7.58A4.32,4.32,0,0,0,189.5,46c-3.13,0-3.5,4.17-3.5,4.17S185.63,46,182.5,46a4.32,4.32,0,0,0-4.42,5.3c.53,2.77,3,5.12,5.43,7.58A8.45,8.45,0,0,1,186,64Z"
            />
            <path class="cls-3" d="M186,262a8.43,8.43,0,0,1-2.49,5.12c-2.39,2.46-4.9,4.81-5.43,7.58a4.32,4.32,0,0,0,4.42,5.3c3.13,0,3.5-4.17,3.5-4.17s.37,4.17,3.5,4.17a4.32,4.32,0,0,0,4.42-5.3c-.53-2.77-3-5.12-5.43-7.58A8.45,8.45,0,0,1,186,262Z"
            />
            <path class="cls-3" d="M22,262a8.43,8.43,0,0,1-2.49,5.12c-2.39,2.46-4.9,4.81-5.43,7.58A4.32,4.32,0,0,0,18.5,280c3.13,0,3.5-4.17,3.5-4.17s.37,4.17,3.5,4.17a4.32,4.32,0,0,0,4.42-5.3c-.53-2.77-3-5.12-5.43-7.58A8.45,8.45,0,0,1,22,262Z"
            />
        </g>
    </g>
</svg>
