<svg xmlns="http://www.w3.org/2000/svg" viewBox="0 0 208 326">
    <defs>
        <style>
            .cls-1 {
                fill: #fff;
            }

            .cls-2 {
                fill: #6f7072;
            }

            .cls-3 {
                fill: #f8261b;
            }
        </style>
    </defs>
    <title>5H-us-2c</title>
    <g id="Calque_2" data-name="Calque 2">
        <g id="FR_-_EN" data-name="FR - EN">
            <path class="cls-1" d="M14.83,325A13.84,13.84,0,0,1,1,311.18V14.82A13.84,13.84,0,0,1,14.83,1H193.17A13.84,13.84,0,0,1,207,14.82V311.18A13.84,13.84,0,0,1,193.17,325Z"
            />
            <path class="cls-2" d="M193.17,2A12.84,12.84,0,0,1,206,14.82V311.18A12.84,12.84,0,0,1,193.17,324H14.83A12.84,12.84,0,0,1,2,311.18V14.82A12.84,12.84,0,0,1,14.83,2H193.17m0-2H14.83A14.83,14.83,0,0,0,0,14.82V311.18A14.82,14.82,0,0,0,14.83,326H193.17A14.83,14.83,0,0,0,208,311.18V14.82A14.83,14.83,0,0,0,193.17,0Z"
            />
            <path class="cls-3" d="M21.42,69.57C24.76,66.77,31.86,56,30.16,51a4.59,4.59,0,0,0-8.74-.47c-1.59-3.57-6.21-4.1-8.25-.65C10,54.79,17.71,65.92,20.8,69"
            />
            <path class="cls-3" d="M186.86,69.57C190.2,66.77,197.3,56,195.6,51a4.59,4.59,0,0,0-8.74-.47c-1.59-3.57-6.21-4.1-8.25-.65-3.17,4.89,4.54,16,7.62,19.14"
            />
            <path class="cls-3" d="M21.43,254.64c-3.35,2.8-10.45,13.61-8.75,18.56,1.46,4.41,6.85,4.61,8.75.46,1.58,3.58,6.2,4.11,8.24.66,3.18-4.9-4.54-16-7.62-19.14"
            />
            <path class="cls-3" d="M186.87,254.64c-3.35,2.8-10.45,13.61-8.75,18.56,1.46,4.41,6.85,4.61,8.75.46,1.58,3.58,6.2,4.11,8.24.66,3.17-4.9-4.54-16-7.62-19.14"
            />
            <path class="cls-3" d="M15.34,23.27c5.39-6.65,13.26-1.11,13.31,6.45.27,10.21-10.65,14.77-15,4.36l-3.2,1.43c4,9.75,15.35,10.73,20.19,1.19,5.35-10.16-4-24.5-15.11-18.06l-.05-.06.85-6.12H29V8.88H13.37L11.43,22.74l3.11,2.83.09-.72.15-.53.14-.33"
            />
            <path class="cls-3" d="M180.77,23.27c5.4-6.65,13.27-1.11,13.32,6.45.27,10.21-10.66,14.77-15,4.36l-3.2,1.43c4,9.75,15.35,10.73,20.19,1.19,5.35-10.16-4-24.5-15.11-18.06l0-.06.85-6.12h12.61V8.88H178.8l-1.93,13.86L180,25.57l.09-.72.14-.53.15-.33"
            />
            <path class="cls-3" d="M192.82,301.13c-5.39,6.65-13.26,1.11-13.31-6.45-.27-10.21,10.65-14.78,15-4.36l3.2-1.43c-4-9.75-15.35-10.73-20.19-1.19-5.35,10.16,4,24.5,15.11,18.06l0,.05-.85,6.13H179.18v3.58H194.8l1.93-13.86-3.11-2.83-.09.72-.15.53-.14.33"
            />
            <path class="cls-3" d="M27.38,301.13c-5.39,6.65-13.26,1.11-13.31-6.45-.27-10.21,10.66-14.78,15-4.36l3.2-1.43c-4-9.75-15.34-10.73-20.19-1.19-5.35,10.16,4,24.5,15.11,18.06l.05.05-.85,6.13H13.74v3.58H29.36l1.93-13.86-3.11-2.83-.09.72-.14.53-.15.33"
            />
            <path class="cls-3" d="M67.53,67.74c2.73-2.13,4-4.48,6-7.29a58.87,58.87,0,0,0,6.91-12.69,17.17,17.17,0,0,0,1.28-10.61c-2.37-7.27-11.14-7.6-14.23-.77C65,30.49,57.44,29.61,54.13,35.3c-1.92,3-1.23,8,0,11.17a59.41,59.41,0,0,0,5.54,11.22c1.94,2.64,4.41,7,6.89,9.17"
            />
            <path class="cls-3" d="M140.33,67.74c2.73-2.13,4-4.48,6-7.29a58.87,58.87,0,0,0,6.91-12.69,17.1,17.1,0,0,0,1.28-10.61c-2.37-7.27-11.14-7.6-14.23-.77-2.57-5.89-10.09-6.77-13.4-1.08-1.92,3-1.23,8,0,11.17a59.41,59.41,0,0,0,5.54,11.22c1.95,2.64,4.41,7,6.9,9.17"
            />
            <path class="cls-3" d="M103.94,183.66c2.72-2.13,4-4.49,6-7.29a58.48,58.48,0,0,0,6.92-12.69,17.17,17.17,0,0,0,1.28-10.61c-2.37-7.27-11.14-7.6-14.23-.77-2.58-5.89-10.09-6.77-13.41-1.08-1.91,2.95-1.23,8,0,11.16A59.84,59.84,0,0,0,96,173.61c1.94,2.64,4.41,7,6.89,9.17"
            />
            <path class="cls-3" d="M140.33,257.05c-2.72,2.13-4,4.49-6,7.29A58.48,58.48,0,0,0,127.38,277a17.19,17.19,0,0,0-1.28,10.62c2.37,7.26,11.14,7.6,14.23.76,2.58,5.89,10.1,6.77,13.41,1.08,1.91-2.95,1.23-8,0-11.16a58.65,58.65,0,0,0-5.55-11.23c-1.94-2.64-4.41-7-6.89-9.17"
            />
            <path class="cls-3" d="M67.53,257.05c-2.72,2.13-4,4.49-6,7.29A58.48,58.48,0,0,0,54.58,277a17.19,17.19,0,0,0-1.28,10.62c2.37,7.26,11.14,7.6,14.23.76,2.58,5.89,10.09,6.77,13.4,1.08,1.92-2.95,1.24-8,0-11.16a59.84,59.84,0,0,0-5.55-11.23c-1.94-2.64-4.41-7-6.89-9.17"
            />
        </g>
    </g>
</svg>
