<svg xmlns="http://www.w3.org/2000/svg" viewBox="0 0 208 326">
    <defs>
        <style>
            .cls-1 {
                fill: #fff;
            }

            .cls-2 {
                fill: #6f7072;
            }
        </style>
    </defs>
    <title>5S-fr-2c</title>
    <g id="Calque_2" data-name="Calque 2">
        <g id="FR_-_EN" data-name="FR - EN">
            <path class="cls-1" d="M14.83,325A13.84,13.84,0,0,1,1,311.18V14.82A13.84,13.84,0,0,1,14.83,1H193.17A13.84,13.84,0,0,1,207,14.82V311.18A13.84,13.84,0,0,1,193.17,325Z"
            />
            <path class="cls-2" d="M193.17,2A12.84,12.84,0,0,1,206,14.82V311.18A12.84,12.84,0,0,1,193.17,324H14.83A12.84,12.84,0,0,1,2,311.18V14.82A12.84,12.84,0,0,1,14.83,2H193.17m0-2H14.83A14.83,14.83,0,0,0,0,14.82V311.18A14.82,14.82,0,0,0,14.83,326H193.17A14.83,14.83,0,0,0,208,311.18V14.82A14.83,14.83,0,0,0,193.17,0Z"
            />
            <path d="M78.12,61.57c-2.13-4.09-9.28-10-13.53-13.41s-4.18-6.27-4.91-6.27-.48,2.83-4.74,6.27S44.85,56.33,42.73,60.42,40.39,71.15,47.41,74.6c4.51,2.21,8.31-.64,10.7-3.4.38,7.52-9.62,17.46-9.62,17.46a36.85,36.85,0,0,1,20.08-.24s-8.88-11.8-7.65-17.94c2.47,3.16,6.77,7.19,11.29,5C79.23,72,80.25,65.66,78.12,61.57Z"
            />
            <path d="M165.59,61.57c-2.13-4.09-9.28-10-13.53-13.41s-4.17-6.27-4.91-6.27-.47,2.83-4.73,6.27-10.1,8.17-12.22,12.26-2.34,10.73,4.68,14.18c4.51,2.21,8.31-.64,10.7-3.4C146,78.72,136,88.66,136,88.66A36.82,36.82,0,0,1,156,88.42s-8.88-11.8-7.65-17.94c2.48,3.16,6.77,7.19,11.3,5C166.7,72,167.72,65.66,165.59,61.57Z"
            />
            <path d="M129.88,263.45c2.13,4.09,9.28,10,13.53,13.41s4.18,6.27,4.91,6.27.48-2.82,4.74-6.27,10.09-8.17,12.21-12.25,2.34-10.74-4.68-14.18c-4.51-2.22-8.31.63-10.7,3.4-.38-7.53,9.61-17.46,9.61-17.46a36.76,36.76,0,0,1-20.07.23s8.88,11.8,7.65,17.94c-2.47-3.15-6.77-7.19-11.29-5C128.77,253,127.75,259.36,129.88,263.45Z"
            />
            <path d="M42.41,263.45c2.13,4.09,9.28,10,13.53,13.41s4.17,6.27,4.91,6.27.47-2.82,4.73-6.27,10.09-8.17,12.22-12.25,2.34-10.74-4.68-14.18c-4.52-2.22-8.32.63-10.71,3.4C62,246.3,72,236.37,72,236.37A36.8,36.8,0,0,1,52,236.6s8.89,11.8,7.66,17.94c-2.48-3.15-6.77-7.19-11.3-5C41.29,253,40.28,259.36,42.41,263.45Z"
            />
            <path d="M78.13,61.57c-2.12-4.09-9.27-10-13.52-13.41s-4.18-6.27-4.91-6.27-.48,2.83-4.74,6.27S44.87,56.33,42.74,60.42,40.41,71.15,47.43,74.6c4.51,2.21,8.31-.64,10.7-3.4.38,7.52-9.62,17.46-9.62,17.46a36.86,36.86,0,0,1,20.08-.24s-8.88-11.8-7.66-17.94c2.48,3.16,6.77,7.19,11.3,5C79.25,72,80.26,65.66,78.13,61.57Z"
            />
            <path d="M165.6,61.57c-2.12-4.09-9.27-10-13.52-13.41s-4.18-6.27-4.91-6.27-.48,2.83-4.74,6.27-10.09,8.17-12.21,12.26-2.34,10.73,4.68,14.18c4.51,2.21,8.31-.64,10.7-3.4C146,78.72,136,88.66,136,88.66a36.82,36.82,0,0,1,20.07-.24s-8.88-11.8-7.65-17.94c2.47,3.16,6.77,7.19,11.29,5C166.72,72,167.74,65.66,165.6,61.57Z"
            />
            <path d="M129.9,263.45c2.13,4.09,9.28,10,13.53,13.41s4.18,6.27,4.91,6.27.48-2.82,4.74-6.27,10.09-8.17,12.21-12.25,2.34-10.74-4.68-14.18c-4.51-2.22-8.31.63-10.7,3.4-.38-7.53,9.62-17.46,9.62-17.46a36.8,36.8,0,0,1-20.08.23s8.88,11.8,7.66,17.94c-2.48-3.15-6.77-7.19-11.3-5C128.79,253,127.78,259.36,129.9,263.45Z"
            />
            <path d="M42.43,263.45c2.13,4.09,9.27,10,13.53,13.41s4.17,6.27,4.91,6.27.47-2.82,4.73-6.27,10.1-8.17,12.22-12.25,2.34-10.74-4.68-14.18c-4.52-2.22-8.31.63-10.7,3.4-.38-7.53,9.61-17.46,9.61-17.46A36.76,36.76,0,0,1,52,236.6s8.88,11.8,7.65,17.94c-2.48-3.15-6.77-7.19-11.3-5C41.31,253,40.3,259.36,42.43,263.45Z"
            />
            <path d="M121.85,158.74c-2.13-4.08-9.27-10-13.52-13.41s-4.18-6.27-4.91-6.27-.48,2.83-4.74,6.27-10.09,8.17-12.22,12.26-2.33,10.73,4.68,14.18c4.52,2.22,8.32-.64,10.7-3.4.38,7.52-9.61,17.46-9.61,17.46a36.86,36.86,0,0,1,20.08-.24s-8.89-11.8-7.66-17.94c2.48,3.15,6.77,7.19,11.3,5C123,169.18,124,162.83,121.85,158.74Z"
            />
            <path d="M29.58,54.25c-.9-1.75-3.93-4.27-5.74-5.74s-1.77-2.68-2.09-2.68-.2,1.21-2,2.68-4.28,3.5-5.18,5.24a4.27,4.27,0,0,0,2,6.07c1.92,1,3.53-.27,4.54-1.45.17,3.21-4.07,7.46-4.07,7.46a15.47,15.47,0,0,1,8.52-.1s-3.77-5.05-3.25-7.67c1,1.35,2.87,3.07,4.79,2.12C30.05,58.71,30.48,56,29.58,54.25Z"
            />
            <path d="M193.58,54.25c-.9-1.75-3.93-4.27-5.74-5.74s-1.77-2.68-2.09-2.68-.2,1.21-2,2.68-4.28,3.5-5.19,5.24a4.28,4.28,0,0,0,2,6.07c1.91,1,3.53-.27,4.54-1.45.17,3.21-4.07,7.46-4.07,7.46a15.48,15.48,0,0,1,8.52-.1s-3.77-5.05-3.25-7.67c1.05,1.35,2.87,3.07,4.79,2.12C194.05,58.71,194.48,56,193.58,54.25Z"
            />
            <path d="M178.42,271.29c.9,1.75,3.93,4.27,5.74,5.74s1.77,2.68,2.09,2.68.2-1.21,2-2.68,4.28-3.5,5.18-5.24a4.27,4.27,0,0,0-2-6.07c-1.92-.94-3.53.28-4.55,1.46-.16-3.22,4.08-7.47,4.08-7.47a15.47,15.47,0,0,1-8.52.1s3.77,5.05,3.25,7.67c-1.05-1.34-2.87-3.07-4.79-2.12C178,266.83,177.52,269.55,178.42,271.29Z"
            />
            <path d="M14.42,271.29c.9,1.75,3.93,4.27,5.74,5.74s1.77,2.68,2.09,2.68.2-1.21,2-2.68,4.28-3.5,5.18-5.24a4.27,4.27,0,0,0-2-6.07c-1.92-.94-3.53.28-4.54,1.46C22.75,264,27,259.71,27,259.71a15.47,15.47,0,0,1-8.52.1s3.77,5.05,3.25,7.67c-1-1.34-2.87-3.07-4.79-2.12C14,266.83,13.52,269.55,14.42,271.29Z"
            />
            <path d="M22,18.88a10.3,10.3,0,0,0-4.7,1V14.2H27.69V12.37h2.58V14.2h0V11H15.69l-1.6,1.61V24l3.18.32c0-.08.57-2.17,4.73-2.17,4.58,0,5.08,5.23,5.08,7.48s-1.78,5.9-5.59,5.9a4.21,4.21,0,0,1-4.56-4H13.71a7.45,7.45,0,0,0,7.77,7.25c6,0,8.81-5.45,8.81-9.13C30.28,24.42,28.11,18.88,22,18.88Z"
            />
            <polygon points="27.69 12.37 27.69 14.2 27.69 15.87 30.26 15.87 30.26 14.2 30.26 12.37 27.69 12.37" />
            <path d="M186,18.93a10.3,10.3,0,0,0-4.7,1V14.26h10.39V12.42h2.57v1.84h0V11h-14.6l-1.6,1.61V24l3.18.32c0-.08.57-2.17,4.73-2.17,4.58,0,5.08,5.23,5.08,7.48s-1.78,5.9-5.59,5.9a4.21,4.21,0,0,1-4.56-4h-3.22a7.45,7.45,0,0,0,7.77,7.25c6,0,8.81-5.45,8.81-9.13C194.28,24.47,192.11,18.93,186,18.93Z"
            />
            <polygon points="191.69 12.42 191.69 14.26 191.69 15.92 194.26 15.92 194.26 14.26 194.26 12.42 191.69 12.42"
            />
            <path d="M186,307a10.32,10.32,0,0,0,4.7-1v5.64H180.3v1.83h-2.57v-1.83h0v3.23h14.6l1.6-1.61V301.93l-3.18-.33c0,.09-.57,2.17-4.73,2.17-4.58,0-5.08-5.22-5.08-7.47s1.78-5.9,5.59-5.9a4.21,4.21,0,0,1,4.56,4h3.22a7.45,7.45,0,0,0-7.77-7.25c-6,0-8.8,5.45-8.8,9.13C177.72,301.47,179.89,307,186,307Z"
            />
            <polygon points="180.31 313.52 180.31 311.68 180.31 310.02 177.73 310.02 177.73 311.68 177.73 313.52 180.31 313.52"
            />
            <path d="M22,307a10.32,10.32,0,0,0,4.7-1v5.64H16.31v1.83H13.74v-1.83h0v3.23h14.6l1.6-1.61V301.93l-3.18-.33c0,.09-.57,2.17-4.73,2.17-4.58,0-5.08-5.22-5.08-7.47s1.78-5.9,5.59-5.9a4.21,4.21,0,0,1,4.56,4h3.22a7.45,7.45,0,0,0-7.77-7.25c-6,0-8.81,5.45-8.81,9.13C13.71,301.47,15.89,307,22,307Z"
            />
            <polygon points="16.31 313.52 16.31 311.68 16.31 310.02 13.74 310.02 13.74 311.68 13.74 313.52 16.31 313.52"
            />
        </g>
    </g>
</svg>
