<svg xmlns="http://www.w3.org/2000/svg" viewBox="0 0 208 326">
    <defs>
        <style>
            .cls-1 {
                fill: #fff;
            }

            .cls-2 {
                fill: #6f7072;
            }

            .cls-3 {
                fill: #1d1d1b;
            }

            .cls-4 {
                fill: #1c1c1c;
            }
        </style>
    </defs>
    <title>5S-us-2c</title>
    <g id="Calque_2" data-name="Calque 2">
        <g id="FR_-_EN" data-name="FR - EN">
            <path class="cls-1" d="M14.83,325A13.84,13.84,0,0,1,1,311.18V14.82A13.84,13.84,0,0,1,14.83,1H193.17A13.84,13.84,0,0,1,207,14.82V311.18A13.84,13.84,0,0,1,193.17,325Z"
            />
            <path class="cls-2" d="M193.17,2A12.84,12.84,0,0,1,206,14.82V311.18A12.84,12.84,0,0,1,193.17,324H14.83A12.84,12.84,0,0,1,2,311.18V14.82A12.84,12.84,0,0,1,14.83,2H193.17m0-2H14.83A14.83,14.83,0,0,0,0,14.82V311.18A14.83,14.83,0,0,0,14.83,326H193.17A14.83,14.83,0,0,0,208,311.18V14.82A14.83,14.83,0,0,0,193.17,0Z"
            />
            <path class="cls-3" d="M21.34,74.47l1.27,0,1.22.07,1.25.12.4.07a23.36,23.36,0,0,1-3-6.28l-.08-.33,0-.48,0-.15,0,0,.09,0,.07.1A3.77,3.77,0,0,0,26.45,70c10.82-2.11-1.37-17.15-5.11-20.43C18,53,8.71,63.17,13,68.57a4.57,4.57,0,0,0,4.82,1.21l.73-.33.33-.24L19.2,69l.24-.26.18-.27.31-.52.19-.38.07-.1.09,0,0,0,0,.15,0,.48-.07.33a23.21,23.21,0,0,1-3,6.28l.4-.07,1.25-.12,1.22-.07"
            />
            <path class="cls-3" d="M186.78,74.47l1.27,0,1.22.07,1.25.12.4.07a23.69,23.69,0,0,1-3-6.28l-.07-.33,0-.48,0-.15,0,0,.09,0,.07.1A3.77,3.77,0,0,0,191.88,70c10.82-2.11-1.36-17.15-5.1-20.43-3.34,3.39-12.63,13.58-8.3,19a4.56,4.56,0,0,0,4.82,1.21l.73-.33.33-.24.28-.24.23-.26.19-.27.31-.52.19-.38.07-.1.09,0,0,0,0,.15,0,.48-.07.33a23.21,23.21,0,0,1-3,6.28l.4-.07,1.25-.12,1.22-.07"
            />
            <path class="cls-3" d="M186.83,251.5l-1.27.05-1.22-.07-1.25-.12-.4-.07a23.6,23.6,0,0,1,3,6.29l.07.33,0,.48,0,.14,0,0-.09,0-.07-.1a3.77,3.77,0,0,0-3.88-2.48c-10.82,2.11,1.36,17.15,5.1,20.43,3.34-3.39,12.63-13.57,8.3-19a4.56,4.56,0,0,0-4.82-1.21l-.73.33-.33.24L189,257l-.23.26-.19.27-.31.52-.19.38-.07.1-.09,0,0,0,0-.14,0-.48.07-.33a23.13,23.13,0,0,1,3-6.29l-.4.07-1.25.12-1.22.07"
            />
            <path class="cls-3" d="M21.39,251.5l-1.27.05-1.22-.07-1.25-.12-.4-.07a23.6,23.6,0,0,1,3,6.29l.07.33,0,.48,0,.14,0,0-.09,0-.07-.1A3.77,3.77,0,0,0,16.29,256c-10.82,2.11,1.36,17.15,5.1,20.43,3.34-3.39,12.63-13.57,8.3-19a4.56,4.56,0,0,0-4.82-1.21l-.73.33-.33.24-.28.24-.23.26-.19.27-.31.52-.19.38-.06.1-.1,0,0,0,0-.14,0-.48.07-.33a23.13,23.13,0,0,1,3-6.29l-.4.07-1.24.12-1.23.07"
            />
            <path class="cls-4" d="M15.34,23.26c5.4-6.65,13.27-1.11,13.32,6.45.27,10.2-10.66,14.77-15,4.35L10.5,35.5c4,9.74,15.34,10.73,20.18,1.19,5.36-10.17-4-24.51-15.1-18.07l-.05-.05.84-6.12H29V8.87H13.37L11.44,22.72l3.11,2.83.09-.72.14-.53.15-.33"
            />
            <path class="cls-4" d="M180.78,23.26c5.39-6.65,13.27-1.11,13.31,6.45.27,10.2-10.65,14.77-15,4.35l-3.2,1.44c4,9.74,15.35,10.73,20.19,1.19,5.36-10.17-4-24.51-15.1-18.07l-.06-.05.85-6.12h12.61V8.87H178.81l-1.94,13.85L180,25.55l.09-.72.15-.53.14-.33"
            />
            <path class="cls-4" d="M192.83,301.12c-5.39,6.65-13.27,1.1-13.32-6.46-.27-10.2,10.66-14.77,15-4.35l3.21-1.44c-4-9.74-15.35-10.73-20.19-1.19-5.36,10.17,4,24.51,15.1,18.07l0,.05-.85,6.12h-12.6v3.59H194.8l1.93-13.86-3.1-2.83-.1.72-.14.53-.14.33"
            />
            <path class="cls-4" d="M27.39,301.12c-5.39,6.65-13.27,1.1-13.31-6.46-.27-10.2,10.65-14.77,15-4.35l3.2-1.44c-4-9.74-15.35-10.73-20.19-1.19-5.36,10.17,4,24.51,15.11,18.07l.05.05-.85,6.12H13.75v3.59H29.36l1.94-13.86-3.11-2.83-.09.72-.15.53-.14.33"
            />
            <path class="cls-3" d="M67.55,69.38l2-.09,1.94.12,2,.19.63.12a37.78,37.78,0,0,1-4.82-10.09l-.12-.53,0-.77,0-.23,0,0,.15,0,.11.16c1.21,2.84,3.18,4,6.18,4,5-.41,7.38-4.11,6.78-9.08-.91-8.36-9.38-17.87-14.9-23.7-5.33,5.45-20.12,21.78-13.22,30.45a7.27,7.27,0,0,0,7.68,2l1.16-.53.52-.39.45-.38.37-.43.3-.42.49-.84.3-.61.11-.16.15,0,0,0,0,.23,0,.77-.12.53A37.8,37.8,0,0,1,61,69.72l.63-.12,2-.19,1.94-.12"
            />
            <path class="cls-3" d="M140.35,69.38l2-.09,1.94.12,2,.19.63.12a37.78,37.78,0,0,1-4.82-10.09L142,59.1l0-.77,0-.23,0,0,.15,0,.11.16c1.21,2.84,3.18,4,6.18,4,5-.41,7.38-4.11,6.78-9.08-.91-8.36-9.38-17.87-14.9-23.7-5.32,5.45-20.11,21.78-13.22,30.45a7.28,7.28,0,0,0,7.68,2l1.16-.53.52-.39.45-.38.37-.43.31-.42.48-.84.31-.61.1-.16.16,0,0,0,0,.23,0,.77-.12.53a37.8,37.8,0,0,1-4.82,10.09l.63-.12,2-.19,1.94-.12"
            />
            <path class="cls-3" d="M104,183.3l2-.08,2,.12,2,.19.64.12a38.12,38.12,0,0,1-4.83-10.09l-.11-.53,0-.77,0-.23,0,0,.14,0,.12.16c1.2,2.84,3.17,4,6.18,4,5-.41,7.37-4.12,6.78-9.08-.91-8.37-9.38-17.87-14.91-23.7-5.32,5.44-20.11,21.78-13.21,30.45a7.26,7.26,0,0,0,7.67,1.95l1.17-.54.52-.38.44-.38.38-.43.3-.43.49-.84.3-.6.1-.16.16,0,0,0,0,.23,0,.77-.11.53a37.83,37.83,0,0,1-4.83,10.09l.64-.12,2-.19,2-.12"
            />
            <path class="cls-3" d="M140.33,255.39l-2,.08-1.95-.12-2-.19-.64-.12a38.12,38.12,0,0,1,4.83,10.09l.11.53,0,.77,0,.23,0,0-.14,0-.12-.16c-1.2-2.83-3.17-4-6.18-4-5,.41-7.37,4.12-6.78,9.09.91,8.36,9.38,17.86,14.91,23.69,5.32-5.44,20.11-21.77,13.21-30.45a7.24,7.24,0,0,0-7.67-1.94l-1.17.53-.52.38-.44.38-.38.43-.3.43-.49.84-.3.6-.1.16-.16,0,0,0,0-.23,0-.77.11-.53A37.52,37.52,0,0,1,146.92,255l-.64.12-2,.19-2,.12"
            />
            <path class="cls-3" d="M67.53,255.39l-2,.08-2-.12-2-.19-.64-.12a38.12,38.12,0,0,1,4.83,10.09l.11.53,0,.77,0,.23,0,0-.14,0-.12-.16c-1.2-2.83-3.17-4-6.18-4-5,.41-7.37,4.12-6.78,9.09C53.53,280,62,289.47,67.53,295.3c5.32-5.44,20.11-21.77,13.21-30.45a7.24,7.24,0,0,0-7.67-1.94l-1.17.53-.52.38-.44.38-.38.43-.3.43-.49.84-.3.6-.1.16-.16,0,0,0,0-.23,0-.77.11-.53A37.52,37.52,0,0,1,74.12,255l-.64.12-2,.19-2,.12"
            />
        </g>
    </g>
</svg>
