<svg xmlns="http://www.w3.org/2000/svg" viewBox="0 0 208 326">
    <defs>
        <style>
            .cls-1 {
                fill: #fff;
            }

            .cls-2 {
                fill: #6f7072;
            }
        </style>
    </defs>
    <title>6C-fr-2c</title>
    <g id="Calque_2" data-name="Calque 2">
        <g id="FR_-_EN" data-name="FR - EN">
            <path class="cls-1" d="M14.83,325A13.84,13.84,0,0,1,1,311.18V14.82A13.84,13.84,0,0,1,14.83,1H193.17A13.84,13.84,0,0,1,207,14.82V311.18A13.84,13.84,0,0,1,193.16,325Z"
            />
            <path class="cls-2" d="M193.17,2A12.84,12.84,0,0,1,206,14.82V309.18h0v2A12.84,12.84,0,0,1,193.16,324H14.83A12.84,12.84,0,0,1,2,311.18V14.82A12.84,12.84,0,0,1,14.83,2H193.17m0-2H14.83A14.83,14.83,0,0,0,0,14.82V311.18A14.83,14.83,0,0,0,14.83,326H193.16A14.83,14.83,0,0,0,208,311.18h0V14.82A14.83,14.83,0,0,0,193.17,0Z"
            />
            <path d="M22,38.56a7.8,7.8,0,0,1-7.52-4.39,10.26,10.26,0,0,1-1-4.22h0V20.44c0-6,3-9.52,8-9.52,4.06,0,6,1.93,7,3.55a7.65,7.65,0,0,1,1,3.56l-3.21,0c0-.65-.3-3.9-4.78-3.9-3.95,0-4.78,3.42-4.78,6.29v2.67a7.8,7.8,0,0,1,5.15-1.73c7.06,0,8.64,6.43,8.64,8.69a8.65,8.65,0,0,1-2.14,6.26A8.53,8.53,0,0,1,22,38.56ZM16.61,30c0,.56.22,5.37,5.35,5.37a5.52,5.52,0,0,0,4-1.28,5.54,5.54,0,0,0,1.2-3.91c0-.13-.14-5.53-5.43-5.53C16.91,24.61,16.62,29.81,16.61,30Z"
            />
            <path d="M186,38.56a7.8,7.8,0,0,1-7.52-4.39,10.08,10.08,0,0,1-1-4.22h0V20.44c0-6,3-9.52,8-9.52,4.06,0,6,1.93,7,3.55a7.65,7.65,0,0,1,1,3.56l-3.21,0c0-.65-.3-3.9-4.78-3.9-3.95,0-4.78,3.42-4.78,6.29v2.67a7.8,7.8,0,0,1,5.15-1.73c7.06,0,8.64,6.43,8.64,8.69a8.65,8.65,0,0,1-2.14,6.26A8.53,8.53,0,0,1,186,38.56ZM180.61,30c0,.56.22,5.37,5.35,5.37a5.52,5.52,0,0,0,4-1.28,5.54,5.54,0,0,0,1.2-3.91c0-.13-.15-5.53-5.43-5.53C180.91,24.61,180.62,29.81,180.61,30Z"
            />
            <path d="M185.84,287.16a7.81,7.81,0,0,1,7.53,4.39,10.17,10.17,0,0,1,1,4.22h0v9.51c0,6-3,9.52-8,9.52-4.06,0-6-1.93-7-3.55a7.65,7.65,0,0,1-1-3.56l3.22,0c0,.65.29,3.9,4.77,3.9,4,0,4.78-3.42,4.78-6.29v-2.67a7.8,7.8,0,0,1-5.15,1.73c-7.06,0-8.64-6.43-8.64-8.69,0-1.06,0-4.1,2.15-6.26A8.49,8.49,0,0,1,185.84,287.16Zm5.35,8.6c0-.56-.22-5.37-5.35-5.37a4.49,4.49,0,0,0-5.23,5.2c0,.12.15,5.53,5.43,5.53C190.9,301.12,191.18,295.91,191.19,295.76Z"
            />
            <path d="M21.84,287.21a7.81,7.81,0,0,1,7.53,4.39,10.17,10.17,0,0,1,1,4.22h0v9.51c0,6-3,9.52-8,9.52-4.06,0-6-1.93-7-3.55a7.65,7.65,0,0,1-1-3.56l3.22,0c0,.65.3,3.9,4.77,3.9,3.95,0,4.78-3.42,4.78-6.29v-2.67a7.75,7.75,0,0,1-5.14,1.73c-7.06,0-8.65-6.43-8.65-8.69,0-1.06,0-4.1,2.15-6.26A8.49,8.49,0,0,1,21.84,287.21Zm5.35,8.6c0-.56-.22-5.37-5.35-5.37a5.49,5.49,0,0,0-4,1.28,5.52,5.52,0,0,0-1.21,3.92c0,.12.15,5.53,5.43,5.53C26.9,301.17,27.18,296,27.19,295.81Z"
            />
            <path d="M28,53c-1.8,0-2.87,1.67-3.95,2.32a1.31,1.31,0,0,1-.8.2A1.68,1.68,0,0,1,23,53.64c.62-1.12,2.24-2.23,2.24-4.09s-1-3.62-3.32-3.62-3.32,1.76-3.32,3.62,1.62,3,2.24,4.09a1.67,1.67,0,0,1-.19,1.83,1.31,1.31,0,0,1-.8-.2C18.81,54.62,17.73,53,15.94,53a3.44,3.44,0,1,0,0,6.88c1.79,0,2.87-1.68,3.94-2.33a1.36,1.36,0,0,1,.91-.19c.95,3.37-2.16,8.62-2.16,8.62A10.41,10.41,0,0,1,22,65.47a10.3,10.3,0,0,1,3.31.46S21.74,60.6,23,57.33a1.37,1.37,0,0,1,1,.17c1.07.65,2.15,2.33,3.94,2.33A3.44,3.44,0,1,0,28,53Z"
            />
            <path d="M191.91,52.91c-1.8,0-2.87,1.67-3.95,2.32a1.31,1.31,0,0,1-.8.2A1.68,1.68,0,0,1,187,53.6c.63-1.12,2.24-2.23,2.24-4.09s-1-3.62-3.32-3.62-3.32,1.76-3.32,3.62,1.62,3,2.24,4.09a1.67,1.67,0,0,1-.19,1.83,1.26,1.26,0,0,1-.79-.2c-1.08-.65-2.16-2.32-4-2.32a3.44,3.44,0,1,0,0,6.88c1.79,0,2.87-1.68,4-2.33a1.34,1.34,0,0,1,.9-.19c.95,3.37-2.16,8.62-2.16,8.62a12.21,12.21,0,0,1,6.64,0s-3.53-5.33-2.26-8.6a1.32,1.32,0,0,1,1,.17c1.07.65,2.15,2.33,3.95,2.33a3.44,3.44,0,1,0,0-6.88Z"
            />
            <path d="M179.89,272.77c1.8,0,2.87-1.67,4-2.32a1.31,1.31,0,0,1,.8-.2,1.68,1.68,0,0,1,.18,1.83c-.63,1.12-2.24,2.23-2.24,4.09s1,3.62,3.32,3.62,3.32-1.76,3.32-3.62-1.62-3-2.24-4.09a1.67,1.67,0,0,1,.19-1.83,1.26,1.26,0,0,1,.79.2c1.08.65,2.15,2.32,3.95,2.32a3.44,3.44,0,1,0,0-6.88c-1.8,0-2.87,1.68-3.95,2.33a1.27,1.27,0,0,1-.9.18c-.95-3.36,2.16-8.61,2.16-8.61a12.21,12.21,0,0,1-6.64,0s3.53,5.33,2.26,8.6a1.37,1.37,0,0,1-1-.17c-1.07-.65-2.15-2.33-4-2.33a3.44,3.44,0,1,0,0,6.88Z"
            />
            <path d="M15.89,272.77c1.8,0,2.87-1.67,3.95-2.32a1.31,1.31,0,0,1,.8-.2,1.68,1.68,0,0,1,.18,1.83c-.63,1.12-2.24,2.23-2.24,4.09s1,3.62,3.32,3.62,3.32-1.76,3.32-3.62-1.62-3-2.24-4.09a1.67,1.67,0,0,1,.19-1.83,1.26,1.26,0,0,1,.79.2c1.08.65,2.16,2.32,3.95,2.32a3.44,3.44,0,1,0,0-6.88c-1.79,0-2.87,1.68-3.95,2.33a1.27,1.27,0,0,1-.9.18c-.95-3.36,2.16-8.61,2.16-8.61a10.41,10.41,0,0,1-3.32.46,10.41,10.41,0,0,1-3.32-.46s3.53,5.33,2.26,8.6a1.37,1.37,0,0,1-1-.17c-1.07-.65-2.15-2.33-3.95-2.33a3.44,3.44,0,1,0,0,6.88Z"
            />
            <path d="M62.21,40.92c5.59,0,8,4.11,8,8.43s-3.87,6.92-5.38,9.52a8,8,0,0,0-1.07,5h-3a8,8,0,0,0-1.08-5c-1.5-2.6-5.38-5.19-5.38-9.52S56.62,40.92,62.21,40.92Z"
            />
            <path d="M85,65.69c0,5.62-4.09,8-8.39,8s-6.89-3.89-9.47-5.4a7.83,7.83,0,0,0-4.95-1.09v-3a7.83,7.83,0,0,0,4.95-1.09c2.58-1.51,5.17-5.4,9.47-5.4S85,60.07,85,65.69Z"
            />
            <path d="M38,65.69c0-5.62,4.08-8,8.39-8s6.88,3.89,9.46,5.4a7.83,7.83,0,0,0,4.95,1.09v3a7.83,7.83,0,0,0-4.95,1.09c-2.58,1.51-5.16,5.4-9.46,5.4S38,71.32,38,65.69Z"
            />
            <path d="M63.87,62V74.14c0,5.7,8.06,11.22,8.06,11.22H52.49s8.06-5.52,8.06-11.22V62Z" />
            <path d="M148,40.92c5.59,0,8,4.11,8,8.43s-3.87,6.92-5.38,9.52a8,8,0,0,0-1.08,5h-3a8,8,0,0,0-1.07-5c-1.51-2.6-5.38-5.19-5.38-9.52S142.39,40.92,148,40.92Z"
            />
            <path d="M170.79,65.69c0,5.62-4.08,8-8.39,8s-6.88-3.89-9.46-5.4A7.83,7.83,0,0,0,148,67.2v-3a7.83,7.83,0,0,0,4.95-1.09c2.58-1.51,5.16-5.4,9.46-5.4S170.79,60.07,170.79,65.69Z"
            />
            <path d="M123.76,65.69c0-5.62,4.09-8,8.39-8s6.89,3.89,9.47,5.4a7.83,7.83,0,0,0,4.95,1.09v3a7.83,7.83,0,0,0-4.95,1.09c-2.58,1.51-5.16,5.4-9.47,5.4S123.76,71.32,123.76,65.69Z"
            />
            <path d="M149.65,62V74.14c0,5.7,8.06,11.22,8.06,11.22H138.26s8.07-5.52,8.07-11.22V62Z" />
            <path d="M61.5,138.4c5.59,0,8,4.11,8,8.43s-3.87,6.93-5.38,9.52a8,8,0,0,0-1.07,5H60a8,8,0,0,0-1.08-5c-1.51-2.59-5.38-5.19-5.38-9.52S55.91,138.4,61.5,138.4Z"
            />
            <path d="M84.3,163.17c0,5.63-4.08,8-8.38,8s-6.89-3.9-9.47-5.41a7.86,7.86,0,0,0-5-1.08v-3a7.86,7.86,0,0,0,5-1.08c2.58-1.52,5.16-5.41,9.47-5.41S84.3,157.55,84.3,163.17Z"
            />
            <path d="M37.28,163.18c0-5.63,4.08-8,8.39-8s6.88,3.89,9.46,5.41a7.86,7.86,0,0,0,4.95,1.08v3a7.86,7.86,0,0,0-4.95,1.08c-2.58,1.51-5.16,5.41-9.46,5.41S37.28,168.8,37.28,163.18Z"
            />
            <path d="M63.16,159.51v12.12c0,5.7,8.07,11.22,8.07,11.22H51.78s8.06-5.52,8.06-11.22V159.51Z" />
            <path d="M62.21,284.79c5.59,0,8-4.11,8-8.43s-3.87-6.93-5.38-9.52a8,8,0,0,1-1.07-5h-3a8,8,0,0,1-1.08,5c-1.5,2.59-5.38,5.19-5.38,9.52S56.62,284.79,62.21,284.79Z"
            />
            <path d="M85,260c0-5.63-4.09-8-8.39-8s-6.89,3.9-9.47,5.41a7.86,7.86,0,0,1-4.95,1.08v3a7.86,7.86,0,0,1,4.95,1.08c2.58,1.52,5.17,5.41,9.47,5.41S85,265.64,85,260Z"
            />
            <path d="M38,260c0,5.62,4.08,8,8.39,8s6.88-3.9,9.46-5.41a7.86,7.86,0,0,1,4.95-1.08v-3a7.86,7.86,0,0,1-4.95-1.08c-2.58-1.51-5.16-5.41-9.46-5.41S38,254.39,38,260Z"
            />
            <path d="M63.87,263.68V251.56c0-5.7,8.06-11.22,8.06-11.22H52.49s8.06,5.52,8.06,11.22v12.12Z" />
            <path d="M148,284.79c5.59,0,8-4.11,8-8.43s-3.87-6.93-5.38-9.52a8,8,0,0,1-1.08-5h-3a8,8,0,0,1-1.07,5c-1.51,2.59-5.38,5.19-5.38,9.52S142.39,284.79,148,284.79Z"
            />
            <path d="M170.79,260c0-5.63-4.08-8-8.39-8s-6.88,3.9-9.46,5.41A7.86,7.86,0,0,1,148,258.5v3a7.86,7.86,0,0,1,4.95,1.08c2.58,1.52,5.16,5.41,9.46,5.41S170.79,265.64,170.79,260Z"
            />
            <path d="M123.76,260c0,5.62,4.09,8,8.39,8s6.89-3.9,9.47-5.41a7.86,7.86,0,0,1,4.95-1.08v-3a7.86,7.86,0,0,1-4.95-1.08c-2.58-1.51-5.16-5.41-9.47-5.41S123.76,254.39,123.76,260Z"
            />
            <path d="M149.65,263.68V251.56c0-5.7,8.06-11.22,8.06-11.22H138.26s8.07,5.52,8.07,11.22v12.12Z" />
            <path d="M147.28,182.85c5.59,0,8-4.11,8-8.44s-3.88-6.92-5.38-9.51a8,8,0,0,1-1.08-5h-3a8,8,0,0,1-1.08,5c-1.5,2.59-5.37,5.19-5.37,9.51S141.68,182.85,147.28,182.85Z"
            />
            <path d="M170.08,158.07c0-5.62-4.08-8-8.39-8s-6.88,3.89-9.46,5.41a7.86,7.86,0,0,1-4.95,1.08v3a7.78,7.78,0,0,1,4.95,1.08c2.58,1.51,5.16,5.41,9.46,5.41S170.08,163.7,170.08,158.07Z"
            />
            <path d="M123.05,158.07c0,5.63,4.09,8,8.39,8s6.89-3.9,9.47-5.41a7.78,7.78,0,0,1,5-1.08v-3a7.86,7.86,0,0,1-5-1.08c-2.58-1.52-5.17-5.41-9.47-5.41S123.05,152.45,123.05,158.07Z"
            />
            <path d="M148.94,161.74V149.62c0-5.7,8.06-11.22,8.06-11.22H137.56s8.06,5.52,8.06,11.22v12.12Z" />
        </g>
    </g>
</svg>
