<svg xmlns="http://www.w3.org/2000/svg" viewBox="0 0 208 326">
    <defs>
        <style>
            .cls-1 {
                fill: #fff;
            }

            .cls-2 {
                fill: #6f7072;
            }

            .cls-3 {
                fill: #f72014;
            }
        </style>
    </defs>
    <title>6D-fr-2c</title>
    <g id="Calque_2" data-name="Calque 2">
        <g id="FR_-_EN" data-name="FR - EN">
            <path class="cls-1" d="M14.83,325A13.84,13.84,0,0,1,1,311.18V14.82A13.84,13.84,0,0,1,14.83,1H193.17A13.84,13.84,0,0,1,207,14.82V311.18A13.84,13.84,0,0,1,193.17,325Z"
            />
            <path class="cls-2" d="M193.17,2A12.84,12.84,0,0,1,206,14.82V311.18A12.84,12.84,0,0,1,193.17,324H14.83A12.84,12.84,0,0,1,2,311.18V14.82A12.84,12.84,0,0,1,14.83,2H193.17m0-2H14.83A14.83,14.83,0,0,0,0,14.82V311.18A14.82,14.82,0,0,0,14.83,326H193.17A14.83,14.83,0,0,0,208,311.18V14.82A14.83,14.83,0,0,0,193.17,0Z"
            />
            <path class="cls-3" d="M22,45.84s3.67,8.07,9.1,10.11A23.7,23.7,0,0,0,22,65.84s-1.63-5.81-8.9-10A17.25,17.25,0,0,0,22,45.84Z"
            />
            <path class="cls-3" d="M185.9,46s3.67,8.08,9.1,10.12A23.63,23.63,0,0,0,185.9,66s-1.63-5.81-8.9-10A17.17,17.17,0,0,0,185.9,46Z"
            />
            <path class="cls-3" d="M21.9,260.09s3.67,8.07,9.1,10.11a23.62,23.62,0,0,0-9.1,9.89s-1.63-5.82-8.9-10A17.18,17.18,0,0,0,21.9,260.09Z"
            />
            <path class="cls-3" d="M185.9,259.85s3.67,8.08,9.1,10.11a23.7,23.7,0,0,0-9.1,9.89s-1.63-5.81-8.9-10A17.21,17.21,0,0,0,185.9,259.85Z"
            />
            <path class="cls-3" d="M147.58,41.58s9.63,19.23,23.9,24.08a59.54,59.54,0,0,0-23.9,23.54s-4.29-13.84-23.37-23.81C124.2,65.39,141,59.19,147.58,41.58Z"
            />
            <path class="cls-3" d="M60.11,41.58S69.74,60.81,84,65.66A59.54,59.54,0,0,0,60.11,89.2S55.82,75.36,36.74,65.39C36.73,65.39,53.5,59.19,60.11,41.58Z"
            />
            <path class="cls-3" d="M147.58,139.16s9.63,19.22,23.9,24.07a59.54,59.54,0,0,0-23.9,23.54s-4.29-13.84-23.37-23.81C124.2,163,141,156.76,147.58,139.16Z"
            />
            <path class="cls-3" d="M60.11,137.75S69.74,157,84,161.83a59.46,59.46,0,0,0-23.9,23.54s-4.29-13.84-23.37-23.81C36.73,161.56,53.5,155.36,60.11,137.75Z"
            />
            <path class="cls-3" d="M147.58,236.65s9.63,19.22,23.9,24.07a59.54,59.54,0,0,0-23.9,23.54s-4.29-13.84-23.37-23.81C124.2,260.45,141,254.26,147.58,236.65Z"
            />
            <path class="cls-3" d="M60.11,236.65s9.63,19.22,23.9,24.07a59.54,59.54,0,0,0-23.9,23.54s-4.29-13.84-23.37-23.81C36.73,260.45,53.5,254.26,60.11,236.65Z"
            />
            <path class="cls-3" d="M22.07,38.66a7.81,7.81,0,0,1-7.53-4.39,10.23,10.23,0,0,1-1-4.21h0V20.54c0-6,3-9.52,8-9.52,4.06,0,6,1.93,7,3.55a7.65,7.65,0,0,1,1,3.57H26.27c0-.65-.3-3.9-4.78-3.9-3.95,0-4.78,3.42-4.78,6.29v2.67a7.8,7.8,0,0,1,5.15-1.73c7.06,0,8.65,6.44,8.65,8.69,0,1.06,0,4.1-2.15,6.27A8.54,8.54,0,0,1,22.07,38.66Zm-5.35-8.6c0,.56.21,5.37,5.35,5.37a5.49,5.49,0,0,0,4-1.28,5.51,5.51,0,0,0,1.21-3.91c0-.12-.15-5.53-5.43-5.53C17,24.71,16.73,29.91,16.72,30.06Z"
            />
            <path class="cls-3" d="M186.07,38.66a7.81,7.81,0,0,1-7.53-4.39,10.23,10.23,0,0,1-1-4.21h0V20.54c0-6,3-9.52,8-9.52,4.07,0,6,1.93,7,3.55a7.78,7.78,0,0,1,1,3.57h-3.22c0-.65-.3-3.9-4.78-3.9-4,0-4.78,3.42-4.78,6.29v2.67a7.8,7.8,0,0,1,5.15-1.73c7.06,0,8.65,6.44,8.65,8.69,0,1.06,0,4.1-2.15,6.27A8.52,8.52,0,0,1,186.07,38.66Zm-5.36-8.6c0,.56.22,5.37,5.36,5.37a5.51,5.51,0,0,0,4-1.28,5.51,5.51,0,0,0,1.21-3.91c0-.12-.15-5.53-5.44-5.53C181,24.71,180.72,29.91,180.71,30.06Z"
            />
            <path class="cls-3" d="M185.94,287.26a7.81,7.81,0,0,1,7.53,4.39,10.26,10.26,0,0,1,1,4.22h0v9.51c0,6-3,9.53-8,9.53-4.06,0-6-1.94-7-3.56a7.65,7.65,0,0,1-1-3.56l3.22,0c0,.66.3,3.91,4.77,3.91,4,0,4.79-3.43,4.79-6.3v-2.66a7.8,7.8,0,0,1-5.15,1.73c-7.06,0-8.65-6.44-8.65-8.7a8.73,8.73,0,0,1,2.15-6.26A8.5,8.5,0,0,1,185.94,287.26Zm5.36,8.61c0-.56-.22-5.38-5.35-5.38a4.48,4.48,0,0,0-5.23,5.2c0,.12.14,5.53,5.43,5.53C191,301.22,191.29,296,191.3,295.87Z"
            />
            <path class="cls-3" d="M22,287.31a7.8,7.8,0,0,1,7.52,4.39,10.26,10.26,0,0,1,1,4.22h0v9.51c0,6-3,9.53-8,9.53-4.07,0-6-1.94-7-3.56a7.79,7.79,0,0,1-1-3.56l3.22,0c0,.66.3,3.91,4.78,3.91,3.95,0,4.78-3.43,4.78-6.3v-2.66a7.8,7.8,0,0,1-5.15,1.73c-7.06,0-8.65-6.44-8.65-8.7a8.73,8.73,0,0,1,2.15-6.26A8.53,8.53,0,0,1,22,287.31Zm5.34,8.61c0-.56-.21-5.38-5.35-5.38a5.51,5.51,0,0,0-4,1.28,5.52,5.52,0,0,0-1.21,3.92c0,.12.15,5.53,5.44,5.53C27,301.27,27.29,296.06,27.29,295.92Z"
            />
        </g>
    </g>
</svg>
