<svg xmlns="http://www.w3.org/2000/svg" viewBox="0 0 208 326">
    <defs>
        <style>
            .cls-1 {
                fill: #fff;
            }

            .cls-2 {
                fill: #6f7072;
            }

            .cls-3 {
                fill: #f5a11a;
            }
        </style>
    </defs>
    <title>6D-us-4c</title>
    <g id="Calque_2" data-name="Calque 2">
        <g id="FR_-_EN" data-name="FR - EN">
            <path class="cls-1" d="M14.83,325A13.84,13.84,0,0,1,1,311.18V14.82A13.84,13.84,0,0,1,14.83,1H193.17A13.84,13.84,0,0,1,207,14.82V311.18A13.84,13.84,0,0,1,193.17,325Z"
            />
            <path class="cls-2" d="M193.17,2A12.84,12.84,0,0,1,206,14.82V311.18A12.84,12.84,0,0,1,193.17,324H14.83A12.84,12.84,0,0,1,2,311.18V14.82A12.84,12.84,0,0,1,14.83,2H193.17m0-2H14.83A14.83,14.83,0,0,0,0,14.82V311.18A14.82,14.82,0,0,0,14.83,326H193.17A14.82,14.82,0,0,0,208,311.18V14.82A14.82,14.82,0,0,0,193.17,0Z"
            />
            <path class="cls-3" d="M178.05,263.9a64.1,64.1,0,0,1,8.76,12.75,63.4,63.4,0,0,1,8.76-12.75,63.05,63.05,0,0,1-8.76-12.74,65.58,65.58,0,0,1-8.05,12"
            />
            <path class="cls-3" d="M12.61,263.9a64.1,64.1,0,0,1,8.76,12.75,63.4,63.4,0,0,1,8.76-12.75,63.05,63.05,0,0,1-8.76-12.74,65.58,65.58,0,0,1-8,12"
            />
            <path class="cls-3" d="M178.05,62.21A63.75,63.75,0,0,1,186.81,75a63.05,63.05,0,0,1,8.76-12.74,63.33,63.33,0,0,1-8.76-12.74,65.5,65.5,0,0,1-8.05,12"
            />
            <path class="cls-3" d="M12.61,62.21A63.75,63.75,0,0,1,21.37,75a63.05,63.05,0,0,1,8.76-12.74,63.33,63.33,0,0,1-8.76-12.74,65.5,65.5,0,0,1-8,12"
            />
            <path class="cls-3" d="M12.23,35.07c2.08,9.15,12.48,12.09,17.35,3.39C35.22,29.38,26.2,15,16,22.59l0-.14-.09-.81,0-1,.38-2.05.51-2.35,1-1.76c2.74-4.13,9-2.9,10.06,2.34l2.92-.72C29.34,11.77,25.18,7.55,20.37,9,12,10.86,10.86,25.69,11.62,32.15m3.67-.66c1-10.2,11.64-10.17,12.61,0,.1,10.83-11.44,12.12-12.61,1.14Z"
            />
            <path class="cls-3" d="M177.67,35.07c2.07,9.15,12.48,12.09,17.35,3.39,5.64-9.08-3.39-23.48-13.63-15.87l0-.14-.09-.81,0-1,.38-2.05.51-2.35.95-1.76c2.74-4.13,9-2.9,10.06,2.34l2.92-.72c-1.33-4.32-5.49-8.54-10.3-7.12-8.33,1.89-9.51,16.72-8.76,23.18m3.68-.66c1-10.2,11.64-10.17,12.6,0,.11,10.83-11.44,12.12-12.6,1.14Z"
            />
            <path class="cls-3" d="M196,289.44c-2.08-9.14-12.48-12.08-17.35-3.38-5.64,9.07,3.39,23.48,13.63,15.86l.05.15.09.81,0,1-.38,2.05-.51,2.35-.95,1.77c-2.74,4.12-9,2.9-10.06-2.34l-2.91.72c1.32,4.31,5.48,8.54,10.29,7.11,8.33-1.89,9.51-16.72,8.75-23.18m-3.67.67c-1,10.2-11.64,10.17-12.6,0-.11-10.83,11.44-12.13,12.6-1.15Z"
            />
            <path class="cls-3" d="M30.51,289.44c-2.07-9.14-12.48-12.08-17.35-3.38-5.64,9.07,3.39,23.48,13.63,15.86l.05.15.09.81,0,1-.38,2.05L26,308.28l-.95,1.77c-2.74,4.12-9,2.9-10.06-2.34l-2.91.72c1.32,4.31,5.48,8.54,10.29,7.11,8.33-1.89,9.51-16.72,8.76-23.18m-3.68.67c-1,10.2-11.64,10.17-12.6,0-.11-10.83,11.44-12.13,12.6-1.15Z"
            />
            <path class="cls-3" d="M122.83,163.05a128,128,0,0,1,17.51,25.5,126.93,126.93,0,0,1,17.52-25.5,126.51,126.51,0,0,1-17.52-25.48,131.51,131.51,0,0,1-16.1,23.92"
            />
            <path class="cls-3" d="M50,163.05a128,128,0,0,1,17.51,25.5,126.93,126.93,0,0,1,17.52-25.5,126.51,126.51,0,0,1-17.52-25.48,131.51,131.51,0,0,1-16.1,23.92"
            />
            <path class="cls-3" d="M122.83,50.87a127.93,127.93,0,0,1,17.51,25.49,126.58,126.58,0,0,1,17.52-25.49,126.86,126.86,0,0,1-17.52-25.49,131.16,131.16,0,0,1-16.1,23.92"
            />
            <path class="cls-3" d="M50,50.87A127.93,127.93,0,0,1,67.54,76.36,126.58,126.58,0,0,1,85.06,50.87,126.86,126.86,0,0,1,67.54,25.38,131.16,131.16,0,0,1,51.44,49.3"
            />
            <path class="cls-3" d="M122.83,275.24a128.22,128.22,0,0,1,17.51,25.49,126.86,126.86,0,0,1,17.52-25.49,126.58,126.58,0,0,1-17.52-25.49,130.82,130.82,0,0,1-16.1,23.92"
            />
            <path class="cls-3" d="M50,275.24a128.22,128.22,0,0,1,17.51,25.49,126.86,126.86,0,0,1,17.52-25.49,126.58,126.58,0,0,1-17.52-25.49,130.82,130.82,0,0,1-16.1,23.92"
            />
        </g>
    </g>
</svg>
