<svg xmlns="http://www.w3.org/2000/svg" viewBox="0 0 208 326">
    <defs>
        <style>
            .cls-1 {
                fill: #fff;
            }

            .cls-2 {
                fill: #6f7072;
            }

            .cls-3 {
                fill: #f72014;
            }
        </style>
    </defs>
    <title>6H-fr-2c</title>
    <g id="Calque_2" data-name="Calque 2">
        <g id="FR_-_EN" data-name="FR - EN">
            <path class="cls-1" d="M14.83,325A13.84,13.84,0,0,1,1,311.18V14.82A13.84,13.84,0,0,1,14.83,1H193.17A13.84,13.84,0,0,1,207,14.82V311.18A13.84,13.84,0,0,1,193.17,325Z"
            />
            <path class="cls-2" d="M193.17,2A12.84,12.84,0,0,1,206,14.82V311.18A12.84,12.84,0,0,1,193.17,324H14.83A12.84,12.84,0,0,1,2,311.18V14.82A12.84,12.84,0,0,1,14.83,2H193.17m0-2H14.83A14.83,14.83,0,0,0,0,14.82V311.18A14.82,14.82,0,0,0,14.83,326H193.17A14.83,14.83,0,0,0,208,311.18V14.82A14.83,14.83,0,0,0,193.17,0Z"
            />
            <path class="cls-3" d="M60.32,90.1S60.61,87,68,79.62,83,65.19,84.62,56.91C85.72,51.34,83.2,41,71.06,41c-9.61,0-10.74,12.49-10.74,12.49S59.19,41,49.59,41C37.44,41,34.93,51.34,36,56.91c1.64,8.28,9.33,15.33,16.67,22.71S60.32,90.1,60.32,90.1Z"
            />
            <path class="cls-3" d="M147.8,90.1s.28-3.09,7.62-10.48,15-14.43,16.67-22.71c1.1-5.57-1.41-15.91-13.56-15.91-9.6,0-10.73,12.49-10.73,12.49S146.67,41,137.06,41c-12.14,0-14.66,10.34-13.56,15.91,1.65,8.28,9.33,15.33,16.67,22.71S147.8,90.1,147.8,90.1Z"
            />
            <path class="cls-3" d="M147.8,235.83s-.29,3.09-7.63,10.47-15,14.43-16.67,22.72c-1.09,5.57,1.42,15.9,13.56,15.9,9.61,0,10.74-12.49,10.74-12.49s1.13,12.49,10.73,12.49c12.15,0,14.67-10.33,13.56-15.9-1.64-8.28-9.32-15.33-16.67-22.72S147.8,235.83,147.8,235.83Z"
            />
            <path class="cls-3" d="M60.33,235.83S60,238.92,52.7,246.3,37.68,260.73,36,269c-1.1,5.57,1.41,15.9,13.56,15.9,9.6,0,10.74-12.49,10.74-12.49s1.13,12.49,10.73,12.49c12.14,0,14.66-10.33,13.56-15.9C83,260.74,75.29,253.69,68,246.3S60.33,235.83,60.33,235.83Z"
            />
            <path class="cls-3" d="M60.31,185.89s.29-1.95,7.63-9.33,15-14.44,16.67-22.72c1.1-5.57-1.42-15.91-13.56-15.91-9.61,0-10.74,12.49-10.74,12.49s-1.13-12.49-10.73-12.49c-12.15,0-14.66,10.34-13.56,15.91,1.64,8.28,9.33,15.33,16.67,22.72S60.31,185.89,60.31,185.89Z"
            />
            <path class="cls-3" d="M147.75,137.93s-.28,1.95-7.62,9.33-15,14.44-16.68,22.72c-1.09,5.57,1.42,15.91,13.57,15.91,9.6,0,10.73-12.5,10.73-12.5s1.14,12.5,10.74,12.5c12.14,0,14.66-10.34,13.56-15.91-1.65-8.28-9.33-15.33-16.67-22.72S147.75,137.93,147.75,137.93Z"
            />
            <path class="cls-3" d="M22.06,38.64c-4.42,0-6.53-2.38-7.52-4.39a10.05,10.05,0,0,1-1-4.21h0V20.52c0-6,3-9.52,8-9.52,4.06,0,6,1.93,7,3.55a7.67,7.67,0,0,1,1,3.57H26.26c0-.65-.29-3.9-4.77-3.9-3.95,0-4.78,3.42-4.78,6.29v2.67a7.8,7.8,0,0,1,5.15-1.73c7.06,0,8.64,6.44,8.64,8.69a8.65,8.65,0,0,1-2.15,6.27A8.52,8.52,0,0,1,22.06,38.64ZM16.71,30c0,.56.22,5.37,5.35,5.37a5.49,5.49,0,0,0,4-1.28,5.5,5.5,0,0,0,1.21-3.91c0-.12-.14-5.53-5.43-5.53C17,24.69,16.72,29.89,16.71,30Z"
            />
            <path class="cls-3" d="M186.06,38.64a7.8,7.8,0,0,1-7.53-4.39,10.14,10.14,0,0,1-1-4.21h0V20.52c0-6,3-9.52,8-9.52,4.06,0,6,1.93,7,3.55a7.67,7.67,0,0,1,1,3.57h-3.21c0-.65-.3-3.9-4.78-3.9-4,0-4.78,3.42-4.78,6.29v2.67a7.8,7.8,0,0,1,5.15-1.73c7,0,8.64,6.44,8.64,8.69,0,1.06,0,4.1-2.14,6.27A8.56,8.56,0,0,1,186.06,38.64ZM180.71,30c0,.56.22,5.37,5.35,5.37a5.49,5.49,0,0,0,4-1.28,5.5,5.5,0,0,0,1.21-3.91c0-.12-.15-5.53-5.43-5.53C181,24.69,180.72,29.89,180.71,30Z"
            />
            <path class="cls-3" d="M185.94,287.24a7.8,7.8,0,0,1,7.52,4.39,10.08,10.08,0,0,1,1,4.22h0v9.51c0,6-3,9.53-8,9.53-4.07,0-6-1.93-7-3.56a7.62,7.62,0,0,1-1-3.56h3.21c0,.65.3,3.9,4.78,3.9,4,0,4.78-3.43,4.78-6.3V302.7a7.8,7.8,0,0,1-5.15,1.73c-7.06,0-8.64-6.44-8.64-8.69a8.67,8.67,0,0,1,2.14-6.27A8.53,8.53,0,0,1,185.94,287.24Zm5.35,8.61c0-.56-.22-5.38-5.35-5.38a4.49,4.49,0,0,0-5.23,5.2c0,.12.15,5.53,5.43,5.53C191,301.2,191.28,296,191.29,295.85Z"
            />
            <path class="cls-3" d="M21.94,287.29a7.79,7.79,0,0,1,7.52,4.39,10.08,10.08,0,0,1,1,4.22h0v9.51c0,6-3,9.53-8,9.53-4.06,0-6-1.93-7-3.56a7.62,7.62,0,0,1-1-3.56h3.22c0,.65.3,3.9,4.77,3.9,3.95,0,4.78-3.43,4.78-6.3v-2.66a7.8,7.8,0,0,1-5.15,1.73c-7,0-8.64-6.44-8.64-8.69,0-1.07,0-4.1,2.15-6.27A8.49,8.49,0,0,1,21.94,287.29Zm5.35,8.61c0-.56-.22-5.38-5.35-5.38a5.45,5.45,0,0,0-4,1.29,5.48,5.48,0,0,0-1.21,3.91c0,.12.14,5.53,5.43,5.53C27,301.25,27.28,296.05,27.29,295.9Z"
            />
            <path class="cls-3" d="M22,64a8.43,8.43,0,0,1,2.49-5.12c2.39-2.46,4.9-4.81,5.43-7.58A4.32,4.32,0,0,0,25.5,46c-3.13,0-3.5,4.17-3.5,4.17S21.63,46,18.5,46a4.32,4.32,0,0,0-4.42,5.3c.53,2.77,3,5.12,5.43,7.58A8.45,8.45,0,0,1,22,64Z"
            />
            <path class="cls-3" d="M186,64a8.45,8.45,0,0,1,2.48-5.12c2.4-2.46,4.91-4.81,5.44-7.58A4.32,4.32,0,0,0,189.5,46c-3.13,0-3.5,4.17-3.5,4.17S185.63,46,182.5,46a4.32,4.32,0,0,0-4.42,5.3c.53,2.77,3,5.12,5.43,7.58A8.45,8.45,0,0,1,186,64Z"
            />
            <path class="cls-3" d="M186,262a8.43,8.43,0,0,1-2.49,5.12c-2.39,2.46-4.9,4.81-5.43,7.58a4.32,4.32,0,0,0,4.42,5.3c3.13,0,3.5-4.17,3.5-4.17s.37,4.17,3.5,4.17a4.32,4.32,0,0,0,4.42-5.3c-.53-2.77-3-5.12-5.43-7.58A8.45,8.45,0,0,1,186,262Z"
            />
            <path class="cls-3" d="M22,262a8.43,8.43,0,0,1-2.49,5.12c-2.39,2.46-4.9,4.81-5.43,7.58A4.32,4.32,0,0,0,18.5,280c3.13,0,3.5-4.17,3.5-4.17s.37,4.17,3.5,4.17a4.32,4.32,0,0,0,4.42-5.3c-.53-2.77-3-5.12-5.43-7.58A8.45,8.45,0,0,1,22,262Z"
            />
        </g>
    </g>
</svg>
