<svg xmlns="http://www.w3.org/2000/svg" viewBox="0 0 208 326">
    <defs>
        <style>
            .cls-1 {
                fill: #fff;
            }

            .cls-2 {
                fill: #6f7072;
            }

            .cls-3 {
                fill: #f8261b;
            }
        </style>
    </defs>
    <title>6H-us-2c</title>
    <g id="Calque_2" data-name="Calque 2">
        <g id="FR_-_EN" data-name="FR - EN">
            <path class="cls-1" d="M14.83,325A13.84,13.84,0,0,1,1,311.18V14.82A13.84,13.84,0,0,1,14.83,1H193.17A13.84,13.84,0,0,1,207,14.82V311.18A13.84,13.84,0,0,1,193.17,325Z"
            />
            <path class="cls-2" d="M193.17,2A12.84,12.84,0,0,1,206,14.82V311.18A12.84,12.84,0,0,1,193.17,324H14.83A12.84,12.84,0,0,1,2,311.18V14.82A12.84,12.84,0,0,1,14.83,2H193.17m0-2H14.83A14.83,14.83,0,0,0,0,14.82V311.18A14.82,14.82,0,0,0,14.83,326H193.17A14.83,14.83,0,0,0,208,311.18V14.82A14.83,14.83,0,0,0,193.17,0Z"
            />
            <path class="cls-3" d="M21.42,69.57C24.76,66.77,31.86,56,30.16,51a4.59,4.59,0,0,0-8.74-.47c-1.59-3.57-6.21-4.1-8.25-.65C10,54.79,17.71,65.92,20.8,69"
            />
            <path class="cls-3" d="M186.86,69.57C190.2,66.77,197.3,56,195.6,51a4.59,4.59,0,0,0-8.74-.47c-1.59-3.57-6.21-4.1-8.25-.65-3.17,4.89,4.54,16,7.62,19.14"
            />
            <path class="cls-3" d="M21.43,254.64c-3.35,2.8-10.45,13.61-8.75,18.56,1.46,4.41,6.85,4.61,8.75.46,1.58,3.58,6.2,4.11,8.24.66,3.18-4.9-4.54-16-7.62-19.14"
            />
            <path class="cls-3" d="M186.87,254.64c-3.35,2.8-10.45,13.61-8.75,18.56,1.46,4.41,6.85,4.61,8.75.46,1.58,3.58,6.2,4.11,8.24.66,3.17-4.9-4.54-16-7.62-19.14"
            />
            <path class="cls-3" d="M12.33,35C14.4,44.16,24.81,47.1,29.68,38.4c5.64-9.08-3.39-23.48-13.63-15.86L16,22.39l-.09-.81,0-1,.38-2.05.51-2.34.95-1.77c2.74-4.12,9-2.9,10.06,2.34L30.76,16c-1.32-4.31-5.48-8.54-10.29-7.11C12.14,10.8,11,25.63,11.72,32.09m3.67-.66c1-10.2,11.64-10.17,12.6,0,.11,10.83-11.44,12.12-12.6,1.14Z"
            />
            <path class="cls-3" d="M177.77,35c2.07,9.15,12.48,12.09,17.35,3.39,5.64-9.08-3.39-23.48-13.63-15.86l-.05-.15-.09-.81,0-1,.38-2.05.51-2.34.95-1.77c2.74-4.12,9-2.9,10.06,2.34L196.2,16c-1.32-4.31-5.48-8.54-10.29-7.11-8.33,1.88-9.51,16.71-8.76,23.17m3.68-.66c1-10.2,11.64-10.17,12.6,0,.1,10.83-11.44,12.12-12.6,1.14Z"
            />
            <path class="cls-3" d="M196.05,289.39C194,280.24,183.57,277.3,178.7,286c-5.64,9.07,3.38,23.48,13.63,15.86l0,.15.09.81,0,1-.38,2-.51,2.35-.95,1.77c-2.74,4.12-9,2.9-10.06-2.34l-2.92.72c1.33,4.31,5.49,8.54,10.3,7.11,8.33-1.88,9.51-16.72,8.75-23.18M193,293c-1,10.2-11.64,10.17-12.61,0-.1-10.83,11.44-12.12,12.61-1.14Z"
            />
            <path class="cls-3" d="M30.61,289.39c-2.07-9.15-12.48-12.09-17.35-3.39-5.64,9.07,3.39,23.48,13.63,15.86l.05.15.09.81,0,1-.38,2-.51,2.35-1,1.77c-2.74,4.12-9,2.9-10.06-2.34l-2.92.72c1.33,4.31,5.49,8.54,10.3,7.11,8.33-1.88,9.51-16.72,8.76-23.18m-3.68.67c-1,10.2-11.64,10.17-12.6,0-.11-10.83,11.44-12.12,12.6-1.14Z"
            />
            <path class="cls-3" d="M67.64,67.74c2.73-2.13,4-4.48,6-7.29a58.87,58.87,0,0,0,6.91-12.69,17.17,17.17,0,0,0,1.28-10.61c-2.37-7.27-11.14-7.6-14.23-.77-2.57-5.89-10.09-6.77-13.4-1.08-1.92,3-1.23,8,0,11.17a59.41,59.41,0,0,0,5.54,11.22c1.94,2.64,4.41,7,6.89,9.17"
            />
            <path class="cls-3" d="M140.44,67.74c2.73-2.13,4-4.48,6-7.29a58.87,58.87,0,0,0,6.91-12.69,17.1,17.1,0,0,0,1.28-10.61c-2.37-7.27-11.14-7.6-14.23-.77-2.57-5.89-10.09-6.77-13.4-1.08-1.92,3-1.23,8,0,11.17a59.41,59.41,0,0,0,5.54,11.22c2,2.64,4.41,7,6.9,9.17"
            />
            <path class="cls-3" d="M67.64,183.66c2.73-2.13,4-4.49,6-7.29a58.87,58.87,0,0,0,6.91-12.69,17.17,17.17,0,0,0,1.28-10.61c-2.37-7.27-11.14-7.6-14.23-.77-2.57-5.89-10.09-6.77-13.4-1.08-1.92,2.95-1.23,8,0,11.16a59.2,59.2,0,0,0,5.54,11.23c1.94,2.64,4.41,7,6.89,9.17"
            />
            <path class="cls-3" d="M140.44,183.66c2.73-2.13,4-4.49,6-7.29a58.87,58.87,0,0,0,6.91-12.69,17.1,17.1,0,0,0,1.28-10.61c-2.37-7.27-11.14-7.6-14.23-.77-2.57-5.89-10.09-6.77-13.4-1.08-1.92,2.95-1.23,8,0,11.16a59.2,59.2,0,0,0,5.54,11.23c2,2.64,4.41,7,6.9,9.17"
            />
            <path class="cls-3" d="M140.44,257.05c-2.72,2.13-4,4.49-6,7.29A58.48,58.48,0,0,0,127.49,277a17.19,17.19,0,0,0-1.28,10.62c2.37,7.26,11.14,7.6,14.23.76,2.58,5.89,10.1,6.77,13.41,1.08,1.91-2.95,1.23-8,0-11.16a59.24,59.24,0,0,0-5.55-11.23c-1.94-2.64-4.41-7-6.89-9.17"
            />
            <path class="cls-3" d="M67.64,257.05c-2.72,2.13-4,4.49-6,7.29A58.48,58.48,0,0,0,54.69,277a17.19,17.19,0,0,0-1.28,10.62c2.37,7.26,11.14,7.6,14.23.76,2.58,5.89,10.09,6.77,13.4,1.08,1.92-2.95,1.23-8,0-11.16a59.84,59.84,0,0,0-5.55-11.23c-1.94-2.64-4.41-7-6.89-9.17"
            />
        </g>
    </g>
</svg>
