<svg xmlns="http://www.w3.org/2000/svg" viewBox="0 0 208 326">
    <defs>
        <style>
            .cls-1 {
                fill: #fff;
            }

            .cls-2 {
                fill: #6f7072;
            }
        </style>
    </defs>
    <title>6S-fr-2c</title>
    <g id="Calque_2" data-name="Calque 2">
        <g id="FR_-_EN" data-name="FR - EN">
            <path class="cls-1" d="M14.83,325A13.84,13.84,0,0,1,1,311.18V14.82A13.84,13.84,0,0,1,14.83,1H193.17A13.84,13.84,0,0,1,207,14.82V311.18A13.84,13.84,0,0,1,193.17,325Z"
            />
            <path class="cls-2" d="M193.17,2A12.84,12.84,0,0,1,206,14.82V311.18A12.84,12.84,0,0,1,193.17,324H14.83A12.84,12.84,0,0,1,2,311.18V14.82A12.84,12.84,0,0,1,14.83,2H193.17m0-2H14.83A14.83,14.83,0,0,0,0,14.82V311.18A14.82,14.82,0,0,0,14.83,326H193.17A14.83,14.83,0,0,0,208,311.18V14.82A14.83,14.83,0,0,0,193.17,0Z"
            />
            <path d="M78.21,61.57c-2.12-4.09-9.27-10-13.52-13.41s-4.18-6.27-4.91-6.27S59.3,44.72,55,48.16,45,56.33,42.82,60.42,40.49,71.15,47.51,74.6c4.51,2.21,8.31-.64,10.7-3.4.38,7.52-9.62,17.46-9.62,17.46a36.86,36.86,0,0,1,20.08-.24S59.78,76.62,61,70.48c2.48,3.16,6.78,7.19,11.3,5C79.33,72,80.34,65.66,78.21,61.57Z"
            />
            <path d="M165.69,61.57c-2.13-4.09-9.28-10-13.53-13.41s-4.17-6.27-4.91-6.27-.48,2.83-4.73,6.27-10.1,8.17-12.22,12.26S128,71.15,135,74.6c4.51,2.21,8.31-.64,10.7-3.4.38,7.52-9.61,17.46-9.61,17.46a36.82,36.82,0,0,1,20.07-.24s-8.88-11.8-7.65-17.94c2.48,3.16,6.77,7.19,11.3,5C166.8,72,167.82,65.66,165.69,61.57Z"
            />
            <path d="M130,263.45c2.13,4.09,9.28,10,13.53,13.41s4.17,6.27,4.91,6.27.47-2.82,4.73-6.27,10.1-8.17,12.22-12.25,2.34-10.74-4.68-14.18c-4.51-2.22-8.31.63-10.7,3.4-.38-7.53,9.61-17.46,9.61-17.46a36.76,36.76,0,0,1-20.07.23s8.88,11.8,7.65,17.94c-2.48-3.15-6.77-7.19-11.3-5C128.86,253,127.85,259.36,130,263.45Z"
            />
            <path d="M42.51,263.45c2.13,4.09,9.27,10,13.52,13.41s4.18,6.27,4.92,6.27.47-2.82,4.73-6.27,10.09-8.17,12.22-12.25,2.34-10.74-4.69-14.18c-4.51-2.22-8.31.63-10.7,3.4-.38-7.53,9.62-17.46,9.62-17.46a36.8,36.8,0,0,1-20.08.23s8.89,11.8,7.66,17.94c-2.48-3.15-6.77-7.19-11.3-5C41.39,253,40.38,259.36,42.51,263.45Z"
            />
            <path d="M78.23,61.57c-2.12-4.09-9.27-10-13.52-13.41s-4.18-6.27-4.91-6.27-.48,2.83-4.74,6.27S45,56.33,42.84,60.42,40.51,71.15,47.53,74.6c4.51,2.21,8.31-.64,10.7-3.4.37,7.52-9.62,17.46-9.62,17.46a36.86,36.86,0,0,1,20.08-.24S59.8,76.62,61,70.48c2.48,3.16,6.77,7.19,11.3,5C79.35,72,80.36,65.66,78.23,61.57Z"
            />
            <path d="M165.7,61.57c-2.12-4.09-9.27-10-13.52-13.41s-4.18-6.27-4.91-6.27-.48,2.83-4.74,6.27-10.09,8.17-12.21,12.26S128,71.15,135,74.6c4.51,2.21,8.31-.64,10.7-3.4.38,7.52-9.62,17.46-9.62,17.46a36.85,36.85,0,0,1,20.08-.24s-8.88-11.8-7.65-17.94c2.47,3.16,6.77,7.19,11.29,5C166.82,72,167.83,65.66,165.7,61.57Z"
            />
            <path d="M78.23,158.74c-2.13-4.08-9.27-10-13.52-13.41s-4.18-6.27-4.91-6.27-.48,2.83-4.74,6.27S45,153.5,42.84,157.59s-2.34,10.73,4.68,14.18c4.52,2.22,8.32-.64,10.71-3.4.37,7.52-9.62,17.46-9.62,17.46a36.86,36.86,0,0,1,20.08-.24S59.8,173.79,61,167.65c2.48,3.15,6.77,7.19,11.3,5C79.35,169.18,80.36,162.83,78.23,158.74Z"
            />
            <path d="M130,166.14c2.13,4.09,9.28,10,13.53,13.42s4.17,6.27,4.91,6.27.47-2.83,4.73-6.27,10.1-8.17,12.22-12.26,2.34-10.73-4.68-14.18c-4.51-2.22-8.31.64-10.7,3.4-.38-7.52,9.61-17.46,9.61-17.46a36.82,36.82,0,0,1-20.07.24s8.88,11.8,7.65,17.94c-2.48-3.15-6.77-7.19-11.3-5C128.89,155.71,127.87,162.06,130,166.14Z"
            />
            <path d="M130,263.45c2.13,4.09,9.28,10,13.53,13.41s4.18,6.27,4.91,6.27.48-2.82,4.73-6.27,10.1-8.17,12.22-12.25,2.34-10.74-4.68-14.18c-4.51-2.22-8.31.63-10.7,3.4-.38-7.53,9.62-17.46,9.62-17.46a36.8,36.8,0,0,1-20.08.23s8.88,11.8,7.65,17.94c-2.47-3.15-6.77-7.19-11.29-5C128.89,253,127.87,259.36,130,263.45Z"
            />
            <path d="M42.53,263.45c2.13,4.09,9.27,10,13.52,13.41s4.18,6.27,4.92,6.27.47-2.82,4.73-6.27,10.09-8.17,12.22-12.25,2.34-10.74-4.68-14.18c-4.52-2.22-8.32.63-10.71,3.4-.37-7.53,9.62-17.46,9.62-17.46a36.76,36.76,0,0,1-20.07.23s8.88,11.8,7.65,17.94c-2.48-3.15-6.77-7.19-11.3-5C41.41,253,40.4,259.36,42.53,263.45Z"
            />
            <path d="M29.58,54.25c-.9-1.75-3.93-4.27-5.74-5.74s-1.77-2.68-2.09-2.68-.2,1.21-2,2.68-4.28,3.5-5.18,5.24a4.27,4.27,0,0,0,2,6.07c1.92,1,3.53-.27,4.54-1.45.17,3.21-4.07,7.46-4.07,7.46a15.47,15.47,0,0,1,8.52-.1s-3.77-5.05-3.25-7.67c1,1.35,2.87,3.07,4.79,2.12C30.05,58.71,30.48,56,29.58,54.25Z"
            />
            <path d="M193.58,54.25c-.9-1.75-3.93-4.27-5.74-5.74s-1.77-2.68-2.09-2.68-.2,1.21-2,2.68-4.28,3.5-5.19,5.24a4.28,4.28,0,0,0,2,6.07c1.91,1,3.53-.27,4.54-1.45.17,3.21-4.07,7.46-4.07,7.46a15.48,15.48,0,0,1,8.52-.1s-3.77-5.05-3.25-7.67c1.05,1.35,2.87,3.07,4.79,2.12C194.05,58.71,194.48,56,193.58,54.25Z"
            />
            <path d="M178.42,271.29c.9,1.75,3.93,4.27,5.74,5.74s1.77,2.68,2.09,2.68.2-1.21,2-2.68,4.28-3.5,5.18-5.24a4.27,4.27,0,0,0-2-6.07c-1.92-.94-3.53.28-4.55,1.46-.16-3.22,4.08-7.47,4.08-7.47a15.47,15.47,0,0,1-8.52.1s3.77,5.05,3.25,7.67c-1.05-1.34-2.87-3.07-4.79-2.12C178,266.83,177.52,269.55,178.42,271.29Z"
            />
            <path d="M14.42,271.29c.9,1.75,3.93,4.27,5.74,5.74s1.77,2.68,2.09,2.68.2-1.21,2-2.68,4.28-3.5,5.18-5.24a4.27,4.27,0,0,0-2-6.07c-1.92-.94-3.53.28-4.54,1.46C22.75,264,27,259.71,27,259.71a15.47,15.47,0,0,1-8.52.1s3.77,5.05,3.25,7.67c-1-1.34-2.87-3.07-4.79-2.12C14,266.83,13.52,269.55,14.42,271.29Z"
            />
            <path d="M22.06,38.62a7.79,7.79,0,0,1-7.52-4.39,10.08,10.08,0,0,1-1-4.22h0V20.5c0-6,3-9.52,8-9.52,4.06,0,6,1.93,7,3.55a7.65,7.65,0,0,1,1,3.56l-3.22,0c0-.65-.29-3.9-4.77-3.9-3.95,0-4.78,3.42-4.78,6.29v2.67a7.75,7.75,0,0,1,5.15-1.73c7.06,0,8.64,6.43,8.64,8.69a8.63,8.63,0,0,1-2.15,6.26A8.49,8.49,0,0,1,22.06,38.62ZM16.71,30c0,.56.22,5.37,5.35,5.37a5.49,5.49,0,0,0,4-1.28,5.52,5.52,0,0,0,1.21-3.92c0-.12-.14-5.53-5.43-5.53C17,24.66,16.72,29.87,16.71,30Z"
            />
            <path d="M186.06,38.62a7.81,7.81,0,0,1-7.53-4.39,10.17,10.17,0,0,1-1-4.22h0V20.5c0-6,3-9.52,8-9.52,4.06,0,6,1.93,7,3.55a7.65,7.65,0,0,1,1,3.56l-3.21,0c0-.65-.3-3.9-4.78-3.9-4,0-4.78,3.42-4.78,6.29v2.67a7.75,7.75,0,0,1,5.15-1.73c7,0,8.64,6.43,8.64,8.69,0,1.06,0,4.09-2.14,6.26A8.53,8.53,0,0,1,186.06,38.62ZM180.71,30c0,.56.22,5.37,5.35,5.37a5.49,5.49,0,0,0,4-1.28,5.52,5.52,0,0,0,1.21-3.92c0-.12-.15-5.53-5.43-5.53C181,24.66,180.72,29.87,180.71,30Z"
            />
            <path d="M185.94,287.22a7.8,7.8,0,0,1,7.52,4.39,10.08,10.08,0,0,1,1,4.22h0v9.51c0,6-3,9.52-8,9.52-4.07,0-6-1.93-7-3.55a7.65,7.65,0,0,1-1-3.56l3.21,0c0,.65.3,3.9,4.78,3.9,4,0,4.78-3.42,4.78-6.29v-2.67a7.8,7.8,0,0,1-5.15,1.73c-7.06,0-8.64-6.44-8.64-8.69a8.68,8.68,0,0,1,2.14-6.27A8.56,8.56,0,0,1,185.94,287.22Zm5.35,8.6c0-.56-.22-5.37-5.35-5.37a4.49,4.49,0,0,0-5.23,5.19c0,.13.15,5.53,5.43,5.53C191,301.17,191.28,296,191.29,295.82Z"
            />
            <path d="M21.94,287.27a7.79,7.79,0,0,1,7.52,4.39,10.08,10.08,0,0,1,1,4.22h0v9.51c0,6-3,9.52-8,9.52-4.06,0-6-1.93-7-3.55a7.65,7.65,0,0,1-1-3.56l3.22,0c0,.65.3,3.9,4.77,3.9,3.95,0,4.78-3.42,4.78-6.29v-2.67a7.8,7.8,0,0,1-5.15,1.73c-7,0-8.64-6.44-8.64-8.69,0-1.06,0-4.1,2.15-6.27A8.52,8.52,0,0,1,21.94,287.27Zm5.35,8.6c0-.56-.22-5.37-5.35-5.37a5.49,5.49,0,0,0-4,1.28,5.51,5.51,0,0,0-1.21,3.91c0,.13.14,5.53,5.43,5.53C27,301.22,27.28,296,27.29,295.87Z"
            />
        </g>
    </g>
</svg>
