<svg xmlns="http://www.w3.org/2000/svg" viewBox="0 0 208 326">
    <defs>
        <style>
            .cls-1 {
                fill: #fff;
            }

            .cls-2 {
                fill: #6f7072;
            }

            .cls-3 {
                fill: #1d1d1b;
            }

            .cls-4 {
                fill: #1c1c1c;
            }
        </style>
    </defs>
    <title>6S-us-2c</title>
    <g id="Calque_2" data-name="Calque 2">
        <g id="FR_-_EN" data-name="FR - EN">
            <path class="cls-1" d="M14.83,325A13.84,13.84,0,0,1,1,311.18V14.82A13.84,13.84,0,0,1,14.83,1H193.17A13.84,13.84,0,0,1,207,14.82V311.18A13.84,13.84,0,0,1,193.17,325Z"
            />
            <path class="cls-2" d="M193.17,2A12.84,12.84,0,0,1,206,14.82V311.18A12.84,12.84,0,0,1,193.17,324H14.83A12.84,12.84,0,0,1,2,311.18V14.82A12.84,12.84,0,0,1,14.83,2H193.17m0-2H14.83A14.83,14.83,0,0,0,0,14.82V311.18A14.83,14.83,0,0,0,14.83,326H193.17A14.83,14.83,0,0,0,208,311.18V14.82A14.83,14.83,0,0,0,193.17,0Z"
            />
            <path class="cls-3" d="M21.35,74.47l1.26,0,1.23.07,1.24.12.4.07a24,24,0,0,1-3-6.28l-.07-.33,0-.48,0-.15,0,0,.1,0,.07.1A3.75,3.75,0,0,0,26.45,70c10.82-2.11-1.36-17.15-5.1-20.43C18,53,8.71,63.17,13,68.57a4.57,4.57,0,0,0,4.82,1.21l.74-.33.32-.24L19.2,69l.24-.26.19-.27.31-.52.19-.38.06-.1.1,0,0,0,0,.15,0,.48-.07.33a23.54,23.54,0,0,1-3,6.28l.4-.07,1.25-.12,1.22-.07"
            />
            <path class="cls-3" d="M186.79,74.47l1.27,0,1.22.07,1.24.12.4.07a23.66,23.66,0,0,1-3-6.28l-.07-.33,0-.48,0-.15,0,0,.09,0,.07.1A3.76,3.76,0,0,0,191.89,70c10.82-2.11-1.36-17.15-5.1-20.43-3.35,3.39-12.64,13.58-8.31,19a4.57,4.57,0,0,0,4.82,1.21l.74-.33.32-.24.28-.24.24-.26.19-.27.31-.52.18-.38.07-.1.1,0,0,0,0,.15,0,.48-.07.33a23.82,23.82,0,0,1-3,6.28l.39-.07,1.25-.12,1.22-.07"
            />
            <path class="cls-3" d="M186.83,251.5l-1.26.05-1.23-.07-1.24-.12-.4-.07a23.57,23.57,0,0,1,3,6.29l.07.33,0,.48,0,.14,0,0-.1,0-.07-.1a3.75,3.75,0,0,0-3.88-2.48c-10.82,2.11,1.37,17.15,5.1,20.43,3.35-3.39,12.64-13.57,8.31-19a4.57,4.57,0,0,0-4.82-1.21l-.74.33-.32.24L189,257l-.24.26-.19.27-.3.52-.19.38-.07.1-.1,0,0,0,0-.14,0-.48.08-.33a23.13,23.13,0,0,1,3-6.29l-.4.07-1.25.12-1.22.07"
            />
            <path class="cls-3" d="M21.4,251.5l-1.27.05-1.23-.07-1.24-.12-.4-.07a23.57,23.57,0,0,1,3,6.29l.07.33,0,.48,0,.14,0,0-.09,0-.08-.1A3.75,3.75,0,0,0,16.29,256c-10.82,2.11,1.37,17.15,5.11,20.43,3.34-3.39,12.63-13.57,8.3-19a4.57,4.57,0,0,0-4.82-1.21l-.73.33-.33.24-.28.24-.24.26-.19.27-.3.52-.19.38-.07.1-.1,0v0l0-.14,0-.48.07-.33a23.13,23.13,0,0,1,3-6.29l-.4.07-1.25.12-1.22.07"
            />
            <path class="cls-4" d="M12.23,35c2.08,9.15,12.48,12.09,17.35,3.39C35.22,29.31,26.2,14.9,16,22.52l0-.14-.09-.81,0-1,.38-2,.51-2.35,1-1.76c2.74-4.13,9-2.9,10.06,2.33L30.67,16c-1.33-4.32-5.49-8.55-10.3-7.12C12,10.79,10.86,25.62,11.62,32.08m3.67-.66c1-10.21,11.64-10.17,12.61,0,.1,10.82-11.44,12.12-12.61,1.14Z"
            />
            <path class="cls-4" d="M177.67,35c2.07,9.15,12.48,12.09,17.35,3.39,5.64-9.08-3.39-23.49-13.63-15.87l0-.14-.09-.81,0-1,.38-2,.51-2.35.95-1.76c2.74-4.13,9-2.9,10.06,2.33l2.92-.71c-1.33-4.32-5.49-8.55-10.3-7.12-8.33,1.89-9.51,16.72-8.76,23.18m3.68-.66c1-10.21,11.64-10.17,12.6,0,.11,10.82-11.44,12.12-12.6,1.14Z"
            />
            <path class="cls-4" d="M196,289.37c-2.08-9.15-12.48-12.09-17.35-3.39-5.64,9.08,3.39,23.49,13.63,15.87l.05.15.09.8,0,1-.38,2.05-.51,2.35-.95,1.76c-2.74,4.13-9,2.91-10.06-2.33l-2.91.71c1.32,4.32,5.48,8.55,10.29,7.12,8.33-1.89,9.51-16.72,8.75-23.18m-3.67.66c-1,10.21-11.64,10.18-12.6,0-.11-10.82,11.44-12.12,12.6-1.14Z"
            />
            <path class="cls-4" d="M30.51,289.37C28.44,280.22,18,277.28,13.16,286c-5.64,9.08,3.39,23.49,13.63,15.87l.05.15.09.8,0,1-.38,2.05L26,308.21,25.05,310c-2.74,4.13-9,2.91-10.06-2.33l-2.91.71c1.32,4.32,5.48,8.55,10.29,7.12,8.33-1.89,9.51-16.72,8.76-23.18m-3.68.66c-1,10.21-11.64,10.18-12.6,0-.11-10.82,11.44-12.12,12.6-1.14Z"
            />
            <path class="cls-3" d="M67.56,69.38l2-.09,2,.12,2,.19.64.12a38.12,38.12,0,0,1-4.83-10.09l-.11-.53,0-.77,0-.23,0,0,.14,0,.12.16c1.2,2.84,3.17,4,6.18,4,5-.41,7.37-4.11,6.78-9.08-.91-8.36-9.38-17.87-14.9-23.7-5.33,5.45-20.12,21.78-13.22,30.45a7.26,7.26,0,0,0,7.67,2l1.17-.53.52-.39.44-.38.38-.43.3-.42.49-.84.3-.61.1-.16.16,0,0,0,0,.23,0,.77-.11.53A37.52,37.52,0,0,1,61,69.72l.64-.12,2-.19,2-.12"
            />
            <path class="cls-3" d="M140.36,69.38l2-.09,1.95.12,2,.19.64.12a38.12,38.12,0,0,1-4.83-10.09L142,59.1l0-.77,0-.23,0,0,.14,0,.12.16c1.2,2.84,3.17,4,6.18,4,5-.41,7.37-4.11,6.78-9.08-.91-8.36-9.38-17.87-14.9-23.7-5.33,5.45-20.12,21.78-13.22,30.45a7.26,7.26,0,0,0,7.67,2l1.17-.53.52-.39.44-.38.38-.43.3-.42.49-.84.3-.61.11-.16.15,0,0,0,0,.23,0,.77-.11.53a37.52,37.52,0,0,1-4.83,10.09l.64-.12,2-.19,2-.12"
            />
            <path class="cls-3" d="M140.36,183.3l2-.08,1.95.12,2,.19.64.12a38.12,38.12,0,0,1-4.83-10.09L142,173l0-.77,0-.23,0,0,.14,0,.12.16c1.2,2.84,3.17,4,6.18,4,5-.41,7.37-4.12,6.78-9.08-.91-8.37-9.38-17.87-14.9-23.7-5.33,5.44-20.12,21.78-13.22,30.45a7.26,7.26,0,0,0,7.67,1.95l1.17-.54.52-.38.44-.38.38-.43.3-.43.49-.84.3-.6.11-.16.15,0,0,0,0,.23,0,.77-.11.53a37.52,37.52,0,0,1-4.83,10.09l.64-.12,2-.19,2-.12"
            />
            <path class="cls-3" d="M67.55,183.3l2-.08,2,.12,2,.19.64.12a38.12,38.12,0,0,1-4.83-10.09L69.2,173l0-.77,0-.23,0,0,.14,0,.12.16c1.2,2.84,3.17,4,6.18,4,5-.41,7.37-4.12,6.78-9.08-.91-8.37-9.38-17.87-14.91-23.7-5.32,5.44-20.11,21.78-13.21,30.45A7.26,7.26,0,0,0,62,175.79l1.17-.54.52-.38.44-.38.38-.43.3-.43.49-.84.3-.6.1-.16.16,0,0,0,0,.23,0,.77-.11.53A37.83,37.83,0,0,1,61,183.65l.63-.12,2-.19,2-.12"
            />
            <path class="cls-3" d="M140.33,255.39l-2,.08-1.94-.12-2-.19-.63-.12a37.78,37.78,0,0,1,4.82,10.09l.12.53,0,.77,0,.23,0,0-.15,0-.11-.16c-1.21-2.83-3.18-4-6.18-4-5,.41-7.38,4.12-6.78,9.09.91,8.36,9.38,17.86,14.9,23.69,5.33-5.44,20.12-21.77,13.22-30.45a7.25,7.25,0,0,0-7.68-1.94l-1.16.53-.52.38-.45.38-.37.43-.3.43-.49.84-.3.6-.11.16-.15,0,0,0,0-.23,0-.77.12-.53A37.8,37.8,0,0,1,146.92,255l-.63.12-2,.19-1.94.12"
            />
            <path class="cls-3" d="M67.53,255.39l-2,.08-1.94-.12-2-.19L61,255a37.78,37.78,0,0,1,4.82,10.09l.12.53,0,.77,0,.23,0,0-.15,0-.11-.16c-1.21-2.83-3.18-4-6.18-4-5,.41-7.38,4.12-6.78,9.09.91,8.36,9.38,17.86,14.9,23.69,5.32-5.44,20.11-21.77,13.22-30.45a7.25,7.25,0,0,0-7.68-1.94l-1.16.53-.52.38-.45.38-.37.43-.3.43-.49.84-.31.6-.1.16-.16,0,0,0,0-.23,0-.77.12-.53A37.8,37.8,0,0,1,74.12,255l-.63.12-2,.19-1.94.12"
            />
        </g>
    </g>
</svg>
