<svg xmlns="http://www.w3.org/2000/svg" viewBox="0 0 208 326">
    <defs>
        <style>
            .cls-1 {
                fill: #fff;
            }

            .cls-2 {
                fill: #6f7072;
            }
        </style>
    </defs>
    <title>7C-fr-2c</title>
    <g id="Calque_2" data-name="Calque 2">
        <g id="FR_-_EN" data-name="FR - EN">
            <path class="cls-1" d="M14.83,325A13.84,13.84,0,0,1,1,311.18V14.82A13.84,13.84,0,0,1,14.83,1H193.17A13.84,13.84,0,0,1,207,14.82V311.18A13.84,13.84,0,0,1,193.17,325Z"
            />
            <path class="cls-2" d="M193.17,2A12.84,12.84,0,0,1,206,14.82V311.18A12.84,12.84,0,0,1,193.17,324H14.83A12.84,12.84,0,0,1,2,311.18V14.82A12.84,12.84,0,0,1,14.83,2H193.17m0-2H14.83A14.83,14.83,0,0,0,0,14.82V311.18A14.83,14.83,0,0,0,14.83,326H193.17A14.83,14.83,0,0,0,208,311.18V14.82A14.83,14.83,0,0,0,193.17,0Z"
            />
            <path d="M62.21,40.92c5.59,0,8,4.11,8,8.43s-3.87,6.92-5.38,9.52a8,8,0,0,0-1.07,5h-3a8,8,0,0,0-1.08-5c-1.5-2.6-5.38-5.19-5.38-9.52S56.62,40.92,62.21,40.92Z"
            />
            <path d="M85,65.69c0,5.62-4.09,8-8.39,8s-6.89-3.89-9.47-5.4a7.83,7.83,0,0,0-4.95-1.09v-3a7.83,7.83,0,0,0,4.95-1.09c2.58-1.51,5.17-5.4,9.47-5.4S85,60.07,85,65.69Z"
            />
            <path d="M38,65.69c0-5.62,4.08-8,8.39-8s6.88,3.89,9.46,5.4a7.83,7.83,0,0,0,4.95,1.09v3a7.83,7.83,0,0,0-4.95,1.09c-2.58,1.51-5.16,5.4-9.46,5.4S38,71.32,38,65.69Z"
            />
            <path d="M63.87,62V74.14c0,5.7,8.06,11.22,8.06,11.22H52.49s8.06-5.52,8.06-11.22V62Z" />
            <path d="M148,40.92c5.59,0,8,4.11,8,8.43s-3.87,6.92-5.38,9.52a8,8,0,0,0-1.08,5h-3a8,8,0,0,0-1.07-5c-1.51-2.6-5.38-5.19-5.38-9.52S142.39,40.92,148,40.92Z"
            />
            <path d="M170.79,65.69c0,5.62-4.08,8-8.39,8s-6.88-3.89-9.46-5.4A7.83,7.83,0,0,0,148,67.2v-3a7.83,7.83,0,0,0,4.95-1.09c2.58-1.51,5.16-5.4,9.46-5.4S170.79,60.07,170.79,65.69Z"
            />
            <path d="M123.76,65.69c0-5.62,4.09-8,8.39-8s6.89,3.89,9.47,5.4a7.83,7.83,0,0,0,4.95,1.09v3a7.83,7.83,0,0,0-4.95,1.09c-2.58,1.51-5.16,5.4-9.47,5.4S123.76,71.32,123.76,65.69Z"
            />
            <path d="M149.65,62V74.14c0,5.7,8.06,11.22,8.06,11.22H138.27s8.06-5.52,8.06-11.22V62Z" />
            <path d="M104.57,91.54c5.59,0,8,4.1,8,8.43s-3.87,6.92-5.38,9.52a8,8,0,0,0-1.08,5h-3a8,8,0,0,0-1.07-5c-1.51-2.6-5.38-5.19-5.38-9.52S99,91.54,104.57,91.54Z"
            />
            <path d="M127.37,116.31c0,5.62-4.09,8-8.39,8s-6.88-3.89-9.46-5.4a7.83,7.83,0,0,0-5-1.09v-3a7.78,7.78,0,0,0,5-1.08c2.58-1.51,5.16-5.41,9.46-5.41S127.37,110.69,127.37,116.31Z"
            />
            <path d="M80.35,116.31c0-5.62,4.08-8,8.38-8s6.89,3.89,9.47,5.4a7.83,7.83,0,0,0,5,1.09v3a7.83,7.83,0,0,0-5,1.09c-2.58,1.51-5.17,5.4-9.47,5.4S80.35,121.93,80.35,116.31Z"
            />
            <path d="M106.23,112.64v12.12c0,5.7,8.06,11.22,8.06,11.22H94.84s8.07-5.52,8.07-11.22V112.64Z" />
            <path d="M61.5,138.4c5.59,0,8,4.11,8,8.43s-3.87,6.93-5.38,9.52a8,8,0,0,0-1.07,5H60a8,8,0,0,0-1.08-5c-1.51-2.59-5.38-5.19-5.38-9.52S55.91,138.4,61.5,138.4Z"
            />
            <path d="M84.3,163.17c0,5.63-4.08,8-8.38,8s-6.89-3.9-9.47-5.41a7.86,7.86,0,0,0-5-1.08v-3a7.86,7.86,0,0,0,5-1.08c2.58-1.52,5.16-5.41,9.47-5.41S84.3,157.55,84.3,163.17Z"
            />
            <path d="M37.28,163.18c0-5.63,4.08-8,8.39-8s6.88,3.89,9.46,5.41a7.86,7.86,0,0,0,4.95,1.08v3a7.86,7.86,0,0,0-4.95,1.08c-2.58,1.51-5.16,5.41-9.46,5.41S37.28,168.8,37.28,163.18Z"
            />
            <path d="M63.16,159.51v12.12c0,5.7,8.07,11.22,8.07,11.22H51.78s8.06-5.52,8.06-11.22V159.51Z" />
            <path d="M62.21,284.79c5.59,0,8-4.11,8-8.43s-3.87-6.93-5.38-9.52a8,8,0,0,1-1.07-5h-3a8,8,0,0,1-1.08,5c-1.5,2.59-5.38,5.19-5.38,9.52S56.62,284.79,62.21,284.79Z"
            />
            <path d="M85,260c0-5.63-4.09-8-8.39-8s-6.89,3.9-9.47,5.41a7.86,7.86,0,0,1-4.95,1.08v3a7.86,7.86,0,0,1,4.95,1.08c2.58,1.52,5.17,5.41,9.47,5.41S85,265.64,85,260Z"
            />
            <path d="M38,260c0,5.62,4.08,8,8.39,8s6.88-3.9,9.46-5.41a7.86,7.86,0,0,1,4.95-1.08v-3a7.86,7.86,0,0,1-4.95-1.08c-2.58-1.51-5.16-5.41-9.46-5.41S38,254.39,38,260Z"
            />
            <path d="M63.87,263.68V251.56c0-5.7,8.06-11.22,8.06-11.22H52.49s8.06,5.52,8.06,11.22v12.12Z" />
            <path d="M148,284.79c5.59,0,8-4.11,8-8.43s-3.87-6.93-5.38-9.52a8,8,0,0,1-1.08-5h-3a8,8,0,0,1-1.07,5c-1.51,2.59-5.38,5.19-5.38,9.52S142.39,284.79,148,284.79Z"
            />
            <path d="M170.79,260c0-5.63-4.08-8-8.39-8s-6.88,3.9-9.46,5.41A7.86,7.86,0,0,1,148,258.5v3a7.86,7.86,0,0,1,4.95,1.08c2.58,1.52,5.16,5.41,9.46,5.41S170.79,265.64,170.79,260Z"
            />
            <path d="M123.76,260c0,5.62,4.09,8,8.39,8s6.89-3.9,9.47-5.41a7.86,7.86,0,0,1,4.95-1.08v-3a7.86,7.86,0,0,1-4.95-1.08c-2.58-1.51-5.16-5.41-9.47-5.41S123.76,254.39,123.76,260Z"
            />
            <path d="M149.65,263.68V251.56c0-5.7,8.06-11.22,8.06-11.22H138.27s8.06,5.52,8.06,11.22v12.12Z" />
            <path d="M147.28,182.85c5.59,0,8-4.11,8-8.44s-3.88-6.92-5.38-9.51a8,8,0,0,1-1.08-5h-3a8,8,0,0,1-1.08,5c-1.5,2.59-5.37,5.19-5.37,9.51S141.68,182.85,147.28,182.85Z"
            />
            <path d="M170.08,158.07c0-5.62-4.08-8-8.39-8s-6.88,3.89-9.46,5.41a7.86,7.86,0,0,1-4.95,1.08v3a7.78,7.78,0,0,1,4.95,1.08c2.58,1.51,5.16,5.41,9.46,5.41S170.08,163.7,170.08,158.07Z"
            />
            <path d="M123.05,158.07c0,5.63,4.09,8,8.39,8s6.89-3.9,9.47-5.41a7.78,7.78,0,0,1,5-1.08v-3a7.86,7.86,0,0,1-5-1.08c-2.58-1.52-5.17-5.41-9.47-5.41S123.05,152.45,123.05,158.07Z"
            />
            <path d="M148.94,161.74V149.62c0-5.7,8.06-11.22,8.06-11.22H137.56s8.06,5.52,8.06,11.22v12.12Z" />
            <path d="M20.27,37.52H17.05c0-8.48,5.3-18.72,8-23.37H16.39v2.68H13.18V10.92H30.86l-1.62,2.5C29.15,13.55,20.27,27.36,20.27,37.52Z"
            />
            <path d="M184.27,37.52h-3.22c0-8.48,5.3-18.72,8-23.37h-8.65v2.68h-3.21V10.92h17.68l-1.62,2.5C193.15,13.55,184.27,27.36,184.27,37.52Z"
            />
            <path d="M187.77,288.25H191c0,8.49-5.29,18.72-8,23.37h8.64v-2.68h3.21v5.91H177.18l1.62-2.49C178.89,312.22,187.77,298.41,187.77,288.25Z"
            />
            <path d="M23.77,288.25H27c0,8.49-5.29,18.72-8,23.37h8.64v-2.68h3.21v5.91H13.18l1.62-2.49C14.89,312.22,23.77,298.41,23.77,288.25Z"
            />
            <path d="M28,52.94c-1.79,0-2.87,1.67-3.94,2.32a1.35,1.35,0,0,1-.81.2,1.7,1.7,0,0,1-.18-1.83c.63-1.12,2.24-2.23,2.24-4.09s-1-3.62-3.32-3.62-3.31,1.76-3.31,3.62,1.61,3,2.24,4.09a1.67,1.67,0,0,1-.2,1.83,1.29,1.29,0,0,1-.79-.2c-1.07-.65-2.15-2.32-3.95-2.32a3.44,3.44,0,1,0,0,6.88c1.8,0,2.87-1.68,3.95-2.33a1.35,1.35,0,0,1,.91-.19c.94,3.37-2.17,8.62-2.17,8.62A10.41,10.41,0,0,1,22,65.46a10.41,10.41,0,0,1,3.32.46s-3.53-5.33-2.26-8.6a1.32,1.32,0,0,1,1,.17c1.08.65,2.16,2.33,4,2.33a3.44,3.44,0,1,0,0-6.88Z"
            />
            <path d="M192,52.94c-1.79,0-2.87,1.67-3.95,2.32a1.31,1.31,0,0,1-.8.2,1.7,1.7,0,0,1-.18-1.83c.63-1.12,2.24-2.23,2.24-4.09s-1-3.62-3.32-3.62-3.31,1.76-3.31,3.62,1.61,3,2.24,4.09a1.67,1.67,0,0,1-.2,1.83,1.29,1.29,0,0,1-.79-.2c-1.07-.65-2.15-2.32-4-2.32a3.44,3.44,0,1,0,0,6.88c1.8,0,2.87-1.68,4-2.33a1.35,1.35,0,0,1,.91-.19c.94,3.37-2.17,8.62-2.17,8.62a12.21,12.21,0,0,1,6.64,0s-3.53-5.33-2.26-8.6a1.32,1.32,0,0,1,1,.17c1.08.65,2.16,2.33,3.95,2.33a3.44,3.44,0,1,0,0-6.88Z"
            />
            <path d="M180,272.77c1.8,0,2.87-1.67,4-2.32a1.31,1.31,0,0,1,.8-.2,1.68,1.68,0,0,1,.18,1.83c-.63,1.12-2.24,2.23-2.24,4.09s1,3.62,3.32,3.62,3.32-1.76,3.32-3.62-1.62-3-2.24-4.09a1.67,1.67,0,0,1,.19-1.83,1.26,1.26,0,0,1,.79.2c1.08.65,2.15,2.32,3.95,2.32a3.44,3.44,0,1,0,0-6.88c-1.8,0-2.87,1.68-3.95,2.33a1.27,1.27,0,0,1-.9.18c-1-3.36,2.16-8.61,2.16-8.61a12.21,12.21,0,0,1-6.64,0s3.53,5.33,2.26,8.6a1.37,1.37,0,0,1-1-.17c-1.07-.65-2.15-2.33-4-2.33a3.44,3.44,0,1,0,0,6.88Z"
            />
            <path d="M16,272.77c1.8,0,2.87-1.67,3.95-2.32a1.31,1.31,0,0,1,.8-.2,1.68,1.68,0,0,1,.18,1.83c-.63,1.12-2.24,2.23-2.24,4.09s1,3.62,3.32,3.62,3.32-1.76,3.32-3.62-1.62-3-2.24-4.09a1.67,1.67,0,0,1,.19-1.83,1.26,1.26,0,0,1,.79.2c1.08.65,2.16,2.32,4,2.32a3.44,3.44,0,1,0,0-6.88c-1.79,0-2.87,1.68-4,2.33a1.27,1.27,0,0,1-.9.18c-.95-3.36,2.16-8.61,2.16-8.61a10.41,10.41,0,0,1-3.32.46,10.41,10.41,0,0,1-3.32-.46s3.53,5.33,2.26,8.6a1.37,1.37,0,0,1-1-.17c-1.07-.65-2.15-2.33-3.95-2.33a3.44,3.44,0,1,0,0,6.88Z"
            />
        </g>
    </g>
</svg>
