<svg xmlns="http://www.w3.org/2000/svg" viewBox="0 0 208 326">
    <defs>
        <style>
            .cls-1 {
                fill: #fff;
            }

            .cls-2 {
                fill: #6f7072;
            }

            .cls-3 {
                fill: #1c1c1c;
            }
        </style>
    </defs>
    <title>7C-us-2c</title>
    <g id="Calque_2" data-name="Calque 2">
        <g id="FR_-_EN" data-name="FR - EN">
            <path class="cls-1" d="M14.83,325A13.84,13.84,0,0,1,1,311.18V14.82A13.84,13.84,0,0,1,14.83,1H193.17A13.84,13.84,0,0,1,207,14.82V311.18A13.84,13.84,0,0,1,193.17,325Z"
            />
            <path class="cls-2" d="M193.17,2A12.84,12.84,0,0,1,206,14.82V311.18A12.84,12.84,0,0,1,193.17,324H14.83A12.84,12.84,0,0,1,2,311.18V14.82A12.84,12.84,0,0,1,14.83,2H193.17m0-2H14.83A14.83,14.83,0,0,0,0,14.82V311.18A14.83,14.83,0,0,0,14.83,326H193.17A14.83,14.83,0,0,0,208,311.18V14.82A14.83,14.83,0,0,0,193.17,0Z"
            />
            <path class="cls-3" d="M32.67,65c.39-4.5-3.51-8.2-7.56-4.35l-.83-1.2c4.52-2.93,2.29-8.43-2.71-8.69-5.1.05-7.58,5.69-2.95,8.69l-.82,1.2c-4.63-4.38-8.82,1.05-7.29,5.67A5.25,5.25,0,0,0,15,70.2a3.84,3.84,0,0,0,2.93-1c.81-.61,1-1.77,1.56-2.32.65.34.62.28.59,1a16.5,16.5,0,0,1-2.58,5.58,26.35,26.35,0,0,1,7.83,0,16.47,16.47,0,0,1-2.57-5.58c0-.71,0-.67.59-1,.55.54.77,1.75,1.56,2.32a3.82,3.82,0,0,0,2.92,1c2.39-.08,4.26-2.26,4.7-4.53"
            />
            <path class="cls-3" d="M198.11,65c.39-4.5-3.51-8.2-7.57-4.35l-.82-1.2C194.23,56.49,192,51,187,50.73c-5.1.05-7.58,5.69-2.95,8.69l-.83,1.2c-4.62-4.38-8.81,1.05-7.28,5.67a5.24,5.24,0,0,0,4.52,3.91,3.86,3.86,0,0,0,2.93-1c.81-.61,1-1.77,1.55-2.32.65.34.63.28.6,1A16.5,16.5,0,0,1,183,73.41a26.35,26.35,0,0,1,7.83,0,16.47,16.47,0,0,1-2.57-5.58c0-.71,0-.67.59-1,.55.54.77,1.75,1.56,2.32a3.82,3.82,0,0,0,2.92,1c2.38-.08,4.26-2.26,4.69-4.53"
            />
            <path class="cls-3" d="M175.65,260.86c-.38,4.5,3.51,8.21,7.57,4.36l.83,1.19c-4.52,2.93-2.3,8.43,2.71,8.69,5.1,0,7.58-5.69,3-8.69l.82-1.19c4.63,4.37,8.82-1.05,7.29-5.68a5.24,5.24,0,0,0-4.52-3.9,3.84,3.84,0,0,0-2.93,1c-.81.61-1,1.77-1.56,2.32-.65-.34-.62-.27-.59-1a16.39,16.39,0,0,1,2.57-5.58,27,27,0,0,1-7.82,0,16.28,16.28,0,0,1,2.56,5.58c.05.7,0,.66-.59,1-.54-.53-.76-1.75-1.56-2.32a3.76,3.76,0,0,0-2.92-1c-2.38.08-4.25,2.26-4.69,4.52"
            />
            <path class="cls-3" d="M10.22,260.86c-.39,4.5,3.51,8.21,7.56,4.36l.83,1.19c-4.52,2.93-2.29,8.43,2.71,8.69,5.1,0,7.58-5.69,2.95-8.69l.82-1.19c4.63,4.37,8.82-1.05,7.29-5.68a5.24,5.24,0,0,0-4.52-3.9,3.84,3.84,0,0,0-2.93,1c-.81.61-1,1.77-1.56,2.32-.65-.34-.62-.27-.59-1a16.41,16.41,0,0,1,2.58-5.58,27,27,0,0,1-7.83,0A16.3,16.3,0,0,1,20.1,258c0,.7,0,.66-.59,1-.55-.53-.77-1.75-1.56-2.32a3.8,3.8,0,0,0-2.93-1c-2.38.08-4.25,2.26-4.69,4.52"
            />
            <path class="cls-3" d="M90.08,56.54c.77-9-7-16.41-15.14-8.71l-1.65-2.39c9-5.85,4.58-16.87-5.43-17.39-10.2.1-15.16,11.38-5.89,17.39l-1.65,2.39c-9.25-8.75-17.63,2.1-14.57,11.35,1.16,4,4.75,7.66,9,7.8a7.61,7.61,0,0,0,5.85-2.06c1.63-1.22,2-3.54,3.12-4.64,1.3.68,1.24.55,1.18,2-.61,3.78-3.12,8-5.15,11.16a52.69,52.69,0,0,1,15.66,0c-2-3.26-4.53-7.29-5.13-11.16-.1-1.42-.07-1.33,1.17-2,1.09,1.06,1.53,3.5,3.12,4.64A7.65,7.65,0,0,0,80.46,67c4.76-.16,8.51-4.51,9.38-9"
            />
            <path class="cls-3" d="M45.16,269.29c-.78,9,7,16.42,15.13,8.71l1.65,2.4c-9,5.85-4.58,16.86,5.43,17.38,10.2-.09,15.16-11.38,5.89-17.38l1.66-2.4c9.24,8.75,17.63-2.09,14.57-11.34-1.17-4-4.76-7.67-9-7.81a7.66,7.66,0,0,0-5.85,2.06c-1.63,1.22-2,3.55-3.12,4.64-1.3-.67-1.24-.54-1.18-2,.61-3.79,3.12-8,5.15-11.16a53.37,53.37,0,0,1-15.66,0c2,3.25,4.53,7.29,5.14,11.16.09,1.41.06,1.32-1.18,2-1.09-1.06-1.53-3.5-3.12-4.64a7.64,7.64,0,0,0-5.84-2.06c-4.77.16-8.52,4.51-9.39,9"
            />
            <path class="cls-3" d="M162.87,56.54c.78-9-7-16.41-15.13-8.71l-1.65-2.39c9-5.85,4.58-16.87-5.42-17.39-10.21.1-15.17,11.38-5.9,17.39l-1.65,2.39c-9.25-8.75-17.63,2.1-14.57,11.35,1.16,4,4.75,7.66,9,7.8a7.61,7.61,0,0,0,5.85-2.06c1.63-1.22,2-3.54,3.12-4.64,1.3.68,1.24.55,1.18,2-.61,3.78-3.12,8-5.15,11.16a52.69,52.69,0,0,1,15.66,0c-2-3.26-4.53-7.29-5.14-11.16-.09-1.42-.06-1.33,1.18-2,1.09,1.06,1.53,3.5,3.12,4.64A7.64,7.64,0,0,0,153.25,67c4.77-.16,8.52-4.51,9.39-9"
            />
            <path class="cls-3" d="M90.08,168.73c.77-9-7-16.42-15.14-8.71l-1.65-2.4c9-5.85,4.58-16.86-5.43-17.38-10.2.09-15.16,11.38-5.89,17.38L60.32,160c-9.25-8.75-17.63,2.09-14.57,11.34,1.16,4,4.75,7.67,9,7.81a7.65,7.65,0,0,0,5.85-2.06c1.63-1.22,2-3.55,3.12-4.64,1.3.67,1.24.54,1.18,2-.61,3.79-3.12,8-5.15,11.16a53.37,53.37,0,0,1,15.66,0c-2-3.25-4.53-7.29-5.13-11.16-.1-1.41-.07-1.32,1.17-2,1.09,1.06,1.53,3.5,3.12,4.64a7.65,7.65,0,0,0,5.85,2.06c4.76-.16,8.51-4.51,9.38-9"
            />
            <path class="cls-3" d="M162.87,168.73c.78-9-7-16.42-15.13-8.71l-1.65-2.4c9-5.85,4.58-16.86-5.42-17.38-10.21.09-15.17,11.38-5.9,17.38l-1.65,2.4c-9.25-8.75-17.63,2.09-14.57,11.34,1.16,4,4.75,7.67,9,7.81a7.65,7.65,0,0,0,5.85-2.06c1.63-1.22,2-3.55,3.12-4.64,1.3.67,1.24.54,1.18,2-.61,3.79-3.12,8-5.15,11.16a53.37,53.37,0,0,1,15.66,0c-2-3.25-4.53-7.29-5.14-11.16-.09-1.41-.06-1.32,1.18-2,1.09,1.06,1.53,3.5,3.12,4.64a7.64,7.64,0,0,0,5.84,2.06c4.77-.16,8.52-4.51,9.39-9"
            />
            <path class="cls-3" d="M118,269.29c-.78,9,7,16.42,15.13,8.71l1.65,2.4c-9,5.85-4.58,16.86,5.43,17.38,10.2-.09,15.16-11.38,5.89-17.38l1.66-2.4c9.24,8.75,17.62-2.09,14.57-11.34-1.17-4-4.76-7.67-9-7.81a7.65,7.65,0,0,0-5.85,2.06c-1.63,1.22-2,3.55-3.12,4.64-1.3-.67-1.24-.54-1.18-2,.61-3.79,3.12-8,5.15-11.16a53.37,53.37,0,0,1-15.66,0c2,3.25,4.53,7.29,5.14,11.16.09,1.41.06,1.32-1.18,2-1.09-1.06-1.53-3.5-3.12-4.64a7.64,7.64,0,0,0-5.84-2.06c-4.77.16-8.51,4.51-9.38,9"
            />
            <path class="cls-3" d="M15,12.08h12.9a95.16,95.16,0,0,0-11.3,30.55l3.85,0A92.87,92.87,0,0,1,24.67,27.1L25.89,24l1.32-3.11,1.41-3,.75-1.49,2-3.62.09-.57L30.12,8.55H11.54l-.09,9h3.49"
            />
            <path class="cls-3" d="M180.41,12.08h12.9A94.7,94.7,0,0,0,182,42.63l3.85,0a92.87,92.87,0,0,1,4.25-15.57L191.32,24l1.32-3.11,1.41-3,.76-1.49,2-3.62.09-.57-1.32-3.64H177l-.09,9h3.49"
            />
            <path class="cls-3" d="M193.35,312.15h-12.9a94.78,94.78,0,0,0,11.31-30.55l-3.86,0a92,92,0,0,1-4.24,15.58l-1.22,3.1-1.32,3.11-1.41,3-.76,1.49-2,3.62-.09.58,1.32,3.63h18.58l.09-9h-3.49"
            />
            <path class="cls-3" d="M27.91,312.15H15a95,95,0,0,0,11.3-30.55l-3.85,0a93,93,0,0,1-4.25,15.58L17,300.24l-1.32,3.11-1.41,3-.76,1.49-2,3.62-.09.58,1.32,3.63H31.35l.09-9H28"
            />
            <path class="cls-3" d="M126.47,115c.78-9-7-16.41-15.13-8.71l-1.65-2.4c9-5.85,4.58-16.86-5.42-17.38-10.21.09-15.17,11.38-5.9,17.38l-1.65,2.4c-9.25-8.75-17.63,2.1-14.57,11.34,1.16,4,4.75,7.67,9,7.81A7.65,7.65,0,0,0,97,123.33c1.63-1.22,2-3.54,3.12-4.64,1.3.67,1.24.54,1.18,2-.61,3.79-3.12,8-5.15,11.16a53.37,53.37,0,0,1,15.66,0c-2-3.25-4.53-7.28-5.13-11.16-.1-1.41-.07-1.32,1.17-2,1.09,1.06,1.53,3.5,3.12,4.64a7.65,7.65,0,0,0,5.85,2.06c4.76-.16,8.51-4.51,9.38-9"
            />
        </g>
    </g>
</svg>
