<svg xmlns="http://www.w3.org/2000/svg" viewBox="0 0 208 326">
    <defs>
        <style>
            .cls-1 {
                fill: #fff;
            }

            .cls-2 {
                fill: #6f7072;
            }

            .cls-3 {
                fill: #f72014;
            }
        </style>
    </defs>
    <title>7D-fr-2c</title>
    <g id="Calque_2" data-name="Calque 2">
        <g id="FR_-_EN" data-name="FR - EN">
            <path class="cls-1" d="M14.83,325A13.84,13.84,0,0,1,1,311.18V14.82A13.84,13.84,0,0,1,14.83,1H193.17A13.84,13.84,0,0,1,207,14.82V311.18A13.84,13.84,0,0,1,193.17,325Z"
            />
            <path class="cls-2" d="M193.17,2A12.84,12.84,0,0,1,206,14.82V311.18A12.84,12.84,0,0,1,193.17,324H14.83A12.84,12.84,0,0,1,2,311.18V14.82A12.84,12.84,0,0,1,14.83,2H193.17m0-2H14.83A14.83,14.83,0,0,0,0,14.82V311.18A14.82,14.82,0,0,0,14.83,326H193.17A14.83,14.83,0,0,0,208,311.18V14.82A14.83,14.83,0,0,0,193.17,0Z"
            />
            <path class="cls-3" d="M22,45.84s3.67,8.07,9.1,10.11A23.7,23.7,0,0,0,22,65.84s-1.63-5.81-8.9-10A17.25,17.25,0,0,0,22,45.84Z"
            />
            <path class="cls-3" d="M185.9,46s3.67,8.08,9.1,10.12A23.63,23.63,0,0,0,185.9,66s-1.63-5.81-8.9-10A17.17,17.17,0,0,0,185.9,46Z"
            />
            <path class="cls-3" d="M21.9,260.09s3.67,8.07,9.1,10.11a23.62,23.62,0,0,0-9.1,9.89s-1.63-5.82-8.9-10A17.18,17.18,0,0,0,21.9,260.09Z"
            />
            <path class="cls-3" d="M185.9,259.85s3.67,8.08,9.1,10.11a23.7,23.7,0,0,0-9.1,9.89s-1.63-5.81-8.9-10A17.21,17.21,0,0,0,185.9,259.85Z"
            />
            <path class="cls-3" d="M20.25,37.62H17c0-8.48,5.3-18.72,8-23.37H16.37v2.68H13.16V11H30.84l-1.62,2.5C29.13,13.65,20.25,27.46,20.25,37.62Z"
            />
            <path class="cls-3" d="M184.25,37.62H181c0-8.48,5.3-18.72,8-23.37h-8.64v2.68h-3.21V11h17.68l-1.62,2.5C193.13,13.65,184.25,27.46,184.25,37.62Z"
            />
            <path class="cls-3" d="M187.75,288.36H191c0,8.48-5.3,18.72-8,23.37h8.64V309h3.21V315H177.16l1.62-2.5C178.87,312.32,187.75,298.52,187.75,288.36Z"
            />
            <path class="cls-3" d="M23.75,288.36H27c0,8.48-5.3,18.72-8,23.37h8.65V309h3.21V315H13.16l1.62-2.5C14.87,312.32,23.75,298.52,23.75,288.36Z"
            />
            <path class="cls-3" d="M147.45,41.58s9.63,19.23,23.9,24.08a59.6,59.6,0,0,0-23.9,23.54s-4.29-13.84-23.37-23.81C124.08,65.39,140.84,59.19,147.45,41.58Z"
            />
            <path class="cls-3" d="M60,41.58s9.63,19.23,23.9,24.08A59.6,59.6,0,0,0,60,89.2S55.69,75.36,36.61,65.39C36.61,65.39,53.37,59.19,60,41.58Z"
            />
            <path class="cls-3" d="M147.45,139.16s9.63,19.22,23.9,24.07a59.6,59.6,0,0,0-23.9,23.54s-4.29-13.84-23.37-23.81C124.08,163,140.84,156.76,147.45,139.16Z"
            />
            <path class="cls-3" d="M60,137.75s9.63,19.23,23.9,24.08A59.52,59.52,0,0,0,60,185.37s-4.29-13.84-23.37-23.81C36.61,161.56,53.37,155.36,60,137.75Z"
            />
            <path class="cls-3" d="M147.45,236.65s9.63,19.22,23.9,24.07a59.6,59.6,0,0,0-23.9,23.54s-4.29-13.84-23.37-23.81C124.08,260.45,140.84,254.26,147.45,236.65Z"
            />
            <path class="cls-3" d="M103.67,89.26s9.63,19.22,23.9,24.07a59.6,59.6,0,0,0-23.9,23.54S99.39,123,80.3,113.06C80.3,113.06,97.07,106.86,103.67,89.26Z"
            />
            <path class="cls-3" d="M60,236.65s9.63,19.22,23.9,24.07A59.6,59.6,0,0,0,60,284.26s-4.29-13.84-23.37-23.81C36.61,260.45,53.37,254.26,60,236.65Z"
            />
        </g>
    </g>
</svg>
