<svg xmlns="http://www.w3.org/2000/svg" viewBox="0 0 208 326">
    <defs>
        <style>
            .cls-1 {
                fill: #fff;
            }

            .cls-2 {
                fill: #6f7072;
            }

            .cls-3 {
                fill: #f5a11a;
            }
        </style>
    </defs>
    <title>7D-us-4c</title>
    <g id="Calque_2" data-name="Calque 2">
        <g id="FR_-_EN" data-name="FR - EN">
            <path class="cls-1" d="M14.83,325A13.84,13.84,0,0,1,1,311.18V14.82A13.84,13.84,0,0,1,14.83,1H193.17A13.84,13.84,0,0,1,207,14.82V311.18A13.84,13.84,0,0,1,193.17,325Z"
            />
            <path class="cls-2" d="M193.17,2A12.84,12.84,0,0,1,206,14.82V311.18A12.84,12.84,0,0,1,193.17,324H14.83A12.84,12.84,0,0,1,2,311.18V14.82A12.84,12.84,0,0,1,14.83,2H193.17m0-2H14.83A14.83,14.83,0,0,0,0,14.82V311.18A14.82,14.82,0,0,0,14.83,326H193.17A14.82,14.82,0,0,0,208,311.18V14.82A14.82,14.82,0,0,0,193.17,0Z"
            />
            <path class="cls-3" d="M178.05,263.9a64.1,64.1,0,0,1,8.76,12.75,63.4,63.4,0,0,1,8.76-12.75,63.05,63.05,0,0,1-8.76-12.74,65.58,65.58,0,0,1-8.05,12"
            />
            <path class="cls-3" d="M12.62,263.9a64.48,64.48,0,0,1,8.75,12.75,63.4,63.4,0,0,1,8.76-12.75,63.46,63.46,0,0,1-8.76-12.74,65.58,65.58,0,0,1-8,12"
            />
            <path class="cls-3" d="M178.05,62.21A63.75,63.75,0,0,1,186.81,75a63.05,63.05,0,0,1,8.76-12.74,63.33,63.33,0,0,1-8.76-12.74,65.5,65.5,0,0,1-8.05,12"
            />
            <path class="cls-3" d="M12.62,62.21A64.12,64.12,0,0,1,21.37,75a63.05,63.05,0,0,1,8.76-12.74,63.75,63.75,0,0,1-8.76-12.74,65.5,65.5,0,0,1-8,12"
            />
            <path class="cls-3" d="M14.9,12.22H27.8A94.7,94.7,0,0,0,16.5,42.77l3.85,0A93.13,93.13,0,0,1,24.6,27.24l1.22-3.11L27.13,21l1.42-3,.75-1.49,2-3.62.09-.57L30.05,8.69H11.47l-.09,9h3.49"
            />
            <path class="cls-3" d="M180.34,12.22h12.9a94.7,94.7,0,0,0-11.3,30.55l3.85,0A91.26,91.26,0,0,1,190,27.24l1.21-3.11L192.57,21,194,18l.76-1.49,2-3.62.1-.57-1.33-3.64H176.91l-.1,9h3.49"
            />
            <path class="cls-3" d="M193.28,312.29h-12.9a94.52,94.52,0,0,0,11.3-30.55l-3.85,0a91.11,91.11,0,0,1-4.25,15.58l-1.21,3.1-1.32,3.11-1.41,3-.76,1.49-2,3.62-.1.58,1.33,3.63h18.57l.1-9h-3.49"
            />
            <path class="cls-3" d="M27.84,312.29H14.94a94.78,94.78,0,0,0,11.31-30.55l-3.86,0a92,92,0,0,1-4.24,15.58l-1.22,3.1-1.32,3.11-1.41,3L13.44,308l-2,3.62-.09.58,1.32,3.63H31.28l.09-9H27.88"
            />
            <path class="cls-3" d="M86.43,109.27a128.29,128.29,0,0,1,17.51,25.5,126.93,126.93,0,0,1,17.52-25.5,126.51,126.51,0,0,1-17.52-25.48,131.51,131.51,0,0,1-16.1,23.92"
            />
            <path class="cls-3" d="M50,50.87A127.93,127.93,0,0,1,67.54,76.36,126.58,126.58,0,0,1,85.06,50.87,126.86,126.86,0,0,1,67.54,25.38,131.16,131.16,0,0,1,51.44,49.3"
            />
            <path class="cls-3" d="M122.83,50.87a127.93,127.93,0,0,1,17.51,25.49,126.58,126.58,0,0,1,17.52-25.49,126.86,126.86,0,0,1-17.52-25.49,131.16,131.16,0,0,1-16.1,23.92"
            />
            <path class="cls-3" d="M50,163.05a128,128,0,0,1,17.51,25.5,126.93,126.93,0,0,1,17.52-25.5,126.51,126.51,0,0,1-17.52-25.48,131.51,131.51,0,0,1-16.1,23.92"
            />
            <path class="cls-3" d="M122.83,163.05a128,128,0,0,1,17.51,25.5,126.93,126.93,0,0,1,17.52-25.5,126.51,126.51,0,0,1-17.52-25.48,131.51,131.51,0,0,1-16.1,23.92"
            />
            <path class="cls-3" d="M50,275.24a128.22,128.22,0,0,1,17.51,25.49,126.86,126.86,0,0,1,17.52-25.49,126.58,126.58,0,0,1-17.52-25.49,130.82,130.82,0,0,1-16.1,23.92"
            />
            <path class="cls-3" d="M122.83,275.24a128.22,128.22,0,0,1,17.51,25.49,126.86,126.86,0,0,1,17.52-25.49,126.58,126.58,0,0,1-17.52-25.49,130.82,130.82,0,0,1-16.1,23.92"
            />
        </g>
    </g>
</svg>
