<svg xmlns="http://www.w3.org/2000/svg" viewBox="0 0 208 326">
    <defs>
        <style>
            .cls-1 {
                fill: #fff;
            }

            .cls-2 {
                fill: #6f7072;
            }

            .cls-3 {
                fill: #f8261b;
            }
        </style>
    </defs>
    <title>7H-us-2c</title>
    <g id="Calque_2" data-name="Calque 2">
        <g id="FR_-_EN" data-name="FR - EN">
            <path class="cls-1" d="M14.83,325A13.84,13.84,0,0,1,1,311.18V14.82A13.84,13.84,0,0,1,14.83,1H193.17A13.84,13.84,0,0,1,207,14.82V311.18A13.84,13.84,0,0,1,193.17,325Z"
            />
            <path class="cls-2" d="M193.17,2A12.84,12.84,0,0,1,206,14.82V311.18A12.84,12.84,0,0,1,193.17,324H14.83A12.84,12.84,0,0,1,2,311.18V14.82A12.84,12.84,0,0,1,14.83,2H193.17m0-2H14.83A14.83,14.83,0,0,0,0,14.82V311.18A14.82,14.82,0,0,0,14.83,326H193.17A14.83,14.83,0,0,0,208,311.18V14.82A14.83,14.83,0,0,0,193.17,0Z"
            />
            <path class="cls-3" d="M21.42,69.57C24.76,66.77,31.86,56,30.16,51a4.59,4.59,0,0,0-8.74-.47c-1.59-3.57-6.21-4.1-8.25-.65C10,54.79,17.72,65.92,20.8,69"
            />
            <path class="cls-3" d="M186.86,69.57C190.2,66.77,197.3,56,195.6,51a4.59,4.59,0,0,0-8.74-.47c-1.59-3.57-6.21-4.1-8.25-.65-3.17,4.89,4.54,16,7.62,19.14"
            />
            <path class="cls-3" d="M21.43,254.64c-3.35,2.8-10.45,13.61-8.75,18.56,1.46,4.41,6.85,4.61,8.75.46,1.58,3.58,6.21,4.11,8.24.66,3.18-4.9-4.54-16-7.62-19.14"
            />
            <path class="cls-3" d="M186.87,254.64c-3.35,2.8-10.45,13.61-8.75,18.56,1.46,4.41,6.85,4.61,8.75.46,1.58,3.58,6.2,4.11,8.24.66,3.17-4.9-4.54-16-7.62-19.14"
            />
            <path class="cls-3" d="M14.88,12.17h12.9a94.56,94.56,0,0,0-11.3,30.54l3.85,0a91.26,91.26,0,0,1,4.25-15.57l1.21-3.11L27.11,21l1.41-3,.76-1.48,2-3.63.09-.57L30,8.63H11.45l-.09,9h3.49"
            />
            <path class="cls-3" d="M180.32,12.17h12.9a94.56,94.56,0,0,0-11.3,30.54l3.85,0A92.15,92.15,0,0,1,190,27.18l1.22-3.11,1.32-3.1L194,18l.76-1.48,2-3.63.09-.57-1.32-3.64H176.88l-.09,9h3.49"
            />
            <path class="cls-3" d="M193.26,312.23h-12.9a94.56,94.56,0,0,0,11.3-30.54l-3.85,0a91.26,91.26,0,0,1-4.25,15.57l-1.21,3.11-1.32,3.1-1.41,3-.76,1.48-2,3.63-.09.57,1.32,3.64h18.58l.09-9h-3.49"
            />
            <path class="cls-3" d="M27.82,312.23H14.92a94.56,94.56,0,0,0,11.3-30.54l-3.85,0a92.15,92.15,0,0,1-4.24,15.57l-1.22,3.11-1.32,3.1-1.41,3-.76,1.48-2,3.63-.09.57,1.32,3.64H31.26l.09-9H27.86"
            />
            <path class="cls-3" d="M67.52,67.74c2.73-2.13,4-4.48,6-7.29a58.87,58.87,0,0,0,6.91-12.69,17.17,17.17,0,0,0,1.28-10.61c-2.37-7.27-11.14-7.6-14.23-.77C65,30.49,57.43,29.61,54.12,35.3c-1.92,3-1.23,8,0,11.17a59.41,59.41,0,0,0,5.54,11.22c1.94,2.64,4.41,7,6.89,9.17"
            />
            <path class="cls-3" d="M140.32,67.74c2.73-2.13,4-4.48,6-7.29a58.87,58.87,0,0,0,6.91-12.69,17.1,17.1,0,0,0,1.28-10.61c-2.37-7.27-11.14-7.6-14.23-.77-2.57-5.89-10.09-6.77-13.4-1.08-1.92,3-1.23,8,0,11.17a59.41,59.41,0,0,0,5.54,11.22c2,2.64,4.41,7,6.9,9.17"
            />
            <path class="cls-3" d="M104.59,127.89c2.72-2.13,4-4.49,6-7.29a58.87,58.87,0,0,0,6.91-12.69,17.1,17.1,0,0,0,1.28-10.61c-2.37-7.27-11.14-7.6-14.22-.77-2.58-5.89-10.1-6.77-13.41-1.08-1.92,3-1.23,8,0,11.16a59.2,59.2,0,0,0,5.54,11.23c1.95,2.64,4.42,7,6.9,9.17"
            />
            <path class="cls-3" d="M67.52,183.66c2.73-2.13,4-4.49,6-7.29a58.87,58.87,0,0,0,6.91-12.69,17.17,17.17,0,0,0,1.28-10.61c-2.37-7.27-11.14-7.6-14.23-.77-2.57-5.89-10.09-6.77-13.4-1.08-1.92,2.95-1.23,8,0,11.16a59.2,59.2,0,0,0,5.54,11.23c1.94,2.64,4.41,7,6.89,9.17"
            />
            <path class="cls-3" d="M140.32,183.66c2.73-2.13,4-4.49,6-7.29a58.87,58.87,0,0,0,6.91-12.69,17.1,17.1,0,0,0,1.28-10.61c-2.37-7.27-11.14-7.6-14.23-.77-2.57-5.89-10.09-6.77-13.4-1.08-1.92,2.95-1.23,8,0,11.16a59.2,59.2,0,0,0,5.54,11.23c2,2.64,4.41,7,6.9,9.17"
            />
            <path class="cls-3" d="M140.32,257.05c-2.72,2.13-4,4.49-6,7.29A58.48,58.48,0,0,0,127.37,277a17.19,17.19,0,0,0-1.28,10.62c2.37,7.26,11.14,7.6,14.23.76,2.58,5.89,10.09,6.77,13.41,1.08,1.91-2.95,1.23-8,0-11.16a59.24,59.24,0,0,0-5.55-11.23c-1.94-2.64-4.41-7-6.89-9.17"
            />
            <path class="cls-3" d="M67.52,257.05c-2.72,2.13-4,4.49-6,7.29A58.48,58.48,0,0,0,54.57,277a17.19,17.19,0,0,0-1.28,10.62c2.37,7.26,11.14,7.6,14.23.76,2.58,5.89,10.09,6.77,13.4,1.08,1.92-2.95,1.23-8,0-11.16a59.84,59.84,0,0,0-5.55-11.23c-1.94-2.64-4.41-7-6.89-9.17"
            />
        </g>
    </g>
</svg>
