<svg xmlns="http://www.w3.org/2000/svg" viewBox="0 0 208 326">
    <defs>
        <style>
            .cls-1 {
                fill: #fff;
            }

            .cls-2 {
                fill: #6f7072;
            }
        </style>
    </defs>
    <title>7S-fr-2c</title>
    <g id="Calque_2" data-name="Calque 2">
        <g id="FR_-_EN" data-name="FR - EN">
            <path class="cls-1" d="M14.83,325A13.84,13.84,0,0,1,1,311.18V14.82A13.84,13.84,0,0,1,14.83,1H193.17A13.84,13.84,0,0,1,207,14.82V311.18A13.84,13.84,0,0,1,193.17,325Z"
            />
            <path class="cls-2" d="M193.17,2A12.84,12.84,0,0,1,206,14.82V311.18A12.84,12.84,0,0,1,193.17,324H14.83A12.84,12.84,0,0,1,2,311.18V14.82A12.84,12.84,0,0,1,14.83,2H193.17m0-2H14.83A14.83,14.83,0,0,0,0,14.82V311.18A14.82,14.82,0,0,0,14.83,326H193.17A14.83,14.83,0,0,0,208,311.18V14.82A14.83,14.83,0,0,0,193.17,0Z"
            />
            <path d="M78.1,61.57c-2.12-4.09-9.27-10-13.52-13.41s-4.18-6.27-4.91-6.27-.48,2.83-4.74,6.27S44.84,56.33,42.71,60.42,40.38,71.15,47.4,74.6c4.51,2.21,8.31-.64,10.7-3.4.38,7.52-9.62,17.46-9.62,17.46a36.86,36.86,0,0,1,20.08-.24s-8.89-11.8-7.66-17.94c2.48,3.16,6.77,7.19,11.3,5C79.22,72,80.23,65.66,78.1,61.57Z"
            />
            <path d="M165.57,61.57c-2.12-4.09-9.27-10-13.52-13.41s-4.18-6.27-4.91-6.27-.48,2.83-4.74,6.27-10.09,8.17-12.21,12.26-2.34,10.73,4.68,14.18c4.51,2.21,8.31-.64,10.7-3.4C146,78.72,136,88.66,136,88.66A36.86,36.86,0,0,1,156,88.42s-8.89-11.8-7.65-17.94c2.47,3.16,6.77,7.19,11.29,5C166.69,72,167.7,65.66,165.57,61.57Z"
            />
            <path d="M129.87,263.45c2.13,4.09,9.28,10,13.53,13.41s4.17,6.27,4.91,6.27.47-2.82,4.73-6.27,10.09-8.17,12.22-12.25,2.34-10.74-4.68-14.18c-4.52-2.22-8.32.63-10.71,3.4-.37-7.53,9.62-17.46,9.62-17.46a36.8,36.8,0,0,1-20.08.23s8.89,11.8,7.66,17.94c-2.48-3.15-6.77-7.19-11.3-5C128.75,253,127.74,259.36,129.87,263.45Z"
            />
            <path d="M42.4,263.45c2.12,4.09,9.27,10,13.52,13.41s4.18,6.27,4.91,6.27.48-2.82,4.74-6.27,10.09-8.17,12.21-12.25,2.34-10.74-4.68-14.18c-4.51-2.22-8.31.63-10.7,3.4C62,246.3,72,236.37,72,236.37a36.8,36.8,0,0,1-20.08.23s8.88,11.8,7.65,17.94c-2.47-3.15-6.76-7.19-11.29-5C41.28,253,40.27,259.36,42.4,263.45Z"
            />
            <path d="M78.12,61.57c-2.13-4.09-9.27-10-13.52-13.41s-4.18-6.27-4.92-6.27-.47,2.83-4.73,6.27S44.86,56.33,42.73,60.42,40.39,71.15,47.41,74.6c4.52,2.21,8.31-.64,10.71-3.4.37,7.52-9.62,17.46-9.62,17.46a36.82,36.82,0,0,1,20.07-.24s-8.88-11.8-7.65-17.94c2.48,3.16,6.77,7.19,11.3,5C79.24,72,80.25,65.66,78.12,61.57Z"
            />
            <path d="M165.59,61.57c-2.12-4.09-9.27-10-13.52-13.41s-4.18-6.27-4.91-6.27-.48,2.83-4.74,6.27-10.09,8.17-12.22,12.26-2.33,10.73,4.69,14.18c4.51,2.21,8.31-.64,10.7-3.4C146,78.72,136,88.66,136,88.66a36.86,36.86,0,0,1,20.08-.24s-8.88-11.8-7.66-17.94c2.48,3.16,6.77,7.19,11.3,5C166.71,72,167.72,65.66,165.59,61.57Z"
            />
            <path d="M78.12,158.74c-2.13-4.08-9.28-10-13.53-13.41s-4.17-6.27-4.91-6.27-.47,2.83-4.73,6.27-10.1,8.17-12.22,12.26-2.34,10.73,4.68,14.18c4.52,2.22,8.31-.64,10.7-3.4.38,7.52-9.61,17.46-9.61,17.46a36.82,36.82,0,0,1,20.07-.24s-8.88-11.8-7.65-17.94c2.48,3.15,6.77,7.19,11.29,5C79.24,169.18,80.25,162.83,78.12,158.74Z"
            />
            <path d="M129.89,166.14c2.13,4.09,9.27,10,13.52,13.42s4.18,6.27,4.91,6.27.48-2.83,4.74-6.27,10.09-8.17,12.22-12.26,2.33-10.73-4.68-14.18c-4.52-2.22-8.32.64-10.71,3.4-.37-7.52,9.62-17.46,9.62-17.46a36.82,36.82,0,0,1-20.07.24s8.88,11.8,7.65,17.94c-2.48-3.15-6.77-7.19-11.3-5C128.77,155.71,127.76,162.06,129.89,166.14Z"
            />
            <path d="M129.89,263.45c2.13,4.09,9.27,10,13.53,13.41s4.17,6.27,4.91,6.27.47-2.82,4.73-6.27,10.1-8.17,12.22-12.25,2.34-10.74-4.68-14.18c-4.51-2.22-8.31.63-10.7,3.4-.38-7.53,9.61-17.46,9.61-17.46a36.76,36.76,0,0,1-20.07.23s8.88,11.8,7.65,17.94c-2.48-3.15-6.77-7.19-11.29-5C128.77,253,127.76,259.36,129.89,263.45Z"
            />
            <path d="M42.42,263.45c2.12,4.09,9.27,10,13.52,13.41s4.18,6.27,4.91,6.27.48-2.82,4.74-6.27,10.09-8.17,12.22-12.25,2.33-10.74-4.69-14.18c-4.51-2.22-8.31.63-10.7,3.4C62.05,246.3,72,236.37,72,236.37A36.8,36.8,0,0,1,52,236.6s8.89,11.8,7.66,17.94c-2.48-3.15-6.77-7.19-11.3-5C41.3,253,40.29,259.36,42.42,263.45Z"
            />
            <path d="M121.54,109.24c-2.13-4.08-9.27-10-13.52-13.41s-4.18-6.27-4.91-6.27-.48,2.83-4.74,6.27S88.28,104,86.15,108.09s-2.33,10.73,4.68,14.18c4.52,2.22,8.32-.64,10.71-3.4.38,7.53-9.62,17.46-9.62,17.46a36.86,36.86,0,0,1,20.08-.24s-8.89-11.8-7.66-17.93c2.48,3.15,6.77,7.18,11.3,5C122.66,119.69,123.67,113.33,121.54,109.24Z"
            />
            <path d="M29.58,54.25c-.9-1.75-3.93-4.27-5.74-5.74s-1.77-2.68-2.09-2.68-.2,1.21-2,2.68-4.28,3.5-5.18,5.24a4.27,4.27,0,0,0,2,6.07c1.92,1,3.53-.27,4.54-1.45.17,3.21-4.07,7.46-4.07,7.46a15.47,15.47,0,0,1,8.52-.1s-3.77-5.05-3.25-7.67c1,1.35,2.87,3.07,4.79,2.12C30.05,58.71,30.48,56,29.58,54.25Z"
            />
            <path d="M193.58,54.25c-.9-1.75-3.93-4.27-5.74-5.74s-1.77-2.68-2.09-2.68-.2,1.21-2,2.68-4.28,3.5-5.19,5.24a4.28,4.28,0,0,0,2,6.07c1.91,1,3.53-.27,4.54-1.45.17,3.21-4.07,7.46-4.07,7.46a15.48,15.48,0,0,1,8.52-.1s-3.77-5.05-3.25-7.67c1.05,1.35,2.87,3.07,4.79,2.12C194.05,58.71,194.48,56,193.58,54.25Z"
            />
            <path d="M178.42,271.29c.9,1.75,3.93,4.27,5.74,5.74s1.77,2.68,2.09,2.68.2-1.21,2-2.68,4.28-3.5,5.18-5.24a4.27,4.27,0,0,0-2-6.07c-1.92-.94-3.53.28-4.55,1.46-.16-3.22,4.08-7.47,4.08-7.47a15.47,15.47,0,0,1-8.52.1s3.77,5.05,3.25,7.67c-1.05-1.34-2.87-3.07-4.79-2.12C178,266.83,177.52,269.55,178.42,271.29Z"
            />
            <path d="M14.42,271.29c.9,1.75,3.93,4.27,5.74,5.74s1.77,2.68,2.09,2.68.2-1.21,2-2.68,4.28-3.5,5.18-5.24a4.27,4.27,0,0,0-2-6.07c-1.92-.94-3.53.28-4.54,1.46C22.75,264,27,259.71,27,259.71a15.47,15.47,0,0,1-8.52.1s3.77,5.05,3.25,7.67c-1-1.34-2.87-3.07-4.79-2.12C14,266.83,13.52,269.55,14.42,271.29Z"
            />
            <path d="M20.25,37.58H17c0-8.49,5.3-18.72,8-23.37H16.37v2.68H13.16V11H30.84l-1.62,2.49C29.13,13.61,20.25,27.42,20.25,37.58Z"
            />
            <path d="M184.25,37.58H181c0-8.49,5.3-18.72,8-23.37h-8.64v2.68h-3.21V11h17.68l-1.62,2.49C193.13,13.61,184.25,27.42,184.25,37.58Z"
            />
            <path d="M187.75,288.31H191c0,8.49-5.3,18.72-8,23.37h8.64V309h3.21v5.91H177.16l1.62-2.49C178.87,312.28,187.75,298.47,187.75,288.31Z"
            />
            <path d="M23.75,288.31H27c0,8.49-5.3,18.72-8,23.37h8.65V309h3.21v5.91H13.16l1.62-2.49C14.87,312.28,23.75,298.47,23.75,288.31Z"
            />
        </g>
    </g>
</svg>
