<svg xmlns="http://www.w3.org/2000/svg" viewBox="0 0 208 326">
    <defs>
        <style>
            .cls-1 {
                fill: #fff;
            }

            .cls-2 {
                fill: #6f7072;
            }

            .cls-3 {
                fill: #1d1d1b;
            }

            .cls-4 {
                fill: #1c1c1c;
            }
        </style>
    </defs>
    <title>7S-us-2c</title>
    <g id="Calque_2" data-name="Calque 2">
        <g id="FR_-_EN" data-name="FR - EN">
            <path class="cls-1" d="M14.83,325A13.84,13.84,0,0,1,1,311.18V14.82A13.84,13.84,0,0,1,14.83,1H193.17A13.84,13.84,0,0,1,207,14.82V311.18A13.85,13.85,0,0,1,193.16,325Z"
            />
            <path class="cls-2" d="M193.17,2A12.84,12.84,0,0,1,206,14.82V311.18A12.84,12.84,0,0,1,193.17,324H14.83A12.84,12.84,0,0,1,2,311.18V14.82A12.84,12.84,0,0,1,14.83,2H193.17m0-2H14.83A14.83,14.83,0,0,0,0,14.82V311.18A14.83,14.83,0,0,0,14.83,326H193.17A14.83,14.83,0,0,0,208,311.18V14.82A14.83,14.83,0,0,0,193.17,0Z"
            />
            <path class="cls-3" d="M21.34,74.47l1.27,0,1.22.07,1.25.12.4.07a23.69,23.69,0,0,1-3-6.28l-.07-.33,0-.48,0-.15,0,0,.09,0,.07.1A3.77,3.77,0,0,0,26.44,70c10.82-2.11-1.36-17.15-5.1-20.43C18,53,8.71,63.17,13,68.57a4.56,4.56,0,0,0,4.82,1.21l.73-.33.33-.24L19.2,69l.23-.26.19-.27.31-.52.19-.38.06-.1.1,0,0,0,0,.15,0,.48-.07.33a23.21,23.21,0,0,1-3,6.28l.4-.07,1.24-.12,1.23-.07"
            />
            <path class="cls-3" d="M186.78,74.47l1.27,0,1.22.07,1.24.12.41.07a23.69,23.69,0,0,1-3-6.28l-.07-.33,0-.48,0-.15,0,0,.09,0,.07.1A3.76,3.76,0,0,0,191.88,70c10.82-2.11-1.36-17.15-5.1-20.43-3.35,3.39-12.63,13.58-8.3,19a4.56,4.56,0,0,0,4.82,1.21l.73-.33.32-.24.29-.24.23-.26.19-.27.31-.52.19-.38.06-.1.1,0,0,0,0,.15,0,.48-.07.33a23.51,23.51,0,0,1-3,6.28l.4-.07,1.24-.12,1.22-.07"
            />
            <path class="cls-3" d="M186.83,251.5l-1.27.05-1.22-.07-1.25-.12-.4-.07a23.27,23.27,0,0,1,3,6.29l.07.33,0,.48,0,.14,0,0-.09,0-.07-.1a3.77,3.77,0,0,0-3.89-2.48c-10.82,2.11,1.37,17.15,5.11,20.43,3.34-3.39,12.63-13.57,8.3-19a4.57,4.57,0,0,0-4.82-1.21l-.73.33-.33.24L189,257l-.24.26-.19.27-.3.52-.19.38-.07.1-.1,0v0l0-.14,0-.48.07-.33a23.13,23.13,0,0,1,3-6.29l-.4.07-1.25.12-1.22.07"
            />
            <path class="cls-3" d="M21.39,251.5l-1.27.05-1.22-.07-1.25-.12-.4-.07a23.27,23.27,0,0,1,3,6.29l.08.33,0,.48,0,.14,0,0-.09,0-.07-.1A3.77,3.77,0,0,0,16.28,256c-10.82,2.11,1.37,17.15,5.11,20.43,3.34-3.39,12.63-13.57,8.3-19a4.57,4.57,0,0,0-4.82-1.21l-.73.33-.33.24-.28.24-.23.26-.19.27-.31.52-.19.38-.07.1-.09,0,0,0,0-.14,0-.48.07-.33a23.13,23.13,0,0,1,3-6.29l-.4.07-1.25.12-1.22.07"
            />
            <path class="cls-4" d="M14.89,12.15h12.9A95.16,95.16,0,0,0,16.49,42.7l3.85,0a92.87,92.87,0,0,1,4.25-15.57l1.22-3.11L27.13,21l1.41-3,.75-1.49,2-3.62.09-.57L30,8.62H11.46l-.09,9h3.49"
            />
            <path class="cls-4" d="M180.33,12.15h12.9a94.7,94.7,0,0,0-11.3,30.55l3.85,0A91,91,0,0,1,190,27.17l1.21-3.11L192.56,21l1.41-3,.76-1.49,2-3.62.09-.57-1.32-3.64H176.9l-.09,9h3.49"
            />
            <path class="cls-4" d="M193.27,312.22h-12.9a94.61,94.61,0,0,0,11.3-30.55l-3.85,0a92,92,0,0,1-4.24,15.58l-1.22,3.1L181,303.42l-1.41,3-.76,1.49-2,3.62-.09.57,1.32,3.64h18.58l.09-9h-3.49"
            />
            <path class="cls-4" d="M27.83,312.22H14.94a95.08,95.08,0,0,0,11.3-30.55l-3.85,0a93,93,0,0,1-4.25,15.58l-1.22,3.1-1.32,3.11-1.41,3-.76,1.49-2,3.62-.09.57,1.32,3.64H31.27l.09-9H27.87"
            />
            <path class="cls-3" d="M67.55,69.38l2-.09,2,.12,2,.19.64.12A38.12,38.12,0,0,1,69.3,59.63l-.11-.53,0-.77,0-.23,0,0,.15,0,.11.16c1.21,2.84,3.17,4,6.18,4,5-.41,7.37-4.11,6.78-9.08-.91-8.36-9.38-17.87-14.9-23.7-5.33,5.45-20.12,21.78-13.22,30.45a7.26,7.26,0,0,0,7.67,2l1.17-.53.52-.39.45-.38.37-.43.3-.42.49-.84.3-.61.11-.16.15,0,0,0,0,.23,0,.77-.11.53A37.52,37.52,0,0,1,61,69.72l.64-.12,2-.19,1.95-.12"
            />
            <path class="cls-3" d="M140.35,69.38l2-.09,1.95.12,2,.19.64.12a38.12,38.12,0,0,1-4.83-10.09L142,59.1l0-.77,0-.23,0,0,.15,0,.11.16c1.21,2.84,3.17,4,6.18,4,5-.41,7.37-4.11,6.78-9.08-.91-8.36-9.38-17.87-14.9-23.7-5.33,5.45-20.12,21.78-13.22,30.45a7.26,7.26,0,0,0,7.67,2l1.17-.53.52-.39.45-.38.37-.43.3-.42.49-.84.3-.61.11-.16.15,0,0,0,.05.23-.05.77-.11.53a37.52,37.52,0,0,1-4.83,10.09l.64-.12,2-.19,1.95-.12"
            />
            <path class="cls-3" d="M140.35,183.3l2-.08,1.95.12,2,.19.64.12a38.12,38.12,0,0,1-4.83-10.09L142,173l0-.77,0-.23,0,0,.15,0,.11.16c1.21,2.84,3.17,4,6.18,4,5-.41,7.37-4.12,6.78-9.08-.91-8.37-9.38-17.87-14.9-23.7-5.33,5.44-20.12,21.78-13.22,30.45a7.26,7.26,0,0,0,7.67,1.95l1.17-.54.52-.38.45-.38.37-.43.3-.43.49-.84.3-.6.11-.16.15,0,0,0,.05.23-.05.77-.11.53a37.52,37.52,0,0,1-4.83,10.09l.64-.12,2-.19,1.95-.12"
            />
            <path class="cls-3" d="M104,129.52l2-.08,2,.12,2,.19.64.12a38.12,38.12,0,0,1-4.83-10.09l-.11-.53,0-.77,0-.23,0,0,.15,0,.11.16c1.21,2.84,3.17,4,6.18,4,5-.41,7.37-4.11,6.78-9.08-.91-8.37-9.38-17.87-14.9-23.7-5.33,5.45-20.12,21.78-13.22,30.45a7.26,7.26,0,0,0,7.67,2l1.17-.54.52-.38.45-.38.37-.43.3-.43.49-.84.3-.6.11-.16.15,0,0,0,0,.23,0,.77-.11.53a37.52,37.52,0,0,1-4.83,10.09l.64-.12,2-.19,2-.12"
            />
            <path class="cls-3" d="M67.55,183.3l2-.08,2,.12,2,.19.64.12a38.12,38.12,0,0,1-4.83-10.09l-.11-.53,0-.77,0-.23,0,0,.14,0,.12.16c1.2,2.84,3.17,4,6.18,4,5-.41,7.37-4.12,6.78-9.08-.91-8.37-9.38-17.87-14.9-23.7-5.33,5.44-20.12,21.78-13.22,30.45A7.26,7.26,0,0,0,62,175.79l1.17-.54.52-.38.45-.38.37-.43.3-.43.49-.84.3-.6.11-.16.15,0,0,0,0,.23,0,.77-.11.53A37.52,37.52,0,0,1,61,183.65l.64-.12,2-.19,1.95-.12"
            />
            <path class="cls-3" d="M140.32,255.39l-2,.08-1.95-.12-2-.19-.64-.12a38.12,38.12,0,0,1,4.83,10.09l.11.53,0,.77,0,.23,0,0-.15,0-.11-.16c-1.21-2.83-3.17-4-6.18-4-5,.41-7.37,4.12-6.78,9.09.91,8.36,9.38,17.86,14.9,23.69,5.33-5.44,20.12-21.77,13.22-30.45a7.24,7.24,0,0,0-7.67-1.94l-1.17.53-.52.38-.44.38-.38.43-.3.43-.49.84-.3.6-.1.16-.16,0,0,0,0-.23,0-.77.11-.53A37.52,37.52,0,0,1,146.92,255l-.64.12-2,.19-2,.12"
            />
            <path class="cls-3" d="M67.52,255.39l-2,.08-2-.12-2-.19-.64-.12a38.12,38.12,0,0,1,4.83,10.09l.11.53,0,.77,0,.23,0,0-.15,0-.11-.16c-1.21-2.83-3.17-4-6.18-4-5,.41-7.37,4.12-6.78,9.09.91,8.36,9.38,17.86,14.9,23.69,5.33-5.44,20.12-21.77,13.22-30.45a7.24,7.24,0,0,0-7.67-1.94l-1.17.53-.52.38-.45.38-.37.43-.3.43-.49.84-.3.6-.11.16-.15,0,0,0-.05-.23.05-.77.11-.53A37.52,37.52,0,0,1,74.12,255l-.64.12-2,.19-2,.12"
            />
        </g>
    </g>
</svg>
