<svg xmlns="http://www.w3.org/2000/svg" viewBox="0 0 208 326">
    <defs>
        <style>
            .cls-1 {
                fill: #fff;
            }

            .cls-2 {
                fill: #6f7072;
            }
        </style>
    </defs>
    <title>8C-fr-2c</title>
    <g id="Calque_2" data-name="Calque 2">
        <g id="FR_-_EN" data-name="FR - EN">
            <path class="cls-1" d="M14.83,325A13.84,13.84,0,0,1,1,311.18V14.82A13.84,13.84,0,0,1,14.83,1H193.17A13.84,13.84,0,0,1,207,14.82V311.18A13.84,13.84,0,0,1,193.17,325Z"
            />
            <path class="cls-2" d="M193.17,2A12.84,12.84,0,0,1,206,14.82V311.18A12.84,12.84,0,0,1,193.17,324H14.83A12.84,12.84,0,0,1,2,311.18V14.82A12.84,12.84,0,0,1,14.83,2H193.17m0-2H14.83A14.83,14.83,0,0,0,0,14.82V311.18A14.83,14.83,0,0,0,14.83,326H193.17A14.83,14.83,0,0,0,208,311.18V14.82A14.83,14.83,0,0,0,193.17,0Z"
            />
            <path d="M62.25,40.92c5.59,0,8,4.11,8,8.43s-3.87,6.92-5.38,9.52a8,8,0,0,0-1.07,5h-3a7.91,7.91,0,0,0-1.08-5c-1.5-2.6-5.38-5.19-5.38-9.52S56.66,40.92,62.25,40.92Z"
            />
            <path d="M85.06,65.69c0,5.62-4.09,8-8.39,8s-6.88-3.89-9.46-5.4a7.83,7.83,0,0,0-4.95-1.09v-3a7.83,7.83,0,0,0,4.95-1.09c2.58-1.51,5.16-5.4,9.46-5.4S85.06,60.07,85.06,65.69Z"
            />
            <path d="M38,65.69c0-5.62,4.09-8,8.39-8s6.88,3.89,9.47,5.4a7.8,7.8,0,0,0,4.94,1.09v3a7.8,7.8,0,0,0-4.94,1.09c-2.59,1.51-5.17,5.4-9.47,5.4S38,71.32,38,65.69Z"
            />
            <path d="M63.92,62V74.14c0,5.7,8.06,11.22,8.06,11.22H52.53s8.07-5.52,8.07-11.22V62Z" />
            <path d="M148,40.92c5.59,0,8,4.11,8,8.43s-3.87,6.92-5.38,9.52a8,8,0,0,0-1.07,5h-3a7.91,7.91,0,0,0-1.08-5c-1.51-2.6-5.38-5.19-5.38-9.52S142.44,40.92,148,40.92Z"
            />
            <path d="M170.84,65.69c0,5.62-4.09,8-8.39,8s-6.89-3.89-9.47-5.4A7.83,7.83,0,0,0,148,67.2v-3A7.83,7.83,0,0,0,153,63.09c2.58-1.51,5.17-5.4,9.47-5.4S170.84,60.07,170.84,65.69Z"
            />
            <path d="M123.81,65.69c0-5.62,4.08-8,8.39-8s6.88,3.89,9.46,5.4a7.83,7.83,0,0,0,5,1.09v3a7.83,7.83,0,0,0-5,1.09c-2.58,1.51-5.16,5.4-9.46,5.4S123.81,71.32,123.81,65.69Z"
            />
            <path d="M149.69,62V74.14c0,5.7,8.06,11.22,8.06,11.22H138.31s8.06-5.52,8.06-11.22V62Z" />
            <path d="M104.61,91.54c5.59,0,8,4.1,8,8.43s-3.87,6.92-5.38,9.52a8,8,0,0,0-1.07,5h-3a8,8,0,0,0-1.08-5c-1.51-2.6-5.38-5.19-5.38-9.52S99,91.54,104.61,91.54Z"
            />
            <path d="M127.41,116.31c0,5.62-4.08,8-8.38,8s-6.89-3.89-9.47-5.4a7.83,7.83,0,0,0-5-1.09v-3a7.78,7.78,0,0,0,5-1.08c2.58-1.51,5.16-5.41,9.47-5.41S127.41,110.69,127.41,116.31Z"
            />
            <path d="M80.39,116.31c0-5.62,4.08-8,8.39-8s6.88,3.89,9.46,5.4a7.83,7.83,0,0,0,5,1.09v3a7.83,7.83,0,0,0-5,1.09c-2.58,1.51-5.16,5.4-9.46,5.4S80.39,121.93,80.39,116.31Z"
            />
            <path d="M106.27,112.64v12.12c0,5.7,8.06,11.22,8.06,11.22H94.89s8.06-5.52,8.06-11.22V112.64Z" />
            <path d="M61.54,138.4c5.6,0,8,4.11,8,8.43s-3.88,6.93-5.39,9.52a8,8,0,0,0-1.07,5H60a8,8,0,0,0-1.08-5c-1.5-2.59-5.37-5.19-5.37-9.52S56,138.4,61.54,138.4Z"
            />
            <path d="M84.35,163.17c0,5.63-4.09,8-8.39,8s-6.89-3.9-9.47-5.41a7.86,7.86,0,0,0-4.95-1.08v-3a7.86,7.86,0,0,0,4.95-1.08c2.58-1.52,5.17-5.41,9.47-5.41S84.35,157.55,84.35,163.17Z"
            />
            <path d="M37.32,163.18c0-5.63,4.09-8,8.39-8s6.88,3.89,9.47,5.41a7.83,7.83,0,0,0,4.94,1.08v3a7.83,7.83,0,0,0-4.94,1.08c-2.59,1.51-5.17,5.41-9.47,5.41S37.32,168.8,37.32,163.18Z"
            />
            <path d="M63.21,159.51v12.12c0,5.7,8.06,11.22,8.06,11.22H51.82s8.07-5.52,8.07-11.22V159.51Z" />
            <path d="M62.25,284.79c5.59,0,8-4.11,8-8.43s-3.87-6.93-5.38-9.52a8,8,0,0,1-1.07-5h-3a8,8,0,0,1-1.08,5c-1.5,2.59-5.38,5.19-5.38,9.52S56.66,284.79,62.25,284.79Z"
            />
            <path d="M85.06,260c0-5.63-4.09-8-8.39-8s-6.88,3.9-9.46,5.41a7.86,7.86,0,0,1-4.95,1.08v3a7.86,7.86,0,0,1,4.95,1.08c2.58,1.52,5.16,5.41,9.46,5.41S85.06,265.64,85.06,260Z"
            />
            <path d="M38,260c0,5.62,4.09,8,8.39,8s6.88-3.9,9.47-5.41a7.83,7.83,0,0,1,4.94-1.08v-3a7.83,7.83,0,0,1-4.94-1.08c-2.59-1.51-5.17-5.41-9.47-5.41S38,254.39,38,260Z"
            />
            <path d="M63.92,263.68V251.56c0-5.7,8.06-11.22,8.06-11.22H52.53s8.07,5.52,8.07,11.22v12.12Z" />
            <path d="M148,284.79c5.59,0,8-4.11,8-8.43s-3.87-6.93-5.38-9.52a8,8,0,0,1-1.07-5h-3a8,8,0,0,1-1.08,5c-1.51,2.59-5.38,5.19-5.38,9.52S142.44,284.79,148,284.79Z"
            />
            <path d="M170.84,260c0-5.63-4.09-8-8.39-8s-6.89,3.9-9.47,5.41A7.86,7.86,0,0,1,148,258.5v3a7.86,7.86,0,0,1,4.95,1.08c2.58,1.52,5.17,5.41,9.47,5.41S170.84,265.64,170.84,260Z"
            />
            <path d="M123.81,260c0,5.62,4.08,8,8.39,8s6.88-3.9,9.46-5.41a7.86,7.86,0,0,1,5-1.08v-3a7.86,7.86,0,0,1-5-1.08c-2.58-1.51-5.16-5.41-9.46-5.41S123.81,254.39,123.81,260Z"
            />
            <path d="M149.69,263.68V251.56c0-5.7,8.06-11.22,8.06-11.22H138.31s8.06,5.52,8.06,11.22v12.12Z" />
            <path d="M104.61,237.39c5.59,0,8-4.11,8-8.44s-3.87-6.92-5.38-9.51a8,8,0,0,1-1.07-5h-3a8,8,0,0,1-1.08,5c-1.51,2.59-5.38,5.19-5.38,9.51S99,237.39,104.61,237.39Z"
            />
            <path d="M127.41,212.61c0-5.62-4.08-8-8.38-8s-6.89,3.89-9.47,5.41a7.86,7.86,0,0,1-5,1.08v3a7.86,7.86,0,0,1,5,1.08c2.58,1.52,5.16,5.41,9.47,5.41S127.41,218.24,127.41,212.61Z"
            />
            <path d="M80.39,212.61c0,5.63,4.08,8,8.39,8s6.88-3.9,9.46-5.41a7.78,7.78,0,0,1,5-1.08v-3a7.86,7.86,0,0,1-5-1.08c-2.58-1.52-5.16-5.41-9.46-5.41S80.39,207,80.39,212.61Z"
            />
            <path d="M106.27,216.28V204.16c0-5.7,8.06-11.22,8.06-11.22H94.89s8.06,5.52,8.06,11.22v12.12Z" />
            <path d="M147.32,182.85c5.59,0,8-4.11,8-8.44s-3.87-6.92-5.38-9.51a7.9,7.9,0,0,1-1.07-5h-3a8,8,0,0,1-1.07,5c-1.51,2.59-5.38,5.19-5.38,9.51S141.73,182.85,147.32,182.85Z"
            />
            <path d="M170.13,158.07c0-5.62-4.09-8-8.39-8s-6.89,3.89-9.47,5.41a7.86,7.86,0,0,1-5,1.08v3a7.78,7.78,0,0,1,5,1.08c2.58,1.51,5.17,5.41,9.47,5.41S170.13,163.7,170.13,158.07Z"
            />
            <path d="M123.1,158.07c0,5.63,4.08,8,8.38,8s6.89-3.9,9.47-5.41a7.78,7.78,0,0,1,5-1.08v-3a7.86,7.86,0,0,1-5-1.08c-2.58-1.52-5.17-5.41-9.47-5.41S123.1,152.45,123.1,158.07Z"
            />
            <path d="M149,161.74V149.62c0-5.7,8.06-11.22,8.06-11.22H137.6s8.06,5.52,8.06,11.22v12.12Z" />
            <path d="M21.44,38.9a8,8,0,0,1-7.94-8.43,7.66,7.66,0,0,1,3.55-6.75,7.57,7.57,0,0,1-2.35-5.8c0-4.89,4.92-7,7.42-7,2.7,0,7.26,1.53,7.26,7.29a6.81,6.81,0,0,1-2.7,5.7,7.89,7.89,0,0,1,3.55,6.62C30.23,36,25.12,38.9,21.44,38.9Zm.22-13.41c-.05,0-4.94.22-4.94,5a4.81,4.81,0,0,0,4.72,5.21c1.88,0,5.57-1.56,5.57-5.15S23.47,25.49,21.66,25.49Zm.46-11.34c-.89,0-4.21.94-4.21,3.77s1.95,4.34,3.75,4.34c.76,0,4.5-.19,4.5-4.05A3.76,3.76,0,0,0,22.12,14.15Z"
            />
            <path d="M185.44,38.9a8,8,0,0,1-7.94-8.43A7.68,7.68,0,0,1,181,23.72a7.6,7.6,0,0,1-2.34-5.8c0-4.89,4.92-7,7.43-7,2.69,0,7.25,1.53,7.25,7.29a6.81,6.81,0,0,1-2.7,5.7,7.89,7.89,0,0,1,3.55,6.62C194.23,36,189.12,38.9,185.44,38.9Zm.23-13.41s-4.95.22-4.95,5a4.81,4.81,0,0,0,4.72,5.21c1.88,0,5.58-1.56,5.58-5.15S187.47,25.49,185.67,25.49Zm.45-11.34c-.89,0-4.2.94-4.2,3.77s1.94,4.34,3.75,4.34c.75,0,4.49-.19,4.49-4.05A3.76,3.76,0,0,0,186.12,14.15Z"
            />
            <path d="M186.34,286.86a8,8,0,0,1,7.93,8.44,7.68,7.68,0,0,1-3.54,6.75,7.6,7.6,0,0,1,2.34,5.8c0,4.89-4.91,7-7.42,7-2.7,0-7.25-1.53-7.25-7.29a6.81,6.81,0,0,1,2.69-5.7,7.91,7.91,0,0,1-3.55-6.62C177.55,289.77,182.65,286.86,186.34,286.86Zm-.23,13.42s4.95-.22,4.95-5a4.8,4.8,0,0,0-4.72-5.2c-1.88,0-5.58,1.55-5.58,5.14S184.3,300.28,186.11,300.28Zm-.46,11.34c.89,0,4.21-.94,4.21-3.77,0-3-1.94-4.34-3.75-4.34-.75,0-4.49.19-4.49,4.05A3.75,3.75,0,0,0,185.65,311.62Z"
            />
            <path d="M22.3,286.86a8,8,0,0,1,7.93,8.44,7.68,7.68,0,0,1-3.54,6.75,7.56,7.56,0,0,1,2.34,5.8c0,4.89-4.91,7-7.42,7-2.69,0-7.25-1.53-7.25-7.29a6.81,6.81,0,0,1,2.69-5.7,7.91,7.91,0,0,1-3.55-6.62C13.51,289.77,18.61,286.86,22.3,286.86Zm-.23,13.42c.05,0,4.95-.22,4.95-5a4.8,4.8,0,0,0-4.72-5.2c-1.88,0-5.58,1.55-5.58,5.14S20.27,300.28,22.07,300.28Zm-.45,11.34c.89,0,4.2-.94,4.2-3.77,0-3-1.94-4.34-3.75-4.34-.75,0-4.49.19-4.49,4.05A3.76,3.76,0,0,0,21.62,311.62Z"
            />
            <path d="M27.88,52.94c-1.8,0-2.87,1.67-3.95,2.32a1.31,1.31,0,0,1-.8.2A1.68,1.68,0,0,1,23,53.63c.63-1.12,2.24-2.23,2.24-4.09s-1-3.62-3.32-3.62-3.32,1.76-3.32,3.62,1.62,3,2.24,4.09a1.67,1.67,0,0,1-.19,1.83,1.26,1.26,0,0,1-.79-.2c-1.08-.65-2.16-2.32-3.95-2.32a3.44,3.44,0,1,0,0,6.88c1.79,0,2.87-1.68,3.95-2.33a1.34,1.34,0,0,1,.9-.19c.95,3.37-2.16,8.62-2.16,8.62a10.41,10.41,0,0,1,3.32-.46,10.41,10.41,0,0,1,3.32.46s-3.53-5.33-2.26-8.6a1.32,1.32,0,0,1,1,.17c1.07.65,2.15,2.33,3.95,2.33a3.44,3.44,0,1,0,0-6.88Z"
            />
            <path d="M191.88,52.94c-1.8,0-2.87,1.67-3.95,2.32a1.31,1.31,0,0,1-.8.2,1.68,1.68,0,0,1-.18-1.83c.63-1.12,2.24-2.23,2.24-4.09s-1-3.62-3.32-3.62-3.32,1.76-3.32,3.62,1.62,3,2.24,4.09a1.67,1.67,0,0,1-.19,1.83,1.26,1.26,0,0,1-.79-.2c-1.08-.65-2.16-2.32-3.95-2.32a3.44,3.44,0,1,0,0,6.88c1.79,0,2.87-1.68,3.95-2.33a1.34,1.34,0,0,1,.9-.19c.95,3.37-2.16,8.62-2.16,8.62a12.21,12.21,0,0,1,6.64,0s-3.53-5.33-2.26-8.6a1.32,1.32,0,0,1,1,.17c1.07.65,2.15,2.33,3.95,2.33a3.44,3.44,0,1,0,0-6.88Z"
            />
            <path d="M179.9,272.77c1.79,0,2.87-1.67,3.94-2.32a1.35,1.35,0,0,1,.81-.2,1.7,1.7,0,0,1,.18,1.83c-.63,1.12-2.24,2.23-2.24,4.09s1,3.62,3.32,3.62,3.31-1.76,3.31-3.62-1.61-3-2.24-4.09a1.67,1.67,0,0,1,.2-1.83,1.29,1.29,0,0,1,.79.2c1.07.65,2.15,2.32,3.95,2.32a3.44,3.44,0,1,0,0-6.88c-1.8,0-2.87,1.68-3.95,2.33a1.3,1.3,0,0,1-.91.18c-.95-3.36,2.17-8.61,2.17-8.61a12.21,12.21,0,0,1-6.64,0s3.52,5.33,2.26,8.6a1.37,1.37,0,0,1-1-.17c-1.08-.65-2.16-2.33-3.95-2.33a3.44,3.44,0,1,0,0,6.88Z"
            />
            <path d="M15.86,272.77c1.79,0,2.87-1.67,3.94-2.32a1.35,1.35,0,0,1,.81-.2,1.7,1.7,0,0,1,.18,1.83c-.63,1.12-2.24,2.23-2.24,4.09s1,3.62,3.32,3.62,3.31-1.76,3.31-3.62-1.61-3-2.24-4.09a1.67,1.67,0,0,1,.2-1.83,1.29,1.29,0,0,1,.79.2c1.07.65,2.15,2.32,3.95,2.32a3.44,3.44,0,1,0,0-6.88c-1.8,0-2.87,1.68-3.95,2.33a1.29,1.29,0,0,1-.91.18c-.94-3.36,2.17-8.61,2.17-8.61a10.41,10.41,0,0,1-3.32.46,10.41,10.41,0,0,1-3.32-.46s3.53,5.33,2.26,8.6a1.37,1.37,0,0,1-1-.17c-1.08-.65-2.16-2.33-3.95-2.33a3.44,3.44,0,1,0,0,6.88Z"
            />
        </g>
    </g>
</svg>
