<svg xmlns="http://www.w3.org/2000/svg" viewBox="0 0 208 326">
    <defs>
        <style>
            .cls-1 {
                fill: #fff;
            }

            .cls-2 {
                fill: #6f7072;
            }

            .cls-3 {
                fill: #1c1c1c;
            }
        </style>
    </defs>
    <title>8C-us-2c</title>
    <g id="Calque_2" data-name="Calque 2">
        <g id="FR_-_EN" data-name="FR - EN">
            <path class="cls-1" d="M14.83,325A13.84,13.84,0,0,1,1,311.18V14.82A13.84,13.84,0,0,1,14.83,1H193.17A13.84,13.84,0,0,1,207,14.82V311.18A13.84,13.84,0,0,1,193.17,325Z"
            />
            <path class="cls-2" d="M193.17,2A12.84,12.84,0,0,1,206,14.82V311.18A12.84,12.84,0,0,1,193.17,324H14.83A12.84,12.84,0,0,1,2,311.18V14.82A12.84,12.84,0,0,1,14.83,2H193.17m0-2H14.83A14.83,14.83,0,0,0,0,14.82V311.18A14.83,14.83,0,0,0,14.83,326H193.17A14.83,14.83,0,0,0,208,311.18V14.82A14.83,14.83,0,0,0,193.17,0Z"
            />
            <path class="cls-3" d="M32.52,65c.39-4.5-3.51-8.2-7.57-4.35l-.82-1.2c4.51-2.93,2.29-8.43-2.71-8.69-5.1.05-7.58,5.69-3,8.69l-.83,1.2c-4.62-4.38-8.81,1.05-7.28,5.67a5.24,5.24,0,0,0,4.52,3.91,3.86,3.86,0,0,0,2.93-1c.81-.61,1-1.77,1.56-2.32.65.34.62.28.59,1a16.5,16.5,0,0,1-2.58,5.58,26.35,26.35,0,0,1,7.83,0,16.47,16.47,0,0,1-2.57-5.58c0-.71,0-.67.59-1,.55.54.77,1.75,1.56,2.32a3.82,3.82,0,0,0,2.92,1c2.38-.08,4.26-2.26,4.69-4.53"
            />
            <path class="cls-3" d="M198,65c.39-4.5-3.51-8.2-7.57-4.35l-.82-1.2c4.51-2.93,2.29-8.43-2.72-8.69-5.1.05-7.58,5.69-2.94,8.69l-.83,1.2c-4.62-4.38-8.81,1.05-7.29,5.67a5.26,5.26,0,0,0,4.53,3.91,3.82,3.82,0,0,0,2.92-1c.82-.61,1-1.77,1.56-2.32.65.34.62.28.59,1a16.47,16.47,0,0,1-2.57,5.58,26.35,26.35,0,0,1,7.83,0,16.29,16.29,0,0,1-2.57-5.58c-.05-.71,0-.67.59-1,.54.54.76,1.75,1.56,2.32a3.82,3.82,0,0,0,2.92,1c2.38-.08,4.26-2.26,4.69-4.53"
            />
            <path class="cls-3" d="M175.5,260.86c-.39,4.5,3.51,8.21,7.57,4.36l.83,1.19c-4.52,2.93-2.3,8.43,2.71,8.69,5.1,0,7.58-5.69,2.95-8.69l.82-1.19c4.62,4.37,8.81-1.05,7.28-5.68a5.23,5.23,0,0,0-4.52-3.9,3.83,3.83,0,0,0-2.92,1c-.82.61-1,1.77-1.56,2.32-.65-.34-.62-.27-.59-1a16.39,16.39,0,0,1,2.57-5.58,27,27,0,0,1-7.83,0,16.12,16.12,0,0,1,2.57,5.58c.05.7,0,.66-.59,1-.54-.53-.76-1.75-1.56-2.32a3.78,3.78,0,0,0-2.92-1c-2.38.08-4.26,2.26-4.69,4.52"
            />
            <path class="cls-3" d="M10.06,260.86c-.38,4.5,3.51,8.21,7.57,4.36l.83,1.19c-4.52,2.93-2.3,8.43,2.71,8.69,5.1,0,7.58-5.69,2.95-8.69l.82-1.19c4.63,4.37,8.82-1.05,7.29-5.68a5.24,5.24,0,0,0-4.52-3.9,3.84,3.84,0,0,0-2.93,1c-.81.61-1,1.77-1.56,2.32-.65-.34-.62-.27-.59-1a16.39,16.39,0,0,1,2.57-5.58,27,27,0,0,1-7.82,0A16.28,16.28,0,0,1,19.94,258c0,.7,0,.66-.59,1-.54-.53-.76-1.75-1.56-2.32a3.76,3.76,0,0,0-2.92-1c-2.38.08-4.25,2.26-4.69,4.52"
            />
            <path class="cls-3" d="M89.92,56.54c.78-9-7-16.41-15.13-8.71l-1.66-2.39c9-5.85,4.59-16.87-5.42-17.39-10.2.1-15.16,11.38-5.9,17.39l-1.65,2.39c-9.24-8.75-17.63,2.1-14.57,11.35,1.17,4,4.75,7.66,9,7.8a7.63,7.63,0,0,0,5.86-2.06c1.63-1.22,2-3.54,3.12-4.64,1.3.68,1.24.55,1.18,2-.61,3.78-3.12,8-5.15,11.16a52.69,52.69,0,0,1,15.66,0c-2-3.26-4.53-7.29-5.14-11.16-.09-1.42-.06-1.33,1.18-2,1.09,1.06,1.53,3.5,3.12,4.64A7.63,7.63,0,0,0,80.3,67c4.77-.16,8.52-4.51,9.38-9"
            />
            <path class="cls-3" d="M45,269.29c-.77,9,7,16.42,15.14,8.71l1.65,2.4c-9,5.85-4.58,16.86,5.42,17.38,10.2-.09,15.17-11.38,5.9-17.38l1.65-2.4c9.25,8.75,17.63-2.09,14.57-11.34-1.16-4-4.75-7.67-9-7.81a7.68,7.68,0,0,0-5.86,2.06c-1.62,1.22-2,3.55-3.11,4.64-1.3-.67-1.24-.54-1.18-2,.61-3.79,3.12-8,5.15-11.16a53.37,53.37,0,0,1-15.66,0c2,3.25,4.52,7.29,5.13,11.16.1,1.41.07,1.32-1.17,2-1.09-1.06-1.53-3.5-3.12-4.64a7.65,7.65,0,0,0-5.85-2.06c-4.76.16-8.51,4.51-9.38,9"
            />
            <path class="cls-3" d="M162.72,56.54c.78-9-7-16.41-15.13-8.71l-1.65-2.39c9-5.85,4.58-16.87-5.43-17.39-10.2.1-15.16,11.38-5.89,17.39L133,47.83c-9.24-8.75-17.63,2.1-14.57,11.35,1.17,4,4.75,7.66,9,7.8a7.62,7.62,0,0,0,5.85-2.06c1.63-1.22,2-3.54,3.12-4.64,1.3.68,1.24.55,1.18,2-.61,3.78-3.12,8-5.15,11.16a52.69,52.69,0,0,1,15.66,0c-2-3.26-4.53-7.29-5.14-11.16-.09-1.42-.06-1.33,1.18-2,1.09,1.06,1.53,3.5,3.12,4.64A7.64,7.64,0,0,0,153.1,67c4.77-.16,8.52-4.51,9.38-9"
            />
            <path class="cls-3" d="M89.92,168.73c.78-9-7-16.42-15.13-8.71l-1.66-2.4c9-5.85,4.59-16.86-5.42-17.38-10.2.09-15.16,11.38-5.9,17.38L60.16,160c-9.24-8.75-17.63,2.09-14.57,11.34,1.17,4,4.75,7.67,9,7.81a7.67,7.67,0,0,0,5.86-2.06c1.63-1.22,2-3.55,3.12-4.64,1.3.67,1.24.54,1.18,2-.61,3.79-3.12,8-5.15,11.16a53.37,53.37,0,0,1,15.66,0c-2-3.25-4.53-7.29-5.14-11.16-.09-1.41-.06-1.32,1.18-2,1.09,1.06,1.53,3.5,3.12,4.64a7.63,7.63,0,0,0,5.84,2.06c4.77-.16,8.52-4.51,9.38-9"
            />
            <path class="cls-3" d="M162.72,168.73c.78-9-7-16.42-15.13-8.71l-1.65-2.4c9-5.85,4.58-16.86-5.43-17.38-10.2.09-15.16,11.38-5.89,17.38L133,160c-9.24-8.75-17.63,2.09-14.57,11.34,1.17,4,4.75,7.67,9,7.81a7.66,7.66,0,0,0,5.85-2.06c1.63-1.22,2-3.55,3.12-4.64,1.3.67,1.24.54,1.18,2-.61,3.79-3.12,8-5.15,11.16a53.37,53.37,0,0,1,15.66,0c-2-3.25-4.53-7.29-5.14-11.16-.09-1.41-.06-1.32,1.18-2,1.09,1.06,1.53,3.5,3.12,4.64a7.64,7.64,0,0,0,5.84,2.06c4.77-.16,8.52-4.51,9.38-9"
            />
            <path class="cls-3" d="M117.81,269.29c-.78,9,7,16.42,15.13,8.71l1.65,2.4c-9,5.85-4.58,16.86,5.42,17.38,10.2-.09,15.17-11.38,5.9-17.38l1.65-2.4c9.25,8.75,17.63-2.09,14.57-11.34-1.16-4-4.75-7.67-9-7.81a7.65,7.65,0,0,0-5.85,2.06c-1.63,1.22-2,3.55-3.12,4.64-1.3-.67-1.24-.54-1.18-2,.61-3.79,3.12-8,5.15-11.16a53.37,53.37,0,0,1-15.66,0c2,3.25,4.52,7.29,5.14,11.16.09,1.41.06,1.32-1.18,2-1.09-1.06-1.53-3.5-3.12-4.64a7.65,7.65,0,0,0-5.85-2.06c-4.76.16-8.51,4.51-9.38,9"
            />
            <path class="cls-3" d="M126.32,115c.78-9-7-16.41-15.13-8.71l-1.65-2.4c9-5.85,4.58-16.86-5.43-17.38-10.2.09-15.16,11.38-5.89,17.38l-1.66,2.4c-9.24-8.75-17.63,2.1-14.57,11.34,1.17,4,4.75,7.67,9,7.81a7.67,7.67,0,0,0,5.86-2.06c1.63-1.22,2-3.54,3.12-4.64,1.3.67,1.24.54,1.18,2-.61,3.79-3.12,8-5.15,11.16a53.37,53.37,0,0,1,15.66,0c-2-3.25-4.53-7.28-5.14-11.16-.09-1.41-.06-1.32,1.18-2,1.09,1.06,1.53,3.5,3.12,4.64a7.64,7.64,0,0,0,5.84,2.06c4.77-.16,8.52-4.51,9.38-9"
            />
            <path class="cls-3" d="M81.41,215.15c-.78,9,7,16.41,15.13,8.71l1.65,2.39c-9,5.85-4.58,16.87,5.42,17.38,10.2-.09,15.17-11.37,5.9-17.38l1.65-2.39c9.25,8.75,17.63-2.1,14.57-11.35-1.16-4-4.75-7.67-9-7.81a7.66,7.66,0,0,0-5.85,2.07c-1.63,1.22-2,3.54-3.12,4.64-1.3-.68-1.24-.55-1.18-2,.61-3.78,3.12-8,5.15-11.16a53,53,0,0,1-15.66,0c2,3.25,4.52,7.29,5.14,11.16.09,1.42.06,1.33-1.18,2-1.09-1.07-1.53-3.5-3.12-4.64A7.66,7.66,0,0,0,91,204.7c-4.76.16-8.51,4.52-9.38,9.05"
            />
            <path class="cls-3" d="M28.63,32.37c-.38,8.61-13.62,9-14.58.42-.15-8.9,13.53-9.61,14.58-.86m3.86-1.05c-.61-3.53-2.68-5.62-5.5-7.41,7.2-5.16,3.4-14.81-4.9-15.44-8.76-.54-14,9.79-6.25,15.4-7.74,4.06-7.6,14,.09,17.93,6.46,3.42,15.18-.1,16.56-7.52ZM27.31,16.6c-.38,6.91-10.76,7.34-11.76.38-.11-7.15,10.71-8,11.76-.77Z"
            />
            <path class="cls-3" d="M194.07,32.37c-.39,8.61-13.62,9-14.58.42-.15-8.9,13.53-9.61,14.58-.86m3.85-1.05c-.6-3.53-2.67-5.62-5.5-7.41,7.21-5.16,3.41-14.81-4.9-15.44-8.76-.54-14,9.79-6.24,15.4-7.74,4.06-7.6,14,.09,17.93,6.46,3.42,15.17-.1,16.55-7.52ZM192.75,16.6C192.37,23.51,182,23.94,181,17c-.11-7.15,10.7-8,11.76-.77Z"
            />
            <path class="cls-3" d="M179.39,291.6c.38-8.62,13.62-9,14.58-.43.15,8.91-13.53,9.62-14.58.86m-3.85,1.05c.6,3.54,2.67,5.62,5.5,7.41-7.21,5.17-3.41,14.81,4.9,15.44,8.76.55,14-9.78,6.24-15.4,7.74-4.06,7.6-14-.09-17.92-6.46-3.42-15.17.09-16.55,7.51Zm5.17,14.29c.38-6.91,10.76-7.34,11.76-.39.11,7.15-10.7,8-11.76.77Z"
            />
            <path class="cls-3" d="M14,291.6c.39-8.62,13.62-9,14.58-.43.15,8.91-13.53,9.62-14.58.86m-3.85,1.05c.6,3.54,2.67,5.62,5.5,7.41-7.21,5.17-3.41,14.81,4.9,15.44,8.76.55,14-9.78,6.24-15.4,7.75-4.06,7.6-14-.09-17.92-6.45-3.42-15.17.09-16.55,7.51Zm5.17,14.29C15.65,300.46,26,300,27,307c.11,7.15-10.7,8-11.76.77Z"
            />
        </g>
    </g>
</svg>
