<svg xmlns="http://www.w3.org/2000/svg" viewBox="0 0 208 326">
    <defs>
        <style>
            .cls-1 {
                fill: #fff;
            }

            .cls-2 {
                fill: #6f7072;
            }

            .cls-3 {
                fill: #f72014;
            }
        </style>
    </defs>
    <title>8D-fr-2c</title>
    <g id="Calque_2" data-name="Calque 2">
        <g id="FR_-_EN" data-name="FR - EN">
            <path class="cls-1" d="M14.83,325A13.84,13.84,0,0,1,1,311.18V14.82A13.84,13.84,0,0,1,14.83,1H193.17A13.84,13.84,0,0,1,207,14.82V311.18A13.84,13.84,0,0,1,193.17,325Z"
            />
            <path class="cls-2" d="M193.17,2A12.84,12.84,0,0,1,206,14.82V311.18A12.84,12.84,0,0,1,193.17,324H14.83A12.84,12.84,0,0,1,2,311.18V14.82A12.84,12.84,0,0,1,14.83,2H193.17m0-2H14.83A14.83,14.83,0,0,0,0,14.82V311.18A14.82,14.82,0,0,0,14.83,326H193.17A14.83,14.83,0,0,0,208,311.18V14.82A14.83,14.83,0,0,0,193.17,0Z"
            />
            <path class="cls-3" d="M22,45.84s3.67,8.07,9.1,10.11A23.7,23.7,0,0,0,22,65.84s-1.63-5.81-8.9-10A17.25,17.25,0,0,0,22,45.84Z"
            />
            <path class="cls-3" d="M185.9,46s3.67,8.08,9.1,10.12A23.63,23.63,0,0,0,185.9,66s-1.63-5.81-8.9-10A17.17,17.17,0,0,0,185.9,46Z"
            />
            <path class="cls-3" d="M21.9,260.09s3.67,8.07,9.1,10.11a23.62,23.62,0,0,0-9.1,9.89s-1.63-5.82-8.9-10A17.18,17.18,0,0,0,21.9,260.09Z"
            />
            <path class="cls-3" d="M185.9,259.85s3.67,8.08,9.1,10.11a23.7,23.7,0,0,0-9.1,9.89s-1.63-5.81-8.9-10A17.21,17.21,0,0,0,185.9,259.85Z"
            />
            <path class="cls-3" d="M21.57,39a8,8,0,0,1-7.94-8.44,7.66,7.66,0,0,1,3.55-6.75A7.55,7.55,0,0,1,14.84,18c0-4.88,4.91-7,7.42-7,2.69,0,7.25,1.54,7.25,7.29A6.83,6.83,0,0,1,26.81,24a7.86,7.86,0,0,1,3.56,6.61C30.36,36.1,25.25,39,21.57,39ZM21.8,25.6c-.05,0-4.95.21-4.95,5a4.81,4.81,0,0,0,4.72,5.21c1.88,0,5.58-1.55,5.58-5.15S23.6,25.6,21.8,25.6Zm.45-11.35c-.89,0-4.21.94-4.21,3.77,0,3,1.95,4.35,3.75,4.35.76,0,4.5-.2,4.5-4.06A3.76,3.76,0,0,0,22.25,14.25Z"
            />
            <path class="cls-3" d="M185.57,39a8,8,0,0,1-7.94-8.44,7.68,7.68,0,0,1,3.55-6.75,7.55,7.55,0,0,1-2.34-5.8c0-4.88,4.91-7,7.42-7,2.69,0,7.25,1.54,7.25,7.29A6.85,6.85,0,0,1,190.82,24a7.88,7.88,0,0,1,3.55,6.61C194.36,36.1,189.26,39,185.57,39Zm.23-13.41c-.05,0-5,.21-5,5a4.81,4.81,0,0,0,4.72,5.21c1.88,0,5.58-1.55,5.58-5.15S187.6,25.6,185.8,25.6Zm.45-11.35c-.89,0-4.2.94-4.2,3.77,0,3,1.94,4.35,3.75,4.35.75,0,4.49-.2,4.49-4.06A3.76,3.76,0,0,0,186.25,14.25Z"
            />
            <path class="cls-3" d="M186.47,287a8,8,0,0,1,7.93,8.43,7.67,7.67,0,0,1-3.54,6.75,7.62,7.62,0,0,1,2.34,5.8c0,4.89-4.91,7-7.42,7-2.69,0-7.25-1.54-7.25-7.29a6.81,6.81,0,0,1,2.69-5.71,7.89,7.89,0,0,1-3.55-6.61C177.68,289.88,182.78,287,186.47,287Zm-.23,13.41s4.95-.21,4.95-5a4.81,4.81,0,0,0-4.72-5.2c-1.88,0-5.58,1.55-5.58,5.15S184.44,300.38,186.24,300.38Zm-.45,11.35c.88,0,4.2-1,4.2-3.78s-1.94-4.34-3.75-4.34c-.75,0-4.49.19-4.49,4.06A3.76,3.76,0,0,0,185.79,311.73Z"
            />
            <path class="cls-3" d="M22.43,287a8,8,0,0,1,7.93,8.43,7.64,7.64,0,0,1-3.54,6.75,7.58,7.58,0,0,1,2.34,5.8c0,4.89-4.91,7-7.42,7-2.69,0-7.25-1.54-7.25-7.29A6.84,6.84,0,0,1,17.18,302a7.88,7.88,0,0,1-3.54-6.61C13.64,289.88,18.74,287,22.43,287Zm-.23,13.41c.05,0,4.95-.21,4.95-5a4.81,4.81,0,0,0-4.72-5.2c-1.88,0-5.58,1.55-5.58,5.15S20.4,300.38,22.2,300.38Zm-.45,11.35c.89,0,4.21-1,4.21-3.78s-1.95-4.34-3.76-4.34c-.75,0-4.49.19-4.49,4.06A3.76,3.76,0,0,0,21.75,311.73Z"
            />
            <path class="cls-3" d="M147.6,41.58s9.63,19.23,23.9,24.08A59.54,59.54,0,0,0,147.6,89.2s-4.29-13.84-23.37-23.81C124.23,65.39,141,59.19,147.6,41.58Z"
            />
            <path class="cls-3" d="M60.12,41.58S69.75,60.81,84,65.66A59.6,59.6,0,0,0,60.12,89.2S55.84,75.36,36.75,65.39C36.75,65.39,53.52,59.19,60.12,41.58Z"
            />
            <path class="cls-3" d="M147.6,139.16s9.63,19.22,23.9,24.07a59.54,59.54,0,0,0-23.9,23.54s-4.29-13.84-23.37-23.81C124.23,163,141,156.76,147.6,139.16Z"
            />
            <path class="cls-3" d="M60.12,137.75S69.75,157,84,161.83a59.51,59.51,0,0,0-23.91,23.54s-4.28-13.84-23.37-23.81C36.75,161.56,53.52,155.36,60.12,137.75Z"
            />
            <path class="cls-3" d="M147.6,236.65s9.63,19.22,23.9,24.07a59.54,59.54,0,0,0-23.9,23.54s-4.29-13.84-23.37-23.81C124.23,260.45,141,254.26,147.6,236.65Z"
            />
            <path class="cls-3" d="M103.84,89.26s9.63,19.22,23.9,24.07a59.54,59.54,0,0,0-23.9,23.54S99.55,123,80.47,113.06C80.47,113.06,97.23,106.86,103.84,89.26Z"
            />
            <path class="cls-3" d="M103.84,189.49s9.63,19.23,23.9,24.08a59.56,59.56,0,0,0-23.9,23.53s-4.29-13.83-23.37-23.8C80.47,213.3,97.23,207.1,103.84,189.49Z"
            />
            <path class="cls-3" d="M60.12,236.65S69.75,255.87,84,260.72a59.6,59.6,0,0,0-23.91,23.54s-4.28-13.84-23.37-23.81C36.75,260.45,53.52,254.26,60.12,236.65Z"
            />
        </g>
    </g>
</svg>
