<svg xmlns="http://www.w3.org/2000/svg" viewBox="0 0 208 326">
    <defs>
        <style>
            .cls-1 {
                fill: #fff;
            }

            .cls-2 {
                fill: #6f7072;
            }

            .cls-3 {
                fill: #f5a11a;
            }
        </style>
    </defs>
    <title>8D-us-4c</title>
    <g id="Calque_2" data-name="Calque 2">
        <g id="FR_-_EN" data-name="FR - EN">
            <path class="cls-1" d="M14.83,325A13.84,13.84,0,0,1,1,311.18V14.82A13.84,13.84,0,0,1,14.83,1H193.17A13.84,13.84,0,0,1,207,14.82V311.18A13.84,13.84,0,0,1,193.17,325Z"
            />
            <path class="cls-2" d="M193.17,2A12.84,12.84,0,0,1,206,14.82V311.18A12.84,12.84,0,0,1,193.17,324H14.83A12.84,12.84,0,0,1,2,311.18V14.82A12.84,12.84,0,0,1,14.83,2H193.17m0-2H14.83A14.83,14.83,0,0,0,0,14.82V311.18A14.82,14.82,0,0,0,14.83,326H193.17A14.82,14.82,0,0,0,208,311.18V14.82A14.82,14.82,0,0,0,193.17,0Z"
            />
            <path class="cls-3" d="M178.14,263.9a64.48,64.48,0,0,1,8.75,12.75,63.81,63.81,0,0,1,8.76-12.75,63.46,63.46,0,0,1-8.76-12.74,65.58,65.58,0,0,1-8,12"
            />
            <path class="cls-3" d="M12.7,263.9a64.06,64.06,0,0,1,8.75,12.75,63.81,63.81,0,0,1,8.76-12.75,63.46,63.46,0,0,1-8.76-12.74,65.58,65.58,0,0,1-8,12"
            />
            <path class="cls-3" d="M178.14,62.21A64.12,64.12,0,0,1,186.89,75a63.46,63.46,0,0,1,8.76-12.74,63.75,63.75,0,0,1-8.76-12.74,65.5,65.5,0,0,1-8,12"
            />
            <path class="cls-3" d="M12.7,62.21A63.7,63.7,0,0,1,21.45,75a63.46,63.46,0,0,1,8.76-12.74,63.75,63.75,0,0,1-8.76-12.74,65.5,65.5,0,0,1-8,12"
            />
            <path class="cls-3" d="M28.8,32.51c-.39,8.61-13.62,9-14.59.42-.15-8.9,13.53-9.61,14.59-.86M32.65,31c-.61-3.53-2.67-5.61-5.5-7.4,7.2-5.17,3.41-14.82-4.9-15.44C13.49,7.63,8.26,18,16,23.58c-7.74,4.05-7.6,14,.09,17.92,6.46,3.42,15.18-.1,16.56-7.52ZM27.47,16.74c-.37,6.91-10.76,7.34-11.76.38-.1-7.14,10.71-8,11.76-.77Z"
            />
            <path class="cls-3" d="M194.23,32.51c-.38,8.61-13.62,9-14.58.42-.15-8.9,13.53-9.61,14.58-.86M198.09,31c-.61-3.53-2.68-5.61-5.5-7.4,7.2-5.17,3.41-14.82-4.9-15.44-8.76-.55-14,9.78-6.25,15.4-7.74,4.05-7.6,14,.09,17.92,6.46,3.42,15.18-.1,16.56-7.52Zm-5.18-14.28c-.38,6.91-10.76,7.34-11.76.38-.11-7.14,10.71-8,11.76-.77Z"
            />
            <path class="cls-3" d="M179.55,291.74c.39-8.62,13.62-8.95,14.58-.43.15,8.91-13.53,9.62-14.58.86m-3.85,1.06c.6,3.53,2.67,5.61,5.5,7.4-7.21,5.17-3.41,14.82,4.9,15.44,8.76.55,14-9.78,6.24-15.4,7.75-4.06,7.6-14-.09-17.92-6.45-3.42-15.17.09-16.55,7.51Zm5.17,14.28c.38-6.91,10.77-7.34,11.76-.39.11,7.15-10.7,8-11.76.77Z"
            />
            <path class="cls-3" d="M14.11,291.74c.39-8.62,13.62-8.95,14.59-.43.14,8.91-13.53,9.62-14.59.86m-3.85,1.06c.61,3.53,2.67,5.61,5.5,7.4-7.2,5.17-3.41,14.82,4.9,15.44,8.76.55,14-9.78,6.25-15.4,7.74-4.06,7.6-14-.09-17.92-6.46-3.42-15.18.09-16.56,7.51Zm5.17,14.28c.38-6.91,10.77-7.34,11.77-.39.1,7.15-10.71,8-11.77.77Z"
            />
            <path class="cls-3" d="M86.51,109.27A128.34,128.34,0,0,1,104,134.77a126.89,126.89,0,0,1,17.51-25.5A126.47,126.47,0,0,1,104,83.79a132.07,132.07,0,0,1-16.11,23.92"
            />
            <path class="cls-3" d="M50.11,50.87A128,128,0,0,1,67.63,76.36,126.54,126.54,0,0,1,85.14,50.87,126.82,126.82,0,0,1,67.63,25.38,131.72,131.72,0,0,1,51.52,49.3"
            />
            <path class="cls-3" d="M122.91,50.87a128,128,0,0,1,17.52,25.49,126.54,126.54,0,0,1,17.51-25.49,126.82,126.82,0,0,1-17.51-25.49A131.72,131.72,0,0,1,124.32,49.3"
            />
            <path class="cls-3" d="M50.11,163.05a128,128,0,0,1,17.52,25.5,126.89,126.89,0,0,1,17.51-25.5,126.47,126.47,0,0,1-17.51-25.48,132.07,132.07,0,0,1-16.11,23.92"
            />
            <path class="cls-3" d="M122.91,163.05a128,128,0,0,1,17.52,25.5,126.89,126.89,0,0,1,17.51-25.5,126.47,126.47,0,0,1-17.51-25.48,132.07,132.07,0,0,1-16.11,23.92"
            />
            <path class="cls-3" d="M50.11,275.24a128.27,128.27,0,0,1,17.52,25.49,126.82,126.82,0,0,1,17.51-25.49,126.54,126.54,0,0,1-17.51-25.49,131.38,131.38,0,0,1-16.11,23.92"
            />
            <path class="cls-3" d="M122.91,275.24a128.27,128.27,0,0,1,17.52,25.49,126.82,126.82,0,0,1,17.51-25.49,126.54,126.54,0,0,1-17.51-25.49,131.38,131.38,0,0,1-16.11,23.92"
            />
            <path class="cls-3" d="M86.51,221.09A128,128,0,0,1,104,246.59a126.89,126.89,0,0,1,17.51-25.5A126.47,126.47,0,0,1,104,195.61a132.07,132.07,0,0,1-16.11,23.92"
            />
        </g>
    </g>
</svg>
