<svg xmlns="http://www.w3.org/2000/svg" viewBox="0 0 208 326">
    <defs>
        <style>
            .cls-1 {
                fill: #fff;
            }

            .cls-2 {
                fill: #6f7072;
            }

            .cls-3 {
                fill: #f72014;
            }
        </style>
    </defs>
    <title>8H-fr-2c</title>
    <g id="Calque_2" data-name="Calque 2">
        <g id="FR_-_EN" data-name="FR - EN">
            <path class="cls-1" d="M14.83,325A13.84,13.84,0,0,1,1,311.18V14.82A13.84,13.84,0,0,1,14.83,1H193.17A13.84,13.84,0,0,1,207,14.82V311.18A13.84,13.84,0,0,1,193.17,325Z"
            />
            <path class="cls-2" d="M193.17,2A12.84,12.84,0,0,1,206,14.82V311.18A12.84,12.84,0,0,1,193.17,324H14.83A12.84,12.84,0,0,1,2,311.18V14.82A12.84,12.84,0,0,1,14.83,2H193.17m0-2H14.83A14.83,14.83,0,0,0,0,14.82V311.18A14.82,14.82,0,0,0,14.83,326H193.17A14.83,14.83,0,0,0,208,311.18V14.82A14.83,14.83,0,0,0,193.17,0Z"
            />
            <path class="cls-3" d="M60.3,90.1s.29-3.09,7.62-10.48S83,65.19,84.6,56.91C85.69,51.34,83.18,41,71,41,61.43,41,60.3,53.49,60.3,53.49S59.17,41,49.57,41C37.42,41,34.9,51.34,36,56.91c1.64,8.28,9.32,15.33,16.66,22.71S60.3,90.1,60.3,90.1Z"
            />
            <path class="cls-3" d="M147.77,90.1s.29-3.09,7.63-10.48,15-14.43,16.67-22.71c1.1-5.57-1.42-15.91-13.56-15.91-9.6,0-10.74,12.49-10.74,12.49S146.64,41,137,41c-12.15,0-14.66,10.34-13.56,15.91,1.64,8.28,9.33,15.33,16.67,22.71S147.77,90.1,147.77,90.1Z"
            />
            <path class="cls-3" d="M147.78,235.83s-.29,3.09-7.63,10.47-15,14.43-16.67,22.72c-1.1,5.57,1.42,15.9,13.56,15.9,9.61,0,10.74-12.49,10.74-12.49s1.13,12.49,10.73,12.49c12.15,0,14.66-10.33,13.56-15.9-1.64-8.28-9.33-15.33-16.67-22.72S147.78,235.83,147.78,235.83Z"
            />
            <path class="cls-3" d="M60.3,235.83s-.28,3.09-7.62,10.47S37.65,260.73,36,269c-1.1,5.57,1.41,15.9,13.56,15.9,9.6,0,10.73-12.49,10.73-12.49S61.44,284.92,71,284.92c12.14,0,14.66-10.33,13.56-15.9-1.65-8.28-9.33-15.33-16.67-22.72S60.3,235.83,60.3,235.83Z"
            />
            <path class="cls-3" d="M104.1,137.29s.29-2,7.63-9.36,15-14.43,16.67-22.72c1.1-5.57-1.42-15.9-13.56-15.9-9.61,0-10.74,12.49-10.74,12.49S103,89.31,93.37,89.31c-12.15,0-14.66,10.33-13.56,15.9,1.64,8.28,9.33,15.33,16.67,22.72S104.1,137.29,104.1,137.29Z"
            />
            <path class="cls-3" d="M60.29,185.89s.29-1.95,7.63-9.33,15-14.44,16.67-22.72c1.09-5.57-1.42-15.91-13.56-15.91-9.61,0-10.74,12.49-10.74,12.49s-1.13-12.49-10.73-12.49c-12.15,0-14.67,10.34-13.56,15.91,1.64,8.28,9.32,15.33,16.67,22.72S60.29,185.89,60.29,185.89Z"
            />
            <path class="cls-3" d="M104.1,191.77s-.28,2-7.62,9.36-15,14.43-16.67,22.72c-1.1,5.57,1.41,15.9,13.56,15.9,9.6,0,10.73-12.49,10.73-12.49s1.14,12.49,10.74,12.49c12.14,0,14.66-10.33,13.56-15.9-1.65-8.28-9.33-15.33-16.67-22.72S104.1,191.77,104.1,191.77Z"
            />
            <path class="cls-3" d="M147.73,137.93s-.29,1.95-7.62,9.33-15,14.44-16.68,22.72c-1.09,5.57,1.42,15.91,13.56,15.91,9.61,0,10.74-12.5,10.74-12.5s1.13,12.5,10.73,12.5c12.15,0,14.67-10.34,13.57-15.91-1.65-8.28-9.33-15.33-16.67-22.72S147.73,137.93,147.73,137.93Z"
            />
            <path class="cls-3" d="M21.57,39a8,8,0,0,1-7.94-8.44,7.63,7.63,0,0,1,3.55-6.74A7.59,7.59,0,0,1,14.84,18c0-4.88,4.91-7,7.42-7,2.69,0,7.25,1.54,7.25,7.29A6.82,6.82,0,0,1,26.81,24a7.86,7.86,0,0,1,3.56,6.61C30.36,36.08,25.25,39,21.57,39Zm.23-13.41c-.05,0-4.95.21-4.95,5a4.81,4.81,0,0,0,4.72,5.21c1.88,0,5.58-1.55,5.58-5.15S23.6,25.58,21.8,25.58Zm.45-11.35c-.89,0-4.21.94-4.21,3.77,0,3,1.95,4.35,3.75,4.35.76,0,4.5-.2,4.5-4.06A3.76,3.76,0,0,0,22.25,14.23Z"
            />
            <path class="cls-3" d="M185.57,39a8,8,0,0,1-7.94-8.44,7.65,7.65,0,0,1,3.55-6.74A7.59,7.59,0,0,1,178.84,18c0-4.88,4.91-7,7.42-7,2.69,0,7.25,1.54,7.25,7.29A6.84,6.84,0,0,1,190.82,24a7.88,7.88,0,0,1,3.55,6.61C194.36,36.08,189.26,39,185.57,39Zm.23-13.41c-.05,0-5,.21-5,5a4.81,4.81,0,0,0,4.72,5.21c1.88,0,5.58-1.55,5.58-5.15S187.6,25.58,185.8,25.58Zm.45-11.35c-.89,0-4.2.94-4.2,3.77,0,3,1.94,4.35,3.75,4.35.75,0,4.49-.2,4.49-4.06A3.76,3.76,0,0,0,186.25,14.23Z"
            />
            <path class="cls-3" d="M186.47,287a8,8,0,0,1,7.93,8.43,7.65,7.65,0,0,1-3.54,6.75,7.62,7.62,0,0,1,2.34,5.8c0,4.89-4.91,7-7.42,7-2.69,0-7.25-1.54-7.25-7.29a6.81,6.81,0,0,1,2.69-5.71,7.89,7.89,0,0,1-3.55-6.61C177.68,289.86,182.78,287,186.47,287Zm-.23,13.41s4.95-.21,4.95-5a4.81,4.81,0,0,0-4.72-5.2c-1.88,0-5.58,1.55-5.58,5.15S184.44,300.36,186.24,300.36Zm-.45,11.35c.88,0,4.2-.95,4.2-3.78,0-3-1.94-4.34-3.75-4.34-.75,0-4.49.2-4.49,4.06A3.76,3.76,0,0,0,185.79,311.71Z"
            />
            <path class="cls-3" d="M22.43,287a8,8,0,0,1,7.93,8.43,7.63,7.63,0,0,1-3.54,6.75,7.58,7.58,0,0,1,2.34,5.8c0,4.89-4.91,7-7.42,7-2.69,0-7.25-1.54-7.25-7.29a6.84,6.84,0,0,1,2.69-5.71,7.88,7.88,0,0,1-3.54-6.61C13.64,289.86,18.74,287,22.43,287Zm-.23,13.41c.05,0,4.95-.21,4.95-5a4.81,4.81,0,0,0-4.72-5.2c-1.88,0-5.58,1.55-5.58,5.15S20.4,300.36,22.2,300.36Zm-.45,11.35c.89,0,4.21-.95,4.21-3.78,0-3-1.95-4.34-3.76-4.34-.75,0-4.49.2-4.49,4.06A3.76,3.76,0,0,0,21.75,311.71Z"
            />
            <path class="cls-3" d="M22,64a8.43,8.43,0,0,1,2.49-5.12c2.39-2.46,4.9-4.81,5.43-7.58A4.32,4.32,0,0,0,25.5,46c-3.13,0-3.5,4.17-3.5,4.17S21.63,46,18.5,46a4.32,4.32,0,0,0-4.42,5.3c.53,2.77,3,5.12,5.43,7.58A8.45,8.45,0,0,1,22,64Z"
            />
            <path class="cls-3" d="M186,64a8.45,8.45,0,0,1,2.48-5.12c2.4-2.46,4.91-4.81,5.44-7.58A4.32,4.32,0,0,0,189.5,46c-3.13,0-3.5,4.17-3.5,4.17S185.63,46,182.5,46a4.32,4.32,0,0,0-4.42,5.3c.53,2.77,3,5.12,5.43,7.58A8.45,8.45,0,0,1,186,64Z"
            />
            <path class="cls-3" d="M186,262a8.43,8.43,0,0,1-2.49,5.12c-2.39,2.46-4.9,4.81-5.43,7.58a4.32,4.32,0,0,0,4.42,5.3c3.13,0,3.5-4.17,3.5-4.17s.37,4.17,3.5,4.17a4.32,4.32,0,0,0,4.42-5.3c-.53-2.77-3-5.12-5.43-7.58A8.45,8.45,0,0,1,186,262Z"
            />
            <path class="cls-3" d="M22,262a8.43,8.43,0,0,1-2.49,5.12c-2.39,2.46-4.9,4.81-5.43,7.58A4.32,4.32,0,0,0,18.5,280c3.13,0,3.5-4.17,3.5-4.17s.37,4.17,3.5,4.17a4.32,4.32,0,0,0,4.42-5.3c-.53-2.77-3-5.12-5.43-7.58A8.45,8.45,0,0,1,22,262Z"
            />
        </g>
    </g>
</svg>
