<svg xmlns="http://www.w3.org/2000/svg" viewBox="0 0 208 326">
    <defs>
        <style>
            .cls-1 {
                fill: #fff;
            }

            .cls-2 {
                fill: #6f7072;
            }

            .cls-3 {
                fill: #f8261b;
            }
        </style>
    </defs>
    <title>8H-us-2c</title>
    <g id="Calque_2" data-name="Calque 2">
        <g id="FR_-_EN" data-name="FR - EN">
            <path class="cls-1" d="M14.83,325A13.84,13.84,0,0,1,1,311.18V14.82A13.84,13.84,0,0,1,14.83,1H193.17A13.84,13.84,0,0,1,207,14.82V311.18A13.84,13.84,0,0,1,193.17,325Z"
            />
            <path class="cls-2" d="M193.17,2A12.84,12.84,0,0,1,206,14.82V311.18A12.84,12.84,0,0,1,193.17,324H14.83A12.84,12.84,0,0,1,2,311.18V14.82A12.84,12.84,0,0,1,14.83,2H193.17m0-2H14.83A14.83,14.83,0,0,0,0,14.82V311.18A14.82,14.82,0,0,0,14.83,326H193.17A14.83,14.83,0,0,0,208,311.18V14.82A14.83,14.83,0,0,0,193.17,0Z"
            />
            <path class="cls-3" d="M21.42,69.57C24.76,66.77,31.86,56,30.16,51a4.59,4.59,0,0,0-8.74-.47c-1.59-3.57-6.21-4.1-8.25-.65C10,54.79,17.71,65.92,20.8,69"
            />
            <path class="cls-3" d="M186.85,69.57C190.2,66.77,197.3,56,195.6,51c-1.45-4.41-6.85-4.61-8.75-.47-1.58-3.57-6.2-4.1-8.24-.65-3.17,4.89,4.54,16,7.62,19.14"
            />
            <path class="cls-3" d="M21.43,254.64c-3.35,2.8-10.45,13.61-8.75,18.56,1.46,4.41,6.85,4.61,8.75.46,1.58,3.58,6.2,4.11,8.24.66,3.18-4.9-4.54-16-7.62-19.14"
            />
            <path class="cls-3" d="M186.87,254.64c-3.35,2.8-10.45,13.61-8.75,18.56,1.46,4.41,6.85,4.61,8.75.46,1.58,3.58,6.2,4.11,8.24.66,3.17-4.9-4.54-16-7.62-19.14"
            />
            <path class="cls-3" d="M28.92,32.45c-.39,8.62-13.62,8.95-14.58.43C14.19,24,27.87,23.26,28.92,32m3.85-1c-.6-3.53-2.67-5.61-5.5-7.4,7.21-5.17,3.41-14.82-4.9-15.44-8.76-.55-14,9.78-6.24,15.4-7.74,4.05-7.6,14,.09,17.92,6.46,3.42,15.17-.1,16.55-7.52ZM27.6,16.68c-.38,6.91-10.76,7.34-11.76.39-.11-7.15,10.7-8,11.76-.78Z"
            />
            <path class="cls-3" d="M194.36,32.45c-.39,8.62-13.62,8.95-14.58.43-.15-8.91,13.53-9.62,14.58-.87m3.85-1c-.6-3.53-2.67-5.61-5.5-7.4,7.21-5.17,3.41-14.82-4.9-15.44-8.76-.55-14,9.78-6.24,15.4-7.75,4.05-7.6,14,.09,17.92,6.45,3.42,15.17-.1,16.55-7.52ZM193,16.68c-.38,6.91-10.77,7.34-11.76.39-.11-7.15,10.7-8,11.76-.78Z"
            />
            <path class="cls-3" d="M179.68,291.68c.38-8.61,13.62-8.95,14.58-.43.15,8.91-13.53,9.62-14.58.87m-3.86,1.05c.61,3.53,2.68,5.61,5.5,7.4-7.2,5.17-3.41,14.82,4.9,15.44,8.76.55,14-9.78,6.25-15.4,7.74-4.05,7.6-14-.09-17.92-6.46-3.42-15.18.1-16.56,7.52ZM181,307.45c.38-6.91,10.76-7.34,11.76-.38.11,7.14-10.71,8-11.76.77Z"
            />
            <path class="cls-3" d="M14.24,291.68c.38-8.61,13.62-8.95,14.58-.43.15,8.91-13.53,9.62-14.58.87m-3.85,1.05c.6,3.53,2.67,5.61,5.5,7.4-7.21,5.17-3.41,14.82,4.9,15.44,8.76.55,14-9.78,6.24-15.4,7.74-4.05,7.6-14-.09-17.92-6.46-3.42-15.17.1-16.55,7.52Zm5.17,14.28c.38-6.91,10.76-7.34,11.76-.38.11,7.14-10.7,8-11.76.77Z"
            />
            <path class="cls-3" d="M67.75,67.74c2.73-2.13,4-4.48,6-7.29A58.87,58.87,0,0,0,80.7,47.76,17.17,17.17,0,0,0,82,37.15c-2.37-7.27-11.14-7.6-14.23-.77-2.57-5.89-10.09-6.77-13.4-1.08-1.92,3-1.23,8,0,11.17a59.41,59.41,0,0,0,5.54,11.22c1.94,2.64,4.41,7,6.89,9.17"
            />
            <path class="cls-3" d="M140.55,67.74c2.73-2.13,4-4.48,6-7.29a58.87,58.87,0,0,0,6.91-12.69,17.17,17.17,0,0,0,1.28-10.61c-2.37-7.27-11.14-7.6-14.23-.77-2.57-5.89-10.09-6.77-13.4-1.08-1.92,3-1.23,8,0,11.17a59.41,59.41,0,0,0,5.54,11.22c1.94,2.64,4.41,7,6.89,9.17"
            />
            <path class="cls-3" d="M104.81,127.89c2.73-2.13,4-4.49,6-7.29a58.87,58.87,0,0,0,6.91-12.69A17.1,17.1,0,0,0,119,97.3c-2.37-7.27-11.14-7.6-14.23-.77-2.57-5.89-10.09-6.77-13.4-1.08-1.92,3-1.23,8,0,11.16a59.2,59.2,0,0,0,5.54,11.23c2,2.64,4.41,7,6.9,9.17"
            />
            <path class="cls-3" d="M104.81,202.9c-2.72,2.14-4,4.49-6,7.3a58.4,58.4,0,0,0-6.92,12.68,17.2,17.2,0,0,0-1.28,10.62c2.37,7.26,11.14,7.6,14.23.77,2.58,5.89,10.09,6.76,13.41,1.07,1.91-2.94,1.23-8,0-11.16A59.75,59.75,0,0,0,112.71,213c-1.94-2.65-4.41-7-6.89-9.17"
            />
            <path class="cls-3" d="M67.75,183.66c2.73-2.13,4-4.49,6-7.29a58.87,58.87,0,0,0,6.91-12.69A17.17,17.17,0,0,0,82,153.07c-2.37-7.27-11.14-7.6-14.23-.77-2.57-5.89-10.09-6.77-13.4-1.08-1.92,2.95-1.23,8,0,11.16a59.2,59.2,0,0,0,5.54,11.23c1.94,2.64,4.41,7,6.89,9.17"
            />
            <path class="cls-3" d="M140.55,183.66c2.73-2.13,4-4.49,6-7.29a58.87,58.87,0,0,0,6.91-12.69,17.17,17.17,0,0,0,1.28-10.61c-2.37-7.27-11.14-7.6-14.23-.77-2.57-5.89-10.09-6.77-13.4-1.08-1.92,2.95-1.23,8,0,11.16a59.2,59.2,0,0,0,5.54,11.23c1.94,2.64,4.41,7,6.89,9.17"
            />
            <path class="cls-3" d="M140.55,257.05c-2.72,2.13-4,4.49-6,7.29A58.48,58.48,0,0,0,127.6,277a17.19,17.19,0,0,0-1.28,10.62c2.37,7.26,11.14,7.6,14.23.76,2.57,5.89,10.09,6.77,13.4,1.08,1.92-2.95,1.24-8,.05-11.16a59.84,59.84,0,0,0-5.55-11.23c-1.94-2.64-4.41-7-6.89-9.17"
            />
            <path class="cls-3" d="M67.75,257.05c-2.72,2.13-4,4.49-6,7.29A58.48,58.48,0,0,0,54.8,277a17.19,17.19,0,0,0-1.28,10.62c2.37,7.26,11.14,7.6,14.23.76,2.57,5.89,10.09,6.77,13.4,1.08,1.92-2.95,1.23-8,0-11.16a59.84,59.84,0,0,0-5.55-11.23c-1.94-2.64-4.41-7-6.89-9.17"
            />
        </g>
    </g>
</svg>
