<svg xmlns="http://www.w3.org/2000/svg" viewBox="0 0 208 326">
    <defs>
        <style>
            .cls-1 {
                fill: #fff;
            }

            .cls-2 {
                fill: #6f7072;
            }
        </style>
    </defs>
    <title>8S-fr-2c</title>
    <g id="Calque_2" data-name="Calque 2">
        <g id="FR_-_EN" data-name="FR - EN">
            <path class="cls-1" d="M14.83,325A13.84,13.84,0,0,1,1,311.18V14.82A13.84,13.84,0,0,1,14.83,1H193.17A13.84,13.84,0,0,1,207,14.82V311.18A13.84,13.84,0,0,1,193.17,325Z"
            />
            <path class="cls-2" d="M193.17,2A12.84,12.84,0,0,1,206,14.82V311.18A12.84,12.84,0,0,1,193.17,324H14.83A12.84,12.84,0,0,1,2,311.18V14.82A12.84,12.84,0,0,1,14.83,2H193.17m0-2H14.83A14.83,14.83,0,0,0,0,14.82V311.18A14.82,14.82,0,0,0,14.83,326H193.17A14.83,14.83,0,0,0,208,311.18V14.82A14.83,14.83,0,0,0,193.17,0Z"
            />
            <path d="M78.11,61.57c-2.12-4.09-9.27-10-13.52-13.41s-4.18-6.27-4.91-6.27-.48,2.83-4.74,6.27S44.85,56.33,42.73,60.42,40.39,71.15,47.41,74.6c4.51,2.21,8.31-.64,10.7-3.4.38,7.52-9.62,17.46-9.62,17.46a36.85,36.85,0,0,1,20.08-.24s-8.88-11.8-7.65-17.94c2.47,3.16,6.77,7.19,11.29,5C79.23,72,80.25,65.66,78.11,61.57Z"
            />
            <path d="M165.59,61.57c-2.13-4.09-9.28-10-13.53-13.41s-4.17-6.27-4.91-6.27-.48,2.83-4.73,6.27-10.1,8.17-12.22,12.26-2.34,10.73,4.68,14.18c4.51,2.21,8.31-.64,10.7-3.4C146,78.72,136,88.66,136,88.66A36.82,36.82,0,0,1,156,88.42s-8.88-11.8-7.65-17.94c2.48,3.16,6.77,7.19,11.3,5C166.7,72,167.72,65.66,165.59,61.57Z"
            />
            <path d="M129.88,263.45c2.13,4.09,9.28,10,13.53,13.41s4.18,6.27,4.91,6.27.48-2.82,4.74-6.27,10.09-8.17,12.21-12.25,2.34-10.74-4.68-14.18c-4.51-2.22-8.31.63-10.7,3.4-.38-7.53,9.61-17.46,9.61-17.46a36.76,36.76,0,0,1-20.07.23s8.88,11.8,7.65,17.94c-2.48-3.15-6.77-7.19-11.29-5C128.77,253,127.75,259.36,129.88,263.45Z"
            />
            <path d="M42.41,263.45c2.13,4.09,9.27,10,13.53,13.41s4.17,6.27,4.91,6.27.47-2.82,4.73-6.27,10.09-8.17,12.22-12.25,2.34-10.74-4.68-14.18c-4.52-2.22-8.32.63-10.71,3.4C62,246.3,72,236.37,72,236.37A36.8,36.8,0,0,1,52,236.6s8.89,11.8,7.66,17.94c-2.48-3.15-6.77-7.19-11.3-5C41.29,253,40.28,259.36,42.41,263.45Z"
            />
            <path d="M78.13,61.57c-2.12-4.09-9.27-10-13.52-13.41s-4.18-6.27-4.91-6.27-.48,2.83-4.74,6.27S44.87,56.33,42.74,60.42,40.41,71.15,47.43,74.6c4.51,2.21,8.31-.64,10.7-3.4.38,7.52-9.62,17.46-9.62,17.46a36.86,36.86,0,0,1,20.08-.24s-8.88-11.8-7.66-17.94c2.48,3.16,6.77,7.19,11.3,5C79.25,72,80.26,65.66,78.13,61.57Z"
            />
            <path d="M165.6,61.57c-2.12-4.09-9.27-10-13.52-13.41s-4.18-6.27-4.91-6.27-.48,2.83-4.74,6.27-10.09,8.17-12.21,12.26-2.34,10.73,4.68,14.18c4.51,2.21,8.31-.64,10.7-3.4C146,78.72,136,88.66,136,88.66a36.82,36.82,0,0,1,20.07-.24s-8.88-11.8-7.65-17.94c2.47,3.16,6.77,7.19,11.29,5C166.72,72,167.74,65.66,165.6,61.57Z"
            />
            <path d="M78.13,158.74c-2.12-4.08-9.27-10-13.52-13.41s-4.18-6.27-4.91-6.27-.48,2.83-4.74,6.27-10.09,8.17-12.22,12.26-2.33,10.73,4.69,14.18c4.51,2.22,8.31-.64,10.7-3.4.38,7.52-9.62,17.46-9.62,17.46a36.86,36.86,0,0,1,20.08-.24s-8.89-11.8-7.66-17.94c2.48,3.15,6.77,7.19,11.3,5C79.25,169.18,80.26,162.83,78.13,158.74Z"
            />
            <path d="M85.85,216.88c2.13,4.09,9.27,10,13.52,13.42s4.18,6.27,4.92,6.27.47-2.83,4.73-6.27,10.09-8.17,12.22-12.26,2.34-10.74-4.68-14.18c-4.52-2.22-8.32.64-10.71,3.4-.37-7.53,9.62-17.46,9.62-17.46A36.82,36.82,0,0,1,95.4,190s8.88,11.8,7.65,17.94c-2.48-3.16-6.77-7.19-11.3-5C84.73,206.44,83.72,212.8,85.85,216.88Z"
            />
            <path d="M129.9,166.14c2.13,4.09,9.28,10,13.53,13.42s4.17,6.27,4.91,6.27.47-2.83,4.73-6.27,10.1-8.17,12.22-12.26,2.34-10.73-4.68-14.18c-4.51-2.22-8.31.64-10.7,3.4-.38-7.52,9.61-17.46,9.61-17.46a36.82,36.82,0,0,1-20.07.24s8.88,11.8,7.65,17.94c-2.47-3.15-6.77-7.19-11.29-5C128.79,155.71,127.77,162.06,129.9,166.14Z"
            />
            <path d="M129.9,263.45c2.13,4.09,9.28,10,13.53,13.41s4.18,6.27,4.91,6.27.48-2.82,4.74-6.27,10.09-8.17,12.21-12.25,2.34-10.74-4.68-14.18c-4.51-2.22-8.31.63-10.7,3.4-.38-7.53,9.62-17.46,9.62-17.46a36.8,36.8,0,0,1-20.08.23s8.88,11.8,7.66,17.94c-2.48-3.15-6.77-7.19-11.3-5C128.79,253,127.78,259.36,129.9,263.45Z"
            />
            <path d="M42.43,263.45c2.13,4.09,9.27,10,13.53,13.41s4.17,6.27,4.91,6.27.47-2.82,4.73-6.27,10.1-8.17,12.22-12.25,2.34-10.74-4.68-14.18c-4.52-2.22-8.31.63-10.7,3.4-.38-7.53,9.61-17.46,9.61-17.46A36.76,36.76,0,0,1,52,236.6s8.88,11.8,7.65,17.94c-2.48-3.15-6.77-7.19-11.3-5C41.31,253,40.3,259.36,42.43,263.45Z"
            />
            <path d="M121.55,109.24c-2.12-4.08-9.27-10-13.52-13.41s-4.18-6.27-4.91-6.27-.48,2.83-4.74,6.27S88.29,104,86.17,108.09s-2.34,10.73,4.68,14.18c4.51,2.22,8.31-.64,10.7-3.4.38,7.53-9.62,17.46-9.62,17.46a36.86,36.86,0,0,1,20.08-.24s-8.88-11.8-7.65-17.93c2.47,3.15,6.77,7.18,11.29,5C122.67,119.69,123.68,113.33,121.55,109.24Z"
            />
            <path d="M29.58,54.25c-.9-1.75-3.93-4.27-5.74-5.74s-1.77-2.68-2.09-2.68-.2,1.21-2,2.68-4.28,3.5-5.18,5.24a4.27,4.27,0,0,0,2,6.07c1.92,1,3.53-.27,4.54-1.45.17,3.21-4.07,7.46-4.07,7.46a15.47,15.47,0,0,1,8.52-.1s-3.77-5.05-3.25-7.67c1,1.35,2.87,3.07,4.79,2.12C30.05,58.71,30.48,56,29.58,54.25Z"
            />
            <path d="M193.58,54.25c-.9-1.75-3.93-4.27-5.74-5.74s-1.77-2.68-2.09-2.68-.2,1.21-2,2.68-4.28,3.5-5.19,5.24a4.28,4.28,0,0,0,2,6.07c1.91,1,3.53-.27,4.54-1.45.17,3.21-4.07,7.46-4.07,7.46a15.48,15.48,0,0,1,8.52-.1s-3.77-5.05-3.25-7.67c1.05,1.35,2.87,3.07,4.79,2.12C194.05,58.71,194.48,56,193.58,54.25Z"
            />
            <path d="M178.42,271.29c.9,1.75,3.93,4.27,5.74,5.74s1.77,2.68,2.09,2.68.2-1.21,2-2.68,4.28-3.5,5.18-5.24a4.27,4.27,0,0,0-2-6.07c-1.92-.94-3.53.28-4.55,1.46-.16-3.22,4.08-7.47,4.08-7.47a15.47,15.47,0,0,1-8.52.1s3.77,5.05,3.25,7.67c-1.05-1.34-2.87-3.07-4.79-2.12C178,266.83,177.52,269.55,178.42,271.29Z"
            />
            <path d="M14.42,271.29c.9,1.75,3.93,4.27,5.74,5.74s1.77,2.68,2.09,2.68.2-1.21,2-2.68,4.28-3.5,5.18-5.24a4.27,4.27,0,0,0-2-6.07c-1.92-.94-3.53.28-4.54,1.46C22.75,264,27,259.71,27,259.71a15.47,15.47,0,0,1-8.52.1s3.77,5.05,3.25,7.67c-1-1.34-2.87-3.07-4.79-2.12C14,266.83,13.52,269.55,14.42,271.29Z"
            />
            <path d="M21.57,39a8,8,0,0,1-7.94-8.43,7.65,7.65,0,0,1,3.55-6.75A7.56,7.56,0,0,1,14.84,18c0-4.89,4.91-7,7.42-7,2.69,0,7.25,1.53,7.25,7.29a6.81,6.81,0,0,1-2.7,5.7,7.88,7.88,0,0,1,3.56,6.62C30.36,36.05,25.25,39,21.57,39Zm.23-13.41c-.05,0-4.95.22-4.95,5a4.8,4.8,0,0,0,4.72,5.2c1.88,0,5.58-1.55,5.58-5.15S23.6,25.55,21.8,25.55Zm.45-11.34c-.89,0-4.21.94-4.21,3.77s1.95,4.34,3.75,4.34c.76,0,4.5-.19,4.5-4.06A3.75,3.75,0,0,0,22.25,14.21Z"
            />
            <path d="M185.57,39a8,8,0,0,1-7.94-8.43,7.65,7.65,0,0,1,3.55-6.75,7.56,7.56,0,0,1-2.34-5.8c0-4.89,4.91-7,7.42-7,2.69,0,7.25,1.53,7.25,7.29a6.83,6.83,0,0,1-2.69,5.7,7.9,7.9,0,0,1,3.55,6.62C194.36,36.05,189.26,39,185.57,39Zm.23-13.41c-.05,0-5,.22-5,5a4.8,4.8,0,0,0,4.72,5.2c1.88,0,5.58-1.55,5.58-5.15S187.6,25.55,185.8,25.55Zm.45-11.34c-.89,0-4.2.94-4.2,3.77s1.94,4.34,3.75,4.34c.75,0,4.49-.19,4.49-4.06A3.75,3.75,0,0,0,186.25,14.21Z"
            />
            <path d="M186.47,286.92a8,8,0,0,1,7.93,8.44,7.68,7.68,0,0,1-3.54,6.75,7.6,7.6,0,0,1,2.34,5.8c0,4.89-4.91,7-7.42,7-2.69,0-7.25-1.53-7.25-7.29a6.81,6.81,0,0,1,2.69-5.7,7.91,7.91,0,0,1-3.55-6.62C177.68,289.83,182.78,286.92,186.47,286.92Zm-.23,13.41s4.95-.21,4.95-5a4.81,4.81,0,0,0-4.72-5.21c-1.88,0-5.58,1.56-5.58,5.15S184.43,300.33,186.24,300.33Zm-.45,11.35c.88,0,4.2-.94,4.2-3.77,0-3-1.94-4.35-3.75-4.35-.75,0-4.49.2-4.49,4.06A3.76,3.76,0,0,0,185.79,311.68Z"
            />
            <path d="M22.43,286.92a8,8,0,0,1,7.93,8.44,7.66,7.66,0,0,1-3.54,6.75,7.56,7.56,0,0,1,2.34,5.8c0,4.89-4.91,7-7.42,7-2.69,0-7.25-1.53-7.25-7.29a6.83,6.83,0,0,1,2.69-5.7,7.91,7.91,0,0,1-3.55-6.62C13.64,289.83,18.74,286.92,22.43,286.92Zm-.23,13.41c.05,0,4.95-.21,4.95-5a4.81,4.81,0,0,0-4.72-5.21c-1.88,0-5.58,1.56-5.58,5.15S20.4,300.33,22.2,300.33Zm-.45,11.35c.89,0,4.21-.94,4.21-3.77,0-3-1.95-4.35-3.76-4.35-.75,0-4.49.2-4.49,4.06A3.76,3.76,0,0,0,21.75,311.68Z"
            />
        </g>
    </g>
</svg>
