<svg xmlns="http://www.w3.org/2000/svg" viewBox="0 0 208 326">
    <defs>
        <style>
            .cls-1 {
                fill: #fff;
            }

            .cls-2 {
                fill: #6f7072;
            }

            .cls-3 {
                fill: #1d1d1b;
            }

            .cls-4 {
                fill: #1c1c1c;
            }
        </style>
    </defs>
    <title>8S-us-2c</title>
    <g id="Calque_2" data-name="Calque 2">
        <g id="FR_-_EN" data-name="FR - EN">
            <path class="cls-1" d="M14.83,325A13.84,13.84,0,0,1,1,311.18V14.82A13.84,13.84,0,0,1,14.83,1H193.17A13.84,13.84,0,0,1,207,14.82V311.18A13.84,13.84,0,0,1,193.17,325Z"
            />
            <path class="cls-2" d="M193.17,2A12.84,12.84,0,0,1,206,14.82V311.18A12.84,12.84,0,0,1,193.17,324H14.83A12.84,12.84,0,0,1,2,311.18V14.82A12.84,12.84,0,0,1,14.83,2H193.17m0-2H14.83A14.83,14.83,0,0,0,0,14.82V311.18A14.83,14.83,0,0,0,14.83,326H193.17A14.83,14.83,0,0,0,208,311.18V14.82A14.83,14.83,0,0,0,193.17,0Z"
            />
            <path class="cls-3" d="M21.55,74.47l1.27,0,1.23.07,1.24.12.4.07a23.66,23.66,0,0,1-3-6.28l-.07-.34,0-.47,0-.15,0,0,.09,0,.08.1A3.75,3.75,0,0,0,26.66,70c10.82-2.11-1.37-17.15-5.11-20.43-3.34,3.39-12.63,13.58-8.3,19a4.57,4.57,0,0,0,4.82,1.21l.73-.33.33-.24.28-.24.24-.26.19-.27.3-.52.19-.38.07-.1.1,0,0,0,0,.15,0,.47-.08.34a23.21,23.21,0,0,1-3,6.28l.4-.07,1.25-.12,1.22-.07"
            />
            <path class="cls-3" d="M187,74.47l1.27,0,1.23.07,1.24.12.4.07a23.66,23.66,0,0,1-3-6.28l-.07-.34,0-.47,0-.15,0,0,.09,0,.08.1A3.75,3.75,0,0,0,192.1,70c10.82-2.11-1.37-17.15-5.11-20.43-3.34,3.39-12.63,13.58-8.3,19a4.57,4.57,0,0,0,4.82,1.21l.73-.33.33-.24.28-.24.24-.26.19-.27.3-.52.19-.38.07-.1.1,0,0,0,0,.15,0,.47-.08.34a23.21,23.21,0,0,1-3,6.28l.4-.07,1.25-.12,1.22-.07"
            />
            <path class="cls-3" d="M187,251.5l-1.27.05-1.22-.07-1.24-.12-.4-.07a23.88,23.88,0,0,1,3,6.29l.07.33,0,.48,0,.14,0,0-.09,0-.07-.1a3.76,3.76,0,0,0-3.88-2.48c-10.82,2.11,1.36,17.15,5.1,20.43,3.35-3.39,12.64-13.57,8.31-19a4.57,4.57,0,0,0-4.82-1.21l-.74.33-.32.24-.28.24-.24.26-.19.27-.31.52-.19.38-.06.1-.1,0,0,0,0-.14,0-.48.07-.33a23.73,23.73,0,0,1,3-6.29l-.39.07-1.25.12-1.22.07"
            />
            <path class="cls-3" d="M21.6,251.5l-1.26.05-1.23-.07-1.24-.12-.4-.07a23.57,23.57,0,0,1,3,6.29l.07.33,0,.48,0,.14,0,0-.09,0-.07-.1A3.76,3.76,0,0,0,16.5,256c-10.82,2.11,1.36,17.15,5.1,20.43,3.35-3.39,12.64-13.57,8.31-19a4.57,4.57,0,0,0-4.82-1.21l-.74.33-.32.24-.28.24-.24.26-.19.27-.31.52-.18.38-.07.1-.1,0,0,0,0-.14,0-.48.07-.33a23.73,23.73,0,0,1,3-6.29l-.39.07-1.25.12-1.22.07"
            />
            <path class="cls-4" d="M28.92,32.44c-.39,8.61-13.62,9-14.58.42C14.19,24,27.87,23.25,28.92,32M32.77,31c-.6-3.54-2.67-5.62-5.5-7.41,7.21-5.16,3.41-14.81-4.9-15.44-8.76-.54-14,9.78-6.24,15.4-7.74,4.06-7.6,14,.09,17.93,6.46,3.41,15.17-.1,16.55-7.52ZM27.6,16.67c-.38,6.91-10.76,7.34-11.76.38-.11-7.15,10.7-8,11.76-.77Z"
            />
            <path class="cls-4" d="M194.36,32.44c-.39,8.61-13.62,9-14.58.42-.15-8.91,13.53-9.61,14.58-.86M198.21,31c-.6-3.54-2.67-5.62-5.5-7.41,7.21-5.16,3.41-14.81-4.9-15.44-8.76-.54-14,9.78-6.24,15.4-7.75,4.06-7.6,14,.09,17.93,6.45,3.41,15.17-.1,16.55-7.52ZM193,16.67c-.38,6.91-10.77,7.34-11.76.38-.11-7.15,10.7-8,11.76-.77Z"
            />
            <path class="cls-4" d="M179.68,291.67c.38-8.62,13.62-8.95,14.58-.43.15,8.91-13.53,9.62-14.58.86m-3.86,1c.61,3.54,2.68,5.62,5.5,7.41-7.2,5.16-3.41,14.81,4.9,15.44,8.76.55,14-9.78,6.25-15.4,7.74-4.06,7.6-14-.09-17.92-6.46-3.42-15.18.09-16.56,7.51ZM181,307.44c.38-6.91,10.76-7.34,11.76-.39.11,7.15-10.71,8-11.76.77Z"
            />
            <path class="cls-4" d="M14.24,291.67c.38-8.62,13.62-8.95,14.58-.43.15,8.91-13.53,9.62-14.58.86m-3.85,1c.6,3.54,2.67,5.62,5.5,7.41-7.21,5.16-3.41,14.81,4.9,15.44,8.76.55,14-9.78,6.24-15.4,7.74-4.06,7.6-14-.09-17.92-6.46-3.42-15.17.09-16.55,7.51Zm5.17,14.29c.38-6.91,10.76-7.34,11.76-.39.11,7.15-10.7,8-11.76.77Z"
            />
            <path class="cls-3" d="M67.76,69.38l2-.09,2,.12,2,.19.64.12a38,38,0,0,1-4.83-10.09l-.11-.53,0-.77,0-.23,0,0,.14,0,.12.16c1.2,2.84,3.17,4,6.18,4,5-.41,7.37-4.11,6.78-9.08-.91-8.36-9.38-17.87-14.91-23.7-5.32,5.45-20.11,21.78-13.22,30.45a7.28,7.28,0,0,0,7.68,2l1.16-.53.52-.39.45-.38.37-.42.31-.43.49-.84.3-.61.1-.16.16,0,0,0,0,.23,0,.77-.12.53a37.35,37.35,0,0,1-4.82,10.09l.63-.12,2-.19,1.94-.12"
            />
            <path class="cls-3" d="M140.56,69.38l2-.09,1.95.12,2,.19.64.12a38,38,0,0,1-4.83-10.09l-.11-.53,0-.77,0-.23,0,0,.14,0,.12.16c1.2,2.84,3.17,4,6.18,4,5-.41,7.37-4.11,6.78-9.08-.91-8.36-9.38-17.87-14.91-23.7-5.32,5.45-20.11,21.78-13.21,30.45a7.26,7.26,0,0,0,7.67,2l1.17-.53.52-.39.44-.38.38-.42.3-.43.49-.84.3-.61.1-.16.16,0,0,0,0,.23,0,.77-.11.53A37.68,37.68,0,0,1,134,69.72l.63-.12,2-.19,1.95-.12"
            />
            <path class="cls-3" d="M140.56,183.3l2-.08,1.95.12,2,.19.64.12a38.12,38.12,0,0,1-4.83-10.09l-.11-.53,0-.77,0-.23,0,0,.14,0,.12.16c1.2,2.84,3.17,4,6.18,4,5-.41,7.37-4.12,6.78-9.08-.91-8.37-9.38-17.87-14.91-23.7-5.32,5.44-20.11,21.78-13.21,30.45a7.26,7.26,0,0,0,7.67,1.95l1.17-.54.52-.38.44-.38.38-.43.3-.43.49-.84.3-.6.1-.16.16,0,0,0,0,.23,0,.77-.11.53A37.83,37.83,0,0,1,134,183.65l.63-.12,2-.19,1.95-.12"
            />
            <path class="cls-3" d="M104.14,201.24l-2,.09-1.94-.12-2-.19-.63-.12A38.25,38.25,0,0,1,102.38,211l.12.53,0,.77,0,.23,0,0-.15,0-.11-.16c-1.21-2.84-3.18-4-6.18-4-5,.41-7.38,4.11-6.78,9.08.91,8.36,9.38,17.87,14.9,23.69,5.32-5.44,20.11-21.77,13.22-30.44a7.28,7.28,0,0,0-7.68-2l-1.16.53-.52.38-.45.39-.37.42-.31.43-.48.84-.31.61-.1.16-.16,0,0,0,0-.23,0-.77.12-.53a37.35,37.35,0,0,1,4.82-10.09l-.63.12-2,.19-1.94.12"
            />
            <path class="cls-3" d="M104.16,129.52l2-.08,1.95.12,2,.19.64.12a38.12,38.12,0,0,1-4.83-10.09l-.11-.53,0-.77,0-.23,0,0,.14,0,.12.16c1.2,2.84,3.17,4,6.18,4,5-.41,7.37-4.11,6.78-9.08-.91-8.37-9.38-17.87-14.91-23.7C98.84,95.05,84.05,111.39,91,120.06a7.26,7.26,0,0,0,7.67,2l1.17-.54.52-.38.44-.38.38-.43.3-.43.49-.84.3-.6.1-.16.16,0,0,0,0,.23,0,.77-.11.53a37.83,37.83,0,0,1-4.83,10.09l.63-.12,2-.19,2-.12"
            />
            <path class="cls-3" d="M67.76,183.3l2-.08,1.94.12,2,.19.64.12a38.12,38.12,0,0,1-4.83-10.09l-.11-.53,0-.77,0-.23,0,0,.14,0,.12.16c1.2,2.84,3.17,4,6.17,4,5-.41,7.38-4.12,6.79-9.08-.91-8.37-9.39-17.87-14.91-23.7-5.32,5.44-20.11,21.78-13.22,30.45a7.28,7.28,0,0,0,7.68,1.95l1.16-.54.52-.38.45-.38.38-.43.3-.43.49-.84.3-.6.1-.16.16,0,0,0,0,.23,0,.77-.12.53a37.5,37.5,0,0,1-4.82,10.09l.63-.12,2-.19,1.94-.12"
            />
            <path class="cls-3" d="M140.54,255.39l-2,.08-1.94-.12-2-.19L134,255a38.12,38.12,0,0,1,4.83,10.09l.11.53,0,.77,0,.23,0,0-.14,0-.12-.16c-1.2-2.83-3.17-4-6.17-4-5,.41-7.38,4.12-6.78,9.09.9,8.36,9.38,17.86,14.9,23.69,5.32-5.44,20.11-21.77,13.22-30.45a7.25,7.25,0,0,0-7.68-1.94l-1.16.53-.52.38-.45.38-.37.43-.31.43-.48.84-.31.6-.1.16-.16,0,0,0,0-.23,0-.77.12-.53A37.5,37.5,0,0,1,147.13,255l-.63.12-2,.19-1.94.12"
            />
            <path class="cls-3" d="M67.74,255.39l-2,.08-1.94-.12-2-.19-.64-.12A38.12,38.12,0,0,1,66,265.13l.11.53,0,.77,0,.23,0,0-.14,0-.12-.16c-1.2-2.83-3.17-4-6.17-4-5,.41-7.38,4.12-6.79,9.09.91,8.36,9.39,17.86,14.91,23.69,5.32-5.44,20.11-21.77,13.22-30.45a7.25,7.25,0,0,0-7.68-1.94l-1.16.53-.52.38-.45.38-.37.43-.31.43-.48.84-.31.6-.1.16-.16,0,0,0,0-.23,0-.77.12-.53A37.5,37.5,0,0,1,74.33,255l-.63.12-2,.19-1.94.12"
            />
        </g>
    </g>
</svg>
