<svg xmlns="http://www.w3.org/2000/svg" viewBox="0 0 208 326"><defs><style>.cls-1{fill:#fff;}.cls-2{fill:#6f7072;}.cls-3{fill:#1e657f;}</style></defs><title>9C-fr-4C</title><g id="Calque_2" data-name="Calque 2"><g id="FR_-_EN" data-name="FR - EN"><path class="cls-1" d="M14.83,325A13.84,13.84,0,0,1,1,311.18V14.82A13.84,13.84,0,0,1,14.83,1H193.17A13.84,13.84,0,0,1,207,14.82V311.18A13.84,13.84,0,0,1,193.17,325Z"/><path class="cls-2" d="M193.17,2A12.84,12.84,0,0,1,206,14.82V311.18A12.84,12.84,0,0,1,193.17,324H14.83A12.84,12.84,0,0,1,2,311.18V14.82A12.84,12.84,0,0,1,14.83,2H193.17m0-2H14.83A14.83,14.83,0,0,0,0,14.82V311.18A14.83,14.83,0,0,0,14.83,326H193.17A14.83,14.83,0,0,0,208,311.18V14.82A14.83,14.83,0,0,0,193.17,0Z"/><path class="cls-3" d="M62.18,40.92c5.59,0,8,4.11,8,8.43s-3.87,6.92-5.38,9.52a7.91,7.91,0,0,0-1.08,5h-3a8,8,0,0,0-1.07-5c-1.51-2.6-5.38-5.19-5.38-9.52S56.59,40.92,62.18,40.92Z"/><path class="cls-3" d="M85,65.69c0,5.62-4.08,8-8.39,8s-6.88-3.89-9.46-5.4a7.83,7.83,0,0,0-4.95-1.09v-3a7.83,7.83,0,0,0,4.95-1.09c2.58-1.51,5.16-5.4,9.46-5.4S85,60.07,85,65.69Z"/><path class="cls-3" d="M38,65.69c0-5.62,4.09-8,8.39-8s6.89,3.89,9.47,5.4a7.83,7.83,0,0,0,4.95,1.09v3a7.83,7.83,0,0,0-4.95,1.09c-2.58,1.51-5.17,5.4-9.47,5.4S38,71.32,38,65.69Z"/><path class="cls-3" d="M63.84,62V74.14c0,5.7,8.06,11.22,8.06,11.22H52.45s8.07-5.52,8.07-11.22V62Z"/><path class="cls-3" d="M148,40.92c5.6,0,8,4.11,8,8.43s-3.88,6.92-5.38,9.52a7.91,7.91,0,0,0-1.08,5h-3a7.91,7.91,0,0,0-1.08-5c-1.5-2.6-5.37-5.19-5.37-9.52S142.36,40.92,148,40.92Z"/><path class="cls-3" d="M170.76,65.69c0,5.62-4.09,8-8.39,8s-6.88-3.89-9.46-5.4A7.83,7.83,0,0,0,148,67.2v-3a7.83,7.83,0,0,0,4.95-1.09c2.58-1.51,5.16-5.4,9.46-5.4S170.76,60.07,170.76,65.69Z"/><path class="cls-3" d="M123.73,65.69c0-5.62,4.09-8,8.39-8s6.89,3.89,9.47,5.4a7.8,7.8,0,0,0,4.94,1.09v3a7.8,7.8,0,0,0-4.94,1.09c-2.58,1.51-5.17,5.4-9.47,5.4S123.73,71.32,123.73,65.69Z"/><path class="cls-3" d="M149.62,62V74.14c0,5.7,8.06,11.22,8.06,11.22H138.23s8.07-5.52,8.07-11.22V62Z"/><path class="cls-3" d="M104.54,136.34c5.59,0,8,4.11,8,8.43s-3.88,6.93-5.38,9.52a8,8,0,0,0-1.08,5h-3a8,8,0,0,0-1.08-5c-1.5-2.59-5.37-5.19-5.37-9.52S98.94,136.34,104.54,136.34Z"/><path class="cls-3" d="M127.34,161.11c0,5.63-4.09,8-8.39,8s-6.88-3.89-9.47-5.41a7.83,7.83,0,0,0-4.94-1.08v-3a7.83,7.83,0,0,0,4.94-1.08c2.59-1.52,5.17-5.41,9.47-5.41S127.34,155.49,127.34,161.11Z"/><path class="cls-3" d="M80.31,161.12c0-5.63,4.09-8,8.39-8s6.89,3.9,9.47,5.41a7.83,7.83,0,0,0,4.94,1.08v3a7.83,7.83,0,0,0-4.94,1.08c-2.58,1.52-5.17,5.41-9.47,5.41S80.31,166.74,80.31,161.12Z"/><path class="cls-3" d="M106.2,157.45v12.12c0,5.7,8.06,11.22,8.06,11.22H94.81s8.06-5.52,8.06-11.22V157.45Z"/><path class="cls-3" d="M61.47,113.18c5.59,0,8,4.11,8,8.43s-3.87,6.93-5.38,9.52a8,8,0,0,0-1.08,5H60a8,8,0,0,0-1.07-5c-1.51-2.59-5.38-5.19-5.38-9.52S55.87,113.18,61.47,113.18Z"/><path class="cls-3" d="M84.27,138c0,5.62-4.08,8-8.39,8s-6.88-3.89-9.46-5.4a7.78,7.78,0,0,0-5-1.08v-3a7.83,7.83,0,0,0,5-1.09c2.58-1.51,5.16-5.4,9.46-5.4S84.27,132.33,84.27,138Z"/><path class="cls-3" d="M37.24,138c0-5.62,4.09-8,8.39-8s6.89,3.89,9.47,5.41a7.86,7.86,0,0,0,4.95,1.08v3a7.78,7.78,0,0,0-4.95,1.08c-2.58,1.51-5.16,5.4-9.47,5.4S37.24,143.58,37.24,138Z"/><path class="cls-3" d="M63.13,134.28v12.13c0,5.69,8.06,11.21,8.06,11.21H51.74s8.07-5.52,8.07-11.21V134.28Z"/><path class="cls-3" d="M147.24,113.18c5.6,0,8,4.11,8,8.43s-3.88,6.93-5.39,9.52a8,8,0,0,0-1.07,5h-3a8,8,0,0,0-1.08-5c-1.5-2.59-5.37-5.19-5.37-9.52S141.65,113.18,147.24,113.18Z"/><path class="cls-3" d="M170.05,138c0,5.62-4.09,8-8.39,8s-6.88-3.89-9.46-5.4a7.81,7.81,0,0,0-5-1.08v-3a7.86,7.86,0,0,0,5-1.09c2.58-1.51,5.16-5.4,9.46-5.4S170.05,132.33,170.05,138Z"/><path class="cls-3" d="M123,138c0-5.62,4.09-8,8.39-8s6.88,3.89,9.46,5.41a7.86,7.86,0,0,0,4.95,1.08v3a7.78,7.78,0,0,0-4.95,1.08c-2.58,1.51-5.16,5.4-9.46,5.4S123,143.58,123,138Z"/><path class="cls-3" d="M148.9,134.28v12.13c0,5.69,8.06,11.21,8.06,11.21H137.52s8.06-5.52,8.06-11.21V134.28Z"/><path class="cls-3" d="M62.18,284.79c5.59,0,8-4.11,8-8.43s-3.87-6.93-5.38-9.52a8,8,0,0,1-1.08-5h-3a8,8,0,0,1-1.07,5c-1.51,2.59-5.38,5.19-5.38,9.52S56.59,284.79,62.18,284.79Z"/><path class="cls-3" d="M85,260c0-5.63-4.08-8-8.39-8s-6.88,3.9-9.46,5.41a7.86,7.86,0,0,1-4.95,1.08v3a7.86,7.86,0,0,1,4.95,1.08c2.58,1.52,5.16,5.41,9.46,5.41S85,265.64,85,260Z"/><path class="cls-3" d="M38,260c0,5.62,4.09,8,8.39,8s6.89-3.9,9.47-5.41a7.86,7.86,0,0,1,4.95-1.08v-3a7.86,7.86,0,0,1-4.95-1.08c-2.58-1.51-5.17-5.41-9.47-5.41S38,254.39,38,260Z"/><path class="cls-3" d="M63.84,263.68V251.56c0-5.7,8.06-11.22,8.06-11.22H52.45s8.07,5.52,8.07,11.22v12.12Z"/><path class="cls-3" d="M148,284.79c5.6,0,8-4.11,8-8.43s-3.88-6.93-5.38-9.52a8,8,0,0,1-1.08-5h-3a8,8,0,0,1-1.08,5c-1.5,2.59-5.37,5.19-5.37,9.52S142.36,284.79,148,284.79Z"/><path class="cls-3" d="M170.76,260c0-5.63-4.09-8-8.39-8s-6.88,3.9-9.46,5.41A7.86,7.86,0,0,1,148,258.5v3a7.86,7.86,0,0,1,4.95,1.08c2.58,1.52,5.16,5.41,9.46,5.41S170.76,265.64,170.76,260Z"/><path class="cls-3" d="M123.73,260c0,5.62,4.09,8,8.39,8s6.89-3.9,9.47-5.41a7.83,7.83,0,0,1,4.94-1.08v-3a7.83,7.83,0,0,1-4.94-1.08c-2.58-1.51-5.17-5.41-9.47-5.41S123.73,254.39,123.73,260Z"/><path class="cls-3" d="M149.62,263.68V251.56c0-5.7,8.06-11.22,8.06-11.22H138.23s8.07,5.52,8.07,11.22v12.12Z"/><path class="cls-3" d="M61.47,210.76c5.59,0,8-4.11,8-8.43s-3.87-6.92-5.38-9.52a7.91,7.91,0,0,1-1.08-5H60a8,8,0,0,1-1.07,5c-1.51,2.6-5.38,5.19-5.38,9.52S55.87,210.76,61.47,210.76Z"/><path class="cls-3" d="M84.27,186c0-5.62-4.08-8-8.39-8s-6.88,3.89-9.46,5.4a7.83,7.83,0,0,1-5,1.09v3a7.83,7.83,0,0,1,5,1.09c2.58,1.51,5.16,5.4,9.46,5.4S84.27,191.61,84.27,186Z"/><path class="cls-3" d="M37.24,186c0,5.62,4.09,8,8.39,8s6.89-3.89,9.47-5.4a7.83,7.83,0,0,1,4.95-1.09v-3a7.78,7.78,0,0,1-4.95-1.08c-2.58-1.51-5.16-5.4-9.47-5.4S37.24,180.36,37.24,186Z"/><path class="cls-3" d="M63.13,189.66V177.53c0-5.69,8.06-11.21,8.06-11.21H51.74s8.07,5.52,8.07,11.21v12.13Z"/><path class="cls-3" d="M147.24,210.76c5.6,0,8-4.11,8-8.43s-3.88-6.92-5.39-9.52a8,8,0,0,1-1.07-5h-3a7.91,7.91,0,0,1-1.08,5c-1.5,2.6-5.37,5.19-5.37,9.52S141.65,210.76,147.24,210.76Z"/><path class="cls-3" d="M170.05,186c0-5.62-4.09-8-8.39-8s-6.88,3.89-9.46,5.4a7.86,7.86,0,0,1-5,1.09v3a7.86,7.86,0,0,1,5,1.09c2.58,1.51,5.16,5.4,9.46,5.4S170.05,191.61,170.05,186Z"/><path class="cls-3" d="M123,186c0,5.62,4.09,8,8.39,8s6.88-3.89,9.46-5.4a7.83,7.83,0,0,1,4.95-1.09v-3a7.78,7.78,0,0,1-4.95-1.08c-2.58-1.51-5.16-5.4-9.46-5.4S123,180.36,123,186Z"/><path class="cls-3" d="M148.9,189.66V177.53c0-5.69,8.06-11.21,8.06-11.21H137.52s8.06,5.52,8.06,11.21v12.13Z"/><path class="cls-3" d="M22.47,38.6c-6.32,0-8-4.66-8-7.12h3.21c0,.65.3,3.9,4.78,3.9,4,0,4.78-3.42,4.78-6.3V26.41a7.8,7.8,0,0,1-5.15,1.73c-7.06,0-8.65-6.44-8.65-8.7a8.73,8.73,0,0,1,2.15-6.26A8.53,8.53,0,0,1,21.9,11c6.77,0,8.56,5.63,8.56,8.61v9.51C30.46,35,27.47,38.6,22.47,38.6ZM21.9,14.18a5.52,5.52,0,0,0-4,1.28,5.5,5.5,0,0,0-1.2,3.92c0,.12.14,5.53,5.43,5.53,4.85,0,5.14-5.21,5.15-5.35C27.24,19,27,14.18,21.9,14.18Z"/><path class="cls-3" d="M186.47,38.56c-6.32,0-8-4.65-8-7.11h1.61l1.6,0c0,.65.3,3.9,4.78,3.9,3.95,0,4.78-3.42,4.78-6.29V26.37a7.8,7.8,0,0,1-5.15,1.73c-7.06,0-8.65-6.43-8.65-8.69,0-1.06,0-4.1,2.15-6.27a8.56,8.56,0,0,1,6.3-2.22c6.77,0,8.56,5.63,8.56,8.6V29C194.46,35,191.47,38.56,186.47,38.56Zm-.57-24.41a5.52,5.52,0,0,0-4,1.28,5.49,5.49,0,0,0-1.2,3.91c0,.13.14,5.53,5.43,5.53,4.85,0,5.14-5.21,5.15-5.35C191.24,19,191,14.15,185.9,14.15Z"/><path class="cls-3" d="M185.45,287.21c6.32,0,8,4.65,8,7.12h-3.22c0-.65-.3-3.9-4.77-3.9-3.95,0-4.78,3.42-4.78,6.29v2.67a7.8,7.8,0,0,1,5.15-1.73c7.05,0,8.64,6.44,8.64,8.69,0,1.06,0,4.1-2.15,6.27a8.55,8.55,0,0,1-6.3,2.22c-6.77,0-8.56-5.62-8.56-8.6v-9.51C177.46,290.77,180.44,287.21,185.45,287.21Zm.56,24.41a4.49,4.49,0,0,0,5.24-5.19c0-.12-.15-5.53-5.43-5.53-4.86,0-5.15,5.21-5.15,5.35C180.67,306.81,180.89,311.62,186,311.62Z"/><path class="cls-3" d="M21.45,287.21c6.32,0,8,4.65,8,7.12H26.22c0-.65-.3-3.9-4.77-3.9-3.95,0-4.78,3.42-4.78,6.29v2.67a7.8,7.8,0,0,1,5.15-1.73c7.05,0,8.64,6.44,8.64,8.69,0,1.06,0,4.1-2.15,6.27a8.55,8.55,0,0,1-6.3,2.22c-6.77,0-8.56-5.62-8.56-8.6v-9.51C13.46,290.77,16.44,287.21,21.45,287.21ZM22,311.62a5.49,5.49,0,0,0,4-1.28,5.51,5.51,0,0,0,1.21-3.91c0-.12-.15-5.53-5.43-5.53-4.86,0-5.14,5.21-5.15,5.35C16.67,306.81,16.89,311.62,22,311.62Z"/><path class="cls-3" d="M28,52.94c-1.8,0-2.87,1.67-3.95,2.32a1.31,1.31,0,0,1-.8.2A1.68,1.68,0,0,1,23,53.63c.63-1.12,2.24-2.23,2.24-4.09s-1-3.62-3.32-3.62-3.32,1.76-3.32,3.62,1.62,3,2.24,4.09a1.67,1.67,0,0,1-.19,1.83,1.26,1.26,0,0,1-.79-.2c-1.08-.65-2.16-2.32-3.95-2.32a3.44,3.44,0,1,0,0,6.88c1.79,0,2.87-1.68,3.95-2.33a1.34,1.34,0,0,1,.9-.19c.95,3.37-2.16,8.62-2.16,8.62A10.41,10.41,0,0,1,22,65.46a10.41,10.41,0,0,1,3.32.46s-3.53-5.33-2.26-8.6a1.32,1.32,0,0,1,1,.17c1.07.65,2.15,2.33,3.95,2.33a3.44,3.44,0,1,0,0-6.88Z"/><path class="cls-3" d="M192,52.94c-1.8,0-2.87,1.67-3.95,2.32a1.31,1.31,0,0,1-.8.2,1.68,1.68,0,0,1-.18-1.83c.63-1.12,2.24-2.23,2.24-4.09s-1-3.62-3.32-3.62-3.32,1.76-3.32,3.62,1.62,3,2.24,4.09a1.67,1.67,0,0,1-.19,1.83,1.26,1.26,0,0,1-.79-.2c-1.08-.65-2.16-2.32-4-2.32a3.44,3.44,0,1,0,0,6.88c1.79,0,2.87-1.68,4-2.33a1.34,1.34,0,0,1,.9-.19c.95,3.37-2.16,8.62-2.16,8.62a12.21,12.21,0,0,1,6.64,0s-3.53-5.33-2.26-8.6a1.32,1.32,0,0,1,1,.17c1.07.65,2.15,2.33,3.94,2.33a3.44,3.44,0,1,0,0-6.88Z"/><path class="cls-3" d="M180,272.77c1.79,0,2.87-1.67,3.94-2.32a1.35,1.35,0,0,1,.81-.2,1.7,1.7,0,0,1,.18,1.83c-.63,1.12-2.24,2.23-2.24,4.09s1,3.62,3.32,3.62,3.31-1.76,3.31-3.62-1.61-3-2.24-4.09a1.67,1.67,0,0,1,.2-1.83,1.29,1.29,0,0,1,.79.2c1.07.65,2.15,2.32,3.95,2.32a3.44,3.44,0,1,0,0-6.88c-1.8,0-2.87,1.68-3.95,2.33a1.3,1.3,0,0,1-.91.18c-1-3.36,2.17-8.61,2.17-8.61a12.21,12.21,0,0,1-6.64,0s3.52,5.33,2.26,8.6a1.37,1.37,0,0,1-1-.17c-1.08-.65-2.16-2.33-4-2.33a3.44,3.44,0,1,0,0,6.88Z"/><path class="cls-3" d="M16,272.77c1.79,0,2.87-1.67,3.94-2.32a1.35,1.35,0,0,1,.81-.2,1.7,1.7,0,0,1,.18,1.83c-.63,1.12-2.24,2.23-2.24,4.09s1,3.62,3.32,3.62,3.31-1.76,3.31-3.62-1.61-3-2.24-4.09a1.67,1.67,0,0,1,.2-1.83,1.29,1.29,0,0,1,.79.2c1.07.65,2.15,2.32,3.95,2.32a3.44,3.44,0,1,0,0-6.88c-1.8,0-2.87,1.68-3.95,2.33a1.3,1.3,0,0,1-.91.18c-.95-3.36,2.17-8.61,2.17-8.61a10.41,10.41,0,0,1-3.32.46,10.41,10.41,0,0,1-3.32-.46s3.52,5.33,2.26,8.6a1.37,1.37,0,0,1-1-.17c-1.08-.65-2.16-2.33-3.95-2.33a3.44,3.44,0,1,0,0,6.88Z"/></g></g></svg>