<svg xmlns="http://www.w3.org/2000/svg" viewBox="0 0 208 326">
    <defs>
        <style>
            .cls-1 {
                fill: #fff;
            }

            .cls-2 {
                fill: #6f7072;
            }

            .cls-3 {
                fill: #1c1c1c;
            }
        </style>
    </defs>
    <title>9C-us-2c</title>
    <g id="Calque_2" data-name="Calque 2">
        <g id="FR_-_EN" data-name="FR - EN">
            <path class="cls-1" d="M14.83,325A13.84,13.84,0,0,1,1,311.18V14.82A13.84,13.84,0,0,1,14.83,1H193.17A13.84,13.84,0,0,1,207,14.82V311.18A13.84,13.84,0,0,1,193.17,325Z"
            />
            <path class="cls-2" d="M193.17,2A12.84,12.84,0,0,1,206,14.82V311.18A12.84,12.84,0,0,1,193.17,324H14.83A12.84,12.84,0,0,1,2,311.18V14.82A12.84,12.84,0,0,1,14.83,2H193.17m0-2H14.83A14.83,14.83,0,0,0,0,14.82V311.18A14.83,14.83,0,0,0,14.83,326H193.17A14.83,14.83,0,0,0,208,311.18V14.82A14.83,14.83,0,0,0,193.17,0Z"
            />
            <path class="cls-3" d="M32.61,65c.39-4.5-3.51-8.2-7.57-4.35l-.82-1.2c4.51-2.93,2.29-8.43-2.71-8.69-5.1.05-7.59,5.69-3,8.69l-.83,1.2c-4.62-4.38-8.81,1.05-7.28,5.67A5.24,5.24,0,0,0,15,70.2a3.86,3.86,0,0,0,2.93-1c.81-.61,1-1.77,1.55-2.32.65.34.62.28.59,1a16.47,16.47,0,0,1-2.57,5.58,26.35,26.35,0,0,1,7.83,0,16.47,16.47,0,0,1-2.57-5.58c-.05-.71,0-.67.59-1,.55.54.77,1.75,1.56,2.32a3.82,3.82,0,0,0,2.92,1c2.38-.08,4.26-2.26,4.69-4.53"
            />
            <path class="cls-3" d="M198.05,65c.39-4.5-3.51-8.2-7.57-4.35l-.83-1.2c4.52-2.93,2.3-8.43-2.71-8.69-5.1.05-7.58,5.69-2.94,8.69l-.83,1.2c-4.63-4.38-8.81,1.05-7.29,5.67a5.26,5.26,0,0,0,4.53,3.91,3.82,3.82,0,0,0,2.92-1c.82-.61,1-1.77,1.56-2.32.65.34.62.28.59,1a16.47,16.47,0,0,1-2.57,5.58,26.35,26.35,0,0,1,7.83,0,16.29,16.29,0,0,1-2.57-5.58c0-.71,0-.67.59-1,.54.54.76,1.75,1.56,2.32a3.82,3.82,0,0,0,2.92,1c2.38-.08,4.26-2.26,4.69-4.53"
            />
            <path class="cls-3" d="M175.59,260.86c-.39,4.5,3.51,8.21,7.57,4.36l.82,1.19c-4.51,2.93-2.29,8.43,2.71,8.69,5.11,0,7.59-5.69,2.95-8.69l.83-1.19c4.62,4.37,8.81-1.05,7.28-5.68a5.23,5.23,0,0,0-4.52-3.9,3.85,3.85,0,0,0-2.93,1c-.81.61-1,1.77-1.55,2.32-.65-.34-.62-.27-.59-1a16.39,16.39,0,0,1,2.57-5.58,27,27,0,0,1-7.83,0,16.3,16.3,0,0,1,2.57,5.58c.05.7,0,.66-.59,1-.54-.53-.76-1.75-1.56-2.32a3.78,3.78,0,0,0-2.92-1c-2.38.08-4.26,2.26-4.69,4.52"
            />
            <path class="cls-3" d="M10.15,260.86c-.39,4.5,3.51,8.21,7.57,4.36l.83,1.19c-4.52,2.93-2.3,8.43,2.71,8.69,5.1,0,7.58-5.69,2.95-8.69l.82-1.19c4.63,4.37,8.82-1.05,7.29-5.68a5.25,5.25,0,0,0-4.52-3.9,3.84,3.84,0,0,0-2.93,1c-.82.61-1,1.77-1.56,2.32-.65-.34-.62-.27-.59-1a16.39,16.39,0,0,1,2.57-5.58,27,27,0,0,1-7.83,0A16.12,16.12,0,0,1,20,258c0,.7,0,.66-.59,1-.54-.53-.76-1.75-1.56-2.32a3.78,3.78,0,0,0-2.92-1c-2.38.08-4.25,2.26-4.69,4.52"
            />
            <path class="cls-3" d="M90,56.54c.78-9-7-16.41-15.13-8.71l-1.66-2.39c9-5.85,4.59-16.87-5.42-17.39-10.2.1-15.16,11.38-5.9,17.39l-1.65,2.39C51,39.08,42.62,49.93,45.68,59.18c1.17,4,4.75,7.66,9,7.8a7.63,7.63,0,0,0,5.86-2.06c1.63-1.22,2-3.54,3.12-4.64,1.3.68,1.24.55,1.18,2-.61,3.78-3.12,8-5.15,11.16a52.69,52.69,0,0,1,15.66,0c-2-3.26-4.53-7.29-5.14-11.16-.09-1.42-.06-1.33,1.18-2,1.09,1.06,1.53,3.5,3.12,4.64A7.63,7.63,0,0,0,80.39,67c4.76-.16,8.51-4.51,9.38-9"
            />
            <path class="cls-3" d="M45.09,269.29c-.77,9,7,16.42,15.14,8.71l1.65,2.4c-9,5.85-4.58,16.86,5.42,17.38,10.2-.09,15.17-11.38,5.9-17.38l1.65-2.4c9.25,8.75,17.63-2.09,14.57-11.34-1.16-4-4.75-7.67-9-7.81a7.68,7.68,0,0,0-5.86,2.06c-1.62,1.22-2,3.55-3.11,4.64-1.3-.67-1.24-.54-1.18-2,.61-3.79,3.12-8,5.15-11.16a53.37,53.37,0,0,1-15.66,0c2,3.25,4.52,7.29,5.13,11.16.1,1.41.06,1.32-1.18,2-1.08-1.06-1.52-3.5-3.11-4.64a7.65,7.65,0,0,0-5.85-2.06c-4.76.16-8.51,4.51-9.38,9"
            />
            <path class="cls-3" d="M162.81,56.54c.78-9-7-16.41-15.13-8.71L146,45.44c9-5.85,4.59-16.87-5.42-17.39-10.2.1-15.16,11.38-5.89,17.39l-1.66,2.39c-9.24-8.75-17.63,2.1-14.57,11.35,1.17,4,4.75,7.66,9,7.8a7.63,7.63,0,0,0,5.86-2.06c1.63-1.22,2-3.54,3.12-4.64,1.3.68,1.24.55,1.18,2-.61,3.78-3.12,8-5.15,11.16a52.69,52.69,0,0,1,15.66,0c-2-3.26-4.53-7.29-5.14-11.16-.09-1.42-.06-1.33,1.18-2,1.09,1.06,1.53,3.5,3.12,4.64A7.63,7.63,0,0,0,153.19,67c4.77-.16,8.51-4.51,9.38-9"
            />
            <path class="cls-3" d="M90,132.15c.78-9-7-16.41-15.13-8.71l-1.66-2.39c9-5.85,4.59-16.87-5.42-17.39-10.2.1-15.16,11.38-5.9,17.39l-1.65,2.39c-9.25-8.75-17.63,2.1-14.57,11.35,1.17,4,4.75,7.66,9,7.8a7.63,7.63,0,0,0,5.86-2.06c1.63-1.22,2-3.54,3.12-4.64,1.3.68,1.24.55,1.18,2-.61,3.78-3.12,8-5.15,11.16a53,53,0,0,1,15.66,0c-2-3.26-4.53-7.29-5.14-11.16-.09-1.42-.06-1.33,1.18-2,1.09,1.06,1.53,3.5,3.12,4.64a7.63,7.63,0,0,0,5.84,2.06c4.76-.16,8.51-4.51,9.38-9"
            />
            <path class="cls-3" d="M162.81,132.15c.78-9-7-16.41-15.13-8.71L146,121.05c9-5.85,4.59-16.87-5.42-17.39-10.2.1-15.16,11.38-5.89,17.39l-1.66,2.39c-9.24-8.75-17.63,2.1-14.57,11.35,1.17,4,4.75,7.66,9,7.8a7.63,7.63,0,0,0,5.86-2.06c1.63-1.22,2-3.54,3.12-4.64,1.3.68,1.24.55,1.18,2-.61,3.78-3.12,8-5.15,11.16a53,53,0,0,1,15.66,0c-2-3.26-4.53-7.29-5.14-11.16-.09-1.42-.06-1.33,1.18-2,1.09,1.06,1.53,3.5,3.12,4.64a7.63,7.63,0,0,0,5.84,2.06c4.77-.16,8.51-4.51,9.38-9"
            />
            <path class="cls-3" d="M117.89,196.14c-.77,9,7,16.41,15.14,8.71l1.65,2.4c-9,5.85-4.58,16.86,5.42,17.38,10.2-.09,15.17-11.38,5.9-17.38l1.65-2.4c9.25,8.75,17.63-2.1,14.57-11.34-1.16-4-4.75-7.67-9-7.81a7.68,7.68,0,0,0-5.86,2.06c-1.62,1.22-2,3.55-3.11,4.64-1.3-.67-1.24-.54-1.18-2,.61-3.79,3.12-8,5.15-11.16a53.37,53.37,0,0,1-15.66,0c2,3.25,4.52,7.28,5.13,11.16.1,1.41.06,1.32-1.17,2-1.09-1.06-1.53-3.5-3.12-4.64a7.65,7.65,0,0,0-5.85-2.06c-4.76.16-8.51,4.51-9.38,9"
            />
            <path class="cls-3" d="M45.09,196.14c-.77,9,7,16.41,15.14,8.71l1.65,2.4c-9,5.85-4.58,16.86,5.42,17.38,10.2-.09,15.16-11.38,5.9-17.38l1.65-2.4c9.25,8.75,17.63-2.1,14.57-11.34-1.16-4-4.75-7.67-9-7.81a7.68,7.68,0,0,0-5.86,2.06c-1.62,1.22-2,3.55-3.11,4.64-1.31-.67-1.24-.54-1.18-2,.61-3.79,3.12-8,5.15-11.16a53.37,53.37,0,0,1-15.66,0c2,3.25,4.52,7.28,5.13,11.16.1,1.41.06,1.32-1.18,2-1.08-1.06-1.52-3.5-3.11-4.64a7.65,7.65,0,0,0-5.85-2.06c-4.76.16-8.51,4.51-9.38,9"
            />
            <path class="cls-3" d="M117.89,269.29c-.77,9,7,16.42,15.14,8.71l1.65,2.4c-9,5.85-4.58,16.86,5.42,17.38,10.2-.09,15.17-11.38,5.9-17.38l1.65-2.4c9.25,8.75,17.63-2.09,14.57-11.34-1.16-4-4.75-7.67-9-7.81a7.68,7.68,0,0,0-5.86,2.06c-1.62,1.22-2,3.55-3.11,4.64-1.3-.67-1.24-.54-1.18-2,.61-3.79,3.12-8,5.15-11.16a53.37,53.37,0,0,1-15.66,0c2,3.25,4.52,7.29,5.13,11.16.1,1.41.07,1.32-1.17,2-1.09-1.06-1.53-3.5-3.12-4.64a7.65,7.65,0,0,0-5.85-2.06c-4.76.16-8.51,4.51-9.38,9"
            />
            <path class="cls-3" d="M30.52,16.46c-2.08-9.15-12.47-12.1-17.35-3.39-5.63,9.09,3.37,23.48,13.64,15.87.44,2.66-.71,8.59-3.72,9.89-3.31,1.83-7.38-.41-8.09-4.12l-2.91.72c1.43,4.47,5.38,8.48,10.29,7.13,8.28-1.86,9.52-16.62,8.76-23.18M27.46,20c-1,10.18-11.62,10.19-12.6,0C14.75,9.21,26.31,7.92,27.46,18.9Z"
            />
            <path class="cls-3" d="M196,16.52c-2.08-9.14-12.47-12.1-17.35-3.38C173,22.23,182.05,36.62,192.31,29c.45,2.67-.7,8.59-3.72,9.89-3.31,1.83-7.38-.41-8.09-4.11l-2.91.72C179,40,183,44,187.89,42.63c8.27-1.86,9.51-16.62,8.75-23.18m-3.67.66c-1,10.18-11.63,10.19-12.61,0C180.25,9.27,191.81,8,193,19Z"
            />
            <path class="cls-3" d="M177.74,307.54c2.09,9.15,12.47,12.1,17.35,3.38,5.64-9.08-3.37-23.47-13.64-15.86-.44-2.66.71-8.59,3.73-9.89,3.3-1.83,7.37.41,8.09,4.12l2.91-.72c-1.44-4.48-5.39-8.48-10.3-7.13-8.28,1.86-9.52,16.62-8.75,23.18m3.67-.67c1-10.17,11.63-10.18,12.61,0,.1,10.84-11.46,12.13-12.61,1.15Z"
            />
            <path class="cls-3" d="M12.24,307.47c2.09,9.15,12.47,12.1,17.35,3.39C35.23,301.77,26.22,287.38,16,295c-.44-2.67.71-8.6,3.73-9.9,3.3-1.82,7.37.41,8.08,4.12l2.92-.72c-1.44-4.47-5.39-8.48-10.3-7.13-8.28,1.86-9.52,16.62-8.75,23.18m3.67-.66c1-10.18,11.62-10.19,12.61,0C28,314.72,16.45,316,15.3,305Z"
            />
            <path class="cls-3" d="M126.41,169.26c.78-9-7-16.41-15.13-8.71l-1.66-2.4c9-5.84,4.59-16.86-5.42-17.38-10.2.1-15.16,11.38-5.9,17.38l-1.65,2.4c-9.25-8.75-17.63,2.1-14.57,11.34,1.17,4,4.75,7.67,9,7.81A7.67,7.67,0,0,0,97,177.64c1.63-1.22,2-3.54,3.12-4.64,1.3.68,1.24.55,1.18,2-.61,3.79-3.12,8-5.15,11.17a52.69,52.69,0,0,1,15.66,0c-2-3.26-4.53-7.29-5.14-11.17-.09-1.41-.06-1.32,1.18-2,1.09,1.06,1.53,3.5,3.12,4.64a7.63,7.63,0,0,0,5.84,2.06c4.77-.16,8.51-4.51,9.38-9"
            />
        </g>
    </g>
</svg>
