<svg xmlns="http://www.w3.org/2000/svg" viewBox="0 0 208 326">
    <defs>
        <style>
            .cls-1 {
                fill: #fff;
            }

            .cls-2 {
                fill: #6f7072;
            }

            .cls-3 {
                fill: #f5a11a;
            }
        </style>
    </defs>
    <title>9D-fr-4C</title>
    <g id="Calque_2" data-name="Calque 2">
        <g id="FR_-_EN" data-name="FR - EN">
            <path class="cls-1" d="M14.83,325A13.84,13.84,0,0,1,1,311.18V14.82A13.84,13.84,0,0,1,14.83,1H193.17A13.84,13.84,0,0,1,207,14.82V311.18A13.84,13.84,0,0,1,193.17,325Z"
            />
            <path class="cls-2" d="M193.17,2A12.84,12.84,0,0,1,206,14.82V311.18A12.84,12.84,0,0,1,193.17,324H14.83A12.84,12.84,0,0,1,2,311.18V14.82A12.84,12.84,0,0,1,14.83,2H193.17m0-2H14.83A14.83,14.83,0,0,0,0,14.82V311.18A14.82,14.82,0,0,0,14.83,326H193.17A14.83,14.83,0,0,0,208,311.18V14.82A14.83,14.83,0,0,0,193.17,0Z"
            />
            <path class="cls-3" d="M22,45.84s3.67,8.07,9.1,10.11A23.7,23.7,0,0,0,22,65.84s-1.63-5.81-8.9-10A17.25,17.25,0,0,0,22,45.84Z"
            />
            <path class="cls-3" d="M185.9,46s3.67,8.08,9.1,10.12A23.63,23.63,0,0,0,185.9,66s-1.63-5.81-8.9-10A17.17,17.17,0,0,0,185.9,46Z"
            />
            <path class="cls-3" d="M21.9,260.09s3.67,8.07,9.1,10.11a23.62,23.62,0,0,0-9.1,9.89s-1.63-5.82-8.9-10A17.18,17.18,0,0,0,21.9,260.09Z"
            />
            <path class="cls-3" d="M185.9,259.85s3.67,8.08,9.1,10.11a23.7,23.7,0,0,0-9.1,9.89s-1.63-5.81-8.9-10A17.21,17.21,0,0,0,185.9,259.85Z"
            />
            <path class="cls-3" d="M22.51,38.7c-6.32,0-8-4.65-8-7.12h3.21c0,.65.3,3.9,4.78,3.9,3.95,0,4.78-3.42,4.78-6.29V26.51a7.8,7.8,0,0,1-5.15,1.73c-7.06,0-8.65-6.44-8.65-8.69,0-1.06,0-4.1,2.15-6.27a8.57,8.57,0,0,1,6.3-2.23c6.77,0,8.56,5.63,8.56,8.61v9.51C30.5,35.14,27.51,38.7,22.51,38.7Zm-.57-24.41a5.52,5.52,0,0,0-4,1.28,5.49,5.49,0,0,0-1.2,3.91c0,.12.14,5.53,5.43,5.53,4.85,0,5.14-5.21,5.14-5.35C27.28,19.1,27.07,14.29,21.94,14.29Z"
            />
            <path class="cls-3" d="M186.5,38.67c-6.31,0-8-4.66-8-7.12h1.62l1.6,0c0,.65.3,3.91,4.78,3.91,4,0,4.78-3.43,4.78-6.3V26.47a7.75,7.75,0,0,1-5.15,1.74c-7.06,0-8.65-6.44-8.65-8.7a8.73,8.73,0,0,1,2.15-6.26,8.53,8.53,0,0,1,6.3-2.23c6.77,0,8.56,5.63,8.56,8.61v9.51C194.5,35.11,191.51,38.67,186.5,38.67Zm-.56-24.42a5.52,5.52,0,0,0-4,1.28,5.5,5.5,0,0,0-1.2,3.92c0,.12.14,5.53,5.43,5.53,4.85,0,5.14-5.21,5.15-5.36C191.28,19.06,191.07,14.25,185.94,14.25Z"
            />
            <path class="cls-3" d="M185.49,287.31c6.31,0,8,4.66,8,7.12h-3.22c0-.65-.3-3.9-4.77-3.9-4,0-4.78,3.42-4.78,6.3v2.66a7.8,7.8,0,0,1,5.15-1.73c7,0,8.64,6.44,8.64,8.69,0,1.06,0,4.1-2.15,6.27a8.53,8.53,0,0,1-6.3,2.23c-6.77,0-8.56-5.63-8.56-8.61v-9.51C177.5,290.87,180.48,287.31,185.49,287.31Zm.56,24.42a4.5,4.5,0,0,0,5.24-5.2c0-.12-.15-5.53-5.43-5.53-4.86,0-5.15,5.21-5.15,5.35C180.71,306.92,180.93,311.73,186.05,311.73Z"
            />
            <path class="cls-3" d="M21.49,287.31c6.31,0,8,4.66,8,7.12H26.26c0-.65-.3-3.9-4.77-3.9-3.95,0-4.78,3.42-4.78,6.3v2.66a7.8,7.8,0,0,1,5.15-1.73c7.05,0,8.64,6.44,8.64,8.69,0,1.06,0,4.1-2.15,6.27a8.53,8.53,0,0,1-6.3,2.23c-6.77,0-8.56-5.63-8.56-8.61v-9.51C13.5,290.87,16.48,287.31,21.49,287.31Zm.57,24.42a5.45,5.45,0,0,0,4-1.29,5.48,5.48,0,0,0,1.21-3.91c0-.12-.15-5.53-5.43-5.53-4.86,0-5.15,5.21-5.15,5.35C16.71,306.92,16.92,311.73,22.06,311.73Z"
            />
            <path class="cls-3" d="M147.51,41.58s9.63,19.23,23.9,24.08a59.6,59.6,0,0,0-23.9,23.54s-4.29-13.84-23.37-23.81C124.14,65.39,140.91,59.19,147.51,41.58Z"
            />
            <path class="cls-3" d="M60,41.58s9.63,19.23,23.9,24.08A59.6,59.6,0,0,0,60,89.2S55.75,75.36,36.67,65.39C36.67,65.39,53.44,59.19,60,41.58Z"
            />
            <path class="cls-3" d="M147.51,108.59s9.63,19.22,23.9,24.07a59.6,59.6,0,0,0-23.9,23.54s-4.29-13.84-23.37-23.81C124.14,132.39,140.91,126.2,147.51,108.59Z"
            />
            <path class="cls-3" d="M60,108.59s9.63,19.22,23.9,24.07A59.6,59.6,0,0,0,60,156.2s-4.29-13.84-23.37-23.81C36.67,132.39,53.44,126.2,60,108.59Z"
            />
            <path class="cls-3" d="M147.51,169.64s9.63,19.23,23.9,24.08a59.6,59.6,0,0,0-23.9,23.54s-4.29-13.84-23.37-23.81C124.14,193.45,140.91,187.25,147.51,169.64Z"
            />
            <path class="cls-3" d="M60,169.64s9.63,19.23,23.9,24.08A59.6,59.6,0,0,0,60,217.26s-4.29-13.84-23.37-23.81C36.67,193.45,53.44,187.25,60,169.64Z"
            />
            <path class="cls-3" d="M147.51,236.65s9.63,19.22,23.9,24.07a59.6,59.6,0,0,0-23.9,23.54s-4.29-13.84-23.37-23.81C124.14,260.45,140.91,254.26,147.51,236.65Z"
            />
            <path class="cls-3" d="M103.73,138.05s9.64,19.22,23.91,24.08a59.53,59.53,0,0,0-23.91,23.53s-4.28-13.83-23.37-23.8C80.36,161.86,97.13,155.66,103.73,138.05Z"
            />
            <path class="cls-3" d="M60,236.65s9.63,19.22,23.9,24.07A59.6,59.6,0,0,0,60,284.26s-4.29-13.84-23.37-23.81C36.67,260.45,53.44,254.26,60,236.65Z"
            />
        </g>
    </g>
</svg>
