<svg xmlns="http://www.w3.org/2000/svg" viewBox="0 0 208 326">
    <defs>
        <style>
            .cls-1 {
                fill: #fff;
            }

            .cls-2 {
                fill: #6f7072;
            }

            .cls-3 {
                fill: #f8261b;
            }
        </style>
    </defs>
    <title>9D-us-2c</title>
    <g id="Calque_2" data-name="Calque 2">
        <g id="FR_-_EN" data-name="FR - EN">
            <path class="cls-1" d="M14.83,325A13.84,13.84,0,0,1,1,311.18V14.82A13.84,13.84,0,0,1,14.83,1H193.17A13.84,13.84,0,0,1,207,14.82V311.18A13.84,13.84,0,0,1,193.17,325Z"
            />
            <path class="cls-2" d="M193.17,2A12.84,12.84,0,0,1,206,14.82V311.18A12.84,12.84,0,0,1,193.17,324H14.83A12.84,12.84,0,0,1,2,311.18V14.82A12.84,12.84,0,0,1,14.83,2H193.17m0-2H14.83A14.83,14.83,0,0,0,0,14.82V311.18A14.82,14.82,0,0,0,14.83,326H193.17A14.83,14.83,0,0,0,208,311.18V14.82A14.82,14.82,0,0,0,193.17,0Z"
            />
            <path class="cls-3" d="M178.05,264a64.1,64.1,0,0,1,8.76,12.75A63.4,63.4,0,0,1,195.57,264a63.05,63.05,0,0,1-8.76-12.74,65.58,65.58,0,0,1-8.05,12"
            />
            <path class="cls-3" d="M12.61,264a64.1,64.1,0,0,1,8.76,12.75A63.4,63.4,0,0,1,30.13,264a63.05,63.05,0,0,1-8.76-12.74,65.58,65.58,0,0,1-8,12"
            />
            <path class="cls-3" d="M178.05,62.26A63.75,63.75,0,0,1,186.81,75a63.33,63.33,0,0,1,8.76-12.74,63.33,63.33,0,0,1-8.76-12.74,65.5,65.5,0,0,1-8.05,11.95"
            />
            <path class="cls-3" d="M12.61,62.26A63.75,63.75,0,0,1,21.37,75a63.33,63.33,0,0,1,8.76-12.74,63.33,63.33,0,0,1-8.76-12.74,65.5,65.5,0,0,1-8,11.95"
            />
            <path class="cls-3" d="M30.51,16.65C28.43,7.51,18,4.55,13.16,13.27,7.53,22.35,16.53,36.74,26.8,29.13c.44,2.66-.71,8.59-3.72,9.89-3.31,1.83-7.38-.41-8.09-4.12l-2.91.72c1.43,4.48,5.38,8.48,10.29,7.13,8.28-1.86,9.52-16.62,8.76-23.18m-3.68.67c-1,10.17-11.62,10.18-12.6,0C14.74,9.4,26.3,8.11,27.45,19.09Z"
            />
            <path class="cls-3" d="M196,16.72c-2.08-9.15-12.47-12.1-17.35-3.39C173,22.42,182,36.81,192.3,29.19c.45,2.67-.7,8.6-3.72,9.9-3.31,1.82-7.38-.41-8.09-4.12l-2.91.72c1.43,4.47,5.39,8.48,10.3,7.13,8.27-1.86,9.51-16.62,8.75-23.18M193,20.3c-1,10.18-11.63,10.19-12.61,0C180.24,9.47,191.8,8.18,193,19.16Z"
            />
            <path class="cls-3" d="M177.73,307.73c2.09,9.15,12.47,12.1,17.35,3.39,5.64-9.09-3.37-23.48-13.64-15.87-.44-2.66.71-8.59,3.73-9.89,3.3-1.83,7.37.41,8.08,4.12l2.92-.72c-1.44-4.47-5.39-8.48-10.3-7.13-8.28,1.86-9.52,16.62-8.75,23.18m3.67-.66c1-10.18,11.63-10.19,12.61,0,.1,10.83-11.46,12.12-12.61,1.14Z"
            />
            <path class="cls-3" d="M12.23,307.67c2.08,9.14,12.47,12.1,17.35,3.38,5.64-9.09-3.37-23.48-13.64-15.86-.44-2.67.71-8.59,3.73-9.89,3.3-1.83,7.37.41,8.08,4.11l2.92-.72c-1.44-4.47-5.39-8.47-10.3-7.13-8.28,1.86-9.52,16.62-8.75,23.18m3.67-.66c1-10.18,11.62-10.19,12.61,0,.1,10.84-11.46,12.12-12.61,1.14Z"
            />
            <path class="cls-3" d="M122.83,50.92a127.93,127.93,0,0,1,17.51,25.49,126.86,126.86,0,0,1,17.52-25.49,126.58,126.58,0,0,1-17.52-25.49,131.21,131.21,0,0,1-16.11,23.92"
            />
            <path class="cls-3" d="M50,50.92A127.93,127.93,0,0,1,67.54,76.41,126.86,126.86,0,0,1,85.06,50.92,126.58,126.58,0,0,1,67.54,25.43,131.21,131.21,0,0,1,51.43,49.35"
            />
            <path class="cls-3" d="M122.83,126.53A127.93,127.93,0,0,1,140.34,152a126.86,126.86,0,0,1,17.52-25.49A126.58,126.58,0,0,1,140.34,101,131.21,131.21,0,0,1,124.23,125"
            />
            <path class="cls-3" d="M50,126.53A127.93,127.93,0,0,1,67.54,152a126.86,126.86,0,0,1,17.52-25.49A126.58,126.58,0,0,1,67.54,101,131.21,131.21,0,0,1,51.43,125"
            />
            <path class="cls-3" d="M122.83,202.14a128,128,0,0,1,17.51,25.5,126.65,126.65,0,0,1,17.52-25.5,126.79,126.79,0,0,1-17.52-25.48,131.13,131.13,0,0,1-16.11,23.91"
            />
            <path class="cls-3" d="M50,202.14a128,128,0,0,1,17.51,25.5,126.65,126.65,0,0,1,17.52-25.5,126.79,126.79,0,0,1-17.52-25.48,131.13,131.13,0,0,1-16.11,23.91"
            />
            <path class="cls-3" d="M122.83,275.29a128,128,0,0,1,17.51,25.5,126.65,126.65,0,0,1,17.52-25.5,126.79,126.79,0,0,1-17.52-25.48,131.13,131.13,0,0,1-16.11,23.91"
            />
            <path class="cls-3" d="M86.43,163.64a127.93,127.93,0,0,1,17.51,25.49,126.58,126.58,0,0,1,17.52-25.49,126.86,126.86,0,0,1-17.52-25.49,131.21,131.21,0,0,1-16.11,23.92"
            />
            <path class="cls-3" d="M50,275.29a128,128,0,0,1,17.51,25.5,126.65,126.65,0,0,1,17.52-25.5,126.79,126.79,0,0,1-17.52-25.48,131.13,131.13,0,0,1-16.11,23.91"
            />
        </g>
    </g>
</svg>
