<svg xmlns="http://www.w3.org/2000/svg" viewBox="0 0 208 326">
    <defs>
        <style>
            .cls-1 {
                fill: #fff;
            }

            .cls-2 {
                fill: #6f7072;
            }

            .cls-3 {
                fill: #f72014;
            }
        </style>
    </defs>
    <title>9H-fr-2c</title>
    <g id="Calque_2" data-name="Calque 2">
        <g id="FR_-_EN" data-name="FR - EN">
            <path class="cls-1" d="M14.83,325A13.84,13.84,0,0,1,1,311.18V14.82A13.84,13.84,0,0,1,14.83,1H193.17A13.84,13.84,0,0,1,207,14.82V311.18A13.84,13.84,0,0,1,193.17,325Z"
            />
            <path class="cls-2" d="M193.17,2A12.84,12.84,0,0,1,206,14.82V311.18A12.84,12.84,0,0,1,193.17,324H14.83A12.84,12.84,0,0,1,2,311.18V14.82A12.84,12.84,0,0,1,14.83,2H193.17m0-2H14.83A14.83,14.83,0,0,0,0,14.82V311.18A14.82,14.82,0,0,0,14.83,326H193.17A14.83,14.83,0,0,0,208,311.18V14.82A14.83,14.83,0,0,0,193.17,0Z"
            />
            <path class="cls-3" d="M60.3,90.1s.29-3.09,7.62-10.48S83,65.19,84.6,56.91C85.69,51.34,83.18,41,71,41,61.43,41,60.3,53.49,60.3,53.49S59.17,41,49.57,41C37.42,41,34.9,51.34,36,56.91c1.64,8.28,9.32,15.33,16.66,22.71S60.3,90.1,60.3,90.1Z"
            />
            <path class="cls-3" d="M104,191.79s.29-2,7.63-9.36,15-14.44,16.67-22.72c1.09-5.57-1.42-15.91-13.56-15.91-9.61,0-10.74,12.5-10.74,12.5s-1.13-12.5-10.73-12.5c-12.15,0-14.67,10.34-13.56,15.91C81.39,168,89.08,175,96.42,182.43S104,191.79,104,191.79Z"
            />
            <path class="cls-3" d="M147.77,90.1s.29-3.09,7.63-10.48,15-14.43,16.67-22.71c1.1-5.57-1.42-15.91-13.56-15.91-9.6,0-10.74,12.49-10.74,12.49S146.64,41,137,41c-12.15,0-14.66,10.34-13.56,15.91,1.64,8.28,9.33,15.33,16.67,22.71S147.77,90.1,147.77,90.1Z"
            />
            <path class="cls-3" d="M60.3,156s.29-2,7.62-9.34S83,132.25,84.6,124c1.09-5.58-1.42-15.91-13.56-15.91-9.61,0-10.74,12.5-10.74,12.5s-1.13-12.5-10.73-12.5C37.42,108.06,34.9,118.39,36,124c1.64,8.28,9.32,15.33,16.66,22.71S60.3,156,60.3,156Z"
            />
            <path class="cls-3" d="M147.77,156s.29-2,7.63-9.34,15-14.43,16.67-22.71c1.1-5.58-1.42-15.91-13.56-15.91-9.6,0-10.74,12.5-10.74,12.5s-1.13-12.5-10.73-12.5c-12.15,0-14.66,10.33-13.56,15.91,1.64,8.28,9.33,15.33,16.67,22.71S147.77,156,147.77,156Z"
            />
            <path class="cls-3" d="M147.78,235.83s-.29,3.09-7.63,10.47-15,14.43-16.67,22.72c-1.1,5.57,1.42,15.9,13.56,15.9,9.61,0,10.74-12.49,10.74-12.49s1.13,12.49,10.73,12.49c12.15,0,14.66-10.33,13.56-15.9-1.64-8.28-9.33-15.33-16.67-22.72S147.78,235.83,147.78,235.83Z"
            />
            <path class="cls-3" d="M60.3,235.83s-.28,3.09-7.62,10.47S37.65,260.73,36,269c-1.1,5.57,1.41,15.9,13.56,15.9,9.6,0,10.73-12.49,10.73-12.49S61.44,284.92,71,284.92c12.14,0,14.66-10.33,13.56-15.9-1.65-8.28-9.33-15.33-16.67-22.72S60.3,235.83,60.3,235.83Z"
            />
            <path class="cls-3" d="M147.78,167.8s-.29,1.95-7.63,9.33-15,14.44-16.67,22.72c-1.1,5.57,1.42,15.91,13.56,15.91,9.61,0,10.74-12.5,10.74-12.5s1.13,12.5,10.73,12.5c12.15,0,14.66-10.34,13.56-15.91-1.64-8.28-9.33-15.33-16.67-22.72S147.78,167.8,147.78,167.8Z"
            />
            <path class="cls-3" d="M60.3,167.8s-.28,1.95-7.62,9.33-15,14.44-16.67,22.72c-1.1,5.57,1.41,15.91,13.56,15.91,9.6,0,10.73-12.5,10.73-12.5s1.14,12.5,10.74,12.5c12.14,0,14.66-10.34,13.56-15.91-1.65-8.28-9.33-15.33-16.67-22.72S60.3,167.8,60.3,167.8Z"
            />
            <path class="cls-3" d="M22.51,38.68c-6.32,0-8-4.65-8-7.12h3.21c0,.65.3,3.9,4.78,3.9,3.95,0,4.78-3.42,4.78-6.29V26.49a7.8,7.8,0,0,1-5.15,1.73c-7.06,0-8.64-6.44-8.64-8.69a8.68,8.68,0,0,1,2.14-6.27A8.57,8.57,0,0,1,22,11c6.77,0,8.55,5.63,8.55,8.6v9.51C30.5,35.12,27.51,38.68,22.51,38.68Zm-.57-24.41a5.49,5.49,0,0,0-4,1.28,5.51,5.51,0,0,0-1.21,3.91c0,.13.15,5.53,5.43,5.53,4.86,0,5.14-5.21,5.15-5.35C27.28,19.08,27.07,14.27,21.94,14.27Z"
            />
            <path class="cls-3" d="M186.51,38.65c-6.32,0-8-4.66-8-7.12h3.21c0,.64.31,3.9,4.78,3.9,4,0,4.78-3.43,4.78-6.3V26.46a7.8,7.8,0,0,1-5.15,1.73c-7.06,0-8.64-6.44-8.64-8.7a8.66,8.66,0,0,1,2.14-6.26,8.53,8.53,0,0,1,6.3-2.23c6.78,0,8.56,5.63,8.56,8.61v9.51C194.5,35.09,191.51,38.65,186.51,38.65Zm-.57-24.42a5.54,5.54,0,0,0-4,1.28,5.55,5.55,0,0,0-1.2,3.92c0,.12.15,5.53,5.43,5.53,4.86,0,5.14-5.21,5.15-5.36C191.28,19,191.07,14.23,185.94,14.23Z"
            />
            <path class="cls-3" d="M185.49,287.29c6.32,0,8,4.66,8,7.12h-3.21c0-.65-.31-3.9-4.78-3.9-4,0-4.78,3.42-4.78,6.3v2.66a7.8,7.8,0,0,1,5.15-1.73c7.06,0,8.64,6.44,8.64,8.69,0,1.07,0,4.1-2.14,6.27a8.55,8.55,0,0,1-6.31,2.23c-6.77,0-8.55-5.63-8.55-8.61v-9.51C177.5,290.85,180.48,287.29,185.49,287.29Zm.57,24.42a4.49,4.49,0,0,0,5.23-5.2c0-.12-.15-5.53-5.43-5.53-4.86,0-5.14,5.21-5.15,5.35C180.71,306.9,180.93,311.71,186.06,311.71Z"
            />
            <path class="cls-3" d="M21.49,287.29c6.32,0,8,4.66,8,7.12H26.27c0-.65-.31-3.9-4.78-3.9-3.95,0-4.78,3.42-4.78,6.3v2.66a7.8,7.8,0,0,1,5.15-1.73c7.05,0,8.64,6.44,8.64,8.69a8.67,8.67,0,0,1-2.14,6.27,8.53,8.53,0,0,1-6.31,2.23c-6.77,0-8.55-5.63-8.55-8.61v-9.51C13.5,290.85,16.49,287.29,21.49,287.29Zm.57,24.42a5.49,5.49,0,0,0,4-1.28,5.52,5.52,0,0,0,1.21-3.92c0-.12-.15-5.53-5.43-5.53-4.85,0-5.14,5.21-5.15,5.35C16.72,306.9,16.93,311.71,22.06,311.71Z"
            />
            <path class="cls-3" d="M22,64a8.43,8.43,0,0,1,2.49-5.12c2.39-2.46,4.9-4.81,5.43-7.58A4.32,4.32,0,0,0,25.5,46c-3.13,0-3.5,4.17-3.5,4.17S21.63,46,18.5,46a4.32,4.32,0,0,0-4.42,5.3c.53,2.77,3,5.12,5.43,7.58A8.45,8.45,0,0,1,22,64Z"
            />
            <path class="cls-3" d="M186,64a8.45,8.45,0,0,1,2.48-5.12c2.4-2.46,4.91-4.81,5.44-7.58A4.32,4.32,0,0,0,189.5,46c-3.13,0-3.5,4.17-3.5,4.17S185.63,46,182.5,46a4.32,4.32,0,0,0-4.42,5.3c.53,2.77,3,5.12,5.43,7.58A8.45,8.45,0,0,1,186,64Z"
            />
            <path class="cls-3" d="M186,262a8.43,8.43,0,0,1-2.49,5.12c-2.39,2.46-4.9,4.81-5.43,7.58a4.32,4.32,0,0,0,4.42,5.3c3.13,0,3.5-4.17,3.5-4.17s.37,4.17,3.5,4.17a4.32,4.32,0,0,0,4.42-5.3c-.53-2.77-3-5.12-5.43-7.58A8.45,8.45,0,0,1,186,262Z"
            />
            <path class="cls-3" d="M22,262a8.43,8.43,0,0,1-2.49,5.12c-2.39,2.46-4.9,4.81-5.43,7.58A4.32,4.32,0,0,0,18.5,280c3.13,0,3.5-4.17,3.5-4.17s.37,4.17,3.5,4.17a4.32,4.32,0,0,0,4.42-5.3c-.53-2.77-3-5.12-5.43-7.58A8.45,8.45,0,0,1,22,262Z"
            />
        </g>
    </g>
</svg>
