<svg xmlns="http://www.w3.org/2000/svg" viewBox="0 0 208 326">
    <defs>
        <style>
            .cls-1 {
                fill: #fff;
            }

            .cls-2 {
                fill: #6f7072;
            }

            .cls-3 {
                fill: #f8261b;
            }
        </style>
    </defs>
    <title>9H-us-2c</title>
    <g id="Calque_2" data-name="Calque 2">
        <g id="FR_-_EN" data-name="FR - EN">
            <path class="cls-1" d="M14.83,325A13.84,13.84,0,0,1,1,311.18V14.82A13.84,13.84,0,0,1,14.83,1H193.17A13.84,13.84,0,0,1,207,14.82V311.18A13.84,13.84,0,0,1,193.17,325Z"
            />
            <path class="cls-2" d="M193.17,2A12.84,12.84,0,0,1,206,14.82V311.18A12.84,12.84,0,0,1,193.17,324H14.83A12.84,12.84,0,0,1,2,311.18V14.82A12.84,12.84,0,0,1,14.83,2H193.17m0-2H14.83A14.83,14.83,0,0,0,0,14.82V311.18A14.82,14.82,0,0,0,14.83,326H193.17A14.83,14.83,0,0,0,208,311.18V14.82A14.83,14.83,0,0,0,193.17,0Z"
            />
            <path class="cls-3" d="M21.42,69.57C24.76,66.77,31.86,56,30.16,51a4.59,4.59,0,0,0-8.74-.47c-1.59-3.57-6.21-4.1-8.25-.65C10,54.79,17.71,65.92,20.8,69"
            />
            <path class="cls-3" d="M186.86,69.57C190.2,66.77,197.3,56,195.6,51a4.59,4.59,0,0,0-8.74-.47c-1.59-3.57-6.21-4.1-8.25-.65-3.17,4.89,4.54,16,7.62,19.14"
            />
            <path class="cls-3" d="M21.43,254.64c-3.35,2.8-10.45,13.61-8.75,18.56,1.46,4.41,6.85,4.61,8.75.46,1.58,3.58,6.21,4.11,8.24.66,3.18-4.9-4.54-16-7.62-19.14"
            />
            <path class="cls-3" d="M186.87,254.64c-3.35,2.8-10.45,13.61-8.75,18.56,1.46,4.41,6.85,4.61,8.75.46,1.58,3.58,6.2,4.11,8.24.66,3.17-4.9-4.54-16-7.62-19.14"
            />
            <path class="cls-3" d="M30.55,16.59C28.47,7.45,18.08,4.49,13.2,13.21c-5.63,9.08,3.37,23.47,13.64,15.86.45,2.66-.7,8.59-3.72,9.89-3.31,1.83-7.38-.41-8.09-4.11l-2.91.71C13.55,40,17.51,44,22.41,42.69c8.28-1.85,9.52-16.62,8.76-23.18m-3.67.67c-1,10.18-11.63,10.18-12.61,0C14.78,9.34,26.34,8.05,27.5,19Z"
            />
            <path class="cls-3" d="M196.06,16.66c-2.09-9.15-12.47-12.1-17.35-3.39-5.64,9.09,3.37,23.48,13.64,15.87.44,2.66-.71,8.59-3.73,9.89-3.31,1.83-7.37-.41-8.09-4.12l-2.91.72c1.44,4.47,5.39,8.48,10.3,7.13,8.28-1.86,9.52-16.62,8.75-23.18m-3.67.66c-1,10.18-11.63,10.19-12.61,0C180.29,9.41,191.85,8.12,193,19.1Z"
            />
            <path class="cls-3" d="M177.77,307.67c2.09,9.15,12.48,12.1,17.36,3.39,5.63-9.09-3.37-23.48-13.64-15.86-.45-2.67.7-8.6,3.72-9.9,3.31-1.82,7.37.41,8.09,4.12l2.91-.72c-1.43-4.47-5.39-8.48-10.29-7.13-8.29,1.86-9.52,16.62-8.76,23.18m3.67-.66c1-10.18,11.63-10.19,12.61,0,.11,10.83-11.45,12.12-12.61,1.14Z"
            />
            <path class="cls-3" d="M12.27,307.61c2.09,9.14,12.47,12.1,17.35,3.38,5.64-9.09-3.37-23.47-13.64-15.86-.44-2.66.71-8.59,3.73-9.89,3.3-1.83,7.37.41,8.08,4.11l2.92-.71c-1.44-4.48-5.39-8.48-10.3-7.13-8.28,1.85-9.52,16.61-8.75,23.18m3.67-.67c1-10.18,11.63-10.19,12.61,0,.1,10.84-11.46,12.13-12.61,1.14Z"
            />
            <path class="cls-3" d="M67.59,67.79c2.72-2.13,4-4.48,6-7.29a58.87,58.87,0,0,0,6.91-12.69A17.1,17.1,0,0,0,81.81,37.2c-2.37-7.27-11.14-7.6-14.22-.77-2.58-5.89-10.1-6.77-13.41-1.07-1.92,2.94-1.23,8,0,11.16a59.41,59.41,0,0,0,5.54,11.22c2,2.64,4.42,7,6.9,9.17"
            />
            <path class="cls-3" d="M140.39,67.79c2.72-2.13,4-4.48,6-7.29a58.87,58.87,0,0,0,6.91-12.69,17.17,17.17,0,0,0,1.29-10.61c-2.37-7.27-11.15-7.6-14.23-.77-2.58-5.89-10.1-6.77-13.41-1.07-1.92,2.94-1.23,8,0,11.16a59.41,59.41,0,0,0,5.54,11.22c2,2.64,4.42,7,6.9,9.17"
            />
            <path class="cls-3" d="M67.59,144.45c2.72-2.14,4-4.49,6-7.3a58.79,58.79,0,0,0,6.91-12.68c1.39-3.38,2.16-7,1.28-10.62-2.37-7.26-11.14-7.6-14.22-.76-2.58-5.9-10.1-6.77-13.41-1.08-1.92,2.94-1.23,8,0,11.16a58.82,58.82,0,0,0,5.54,11.22c2,2.65,4.42,7,6.9,9.17"
            />
            <path class="cls-3" d="M104,181.72c2.72-2.13,4-4.49,6-7.29a58.87,58.87,0,0,0,6.91-12.69,17.17,17.17,0,0,0,1.29-10.61c-2.37-7.27-11.15-7.6-14.23-.77-2.58-5.89-10.1-6.77-13.41-1.08-1.92,2.95-1.23,8,0,11.16a59.2,59.2,0,0,0,5.54,11.23c2,2.64,4.42,7,6.9,9.17"
            />
            <path class="cls-3" d="M140.39,144.45c2.72-2.14,4-4.49,6-7.3a58.79,58.79,0,0,0,6.91-12.68,17.21,17.21,0,0,0,1.29-10.62c-2.37-7.26-11.15-7.6-14.23-.76-2.58-5.9-10.1-6.77-13.41-1.08-1.92,2.94-1.23,8,0,11.16a58.82,58.82,0,0,0,5.54,11.22c2,2.65,4.42,7,6.9,9.17"
            />
            <path class="cls-3" d="M140.38,183.78c-2.72,2.14-4,4.49-6,7.3a59.27,59.27,0,0,0-6.92,12.68,17.28,17.28,0,0,0-1.28,10.62c2.37,7.26,11.15,7.6,14.23.77,2.58,5.89,10.1,6.76,13.41,1.07,1.92-2.94,1.23-8,0-11.16a59.11,59.11,0,0,0-5.54-11.22c-1.95-2.65-4.42-7-6.9-9.17"
            />
            <path class="cls-3" d="M67.58,183.78c-2.72,2.14-4,4.49-6,7.3a58.83,58.83,0,0,0-6.92,12.68,17.28,17.28,0,0,0-1.28,10.62c2.37,7.26,11.14,7.6,14.23.77,2.58,5.89,10.1,6.76,13.41,1.07,1.91-2.94,1.23-8,0-11.16a59.11,59.11,0,0,0-5.54-11.22c-1.95-2.65-4.42-7-6.9-9.17"
            />
            <path class="cls-3" d="M140.38,257.1c-2.72,2.13-4,4.49-6,7.29a59.58,59.58,0,0,0-6.92,12.69,17.26,17.26,0,0,0-1.28,10.62c2.37,7.26,11.15,7.6,14.23.76,2.58,5.89,10.1,6.77,13.41,1.08,1.92-2.94,1.23-8,0-11.16a59.2,59.2,0,0,0-5.54-11.23c-1.95-2.64-4.42-7-6.9-9.17"
            />
            <path class="cls-3" d="M67.58,257.1c-2.72,2.13-4,4.49-6,7.29a59.14,59.14,0,0,0-6.92,12.69,17.26,17.26,0,0,0-1.28,10.62c2.37,7.26,11.14,7.6,14.23.76,2.58,5.89,10.1,6.77,13.41,1.08,1.91-2.94,1.23-8,0-11.16a59.2,59.2,0,0,0-5.54-11.23c-1.95-2.64-4.42-7-6.9-9.17"
            />
        </g>
    </g>
</svg>
