<svg xmlns="http://www.w3.org/2000/svg" viewBox="0 0 208 326">
    <defs>
        <style>
            .cls-1 {
                fill: #fff;
            }

            .cls-2 {
                fill: #6f7072;
            }
        </style>
    </defs>
    <title>9S-fr-2c</title>
    <g id="Calque_2" data-name="Calque 2">
        <g id="FR_-_EN" data-name="FR - EN">
            <path class="cls-1" d="M14.83,325A13.84,13.84,0,0,1,1,311.18V14.82A13.84,13.84,0,0,1,14.83,1H193.17A13.84,13.84,0,0,1,207,14.82V311.18A13.84,13.84,0,0,1,193.17,325Z"
            />
            <path class="cls-2" d="M193.17,2A12.84,12.84,0,0,1,206,14.82V311.18A12.84,12.84,0,0,1,193.17,324H14.83A12.84,12.84,0,0,1,2,311.18V14.82A12.84,12.84,0,0,1,14.83,2H193.17m0-2H14.83A14.83,14.83,0,0,0,0,14.82V311.18A14.82,14.82,0,0,0,14.83,326H193.17A14.83,14.83,0,0,0,208,311.18V14.82A14.83,14.83,0,0,0,193.17,0Z"
            />
            <path d="M29.58,54.25c-.9-1.75-3.93-4.27-5.74-5.74s-1.77-2.68-2.09-2.68-.2,1.21-2,2.68-4.28,3.5-5.18,5.24a4.27,4.27,0,0,0,2,6.07c1.92,1,3.53-.27,4.54-1.45.17,3.21-4.07,7.46-4.07,7.46a15.47,15.47,0,0,1,8.52-.1s-3.77-5.05-3.25-7.67c1,1.35,2.87,3.07,4.79,2.12C30.05,58.71,30.48,56,29.58,54.25Z"
            />
            <path d="M193.58,54.25c-.9-1.75-3.93-4.27-5.74-5.74s-1.77-2.68-2.09-2.68-.2,1.21-2,2.68-4.28,3.5-5.19,5.24a4.28,4.28,0,0,0,2,6.07c1.91,1,3.53-.27,4.54-1.45.17,3.21-4.07,7.46-4.07,7.46a15.48,15.48,0,0,1,8.52-.1s-3.77-5.05-3.25-7.67c1.05,1.35,2.87,3.07,4.79,2.12C194.05,58.71,194.48,56,193.58,54.25Z"
            />
            <path d="M178.42,271.29c.9,1.75,3.93,4.27,5.74,5.74s1.77,2.68,2.09,2.68.2-1.21,2-2.68,4.28-3.5,5.18-5.24a4.27,4.27,0,0,0-2-6.07c-1.92-.94-3.53.28-4.55,1.46-.16-3.22,4.08-7.47,4.08-7.47a15.47,15.47,0,0,1-8.52.1s3.77,5.05,3.25,7.67c-1.05-1.34-2.87-3.07-4.79-2.12C178,266.83,177.52,269.55,178.42,271.29Z"
            />
            <path d="M14.42,271.29c.9,1.75,3.93,4.27,5.74,5.74s1.77,2.68,2.09,2.68.2-1.21,2-2.68,4.28-3.5,5.18-5.24a4.27,4.27,0,0,0-2-6.07c-1.92-.94-3.53.28-4.54,1.46C22.75,264,27,259.71,27,259.71a15.47,15.47,0,0,1-8.52.1s3.77,5.05,3.25,7.67c-1-1.34-2.87-3.07-4.79-2.12C14,266.83,13.52,269.55,14.42,271.29Z"
            />
            <path d="M78.24,61.57c-2.13-4.09-9.27-10-13.52-13.41s-4.18-6.27-4.92-6.27-.47,2.83-4.73,6.27S45,56.33,42.85,60.42,40.51,71.15,47.53,74.6c4.52,2.21,8.32-.64,10.71-3.4.38,7.52-9.62,17.46-9.62,17.46a36.82,36.82,0,0,1,20.07-.24S59.81,76.62,61,70.48c2.48,3.16,6.77,7.19,11.3,5C79.36,72,80.37,65.66,78.24,61.57Z"
            />
            <path d="M165.71,61.57c-2.12-4.09-9.27-10-13.52-13.41s-4.18-6.27-4.91-6.27-.48,2.83-4.74,6.27-10.09,8.17-12.22,12.26S128,71.15,135,74.6c4.51,2.21,8.31-.64,10.7-3.4.38,7.52-9.62,17.46-9.62,17.46a36.86,36.86,0,0,1,20.08-.24s-8.89-11.8-7.66-17.94c2.48,3.16,6.77,7.19,11.3,5C166.83,72,167.84,65.66,165.71,61.57Z"
            />
            <path d="M78.24,128.58c-2.13-4.09-9.27-10-13.52-13.42s-4.18-6.26-4.92-6.26-.47,2.82-4.73,6.26S45,123.33,42.85,127.42s-2.34,10.74,4.68,14.18c4.52,2.22,8.32-.64,10.71-3.4.38,7.53-9.62,17.46-9.62,17.46a36.82,36.82,0,0,1,20.07-.24S59.81,143.63,61,137.49c2.48,3.15,6.77,7.18,11.3,5C79.36,139,80.37,132.66,78.24,128.58Z"
            />
            <path d="M165.71,128.58c-2.12-4.09-9.27-10-13.52-13.42s-4.18-6.26-4.91-6.26-.48,2.82-4.74,6.26-10.09,8.17-12.22,12.26S128,138.16,135,141.6c4.51,2.22,8.31-.64,10.7-3.4.38,7.53-9.62,17.46-9.62,17.46a36.86,36.86,0,0,1,20.08-.24s-8.89-11.79-7.66-17.93c2.48,3.15,6.77,7.18,11.3,5C166.83,139,167.84,132.66,165.71,128.58Z"
            />
            <path d="M130,196.31c2.13,4.09,9.27,10,13.52,13.42s4.18,6.26,4.92,6.26.47-2.82,4.73-6.26,10.09-8.18,12.22-12.26,2.34-10.74-4.69-14.18c-4.51-2.22-8.31.64-10.7,3.4-.38-7.53,9.62-17.46,9.62-17.46a36.8,36.8,0,0,1-20.08.23s8.89,11.8,7.66,17.94c-2.48-3.15-6.77-7.18-11.3-5C128.89,185.87,127.88,192.22,130,196.31Z"
            />
            <path d="M42.54,196.31c2.12,4.09,9.27,10,13.52,13.42S60.24,216,61,216s.48-2.82,4.74-6.26,10.09-8.18,12.21-12.26,2.34-10.74-4.68-14.18c-4.51-2.22-8.31.64-10.7,3.4-.38-7.53,9.62-17.46,9.62-17.46a36.79,36.79,0,0,1-20.08.23s8.88,11.8,7.65,17.94c-2.47-3.15-6.77-7.18-11.29-5C41.42,185.87,40.41,192.22,42.54,196.31Z"
            />
            <path d="M130,263.45c2.13,4.09,9.27,10,13.52,13.41s4.18,6.27,4.92,6.27.47-2.82,4.73-6.27,10.09-8.17,12.22-12.25,2.34-10.74-4.69-14.18c-4.51-2.22-8.31.63-10.7,3.4-.38-7.53,9.62-17.46,9.62-17.46a36.8,36.8,0,0,1-20.08.23s8.89,11.8,7.66,17.94c-2.48-3.15-6.77-7.19-11.3-5C128.89,253,127.88,259.36,130,263.45Z"
            />
            <path d="M42.54,263.45c2.12,4.09,9.27,10,13.52,13.41s4.18,6.27,4.91,6.27.48-2.82,4.74-6.27,10.09-8.17,12.21-12.25,2.34-10.74-4.68-14.18c-4.51-2.22-8.31.63-10.7,3.4-.38-7.53,9.62-17.46,9.62-17.46a36.79,36.79,0,0,1-20.08.23s8.88,11.8,7.65,17.94c-2.47-3.15-6.77-7.19-11.29-5C41.42,253,40.41,259.36,42.54,263.45Z"
            />
            <path d="M121.66,158c-2.13-4.08-9.27-10-13.53-13.41s-4.17-6.27-4.91-6.27-.47,2.82-4.73,6.27-10.09,8.17-12.22,12.26S83.93,167.54,91,171c4.51,2.21,8.31-.64,10.7-3.4C102,175.11,92,185,92,185a36.76,36.76,0,0,1,20.07-.23s-8.88-11.8-7.65-17.94c2.48,3.15,6.77,7.19,11.3,5C122.78,168.4,123.79,162.05,121.66,158Z"
            />
            <path d="M22.53,38.66c-6.32,0-8-4.66-8-7.12h3.21c0,.64.31,3.9,4.78,3.9,3.95,0,4.78-3.43,4.78-6.3V26.47a7.8,7.8,0,0,1-5.15,1.73c-7,0-8.64-6.44-8.64-8.7,0-1.06,0-4.09,2.15-6.26A8.49,8.49,0,0,1,22,11c6.77,0,8.55,5.63,8.55,8.61v9.51C30.52,35.1,27.53,38.66,22.53,38.66ZM22,14.24a5.49,5.49,0,0,0-4,1.28,5.52,5.52,0,0,0-1.21,3.92c0,.12.15,5.53,5.43,5.53,4.86,0,5.14-5.21,5.15-5.36C27.31,19.05,27.09,14.24,22,14.24Z"
            />
            <path d="M186.53,38.62c-6.32,0-8-4.65-8-7.12h3.21c0,.65.31,3.9,4.78,3.9,3.95,0,4.78-3.42,4.78-6.29V26.43a7.8,7.8,0,0,1-5.15,1.73c-7.06,0-8.64-6.44-8.64-8.69,0-1.06,0-4.1,2.14-6.27A8.56,8.56,0,0,1,186,11c6.78,0,8.56,5.63,8.56,8.6v9.51C194.52,35.06,191.53,38.62,186.53,38.62ZM186,14.21a5.54,5.54,0,0,0-4,1.28,5.54,5.54,0,0,0-1.2,3.91c0,.13.15,5.53,5.43,5.53,4.86,0,5.14-5.21,5.15-5.35C191.3,19,191.09,14.21,186,14.21Z"
            />
            <path d="M185.51,287.27c6.32,0,8,4.65,8,7.11h-1.61l-1.6,0c0-.65-.31-3.9-4.78-3.9-3.95,0-4.78,3.42-4.78,6.29v2.67a7.8,7.8,0,0,1,5.15-1.73c7.06,0,8.64,6.43,8.64,8.69a8.68,8.68,0,0,1-2.14,6.27,8.57,8.57,0,0,1-6.31,2.22c-6.77,0-8.55-5.63-8.55-8.6V296.8C177.52,290.83,180.51,287.27,185.51,287.27Zm.57,24.41a4.49,4.49,0,0,0,5.23-5.19c0-.13-.15-5.53-5.43-5.53-4.86,0-5.14,5.21-5.15,5.35C180.74,306.87,181,311.68,186.08,311.68Z"
            />
            <path d="M21.51,287.27c6.32,0,8,4.65,8,7.11H27.89l-1.6,0c0-.65-.3-3.9-4.78-3.9-4,0-4.78,3.42-4.78,6.29v2.67a7.8,7.8,0,0,1,5.15-1.73c7.06,0,8.64,6.43,8.64,8.69a8.68,8.68,0,0,1-2.14,6.27,8.56,8.56,0,0,1-6.3,2.22c-6.78,0-8.56-5.63-8.56-8.6V296.8C13.52,290.83,16.51,287.27,21.51,287.27Zm.57,24.41a5.52,5.52,0,0,0,4-1.28,5.54,5.54,0,0,0,1.2-3.91c0-.13-.15-5.53-5.43-5.53-4.85,0-5.14,5.21-5.15,5.35C16.74,306.87,17,311.68,22.08,311.68Z"
            />
        </g>
    </g>
</svg>
