<svg xmlns="http://www.w3.org/2000/svg" viewBox="0 0 208 326">
    <defs>
        <style>
            .cls-1 {
                fill: #fff;
            }

            .cls-2 {
                fill: #6f7072;
            }

            .cls-3 {
                fill: #1d1d1b;
            }

            .cls-4 {
                fill: #1c1c1c;
            }
        </style>
    </defs>
    <title>9S-us-2c</title>
    <g id="Calque_2" data-name="Calque 2">
        <g id="FR_-_EN" data-name="FR - EN">
            <path class="cls-1" d="M14.83,325A13.84,13.84,0,0,1,1,311.18V14.82A13.84,13.84,0,0,1,14.83,1H193.17A13.84,13.84,0,0,1,207,14.82V311.18A13.84,13.84,0,0,1,193.17,325Z"
            />
            <path class="cls-2" d="M193.17,2A12.84,12.84,0,0,1,206,14.82V311.18A12.84,12.84,0,0,1,193.17,324H14.83A12.84,12.84,0,0,1,2,311.18V14.82A12.84,12.84,0,0,1,14.83,2H193.17m0-2H14.83A14.83,14.83,0,0,0,0,14.82V311.18A14.83,14.83,0,0,0,14.83,326H193.17A14.83,14.83,0,0,0,208,311.18V14.82A14.83,14.83,0,0,0,193.17,0Z"
            />
            <path class="cls-3" d="M21.28,74.52l1.27,0,1.22.07,1.25.12.4.07a23.66,23.66,0,0,1-3-6.28l-.07-.33,0-.48,0-.15,0,0,.09,0,.08.1a3.74,3.74,0,0,0,3.88,2.48C37.21,68,25,52.92,21.28,49.64,17.94,53,8.65,63.22,13,68.62a4.57,4.57,0,0,0,4.82,1.21l.73-.33.33-.24.28-.23.24-.27.19-.27.3-.52.19-.38.07-.1.1,0,0,0,0,.15,0,.48-.08.33a23.21,23.21,0,0,1-3,6.28l.4-.07,1.25-.12L20,74.47"
            />
            <path class="cls-3" d="M186.72,74.52l1.27,0,1.22.07,1.25.12.4.07a23.36,23.36,0,0,1-3-6.28l-.07-.33,0-.48,0-.15,0,0,.09,0,.07.1a3.76,3.76,0,0,0,3.89,2.48c10.82-2.11-1.37-17.15-5.11-20.43-3.34,3.4-12.63,13.58-8.3,19a4.57,4.57,0,0,0,4.82,1.21l.73-.33.33-.24.28-.23.24-.27.19-.27.3-.52.19-.38.07-.1.1,0v0l0,.15,0,.48-.07.33a23.21,23.21,0,0,1-3,6.28l.4-.07,1.25-.12,1.22-.07"
            />
            <path class="cls-3" d="M186.77,251.55l-1.27.06-1.22-.08-1.25-.12-.39-.07a23.88,23.88,0,0,1,3,6.29l.07.33,0,.48,0,.14,0,0-.09,0-.07-.1a3.76,3.76,0,0,0-3.88-2.48c-10.82,2.11,1.36,17.15,5.1,20.43,3.35-3.39,12.64-13.57,8.31-19a4.58,4.58,0,0,0-4.83-1.21l-.73.33-.32.24-.29.24-.23.26-.19.27-.31.52-.19.38-.06.1-.1,0,0,0,0-.14,0-.48.07-.33a23.43,23.43,0,0,1,3-6.29l-.39.07-1.25.12-1.22.08"
            />
            <path class="cls-3" d="M21.33,251.55l-1.27.06-1.22-.08-1.24-.12-.4-.07a23.57,23.57,0,0,1,3,6.29l.07.33,0,.48,0,.14,0,0-.09,0-.07-.1A3.76,3.76,0,0,0,16.23,256c-10.82,2.11,1.36,17.15,5.1,20.43,3.35-3.39,12.64-13.57,8.31-19a4.58,4.58,0,0,0-4.83-1.21l-.73.33-.32.24-.28.24-.24.26-.19.27-.31.52-.18.38-.07.1-.1,0,0,0,0-.14,0-.48.07-.33a23.73,23.73,0,0,1,3-6.29l-.39.07-1.25.12-1.22.08"
            />
            <path class="cls-4" d="M30.45,16.58C28.36,7.43,18,4.48,13.1,13.19c-5.64,9.09,3.37,23.48,13.64,15.86.44,2.67-.71,8.6-3.72,9.9-3.31,1.83-7.38-.41-8.09-4.12L12,35.55C13.45,40,17.4,44,22.31,42.68c8.28-1.86,9.52-16.62,8.75-23.18m-3.67.66c-1,10.18-11.62,10.19-12.61,0C14.68,9.33,26.24,8,27.39,19Z"
            />
            <path class="cls-4" d="M196,16.64c-2.08-9.14-12.47-12.1-17.35-3.38C173,22.35,182,36.74,192.24,29.12c.44,2.67-.71,8.59-3.72,9.89-3.31,1.83-7.38-.41-8.09-4.11l-2.91.72c1.43,4.47,5.38,8.47,10.29,7.13,8.28-1.86,9.52-16.62,8.76-23.18m-3.68.66c-1,10.18-11.62,10.19-12.6,0-.11-10.84,11.45-12.12,12.6-1.14Z"
            />
            <path class="cls-4" d="M177.67,307.66c2.09,9.15,12.47,12.1,17.35,3.39,5.64-9.09-3.37-23.48-13.64-15.87-.44-2.66.71-8.59,3.72-9.89,3.31-1.83,7.38.41,8.09,4.12l2.92-.72c-1.44-4.48-5.39-8.48-10.3-7.13-8.28,1.86-9.52,16.62-8.75,23.18m3.67-.67c1-10.17,11.62-10.18,12.61,0,.1,10.84-11.46,12.13-12.61,1.15Z"
            />
            <path class="cls-4" d="M12.17,307.59c2.08,9.15,12.47,12.1,17.35,3.39,5.63-9.09-3.37-23.48-13.64-15.86-.44-2.67.71-8.6,3.72-9.9,3.31-1.82,7.38.41,8.09,4.12l2.91-.72c-1.43-4.47-5.38-8.48-10.29-7.13-8.28,1.86-9.52,16.62-8.76,23.18m3.68-.66c1-10.18,11.62-10.19,12.6,0,.11,10.83-11.45,12.12-12.6,1.14Z"
            />
            <path class="cls-3" d="M67.49,69.43l2-.09,1.94.12,2,.19.64.12a38,38,0,0,1-4.83-10.09l-.11-.53,0-.77,0-.23,0,0,.14,0,.12.16c1.2,2.84,3.17,4,6.17,4,5-.41,7.38-4.11,6.79-9.08-.91-8.36-9.39-17.87-14.91-23.7C62.17,35,47.38,51.29,54.27,60A7.28,7.28,0,0,0,62,61.91l1.16-.53.52-.39.45-.38.37-.42.31-.43.48-.84.31-.61.1-.16.16,0,0,0,0,.23,0,.77-.12.53A37.35,37.35,0,0,1,60.9,69.77l.63-.12,2-.19,1.94-.12"
            />
            <path class="cls-3" d="M140.29,69.43l2-.09,1.95.12,2,.19.64.12a38,38,0,0,1-4.83-10.09l-.11-.53,0-.77,0-.23,0,0,.14,0,.12.16c1.2,2.84,3.17,4,6.18,4,5-.41,7.37-4.11,6.78-9.08-.91-8.36-9.38-17.87-14.91-23.7C135,35,120.18,51.29,127.07,60a7.28,7.28,0,0,0,7.68,1.95l1.16-.53.52-.39.45-.38.37-.42.31-.43.48-.84.31-.61.1-.16.16,0,0,0,0,.23,0,.77-.12.53a37.35,37.35,0,0,1-4.82,10.09l.63-.12,2-.19,1.94-.12"
            />
            <path class="cls-3" d="M140.29,146.08l2-.08,1.94.11,2,.2.63.11a38.19,38.19,0,0,1-4.82-10.08l-.12-.53,0-.77,0-.23,0,0,.14,0,.12.16c1.2,2.83,3.17,4,6.17,4,5-.41,7.38-4.12,6.78-9.09-.91-8.36-9.38-17.86-14.9-23.69-5.32,5.44-20.11,21.77-13.22,30.45a7.25,7.25,0,0,0,7.68,1.94l1.16-.53.52-.38.45-.38.37-.43.31-.43.48-.84.31-.6.1-.16.16,0,0,0,0,.23,0,.77-.12.53a37.44,37.44,0,0,1-4.82,10.08l.63-.11,2-.2,1.94-.11"
            />
            <path class="cls-3" d="M103.89,183.35l2-.08,1.94.12,2,.19.63.12a38.4,38.4,0,0,1-4.82-10.09l-.12-.53,0-.77,0-.23,0,0,.14,0,.12.16c1.2,2.84,3.17,4,6.17,4,5-.41,7.38-4.11,6.78-9.08-.91-8.37-9.38-17.87-14.9-23.7-5.32,5.45-20.11,21.78-13.22,30.45a7.28,7.28,0,0,0,7.68,2l1.16-.54.52-.38.45-.38.37-.43.31-.43.48-.84.31-.6.1-.16.16,0,0,0,0,.23,0,.77-.12.53A37.5,37.5,0,0,1,97.3,183.7l.63-.12,2-.19,1.94-.12"
            />
            <path class="cls-3" d="M67.49,146.08l2-.08,1.94.11,2,.2.63.11a38.19,38.19,0,0,1-4.82-10.08l-.12-.53,0-.77,0-.23,0,0,.15,0,.11.16c1.21,2.83,3.18,4,6.18,4,5-.41,7.38-4.12,6.78-9.09C81.48,121.5,73,112,67.49,106.17c-5.32,5.44-20.11,21.77-13.22,30.45A7.25,7.25,0,0,0,62,138.56l1.16-.53.52-.38.45-.38.37-.43.31-.43.48-.84.31-.6.1-.16.16,0,0,0,0,.23,0,.77-.12.53a37.44,37.44,0,0,1-4.82,10.08l.63-.11,2-.2,1.94-.11"
            />
            <path class="cls-3" d="M67.47,182.12l-2,.09-2-.12-2-.19-.64-.12a38,38,0,0,1,4.83,10.09l.11.53,0,.77,0,.23,0,0-.14,0-.12-.16c-1.2-2.84-3.17-4-6.18-4-5,.41-7.37,4.11-6.78,9.08.91,8.36,9.38,17.87,14.91,23.69,5.32-5.44,20.11-21.77,13.21-30.44a7.26,7.26,0,0,0-7.67-2l-1.17.53-.52.38-.44.39-.38.42-.3.43-.49.84-.3.61-.1.16-.16,0,0,0,0-.23,0-.77.11-.53a37.68,37.68,0,0,1,4.83-10.09l-.63.12-2,.19-2,.12"
            />
            <path class="cls-3" d="M140.27,182.12l-2,.09-1.94-.12-2-.19-.64-.12a38,38,0,0,1,4.83,10.09l.11.53,0,.77,0,.23,0,0-.14,0-.12-.16c-1.2-2.84-3.17-4-6.17-4-5,.41-7.38,4.11-6.79,9.08.91,8.36,9.38,17.87,14.91,23.69,5.32-5.44,20.11-21.77,13.22-30.44a7.28,7.28,0,0,0-7.68-2l-1.16.53-.52.38-.45.39-.38.42-.3.43-.49.84-.3.61-.1.16-.16,0,0,0,0-.23,0-.77.12-.53a37.35,37.35,0,0,1,4.82-10.09l-.63.12-2,.19-1.94.12"
            />
            <path class="cls-3" d="M140.27,255.44l-2,.08-1.95-.11-2-.2-.64-.11a37.91,37.91,0,0,1,4.83,10.08l.11.53,0,.77,0,.23,0,0-.14,0-.12-.16c-1.2-2.83-3.17-4-6.17-4-5,.41-7.38,4.12-6.79,9.09.91,8.36,9.38,17.86,14.91,23.69,5.32-5.44,20.11-21.77,13.22-30.45a7.25,7.25,0,0,0-7.68-1.94l-1.16.53-.52.38-.45.38-.37.43-.31.43-.49.84-.3.6-.1.16-.16,0,0,0,0-.23,0-.77.12-.53a37.44,37.44,0,0,1,4.82-10.08l-.63.11-2,.2-1.94.11"
            />
            <path class="cls-3" d="M67.47,255.44l-2,.08-2-.11-2-.2-.64-.11a37.91,37.91,0,0,1,4.83,10.08l.11.53,0,.77,0,.23,0,0-.14,0-.12-.16c-1.2-2.83-3.17-4-6.18-4-5,.41-7.37,4.12-6.78,9.09.91,8.36,9.38,17.86,14.91,23.69,5.32-5.44,20.11-21.77,13.22-30.45A7.26,7.26,0,0,0,73,263l-1.16.53-.52.38-.45.38-.38.43-.3.43-.49.84-.3.6-.1.16-.16,0,0,0,0-.23,0-.77.12-.53a37.44,37.44,0,0,1,4.82-10.08l-.63.11-2,.2-1.94.11"
            />
        </g>
    </g>
</svg>
