<svg xmlns="http://www.w3.org/2000/svg" viewBox="0 0 208 326">
    <defs>
        <style>
            .cls-1 {
                fill: #fff;
            }

            .cls-2 {
                fill: #6f7072;
            }

            .cls-3 {
                fill: #1e657f;
            }
        </style>
    </defs>
    <title>AC-fr-4C</title>
    <g id="Calque_2" data-name="Calque 2">
        <g id="FR_-_EN" data-name="FR - EN">
            <path class="cls-1" d="M14.83,325A13.84,13.84,0,0,1,1,311.18V14.82A13.84,13.84,0,0,1,14.83,1H193.17A13.84,13.84,0,0,1,207,14.82V311.18A13.84,13.84,0,0,1,193.17,325Z"
            />
            <path class="cls-2" d="M193.17,2A12.84,12.84,0,0,1,206,14.82V311.18A12.84,12.84,0,0,1,193.17,324H14.83A12.84,12.84,0,0,1,2,311.18V14.82A12.84,12.84,0,0,1,14.83,2H193.17m0-2H14.83A14.83,14.83,0,0,0,0,14.82V311.18A14.83,14.83,0,0,0,14.83,326H193.17A14.83,14.83,0,0,0,208,311.18V14.82A14.83,14.83,0,0,0,193.17,0Z"
            />
            <path class="cls-3" d="M104.69,138.4c5.59,0,8,4.11,8,8.43s-3.87,6.93-5.38,9.52a8,8,0,0,0-1.08,5h-3a8,8,0,0,0-1.07-5c-1.51-2.59-5.38-5.19-5.38-9.52S99.1,138.4,104.69,138.4Z"
            />
            <path class="cls-3" d="M127.49,163.17c0,5.63-4.08,8-8.38,8s-6.89-3.9-9.47-5.41a7.86,7.86,0,0,0-5-1.08v-3a7.86,7.86,0,0,0,5-1.08c2.58-1.52,5.16-5.41,9.47-5.41S127.49,157.55,127.49,163.17Z"
            />
            <path class="cls-3" d="M80.47,163.18c0-5.63,4.08-8,8.38-8s6.89,3.89,9.47,5.41a7.86,7.86,0,0,0,5,1.08v3a7.86,7.86,0,0,0-5,1.08c-2.58,1.51-5.16,5.41-9.47,5.41S80.47,168.8,80.47,163.18Z"
            />
            <path class="cls-3" d="M106.35,159.51v12.12c0,5.7,8.06,11.22,8.06,11.22H95s8.06-5.52,8.06-11.22V159.51Z" />
            <path class="cls-3" d="M118.14,212c1.56.64-.06,1.54,0,0M96.6,212c0,2.37,1.81.4,0,0m3.06-1.51c1,0,2.46,1.21.82,1.63-1.07.27-2.31-1.33-.82-1.63m7.77,1.63c-3.14-1,.73-3.49,0,0M96.36,209.6c.6,1.25,1,3.44,2.71,3.43-.67-.94-1.23-1.27-1.41-2.48.36.28,2.13,1.94,1.94,2.36-.9,2.08-3.31,0-4.18-.8-2.25-2-2.49-2.06.94-2.51m-4.09-.17c.33.67-.15.86,0,0m20.69-.77a.82.82,0,0,1-.59.47.6.6,0,0,1,.59-.47m-1.18.11a1.34,1.34,0,0,0-.94-.11,1.4,1.4,0,0,1,.47.94h-.59c.46,1.62.42,2.81-1,3.94-.59.46-1.51,1.13-1.81.32.51-.78,2.06-8.15,3.91-5.09m-20,.36c-.29,2-3.6.15-3.53-1.18,1.17.52,2.29.63,3.53,1.18M109.55,208a2.32,2.32,0,0,1-1.42,1.42c0-.73.5-1.9,1.42-1.42m-17.31-.24c.65.87-.87,1.11,0,0M99,209.13c0,.38-5.7.56-5.53-.71,1.36.34.86-1,2.37-.63a13.47,13.47,0,0,1,2,.39c.56.58.41.94,1.19.95M123.67,208a4,4,0,0,0,1.65-.36,2.27,2.27,0,0,0-1.65.36m-10.83-.48.12.12c-.15.63-1.1.84-.12-.12M102,206.76a9.56,9.56,0,0,0,1.42,1.78c.36-.72-.52-2.26-1.42-1.78m1.3,3.2c-1.09-.28-3.45-2.65-2.13-3.59,2.14-1.5,3.16,1.31,3.46,2.74.16.74,3.27,4.67,1.73,4.84-.87.06-3.89-3.2-3.06-4m18.36-4.62c.16,0,.25.65.59,0-.25-.13-.38,0-.59,0m-37-2a3.48,3.48,0,0,0,.12,1.89c-.76-.47-2.27-2.58-.12-1.89m32.72-.35c.74,3.36-4.64,1.19-4.59,3.9-1.83-2.37,2.16-4.6,1.65-2.37,1-.44,1.93-1.09,2.94-1.53m-38.37-1.43c1.33,1,3,1.47,4.11,2.75.19.22,1.25,1.34,0,1.16-.42.11-.84-.88-1-1-1.14-.65-2.89-1.62-3.17-2.92m36.25,1.66a1.07,1.07,0,0,1-.82-1.53c.76-1.29,1.55.56.82,1.53M109,200.73l-.12,1.18a.66.66,0,0,1,.12-1.18m-1.06-.24c0,.57,0,1.19,0,1.77a1.22,1.22,0,0,1,0-1.77m15.54-.71a2.1,2.1,0,0,0-.24.83.85.85,0,0,0,.59-.71s-.36-.23-.35-.12m-45.32,0a1.89,1.89,0,0,1,.82,1.54,1.31,1.31,0,0,1-.82-1.54m47.08-1.18-.24.94c.42-.38.26-1.11.24-.94m1.89-.71c-.61,1.8-2.94,2.9-3.3,4.37a13.58,13.58,0,0,1,3.18-.47c-.47-.36-1.11-.24-1.77-.24.62-.9,1.72-1.07,2.47-1.65h-.47a2.32,2.32,0,0,0,.71-1.07l-.59.12c-.06-2.72,0-.31-.23-1.06m15.18-1.19c-.15,1.6-.93,4.43-3.13,4.18-1.92-.21-2.89,3.33-4.79,1.1-.87-.21-2.71.66-3.09-.19-.6-1.35,4.67-1.26,5.24-1.06-1-1.38,1.36-1.29,2.12-.95.17-1.6,2.39-2.27,3.65-3.08m-60.15-1.06c.23.69.85,1.37.59,2.13a5.88,5.88,0,0,0-1.77-.12c1,1.74,2.73.27,3.54,2.25-1.13,0-1.57-.63-2.71-.59.29.35.6.27,1.06.35-.37.57-.68.43-.83,1,1.2-.06,3.51-.47,4.24.83a2.94,2.94,0,0,0-1.65.47,8.93,8.93,0,0,0,2-.2,29.22,29.22,0,0,0,3,1.86,3.26,3.26,0,0,1-.83-1.9c-1.12,0-1,0-1.38-1.15-.7-2.13-1.7-2.69-.74,0-2.07-.3-2.8-3.87-4.47-4.85m40.14,8.16c.19-.92-1.05.88.23-1.06-1.06.51-2.32.44-3.29,1.06a2.2,2.2,0,0,0,.7-1.54c-1.17.46-1.88,1.87-.47,2.25-.2,1.13-1.43,1.11-2.31,1.42-1.07.38-2.38,1.88-3.34,2,1-1.88,2-1.78,3.52-3.24.38-.35,2-4.15.66-3.47-.72.37-2.21-.09-1.88-1.22.68-2,2.09.4,2.88.23.71.46,1.12,1,2,.63,1.59-.63.94-3.32,2.35-3.87.45-.18,1,.61,1.59.48,1.18-.25,1.37-2.36,2.41-2.49,1-.35.89,1.05,1.65,1.41,1.07.51,2-1.16,2.76.17.37.67,0,1.09-.41,1.63-1.65,1.22-1.37,1.21-1.58,3.11-.37,1-3,3.7-4.07,3.74-1.28-.56-1.29-1-2.52-.17-.52.9-1.51,2.58-2.67,1.46-.73-2-.21-2.4,1.78-2.55m18.24-6.86a.86.86,0,0,1-.11-.47c-.71.66-1,1.66-2.12,2a5.25,5.25,0,0,1,.23-1.42c-.59.95-.71,2.05-2,2.25a1.61,1.61,0,0,1,.36-1.42c-1.11,1.12-1.44,2.68-2,.47-.43.22-1.39,3.36-2.82,2.22-1.08-.85,1.15-3.59,2-4,1.75.12,2.11-1.12,3.41-1.74,1-.49,1.88.18,3.05-.23.81-.28,2.26-.51,2.25.71s-1.48,1.19-2.24,1.66m-74.39-3.43a2.07,2.07,0,0,0,.59,1.77,23.7,23.7,0,0,0-3.06-1.54c.66,1,1.73,1.54,2.47,2.37a3.42,3.42,0,0,1-.7.12v.24c2.43.09,4.17,1.65,6.59,2.24a12.42,12.42,0,0,0-3.06-3.31A21,21,0,0,0,70,197.29c-2.21-.57-2.48-2.69-3.89-3.78m24.6,11.36c-1.8-.57-4.73,0-5.18-2.49-3.3,1.1-3.43-.44-5.94-2.06a10.25,10.25,0,0,1-.51-1.25c.26-1.35-1.6-2-1.31-3s.27-.64,1.29-.7c1.39-.09,1.45-.72,2-2,1.54-1,2.35,1,2.66,2.19.92.88,2.3.23,3.13,1s.22,1.82,1,2.59c1.39,1.43,1.59-.06,1.49,2.11,0,.71.64.84,1.06,1.37a20.37,20.37,0,0,1,.39,2.12M139,192.56c0,2.5-3.26,1.05,0,0m2.36-1.89c.06,1.19-.76.93,0,0m-7.54,2.6c-1.25-.19-1.92-2.48-.35-2.47,2.59,1,0,1,.35,2.47m-61.56-2.72c-.64.4-2.22.1-1.88-1.06.1-1,2.19-.54,1.88,1.06m68.63-2.25c0,.62-.11,1-.59,1.07a1,1,0,0,1,.59-1.07m-5.44-.36c1.32,1,1,3.32-1,2.6-1.47-.55.09-2.33,1-2.6m12.15-.55c1.86.12.69,1.66-.2,2.23-2,1.32-1-1.79.2-2.23m-5.07,0a2.33,2.33,0,0,1-.58,3.08c.09-.91-.3-2.52.58-3.08m-70.62-1.3c1.15,4.47-3.62,1.09,0,0m72.15-.71a1.39,1.39,0,0,1-.23.71c-.44-.11-.66-.1-.59-.47l.82-.24m-80-.59c.79.42,1.07,2.05,1.18,2.84-.74-.13-1.2-2.12-1.18-2.84m-6.24-2.07c1.34.11,2.3,1.56.59,1.95-1.53.15-2.46-1.45-.59-1.95m5.54.65c-.92-1,.59-1.49,0,0m-6.36-2.84c-.23.79.21.77.82,1.06-1.08,3.11-3-1.18-.82-1.06m2.94-3.79A19.45,19.45,0,0,1,62,179c-1.08.3-1.92-1.52-2.12-2.25M143,176c.25,1.58.43,3.56-.36,5a.53.53,0,0,0-.47-.59c0,.26,0,2.68.63,2.31.47-.27,1.58-2.87,1.73-3.49a6.17,6.17,0,0,0-.95,1.06c-.35-1.41.37-2.35.71-3.67-.56.64-.89.27-.94-.59H143m6.7-.12c-.15,1-.31,2-.46,3,.55-.64.87-2.45.46-3m-.23-2.6c0,.45.09,2.24-.94,1.66a2.66,2.66,0,0,1,.94-1.66m-91.58-1.18c1.31,1.13,1.22,1.57.59,3.07-.87-.71-1.5-2.19-.59-3.07m90.87,9.11c.38-.54.89-.61,1.53-.83-1.79-.59,1.1-2.45,2-2.72-1.53-.38,1.15-3,1.65-3.67-.87.43-1.25,1.43-2.12,1.89a5.93,5.93,0,0,1,.36-1.77c-.87.92-1.18,2.61-1.82,3.81a30.18,30.18,0,0,1-2.89,4.12c.71.84-.47,1.35-1.25,1.61-2.59.88-.39-1.06.26-1.92s1.6-1.92,1.6-2.89c-.47-.82-.95-1.71-.45-2.58.38-.65,1-.6,1.72-.76.87-.65.53-.74.75-1.93.49-2.7,2.14-.93,3.9-1.25,2.08-.38,2.42.8.86,2.38-.28,1.05.58,1.95.31,2.94s-1.87.64-2.52.92c-2.41,1.87-.18,2.71-3.89,2.65M147.68,171a.58.58,0,0,1-.23.83,1.53,1.53,0,0,1,.23-.83m-88-.47c.2,1.63.8,3.89,2.71,3.79-.18.9-2.8,2.36-3,.86-.07-.59.37-1.1.26-1.69-.43-1.46-1.43-1.69,0-3m88.75-.24c.35.29.38.6,0,.83a.7.7,0,0,1,0-.83m-87.81,1.42a3.31,3.31,0,0,1-.12-1.89,1,1,0,0,1,.12,1.89m83.1-2.92c1.43-.16,2.19,1.62.71,1.62-1,.1-1.62-1.19-.71-1.62m4-.39a4.4,4.4,0,0,1,.71,1.77,1.59,1.59,0,0,1-.71-1.77m-87.81-.95c3.5,1.18-.73,2.6,0,0m87.93-1.06-.12.47a1.24,1.24,0,0,0,1.06-.12,7.05,7.05,0,0,1-.11,1.78c-.65-.48-1.64-1.64-.83-2.13m-89,0a5.78,5.78,0,0,1,.24,1.65c-.82-.09-.51-1.25-.24-1.65m93.11-.28c.92.19,2.33,2.09.71,2.35-1.24.19-1.38-1.75-.71-2.35m-7.41,1.93c-2.19,1.19-1.81-1.73-.91-1.82,1.46-.14.42.89.91,1.82m-81.22.24c-3.45,1.09-1-5.45,0,0m-.12-2.49c-2.59-.43,2.51-3.1,0,0m-3.89-2.13c.91.5.82,1.75.95,2.61a2.2,2.2,0,0,1-.95-2.61m-2.23,8.41c-.92-.57-.48-1.92-.12-2.84-1.52,1.6-1.14-1.24-.82-2.49-.23.24-.33.11-.59.47-.91-1.29-1.92-3-.94.24a1.32,1.32,0,0,1-1.18-.12,6.47,6.47,0,0,1,1.88,3.2,5.73,5.73,0,0,0-1.64-.36,1.86,1.86,0,0,0,1.88.83,24,24,0,0,0,1.53,3.43,1.81,1.81,0,0,1-2-.35c-.37-1.74-1.47-1.44-2-2.84-.12-.34.1-.82.15-1.11.17-1.1-.69-1.25-1.1-2.1-.58-1.22,1.08-2.07.76-3.45-.89-3.91,2.3.49,3.4.86,1.05,1,.42,1.18.94,2.54.24.61,1.18.8,1.35,1.37.22.84-1,2.17-1.47,2.72m2.12-10.18c.21.38.44.52.23.83-.5-.15-.39-.48-.59-.83h.36m89.34,3.67c-.79-.46-.72-1-.71-2-.6-1.09-1-.89-.72-2.1.9-3.82,1.4,3.58,1.43,4.11m-88.4-3.67c-.82-5.38,2.41-2.3,0,0m87.69-5.21a13.76,13.76,0,0,1,.12,2.13c-.82-.63-1-1.56-.12-2.13m-88.28-.24a3.67,3.67,0,0,1,0,2.49c-1-.7-.48-1.87,0-2.49m84.87-.23a5.25,5.25,0,0,1-.59,2c-.86-.27-1.11-.81-1.65-.24.5.18,1.74,1.13,2.3.84s.67-2.47-.06-2.61m-83.11,1.42a4.41,4.41,0,0,1-1.64-2.84,3.75,3.75,0,0,1,1.64,2.84M56,153.15c-.13.7-.13,2.91-1.58,1.36-1-1.09.65-1.44,1.58-1.36m97.93.95c-.78.06-2.58,1-2-.83,1.75-2.36,1.49-.17,2,.83m-6.82-2a.32.32,0,0,1-.12.35c-.29-.26-.3-.4.12-.35M60,150.67a2.34,2.34,0,0,1,.12,2.48,1.64,1.64,0,0,1-.12-2.48M56,150a1.5,1.5,0,0,0-.24.71c1.29-.09-.56,2.25-1.45,1.72-1.08-.65.5-3.68,1.69-2.43m89.34,10.53c.43,1.24,1.18,2.33,1.65,3.55-2.2-.28-1.94-2.43-3.83-2.78s-1.22-1.95-2.06-3.26c-.39-.6-1.4-.76-1.26-1.65,1.14-2.31,2.17-.76,3.73.23.21-.85,1.09-3.48.24-3.9-.11.58-.19,1.19-.24,1.77-.88-1-.56-2.66-1.06-3.79a18.12,18.12,0,0,0,.48,4.86c-1.46-.84-4-2.45-2.64-4.33,1.39-1.05,1.13-1.54,1.37-3s2.29-.29,2.49.58-.25,1.59.6,2.19a1.17,1.17,0,0,1,.39,1.72c-.76,1.34.75,1.53,1.18,2.6.36.9-.85,1.55-.76,2.48.56.91,1.31,2.47-.28,2.73m-84.16-12a.93.93,0,0,1-.59-1.19c.5.19.6.58.59,1.19m5.29-2.37c.51,1.06,1,.65,1.77.35a3.84,3.84,0,0,1-.24,1.9c.14.62.56,1.11.54,1.77,0,.39-.67.58-.86,1s0,1.23,0,1.76c-.82,1.44-1.69.38-2.05,2.37a4.84,4.84,0,0,1-2.82.83c0-.59.29-.62.48-1.15,1.45-1.31.53-.14.85-1.34.19-.71.86-1,1.26-1.57.2-1.6,1.21-2.89,2-4.22-.81.3-1.15,1.1-1.89,1.65-.86-1-.54,1.93-1.29,2.49q-.14-1-.24-2a1.33,1.33,0,0,0,.24,2.13c-.63,1.37-1.48,3.42-2.48,4.37-.49-1.47,2.48-3.89.71-4.37v1.3c-1.2-.78-.7-1.21-.47-2.08,1-.65.63-1.42,1-2.42.52-.7,1.22-.49,2-.81s.84-1.41,1.41-1.91m78.63,1.89c-2.2-.5,1.38-3.84,0,0m-.94-3.43a.83.83,0,0,1-.59-.83c.52.08.75.33.59.83m-80.39-.83a.85.85,0,0,1-.59.71c-.16-.47.22-.46.59-.71M142,142.14v.24h-.24c0-.14.09-.21.24-.24m.46-.71a.67.67,0,0,1-.35.6c.09-.44,0-.67.35-.6M67.41,143a1.37,1.37,0,0,1-1.5-1.6c.47-2.32,2.48-.65,1.5,1.6m74.39-2.84c2.23-.5.38,2.34,0,0m-72.86,1.42c-1.24-.22-1-2.09.17-2.29,2.69-.47.18,1.78-.17,2.29m71.56-2.72a2.16,2.16,0,0,1,.12,1.78c-.76-.37-.55-1.09-.12-1.78m-6.23-.59c.63,1.39.49,2.58,1.72,3.72.77.72,1.08,2.1,2.28,2.2,0-1.07-.45-2.42-1.65-2.45-1.19-1-1.51-1.2-.71-2.76a14,14,0,0,0-1.64-.71m4.94-.12a.44.44,0,0,1-.24.59.65.65,0,0,1,.24-.59m5.77-1.89c.37,1.43,1.21,3,.94,4.49a6.52,6.52,0,0,0-1.53-1.18c.63,1.06,1.64,1.94,2.23,3.08.52.09,1.44-2.78,1.65-3.2A1.64,1.64,0,0,0,147,140c-.06-1,1.24-2.85-.24-3.19a7.14,7.14,0,0,0-.23,1.66c-.61-.67-1-1.8-1.53-2.25m-75.34-1.78c2.35.46-.27,1.63,0,0m65.33-.83c.13.57.07,1.06.47,1.3,0-.67,0-1.06-.47-1.3m-1.88-1.3a3.86,3.86,0,0,0,.59,1.42,1.31,1.31,0,0,0-.59-1.42m9.53,1.9c.27-1.28.6-1.46,1.6-1.31.58.09.85,1.05,1.06,1.54.77.81,1.56.59,2.52.84.43.32.43.56.77.94-.27,1.77,1.29,1.08,1.63,2.36.15.57-.58,1.2-.79,1.66-.18,1,1.07,1.8.53,2.76-.66,1.17-1.26,1.39-.81,2.8-.35,1.05-1.8,1.69-1.21,3a9.39,9.39,0,0,0,2-2.6c.08-1.42,1.08-2.52,1-3.85-.09-.89-.76-1.61-.24-2.42a1.9,1.9,0,0,0,.11-2.1c-1-1.43-1.43-2.54-2.86-3.45-1.8,0-2.21-1.8-4-2.19s-2.05.72-1.31,2.06m-14.12-2.73c.25.16,0,.25.47.24a.58.58,0,0,0-.47-.24m2.35-.23a5.08,5.08,0,0,1,.35,1.06c-.65.16-1.36-.47-2-.59a40.27,40.27,0,0,0,3.77,2.49c-.62-1-1.47-1.94-2.12-3m-66.5,2.48a4.6,4.6,0,0,0-.71-.47,8.27,8.27,0,0,1-.59,3.67c-.51-.59-.44-2.75-1.24-2.61-.22,0,.36,4.4.18,5-.44-.49-.6-1.34-1.41-.94.91,1.47.89,3,1.06,4.61a5.79,5.79,0,0,0,.82-2.24c.55-.85,1.7-1.28,2.39-2,2.05-2.26-1.67.71-2,1,.27-2.18,2.39-3.25,3.41-5-.79-.07-1.33.88-1.88,1.3.64-2,1.8-7.38,0-2.25m7.77-.35c2-.22,3.74.68,5.64.94a4.38,4.38,0,0,0-1.05-.82c1.41-.64,2.12.47,3.41.47-.25-.34-.46-.93-.71-1.19a9.78,9.78,0,0,1,2.47.12c-.42-.55-.31-.95.36-1.18-2.06-.48-1.47.29-3.42.73-.94.24-1.38-.47-2.59.36-.47.1-.74-.44-1.18-.38a6.07,6.07,0,0,1-3.29.41c-.52.42-.73.69-1.41.66a10.43,10.43,0,0,1,2.1-1.67c.6-.28,1.25,0,1.78-.27,1.39-.73,1.15-2.51,2.94-1.49,1,.58,1,.52,2.2,0,1.78-.71,1.23.14,2.81.35.4.06,3-.45,2.23,1-.44.84-1.19,1-1.85,1.74-.47.5-.74,1.72-1.39,2-1,.43-2-.41-2.94.33s-1.88-.65-3-.75c-1.29-.12-2.73.46-3.11-1.39m-7.18-4.11c.7,0,1.1.56,1.45,1.15,0,1.25,1.31,1.9,1.34,3s-.94,1.59-.79,2.81c.26,2.22-1.81,4.11-3.53,5.13-.84,1.29-.62,1.91-2.12,2.71-.78,0-.86-1.55-1.1-2.06-.35-.75-1.11-1.33-1.14-2.2,0-.69.68-1.1.75-1.78-1-3,0-1.35,1.34-3.55.87-1.43-.22-1.82,1.86-2.61,1.55-.58.58-2,1.94-2.56m69.68,7.78c-.73-.14-1.92-1-2.94-1.26-1.19.44-2.07.33-2.67-.74s-1.36-.23-2.25-.91a10,10,0,0,1-1.83-3.48c.5-1.56,3-.62,4.16-1.07.16,1,1.42.76,2.23,1-.69-2.63-3.14-1-5.06-1.27-3,.62-1.5,2-.83,3.72.78,2,2.14,1.92,3.78,3.12a2.89,2.89,0,0,0,2.7.16c.73.39,1.83,1.32,2.71.78m3.18-8.76c-.36.74-1,.59-1.65.19a.46.46,0,0,1-.16-.58c.32-.64,1.39.3,1.81.39m-61.45-.48c0-2.34,2.14-.1,0,0m-4.35-2a5.94,5.94,0,0,1-.24,2.84c-.6-.76-.57-2.37.24-2.84m7.53-1.18a1.17,1.17,0,0,1-.82,1.06c-.11-.52.29-.87.82-1.06m56.73-.39c.93.81,1.09,3.44-.78,2.85-1.09-.35-.49-2.81.78-2.85m-60.85-1.62c-.36,1.53-.64,3.37-2,4.38a7.53,7.53,0,0,1,2-4.38m40-.48c-.7,0-1.06-.29-1.29.36,1.39.21,3.74,1.21,2.06-1.11-.67-.24-.68.17-.77.75m-28,.83c1,.57,1.76.37,2.82.66,1.29.36,2.47,1,3.77,1.35-.67-1.68,2.17.19,2.71.48-.24-1.61,1.7-1.07,2.47-1.42-1.52-.09-3.11.32-4.59-.24.26-.48.83-.68,1.41-1-1.36,0-2.6,1.26-3.88.6a1.29,1.29,0,0,1,.82-1c-.83.35-3.75,1.38-4.39.24-1-1.78,4.67-1.45,4.69-1.46,1-.37.84-.42,1.81,0s2.57-.59,3.26,0c.78,1.33.68,1.34,2.16,1.74.3.26.86.67.81,1.15-.12,1.19-1.41,1-2.21,1.51-.55.35-1,1.08-1.66,1.19s-1.21-.51-1.88-.41c-1.86.28-1.06,1.48-2.71.11-1.11-.92-2.24-.54-3.4-1.59-.66-.6-1.74-1.3-2-2m25.66-2.25a5.64,5.64,0,0,0,.12,1.42c-.93-.43-1.25.22-1.06,1.19.08-.09,3.75-2.27.94-2.61m9.06-.23v.23h.94a1.14,1.14,0,0,0-.94-.23m-11.53.11c-1.57-1.21-1.34.93-.59,1.07a.86.86,0,0,0,.11-.47,6.82,6.82,0,0,0,2.24.59c-.34-.86-1.62-3.08-1.76-1.19m14-1.89a1.47,1.47,0,0,0,.47,1c.33-.6-.14-.59-.47-1m-1.41,0c-.55,0-.09.27-1.18.12.57.55,1.77.83,1.42,1.77,1.23-.07,2-.19,1.41,1a5.18,5.18,0,0,0,2,0c-1-1.32-2.37-1.82-3.65-2.84m-39.55-.59c-.16,1.15,0,2.47-1.18,3.08,0-1.13-2.19-2.11-1-3.39.68-.74,1.56,0,2.2.31m30.49.12a4.38,4.38,0,0,0,.94,1.78c1,.36,2,1.46,2.88,1.7.73.19,2.76.32,1.25,1.54-1,.79-1.7.5-2.84.63-.89.83-.84,1.16-2,.47-1.75-1.07-.59.25-2.4,0-1.69-.56-1.38-1.25-3.1-.72s-1.5-.73-1.39-1.88c-.47-1.09-1.27-.71-2.22-1.28-1.59-1,1.42-2.76,1.88-3.69.5.17,1.83,1,2.33,1,.22,0,.51-1,1-.9.78.28.83,1.28,1.77,1.71.72.2,1.22-.25,1.89-.4m3.06,0c.5-1.29,2.3,1.63,2.07,2.51-.29,1.09-3.87-2.74-4.29-3.07-.6-.48-3.06.51-2.68-.73.72-2.37,4.27.78,4.9,1.29M99.07,116v.24a1.23,1.23,0,0,0,1.06,0,1.45,1.45,0,0,0-1.06-.24m28.6,6.51h-.58v.24c2.19,0,0-1.84.65-2.72.39-1.4,2.44,2.66,2.5,3.19-.86,2.22-.21,1.38-2.68,1.71-.52-.18-.85-.18-1.21-.65-1-1.33-1.93.21-3.19-.59-.88-1.64-1.9-.61-2.83-1.89-.43-1.69-.44-2.57-1.7-3.94-.45-.5-1.07-.93-.37-1.55s1.9.08,2.47.23c1.76-.81,2.19-.44,3.65.59.69.32,1.48.1,2,.73a9.16,9.16,0,0,1,1.33,4.65M97,114.57c-1.34,2.41-3.9,3.71,1.18,3-1.21,0-1.36-.18-1.18-1.07a1.52,1.52,0,0,1-1.29.36c.59-.59,1.54-1.78,1.29-2.25m1.77-.95a6.22,6.22,0,0,0-1,2.25,1.74,1.74,0,0,0,.83-.24c-.22-.73.52-1.7.12-2m-18,9.94a4.85,4.85,0,0,0,1.53-1.06c.78-.39,1.47.08,2.24-.59a9.89,9.89,0,0,1-1.54.12c.48-2.25,2.25-1.35,3.53-2.37-2.94.19-.14-1.51,1-1.78-1.13-.38-.67-.54-.36-1.65-.42.57-1.34,1.63-1.17,0-.38.55-.74,3.19-1.65,3.19s.31-4.25.47-4.73c1.49.93,1.88-.23,3.18-.88,1.09-.55,2.16.06,2,1.27-.32,1.88.18,3.75-1.88,4.83-.52,1.12-.59,1.78-1.87,2.24-.77.28-1,.1-1.37.82-.41.91-1.16,1-2,1.19-1.71.44-2.07,1.45-2.54-.32-.73-2.74,2.9-3,.58-.28M102,113.27a.91.91,0,0,0-.23.47c.25-.07.35-.24.23-.47m8.6,2.25c.36-.24,1-1.88,1.74-1.25.38.34-.46,2,.85,1,.08,2.14-4.57.29-4.41-1.54a1.43,1.43,0,0,1,2-1.06c1,.63-.51,2-.23,2.84m-2.83-3.08c.44.7,1.87,3.49,1.43,4.14s-1.8-.25-2.31-.19c-.94.12-1.52,1.28-2.05,1.94-1.38,1.73-.41,2.54,1.5,3,.4.58-.17,1.16.09,1.87.65,1.31,1.47,1.31,2.63,1s.81-.2,1.68.47,1.65.46,2.8.12c.8.09,1.5,1.06,2.41.57.63-.33.94-.8,1.59-1,1.9.28,2.91-1.9,4.46-1.26.55.23.54,1.17,1.19,1.48,2.11.59,2-1,3.42,1.24-1.85-.49-2.91.26-4.67.53-1.36.22-3.25-.14-4.28.77,1.36-.41,4.06-.09,2.12,1.78a11.73,11.73,0,0,1,2.87-1.95c2-1.07,3.18,0,5.13-.65.75.58,1.88.66,2.54,1.22.66,1.23,1,2.89,2.53,2.8.73.51,1.46,1.16,2.23,1.66,1.31.24,1.44-.29,1.82,1.12.24.9,0,2,.16,2.66.59,1,1.18,1.47.73,2.61-.91-.58-1.37-2.07-2.47-2.13.64.94,1.24,1.92,1.95,2.81s.72,2.27,1.81,1.8a1,1,0,0,0,.83,1.19,6.28,6.28,0,0,0-.59,1.54,1.65,1.65,0,0,1,1.41.47,2.47,2.47,0,0,1,1.06-3c-.24.71.37,1.62-.47,1.78.12.91.19.51.35.94a3,3,0,0,0,.83-.47c-.19,1-.54,2-1.53.83.6,3,1.63-.35,2.35-.12-.38,1.58-.47,2.35-1.88,3.46a3,3,0,0,0-.41,2.1c-.26.61-.92,1-1.28,1.55-1.25,2.06.49,1.88.63,3.3s-2.17,1.74-.46,3.32c1.1,1,.82,2.3,1.75,3.55.66.56,1.7.57,2.4,1.07.27,1.39,1.43,1.68,2.54,2.36a4.88,4.88,0,0,1,.29,2.69c-.06,1.64.08,6.17-.87,7a17.79,17.79,0,0,1-.35-3c0-1.31.76-2.2.4-3.53-.42-1.52-1.67-2.22-2.29-3.52-1.52,1.18-2.27,5.21-.08,6.29.35.18.95,0,1.22.3.52.49.52,3,.51,3.59-1.34-.95-2.53-2.64-4-.56-.76,1.09.13,2.07-.94,3.06-.11.7.38,1.84.09,2.35-.53.94-2,1.79-1.15,3,.67.94,1.45,1,1.85,2.2.06.67-.74,1.63-.94,2.25a20.52,20.52,0,0,0,2.24-2.72c-.59-.21-2.71-1.67-2.87-2.37-.12-.53.16-.84.39-1.28,1-.82,1.36-.87,1-2.09a9.7,9.7,0,0,1,.76-4.21c.66-1.06,1.45-.89,2.18,0,.39,1.23,1.72,1.68,2,2.83-.39,1.55-1.09,2.22.14,3.43a2.09,2.09,0,0,1-1.65,2c0-.13.13-.92.12-.82-1.68,1.45.23,2.23-1.55,3.34-3,1.85-3.72,5.65-6.34,7.66a8.18,8.18,0,0,1,.18-3.55,6.25,6.25,0,0,1-.42-2.84c-1.55,1-5.73,4.53-4.2,6.74,2.58,3.73-4.3,1-5.57,1.63-.51.42-1.34,2.23-2.06,2s-1-.59-1.7-.36c-1,.81-1.6,3.93-2.83,3.84-.92-.07-1-.6-.7-1.45-2.08.11-4.88-.1-5.77,2.3s-3.27,7.5-6.59,6.1c1.3-1.87,4.74-3.37,3.08-6-1.1-1.74-3.39-1.22-5.11-1.17a26.37,26.37,0,0,1-6.19-.71c-6.59-1.33-4.83,5.89.45,6.46-1.06-1.14-2.82-1.66-3.9-3.08-.57-1-.63-2.75.84-2.75,1.63,0,4.1-.5,5.42.85.58.58.13,1.53.93,1.78.09-1.79.06-2.68,1.18-.82.18-1.57.88-1.15,1.3.23.5,0,.3-1,.82-1.42a6.16,6.16,0,0,0,.23,1.66c.67-.42.1-1.27.71-1.66.22,1-.37,2.25.12,2.72a14.77,14.77,0,0,0-1.41,2.13,10.48,10.48,0,0,1,2.82-1.89c.48,1.35-2,3.47-3.18,3.57-.43,0-1.5-.92-1.91-1.11a6.76,6.76,0,0,1-3.62-3c2.08.36,4.27.9,6.36.35-1.94-.31-8.48-2.59-9.77-.59,1.51,0,1.11-.51,2,.73.65,1,1.44.74,2.14,1.5,1.08,1.17-.36,1.45-.93,2.39a.81.81,0,0,1,.82.71c-1.85-.45-4.11-.31-5.82-1.1-1.35-.63-1.66-1.44-2.89-1.27.69-.69.16-2.83-.23-3.72-.83-1.88-.17-2.2-2-3.62-.81-1.41-2-3.35-4-3-.91-.59-1.18-1.71-2.2-2.29-2.14-1.21-2.44.93-3.8,1.76-.94-.08-2.13.07-2.42,1.17-.35,1.37,1.42,1.6,1.36,2.72a12.3,12.3,0,0,1-3.34-2.13c-.66-1.61-2.1-2.32-2.7-4-.38-1,1.51-2.16,1.69-3.42.27-1.88-1.15-3.32-2-4.8A7.12,7.12,0,0,1,70.69,186c-1,1.14-.79,3.3-2.22,1.94a18.89,18.89,0,0,0,1.37,3.4c.51.88,1.45,1.45,1.92,2.29.36.65-.31.92-.94.93a.94.94,0,0,0-.59-.59c-.2,1.51.92,1.7,2.18,1.67,1,0,1.15.39,1.72,1.22,1,1.43,1,2.18,2.69,2.79a1.43,1.43,0,0,0-.47.83,17.4,17.4,0,0,1-3.06-2.25c.16,1.21,1.49,1.7.83,2.72,1.76-.51,3.59.85,4.71,2.13,2-.72-1.61.67-1.3.6h1.18c-1.35.75.36,1.69.35,3.07.52-.41,3.18-1.83,2.62.12-.6,2.11-6.17-.39-5.09-3.07-.79.24-1.49,0-2.12.35,1,0,1,.58,1.1,1.42a4.5,4.5,0,0,0,3.08,2.32,3.31,3.31,0,0,0,3.62-1c1-1.4,2-1,3.62-.57-.06-.58-.19-1.33-.24-1.77.93.54,4.67,1.67,5.42.47a.85.85,0,0,1-.94,1.18,1.62,1.62,0,0,0,.7,1.19c-.84-.09-3.6.13-2.94-1.54a1.49,1.49,0,0,0-1.53.71,4.19,4.19,0,0,0,.94.94,1.77,1.77,0,0,1-.59.12c1.88,2.15-1.22,2-.59.12-.72,0-1.23.45-1,1.12a1.73,1.73,0,0,0,.92.94c1.78.26,3.17-.39,4.81.87,1.16.89-2.27,1.69-1.23,2.51s3.5,1.35,4.54.48c-1,0-2.61.4-1.53-.95a7.23,7.23,0,0,1-1.77.47c-.17-3.68,3.71-1.49,4.87,0,2.48,3.12,4.51-1.22,6.73-1.89.86-.27,1.89,1.94,2.33,2.48,1.53,1.42,3.63,1.06,5.27.06.57-.35,1.48-1.66,2.2-1.12,1.09.83,1.41,2.65,3.2,2.16-1.45-.23-3.63-2.39-1.41-3.31.25.9,2.69,4.14,3.3,2.72a3.17,3.17,0,0,1-2.71-3.08c.91.39,3.44,2.8,4.47,2.45s.67-1.5-.12-1.9c-1.64-.82-4.12.39-5.41-1.87-.25-.44.07-.28.12-.67a2.11,2.11,0,0,1,1.24-.36c.55-.39.21-1.17.88-1.67a1,1,0,0,0,.82,1.18c-.18-2.21,1.64-2.26,3-1.25,2.81,2.12,6.52,2,9.85,1.84-1.65-.5-2.71,0-4.39-.3s-4.23-.18-2.38-1.77c.46-.4.74-1.39,1.36-1.57.43-.12,1.22.62,1.89.6,1.53,0,2.45.43,3.87-.47.45.06.49-.06.81.38a11.6,11.6,0,0,1,.84,1.86c.1.21.79.14.85.57-.09.6-.6.65-1.08.87a9.62,9.62,0,0,0-1.07,1.14c-1.13.26-1.85-.25-3,.21-2,.8-2.89-1.29-4.92.1-1.85.23-2.39-3.73-5.06-3.27.82.85,2.15,1.06,2.94,2.29.28.45.53,1.11,1.06,1.38,1,.19,2.2-.51,3-.32,1.3,2.19,3,.47,4.74.53a6.37,6.37,0,0,0,4.31-2.08c.74-.69.46-1.07.18-1.71-1.33-.65-1.63-2.35-3.13-2.57-.76-.11-1.81,1.2-2.37.47-.7-.93.8-1.6,1.3-1.88.7-.45.5-.61,1.15-.68,1.07,1.19,3,.15,4.32.53,2.11.6,2.5-1.26,4.18-1.4s1.65-.88,3.07-1.84c2.16-1.44,2.71-6.9-1.08-5.63-.38.13-2.14.86-2-.29s.62-2.59,1.55-3.14c0,1.08-.84,2,.7,2a10.65,10.65,0,0,0,3.65-2.37,5,5,0,0,0,4.23-2.13c1-2.09-1.85-1.09-2.43-.61-1.38,1.18-3,4.42-5,4.28,2.06-2.92,2.11-5.81,5.43-7.87,1.51-.93,2-2.09,3.92-1.58,1.48-.6,1.42-1.94,2.47-2.81,1.51-.27,3-1.36,2.88-3-.06-.52-.54-1.32-.45-1.8.14-.71.76-1.19.92-2,0-1.56-1.43-1.66-2.6-1.36-1.38.36-2.2-.43-3.69.06.49-2,2.3-2.49,3.89-3.38,1.86-1.55.47-3.56.82-5.49-1,.86-2.8.74-3.3,2.24,1.14-.59,2.51-1.65,3.06.36a4.52,4.52,0,0,1-3.29-.12,3.18,3.18,0,0,0-.16,3.32c-.18.89-1.66,2.22-2.19,3.19a24.49,24.49,0,0,1,.73-7.75c.43-1.6,1-3.16,1.45-4.76.49-1.8,1.08-.49,1.82-1.81-.87.07-3.35-1.17-2.24-2.36.7-1.13,2.86.93,2.82,1.89,2-1.24,1-4.76.94-6.63a12.61,12.61,0,0,0-3.63,3.24c-.89,1.39-.72,2.48-.1,4a3,3,0,0,1-.54,1.36c-1,.7-.74,1.51-1.26,2.54-1.93-3.26-2.05-8.89-1.41-12.54-1,.07-1.64.13-2-1.3.61-1.66-.39-2.39-1.07-3.78-.36-.74-1.35-.83-1.59-1.67s.75-1.51.14-2.24c-2-1.69-.47-1.67-1.15-3.79a3.76,3.76,0,0,0-1.06,1.89c-1.8-1.27-.53-2.67-1.06-4.5.49-2.19-.74-2.44-1.37-4.33-.47-1.39-.31-3.51-1.13-4.72-.51-.75-1.7-1-2.44-1.36-.43,2.15-1,5.74,2.12,6.11,1.81,1.55,1,3.57,1.76,5.61-1.25.23-1.17-3.57-2.59-4.26.14,2.81-2.29-1.69-2.61-2.39-1.13-2.45-1.15-.55-2.57-.1,1.49-4.78-.86-7.92-4.27-10.9-2-1.76-4-1.22-6.2-1.2-1.45-.64-3.38-.19-3.42,1.57-1-.73-2.08-1.44-3.13-2.16-.44-.59-.37-1.36-.79-2-1.41-1.56-3.74-1.37-5.61-1.07m-8.24,2.72c.43-.28,3.18-5.25,4.08-2.6.17.51-.21.8-.48,1.21-.51.79.2,1.49-.3,2.2-.36.51-1.27.56-1.73.78s-.26.78-.5,1.08c-.68.85-2.57.51-3.51,1s-2.31.66-3-.32c-.58-2.28,1.16-1.86.87-4,.82-1,1.56-.74,2.56-1.68.47-.29.49-1.58,1.3-.69,1.39,1.54,1,.76.68,3.08M72.47,130.55c-.57-2.74,3.42-6,4-8.76-2.18-1-2.72,3.34-3.65,3.9,0-1.3.41-2.83-1.18-3-.35,2.55-.58,5.12-.83,7.69-.16,1.6-1,1.43-1.17,2.72-1.69-1.77-4.8-7.17-6.36-2.31-.28.88-2,.9-2.51,1.72-1.07,1.65-.16,1.66-2.12,3-.56.94.12,1.72.05,2.69-1.06,2.18.4,3.65,1.24,5.68s-.59,5.23-1,7.39c-.48,2.72-.84,5.47-1.1,8.23a5.39,5.39,0,0,0-.77-1.89c-.58-.31-1.25-.73-1.26-1.48s.71-.81,1.14-1.28c.91-1,.51-2.14.17-3.32-.28-1-.85-3-1.82-3.57-.51-.28-1.45,1.94-1.64,2.36-1.59,3.33,1.16,4.85,2.06,7.76a8.36,8.36,0,0,0-1.76-.47c1,1.48,2.9,1.06,3.4,3.32.38,1.71,1.14,2.94,1.19,4.84a27.38,27.38,0,0,0-3.69-3.22,1.85,1.85,0,0,0-2.69.38,4.23,4.23,0,0,0-.21.95c.46,1.52-.14,2-.67,3.43a1.92,1.92,0,0,0,.54,1.51c.83,1.19.17,1,.29,2.28s1.45,1.33,2,2.13.28,1.25,1.35,1.83c1.86-.32,3.52,2.12,4.56,3.36,1.64,2,2.28,4.62,3.09,7-1.89-.44.64,1.55.82,1.77-2.31.47-4.11-2.16-3.9-4.14-.59-3-2.42-2.66-4.25-4.14-1,.31-.77,3.71-.21,4.74a2.83,2.83,0,0,0,3.07,1.45,18.25,18.25,0,0,1,3.49,2.23c1.28.89,5.63,4.12,1.69,4.52a2.55,2.55,0,0,0-2.47,1.42c-.77,1.16.9,2,1.21,2.86.43,1.3.21,2.26,1.61,3.06a13.93,13.93,0,0,1,3.37,1.13c1.28.67,1.9-.54,3-.25,1.27.74,1.57,1.68,3.17,1.33-1.11-1-2.85-2.24-4.4-1.53s-2.21-1-3.59-1.19c-1.65-.2-1.7-.9-2.14-2.42-.27-.94-1.93-2.08-1.4-3,.62-1.08,1.13-.52,2.35-.7,1.59-.44,1.46-1.44,2.74.55,1.12.56,1,0,2.32-.11a2.78,2.78,0,0,1-1.53-2.61.92.92,0,0,0-.35.83,5.77,5.77,0,0,1-2.82-2.84c.77.65,1.28-.24,1.41-.59.15.93.05,1.8.59,2.25,0-2,0-2-.54-3.26a34,34,0,0,1-2.35-3.25c-.37-.74.55-1-.25-1.78-.57-.58-1.34-.33-1.7-1.3-.18-.72.75-1.21.67-1.89-1.26-2.2-.27-1.84.47-3.73.33-.86-.54-1.57.2-2.23,1.3-1.14,2.36,1.43,3.26,2,2.67-.41,1.65,1.09,2.11,2.55.27.83.94,1.08,1.11,1.89,0,.24-.47.58-.45.83s.69,1.64.56,1.89-.71.66-1,1c-.23.48.24.95.14,1.48,0,.22-.23.82-.6.71-1-.32-.33-3.31-.11-4a4.34,4.34,0,0,0-.71.71,5,5,0,0,1,.23-4c-.54-.06-1,.53-1.29.95-.36-1.12,0-1.63.12-2.73-.33,0-.42.26-.59.48-.41-.57-.68-2.11-1.53-1.9.23.63.42,1.26.59,1.9a3.78,3.78,0,0,0-1.3-.48c.69,1.17,1.77,1.85,2.12,3.2-.59-.25-2.1-1.32-2.59-.59a4.84,4.84,0,0,1,3.3,3.19,6.38,6.38,0,0,0-1.77-.47c1,1.15,2.08,1.32,2.44,3,.25,1.16.33,2.65,1,3.55.47-2.51,3.21-4.59,2.49-7.22.18-1.28.87-1.26.1-2.45s-1-2.91-1.91-3.79c-.67-.7-1.29-.54-2.1-.95a4.35,4.35,0,0,0-2.43-1.56c-1.79-.42-3.22,1.34-3-2a1.45,1.45,0,0,1,.24-.35,2.88,2.88,0,0,0,2.93-1.81c.82-1.65.27-3.35.22-5.06-.75,1.26-2.64,1.23-3.85,2.16-1.26-.36-.17-3.29.26-4a5,5,0,0,1,.72-3.2c.93-1.12,2.2-.53,3.36-1.1.86-.41,1-.67,1.12-1.5.72-.72,1.62-.86,1.9-2,.25-1,1.07-1.38,1.25-2.26s-.1-1.8,0-2.72c.14-1.16-.07-1.57-1.12-2.25-.62-.21-2.53-.74-3.11-.3-.65,2.23-.73,1.65-2.07,2.56-.81.55-1,.19-1.27,1.36-.2.78-.13,1.3-1,1.46,1.1-2.75,2.77-5.22,4-7.92,3.1,2.81,5.45-1.4,6.35-3.91-1.74-.37-3.24.22-4.87.63.12-1.2,2-2,3-2.47,1.56-.66.52-.61,1.31-1.55.47-.55,1.49.47,1.7.61a2.72,2.72,0,0,0,1.78,0c1.35-.35,1.65.38,3,.23,1.16-.13,1.56-.69,2.76-.62A3.1,3.1,0,0,0,83,134.39c.68-.73,3-1.9,2.8-3.14-.39-2-3.84-2.23-5.55-2.09-1.46.78-2,1.1-3.24-.09a.52.52,0,0,1-.06-.75c.85-1.3,3.87-2.38,5.24-3.07,2.73-1.38,4.32-2.34,6.61.09a3.77,3.77,0,0,0,3.1,1.31,4.28,4.28,0,0,0,1.65,1.1,3.26,3.26,0,0,0,2.23-.75,3.85,3.85,0,0,0,2.3.11,18,18,0,0,0,3.32-2,1.34,1.34,0,0,0,.17-1.51c-.52-1.3-2-1-2.64-2.36-1.15-.65-1.73.11-2.91,0-1.8-.94-1.9-.16-3.71-.15-.57,0-1.27-.21-1.24-.87.06-1.25,2.57,0,3.08-.18,3.49-1.38,6.9-.09,9.51-3.62.65-1.74,1.91-5.21-1.38-4.72-1.18.17-1.51.41-2.65,0a2.2,2.2,0,0,0-2.08.19c-.56.19-1.2,1.05-1.91,1.34-1.88.77-.92,2-2.37,3.22-.14.26-.15,1.37-.47,1.46-2,.55-1.54-1.84-1.7-3.24-.26-2.39-2.53-2.47-4.13-.84-.91.91-2-.15-2.8.72-.55.57-.64,1.44-1.3,1.88-1,.66-2.21.76-2.39,2.23.19,1,1,1.74.13,2.56-.7.64-1.34.57-1.38,1.64-.09,3-5.3,5.08-6.75,7.76"
            />
            <polygon class="cls-3" points="26.36 39.11 18.86 39.11 18.86 35.88 21.07 35.88 21.07 15.73 17.8 18.88 17.8 14.32 21.61 10.94 24.28 12.14 24.28 35.88 26.36 35.88 26.36 39.11"
            />
            <polygon class="cls-3" points="190.36 39.09 182.86 39.09 182.86 35.86 185.07 35.86 185.07 15.71 181.8 18.86 181.8 14.3 185.61 10.92 188.28 12.13 188.28 35.86 190.36 35.86 190.36 39.09"
            />
            <polygon class="cls-3" points="181.8 286.68 189.3 286.68 189.3 289.91 187.09 289.91 187.09 310.06 190.36 306.91 190.36 311.47 186.55 314.85 183.88 313.64 183.88 289.91 181.8 289.91 181.8 286.68"
            />
            <polygon class="cls-3" points="17.8 286.68 25.29 286.68 25.29 289.91 23.09 289.91 23.09 310.06 26.36 306.91 26.36 311.47 22.55 314.85 19.88 313.64 19.88 289.91 17.8 289.91 17.8 286.68"
            />
            <path class="cls-3" d="M28.09,52.94c-1.79,0-2.87,1.67-3.95,2.32a1.31,1.31,0,0,1-.8.2,1.68,1.68,0,0,1-.18-1.83c.63-1.12,2.24-2.23,2.24-4.09s-1-3.62-3.32-3.62-3.32,1.76-3.32,3.62,1.62,3,2.24,4.09a1.67,1.67,0,0,1-.19,1.83,1.26,1.26,0,0,1-.79-.2c-1.08-.65-2.15-2.32-3.95-2.32a3.44,3.44,0,1,0,0,6.88c1.8,0,2.87-1.68,3.95-2.33a1.34,1.34,0,0,1,.9-.19c.95,3.37-2.16,8.62-2.16,8.62a10.41,10.41,0,0,1,3.32-.46,10.41,10.41,0,0,1,3.32.46s-3.53-5.33-2.26-8.6a1.32,1.32,0,0,1,1,.17c1.07.65,2.16,2.33,3.95,2.33a3.44,3.44,0,1,0,0-6.88Z"
            />
            <path class="cls-3" d="M192.09,52.94c-1.8,0-2.87,1.67-4,2.32a1.31,1.31,0,0,1-.8.2,1.68,1.68,0,0,1-.18-1.83c.63-1.12,2.24-2.23,2.24-4.09s-1-3.62-3.32-3.62-3.32,1.76-3.32,3.62,1.62,3,2.24,4.09a1.67,1.67,0,0,1-.19,1.83,1.26,1.26,0,0,1-.79-.2c-1.08-.65-2.15-2.32-4-2.32a3.44,3.44,0,1,0,0,6.88c1.8,0,2.87-1.68,4-2.33a1.34,1.34,0,0,1,.9-.19c1,3.37-2.16,8.62-2.16,8.62a12.21,12.21,0,0,1,6.64,0s-3.53-5.33-2.26-8.6a1.32,1.32,0,0,1,1,.17c1.07.65,2.15,2.33,4,2.33a3.44,3.44,0,1,0,0-6.88Z"
            />
            <path class="cls-3" d="M180.07,272.77c1.79,0,2.87-1.67,3.94-2.32a1.35,1.35,0,0,1,.81-.2,1.7,1.7,0,0,1,.18,1.83c-.63,1.12-2.24,2.23-2.24,4.09s1,3.62,3.32,3.62,3.31-1.76,3.31-3.62-1.61-3-2.24-4.09a1.67,1.67,0,0,1,.2-1.83,1.29,1.29,0,0,1,.79.2c1.07.65,2.15,2.32,4,2.32a3.44,3.44,0,1,0,0-6.88c-1.8,0-2.87,1.68-4,2.33a1.29,1.29,0,0,1-.91.18c-.94-3.36,2.17-8.61,2.17-8.61a12.21,12.21,0,0,1-6.64,0s3.53,5.33,2.26,8.6a1.37,1.37,0,0,1-1-.17c-1.08-.65-2.16-2.33-4-2.33a3.44,3.44,0,1,0,0,6.88Z"
            />
            <path class="cls-3" d="M16.07,272.77c1.79,0,2.87-1.67,3.95-2.32a1.31,1.31,0,0,1,.8-.2,1.7,1.7,0,0,1,.18,1.83c-.63,1.12-2.24,2.23-2.24,4.09s1,3.62,3.32,3.62,3.32-1.76,3.32-3.62-1.62-3-2.25-4.09a1.67,1.67,0,0,1,.2-1.83,1.28,1.28,0,0,1,.79.2c1.07.65,2.15,2.32,3.95,2.32a3.44,3.44,0,1,0,0-6.88c-1.8,0-2.87,1.68-3.95,2.33a1.29,1.29,0,0,1-.91.18c-.94-3.36,2.17-8.61,2.17-8.61a10.41,10.41,0,0,1-3.32.46,10.41,10.41,0,0,1-3.32-.46s3.53,5.33,2.26,8.6a1.37,1.37,0,0,1-1-.17c-1.08-.65-2.16-2.33-3.95-2.33a3.44,3.44,0,1,0,0,6.88Z"
            />
        </g>
    </g>
</svg>
