<svg xmlns="http://www.w3.org/2000/svg" viewBox="0 0 208 326">
    <defs>
        <style>
            .cls-1 {
                fill: #fff;
            }

            .cls-2 {
                fill: #6f7072;
            }

            .cls-3 {
                fill: #1e657f;
            }
        </style>
    </defs>
    <title>AC-us-4c</title>
    <g id="Calque_2" data-name="Calque 2">
        <g id="FR_-_EN" data-name="FR - EN">
            <path class="cls-1" d="M14.83,325A13.84,13.84,0,0,1,1,311.18V14.82A13.84,13.84,0,0,1,14.83,1H193.17A13.84,13.84,0,0,1,207,14.82V311.18A13.84,13.84,0,0,1,193.17,325Z"
            />
            <path class="cls-2" d="M193.17,2A12.84,12.84,0,0,1,206,14.82V311.18A12.84,12.84,0,0,1,193.17,324H14.83A12.84,12.84,0,0,1,2,311.18V14.82A12.84,12.84,0,0,1,14.83,2H193.17m0-2H14.83A14.83,14.83,0,0,0,0,14.82V311.18A14.83,14.83,0,0,0,14.83,326H193.17A14.83,14.83,0,0,0,208,311.18V14.82A14.83,14.83,0,0,0,193.17,0Z"
            />
            <path class="cls-3" d="M32.73,65c.39-4.5-3.51-8.2-7.56-4.35l-.83-1.2c4.51-2.93,2.29-8.43-2.71-8.69-5.1.05-7.58,5.69-2.95,8.69l-.83,1.2c-4.62-4.38-8.81,1.05-7.28,5.67a5.24,5.24,0,0,0,4.52,3.91,3.86,3.86,0,0,0,2.93-1c.81-.61,1-1.77,1.56-2.32.65.34.61.28.59,1a16.5,16.5,0,0,1-2.58,5.58,26.35,26.35,0,0,1,7.83,0,16.47,16.47,0,0,1-2.57-5.58c0-.71,0-.67.59-1,.55.54.77,1.75,1.56,2.32a3.82,3.82,0,0,0,2.92,1c2.38-.08,4.26-2.26,4.69-4.53"
            />
            <path class="cls-3" d="M198.17,65c.39-4.5-3.51-8.2-7.57-4.35l-.82-1.2c4.51-2.93,2.29-8.43-2.72-8.69-5.1.05-7.58,5.69-2.94,8.69l-.83,1.2c-4.63-4.38-8.81,1.05-7.29,5.67a5.26,5.26,0,0,0,4.53,3.91,3.82,3.82,0,0,0,2.92-1c.82-.61,1-1.77,1.56-2.32.65.34.62.28.59,1A16.47,16.47,0,0,1,183,73.41a26.35,26.35,0,0,1,7.83,0,16.29,16.29,0,0,1-2.57-5.58c0-.71,0-.67.59-1,.54.54.76,1.75,1.56,2.32a3.82,3.82,0,0,0,2.92,1c2.38-.08,4.26-2.26,4.69-4.53"
            />
            <path class="cls-3" d="M175.71,260.86c-.39,4.5,3.51,8.21,7.57,4.36l.82,1.19c-4.51,2.93-2.29,8.43,2.72,8.69,5.1,0,7.58-5.69,3-8.69l.82-1.19c4.62,4.37,8.81-1.05,7.28-5.68a5.23,5.23,0,0,0-4.52-3.9,3.83,3.83,0,0,0-2.92,1c-.82.61-1,1.77-1.56,2.32-.65-.34-.62-.27-.59-1a16.39,16.39,0,0,1,2.57-5.58,27,27,0,0,1-7.83,0,16.3,16.3,0,0,1,2.57,5.58c0,.7,0,.66-.59,1-.54-.53-.76-1.75-1.56-2.32a3.78,3.78,0,0,0-2.92-1c-2.38.08-4.26,2.26-4.69,4.52"
            />
            <path class="cls-3" d="M10.27,260.86c-.38,4.5,3.51,8.21,7.57,4.36l.83,1.19c-4.52,2.93-2.3,8.43,2.71,8.69,5.1,0,7.58-5.69,2.95-8.69l.82-1.19c4.63,4.37,8.82-1.05,7.29-5.68a5.24,5.24,0,0,0-4.52-3.9,3.84,3.84,0,0,0-2.93,1c-.81.61-1,1.77-1.56,2.32-.65-.34-.62-.27-.59-1a16.22,16.22,0,0,1,2.58-5.58,27,27,0,0,1-7.83,0A16.28,16.28,0,0,1,20.15,258c.05.7,0,.66-.59,1-.54-.53-.76-1.75-1.55-2.32a3.8,3.8,0,0,0-2.93-1c-2.38.08-4.25,2.26-4.69,4.52"
            />
            <path class="cls-3" d="M24.32,29.14H18.59l2.87-13.29M17.84,32.64h7.24l1.5,6.92h-3.9v3.83H32.8V39.56H30.25L23.58,8.69H19.34L12.67,39.56H10.21v3.83H20.32V39.56h-4Z"
            />
            <path class="cls-3" d="M189.76,29.14H184l2.88-13.29m-3.62,16.79h7.23L192,39.56h-3.91v3.83h10.13V39.56h-2.55L189,8.69h-4.23L178.1,39.56h-2.46v3.83h10.12V39.56h-4Z"
            />
            <path class="cls-3" d="M184.13,295.12h5.73L187,308.41m3.62-16.78h-7.24l-1.5-6.93h3.9v-3.83H175.65v3.83h2.54l6.68,30.87h4.24l6.67-30.87h2.46v-3.83H188.12v3.83h4Z"
            />
            <path class="cls-3" d="M18.69,295.12h5.74l-2.88,13.29m3.62-16.78H17.93l-1.5-6.93h3.91v-3.83H10.21v3.83h2.55l6.68,30.87h4.23l6.68-30.87H32.8v-3.83H22.69v3.83h4Z"
            />
            <path class="cls-3" d="M126.53,169.26c.78-9-7-16.41-15.13-8.71l-1.66-2.4c9-5.84,4.59-16.86-5.42-17.38-10.2.1-15.16,11.38-5.89,17.38l-1.65,2.4c-9.25-8.75-17.64,2.1-14.58,11.34,1.17,4,4.75,7.67,9,7.81a7.66,7.66,0,0,0,5.85-2.06c1.63-1.22,2-3.54,3.12-4.64,1.3.68,1.24.55,1.18,2-.61,3.79-3.12,8-5.15,11.17a52.69,52.69,0,0,1,15.66,0c-2-3.26-4.53-7.29-5.14-11.17-.09-1.41-.06-1.32,1.18-2,1.09,1.06,1.53,3.5,3.12,4.64a7.64,7.64,0,0,0,5.84,2.06c4.77-.16,8.52-4.51,9.39-9"
            />
        </g>
    </g>
</svg>
