<svg xmlns="http://www.w3.org/2000/svg" viewBox="0 0 208 326">
    <defs>
        <style>
            .cls-1 {
                fill: #fff;
            }

            .cls-2 {
                fill: #6f7072;
            }

            .cls-3 {
                fill: #f72014;
            }
        </style>
    </defs>
    <title>AD-fr-2c</title>
    <g id="Calque_2" data-name="Calque 2">
        <g id="FR_-_EN" data-name="FR - EN">
            <path class="cls-1" d="M14.83,325A13.84,13.84,0,0,1,1,311.18V14.82A13.84,13.84,0,0,1,14.83,1H193.17A13.84,13.84,0,0,1,207,14.82V311.18A13.84,13.84,0,0,1,193.17,325Z"
            />
            <path class="cls-2" d="M193.17,2A12.84,12.84,0,0,1,206,14.82V311.18A12.84,12.84,0,0,1,193.17,324H14.83A12.84,12.84,0,0,1,2,311.18V14.82A12.84,12.84,0,0,1,14.83,2H193.17m0-2H14.83A14.83,14.83,0,0,0,0,14.82V311.18A14.82,14.82,0,0,0,14.83,326H193.17A14.83,14.83,0,0,0,208,311.18V14.82A14.83,14.83,0,0,0,193.17,0Z"
            />
            <path class="cls-3" d="M22,45.84s3.67,8.07,9.1,10.11A23.7,23.7,0,0,0,22,65.84s-1.63-5.81-8.9-10A17.25,17.25,0,0,0,22,45.84Z"
            />
            <path class="cls-3" d="M185.9,46s3.67,8.08,9.1,10.12A23.63,23.63,0,0,0,185.9,66s-1.63-5.81-8.9-10A17.17,17.17,0,0,0,185.9,46Z"
            />
            <path class="cls-3" d="M21.9,260.09s3.67,8.07,9.1,10.11a23.62,23.62,0,0,0-9.1,9.89s-1.63-5.82-8.9-10A17.18,17.18,0,0,0,21.9,260.09Z"
            />
            <path class="cls-3" d="M185.9,259.85s3.67,8.08,9.1,10.11a23.7,23.7,0,0,0-9.1,9.89s-1.63-5.81-8.9-10A17.21,17.21,0,0,0,185.9,259.85Z"
            />
            <polygon class="cls-3" points="26.25 39.22 18.75 39.22 18.75 35.98 20.95 35.98 20.95 15.83 17.68 18.98 17.69 14.42 21.5 11.04 24.17 12.25 24.17 35.98 26.25 35.98 26.25 39.22"
            />
            <polygon class="cls-3" points="190.25 39.2 182.75 39.2 182.75 35.97 184.95 35.97 184.95 15.81 181.69 18.96 181.69 14.4 185.49 11.02 188.17 12.23 188.17 35.97 190.25 35.97 190.25 39.2"
            />
            <polygon class="cls-3" points="181.69 286.78 189.18 286.78 189.18 290.01 186.98 290.01 186.98 310.17 190.24 307.01 190.24 311.57 186.44 314.96 183.76 313.75 183.76 290.01 181.69 290.01 181.69 286.78"
            />
            <polygon class="cls-3" points="17.68 286.78 25.18 286.78 25.18 290.01 22.98 290.01 22.98 310.17 26.25 307.01 26.24 311.57 22.43 314.96 19.76 313.75 19.76 290.01 17.68 290.01 17.68 286.78"
            />
            <path class="cls-3" d="M103.6,139.16s9.63,19.22,23.9,24.07a59.6,59.6,0,0,0-23.9,23.54S99.31,172.93,80.23,163C80.23,163,97,156.76,103.6,139.16Z"
            />
        </g>
    </g>
</svg>
