<svg xmlns="http://www.w3.org/2000/svg" viewBox="0 0 208 326">
    <defs>
        <style>
            .cls-1 {
                fill: #fff;
            }

            .cls-2 {
                fill: #6f7072;
            }

            .cls-3 {
                fill: #f8261b;
            }
        </style>
    </defs>
    <title>AD-us-2c</title>
    <g id="Calque_2" data-name="Calque 2">
        <g id="FR_-_EN" data-name="FR - EN">
            <path class="cls-1" d="M14.83,325A13.84,13.84,0,0,1,1,311.18V14.82A13.84,13.84,0,0,1,14.83,1H193.17A13.84,13.84,0,0,1,207,14.82V311.18A13.84,13.84,0,0,1,193.17,325Z"
            />
            <path class="cls-2" d="M193.17,2A12.84,12.84,0,0,1,206,14.82V311.18A12.84,12.84,0,0,1,193.17,324H14.83A12.84,12.84,0,0,1,2,311.18V14.82A12.84,12.84,0,0,1,14.83,2H193.17m0-2H14.83A14.83,14.83,0,0,0,0,14.82V311.18A14.82,14.82,0,0,0,14.83,326H193.17A14.82,14.82,0,0,0,208,311.18V14.82A14.82,14.82,0,0,0,193.17,0Z"
            />
            <path class="cls-3" d="M178,263.9a64.1,64.1,0,0,1,8.76,12.75,63.4,63.4,0,0,1,8.76-12.75,63.05,63.05,0,0,1-8.76-12.74,65.58,65.58,0,0,1-8,12"
            />
            <path class="cls-3" d="M12.56,263.9a64.1,64.1,0,0,1,8.76,12.75,63.4,63.4,0,0,1,8.76-12.75,63.05,63.05,0,0,1-8.76-12.74,65.58,65.58,0,0,1-8,12"
            />
            <path class="cls-3" d="M178,62.21A63.75,63.75,0,0,1,186.76,75a63.05,63.05,0,0,1,8.76-12.74,63.33,63.33,0,0,1-8.76-12.74,65.5,65.5,0,0,1-8,12"
            />
            <path class="cls-3" d="M12.56,62.21A63.75,63.75,0,0,1,21.32,75a63.05,63.05,0,0,1,8.76-12.74,63.33,63.33,0,0,1-8.76-12.74,65.5,65.5,0,0,1-8,12"
            />
            <path class="cls-3" d="M24.14,29.29H18.41L21.28,16M17.66,32.78H24.9l1.5,6.93H22.49v3.82H32.62V39.71H30.07L23.4,8.83H19.16L12.49,39.71H10v3.82H20.14V39.71h-4Z"
            />
            <path class="cls-3" d="M189.57,29.29h-5.73L186.71,16m-3.62,16.78h7.24l1.51,6.93h-3.91v3.82h10.13V39.71h-2.55L188.83,8.83H184.6l-6.68,30.88h-2.46v3.82h10.12V39.71h-4Z"
            />
            <path class="cls-3" d="M184,295.26h5.73l-2.87,13.29m3.62-16.78h-7.24l-1.5-6.93h3.9V281H175.47v3.83H178l6.68,30.87h4.23l6.68-30.87h2.46V281H187.94v3.83h4Z"
            />
            <path class="cls-3" d="M18.51,295.26h5.74l-2.88,13.29M25,291.77H17.75l-1.5-6.93h3.91V281H10v3.83h2.55l6.67,30.87h4.24l6.67-30.87h2.46V281H22.51v3.83h4Z"
            />
            <path class="cls-3" d="M86.52,162.62A128,128,0,0,1,104,188.12a126.93,126.93,0,0,1,17.52-25.5A126.51,126.51,0,0,1,104,137.14a131,131,0,0,1-16.11,23.92"
            />
        </g>
    </g>
</svg>
