<svg xmlns="http://www.w3.org/2000/svg" viewBox="0 0 208 326">
    <defs>
        <style>
            .cls-1 {
                fill: #fff;
            }

            .cls-2 {
                fill: #6f7072;
            }

            .cls-3 {
                fill: #f72014;
            }
        </style>
    </defs>
    <title>AH-fr-2c</title>
    <g id="Calque_2" data-name="Calque 2">
        <g id="FR_-_EN" data-name="FR - EN">
            <path class="cls-1" d="M14.83,325A13.84,13.84,0,0,1,1,311.18V14.82A13.84,13.84,0,0,1,14.83,1H193.17A13.84,13.84,0,0,1,207,14.82V311.18A13.84,13.84,0,0,1,193.17,325Z"
            />
            <path class="cls-2" d="M193.17,2A12.84,12.84,0,0,1,206,14.82V311.18A12.84,12.84,0,0,1,193.17,324H14.83A12.84,12.84,0,0,1,2,311.18V14.82A12.84,12.84,0,0,1,14.83,2H193.17m0-2H14.83A14.83,14.83,0,0,0,0,14.82V311.18A14.82,14.82,0,0,0,14.83,326H193.17A14.83,14.83,0,0,0,208,311.18V14.82A14.83,14.83,0,0,0,193.17,0Z"
            />
            <path class="cls-3" d="M103.9,186s.29-1.94,7.63-9.33,15-14.43,16.67-22.72c1.09-5.57-1.42-15.9-13.56-15.9-9.61,0-10.74,12.49-10.74,12.49s-1.13-12.49-10.73-12.49C81,138.06,78.5,148.39,79.61,154c1.64,8.29,9.32,15.34,16.66,22.72S103.9,186,103.9,186Z"
            />
            <polygon class="cls-3" points="26.28 39.2 18.78 39.2 18.78 35.97 20.99 35.97 20.99 15.81 17.72 18.96 17.72 14.4 21.53 11.02 24.2 12.23 24.2 35.97 26.28 35.97 26.28 39.2"
            />
            <polygon class="cls-3" points="190.28 39.18 182.78 39.18 182.78 35.95 184.99 35.95 184.99 15.79 181.72 18.94 181.72 14.38 185.53 11 188.2 12.21 188.2 35.95 190.28 35.95 190.28 39.18"
            />
            <polygon class="cls-3" points="181.72 286.76 189.22 286.76 189.22 289.99 187.01 289.99 187.01 310.15 190.28 307 190.28 311.56 186.47 314.94 183.8 313.73 183.8 289.99 181.72 289.99 181.72 286.76"
            />
            <polygon class="cls-3" points="17.72 286.76 25.21 286.76 25.21 289.99 23.01 289.99 23.01 310.15 26.28 307 26.28 311.56 22.47 314.94 19.8 313.73 19.8 289.99 17.72 289.99 17.72 286.76"
            />
            <path class="cls-3" d="M22,64a8.43,8.43,0,0,1,2.49-5.12c2.39-2.46,4.9-4.81,5.43-7.58A4.32,4.32,0,0,0,25.5,46c-3.13,0-3.5,4.17-3.5,4.17S21.63,46,18.5,46a4.32,4.32,0,0,0-4.42,5.3c.53,2.77,3,5.12,5.43,7.58A8.45,8.45,0,0,1,22,64Z"
            />
            <path class="cls-3" d="M186,64a8.45,8.45,0,0,1,2.48-5.12c2.4-2.46,4.91-4.81,5.44-7.58A4.32,4.32,0,0,0,189.5,46c-3.13,0-3.5,4.17-3.5,4.17S185.63,46,182.5,46a4.32,4.32,0,0,0-4.42,5.3c.53,2.77,3,5.12,5.43,7.58A8.45,8.45,0,0,1,186,64Z"
            />
            <path class="cls-3" d="M186,262a8.43,8.43,0,0,1-2.49,5.12c-2.39,2.46-4.9,4.81-5.43,7.58a4.32,4.32,0,0,0,4.42,5.3c3.13,0,3.5-4.17,3.5-4.17s.37,4.17,3.5,4.17a4.32,4.32,0,0,0,4.42-5.3c-.53-2.77-3-5.12-5.43-7.58A8.45,8.45,0,0,1,186,262Z"
            />
            <path class="cls-3" d="M22,262a8.43,8.43,0,0,1-2.49,5.12c-2.39,2.46-4.9,4.81-5.43,7.58A4.32,4.32,0,0,0,18.5,280c3.13,0,3.5-4.17,3.5-4.17s.37,4.17,3.5,4.17a4.32,4.32,0,0,0,4.42-5.3c-.53-2.77-3-5.12-5.43-7.58A8.45,8.45,0,0,1,22,262Z"
            />
        </g>
    </g>
</svg>
