<svg xmlns="http://www.w3.org/2000/svg" viewBox="0 0 208 326">
    <defs>
        <style>
            .cls-1 {
                fill: #fff;
            }

            .cls-2 {
                fill: #6f7072;
            }

            .cls-3 {
                fill: #f8261b;
            }
        </style>
    </defs>
    <title>AH-us-2c</title>
    <g id="Calque_2" data-name="Calque 2">
        <g id="FR_-_EN" data-name="FR - EN">
            <path class="cls-1" d="M14.83,325A13.84,13.84,0,0,1,1,311.18V14.82A13.84,13.84,0,0,1,14.83,1H193.17A13.84,13.84,0,0,1,207,14.82V311.18A13.84,13.84,0,0,1,193.17,325Z"
            />
            <path class="cls-2" d="M193.17,2A12.84,12.84,0,0,1,206,14.82V311.18A12.84,12.84,0,0,1,193.17,324H14.83A12.84,12.84,0,0,1,2,311.18V14.82A12.84,12.84,0,0,1,14.83,2H193.17m0-2H14.83A14.83,14.83,0,0,0,0,14.82V311.18A14.82,14.82,0,0,0,14.83,326H193.17A14.83,14.83,0,0,0,208,311.18V14.82A14.83,14.83,0,0,0,193.17,0Z"
            />
            <path class="cls-3" d="M21.42,69.57C24.76,66.77,31.86,56,30.16,51a4.59,4.59,0,0,0-8.74-.47c-1.59-3.57-6.21-4.1-8.25-.65C10,54.79,17.71,65.92,20.8,69"
            />
            <path class="cls-3" d="M186.85,69.57C190.2,66.77,197.3,56,195.6,51c-1.45-4.41-6.85-4.61-8.75-.47-1.58-3.57-6.2-4.1-8.24-.65-3.17,4.89,4.54,16,7.62,19.14"
            />
            <path class="cls-3" d="M21.43,254.64c-3.35,2.8-10.45,13.61-8.75,18.56,1.46,4.41,6.85,4.61,8.75.46,1.58,3.58,6.2,4.11,8.24.66,3.18-4.9-4.54-16-7.62-19.14"
            />
            <path class="cls-3" d="M186.87,254.64c-3.35,2.8-10.45,13.61-8.75,18.56,1.46,4.41,6.85,4.61,8.75.46,1.58,3.58,6.2,4.11,8.24.66,3.17-4.9-4.54-16-7.62-19.14"
            />
            <path class="cls-3" d="M24.21,29.23H18.48l2.87-13.29M17.73,32.72H25l1.5,6.93H22.56v3.82H32.69V39.65H30.14L23.47,8.77H19.23L12.56,39.65H10.1v3.82H20.21V39.65h-4Z"
            />
            <path class="cls-3" d="M189.65,29.23h-5.74l2.88-13.29m-3.62,16.78h7.23l1.51,6.93H188v3.82h10.13V39.65h-2.55L188.9,8.77h-4.23L178,39.65h-2.46v3.82h10.12V39.65h-4Z"
            />
            <path class="cls-3" d="M184,295.2h5.73l-2.87,13.29m3.62-16.78h-7.24l-1.5-6.93h3.9V281H175.54v3.82h2.54l6.68,30.88H189l6.67-30.88h2.46V281H188v3.82h4Z"
            />
            <path class="cls-3" d="M18.58,295.2h5.74l-2.88,13.29m3.62-16.78H17.82l-1.5-6.93h3.91V281H10.1v3.82h2.55l6.68,30.88h4.23l6.67-30.88h2.46V281H22.58v3.82h4Z"
            />
            <path class="cls-3" d="M104.63,181.67c2.72-2.13,4-4.49,6-7.29a59.1,59.1,0,0,0,6.91-12.69,17.2,17.2,0,0,0,1.29-10.62c-2.37-7.26-11.15-7.6-14.23-.76-2.58-5.89-10.1-6.77-13.41-1.08-1.92,2.94-1.23,8,0,11.16a59.2,59.2,0,0,0,5.54,11.23c2,2.64,4.42,7,6.9,9.17"
            />
        </g>
    </g>
</svg>
