<svg xmlns="http://www.w3.org/2000/svg" viewBox="0 0 208 326">
    <defs>
        <style>
            .cls-1 {
                fill: #fff;
            }

            .cls-2 {
                fill: #6f7072;
            }

            .cls-3 {
                font-size: 14.95px;
                font-family: BaskOldFace, Baskerville Old Face;
            }
        </style>
    </defs>
    <title>AS-fr-2c</title>
    <g id="Calque_2" data-name="Calque 2">
        <g id="FR_-_EN" data-name="FR - EN">
            <path class="cls-1" d="M14.83,325A13.84,13.84,0,0,1,1,311.18V14.82A13.84,13.84,0,0,1,14.83,1H193.17A13.84,13.84,0,0,1,207,14.82V311.18A13.84,13.84,0,0,1,193.17,325Z"
            />
            <path class="cls-2" d="M193.17,2A12.84,12.84,0,0,1,206,14.82V311.18A12.84,12.84,0,0,1,193.17,324H14.83A12.84,12.84,0,0,1,2,311.18V14.82A12.84,12.84,0,0,1,14.83,2H193.17m0-2H14.83A14.83,14.83,0,0,0,0,14.82V311.18A14.82,14.82,0,0,0,14.83,326H193.17A14.83,14.83,0,0,0,208,311.18V14.82A14.83,14.83,0,0,0,193.17,0Z"
            />
            <path d="M121.85,158.74c-2.13-4.08-9.28-10-13.53-13.41s-4.17-6.27-4.91-6.27-.47,2.83-4.73,6.27-10.1,8.17-12.22,12.26-2.34,10.73,4.68,14.18c4.51,2.22,8.31-.64,10.7-3.4.38,7.52-9.61,17.46-9.61,17.46a36.82,36.82,0,0,1,20.07-.24s-8.88-11.8-7.65-17.94c2.48,3.15,6.77,7.19,11.29,5C123,169.18,124,162.83,121.85,158.74Z"
            />
            <text class="cls-3" transform="translate(72.89 207.27) scale(0.99 1)">FunBridge</text>
            <path d="M29.58,54.25c-.9-1.75-3.93-4.27-5.74-5.74s-1.77-2.68-2.09-2.68-.2,1.21-2,2.68-4.28,3.5-5.18,5.24a4.27,4.27,0,0,0,2,6.07c1.92,1,3.53-.27,4.54-1.45.17,3.21-4.07,7.46-4.07,7.46a15.47,15.47,0,0,1,8.52-.1s-3.77-5.05-3.25-7.67c1,1.35,2.87,3.07,4.79,2.12C30.05,58.71,30.48,56,29.58,54.25Z"
            />
            <path d="M193.58,54.25c-.9-1.75-3.93-4.27-5.74-5.74s-1.77-2.68-2.09-2.68-.2,1.21-2,2.68-4.28,3.5-5.19,5.24a4.28,4.28,0,0,0,2,6.07c1.91,1,3.53-.27,4.54-1.45.17,3.21-4.07,7.46-4.07,7.46a15.48,15.48,0,0,1,8.52-.1s-3.77-5.05-3.25-7.67c1.05,1.35,2.87,3.07,4.79,2.12C194.05,58.71,194.48,56,193.58,54.25Z"
            />
            <path d="M178.42,271.29c.9,1.75,3.93,4.27,5.74,5.74s1.77,2.68,2.09,2.68.2-1.21,2-2.68,4.28-3.5,5.18-5.24a4.27,4.27,0,0,0-2-6.07c-1.92-.94-3.53.28-4.54,1.46-.17-3.22,4.07-7.47,4.07-7.47a15.47,15.47,0,0,1-8.52.1s3.77,5.05,3.25,7.67c-1.05-1.34-2.87-3.07-4.79-2.12C178,266.83,177.52,269.55,178.42,271.29Z"
            />
            <path d="M14.42,271.29c.9,1.75,3.93,4.27,5.74,5.74s1.77,2.68,2.09,2.68.2-1.21,2-2.68,4.28-3.5,5.18-5.24a4.27,4.27,0,0,0-2-6.07c-1.92-.94-3.53.28-4.54,1.46C22.75,264,27,259.71,27,259.71a15.47,15.47,0,0,1-8.52.1s3.77,5.05,3.25,7.67c-1-1.34-2.87-3.07-4.79-2.12C14,266.83,13.52,269.55,14.42,271.29Z"
            />
            <polygon points="26.26 39.17 18.76 39.17 18.76 35.94 20.97 35.94 20.97 15.79 17.7 18.94 17.7 14.38 21.51 10.99 24.18 12.2 24.18 35.94 26.26 35.94 26.26 39.17"
            />
            <polygon points="190.26 39.15 182.76 39.15 182.76 35.92 184.97 35.92 184.97 15.77 181.7 18.92 181.7 14.36 185.51 10.97 188.18 12.19 188.18 35.92 190.26 35.92 190.26 39.15"
            />
            <polygon points="181.7 286.74 189.19 286.74 189.19 289.97 186.99 289.97 186.99 310.12 190.26 306.97 190.26 311.53 186.45 314.91 183.78 313.7 183.78 289.97 181.7 289.97 181.7 286.74"
            />
            <polygon points="17.7 286.74 25.19 286.74 25.19 289.97 22.99 289.97 22.99 310.12 26.26 306.97 26.26 311.53 22.45 314.91 19.78 313.7 19.78 289.97 17.7 289.97 17.7 286.74"
            />
        </g>
    </g>
</svg>
