<svg xmlns="http://www.w3.org/2000/svg" viewBox="0 0 208 326">
    <defs>
        <style>
            .cls-1 {
                fill: #fff;
            }

            .cls-2 {
                fill: #6f7072;
            }

            .cls-3 {
                fill: #1d1d1b;
            }

            .cls-4 {
                fill: #1c1c1c;
            }
        </style>
    </defs>
    <title>AS-us-2c</title>
    <g id="Calque_2" data-name="Calque 2">
        <g id="FR_-_EN" data-name="FR - EN">
            <path class="cls-1" d="M14.83,325A13.84,13.84,0,0,1,1,311.18V14.82A13.84,13.84,0,0,1,14.83,1H193.17A13.84,13.84,0,0,1,207,14.82V311.18A13.84,13.84,0,0,1,193.17,325Z"
            />
            <path class="cls-2" d="M193.17,2A12.84,12.84,0,0,1,206,14.82V311.18A12.84,12.84,0,0,1,193.17,324H14.83A12.84,12.84,0,0,1,2,311.18V14.82A12.84,12.84,0,0,1,14.83,2H193.17m0-2H14.83A14.83,14.83,0,0,0,0,14.82V311.18A14.83,14.83,0,0,0,14.83,326H193.17A14.83,14.83,0,0,0,208,311.18V14.82A14.83,14.83,0,0,0,193.17,0Z"
            />
            <path class="cls-3" d="M21.35,74.47l1.27,0,1.22.07,1.25.12.4.07a23.36,23.36,0,0,1-3-6.28l-.08-.33,0-.48,0-.15,0,0,.09,0,.07.1A3.77,3.77,0,0,0,26.45,70c10.83-2.11-1.36-17.15-5.1-20.43C18,53,8.72,63.17,13.05,68.57a4.57,4.57,0,0,0,4.82,1.21l.73-.33.33-.24.28-.24.24-.26.18-.27.31-.52.19-.38.07-.1.09,0,0,0,0,.15,0,.48-.07.33a23.21,23.21,0,0,1-3,6.28l.4-.07,1.25-.12,1.22-.07"
            />
            <path class="cls-3" d="M186.79,74.47l1.27,0,1.22.07,1.25.12.4.07a23.69,23.69,0,0,1-3-6.28l-.07-.33,0-.48,0-.15,0,0,.09,0,.07.1A3.77,3.77,0,0,0,191.89,70c10.82-2.11-1.36-17.15-5.1-20.43-3.34,3.39-12.63,13.58-8.3,19a4.56,4.56,0,0,0,4.82,1.21l.73-.33.33-.24.28-.24.23-.26.19-.27.31-.52.19-.38.07-.1.09,0,0,0,0,.15,0,.48-.07.33a23.21,23.21,0,0,1-3,6.28l.4-.07,1.25-.12,1.22-.07"
            />
            <path class="cls-3" d="M186.84,251.5l-1.27.05-1.22-.07-1.25-.12-.4-.07a23.6,23.6,0,0,1,3,6.29l.07.33,0,.48,0,.14,0,0-.09,0-.07-.1a3.77,3.77,0,0,0-3.88-2.48c-10.82,2.11,1.36,17.15,5.1,20.43,3.34-3.39,12.63-13.57,8.3-19a4.56,4.56,0,0,0-4.82-1.21l-.73.33-.33.24L189,257l-.23.26-.19.27-.31.52-.19.38-.07.1-.09,0,0,0,0-.14,0-.48.07-.33a23.13,23.13,0,0,1,3-6.29l-.4.07-1.25.12-1.22.07"
            />
            <path class="cls-3" d="M21.4,251.5l-1.27.05-1.22-.07-1.25-.12-.4-.07a23.6,23.6,0,0,1,3,6.29l.07.33,0,.48,0,.14,0,0-.09,0-.07-.1A3.77,3.77,0,0,0,16.3,256c-10.82,2.11,1.36,17.15,5.1,20.43,3.34-3.39,12.63-13.57,8.3-19a4.56,4.56,0,0,0-4.82-1.21l-.73.33-.33.24-.28.24-.23.26-.19.27-.31.52-.19.38-.07.1-.09,0,0,0,0-.14,0-.48.07-.33a23.13,23.13,0,0,1,3-6.29l-.4.07-1.24.12-1.23.07"
            />
            <path class="cls-4" d="M24.19,29.21H18.46l2.87-13.29M17.71,32.7H25l1.5,6.93h-3.9v3.83H32.67V39.63H30.13L23.45,8.76H19.22L12.54,39.63H10.08v3.83H20.2V39.63h-4Z"
            />
            <path class="cls-4" d="M189.63,29.21H183.9l2.87-13.29M183.15,32.7h7.24l1.5,6.93H188v3.83h10.13V39.63h-2.55L188.89,8.76h-4.24L178,39.63h-2.46v3.83h10.11V39.63h-4Z"
            />
            <path class="cls-4" d="M184,295.19h5.73l-2.87,13.29m3.62-16.79h-7.24l-1.5-6.92h3.91v-3.83H175.52v3.83h2.55l6.67,30.87H189l6.67-30.87h2.46v-3.83H188v3.83h4Z"
            />
            <path class="cls-4" d="M18.57,295.19H24.3l-2.87,13.29m3.62-16.79H17.81l-1.51-6.92h3.91v-3.83H10.09v3.83h2.54l6.68,30.87h4.23l6.68-30.87h2.46v-3.83H22.56v3.83h4Z"
            />
            <path class="cls-3" d="M160.31,181.47c.54-19-13-38.66-23.19-53.33l-6.45-8.6-10.3-12.86L109,93.26l-4.52-4.78-.38,0-6.41,7.22-8.36,9.7-8.84,10.8-8.18,10.51c-11.71,17-27.27,36.86-24,59.08,1.67,12.3,10.26,21,22.25,22.94,4.5.46,11.17-.7,15-3.45,5.77-3.11,7.71-6.59,10.58-11.95l.94,0,.48.87-.42,3.15-1.37,5.35-2.54,7.27a101.91,101.91,0,0,1-15.1,25.62l.28.22,1.79-.28,1.6-.09.65-.14c2.92-.41,5.79-.55,8.75-.68l13.83-.13,6.68.09,7.63.52.94.14c3.07.1,6,1,8.88.68l-.61-.77-5.22-7.5L120,222l-3.53-7L113.51,208l-2.41-7.76-.89-5.2.13-1.1,1-.48.66.48,1.69,3.44,1.5,2.39,2.88,3.16a24.87,24.87,0,0,0,14.58,6.26c12.82,1.08,24.38-8.36,26.81-21.13m-2.26-10.76c2.56,21-16.72,37-35,25.15L119,199.63l-2.06-2.57-2.64-4.63-1.36-1.25-1.59-.44-1.47.29-1.36,1-.66,1.33-.15,2.06.2,1.77.61,3.34,1.87,6.5a95.87,95.87,0,0,0,13,25.57l-2.26-.09-6.53-.43-4.7-.2-9.41-.09-9.6.24-5.92.48-.94-.09,1.73-2.3L90,223.05l4.13-8.31,2.55-6.21,2-6.17.74-3,.29-1.35.52-4.06-.61-2-1.56-1.14L97,190.61l-1.7.13-1.23.82c-2.68,5.91-7.36,11.2-13.58,13.28-8.15,2.68-17.78.57-23.52-6.11-7.12-8.31-7.29-20.31-4.7-30.45,6.94-25.13,35.62-57,52.24-76l.24.09,7.72,8.89L123.62,115l4.51,5.93,6.4,8.26,5.26,7.5c8.39,13.27,15.49,24,17.5,40Zm-2.39,1c-.92-10.83-4.9-19.59-10.26-28.86-11.18-18.67-26-36.79-40.18-53.34C88.81,114.23,73,132.52,61.19,153.51c-5.19,9.06-9,20.26-7.57,30.88s8.86,18.8,19.67,18.88c3.5.23,6.42-1.09,9.5-2.44l3.43-2.54,2.3-2.57,2-3.35,1.88-2.72,1.88-1.39c17.72-3.37,2.82,25.84.8,31.06l-5.17,9.28-.1.67,6.83-.19,10.67-.15,5.69.19,1.51.09,2,.2,1.27-.14c-5.16-8.6-13.06-24.42-12.84-34.75,0-5.78,6.66-8.93,10.72-4.78,6.65,16.77,26.68,18.8,35.75,4.21l1.88-4.5.85-3.73.42-3.44Zm-2.88-.14c.13,6-.41,11.38-4.05,16.34-5.07,6.25-12.71,8.25-20.08,5.13l-3.48-2.21L121.88,195l-1-1.44-3.06-5.29-2.64-4.78-1.32-1.34-1.63-.68-2.73.44-3.26-.15-2.2-1.1c-5.26,3.25-8.19-2-11.91,2.92-4.21,7.88-6.14,14.25-15.32,16.73a16.46,16.46,0,0,1-14.58-3.73c-7.32-7.23-7.4-20-4-29.15a22.85,22.85,0,0,0,6,18.34l-2.08-.61-2.91-1.58-.29.09c1.77,18.57,26.23,18.83,28.69.72.06-10.67-15.06-12.94-16.87-2.1l.18,2.67.79,1.78L73,188.07l1.94,1,2,.09.65-.24,1.23-.67.56-.57.42-1-1.17-.24-1.18-1.19-.18-1.58.28-1,1.27-1.15,1.88-.24,1.5.53,1.42,1.38.84,1.87L84.11,188l-.85,1.8-2.17,1.82-1,.48-2.59.62-2.91-.27-2-.77-1.78-1.2-1.47-1.82-1-2.48,0-3,0-.39-2-1.43-2.54-2.54c-5.54-6.72-5-15.82-.66-23,11.35-20.56,26-37.74,41.34-55.24l1,1,.22.33,9.55,11.42,3.91,4.93L128,129.71l7.72,10.71,5.59,8.79,4.7,8.8c5,9.32,2.39,19.51-6.4,25.1.73,6.6-4.88,11.18-11,9.41l-1.84-.77-2.07-1.91-.94-2.06-.14-2.43.79-2.15,1-1,1-.57,2.17-.1,1.36.91.76,1.58-.29,1.34-1,1.05-1.6.48.47.77,1.32,1.14,1.69.72,2.26-.3,1.36-.81,1.41-1.71.9-2.35-.09-2.67L136,178.79l-2-2-2.77-1.2c-12.25-1.92-14,12.95-5.41,19.16,4.2,3.62,10.63,4.93,15.43,1.58L142,196l1.56-1.16,2.35-2.57,1.5-2.39,1.52-4.78-.11-1.25-1.26.81L144.68,186l-1.07.15,2.15-2.78,2.08-3.34,1.51-3.73.65-4.93-.19-3.81,1,3.53Zm-4.61-9.95v-2l-5.41.37-8.84.77-7.24.48.32.9,9.46-.09,5.45-.19,4.24,0Zm-.09,1.73-.15,0-20.5-.19.42,1.1.29,0,19.28,1.3.28-.44Zm-.24-5.35-.05-.77-.47-1.38-.94,0-.09.29-.94-.09-19.76,3.44.15.42h.23v.39h.65l3.2-.39Zm-1.17,9.84.32-.85-19-1.78.28,1.15,2.77.52,12.47,1.91,2.55.44Zm.09-13.66-.65-1.25-.33-.52-.29-.15-5.32,1.44c-5.25,1.25-10.91,2.9-16,4.34l.76.68c7.06-1.36,14.07-2.75,21.13-4.17Zm-1.74,16.39-.09-.15-2.78-.58-5.92-1.05-.34.06.38.14,2,1.91.76.28,4.7,1.16Zm-.8-19.46.85-.52-1.08-1.72-11.15,4-6.49,2.38-2.59.92-1.23.62,1,.43.28-.19,2.63-.71,1.28-.44,7.62-2.24,2.53-.67,3.4-1.1Zm-1.23-3.48.44-.15-1.09-1.82-4.32,2-17.18,8,.61.48.76-.09,18-7.23,1.85-.62.47-.33Zm-1.82,27,1.21-1.19-1.64-.58-1.18-.09.81,2.2Zm.23-30.11.19-.37-.89-1.39-.38-.19L120.7,159.91,118,161.6l.33.19h.85l5.3-2.73Zm-9.08,1.49,7.53-4.78-1.23-1.71-12.09,8.36-8.88,6.35.23.58,2.16-1.3Zm5.65-7.69-1.42-1.82-19,16,.19.57.43-.09,1.59-1.29Zm-2.08-3-.56-.87-.71-1-17.44,17.3.18.71,1.12-1h.2Zm-2.12-3.11-.18-.38-1.18-1.44-15.79,18.73.18.57.33.1,14.29-15Zm-2.06-3.16-1.13-1.47-.23-.49-13.79,19.46-.61,1.19.38.62Zm-2.54,38.81.33-.24-1.18-.28v.76l.42-.1Zm0-42.1-.74-1-.47-.71-.34-.15-12.32,21.18-.51,1,.56.48Zm-2.77-2.87.28-.72-.51-.67-1.09-1.24-11.52,24.51.66.49,4.56-8.36,0-.2Zm-2.59-3.3.24-.87-.8-1.09-.94-1L112,148.26l-.52,2.06.23-.06.47.29ZM120.18,122l.19-.53-.38-.24-1-1.47-.8-.68-.2.91-6.2,22.18-1.83,7,.7.33,3.24-9.35.15-.48Zm-3.2-4.73-2.26-2.78L109,143.57l-.81,5,.72.37.45-1.47,2-7.85,1.79-7.3,3.62-14.3Zm-2.26,57.59v-2l-.51-1.67-.9-1.53-1.36-1.3-1.27-.62c-.3-9.5-12.75-9.6-13.13-.19l-1.26.72-1.65,1.53-1.13,2.58v2.63l.86,2.1.83,1.05,1.23,1.06,1.79.81,1.41.13,2.39-.33,2-1.14c3.43,2.57,7,2.24,9.64-1.29Zm-4.27-46.4,2.62-15.64-.14-.57-2.16-2.72h-.32l-.71,6.21-1,10.33-2,18.44-.33,3.63.76.19,1.68-9.65,1-6.78Zm1.12,95.14,1.74,3h-.51l-2.31-1.86-3.29-3.43-3.39-4.3-.7,1-3.39,4.27L96.61,225l-2.06,1.49c3.45-7.36,7.17-14.67,9.31-22.61l.38,1.53L106.4,212l2.21,5.36Zm-3.29-110.73.43-5.68-3-3.69h-.18c-.37,14.83-.55,29.67-.85,44.5l.89,0,.14-2.59,1.88-23,.33-4.78Zm-4.51,34.6,0-11.47-.29-14.62,0-17-.23-.9L99.9,107.3l.38,3.77,1.94,29.45.56,7.55h.7Zm-2.78.86.94-.19c-1.19-12.92-2.16-26-3.76-38.85l-2.5,3,0,1L97.55,126l1.23,7.27-.14.28Zm-.89-.09L97,130.72l-3.07-16.21-2,2.26-.24.75,5,20.37,2.73,10.84h.38Zm-1.55.81-1.88-6.69-6.08-22.8-.27-.77-2,2.16v.91l9.41,27.77.51-.29ZM97,150.32,87,123l-.76.76-1.17,1.72,11,25.33Zm-1.51,1-9.79-21-1.74-3.39L82.36,129l12.37,22.85.33.1Zm-1.07,1.54-.67-1.19L83.21,133.44l-1.88-3.1-1.51,2,11.34,17.24,2.59,3.79Zm-1.05,1.34L78.93,133.63l-1.22,1.63.05.48,15,19.11Zm-.71,1.71-1.26-1.47L76.62,136.79l-.38.38-.83,1.44L90.59,154.8l.38,0-.13.28,1.36,1.3Zm-.88,2.15.32-.42L82.55,148l-8.08-8.08-.2.05-1,1.72Zm0,1.44v-.39l-.48-.28-18.76-16-.29.15-.88,1.67,12.36,9.23,0,.14,7.62,5.6Zm-.1,1.67v-.29c-7-4.94-14-10.12-21.16-14.86l-.85,1.05-.05.81,1.37.77,18.2,11.27.65.39,1.14.81Zm-1.74.44.14-.11-.51-.33L71.08,150.32l-2.55-1.4-.7,1.2-.24.67,6.82,3.4,14.87,7.54Zm-1.51.7v-.09l-6.06-2.77-3.86-1.86-6.2-2.92-5.61-2.53-.85,1.38.15.3,2.06,1,16.42,6.56,2.54.94.52.3.51-.24Zm-2.63,1.4.8-.48-.18-.33h-.11l-4-1.44-17.32-6.36-1,1.92c6.83,2.33,13.91,4.24,20.84,6.35ZM84.47,165l.38-.59c-7.14-2.12-14.46-3.92-21.63-5.92l-1,1.77.47.38,1.55.24L70,162.17l2.73.43,1.79.47,2.26.39,5.54,1.23,1.7.29Zm-1,1-.47-.15-2.35-.51L65.33,162.5l-3.8-.57-.38,2.1c6.95.66,15.19,2.06,22,2.53ZM82,168.42l.37-.81c-7.1-.84-14.35-1.2-21.44-2l-.19,1.23.13,1.07c6.35,0,13,.52,19.34.57Zm-.76,1.91.29-1-1.32,0-2.17,0-15.23-.09-1.94.24.67,2,2.26-.15,2.16-.09,5.41-.33,8.64-.39Zm-.47,2.21.29-1.1-1.5.09-5.75.53-4.71.33-7,.72,0,.66.72,1.4,7.57-1,9-1.34.24,0Zm0,1.77,0-.54-.14-.22-1.31.42Zm-7.67.71-.28-.05-8.24,1.48-.74.19,1.41,1.78.89-.15,4.56-1.1,1-1.14Zm-4.66,6.16.94-2.19-.27-.09-2.5.66,0,.33Z"
            />
        </g>
    </g>
</svg>
