<svg xmlns="http://www.w3.org/2000/svg" viewBox="0 0 208 326"><defs><style>.cls-1{fill:#fff;}.cls-2{fill:#6f7072;}.cls-3{fill:#1e657f;}.cls-4{fill:#facb1b;}.cls-5{fill:#f8261b;}</style></defs><title>JC-us-4c</title><g id="Calque_2" data-name="Calque 2"><g id="FR_-_EN" data-name="FR - EN"><path class="cls-1" d="M14.83,325A13.84,13.84,0,0,1,1,311.18V14.82A13.84,13.84,0,0,1,14.83,1H193.17A13.84,13.84,0,0,1,207,14.82V311.18A13.84,13.84,0,0,1,193.17,325Z"/><path class="cls-2" d="M193.17,2A12.84,12.84,0,0,1,206,14.82V311.18A12.84,12.84,0,0,1,193.17,324H14.83A12.84,12.84,0,0,1,2,311.18V14.82A12.84,12.84,0,0,1,14.83,2H193.17m0-2H14.83A14.83,14.83,0,0,0,0,14.82V311.18A14.83,14.83,0,0,0,14.83,326H193.17A14.83,14.83,0,0,0,208,311.18V14.82A14.83,14.83,0,0,0,193.17,0Z"/><path class="cls-3" d="M32.6,65c.38-4.51-3.51-8.21-7.57-4.36L24.2,59.4c4.52-2.93,2.3-8.43-2.71-8.69-5.1,0-7.58,5.68-2.95,8.69l-.82,1.19c-4.63-4.37-8.82,1-7.29,5.68A5.24,5.24,0,0,0,15,70.17a3.84,3.84,0,0,0,2.93-1c.81-.61,1-1.77,1.56-2.32.65.34.62.27.59,1a16.39,16.39,0,0,1-2.57,5.58,26.62,26.62,0,0,1,7.82,0,16.28,16.28,0,0,1-2.56-5.58c0-.7,0-.66.59-1,.54.53.76,1.75,1.56,2.32a3.8,3.8,0,0,0,2.92,1c2.38-.08,4.25-2.26,4.69-4.52"/><path class="cls-3" d="M198,65c.39-4.51-3.51-8.21-7.56-4.36l-.83-1.19c4.52-2.93,2.29-8.43-2.71-8.69-5.1,0-7.58,5.68-3,8.69l-.82,1.19c-4.63-4.37-8.82,1-7.29,5.68a5.24,5.24,0,0,0,4.52,3.9,3.84,3.84,0,0,0,2.93-1c.81-.61,1-1.77,1.56-2.32.65.34.62.27.59,1a16.41,16.41,0,0,1-2.58,5.58,26.69,26.69,0,0,1,7.83,0,16.3,16.3,0,0,1-2.57-5.58c0-.7,0-.66.59-1,.55.53.77,1.75,1.56,2.32a3.84,3.84,0,0,0,2.93,1c2.38-.08,4.25-2.26,4.69-4.52"/><path class="cls-3" d="M175.58,260.83c-.39,4.51,3.51,8.21,7.56,4.36l.83,1.2c-4.52,2.93-2.29,8.43,2.71,8.69,5.1-.05,7.58-5.69,2.95-8.69l.83-1.2c4.62,4.38,8.81-1.05,7.28-5.67a5.24,5.24,0,0,0-4.52-3.91,3.81,3.81,0,0,0-2.93,1c-.81.61-1,1.77-1.56,2.31-.65-.33-.62-.27-.59-1a16.41,16.41,0,0,1,2.58-5.58,26.35,26.35,0,0,1-7.83,0,16.47,16.47,0,0,1,2.57,5.58c0,.71,0,.66-.59,1-.55-.53-.77-1.75-1.56-2.31a3.82,3.82,0,0,0-2.92-1c-2.39.08-4.26,2.26-4.7,4.53"/><path class="cls-3" d="M10.14,260.83c-.39,4.51,3.51,8.21,7.57,4.36l.82,1.2c-4.51,2.93-2.29,8.43,2.71,8.69,5.1-.05,7.58-5.69,3-8.69l.83-1.2c4.62,4.38,8.81-1.05,7.28-5.67a5.23,5.23,0,0,0-4.52-3.91,3.82,3.82,0,0,0-2.93,1c-.81.61-1,1.77-1.56,2.31-.65-.33-.62-.27-.59-1a16.6,16.6,0,0,1,2.58-5.58,26.35,26.35,0,0,1-7.83,0A16.47,16.47,0,0,1,20,258c0,.71,0,.66-.59,1-.55-.53-.77-1.75-1.56-2.31a3.82,3.82,0,0,0-2.92-1c-2.38.08-4.26,2.26-4.69,4.53"/><path class="cls-3" d="M15,34.27l-.05-.48V29.16H11.45C10.35,36.24,13,42.9,20.66,42.91A8.81,8.81,0,0,0,27,39.62l.23-.38.29-.38.47-.77.38-.91.27-.85.09-.48.06-.44.09-2.19V11.75h2.64V7.84H21.92v3.91H25.6V25.19l-.19,8.6-.05.9-.09.72-.29.77-.13.29-.29.43-.28.48a5.64,5.64,0,0,1-2.92,1.86A5.25,5.25,0,0,1,15,34.45"/><path class="cls-3" d="M180.41,34.27l0-.48V29.16h-3.48c-1.09,7.08,1.52,13.74,9.21,13.75a8.79,8.79,0,0,0,6.35-3.29l.24-.38.29-.38.47-.77.38-.91.27-.85.09-.48,0-.44.1-2.19V11.75H197V7.84h-9.61v3.91H191V25.19l-.18,8.6,0,.9-.09.72-.29.77-.13.29-.29.43-.29.48a5.61,5.61,0,0,1-2.91,1.86,5.25,5.25,0,0,1-6.39-4.79"/><path class="cls-3" d="M193.2,289.73l.05.48v4.64h3.48c1.09-7.08-1.52-13.75-9.21-13.76a8.79,8.79,0,0,0-6.35,3.29l-.24.39-.29.37-.47.77-.38.92-.27.85-.09.47-.05.44-.1,2.19v21.47h-2.64v3.92h9.61v-3.92h-3.67V298.82l.18-8.61.05-.9.09-.72.29-.77.13-.29.29-.43.29-.47a5.55,5.55,0,0,1,2.91-1.86,5.25,5.25,0,0,1,6.39,4.78"/><path class="cls-3" d="M27.76,289.73l0,.48v4.64h3.48c1.09-7.08-1.52-13.75-9.21-13.76a8.79,8.79,0,0,0-6.35,3.29l-.24.39-.29.37-.47.77-.37.92-.28.85-.09.47-.05.44-.09,2.19v21.47H11.21v3.92h9.6v-3.92H17.14V298.82l.18-8.61.05-.9.09-.72.29-.77.13-.29.29-.43.29-.47a5.55,5.55,0,0,1,2.91-1.86,5.25,5.25,0,0,1,6.39,4.78"/><path class="cls-4" d="M34.51,106.35l4.42,4.54,1.28,1.19,1.45,1.82-.09,3.77h-1l-5.64,4,0,2.15.52.15,2-1.19L41.62,120l.18,1.86-.65-.43-4.85,3-1.46,1.34,0,2.62.56.15,4-2.48,2.35-1.63v3.34l.15,5.07-.11,5.35-.32-.33-.51,0-4.8,3.06-1.46,1.34.09,1.86.52.33,6-3.91.66-.72,0,1.67-.06.63-.7-.29-4.61,3-1.92,1.58.47,2.57.32.24,5.18-3.34,1.26-1,.15,1,.09,7.75,0,5.3-.29-1-1,.19-6,4.11,0,2.91.62,0,3.05-2L39,163l2.64-1.82.62-.95-.15,2.72-.38-.57-.47,0-6,4.1-.56.68.18,2.72.47.05,6.26-4,.67-.76.18,5.59-.18,10.13-.2-.18-.71-.2-5.82,3.68-.85,1.06.18,2.39.56.18,4.14-2.68,2.83-2v2.42l-.53-.66-.56.06-6.15,3.95L34.6,190l.19,1.91.52.34.9-.72,2.63-1.62.19,0,3.34-2.06c.29,12.6-.25,26.12.32,38.62L44,227.65l.9.42.56-.33c-.07-6.47-.55-14.73-.19-21.18l1,.34.85.24,2.12.86,6.26-4.54,5.07-3.63,1.55-.81,1.41.1,4.33.95.66,4.73.42,2.39.29,2,.8,5.26.23,3.82.38,3.64.09,6.93-.23.24-1.18-.29-2.54-.52-1.69-.11-.66-.33L65.94,226l-.38-1.43L63,222.39l1.79-3.31-.05-1-3-2.72,1.94-4.16-.19-.91-3.16-2.67,1.46-3.83-.23-.82-12.23,8.56,1.18,4.4,1,4.59,1.17,4.67,5,.92v.48c-6.06,3-7.64,9.41-1.64,13l.32-.14.38.24,2.3,0,1.09-.44L61.61,238l.84-2,0-2.1-.14-1.58.37-.05-.14.34.38,0,.76,2.06.09,2.59-.9,6.91-.42.35-1.65-1.1-1.7-.24-1.3.33-.81.57-.89,2.2.38,1.38,1.27,1.44.65.35,1.32-.3.61-.57.28-1.48-1-1-.89-.34.42-.43.75.05.66.15,1.17,2L61.27,257l0,5.07.66,4.3.81,2.48.36-.19-.18-.77.29-6.39,1-6.22.14-5-.1-2,.19-1.82.66-3.45.85-2.34,2.82-5.35L72.29,230l.65-1.19.24-.19.28-.38.09-2.54c-.83-16.76-3.15-31.7-8.75-47.74l-2.63-6.6-4.28-9.46L55,156.2l-3.64-6.27L50,148.26,48.71,146l-4.32-5.64c.18-5.52-.35-10.78-.24-16.25l.38-.09,3.86,3,5.36,5.37,1.88,2.29,3.16,3.77a148.49,148.49,0,0,1,18.47,38.42l-.32.44.43.09,2.1,6.88L80.7,189l3.62,15.44.57,3,.71,5.2.14,3.25.6,9.32,2,.77,1-.57,1.6-.71,3.15-1.35,4.7-2.2,8.52,4.63.71.35-.24.33-.29-.2-.09.3H107l-2.92.47-2.36,1.2-2,2.33-.51,1.06L98.43,235l.11,1.24-.2,1.67.2,1.53c-.33,10.88,2.28,22-2,32.6l3.11,0,1.17-.28,2.16-.24,5.93-.77,2.64-.42,4.89-1,6.58-1.78,1.23-5.68.62-3.92,1.54-9,.43-1.14,1.88.81h1.59l.85-.43.47-.15c3.23-2.48,2.6-5,2.07-8.17l1.13-.67,0-3.3-.36-.34-4.71-1.85-1-.48-5.31-2.83L117,227.17l-.94-.24-1.12-.86-1.7-.81L99.42,218l-.88-.09-1.56.62-6.53,3-1.23.86-.94-7.79,0-.72,0-1,.23,1.05.42.72,2-.48,2.68,5.26.62.2,1-.68-.05-.85-1.84-4-.1-.48,2.21,4.63.62.54.75-.48v-.77l-2.26-5.11.1-.53L98,210.3h1l.86.38v.81l-1.57,5.16.1.76.47.2.6-.81.15.76.43.44.89.14.43-.44,2.39-4.92.47,0,2.87,1.67.09.57-2.44,4.73.24.77,1,.42.56-.18.1.38.66.72,1.08.09,2.12-4.45.74-.9,3.07,1.62v.43l-2.4,4.92,0,.29.71.63.74-.06,1.79-3.25-1.41,3.16-.09.48.56.53,1.08.28.42-.43,2.32-4.54.32-.24,1.32.52,1.92,1.16.19.51-2.45,4.6.09.81.72.48,1,0,.15.38.46.43,1,.28,1.56-2.63,1.54-2.52,3.16,1.32.27.83-2.53,4.78.09.42.42.43.94.34.52-.34,0,.71.85.53h.81l2.82-5,.84-.15.29-.28.23-2.15.09-5-18.2-9.46-15-8.37-.27,0-.72-.38-7.89,3.1-1.61.87-2,.62-1.36.28c-.83-5.05-2.32-10.14-3.11-15.15l.61-.62,5.23-6.31,3.94-5.68,3.11-5.59,1.83-2.53.47-.2,1.92,2.24-.36,2.2.14,2.1,0,15.31.14,5.53,2.92,1.68,4.66,2.24.75.39.38-20.94h.41l3.35,2.92,6.35,4.69,3.29,1.91c4.9,2.41,7.49,4.29,13.26,5.39l-.05,6.74-.33.48.33.77.05,13.86-.32.28.32,1-.05,5.45v11l-.18,1.44h.32l1.52-.86,2.1-1.49-.14-.28-1.22.42-.79-1-.06-.48,2.17-2.72-.14-8.66-2.82-3,.14-.33,2.59-3.07-.05-9.55-2.39-2.49.09-.42L140.4,202v-2.12l.22-1.29,4.7.34.15,2.11,2.31,2.91.09.62-2,2.44-.62,1.05v6.45l.15,2.34,2.21,2.24.23.72-1.46,2.5-1,1.23v7.22l.29,1.11.89-.77,3.91-3.59v-9.27l0-18.45.13-1.38,1.79-.57,4.47,4.49,2.68,2.48,3.86,3.29-.14,1.78.23,5,4.23,4.35,5.09,4.78.51-.2.15-1.62-.2-1.16-2.54-2.38-4.55-4.78-.29-.81-.09-2.82.23-1.34.51.67.76-.19,6-4.1,0-1.82-.66-.29-6.39,4.11-.29.61,0-3.44.47,1.2.52-.15,6.4-4.25,0-2.05-.27-.48h-.47l-6,3.58-.7.87-.18-2.91.14-2.92-.09-4,0-4.64.09-.33.38,1,.8-.15,6.31-4.24,0-.92-.23-1.1h-.46l-5.32,3.34-1.28,1-.23.95-.22-1.38,0-1.58.18-1.1,0,.53.38.67.33,0,4.23-2.63,2.4-2v-2.15l-.34-.33-1.17.48-5.65,3.64-.27.61-.09,0c0-5-.18-9.94,0-14.91l.27,1.23.71.15,3.85-2.53,2.82-2,0-2.48-.53-.2-5.68,3.45L165.84,167l-.19-.48.15-7.31-.15-.76.06-1.58-.11-3.07.15-7.88.47.86.61-.15,3.1-1.85,3.58-2.35-.06-2.43-.69-.2-6.45,4-.51,1-.2-.72.2-2.54,0,.58.79.38,3.06-1.91,3.76-2.58-.13-2.44-.52-.09-5.08,3.25h-.65l-.24.42-.76.48-.27.72-.24-.81.15-3.82-.2-.68.2-9.21.32.51.89-.24,4.67-2.77,1.92-1.43,0-2.1-.33-.43h-.37l-1.93,1.15-2.5,1.38-2.49,1.67-.28,1.19-.09-1.76.28-1.24.14.24.61.19,6.86-4.3.06-2.39-.53-.24-5.91,3.44-1.36,1.05c-.36-6.24,0-12.48-.2-18.74l-2.4-1.85-.37.42-.23,1.82.09,17.73-.24,1,.18.72-3.24-1.62-1.93,1.09-7.47,5.16-3.77,2.73L140.2,127l-1.17-7.7-.66-3.62-.19-3.49-.42-5.12-.33-3.16.14-5.2.1-.29,2.91.33,1.93.62.28.77-.18.61,0,.72.91.82,1.73,1.48-.32,1.15-1.6,2.62.33.86,2.81,2.44.05.58-.65,1.52L144.54,115l.27,1,3.35,2.77L146.89,122l-.25.86-.51,1.47,9-6.3.51-.34,2.73-2-.47-2.24,0-.39L156,105.3l-.47-3.25-4.75-.91-.1-.44,1-.61L154.13,98l1.18-2.09-.15-.11.57-1.77-.24-2.63-1.27-2.15L152.77,88l-1.7-.62-2.68.23-2.11,1.54-1,2.82.33,3.16-.61-.24-.71-1.15-.14-1.15V89l.81-4.68.14-1.3,2.12.92,1.92.13.76-.28,1.64-1.43.28-1.44-.42-1.72L150,77.82h-.94l-1.13.62-.38,1,0,1.34.71.76.47-.06.57.15-.48.53-1.07.33-.94-.66-.67-1.54,0-2.15.33-2.91.52-8.84-.52-4.69-1-3.49h-.38L145,61.48l-.61,7-.8,2.72.19,8.6c-1.16,7.76-5.16,13-9.22,19.27-.15,2.77,0,5.41.09,8.21l.61,5.59.05,1.73.33,3.44.15.71-.1.24.13.29c3.92,24,12.65,47.39,26.82,67.1-.23,5.14.18,11.24,0,16.21l-.29,0-2.54-2.3-3.25-3.2-5.73-6.45-3.53-4.78-1.45-2.15-3.67-6.36a172.63,172.63,0,0,1-18.91-58.35l-.81-10-.42-3.45-.09-3.53-1.28-.76-1.59-.62-.19.62-1.46.7-5.92,2.54-2.5.91-6.54-3.58-.65-.24-1.27-.86-.65-.15v-.29l2.44-.19,1.59-.33,1.32-.2.75-.33,1.84-1.71L109,95.21l.46-2.1.38-4.3-.09-2.48c-1-5.59.07-10.19-.65-15.73l.18-.91.14-1.63-.18-2.1,1.22-6.49,1.46-4.93c-7.64.65-19.32,2-27,4.35-.85,3.59-1.09,7.16-1.84,10.75l-.47,1,0,1.25-.5,1.87-.06.66-.79,2.82-.53.47.29.15-.19.48c-4.1-1.7-7.18.32-7.24,4.83l.7,3-.85.53-.32,1.91.51,1.88.94.61,34,17.88,1.26,0,8.43-3.73.71-.61.85,9.08-.2.48-.09-.87-.47-1-1.12.48-.81.15-2.16-4.49-.67-.86h-.51l-.9.53.2.7,1.83,4.6-2.36-4.84-.65-.22-.66.37.14.62,1.61,3.83.6,1.82-.42.23L109.77,117l-1.59-.62,1.41-5,.18-1.62-.51-.1-.9,1.14.24-1.24-.76-.52h-.71l-2.57,5.26-.67,0-3-1.82,2.24-4.54.25-1.2-1.13-.7-.85.61,0-.81-.81-.66H100l-2.7,5-.41.14-3.11-1.62,2.21-4.4.28-1.25-.42-.42-.9-.19-1.17,1.72.75-2-1-.82-.74,0-2.08,4-.94,1.3L86.34,105v-.57l2.45-4.64v-.71l-1.09-.72-.83.24-.09-.53-.85-.57-.71-.1-2.82,5-.71.1-3-1.72,2.62-5.35-.18-.48-.81-.48-.65,0-.56.63.14-1.05-.34-.29-1-.39-.47.44-1.6,3-1.13,1.62-.8.09a20.75,20.75,0,0,0-.51,6.84l7.38,3.82,27.75,14.91,11.06-4.48.7.09,1.41,7.35.71,4.5.51,1.92,0,1.1-1.41,1.52-1.93,2.34-1.6,2.72-3.85,5-3.76,6.08-1,1.86-1,2.3-.85.71-1.21-1.28,0-1.05V153l-.15-2.06.15-.53-.15-1.38.2-2,0-5.92-.24-.14.24-7.89-.19-4.69.09-.71-2-1.14-2.64-1.34L98.1,123.5l-.23.77L98,125.7l-.24,2.1.2,2-.23,2.44.18,5.59-.33,6.5,0,2.19h-.48l-3.89-4L90,139.62l-1.79-1.4L87,137.36,84.7,135.5l-.52-.62h-.46l-2.35-1.48-1.18-.67-1.46-1.15-2.35-1.1-1.61-.86c-2.69-.73-2-1.31-4.51-1.67l.09-21.36-.14.38-.24.09-1.92,2.78-.66.66-.13,4.4-.06.58.09.24.15,3.58,1.64,1.81.53.11.45-.11L67.53,124l-.24,2.85-4.46-.9-.15-2.68-1.74-1.9,1.65-2.2.14-5-.18-2,.13-2.39L60.06,107l.09-.38,2.44-3V96.88l-.14-.81-.84.77-.7,1h-.58l-2.86,2.86.09,2.59-.14,22.23-.15.13-3.24.2-1.74,0-3.48-3.09-4.18-3.07-.53-1v-6.36L37.62,106l-3-2.67-.09,0m1.5,9.38-1.14,1.91.29,1.91,1.17,1.29,1.47.05.74-.48.71-1.1L39.6,115l-.47-1.8-1-.73L37,112.37Zm-1.18,92.57-.29,2.86h.33l.25.15,2.44-1.39,3.8-2.25.85-.52,0-2.92-.62-.14Zm.24,28.82-.62,1.14.15,1.82.7.2,5.55-3.55,1.65-1.28.18,11.94-.23,1.25-.62-.2-7.19,4.83.09,2.43.57,0L42.6,248l0,1.53h-.9l-4.18,2.68-3,2.39.09,2.09.27.3.43-.06L42.65,252l.09,6.45-.05,4.11.24,3.83,2.58.09.06-3-.2-10-.09-10.71,0-10-.2-.2L43.21,232l-.56.38,0-.42-1.88-1.25-1.07.48Zm-.53-1.77.24.85h.52l4.52-2.85.19-.49-1.32-1.77-3.48,2.06-.7.9ZM38.8,207l-4,2.78.14,2.43.94-.34,4.47-2.48,1.79-1.34.11-2.59-.72-.13Zm-2.69-74.79-.51,1.95.75,1.73.79.71,1.7.09,1-.75.56-1.3-.23-2.19-.9-1.25L37.66,131l-.74.24Zm.75,18.58-1,2,.05,1.33.57,1.24,1.22.87,1.65-.19,1-1.06.56-1.82-.37-1.95-1.13-.9-1.36-.15Zm-.47,23.71L36.11,176l.19.76,1.18,1.39.74.15,1.23-.44.8-.86.61-1.62-.19-1.77-1-1-1.56-.09-1.08.62Zm.53,20.21-.67,1.54,0,1.23.42,1,1.08.81,1,.19,1.08-.67.84-1.14.19-1.67-.52-1.25-1-.77-1.56.11Zm.22,44.94-1,1.56.1,1.25.42,1.38,1.46,1H39.6l.88-.61.67-1.82-.29-1.91-.89-1L38,239.45Zm-.56,20.5-.23,1.28.19.81,1,1.3.89.33,1.5-.14.85-.77.47-1.67-.52-1.82-1.12-.85H38.28l-1.09.48Zm8-114.47.09-.33h.23l2.92,4.1,2.49,4,3.19,6.25,5.41,11.76,3.2,8.27,2.31,7.06,2.07,8,.23,2-1.32-.19-1-.29-2.64-.24-2.39,1.77-6.82,4.45L50.18,204l-.89.57-2.93-1.49-1.64-.9c.3-16.67-.5-33.73-.13-50.42Zm6.95,115.66-1.07-.24c3.52,5.14,1.61,13.78,6.66,17.87l1.14-2-.15-.48.8-.67.14-.91-1.54-1.24.33-.2,0-.66-1.6-1.63.38-.34-.05-.95-1.08-.9-.24-.34.43-.14-.14-1-1-1.1.27-.72-.51-.86.46,0,.28,1.44.53,1,.47-.14.32,1.71.53,1.3.47-.15.56,2.58.76,1,.22-1.19.23.86.53.63.32-.39.44-.19,1.3-2.48L59.3,267l-1.83-2.35L55.39,263l-1.59-1Zm4.23-130.67-.38-.67c7.51-1.6,15.12,1,21.51,4.84,18.2,9.38,27.45,29.08,44.3,40.18a48.65,48.65,0,0,0,19.94,7.08l1.41,2.48,3.35,4.63,2.49,3.16H148l-.2.33-.71.24-5.54-.38-3.34-.37-2.12-.53-1.46-.43-4.37-1.43L126.76,188l-4.67-2.58-5-3.87-8.14-7.31-6-6.59-8.37-8.18L92.28,157c-6.65-5.63-14.61-11.9-23.2-14.08l-2.15-.82-1.75-.34-.15-.14-.74-.19-.47-.77-2.68-3.53-3-3.64Zm3.82-22.84-.33-.53.65.15,0,.48Zm7.7-11.94.1,7.55,1.28,1.33,1.83,1.67.09-17.54-1.92,1.25-1.18,1.14.09.33.33.06.09-.33.8-.35,1,1.3Zm.95,51.47.43-.1,6.06,2.63,4.32,2.24,1.42.82,5,3.87L89,160.45v.62l-3.85,6.21-5.12,6.89-2.32-6.36-1.5-3.69-1.88-4.39-2.59-5.54ZM81.5,178.13l.47-.28,0-.39L83.29,176l2.64,2.77.14-.14,1.36,1.58,1.84,1.62.22.62L88,184.3l-3.72-3.54-2.16-2.3Zm1.13,5.79-.19-1h.43l3,3.3-.13.81-1.66,1.71-.36-.13-.58-2.3Zm2.68-82.35,0-.33.2-.1Zm0,72.69.71-1.39.52-.48L88.28,174l3.56,3.73.2-.09.28.72L91,180.09l-5.27-5.21Zm2.5-3.54.28-.81.71-1.34.52-.43,5.45,5.59v.53l-1,1.57-.33.15-1.23-1.24-.7-.86-2.16-2.06-1.13-1.34ZM91,110l-.38-.18.38-.29Zm-.2,55.79L92,163.64l.33-.22.05.33.18.28,3.16,3.2,1.69,2-.75,1.34-.75.61-4.42-4.64-.25-.57Zm1.41-58.36-.27-.09.18-.2Zm.76-1.91.18-.53.2.2Zm5.7,6.54v-.28h.37Zm10.86,46.84.38-.86.94-1.15,5,5.11.58.15-.81,1.1-.71.91-.56-.1-3.67-3.78ZM111.8,155l.41-.86.71-.86h.61l4.71,5.07v.71l-1,1.11-3.86-3.55L112,155Zm2.39-4.26.38-.81.66-1.05.42-.29c1.31,2,4.11,3.51,5.59,6l-.22.59-1,.9-.33-.09Zm1.17-36.27-.18-.81.65,1.77ZM117,147.06l1.18-2,.37-.29.37.2,5.41,5.4v.42l-.74,1-.85.77Zm1.31,20.75.28-.34,1.09-1.81,3.29-5.16,2.35-3.16,2-2.72.85-.63.79,2.63,1.65,4.41,5.7,13.14L137.9,177l-.42.67c-6.14-.65-11.62-3.95-16.6-7.46Zm4-23.38-2.12-1.85.9-1.49.79-.28,3.39,3.25.24.76.74,3.58-.45.06Zm18.86-13.51.28-.49H142l4.18.77,3.77-2.54,7.76-5.29.51-.57.39-.11,2.06,1.19,1.83.81.29.5-.23,1.23.23,9.13-.09,4.4.18,5.35.24,4.83-.09,1.81-.2,21.55.34,8.9-.52-.34-2.92-4.49L156.62,172l-3.34-6.35-1.88-3.82-2.91-7.22-3.53-9.8Zm5.54-75.23,0,.66,1.13,2.39,2.64,3.49,2.62,2.3,2.36,1.29,2.78.77c-4.66-6.47-.64-12.72-7.06-18.16l-.9,1,.62.35-.24.47-.18,1h-.2l-.7.87.05.37,1.73,1.58-.61.29.05.29,1.94,2-.81.24.38,1,1.64,1.43-.51,0-.56.15.51,1,1.23.94-.71.25.6,1.57-.79-.13-.38-1.78-.51-.34-.24,1L152,59.32l-.47-.58-.29.53L150.37,55l-.52-.38-.28,1.82-.33-1.54-.34-1-.74.39-.09,0,0-1Zm15.87,9.52L162.6,69l-.09,3.24.13,2.68,0,.42V91l-.06,3.58.29.87h1.27l1.55.62-.14-.81,0-4.21V80.87l.29.86.65.2,5.75-3.69,1.45-1.19V75.23L173,75l-4.18,2.54-3.09,2.29-.2.67-.14-.63,0-1.28.14-1.77.15.86.74.24,2.21-1.54,1.14-.57L173.6,73l.05-1.92-.33-.18-.34-.06-5.73,3.64L165.6,76l-.23-.09.14-1.25-.24-7.41.15-2.43,0-3.73-.19-.38h-2.54Zm5.64,28.14-2.4,1.77.09.71.7.63.9.47,6.16-4-.09-2.2-.57-.22Zm-2.35,48.07-.15-.75h.19Zm.09,21.42.09,1.57.33.34.47-.1,6.73-4.54-.06-2.48-.47-.29-6,3.73-1,1Zm1.45-97.5-.09,1.34.29,1.1,1.21,1,1.7-.05.89-.68.57-1.66-.28-1.34L170.5,64l-1.46-.2-1.09.49Zm-1.5,143.19.19-.44v.53Zm2.4-125.45-1,1.61.09,1.64.47,1.19.85.57,2.08-.14.89-.87.32-1.56-.61-1.93-.84-.66-1.08-.29Zm-.85,47,0,1.47.43,1.2.75.58,1.64,0,1-.77.53-1.33-.19-1.87-1.32-1.23h-1.12l-1.28,1Zm.24,42.43-.62,1.87.1.62.66,1.58,1,.52h1.18l1-.67.89-1.48.05-1.73-.38-.9-1.36-1.05-1.37.15Zm.18-22-.65,1.44.47,2.05.79.72,1.7,0,1-.68.62-2.09-.28-1.53-.81-.86-.65-.3-1.18.24Zm.76-53.29-.51.72.13.44.85.86.7.13L173.45,97l.1-2-.28-.33-.51,0Zm-1,95.22-.13,1.32.13.77.49,1,.93.62h1.55l1-.91.28-.81.14-1.58-.47-1.14-1.07-1H169l-1,.86Zm.81,18.73-.32,1.19.46,1.58,1.32.91,1.6-.28.84-1.25.23-1.67-.47-1.25-.94-.76-1.08-.1-.51.19-.85.76Z"/><polyline class="cls-5" points="34 270.37 34.13 272.24 34.09 274.25 34.19 274.43 34.28 275.11 34.19 275.68 34.37 276.34 34.28 281.17 34.6 286.43 34.42 286.62 34.66 287.19 35.69 287.19 35.51 286.91 35.78 286.19 36.77 284.56 39.54 280.69 42.18 276.63 42.46 276.49 42.69 275.86 44.81 272.57 46.89 270.04 49 266.78 45.01 266.78 37.75 266.88 34.66 266.88 34.23 267.17 34.28 268.6 34.04 268.84"/><polyline class="cls-5" points="34.6 265.93 34.19 266.02 34.42 266.36"/><path class="cls-5" d="M44.68,151.9c-.08,8.35.54,17.3,0,25.56.22,5.14.48,11,.47,16.16l1.68,3.29,2.68,5.79.85,1.29.33,0,3-2.2-4-8.9L49,190.46,48.62,175l-.23-16.76.23-.81,3.53,7.35,1.79,4.3,1.69,4.39,1.6,4.6,2,4.87,2.06,6.4,1.74,6.93,4.29.86.14-.42-1.7-6.18-1-3.47-1.92-6.23-3.82-9.36-.75-2.39-1.69-3.78-4.42-8.5-2.58-4.69-2.93-4.48-1.18-1.3-.74-.28"/><path class="cls-5" d="M51.64,289.68l-.25.48,1.18-.2,8.57.15.33.05,3.89-.09L83.61,290c18-.16,36.1,0,54.15-.13l.05-.58-.94-1.05-1.23-1.91-2-2.82-4.33-6.32-2.83-4-1.18-2-.69-.81c-3.29.87-6.68,1.6-10,2.49l-8.83,1.49-2.27.23-1.88.28-5.55.29-.19.06a131.47,131.47,0,0,1-33.72-3.69l-2.6,4.26-3.27,5.78-4.11,6.88v.19"/><polyline class="cls-5" points="53.85 209.19 53.75 209.63 53.99 210.44 54.83 213.97 55.54 216.18 55.54 216.8 56.06 218.51 57.47 224.15 57.74 225.4 58.41 226.78 61.38 226.93 61.38 226.64 59.15 223.92 59.3 222.63 59.63 222.63 60.56 220.62 60.71 219.76 59.21 218.71 57.61 217.08 59.39 213.16 59.63 212.35 56.77 210.29 57.27 208.86 57.98 206.47 57.52 206.71 57.23 206.53 56.67 206.71 55.73 207.48"/><polyline class="cls-5" points="62.55 105.72 62.23 107.02 62.36 107.54 63.06 108.55 63.86 109.07 65.56 109.36 66.59 108.46 67.11 106.64 66.93 105.44 66.35 104.77 65.41 104.29 64.33 104.14 63.44 104.44"/><polyline class="cls-5" points="63.77 119.25 62.88 120.54 62.97 121.69 63.3 122.5 64.43 123.7 66.17 123.46 67.39 121.97 67.49 120.78 67.11 119.67 66.17 118.92 65 118.68"/><polyline class="cls-5" points="67.71 90.91 65.23 92.97 65.32 93.15 66.17 93.5 67.2 93.15 67.96 92.43 68.05 91.15"/><path class="cls-5" d="M70.78,37.29l.09.24,4.47,6.93,1.41,2,1.42,2.19,5.5,7.56.94-.52.88-.25,5.61-1.33,2.63-.68L102.48,52l3.86-.43,4.52-.42a128.8,128.8,0,0,1,36.25,4l2.5-4.07,7.52-12.66.8-1,0-.62c-27.34-.1-54.7.23-82,.33"/><polyline class="cls-5" points="73.27 120.83 73.41 126.18 73.37 128.04 73.55 129.38 76.79 130.92 81.31 133.5 83.1 134.6 88.51 138.37 92.8 142.28 94.16 143.24 93.97 142.19 94.11 139.23 93.83 134.54 94.01 124.89 94.3 117.96 93.97 117.05 83.05 111.27 74.44 106.53 73.7 106.29 73.5 107.54 73.64 108.98"/><polyline class="cls-5" points="87.52 189.93 85.26 192.47 86.53 198.68 87.7 205.7 88.1 206.38 89.36 205.9 96.84 202.65 97.83 202.02 97.96 201.41 97.78 200.92 97.83 195.48 97.59 187.69 97.72 185.63 97.45 176.18 97.25 175.88 97.02 176.27 96.78 176.12 95.48 178.27 89.83 186.78"/><polyline class="cls-5" points="89.31 226.12 88.98 226.3 89.22 226.55 93.92 229.23 98.9 232.9 100.83 229.36 102.57 228.07 105.39 226.93 108.41 226.97 110.48 227.55 108.5 226.16 103.98 223.97 101.78 222.72 99.8 221.86 99.28 221.19 94.3 223.38 92.37 224.49 90.39 225.26 90.25 225.5"/><path class="cls-5" d="M98.9,99.8l-.42,0,5.41,3.1,4.85,2.49.85.28,4.56-2,4.89-2,.23-.61-1.21-1.25-3.68-2.15-2.2-1.49-1.89-1.58h-.66c-2.52,4.44-4.26,6.42-9.64,5.51"/><polyline class="cls-5" points="110.57 130.87 110.66 148.46 110.62 150.46 111 151.99 112.03 149.93 115.23 144.67 119.04 139.38 123.27 134.54 122.47 131.16 120.73 119.88 120.45 119.82 114.89 122.12 111.98 123.84 110.66 124.95"/><path class="cls-5" d="M114.62,191l-.2,17.1.15,1,5.88,3.16,5.73,2.67,3.07,1.87,5.69,2.81c.57-5.6-.13-11.21.28-16.82l-.19-.57.14-1.76-.18-2.59.23-.48-.34-.81-1.12-.2-4.79-1.8-7.44-4.12-6.44-4.69-.47,3.88"/><path class="cls-5" d="M141,130.67c2,10.27,4.07,14.29,7.38,23.38,2.73,8.29,7.72,16,10.91,23.84l.43.05.84,1.62h.23l.81.92.47.28.57.71.61,0,.14.19.13-.33.1-7.41,0-1.25-.15-1.23.15-.59c-.56-12.23-.11-24.6-.33-36.74l-.76-1.2L159,124.65l-.85-1.72L155,125.08l4.32,10.42v5.92l.2,6.8-.2,20.68-1.21-2.72L155.25,160l-1-2.72-4.37-10.61-4.28-15.11-.57-.42-2.81-.53"/><polyline class="cls-5" points="142.19 232.52 140.91 233.71 141.14 234.52 142.04 235.05 143.4 233.81 142.97 232.85"/><polyline class="cls-5" points="141.76 217.79 141.01 219.09 141.1 219.95 141.57 220.77 142.75 221.86 144.81 221.53 145.76 220.38 145.57 218.66 143.97 217.37 142.7 217.32"/><polyline class="cls-5" points="142.23 201.93 141.43 203.18 141.66 205.33 142.28 205.94 143.55 206.33 144.81 206.23 145.57 205.46 146.28 204.08 145.81 202.61 144.76 201.55 143.26 201.36"/><path class="cls-5" d="M147,100.43l-.23.09.09.48.94.86,1.18,1.47.09,1-.62,1.24-.89,1.63.75.76,2.55,2.29-1.94,4.26.1.48.19,0,2.35,1.73.05,1-1.22,3.3.09.38.56-.29,3.62-2.87a166.33,166.33,0,0,1-4-17.3"/><polyline class="cls-5" points="165.42 51.05 158.92 60.52 159.34 61.18 165.22 61.18 174.12 60.94 173.83 57.6 173.98 52.53 173.88 47.18 173.98 39.29 173.74 39.16 167.63 48.09"/><path class="cls-3" d="M34.93,269.32v.53l.9-.05,7.44,0V270l-6.17,9.08-1.56,2.05-.61.67v1.34l6.82-9.75,2.59-3.82-.19-.44-1.46.06M35.22,102.86l-.29-.28v87.55l.14-.53,2.59-1.71,4.14-2.54,0,2.34L35.27,192l-.34-.48v40.15l.2-.72,3.76-2.25h.33l.85,1.2-3,2-2,1.19-.1-.82v19.31l0-.77,5.27-3.53,2.21-1.19-.09,2L35,252.68l-.1-.23V255l.94-.91,6.5-4.16.05,2.06-7.49,4.87v10.7l1.32-.13,11.47-.24.05.37L37.33,282.75,35,286.1l0-.05v1.43l13.6-19.6.62-1.33-.62-.25-.28.06-1.89-.15-.23-3.29,0-2.3L46,259l.09-2.24L46,252.17l.11-3.11-.2-15.15.15-1.3,1.93-.9,2.1-1.53,2.7-4.3,2.11.28,2.39.53.11.15-1.23.51L54,229.13,53,230.75l-.85,3.11.38,2.3,1,2L55,239.59l1.35.67h2.36l1.59-.48,1.56-1.24.94-1.72.32-1.44-.23-1.76.19-.2.51,1.87,0,3.83-.7,3.62-.09,1.69-.67-.59-.74-.33-.85-.33h-1.7l-1.27.62-1.27,2,.09,1.62.38,1.1,1.41,1.25h1.45l1-.72.47-1.3-.09-1-.71-.57-.85-.09-.33-.34.48-.34,1.07.2.85,1.14.28,2.35-.56,7.06v5.37l.42,4.19.76,2.68-.33,1.4-.38.13-1.32-2.15-2.49-3-2.63-2.11-.76-.39L52,261.19l-1.23-.38-.52.29,1.6,3.44,2.12,10.27.71,1.53,2,3.07-4.57,8-.85,1.24-.42.86h88l-.7-.39-1.37-2-7.24-10.61-5.88-8.84.41-2.76,1.85-10.9,1.41-5.37c5.7,2.95,9-4.32,7-8.31l.62-.09,1.64-1.05,6.21-4.39,4.47-3.69,3.76-3.44A47.87,47.87,0,0,0,163,209.91l0,4.89.24.46,5,5,4.8,5,.18.33V110l-.13,1-2.59-.28-1.75-.53.48-.51-.39-1.49,3.82.66.56.39V72.65l-.94.77L166,77.53l-.14-1.72,4.32-2.92L173.22,71V57.65l-.75.13-6.4,0-.8-.14,1.13-1.77,1.23-1.67,3.61-5.35,2-2.54V37.43H100.27l2.07,0L103,39.2l2.35,7.55.71,1,5.41-.05,13,.43.32-.57,1.6-6.7,1-3.2,3.94-.09.8.14-1,2.25-1.69,5.78-.85,2.43.42.44,5.5.72,2.5.42,3,.29,5.22,1,.8-1.14,6.87-12.28,3.48.09-.47,1.14L145.1,57.65a106,106,0,0,0-37.41-3c-7.13.37-15.1,2.35-22.2,3.68l-1.17-2-3.85-5.64L72.94,39.49l-1.27-1.67.56-.39H70.12l8.37,12.38,6,9V60L84,63.15,81.82,74.8,80.7,78.15C75.42,75.38,72,82,73.64,86.46l-.51.15L69.61,89l-7.67,6.35-7.49,8.41-4.23,6.21-3.28,5.7L44.81,119l-.18-.25-.15-6.45L38,105.83Zm6.44,10.47L35,106.88v-2.54l.66.29,7.85,7.74c.55,38.42,1.26,76.91,1.46,115.33l-1.73-1.2c-.4-9.17-.35-18.79-.38-28-.21-27.65-.44-55.16-1.09-82.82Zm-6.68,15,.05-2.39,6.07-4,.14,2.48-6,3.92ZM35,123.7V122l6-4,.18,0-.09,1.85-4.94,3.22ZM35,148.84v-2.35l6.35-4.15.15.28-.2,2.39-5.83,3.73Zm.05-4.78v-1.68l6.3-4.2V140l-5.73,4Zm.28-28-.13-1.34.22-.62.76-1,.85-.28.89.1,1,1,.1,1.82-.28.82-1.13.94-1.23.06-.7-.67Zm1.55,52.72-1.88,1v-2.16l.15-.47,4.47-3.06,2-1.19.09,2.57ZM35,165v-2.39l5-3.46,1.56-.75,0,2.48L35.31,165Zm0,22.64.24-2.62,4.27-2.67,2.22-1.25.13,2.15L36.21,187Zm.09,20.55-.14-.81.2-1.52L38,204l1.75-1.2L42,201.6,42,204Zm-.14,28.63.14-1.81.24-.24,5.84-3.63,1.09,1v.39l-7,4.69Zm.14-12.08L35,222.92l.2-.86,3.24.66,1.79.29,1,.67.09,1.28-.7.48-1,.06-3.53-.57Zm.15-3.26L35,219.85l.05-.18.24-.34,4.09.67-.33.72.28,1.05.47.29.19-.29-.34-.58.44-1.1.88.15.53.62v1l-.67.39-2-.15Zm-.24-3v-1.82l1.6-.05,1.37.29,2.3.29,1,.67.15.86-.38.48-.8.09-.47-.77.14-1.14h-.34l-.56.52.47,1.49-3.85-.57Zm0-2.86.05-2,.24-.09,1.5.18,3.48.57,1.23.63.09,1.06-.47.37-.94.2-4-.68-.24.06Zm.05-3.35v-2.2l6.86-4.21.2,1.19-.14,1-1.56.91-4.52,2.91Zm1.83-76-.94-1.73v-1l.43-1.15,1.18-.86,1.63.24.67,1.05.09.95-.14,1.63-.89.86-.8.33ZM36.11,154l.43-2,1.26-1.15,1.47-.14,1.07,1,.19,1.76L40,154.91l-1.5,1.1-1-.11-.85-.71Zm.28,22.12.62-2.14.85-.82L39.4,173l.57.42.47.82,0,1.62-.29.77-.94,1.11-1.12.37-1-.61Zm.19,21.61.05-1.25.29-.71.65-1,.29-.13,1.54-.06.76.53.42,1.72-.42,1.43-1,.82-.79.34-1-.48Zm0,45v-1.34l1-1.14.94-.24,1.5.13.66,1,.14,2-.74,1.28-.62.39-1,0-.89-.48Zm.32,19.6L36.72,261l.61-1.15.85-.53.62-.18,1.27.23.7,1,.09,1.81-.28.91-.75.63-1.41.09-1-.48Zm2-39-.38.91.76,1.06.42-.35-.29-.33v-1.47Zm0,4.25.14-.33.85-.48,1.83-.09,1.7.81.78.77,1.09.66.81-1.52,1.36-1,1.41-.33-1.27-2.3-.85-4.21v-1.34l.94-4.2-.09-.91-1.61.63-.22-1.87.22-1.48,1,.09,1.74,1.34.94,1.73,2.2,9,.19,3.05-1.83,3.16-2.26,2-1.37.68L45,232l-1.68-.24L41.8,231l-.61-1.1.29-.09.32-1-.23-1-.94-.75-.56.18.41.33.71,1.1-.42.72ZM40,214.27l-.75.57.09.91.47.47L40,216Zm3.15,24.56,0-6.22.2-.18,1.41.23.33.28c-.08,11.15.45,22.41.14,33.51l-1.61-.09-.22-.33v-4l-.25-10.13.11-2.24-.11-2Zm1.65-115-.14-.48.09-2,.28-.2,3.48,2.77,4.76,4.6.36.33,5.46,6.36,4.34,5.5,3.75,6.49,4.29,8,4.47,9.5,2,5.12,2.86,8.32,2.93,11,2.86,13,1,7,1,9.85.29,2.09,0,5.26-2.25-1.09c.07-19.89-5.59-41.71-13-60-6.27-13.48-11.4-24.28-22-35.32ZM44.68,128l.42-.2,4.14,2.3,1,.29.34-.33,1.73,1.86.71.86-4.29-2.24-2.11-1.2-1.41-.62Zm0-1.39v-1.24l.47-.09L48.34,128l1.22,1.34-1.22-.67L46.89,128,45,126.84Zm.05,15.44.33-.38c7.74,9.25,15.51,26,19.42,37.8a146.09,146.09,0,0,1,8.71,48.84l-.67.77-1-.19-.24-1.19-.38-8.56-1.26-10.7-.24-.53c-.9-13.79-7.87-32.1-13.35-44.45l-5.37-10.13-1.79-2.68L45,145Zm.09,7.74L45,146.4c9.68,13.34,18.18,34,21.5,50.09L64,196l-2-.15-.89.39-9,6.26-1.74,1.14-4.7-10.42c-.45-13.94-.41-27.87-.62-41.82ZM46,138.51l-.24-4.87.18-2.39,2.82,1.38,5.94,3.31,0,.75-.84,5.93-.38,0-6.21-3.35ZM45.47,198l.33-2.62,3.49,8,0,.81L45.8,202.5Zm.24,7.36,0-1.67.89.14,1.65.81,1.26.48,12.66-8.55,4.28.72.32.28.2,1.91-3.72-.85-1.56.13-12.36,8.9h-.76l-2.77-1.48Zm.14,4.16-.09-2.25.37-.14,2.26,1.3,1.08.23L54,205.18l8.28-5.59,4,.52,1.13.48.38,2.15-.48.11L62.83,202l-3.39,2.39-9.55,6.84-.51.19-1.46-1.05ZM47.3,143l-1.12-1.63,3.89,1.87,3.4,2.1-.23,2.59-.57,3-.7-1,.51-3.34-.15-.87Zm-.51-9.08,0,4.1,3.06,1.58,1.27,1.05h.48l.84.48.52-.28.18-1.82.09-2.35-2.11-1.43-.65-.13-3.21-1.77-.56.13Zm.6,3.29.24-2.48.2-.19,1,.38,1.23.91h-.57l-.94.9.33,1.35-.71-.24Zm1.7,8.27-.28-.77,1,.48,1.74,1,.14.71-.47,1.73-.7-1,.09-.85-.33-.38-.85-.44Zm.66-6.83.76-.24.41-.43L51,136.6l-.29-.33.38,0,1.41.82v1.2L52.15,140Zm1.17,77.8-1-4.11,1.23-1,.23.06L53.47,219l1.45,6.45L53.09,225Zm1.51,47.74-1.13-2.33.34-.09,1.22.37,2.87,1.68,3.15,3.35,1.88,3,.33,1.33-1.27,2.2L59.3,271l.05-1.39L59,269l-.38,4.11-.7-2.68-.42-3.25-.2-.09L57,268l.23,1.67-.32-.13-.67-4.69H56L55.77,267l-.6-2.48-.57-.09-.28-.39-1-1.25-.36.15,1,1.63.62,1.53-.67-.33-.89.14.89.52,1.55,1.29.15.62-.85-.33-1.23-.15.09.3.72.14,1.78,1.44h.34l0,1-1.09-.42-1.54-.2-.43-2.19ZM51.73,211l.47-.53,1-.57.32.52,1.56,5.55,2.11,9.26-.14.72-1.32-.33-1.92-7.41Zm1.78-83.74-.47-.72c30.31-2.08,46.4,25,66.37,43.16,4.62,3.56,13.47,9.66,19.67,9l.61,1.29,2.25,3.82,3.06,4.82,1.64,2.21,2.83,3.34,2,2.19.52,1.49c-12.53,1.4-25.32-3.05-35-11.14-11.39-8.45-21.84-22.09-32.59-31.54-6-4.85-10.13-6.7-16.84-9.51-3-5.66-5.8-8.48-9.55-13.14ZM52.29,289.45l1.18-2.36,9.68-17.2.76-.09,4,1.15,5.68.81,2,.33c7.95.6,14.08,1.45,22.21.52,8.46-.37,16.7-2.34,25-4.16,4.32,7.28,9.94,14,14,21H133l-6.82-9.74-1.84-3-.65-.92-1.5.24-10.5,2.15-3.53.53-1,.19,1.56,5.07,1.75,4.69.13.81-4.61-.09,0-.3-2.68-8.69-.71-1-2.22,0-.18,0-10.73-.19-5.32.06-2.44,9.11-.47,1-1.59.15-2.41-.15,2.35-9.08.2-1.43c-5.46-.86-11-1.45-16.42-2.34l-2,3.35-2.91,5.49-2.5,4.16ZM53,235.24l-.14-2.06.52-1.9,1.07-1.72,2.12-1.62,2.35-.44,1.41.15,1.89.62,1.4,1L65,232l.47,2.3.09,2.81-.09,1.48-.29,1.24-.42,5-.61,3-.66-3.34.33-3,.61-5L64.05,234l-.9-1.91-1.5-1.54-1.5-.71-1.74-.13-1.79.33-1,.9-1.14,2,0,.91.56,2.15.95,1,1.73.53,1.85-.33,1.12-1.64v-1.09l-.42-1.54-1-.85-1.6-.1-1.08,1.19.09,1,.56.72.34-.19-.38-.81,0-.68.81-.71h.57l.61.24.8,1,0,1.43-.28.81-.9.67-1.88.09-1.13-.67-.79-1.72.09-1.2.38-1.32,1.83-1.53,2.82.18,1.37.63v.42l.71,1.82,0,3.11-.66,1.43-1.46,1.29c-3.15.84-4.43.65-6.5-2Zm1.83-22.32-1-3.67L57,207.19v.57l-.75,2,.09.52,2.63,2v.72l-1.92,4,0,.38L60.15,220l.05.68-1.65,3.05.1.44,1.92,1.86,0,.53-2.45-.53-.75-3.64-2.12-8.7-.43-.28Zm.09,62.19-1.07-4.4.18-.25,1.79.62,1.88,1.77,0,.49-1.5-.53-.65-.09h-.42l2.53,1.38,1.22,1-.42,1-1.93-.37.14.42,1.23.39.18.33-.94,1.48-1-.85-.43-.68Zm-.18-122.4.65-4.16.29-2,.85.37,6.77,3.54,1,.81-.52,2.59-.47,3-.42,2-7.58-5.21Zm1.83,5.49-.84-1.67,6.59,4.59.23.76-1.28,6.17-.7-1.19.85-4.78-2.36-1.82ZM56.1,151,56,152.76l4.37,3.14,1.84,1,.37-.9.61-3.16.15-1.24-.8-.47-5.17-3-.76,0-.24.39ZM56,144l.9-5.92.1-.3h.23l.76,1-.24.63L57.09,143l.43.86,5.12,2.69.8.51.33,1.16-4.71-2.5Zm.67,8.36.65-3.2h.34l4.84,2.82v.67l-.71,3.15Zm.18,57.55,1.32-3.64,4.15-2.92,1.13-.37,3.71.57.89.39.85,5,.18,3.2-2.3-.57-1.46-.15.34.63,1.5.44,1,.18,1.23.52.51,4.74.15,2.87-1.92-.57-1.33-.24.1.57,3.24,1,.23,2.11,0,5-2.17-.53-6.67-1.29-.24-.86-1.93-2.06,1-2.14L61,220l-3.26-2.59.11-.85,1.68-3.45.15-.85L57,210.11ZM57,247c-.18-3.35,2.94-3.91,5.27-2.33l.75,1,.47,1.72-.29,6.5-.47,5,.29,4.21-.33,3.72-.56-3.59-.34-4.48.38-4.88.33-3.64,0-3.1-.28-.81L60.85,245l-.7-.24-1.32.18-.94,1.29.09,1,.57.66.56-1.08.85-.06.48.72-.15.9-.9.63-1,.14-.89-.57Zm1.46-85.07-.71-1.67,2.77,2.19.06.68-.62,2.19-.47-1,.09-.53-.14-1.14Zm-.14-52-.06-9,.94-.9,1.38-1.76,1.17-1.07.19,3.55-.15,2.15-2.86,3.62-.05.59,2.91,3,0,8.8L60,121l0,.57,1.13,1.14.23.15.51,1.62-.18,1.3-3-.15-.29-.53ZM58,143l.14-2.24.38-1,.8,1.14-.33.86.19,1.2.94.81h.76l.83.71.09.72-2-1.09Zm1.18,8.22-.71.76.09,1,.62.62.66.24.79-.53L60.8,152l-.84-.76Zm0,94.87-.38-.06.28-.28ZM59,289.45V289l.38-.58,4.94-9,1.07-.05,5.23.91,2.31.19,3.85.52-2.11,8.47-13.88,0Zm1-182.24v-.39l.7-1,2.74-3.07,1.45-1.52.33.05,5,5.2v.43l-1,1.3-4,4.19Zm.8,14.24.62-.67,3.38-3.87.27.19,4.15,4.12v.42l-3.77,4.25-.38.25-1.5-1.68Zm3,52.85-.38-1,.18-.1,6,5.46.11.52-2,5.55-.56-.92,1.22-3.58.19-1.1-.47-.67Zm-.47-4.87,1.26-6.64,8.33,6-.24,1.39-1.93,5.54-.42.29Zm1.68,60.75L63.2,228l1.42.19,1.26,1.14.9,1.87.66,3v3l-.85,1.95-.89,1.53.27-1.15-.18-.52L66,239l.18-2.48L66,233.23Zm-.89-135v-.29l1.42-1.25,3.14-2.58.53.3.36,1L65.79,96.6ZM63.82,257.9l-.42.91,0-1.15.65-5.25,0,2.77Zm-.09,10.55-.15-3.25.15-1.95.65-5.16.56-1.2.9,1.25L64.58,260l.18.57,1.45-1.1.81.86.69.43,3,.77,3-.34,1.41-.62-.2.81-1.5,1.47-1.59.63-2.26.24h-.28L67,263.34,65.32,262l-.89-1.14-.34.24.06.39,1.17,2.15L67,265l2.48.7,3-.33,1.41-.76,1.5-1.58.67-2.2c1-5.85-2.77-12-2.82-16.05l3.38-2.48,1.56-2.39.09-.73-.53.43-2,1.82-1.59.87-2.26,1.38,2.53,8.88,0,1.15-2-1.82L70.64,251l-.8-.24L70,251l1.09.44,2.68,2.43,1.17,1.82c-4.42-2.65-5.57-1.22-9.64.05v.42l.38.2,1.46-.29-.66,1.29-1.55-1.29.1-2.77-.15-2,0-1.89.85-5.56,1.41-4.11,2.31-4.21,3.81-6,3-3.2,1.74-1,2.35-.67,2.39.05,3.17.9,4.61,2,4,2.48,4,3.15c-1.36,10.94,2.85,28.27-2.21,38.47l-2.06.2-6.59,0-6.2-.48-7.11-.76-4.7-.58L64.67,269Zm1.36-102.07L64.43,169l.24.58,5,4.26.7.14,1.28-3.78-.43-.9-5.26-3.83-.71-.2Zm.09,12-.71-2.06,1.61,1.34,1.54,1.77-.65,2-.47.62-.56-1.2.47-.52,0-1.15-.37-.52Zm-.33-18.16,1.5-7.89.67,1.25-1,6.16,5,3.59.89.42.47.82.14,1.15Zm.38,8.6.74-2.3h.44l4.5,3.44-1.07,2.87-1.93-1.47ZM66.32,229l-.2-.44,1.32.24,1.23,1.43.51,1.49.1,2.1-.81,1.67-.33.09,0-1.29-.67-3.1Zm.56-69.65.74-3.2.15-.13-.1-.62.24-.11.94,1.87-.52,1.11.14,1,.76.81,1,.15.76,1.15.23,1.14Zm.83,9.28-.74.63.09.95.61.67.71,0,.61-.53,0-1.24-.6-.49Zm.2,91.58-1.09-.77.71-.1,1.75.67,2.25.15.32.05,2.41-.62.76-.06-.11.29-.93.48-1.75.48-1.83,0-.37,0Zm-.47-2.5-.15-.81.2-.38,1-1.24,1.09-.53,2.06.39,1.09.9.47,1.1-.2.77-.42-1.1-.79-1-.76-.38-1.41-.15-.85.44Zm.85-145,.38-2.57,2.48-2.63.23-1.1-2.15-2-.9-1.33.14-8.27,2.26-2.72-.18-.71-.94-1,.89-.77,2.26-1.53,0,4.16,0,15.77-.09,18.78,0,1.86-.58-.24-2-.62L68.33,127l.1-3.07,1.92-2.15v-.57l-1.83-2Zm.47,116.86-.2-.43,1.23.19.8,1,.09,1.62-.51.87-.47-1.67Zm.47-41.62-.09-.48,2.2-6.65.42,0,7.06,6.73V188l-2.77,6.78-.56.92-3.17-3.83Zm.7,6-.43-1.73,4.67,5.65.18.95-1.45,3.53-.85,1.68-.42-1.05,1.22-3.2.42-1.34-.33-.19Zm1.56-9.56L70.26,187l.09.57L75,192.7l.47.06,1.74-3.92.15-1.19L74.77,185l-1-1-1.45-1.24-.47.24Zm-1,12.47.13-.67,1.5,2,.29.95-.89,1.86-.34-.85.23-1.63ZM98.16,37.43h-3l.46.87L97.31,43l.75,2.92L97,46.22,92.13,47l-4.47,1-1.55.29L85.69,48,79.05,37.58l.09-.15H75.53l.7.81,8,11.9.57,1.06L90.2,50l.43,0,4.94-1.06,5.64-.71.15-.91L100,43l-2-5.4ZM71.38,230.84,71,229.71h.85l.14.47Zm-.09-43.34L71.2,187l.29-.81,1-2.25,3.91,3.87v.86l-1.47,3Zm1.23,47-.61.06.79,2.53,1.09-.91.61.1,2.68,2.1.76,0,1.21-.86,1,.9.7,0,3.48-2.2,1-.18.47.71.42.24.23-.71.44-2.21-.47-.19-1.56.87-3.2.81-1.08.13-.71-.57-1.65,0-.7.52-3.62-.57Zm-.23-56.87.79-2.24,1.47-4.31h.22l.57,1.44-1.17,3.53-.67,1.2.09.29,5,4.59.24,1.71-5.14-4.72Zm.94,8.84-.76.92.2,1.28.79.43.94,0,.56-.81-.09-1.15-.79-.58Zm-.29,25.38L72.81,210l.32.18,3.81,5.21.23.14.29,1.14-3.2,5.55-.28-.52-.1-.48,2.46-4.83-.29-.33Zm.7-123.21.24-1.14,24.89,13.09,10.39,5.55,2.73-1.15,6-2.73.51,0,0,2.43a85.32,85.32,0,0,1-9.35,4.12L97,102.48,80.43,93.92,74,90.43Zm.15,33.7-.09-7.5.14-.15,8.6,4.5,3.49,1.66,2.26,1.39L88,137.32l-.38.14-6.91-5-.74-.2-2.84-1.67-2.39-1.05-.85-.63-.18-3Zm0-12-.05-1.53,0-4.59.32-1.81L93.4,112.56,104.31,118l4.38,2.24,1-.29,5.7-2.39,3.94-1.73.38,2,.52,5.63-.56.38-4.66,2L113.53,127l.1,7.93-.06,9.42.2,1.53-1.41,2.43-2.5,4-2.3,4.35-.7-.86-.09-8.89-.11-18.53,0-1-1.17-.68-7-3.82-.8-.09-.32,2.68v12.37l-.2,1.91,0,6-.42-.82-5-4.25-.18-1.86.36-4.89-.18-2.28v-12L84.37,116l-4.94-2.34Zm-.09-9.85.18-1.62.94-.09,3-5.17,1.08.53-2.21,4.58-1.55,2.78-.85-.24Zm-.43,114.33,0-1.06h.18l1.5,1.87.38,1.19-1.45,2.39-.2-1.14.85-.53.06-1.1,0-.29Zm.47-101.47v-1.58h.43L84,116.91l6.64,3.68,0,9.32-.18,2.48,0,6.89-1.52-1.15.2-3.92V121.45l-4.24-2Zm.47-29.24L74,83.5l.8-2.63,1.65-2.06.28.11-.23.13L75.2,80.83Zm-.75,122.38.28-.9,2.45-5.2,4.46,5.35,1.57,2.1-2.41,4.54-.9,1.38-.33-.38-2.49-3.1Zm.28,49.91-.47-.77h.28l1.7,1.29-.23.38-.9.24Zm.75-79.24L75.76,174l.62,1.72-.62,1.1,0,.53.8,1.14.61.1.38.77.09.86Zm.42-90.52.2-3.58,1.08-2.35.89-1L78.44,79l.57,0-.52.18L76.7,81l-1.08,3,.14,3.4Zm-.09,119.38-.27.62,3.94,5.35.76-.38,1.4-3.24-3.33-4.93-1-.77ZM75,226,79,218.75l.33-.14,3.86,5.45-1.09-.14-2.49-3.26h-.28l-2.64,4.21Zm.85-123.87.38-.67,2.59-5.2,1-1.54.89.39.19.38-2.67,5.17.61.62L81,102.48l1.36.47.37-.71,2.63-4.54,1,.47v.34l-3,5.74-.85,1.23-2.82-1.34Zm-.43,104.72.11-.87,1.21-2,.81,1.24,2.16,2.86,0,.91-1.18,2-.75-.95L77.12,209l1.08-.1.53-.86L78.54,207l-.81-.44-.74.2-.61,1.15Zm.34,27.62-.23.39.13.28,1.6-1.05,1.6-.43,1.55.19,1.74.9.11-.42-.76-.63-1.7-.57-1.46,0-1.51.38Zm.51-149.07L76.38,84l1-2.72L78.78,80,80,79.34l1.14,0,.33.35-.71.27L79,81.5l-.81,1.34-.94,2.81.34,2.83L76.94,88ZM76.09,229.8h-.33l.24.81,1.51,1.28,1.78.24,1.23-.18,1.55-.86.75-1.25-.28-.28-1.32,1.34-1,.38-2.06.1-.76-.29ZM77.22,243l-.7.86,0,.39.76.81h1l2.78-2.24,1-.53H83.2l.88.71,0,1.34-.8.81L81.5,245l.38.58.66.33,1.31-.09.72-.77.36-1.49-.51-1.38-1.32-.77H81.82l-2.2,1.16Zm0-45.16.52-1.24,3-6.26.24,1.48-2.3,5.3.18.68,4.79,5.53.24,2.73-6.44-8ZM78,86.66,78.49,84l.29-.61,1.5-2.21,1.5-1,1.27-.2.38.34-1.18.81-1.88,2.3-.94,2.72.09,3.35-.79-.39Zm.1,137.49,1.31-2.05h.34l.8,1.34-.24-.19L79.2,223l-.71,1.14Zm1.4-27.05.85-1.66,1-2.26.51,1.3.15,1.29-1,1,.14.86.56.81.85.2.37,1,.09,1.72-1.69-1.82Zm.9-107.87-.28-1.91,0,0,.74-3.06L82,82.5l1.51-1.19L85,81l.8.57L85,82l-2,2-1.31,3.25.38,3.48-1.32-.61Zm.47,86.18-.32-.77c3-3.18,7-9.39,9.17-13.33l1.83,1.87v.42L90,166.42l-3.47,5.16L83.2,176l-1.7,1.62Zm-.19,41-.13-.48,3.8-6.49.25,0,.18,1.67-2.93,5,.11.39,3.62,5.11v1.43Zm1.75,47.08-1.65,1.3.09.42L82,265l.94-.53,1.79-.14,4.52.1,3.29-.44,2.45-1,2.35-1.86-.15-.38-1.64.77-2.92.95-7.34,0-1.41.39ZM81.73,78.72l.15-.76,1.22-5.07L85,61.48l.57-2h.24l-.49,3.05-.13,1.62-1.41,9.8-1.37,4.78Zm-.79,176.55.61,1.53,1,1.43-1.5,2,.23.33,1.47-.92c2.32,3.05,11.39.48,13.55-1.47l-.2-.48-3.24,1.48-2.84.86-2.44.53-2.44-.2-1.45-.72-.2-.38,3.06.48,1.32.05,3.11-.53L96.84,257l.18-.53-.89-.52-1.08,0-1.47-1.1-2.24-.85-2.17-.63h-3l-1.46.48-1.27.72-.65-.09-1.23,0ZM82.35,88.9l.37-2.39.86-1.72,1.91-2.25,1-.47,1,0,.37.37-1.69,1.43-.94,1.3-1.37,3.39.23,3.4-.83-.63Zm.14,92.29L82,179l2.64,2.43,2.82,3.16-.24.52-.85.82L83,182.63Zm-.42,74.93-.29-.66,1.09-.09.65,0,1.32-.73.51,0-.69,1.43-.61,1.58Zm1.74-4.1-2,2,.11.28.74-.15,1.79-1.48.43-.8,2.77-2.59V249l-1.35.53Zm-1.5-73.75.83-1.14.44-.29L88.75,182l.27.81L87.9,184ZM83,79.2c2.63-6.28,1.87-13.54,3.81-19.93l.44-.09-.47,3.44-.94,7.74-.29,1.19.09.44-1.07,6.82-.43.83-.29,0Zm-.22,137.4v-.48L83.9,214l1-1.56.24,1.14-.1,1.34-.57.09-.74.86.18,1,.76.68.74.42.09,2.15Zm.56-110.68L85,102.76l2.12-3.91.56-.1.57.37.23.44-2.72,5,0,.48,3.53,1.91.71.1,2.73-5.16.38-.24.94.72-3.17,6.34-.65.87Zm.33,79.67-.24-1.39.65.58,1.61,1.62.15.38-1.47,1.34Zm.28-9.23.66-.81.65-.67.23.1,5.09,5.26-1,1.57-2.93-2.72Zm.51-86.5a7.85,7.85,0,0,1,4.71-7.17l.94.53a8.8,8.8,0,0,0-4,9.65l-.71-.24Zm-.7,199.35,1-3.16,0-.1,1.17-4.06.8-.05,3.49.14,1-.14.14.14,1-.05,8.79,0,.29.28.65,2.06,1.41,5.25-19.43,0ZM84.84,80l.56-2.1L86,74.38l.9-8.71,1-5.87.6-1,.58-.09c-1.54,6.62-1.07,17.22-3,22Zm-.09,109.83-.18-.87c4.22-3,10.91-14.53,13.21-19.15l1.27,1.23c-3,5.93-8.76,15.83-13.83,20.37Zm.42,67.86L85,257l.32-1.1,1.23-1.25,1-.47,1.79.23,1.09.86.6,1.34-.28.67L90,255.75l-1-.68-1.64-.14-1.23.71-.56,1.49Zm.76-63.65-.47-1.44.56-.38,2.68-3.5,2-2.19.1,2.63,0,8.94-1.55.81-.89.44-1,.42-.24-.29Zm-.24-19.84.42-.72.61-.51,4.9,4.67.28.86-.33.58-.56.33L89.36,178Zm1-82.15-.19-2.68.28-.9,1.85-3.16.83-.67,1.7-1,.62.18.38.19-2.36,1.82-1.6,2.63-.53,2.24L88,93.83l-.56-.15ZM87,80.87,87.61,77l1.84-16.39.75-2.15.85-.19c-2.06,7-.77,16.9-2.77,23.18Zm.65,25.95-.36-.14V107Zm-.51,65.39.6-.92.4-.33,5.16,5.11-.37,1.06-.61.33Zm.47,30L87.19,201l2.92-1.43,1.6-.66V193l-.09-7.61.33-.81,1.5-2v4.1l.13,4-.09,8.79-.47.39-2,.81-2.82,1.34Zm.42,2.91-.14-1.53,3.2-1.58,2.82-1.34.71-.46-.15-14.54,0-3L94.39,181l5.18-8.84.42,0,.94.95.56.76-.24,5.4.24,20,.38.57,5.17,2.58,2.88,1.63h.74c.16-7,.25-14.06.14-21.08l3.35,2.44,2.44,2.34,0,1-.22,16.84.27,1.53,5.65,2.92,6.58,3.47,5,2.54.62.53v7.79l-.51,0-1.75-1-8.89-4.53L116.07,215l-13.21-6.54-3.58-1.73-8.65,3.82-1.79.72-.18-.66-.47-4.6Zm.56-112.2-.09-2.69.9-2.33,1-1.54,2.41-1.72h.84l.66.34-2.59,2-1.32,2.28-.75,3.11.28,2.3-.19.24L89,94.35Zm-.09,77.42.14-.68.85-.86,3.91,4,1.18,1.52-.62,1h-.47ZM89,81.68C91.27,74,89.16,65.51,92,58l1.22-.24h.38l-.75,3.63L91.81,73.9l-.58,7.69-.33.91Zm0,132.44-.09-1.62,1.79-1.06,1.12-.28L95,218.47l-.33.72-.76.09-2.12-4.54L91,213.69l-1.84.72Zm.67-46,1.3-1.47H91l.89.85L96,171.68l-.76,1.19-.56.44Zm.09,58.55V226l7.71-3.58,1.7-.66,8.46,4.48c-4.75.27-7.19,1.55-8.93,6.32l-3.77-2.86Zm0-1.71,0-2.5,5.79-2.76,3.53-1.58,2.82,1.52,1.23.72,25.3,13,5.88,3.14,0,2.87-1.32-.57-6.62-3.53L122,232.94l-.85-.46L99.33,221.14l-.79-.09-2.93,1.49-5,2.19Zm.7-131.73L90.87,90l.18-1,.29-.2.23-.52,1.79-1.67,1.6-1h1l.47.33-1.36.67-1.94,1.91L93,89.1l-.47.43-.8,2.81.06,1.87.6,2-1.13-.53Zm.8,16.68.85-1.66.76-1.58L95,102.82l.7.18.18.53-2.35,4.64-.09.75,2.5,1.34.43.35.88.18,2.3-4.59.71-.86.85.53v.42L97.72,113l-.47.24-4.18-2.11Zm0,56,1.32-1.72,4.7,4.87-.66,1.63-.51,0Zm.47-83.21.47-3.44.38-5.07.09-3.73.66-6.25.9-5.7.47-1,1.59-.3C94.35,66,94.35,74.69,93.49,83.5l-.79-.24Zm.15,173.39-.76-1.28.79,0,1.65.76.52.72-1.36.57h-.84ZM93,95.65l-.52-1.87.24-2.54,1.88-3.59.47.06,1-.72,1.51-.48,1.31.39-1.5.81-1.27.81L95,90.15l-.8,3.11.74,3.48,1,1.43-1.7-.9Zm-.47,115.51v-.39l5.36-2.53,1.46-.48,3.06,1.67v.63L99.14,217l-.57.29,1.85-6.36-.11-.44L99.05,210l-.85-.09L95.75,211l-1.55.95,2.26,5.64v.71l-.52.11-.46-.77ZM94.16,83.83l.47-3.77.47-10,1.32-10,.69-2.83.34-.24,1.23-.18L97.5,62.28l-.72,7.21-.09.11-.14,6.07-.22,4,.09,2.92-.29,2.05-.94-.29Zm1,11c-1.6-8.31,10-10.32,9.12-1.58l-1,1.19L102,95l-.85-.33-.8-1.15.15-1,.7-.81.66,0,.9.34-.24-1.4-1.41-1.09H99l-1.46,1.2-.7,1.91,0,1.29.51,1.82,1.84,1.81,1.4.52,2.22.06,1.18-.39,1.79-1.53.88-1.54.66-2.81c.48-11.11-1.63-26.35,2.64-36.56h1.12l-1.41,4.78-.56,3.44-.47,6.55.18,4.44v4.59L109.26,92l-.43,2.62-1.14,2.21-2.24,2-2.26.81-2.92,0-1.59-.47L97,98,95.66,96.4Zm1.55-9.95c1-9.41-.47-19.41,3-28.43l1.55-.19c-3.25,9.47-1.5,19.74-2.62,29.49Zm.8,9.19,0-1.69.47-.9,1-.86.52-.24,1.21,0,.52.37-1.12.77L99.61,93l.43,1.68,1.45,1H103l1.32-1.11.94-1.58.24-1.47-.15-2.68.11-4.54c-.66-3.8-1.08-26,2-28.68l1,.24.46-.18v.52l-.69,2.15-1.09,6.12-.57,9.74.25,14.15-.11,3.53-.7,2.83-.8,1.24-1.56,1.34-1.35.38-2.07-.18-.9-.5-.94-1ZM97.16,271.8l.76-2.15.28-1.09,1.08-6.12.18-4.5-.22-14.52-.24-.33c.12-6.14-1.88-13.78,6.21-15.74,5.78-1,10.07,4.35,7.06,9.76L111,238.35l-1.5.91-1.65.1h-.65l-1.65-.58-1.14-1.34-.85-1.91.53-2.11,1.12-1.14,1.41-.24,1,1,.15,1.43-.75.86-1,0-.61-.13.1.61.93,1.34,1,.29,1.84-.14,1-.68.76-1.15.18-2.2-.37-1.52-.8-1.39L108.45,229l-1.5-.34-2.73.44-1.83,1.71-1.18,2.58-.47,3.59.24,11.24v9.07c-.7,4.26-.25,10.83-2.55,14.39Zm.9-128.32.19-2.24,2.64-.15,4.7.09.18.2.06,6.21-7-.14-.56-.76Zm.28-3.39L98,137.51l.19-3.74.19-.18,7.2.18.33.35-.29,6.21-3.62,0Zm-.24-7.55.06-6.31.32-.2,4.33.15,3,1.73-.13,5.06-7.3-.15Zm.19-7.22-.09-1,.14-.29h.29l1.83,1,.18.28Zm.1-11.57,0-.62,3.44-6.6.7.06.42.62-1.27,2.63-1.26,2.39.28.62,3.3,1.81.56,0,2.64-5.31.51,0,.56.38-.27,1-3.12,6.45L102.39,116Zm1.07-27.81.4-6.5-.06,0L100,69.12l.69-7.55L101.81,57l.62-.72,1.23-.2-.8,4-1.08,7.74-.24,4.54.09,2.49-.23,1.48.32,9.23L101.54,87Zm0,51.47-.18,1.25.29.57,2,.15h2.73l.29-.3.09-.86-.14-3.53-4.62-.15-.47.3Zm-.09,8.51.14.66.95,0,.32,0,3.63.24.33-.27.09-3.68-.27-.73-4.43-.14-.47.34-.29,2.19Zm.71-18.54-.57.42.2,3.78.47.39,3.95,0,.32-.33.06-3.83-.57-.38Zm-.75,144.18c2.73-7.19,2.57-20.55,2.07-28.09.26-5.06-1.67-15.37,6.82-14l1.26,1,1,1.77.14,2.29-.29.86-1.26,1.2-1.7.1-.71-.58.67-.09.94-.86.18-1.82-.36-1-1.38-.86h-1.32l-1.22.72-.93,1.52-.52,2,.47,13.66.09,4.59-.15,7.89-.7,5.83-.37,2-.81,1.82Zm1.5-122.11-.61-.66.14-.15,4.56-.09,1.18.19-.14,6.12-.33-.19-.47-.68-.47-3.82-.47-.48Zm-1,67.87,1.3-3L101,214l.22.1,1.79-4,.67-.09,5.88,2.85.27.82-3.2,6.35-.6.58-.94-.58,2.06-4.2.48-1.57-3.1-1.82-.9-.1-2.07,4.34-.76,1.31Zm.5-72.69.1-.62.32-1,3,.05.14,1.68-.18,1-3-.18Zm.15-14.29-.15-1.57.24-.44,2.73.15.14.66-.14,2.06-2.64-.19Zm-.09,7.75,0-2.39.28-.15,2.82.19.19,1.53-.19,1.24-2.87-.14Zm.61-37.33c5.1-.11,6.62-1.92,8.69-6.12l1.23,1,3.94,2.76,2.7,1.48.88.63-.14.66-.74.29L110,105l-.94.14-4.33-2.29Zm1.36-15.59c-.48-9-.33-20.42,2.17-29.1l1.59-.24C103,66,105,79.24,104.65,89.38l-2.12-1.91Zm.47,66.63-.8-1.15,1.74-.09.33,2.24Zm-.43,34c-.07-2.69-.41-8.25.14-11.13l1.51,1.24-.14.87.37,1.23,1.61.24.51.35.75.9H104l-.48.14-.28,1.86.1,2.73.37.62,2.4,0,1.27-.15.89-.23.34-3.74,1.45,1.64,0,1.95-.19,1.25-1.5.24Zm-.22,5.83.13-4.72.38-.39,4.14.09,2,.11.25.09.8.1,0,1.1.06,5.25-.29.15-7.29-.2Zm0,7.56,0-5,.36-.24,7.35.29v3.35l-.15,3.43-4.37-.14Zm0,72c3.08-10.95.85-22.5,1.31-33.64l.24.38,2,1.91.27,6.4,0,9.85-.81,9.17-1.17,5.65-.7.42Zm1.17-82.58.33,3.49.23.23,4.62-.09.09-3.92,0-.77-4.85.11ZM104,195l-.33.53,0,3.59.33.28,2.69.09,1.77-.13,0-4-.46-.48Zm1-157.42.11,0,2.92-.1,9.58.1.94-.1.11.15,1.21-.11.1.15.94-.19,3.85.15-1.68,6.58-.53,1.16-2.15-.09-2.73-.2-5.84.2-4.42-.15-.33-1.14Zm-.7,146.15-.09-1.15.23-.58-.28-1.58,3.25.06.33.42v2.78l-3,.18Zm.14,7.35-.09-2.35.42-.22,2.17-.11.71.29,0,2.63-1.07.05h-1Zm.24,7.32,0-2.39.27-.2h2.59l.18,1.2-.13,1.63Zm1.5,72.35-1.5.24c2.61-12.34,1.81-18.48,1.83-30.88l2.17.92-.33,8.64-.09,9.19-.67,7.44-.79,3.35Zm-.42-153.36.33-.86,2.5-5.55.84-1.14-.52,2.48-1.12,3.49.09.72.71.33,1.32.39,4-1.82.15-.53-2.45-5.74.37-.37.38,0,3.11,6.69,0,.92-5.46,2.48-1,.29-1.84-.86ZM107,221.14v-.48l3.76-7.06,5.65,3,.47.33-.38,1.2-3.33,6.21-1-.57,2.59-5.22-.32-.72-.29,0-2.63-1.54-.7.05-2.55,5.26-.37.05Zm.43-19.4,1.55-.29,1,.29-.23,1.24Zm-.38,68.87c3.22-9.39,1-19.62,2.3-29.3l1,.2,1,.53c-1,9.46.56,19.36-2.54,28.47l-.56.1Zm1.18-113.16c3.72-6.94,8.66-16.49,14.67-21.71l.24.57.23,1.82c-5.67,5-10.19,13.69-14.15,20.31Zm1.41-83.07c-.13-6-.39-13.9,2.82-19.08,6.73-.59,10.84.29,17.35.72l1.79.29,2.45.19,3.52.58,5.88,1.24,1.14.66,0,2.53-.28,4.12-.75-1.25L142.28,63l-1.18-.67-1.88-.57-2.78,0-2,.87L133,64.34l-.94,3.2.42,4.4,2.64,10.56-3.62,2.58-1.75,2.77.38.39.66-.68,1.84-1.67h.09l.75-.57,2.63-1.1.38-.63L134,74.9l-.29-1.2,1.64,1.58,1.7,1,1.32.44.15-.44L137.9,76l-2.35-1.53-1.74-2.2-.14-.48c5,2.92,5.79.81,9.55-.19,1.53,10.44-3.12,20.71-10.07,28.15-5.7,7.26-18.61-1.86-23.38-6l.15-.29.18-4.59L110,82.74Zm-.24,165.73.1-.13,1.26-.58,1.94-1.72,1.08-2.68v-2.81l-.61-2-.94-1.29.85.2,1.5,1.2.94,1.8,0,3.11-.85,2.26-1.5,1.71-1.69,1.25-1.61,0Zm.51-81,.62-1.08.52-.39,3.15,3.29,1.69,1.25.24.28-.9,1.25-.56.42-3.53-3.82Zm-.27,111.23,0-.63.61-2.29.57-3.83.37-4.48.38-5.17,0-7.37.24-3.47.24-.72,1.73.66c-.37,7.92-.82,18.89-2.54,27Zm4.09-206.47-2.77,2,.18.49,1.09-.53,3.33-1.16,6.69.06.18,0,1.88-.29,1.41-.67L127.5,63l.29-.81-.8-.09-2.55.77-6.16-.15-1.31.24Zm-1,5.69-1.52.67.11.34.56.57,1.36.09,1.6,1,2.77,1.25,2.73.33,2.17-.15,1.69-.57.85-.48,1.08.1-.47.24-1.61,1.28L123,75.85l-2.57,2.06.09.33.65,0L123,76.86l3.44-3.54,0-.37.9-.48.09-1.25L126,69.4l0-.57,1.12-1,.24-1-.28-.19-1.17.77c-3.74-2.75-10.72-.86-13.93,1.71l.32.48,3.21-1.58,3.38-1,2.5,0,2.44.29.81.53-1.09-.14L121,67.45l-2.59.15Zm-2.45,211.66.15-.23,2.21-.47,3.85-.58,4-1,2.07-.39,4.56,7.08,1.65,2.63.38,1.19H116.27l-2.7.06-.27-.29L111.61,285Zm1.08-124.11-.24-.43.38-.57.56-.29,4.85,4.93-.51,1Zm.14,84.07c2.81-1.41,3.78-2.51,4.81-5.6l0-3.29-.62-1.62h.56l.85.66.56,1.58,0,3.2-.49,1.49-.56,1-1.74,1.86L113,241.55Zm.8-86.22.61-.9.38-.34,2,1.77,2.92,3.16V159l-.75,1L115,157.67Zm-.33,115,1-4.83.8-7.93.2-4.39.18-3,.23-4.69.42-1.71,1.61.66c-1.11,7.37-.2,18.86-2.55,25.53Zm1.27-161.59.1-.18.42-.15.56-.09.52,1.1,2.25,4.34.9-.28,1.13-.29.1,2.06-2.13.86-.65.13Zm.32,44.5.53-.91.38-.28.66.47,4.36,4.49v.63l-.79,1Zm2.32-80.67L114.24,71l.38-.29,1.7-.52,1.17,2.29Zm-2,169.86.76-.53,1.83-1.53,1.55-2.83.38-2.87-.23-2.24,1,.44a7.49,7.49,0,0,1-4.23,10Zm.2-17.41,1.21-2.29,2-4.2.7-.77,2.93,1.38,2,1.29.81.15,1.18.8-.76,1.55-1,1.71-1.23,2.39-1,1.67-1.18-.66L122,223.1l.38-1.24-.62-.24-2.06-1.14-1.46-.57-2.36,4.58-.65.91Zm.6-84.06-.09-9.76.09-3.2.48-.47,1-.34,2.07-1,2.26-1,.28.29.15,1.05-3.26,1.43-1,.06-.37,2.39.14,11.94-.67,1.05-1.08,1.15ZM115,151l-.15-.37.33-.63.65-.47,4.9,5,.15.53-.67,1-.36-.06Zm-.34,118.39.9-5,.42-5.84.76-11.08.51-2.91h.28l1.65.85c-2,7.71-.54,16-2.77,23.66ZM115.6,165v-.39l.19-.09,1.7-2.92,2.68-4.1,3.57-5.11,2.82-3.16,1.08,3.62-5.12,6.84-1,1.91-1.07,1.58-2.13,3.92-.22.14Zm.52-16.3.8-1.2h.29l3.2,3.11,1.88,2.06-.29.86-.61.52Zm-.23,94.15,1.17-.76,2.07-2.15,1.08-2.63.14-1.91L120,233l.85.38.51,1,.23,2.68-.27.9.13.35L120,241.08l-1.65,1.57-1.46.67Zm1.36-172.57.28-.48h.15l.65,1.67,1.17.9,1.7.06,1-.77.74-2.1h.24l-.24,1.67-1.08,1.44-.84.18-1.89-.09-1-.86Zm.1,60.22.27-1.68,1.18-.62,2.12-.81.28.57,1.36,6.5-.51.34L119.5,138l-2,2.39-.18-2.06Zm.24,16.34.13-.63,1-1L123.5,150l.53.85-1.23,1.24Zm.27,59.78-.56-.76.23-9.61v-3.62l.19-4.21,1.46.95c0,5.3-.59,10.75-.14,16l3.38,1.67,8.1,4.26,4,2.25-.15,1.62-5-2.58-2.06-1Zm-.71,62.13.62-3v-.39l.56-5.15.29-4.3.09-3.54.52-4.73.75-2.15,1.13.48-.81,5.82-.13,1.82-1,11.09-.76,3.34-.51.67Zm.76-25a8.7,8.7,0,0,0,4-9.8l.66.14.85,1.58.19,2.48-1.23,3.11-1.31,1.78-1.31.9-.91.29Zm1.45-138.17-.09-4.49h.47l1.88,1c-.1,30.13,13.36,72.62,34,94.72l7.29,6.69.2,1.38-.33,1.2-1.84-1.38-5.69-5.17L152.16,196l-5.37-6.12-.71-1.43-2.3-3.26L141,180.28l-3.82-7.08c-10-19.53-16.39-45-17.64-67.09Zm-.23,39.1v-.39l.75-1,.47-.09,5.27,5.31,0,.72-1,.86ZM119,268.45l.56-2.62.7-6.69.76-7.74.37-3.3.66-1.77,1.22.58-.94,4.87-.85,7.83-.85,6.79-.6,1.78Zm1.12-63.8-.18-.18.18-14.34h.33l1.5,1.14,5.74,3.11,2.92,1.25,4,1.28-.09,1.29,0,13-.19,1.05L133,211.4l-5.84-3-4.6-2.29Zm.56-62.17.47-.77.56-.53,1.85,1.64,1.64,1.76.62,2L126,148l-2.44-2.39Zm-.47,102.19.71-.53.32-.2,1.61-2,1.31-3.15.1-1.24-.38-2.49.8.15.8,1.33.28,2.2-.61,2.39-1.12,2-1.88,1.71-1.32.2Zm1.65-153.38-.42,1.4.14.46.47.2.84-.62,2.08-.81,2.82-.43.85.52,1.31.18.94-.46,3,.37,2.36.92V92.3l-.47-1.82-.53-.18-.7.66h-.66l-2.69-2.15-.69,0-1.14.95-1.12-.9-.9,0-1.36.91-2,1.2-1.09,0-.33-.67-.46-.09ZM121,267.74c1.43-6.83.87-14,2.91-20.64l1.23.66-1,3.35-.6,3.06-1,8.93-.9,4.73Zm.7-39.1.62-1.33,3.24-6.12,6.53,3.3.2.44-3.4,6.68-.65.67-1-.57,2.48-4.83,0-1.2-2-.81-.76-.52-1.17-.38L123,229.23h-.51Zm.62-88.16,1-1.06.56-.34.9,3.64h-.23Zm.32-34.9v-1.44l5,7-2.48,4.63-1.32,1.91-.23-.57-.06-1,1.38-2.29,1.59-3.2Zm.1,3.54V107l2.4,3.06.22,1.1-2,3.58-.14-.53-.15-1.91h.34l.89-.52.18-1.34-.79-.81-.62-.2Zm.42-36.61.66-1.09.33-1.4.43-.18,1.74,1.43,0,.52h-1.41l-1.09.58Zm-.66,173.15-.14-.24.76-.42,2-2.11,1.27-3.15-.33-3.64,1.31.63.47,1,.25,1.91-.29,2-.56,1.48-1.14,1.44-1.59,1.19-1.23.39Zm-.18,21.8c1.76-6.33.85-13.33,3.53-19.45l.65.33-1.23,5-1.31,8.42-1.08,5.82Zm1.5-185.34-.47,1.1.27,1.38.82.86,1.17.39,1-.15,2.21-1,2.35-.33.48-.48.1-1.14-.67-.48-1-.09-2.4,1.9-1.5.86-1.26-.14-.72-.76.19-1.1.8-.76L126,82l.7.42.2-.42-1-.87-1.22.15Zm.62,39.95-.2-1,6.31,7.59.33,1.11-3.26,6.87-.47-.94,2.26-5.31,0-1.16-4.52-5.2Zm.6-18.78.47-.14.52.14,2.26,3,.27.28.38.15,2.41-4,1.21-1,.38-.09-3.33,6.16-.67.81Zm.47,25L125.2,126h.13l1.61,1.8,1.59,2.26-1.68,3.71-.71-1.91.15-.61.7-.58v-1.33l-.81-.81Zm-.93,118.32,1.27-.9,1.5-1.58,1-2.09.24-4.73.88.66.53,1.67-.19,3-1,2.06-1.55,1.66-1.51.58Zm2.3-151-1.47,1.53.1.53h.38l.94-1,1-.57,2.31,0,.51.14,1.7,1.49.09-.62-.38-.67-1.5-1L128.44,95Zm-.62-3.1-.28.2,1,1,1.78.57,2.17-.13,1.17-.58.76-.76-.1-.77-1.51,1-1.5.53-1.93-.24ZM126,119.25l3.06-5.64.37-.15.61.77,4.33,6,.24.81-2.5,5.55-.32-.06Zm.76,128.14.09-.15.74-.38,1.66-1.58.79-1.58.66-2.39-.32-2.86h.51l.43.52.56,2.72-.33,2-.66,1.63-2.21,2.15-1.32.24Zm2.44-132.15-1.74,3.2.09.53,2,3,2,2.48h.38l1.31-3,.33-1.19-3.72-5ZM127.69,104l.43.13.88.06.91-1-1,1.91h-.32Zm.84,14.86-.13-.48,1.27-2.15,1.08,1.48v.3l-1,.33-.47,1.56Zm1.18,26.24-.51-1.78h.33l6,5.75.14.81-1.79,4.82-.56,1.39-.66-1.48,1.88-5Zm-.42-5.49.09-.83,3.21-7.26,2.67,3.25,3.73,4.84-2.26,6.83h-.38Zm2.21-16.55-1.74-2.53,1.18.2,1-1.34.75,1-.09.53ZM129.81,248l-.95.13c3.87-2,3.72-5.16,3.4-8.84l.85.68,0,2.87-.37,1.86-1.14,1.85Zm-.66-15.44,1.17-2.24,1.85-3.64,1.07-1.58,1.08.62,0,2.16-.85.05-3.11,5.35Zm1.28-84.92-.15-.83,3.1,2.73.09.67-1.08,2.67-.6-1.23.47-1.49L132,149l-1.08-.57Zm.36-36.43-.09-.43,3.35-5.69.18,1.15-1.08,2.1-1.32,2.3,0,.48.29.18L135,115.1l.14,1.91Zm1.94,23.14-2.12,4.58.14.58,5,5,.47-.06.38-1.19.9-2.15.37-1.43-4.65-5.3Zm-.94-88.27,1.45-4.65v-.28l1.08-3.54,8.52-.09,6.21,0,.65.24L144.11,48l-5.56-.91-5.73-.66Zm-.19,93.09L132,138l1.08-2.24h.24l3.48,4.06-.37,1.67-.9,1.58Zm.28,108.21.56-.63.56-.86.9-3.44.06,1.62-.91,2.3ZM133,70.32l.29-.39.85-.2.56,1.34.09.48-.74-.37Zm0,40.18,1.41-2.28,0,.85-.18.09-.71,1,.15,1.15,1,.81,0,1-1.65-2.1Zm.28-43.86L134.37,65l.8-.57,1.6-.63,2.92-.05,1.65.38,1.36.92.85,1.23.65.3-.14,1-.57,2.73-1-1,1-1.19.41-1.11-.56-.14-.43.38-.74.43-1.7-1.24L138.18,66l-2.45-.09Zm.57,71.34-.76.77.1,1.05.94.87.9.05.56-.83-.05-1.34-.76-.61Zm-.19-70.29.52-.48,1.68-.53h1.52l2.39.33,1.61,1-.29.09-1.93-.66-2.92-.19h-.51Zm.09,61.21,1.17-3,1.32-2.39.15,1.34L136,126l-1.27,2.48.38.66.47.48,2.77,4.11.05,1Zm1.7-58L135,69.55l.23,0,.38,1,1,1.14,1,.38,1.21,0,1-.57.88-1.82.11.83-.67,1.14-1.08.67-1.13.14-1.5-.39Zm.18,39.53-.65-7.41.14-4.11.56-.53,1.09.2c.62,29.23,9.24,60,26.05,83.82l0,3.07-.43-.39L158.65,180l-4.76-8.42-4.37-8.84c-6.21-13.41-11.59-30.37-13.08-45.16Zm-.46,47.8,1.51-4.55.84-2.39.33-.14,6.86,6.64-.94,5.73-.37.82Zm.28,3.19h.38l6.82,4.93.56.85-1.56,7.61-.74-1.25,1.07-6.21-4.7-3.59-1.18-.52ZM135.22,217l0-8.79.15-6.69.14-4.21,1.59.42,2,.48.66.57.05,2.15-.75,1.16-1.56,1.52-.65,1,.56.77,2.3,2.19.1,8.12-.52,1.35-2.73,2.62.29.67,1.4,1.44,1.56,2-.14,8.31-2.31,2.49.52.85.76,1.54-2.08,1.44-1.08.33-.28-.44v-9.65l.13-8.94Zm.47-88.46.95-1.87.09-.09.23.66-.32.77,0,1,.62.66.19,1.15Zm.51-31,.62-.67.32.86Zm.53,58.59-.33,1.11.37.7,5,3.69,1,.38.13-1,.52-2.06.09-1-2.26-2.2-3-2.39-.56.05Zm.75,10.46-.71-1.76.23-.15,4.05,3.16-.94,4.11-1-1.86.43-.91-.05-1.39-.95-.76-.7-.05Zm.42-69-.38-1.92.62-.77.32,1.4,1.09,2L138.41,98Zm-.61,59.74.14-1,.71-1.77.47-.05,1.74,1.67-.91.15-.6,1.1.09.52.62.73,1.07-.15.52-.71-.09-1.07,1.5,1.4,0,1.34-.61,1.23Zm.61-57-.09-1.43c2.81.65,6.13,1.16,8.88,1.91l.24.81,1.7,1.76,0,.81-1.5,3,.32.57,2.68,2.19.25.77-2.08,4.15,0,.34,2.68,2,.13.68-1.12,3-4.94,3.49-.94-.09-3.76-.77-.61-2.58-.48-3-.23-2.48,1.79.28.94.29,1.12.13.11-.61-1.79-.62-1.46-.24-1-.57-.74-7.32,2.82.76.14-.72-1.84-.57-1.21-.57L138,105Zm-.14,119.81,1-1.34,3.91-4.34.32,0,4.56,4.5.62,1-1.45,1.81-3.49,3.92-3.15-3Zm.42-15.14v-.68L140.4,202l3.19-3.1,3.16,3.58,1.45,1.87-2.83,3.15-2,2.3Zm.28-56.73.89-2.44.38-1.25.85-2.1.47,1.34-1.55,3.82.14.58,2.5,2.57,2.25,2.21.15,1-1.7-1.58Zm.47-53.73.29-1.53.75-1,.47,3.49,1.5,3.21-1.07-.11L139.64,97Zm-.41,140.13,1.68-2.19,2.21-2.1.52.33,1.32,1.33-.23.62-3.21,2.87-1.26.68Zm2.35-108-.38-2.06,5.08.77L158.69,116l1.14.86,2.44,1.29-.05,2.19-.8-.39-2.31-1.23-2.25,1.38-2.26,1.67-8.52,6-3.94-.63Zm-.43,21.08,1.13-2.54.37,1.24-.47.71.1.87.47.66.89.2.53,1.86-.53-.37Zm.47-54.35-.1-2.3.2-1,1.27-2.86c-.61,4.06-.68,9,2.59,12l-.15.14L143.46,99l-1.38-1.47-1-2.74Zm.32,35.84-.13-1.23,2.07.28,1.59.43,1.52,0,12.41-8.75.8-.13,2.78,1.62,0,2.3-.52,0-2.68-1.45-.71.06-12.23,8.22-3.94-.52-.71-.24ZM142.75,71l-1.23.1v-.48l.42-.43Zm-1.09,59.89,1.7.13,1.78.39.33.05h1l.81-.57,9.35-6.41,1.18-.57,4.43,10.13.18,5.07.15,10.51.18,18.55-.14,12.41-4.8-7.5-5.36-10.7-5.69-14-2.3-6.78L143,136Zm1-39.15.23-3.16.19-1.14.37-3.44.62-4,.43,1.53.13,2.59-1,6,.28,2.3.37,1.52,1,1.88,1.47,1.23,1.41.62,2.12.1,1.27-.37,1.13-.92.84-1.24.19-1.58L153.46,92l-.74-1.25L151.25,90h-2l-1.21,1-.76,1.67.76,2.35.93.57h1.79l.75-1,.05-1.43-.71-.68-.42.26.18.27.29,1.16-.76.66-.74.1-.91-.72L148.07,93l.45-1.49.91-.66,1.88-.11.65.35,1,1.47L152.86,95l-.76,1.1-1.55,1h-2.16l-1.5-.63-.25-.47-.79-3,.19-1.64.94-1.86,1.27-1.1,1-.38,2.07,0,.94.37,1.3.91c6.64,7.6-6.54,16.22-10.24,6.31ZM144.15,73l.57-3.06-.29,3.64Zm-.51,103,1.27-6.55v-.57l.32-.44,7.58,5.46.23.57.06.19-.94,6.12-2.69-1.48Zm.42,3.11h.33l6.4,3.39,1.08,1-.89,5.78-.23.14-.76-.86.52-3.16.09-1.81-.75-.58L146.08,181l-1.17-.43Zm.52-88.33.23-2.57.8-4.88.71.52,1.55.53,1.7.06,1.31-.83.94-1.33.28-1.52-.46-1.82-.85-.92-1.18-.47-1.5.43-1,1.33.2,2-.76-2,.14-3.15.38-4.2,0-7.8-.74-4.39-.56-.86.47-.76.41-.48.89,1.48,2.5,3.34,3.29,2.78,3.25,1.34.95.18h.51l.09-.72-1.65-3.62-1.92-10-1.46-2.72-1.22-1.58,5.27-9.36.94-1.19,15.05.14,0,2.91-.24.06L170.59,44l-5.5,8L159,60.61l.38.67,2.35,0L162,62l.15,23.57V95l-1,.38-1.45.67-1.75,1.49-2.48,4-4.47-.84c4.88-1.57,7.13-8.2,3.24-12-3.58-4-9.43-.8-9.26,4.24Zm.23-11,.29-3.36.09-1.76.53-7.26-.25-2.15.29-3.74.56,3.83,0,5.55-.67,7,0,2,.62,1.77,1.39,1.1h1.47l.94-.57.47-1.68-.75-.85h-.23l-.33.9-.81.14-.56-.9.29-.73.84-.61,1.17.19.85,1,.18,1.92-.6,1.19-.94.68-1.27.13-1.6-.28-.94-.77Zm.29,92.52-.56,2.63.09.77,6.12,3.44.7,0,.47-3.21,0-1.38-5.79-4.15-.7.33Zm.33,2.87.18-1.15.29-1.43.42-1.05,1.5.91,3.25,2.39,0,.33-.47,2.68-.13.13-.43-.13Zm0-9.41.75-3.88.57-2.58.47.81v1.53l-.57,2.35-.09,1.14,4.89,3.92.52,1.48-3.76-2.72Zm.66,16.82-.14-.48,3.67,1.91.14,1-.47,2.29-.81-.91.24-.63,0-1.47-.9-.77-.93-.09Zm.15,31,0-5.27.05-.42,2.77-3.16.05-.67-1.37-1.43-1.6-2,.28-1.8,3.07-.11,0,1.54L149.7,221l-.09,6.36-.61,1-2.59,2.44-.19-1.86.06-4.92.27-1,2.82-2.92-.09-.51-1-1-1.88-2.05ZM147.4,56.26l1.12-2.06.2.2.33,4.06.56.15v-1.4L149.9,55l.23.62.71,4.78.27.24.43-1.14.47,3.24.42.24.24-1.62.56,2,.61,0,.53.77,1,1,.18-.44-1.18-1.91L154,61.62l.69.28.67-.19,1.5,3.92-.56,0-2.21-1-2.22-1.82-1.36-1.34-2-2.77Zm.27,117.23-.6,1,.1.76.7.77h1l.43-.53.14-1.24-.84-.77Zm.2-91.56-.14-.34,1.32.09-.29.25Zm-.2,19.45V101l1.23.14,1.32.43.57,3.64,3.43,12.9-2.35,1.67-.76.28.53-1.29.37-1.62-2.82-2.29,1.65-3.64.41-1.34-3.33-2.67,1.69-3.4v-.62Zm-.27,63.33.56-2.45.11-.14.27.24v1.1l.24,1.19.75.43.42.68-.38.38Zm2.21-112.37v-.42l.42-.44.72.24,1.21.09-.09-.52-1.41-.62.7-1.29.33-.15.85.91,1.41,3.4.71,3.34-1.13-.18-1.46-1.11-.94-1.19,1.12.38,1.28.19v-.52l-1.13-.38Zm1.7,51.52-.29-2.24,1.18.24.32.42,3.82,14.3-1.27.94-.29-.13-1-3.34ZM153,58.22l-1-1.38,1.45.52,1.23.19.24,1.54h-.67Zm.51,2-.42-.72,1,.29.9.19.09,1.19-.76-.33Zm2.45,52.57-2.54-10.61,1.7.33,2.59,10.37.51,2.44-1.27.76Zm-3,78.28,1.09-6.39.36-.15,1.38.81,6.06,3.44.19,7-.37.13-4.38-2.33Zm1.65-3.43-.29,2.28.33.86,5.84,3.26.52-.19-.1-4.59-4.85-2.87-1.12-.24Zm-.33-5.79.8-4.45v-.62l.28-.34.43.63,0,1.14-.51,2.3.18,1,4.23,2.29,1.23,1.07.47.84L159,184.58Zm2.86,15.29-2.06-2.48,6.06,3.2,1.74,1-.13.53-4.94-2.63ZM155.07,190l.61-2.68,1.13.47,1.17.86-.7.15-.62.76.1,1.06.32.37-.46,0Zm1.27-85.55,0-2.59.13-.28,1.93-3.3,2.39-1.77L162,96l1.41-.29,1.79.29,1.51,1,.09.71-.51.87.36,1.34,1.09.61.56-.19L167.11,99l.43-.71,1.35,1.39.24.28-.09.44-.38-.06-.94.48-1.32,0-1.54-.76-1-.81-1-.68-.6,1.3-1.41,1.24-1.56.29.62,1,1,2.44.47,3.15-.23,3.25-.91,2.39.15.53.57.15,1.13-.63.14,3.35-.71,0L159.87,116l-1.18-1.63Zm-.19,76.36.61-2,.32.48.2,1.53,1,.48.71,1.14-1.6-.66Zm.89-5.44-.38.29.47.48ZM158,191.6l.42-.18.76-.76,0-1.25.1-.2.94.63.1,2.2-.29.66Zm.89-67.52-.27-.82.8.24.52.2,2.44,1.38.09,4.78-.18,1.91Zm1.88,76.42-2.1-2.25,2.48,1.15,1.74,1.24,0,1.35Zm-.14-140.37,1.66-2.35,3.86-5.58,7.09-10,0,2.48-8.7,12.48-.56.77.09.48.27.18,7.63-.09,1.31.15,0,1.43-3.11,0-.27.05ZM162.87,64l.2-2.59,1.64-.09.09,3.92.06,7,.18,12-.14,10.9L163.81,95l-.56-.24,0-1.29Zm.2,37.65.23-1.71,1.69,1.29c.21,34.45.22,68.91.57,103.37l-.19.14.23,1-.7.19,0,.29.7.3-.05,4.29.38,3.11,6.58,6.55.71.86-.14,2.15-.42-.11-2.78-2.66L164,214.84c0-20.16-.26-40.36-.33-60.46-.18-5,.09-9.85-.24-14.76.29-9.92-.37-19.22-.14-29Zm2.86-21.55.14-.43,7.11-4.49v1.67l-5.27,3.44L166,81.44ZM166,95.5v-.38l7-4.36.09,0,.09,1.77-6,3.78Zm0,30.26v-2l.15-.25,3.14-1.71,2.27-1.44,1.59-.91-.09,2.25-6.59,4Zm0-4.16.06-1.92,4.7-2.91,2.35-1.29v2l-6.35,3.88Zm.09,23.9.11-1.25,6.86-4.36v2.3l-1.69,1-3.9,2.48-1.23.52Zm.06-4,.05-1.73.09-.18,1.41-.77,4.27-2.69,1.14-.57-.05,2-5.92,4-.85.38Zm.23,27.42-.18-2.29,6.95-4.3-.13,2.29L171,166.09Zm-.14-4.63.05-2.39,6.77-4.35v2.35l-6.59,4.39Zm.28-51.95v-.77l.48-.38,1-.15.22.06-.18.24-.19,1.63-.37.13Zm0-5.93.11-.66.65-.39.76,0,.18.82-.18,1.24-.9-.1ZM166.31,183l.14-.48,6.68-4.15-.15,2.28-6.39,4.21Zm.38-79.67.32-.58.47-.43.9-.14.19.68.05,1-.2.1.1.53.43.09.61-.44.09-1-.29-.63.44-.14,2.57.53.85.24-.09,2.39-5.59-1.2Zm-.2,85.55-.13-1.48,6.77-4.25v1.52L168,188.07Zm.29-79.68.56-.76h.57l.37.39-.18,1.53-.66-.34Zm-.19,100-.19-1.63,4.52-2.81,2.26-1.35-.05,1.53-5.83,3.93Zm-.05-4.3.05-2.06,5-3.15,1.5-.76.05,2-.85.44L166.69,205Zm.9-138.32.13-1.32,1-1.07,1.46-.09,1.21,1,.2.66-.09,1.49-.94,1-1.18.14h-.43l-.94-.81Zm0,18.88.28-1.14.19-.39.93-.9h1.23l1,.85.53,1.49-.2,1.25-.94,1h-1.88l-.56-.34Zm.13,45.7.06-.68.23-.9.66-.67.81-.44.65,0,.56.27.8,1.25v1.34l-.51,1.05-.9.62-1.31,0-.47-.42Zm-.18,43.39.09-.95.43-1,1.27-1h1.18l.61.43.51.82.2,1.24-.44,1.3-.88,1.08-.71.2-1.46-.33Zm.24-21.41v-1.67l.94-1.34.94-.53.7,0,.94.77.24,1.85-.47,1.53-.94.67-1.6-.05Zm1.26-54.48-.51-.91,4.6-2.92.2,0-.09,1.82-3.73,2.26Zm-.61,96.44-.42-1.24.09-1.29.38-.92,1-.66,1,.05.74.57.62,1.34-.33,1.86-1,1H169Zm.1-81.72v-.2h.28l.33-.57-.42-1.38,4.56.86.05,1.9h-1.84l-2.11-.52Zm.51-7.75.29,0,4,.9-.05,1.87-4.09-.72.19-1.34Zm-.32,106.87.32-1.48.2-.44,1-.66.9-.05.66.38.52.77.18,1.81-1,1.49-1.5.18-.91-.85ZM34.93,37.43H173.22V289.54H34.93ZM34,290.49H174.16v-254H34Z"/><path class="cls-3" d="M46.09,206.62l-.33,0,0,3.21,1.59.48L49.51,212h.2L59.59,205l.41.14-.56,1.81-.74,1.48,0,.44,3.34,2.76,0,.39-2,4.15.19.48,3.15,2.68-1.88,4,0,.15L63.15,225l1.09,1.16L64,227l.09.63.85.29,2.63.37L67.2,224l-1.45-9.6-2.6-11.62.2-.29,3.94.63,1.79.62-.14-2.1-.56-1.58-3.44-.67-3-.34-4.28,3.06-5.17,3.58-3.15,2.35-.61-.24m-2-45.25.1,10.27.27,18.92,3.67,8.32.94,2.67.33.33,2.12-1.47.19-.53-4.23-9.56L50,188.4l-.1-4.39-.09-7.65L50,165.42l1.32,2.82L55.63,179l2.78,8.22,2,7.31.79,2.05.56-.19,1.94-.14.18-.1-2.21-8.27-4.37-12.61-3.91-9.8-4.89-10.14-.7-.57-.67,0-.33,1.29.11,2.44Zm3.81,11.61.14,3.06.09,6v3.84l.15,3.71,3.38,7.85.67,2,.36.11L60.71,197l-.94-3.44L57.7,187.5l-1.55-4.74-4.09-10.64-.38-.39L51,172Zm5.08-45.75-1.5.24L57,131.82l5.13,6.4,2.45,3.55,4.27,2.09,5.51,2.59,3.71,1.62,6.12,4c22.09,19.53,35,45.12,67.87,44.54v-.29l-1.88-1.91-2.44-2.87-1.56-2-3.76-2.15-2.82-1.1-1.83-.2-.94.34-1.28,2,.1,1.05.37.72,1.08.77,1.13-.06.57-.9-.32-1.58h.41l.66.86-.09,1.49-.38.81-.71.52-2,0-.94-1-.89-2.15c-1.88,1.7-4.17,1.7-5.84-.24l-1.54-2.72-1.61-4.45-.94-1.91-1.36-1.53-1.12-.62-2.13-.09-1.22.86-.52,1.23.19,1.49.37.86,1.37.87,1.65,0,.89-1-.09-1-.8-.76,1.18.15.37.85-.09,1-.85,1-1,.39L120,183c-2.91-1.38-1.82-2.94-2.08-4.67l-1.27.24-1.79-.35-1.59-1.33-1.12-2.49-1.52-7.12-1.12-2.06-1.5-1-1.42-.63h-1.13l-1.18.67-.89,1.63.24,1.43,1.5,1.53,1.84.67,1.09-.43.6-1.91.28.28.15,1.3-1,1-.37.14-1.09.24-1.41-.38-1.36-1.15-.51-.86-.48-1.43.76-2.21c-4,1.24-5.76-2-6.92-5.2l-.84-6.16-1-2.2-.66-.67L92,149.36l-1.46.77-.24.72-.18.75.23.77,1.36,1.25,1.38.19.56-.53.47-1.24h.18l0,1-.41.81-1.43.75-1.27-.42L90,153l-.57-1.59.24-1-.14-.92-1,.39H86.44L84.93,149l-1.88-1.87-1.17-2.58C81,141.24,80,136,75.38,137l-1.45,1.25-.43.8.43,2.16.94,1.24,1.22.72h1.46l.8-.68.29-1-.2-.76-.71-.82-1-.1.19-.18,1.26.09.91,1-.1,1.67-.94.77-1,.28-1.54-.13L74,142.19l-1.28-2.72c-4.8,2-7.79-4.05-11.79-5.64l.09-.15,2.77,1.2,4.52,3.45,1.83.9H72l.9-.53.6-.9,0-1.16-.94-1.28-1.12-.72-1.32,0-1,.85.09.82.7.81-.28.19L68.56,136l.11-.81,1-1,.36-.19,1.38,0,.94.44,2.11,2.34.85-.39,1.22-.28,1.79.39,1.41,1.23,1.41,2.63.9,2.87L83.81,147l1.74,1.72,1.5.67,1.83-.1.72-1.14v-1.39l-.47-.95-1.65-1.34-.9.14-.56.87.61,1.28-.14.34-.33-.2-.81-1.38.14-.77,1.23-1H88.6l1.09,1,.65,1.34.11,1.2L90,148.59l.29.58L92,148.4l1.09-.09,1.26.53,1.74,1.81.71,2.24.41,5.22.53,1.67,1.41,2.2,1.79,1.33,1.45.24,1.74-.76.48-1-.43-1.53-1.88-1.67-1.51-.19-.94.61.1.63.75,1.48-.56-.24-.67-1.15.06-.57.56-1,1.23-.53a3.79,3.79,0,0,1,3.33,5.46l2.12-.39,1.79.68,2,1.71-.23.57H111l.47,1.16.71,5.63,1,3,1.41,1.67,1.08.67,1.22,0,.85-.29,1.17-1.44,0-1.58-1-1.14L117,173l-.94-.11-.65.92.18,1.43-.24.09-.61-1.29.29-1,.61-.53.56-.15,1.18.15,1.46,1,.85,1.87-.34,1.25.24.43c5.31-2.71,7.9,5.61,8.7,9l1.46,2.39,1.13.81,1.22.15,1.09-.59.89-1.28-.38-1.77-1.41-1.58-1.36-.52-1.09.72.58,1.2.83,1.08-.79-.23-.89-1.24.18-1.25,1.23-.71,1.6.23,1.41,1.16.56.57.23,1,.56.86L137,185.5l1.31-.44,1.56.2,2.36.81,3,1.71-.47-.81-3.38-5.44-2.12-.77-2.26-.28-4-1.1-4.09-1.86-.47-.39-.89-.38c-12-6.51-19.92-18.23-29.63-27.58-10.17-11-24.41-20.75-39.84-20.75Zm14.2-37.66.15.92.61.42-.18.48-.53,1.15v9.6l.13,1.49,1.43,1.91-1.18,1.38-.43.77.09,10-.13,2.09.51.87-.47.57.29,5.64,3.62,1.23v-5l-.15-8.37-.14-5.92.24-1.62.61,0,16.52,8.47L93,118.11v9.46l.2,14.91,2.53,2.39L95.9,142l.32-21.65.2-.48,3,1.49,9,4.82.13,9.76-.09,1.09,0,10.56-.09,7.08.24.66L109,155l.75-1.52,2.49-3.59L112,148l.42-22.37,7-3.4,1.27-.42.2-.81-.33-1.2,0-1.39-.33-.81-9.5,4.63-1.12.2-9.13-4.69-26.2-13.67-.28-.57L73.64,98l.15-6.36-.29-2.86.14-1.58h-.51l-.84.62-2.36,1.54.1.33ZM79.34,171l-.09.48,1.27,3.92.47-.24.05-.53h.18l2.92-3.54,5.31-7.46,1.18-2.19-2.49-2.24L85.4,163l-4.09,5.59Zm.28-26.34-.15-.71.72-.1-.1.72Zm3.2-1.71.47-.72h.43l.09.63-.38.28Zm6.49,61-1.55.86.52,3.44L89.4,208l8.47-3.87.42-.29.9.24,8.18,4.16c8.44,5,17.68,9.26,26.39,13.82l0,4.54-.19,10.66.19,1.47-.19.33.57.63.9.2,2.68-1.69v-7.06l.18-7.17.09-14.63,0-11.8-.47-.33-3-.78-.23,2.54-.33,12.24.11,3.92-.2,3.14-1-.33-13.84-7.26-3.85-2.24,0-.59.18-21.84-2.4-2.09-.56-.24-.18,4.24-.29,18.74-.42.05L100,200.35l-.2-5.2-.09-13,0-1-.1-9.13-3.29,5.21v21.61L96,201.07l-2.4,1Zm4.8-47.37.14-.61.9-.25.18.58-.57.61Zm4.75-1.14-.29-.72.48-.33.52.13-.15.68Zm9.92,16.39.19-.58.71-.13.24.57-.24.57Zm4.19-1.06.19-.37.41-.29.53.15.05.66-.43.33-.42-.13Zm4.75-6.34-1,1.38.09.48,2.32,2c1.19-3.19,7.29-11.55,9.73-14l-1.23-3.83-3.09,4.12-1.74,2.53L121.2,159Zm6.11,20.26v-.43l.52-.34.42.14-.22.83Zm3.86-2.87.1-.24.61.15.19.53-.62.28Zm13.88-57.59-2.13-.43.53,2.91.43.63,4.7,1,1.4.23,2.22-1.78,11.11-7.63.32.28,3.06,1.67v-2.77l-.43-.43-2.63-1.58-1.55-.86-3.87,2.87-6,4.11-.09-.62h-.34l1-2.82.19-1-3.3-2.92,2-4.07v-.75L145,107.54l1.59-3.1.34-1.25-1.32-1.2-1.28-1.76-1-.76-2.16-.38.8,8.27,2,11.08,1.18,6.25-.38,0-.18,0Zm5.65,6.93-2.83-.33,2.11,8.55,4.81,14.33,8.52,18.7.6.24.43-.54-.05-17.77L160.9,135l-4.28-10.33-.28-.28L153.75,126l4.09,9.5.09,3.11-.09,21.93.09.49-.36-.15-1.38-3-5.35-14.38L148,133.68l-.24-1.29Zm5.59-4.54-5.14,3.53c1.56,7.46,5.42,17.48,8.15,25l.9.33.56-.9-.05-1.82,0-5.88V136.55l-2.41-6.21-1.59-3.5Z"/><polyline class="cls-3" points="60.06 98.41 57.61 101 57.7 110.94 57.65 125.28 58.08 126.14 60.47 126 60.33 121.36 60.29 112.56 60.15 107.69 59.73 107.06 60.2 106.35 60.06 105.68 60.2 99.08"/><path class="cls-3" d="M62.27,270.75l-1,1.91,2.17.72,2.35.43,2.73.34,6.39,1.2,6.5.71,1.88.09,3.49.34,5.44.09,6.92-.28,3-.34,2.83-.19,7.09-1.23,9.28-2,3.71-1,.18-.33-2.35-3.2c-21.53,5.73-38.24,5.78-59.83,1.29"/><path class="cls-3" d="M85,54.54l-1.78.81.09.39,1.93,3.11c11.85-2.32,21.26-4.27,33.72-4a155.89,155.89,0,0,1,26.53,3.44l2.07-4.12c-10-2.09-24.4-4.71-34.29-3.86-8.4.41-16.86,1-25,3.16"/><polyline class="cls-3" points="147.96 207.67 147.96 213.11 148.01 215.02 148.2 217.13 148.07 227.35 148.34 229.65 150.6 227.74 150.75 224.12 150.75 208.62 150.69 198.68 148.2 198.4 147.96 199.02"/><path class="cls-3" d="M81.73,68.88c.77-9-7-16.41-15.14-8.71l-1.65-2.39c9-5.85,4.58-16.87-5.42-17.38-10.21.09-15.17,11.37-5.9,17.38L52,60.17c-9.25-8.75-17.63,2.1-14.57,11.35,1.16,4,4.75,7.66,9,7.8a7.61,7.61,0,0,0,5.85-2.06c1.63-1.22,2-3.54,3.12-4.64,1.3.68,1.24.55,1.18,2-.61,3.78-3.12,8-5.15,11.16a53,53,0,0,1,15.66,0c-2-3.26-4.52-7.29-5.13-11.16-.1-1.42-.07-1.33,1.17-2,1.09,1.06,1.53,3.5,3.12,4.64a7.65,7.65,0,0,0,5.85,2.06c4.76-.16,8.51-4.51,9.38-9"/><path class="cls-3" d="M126.9,258.09c-.78,9,7,16.41,15.13,8.71l1.65,2.39c-9,5.85-4.58,16.87,5.43,17.38,10.2-.09,15.16-11.37,5.89-17.38l1.65-2.39c9.25,8.75,17.63-2.1,14.57-11.35-1.16-4-4.75-7.66-9-7.8a7.61,7.61,0,0,0-5.85,2.06c-1.63,1.22-2,3.54-3.12,4.64-1.3-.68-1.24-.55-1.18-2,.61-3.78,3.12-8,5.15-11.16a53,53,0,0,1-15.66,0c2,3.26,4.53,7.29,5.14,11.16.09,1.42.06,1.33-1.18,2-1.09-1.06-1.53-3.5-3.12-4.64a7.65,7.65,0,0,0-5.85-2.06c-4.76.16-8.51,4.51-9.38,9"/><path class="cls-3" d="M172.08,38.48v250H35.93v-250H172.08m2-2H33.93v254H174.08v-254Z"/></g></g></svg>