<svg xmlns="http://www.w3.org/2000/svg" viewBox="0 0 208 326">
    <defs>
        <style>
            .cls-1 {
                fill: #fff;
            }

            .cls-2 {
                fill: #6f7072;
            }

            .cls-3 {
                fill: #1c1c1c;
            }

            .cls-4 {
                fill: #facb1b;
            }

            .cls-5 {
                fill: #f8261b;
            }
        </style>
    </defs>
    <title>JC-us-2c</title>
    <g id="Calque_2" data-name="Calque 2">
        <g id="FR_-_EN" data-name="FR - EN">
            <path class="cls-1" d="M14.83,325A13.84,13.84,0,0,1,1,311.18V14.82A13.84,13.84,0,0,1,14.83,1H193.17A13.84,13.84,0,0,1,207,14.82V311.18A13.84,13.84,0,0,1,193.17,325Z"
            />
            <path class="cls-2" d="M193.17,2A12.84,12.84,0,0,1,206,14.82V311.18A12.84,12.84,0,0,1,193.17,324H14.83A12.84,12.84,0,0,1,2,311.18V14.82A12.84,12.84,0,0,1,14.83,2H193.17m0-2H14.83A14.83,14.83,0,0,0,0,14.82V311.18A14.83,14.83,0,0,0,14.83,326H193.17A14.83,14.83,0,0,0,208,311.18V14.82A14.83,14.83,0,0,0,193.17,0Z"
            />
            <path class="cls-3" d="M32.6,65c.38-4.51-3.51-8.21-7.57-4.36L24.2,59.4c4.52-2.93,2.3-8.43-2.71-8.69-5.1,0-7.58,5.68-2.95,8.69l-.82,1.19c-4.63-4.37-8.82,1-7.29,5.68A5.24,5.24,0,0,0,15,70.17a3.84,3.84,0,0,0,2.93-1c.81-.61,1-1.77,1.56-2.32.65.34.62.27.59,1a16.39,16.39,0,0,1-2.57,5.58,26.62,26.62,0,0,1,7.82,0,16.28,16.28,0,0,1-2.56-5.58c0-.7,0-.66.59-1,.54.53.76,1.75,1.56,2.32a3.8,3.8,0,0,0,2.92,1c2.38-.08,4.25-2.26,4.69-4.52"
            />
            <path class="cls-3" d="M198,65c.39-4.51-3.51-8.21-7.56-4.36l-.83-1.19c4.52-2.93,2.29-8.43-2.71-8.69-5.1,0-7.58,5.68-3,8.69l-.82,1.19c-4.63-4.37-8.82,1-7.29,5.68a5.24,5.24,0,0,0,4.52,3.9,3.84,3.84,0,0,0,2.93-1c.81-.61,1-1.77,1.56-2.32.65.34.62.27.59,1a16.41,16.41,0,0,1-2.58,5.58,26.69,26.69,0,0,1,7.83,0,16.3,16.3,0,0,1-2.57-5.58c0-.7,0-.66.59-1,.55.53.77,1.75,1.56,2.32a3.84,3.84,0,0,0,2.93,1c2.38-.08,4.25-2.26,4.69-4.52"
            />
            <path class="cls-3" d="M175.58,260.83c-.39,4.51,3.51,8.21,7.56,4.36l.83,1.2c-4.52,2.93-2.29,8.43,2.71,8.69,5.1-.05,7.58-5.69,2.95-8.69l.83-1.2c4.62,4.38,8.81-1.05,7.28-5.67a5.24,5.24,0,0,0-4.52-3.91,3.81,3.81,0,0,0-2.93,1c-.81.61-1,1.77-1.56,2.31-.65-.33-.62-.27-.59-1a16.41,16.41,0,0,1,2.58-5.58,26.35,26.35,0,0,1-7.83,0,16.47,16.47,0,0,1,2.57,5.58c0,.71,0,.66-.59,1-.55-.53-.77-1.75-1.56-2.31a3.82,3.82,0,0,0-2.92-1c-2.39.08-4.26,2.26-4.7,4.53"
            />
            <path class="cls-3" d="M10.14,260.83c-.39,4.51,3.51,8.21,7.57,4.36l.82,1.2c-4.51,2.93-2.29,8.43,2.71,8.69,5.1-.05,7.58-5.69,3-8.69l.83-1.2c4.62,4.38,8.81-1.05,7.28-5.67a5.23,5.23,0,0,0-4.52-3.91,3.82,3.82,0,0,0-2.93,1c-.81.61-1,1.77-1.56,2.31-.65-.33-.62-.27-.59-1a16.6,16.6,0,0,1,2.58-5.58,26.35,26.35,0,0,1-7.83,0A16.47,16.47,0,0,1,20,258c0,.71,0,.66-.59,1-.55-.53-.77-1.75-1.56-2.31a3.82,3.82,0,0,0-2.92-1c-2.38.08-4.26,2.26-4.69,4.53"
            />
            <path class="cls-3" d="M15,34.27l-.05-.48V29.16H11.45C10.35,36.24,13,42.9,20.66,42.91A8.81,8.81,0,0,0,27,39.62l.23-.38.29-.38.47-.77.38-.91.27-.85.09-.48.06-.44.09-2.19V11.75h2.64V7.84H21.92v3.91H25.6V25.19l-.19,8.6-.05.9-.09.72-.29.77-.13.29-.29.43-.28.48a5.64,5.64,0,0,1-2.92,1.86A5.25,5.25,0,0,1,15,34.45"
            />
            <path class="cls-3" d="M180.41,34.27l0-.48V29.16h-3.48c-1.09,7.08,1.52,13.74,9.21,13.75a8.79,8.79,0,0,0,6.35-3.29l.24-.38.29-.38.47-.77.38-.91.27-.85.09-.48,0-.44.1-2.19V11.75H197V7.84h-9.61v3.91H191V25.19l-.18,8.6,0,.9-.09.72-.29.77-.13.29-.29.43-.29.48a5.61,5.61,0,0,1-2.91,1.86,5.25,5.25,0,0,1-6.39-4.79"
            />
            <path class="cls-3" d="M193.2,289.73l.05.48v4.64h3.48c1.09-7.08-1.52-13.75-9.21-13.76a8.79,8.79,0,0,0-6.35,3.29l-.24.39-.29.37-.47.77-.38.92-.27.85-.09.47-.05.44-.1,2.19v21.47h-2.64v3.92h9.61v-3.92h-3.67V298.82l.18-8.61.05-.9.09-.72.29-.77.13-.29.29-.43.29-.47a5.55,5.55,0,0,1,2.91-1.86,5.25,5.25,0,0,1,6.39,4.78"
            />
            <path class="cls-3" d="M27.76,289.73l0,.48v4.64h3.48c1.09-7.08-1.52-13.75-9.21-13.76a8.79,8.79,0,0,0-6.35,3.29l-.24.39-.29.37-.47.77-.37.92-.28.85-.09.47-.05.44-.09,2.19v21.47H11.21v3.92h9.6v-3.92H17.14V298.82l.18-8.61.05-.9.09-.72.29-.77.13-.29.29-.43.29-.47a5.55,5.55,0,0,1,2.91-1.86,5.25,5.25,0,0,1,6.39,4.78"
            />
            <path class="cls-4" d="M34.51,105.75l4.42,4.54,1.28,1.2,1.45,1.82-.09,3.77h-1l-5.64,4,0,2.15.52.15,2-1.2,4.19-2.77.18,1.86-.65-.43-4.85,3-1.46,1.34,0,2.63.56.15,4-2.49,2.35-1.63v3.35l.15,5.07-.11,5.35-.32-.33-.51-.06-4.8,3.07-1.46,1.34.09,1.86.52.33,6-3.92.66-.71,0,1.67-.06.62-.7-.29-4.61,3-1.92,1.58.47,2.57.32.24,5.18-3.34,1.26-1,.15,1,.09,7.75,0,5.29-.29-1-1,.18-6,4.12,0,2.9.62.06,3.05-2,.42-.14,2.64-1.82.62-1-.15,2.72-.38-.57-.47.06-6,4.1-.56.67.18,2.73.47.05,6.26-4,.67-.76.18,5.59-.18,10.13-.2-.19-.71-.2-5.82,3.68-.85,1.06.18,2.39.56.19,4.14-2.68,2.83-2.05v2.43l-.53-.66-.56.05-6.15,4-.53,1.1.19,1.91.52.33.9-.71,2.63-1.62.19-.06,3.34-2.05c.29,12.59-.25,26.12.32,38.61L44,227.05l.9.43.56-.33c-.07-6.47-.55-14.74-.19-21.18l1,.33.85.24,2.12.86,6.26-4.54,5.07-3.62,1.55-.81,1.41.09,4.33,1,.66,4.72.42,2.4.29,2,.8,5.26.23,3.82.38,3.64.09,6.93-.23.24-1.18-.3-2.54-.51-1.69-.11-.66-.33,1.51-1.82L65.56,224,63,221.79l1.79-3.3-.05-1-3-2.72,1.94-4.15-.19-.92L60.33,207l1.46-3.82-.23-.82L49.33,211l1.18,4.39,1,4.6,1.17,4.67,5,.92V226c-6.06,3-7.64,9.42-1.64,13l.32-.15.38.24,2.3,0,1.09-.44,1.46-1.24.84-2,0-2.1-.14-1.57.37-.06-.14.35.38,0,.76,2,.09,2.59-.9,6.92-.42.34-1.65-1.1-1.7-.23-1.3.33-.81.57-.89,2.2.38,1.38,1.27,1.43.65.35,1.32-.29.61-.57.28-1.49-1-1.05-.89-.33.42-.44.75.06.66.14,1.17,2-.52,9.56,0,5.07.66,4.3.81,2.49.36-.19-.18-.77.29-6.4,1-6.21.14-5-.1-2,.19-1.82.66-3.45.85-2.34,2.82-5.35,3.44-5.31.65-1.2.24-.18.28-.39.09-2.53c-.83-16.76-3.15-31.7-8.75-47.74l-2.63-6.6-4.28-9.47L55,155.6l-3.64-6.26L50,147.66l-1.27-2.24-4.32-5.64c.18-5.52-.35-10.78-.24-16.25l.38-.09,3.86,3,5.36,5.36,1.88,2.3,3.16,3.77a148.34,148.34,0,0,1,18.47,38.42l-.32.44.43.09,2.1,6.88,1.23,4.68,3.62,15.44.57,3L85.6,212l.14,3.25.6,9.32,2,.77,1-.57,1.6-.72,3.15-1.34,4.7-2.2,8.52,4.63.71.35-.24.33-.29-.2-.09.29H107l-2.92.48-2.36,1.19-2,2.34L99.24,231l-.81,3.35.11,1.23-.2,1.68.2,1.52c-.33,10.89,2.28,22-2,32.61l3.11,0,1.17-.28,2.16-.24,5.93-.77,2.64-.43,4.89-1L123,267l1.23-5.68.62-3.92,1.54-9,.43-1.14,1.88.81h1.59l.85-.42.47-.15c3.23-2.49,2.6-5,2.07-8.18l1.13-.66,0-3.31-.36-.33-4.71-1.86-1-.47-5.31-2.83-6.45-3.3-.94-.24-1.12-.86-1.7-.81-13.83-7.22-.88-.09L97,218l-6.53,3-1.23.86L88.28,214l0-.71,0-1,.23,1,.42.71,2-.47,2.68,5.26.62.19,1-.67-.05-.85-1.84-4-.1-.47,2.21,4.63.62.53.75-.48V217l-2.26-5.11.1-.53L98,209.7h1l.86.39v.81l-1.57,5.16.1.76.47.2.6-.81.15.75.43.44.89.15.43-.44,2.39-4.93.47,0,2.87,1.68.09.57-2.44,4.72.24.77,1,.43.56-.19.1.39.66.71,1.08.1,2.12-4.45.74-.9,3.07,1.62V218l-2.4,4.93,0,.29.71.62.74,0,1.79-3.25-1.41,3.16-.09.48.56.53,1.08.28.42-.43,2.32-4.54.32-.24,1.32.52,1.92,1.15.19.52-2.45,4.59.09.81.72.48,1,.06.15.38.46.43,1,.28,1.56-2.64,1.54-2.52,3.16,1.33.27.82-2.53,4.78.09.43.42.42.94.35.52-.35,0,.72.85.53h.81l2.82-5,.84-.14.29-.28.23-2.15.09-5-18.2-9.47-15-8.36-.27,0-.72-.38-7.89,3.1-1.61.86-2,.63-1.36.28c-.83-5.06-2.32-10.14-3.11-15.15l.61-.63,5.23-6.3,3.94-5.68,3.11-5.59L99.42,171l.47-.2,1.92,2.25-.36,2.2.14,2.1,0,15.31.14,5.53,2.92,1.67,4.66,2.25.75.38.38-20.93h.41l3.35,2.92,6.35,4.68,3.29,1.91c4.9,2.42,7.49,4.3,13.26,5.39l-.05,6.75-.33.48.33.77.05,13.86-.32.27.32,1-.05,5.46v11l-.18,1.43h.32l1.52-.86,2.1-1.49-.14-.27-1.22.42-.79-1-.06-.49,2.17-2.72-.14-8.65-2.82-3,.14-.33,2.59-3.07-.05-9.56-2.39-2.48.09-.43,2.26-2.24v-2.11l.22-1.29,4.7.33.15,2.12,2.31,2.9.09.62-2,2.45-.62,1.05v6.45l.15,2.33,2.21,2.25.23.72-1.46,2.49-1,1.24v7.22l.29,1.1.89-.77,3.91-3.58v-9.27l0-18.45.13-1.38,1.79-.58,4.47,4.49,2.68,2.48,3.86,3.3-.14,1.77.23,5,4.23,4.36,5.09,4.77.51-.19.15-1.63-.2-1.15L170.68,218l-4.55-4.78-.29-.81-.09-2.81.23-1.34.51.66.76-.19,6-4.1,0-1.82-.66-.29-6.39,4.12-.29.61,0-3.44.47,1.2.52-.15,6.4-4.25,0-2.06-.27-.48h-.47l-6,3.59-.7.86-.18-2.9.14-2.93-.09-4,0-4.64.09-.33.38,1,.8-.15,6.31-4.25,0-.92-.23-1.1h-.46l-5.32,3.35-1.28,1-.23,1-.22-1.38,0-1.58.18-1.1,0,.53.38.66.33,0,4.23-2.62,2.4-2v-2.15l-.34-.33-1.17.48-5.65,3.63-.27.61-.09,0c0-5-.18-9.93,0-14.91l.27,1.24.71.14,3.85-2.53,2.82-2,0-2.48-.53-.2L167.21,165l-1.37,1.38-.19-.48.15-7.32-.15-.75.06-1.58-.11-3.07.15-7.88.47.86.61-.15,3.1-1.86,3.58-2.35-.06-2.43-.69-.2-6.45,4-.51.95-.2-.71.2-2.54,0,.57.79.39,3.06-1.92,3.76-2.57-.13-2.44-.52-.1-5.08,3.26h-.65l-.24.42-.76.48-.27.72-.24-.81.15-3.83-.2-.67.2-9.22.32.52.89-.24,4.67-2.77,1.92-1.44,0-2.09-.33-.43h-.37l-1.93,1.14-2.5,1.38-2.49,1.68-.28,1.19-.09-1.77.28-1.23.14.24.61.18,6.86-4.3.06-2.39-.53-.24L167.07,118l-1.36,1c-.36-6.23,0-12.47-.2-18.73l-2.4-1.86-.37.43-.23,1.81.09,17.74-.24,1,.18.72-3.24-1.62-1.93,1.09-7.47,5.16-3.77,2.72-5.93-1.23-1.17-7.7-.66-3.63-.19-3.49-.42-5.11-.33-3.16.14-5.2.1-.3,2.91.34,1.93.62.28.77-.18.61,0,.72.91.82,1.73,1.47-.32,1.16-1.6,2.61.33.87,2.81,2.44.05.57-.65,1.53-1.36,2.15.27,1,3.35,2.78-1.27,3.25-.25.86-.51,1.48,9-6.31.51-.33,2.73-2-.47-2.25,0-.38L156,104.7l-.47-3.25-4.75-.9-.1-.44,1-.61,2.44-2.11,1.18-2.1-.15-.1.57-1.77-.24-2.63-1.27-2.15-1.45-1.19-1.7-.63-2.68.24-2.11,1.54-1,2.82.33,3.16-.61-.24-.71-1.16L144.15,92V88.4l.81-4.67.14-1.3,2.12.91,1.92.14.76-.28,1.64-1.44.28-1.43-.42-1.73L150,77.22h-.94l-1.13.63-.38,1,0,1.34.71.76.47-.05.57.14-.48.53-1.07.34-.94-.67-.67-1.54,0-2.15.33-2.9.52-8.85-.52-4.68-1-3.49h-.38l-.05,3.3-.61,7-.8,2.73.19,8.6c-1.16,7.75-5.16,13-9.22,19.26-.15,2.78,0,5.41.09,8.22l.61,5.59.05,1.72.33,3.44.15.72-.1.24.13.29c3.92,24,12.65,47.38,26.82,67.09-.23,5.14.18,11.24,0,16.21l-.29.05-2.54-2.3-3.25-3.2-5.73-6.45-3.53-4.78-1.45-2.15-3.67-6.36a172.7,172.7,0,0,1-18.91-58.35l-.81-10L122,105l-.09-3.53-1.28-.76-1.59-.62-.19.62-1.46.71-5.92,2.53-2.5.92-6.54-3.58-.65-.24-1.27-.87-.65-.14v-.29l2.44-.19,1.59-.33,1.32-.2.75-.33L107.8,97,109,94.61l.46-2.09.38-4.3-.09-2.49c-1-5.58.07-10.18-.65-15.73l.18-.9.14-1.63-.18-2.1,1.22-6.49L111.94,54c-7.64.65-19.32,2-27,4.34-.85,3.59-1.09,7.16-1.84,10.76l-.47,1,0,1.25-.5,1.87-.06.67-.79,2.81-.53.48.29.15-.19.47c-4.1-1.69-7.18.32-7.24,4.84l.7,3-.85.53-.32,1.91.51,1.87.94.61,34,17.88,1.26,0,8.43-3.73.71-.61.85,9.08-.2.48-.09-.86-.47-1-1.12.48-.81.14L115.09,108l-.67-.87h-.51l-.9.54.2.7,1.83,4.59-2.36-4.83-.65-.23-.66.38.14.62,1.61,3.82.6,1.82-.42.24-3.53,1.62-1.59-.62,1.41-5,.18-1.62-.51-.09-.9,1.14.24-1.25-.76-.52h-.71l-2.57,5.26-.67,0-3-1.82,2.24-4.54.25-1.19-1.13-.71-.85.61,0-.8-.81-.67H100l-2.7,5-.41.13-3.11-1.62,2.21-4.39.28-1.25-.42-.42-.9-.19-1.17,1.71.75-1.95-1-.82-.74,0-2.08,3.95-.94,1.31-3.39-1.64v-.57l2.45-4.63v-.72l-1.09-.72-.83.24-.09-.53-.85-.57-.71-.09-2.82,5-.71.11-3-1.73,2.62-5.35-.18-.47-.81-.48-.65,0-.56.62.14-1-.34-.29-1-.38-.47.43-1.6,3-1.13,1.62-.8.09a20.73,20.73,0,0,0-.51,6.84l7.38,3.82,27.75,14.91L119.56,119l.7.1,1.41,7.35.71,4.5.51,1.91,0,1.1-1.41,1.53-1.93,2.34-1.6,2.72-3.85,5-3.76,6.08-1,1.86-1,2.29-.85.72-1.21-1.29,0-1.05V152.4l-.15-2.05.15-.54-.15-1.38.2-2,0-5.92-.24-.15.24-7.88-.19-4.69.09-.72-2-1.14-2.64-1.34-3.53-1.72-.23.77.09,1.43-.24,2.1.2,2-.23,2.44.18,5.59-.33,6.51,0,2.19h-.48l-3.89-4L90,139l-1.79-1.39L87,136.76l-2.31-1.85-.52-.63h-.46l-2.35-1.47-1.18-.68L78.73,131l-2.35-1.1L74.77,129c-2.69-.73-2-1.31-4.51-1.68L70.35,106l-.14.39-.24.09-1.92,2.77-.66.67-.13,4.39-.06.59.09.24.15,3.58,1.64,1.81.53.1.45-.1-2.53,2.88-.24,2.85-4.46-.9-.15-2.68-1.74-1.9,1.65-2.21.14-5-.18-2.06.13-2.39-2.62-2.77.09-.39,2.44-3V96.29l-.14-.81-.84.77-.7,1h-.58l-2.86,2.87.09,2.59-.14,22.22-.15.14-3.24.19-1.74,0-3.48-3.09-4.18-3.06-.53-1v-6.36l-6.48-6.45-3-2.67-.09,0m1.5,9.37L34.93,114l.29,1.92,1.17,1.28,1.47.06.74-.48.71-1.1.29-1.25-.47-1.81-1-.73L37,111.78Zm-1.18,92.57-.29,2.87h.33l.25.15,2.44-1.4,3.8-2.24.85-.52,0-2.92-.62-.15Zm.24,28.82-.62,1.15.15,1.82.7.19,5.55-3.54,1.65-1.29.18,11.95L42.51,245l-.62-.2-7.19,4.83.09,2.43.57,0,7.24-4.69,0,1.53h-.9l-4.18,2.68-3,2.39.09,2.1.27.29.43-.05,7.29-4.93.09,6.45-.05,4.12.24,3.82,2.58.1.06-3-.2-10-.09-10.71,0-10-.2-.19-1.83-.54-.56.39,0-.43-1.88-1.24-1.07.47Zm-.53-1.76.24.85h.52l4.52-2.86.19-.49-1.32-1.76-3.48,2.05-.7.91Zm4.2-25.33-4,2.77.14,2.43.94-.33,4.47-2.48,1.79-1.34.11-2.59-.72-.13Zm-2.69-74.8-.51,2,.75,1.72.79.72,1.7.09,1-.76.56-1.3-.23-2.19-.9-1.24-1.65-.19-.74.24Zm.75,18.59-1,2,.05,1.33.57,1.25,1.22.86,1.65-.18,1-1.07.56-1.81-.37-1.95-1.13-.91-1.36-.14Zm-.47,23.71-.28,1.53.19.75,1.18,1.4.74.14,1.23-.43.8-.87.61-1.62-.19-1.76-1-1-1.56-.1-1.08.63Zm.53,20.21-.67,1.54,0,1.23.42,1,1.08.81,1,.18,1.08-.66.84-1.14.19-1.67-.52-1.25-1-.77-1.56.1Zm.22,44.93-1,1.57.1,1.25.42,1.38,1.46,1.05H39.6l.88-.61.67-1.82L40.86,240,40,239l-1.93-.1Zm-.56,20.5-.23,1.29.19.81,1,1.3.89.33,1.5-.14.85-.77.47-1.68-.52-1.81L39.6,258H38.28l-1.09.48Zm8-114.46.09-.33h.23l2.92,4.1,2.49,4,3.19,6.25,5.41,11.77,3.2,8.27,2.31,7.06,2.07,8,.23,2L65.41,196l-1-.29-2.64-.24-2.39,1.77-6.82,4.44-2.35,1.67-.89.57-2.93-1.48-1.64-.9c.3-16.68-.5-33.74-.13-50.42Zm6.95,115.66-1.07-.24c3.52,5.14,1.61,13.77,6.66,17.86l1.14-2-.15-.48.8-.66.14-.92-1.54-1.23.33-.2,0-.66-1.6-1.64.38-.33-.05-.95-1.08-.91-.24-.33.43-.15-.14-1-1-1.1.27-.72-.51-.86.46,0,.28,1.43.53,1,.47-.15.32,1.71.53,1.31.47-.15.56,2.58.76.95.22-1.19.23.86.53.62.32-.38.44-.19,1.3-2.48-2.44-3.73L57.47,264l-2.08-1.67-1.59-1Zm4.23-130.68-.38-.66c7.51-1.6,15.12,1,21.51,4.83,18.2,9.39,27.45,29.09,44.3,40.19a48.78,48.78,0,0,0,19.94,7.07l1.41,2.49,3.35,4.63,2.49,3.16H148l-.2.33-.71.24-5.54-.38-3.34-.38-2.12-.53-1.46-.42-4.37-1.44-3.52-1.77-4.67-2.58-5-3.88-8.14-7.3-6-6.6-8.37-8.17-2.3-2.54c-6.65-5.63-14.61-11.9-23.2-14.09l-2.15-.82-1.75-.33L65,141l-.74-.18-.47-.77-2.68-3.53-3-3.64Zm3.82-22.83-.33-.53.65.15,0,.47Zm7.7-11.95.1,7.56,1.28,1.32,1.83,1.68.09-17.54-1.92,1.25L67.49,90.7l.09.33.33,0,.09-.33.8-.34,1,1.3Zm.95,51.47.43-.09,6.06,2.63,4.32,2.24,1.42.81,5,3.88L89,159.85v.63l-3.85,6.21-5.12,6.89-2.32-6.36-1.5-3.69-1.88-4.4-2.59-5.53ZM81.5,177.53l.47-.27,0-.39,1.27-1.43,2.64,2.77.14-.14,1.36,1.57,1.84,1.62.22.63L88,183.71l-3.72-3.55-2.16-2.29Zm1.13,5.79-.19-1h.43l3,3.31-.13.81-1.66,1.71-.36-.13-.58-2.3ZM85.31,101l0-.33.2-.09Zm0,72.7.71-1.39.52-.48,1.79,1.58,3.56,3.73L92,177l.28.71L91,179.5l-5.27-5.22Zm2.5-3.54.28-.81.71-1.34.52-.43,5.45,5.59v.53l-1,1.57-.33.14-1.23-1.23-.7-.86-2.16-2.06-1.13-1.34ZM91,109.43l-.38-.19L91,109Zm-.2,55.79L92,163.05l.33-.22.05.33.18.28,3.16,3.19,1.69,2L96.65,170l-.75.61L91.48,166l-.25-.57Zm1.41-58.36-.27-.1.18-.2Zm.76-1.92.18-.53.2.2Zm5.7,6.55v-.28h.37Zm10.86,46.83.38-.86.94-1.14,5,5.11.58.15-.81,1.1-.71.9-.56-.09-3.67-3.78Zm2.26-3.91.41-.86.71-.87h.61l4.71,5.07v.72l-1,1.1L113.39,156,112,154.35Zm2.39-4.26.38-.81.66-1.05.42-.29c1.31,2,4.11,3.51,5.59,6l-.22.58-1,.91-.33-.1Zm1.17-36.27-.18-.81.65,1.76ZM117,146.47l1.18-2,.37-.3.37.2,5.41,5.41v.42l-.74,1-.85.77Zm1.31,20.75.28-.34,1.09-1.81,3.29-5.17,2.35-3.15,2-2.73.85-.62.79,2.63,1.65,4.41,5.7,13.14,1.64,2.85-.42.68c-6.14-.65-11.62-4-16.6-7.46Zm4-23.38L120.12,142l.9-1.48.79-.28,3.39,3.25.24.76.74,3.58-.45.05Zm18.86-13.51.28-.49H142l4.18.77,3.77-2.54,7.76-5.3.51-.57.39-.1,2.06,1.19,1.83.81.29.49-.23,1.24.23,9.13-.09,4.39.18,5.35.24,4.84-.09,1.8-.2,21.56.34,8.89-.52-.34L159.77,177l-3.15-5.55-3.34-6.34-1.88-3.82L148.49,154,145,144.23Zm5.54-75.24,0,.67,1.13,2.39,2.64,3.49L153,63.93l2.36,1.29,2.78.77c-4.66-6.46-.64-12.71-7.06-18.16l-.9,1,.62.34-.24.48-.18,1.05h-.2l-.7.86.05.37,1.73,1.58-.61.3.05.29,1.94,2-.81.24.38,1,1.64,1.43-.51,0-.56.15.51.95,1.23.94-.71.26.6,1.56-.79-.13-.38-1.78-.51-.33-.24,1L152,58.73l-.47-.58-.29.53-.88-4.25-.52-.39-.28,1.82-.33-1.54-.34-1-.74.38-.09,0,0-1Zm15.87,9.52.09,3.83-.09,3.23.13,2.69,0,.42V90.41L162.54,94l.29.86h1.27l1.55.63-.14-.81,0-4.21V80.28l.29.86.65.2,5.75-3.69,1.45-1.2V74.63l-.62-.18L168.8,77l-3.09,2.3-.2.67-.14-.63,0-1.29.14-1.76.15.86.74.24,2.21-1.54,1.14-.57,3.8-2.87.05-1.91-.33-.19-.34-.05-5.73,3.64L165.6,75.4l-.23-.09.14-1.25-.24-7.4.15-2.43,0-3.73-.19-.39h-2.54Zm5.64,28.15-2.4,1.76.09.72.7.62.9.48,6.16-4-.09-2.2-.57-.23Zm-2.35,48.07-.15-.76h.19Zm.09,21.41.09,1.58.33.33.47-.09,6.73-4.54-.06-2.48-.47-.29-6,3.73-1,1Zm1.45-97.5-.09,1.35.29,1.1,1.21,1,1.7-.06.89-.67.57-1.66-.28-1.34-1.13-1.11-1.46-.2-1.09.5Zm-1.5,143.2.19-.44V208Zm2.4-125.46-1,1.62.09,1.63.47,1.2.85.57,2.08-.15.89-.86.32-1.57L171.34,83l-.84-.67L169.42,82Zm-.85,47,0,1.48.43,1.19.75.59,1.64,0,1-.77.53-1.33-.19-1.87-1.32-1.24h-1.12l-1.28,1Zm.24,42.43-.62,1.87.1.63.66,1.58,1,.51h1.18l1-.66.89-1.49.05-1.72-.38-.9-1.36-1.05-1.37.14Zm.18-22-.65,1.43.47,2.06.79.72,1.7,0,1-.68.62-2.1-.28-1.52-.81-.87-.65-.29-1.18.24Zm.76-53.29-.51.72.13.43.85.87.7.13,3.71-2.39.1-2-.28-.34-.51.06Zm-1,95.21-.13,1.33.13.77.49,1,.93.62h1.55l1-.92.28-.81.14-1.58-.47-1.14-1.07-.95H169l-1,.86Zm.81,18.73-.32,1.2.46,1.58,1.32.9,1.6-.28.84-1.24.23-1.68-.47-1.25-.94-.75-1.08-.11-.51.2-.85.76Z"
            />
            <polyline class="cls-5" points="34 269.77 34.13 271.65 34.09 273.65 34.19 273.84 34.28 274.51 34.19 275.08 34.37 275.75 34.28 280.58 34.6 285.84 34.42 286.02 34.66 286.6 35.69 286.6 35.51 286.32 35.78 285.6 36.77 283.97 39.54 280.1 42.18 276.04 42.46 275.89 42.69 275.27 44.81 271.98 46.89 269.44 49 266.19 45.01 266.19 37.75 266.28 34.66 266.28 34.23 266.57 34.28 268.01 34.04 268.25"
            />
            <polyline class="cls-5" points="34.6 265.34 34.19 265.43 34.42 265.76" />
            <path class="cls-5" d="M44.68,151.3c-.08,8.36.54,17.31,0,25.57.22,5.14.48,11,.47,16.16l1.68,3.29,2.68,5.79.85,1.28.33.06,3-2.21-4-8.89L49,189.87l-.38-15.44-.23-16.77.23-.81,3.53,7.35,1.79,4.31,1.69,4.39,1.6,4.6,2,4.87,2.06,6.39,1.74,6.93,4.29.87.14-.43L65.79,190l-1-3.48-1.92-6.22-3.82-9.36-.75-2.39-1.69-3.79-4.42-8.49-2.58-4.69-2.93-4.49-1.18-1.3-.74-.28"
            />
            <path class="cls-5" d="M51.64,289.09l-.25.48,1.18-.2,8.57.15.33.05,3.89-.09,18.25-.11c18-.16,36.1-.05,54.15-.13l.05-.59-.94-1-1.23-1.91-2-2.81-4.33-6.32-2.83-4.05-1.18-2-.69-.81c-3.29.87-6.68,1.59-10,2.48l-8.83,1.49-2.27.24-1.88.28-5.55.29-.19.05a131,131,0,0,1-33.72-3.69l-2.6,4.26-3.27,5.79-4.11,6.88v.18"
            />
            <polyline class="cls-5" points="53.85 208.6 53.75 209.04 53.99 209.85 54.83 213.38 55.54 215.58 55.54 216.21 56.06 217.92 57.47 223.56 57.74 224.81 58.41 226.19 61.38 226.34 61.38 226.04 59.15 223.32 59.3 222.03 59.63 222.03 60.56 220.03 60.71 219.17 59.21 218.12 57.61 216.48 59.39 212.57 59.63 211.76 56.77 209.7 57.27 208.27 57.98 205.88 57.52 206.12 57.23 205.93 56.67 206.12 55.73 206.89"
            />
            <polyline class="cls-5" points="62.55 105.13 62.23 106.43 62.36 106.95 63.06 107.96 63.86 108.47 65.56 108.77 66.59 107.86 67.11 106.05 66.93 104.85 66.35 104.17 65.41 103.7 64.33 103.55 63.44 103.84"
            />
            <polyline class="cls-5" points="63.77 118.66 62.88 119.94 62.97 121.1 63.3 121.91 64.43 123.1 66.17 122.87 67.39 121.38 67.49 120.18 67.11 119.08 66.17 118.33 65 118.09"
            />
            <polyline class="cls-5" points="67.71 90.31 65.23 92.37 65.32 92.56 66.17 92.9 67.2 92.56 67.96 91.84 68.05 90.55"
            />
            <path class="cls-5" d="M70.78,36.69l.09.24,4.47,6.93,1.41,2L78.17,48l5.5,7.55.94-.52.88-.25,5.61-1.33,2.63-.67,8.75-1.44,3.86-.42,4.52-.43a129.17,129.17,0,0,1,36.25,4l2.5-4.06,7.52-12.67.8-.95,0-.63c-27.34-.09-54.7.24-82,.34"
            />
            <polyline class="cls-5" points="73.27 120.24 73.41 125.59 73.37 127.44 73.55 128.79 76.79 130.33 81.31 132.9 83.1 134 88.51 137.77 92.8 141.69 94.16 142.65 93.97 141.6 94.11 138.64 93.83 133.95 94.01 124.3 94.3 117.37 93.97 116.45 83.05 110.68 74.44 105.94 73.7 105.7 73.5 106.95 73.64 108.38"
            />
            <polyline class="cls-5" points="87.52 189.34 85.26 191.87 86.53 198.09 87.7 205.11 88.1 205.78 89.36 205.31 96.84 202.06 97.83 201.43 97.96 200.82 97.78 200.33 97.83 194.89 97.59 187.09 97.72 185.03 97.45 175.58 97.25 175.29 97.02 175.68 96.78 175.53 95.48 177.68 89.83 186.19"
            />
            <polyline class="cls-5" points="89.31 225.53 88.98 225.71 89.22 225.95 93.92 228.63 98.9 232.31 100.83 228.76 102.57 227.48 105.39 226.34 108.41 226.37 110.48 226.96 108.5 225.57 103.98 223.38 101.78 222.13 99.8 221.26 99.28 220.6 94.3 222.79 92.37 223.89 90.39 224.66 90.25 224.9"
            />
            <path class="cls-5" d="M98.9,99.21l-.42.05,5.41,3.09,4.85,2.5.85.28,4.56-2,4.89-2,.23-.61-1.21-1.25-3.68-2.15-2.2-1.49L110.29,94h-.66c-2.52,4.44-4.26,6.41-9.64,5.51"
            />
            <polyline class="cls-5" points="110.57 130.27 110.66 147.86 110.62 149.87 111 151.4 112.03 149.34 115.23 144.08 119.04 138.78 123.27 133.95 122.47 130.56 120.73 119.28 120.45 119.23 114.89 121.52 111.98 123.25 110.66 124.35"
            />
            <path class="cls-5" d="M114.62,190.4l-.2,17.1.15,1,5.88,3.15,5.73,2.68,3.07,1.87,5.69,2.81c.57-5.61-.13-11.22.28-16.82l-.19-.57.14-1.77-.18-2.58.23-.48-.34-.81-1.12-.2L129,194l-7.44-4.11-6.44-4.69-.47,3.88"
            />
            <path class="cls-5" d="M141,130.07c2,10.28,4.07,14.29,7.38,23.38,2.73,8.3,7.72,16,10.91,23.85l.43,0,.84,1.62h.23l.81.92.47.27.57.72.61,0,.14.18.13-.33.1-7.4,0-1.25-.15-1.24.15-.58c-.56-12.23-.11-24.6-.33-36.75l-.76-1.19L159,124.06l-.85-1.73L155,124.48l4.32,10.43v5.92l.2,6.79-.2,20.69-1.21-2.72-2.88-6.22-1-2.72-4.37-10.6-4.28-15.11-.57-.43-2.81-.53"
            />
            <polyline class="cls-5" points="142.19 231.93 140.91 233.12 141.14 233.93 142.04 234.46 143.4 233.21 142.97 232.26"
            />
            <polyline class="cls-5" points="141.76 217.2 141.01 218.49 141.1 219.35 141.57 220.18 142.75 221.26 144.81 220.93 145.76 219.79 145.57 218.06 143.97 216.78 142.7 216.72"
            />
            <polyline class="cls-5" points="142.23 201.34 141.43 202.59 141.66 204.74 142.28 205.35 143.55 205.73 144.81 205.64 145.57 204.87 146.28 203.49 145.81 202.01 144.76 200.95 143.26 200.77"
            />
            <path class="cls-5" d="M147,99.83l-.23.09.09.48.94.87,1.18,1.47.09,1-.62,1.23-.89,1.64.75.75,2.55,2.3-1.94,4.26.1.48.19,0,2.35,1.72.05,1-1.22,3.29.09.39.56-.29,3.62-2.87a166.93,166.93,0,0,1-4-17.3"
            />
            <polyline class="cls-5" points="165.42 50.46 158.92 59.92 159.34 60.59 165.22 60.59 174.12 60.35 173.83 57.01 173.98 51.93 173.88 46.58 173.98 38.7 173.74 38.56 167.63 47.5"
            />
            <path class="cls-3" d="M34.93,268.73v.52l.9-.05,7.44,0v.28l-6.17,9.08-1.56,2.06-.61.66v1.34l6.82-9.74L44.34,269l-.19-.44-1.46.05M35.22,102.26l-.29-.28v87.56l.14-.53,2.59-1.72,4.14-2.53,0,2.33-6.57,4.3-.34-.47v40.14l.2-.72,3.76-2.24h.33l.85,1.2-3,2-2,1.2-.1-.83V251l0-.77,5.27-3.53,2.21-1.2-.09,2L35,252.09l-.1-.24v2.59l.94-.92,6.5-4.15.05,2.06-7.49,4.87V267l1.32-.13,11.47-.24.05.37L37.33,282.16,35,285.5l0-.05v1.44l13.6-19.6.62-1.34-.62-.24-.28.05-1.89-.14-.23-3.29,0-2.3L46,258.45l.09-2.25L46,251.57l.11-3.1-.2-15.15L46,232l1.93-.91,2.1-1.52,2.7-4.3,2.11.28,2.39.53.11.14-1.23.52L54,228.54,53,230.16l-.85,3.1.38,2.3,1,2L55,239l1.35.66h2.36l1.59-.47L61.89,238l.94-1.73.32-1.43L62.92,233l.19-.2.51,1.87,0,3.82-.7,3.63-.09,1.68-.67-.58-.74-.33-.85-.33h-1.7l-1.27.62-1.27,2,.09,1.62.38,1.1,1.41,1.25h1.45l1-.71.47-1.3L61,246.11l-.71-.56-.85-.1-.33-.33.48-.34,1.07.2.85,1.13.28,2.36-.56,7.06v5.36l.42,4.2.76,2.68-.33,1.39-.38.14-1.32-2.15-2.49-3L55.26,262l-.76-.38-2.53-1-1.23-.39-.52.3,1.6,3.43,2.12,10.28.71,1.53,2,3.06-4.57,8-.85,1.24-.42.86h88l-.7-.38-1.37-2L129.53,276l-5.88-8.84.41-2.77,1.85-10.9,1.41-5.36c5.7,2.95,9-4.32,7-8.31l.62-.09,1.64-1.05,6.21-4.4,4.47-3.69,3.76-3.43A48,48,0,0,0,163,209.32l0,4.88.24.47,5,5,4.8,5,.18.34V109.43l-.13,1-2.59-.28-1.75-.53.48-.52-.39-1.49,3.82.67.56.38V72.06l-.94.77-6.3,4.1-.14-1.71,4.32-2.92,3.06-1.91V57.06l-.75.13-6.4,0-.8-.15,1.13-1.76,1.23-1.67,3.61-5.35,2-2.54V36.84H100.27l2.07,0L103,38.6l2.35,7.56.71,1,5.41,0,13,.44.32-.57,1.6-6.71,1-3.2,3.94-.09.8.15-1,2.24-1.69,5.79-.85,2.43.42.44,5.5.71,2.5.43,3,.29,5.22,1,.8-1.14L152.77,37l3.48.1-.47,1.14L145.1,57.06a105.79,105.79,0,0,0-37.41-3c-7.13.37-15.1,2.35-22.2,3.67l-1.17-2-3.85-5.64L72.94,38.9l-1.27-1.68.56-.38H70.12l8.37,12.37,6,9v1.19L84,62.55,81.82,74.21,80.7,77.56c-5.28-2.77-8.74,3.86-7.06,8.31l-.51.14-3.52,2.35-7.67,6.36-7.49,8.4-4.23,6.22L46.94,115l-2.13,3.35-.18-.25-.15-6.46L38,105.23Zm6.44,10.48L35,106.28v-2.53l.66.29,7.85,7.74C44.09,150.2,44.8,188.69,45,227.1l-1.73-1.19c-.4-9.18-.35-18.79-.38-28-.21-27.66-.44-55.16-1.09-82.83Zm-6.68,15,.05-2.39,6.07-4,.14,2.48-6,3.92ZM35,123.1v-1.72l6-4,.18,0-.09,1.86-4.94,3.21ZM35,148.25V145.9l6.35-4.16.15.28-.2,2.39-5.83,3.73Zm.05-4.78v-1.69l6.3-4.19v1.8l-5.73,4Zm.28-28-.13-1.34.22-.63.76-.95.85-.28.89.09,1,1,.1,1.82-.28.82-1.13.94-1.23,0-.7-.66Zm1.55,52.72-1.88,1V167l.15-.48,4.47-3,2-1.2.09,2.58ZM35,164.35V162l5-3.45,1.56-.76,0,2.49-6.31,4.11ZM35,187l.24-2.63,4.27-2.67,2.22-1.24.13,2.15-5.63,3.76Zm.09,20.55-.14-.81.2-1.53L38,203.39l1.75-1.19L42,201,42,203.45Zm-.14,28.62.14-1.8.24-.24,5.84-3.64,1.09,1v.39l-7,4.68Zm.14-12.08L35,222.33l.2-.87,3.24.67,1.79.29,1,.66.09,1.29-.7.48-1,.05-3.53-.57Zm.15-3.25L35,219.26l.05-.19.24-.33,4.09.67-.33.71.28,1,.47.29.19-.29-.34-.57.44-1.1.88.15.53.62v1l-.67.38-2-.15Zm-.24-3v-1.82l1.6-.05,1.37.29,2.3.29,1,.67.15.86-.38.48-.8.09-.47-.77.14-1.14h-.34l-.56.52.47,1.48-3.85-.57ZM35,215l.05-2,.24-.1,1.5.19,3.48.57,1.23.63.09,1.06-.47.37-.94.2-4-.68-.24.05Zm.05-3.35v-2.2l6.86-4.21.2,1.2-.14,1-1.56.9-4.52,2.92Zm1.83-76L35.92,134v-1l.43-1.14,1.18-.86,1.63.24.67,1.05.09.95-.14,1.62-.89.86-.8.34Zm-.75,17.68.43-2,1.26-1.14,1.47-.15,1.07,1,.19,1.77L40,154.31l-1.5,1.11-1-.11-.85-.72Zm.28,22.12.62-2.14.85-.82,1.54-.1.57.43.47.82,0,1.62-.29.77-.94,1.1-1.12.37-1-.61Zm.19,21.61.05-1.25.29-.71.65-1,.29-.14,1.54,0,.76.53.42,1.71-.42,1.44-1,.82-.79.33-1-.48Zm0,45v-1.34l1-1.14.94-.25,1.5.14.66,1,.14,2-.74,1.29-.62.39-1,0-.89-.48Zm.32,19.59-.14-1.34.61-1.14.85-.53.62-.19,1.27.24.7,1,.09,1.8-.28.92-.75.62-1.41.1-1-.48Zm2-38.95-.38.9.76,1.07.42-.35L39.4,224v-1.47Zm0,4.25.14-.33.85-.48,1.83-.09,1.7.81.78.77,1.09.66.81-1.53,1.36-.95,1.41-.33-1.27-2.3L46.74,219v-1.34l.94-4.21-.09-.9-1.61.62-.22-1.87.22-1.47,1,.09,1.74,1.34.94,1.73,2.2,9,.19,3.05-1.83,3.16-2.26,2-1.37.68-1.6.42-1.68-.24-1.47-.71-.61-1.1.29-.1.32-1-.23-.95-.94-.76-.56.19.41.33.71,1.1-.42.72ZM40,213.67l-.75.57.09.92.47.46.19-.18Zm3.15,24.56,0-6.21.2-.19,1.41.24.33.28c-.08,11.15.45,22.4.14,33.51l-1.61-.1-.22-.33v-4l-.25-10.13.11-2.24-.11-2Zm1.65-115-.14-.48.09-2,.28-.19,3.48,2.77,4.76,4.59.36.34,5.46,6.35,4.34,5.5,3.75,6.49,4.29,8,4.47,9.51,2,5.11,2.86,8.33,2.93,11,2.86,13,1,7,1,9.85.29,2.1,0,5.26-2.25-1.09c.07-19.9-5.59-41.71-13-60-6.27-13.48-11.4-24.29-22-35.33Zm-.09,4.21.42-.2,4.14,2.29,1,.29.34-.33,1.73,1.86.71.87-4.29-2.25-2.11-1.19-1.41-.63Zm0-1.4v-1.23l.47-.1,3.15,2.67,1.22,1.34L48.34,128l-1.45-.58L45,126.25Zm.05,15.44.33-.37c7.74,9.24,15.51,26,19.42,37.79a146.19,146.19,0,0,1,8.71,48.85l-.67.77-1-.19-.24-1.2-.38-8.56-1.26-10.7-.24-.53c-.9-13.79-7.87-32.09-13.35-44.44l-5.37-10.13-1.79-2.69L45,144.41Zm.09,7.74.14-3.38c9.68,13.33,18.18,34,21.5,50.08l-2.5-.53-2-.14-.89.38-9,6.27L50.36,203l-4.7-10.42c-.45-14-.41-27.87-.62-41.82ZM46,137.92l-.24-4.87.18-2.39L48.71,132l5.94,3.3,0,.76L53.85,142l-.38,0-6.21-3.34Zm-.48,59.5.33-2.63,3.49,8,0,.81-3.53-1.67Zm.24,7.36,0-1.68.89.15,1.65.81,1.26.48L62.22,196l4.28.71.32.28.2,1.91-3.72-.84-1.56.13-12.36,8.89h-.76l-2.77-1.47Zm.14,4.15-.09-2.24.37-.15,2.26,1.3,1.08.24L54,204.59,62.27,199l4,.52,1.13.48.38,2.15-.48.1-4.46-.82-3.39,2.39-9.55,6.84-.51.18-1.46-1.05Zm1.45-66.56-1.12-1.64,3.89,1.88,3.4,2.09-.23,2.59-.57,3-.7-1,.51-3.35-.15-.86Zm-.51-9.08,0,4.1L49.89,139,51.16,140h.48l.84.48.52-.28.18-1.82.09-2.35-2.11-1.44-.65-.13-3.21-1.76-.56.13Zm.6,3.29.24-2.48.2-.19,1,.37,1.23.92h-.57l-.94.9.33,1.34-.71-.24Zm1.7,8.27-.28-.77,1,.48,1.74.95.14.72L51.21,148l-.7-1,.09-.85-.33-.39-.85-.43Zm.66-6.84.76-.24.41-.42L51,136l-.29-.33.38,0,1.41.82v1.19l-.38,1.66Zm1.17,77.81-1-4.11,1.23-1,.23.05,2.12,7.56,1.45,6.45-1.83-.44Zm1.51,47.74-1.13-2.34.34-.09,1.22.37,2.87,1.69,3.15,3.34,1.88,3,.33,1.32L59.82,273l-.52-2.67.05-1.4-.38-.57-.38,4.12-.7-2.68-.42-3.26-.2-.09-.27.9.23,1.68-.32-.14-.67-4.68H56l-.18,2.19-.6-2.49-.57-.09-.28-.38-1-1.25-.36.15,1,1.63.62,1.52-.67-.33-.89.15.89.52,1.55,1.29.15.62-.85-.33-1.23-.15.09.29.72.15,1.78,1.43h.34l0,1-1.09-.43-1.54-.2-.43-2.19Zm-.7-53.18.47-.53,1-.58.32.52,1.56,5.55,2.11,9.27-.14.72L55.77,225l-1.92-7.41Zm1.78-83.74-.47-.72c30.31-2.08,46.4,25,66.37,43.16,4.62,3.55,13.47,9.65,19.67,9l.61,1.28,2.25,3.83,3.06,4.82,1.64,2.2,2.83,3.35,2,2.19.52,1.49c-12.53,1.4-25.32-3.05-35-11.14-11.39-8.46-21.84-22.09-32.59-31.55-6-4.84-10.13-6.69-16.84-9.5-3-5.67-5.8-8.48-9.55-13.14ZM52.29,288.85l1.18-2.35,9.68-17.2.76-.1,4,1.16,5.68.81,2,.33c7.95.59,14.08,1.45,22.21.52,8.46-.37,16.7-2.34,25-4.16,4.32,7.27,9.94,14,14,21H133l-6.82-9.74-1.84-3-.65-.92-1.5.24-10.5,2.15-3.53.53-1,.18,1.56,5.08,1.75,4.68.13.81-4.61-.09,0-.29-2.68-8.7-.71-1-2.22,0-.18,0-10.73-.18-5.32.05-2.44,9.12-.47,1-1.59.14-2.41-.14,2.35-9.08.2-1.44c-5.46-.85-11-1.45-16.42-2.33l-2,3.34-2.91,5.5-2.5,4.15Zm.71-54.2-.14-2.06.52-1.9L54.45,229l2.12-1.61,2.35-.44,1.41.14,1.89.63,1.4,1L65,231.35l.47,2.3.09,2.82L65.47,238l-.29,1.24-.42,5-.61,3-.66-3.35.33-3,.61-5-.38-2.52-.9-1.91L61.65,230l-1.5-.72-1.74-.13-1.79.33-1,.9-1.14,2,0,.9.56,2.15.95,1,1.73.53,1.85-.33L60.71,235v-1.09l-.42-1.54-1-.85-1.6-.11-1.08,1.2.09,1,.56.72.34-.19-.38-.81,0-.68.81-.71h.57l.61.23.8,1,0,1.44-.28.81-.9.66-1.88.09-1.13-.66-.79-1.73.09-1.19.38-1.33,1.83-1.53,2.82.19,1.37.62V231l.71,1.82,0,3.1-.66,1.44-1.46,1.28c-3.15.85-4.43.65-6.5-2Zm1.83-22.32-1-3.68L57,206.6v.57l-.75,2,.09.52,2.63,2.06v.72l-1.92,4,0,.39,3.11,2.58.05.67-1.65,3.06.1.43,1.92,1.86,0,.53-2.45-.53-.75-3.63-2.12-8.7-.43-.28Zm.09,62.18-1.07-4.39.18-.25,1.79.62,1.88,1.77,0,.49-1.5-.53-.65-.1h-.42l2.53,1.38,1.22,1.05-.42,1-1.93-.37.14.42,1.23.39.18.33-.94,1.47-1-.85-.43-.68Zm-.18-122.4.65-4.15.29-2,.85.37,6.77,3.55,1,.81-.52,2.59-.47,3-.42,2L55.3,153Zm1.83,5.5-.84-1.67,6.59,4.59.23.75-1.28,6.18-.7-1.2.85-4.78-2.36-1.81Zm-.47-7.17L56,152.16l4.37,3.15,1.84,1,.37-.91.61-3.16.15-1.23-.8-.48-5.17-3-.76,0-.24.38ZM56,143.36l.9-5.92.1-.29h.23l.76,1-.24.62-.61,3.63.43.86L62.64,146l.8.52.33,1.15-4.71-2.49Zm.67,8.37.65-3.2h.34l4.84,2.81V152l-.71,3.15Zm.18,57.54,1.32-3.63,4.15-2.92,1.13-.37,3.71.57.89.38.85,5,.18,3.2-2.3-.57-1.46-.15.34.62,1.5.44,1,.19,1.23.52.51,4.74.15,2.86-1.92-.57-1.33-.24.1.57,3.24,1,.23,2.11,0,5-2.17-.53-6.67-1.29-.24-.86-1.93-2.06,1-2.14.71-1.72-3.26-2.59.11-.85,1.68-3.45.15-.86L57,209.51ZM57,246.41c-.18-3.36,2.94-3.91,5.27-2.34l.75,1.05.47,1.71-.29,6.51-.47,5,.29,4.21-.33,3.71-.56-3.58-.34-4.49.38-4.87.33-3.64,0-3.1-.28-.82-1.37-1.38-.7-.23-1.32.18-.94,1.29.09,1,.57.66.56-1.09.85-.05.48.72-.15.9-.9.62-1,.15-.89-.57Zm1.46-85.07-.71-1.67,2.77,2.19.06.67-.62,2.19-.47-1,.09-.53-.14-1.14Zm-.14-52-.06-9,.94-.9,1.38-1.77,1.17-1.06.19,3.54-.15,2.15-2.86,3.63-.05.58,2.91,3.06,0,8.8-1.79,2,0,.57,1.13,1.15.23.14.51,1.62-.18,1.3-3-.14-.29-.54Zm-.24,33,.14-2.25.38-1,.8,1.15-.33.86.19,1.19.94.81h.76l.83.72.09.72-2-1.09Zm1.18,8.22-.71.75.09,1,.62.62.66.24.79-.53.14-1.29-.84-.75Zm0,94.86-.38,0,.28-.28ZM59,288.85v-.44l.38-.57,4.94-9,1.07-.05,5.23.92,2.31.18,3.85.52-2.11,8.47-13.88,0Zm1-182.23v-.39l.7-1,2.74-3.06,1.45-1.53.33,0,5,5.21v.42l-1,1.31-4,4.19Zm.8,14.24.62-.68,3.38-3.86.27.19,4.15,4.11v.43l-3.77,4.24-.38.26-1.5-1.69Zm3,52.85-.38-1,.18-.1,6,5.46.11.52-2,5.54-.56-.91,1.22-3.58.19-1.11-.47-.66Zm-.47-4.87,1.26-6.64,8.33,6-.24,1.4-1.93,5.54-.42.29Zm1.68,60.75-1.74-2.15,1.42.18,1.26,1.14.9,1.88.66,3v3l-.85,1.95-.89,1.54L66,239l-.18-.52.24-.05.18-2.49L66,232.64Zm-.89-135v-.3L65.47,93l3.14-2.57.53.29.36,1L65.79,96Zm-.23,162.73-.42.9,0-1.14.65-5.26,0,2.78Zm-.09,10.55-.15-3.25.15-1.95.65-5.17.56-1.19.9,1.25-1.26,1.82.18.57,1.45-1.11.81.87.69.42,3,.77,3-.33,1.41-.62-.2.81-1.5,1.47-1.59.62-2.26.24h-.28L67,262.75l-1.65-1.34-.89-1.14-.34.24.06.38L65.32,263l1.7,1.34,2.48.71,3-.33,1.41-.76,1.5-1.58.67-2.21c1-5.84-2.77-12-2.82-16l3.38-2.49,1.56-2.39.09-.73-.53.44-2,1.82-1.59.86-2.26,1.38,2.53,8.88,0,1.16-2-1.82-1.88-.86-.8-.24.13.24,1.09.44,2.68,2.43,1.17,1.81c-4.42-2.64-5.57-1.21-9.64.06v.42l.38.2,1.46-.29-.66,1.29-1.55-1.29.1-2.78-.15-2,0-1.9.85-5.55,1.41-4.11L69.37,235l3.81-6,3-3.2,1.74-.95,2.35-.68,2.39.06,3.17.9,4.61,2,4,2.49,4,3.14c-1.36,11,2.85,28.28-2.21,38.48l-2.06.2-6.59,0-6.2-.48-7.11-.76-4.7-.58-4.89-1.2Zm1.36-102.07-.66,2.57.24.57,5,4.26.7.15,1.28-3.78-.43-.91-5.26-3.82-.71-.2Zm.09,12-.71-2.06,1.61,1.34,1.54,1.76-.65,2-.47.61-.56-1.19.47-.52,0-1.16-.37-.51Zm-.33-18.16,1.5-7.89L67,153l-1,6.16,5,3.58.89.43.47.82.14,1.14Zm.38,8.6L66,166h.44l4.5,3.44-1.07,2.87-1.93-1.48Zm1.09,60.12-.2-.44,1.32.24,1.23,1.44.51,1.48.1,2.1-.81,1.68-.33.09,0-1.29-.67-3.11Zm.56-69.64.74-3.2.15-.13-.1-.63.24-.1.94,1.87-.52,1.1.14,1,.76.81,1,.14.76,1.16.23,1.14Zm.83,9.28-.74.62.09,1,.61.66.71.06.61-.54,0-1.23-.6-.49Zm.2,91.58-1.09-.78.71-.09,1.75.67,2.25.14.32.06,2.41-.63.76-.05-.11.29-.93.48-1.75.48-1.83-.06-.37.06Zm-.47-2.5-.15-.81.2-.39,1-1.23,1.09-.53,2.06.38,1.09.91.47,1.1-.2.77-.42-1.11-.79-.95-.76-.38-1.41-.15-.85.44Zm.85-145,.38-2.58,2.48-2.62.23-1.11-2.15-2-.9-1.33.14-8.27,2.26-2.72-.18-.72-.94-1L70.5,89l2.26-1.53,0,4.15,0,15.78-.09,18.78,0,1.86-.58-.24-2-.62-1.93-.85.1-3.07,1.92-2.15v-.57l-1.83-2Zm.47,116.85-.2-.42,1.23.18.8,1,.09,1.62-.51.86-.47-1.67Zm.47-41.62-.09-.48,2.2-6.65.42,0,7.06,6.73v.53l-2.77,6.79-.56.92-3.17-3.83Zm.7,6-.43-1.73,4.67,5.64.18,1-1.45,3.53-.85,1.67-.42-1.05,1.22-3.2.42-1.34-.33-.18Zm1.56-9.56-1.23,2.72.09.57L75,192.11l.47.06,1.74-3.92.15-1.2-2.55-2.68-1-1-1.45-1.23-.47.24Zm-1,12.46.13-.66,1.5,2,.29,1-.89,1.86-.34-.85.23-1.63ZM98.16,36.84h-3l.46.86,1.7,4.73.75,2.92L97,45.63l-4.85.77-4.47,1-1.55.3-.42-.3L79.05,37l.09-.14H75.53l.7.81,8,11.89.57,1.07,5.45-1.25.43,0,4.94-1.06,5.64-.72.15-.9L100,42.43,98,37ZM71.38,230.25,71,229.11h.85l.14.48Zm-.09-43.34-.09-.48.29-.81,1-2.26,3.91,3.88v.86l-1.47,3Zm1.23,47-.61,0,.79,2.54,1.09-.92.61.11,2.68,2.1.76.05,1.21-.86,1,.9.7,0,3.48-2.2,1-.19.47.72.42.24.23-.72.44-2.2-.47-.19-1.56.86-3.2.81-1.08.14-.71-.57-1.65,0-.7.51-3.62-.57Zm-.23-56.87.79-2.25,1.47-4.3h.22l.57,1.43-1.17,3.54-.67,1.19.09.29,5,4.6.24,1.71-5.14-4.73Zm.94,8.84-.76.91.2,1.29.79.43.94,0,.56-.81-.09-1.16-.79-.57Zm-.29,25.38-.13-1.86.32.19,3.81,5.2.23.15.29,1.14-3.2,5.55-.28-.52-.1-.49,2.46-4.82-.29-.33Zm.7-123.21.24-1.14L98.77,100l10.39,5.55,2.73-1.16,6-2.72.51,0,0,2.43a85.32,85.32,0,0,1-9.35,4.12L97,101.89,80.43,93.33,74,89.84Zm.15,33.69-.09-7.5.14-.14,8.6,4.5,3.49,1.66,2.26,1.39-.2,15-.38.15-6.91-5-.74-.2L77.12,130l-2.39-1-.85-.62-.18-3Zm0-11.94-.05-1.53,0-4.59.32-1.81L93.4,112l10.91,5.45,4.38,2.25,1-.3,5.7-2.39,3.94-1.72.38,2,.52,5.63-.56.38-4.66,2-1.51,1.16.1,7.93-.06,9.42.2,1.53-1.41,2.43-2.5,4-2.3,4.35-.7-.86-.09-8.9-.11-18.53,0-1-1.17-.67-7-3.83-.8-.09-.32,2.68V137.3l-.2,1.91,0,6-.42-.83-5-4.25-.18-1.85.36-4.89-.18-2.28v-12l-7.29-3.74-4.94-2.33ZM73.7,100l.18-1.61.94-.1,3-5.16,1.08.53L76.66,98.2,75.11,101l-.85-.24Zm-.43,114.33,0-1.06h.18l1.5,1.87.38,1.2-1.45,2.39-.2-1.14.85-.53.06-1.11,0-.29Zm.47-101.46v-1.58h.43L84,116.32,90.63,120l0,9.32-.18,2.48,0,6.89-1.52-1.16.2-3.91V120.86l-4.24-2.06Zm.47-29.25L74,82.91l.8-2.63,1.65-2.06.28.11-.23.13L75.2,80.24ZM73.46,206l.28-.9,2.45-5.21,4.46,5.35,1.57,2.1-2.41,4.54-.9,1.38-.33-.37-2.49-3.1Zm.28,49.9-.47-.77h.28l1.7,1.29-.23.39-.9.24Zm.75-79.24,1.27-3.2.62,1.72-.62,1.1,0,.53.8,1.14.61.09.38.77.09.86Zm.42-90.51.2-3.59,1.08-2.35.89-1,1.36-.77.57,0-.52.18L76.7,80.38l-1.08,3,.14,3.4Zm-.09,119.37-.27.63,3.94,5.35.76-.39,1.4-3.24-3.33-4.92-1-.77ZM75,225.42,79,218.16l.33-.15,3.86,5.46-1.09-.15-2.49-3.25h-.28l-2.64,4.21Zm.85-123.88.38-.66,2.59-5.2,1-1.54.89.38.19.39-2.67,5.16.61.62,2.21,1.2,1.36.46.37-.7,2.63-4.54,1,.46v.35l-3,5.74-.85,1.23-2.82-1.34Zm-.43,104.72.11-.86,1.21-2,.81,1.23,2.16,2.87,0,.9-1.18,2-.75-1-.67-1.05,1.08-.09.53-.86-.19-1.05-.81-.44-.74.2-.61,1.14Zm.34,27.63-.23.38.13.28,1.6-1.05,1.6-.42,1.55.18,1.74.91.11-.43-.76-.62-1.7-.57-1.46-.05-1.51.38Zm.51-149.07.15-1.44,1-2.72,1.37-1.25L80,78.75l1.14,0,.33.34-.71.28L79,80.9l-.81,1.34-.94,2.82.34,2.82-.66-.43ZM76.09,229.2h-.33L76,230l1.51,1.29,1.78.24,1.23-.19,1.55-.86.75-1.25-.28-.28-1.32,1.35-1,.38-2.06.09-.76-.29Zm1.13,13.24-.7.86,0,.39.76.81h1l2.78-2.25,1-.53H83.2l.88.72,0,1.34-.8.81-1.75-.15.38.59.66.33,1.31-.09.72-.77.36-1.49-.51-1.38-1.32-.77H81.82L79.62,242Zm0-45.16.52-1.24,3-6.26.24,1.48-2.3,5.3.18.67,4.79,5.54.24,2.72-6.44-8ZM78,86.06l.52-2.68.29-.61,1.5-2.2,1.5-1,1.27-.2.38.35-1.18.81-1.88,2.3-.94,2.72.09,3.34-.79-.38Zm.1,137.5,1.31-2.06h.34l.8,1.34-.24-.18-1.08-.24-.71,1.14Zm1.4-27.06.85-1.65,1-2.26.51,1.3.15,1.29-1,1,.14.87.56.81.85.2.37,1,.09,1.73L81.31,199Zm.9-107.86-.28-1.91,0,0,.74-3.07L82,81.91l1.51-1.19,1.5-.34.8.57-.8.48-2,2-1.31,3.25.38,3.48-1.32-.61Zm.47,86.17-.32-.77c3-3.18,7-9.38,9.17-13.33l1.83,1.88V163L90,165.82,86.49,171l-3.29,4.45-1.7,1.62Zm-.19,41-.13-.48,3.8-6.49.25,0,.18,1.67-2.93,5,.11.38L85.55,221v1.44Zm1.75,47.07-1.65,1.3.09.43,1.13-.15.94-.53,1.79-.13,4.52.09,3.29-.44,2.45-1,2.35-1.86-.15-.39-1.64.77-2.92,1-7.34-.05-1.41.38ZM81.73,78.13l.15-.76L83.1,72.3,85,60.88l.57-2h.24l-.49,3-.13,1.62-1.41,9.8-1.37,4.78Zm-.79,176.55.61,1.52,1,1.44-1.5,2,.23.33,1.47-.92c2.32,3.05,11.39.48,13.55-1.47l-.2-.48-3.24,1.47-2.84.87-2.44.53-2.44-.2L83.72,259l-.2-.39,3.06.48,1.32.06,3.11-.54,5.83-2.18.18-.54-.89-.51-1.08,0-1.47-1.11-2.24-.85-2.17-.62h-3l-1.46.48-1.27.72-.65-.1-1.23,0ZM82.35,88.31l.37-2.39.86-1.73L85.49,82l1-.48,1,0,.37.37-1.69,1.44-.94,1.3-1.37,3.38.23,3.4-.83-.62Zm.14,92.29L82,178.45l2.64,2.43L87.43,184l-.24.52-.85.82L83,182Zm-.42,74.93-.29-.66,1.09-.1.65.06,1.32-.74.51,0-.69,1.43-.61,1.58Zm1.74-4.1-2,2,.11.28.74-.15,1.79-1.47.43-.81,2.77-2.59v-.24l-1.35.53Zm-1.5-73.75.83-1.14.44-.29,5.17,5.11.27.81-1.12,1.19ZM83,78.6c2.63-6.27,1.87-13.53,3.81-19.92l.44-.1L86.78,62l-.94,7.74L85.55,71l.09.44-1.07,6.82-.43.82-.29,0ZM82.78,216v-.48l1.12-2.15,1-1.57.24,1.14-.1,1.34-.57.1-.74.86.18,1,.76.68.74.43.09,2.15Zm.56-110.68L85,102.17l2.12-3.92.56-.09.57.37.23.44-2.72,5,0,.48,3.53,1.91.71.11,2.73-5.16.38-.24.94.71-3.17,6.35-.65.86ZM83.67,185l-.24-1.4.65.58,1.61,1.62.15.39-1.47,1.34Zm.28-9.23.66-.81.65-.68.23.11,5.09,5.25-1,1.57-2.93-2.72Zm.51-86.51a7.85,7.85,0,0,1,4.71-7.16l.94.53a8.79,8.79,0,0,0-4,9.65L85.4,92Zm-.7,199.35,1-3.16,0-.09,1.17-4.06.8-.06,3.49.15,1-.15.14.15,1-.05,8.79,0,.29.28.65,2.05,1.41,5.26-19.43,0Zm1.08-209.2.56-2.09L86,73.79l.9-8.71,1-5.87.6-1,.58-.09c-1.54,6.62-1.07,17.21-3,22Zm-.09,109.83-.18-.86c4.22-3,10.91-14.53,13.21-19.16l1.27,1.24c-3,5.92-8.76,15.82-13.83,20.36Zm.42,67.87-.14-.66.32-1.11,1.23-1.25,1-.46,1.79.23,1.09.86.6,1.34-.28.66L90,255.16l-1-.68-1.64-.15-1.23.72-.56,1.49Zm.76-63.66L85.46,192l.56-.39,2.68-3.49,2-2.19.1,2.63,0,8.93-1.55.81-.89.44-1,.43-.24-.3Zm-.24-19.83.42-.72.61-.52,4.9,4.68.28.86-.33.57-.56.33-1.65-1.43Zm1-82.15-.19-2.68.28-.91,1.85-3.16.83-.66,1.7-1,.62.19.38.19-2.36,1.81-1.6,2.63-.53,2.25L88,93.23l-.56-.14ZM87,80.28l.65-3.92L89.45,60l.75-2.16.85-.18c-2.06,7-.77,16.9-2.77,23.18Zm.65,26-.36-.15v.35Zm-.51,65.38.6-.91.4-.33,5.16,5.11-.37,1.06-.61.33Zm.47,30-.38-1.25L90.11,199l1.6-.67V192.4l-.09-7.6L92,184l1.5-2v4.1l.13,4L93.49,199l-.47.38-2,.81-2.82,1.34Zm.42,2.91L87.85,203l3.2-1.58,2.82-1.34.71-.46-.15-14.54,0-3-.09-1.73,5.18-8.84.42,0,.94,1,.56.75-.24,5.41.24,20,.38.57,5.17,2.57,2.88,1.63h.74c.16-7,.25-14,.14-21.08l3.35,2.45,2.44,2.33,0,1L116.32,205l.27,1.52,5.65,2.92,6.58,3.48,5,2.54.62.53v7.79l-.51,0-1.75-1-8.89-4.54-7.25-3.82-13.21-6.55-3.58-1.72-8.65,3.82-1.79.72-.18-.67-.47-4.59Zm.56-112.21-.09-2.68.9-2.34,1-1.54,2.41-1.71h.84l.66.33-2.59,2-1.32,2.28-.75,3.11L89.92,94l-.19.24L89,93.75Zm-.09,77.43.14-.68.85-.87,3.91,4,1.18,1.52-.62,1h-.47ZM89,81.09c2.29-7.65.18-16.18,3.06-23.7l1.22-.24h.38l-.75,3.62L91.81,73.31,91.23,81l-.33.92Zm0,132.43-.09-1.61,1.79-1.07,1.12-.28L95,217.88l-.33.72-.76.09-2.12-4.54L91,213.1l-1.84.72Zm.67-46L90.9,166H91l.89.86,4.14,4.2-.76,1.2-.56.44ZM89.69,226v-.62l7.71-3.58,1.7-.67,8.46,4.49c-4.75.26-7.19,1.54-8.93,6.32l-3.77-2.87Zm0-1.71,0-2.49,5.79-2.77,3.53-1.58,2.82,1.53,1.23.72,25.3,13,5.88,3.14,0,2.87-1.32-.57-6.62-3.53L122,232.35l-.85-.46L99.33,220.55l-.79-.1-2.93,1.49-5,2.19Zm.7-131.72.48-3.16.18-1,.29-.19.23-.52,1.79-1.68L95,85h1l.47.33L95.1,86l-1.94,1.91-.14.59-.47.42-.8,2.82.06,1.87.6,2-1.13-.53Zm.8,16.67.85-1.65.76-1.58L95,102.22l.7.19.18.53-2.35,4.63-.09.76,2.5,1.34.43.34.88.19,2.3-4.59.71-.87.85.54v.42l-3.35,6.7-.47.24-4.18-2.11Zm0,56,1.32-1.73,4.7,4.87-.66,1.64-.51,0Zm.47-83.21.47-3.44.38-5.07.09-3.73.66-6.26.9-5.69.47-1,1.59-.29c-1.87,8.81-1.87,17.48-2.73,26.29l-.79-.24Zm.15,173.39-.76-1.29.79,0,1.65.77.52.72-1.36.57h-.84ZM93,95.05l-.52-1.87.24-2.53,1.88-3.59.47,0,1-.71,1.51-.48,1.31.38-1.5.81-1.27.81L95,89.56l-.8,3.1.74,3.48,1,1.43-1.7-.9Zm-.47,115.51v-.38l5.36-2.54,1.46-.47,3.06,1.67v.62l-3.25,6.93-.57.29,1.85-6.35-.11-.44-1.26-.52-.85-.1-2.45,1.11-1.55.94L96.46,217v.72l-.52.11-.46-.77ZM94.16,83.24l.47-3.77.47-10,1.32-10,.69-2.83.34-.24,1.23-.19-1.18,5.5-.72,7.21-.09.11-.14,6.06-.22,4L96.42,82l-.29,2.06-.94-.29Zm1,11c-1.6-8.31,10-10.32,9.12-1.58l-1,1.2-1.32.53-.85-.33-.8-1.16.15-1,.7-.81.66,0,.9.33-.24-1.39-1.41-1.09H99l-1.46,1.19-.7,1.92,0,1.28.51,1.82,1.84,1.82,1.4.52,2.22.05L104,97.3l1.79-1.53.88-1.54.66-2.81c.48-11.11-1.63-26.35,2.64-36.57h1.12l-1.41,4.78-.56,3.44-.47,6.56.18,4.43v4.6l.39,12.7L108.83,94l-1.14,2.2-2.24,2-2.26.81-2.92,0-1.59-.48-1.66-1-1.36-1.63Zm1.55-9.94c1-9.41-.47-19.41,3-28.44l1.55-.18c-3.25,9.46-1.5,19.73-2.62,29.48Zm.8,9.19,0-1.69.47-.9,1-.87.52-.23,1.21,0,.52.37-1.12.77-.57,1.43L100,94l1.45,1H103l1.32-1.1.94-1.58.24-1.47-.15-2.68.11-4.54c-.66-3.81-1.08-26,2-28.68l1,.24.46-.19v.52l-.69,2.15-1.09,6.12-.57,9.75.25,14.15-.11,3.53L106,94.1l-.8,1.23-1.56,1.34-1.35.39-2.07-.19-.9-.49-.94-1Zm-.38,177.68.76-2.15L98.2,268l1.08-6.12.18-4.5-.22-14.53-.24-.33c.12-6.14-1.88-13.77,6.21-15.73,5.78-1,10.07,4.35,7.06,9.76L111,237.75l-1.5.92-1.65.09h-.65l-1.65-.57-1.14-1.34-.85-1.91.53-2.11,1.12-1.14,1.41-.24,1,1,.15,1.43-.75.87-1,0-.61-.14.1.61.93,1.35,1,.29,1.84-.15,1-.68.76-1.14.18-2.2-.37-1.53-.8-1.38-1.65-1.25-1.5-.33-2.73.44-1.83,1.71-1.18,2.58-.47,3.58.24,11.25v9.06c-.7,4.27-.25,10.84-2.55,14.39Zm.9-128.32.19-2.25,2.64-.14,4.7.09.18.2.06,6.21-7-.15-.56-.75Zm.28-3.39L98,136.91l.19-3.73.19-.18,7.2.18.33.35-.29,6.21-3.62,0ZM98.1,132l.06-6.31.32-.2,4.33.15,3,1.72-.13,5.06-7.3-.15Zm.19-7.23-.09-1,.14-.29h.29l1.83,1,.18.27Zm.1-11.56,0-.62,3.44-6.6.7,0,.42.63-1.27,2.62-1.26,2.39.28.63,3.3,1.8.56,0,2.64-5.31.51,0,.56.39-.27,1-3.12,6.46-2.53-1.15Zm1.07-27.81.4-6.51-.06,0L100,68.53l.69-7.56,1.17-4.54.62-.71,1.23-.2-.8,4-1.08,7.74-.24,4.54.09,2.48-.23,1.49.32,9.23-.18,1.34Zm0,51.47-.18,1.25.29.57,2,.14h2.73l.29-.29.09-.86-.14-3.53L99.89,134l-.47.29Zm-.09,8.51.14.66.95,0,.32,0,3.63.24.33-.28.09-3.68-.27-.73-4.43-.13-.47.33-.29,2.19Zm.71-18.55-.57.43.2,3.78.47.39,3.95,0,.32-.33.06-3.82-.57-.39ZM99.33,271c2.73-7.2,2.57-20.55,2.07-28.09.26-5.07-1.67-15.38,6.82-14l1.26,1,1,1.76.14,2.3-.29.86-1.26,1.2-1.7.09-.71-.57.67-.09.94-.87.18-1.82-.36-1-1.38-.86h-1.32l-1.22.71-.93,1.53-.52,2,.47,13.67.09,4.59-.15,7.88-.7,5.83-.37,2-.81,1.82Zm1.5-122.11-.61-.66.14-.15,4.56-.09,1.18.18-.14,6.12-.33-.18-.47-.68-.47-3.82-.47-.48Zm-1,67.87,1.3-3-.13-.33.22.09,1.79-4,.67-.09,5.88,2.86.27.82-3.2,6.35-.6.58-.94-.58,2.06-4.2.48-1.58-3.1-1.82-.9-.09-2.07,4.34-.76,1.3Zm.5-72.69.1-.62.32-1,3,.05.14,1.67-.18,1-3-.19Zm.15-14.3-.15-1.56.24-.44,2.73.14.14.67-.14,2.06-2.64-.19Zm-.09,7.76,0-2.39.28-.15,2.82.19.19,1.52-.19,1.25-2.87-.15Zm.61-37.34c5.1-.1,6.62-1.91,8.69-6.12l1.23,1,3.94,2.76,2.7,1.49.88.62-.14.67-.74.29L110,104.41l-.94.15-4.33-2.3Zm1.36-15.58c-.48-9-.33-20.43,2.17-29.1l1.59-.24C103,65.41,105,78.65,104.65,88.79l-2.12-1.91Zm.47,66.63-.8-1.16,1.74-.09.33,2.24Zm-.43,34c-.07-2.69-.41-8.26.14-11.14l1.51,1.25-.14.86.37,1.24,1.61.24.51.34.75.9H104l-.48.15-.28,1.86.1,2.72.37.62,2.4,0,1.27-.14.89-.24.34-3.73,1.45,1.63,0,2-.19,1.25-1.5.24Zm-.22,5.83.13-4.73.38-.38,4.14.09,2,.11.25.09.8.09,0,1.1.06,5.26-.29.15-7.29-.2Zm0,7.55,0-5,.36-.24,7.35.3v3.34l-.15,3.44-4.37-.14Zm0,72c3.08-10.94.85-22.49,1.31-33.64l.24.39,2,1.91.27,6.4,0,9.85-.81,9.17-1.17,5.64-.7.43ZM103.42,188l.33,3.49.23.23,4.62-.1.09-3.91,0-.77-4.85.1Zm.62,6.4-.33.53,0,3.58.33.28,2.69.09,1.77-.13,0-4-.46-.47ZM105,37l.11,0,2.92-.09,9.58.09.94-.09.11.14,1.21-.1.1.14.94-.18,3.85.14-1.68,6.59-.53,1.16-2.15-.1-2.73-.2-5.84.2-4.42-.14-.33-1.15Zm-.7,146.16-.09-1.16.23-.57-.28-1.58,3.25.06.33.42v2.77l-3,.19Zm.14,7.35-.09-2.35.42-.22,2.17-.11.71.29,0,2.63-1.07,0h-1Zm.24,7.32,0-2.39.27-.2h2.59l.18,1.19-.13,1.64Zm1.5,72.35-1.5.24c2.61-12.34,1.81-18.48,1.83-30.88l2.17.91-.33,8.65-.09,9.18-.67,7.45-.79,3.35Zm-.42-153.36.33-.86,2.5-5.55.84-1.15-.52,2.49-1.12,3.49.09.72.71.33,1.32.38,4-1.82.15-.53-2.45-5.73.37-.37.38,0,3.11,6.69,0,.91-5.46,2.49-1,.29-1.84-.87ZM107,220.55v-.48L110.8,213l5.65,3,.47.33-.38,1.19-3.33,6.22-1-.57,2.59-5.22-.32-.72-.29,0-2.63-1.54-.7,0-2.55,5.26-.37.06Zm.43-19.4,1.55-.29,1,.29-.23,1.24ZM107.09,270c3.22-9.38,1-19.61,2.3-29.3l1,.2,1,.53c-1,9.47.56,19.36-2.54,28.48l-.56.09Zm1.18-113.16c3.72-6.94,8.66-16.48,14.67-21.7l.24.57.23,1.81c-5.67,5-10.19,13.7-14.15,20.32Zm1.41-83.06c-.13-6-.39-13.91,2.82-19.08,6.73-.6,10.84.28,17.35.71l1.79.3,2.45.18,3.52.59,5.88,1.23,1.14.67,0,2.53L144.39,65l-.75-1.25-1.36-1.44-1.18-.66-1.88-.57-2.78,0-2,.86L133,63.75,132,67l.42,4.39,2.64,10.57-3.62,2.58-1.75,2.77.38.38.66-.67,1.84-1.68h.09l.75-.57,2.63-1.1.38-.62L134,74.3l-.29-1.19,1.64,1.58,1.7,1,1.32.43.15-.43-.62-.34-2.35-1.52-1.74-2.21-.14-.47c5,2.92,5.79.81,9.55-.19,1.53,10.44-3.12,20.71-10.07,28.15-5.7,7.26-18.61-1.87-23.38-6l.15-.29.18-4.59L110,82.15Zm-.24,165.73.1-.14,1.26-.58,1.94-1.71,1.08-2.68v-2.82l-.61-2-.94-1.29.85.2,1.5,1.19.94,1.81,0,3.11-.85,2.25-1.5,1.71-1.69,1.25-1.61,0Zm.51-81,.62-1.09.52-.38,3.15,3.29,1.69,1.25.24.28-.9,1.24-.56.43-3.53-3.82Zm-.27,111.22,0-.62.61-2.3.57-3.82.37-4.49.38-5.16,0-7.37.24-3.48.24-.71,1.73.66c-.37,7.92-.82,18.88-2.54,27Zm4.09-206.46-2.77,2,.18.49,1.09-.53,3.33-1.16,6.69,0,.18.06,1.88-.3,1.41-.66,1.74-.92.29-.81-.8-.09-2.55.77-6.16-.14-1.31.24Zm-1,5.68-1.52.68.11.33.56.57,1.36.1,1.6,1,2.77,1.25,2.73.33,2.17-.14,1.69-.57.85-.48,1.08.09-.47.24-1.61,1.29L123,75.26l-2.57,2.06.09.33.65,0L123,76.27l3.44-3.55,0-.37.9-.48.09-1.24L126,68.81l0-.57,1.12-1,.24-1-.28-.18-1.17.77c-3.74-2.75-10.72-.87-13.93,1.71l.32.48,3.21-1.58,3.38-1,2.5,0,2.44.29.81.53-1.09-.15L121,66.86l-2.59.14Zm-2.45,211.67.15-.24,2.21-.46,3.85-.59,4-1,2.07-.38,4.56,7.08,1.65,2.63.38,1.19H116.27l-2.7.05-.27-.29-1.69-4.25Zm1.08-124.11-.24-.43.38-.57.56-.29,4.85,4.92-.51,1.05Zm.14,84.07c2.81-1.41,3.78-2.51,4.81-5.6l0-3.29-.62-1.62h.56l.85.66.56,1.58,0,3.2L117.1,237l-.56,1-1.74,1.86L113,241Zm.8-86.23.61-.9.38-.33,2,1.77,2.92,3.16v.33l-.75,1L115,157.08Zm-.33,115,1-4.83.8-7.93.2-4.39.18-3,.23-4.68.42-1.72,1.61.67c-1.11,7.36-.2,18.86-2.55,25.53Zm1.27-161.59.1-.19.42-.14.56-.1.52,1.1,2.25,4.35.9-.28,1.13-.3.1,2.06-2.13.87-.65.13Zm.32,44.5.53-.92.38-.28.66.48L119.5,156v.62l-.79,1Zm2.32-80.68-1.65-1.14.38-.29,1.7-.52,1.17,2.28Zm-2,169.86.76-.53,1.83-1.53,1.55-2.82.38-2.87-.23-2.24,1,.44a7.49,7.49,0,0,1-4.23,10Zm.2-17.4,1.21-2.3,2-4.19.7-.77,2.93,1.38,2,1.29.81.14,1.18.81-.76,1.54-1,1.71L121.86,226l-1,1.68-1.18-.67,2.25-4.54.38-1.25-.62-.24-2.06-1.14-1.46-.57-2.36,4.58-.65.92Zm.6-84.06-.09-9.76.09-3.2.48-.48,1-.33,2.07-1,2.26-1,.28.29.15,1L117.62,127l-1,0-.37,2.39.14,11.95-.67,1.05-1.08,1.14Zm.34,10.41-.15-.38.33-.62.65-.48,4.9,5,.15.53-.67,1-.36-.05Zm-.34,118.39.9-5,.42-5.84.76-11.09.51-2.91h.28l1.65.86c-2,7.71-.54,16-2.77,23.65Zm.94-104.33v-.39l.19-.09,1.7-2.92,2.68-4.11,3.57-5.11,2.82-3.16,1.08,3.63-5.12,6.83-1,1.92-1.07,1.58-2.13,3.91-.22.15Zm.52-16.31.8-1.19h.29l3.2,3.1,1.88,2.06L122,153l-.61.52Zm-.23,94.15,1.17-.76,2.07-2.15,1.08-2.62.14-1.91L120,232.4l.85.39.51,1,.23,2.69-.27.9.13.34L120,240.49l-1.65,1.56-1.46.68Zm1.36-172.57.28-.48h.15l.65,1.68,1.17.9,1.7.05,1-.77.74-2.09h.24l-.24,1.67-1.08,1.43-.84.19-1.89-.09-1-.87Zm.1,60.22.27-1.67,1.18-.63,2.12-.81.28.58,1.36,6.5-.51.33-2.55,3.2-2,2.39-.18-2.06Zm.24,16.34.13-.62,1-1,4.83,4.78.53.85-1.23,1.25Zm.27,59.78-.56-.75.23-9.62v-3.62l.19-4.21,1.46,1c0,5.29-.59,10.75-.14,16l3.38,1.67,8.1,4.26,4,2.24-.15,1.62-5-2.57-2.06-1Zm-.71,62.13.62-3v-.38l.56-5.15.29-4.3.09-3.55.52-4.72L120,245l1.13.47-.81,5.83-.13,1.82-1,11.09-.76,3.34-.51.66Zm.76-25a8.7,8.7,0,0,0,4-9.8l.66.13.85,1.58.19,2.49-1.23,3.1-1.31,1.78-1.31.9-.91.3ZM119.36,105l-.09-4.49h.47l1.88,1c-.1,30.13,13.36,72.62,34,94.72l7.29,6.69.2,1.38-.33,1.19-1.84-1.38L155.21,199l-3.05-3.53-5.37-6.12-.71-1.44-2.3-3.25L141,179.69l-3.82-7.08c-10-19.53-16.39-45-17.64-67.1Zm-.23,39.09v-.38l.75-1,.47-.09,5.27,5.31,0,.71-1,.87ZM119,267.86l.56-2.63.7-6.69.76-7.74.37-3.29.66-1.78,1.22.59-.94,4.87-.85,7.83-.85,6.78-.6,1.78Zm1.12-63.8-.18-.19.18-14.33h.33l1.5,1.14,5.74,3.1,2.92,1.25,4,1.29-.09,1.29,0,12.95-.19,1.05L133,210.8l-5.84-3-4.6-2.3Zm.56-62.17.47-.77.56-.53,1.85,1.63L125.2,144l.62,2,.18,1.44L123.56,145Zm-.47,102.18.71-.53.32-.2,1.61-2,1.31-3.15.1-1.25-.38-2.48.8.15.8,1.32.28,2.21-.61,2.39-1.12,2-1.88,1.72-1.32.19ZM121.86,90.7l-.42,1.39.14.47.47.2.84-.63,2.08-.81,2.82-.42.85.52,1.31.18.94-.46,3,.37,2.36.91v-.71l-.47-1.82-.53-.19-.7.67h-.66l-2.69-2.15-.69-.06-1.14,1-1.12-.9-.9-.06-1.36.92-2,1.19-1.09,0-.33-.66-.46-.09ZM121,267.15c1.43-6.83.87-14,2.91-20.65l1.23.67-1,3.34-.6,3.07-1,8.93-.9,4.73Zm.7-39.1.62-1.33,3.24-6.12,6.53,3.29.2.44-3.4,6.69-.65.67-1-.58,2.48-4.83,0-1.19-2-.81-.76-.52-1.17-.39L123,228.63h-.51Zm.62-88.17,1-1.06.56-.33.9,3.64h-.23Zm.32-34.9v-1.43l5,7-2.48,4.64-1.32,1.91-.23-.57-.06-1,1.38-2.3,1.59-3.2Zm.1,3.55v-2.1l2.4,3,.22,1.11-2,3.58-.14-.53-.15-1.91h.34l.89-.52.18-1.34-.79-.81-.62-.2Zm.42-36.62.66-1.09.33-1.39.43-.19,1.74,1.44,0,.52h-1.41l-1.09.58Zm-.66,173.16-.14-.24.76-.43,2-2.11,1.27-3.15-.33-3.63,1.31.62.47,1,.25,1.91-.29,1.95-.56,1.49-1.14,1.43-1.59,1.2-1.23.38Zm-.18,21.8c1.76-6.33.85-13.33,3.53-19.45l.65.33-1.23,5-1.31,8.42L122.85,267Zm1.5-185.35-.47,1.11.27,1.38.82.86,1.17.39,1-.15,2.21-1,2.35-.33.48-.48.1-1.14-.67-.48-1-.09-2.4,1.9-1.5.86-1.26-.15-.72-.75.19-1.11.8-.75.8-.15.7.43.2-.43-1-.86-1.22.15Zm.62,40-.2-1,6.31,7.59.33,1.1-3.26,6.88-.47-.94,2.26-5.32,0-1.15-4.52-5.2Zm.6-18.77.47-.15.52.15,2.26,3,.27.28.38.14,2.41-4,1.21-1,.38-.09-3.33,6.16-.67.81Zm.47,24.94-.28-2.24h.13l1.61,1.81,1.59,2.25-1.68,3.72-.71-1.91.15-.61.7-.59v-1.32l-.81-.81ZM124.55,246l1.27-.9,1.5-1.58,1-2.1.24-4.73.88.67L130,239l-.19,3-1,2.06-1.55,1.66-1.51.59Zm2.3-151-1.47,1.53.1.53h.38l.94-1,1-.57,2.31-.06.51.15,1.7,1.49.09-.63-.38-.66-1.5-1-2.12-.33Zm-.62-3.11-.28.2,1,1,1.78.57,2.17-.13,1.17-.59.76-.75-.1-.77-1.51,1-1.5.54-1.93-.24ZM126,118.66l3.06-5.65.37-.14.61.77,4.33,6,.24.81-2.5,5.55-.32,0Zm.76,128.13.09-.14.74-.39,1.66-1.58.79-1.58.66-2.39-.32-2.85h.51l.43.52.56,2.72-.33,2-.66,1.64-2.21,2.15-1.32.24Zm2.44-132.14-1.74,3.2.09.53,2,3,2,2.48h.38l1.31-3,.33-1.19-3.72-5Zm-1.51-11.23.43.13.88,0,.91-1-1,1.92h-.32Zm.84,14.85-.13-.48,1.27-2.15,1.08,1.49v.29l-1,.33-.47,1.57Zm1.18,26.25-.51-1.78h.33l6,5.75.14.81-1.79,4.82-.56,1.39-.66-1.49,1.88-5Zm-.42-5.5.09-.82,3.21-7.26,2.67,3.25L139,139l-2.26,6.84h-.38Zm2.21-16.54-1.74-2.54,1.18.2,1-1.34.75,1-.09.53Zm-1.69,124.94-.95.13c3.87-2.05,3.72-5.16,3.4-8.84l.85.67,0,2.87-.37,1.86L131.64,246ZM129.15,232l1.17-2.25,1.85-3.63,1.07-1.58,1.08.62,0,2.15-.85.06-3.11,5.35Zm1.28-84.93-.15-.82,3.1,2.72.09.68-1.08,2.67-.6-1.24.47-1.48-.29-1.15-1.08-.57Zm.36-36.42-.09-.43,3.35-5.69.18,1.15-1.08,2.1-1.32,2.29,0,.48.29.19L135,114.5l.14,1.91Zm1.94,23.13-2.12,4.59.14.58,5,5,.47,0,.38-1.19.9-2.15.37-1.44-4.65-5.3Zm-.94-88.27,1.45-4.64v-.28L134.32,37l8.52-.09,6.21,0,.65.24-5.59,10.17-5.56-.9-5.73-.66Zm-.19,93.09.37-1.19,1.08-2.24h.24l3.48,4.06-.37,1.67-.9,1.58Zm.28,108.21.56-.62.56-.86.9-3.44.06,1.62-.91,2.29ZM133,69.72l.29-.38.85-.2.56,1.34.09.48-.74-.37Zm0,40.19,1.41-2.28,0,.84-.18.1-.71,1,.15,1.16,1,.81,0,1.05-1.65-2.1ZM133.24,66l1.13-1.63.8-.57,1.6-.62,2.92-.06,1.65.39,1.36.92.85,1.23.65.29L144.06,67l-.57,2.72-1-1,1-1.2.41-1.1-.56-.15-.43.39-.74.42-1.7-1.23-2.26-.53-2.45-.09Zm.57,71.35-.76.77.1,1.05.94.86.9.05.56-.82L135.5,138l-.76-.61Zm-.19-70.3.52-.47,1.68-.53h1.52l2.39.33,1.61,1-.29.1-1.93-.67-2.92-.18h-.51Zm.09,61.22,1.17-3,1.32-2.38.15,1.34L136,125.4l-1.27,2.48.38.67.47.48,2.77,4.11.05,1Zm1.7-58L135,69l.23.06.38.95,1,1.14,1,.39,1.21,0,1-.57.88-1.82.11.82-.67,1.14-1.08.68-1.13.13-1.5-.38Zm.18,39.54-.65-7.41.14-4.11.56-.54,1.09.2c.62,29.24,9.24,60,26.05,83.83l0,3.06-.43-.38-3.66-5.12L153.89,171l-4.37-8.84c-6.21-13.42-11.59-30.38-13.08-45.17Zm-.46,47.79,1.51-4.54.84-2.39.33-.14,6.86,6.63-.94,5.74-.37.82Zm.28,3.2h.38l6.82,4.93.56.84-1.56,7.61-.74-1.25,1.07-6.21-4.7-3.58-1.18-.52Zm-.19,55.53,0-8.79.15-6.69.14-4.21,1.59.43,2,.48.66.57.05,2.15-.75,1.15L137.52,203l-.65,1,.56.78,2.3,2.19.1,8.12-.52,1.34L136.58,219l.29.67,1.4,1.44,1.56,2-.14,8.31-2.31,2.5.52.85.76,1.54-2.08,1.43-1.08.33-.28-.43V228l.13-8.93Zm.47-88.45.95-1.87.09-.1.23.67-.32.77,0,1,.62.67.19,1.15Zm.51-31,.62-.66.32.86Zm.53,58.6-.33,1.1.37.71,5,3.69,1,.38.13-1,.52-2.06.09-1-2.26-2.21-3-2.39-.56.06Zm.75,10.46-.71-1.77.23-.14,4.05,3.16-.94,4.1-1-1.86.43-.9-.05-1.39-.95-.76-.7,0Zm.42-69.06L137.52,95l.62-.77.32,1.39,1.09,2-1.14-.24Zm-.61,59.74.14-1,.71-1.77.47-.05,1.74,1.67-.91.15-.6,1.1.09.52.62.73,1.07-.15.52-.72-.09-1.06,1.5,1.4,0,1.34-.61,1.23Zm.61-57-.09-1.44c2.81.65,6.13,1.16,8.88,1.91l.24.81,1.7,1.77,0,.81-1.5,3,.32.57,2.68,2.19.25.77-2.08,4.16,0,.33,2.68,2.06.13.68-1.12,3-4.94,3.49-.94-.09-3.76-.77-.61-2.58-.48-3-.23-2.49,1.79.28.94.29,1.12.14.11-.61-1.79-.63-1.46-.24-1-.57-.74-7.31,2.82.75.14-.71-1.84-.57-1.21-.57-.06-.67Zm-.14,119.81,1-1.34,3.91-4.34.32,0,4.56,4.5.62.95-1.45,1.82-3.49,3.92-3.15-3Zm.42-15.15v-.68l2.22-2.24,3.19-3.11,3.16,3.59,1.45,1.87-2.83,3.15-2,2.29Zm.28-56.73.89-2.44.38-1.25.85-2.09.47,1.34L139.5,147l.14.57,2.5,2.58,2.25,2.2.15,1-1.7-1.58Zm.47-53.72.29-1.53.75-1,.47,3.49,1.5,3.22L140.87,98l-1.23-1.53ZM138.52,234l1.68-2.19,2.21-2.1.52.34,1.32,1.32L144,232l-3.21,2.87-1.26.67Zm2.35-108-.38-2.06,5.08.77,13.12-9.32,1.14.87,2.44,1.28-.05,2.2-.8-.39-2.31-1.23-2.25,1.38-2.26,1.67-8.52,6-3.94-.62Zm-.43,21.08,1.13-2.53.37,1.23-.47.72.1.86.47.67.89.2.53,1.85-.53-.37Zm.47-54.35-.1-2.29.2-1,1.27-2.87c-.61,4.06-.68,9,2.59,12l-.15.15-1.26-.29L142.08,97l-1-2.73Zm.32,35.85-.13-1.24,2.07.28,1.59.44,1.52,0,12.41-8.75.8-.13,2.78,1.62,0,2.29-.52.06-2.68-1.45-.71.05L146.17,130l-3.94-.52-.71-.24Zm1.52-58.11-1.23.09v-.48l.42-.42Zm-1.09,59.89,1.7.13,1.78.38.33.06h1l.81-.57,9.35-6.42,1.18-.57,4.43,10.13.18,5.07.15,10.52.18,18.55L162.64,180l-4.8-7.5-5.36-10.7-5.69-14-2.3-6.78L143,135.44Zm1-39.15.23-3.16.19-1.14.37-3.44.62-4,.43,1.52.13,2.59-1,6,.28,2.29.37,1.53,1,1.87,1.47,1.24,1.41.62,2.12.09,1.27-.37,1.13-.91.84-1.24.19-1.58-.34-1.72-.74-1.25-1.47-.81h-2l-1.21,1L147.31,92l.76,2.35.93.57h1.79l.75-1,.05-1.43-.71-.68-.42.25.18.28.29,1.16-.76.66-.74.09-.91-.71-.45-1.15.45-1.48.91-.67,1.88-.1.65.34L153,92l-.09,2.39-.76,1.1-1.55,1h-2.16l-1.5-.62-.25-.48-.79-3L146,90.7l.94-1.86,1.27-1.1,1-.39,2.07,0,.94.37,1.3.92c6.64,7.59-6.54,16.22-10.24,6.31Zm1.45-18.79.57-3L144.43,73Zm-.51,103,1.27-6.54v-.57l.32-.44,7.58,5.46.23.57.06.18-.94,6.12-2.69-1.47Zm.42,3.11h.33l6.4,3.4,1.08,1-.89,5.77-.23.15L150,188l.52-3.16.09-1.81-.75-.58-3.77-2-1.17-.44Zm.52-88.32.23-2.58.8-4.87.71.52,1.55.53,1.7,0,1.31-.82.94-1.33.28-1.53-.46-1.81-.85-.92-1.18-.48-1.5.44-1,1.33.2,2-.76-2,.14-3.15.38-4.21,0-7.79-.74-4.39-.56-.87.47-.75.41-.48.89,1.47,2.5,3.35,3.29,2.77L156.62,66l.95.19h.51l.09-.72-1.65-3.62-1.92-10-1.46-2.72-1.22-1.58,5.27-9.36.94-1.2,15.05.15,0,2.91-.24.05-2.39,3.29-5.5,8L159,60l.38.66,2.35,0,.23.63.15,23.56v9.46l-1,.38-1.45.66-1.75,1.49-2.48,4-4.47-.85c4.88-1.56,7.13-8.2,3.24-11.95-3.58-4-9.43-.79-9.26,4.25Zm.23-11,.29-3.36.09-1.77.53-7.26-.25-2.15.29-3.73.56,3.82,0,5.55-.67,7,0,2,.62,1.77,1.39,1.1h1.47l.94-.57.47-1.69L149.8,79h-.23l-.33.91-.81.14-.56-.9.29-.73.84-.61,1.17.18.85,1,.18,1.91-.6,1.2-.94.67-1.27.14-1.6-.28-.94-.77Zm.29,92.52-.56,2.62.09.77,6.12,3.44.7,0,.47-3.2,0-1.38-5.79-4.15-.7.33Zm.33,2.86.18-1.14.29-1.43.42-1.05,1.5.9,3.25,2.39,0,.33-.47,2.69-.13.13-.43-.13Zm0-9.41.75-3.88.57-2.57.47.81v1.53l-.57,2.35-.09,1.14,4.89,3.91.52,1.49-3.76-2.72Zm.66,16.82-.14-.48,3.67,1.91.14,1-.47,2.3-.81-.92.24-.62,0-1.47-.9-.77-.93-.1Zm.15,31,0-5.27.05-.43,2.77-3.16.05-.66-1.37-1.43-1.6-2,.28-1.81,3.07-.1,0,1.54.09,20.64-.09,6.36-.61,1-2.59,2.44-.19-1.86.06-4.93.27-1,2.82-2.92-.09-.52-1-1-1.88-2.06ZM147.4,55.66l1.12-2,.2.2.33,4.06.56.14V56.62l.29-2.24.23.62.71,4.78.27.24.43-1.14.47,3.24.42.23.24-1.62.56,2,.61-.05.53.77,1,1,.18-.44-1.18-1.91L154,61l.69.28.67-.19,1.5,3.92-.56-.06L154,64l-2.22-1.82-1.36-1.34-2-2.78Zm.27,117.24-.6,1,.1.76.7.77h1l.43-.53.14-1.24-.84-.77Zm.2-91.56-.14-.35,1.32.1-.29.25Zm-.2,19.45v-.39l1.23.15,1.32.42.57,3.64,3.43,12.9-2.35,1.68-.76.28.53-1.29.37-1.62-2.82-2.3,1.65-3.63.41-1.35-3.33-2.66,1.69-3.4v-.63Zm-.27,63.32.56-2.44.11-.15.27.24v1.11l.24,1.19.75.42.42.68-.38.39Zm2.21-112.36v-.43l.42-.44.72.24,1.21.1-.09-.52-1.41-.63.7-1.28.33-.15.85.9,1.41,3.4.71,3.35-1.13-.19L151.87,55l-.94-1.19,1.12.38,1.28.19v-.52l-1.13-.39Zm1.7,51.52L151,101l1.18.24.32.42,3.82,14.3-1.27.94-.29-.13-1-3.35ZM153,57.63l-1-1.38,1.45.52,1.23.18.24,1.54h-.67Zm.51,2-.42-.71,1,.29.9.18.09,1.2-.76-.33Zm2.45,52.57-2.54-10.6,1.7.33,2.59,10.37.51,2.44-1.27.76Zm-3,78.29,1.09-6.4.36-.14,1.38.81,6.06,3.43.19,7-.37.13L157.28,193Zm1.65-3.44-.29,2.29.33.86,5.84,3.25.52-.18-.1-4.6-4.85-2.87-1.12-.23Zm-.33-5.79.8-4.44v-.63l.28-.33.43.62,0,1.15-.51,2.29.18,1.05,4.23,2.3,1.23,1.06.47.85L159,184Zm2.86,15.3-2.06-2.49,6.06,3.21,1.74,1-.13.53-4.94-2.62Zm-2.06-7.12.61-2.68,1.13.48,1.17.86-.7.15-.62.76.1,1.06.32.37-.46,0Zm1.27-85.55,0-2.58.13-.28,1.93-3.31L160.75,96l1.23-.58,1.41-.29,1.79.29,1.51,1.05.09.72-.51.86.36,1.34,1.09.61.56-.18-1.17-1.34.43-.72,1.35,1.4.24.27-.09.44-.38,0-.94.48-1.32-.06-1.54-.75-1-.81-1-.68-.6,1.3-1.41,1.24-1.56.29.62,1,1,2.45.47,3.14-.23,3.26-.91,2.38.15.54.57.14,1.13-.62.14,3.34-.71,0-1.69-1.09-1.18-1.63Zm-.19,76.37.61-2,.32.48.2,1.53,1,.47.71,1.15-1.6-.67Zm.89-5.45-.38.29.47.48ZM158,191l.42-.19.76-.75,0-1.25.1-.2.94.62.1,2.21-.29.66Zm.89-67.52-.27-.82.8.24.52.19,2.44,1.38.09,4.78-.18,1.92Zm1.88,76.41-2.1-2.24,2.48,1.14,1.74,1.25,0,1.34Zm-.14-140.36,1.66-2.35,3.86-5.59,7.09-10,0,2.48-8.7,12.48-.56.77.09.47.27.19,7.63-.09,1.31.14,0,1.44-3.11,0-.27,0Zm2.26,3.88.2-2.59,1.64-.1.09,3.92.06,7,.18,12-.14,10.9-1.09-.1-.56-.24,0-1.29Zm.2,37.65.23-1.72,1.69,1.29c.21,34.46.22,68.92.57,103.38l-.19.13.23,1-.7.19,0,.29.7.29-.05,4.3.38,3.11,6.58,6.54.71.87L173,222.9l-.42-.11-2.78-2.67L164,214.24c0-20.15-.26-40.36-.33-60.46-.18-5,.09-9.85-.24-14.76.29-9.91-.37-19.21-.14-29Zm2.86-21.55.14-.44,7.11-4.48v1.67l-5.27,3.44L166,80.85Zm.1,15.39v-.39l7-4.35.09,0,.09,1.77-6,3.78Zm0,30.25v-2l.15-.25,3.14-1.72,2.27-1.43,1.59-.92-.09,2.26-6.59,4Zm0-4.15.06-1.93,4.7-2.91,2.35-1.28v2l-6.35,3.87Zm.09,23.89.11-1.24,6.86-4.36v2.3l-1.69,1-3.9,2.48-1.23.52Zm.06-4,.05-1.72.09-.19,1.41-.77,4.27-2.68,1.14-.57-.05,2-5.92,4-.85.39Zm.23,27.43-.18-2.3,6.95-4.3-.13,2.3L171,165.49Zm-.14-4.63.05-2.39,6.77-4.36v2.35l-6.59,4.4Zm.28-51.95V111l.48-.38,1-.15.22,0-.18.24-.19,1.63-.37.14Zm0-5.93.11-.67.65-.38.76-.06.18.83-.18,1.23-.9-.09Zm-.32,76.52.14-.48,6.68-4.16L173,180l-6.39,4.2Zm.38-79.67.32-.58.47-.43.9-.15.19.68.05,1-.2.09.1.53.43.1.61-.44.09-1-.29-.62.44-.15,2.57.53.85.24-.09,2.39-5.59-1.19Zm-.2,85.55-.13-1.49,6.77-4.25V184L168,187.48Zm.29-79.68.56-.76h.57l.37.39-.18,1.52-.66-.33Zm-.19,100-.19-1.63,4.52-2.82,2.26-1.34-.05,1.53-5.83,3.93Zm-.05-4.3.05-2.06,5-3.16,1.5-.76.05,2-.85.43-5.64,3.73Zm.9-138.32.13-1.33,1-1.06,1.46-.09,1.21,1,.2.66-.09,1.49-.94,1-1.18.15h-.43l-.94-.81Zm0,18.88.28-1.14.19-.39.93-.9h1.23l1,.85.53,1.48-.2,1.25-.94,1h-1.88l-.56-.35Zm.13,45.69.06-.67.23-.91.66-.66.81-.44.65,0,.56.28.8,1.25v1.34l-.51,1.05-.9.62-1.31-.05-.47-.43Zm-.18,43.4.09-1,.43-1,1.27-.95h1.18l.61.42.51.83.2,1.23-.44,1.3-.88,1.09-.71.2-1.46-.33Zm.24-21.41v-1.68l.94-1.34.94-.53.7,0,.94.77.24,1.86-.47,1.53-.94.66-1.6,0ZM168.89,98l-.51-.9,4.6-2.92.2,0-.09,1.82-3.73,2.26Zm-.61,96.45-.42-1.25.09-1.29.38-.91,1-.66,1,.05.74.57.62,1.34-.33,1.86-1,1H169Zm.1-81.72v-.2h.28L169,112l-.42-1.38,4.56.86.05,1.9h-1.84l-2.11-.52Zm.51-7.76.29,0,4,.91-.05,1.87L169,107l.19-1.34Zm-.32,106.87.32-1.47.2-.44,1-.67.9-.05.66.39.52.77.18,1.8-1,1.49-1.5.19-.91-.85ZM34.93,36.84H173.22v252.1H34.93ZM34,289.9H174.16v-254H34Z"
            />
            <path class="cls-3" d="M46.09,206l-.33,0,0,3.21,1.59.49,2.12,1.67h.2l9.88-7.08.41.15-.56,1.8-.74,1.49,0,.44L62.08,211l0,.38-2,4.16.19.48,3.15,2.68-1.88,4,0,.14,1.54,1.53,1.09,1.16-.28.9.09.62.85.3,2.63.37-.33-4.31-1.45-9.59-2.6-11.62.2-.29,3.94.62,1.79.63-.14-2.1-.56-1.58-3.44-.68-3-.33-4.28,3.05-5.17,3.59-3.15,2.35-.61-.24m-2-45.26.1,10.28.27,18.91,3.67,8.33.94,2.67.33.33L54.22,201l.19-.54-4.23-9.55L50,187.81l-.1-4.4-.09-7.64L50,164.83l1.32,2.81,4.33,10.72,2.78,8.21,2,7.32.79,2,.56-.18,1.94-.15.18-.09-2.21-8.27-4.37-12.61-3.91-9.8-4.89-10.14-.7-.57-.67,0-.33,1.29.11,2.44Zm3.81,11.62.14,3,.09,6v3.83L51,190.2l3.38,7.85.67,2,.36.11,5.32-3.79L59.77,193l-2.07-6.06-1.55-4.74-4.09-10.65-.38-.39-.7.28Zm5.08-45.75-1.5.24L57,131.23l5.13,6.4,2.45,3.54,4.27,2.1,5.51,2.59,3.71,1.62,6.12,4c22.09,19.53,35,45.11,67.87,44.54v-.3l-1.88-1.91-2.44-2.86-1.56-2-3.76-2.15-2.82-1.1-1.83-.2-.94.33-1.28,2,.1,1,.37.72,1.08.77,1.13-.05.57-.9-.32-1.58h.41l.66.86-.09,1.49-.38.81-.71.51-2,0-.94-1-.89-2.16c-1.88,1.71-4.17,1.71-5.84-.23l-1.54-2.73-1.61-4.44-.94-1.92-1.36-1.52-1.12-.62-2.13-.1-1.22.87-.52,1.23.19,1.49.37.86,1.37.86,1.65,0,.89-1-.09-1.05-.8-.75,1.18.14.37.85-.09,1-.85,1-1,.38-1.45-.1c-2.91-1.39-1.82-2.94-2.08-4.68l-1.27.24-1.79-.34-1.59-1.33-1.12-2.5-1.52-7.11-1.12-2.06-1.5-1-1.42-.63h-1.13l-1.18.66-.89,1.64.24,1.43,1.5,1.53,1.84.66,1.09-.42.6-1.92.28.29.15,1.3-1,1-.37.15-1.09.24-1.41-.39L103.89,168l-.51-.86-.48-1.44.76-2.2c-4,1.23-5.76-2-6.92-5.21l-.84-6.16-1-2.2-.66-.66L92,148.77l-1.46.77-.24.71-.18.76.23.77L91.75,153l1.38.18.56-.53.47-1.23h.18l0,1-.41.81-1.43.76-1.27-.42L90,152.35l-.57-1.58.24-1-.14-.92-1,.38H86.44l-1.51-.81-1.88-1.87L81.88,144c-.89-3.34-1.86-8.6-6.5-7.56l-1.45,1.25-.43.81.43,2.15.94,1.25,1.22.72h1.46l.8-.68.29-1-.2-.75-.71-.83-1-.09.19-.19,1.26.1.91,1-.1,1.67-.94.77L77,143l-1.54-.14L74,141.6l-1.28-2.72c-4.8,2-7.79-4-11.79-5.65l.09-.14,2.77,1.19,4.52,3.45,1.83.91H72l.9-.53.6-.91,0-1.15-.94-1.29L71.49,134l-1.32,0-1,.85.09.83.7.81-.28.18-1.09-1.29.11-.81,1-1,.36-.19,1.38,0,.94.44,2.11,2.33.85-.38,1.22-.28,1.79.39,1.41,1.23,1.41,2.63.9,2.87,1.74,3.78,1.74,1.71,1.5.68,1.83-.11.72-1.14v-1.38l-.47-.95-1.65-1.35-.9.15-.56.86.61,1.29-.14.33-.33-.2-.81-1.38.14-.77,1.23-.95H88.6l1.09,1,.65,1.34.11,1.19L90,148l.29.58,1.79-.77,1.09-.09,1.26.53,1.74,1.8.71,2.25.41,5.22.53,1.67,1.41,2.2,1.79,1.33,1.45.24,1.74-.76.48-1-.43-1.52L102.34,158l-1.51-.18-.94.61.1.62.75,1.49-.56-.24-.67-1.16.06-.57.56-.95,1.23-.53a3.78,3.78,0,0,1,3.33,5.45l2.12-.38,1.79.68,2,1.71-.23.57H111l.47,1.15.71,5.63,1,3,1.41,1.67,1.08.66,1.22.06.85-.3,1.17-1.43,0-1.58-1-1.14-.85-.43-.94-.1-.65.91.18,1.44-.24.09-.61-1.29.29-1.05.61-.53.56-.14,1.18.14,1.46,1,.85,1.87-.34,1.25.24.42c5.31-2.71,7.9,5.61,8.7,9l1.46,2.39,1.13.81,1.22.15,1.09-.59.89-1.29-.38-1.76-1.41-1.58-1.36-.52-1.09.72.58,1.19.83,1.09-.79-.24-.89-1.23.18-1.25,1.23-.72,1.6.24L134,184l.56.57.23.95.56.87L137,184.9l1.31-.43,1.56.19,2.36.81,3,1.72-.47-.82-3.38-5.44-2.12-.77-2.26-.27-4-1.11-4.09-1.86-.47-.38-.89-.39c-12-6.51-19.92-18.23-29.63-27.57-10.17-11-24.41-20.75-39.84-20.75Zm14.2-37.66.15.91.61.43-.18.48-.53,1.15v9.6l.13,1.49,1.43,1.91-1.18,1.38-.43.77.09,9.94-.13,2.1.51.86-.47.57.29,5.65,3.62,1.23v-5l-.15-8.36-.14-5.92.24-1.62.61,0,16.52,8.47L93,117.51V127l.2,14.91,2.53,2.39.15-2.87.32-21.65.2-.48,3,1.49,9,4.82.13,9.75-.09,1.09,0,10.57-.09,7.08.24.66.32-.33.75-1.53,2.49-3.58-.23-1.91L112.4,125l7-3.4,1.27-.43.2-.81-.33-1.19,0-1.4-.33-.81-9.5,4.64-1.12.2-9.13-4.69-26.2-13.67-.28-.57-.34-5.5L73.79,91l-.29-2.87.14-1.58h-.51l-.84.63-2.36,1.54.1.33Zm9.46,80.25-.09.48,1.27,3.91.47-.24L81,174h.18l2.92-3.53,5.31-7.46,1.18-2.19-2.49-2.24-2.74,3.77L81.31,168Zm.28-26.34-.15-.72.72-.09-.1.72Zm3.2-1.71.47-.72h.43l.09.62-.38.28Zm6.49,61-1.55.87.52,3.44,1.12-.3,8.47-3.86.42-.29.9.24,8.18,4.15c8.44,5,17.68,9.27,26.39,13.82l0,4.54-.19,10.66.19,1.48-.19.33.57.62.9.2,2.68-1.68v-7.07l.18-7.17.09-14.63,0-11.8-.47-.33-3-.77-.23,2.54-.33,12.24.11,3.91-.2,3.15-1-.33-13.84-7.26-3.85-2.25,0-.58.18-21.84-2.4-2.1-.56-.24-.18,4.25-.29,18.73-.42.06L100,199.76l-.2-5.21-.09-13,0-1-.1-9.13-3.29,5.2v21.61L96,200.47l-2.4,1ZM94.11,156l.14-.61.9-.25.18.58-.57.61Zm4.75-1.14-.29-.72.48-.33.52.13-.15.68Zm9.92,16.39.19-.58.71-.14.24.57-.24.58Zm4.19-1.06.19-.37.41-.29.53.14.05.67-.43.33-.42-.14Zm4.75-6.35-1,1.38.09.48,2.32,2.06c1.19-3.2,7.29-11.56,9.73-14.06l-1.23-3.82L124.5,154l-1.74,2.54-1.56,1.82Zm6.11,20.26v-.42l.52-.35.42.15-.22.82Zm3.86-2.87.1-.24.61.15.19.53L128,182Zm13.88-57.58-2.13-.43.53,2.91.43.62,4.7,1,1.4.24,2.22-1.78,11.11-7.63.32.28,3.06,1.67v-2.78l-.43-.42-2.63-1.58-1.55-.86-3.87,2.86-6,4.12-.09-.62h-.34l1-2.82.19-1-3.3-2.92,2-4.06v-.76L145,107l1.59-3.11.34-1.25-1.32-1.19-1.28-1.77-1-.75-2.16-.39.8,8.27,2,11.09,1.18,6.25-.38,0-.18,0Zm5.65,6.93-2.83-.34,2.11,8.55,4.81,14.34,8.52,18.69.6.24.43-.53-.05-17.78.09-19.35-4.28-10.33-.28-.28-2.59,1.58,4.09,9.51.09,3.1-.09,21.93.09.5-.36-.15-1.38-3-5.35-14.38L148,133.09l-.24-1.29Zm5.59-4.54-5.14,3.53c1.56,7.46,5.42,17.48,8.15,25l.9.34.56-.91-.05-1.82,0-5.88V136l-2.41-6.22-1.59-3.49Z"
            />
            <polyline class="cls-3" points="60.06 97.81 57.61 100.4 57.7 110.35 57.65 124.68 58.08 125.55 60.47 125.4 60.33 120.77 60.29 111.97 60.15 107.09 59.73 106.47 60.2 105.75 60.06 105.09 60.2 98.49"
            />
            <path class="cls-3" d="M62.27,270.16l-1,1.91,2.17.72,2.35.42,2.73.35,6.39,1.19,6.5.72,1.88.09,3.49.33,5.44.1,6.92-.28,3-.35,2.83-.18,7.09-1.24,9.28-2,3.71-1,.18-.33-2.35-3.2c-21.53,5.72-38.24,5.78-59.83,1.29"
            />
            <path class="cls-3" d="M85,54l-1.78.81.09.39,1.93,3.1c11.85-2.31,21.26-4.27,33.72-4a157.93,157.93,0,0,1,26.53,3.44l2.07-4.11c-10-2.09-24.4-4.72-34.29-3.87-8.4.42-16.86,1-25,3.16"
            />
            <polyline class="cls-3" points="147.96 207.07 147.96 212.51 148.01 214.43 148.2 216.54 148.07 226.76 148.34 229.06 150.6 227.15 150.75 223.52 150.75 208.03 150.69 198.09 148.2 197.81 147.96 198.43"
            />
            <path class="cls-3" d="M81.73,68.29c.77-9-7-16.42-15.14-8.71l-1.65-2.4c9-5.85,4.58-16.86-5.42-17.38-10.21.09-15.17,11.38-5.9,17.38L52,59.58c-9.25-8.75-17.63,2.1-14.57,11.34,1.16,4,4.75,7.67,9,7.81a7.65,7.65,0,0,0,5.85-2.06c1.63-1.22,2-3.55,3.12-4.64,1.3.67,1.24.54,1.18,2-.61,3.79-3.12,8-5.15,11.16a53.37,53.37,0,0,1,15.66,0C65.06,81.9,62.58,77.86,62,74c-.1-1.41-.07-1.32,1.17-2,1.09,1.06,1.53,3.5,3.12,4.64a7.65,7.65,0,0,0,5.85,2.06c4.76-.16,8.51-4.51,9.38-9"
            />
            <path class="cls-3" d="M126.9,257.49c-.78,9,7,16.42,15.13,8.71l1.65,2.4c-9,5.85-4.58,16.87,5.43,17.38,10.2-.09,15.16-11.37,5.89-17.38l1.65-2.4c9.25,8.75,17.63-2.09,14.57-11.34-1.16-4-4.75-7.67-9-7.81a7.65,7.65,0,0,0-5.85,2.06c-1.63,1.23-2,3.55-3.12,4.65-1.3-.68-1.24-.55-1.18-2,.61-3.79,3.12-8,5.15-11.16a53.37,53.37,0,0,1-15.66,0c2,3.25,4.53,7.29,5.14,11.16.09,1.41.06,1.32-1.18,2-1.09-1.07-1.53-3.5-3.12-4.65a7.65,7.65,0,0,0-5.85-2.06c-4.76.16-8.51,4.52-9.38,9.05"
            />
            <path class="cls-3" d="M172.08,38.48v250H35.93v-250H172.08m2-2H33.93v254H174.08v-254Z" />
        </g>
    </g>
</svg>
