<svg xmlns="http://www.w3.org/2000/svg" viewBox="0 0 208 326"><defs><style>.cls-1{fill:#fff;}.cls-2{fill:#6f7072;}.cls-3{fill:#0087c5;}.cls-4{fill:#f72014;}.cls-5{fill:#facc23;}</style></defs><title>JD-fr-2c</title><g id="Calque_2" data-name="Calque 2"><g id="FR_-_EN" data-name="FR - EN"><path class="cls-1" d="M14.83,325A13.84,13.84,0,0,1,1,311.18V14.82A13.84,13.84,0,0,1,14.83,1H193.17A13.84,13.84,0,0,1,207,14.82V311.18A13.84,13.84,0,0,1,193.17,325Z"/><path class="cls-2" d="M193.17,2A12.84,12.84,0,0,1,206,14.82V311.18A12.84,12.84,0,0,1,193.17,324H14.83A12.84,12.84,0,0,1,2,311.18V14.82A12.84,12.84,0,0,1,14.83,2H193.17m0-2H14.83A14.83,14.83,0,0,0,0,14.82V311.18A14.82,14.82,0,0,0,14.83,326H193.17A14.83,14.83,0,0,0,208,311.18V14.82A14.83,14.83,0,0,0,193.17,0Z"/><path d="M198.75,197.14l-.31-46.61-.44-1.88v-1.92a113.23,113.23,0,0,0-3.2-13.48.77.77,0,0,0-1-.45c-.6-6.64-4.32-11.91-7-16.36-.81-.42-1.07-1.44-1.71-2a12,12,0,0,1-1.52-1.73c-.88-.81-2-1.38-2.85-2.17-.75-.37-1.46-.79-2.16-1.22a7.77,7.77,0,0,1-1.48-.6c-.43,0-.92.1-1.14-.11a17.09,17.09,0,0,0-3.08.12,17.09,17.09,0,0,0-5.1,2.16c-1.68-.49-3.11-1.26-4.77-1.77a8,8,0,0,1-2.31-.88c-.62-.12-1.05-.45-1.65-.59a1.94,1.94,0,0,1-1.65-.75v-.16a3.6,3.6,0,0,1-.88-1.6.74.74,0,0,1-.35-.64,10,10,0,0,1-1.38-2.23c-.29,0-.38-.26-.35-.64a14.65,14.65,0,0,1-2.6-4.13c0-.13-.16-.16-.17-.32-.4-.25-.38-.94-.7-1.28-.33-1-1.17-1.44-1.4-2.55-.32-.1-.45-.42-.52-.8a1.58,1.58,0,0,1-.52-1,3.88,3.88,0,0,1-.88-1.6c-.22,0-.15-.4-.19-.65-.51-.29-.76-.86-1.18-1.25,0-.13-.17-.16-.18-.32-1.15-2-3-3.34-4-5.55V82c-.59-3.55-3.63-4.44-5.77-6.3-.34-.08-.53-.32-.82-.45a16.85,16.85,0,0,0-2.81-1.2c-.25,0-.61.11-.65-.13-.85-.21-2,0-2.62-.55h-.32c-.43-.16-1.09-.06-1.32-.44-.26.06-.28-.14-.49-.14-.3-.23-.91-.13-1.15-.44-.19,0-.29,0-.33-.15a1.63,1.63,0,0,1-1-.45c-3.18-1.09-7.22.21-9.81-1.89,0-.28,0-.55,0-.82,3.27-.65,9.28.11,9.74-3.65-.08-.9.22-1.22-.07-2-.38-.56-.93-.92-1.2-1.59.32-.22.26-.8.94-.69.38-.27.84-.48.94-1a4,4,0,0,1,.43-1.32,4.38,4.38,0,0,0,.06-2.61c.08-.44-.52-1,0-1.31.68,0,3.1-.13,3.39-.46.57-.31.6-1.11.73-1.82a37,37,0,0,1-1.54-6.14c0-.22,0-.43,0-.65a24.44,24.44,0,0,1-.75-2.42c0-.29-.21-.33-.19-.64-.24-.13-.25-.52-.35-.8-.11-1.27-.09-1.62-.12-2.93.42-1.54-.27-3.16-.35-4.72-.51-1.78-1.51-4.38-1.56-6.79.31-.12.35-.51.62-.68a27.17,27.17,0,0,1,2.33-2.7c-.14-.43.31-.34.3-.66A4.32,4.32,0,0,1,129.42,22c0-.14.06-.15.16-.17.28-.42.45-.94.93-1.18,0-.14.05-.15.15-.17a4.15,4.15,0,0,1,1.07-1.67c.09-.55.48-.82.6-1.33-3.23-1.61-6.83-2.81-9.93-4.56h-.94l-1.21-1.09-13.06.44-3.44.65h-1.88c-4,.66-8.48,1.21-12.63,1.87-3.14.51-6.06-.57-7.23,1.6a5.74,5.74,0,0,1-1.25,1.35,68.9,68.9,0,0,1-5.62,5.45,7.6,7.6,0,0,1-2,1.71h-.16a25.37,25.37,0,0,1-4.55,3.94c-1.47,1.61-3.71,2.51-5.19,4.12,6,.73,8.71,5,12.64,8a10,10,0,0,0,.55,5.69c1,2.18,3.38,3.26,3.16,6.23A2.22,2.22,0,0,1,77,53c-.64-.77-.4-1.75-.9-2.41-2.93.19-4.07,3.92-2.69,5.81-.81.9-1.88.77-2.7,1.41-1.43,1.12-1.34,2.78-1.92,4.81-2.62-1.07-4.28.47-5.26,2.49,1.12.61,1.29-.69,2.4-.75,1.71-.08,3.24,2.62,5.43,1.74.2.83-.26,1-.6,1.33-2.58-.91-4.86-1.42-6.46.59-.87,1.08-.94,2.88-2.65,2.88,0,.49.54.61.2,1-1.52.48-3,2-4.45,2.29-2.43.49-4.47-.15-6.64.27-3.55.69-5.49,2.83-8.07,5.21-1.34,2.47-2,5.53-3.75,7.65a18.72,18.72,0,0,1-3.73,4.06H35c-5,4.73-10.4,9.06-13,16a.81.81,0,0,0,0,.16c-.12,1.82-.92,3.51-.61,5.25.39.47.13,1.39.08,1.95a.92.92,0,0,1-.64.19,3.05,3.05,0,0,1-1.43.7c-3.24,2-7.12,3.43-8.81,6.88-.22.62-.44,1-.77,1.17a.75.75,0,0,1-.05.16V125c-.13.23-.25.44-.34.62,0,0-.77,58.44-.52,59.44.06.27.4,1.36.86,2.8v1.36c.67,2.16,1.4,4.27,2.08,6.39,1.83,4.95,4.33,10.58,7.39,14.55a6.44,6.44,0,0,1,1.7,2.05.81.81,0,0,0,0,.16A7,7,0,0,1,22.64,214a25.84,25.84,0,0,0,5.47,3,8.92,8.92,0,0,0,4.86-.2,12,12,0,0,0,4.31-1.8c1.44.35,2.55,1.08,3.95,1.48a1.56,1.56,0,0,1,1,.45c.29,0,.35.18.65.14,1.44.69,3.29.94,4.46,1.94h.16c1.1,3,3.11,5.54,4.36,7.82.39.43.64.49.69.95V228c2,2.18,3.2,5.12,4.85,7.64a9.65,9.65,0,0,1,.7,1.27c2.16,2,3.74,4.65,5.47,7.12.33.38,1,1.25.39,1.62v.16c.2.45,1,.84.55,1.44a23,23,0,0,1,3.86,3.27h.16a18.65,18.65,0,0,1,3.8,2,5,5,0,0,1,1.8.26,2.83,2.83,0,0,1,1.64.42,1.42,1.42,0,0,1,1,.13c2.16.31,3.62,1.38,5.43,2.06h.16l.38,0h0a5.2,5.2,0,0,0,1.24.05c2.91-.51,4.33.65,6.71,1.36.14.49-.14.6-.13,1-2.57.43-6-.05-7.74,1-1,.58-.91,1.55-1.53,2.35a3.16,3.16,0,0,0,.08,1.95c.21.62.75.88,1,1.43-.08.6-.52.88-1.1,1-.81.45-.6,1.85-1.37,2.34,0,.06,0,.11,0,.16a2.5,2.5,0,0,0-.09,2c.42.51.71.8.55,1.45-.3,0-.34.21-.65.19-4.19-.35-3.31,1.84-2.39,5.15.36,1.28.37,2.78.64,3.89.45,1.83,1.28,3,1.3,4.18.34.9-.07,1.74.12,2.93a19.05,19.05,0,0,0,.5,4.55c.32,2.22,2,4.82,1.24,6.8a5.82,5.82,0,0,1-1.55,1.69v.17c-.93,2.07-3,3-3.35,5.68-1.14.12-2.08,1.64-1.53,2.34C78,310.38,81.16,311.39,84,313h.72l.32.17h19.63l1.06-.17h1.38c1.22-.19,2.47-.35,3.76-.47.21-.38,1.13-.1,1.61-.23.34.06.42-.13.65-.19h0c.75-.12,1.91.13,2.38-.25h.17l.07,0c2.43-.5,4.92-.12,6.68-.74h0c.21-.15.4-.3.59-.45h0l0,0c2.58-2,4.49-4.61,7-6.66a43.39,43.39,0,0,1,3.76-3.25h.16c2.09-1.88,4.4-3.54,6.61-5.31h.16c.38-.54,1.11-.75,1.58-1.21,1.07-1.31-1.85-1-2.65-1.36s-1.64-.37-2-1.06c-.72.05-.88-.51-1.32-.76a10.67,10.67,0,0,1-1.51-1.25,26.56,26.56,0,0,1-3-3.14c-.72-.18-1.08-.75-1.66-1.07a12.83,12.83,0,0,0-.16-3.91c-.55-3.36-3.56-4.05-3.71-7.85a2.26,2.26,0,0,1,2.58-.42c.85.84.31,2,1.06,2.4a1.63,1.63,0,0,0,1.29-.21c1.85-1,2.21-3.2,1.4-5.6,2.86-.7,4.51-2.51,4.48-5.89,1.76.26,3.25.32,4.18-.82.24-.34.59-1.1.27-1.48-2.52,1.62-4.55-2.1-6.86-1.19,0-3.12,4.67,1.21,6.27-1.39a4.41,4.41,0,0,1,1.09-1.19.86.86,0,0,0,0-.16,3.63,3.63,0,0,1,2.34-2.38c0-.32-.45-.19-.35-.64a10.52,10.52,0,0,1,2.54-1.4.77.77,0,0,1,.48-.18,6.7,6.7,0,0,1,1.75-.89l.65,0a4,4,0,0,0,1.62.09c.67-.14,2.11,0,3.24-.13,5.76-1.56,9.09-5.28,11.28-10.07.76-1.64,1.4-3.28,3.08-4.2,1.94-2.53,4.71-4.31,6.88-6.63.48-.18.47-.82,1.1-.86a6,6,0,0,1,1.24-1.36c.09-.75.79-.93,1.08-1.51.77-.95,1.56-1.89,2.32-2.86a.92.92,0,0,1,0-.16c1.6-2,2.38-4.8,3.11-7.62l0-.65a14.46,14.46,0,0,1,.5-3.77c0-.11,0-.22,0-.33s0-.33,0-.49c1.16-.48,1.89-1.37,3.17-1.75a21,21,0,0,0,9.86-10.94h0ZM66.81,63c.61.08,1.22.15,1.33.77C67.78,63.41,67,63.56,66.81,63Zm72.62,200.63c-.82,0-1.47-.21-1.66-.91C138.26,263.08,139.28,262.88,139.43,263.62ZM47.55,150.52c.94-1.47-1.19-3.07-2.36-2.35a3.59,3.59,0,0,0,.38-2.63c1.51.37.8,2.2,2.21,2.52.42,0,.14-.7.79-.52.45,1.63.07,3.13,0,5.22a3.34,3.34,0,0,1-.08,2c0,.38,0,.76,0,1.14.07.79-.24,1.24-.08,2.12-.71.2-.63-1.34-.39-1.62C47.65,154.27,48.6,152.06,47.55,150.52Zm-2.68-2.18c.14.49-.14.6-.12,1l-.65,0c-.23-.2-.19-.7-.21-1.13A1.36,1.36,0,0,0,44.87,148.34Zm-1.08-2.73c-.55-.4.84-2,1.11-.69A.9.9,0,0,0,43.79,145.61Zm-.39,2.3c-.3.3-1.07.16-1.62.23.25-1,1.16-2.13,1.86-2.2A3.44,3.44,0,0,0,43.4,147.91ZM35,165.53c-.92-1.08.91-2.13,1.17-3.14a4.44,4.44,0,0,1,.37-2.79c.76,1-.42,3.39.65,4.05,1.5-.59.76-3.27,1.1-4.93-.2,0-.18-.32,0-.33.09-1.16-.53-3,.52-3.28a16.26,16.26,0,0,1,0,3.42c-.31.32,0,.6,0,1a3.15,3.15,0,0,1-.11,1.31c-.09.55.26,1.5-.09,1.8.72,1.4-.71,3,.48,4a3.85,3.85,0,0,1-2.27.09C38.15,164.43,35.41,162.75,35,165.53Zm-.54,3a3.36,3.36,0,0,1-1.69,2.35C33,169.8,33.22,168.09,34.47,168.49Zm42-104.09a7.3,7.3,0,0,1,1.63.27c0,.22-.4.15-.64.18-.84-.09-1.17.28-1.94.25a.76.76,0,0,1,1-.53ZM157.9,176.62c.93-1,.75-3.07,1.12-4.61a37.85,37.85,0,0,1,1.3,4.19,1.79,1.79,0,0,0-2.25.74c.14,1.35,2.57,1.7,2.77.21.45.4,1,0,1.29-.21-.54.52.41,1,.05,1.3.6.3.68-.41,1.62-.22-.29.56-.61,1.51-1.05,2.32s-.79,1.85-1.87,1.87c-1.27,0-2.42-1.74-2.58-3.65-.82,0-.85.67-1.26,1-.53-3.64-.64-8.87.51-11.76C158.07,170.76,156.89,174.39,157.9,176.62Zm12.89-18.78a9.34,9.34,0,0,1,1.82-3.17C173.24,155.58,172.23,158.33,170.79,157.84ZM70,208.66a2.63,2.63,0,0,1,4.48,2.59C73.09,214.94,67.63,211.79,70,208.66ZM67.6,218.87c-2.68,0-3.1-4.47-.37-5.21C71.17,212.6,70.86,218.86,67.6,218.87Zm6.15-16.72c.49-2.41,4.12-2.07,5-.53C80.76,205.54,72.76,207.09,73.75,202.15Zm7.78-8.63c2.42.47,2.4,4.83-.13,5.22C77.83,199.3,77,192.66,81.53,193.52Zm.8-4.11c.38-.7.83-1.32,1.22-2,2.34-1.34,3.65,1.23,4.15,2.44C87.51,192.9,82.16,192.74,82.33,189.41ZM51.81,172c.69.47.39,2.36-.05,2.77A3.72,3.72,0,0,1,51.81,172ZM50,154.66c.16-.52,0-.37,0-1,.55,0,.51.59.53,1.12,0,.38,0,.76.05,1.14.43.93-.6,1.74-.45,1C49.76,156.48,50,155.65,50,154.66Zm1.25,7c1.75.66,2.3-.79,3-1.58a3.12,3.12,0,0,1-.37,3.11c-3,1.19-3.69-1.65-4.18-3.42C50.7,159.83,50.58,161.15,51.24,161.62Zm10.69-29c2.67-1.08,1.66-5.57,4.62-6.38,1.22,2.16,2,5.07,3,7.05.28.51,1,.95.73,1.93-.41,1.67-1.83,3.72-2.53,5.81s-1.13,4.51-2,6c-.84-.24-.93-1.36-1.21-2.07-1-2.45-1.62-5.34-3.38-7.53A15.84,15.84,0,0,0,61.93,132.66Zm71.62-14.27c-3,0-3.4-5.75.6-5.24C136.73,113.48,136.64,118.42,133.55,118.39ZM137,106.84c4.25-1.22,3.82,5.32.53,5.2C135,112,134.22,107.63,137,106.84Zm18.17,61.9c1,1.63.36,4.29.38,5.69C154.55,173.42,154.91,170.11,155.16,168.74Zm-3.68-2.63c-.67,0-.64-.77-.86-1.27.48-.56.83-.92.75-1.66,3-1.23,4.15,1.39,4.52,3.57C154.59,166,152.7,162.47,151.48,166.11Zm-10.16,30.08c.13,2.49-.76,3.89-2.27,4.34a31.32,31.32,0,0,1-2-4.33c-.9-2-2.27-3.6-1.71-6.08l0-.09c1.84-3.19,2.34-7.62,4.26-10.73,2.12,3,2.28,7.31,4.59,9.6C143.81,191.81,143.43,194.81,141.32,196.19Zm-9.95-75.43c0,.16,0,.33,0,.49.48,0-.09,1.24.38,1.29,0,.16-.2.13-.32.17-.44,3.23-5,2.24-5-.28C126.37,120.3,129.7,118.91,131.37,120.76Zm-3.88,8.47c0,1-.76,1.23-1.21,2.34-1.9.57-3.8-.14-4.11-1.47C121.19,126,127.4,125.9,127.49,129.23Zm-7.75,9.12c-.88-.13-1.15-.75-1.84-1.4-.69-3.22,2.36-4.68,4.09-3.25A2.66,2.66,0,0,1,119.74,138.35Zm-1.88,5.78c-1.58,1.79-4.56.52-4.14-2.28C114.27,138.07,120.78,140.81,117.86,144.13ZM114,148.36c1,4.2-4.61,4.59-5,1.34A2.63,2.63,0,0,1,114,148.36ZM108,158.55c-4,1.68-5.1-5.2-1-4.86A2.56,2.56,0,0,1,108,158.55Zm-2.9,4.52a2.36,2.36,0,0,1-4.33,1.31C98.31,160.61,105.09,158.82,105.14,163.07Zm-6.79,8.74c-3.24-.07-3.27-5.71.45-5.07C101.63,167.23,101.46,171.89,98.35,171.81Zm-1.92,4.81c-.1,2.33-3,2.76-4.49,1.32C88.38,174.43,96.67,171.3,96.43,176.62ZM90.92,185c-3.77,3-5.62-4.51-1.47-4.5A2.56,2.56,0,0,1,90.92,185Zm63.48-23.23c-1-.15-1.88.48-2.43.25-.38-.41,0-1.07.11-1.47,2.9-1.69,4.82,2.76,5.36,4.19C156.09,164.77,155.17,162.91,154.4,161.76Zm-.28-2.93c-1.24-.18-2.31,1.11-3.34,1.76.15,1.81-.7,2.69-1.31,3.81.42,1.63,1.07,2.94,1.49,5,.13.62.72,1,.88,1.59.09.35-.18.76-.12,1.15.25,1.7,1.48,3.57,1.82,5,.45,1.88.36,3.8-1.12,4.45,1.38.58,2.61,1.5,2.39,3-.15,1-4.24,4.49-5.57,4.93l-.23.05c-.85.17-1.79-.1-2.28.07-2.51-1.65-3.61-5-4.87-8.45-.5-1.36-1.29-3.28-1.15-4.52.08-.82.72-1.26,1-2,.51-1.14.92-2.51,1.64-3.82.87-1.58,1.79-2.56,1.93-4.48,2.1-2.38,3.09-5.81,4.69-8.66,1.6-.25,2.55-1.72,4.49-1.16.66,1.28,1.93,2.74,2,4.16C155.21,160.59,155.26,159,154.12,158.83ZM142.92,105a2,2,0,0,1-2.47-.88c-1.13-1.33-.61-3.66,1-4.11C145.06,98.94,146,104.31,142.92,105ZM40.4,150a6,6,0,0,0,2.76,0c-.56,1.78-2,2.75-2.58,4.5C39.77,153.26,40.93,151.82,40.4,150Zm13,14.15c.67,1.15-.83,1.73-1.86,2.2-1.19-1.48-3.25-2-3.27-4.76C50.34,162.24,50.35,165.6,53.44,164.14Zm-2.14,3.19c1.09.11,1.92-1,3-1.43-.38-1.74,1.32-2.75,1.46-4.13.13-1.22-1-2.79-1.46-4.18a41.66,41.66,0,0,1-2.41-11.81c-.06-.68.75-.56,1.1-.86-1.12-1.18-2.69-1.6-2.24-3.33.21-.82,4.29-4.48,6.13-4.82,1.12-.2,1.76.25,2.45.23,1.73,1.71,3.42,6,4.4,8.8.46,1.32,1.07,3.7.49,4.38A17,17,0,0,1,62,154.84c-.66,1.8-1.35,2.8-2.4,5-.32.64-.42,1.49-1.06,1.83a3.53,3.53,0,0,1-.45,1,21.46,21.46,0,0,1-1.8,3.66,6.67,6.67,0,0,1-.61,1h.16c0,.42-.11.21-.31.18,0,.19,0,.29.17.32-.27.17-.31.55-.62.68-1.41.31-3.54,2.33-4.66,1.16-.79-.82-1.34-3.68-2-4.33C49.82,165.39,50.06,167.2,51.3,167.33Zm14.84,55.51c-.11,3.16-5.21,3.78-5.49.7S65.35,218.94,66.14,222.84Zm64.61,38.68c-.9,1-2.46.66-3.71.31C127.51,261.3,130.05,261.71,130.75,261.52ZM173.9,109.28c6.62-.52,6.93,5.07,6.3,11.66-.47,4.85-1.77,10.78-2.34,14.77a5.47,5.47,0,0,0-2.29-.72c.32-1.91,2.64-2.77,2.74-4.36-.13-.36-.91,0-1.3-.11-.19-1.43.45-2.49,0-3.91-1.25.66-1.43,2.33-2.13,3.51a10.64,10.64,0,0,0-1.34-.93c-.76.6.24,1.78.11,2.77.39.32.11,1.35.24,1.95l0,.65c-1.13-.14-2.42-.24-2.73.76.09.24.26.4.35.64.7.65,2.53.19,3.07-.28a2.57,2.57,0,0,0,1,1.26l1.79-.07c.29,1-.52,1.9-.38,2.79a2.31,2.31,0,0,0-1.11.53,14.15,14.15,0,0,1-.58,5.9c-.62-1.54,0-3.23-.35-4.72-1.11.43-.83,1.31-1.06,2-.08.5.26,1.39-.1,1.64-.29,2.75.35,6.48-.62,8.83-.54-.1-.93-.36-1.48-.44-.26-1.46.63-2.21-.12-2.93a13,13,0,0,0-1.83,2.69c-.6.08-.45-.65-1.16-.44-.2.06-.24.29-.47.34a16.14,16.14,0,0,1,1,4.37,4.78,4.78,0,0,0-2.59.26,30.16,30.16,0,0,0,.44-9.31c-.74-.17-.48.59-.94.69.06,3.18-.23,6.4-.33,8.17.51.78.87.78,1,1.75a3.27,3.27,0,0,0,2.43.07A2.4,2.4,0,0,0,169,162a2.88,2.88,0,0,0,1.28-.22,1.72,1.72,0,0,1-.25,2c-.41.93-.48,2.16-1.35,2.66-.31-1.46.76-3.46-.65-4.21-1.43,2.61.55,6.22-1.27,8.85,0-1.77,0-3.41,0-5.21,0-2.13.7-5-.57-6.18-.54.08-.43.76-.44,1.32-1.54-2.46-.13-7.53-.58-10.74-.9-.25-.69.52-1.11.7-.16,7.05-.43,12.59-.49,20.41,1.8-.94,1.34-5.48,1.46-8.21,0-.68-.61-2,.57-2a29.65,29.65,0,0,1-.1,5.72c-.11,3.52.5,6.45-.74,10-.88-.12-1.56-1-2.45-.23-.28-.79.84-1.62,1-2.48.41.35,0,1.63.71,1.6,1.29-1.1-.26-2.49.67-3.77-.3-.37-1.24,0-1.79-.1-.11-.84.09-2-.27-2.6-.16,0-.32,0-.48,0-.89.69-.61,1.52-1.2,2.49-1-.25-1.68-.48-2.11-.08.18-4.35.19-8.95.27-13.71,0-2,.65-4.41-.23-5.86-1.36.09-.54,1.59-.56,2.31,0,1.2-.48,2.87-.48,4.42-1.59-2.3.58-6.09-1.1-7.46-1,.83-.31,2.55-.83,3.62-1.51-.86.64-4.48-1.31-4.51-.47.87-.27,2.68-.5,3.77-.82-.49-.68-2.38-.61-3.08.26-2.41,2-4.37,3-6.31,1.44-2.82,3.35-6.16,4.67-9,3.09-5.08,5.48-10.81,8.29-16.15a5.08,5.08,0,0,0,1.42-.88c-.37-.51-.77-1.35-.24-1.94.65,0,.08,1.38.71,1.44,2.17-.75,2.61-3.12,4-4.57,0-.5-.81-.24-1.31-.27-.17-1.22.59-2.29-.27-2.93-1,.47-1,1.89-1.85,2.52a5.08,5.08,0,0,1-2.66-1.52A6.43,6.43,0,0,1,173.9,109.28ZM147.15,93.06c2.18.33,2.76,4.52.2,5.21a2.52,2.52,0,0,1-2.62-.71A2.71,2.71,0,0,1,147.15,93.06ZM124.29,60.38c-1.09.07-2-.64-1.68-1.56.79.07,1.06-.33,1.62-.07C124.38,59.15,124.59,60,124.29,60.38Zm1.09-25.81c.12.34.45.49.52.79.56,2.39-.47,4.82.28,7.17a99.25,99.25,0,0,1,2.7,11,1.52,1.52,0,0,0-.62.68c-1.56-.22-2-1.67-3.63-1.81-.84.16-.88,1.07-1.91,1-.39-1.68.66-2,1.86-2.2-1.06-1.17-2.74.26-3.2,1.11,0,.8-.23.77.21,1.3a2.31,2.31,0,0,0,3.11.69,1.9,1.9,0,0,0,.08,2,24.84,24.84,0,0,1-3.18,1.43c.11-.57-.27-.61-.21-1.13l-.81,0c0,.9-1.55,1.75-.71,2.48.37-.07.59-.29,1.12-.21.5.64.87,1.43,1.38,2.06a1.6,1.6,0,0,1-.44,1,3.2,3.2,0,0,1,.53,5.36A25.26,25.26,0,0,1,109.8,67,4.83,4.83,0,0,1,107,65.63a11,11,0,0,1-2.33-1.37c0-.11,0-.22,0-.33-.68-.51-1.47-.88-1.85-1.72-1.76-1.37-2.26-4.1-4-5.55-.15,2.22,2,4.85,3.34,6.55a16,16,0,0,0,8.31,5.05,15.35,15.35,0,0,1,2.94.54c0,4.18-.28,7.45-2.36,10.21-2.25.53-4.35.07-6.47.25-2.74-.35-5.66.52-8.27,0a18.08,18.08,0,0,0-2.4-3.17c0-.13-.17-.15-.18-.32-.65-.36-1-1-1.52-1.57a103.67,103.67,0,0,0-9.09-8.44c0-1,.81-1.24,1.06-2,.78.26.79,1.1,1.19,1.42a5.24,5.24,0,0,0,8-6,3.69,3.69,0,0,0-2.65-1.52c1.33-1.8,3.74-2.6,5-4.44,1.37,1.1,1.38,3.06,3,3.14s1.88-2.73,3.59-3.57c.16-.84,1-1.07,1.73-1.38a6,6,0,0,0,1.54-1.85c.78-.74.81-2.18,1.17-3.31A12.86,12.86,0,0,0,106,41a7.69,7.69,0,0,0,1.82-7.41c2-.19,3.46-.86,4-2.44-1,.23-4,1.64-3.79-1.64a50,50,0,0,1,15.84-1.44C124.65,30.22,124.72,32.63,125.38,34.57ZM92.11,46.33c-.41-1.22-1.61-2-2.08-3.34a7.24,7.24,0,0,1,1.5-7.24c-1.6,4,.82,9.6,2.11,12.48,1.29,5.71-7.17,7-4.84,13.07.37-.41.31.24.82.14.68.11.32-.75.61-1,.82.59,0,2-.73,2.15-3.2-.88-2-4.61-1.58-7.11a5.36,5.36,0,0,0-1.86,6.27c1.26,3.41,7.29,2.24,5.6-1.85-.14-.47-.8-.38-1.16-.61.94-1.32,1.33.62,2,.9.25,1.1-.34,1.8-.07,2.45a22,22,0,0,1-1.87,1.87c-5.44,2.33-7.06-6.46-3.61-9.15C90.63,53.64,93.72,51.1,92.11,46.33Zm-5.88-5.15c.08,3,3.09,5.87,1.33,9.25-.35-.67-.19-1.08-.39-1.78-.42-1.49-1.73-2.6-2.6-4.14-1.79-3.2-1.72-8.74,2.4-9.23-.27,1-.51,2.14-.84,3.46C86.16,39.55,86.2,40.37,86.23,41.18Zm-2.15,7.27a3,3,0,0,1,.24,1.94c-.39-.41-.13-1-.37-1.29-2-2.54-3.08-8-1.9-11.17.6.61-.08,1.46-.07,2.28,0,2.55,1.63,5,2.87,7.23-.23-.24-.8-.48-1.14-.12C83.56,48,84.08,47.94,84.08,48.45Zm-.8,4.43c-.56-.18-.72-1.7-.57-2.1C83,50.06,83.3,52.13,83.28,52.88ZM79.89,41c0-.11,0-.22,0-.33a12.75,12.75,0,0,1,.43-1.32c.59.7.08,1.85,0,2.77C79.65,42.23,80,41.31,79.89,41Zm.8,3.88A4.36,4.36,0,0,1,80,42.41C80.73,42.63,80.63,44.35,80.69,44.83Zm25.68-11c-.45-.18-.33-1-.38-1.62C106.42,32.82,106.19,33.18,106.37,33.86ZM92.85,40.43c-.37-.06-.1-.8-.21-1.14.12-.41-.36-1.38.28-1.31-.19.22-.06.26,0,.49,0,.65.33.89.23,1.62,1.11,4.22,6.13,5.8,6.87,9.68.18.94-.26,1.27.25,2.11,1.36-.7.34-3,.15-4.25-.27-.32-.37-.84-.69-1.11-2.25-2.3-5.88-5.15-5.57-9.57a7.32,7.32,0,0,1,3.35-5.68c.16.86-.72,2.54-1,4.28C96,39.6,98,43.78,100.05,46.18c.37.16.29.82.69,1,1.11,1.59,1.75,5.33-1.06,5.91C100.07,46.57,93.2,46.65,92.85,40.43ZM98.7,53.08c-1.29.2-1.9-1.72-1.24-2.56C98.49,50.7,98.53,52,98.7,53.08Zm-5.33.7c-.09-.82.68-.83.76-1.5C94.75,52.53,94,53.69,93.37,53.78Zm-.16-20.54c0-1,1.14-1,2.06-1.22a3.4,3.4,0,0,1-1.55,1.69C93.74,33.35,93.57,33.2,93.21,33.24Zm7.37,10c-2.53-3.54-3.71-9.65-.34-12.71.29,0,.35.19.65.14-.37,1.16-1.25,2.86-1.29,4.13-.15,4.68,3.81,8.21,3.74,12.57C103,46.07,101.65,44.71,100.58,43.22Zm1-11.13c.3,1.84,0,5.57,1,7.63C101.24,38.67,100.25,34.22,101.6,32.09ZM103.3,34c.28,1.28,1.39,1.65,1.74,2.87a2.89,2.89,0,0,1-1.6.71C103.17,36.81,102.61,34.66,103.3,34Zm1.35-2.66c-.62,0-.14-1.5.29-1C104.86,30.67,104.56,30.81,104.65,31.32Zm-.07,14.52c.57-.15.64-.77.76-1.34,1.07,1.17.31,3.28-.65,4.27-.06-.6-.25-.62,0-1.15.26,0,.28.15.49.15C104.54,47.23,104.66,46.94,104.58,45.84Zm.89-6.24a.87.87,0,0,0-.65-.13,1,1,0,0,1,0-.82c.22.21.71.13,1.15.12C106,39.23,105.45,39.17,105.47,39.6Zm-27.09.1c.19,0,.42.27.18.32-1,3.73.4,5.73,1.33,9.08C77.88,47.4,76.6,42.19,78.38,39.7Zm.42,14.66c-.08.72-1.17.36-1.77.24C77.11,54,78.07,54.6,78.8,54.36Zm-4.41-.8c.33,0,1.07,1.39,1.7,2C78.48,56.8,80.36,55,81,53.13c.24,1.53-1,3.4-2.25,4.5C76,58.13,73.5,55.74,74.39,53.56Zm-.64,4.27a26.65,26.65,0,0,0-3.17,2.08A2.79,2.79,0,0,1,73.75,57.83Zm-4.94,6.39c1.06-.17,1.52-.89,2.72-.92C71.94,64.51,69.65,65.37,68.81,64.22Zm-1.34,3.15c1,.06,1.88,1.08,2.8,1,3.52-.18,1.41-5.83,5.28-5.92,0-.42-.25-.52-.67-.46,1.58-.31,6.41.53,5.9-2.68-.88,0-.86.88-1.42,1.2-1.31.43-2.92-.41-4.54-.15-1.32.21-1.71,1.19-2.86,1.42C72.12,57.7,79.68,60,81.5,57c.49,2.61-.26,5.41-3.2,5.35a6.17,6.17,0,0,0,.84.78c1.16.08,1.44-.66,2.41-.75,1.85-2.91,1.15-7,3.54-8.78,1.5-1.12,2.67-1,3.49-2.1,2.18-2.86-.25-5.72-.83-8.77A9.3,9.3,0,0,1,91,33.5c-.87,2.37-2.36,3.74-2.51,6.29-.28,4.83,3.39,7.85,1.44,11.85-2.47,1.67-5.16,3.38-6.07,6.44-.55,1.86,0,4.85-2,6.6-.71-.17.74-.82.59-1.49-2.4,1.18-6.78-.57-8.69,1.65-.15.62.61.24.52.8-1.25.57-1.51,2-2.15,3.18a5.18,5.18,0,0,1-1.94.24c-1.94-1.76-4.66.06-5.62,1.53C64.6,68.71,65.63,67.27,67.47,67.37ZM24.83,211.92c-.36-2.38.1-5.79.47-8.66.65-5,1.88-10.12,2.4-13.3.32.72,1.34.68,2.14.89-.53,1.81-2.48,2.3-2.75,4.35,0,.36.69,0,1,.12.31,1.22-.15,2.86.15,3.75,1.25-.51,1.34-2.1,2-3.18.84-.06.89.73,1.65.75.6-1.49-1-3.49-.37-5.37,1,.28,2.33.13,2.57-.75-.09-1.4-2.43-1-3.1-.37-.5-.3-.59-1-1.18-1.26l-1.95.08c.56-1.89.64-4.22,2.06-5.29,0-1.35-.18-2.79.69-3.29.07.59-.09,1.44.23,1.78,2-.71,1.05-4,.57-6.06.32-.37.53.12.81-.2a5.82,5.82,0,0,1,0-3.26l1.13,0a2.39,2.39,0,0,1,.08,1.95c-1.48.63-.49,3.83-1.06,5.92a.45.45,0,0,1,.5.3c1.62-.47.79-2.7,1.12-4.45.25-1.33,1.3-2.32,1.49-3.32.84-.18.87.52,1.48.6,1-1-.51-3-.35-4.72,2.34.13,3-1.3,3.63-2.75.21-.61-.31-1.44.08-2.12-.4-.37,0-.8-.06-1.3s0-.88,0-1.3c.09-2.24-.17-4.27.09-6a7.16,7.16,0,0,0,2,.41c.24.48-.07.71.06,1.46-2.11-.14-1.37,1.83-1.64,3.66.2,2.36-.21,3.82-.12,5.38.17,2.63-.1,5.49,0,8.32.38,0,.68.29,1,0,.78-4.44.17-9.08.61-13.4,0-.25-.1-.61.14-.65a7.32,7.32,0,0,1-.1-2.44c0-.77.38.31,1,0,.48-.65.75-1.5,1.21-2.17.53-.06.7.26,1.31.11-.09-1.28-.94-3.86-.55-5.69a3.27,3.27,0,0,0,2,.9c-.66,2.49-.22,5.62-.66,7.86-.64-.08,0-1.82-.74-2.25-1.6.58-.81,2.6-1.14,3.95-.08.82.29,2.05-.06,2.61,0,4.14.2,7.77-.22,10.94.06.55.87.3,1,.78,1-3.05.22-7.91.64-12.42.4-.78-.14-2,.4-2.3a7.25,7.25,0,0,1,.13,3.25l0,.65c-.08.61.27,1.62-.09,2,.27,3.73-.18,6.36.07,9.94.25.18.42.45.83.45.9-2.57-.12-6.15.63-8.66.76.73.18,2.47.48,3.89-.43.75.24,2.52-.2,3.27.57,1.14-.7,2.94.94,3.22.8-1.3,0-4.33.73-6.06.65.42.4,2.37.29,3.08a4.42,4.42,0,0,1-.08,2.29c.25,1.69-1.32,2.86-2.1,4.33-1.05,2-2,4.3-3.15,6.48s-2.74,4-3.65,6c-1.85,4.11-3.49,7.71-5.55,11.47a15.53,15.53,0,0,0-1.43.87c0,.71.9,1.19.4,2-.73-.06-.28-1.4-1-1.43-1.88,1.07-2.63,3.2-4,4.72.61.28.6.19,1.47.11.4.79-.61,2.38.28,3.08,1-.61,1-2.07,2-2.68a4.94,4.94,0,0,1,2.34,1.7C32.66,217.88,25.6,217.07,24.83,211.92Zm31.55,18.64c-.52-3.81,6.22-4.38,5.21.45C60.47,233,56.72,233.05,56.38,230.56Zm25.41,35.52c.72,0,1.86.41,1.67,1.4a5.29,5.29,0,0,1-1.6.39A2.76,2.76,0,0,1,81.79,266.08Zm-1.51,23.38a18.69,18.69,0,0,1,.23-2.29c.07-2.71-1-5.19-1.78-8.24-.62-2.51-1.61-4.71-.91-6.49,1.77-.3,3.74,3.1,5.05.45,1.83.57.09,2.47-1.37,2.34,3.52,2.28,4-5.4-.12-3.09.37-.44.28-1.31.24-2.13,1.23-.17,1.55-1.18,2.87-1.26.09.82,0,1,.37,1.29,1.1-.23,1.14-1.45,1.53-2.35-.34-.56-.74,0-1.46-.1-.4-.94-1.6-1.68-1.1-3.06-2.7-1.78-1.54-6.49,2.69-5.81a2.43,2.43,0,0,1,1.94-.08,20.93,20.93,0,0,1,8.49,1.3,5.79,5.79,0,0,1,2.82,1.68h.16c1.44.53,2.1,1.9,3.19,2.81,1.63,1.45,2,4.24,3.95,5.38-.45-2.42-2.67-5.48-4.51-7.48a24.8,24.8,0,0,0-5.82-3.52c-1.45-.34-2.95-.64-4.42-1-.14-.43-.24-1.51.59-1.49-1.21-2.52-.16-6.63,1.47-8,3.18-.93,9.07-.64,12.79-.67l.32,0c3.27.13,3.73,3.3,5.71,4.84a89.26,89.26,0,0,0,6.88,5.92,21.55,21.55,0,0,1,2.85,2.49c.08.64-1.49,1.29-1.22,1.85-1.53-1-2.45-2.81-5.76-2.22a5,5,0,0,0-2.23,1.06c-.4.37-.47,1-1.09,1.19-1.15,2.33-.94,6,2.51,6.1-1.34,1.84-3.86,2.58-5,4.6-1.56-.62-1.29-3.25-3.38-3.29-1.49.71-2,2.36-3.11,3.38-1.47,2.14-4.37,2.94-4.45,6.38.06.26-.14.28-.14.49.38.26.11,1.24.23,1.78a24.65,24.65,0,0,0,.93,3.07,8,8,0,0,0-1.81,7.57c-2.07,0-3.23.76-3.81,2.11.83.48,1.11-.6,1.93-.57,1.19,0,1.72,1.22,1.56,2.55-4,1.3-9.68,1.72-15.35,1.59C82.1,295.68,80.57,292.79,80.28,289.46Zm36-5.51c.82,3.68-.74,5.43-1.81,7.58,0-1.91.71-3.21.42-5.73-.39-3.4-3.94-7.29-2.23-11.16,1.45-3.25,5.89-4.29,4.87-8.35-.49-1.94-1.82-1.14-2.12-.24-.65-2.35,2-2.12,2.72-.93,1.22,1.92-.19,4.89-.09,5.88,3.75-2,1.85-9.93-2.59-8.22-1.4.55-2.66,4-.15,4.41-.43,1.1-1.42-.11-1.81-.58-.77-5.38,4.94-5.92,6.69-3.2.93,1.45.87,5.08-.07,6.53-1.47,2.24-4.38,2.29-5.83,4.47a6.7,6.7,0,0,0-.87,2.64C113.13,279.94,115.79,282,116.23,284Zm1.43-4.78c-.18-1-.17-2.64,1-3.14-.22,3.5,3.89,6.18,4.13,9.94.12,2-.74,4.89-3.69,5.21.19-1.53.74-2.49.83-3.79C120.14,284.2,118.14,281.73,117.66,279.17Zm4.16-1.47c-.33-.17-.23-1.26-.06-1.47.49.61.14.73.55,1.61a11.68,11.68,0,0,1,2.22,6.76,6.31,6.31,0,0,1-.24,2.13c.31.3,0,.41,0,.81s-.21.65-.29,1c-.49-.23-.2-.71,0-1.13-.06-.53.25-.71.11-1.32a.81.81,0,0,1,0-.16c-.22-3.67-2.5-5.09-3.55-7.85.55.31.75,1,1.34,1.26C122.57,279.06,121.84,278.23,121.82,277.7Zm1-3.63c.68.48.88,2.28.77,3.07A4.82,4.82,0,0,1,122.81,274.07Zm3.1,8.68c.22,0,.15.4.19.65,0,.54,0,1.09.07,1.62a2.6,2.6,0,0,1-.41,2c-.21-.93,0-2.82-.17-4.23-.39-.42-.14-1-.38-1.29-.33-.51,0-1.33-.53-1.28.34-.47.76.39.69.95C125.79,281.41,125.74,282.2,125.91,282.75Zm-2.15-5.29c.72.4.84,1.46,1.07,2.4A4.15,4.15,0,0,1,123.76,277.46ZM99.34,291.8a3.9,3.9,0,0,1,.89,1.92C99.33,293.74,99.42,292.68,99.34,291.8Zm3.45-7.31a.93.93,0,0,1-.53-1c-.27-.27-.87-1-.71-1.6-.56-.71-.45-2.93-.3-3.42.54.77.35,2.81.63,3.56a1.61,1.61,0,0,1,.38,1.46A.93.93,0,0,1,102.79,284.49Zm3.38-9.1c1.84,4.71,7.39,5.87,7.27,11.77-.12.43.53.88,0,1.14a8.12,8.12,0,0,1-.11,1.48c-.56-.27,0-1.1-.24-1.95-.14,0-.16-.06-.17-.16-.59-6.21-7-6-7.31-12.59-.79-.26-.5.47-.78.68,0,1.07.37,1.52.25,2.28,1.85,3.81,7.11,5.74,6.77,11.31-.12,2-1.08,3.23-2.08,4.81-.36,0,.23.4,0,.81-.63-.06-.77.32-1.45.22,2.72-6.21-.58-12.73-3.74-16.81,0-.51.06-1.2-.22-1.46-.08-1.8,0-3.42,1.81-3.49A6.88,6.88,0,0,0,106.17,275.39Zm1-2c1.41-.19,2,2.08,1.09,2.89C107.36,275.94,107.31,274.64,107.22,273.39Zm5.66,20.16c-.29.77-1.38.81-2.23,1.06.28-.57.8-.93,1.08-1.51C112.12,293.24,112.18,293.74,112.88,293.55Zm-5.65-7.44a17.57,17.57,0,0,1,.63,3.56,22.07,22.07,0,0,1-.48,4.42c-.71.65-1,1.65-2.19,1.88.2-1.58,1-2.4,1.14-3.8.42-4.9-4.19-8.71-3.08-12.43C103.53,282.17,106.18,283.83,107.23,286.11Zm-3.56.14c.22,0,.15.4.19.64a7,7,0,0,1,1.1,3.38,1.74,1.74,0,0,1,.07,1.63c0,1.11-.06,2.25-1,2.49a18,18,0,0,0-.46-7.49c-.34,0-.07-.71-.36-.8-.06-.38-.28-.6-.2-1.13C103.23,285.36,103.63,285.61,103.67,286.25Zm-.54,6.87a37.3,37.3,0,0,1-2.25-3.66c.36-.34,1.11-.33,1.43-.71C103.6,289.52,103.09,292.12,103.13,293.12Zm-1.84,2.68c.28-.37.06-1.2.09-1.8.11-.41-.37-1.38.27-1.31a1.05,1.05,0,0,1-.13.82c.54.6.59,2.63-.21,2.94,0,.42-.59.41-.8.2C100.82,296.41,101.25,296.29,101.29,295.8Zm-.67-4.54a1.2,1.2,0,0,1,.7,1.27A5.87,5.87,0,0,1,100.62,291.26Zm.64-4.43c0,.38.3.47.2,1a1.32,1.32,0,0,1-1-.78A1.08,1.08,0,0,1,101.26,286.83Zm13.39,6.48c-.2-.35.41-1.29,1.09-1.35C116,293,115.08,292.92,114.65,293.31Zm12.56-6.37c1.32-3.6-.36-7.22-1.37-10.22-.34-.14-.38-.61-.37-1.12.33.14.37.61.37,1.12C128.22,278.46,129.88,285.51,127.21,286.94Zm.07-14.68c0-.89,1.49-.49,1.78-.23C128.52,272.5,127.83,272,127.28,272.26Zm4.6,1.29c-1.08-1.11-1.61-3.05-3.53-3.13-1.63-.06-2.87,1.5-3.13,2.9C123.48,268.4,133.42,267.2,131.88,273.55ZM136.29,262c.39.07.84.1.83.61-.5-.21-.86.11-1.45.22C135.66,262.32,136,262.17,136.29,262Zm-.49,4.25a3.55,3.55,0,0,1-3.62,2.76C133.34,268.1,134.88,266.78,135.8,266.21Zm-.29-3.41c-.14.29-.49.38-1,.36C134.54,262.47,135.17,262.38,135.51,262.8Zm1.29-4.29c-.18,0-.12-.32-.34-.31-4.34-.34-2,5.35-6.09,5.95.12.31.45.42.83.45-1.87.34-6.29-.84-5.91,2.36a6.74,6.74,0,0,1,2.55-1.08c1-.08,2,.47,2.94.37,1.36-.14,1.83-1.07,3.2-1.11-1.06,4.17-8.36,1-9.54,4.79-.93-2.75.62-6.3,4.14-5.87a3.3,3.3,0,0,0-3.89,0c-.77.53-.64,1.38-1.4,1.68-.3,2.74-.18,4.95-1.84,6.6s-4.68,2-5,4.76c0,.6,0,1.2.07,1.79,1.69,4.18,3.62,10.51-1,12.92a10.3,10.3,0,0,0,1.79-7.89c-.37-2.34-2.08-4.36-2-6.28.1-3.36,4.3-4.56,5.88-7.09,1.85-2.92.11-7.37,3.39-8.78-.24.46-.81.62-.93,1.18,2.5-.55,7,.78,8.71-1.32.18-.71-.78-.17-.69-.79,1.78-.24,1.1-2.75,2.63-3.2.51-.43.86-.26,1.46-.22-.07.14-.13.29-.31.33,0,.14.07.15.17.16s.15-.17.14-.33c.32.37.64.21,1,.77,2.46.41,3.69-1.54,5.08-2.65C141.83,257.57,139.14,260.62,136.8,258.51Z"/><path class="cls-3" d="M198.16,163.49l.21-10.16c0-.38-.9-2.73-1-3.07-.17-1-.64-1.79-.76-2.74-.62-5.12-1.16-9.86-3-14.07-1.67,6.7-2.82,13.69-4.41,19.91-1.69,6.63-3.81,13.06-5.07,19.44-3.18,7.06-5.24,15.23-9.88,20.94a12.75,12.75,0,0,1-3.6,3.25c0-.19.23-.27,0-.33,0,.18-.32.12-.31.34a.44.44,0,0,1,.49.31,21.5,21.5,0,0,1-3.93,2.93c-1.53.85-2.79,1.92-4.27,2.77a59,59,0,0,1-8.3,3.43,33.54,33.54,0,0,0,7.66,5.08c2.79,1.36,6.24,3.1,9.37,3.37,3.76.33,5.59-1.07,8.19-2.12,6.49-2.6,12.85-5.9,16.28-10.92.84-2.63,2-5.84,2.88-8.46C198.75,193.39,198.37,167.09,198.16,163.49Z"/><path class="cls-4" d="M38.25,19.66S48.85,42.27,64.55,48a67.36,67.36,0,0,0-26.3,27.69s-4.71-16.27-25.7-28A49.06,49.06,0,0,0,38.25,19.66Z"/><path class="cls-4" d="M168,250.16s10.6,22.61,26.3,28.31A67.36,67.36,0,0,0,168,306.16s-4.71-16.28-25.7-28A49,49,0,0,0,168,250.16Z"/><rect class="cls-1" x="174.82" y="255.85" width="23.2" height="57.05"/><rect class="cls-1" x="10.02" y="13" width="23.2" height="60.45"/><path d="M198,13V312.91H10V13H198m2-2H8V314.91H200V11Z"/><rect class="cls-1" x="174.56" y="235.83" width="23.2" height="76.68"/><path class="cls-4" d="M83.46,16.18c-3.06,4.12-6.89,7.3-10.78,10.54-1.11.93-2.14,2-3.29,2.9s-2.76,1.55-3.29,3.07c3.07,1.16,4.94-1.16,7-2.89a59.13,59.13,0,0,0,7.67-7.15c1.31-1.5,2.85-3.89,4-4.24a21.11,21.11,0,0,1,3.08-.13c10.27-1.31,18.71-2.4,28.39-4.06,4.53,1.75,8.43,4.18,13.51,5.33.22-.63.76-1,.74-1.82-3.45-1.31-7.23-3.33-10.79-4.8H107.51c-3.1.57-6.31,1.27-9.51,1.69C92.87,15.3,88.41,15.62,83.46,16.18Z"/><path class="cls-4" d="M125.78,20c-2.32,1.24-2.64,4.34-4.63,5.89-1-.55-.1-1.94.23-2.45.8-1.27,2.35-2.54,2.59-4-1.12.14-1.73,1.56-2.49,2.71s-1.16,2.89-2.65,2.55c.3-2.39,3.28-4.32,3-6.16-1.89,1.59-2.43,4.44-4.64,5.73-.36-2.75,3-4.19,3-6.64-2.12,1.48-2.46,4.62-4.8,5.9-.64-1.26.68-2.35,1.33-3.31a16.15,16.15,0,0,0,2-3.51c-1.24.6-1.88,1.91-2.63,3s-1.2,2.62-2.64,3.05c.06-2.63,2.66-4.21,3.47-6.67-2.49-.92-5,.28-7.44.63-8.07,1.17-16.27,2.34-24.54,2.93a70.57,70.57,0,0,1-15,14.3c2.22,1.78,3.76,4.28,6.39,5.61,10.89-8.48,27.49-12.48,45.7-13.23C123.1,24.13,125.15,22.75,125.78,20Zm-17.66.38a3.59,3.59,0,0,1,2.14-3.35A3.65,3.65,0,0,1,108.12,20.42Zm1.66.91c.07-2.34,1.72-3.2,2.73-4.67A4.89,4.89,0,0,1,109.78,21.33Zm1.81.58a8.46,8.46,0,0,1,4-5.7c.3,1.4-1.51,2.72-2.28,4C112.93,20.83,112.86,22.06,111.59,21.91Z"/><path d="M115.58,16.21a8.46,8.46,0,0,0-4,5.7c1.27.15,1.34-1.08,1.71-1.7C114.06,18.93,115.88,17.61,115.58,16.21Z"/><path d="M112.51,16.66c-1,1.47-2.66,2.33-2.73,4.67A4.89,4.89,0,0,0,112.51,16.66Z"/><path d="M110.26,17.07a3.59,3.59,0,0,0-2.14,3.35A3.65,3.65,0,0,0,110.26,17.07Z"/><path class="cls-4" d="M128.11,21.41a.44.44,0,0,1-.35-.47c-2.24.79-2.66,3.28-3.85,5A9.68,9.68,0,0,0,128.11,21.41Z"/><path d="M119.56,35c-.44-1.2-1.56.22-2.09.41a.75.75,0,0,0-.67-.3c-3,1.31-7.3,2-7.06,5.83.38,0,.48.26,1,.12,1-5.22,7.47-4.75,12.79-4.58.34.43,1.11,1.08,1.66.75-.18-2.31-3.24-1.45-4.48-2.6C120.33,34.74,120.14,35,119.56,35Z"/><path d="M121.2,39.63c0-.6.9-.42,1.27-.7l0-.82c-4.39-.83-4.89,3.3-8.79,3.45-.55.22-.67.83-1.59.71.48,1.19,1.44,1.5,1.56,2.71.55.48.83,1.26,1.84,1.23.39-.69-1.42-1.58-.58-2.26.83,1.36,3.07,1.32,4.76,1.28.13.59-.33.64-.28,1.16,2.45,0,1.5-3.4,2.38-5.32.4-.37,1.18-.37,1.1-1.18C122.36,39.35,121.41,40.39,121.2,39.63ZM117,44.2c0-.27-.16-.28-.18-.48.14-.7,1-.77,1.58-1a2.13,2.13,0,0,1,.71,1.43A3.55,3.55,0,0,1,117,44.2Zm-.26-2.44a5,5,0,0,1,2.36-1.89c0,.28,0,.55,0,.82C118.06,40.79,117.85,41.69,116.74,41.76Zm3.11.53c0-.33.31-.44.46-.67.21.05.26.28.5.31C120.7,42.29,120.07,42.5,119.85,42.29Z"/><path class="cls-3" d="M90.54,101.19c7.06,7.43,14.76,14.38,21.62,21.81,2.33,2.52,4.15,5.51,7,7.55.88-1.36,3.55-3.64,3.51-5.53,0-1.08-1.41-3.14-2.29-4.63-2.76-4.71-6.23-9-8.65-13.68a18.13,18.13,0,0,1-2.07-3.18c-5.81-7.11-11.33-13.83-17.7-21.31C89.61,79.53,87,77,84.28,74c-2.47-2.68-5.86-6.22-8.72-7.31,0-.1,0-.2-.17-.16-1.77,1.41-1.59,3.66-4.06,3.91-1.22.13-2.45-.88-3.75-.66s-2.2,1.76-2.66,2.55c-2.17-.45-4.53,1.51-5.89,2.84C70.39,83,81.12,91.27,90.54,101.19Z"/><path class="cls-4" d="M111.75,79.63c-6,1-10.63.48-15.22.61A108,108,0,0,0,82.36,66.45c-1.53-.16-2.09.57-3.55.47C84.61,72.5,90,78.49,95.4,84.53l17.65-.71c1.68-4,4.08-7.29,5.88-11.16C115.3,70.23,113.82,78.66,111.75,79.63Z"/><path class="cls-3" d="M112.45,105.7c3-8,5.53-16.41,10.13-22.91a36.61,36.61,0,0,0,4.06-3.91c1.35-1.29,3-2.34,4.07-3.92-3.16-.81-5.72-2.27-9.2-2.73-6,7.61-10.26,17.32-13.33,28.09A23.08,23.08,0,0,0,112.45,105.7Z"/><path class="cls-4" d="M51.91,88.21c1.27-1.87,2.21-4.12,3.66-5.85a21,21,0,0,0,3.54-4.87c-1.3-1.13-2.54-2.33-5-2.25-.9,0-2.75.48-4,.65-.9,1.1-2.25,1.06-3.34,1.76-1.92,1.24-2.67,3.49-4.35,4.91-3,12.91-20.45,14.67-19.53,31.27,4.18-1,7.52-3.61,12-3.09,1.25.14,2.42.8,3.93.82A201.06,201.06,0,0,1,50.07,90.89C50.64,90,51.27,89.16,51.91,88.21Z"/><path class="cls-5" d="M53,107.57a33.73,33.73,0,0,1-.91-6.64c1.61-1.33,4.42-1.54,6.22-2.7-.24-2.46-.81-4.55-.93-7.14,1.74-1,4-1.57,6.07-2.36A27.78,27.78,0,0,0,62,80.31c-.22,1.07-1.09,1.37-1.21,2.33-.19,1.57,1.38,3.24.86,5.19-1.92.67-3.87,1.32-5.93,1.86-.4,2.35.61,4.21.75,6.82-1.4,1.58-4.6,1.48-6.38,2.7,0,2.13.53,4.48.77,7.15-1.22,1.23-4.22,1.43-5.26,2.33.72,2.55-.17,6.86,2.71,7.06-.39-1.61-.59-3.44-.86-5.18C48.39,108.62,51.65,109.37,53,107.57Z"/><path class="cls-5" d="M67.34,84.66a1.85,1.85,0,0,1-1.44.39c.1-.57-.67-.18-.52-.8-.19-.9.82-.7.92-1.34a5.65,5.65,0,0,0-2.67-2c.13,3.21,1.76,5.78.83,8.77-1.92.57-3.62,1.34-5.6,1.86-.36,2.7.9,5.55.47,7.8a47.16,47.16,0,0,0-6.08,2.2c-.24,2.07,1.45,5.52.3,7.49a37.54,37.54,0,0,0-4.79,2c.72,2.26-.2,6.68,2.87,6.9A120.57,120.57,0,0,0,67.34,84.66ZM61.42,95c-.6,0-.6-.55-1-1.1C61.6,91.29,63.78,95.11,61.42,95ZM58,102.65c1.09,2-1.75,2.7-2.05,1.22C55.77,103.08,56.87,102.19,58,102.65ZM52.44,114c-1.1.29-1.32-.38-1.81-.75C50.8,111.24,54,112.35,52.44,114Z"/><path class="cls-5" d="M142.13,89.19c.57,1.59-.28,4,.39,5.69.16-.74.48-.62.77-1-.34-1,.17-3.91-.38-5.53-.84-.45-3.16-.75-4.27-1.46.14-1.85-.32-4.27.93-5.09-2.41.36-1.28,3.52-1.72,5.94C139.1,88.39,141,88.14,142.13,89.19Z"/><path class="cls-5" d="M141.26,83.51c-.15-.63-.67-1.75-1.35-1.25C140.74,82.56,140.61,83.33,141.26,83.51Z"/><path class="cls-5" d="M68.5,85.27c-3.85,12.4-9.53,23.41-15.85,33.9.75.2.91,1,1.82,1.07A131.53,131.53,0,0,0,68.83,85.42C68.79,85.29,68.69,85.24,68.5,85.27Z"/><path class="cls-5" d="M136.53,82.89c0,.66-.09,1.78.23,1.78-.24-.8.37-.82.27-1.48C136.3,83.34,137.26,82.73,136.53,82.89Z"/><path class="cls-4" d="M70.31,86c0,.16,0,.33,0,.49,6.2,13.47,8.17,31.21,9.89,49.18,1,.13,1.34-.09,2.11.08.9-7.93-.33-16.1-1.27-23.92-.87-7.23-2.64-14.13-4-20.55A22.4,22.4,0,0,0,70.31,86Z"/><path class="cls-4" d="M135.09,83.43c-2.45.6-3.7,2.31-5,3.95.75,1.62,2.05,2.64,2.29,4.8,1.35,0,1.62-.9,2.72-1.08C134.93,88.56,135.89,85.56,135.09,83.43Z"/><path class="cls-5" d="M103,93.35a14.66,14.66,0,0,0,4.26,5.21c1.38-4.18,3.12-8.53,4.82-13.4a6,6,0,0,0-1.94.08,13.53,13.53,0,0,0-6.48.09c-2.3,0-5.23.48-6.81.11-.13,1,.76,1.94,1.4,2.72a16.92,16.92,0,0,0,3.55,3.61c.19-.46.12-1.15.6-1.33,1.07-.29,2.23,1.12,1.56,2.71C103.68,93.56,103.28,93,103,93.35Zm-1.31-4.51c-.56.14-1.54-.12-1.62.06-.7-.43-.63-1.9-.26-2.6.31.18,1.2-.16,1.94-.07A3.6,3.6,0,0,1,101.73,88.84Zm5.73-2.68a2.82,2.82,0,0,1,2.43-.26,8.9,8.9,0,0,1-.06,2.61l-1.78.08A3.6,3.6,0,0,1,107.46,86.16Zm.51,4.55a2.64,2.64,0,0,1-.08,2.12l-1.94.08C105.17,91.41,106.35,90,108,90.71Zm-4.13-2a2.13,2.13,0,0,1-.26-2.43,7.32,7.32,0,0,1,2.26-.26C106.48,87.62,106,89.27,103.84,88.75Z"/><path class="cls-5" d="M141.11,83.84c1.24,1.32,1.9,3.26,3.25,4.44.31.58.42,1.37,1.2,1.42-.78-2.67-2.47-4.33-4.13-6C141.3,83.71,141.11,83.69,141.11,83.84Z"/><path class="cls-4" d="M60.41,122.77c.53-1.1-.31-2.56.34-3.6.81.54.88,1.87.94,3.23,1-.49-.59-3.38.67-3.62.39.88.29,2.29.77,3.07,0-.82-.25-1.9.4-2.14.67.18.2,1.6,1,1.59.76-1.8-1.59-2.41-1.13-3.86,2.79.62,3.51,4.44,1.89,6.77a15.23,15.23,0,0,0,4.32-5.72c-.81-.14-.32-1.7-.74-2.25-.13.61-.21,1.27-.93,1.34-.33-1.14.19-3.67-.37-5.37-.25,1.23.26,3.17-.83,3.62-.48-.61,0-2.31-.44-2.91a.81.81,0,0,1-.78.68c-.23-.48-.16-1.3-.39-1.78-.46,0-.3.56-1,.37,0-.85-.24-1.9.4-2.14.6,0,0,1.22.7,1.11.06-.67.08-1.38.58-1.65.33.26.11,1.13.69,1.11.34-.63-.11-2,.56-2.3.84-.07.28,1.39.72,1.76.61-1.27-.69-2.63,1-2.65,0,.71,0,1.48.39,1.78.23-1-.09-2.6.69-3.12.62.23.38,1.4.73,1.93.59-2.33-.89-6.58.48-8.18.88.89.59,2.39.63,3.56.06,1.41.25,2.87.17,4.24-.22,3.6,0,9.43-.84,11.77-.36,1-1.43,1.71-1.67,2.68-.37,1.5.07,2.8,0,3.91,1-.67,0-3.21,1-4,1,1.78-.56,5.88.48,8.13.9-1.78-.54-5.73,1-6.89.91,2.8-.77,6.83.68,9.11.42-1.91-.51-5.08.73-6.23,1.13,1.69-.1,5,.76,6.82.52-1-.31-3.32,1-3.63.43,1.4-.21,3,.5,4.55.25-.66,0-1.82.74-2,.51.23.31,1.24.4,2,.38.36.51-.32,1.12-.21.31.41.12,1.34.71,1.44a153.27,153.27,0,0,0-2-23.07,135.42,135.42,0,0,0-4.84-19.87c-.42-1.27-.76-3-1.93-3.67,0-.13-.14-.19-.33-.15-1.64,5.19-3.47,10.07-5.86,15.72-2.06,4.84-4.08,9-6,12.64-.49.94-2.16,4.07-1.92,4.8s1.8.61,2.17,1.38c.53-.18-.37-1.7.42-1.64,1,.3.31,2.49,1.1,3.05.55-1.39-.76-3.61.31-4.41C60.49,120.2,59.54,122.48,60.41,122.77Z"/><path class="cls-5" d="M136.57,88.1c.43-.7-.28-.67.29-1-.16-.28-.09-.81-.37-1C136.49,86.86,135.92,87.54,136.57,88.1Z"/><path class="cls-4" d="M129,88.73a2.61,2.61,0,0,0-1.26,1.19c3,5,1,13.28-.25,18.44-.77,3.22-1.14,6.48-1.74,9.2-.32,1.47-1.3,2.85-.65,4.27,1.78-1.69,2.31-4.68,2.8-7.29,1.24-6.6,3.25-14.91,6.86-19.19a2.66,2.66,0,0,0,1.27-.7A2.05,2.05,0,0,0,135,92.41c-1.44.33-1.93,1.55-3.16,2.08C131.23,92.17,130.78,89.71,129,88.73Z"/><path class="cls-4" d="M82.55,96.12c-1.24-1.16-2.42-3.14-4-3.42a283.11,283.11,0,0,1,5.59,43,40.22,40.22,0,0,0,8.43.15c0-5.06-.86-11-1.43-15.92-.35-3-.85-6.51-1.36-9.73-.4-2.59-1-7.18-2-9.22C86.92,99.17,84,97.46,82.55,96.12Z"/><path class="cls-5" d="M136.37,91.05c-.06.23-.19.28,0,.48,1.21,2.32,1.87,5.22,3.84,6.7C138.85,95.93,138,93.11,136.37,91.05Z"/><path d="M147.55,95.17c-.55-.66-2-.17-1.91.72C146.11,97.19,148.14,96.4,147.55,95.17Z"/><path class="cls-4" d="M133,99.66c-1.26,2.63-2.17,7.32-3,10.88-.42,1.88-1.37,3.57-.77,4.93a58.09,58.09,0,0,0,5.65-8.87c0-.65-.36-1-.39-1.62,1.8-1.57,2.48-4.18,4.15-5.87-.71-.93-1-2.28-1.75-3.19C135.35,95.78,133.56,98.44,133,99.66Z"/><path class="cls-4" d="M121.71,97.83c-2.25,2.53-2.23,6.58-2.82,10.71-.35,2.4-1.38,5.21,0,7,1.34-5.71,2.33-11.74,3.36-17.74Z"/><path class="cls-4" d="M147.5,102c-.72.21-1,.86-1.07,1.67,3.45.49,5.73,2.25,9.35,2.56a16.62,16.62,0,0,0-3.63-5.72,4.8,4.8,0,0,0-2.07-3l-.46.51c.64,2.75,2.71,4,3.5,6.55-1.71.2-3.67-.75-5.4-1.1A3.33,3.33,0,0,0,147.5,102Z"/><path d="M141.19,102.27c-.06.39.3.34.19.81.73.15,1.21.36,1.78-.07,0-.13,0-.32.15-.33A1.14,1.14,0,0,0,141.19,102.27Z"/><path class="cls-4" d="M117.1,112.52c.14-1.92,1.12-4.69.4-6.37C116.84,108,114,111.28,117.1,112.52Z"/><path class="cls-5" d="M160.67,111c.82,1.13,2.29.71,3.45,1.17.42.17.76.73,1.17.93a14.57,14.57,0,0,0,4.93,1.6c-.38-2.13-3-1.87-4-3.26-.65,0-1.55-.23-1.32-.6-2.56-.49-4.72-1.74-7.07-2.33-.3-.08-.67.1-1,0-3.87-.86-7.28-3-11.8-3.12C150.18,107.31,155.44,109.11,160.67,111Z"/><path class="cls-3" d="M16.77,172c2.16-7,3.76-13.63,5.7-20,2.66-8.68,6.38-16.82,12.07-23,5.63-3.3,9.73-7.76,17-8.83A26.89,26.89,0,0,0,43.88,115c-2.58-1.26-6.54-3-9.54-3.21-3.79-.25-5.88,1.36-9,2.65-2.17.89-4.5,1.67-6.39,2.53a16.49,16.49,0,0,0-9.18,9.83s0,0,0,.06V183a26.61,26.61,0,0,0,2.4,8.6C13.94,185,14.91,178,16.77,172Z"/><path d="M138.09,110.22c2.67-3.43-4.71-1.28,0,0Z"/><path class="cls-4" d="M121,111.88c.16.83-.3,1.08-.26,1.81C121.09,113.5,121.65,112,121,111.88Z"/><path class="cls-5" d="M167.08,121.46c-3.36-2.61-8.88-4.07-13.06-6.33l-1.14.05c-.26-.75-.77-.43-1.48-.6-.31-.07-.62-.55-.83-.62s-.79.13-1.14.05c-1.06-.26-2.06-1-3-1.19a32.88,32.88,0,0,0-5.06-.77c0-.3-.18-.38-.5-.31.27.57-.54.12-.47.51a48.12,48.12,0,0,0,8.21,2.44c2.34,1.3,5.66,1.54,7.74,3.12,2.85.46,4.47,2.26,7.25,2.81a9.63,9.63,0,0,0,3.15,1.83C167,122.23,166.87,121.68,167.08,121.46Z"/><path class="cls-5" d="M135.39,119.79c1,.09,1.3-.47,1.24-1.36C135.87,118.56,135.6,119.14,135.39,119.79Z"/><path d="M172.19,119.3c.42,1,2.61,1,2.75-.27C174.53,117.92,172.22,117.75,172.19,119.3Z"/><path class="cls-5" d="M110.07,123.57a5.34,5.34,0,0,0-1.35-1.42l-.33,0c.35,5,.18,10.14.37,13.35,2.29,0,5.82.45,6.78-.92.08-3.27.12-6-1.73-6.94a6.78,6.78,0,0,1-1.56,5.77c-2.16-1.77-2-5.7-.13-7.5-.2,0-.11-.18,0-.32A17.91,17.91,0,0,1,110.07,123.57Z"/><path d="M127.87,122.37a1.57,1.57,0,0,0,2,.57,1.6,1.6,0,0,0-.23-1.62C128.61,121.28,128,121.61,127.87,122.37Z"/><path d="M170,122.16c1.49,1,2.32-.82,1.87-1.87C171.35,119,169.35,120.14,170,122.16Z"/><path class="cls-5" d="M149.34,123.8a3.47,3.47,0,0,1,2.07-.74c-.17-1-2.77-.73-2.91.12C148.84,123.32,148.86,123.8,149.34,123.8Z"/><path class="cls-5" d="M57.47,126.31a3.86,3.86,0,0,1-.6,1.33,13.46,13.46,0,0,0,2.14.74A2.22,2.22,0,0,0,57.47,126.31Z"/><path class="cls-5" d="M50.25,128.39c1-.36,1.81-.49,2,.74.71-.28,1.62-.38,1.74-1.21a29.22,29.22,0,0,0-3.26-.52A6.82,6.82,0,0,0,50.25,128.39Z"/><path class="cls-5" d="M136.75,125.6c-1.38-.89-2.76-.9-4.27-1.46-.36,1.55-1.68,2.21-2.13,3.68.48.71,1.44.24,2.11-.09C132,124.6,135.07,126.47,136.75,125.6Z"/><path class="cls-5" d="M26.92,186.73c1.1-1.72,1-3.63,1.4-5.6a158.64,158.64,0,0,1,5.75-18.82c2.2-6.18,5.33-11.74,7.59-17.27,2.79-3.57,5.27-9,8.93-12.09,1.71-1.46,4.68-2.82,7-2.4.87.15,1.74,1,2.46.71-1.2-.86-2.19-2.08-3.81-2.13-2,0-3.28,1.37-4.46,2.14A26.39,26.39,0,0,0,47.1,135a39,39,0,0,0-4.62,6.06c-4.38,6.35-7.37,14.1-10,21.43-2.2,6.09-4.11,12.67-5.75,18.66-.71,2.61-.93,5.41-1.64,7.89-.4,1.4-1.08,3.3-1.43,4.95a95.71,95.71,0,0,0-2,13.95c-.15,2.85.8,4.45,2.32,5.29C23.17,204.15,25.82,195,26.92,186.73Z"/><path class="cls-5" d="M133.56,131c.7-.18.92-.82,1.24-1.36-.53-.66-.15-2.31-1.07-2.56-.53.93.71,2.29,0,2.93-.27,0-.41-.23-1-.28C132.92,130.17,133,130.83,133.56,131Z"/><path class="cls-5" d="M135.6,129.24c1.37.12,1.14-1.25,1.2-2.33-.28.1-1-.16-1,.19C136,127.45,135.37,128.34,135.6,129.24Z"/><path d="M125.71,129.3c-.25-.12-.26-.51-.36-.8C122.08,127.46,124.34,132.09,125.71,129.3Z"/><path class="cls-5" d="M138.79,127.81c-.35.19-1.71,1.45-.89,2.15a5.32,5.32,0,0,0,1.39-1.69C138.91,128.36,139.35,127.53,138.79,127.81Z"/><path class="cls-4" d="M124,181.23c2.67-10.84,4.83-23.74,8.55-34.1.57-1.56,1.6-3.15,1.77-4.47.83-6.15-.92-11.57-4.58-13.52,0-.09,0-.19-.17-.15-.92.71-1.24,2-2,2.85,3,3.26,1.68,9.37.85,13.34-1.77,8.5-3.93,17.09-5.32,25.65-.57,3.57-1.42,7.26-.87,10.8A6,6,0,0,0,124,181.23Z"/><path class="cls-5" d="M50.22,144.21c.12-.75-.3-.91-.38-1.45-.46,0-1.1.19-1.14-.28a20,20,0,0,1,5.46-5.43,6.74,6.74,0,0,1,5-1.18c0-1.46-.59-1.37-1.06-2.24a2.41,2.41,0,0,0-1.77.4c-.69.43-1.61.59-2.39,1.07a25.1,25.1,0,0,0-2.67,2.39c-1.75,1.53-4.09,2.66-4.5,5.07C47.42,143.71,48.63,145.57,50.22,144.21Z"/><path class="cls-5" d="M136.32,131.17c.17.2.18.59.51.63.18-.57-.18-.77-.37-1.29l-1,0c0,.65-1.29.89-.76,1.5C135.08,131.57,135.36,131.06,136.32,131.17Z"/><path class="cls-5" d="M138.29,131.58c.36,0,1.69-.16,1.75-.89C139.3,130.84,138.47,130.91,138.29,131.58Z"/><path class="cls-4" d="M117.28,133.55a1.56,1.56,0,0,0,.43-1.32c-.49.14-.22-.55-.82-.29C117.07,132.43,116.61,133.6,117.28,133.55Z"/><path class="cls-5" d="M161.81,131.78c-.59.08-1.43-.08-1.77.23a8.54,8.54,0,0,0-2.61-.08c0,.06-.63.16-.63.21,1.09.57,2.49,1.82,4,2A5,5,0,0,0,161.81,131.78Z"/><path class="cls-4" d="M120.47,181.53c1.23-9.37,3.84-20.1,5.64-29.57.65-3.37,1.77-6.59,2.22-9.71.41-2.85.46-8.22-1.81-8.73-5,6.81-9.16,14.38-13.91,21.42-.5,8.74-.64,17.22-.4,27.09C115,182.56,117.46,181.86,120.47,181.53Z"/><path d="M119.13,135.27c0,.38,0,.76,0,1.14a1.87,1.87,0,0,0,2.11-.08,2.62,2.62,0,0,0-.37-1.29A1.45,1.45,0,0,0,119.13,135.27Z"/><path class="cls-3" d="M134.7,180.48c.52-.38,1.61-3.08,2.26-4.33,2.39-4.62,4.43-9.53,6.43-13.79,1.66-3.53,3-6.08,4.18-9.14,1.8-4.76,6.22-15.8-1.49-17.55-5.82-1.32-9,4.42-10.88,8.1-3,5.82-4.07,11.55-5.61,18s-3.26,12.67-3.79,19.23C127.37,180.75,132.67,181.94,134.7,180.48Z"/><path d="M53.9,142.76a5.81,5.81,0,0,1-.91-2.41C51.36,140.75,52.33,143,53.9,142.76Z"/><path d="M174.13,139.77c1.05-.12,1.18-2.27.87-2.64C173.38,135.19,171.76,140,174.13,139.77Z"/><path d="M165.11,141.44a12,12,0,0,0-.13-3.26l-.64,0a8.91,8.91,0,0,1-1.5,3.15c-.57-.29-.78-1-1.5-1.08.33,2.39.53,5,1.73,6.78a31.63,31.63,0,0,0,4-5.86C166.45,140.79,165.9,141.52,165.11,141.44Z"/><path class="cls-5" d="M156.47,140.15a1.54,1.54,0,0,0,1.26-.71c-.51.06-.7-.22-1.47-.26C156.17,139.68,156.45,139.76,156.47,140.15Z"/><path d="M115.06,143.1a1.72,1.72,0,0,0,1.94-.24c0-.38,0-.76,0-1.14C115.86,140.81,114.35,142.23,115.06,143.1Z"/><path class="cls-5" d="M108.83,145.63a3.65,3.65,0,0,0,1.84-2.68,2.63,2.63,0,0,0-1.92.56C108.88,143.7,108.72,144.94,108.83,145.63Z"/><path class="cls-5" d="M102.59,156a21.7,21.7,0,0,1,1.53-2.34c.46-2,.29-6.81.26-9.8a26.38,26.38,0,0,0-7,.28c-.14,6.83-.34,13.3-.35,19.91a40.16,40.16,0,0,0,4.29-6.37c-1.77-1.44-2.17-4.72.09-5.87a3.68,3.68,0,0,1,1.39,2.39C102.88,154.94,102,155.58,102.59,156Zm-.89-6.16c-2.5-.46-2.5-4.75-.38-5.53C103.14,145.47,103.11,148.35,101.7,149.83Z"/><path class="cls-5" d="M106.15,143.46c-.48,1.9-.23,4.49-.21,6.85,1.67-1.28,1.51-4.35,1-6.88Q106.56,143.43,106.15,143.46Z"/><path class="cls-4" d="M80.12,190.81c3.11-4.81,5.45-8.43,8.41-12.9,2.14-3.2,3.58-4.95,3.83-9.93.37-7.52.58-15.73.54-23.34-2.41-.68-5.89.11-8.26.49-1.24,8.88-3,16.14-4.86,24.81-.62,3-1.09,6.34-1.89,9.54-.77,3-1.87,6.88-1.56,9.85.11,1.07.85,3.86,1.94,3.83C78.85,193.15,79.65,191.53,80.12,190.81Z"/><path class="cls-5" d="M95.8,144.19c-.6.13-1.72-.24-1.6.56-.2,7.67-.85,17.06-.48,24.8.48-.72,1.31-2,2-3C95.35,160,96.46,151.54,95.8,144.19Z"/><path class="cls-3" d="M57.56,173.93a31.78,31.78,0,0,0-1.8,3.82,28.85,28.85,0,0,0-1.11,4.61c-.58,5.32,2.13,9.19,7.13,8.19a10.61,10.61,0,0,0,3.81-2.11c5.46-4.81,7.21-13.67,9.34-22.22,1.79-7.13,3.87-14.25,4.54-20.73-2.59-.67-6.28.45-8.42.33-4.83,6.89-8.14,16.46-12,24.29C58.4,171.4,58.09,172.69,57.56,173.93Z"/><path class="cls-4" d="M75.52,197.51c.67-1.06,1.93-1.54,1.82-3-.06-.91-1.1-1.71-1.39-2.39a13.2,13.2,0,0,1-.56-6.17c.31-3.35,1.66-7.17,2.48-11,.38-1.8.82-3.6,1.25-5.43s.54-3.8.91-5.58c1.36-6.42,3.55-12.55,3-18.71-.63-.39-1.6,0-2.1.25-3,11.67-5,24.79-9.15,35.26-.59,1.47-1.75,2.92-2.11,4.33-.54,2.18.66,3.55.38,5.36.29.36.88.4,1,.94C72,194,73,196.52,75.52,197.51Z"/><path class="cls-3" d="M61,194.83a19,19,0,0,0,8.76-3.94,16.48,16.48,0,0,1-.5-4.54c-1.74,1.39-3.45,4-6.3,4.82a8.57,8.57,0,0,1-7-1,7.67,7.67,0,0,1-2.31-5c-.46-6.15,3.19-12.36,5.33-17,3.15-6.83,6.48-14.19,9.26-20.27a1.79,1.79,0,0,0,.9-1.82,1.28,1.28,0,0,0-1.77.39c-1.75,2.82-3.15,6.16-4.82,9.32s-2.83,6.41-4.49,9.48c-1.85,3.4-4.14,7.33-5.07,11.29-1.25.59-1.16,1.77-1.83,3-.8,1.49-1.67,2.52-1.6,4.79C49.79,191.92,54.79,195.53,61,194.83Z"/><path d="M172.81,143.41c-.15.27-.42.39-.64.19-.08,1.08-.34,2.11-.36,3.11-.05,1.78-.24,3.85,1,5.35C172.88,149.68,173.59,145.24,172.81,143.41Z"/><path d="M170,150.53c1.61-.45,1.34-4.4.76-5.41C169.43,146.06,170,149.18,170,150.53Z"/><path d="M110.28,149.49c.65.34.83,1.13,1.82.74C114.18,149.41,110.62,146.69,110.28,149.49Z"/><path d="M162.42,147.09c-.48-1.09-3-1-3.07.44C160.12,148.3,162.3,148.67,162.42,147.09Z"/><path d="M163.42,147.7c0,1.24,1.65,1.15,2.62.88C166.54,147,163.86,146.48,163.42,147.7Z"/><path d="M169.07,151.39a34.52,34.52,0,0,0,0-4.57C167.62,147.56,167.37,150.58,169.07,151.39Z"/><path d="M161.74,158.69c.1.76.4,2-.07,2.45.1,1.22.18,3.11.17,4.24s-.82,2.81.14,3.58c1.26-.55.81-2.08.84-3.3.1-4.3.48-9.25.27-13.71C160.81,153.75,162.63,155.91,161.74,158.69Z"/><path d="M160.37,152.71c0,.22-.28.16-.31.34.31,1-.16,2.32-.2,3.27-.09,2.18.07,4.78,0,7.18,0,.55-.23,1.16-.26,1.8,0,1.16-.33,3.84,1,4a84,84,0,0,0,.31-16.65Z"/><path d="M107.82,157.09a1.59,1.59,0,0,0-.06-1.63c-1.15-.51-2.35.31-1.72,1.54A2.48,2.48,0,0,0,107.82,157.09Z"/><path d="M42.94,173.37c1.32-.08,1.05-4.53,1.07-5.75,0-.86-.13-1.74-.11-2.77,0-2.45.8-5.58-.73-6.17-.72.37-.2,1-.58,1.82,0,.92.32,1.31-.08,2,.44.49-.14,1,.07,1.79a2.6,2.6,0,0,1-.1,1.64C43,168,41.72,173.44,42.94,173.37Z"/><path class="cls-5" d="M110.93,157.78a13.89,13.89,0,0,0-2.16,2.86c.84,6.34-.57,14.47.38,21.83l1.45-.05c.72-6.83,0-14.48.42-22.52C111.06,159.08,111.72,158.61,110.93,157.78Z"/><path d="M103.38,163.62a1.6,1.6,0,0,0-.23-1.62C100.74,161.58,101.57,164.7,103.38,163.62Z"/><path class="cls-5" d="M107.39,162.49a47.33,47.33,0,0,1-4.14,6.19c1.64,1.38,2.55,5.15.09,6.2-.66-.15-1.23-1.22-1.39-2.23,0-.22.21-1.62,0-1-.64-.2-1.36,1.17-1.54,2-.52,2.48.21,6.85.21,9.45,2.2-.26,5.14.17,6.79-.6C107.23,176.37,107.9,167.79,107.39,162.49Zm-3.92,19.88c-1.74-.15-1.9-5.37-.06-5.54S105.66,182.35,103.47,182.37Z"/><path d="M39.78,175.45c-.07-2.31.63-4.68-.27-6.84-1.6,1.74-.85,5.1-.69,7.21C39.43,176,39.27,175.39,39.78,175.45Z"/><path d="M97.46,169.9c4.25.58-.31-3.78,0,0Z"/><path d="M37.57,177c-.07-.78.74-3.54-.44-2.92,1.09,1-1.41,2.14-.37,3.12C37.23,177.32,37.18,177,37.57,177Z"/><path d="M35.7,174.8c-1.34.2-1.69,3.37-.65,4.27C36.26,178.3,35.73,176,35.7,174.8Z"/><path d="M40.13,184.57c0,1-.39,2.71.62,3.24.5-1.05.72-2.37,1.67-3,.6.13.61.91,1.49.75-.35-2.84-1-4-1.23-6.47.51.83,3.24,1,3.06-.61a2.51,2.51,0,0,0-2.46-.72c1.43-1,.77-4.44-1.25-2.72-.16.94,0,1.77-.22,2.62-.59-.4-2-.68-2.59-.06,0,.27,0,.54,0,.81a2.45,2.45,0,0,0,2.62.39c-.88,2.27-2.61,3.75-3.66,5.85C38.77,185.07,39.4,184.49,40.13,184.57ZM42,177.81c.38,0,.48.26,1,.13a1.41,1.41,0,0,0-.13,1C42.4,178.71,41.8,178.68,42,177.81Z"/><path d="M94.43,175.23c-1.19-.11-1.75.37-1.9,1.22C93.28,178.06,96.05,176.57,94.43,175.23Z"/><path class="cls-5" d="M98.16,183.4c.29-.42.57.13,1-.2-.2-2.33,0-5.11-.44-7.16a19.56,19.56,0,0,1-1.23,1.68C97.77,179.52,97.08,182.42,98.16,183.4Z"/><path class="cls-5" d="M93.79,183.74a4,4,0,0,0,2.58-.43,8.64,8.64,0,0,1-.26-2.6l-.49,0A13,13,0,0,0,93.79,183.74Z"/><path d="M161.32,181.05a2.58,2.58,0,0,0,.54-2.8c-1.6-.66-2.06.86-2,2.2C160.25,180.75,160.45,181.26,161.32,181.05Z"/><path d="M89.9,183.89c1.16-.84-.26-2.38-1.52-1.57,0,.39-.26.49-.12,1A1.53,1.53,0,0,0,89.9,183.89Z"/><path d="M30.43,189.2c2.13.48,2.52-2.17,1.17-3.15C30,186.42,29.86,188,30.43,189.2Z"/><path class="cls-5" d="M155.52,181.93c-.35.71.11,1.28.39,1.78.29.09.94-.23,1,.13-.86,2.35-3.89,3.48-5,5.09a9.73,9.73,0,0,1-4,1.79,1.39,1.39,0,0,0-1.63-.1A2.36,2.36,0,0,0,149,192.8c.45-.07.84-.62,1.27-.87a28.89,28.89,0,0,0,4.26-3.1c1.91-1.66,4.08-3,4.33-5.23C157.86,182.72,157.2,181.07,155.52,181.93Z"/><path class="cls-5" d="M48.53,187.66a3.88,3.88,0,0,0,.1-1.47c-1.44-.26-2.28,1.52-1.21,2.17C47.29,187.66,48,187.74,48.53,187.66Z"/><path d="M153.23,185.77c.13-.85.29-2.4-1.38-2.06.39.88.41,1.4.74,2.09Z"/><path class="cls-5" d="M45.06,190.24c0,.46.33.67.37,1.13,2.62.58,3.43,2.09,6.1,2.53-.33.37.06.35.5.31,2.95,2.29,7.44,4,11.73,5.4,3,1,6.41,2.35,9.32,1.91.21-1.16,1.32-1.49,1.35-2.82-.37-.28-.59-.72-1.16-.77-.15.28-.43.44-1,.36.28,3.36-2.84,1-4.13,2.45-.38-.43-1.12-.48-1.18-1.25-2.18.62-3-1.32-2.22-2.85-1.17-.09-1.93-1.53-3.44-.68L59.4,196c-5.46-.68-9-2.11-10-6.29-.9-.5-2.55-.17-3.9-.18C45.47,189.89,45.49,190.28,45.06,190.24Z"/><path d="M85.91,189.6c.07-1.16-1.91-1.41-1.94.24A1,1,0,0,0,85.91,189.6Z"/><path class="cls-5" d="M150.67,194.68c3.56-1.27,6.82-5.11,8.12-8-3.63,2.54-5.83,6.41-11.23,7.3C148.21,195.19,150,194.93,150.67,194.68Z"/><path class="cls-5" d="M43.3,194.88A8.33,8.33,0,0,1,48,193.72c-1.06-.25-2-1.7-3.63-1.81C44.17,193,42.82,193.75,43.3,194.88Z"/><path class="cls-5" d="M92.68,200.74a18.19,18.19,0,0,0,4.06,4.41c-.42-4.69.09-9.93-.71-14a12.72,12.72,0,0,0-6,.24c-.32,0-.31.23-.47.35-.44,3.14.06,7.61,2.26,7.89-1.1-1.56-.76-5.33,1.21-6.24C95,195.42,94.77,199.56,92.68,200.74Z"/><path class="cls-5" d="M99.27,207.65c-.15-5-.57-11-1-16.59l-.48,0c-.65,4.57.26,8.84.19,13C98,205.8,97.76,207.24,99.27,207.65Z"/><path class="cls-5" d="M109.07,217.54c-1.47-8.37-1.59-18.31-2.51-26.81l-1.14.05a14.43,14.43,0,0,0-5.34.21c-.39,1.86-.14,6.95.12,11.25s0,8.38,2.61,8.86c.74-.62.41-2.24,1.7-2.35,1.23,1.05,1.85,3.47.68,4.86A13.34,13.34,0,0,0,109.07,217.54ZM102,197.27c.51-1.14.67-2.61,1.65-3.32,1.7,1,2.35,4.38.55,5.69C102.68,199.64,102.77,198,102,197.27Zm2.66,9.85c-2.1-1-2.45-4.72-.4-6C106.15,202.32,106.32,205.32,104.61,207.12Z"/><path class="cls-5" d="M116,224.44c-1.54-9-3.54-17.51-4.13-26.74-.39-.32-.11-1.35-.24-2-.32-1.36-.2-3.47-.68-4.86-1.19.27-1.46-.45-2.61-.22-.69,3.62,0,7.5.28,11.24.52,6.08,1,12.3,2,17.53A28.76,28.76,0,0,0,116,224.44Z"/><path class="cls-4" d="M119.54,228.05c.61.62,1.1,1.52,1.54,1.9s1.19.53,1.66.91c1.51,1.2,2.78,3,4.52,3.73-2.79-13.81-5.56-29.87-5.94-43.79a28.71,28.71,0,0,0-8.75.18c.15.9-.14,1.73-.06,2.61.14,1.42.34,3.09.52,4.88.64,6.29,2.07,14.61,3.27,21.23C117,223.88,117.59,226.08,119.54,228.05Z"/><path class="cls-4" d="M88.25,195.37c.1-1.18.57-2.72-.29-3.25C87.5,192.77,87.12,195.12,88.25,195.37Z"/><path class="cls-4" d="M134.13,240.19c.61.3,1.07.85,1.65.58-6.14-14-9-31-10.4-49.81a3.8,3.8,0,0,0-2.28-.23.83.83,0,0,0-.47.5,29.75,29.75,0,0,0-.13,4.9A229.57,229.57,0,0,0,126,223.06c.65,3.05,1,6,1.64,8.58C128.77,236.3,130.71,238.5,134.13,240.19Z"/><path class="cls-5" d="M41.62,197.56c1.27,0,1.64-.88,2.38-1.4,3-.81,5-.29,6.08,1.88,1.48,3,.5,7.75,4.37,8.14,3.53.35,4.57-5,8.46-3.43.54.38,1,.86,1.51,1.24,1.33,1.72,1.13,5.1,3.31,5.9.54-1-.69-1.16-1-1.75-1-2.46-1.48-6.16-4.47-6.51-2.71-.31-3.88,2.22-6.21,3-1.14-.07-1.27.12-1.78.07-1.62-.3-2.36-1.7-2.73-3.31-.5-2.22-.77-4.54-2.17-5.79-1.15-.38-2-1.1-3.76-.82C44.22,195.69,42,195.74,41.62,197.56Z"/><path class="cls-5" d="M68.11,194.71c.31,0-.27-.59.13-.82-1.11.16,0,1.62.24,2,.62,0,1-.11,1.11-.54A3.23,3.23,0,0,1,68.11,194.71Z"/><path class="cls-5" d="M58.49,201.78c4.27-2.19,8,.08,8.76,4.05a1.82,1.82,0,0,0,1.1-.86c-.25-.53-.76-.76-.71-1.6.68-1.48,2.67-.33,3,.7.79,0,1-.59,1.25-1.19a97.2,97.2,0,0,1-21.23-7.64,13.39,13.39,0,0,1,2,6.12c1.52,0,1.26-1.36,1-2.65,1-1,2.29,0,2.79.7l1.94-.07c.47.5,1,1.37.41,2.1C58.46,201.27,58,201.73,58.49,201.78Z"/><path class="cls-5" d="M71.26,196.38c.34.08.48.38,1,.28-.59-.37-.25-.93-1-1.26-.6.23-.77.86-1.42,1,.53.85.2,2.62,1.25,2.89C71.68,198.38,70.24,196.72,71.26,196.38Z"/><path d="M79.67,195.72c0,.88.6,1.49,1.19,1.42C82.8,196.87,80.62,193.93,79.67,195.72Z"/><path class="cls-5" d="M67.36,196.21c-1.17.11-1.4,1.1-1.88,1.87C66.72,198.61,67.39,197.37,67.36,196.21Z"/><path class="cls-3" d="M116.93,227.5c-2.19-2.3-4.59-4.52-6.92-6.74-8.31-7.9-16.44-16.37-23.85-25-.16,0-.2-.12-.33-.15-.76,1.39-3.45,3.64-3.35,5.69,0,1,1.6,3.36,2.46,4.79,7.24,12,14.83,23,23.83,32.64,1,1.06,1.93,2.2,2.89,3.31,4,4.65,7.63,8.35,12,12.74,1,1,5.35,5.6,7,5.26,1.07-.22,1.17-2.4,2.3-3.19,1.75-1.22,3.36.23,5.19,0,1.43-.22,2.06-1.91,3-2.25,2.7-.25,3.88-1.93,6.05-2.68-4.58-4.81-10.81-7.36-15.85-11.44A146.15,146.15,0,0,1,116.93,227.5Z"/><path class="cls-5" d="M68,199.45c1.69.2.94-1.85,1.52-2.68C68.08,196.83,67.9,198,68,199.45Z"/><path class="cls-4" d="M111.86,197.7c-.13-.6.14-1.63-.24-2C111.75,196.35,111.47,197.38,111.86,197.7Z"/><path class="cls-5" d="M148.12,200.17c0-.82.91-.73.75-1.67-1,.13-1.32-.6-2.29-.56C146.87,198.93,147.23,199.83,148.12,200.17Z"/><path class="cls-4" d="M135.91,199c-.07,1.81-1,4.85.09,6.2C135.88,203.26,136.72,200.57,135.91,199Z"/><path d="M34.66,206c.38-.72.87-1.81.22-2.62-1.72-.3-1.85.94-1.69,2.35C33.7,206.12,33.85,206.15,34.66,206Z"/><path class="cls-5" d="M53.51,203c.31,1.24,2.71,1.12,2.92-.12C55.62,202,54.74,203.23,53.51,203Z"/><path d="M75.08,202.91c.19,0,.19.25.18.48a2.25,2.25,0,0,0,1.64.26C78.61,202.13,75.14,200.69,75.08,202.91Z"/><path class="cls-5" d="M38.29,203.56a1.57,1.57,0,0,0-.1,1.47c2,1.1,4.58,1.75,6.6,2.84.64.35,1,1,1.67,1.24,3.51,1.33,6.53,2.75,9.87,3.52,2.25.51,6.42,2.05,8.49,1.45-.56-.15.45-.07.14-.49-2.38-.09-2.95-1.11-5.4-1.09-1.07-1-3.19-.82-4.28-1.79-2.93-.2-4.53-1.86-7.23-2.32.44-.54-.34-.2-.67-.3a11.14,11.14,0,0,1-1.83-1.23c-1-.55-2.27-.69-3.29-1.17-1.28-.62-2.44-1.64-3.65-2.14Z"/><path d="M32.91,207.2a2.32,2.32,0,0,0,0-1.14,2.79,2.79,0,0,0-2.59.1C29.87,207.9,32.12,207.82,32.91,207.2Z"/><path class="cls-4" d="M77.12,238.22c.25-.4.66-.64.93-1,.09-1-.65-1.53-.9-2.25-1.18-3.35-.61-8.29-.1-10.92,1.25-6.49,3.07-13.94,3.91-20.21l-.49,0a4.72,4.72,0,0,1-1.23,1.68c-2,9-3.07,18.8-7.59,25.41-.58.56-1.39.91-1.72,1.7.29.54.21,1.47.87,1.6,1.92.19,2.07-2,3.51-1.77C74.77,234.89,75.32,237.23,77.12,238.22Z"/><path class="cls-5" d="M69.24,207.06c-.28-.14-.34-.53-.67-.63-.74.25-.77,2.22.23,1.62C68.48,207.89,69.38,207.56,69.24,207.06Z"/><path d="M72.75,209.69a1.37,1.37,0,0,0-1.94.08A1,1,0,1,0,72.75,209.69Z"/><path class="cls-5" d="M58.76,221c.47,0,1.43.34,1.76-.72-5-.56-8.88-3.07-13.3-4,.46-.48-.4-.28-.82-.29-3.48-2-7.85-3-11.23-5.1,0,.46-.53.34-.28,1a2.43,2.43,0,0,0,2.16,1.39,32.7,32.7,0,0,0,5.47,2.87c.72.25,1.33,0,1.79.26a85.22,85.22,0,0,0,11,3.8A19.28,19.28,0,0,0,58.76,221Z"/><path class="cls-4" d="M73.1,226.64c.59-1.48.71-3.45,1.25-5.27,1-3.51,2.38-7.35,2.64-11.2l-.49,0c-1.2,1.28-1.52,2.4-2.75,4.18-2,2.91-3.54,3.71-2.45,7.76-1.8,1.16-2.11,3.7-3.69,5-.78-3.08,3-3.74,2.5-6.62-1.79,1.22-2.67,3.28-3.69,5.2,1.29,1.15,1.28,5,3,5.27C70.77,231.21,72.6,227.88,73.1,226.64Z"/><path class="cls-4" d="M83.89,228.82c1.61-2,2.14-4.91,2.59-8.26.41-3,1-6.81.31-8.82l-.49,0c-.65,3.83-1.21,8.07-2,12C84,225.44,83.29,227.25,83.89,228.82Z"/><path class="cls-5" d="M153.06,218.4c-.53,2,1.23,5.38.46,7.64-2.05.65-4,1.39-5.91,2.2,0,2.63,1.08,5,.78,7.47-1.85,1-4.57,1.29-6.22,2.52.2,2.87,1.51,5.33,1.29,8.11,2.89-1.33.89-4.21.68-7.37,1.4-1,4.46-1.27,6.23-2.37.2-2.18-.88-3.88-.91-6.64,1.5-1.33,4.17-1.57,6.23-2.37.24-2.38-.59-5-.62-7.64,1.7-1.18,4.4-1,5.41-2.5-1-2.4-.28-6.45-3-6.57.43,1.94.53,3.2.85,5.19C157.1,217.34,154.86,217.66,153.06,218.4Z"/><path d="M66.71,216.78a1.78,1.78,0,0,0,1.78.09C69.51,215,66.08,214.62,66.71,216.78Z"/><path class="cls-4" d="M88.36,214.61c-.21,1.6-.88,4.4-.43,5.57C88.87,218.9,90.35,215.88,88.36,214.61Z"/><path class="cls-4" d="M167,215.07c-2.3,4.5-4.44,9.16-6.76,13.64-2.46,3.4-4.08,7.25-6.39,10.69s-5.1,6.44-7.06,10.07c3.49,3.75,9.23,1.39,12.13-.81,2.56-1.95,5.49-5,5.84-8.07,1.94-2.33,4.08-4.46,6.06-6.76,6.27-5.45,13-10.12,12.63-21.05-.4,0-.51-.24-.82-.29C178.58,214.86,172.49,217.41,167,215.07Z"/><path d="M141.3,216.42a3.1,3.1,0,0,0,.09-2l-.49,0C141.17,215.35,140.4,216.29,141.3,216.42Z"/><path class="cls-5" d="M154.77,232.84c-2.62,4.57-5.87,8.38-8.28,12.4-1,.65-2.68,2.44-1.17,3.15,3-2.15,4.27-6,7-8.44,0-.5.49-.48.27-1.15,4.8-6.08,8.74-14.51,12.46-21.53-.22-1.25.67-1.47.71-2.47-.69,0-.57-.7-1.49-.76h-.32c-1.46,2.64-2.6,5.58-4,8.48C158.15,226,156.61,229.64,154.77,232.84Z"/><path class="cls-3" d="M79.68,245.62c6.45-6.5,9.33-17.14,12.47-25.45a5.31,5.31,0,0,0-1.07-2.4l-.49,0c-1.68,2.8-2.64,6.23-4.17,9.29-2.92,5.85-7.69,12.3-12.34,16.15-2.43,2-5,2-7.65,3.57,0,.73.66.87.86,1.1a10.53,10.53,0,0,0,1.85,1.73c.62.43,1.51,1.07,1.83,1.23,2.37,1.21,3.68-1,5.26-2.33C77.46,247.45,78.8,246.51,79.68,245.62Z"/><path class="cls-4" d="M56.05,222.1c-.21-1-1.35-.64-2.15-.9-1.61-.51-3.14-1.8-4.59-1.44-.13,0-.19.14-.15.33,1.39,2.13,2.41,4.63,3.83,6.7a10.35,10.35,0,0,0,2.37,2.52A3,3,0,0,0,56,228c-1.12-2.14-4.05-4.08-3.67-6.71C53.73,221.34,54.46,222.19,56.05,222.1Z"/><path class="cls-4" d="M57.17,225.8a4.19,4.19,0,0,0,2-2.85,2.27,2.27,0,0,0-2.31-.88C57.75,223,56.78,224.87,57.17,225.8Z"/><path d="M63,222.14c-1.53.75-.16,2.22,1,1.59a3,3,0,0,0,.11-1.3A3.2,3.2,0,0,0,63,222.14Z"/><path class="cls-3" d="M88.72,248.52c2.14-4.6,4.74-10.72,6.66-16.25.63-1.82,2-4.37,1.71-5.94-.13-.82-1.27-1.89-1.88-2.69A7.32,7.32,0,0,0,93,221.28h-.32c-3.57,12.16-7.94,23.59-17.46,30.21.8.73,1.54.4,2.62.71,2,.57,4.36,2.6,5.93,2.37,1-.13,2.18-1.81,2.82-2.72C87.4,250.7,87.64,249.24,88.72,248.52Z"/><path class="cls-5" d="M65.34,227.27c0,.31-.17.37-.14.66,1.74,2.4,2.53,5.85,4.53,8A30.73,30.73,0,0,0,65.34,227.27Z"/><path d="M57.83,230.18a1.29,1.29,0,0,0,2.12.24A1.07,1.07,0,1,0,57.83,230.18Z"/><path class="cls-5" d="M64,229.28c-.23.6.63.88.82.46-.19,0-.18-.25-.18-.48Z"/><path class="cls-5" d="M102.06,233.15c-1.38-1.32-2.35-3.45-4.07-4.57-1.73,4.06-3,8.67-4.68,13.07,1.84.34,5.13-.26,6.49.07.77,0,1.27.15,1.62-.23a8.52,8.52,0,0,1,2.27.08c1.83,0,5.09,0,5.09-.33,0-.06-.24-.14-.24-.19-1.64-1.82-3.25-4.17-4.61-5.85-.77,0-.27,1.11-1.1,1C100.67,236.72,100.85,233.62,102.06,233.15Zm1.34,5.16c.93-1,2.86-.5,2.5,1.7C104.68,241.3,102.67,240.54,103.4,238.31ZM98,240.65a2.48,2.48,0,0,1-2.43.1c-.33-1.79-.38-3,1.84-2.69A2.87,2.87,0,0,1,98,240.65Zm-.67-4.7a2.52,2.52,0,0,1,.4-2.14C101.21,232.94,99.26,238,97.31,236Zm4.55,4.54c-.85-.16-1,.31-1.6.4s-.4-.48-.83-.46C98.19,236.91,103.37,237.39,101.86,240.49Z"/><path class="cls-5" d="M69.16,237.88a16.84,16.84,0,0,1-1.4-2.55c-.54.22-.33,1.15-1.26,1-.25-.06-.15-.51-.66-.3.26-.28-.17-.68,0-1.31.39-.21,1-.17,1.11-.69A18.79,18.79,0,0,0,65,230.54a41.82,41.82,0,0,0-.08,6.37A15.4,15.4,0,0,0,69.16,237.88Z"/><path class="cls-4" d="M71,235.69c0,2.69-.61,5.42-.19,7.67,2.53-.59,3.66-2.46,5-4.12-1.18-1.37-1.57-3.6-2.94-4.77C72.66,235.23,71.71,235.34,71,235.69Z"/><path class="cls-5" d="M69.2,242.94c-.15.14-.31,1.05,0,1.14C69.5,243.87,69.79,243,69.2,242.94Z"/><path class="cls-4" d="M108.91,246.41c4.78,4.75,9.2,9.91,14.82,13.76,1.44.09,2-.43,2.9-.44-5.81-5.56-11.51-11.25-16.9-17.27-5.94-.57-10.81.62-16.69.34a8.24,8.24,0,0,0-2,3c-1.43,3-2.82,5.82-4.21,8.32,1.63,1.38,2.7.25,3.52-1.12,1.17-2,2.52-4.8,3.66-6C98.72,246.25,103,246.89,108.91,246.41Z"/><path d="M96,285.25l-.48,0c-.48,5.27-7.66,4.88-12.8,4.59-.48-.28-.69-.84-1.33-.93,0,2.7,4.57,2.09,6.11,2.69C90.87,290.64,97.12,289.32,96,285.25Z"/><path class="cls-4" d="M92.82,299.24c-3.23.43-7.61,0-10.18.73-1.45.43-3.86,3.74-3.53,5.19,1-.38,1.31-1.33,2-2.36.47-.7,1.42-2.59,2-2.53,1,.12-.43,2.39-.7,2.81-.7,1.11-1.52,1.63-1.67,2.84,2.45-.92,2.26-4.29,4.83-5.09-.31,2.58-2.4,3.52-3,5.83,1.34,0,1.41-1.47,1.87-2.2a25,25,0,0,1,2.47-3c.24.08.83-.22.82.13-.78,2.31-2.73,3.54-3.33,6,2.31-.84,2.44-5,5.27-5.92-.42,2.89-2.79,4-3.46,6.66,1.25-.54,1.84-2,2.63-3.2s1.24-2.93,2.81-2.72c-.53,2.69-3.25,4.19-3.47,6.66,1.94-1.66,2.79-4.32,4.46-6.21.29.08,1-.24,1,.12-.49,2.26-2.23,3.37-2.86,5.5-.65-.1-1,1-.44,1.16,1.18-1.41,1.88-3.28,3.23-4.53.39-.9.74-1.82,1.86-2,0,3-2.91,4.51-3.6,7.33,2.5-1.7,2.78-5.48,5.73-6.76-.14,2.35-2.5,3.94-3.15,6.32,2.16-1.23,2.61-5.23,5.14-5.42-.46,2-2.08,2.88-2.4,5,8.18-1,16.31-2,24.54-2.94a61.92,61.92,0,0,1,15-14c-2.37-1.67-3.88-4.27-6.55-5.62a70.8,70.8,0,0,1-29.24,11.28C97.78,298.69,95.85,298.83,92.82,299.24Zm10.5,7.08c-.69.45-.57,1.66-2,1.39C101.45,306.85,102.65,304.77,103.32,306.32Zm-4.93,2.48c-.14-1.44,1.57-2.38,2.13-3.68l.81,0C100.82,306.76,100.37,308.49,98.39,308.8Z"/><path d="M98.39,308.8c2-.31,2.43-2,2.94-3.71l-.81,0C100,306.42,98.25,307.37,98.39,308.8Z"/><path d="M103.32,306.32c-.67-1.56-1.88.53-2,1.39C102.75,308,102.63,306.77,103.32,306.32Z"/><path class="cls-3" d="M128.92,79a31.59,31.59,0,0,0-7,7.29c-.14.22,0,.59-.14.82-.49.94-1.35,1.68-1.83,2.68s-.92,2.08-1.34,3.16c-1.57,4-2.84,6.22-4.14,10.11-.83,2.48-2,4.86.24,6,2.58-4.88,4.79-10.09,7.52-14.82,5-5.52,8.8-12.11,17.61-14.07-1.26-2.54-4.33-4-6.67-4.79-1,.46-2.36,2-3.79,2.6C129.48,78.54,128.88,78.45,128.92,79Z"/><path class="cls-5" d="M56.06,86.42c.24-.29.32-.75.94-.69,0-1.25,1.27-2.09,2-3.18a36.51,36.51,0,0,1,2.3-3.35c-.37-.22-.5-.71-1-.78-3.46,4.67-7.42,8.89-10,14.42-1.34.79-1.67,2.75-2.44,4-1.14,1.87-2.73,3.27-3.18,5.68A28.92,28.92,0,0,0,40.36,112a2.69,2.69,0,0,0,1.65.59c0-.76.93-1.42.73-1.82,0,.09-.12.19-.16,0,1.61-3,2.63-5.68,4-8.8C50,97,52.23,91,56.06,86.42Z"/><path class="cls-5" d="M136.77,89.07c.78.52.83,1.82,1.71,2.22.29-1.89,2.85-.14,1.34.92-.33.11-1.07-.15-1.13.21.7,1,1.71,3.16,2.59,4a7.17,7.17,0,0,1-.25-2.28.73.73,0,0,1-.67-.62c.73-.73.87-2,.66-3.62-1.27-.43-2.58-.81-3.94-1.15C136.91,88.78,136.84,88.93,136.77,89.07Z"/><path class="cls-4" d="M123.24,116c.69-.87.15-2.89,1.33-3.31a6.5,6.5,0,0,1-.21,2.94c.87-.59.57-1.67.85-3,.77-3.53,2.08-8.91,2.75-12.67.54-3,.72-7.37-1.32-8.75-1.19.47-1.51,1.73-2.33,2.54-.82,5.88-3,11.33-2.88,17.56.4-.2-.27-1.4.6-1.16.73,1.1-.4,2.58.3,3.25-.2-.92.25-1.23.58-1.65C123.8,113,122.65,114.71,123.24,116Z"/><path class="cls-5" d="M89.46,102.7c1.8,10.78,3.69,21.46,4.56,33.25.82.05,2.16.29,2.91-.12-.31-8.42-1-19.6-2.23-27.8A27.52,27.52,0,0,0,89.46,102.7Z"/><path class="cls-5" d="M169.47,116.15c-2.76-2.38-7.11-3-10.41-4.81-4.66-1.65-9.63-3.42-14.95-5-.65,1.44-2,2.27-2.11,4.16,7,1.28,13,3.7,19.05,6.09a1.15,1.15,0,0,0,.15-.33,11.2,11.2,0,0,1-2-2.52,4.05,4.05,0,0,1,5.77,2.21c-.5-.1-.18.57-.8.36.17-.24-.65-.56-1-.13-1.94.08-3.6,0-1.91.54,2.28,1.08,4.11,2.5,6.91,3C168.45,118.44,169.26,117.57,169.47,116.15ZM150,112a8.39,8.39,0,0,0-2-1.88c1.53-2.27,5.75-.6,5.58,1.74Z"/><path class="cls-5" d="M166,123.46c-.2-.7-1.92-.9-2.32-1.21-.08-.06.19-.31.15-.34-.22-.1-.59.13-.81,0s-.3-.5-.52-.63a27.74,27.74,0,0,0-4.11-1.46c-.73-.25-1.45-.92-2.16-1.22-.37-.16-.84-.11-1.31-.28-1.74-.61-3.61-2.07-5.12-2.4-.32-.07-.81.15-1.14,0-.05,0,.17-.33.15-.34-.2-.07-.6.14-1,0s-.57-.6-.67-.63c-.41-.1-.86.13-1.3.06-1.4-.23-2.79-1.31-4.26-1.14.1-.34-1.72-.79-2.28-.4.08.46-1.23,1-1.06,2,1.61,1.33,3.14,8.85,4.88,4.54-1.34.12-2.9-1.13-1.71-2.22.55,0,1.13,0,1.28-.37-.35-2,2.93-2.33,2.62.54a2.27,2.27,0,0,1,1.81.75,1.39,1.39,0,0,1-.59,1.49c-.88.17-1-.54-2-.25,0,.27,0,.54,0,.81,1.94,1,2.3-1.08,3.82-1.61s2.11-.11,3.91.17c1.87,1.3,2.55,4.41,3.48,6.22.38-.07.6-.28,1.13-.21-.35-1-1.33-1-1-2.08.33-1.28,2.45-1,3.08,0,2.2-1.73,4.28,1.77,1.55,2.22.25,2-.05,2.49-1.68,2.68-.08-.42-1.5-.71-1.37-1.9a2.13,2.13,0,0,1-1.61.39c.5,2.48,3.11,3.1,5.11,2.08.65-.33,2.64-1.4,3.18-1.76A5.23,5.23,0,0,0,166,123.46Z"/><path class="cls-5" d="M162.26,184.27c-2.32,2.45-3.64,5.83-6.34,7.92,0,.18-.22.26,0,.32.05-.25.19,0,0,.17-1.39.77-3.24,2.68-5.55,3.15-2.15.45-3.41-.29-4.91-1.11a5,5,0,0,0,6.09,2.21c1.92-.87,4.19-3.13,5.35-4.29a40.65,40.65,0,0,0,4.36-4.58,64.83,64.83,0,0,0,6.08-10.19c1.66-3.57,4-8.39,5.51-12.61.34-1,.34-2.07.69-3.13s.9-1.87,1.19-2.81c1-3.31,1.93-6.47,2.85-9.9a43.2,43.2,0,0,1,2-6.77c.59-3.12.92-5.59,1.76-8.87.57-2.24.83-4.33,1.2-6.57.6-3.61,2.85-13-1.23-14.8,0,.17,0,.33,0,.49.52,2.65-.27,7.63-.09,9.95-.76,1.17-.42,2.55-.65,4.1a220.25,220.25,0,0,1-10.7,41.36C167.53,174.09,164.57,178.75,162.26,184.27Z"/><path class="cls-5" d="M163.3,128.46c-1.49,1.36-2.88,1.94-5.76,1.86-.88-.73-1.58-.87-2.18-1.71-1.16-1.62-.92-4.26-1.7-6.13-.44-1-1.79-2.55-3-2.65-3.85-.31-3.66,4.66-8.77,3.61-1.14-.91-2.37-1.72-2.58-3.65-.06-.33-.61-.13-.66-.46a2.29,2.29,0,0,0-1.24-2.56c.05.31-.17.37-.14.66,1.76.82,1.19,4,2.65,5.44.29.29.87.16,1.31.43.83.52.73,1.14,1.51,1.25,3.29.47,4.51-3.71,8-3.26,3.9.51,2.21,8,5.9,9.72,1.51.71,3.79.13,5-.53C162.27,130.12,163.56,129.21,163.3,128.46Z"/><path class="cls-5" d="M107.22,121.24c-.1-.72-.35-2.1-1.21-1.91-.18,0-.26-.23-.32,0,.37,3.27.51,8.9.68,13.18,0,1-.35,2.66.77,3.07.69-2.05.13-4.92,0-7.66C107.08,125.65,107.49,123,107.22,121.24Z"/><path class="cls-5" d="M18.81,174.33c.21-1.07.73-2.08,1-3.14,1.71-6.32,3.46-12.55,5-18.13a36.84,36.84,0,0,1,1.62-4.31c1.27-3.11,2.23-6.37,3.7-8.95A40.64,40.64,0,0,1,40,128.47a33.44,33.44,0,0,1,13.85-6.74c-.26,0-.14-.41-.5-.31a5.48,5.48,0,0,0-3.24.13c-2,.21-3.44,1.33-5,1.5-2,1.92-4.68,3.18-7.28,4.53A60.07,60.07,0,0,1,33,131.85c-5.46,7.69-8.36,16-11.3,26.06-.76,2.58-1.8,5.17-2,7.58a14.12,14.12,0,0,0-1.31,3.8c-.33,1.3-.83,2.52-1.15,3.8-.55,2.19-.87,4.51-1.35,6.9-.93,4.66-2.83,9.39-2.86,13.65,0,1.46-.08,2.35.93,3.06.69-5.31,1.9-9.78,2.84-14.3C17.44,179.57,18.22,177.25,18.81,174.33Z"/><path class="cls-5" d="M157.16,194.91c-1.26.34-1.63,1.52-3,1.75.23.6,1.33.26,1.19,1.26-.12.47-.87.35-1.44.39-.45-.37.19-1.41-.38-1.29-.87.24-1.32.86-2.23,1.06.65.63,2.65,1,3.93.82a7.89,7.89,0,0,1,2.12-3.67c2-.23,3,.37,5.21.28a13.56,13.56,0,0,0,.47-4.58c1.56-1.49,4.17-.86,6.41-1.89-.08-2.27,0-3.45-.24-6,1.14-2,5.26-1.83,5.52-4,.22-1.74-1.25-3.4-1.36-5.65.42-.33.83-1,1.25-1.36,1-.73,2.93-1.23,3.32-2.25.48-1.27-1.78-5-1.71-6.29a11.26,11.26,0,0,1,2.65-2.71c1.63-1.49,2-1.67,1.31-3.64a21.75,21.75,0,0,1-1.11-3.55c1.15-2,2.81-2.61,4.53-4.42.2-2.41-1.94-5.4-1.57-7.11s2.92-1.68,3.75-3.41c-.15-2.24-1.42-4.36-2.05-6.93,1.09-1.5,3.17-2.08,4.24-3.6.11-2-2.74-4.52-2.19-6.11.4-1.14,2.13-.86,2-2.36-.17-.27-.68-.3-.35-.64-1.15.16-1.17-.07-1.64-.42s.44-2.17-.57-2.1h-.33c0,.17,0,.33,0,.49-1,9.33-2.1,16.79-4.1,23.49C176,160.88,170.38,180.28,157.16,194.91Zm3-1.1c-.7-1.15.83-2,1.57-1.36C162.1,193.69,161.34,193.93,160.2,193.81Zm5.91-6.43c-.84-1.27.55-2.46,1.56-1.53C167.9,187.06,167.2,187.4,166.11,187.38Zm6-8.39a2.4,2.4,0,0,1-1.8-.26c.22-.79.47-1.55,1.73-1.37A2.19,2.19,0,0,1,172.11,179Zm3.36-9.43c-.06.37-.8.09-1.13.2.17-.2.13-.34-.18-.31-.2-1.12.43-1.49,1.57-1.37,0,.43,0,.87.05,1.31C175.47,169.33,175.2,169.52,175.47,169.56Zm1.87-10c-.57-1,.2-1.59.73-2C179.53,157.72,179.32,160,177.34,159.54Zm7.48-32.43a6.6,6.6,0,0,1,1-.52c.48.09.57.62.53,1.28l-1.29,0C185.07,127.53,184.71,127.58,184.82,127.11Zm-.27,9.64c0,.72.26.8,0,1.3a2.16,2.16,0,0,1-1.63-.26C183,136.65,183.44,136.66,184.55,136.75Zm-3.07,12.51c-.85.13-1.32-.15-1.49-.76.13-.66.71-.9,1.59-.88A1.51,1.51,0,0,1,181.48,149.26Z"/><path class="cls-5" d="M96.23,109.77c1.15,8.2,1.41,17.37,2.16,26a21.86,21.86,0,0,0,6.65-.1,139.65,139.65,0,0,0-.9-18.56c-.63-.39-.93-1.13-1.83-1.23a10.45,10.45,0,0,1-1.53,2.35c-1.72-1-1.54-3.79-1.19-5.5C98.27,112,98.05,110.44,96.23,109.77ZM102,132.53l-1.13.05a6.08,6.08,0,0,0-1.4-2.56c.48-1,.37-3.27,1.82-3.17C103,127,103.34,131.35,102,132.53Zm-1.3-12.5c2.2.75,1.84,4,.53,5.36C98.77,125.16,98.58,120.76,100.69,120Z"/><path class="cls-5" d="M145.63,124.6c0,.51-.93.17-1.11.53a16.54,16.54,0,0,0-2.11.09c-3-.22-4.2-2.33-5-4.86.1.57-.79.22-.79.69,1.49,2.85-1.79,3.11-2.55,1.08a4,4,0,0,0-.92,1.34c4,.45,9.32,2.94,12.78,3.4a55.08,55.08,0,0,0,8.59,3.9,12.47,12.47,0,0,1-2.19-6.11c-.75,0-.68.73-1.43.71.13.66.77,1.74.09,2.28l-1.62.06c0-.48-.39-.48-.37-1-1.73.33-3.43-.2-3-1.68C148,123.68,146,124.49,145.63,124.6Z"/><circle cx="21.57" cy="188.36" r="1.55"/><circle cx="20.02" cy="198.4" r="1.55"/><path class="cls-5" d="M48.58,131.4a7.52,7.52,0,0,0,2.52-1.9.86.86,0,0,1-.69-.95c-.92.55-1,1.92-1.84,2.52-2.18.34-3.42-.35-5.52-.1-.58,1.33.19,4.19-1.09,5.25-2.09,0-3.27.84-5.32.87-.66,1.76.13,4.7-.07,6.53-1.73,1.1-3.7,2-5.39,3.15-.08,2.58,1,3.95,1.22,6.14-1.16,1.7-3.95,1.88-4.54,4.1.24.2-1.38,2.74.37,1.29.24,1.67,1,2.74,1.15,4.52A36.94,36.94,0,0,1,25,166.91c.25,2.7,1.32,3.48,1.54,6.13a37.88,37.88,0,0,0-4.39,3.77c.31,2.73,1.2,4.36,1.43,7.44-1.09,1.18-2.66,1.92-3.77,3.09.62,2.08,1.4,4.28,2.21,6.76-1.13,1.46-3,2.25-4.4,3.44.56,2.33,1.77,3.85,2,6.11-.51.78-1.42,1.19-1.87,2,.06,1.51,1.35.66,2,1.56-.53,1,.08,2.42.74,2.41,1.08-16.76,6.42-33.24,11.05-49C36.32,149.81,41,139.06,48.58,131.4Zm-3,1.26c0,.38,0,.76,0,1.14-.6,0-.61.58-1.44.38.05-.28-.14-.3-.33-.31C43.48,132.68,44.7,132.24,45.55,132.66Zm-5.85,7.9-1.46.05C37.11,138.48,41,138.47,39.7,140.56Zm-4.44,6.7c.35,1.51-.91,2-1.89,1.38,0-.38,0-.76,0-1.14C33.87,147.15,34.68,146.73,35.26,147.26Zm-16,51.84c-.54-.89.05-1.6,1.24-1.36,0,.44,0,.87.05,1.31Zm3.18-9.91c-2.39.53-1.49-1.91-.23-1.62C22.68,187.83,22.67,188.69,22.48,189.19Zm3-10.88c-.88.11-1.65.1-1.8-.58.41-.78.57-1,1.58-1C25.66,177,25.65,177.8,25.45,178.31ZM28,168.42c-.87.22-1.11-.26-1.48-.59-.05-1,.56-1.47,1.73-1.38A1.81,1.81,0,0,1,28,168.42Zm2-10.19c0-.28-.14-.3-.33-.31,0-.73.29-1.45,1.57-1.37A1.08,1.08,0,0,1,30,158.23Z"/><path class="cls-5" d="M27,158.84a24.06,24.06,0,0,1-.28-2.93c.95-1.77,4.22-1.67,4.56-3.6s-1.86-3.44-1.36-5.81c1.61-1.54,4.11-2.25,5.68-3.82a22.28,22.28,0,0,1-.23-5.86c1.58-1,4.31-1,6.26-1.72.14-1.91,0-4.38.77-5.25,1.67-.44,3.94.6,5.52.27,1.19-1.12.9-3.59,2.44-4s3.13,1.22,5.23.94c.53-.58,1.57-1.43,1-2.49-.87-.08-.6.91-1.26,1-2.27.26-3.57-.54-5.38-.77-1.18,1.26-1.44,3.38-2.91,4.36a24.91,24.91,0,0,0-5.69-.42c-.79,1.42-.39,3.93-1.26,5.27-1.64.93-4.53.7-5.93,1.86-.46,1.79.06,4.29-.23,6.54-1.68,1.31-4.05,2-5.37,3.63,0,1.81,1,3.85,1.21,6-1.41,1.53-2.79,2.12-4.41,3.44.35,2.76,1.42,4,1.58,7.11A27.4,27.4,0,0,1,23,165.85c.66.8-.44.31-.62.84.46,1.93,2,3.94,1.53,5.81-1.67,1.63-2.82,2.09-4.08,3.75.06,2,1.93,5.06,1.26,7.13a8.63,8.63,0,0,0-3.92,3.42c.29,2.57,2.22,4.1,2,6.11-.15,1.62-3.28,2-4.07,3.75.59,2.47,1.46,3.7,2.34,6-.11.74-.9.83-.74,1.82,3.8-.94-.44-4.53-.29-7.17.94-1.85,3.63-1.87,4.08-3.58a8.61,8.61,0,0,0-.59-2.59c-.47-1.22-1.47-2.4-1.45-4,.93-1.54,3.12-1.92,4.08-3.43-.33-2.42-1.45-4-1.59-7.27.55-1.43,4.34-2.77,4.54-4.26.23-1.72-2.11-3.23-1.67-5.32.29-1.38,3.68-3,4.37-4.25A31.91,31.91,0,0,0,27.12,159C27.82,159,29,156.69,27,158.84Z"/><path class="cls-5" d="M186.92,122.63c.68,2.2,1.87,3.28,2.18,6.11a42.94,42.94,0,0,1-3.94,2.93c.56.15-.45.07-.14.49.1,2.19,2.42,4.49,1.76,7.43a15.8,15.8,0,0,0-3.79,2.6c.39,2.8,1.72,4.48,1.74,7.27-1.17,1.84-3.32,2.77-4.69,4.43.66,1.88,1.61,3.44,1.85,5.8a48.38,48.38,0,0,1-4.4,3.76c.22,2.28,1.53,3.86,1.57,6.79-1.19,1.41-3.61,2.13-4.41,3.43,0,2,1.26,4,1.22,6.15a26.47,26.47,0,0,1-5.4,3.15c-.95,1.92,1.15,5.45-.37,6.86-1.11,1-4,.49-5.79,1.21-.62,1.85,0,4-.92,5.58-1.62,0-3.59-.48-5.69-.42-.59,1.44-1,3-2.12,4-1.84,0-3.6-.75-5.71-.92-.18.91-1.28,1.51-.87,2.48,1.11-.07,1-.87,1.9-1,1.6-.34,3.31,1.11,5.22.77.78-1.23,1.19-3.74,2.6-4.18,1.76-.55,4,.67,5.69.42.94-1.41.38-3.71,1.25-5.43,1.61-.75,3.91-.86,5.78-1.37.69-1.61.25-4.26.23-6.53,1.26-1.9,3.85-2.07,5.36-4,.48-2.27-.95-3.94-1.05-6.15.91-1.82,3.52-2.07,4.55-3.77-.71-2.38-1.33-4.38-1.88-6.61,1.3-1.61,3.16-2.71,4.7-4.1,0-2.13-2-3.68-1.68-5.64.3-1.78,3.78-2.81,4.37-4.25.15-1.73-2.14-4.72-1.56-6.63.53-1.71,3.7-2.17,4.06-4.07.25-1.33-1.71-4.41-2.17-5.62.32-2.53,3.3-2.59,4.2-4.58-.74-2.25-1.77-3.87-2.5-5.77.24-.86.93-1.39.57-2C187.66,121.33,187.32,122,186.92,122.63Z"/><path class="cls-5" d="M54.92,131.8a13.52,13.52,0,0,0-5.21,3.47A11.74,11.74,0,0,0,47,139.78c3.14-2.87,6.17-6.57,10.9-7.44C57.5,131.37,55.54,131.65,54.92,131.8Z"/><path class="cls-5" d="M173.94,192.62c.1,0,.19,0,.16-.18.17-.36,1-1,.91-1.5.56-1.2,2.28-2.88,2.25-4.65.67-.28,1-1.37,1.37-2.34,1.15-2.78,2.73-6.08,3.54-8.79.93-3.08,1.33-5.22,2-7.74.24-.92.78-1.65,1-2.49.54-1.74.61-3.6,1.08-5.42.59-2.25,1.61-4.39,2.18-6.61.78-3.11,1.87-8.65,2.76-12.18.52-2.07.54-5.06,1-7.54.26-1.4.9-3.05-.49-4.22-2.15,10.35-4.19,21.91-7.65,32.27.07,2.38-1.34,4.7-1.66,7.24-.45.23-.32.59-.44,1.16A77.28,77.28,0,0,1,177.42,182c-.17,1.65-1.19,3-1.94,4.32s-1.31,2.8-2.11,4-3,2.85-4.19,4.73c-.7,1.14-2.37,1.88-3.46,2.75-1.33,1-2.23,2.23-3.62,2.75a27.37,27.37,0,0,0-2.55,1.4c-1,.47-2.73,1-2.86,1.42-1.79.22-3,1-4.82,1.17,1.41,1.42,4.32,0,6-.24a7,7,0,0,0,2.39-1.07c1.88-1.1,3.65-2.45,5.07-3.14.88-.07,1.56-.64,1.58-1,1-.72,1.53-.59,2.53-1.56C171.71,196.9,173.53,193.55,173.94,192.62Z"/><path d="M161.77,151.35a3.06,3.06,0,0,0,1.29-.21c.25-.7.54-2.36-.11-2.93C161.34,148.13,160.77,150.43,161.77,151.35Z"/><path d="M178.07,157.55c-.53.41-1.3,1-.73,2C179.32,160,179.53,157.72,178.07,157.55Z"/><path class="cls-5" d="M70.2,194.14c-.07.52-.69.51-.77,1C70.33,195.16,70.2,194.35,70.2,194.14Z"/><path class="cls-4" d="M138.94,230.54c1-3.46,2.95-6.81,4.3-10.28a101.48,101.48,0,0,1,4.8-10,19.66,19.66,0,0,0,2.22-5.47,1.66,1.66,0,0,0-1.64-.42c-.41-.23-.27-1.07-.7-1.27-.09.6.27,1.61-.09,1.95-1.24.28-.73-1.35-.9-2.24-1,.64,0,2.93-.67,3.45-1-1-.26-4-1-5.34-.6,1.88.61,4.53-.42,5.88-.69-1.13-.63-3.94-.7-5.19-1.15,1.18.43,4.89-.73,6.07-.75-1.62-.21-4.34-.87-5.68-.48,1.39.35,4-.62,4.92-.2-.53-.11-1.61-.58-2.26-1.77,1.9,2.24,3,.67,4.54-2.56-1.07-3.19-4.79-1.42-7.12a7,7,0,0,0-2,1.71,16.09,16.09,0,0,0-2.58,4.51c1.25.14.29,1.62.59,2.75.68-.32.08-1.82,1.07-1.84a39.24,39.24,0,0,1-.26,10c-1-.34-.19-2.66-.93-2.9a38.13,38.13,0,0,1-.31,4.41c-.62.21-.59-.55-1-.12-.48,1.8.65,5.09-.56,6.22-1.07-3.52-.74-7.15-.61-11.23s-.06-8.09,1.72-10c-.24,0-.59.08-.65-.14-1-2.43.32-7.78-.58-10.57-.28,3,0,6-.64,8.5-1.28-2.49-.15-6.77-1-9.91-.38,2.35.17,4.95-.55,6.71l-.32,0c-.85-2.36-.05-6.68-.79-7.64,0,1.09.22,3.76-.63,4.6-.67-1.29-.53-3.44-.52-5-.88.83.36,2.79-1,3a5,5,0,0,1-.43-2.6c-.59-.47-.38.81-1.1.7-.28-.38-.17-1.18-.7-1.27a191.71,191.71,0,0,0,4.94,34.86,37.42,37.42,0,0,0,4.68,11.72A75.8,75.8,0,0,0,138.94,230.54Zm2-16.06.48,0a3,3,0,0,1-.09,2C140.4,216.29,141.17,215.35,140.91,214.48Zm-2.43-3.82c.26-.06.29.14.49.14.37,1,.09,2.61.31,3.58.42-.29,0-1.35.93-1.18a16.4,16.4,0,0,1,0,3.59c-.76,0-.47-1.17-.87-1.6-.39.84-.16,2.26-.69,3C137.38,216.35,138.34,212.73,138.48,210.66Z"/><path class="cls-5" d="M38.9,202.56a100.55,100.55,0,0,0,26.68,10.35c.3-1.06,1-1.43,1.37-2.34-2.25-.66-2.23-3.8-3.31-5.74-.5,0-1.18.16-1.46-.1-.13.61-.74.77-.75,1.5,2.18-.62,3.06,2.36.57,2.26a2.34,2.34,0,0,1-.58,1.65,1.38,1.38,0,0,1-1.7-1.89c-1-.17-2.77-.89-1.71-2.22.82,0,1.69-.14,2.12.25a3.83,3.83,0,0,1,1.21-2.17c1.24.07-.3-.79-1-.13-1.77.71-2.46,2.42-4.42,3l-1.62.07c-2.68-.43-4.14-2.18-4.42-5.21-.25-.08-.83.22-.82-.13s.69-.2.46-.83c-.08-.4-1.79-.54-1.78.07,2.78,1.14-.25,4.11-1.72,1.7-2.41,1.58-4-1.67-1.55-2.39a13.38,13.38,0,0,1-.23-1.62c1.36-1.36,2.82-.84,3.29,1,.91,0,.75-.37,1.44-.38a3.17,3.17,0,0,0-1.88-2.53c-1.79-.55-2.76.78-4,1.46-.72.39-1.72.39-2.24.74C39.45,199.84,39.16,201.92,38.9,202.56Z"/><path class="cls-5" d="M149,210.57c-.7,1.27-1.66,2.46-2.28,3.84-2.43,5.37-4.82,11.27-7,17.07A50,50,0,0,0,137,241.87c2-4.38,3.21-8.89,4.82-13.24,2.83-7.59,7.6-13.95,11-20.82-.29-.6-1.18-1.42-1.51-1.41C150.52,207.17,149.84,209.09,149,210.57Z"/><path class="cls-4" d="M84.73,213.13c.48-.06-.18-.67,0,0Z"/><path class="cls-4" d="M82.4,211.59c-1,.27-.25,2.18-1.2,2.49-.6.09-.11-1-.53-1.11-.45,1.71-1,3.64-1.4,5.76-.6,3.43-1.59,7.4-1.68,10.83-.08,2.73.16,5,1.69,6,2.27-1.76,2.92-5.66,3.53-9.28.79-4.66,1.5-8.78,1.92-13.12-.78.64-.18,2.55-1.18,3-.57-.78.34-2.25-.29-3.08-.39.47.21,1.87-.74,1.82C82,214,82.68,212.79,82.4,211.59Z"/><path class="cls-5" d="M67.8,244.62c-.16-2.13.55-3.46.26-5.71-1.45-.63-3.72-.37-4.45-1.79a45.38,45.38,0,0,0,.08-6.2c-1.22-.19-.47.79-1.41,1,1.12,1.27.26,4.7.9,6.49,1,.66,3.7.18,4.28,1.62.48,1.18-.52,2.91-.47,4.42l-1,0a57.48,57.48,0,0,0-4.3-6.19c-.59-.85-.82-2.18-2-2.37,1.58,3.6,4.34,6.05,6.19,8.89A2.77,2.77,0,0,0,67.8,244.62Z"/><path d="M105.84,86.06a6.76,6.76,0,0,0-2.26.26,2.17,2.17,0,0,0,.25,2.43C106,89.27,106.48,87.62,105.84,86.06Z"/><path d="M61.42,95c2.36.1.18-3.72-1-1.1C60.82,94.46,60.82,95,61.42,95Z"/><path d="M58,102.65c-1.12-.46-2.22.43-2.05,1.22C56.24,105.35,59.08,104.68,58,102.65Z"/><path d="M101.22,125.39c1.31-1.41,1.67-4.62-.53-5.36C98.58,120.76,98.77,125.16,101.22,125.39Z"/><path d="M101.28,126.85c-1.45-.1-1.33,2.2-1.82,3.17a6,6,0,0,1,1.4,2.56l1.13-.05C103.34,131.35,103,127,101.28,126.85Z"/><path d="M44.15,134.18c.83.2.84-.36,1.44-.38,0-.38,0-.76,0-1.14-.85-.42-2.07,0-1.73,1.21C44,133.88,44.2,133.9,44.15,134.18Z"/><path class="cls-3" d="M151.14,132.53c-5.55-3.1-13.36-.5-16.41,3.43a23.66,23.66,0,0,0,1,4.52c1.4-3.67,8.29-7.61,12.78-4.91a6.64,6.64,0,0,1,3,5.1c.28,3.83-.66,6.13-1.6,8.87-.55,1.61-1.15,3.22-1.77,4.64-3.13,7.25-6.53,15.28-10,22.09-.71,1.39-1.86,2.75-1.78,4.31,2.06.22,2.43-2.1,3.12-3.39.78-1.48,1.33-3.14,2.43-4.17,1.71-4.69,4.69-9.47,6.88-14.63,1.05-2.48,2.18-4.95,3.45-7.31s3-5.3,3.26-7.63C156,138.66,154.24,134.27,151.14,132.53Z"/><path d="M35.26,147.26c-.58-.53-1.39-.11-1.94.24,0,.38,0,.76,0,1.14C34.35,149.25,35.61,148.77,35.26,147.26Z"/><path d="M180,148.5c.17.61.64.89,1.49.77a1.49,1.49,0,0,0,.09-1.64C180.7,147.6,180.12,147.84,180,148.5Z"/><path d="M29.68,157.92c.2,0,.38,0,.33.31a1.08,1.08,0,0,0,1.24-1.68C30,156.47,29.67,157.19,29.68,157.92Z"/><path d="M103.41,176.83c-1.84.17-1.68,5.39.06,5.54C105.66,182.35,105.19,176.67,103.41,176.83Z"/><path d="M160.2,193.81c1.14.12,1.9-.12,1.57-1.36C161,191.84,159.5,192.66,160.2,193.81Z"/><path d="M104.15,199.63c1.8-1.3,1.15-4.65-.55-5.68-1,.71-1.14,2.18-1.65,3.32C102.77,198,102.68,199.64,104.15,199.63Z"/><path d="M104.21,201.1c-2.06,1.3-1.7,5,.4,6C106.32,205.32,106.15,202.32,104.21,201.1Z"/><path d="M45.45,212.41c0-.13,0-.32.15-.34-.31-1-1.6-1.85-1.72-2.53-1.25-.23-2.51.9-3.09-.21.05.09.57-.58-.18-.48-.37.47-.12.8-.43,1.49C41.29,211.73,42.48,213,45.45,212.41Z"/><path d="M53.73,216.81l2.27-.09c-.07-.43.92.11.63-.52-.13-1.63-3.29-3-5.59-1.73C51.61,215.83,52.42,216.1,53.73,216.81Z"/><path d="M149.65,222.45a1.21,1.21,0,0,0-2.06,1.22C148.47,224.28,150.08,224,149.65,222.45Z"/><path d="M97.71,233.81a2.52,2.52,0,0,0-.4,2.14C99.26,238,101.21,232.94,97.71,233.81Z"/><path d="M83.62,287.86c3.94,1.8,5.1-3.07,9.12-3.14-.09-.76.87-.55.93-1.17-1.32-.75-1.26-3.81-3.22-3.3.15.74,1.16,1.45.9,2.08-1.21-1.08-3.11-1.06-4.92-1.11-.43-.49.58-.73.12-1.3-2.51.46-.58,4.94-3.17,6.16C83.62,286.62,84.27,287.31,83.62,287.86Zm3.49-2.09c1-.28,1.36-1.24,2.54-1.41C90.06,284.55,87.69,287,87.11,285.77Zm2.13-3.52,0,.82a4.19,4.19,0,0,1-1.76.72c-.26-.34-.22-1-.69-1.11C87.08,282,88.63,281.76,89.24,282.25Zm-3.19,1.44c.38,0,.12.71,0,.81C85.51,284.4,85.87,283.94,86.05,283.69Z"/><path class="cls-4" d="M123.11,310.42c4.42-6.16,11.68-11,17.69-16.19-.55-.54-1.54-.59-2.3-.89a13.74,13.74,0,0,0-3,1.59,54.52,54.52,0,0,0-9.1,7.86c-1.3,1.39-3.34,4.52-4.66,5.08-2.21.93-5.57.19-8.25.66-1.42.24-2.8.28-4.68.51-3.41.41-7.76,1.5-11.27,2.08-2.4.39-4.65,1.18-6.29,1.06a11.38,11.38,0,0,1-4.12-1.63c-1-.5-2-1.18-3-1.67-2.64-1.26-7.83-4.46-8.13-.33,2.93,1.27,6.07,2.42,8.92,3.89L86,313h16c2.89-.49,5.79-1,8.65-1.44C115,311,119.45,310.91,123.11,310.42Z"/><path d="M109.83,88.51a8.9,8.9,0,0,0,.06-2.61,2.82,2.82,0,0,0-2.43.26,3.61,3.61,0,0,0,.59,2.42Z"/><path d="M99.85,86.3c-.37.7-.44,2.17.26,2.6.08-.18,1.06.08,1.62-.06a3.6,3.6,0,0,0,.06-2.61C101,86.14,100.16,86.48,99.85,86.3Z"/><path d="M106,92.91l1.94-.08a2.6,2.6,0,0,0,.08-2.12C106.35,90,105.17,91.41,106,92.91Z"/><path d="M52.44,114c1.55-1.61-1.64-2.72-1.81-.75C51.12,113.58,51.34,114.25,52.44,114Z"/><path d="M148,110.15a8.39,8.39,0,0,1,2,1.88l3.56-.14C153.74,109.55,149.52,107.88,148,110.15Z"/><path d="M164.13,116.36c.62.21.29-.46.79-.36a4,4,0,0,0-5.76-2.21,11.16,11.16,0,0,0,2,2.52l2-.08C163.47,115.8,164.29,116.12,164.13,116.36Z"/><path d="M186.31,127.87c0-.66-.05-1.19-.53-1.28a7.21,7.21,0,0,0-.95.52c-.12.47.24.42.19.81Z"/><path d="M39.7,140.56c1.32-2.09-2.59-2.08-1.46.05Z"/><path d="M184.6,138.05c.21-.5-.09-.58,0-1.3-1.11-.09-1.55-.1-1.58,1A2.16,2.16,0,0,0,184.6,138.05Z"/><path d="M101.32,144.3c-2.12.78-2.12,5.07.38,5.53C103.11,148.35,103.14,145.47,101.32,144.3Z"/><path d="M26.5,167.83c.36.33.6.81,1.48.59a1.81,1.81,0,0,0,.25-2C27.06,166.36,26.45,166.79,26.5,167.83Z"/><path d="M174.16,169.45c.31,0,.35.11.18.31.33-.11,1.07.16,1.13-.2-.26,0,0-.23.31-.17,0-.44,0-.88-.05-1.31C174.59,168,174,168.33,174.16,169.45Z"/><path d="M23.65,177.73c.15.68.92.69,1.8.58.2-.51.21-1.36-.22-1.62C24.22,176.69,24.06,177,23.65,177.73Z"/><path d="M170.31,178.73a2.44,2.44,0,0,0,1.8.26,2.19,2.19,0,0,0-.07-1.63C170.77,177.18,170.53,177.94,170.31,178.73Z"/><path d="M166.11,187.38c1.1,0,1.79-.32,1.56-1.53C166.66,184.93,165.27,186.11,166.11,187.38Z"/><path d="M154.84,214.25c-.05-.52.26-.7.11-1.31C153.44,211.35,151.65,215,154.84,214.25Z"/><path d="M143.27,233.3c.62.32.67.26,1.63.26a1.31,1.31,0,0,0-.08-1.95C143.55,231.48,143.21,232.21,143.27,233.3Z"/><path d="M95.55,240.75a2.48,2.48,0,0,0,2.43-.1,2.87,2.87,0,0,0-.59-2.59C95.17,237.75,95.22,239,95.55,240.75Z"/><path d="M99.43,240.43c.43,0,.37.5.83.46s.75-.56,1.6-.4C103.37,237.39,98.19,236.91,99.43,240.43Z"/><path d="M105.9,240c.36-2.2-1.57-2.74-2.5-1.7C102.67,240.54,104.68,241.3,105.9,240Z"/><path d="M132.66,116.31c3.59,1.46.37-3.85,0,0Z"/><path d="M139.31,215.19c.39.43.11,1.58.87,1.6a16.4,16.4,0,0,0,0-3.59c-.92-.17-.5.89-.93,1.18-.21-1,.05-2.58-.31-3.58-.2,0-.23-.2-.49-.14-.14,2.07-1.1,5.69.14,7.5C139.15,217.45,138.92,216,139.31,215.19Z"/><path class="cls-5" d="M159.25,136.77c.23-.57.84-.78.75-1.65-.67-.19-1.08-.65-2-.58-.23-.94-1.45-.8-1.85-1.56-1.59.16-1.82-1.18-3.29-1.17-.17-1-2.44-1.17-3.17-2.16a29.88,29.88,0,0,1-6.09-2.36,2.09,2.09,0,0,1-1.81-.59c-1.83,0-2.86-.84-4.42-1.12h-.32c.32.49.73.9,1,1.43a6.7,6.7,0,0,1,1.63-.07,2.18,2.18,0,0,1,.42,2.59,4.72,4.72,0,0,0,3.11.7c5.6-.72,10.72,1.33,12.25,6.36C157.51,136.75,158.3,135.68,159.25,136.77Z"/><path class="cls-5" d="M64.57,195.5c1-.05,1.87-.15,2.07-.9a10.53,10.53,0,0,0-1.92.57C65,195.24,64.66,195.35,64.57,195.5Z"/><path class="cls-5" d="M35.62,209.86c7.14,3.93,16.16,7.18,25,9.77.34.16.33,0,.49,0,1-.18,2.72-3.57,2.55-3.83.06,0-.95-.34-.65,0-1.65-.4-17.78-5.49-25.8-9.91A10.09,10.09,0,0,0,35.62,209.86Zm21,6.34c.28.63-.7.09-.63.52a10.79,10.79,0,0,0-2.27.09c-1.31-.71-2.12-1-2.69-2.34C53.34,213.2,56.5,214.57,56.63,216.2Zm-16-7.35c.75-.1.23.57.18.48.59,1.11,1.84,0,3.09.2.13.69,1.41,1.5,1.72,2.54-.16,0-.12.21-.15.33-3,.64-4.16-.67-5.27-2.07C40.49,209.65,40.25,209.32,40.61,208.85Z"/><path class="cls-5" d="M145.16,223.77c-.14.29.14.7,0,1-.28.75-1,1.22-1.38,2.18-1.73,4.73-4,9.75-5.08,15,.45-.1.83-.27,1.28-.37,1.11.87.14,2.07-1.05,2.16,1.15.78,2,1.9,3.5,2.3a53.33,53.33,0,0,1-1.48-8.74c2.2-1.15,3.94-1.49,6.22-2.53-.17-2.45-1-5-.77-7.31,2.35-1.14,4.23-1.37,6.07-2.36-.16-2.72-.55-4.15-.76-6.82,1.09-1.47,3.67-1.61,5.41-2.83-.65-3.06-.13-6.35-3.19-6.72-2.36,4.18-5.43,8.19-7.29,12.36C146.26,222,145.59,222.86,145.16,223.77Zm-.26,9.79c-1,0-1,.06-1.63-.26-.05-1.09.28-1.82,1.55-1.69A1.32,1.32,0,0,1,144.9,233.56Zm10-20.62c.15.61-.16.79-.11,1.31C151.65,215,153.44,211.35,155,212.94Zm-5.3,9.51c.43,1.52-1.18,1.84-2.06,1.22A1.21,1.21,0,0,1,149.65,222.45Z"/><path class="cls-4" d="M22,45.84s3.67,8.07,9.1,10.11A23.7,23.7,0,0,0,22,65.84s-1.63-5.81-8.9-10A17.25,17.25,0,0,0,22,45.84Z"/><path class="cls-4" d="M185.9,46s3.67,8.08,9.1,10.12A23.63,23.63,0,0,0,185.9,66s-1.63-5.81-8.9-10A17.17,17.17,0,0,0,185.9,46Z"/><path class="cls-4" d="M21.9,260.09s3.67,8.07,9.1,10.11a23.62,23.62,0,0,0-9.1,9.89s-1.63-5.82-8.9-10A17.18,17.18,0,0,0,21.9,260.09Z"/><path class="cls-4" d="M185.9,259.85s3.67,8.08,9.1,10.11a23.7,23.7,0,0,0-9.1,9.89s-1.63-5.81-8.9-10A17.21,17.21,0,0,0,185.9,259.85Z"/><path class="cls-4" d="M29.24,16H23V18.6h2.52C24.31,23.71,23,29.09,22,32.39,21.19,29.08,20,23.7,18.91,18.6H21V16H14.76V18.6h1.49c3.95,19,4.52,19,5.75,19s1.78,0,6.17-19h1.07Z"/><path class="cls-4" d="M193.24,16.05H187v2.62h2.52c-1.18,5.11-2.52,10.49-3.45,13.8-.85-3.32-2.06-8.7-3.13-13.8H185V16.05h-6.27v2.62h1.48c4,19,4.53,19,5.76,19s1.78,0,6.17-19h1.07Z"/><path class="cls-4" d="M14.76,310.06H21v-2.62H18.51C19.69,302.32,21,297,22,293.64c.85,3.31,2.06,8.69,3.13,13.8H23v2.62h6.27v-2.62H27.75c-3.95-19.05-4.52-19.05-5.75-19.05s-1.78,0-6.17,19.05H14.76Z"/><path class="cls-4" d="M178.76,310.05H185v-2.63h-2.52c1.18-5.11,2.52-10.48,3.45-13.79.85,3.31,2.06,8.69,3.13,13.79H187v2.63h6.27v-2.63h-1.49c-3.95-19-4.52-19.05-5.75-19.05s-1.78,0-6.17,19.05h-1.07Z"/></g></g></svg>