<svg xmlns="http://www.w3.org/2000/svg" viewBox="0 0 208 326"><defs><style>.cls-1{fill:#fff;}.cls-2{fill:#6f7072;}.cls-3{fill:#f5a11a;}.cls-4{fill:#facb1b;}.cls-5{fill:#001400;}.cls-6{fill:#1d1d1b;}</style></defs><title>JD-us-4c</title><g id="Calque_2" data-name="Calque 2"><g id="FR_-_EN" data-name="FR - EN"><path class="cls-1" d="M14.83,325A13.84,13.84,0,0,1,1,311.18V14.82A13.84,13.84,0,0,1,14.83,1H193.17A13.84,13.84,0,0,1,207,14.82V311.18A13.84,13.84,0,0,1,193.17,325Z"/><path class="cls-2" d="M193.17,2A12.84,12.84,0,0,1,206,14.82V311.18A12.84,12.84,0,0,1,193.17,324H14.83A12.84,12.84,0,0,1,2,311.18V14.82A12.84,12.84,0,0,1,14.83,2H193.17m0-2H14.83A14.83,14.83,0,0,0,0,14.82V311.18A14.82,14.82,0,0,0,14.83,326H193.17A14.83,14.83,0,0,0,208,311.18V14.82A14.83,14.83,0,0,0,193.17,0Z"/><path class="cls-3" d="M178.09,264a64.48,64.48,0,0,1,8.75,12.75A63.81,63.81,0,0,1,195.6,264a63.46,63.46,0,0,1-8.76-12.74,65.58,65.58,0,0,1-8.05,12"/><path class="cls-3" d="M12.65,264A64.48,64.48,0,0,1,21.4,276.7,63.81,63.81,0,0,1,30.16,264a63.46,63.46,0,0,1-8.76-12.74,65.58,65.58,0,0,1-8,12"/><path class="cls-3" d="M178.09,62.26A63.9,63.9,0,0,1,186.84,75a63.53,63.53,0,0,1,8.76-12.75,63.75,63.75,0,0,1-8.76-12.74,65.5,65.5,0,0,1-8.05,11.95"/><path class="cls-3" d="M12.65,62.26A63.9,63.9,0,0,1,21.4,75a63.53,63.53,0,0,1,8.76-12.75A63.75,63.75,0,0,1,21.4,49.52a65.5,65.5,0,0,1-8,11.95"/><path class="cls-3" d="M15,34.49,15,34V29.38H11.48C10.39,36.45,13,43.12,20.69,43.13A8.79,8.79,0,0,0,27,39.84l.24-.39.29-.37.47-.77.38-.91.27-.86.09-.47,0-.44.09-2.19V12h2.64V8.05H22V12h3.67V25.41L25.45,34l-.05.9-.09.72L25,36.4l-.13.29-.29.43-.29.47a5.55,5.55,0,0,1-2.91,1.86A5.25,5.25,0,0,1,15,34.67"/><path class="cls-3" d="M180.45,34.49l-.06-.48V29.38h-3.47c-1.1,7.07,1.51,13.74,9.21,13.75a8.79,8.79,0,0,0,6.35-3.29l.24-.39.28-.37.47-.77.38-.91.28-.86.09-.47.05-.44.09-2.19V12H197V8.05h-9.6V12h3.67V25.41l-.18,8.6-.06.9-.09.72-.29.77-.12.29-.29.43-.29.47a5.55,5.55,0,0,1-2.91,1.86,5.25,5.25,0,0,1-6.39-4.78"/><path class="cls-3" d="M193.24,290l0,.48v4.63h3.47c1.1-7.07-1.51-13.74-9.21-13.75a8.81,8.81,0,0,0-6.35,3.29L181,285l-.29.37-.47.77-.38.91-.27.86-.1.47-.05.44-.09,2.19v21.47h-2.64v3.92h9.6v-3.92h-3.67V299l.19-8.6,0-.9.09-.72.29-.77.13-.29.29-.43.28-.47a5.52,5.52,0,0,1,2.92-1.86,5.25,5.25,0,0,1,6.39,4.78"/><path class="cls-3" d="M27.8,290l.05.48v4.63h3.47c1.1-7.07-1.51-13.74-9.21-13.75a8.81,8.81,0,0,0-6.35,3.29l-.23.39-.29.37-.47.77-.38.91-.27.86-.09.47-.06.44L13.88,291v21.47H11.24v3.92h9.61v-3.92H17.18V299l.18-8.6.05-.9.09-.72.29-.77.13-.29.29-.43.28-.47A5.52,5.52,0,0,1,21.41,285a5.25,5.25,0,0,1,6.39,4.78"/><polyline class="cls-3" points="34.64 265.56 34.22 265.65 34.46 265.98"/><polyline class="cls-4" points="38.46 249.67 37.69 249.66 37.56 249.72 34.51 252.07 34.51 255.51 34.58 255.67 34.7 255.75 34.82 255.79 34.95 255.79 35.11 255.72 39.31 252.47 39.31 254.36 39.09 254.17 38.97 254.13 38.83 254.13 38.69 254.2 34.51 257.5 34.51 260.96 34.58 261.1 34.7 261.18 34.82 261.22 34.95 261.22 35.17 261.13 39.33 257.82 39.3 270.17 34.51 274.29 34.51 277.49 34.64 277.64 34.75 277.71 34.87 277.72 35 277.71 35.11 277.64 42.33 271.48 42.37 271.29 42.36 251.66 42.11 251 41.97 250.88"/><path class="cls-4" d="M125.64,244.22l1,5.86.07,9,.42,3.1.14.17.54.06-.18.88-.07.53.3,2.83.17.13c.22.11.57.12.66-.17,3.46-8.54,1.57-16-.42-24.72l-.31-.19h-.25l-.12.07-.09.12-.64,1.43h-.24l-.13.06-.76.55-.07.14m6.18-5.2-.58-1.22,1,.61-.25.14-.09.12Zm-68.72-2,0-.67.34.57Zm64.89.06,1.54-2.3,2.35-.64,1.63.61.45.52-.07.06-1-.71h-1.41l-.17.08-1.77,1.55-.1,2.18,0,.12.7,1.78.14.1,2.17,1,2.28-.13,1.77-.88,1.31-2,.32-2.35-.4-2.26L136.63,232l-2.11-1.69-2-.43-.1-.1-.11,0-2.82.35v-.4l0-.13-.09-.11-.11-.06-.11,0h-1.39l-2.52,1-.8.76-.1,0,0-.22-.08-.15-.1-.08-.12,0h-.14l-.15.07-2,1.57-1,1.15,0,.19.19.74.91,1.13.2,0,.17,0,.14.09-.12.47.06.2.91,1.58.14.08.16,0,.45-.13v1.34l.69,1.75,0,.11v.16l.59,2,.12.15.6.27.16,0,.15,0,.8-.41.09-.17.27-1.32.26.1h.12l.13,0,.11-.08,0-.12,0-.15Zm-32.84,31-1.76-6.23-3.11-18-1.73-5-2-3.41-.23,0-.33,0-.13.05-.17.22-.4-.8-1.65-2.43-1-.64h-.2l-.12,0-.1.11-.09.24L81.31,231l-.23-.5-.1-.09-2-1.14h-.2l-.25.12-.21.23-1.52-1.3-1.36-.41-.19,0-.09.09-.08.14v.26l-1.26-.93-1.09-.15-.18,0-.33.39-.64-.44-1.25-.21h-.15l-.14.06-.54.45-1.11-.56h-.17l-1.94.23-.15.12-.06.12,0,.16.17.36-2.08-.52-4.45,1.48c-3.57,2.74-4.68,5.7-3.19,10l1.62,2,2.21,1.05,2.27-.09,1.69-.87,1-1.23.55-1.67,1.72,16.52,2,12,.66.95,2.23.46.07.08,1.68.36.16-.07.12-.09.49.39,1.7.17.11.12.13.08,2.09.5.17-.06.1-.08.21,0,.3.23.17.08,2.14.26.06.07.1.09.12.05,2.48.33.14.12.1,0,4.37.49.29-.13.09-.09.55.3,2.72.22h1.24l.09.09.14.06,1.14.11.73-.11.13-.08.08-.1,0-.13v-.16Zm32.45-40.66h2.27l-.08,1.18.27.55.1.12.14.06,4.36,1,.26-.46.4,1.17.13.13,1.08.68h.17l.12-.06.1-.08.07-.12v-.17l-.35-2.33-1-2.29-1.82-1.88-1-.43,0-.22.12-.07.08-.09.05-.13,0-.18,0-.13-.1-.11-4.66-3.77-.52.24-.12.15-.24,1,.08,1.55.27.57.09.12.13.08,1.25.23c-1.85,0-3.92.71-4.52,2.66l.11.47.1.1.13.08.55,0,.17,0,.89-.4.06.08,0,.14,0,.13.07.1.12.1ZM41.81,217.4l-.12,0-.19.06-2.19,1.39-.06.24,0,1.17L39,220l-.12,0h-.14l-.13.07-4.11,3v3.4l.08.15.12.08.12.05H35l.13-.06,4.15-3.11,0,1.54-.11,0-.1-.09-.12,0h-.14l-.13,0-4.15,3v3l.08.16.12.08.12,0H35l.13,0,4.18-3v6.6l.29.53.1.09,1.77,1,.39,0,.1,0,.12-.09.07-.11v-.13l.06-18.31-.24-.32Zm101.57,3.45-3-5.71,3.3,5.74ZM116.6,221l1.59-.53.8,2.11,1.92,2.12.65.42.16,0,.47,0,.13-.08.11,0v.47l.07.13.58.45h.57l.12,0,.13-.07.1-.15.79-2.12-.08-2.62.15.07.17,0,1.43-.33,1.29-1,0-.17v-.21l0-.16-.1-.11L125.73,218l-3.41-1.77L119.71,215l-6.46-2.11-.22.28-.2,1v.13l.32,1.5.53.73.15.08.69.12-1.18.65-1.84,2.24-.09,1.2V221l.07.12.12.09.15,0,1.28,0,.13-.05.11-.07.5-.61.1.05.09.44.09.12.12.06h.13Zm-35.18-.55,0-2.06,1.23,1,1.1.38.6-.41-.18,2.89.68,2.18.73.18,1-.58.33-.81.44.05.2-.06,1.29-1.66.75-2.14,2.62,1.22,2.8.3.31-.15h2.08l.13-.89-1-2.34-.84-1,1.18-2.87,1.11,1.71,1.15.42-.82,2.6.08,1.85.71.24,1.62-.52.06-.69.47.51,3.28-2.47,1.68,1.62,2.41,1.34.66-.45.16.74,1.24.28.35-1.3,0-2-.68-1.75,1.52-.61,1-1.57-.21-.81a44,44,0,0,0-31.32,4.5l-.08.49-.7-.09-4.18,2.86-.6.88.47.28-1.79,1.39-.27.33-.51-.29-.13,0-.17,0-1.64,1.57-1,1.37,1.91,1,.17-.26.57.45,1.18.21,4.06,1.29.35-.41-.14-2.29,2.34.11,1.72-.32.38-.33,1.28-.21.12-.88-1.45-1.94L81,221.31Zm63.14-25.64.09,0,0,.14-.45.28-.22.57h-.21l-.39.19,1-1.9v.46l.07.14Zm28.69-4.26-.13,0-.14,0-3.5,2.19-.48.46-.1.16v2.16l.09.13.29.26.13,0h.13l.12,0,3.88-2.47V191l0-.13-.06-.13-.09-.09Zm-59.61-3-.24-.06-.23,0-.11.06-.1.13-.06.26-.18,20.88.23.2,1.84.44h.74l.13,0,.1-.09.08-.23.06-17.88Zm-.66-7.78-.15-.64,12.85-14.3h.14l1.26-1.41.3-5.52-.6-.48L94.92,193.93l-14.17-24-.59.12-.81,5.14,13,21.76-14.9,17.17.45.59,8.19-3.89,17.59-20.64v17.18l.36.66h2.65V187.89l-.6-.57,4.29-5,.14.13L132.63,218l3.15,2.84.27-.26.29-1.21,0-2.46ZM39.41,132.9l-.36-.05-.14,0-4.42,2.76,0,3.14.33.08L39.41,136ZM39,128.5l-.18,0-.15,0-4.17,2.58,0,2.86L35,134l2.19-1.23,2.3-1.54,0-2.43Zm134.5-.66-.34,0-.16,0-4.3,3.05.13,2.81.32.12,4.39-2.94Zm0-4.35-.46-.07-4.27,2.89v3l.62.29,4.16-3Zm-78.28-8-2.58-.69h-.15l-.12.07-.12.17-.08,3.08,0,15.15L94.48,137l.68-.29.07-13ZM73,104.61l-.17,0-.15,0-.26.14-.12.15L72,107.66l23.62,37.47-1.51,1.78H94L80.91,161.69l-.4,5.95.73.08,32-37.34.6-.12,13.42,24.12.66-.23.91-5.37-.54-.4-12-21.71L130.75,110l-.33-.6-.31,0-.6.56-7.71,3.69-17.47,20.55,0-10.77-.11-6.93-2.31-.19-.63.32,0,20.14h.77l-4.47,5.26-.13-.11-22-35.22Zm77.78,14.81-.39-.55,2.05-.11,2.21-.36,4-1.36,1.3-1,.06-.2.32-3.29-.12-3.26-.88-3.7-.83-1.7-.41-.22-.16,0-.14,0-.13.09-1.16,1.34,0,.21,1,3.57.21,4.92-.93.79-5,1.32-2.73-.12-.17.17-1.59,2.58v.21l2,4.21.46,5.31-1.1,1-2.46,1.24-5.45,1.14-.86,2.05,0,.2,2,3,1.7,4.25.22,1.68-.63,1L141,145.76l-5.15,2.41-.12.38-.11,1.18.07.19,1.23,1.09,1.93,2.57,1.81,4-.08,1.08-3.39,4.66-2.83,2.24-.09.16-.08,2.34,0,.14.07.13.17,0,3.71,2,2.44,2.57,1,2.43-1.71,3.53-2.8,3.15-1.45.77-.09.16v.16l.09,1.12.34.67.22,0,5.55,2.84,2,2.06-.05,2.39-2,4.45-1.88,2.36-.13.55v.17l.05.13c.78,1.13.76,1.34,1.71.43l-2.32,5.43-1.36,4.66.11.2.1.07.13.06h.13l.41-.19-.57,1.13-.11,0-.11.08-.06.15-1.09,4.34-.22,2.23.16,6.34.26,2.34.17.15.12,0h.14l.47-.21-.46.52-.05.16-.18,2.13.06.17.24.25.13.09.13,0,.13,0,.13-.09,8.56-9.08V221l-.45-1.42-4.54-8,5.44-3.73,1.62-4.1-1.68-7.06,7.48-2.84,1.36-1.93,0-.16-.08-4.8,0-2.42.32-.17,6.35.15,2.06-1.9,1.34-7.93.05,49,.71,1,6.44,6.76.2,0,.19-.05.11-.08.06-.12,0-.12v-3.51l-.11-.15-4.17-4.36v-.24l0-.16-.52-.29.05-3.8,0,0,.07-2.32.21.41.12.09.11,0,.24,0,3.49-2.1.53-.52.07-.17v-2.64l0-.12-.06-.12-.11-.08-.1,0h-.15l-.11,0-4.11,2.6-.15-.32.09-.14v-1.3l.12,0,.11.08.11,0h.12l.13,0,2.81-1.77,1.24-.94.07-.19v-2.36l0-.13-.06-.11-.11-.08-.1,0h-.15l-.11,0L168.86,209l0-17.72H169l.15.13.12.05.25,0,3.24-2,.71-.73,0-.16v-2.38l0-.13-.06-.11-.11-.09-.1,0h-.15l-.11,0-4.12,2.63,0-13.39.68.18.16-.06,3.82-2.42,0-.23v-2.16l-.12-.16-.12-.07-.14,0-.17.06-4.16,2.52v-1.57l.21.12.59.07.14,0,3.73-2.34,0-.22v-2.61l-.15-.18-.12-.07H173L169.61,168l-.68.56-.11,0V154.71l.22.13.14,0,.16-.05,4.21-2.75v-2.32l0-.14-.06-.1-.11-.08-.1-.06h-.15l-.15,0-4.16,2.53v-2l.26.21.12,0h.12l.14-.05,4.07-2.5,0-.26v-2.77l-.11-.13-.09-.08-.12,0h-.14l-.1,0-3.44,2.13-.78.67-.11-27.84-1.12-1.24.1-1.28,0-.16-.08-.09-1.11-.89-.16,0-.13,0-.11.07-.1.1,0,.15-.08,1.79,0,53.47-.22-.18-.12,0H165l-.14.06-1.47,1.08-.08.18-.28,1.81H163v-1l0-.12-.06-.12-.09-.08-.12,0h-.15l-.12,0L159.55,175l-6.17,6.34,0,.35.43.31-.46.28-.3,0-.42-.15.56-.7,0-.13-.09-.13-1.43-10,0-9.53,1.21-8.58,2.59-9.59,2.69-6.84,3.69-7,3.79-5.73,0-7.48-.2-.16-.18-.07h-.18l-.14,0a91,91,0,0,0-13.82,24.35,69.48,69.48,0,0,0-4,33.49l1,6.22,1.15,4.76.25.2.12,0h.14l.47-.21,0,.05L148,188.06l-1.7,2.72.27-.94-.51-1.77-.87-1.18-1.83-1.59-3.76-1.77c6.35-6,5.35-12.89-2.27-16.74,6.87-5.65,8-9.73,2.19-17.11l3.79-1.82,2.6-2.64.6-2.13-.27-2.41-1.1-3.19-1.7-3.05,3.66-.92,3-1.78,1.17-1.06,1.11-1.74.13-3.3-.37-3Zm-31.75-16.58-.73,2.27L116,104l-3-.52-.18.09-.08.12-.17.49-.22-.41-.11-.1-.15-.06-1.4.15-.34.69.93,2.2,1.29,1.54-.55.39-.77,1.49-.09.75L110,109l-1.2-.41.68-1.7.22-2.06-.35-.83-.25-.1-1.79.52,0,.44-.17,0-.09-.08-.12,0h-.22l-3.14,2.35-1.7-1.63L98.87,104l-.2.11-.76-.47H97.7l-.36.19-.12.09-.08.15L97,106.65l.66,2.09-1.17.38L95,111l.28.57,2,.48,3.46.45,5.65.18,4.4-.33.31-.57.62.4,4-.77,3.71-1.16.12-.13,0-.12v-.14l0-.14-.15-.18,0-.14.32-.09v.23l0,.12.08.09.12.07.14,0,1-.14,5.23-2.42.3-.76,0-.23-.89-.91-1.36-.62H124l-.25.07-.41.85.38-1.76-.21-2.83-.73-1.17-.18-.06h-.19l-.95.55-.29.6-.17,0-.11-.07h-.25l-.13.07Zm-28.35.87-.86.35-1-2.38-2-2.05-1.25-.25v-.16L85,98.4l-.68,0-.26.12L83.27,101l0,2.16-2.23.89-1,1.14,3.73,2.25,4.15,2,6,2,1-.11.17-1.45-.47-1.51-.68-.52-.76.2,2.2-1.57,1-1.54.22-1.46-1.68-.33-.65.8-.78-.77Zm41.65-7-2.73-1-.23,0-.52.58.36,2.07-1.72-.26-2.42.4-.6.5-.88-.11-.43,1.15,2.26,2.36,1.64.6,0,.09-.17.06-.42.7,0,1.8.5,1.16,1.09-.66,2.8-1.84,1-.9-.27-.77,2.4-1.93.27.43.43-.08,2.17-2.21-.25-.83-2.25-1v0l-1.72-.27Zm-52.22.62-1.93,0,0-1.11-.37-.71-4.45-1.07-.36.29-.52-1-.67.37.51,2.69,1.09,2.31,1.26,1,.47,1.27,3.42,2.74,1.18.74.6-.26.21-1.23-.34-2.48,1.47-.53,1.62-1.74-.62-1.25-1.45.8-.21-.62ZM43.81,141.81l-1.36,7.68.27-49.05-7.59-8-.63.29v3.76l5.36,5.43-.09,5.88-.46-.29-4.82,3,0,3.28H35l4.72-3,0,1.76-.43-.15-4.76,3.05.09,3H35l4.65-3-.25,33.62-.23-.08h-.19l-4.44,2.62.08,2.83.46-.09,4.31-2.63,0,1.42-.25-.21-.12,0h-.18l-4.26,2.56,0,3.18H35l4.32-2.68,0,13.62-.4-.05h-.14l-4.3,2.76.08,2.73.33,0,4.4-2.52,0,1.66h-.5l-4.26,2.51,0,3.32H35l4.28-2.65-.11,13.55-.68-.12-4,2.62,0,3.11H35l4.16-2.8V195l-.5-.28-4.16,2.94,0,3.23.69-.17,4-2.6-.07,6.85,1.15,1.61-.24,1,.06.34,1.57.74.27-.33.09-1.56.11-11.18L42.41,153l.48.43,1.68-1.09.47-1.12.3.18.17,0,.77-.31,2.36-1.77L54,143.93l.76-.81-.32-.7L55,142l.72.08L55,143.14l1.29,8,.13,11.62L54.89,172l-2.08,7.86-3.91,9.64-4.75,8.09-2,2.83v6.68l.3,1.31.43-.14,3.34-4.52L52,194.53l3.4-7,3.5-9.87c3.57-10.88,3.38-27.9,0-38.7l-.64.17,3.37-4.86.89,2.57,1.89,1.91L67,140.16l1.83.68-2.35,2.6-.92,1.45-1.09,2.79.22,3.23.81,2.13,2.9,3.13,2.36,1.36-3,2.72L66,162.65l-1.37,3.56.67,3L67,172.7l1.56,2L65.43,176l-3,2.52-1.15,2.8,1.06,5,2,3.56-4,1.1-4.07,2.74-1,2.74V200l.64,2.7,1.31,2.84-3.14.2-4.9,1.52-1.43,1.14-.38,2.37,0,3.54.69,3.93,1.19,2.5H50l.18-.07,1.2-1.49L51,217.5l-.25-.13-.63-3.8.1-3.1,1.11-.76,6.11-1.45,1.2.38.24-.1,1.79-2.78-1.92-4.13-.43-3.44,0-2.18L59.55,195l3.57-1.54,4.12-.61.84-2.16-2.84-5.3-1.13-3.79.08-.13L66.42,179l5.77-2.82.3-1.37-3.26-4-1.81-4.11.7-1.86,3-4.06,2.4-1.79.34-.42v-2.52l-3.41-1.68-2.92-2.86-.92-2.22.85-2.57,3.35-4.22,1.91-1-.31-2-3.29-1.29-3.7-2.43-1-1.31v-1.42l1.23-3.77,1.71-2.62,1.18-1.27-1-2-.3.14-.33.28,2-4.41,1.41-4.52.11-1.24-.32-.12L62,119.11,64,128l.67.69L64,129.78l-.27-.24-.26-.09.68-.55-2.25-9.83,7.47-5,.75-.75.18.08L71,113l1.08-6.88.48-4.74-.22-2.63-.89-1.08.4-.42,0-1.83-.65-1.27-.42.06-7.3,7.77-.94,1.34,4.26,9.56-3.52,2.44h-.06l-1.73,1.1-1.72,4.12,1.67,7.21-7.6,2.84-1.29,1.87,0,7.48-6.7-.11ZM166.22,88l-.14,0L166,88l-.13.09-.24.28,0,13.69.12,4.71.6.16,2.13-1.42v-1.4l.59.32,4-3,.52-.54V98.06l-.54-.5-4.57,3.38,0-2,.71.35L173.53,96l0-3.08H173l-4.64,3.36-.05-6.18-.08-.79Zm-21.75-.53.19-.16-.06.85-.17.09-.34-.68.1-.09h.12ZM76.21,86.17l0-.25.11,0,.39,1-.83-.5.2-.12Zm6.27-5.51-1-5.55-.11-9.82L81,62.72,80.33,62l.17-1-.28-2.78L80.07,58l-.14,0-.27,0-.26.16-1.31,4.33-.57,6.94.87,6.5,1.22,5.88.44.91.22,0,.13,0,.18-.11.26-.7.14.16-.21,1.07h-.34l-.12,0-.09.09-.09.15v3.66l-.94,2.2-1.54,1.14-2,0-1-.35v-.3l.18.16,1.57.25,1.78-1.08.48-1.74-.16-1.64-.83-1.48-2.29-.89-1.25,0-2.22.83c-5.1,4.91.41,12.74,6.82,10.27l-.08.26,0,.14.06.16.09.11.1.06.13,0L81,95l2-1.05.72-.79v.35l0,.12.09.09.1.07.18,0,.83-.39,2.18-2,.12-.85-1.06-1.44H86l-.3.14.13-.88-1.11-1.79-.21,0-.21,0-.68-2.79Zm29.45-25.58,1.95,5.56,3.84,20.9,1.56,4.32,2.09,3.39h.27l.26-.11L122,89h.17l.17.33,1.84,2.68.55.4.16.06h.32l.12-.05.12-.09.09-.21L127,94l1.83,1.08.22-.07.12-.11.19-.38,1.53,1.49,1.32.27.21-.11.17-.32,1.5,1,1,0,.13,0,.1-.07.09-.09.2-.08.56.4.16.06,1.45,0,.14,0,.12-.11.08-.32.81.45,2.06,0,.79-.69,1.91.16,3.52-.92,1.88-1.3.49-.85h.21l.13,0,.12-.12,1-1.73.66-2.29-.15-2.27L150.8,85l-1-1.11-1.42-1-1.18-.49-2.36.23-1.25.71-1,1.1-.07.12-.66,2.24-1.79-16.65-1.6-9.67-.59-2.72-.52-.66-1.17-.47H136l-.34.16-.11.09-.38-.36-.15-.07-2-.34-.09-.07-1.48-.38-.16,0-.11.07-.08.11-.18-.1-.07-.12-.1-.09-.19-.08-2.4-.38L128,55l-5.85-1-1.72-.21-.29-.11-1.83-.21-.14.12L118,54l-.49-.5-1.27-.27-.16,0-.12.09-.09.23-.4-.27,0-.06-.13-.1-.18,0-1.69,0,0-.08-.12-.07-.12,0-1.59,0-.16.08-.09.14-.14.49,0,.18Zm27.19,163.8.25.36,0,.64-.42.8-.53.1-.28-.27-.06-.84.68-.69ZM142.26,203c3.6.59-1,4.28-.84.79ZM150,188.28l.49,0,.6.57.12.62-.43.68-.73.33-.47-.09-.54-.69.07-.65Zm9.17-10.69h.57l.57.41,0,1-.61.46-.92,0-.36-.4-.08-.65ZM49.06,144.82l.78.48V146l-.54.65-1,0-.29-.28-.1-.61.06-.32.57-.54Zm8.92-11h.54l.68.66v.69l-.51.6-1,.2-.47-.36-.23-.84Zm7.54-14.73.7,0,.6.55.14.68-.64.82-.4.15-.59-.09-.55-.55v-.81Zm4.32-15h.52l.22.19-.1.66-.49.46-.46,0L69.3,105l.16-.7Z"/><path class="cls-4" d="M173.49,63.2l-.46-.06L168.22,67l0,2.56.33.9.23,0,4.81-3.77m-5.42,6.08.08-18.24,5.1-4.34.2-.37,0-.13v-2.7l-.11-.22-.1-.1-.12,0H173l-.13.07L168.81,50l-3.63,3.29.09,20.08.23.16,1.52.61,2.1.6H170l.16-.06L173.5,72l0-.21V68.74l-.12-.16-.12-.07-.13,0-.16,0-4.19,3.28-.34.36Z"/><polyline class="cls-3" points="34.82 244.6 43.38 247.68 50.59 251.8 50.8 251.77 50.93 251.66 51.07 251.5 51.11 251.22 51.06 251.09 47.84 246.63 43.04 241.97 38.11 238.57 36.1 237.46 34.92 236.99 34.75 237.01 34.64 237.07 34.55 237.19 34.51 237.36 34.51 244.49 34.64 244.65"/><path class="cls-3" d="M48.75,219.83l-1-4.3-.05-6.93-.25,0-.19,0-4.12,5,.46,3.12,4.57,3.64.44-.15.11-.08,0-.12m-4.32-6.62L45,214l-.29.53-.85-.08.07-.72Z"/><path class="cls-3" d="M57.1,205,56,202.51l-.72-5.42-.42-.07-6.58,10.29.2.24,8.67-2.17m-4.45-3h.39l.34.49-.09.44-.38.24-.53-.21,0-.52Z"/><polyline class="cls-3" points="165.35 193.98 165.23 193.95 165 194.01 162.5 196.52 159.72 200.31 157.66 203.74 154.58 209.75 153.55 212.95 153.55 213.67 153.63 213.81 153.73 213.91 153.93 213.96 154.13 213.96 154.28 213.85 165.69 201.16 165.76 194.83 165.62 194.23 165.49 194.07"/><path class="cls-3" d="M143.33,178.17l-2,3.17-1.79,1.89,0,.18,0,.14.07.12,5.65,2.94.19-.2,0-.12v-.13l-1.61-8-.31-.06-.13,0m-.39,4.77.56.31v.53l-.32.35-.71-.23v-.59Z"/><path class="cls-3" d="M137.82,167.06l2.63,1.9,2.36,2.48.27-.09.11-.1.09-.16-.16-4.89.17-5.38-.64-.33L140.31,164l-2.69,2.42m3.91,0h.27l.47.37-.08.58-.34.22-.49-.08-.24-.47Z"/><path class="cls-3" d="M65.45,163.71,68,160.09l2.53-2.25v-.23l-.05-.18-3.12-2.35-1.85-2-.21,0-.31.22-.12,10.33m1.23-6.11.47.17.3.63-.36.49h-.63l-.39-.51.09-.42Z"/><path class="cls-3" d="M119.54,228.68h-.12l-.21.05-1.75,1.17-.09.16v.4l0,.2,2,2,.36.17.16,0,.39,0,.09.1.13.08.23.06.14,0,.13-.09,1.79-1.9,0-.52,0-.13-.12-.12-2-1.33-.8,0-.15-.19m-31.5-1.36H88l-.2.06-3.28,2L83,230.87l-.06.16v.13l0,.12.09.12.63.3-.21.17-.06.12,0,.12,0,.14.09.13L86,234.66l.18,0,.17-.06,1.41-.91.06-.15,0-.13v-.09l-.39-.54.22,0,.12-.07.14.12.06.18.08.1.12.07.13,0,.16,0L93,230.81v-.29l0-.13-.18-.18L89,227.82l-.61.41.06-.52-.05-.13-.08-.12Zm6-2.41H94l-3.25,1.12-1.54.77-.35.36-.06.15v.13l0,.12.12.12,3.79,2.38.65-.11v.3l0,.12.09.11.12.07h.18l4.32-1.1.19-.35,0-.17,0-.14-.08-.14-3.1-2.93-.2,0-.56.12v-.58l0-.15-.09-.1Zm12.67-1L103,223.7l-1.57.24-.12.08-.12.15-.15.33-.13,0-.13,0-.2-.08,0-.28-.08-.16-.11-.09-.23,0-4.38.67-.86.35-.09.17,0,.12,0,.15.14.24,3.37,3.21.37.08.13,0,.12-.07.19.25.05.13.08.1.12.07.12,0,5-.16.06-.72.64-.06,0,.4,0,.15.06.12.21.12,2,.39,1.91-.65.29-.31.06-.12.51.21.35,0,1.08-.7.15.11,0,.13,0,.13.12.07,3.28.64.26.37,1.1.77h.18l.13,0,2.2-1.46,0-.22,0-.18-.23-.41-.16-.12-3.85-1.72-1.66-.45-.09-.13-.12-.07-2.87-.88-1.67-.21-.21,0-.24.4h-.73l0-.18-.22-.41-.11-.1Zm23.09-10.3h-.13l-.13,0-1.39.61-.1.14,0,.12v.14l.08.15.43.52,2.39,1.36.25-.06.18-.15.06-.12,0-.13,0-.15-.58-.94,0-.21L130,213.8Zm-1.64-2.64-.13,0-.1,0-3.32,1.34-.14.25,0,.13,0,.14.07.11.1.07,2.36,1.32.2,0,2.07-.85.11-.12,0-.14v-.11l0-.12-1.07-1.9Zm-1.63-2.54-.13,0-.13,0L121,210.81l-.11.17v.26l.07.12.12.09,2.22,1.08.18-.06,3-1.19,1.09-.65.1-.12,0-.12v-.14l0-.11-.9-1.51Zm-37.71-.72-.15,0-.13,0-.13.1-1.72,1.88V210l0,.12.11.12.32.17h.16l2.12-.6.65-.33.09-.12,0-.12,0-.25-.06-.1Zm36.16-1.89-.13,0-.12,0L117,209.1l-.23.41,0,.13,0,.14.07.12.15.09,2.18.8,1.11-.07,5.93-2.53,0-.28,0-.16-.93-1.73Zm-34.35-.28-.17,0-.13,0-.13.09-1.23,1.41,0,.17,0,.15.09.12,1.83,1.7h.19l2-.37.27-.3.07-.13,0-.12,0-.14-.09-.13Zm6.82,1.82-4.77-4.26-.26,0-.12.08L91,204.89l0,.45,0,.16.1.12,3.34,2.94,2.62-.19.56-.36.08-.13,0-.13,0-.15Zm25.65-4.24-.16,0-.12,0-7.07,3,0,2,0,.14.06.12.12.09.6.16.2,0,7.33-3.08.33-.39,0-.13V205l0-.12-.76-1.27Zm-20.88,3.91-7.23-6.47-.42,0-.14.09-1.48,1.65v.25l.32.58L98.71,208l1.06.15,2.52-.2.14-.12.07-.11,0-.13,0-.13Zm19.28-6.67-.12,0-.13,0-5,2-.43.44,0,.19v2.2l.13.16.1.07h.27l6.22-2.51.31-.59v-.17l-.05-.12-1.07-1.62Zm-24.37-2.24h-.54l-.15.11-1.25,1.52,0,.18,0,.14.1.15,7.42,6.64.59,0,.12-.07.08-.1.05-.16v-2.78l-.12-.16Zm22.88-.17-.48,0-3.54,1.4-.28.49,0,.14.06,1.77.13.17.2.13.14,0,.13,0,4.71-2,.06-.22v-.13l0-.12-.92-1.55Zm-16.6,1.16-4.34-3.65-.32.06-.09.09-1.26,1.64,0,.16,0,.15.11.16,5.31,4.72h.34l.12,0,.13-.11.09-.16,0-.12v-2.74Zm14.86-3.81-.45,0-1.94.78-.11.14,0,.17v2.25l.11.16.12.07h.13l2.22-.77.93-.49.25-.46v-.16l0-.12-1-1.54Zm-17.11-2.07h-.15l-.22,0-1.28,1.34-.08.12v.28l.1.13,3.38,3.06.29-.09.24-.25.08-.13,0-.13v-2.42l-.13-.14Zm15.23-1.14-.21,0-.13,0-.11.06-.1.11,0,.16-.05,2.85.13.15.12.08.46.05h.16l.94-.4.34-.34,0-.15v-.13l0-.12Zm-13.11-1.34-.12,0-.15,0-.13.08-1.36,1.49,0,.45,0,.14.09.1,1,.83.38,0,.14,0,.12,0,.08-.12,0-.16.05-2.53-.13-.16Zm-38.91-1-2-3.9-.76-3.05-.65-.21-3.68,9.35.19.33Zm.23,37.24,3.68-4.67L75,216.63l17.18-19.58-.09-.28L79.77,176.28l-.4-.06-.11,0-.11.09-.06.16-.75,3.68,9.33,15.65L60.75,227.06l-.37.91,0,.14,0,.13.06.11.11.09.13,0h.15Zm3.75-52.72-1.89-2.81L65,167.74l-.64.11-1.8,9.84.56.35,2.32-1.8,3-1.42.09-.16,0-.13Zm58.34-10.24-.17,0-.13,0-.12.06-.09.12-.07.29L113.1,179.07v.36l0,.12,22.73,35.9.35.06h.13l.1-.07.11-.12.82-3,.09-1v-.16l-.08-.12-.72-.63-19.13-30.32.15-.36,9.61-10.22-.2-5.08-.08-.15-.11-.08ZM139.57,150l2.14,3.11,1.37,3.46.21.08h.12l.13,0,.1-.09.08-.16,1.83-9.76-.14-.2-.12-.07-.13,0-.14,0-.37.24-1.72,1.37-3.27,1.61-.09.16,0,.13ZM95.08,187.28,84.63,170.1l26.11-29.78,0-.24,2-2.28,9.8,17.59ZM144,135.41l1.23,2.08,1.21,4,.18.1.13,0,.14,0,.11-.06.09-.15,3.53-9.23-.13-.21-.09-.09-.12,0h-.17l-2.76,1.47-3.48.94-.12.15,0,.12v.16Zm-30.08-4.89-.37-.08-.23.07L82,167l-1.61,2,.72,1.51,13.59,22.82.78-.08,32.41-37.09L125,150.73Zm-8.81-.26-.17,0h-.13l-.13.08-.27.44.08,2.66.32.06.19,0,1.24-1.27.17-.73Zm-12.94-1.6-.44,0-1.43.62-.29.67,1.41,2.14.67-.11.11-1.7Zm16.39.64L105,126.12h-.21l-.1.05-.13.11-.21.34,0,2.53,1.9,1.59.9.3Zm-16.41-3.86-.39-.07-2.57,1.06-.85.63,1,1.82.66.17,2.2-.86Zm-.27-3.15-.26,0-4.32,1.91-.49.59,1.08,1.82,4.3-1.69,0-2Zm13-.45-.14,0-.2,0-.09.1-.09.14,0,3,4.36,3.65.57-.16,1.19-1.5-.26-.67-4.69-4.14ZM92.14,119l-.43,0-6.26,2.58-.28.78L86.28,124l1.34-.31,4.58-2Zm20.39,5.11L105,117.35h-.29l-.16,0-.1.08-.09.16,0,3,5.1,4.47,1.67,1.2,1.48-1.52Zm-3.72-7.82h-.18l-2.93.3-.14.12-.07.12v.14l0,.18,1.9,1.77,5.63,4.95.24,0,1.77-2.19-5-4.43Zm8.31,2.8-3.66-3.29-2.81.44-.42.64L115,121l.67-.11Zm-25.28-3.41-.26,0L84,118.8l-.59.62,1.19,1.92,1.2-.32,6.33-2.76.05-2.09Zm26.81,1.2L116.94,115l-2.29.5-.12.15,0,.15,0,.42,0,.15L116.3,118l.72.49.17,0h.39l.13,0,.1-.08.89-1.18,0-.16,0-.13Zm2.23-2.88-.35-.06-3,1.08.09.34.73.73,1,.51,1.53-1.78Zm-30.23.86-2.84-1.13-6,2.79.52,1.36.72.84,7.66-3.13.14-.57Zm-4-1.87-2-.93-3.86,1.64-.55.64,1,1.55,1,0L86.17,114l.79-.76Zm-5.58-2.74-.52,0-2.12,1.12,1.4,2.38,3.59-1.76-.16-.45-.1-.12Zm14.11,34.62-22.7-36.08h-.4l-.17,0-.11.1-.07.14L71,112.43l.18,1.14,19.62,31-9.94,11,0,4.9.23.25.14.09.13,0,.14,0,.14-.09,13.54-15.59Zm-18-37-.15-.16-.55.59L78,110.82l1.47-.33.57-.82Zm66.61-10.73-5.13,5.71L133,107.74l-16.39,18.93L128,147.24l.23,0,.18,0,.54-.5,1-3.73-.13-.83-8.72-15.49,21.23-24.65,2.85-3.59,1-1.54-.3-.48ZM91.29,94.36l-.34,0-.22.06-1,.89-1,.61.15.73,3.66,1.64L93,97.9l.47.8,1,0,1.08.62,3.71.83.75-.53.13.2.6-.42-.08.93,1.56.2,4.06.06.55-.71.31,0,.22.56,2.82-.23,2.63-.53.22-.54-.86-1-2.78-2.61-.44.19-.44-.62-4.45.16-.58.45-.59.21-.17-.6L100.47,95l-2.33.88H97.05l-.82.7L96,96l-3.47-.38-.3-.61Zm22.9-.5-.13.09-4.43,1.17-.1.29v.13l0,.16,2.91,2.76,1,.27.16.83,3.08-1,2.34-1.24,0-.41ZM88.75,92.2l-1.47-.75-.16,0-2,2.15.24.71,2.36,1.46,0,0L89,95.71l1.53-1.08v-.74Zm30.83-.79-.2,0-4.47,2.32L115,94l.56.63,3.15,1.87h.73l.54-4.82Zm2.31-1.56-.17,0-.14,0-1.28.81-.12.94-.12.09-.64,5,.88.21,3.59-2.46,1-1.14-.12-.22-.91-.35.3-.73ZM60.32,187.58l.5.29.09.48-.4.47-.66-.27V188ZM64,172.7h.46l.44.28.08.64-.56.45-.55-.2-.26-.5Zm79.41-22.12.34.92-.53.32-.34-.15-.23-.45.17-.31ZM147,136.4h.69l.16.81-.45.35-.56-.39Z"/><path class="cls-3" d="M52.71,145.84l-.41,0-2.57,2.51,0,.35.06.12,0,.12-.91.14-4.11,3.18-2.28,1.29c-.17,2.85.21,6.82-.21,9.49l.55.52-.24.13-.09.13-.21.63.08,4.5-.09.09.12,1.73-.11.26,0,6.21.18.15,0,.13-.24.35.06,4.21-.11.17v.84l.2.34.16.14-.38.58.1,4-.08.14.19,1.43-.23.39v4.58l.36.8.34-.12.74-.81,2.44-4.38-.24-.53.49-.15.19-.14L47,188l.2-.08,1.71-3.81-.36-.42.44-.18.2-.15.41-1.55.12-.06.09-.11,1-2.71.22-1.29-.16-.18.6-.59,0-1.5.45-.63,1-5.43,0-.77.34-.6.39-4-.33-.43.47-.76-.11-1.61.18-.22.06-2.11c-.34-4.4-.24-8.3-1-12.79"/><path class="cls-3" d="M65,145.88l1.07-1.94,2.38-2.72,0-.33,0-.24-5.59-2.93-.21.25,1.65,8.36m.51-4.58.47.3-.07.79-.51.16-.44-.4v-.55Z"/><polyline class="cls-3" points="159.23 175.33 162.75 172.5 165.59 170.8 165.69 170.43 165.35 169.5 165.65 169.34 165.74 169.22 165.79 169.06 165.7 168.21 165.66 168.07 165.38 167.72 165.67 167.42 165.74 167.32 165.76 167.14 165.67 164.06 165.76 161.31 165.71 161.16 165.62 161.06 165.29 160.9 165.31 160.78 165.45 160.71 165.72 160.23 165.78 160.05 165.75 155.53 165.8 155.36 165.71 154.38 165.49 153.91 165.61 153.84 165.7 153.73 165.74 153.57 165.79 149.25 165.38 148.91 165.57 148.8 165.66 148.7 165.74 148.41 165.53 146.96 165.59 146.92 165.69 146.81 165.72 146.64 165.76 143.03 165.35 142.55 165.52 142.46 165.61 142.35 165.67 142.14 165.69 140.73 165.74 140.43 165.62 136.28 165.7 135.99 165.54 134.81 165.61 134.76 165.67 134.64 165.7 134.51 165.66 129.2 165.58 129.04 165.48 128.96 165.36 128.92 165.23 128.92 165.11 128.96 165.02 129.04 164.2 130.09 161.35 135.34 161.11 135.65 161.16 136.18 161.22 136.35 161.16 136.52 160.89 136.52 160.75 136.6 160.66 136.74 159.11 140.21 159.19 140.44 159.48 140.71 159 140.89 158.85 140.98 158.79 141.12 158.47 142.11 158.54 142.3 158.62 142.39 158.61 142.56 158.33 142.68 158.2 142.76 158.13 142.9 156.89 146.76 157.15 147.08 156.62 147.56 156.57 147.77 156.58 149.01 156.43 149.19 156.13 149.73 155.27 154.39 155.11 155.87 155 156.04 154.7 158.03 154.51 160.37 154.62 160.7 154.72 160.86 154.89 160.96 154.57 161.23 154.49 161.32 154.45 161.47 154.37 162.84 154.42 163 154.5 163.09 154.55 163.29 154.27 163.7 154.28 166.72 154.58 167.92 154.45 168.03 154.4 168.15 154.37 168.28 154.4 169.32 154.71 169.7 154.66 169.91 154.55 170 154.49 170.12 154.46 170.27 154.74 174.66 155.31 175.54 155.1 175.69 155.02 175.82 155.01 175.98 155.25 178.01 155.38 178.17 155.76 178.34 155.9 178.37 156.03 178.34 156.15 178.28 158.16 176.38 158.38 176 158.39 175.86 158.38 175.73 158.17 175.35 159.06 175.35"/><path class="cls-3" d="M150.66,119.37l1.17,2.4.76,5.3.08,0,.14,0,.32-.09.1-.11,6.21-9.8-.14-.26-.11-.08-.12,0h-.15l-2,.85-6.2,1.34-.08.24m3.92,2v.2l.29.17v.6l-.42.32-.68-.49.22-.45Z"/><polyline class="cls-3" points="55.7 108.47 55.32 108.41 55.14 108.43 45.57 118.23 42.88 121.28 42.62 122.04 42.62 130.38 43.53 130.22 46.46 127.18 50.39 121.28 54.27 113.21 55.38 110.18"/><path class="cls-3" d="M164.85,110.65l-.58-1.06,0-1.62-.05-.13-.09-.12-4.35-3.39h-.34l-.26.12-.11.09-.06.12,0,.17.61,1.77.57,3.84-.08,4.75c.1.29.3.52.61.37m1-5.23h.52l.29.56-.17.3-.46.27-.31-.62Z"/><polyline class="cls-3" points="168.77 78.77 162.97 76.29 157.09 72.89 156.6 73.53 160.3 78.4 164.34 82.24 171.46 87.14 173.54 87.58 173.54 80.72 173.41 80.05"/><path class="cls-3" d="M105,280.39h-2.06v.13l-5.73.25-4.59-.21-.66.27-.2.7-.31.16-2.8,7.5H106.6l-1.13-8.29m-33.35-2.83-.35.06-1.07,1.51-5.87,9.55H80.67l3.41-8.39.1-.7-.26-.28-3.34-.34-6.49-.91Zm53.77,0-.32,0-11.13,2-.22.18,1.83,9h16.13l-5.75-10.63Zm-57.2-6.92c-2.91,6.6-7.23,12.34-11.41,18.08h4.89l8.91-12.62,1.22.13,2.55.52,11.3,1.55V279l-3.43,10.15h4l2.65-6.37,1.13-3.21.36-.4,3.22.05,12.47-.25.34.28,1.84,9.89h5.12l-1.43-10.14.3-.19,14.17-2.11,7.5,12.44h7.4l-.85-.83-5.46-6.61-6.81-10c-16.28,5.18-40.64,3.86-57.31.29Z"/><path class="cls-3" d="M117.92,49.22l0,.27-.21-.12m24.21-12.28H125.63l-2.36,7.78.41.69,4,.49,7.88,1.53.53-.32,1.43-3L141,38.44Zm-25,0H100.2l1.22,6.64.39.55,11.56-.13,2.06.32.25-1.84Zm-25.38,0H75.56l.13.32,2.1,4.1,2.9,4.66h.75l1.75-.33L87,45.37l6-.55.32-.16-.06-1.21Zm-17.62,0H67.05l.28.26,4.37,5.86v.4l.3-.16,6.25,9.4c11.56-4.16,24.38-3.58,36.47-3.11l.25-.33v.25l.36.12,1.83.09.41-.21.15.27,5.42.49,6.94,1.1,9,1.79,1.34-2.43,3.77-6.06L149.54,38h.28l-.09-.17.39-.59.41.11-.17-.21h-7.15L136.16,48.7l-4.84-.91-9.71-1.48,1.3-5.36.12-.08.94-3.78h-5.9l-1.3,8.65h-3.44l-1.91-.15-11.17-.27-.74-2.83-1.1-5.4H93.35L93.81,39l.12.08,1.59,6.57L93.05,46l-3,.15-9.47,1.58-2.75-3.89Z"/><path class="cls-5" d="M45,251.94l-2.83-1.18-5.09-1.71-2.18-.45V245h.34l5.38,1.67,4.93,2.34,6.31,3.86.37-.2-.15-.52-2-3-4.14-5-5.47-4.5-5.55-3v-3.36c10.82,4,19.79,15.09,22.2,26.46h-.24l-3.29-2.68-5.38-3.45-1.54-.9M43.29,217l16,12c-3.73,2.49-5.08,7.49-2.26,11.24l.65.6,1.42.86,2,.45,2-.17,1.08-.5,1.57-1.61.68,6.29,1.21,10.49h.17l-.07.33.34,2.95,1.55,8.11-1.15,3.07-1.88,3.65-3.11,5.13-3.28,4.42v.14l-3.55,4.67,0,.05H34.87V278.4l7.78-6.72.06-19.87H43l2.45,1.12,2.71,1.47L50.9,256l4.34,3.18,2.2,2,.65-.24-1.33-5.16-3.13-6.75-3.3-4.82-4.41-4.59-3.37-2.75-.06-8.67.08-10.71.22-.39Zm27.15,51h.24l2.25.63L81,270.36l9.32,1.36,5.75.24,5.55-.09,0,.13,9.37-.42,4.15-.41,5.32-.79,6.74-1.51.46.24v.3l4.07,6.64,5.46,7.74,2.72,3.17,2.2,2.23H57.67l8.26-11.84,3.33-6.06Zm55.59-3.1h-.27v-.2H126Zm-29.5-2.34v.38l1.23,1.4,2.36,1.5,1.95.82,2.79.19,4.37-.38,3.23.54-.07-.34-1.8-1.09-2.54-.73-6.58.39-2.22-.76-2.53-1.92Zm1.24-2.19v.22c4.35,3.08,7.78,3.95,12.77,2.08l-.16-.33a12.11,12.11,0,0,1-12.18-2Zm22.73-2.52h1.23l1.26.5.74,1.24,0,.64-.41-.13-.34-.7-1.44-.83-1,.21-.85.6-.37,1.22h-.49l-.1-.89.73-1.3Zm-1.18-.2.11.06-.89.68-.68,1.72h-.41l-.73-.36.23-.7Zm-13.61-.32,2.07,1.11.44,2-.41.41-.79-1.94-.89-.59-1.38-.18-1.23.84-.6,1.41-.64-.19.19-1.1,1.17-1.31Zm-1.46-.6,7,1.5.23.44-.83,1.1-1.19.76-.53.09-.49-2.14-1.3-1L105,257h-1l-1.29.76-1.14,2-.42-.09-1.59-.87.12-.43.79-.71,1.34-.6Zm.54-.48-3.14.28-1.48.64-1.32,1.27-1.68-.09-.76.65.16.31,2.1.82,4.16,1.83,2.07.4,3.11,0,3-.73,1.61,1.33.09-.33-.53-.91-1-1-.07-.38,1.15-1.89-.14-.66-.55-.49h-2.26Zm-65.88-1.75.14.28,0,2.6-.14.23-1.35,1.23-2.67,2v-3.17Zm66.74-2.3-.15.3,3.46,3.69,1.35.78.72.29.11-.09-.15-.47-1.55-.83ZM37.77,250l.62,0,3.41,1.17.19.52,0,19.55-7.14,6.06v-2.9l4.68-4,.12-.25,0-19.2-.38-.32-.33.54v.89l-.6.64-3.52,2.67v-3.17Zm72.91-3.29-1.11.79,0,1.48.42.73,1.23.58,1-.2.6-.45-.14-.34-.84.43-1.42-.29L110.1,248l.42-.5.59-.21,1.07.19,2.35,1.39.83.05.73-.37-.28-.92-3.41-.85Zm4.73-2.48-.42.21.21,1.07,1,1.26,3.22,1.73-3.38,10.7c-.94,4.85,1.52,8.88,7,8.18l2.34-1,0-.52.31.09,1.23-1.48-.12-.52h-.26l-.71.7-1.58.73-3,.43-2.48-.89L117,263.5l-.29-1.24,1.3.57,1.3.35,2.13-.05,2.3-.45v-.12l-.2-.14-2,.43-3-.28-1.85-.82.13-.42,3.17.94,1.91-.08,2.56-.56,1.84,1.28-.06-.63-.88-1.36.64-1.61-.18-.48-.5.12-.81.79-.54-1.24-.91-.73-1.47-.41v-.08h.5l1.85.52.07.12,1.94.58.12-.05.22-.46-2.15-.5-.07-.11-2.77-.61-2.56.46,3.57-3.84-.13-.12h-.25l-2.21,1.79-1.53,1.75-.72.55.37-1.66,2.56-7v-.72l-3.24-1.48-1.29-1.14Zm11.3-.58.08.08.95,4.41.65,6.15-.41,7.42-.49.26-.4-2.94-.08-9-1-5.86Zm-38.6-1.31,0,.09v0Zm39.74-.32c2.15,7.75,3.79,16.65.51,24.41l-.13,0L128,263.8l0-.44.71-3.35.21-5.71-.42-5.5-1.22-5.47ZM91,241.77l.1.19-.67.85-.27-.55.17-.34Zm12.67-1-1.53.17-1,.77-.45.85.28,1.37,1,.69h1.34l.54-.26.43-.71-.08-.46h-.35l-.55.68-1.11.05-.59-.59.21-.91.83-.67.42.06.28-.54v.34l2,.44,4.68,2.27,1.32.2,1.55-.17.67-.72v-.73l-.34-.35-.94-.26-2.21.28-1.85-.2Zm21.79,0,1,.35.44.59-.19,1.05-.71.35-.52-.23-.58-1.9Zm-32.82-1.44v.27l-.93,1.28-1.83.54-.11-.89Zm-57.75-2A36.36,36.36,0,0,1,50.75,251.3l-.1.11-6.52-3.73-4.78-2-4.48-1.33Zm72.89,0-.4.49,1.31,2.3h.47l.55-.56h.45l3.9,1.79.52-.12.64-.73,1.38.64,2.89-1.77.27.15.61.73.48,0v-.91l.49-1.26-.15-.38h-.49l-2.58.77-1.07.06-2-.52h-.26l-2,.6h-.83l-3.32-.74Zm-12.85-.49V237l-1.44,1.61-.46-.06-3.18,1.35-.51,0v-.62l.73-.53,2.86-1.31Zm20.29-.76-3.06.76.11.47,2.45-.57,1.07,0,2.19.71-.1-.49-.77-.42Zm-17.51-1.77v.12l-1.59,1.43L92,237.18l-3,1.46-.21-.56,1.36-1,3-1.4,2.84-.94Zm18.8-1h-.22l-.67.64-.6.16-2,0-1.49-.56v.49l1.21.6,2.37,0,1.26-.88Zm-54.72-.76,1.58.24,1.4.73,1.14,1.26.91,1.62.87,3.52,2.81,20.5,1.39,7.18h-.62l-.88-.36-.44-.65-2-11.92L66,235.92l-1.19-1.54-1.58-.8H61.8l-1.19.49-1.18,1.54.19,1.94,1.47.91,1.35,0,.65-.52.32-.74.09,0v.88l-.42,1-1.44.54-1.46-.36-1.08-.93-.67-1.17-.08-1.69.66-1.68,1.21-1.05Zm69.88-.44,2.43.76.73.77.85,1.41.05,1.87-.78,1.78-1.58.6-1-.46-.09-.18,1.54-.19.73-.81.28-1.34-.29-1.21-.76-.84-1.57-.59c-4.45-.3-5.05,4.14-4.53,7.59l-1.38-1.22.16-2.85.93-2.67,1.4-1.49,1.19-.59Zm-49.1,0,.81.55L85,235l1.82,3.6,1,3.57.3.28-.19.36.45,2.13.38-.36-.1-1.19-.41-1-.08,0,.1-.28-.65-2.77-1.51-3.63.26,0,2,3.21,1.68,4.94,3.13,17.95L94.83,268l1.53,3.31-.63.09-1.08-.12-.26-.37L92.66,266,91,259l-2.15-14h-.53l2,13.28.93,4.76,2.59,8.21-1.48,0-1.78-4.61L89,260.24l-1.08-6.81L85,237.34ZM84,232l.23.2,2.76.86.49.39-1.32.86-2.36-2.2Zm17.26-.29V232l-2.46,1.58-2.54.51-4.44,1.41-3.46,1.86-.33-.62.75-.74,4-2.14,2.88-1ZM124,231l0,.13-1,1.55-1,2.44-.77-1-.16-.6.89-1Zm8.31-.87v.16l.5.1v-.07c7.94,1.08,5.89,14.27-2.32,9.65l-.64-1.67.08-2,1.64-1.43h1.35l0,.13.87.52.41.83-.2,1.08-.58.51h-.91l-1.1-.63-.2.23-.1.75.62.93,1.14.46,1.74,0,1.19-.94c2.44-4.12-.93-6.93-4.91-7.05v.15l-1.46.3-1.3.81L127,234.07,126,236l-.27,1.51,0,2.41-.19.19-1,0-.31-1.16,0-1.59.39-2.23,1.2-2.36,1.28-1.26,2.07-1Zm-4.4-.38,1.29,0v.19l-.73.19-1.74,1L125,232.9,124,235l-.38,2.4-.19.07-.87-1.5.55-2.24,1.1-1.81,1.28-1.26Zm-49-.06,1.91,1.09,0,.3,1.24,1.59,1.76,3.27,1.36,5.2.62,3.4.31.13-.25.35,1,5.06,1.55,9.46,1.22,5.55,2,5.57.06.5L90.45,271l-.55-.7-1.64-4.09-1.62-7.25c-1.49-7.87-2.07-22.33-7.89-29.17Zm22.85-.14,3.69.17-.07.24-2.8,1.33-.78,0-4.49.67-3.94,1.2-3.24,1.53-2.41,1.46-.28-.08-.61-.82.25-.52,4.28-2.72,5.19-1.77Zm18.53-.27.18,0,2,1.28,0,.34-1.67,1.76-.13,0Zm-.86-.21.19.39.33,3-.3-.13-1.9-1.88v-.29Zm-8-.17,2,0,3,1.27,2,1.74,2.71,3,2.72,5-.13.52-2,1.13-2.34.85-1.74.24-.49.7.25.88.67.3,1.32,0,1.08-.51,3.37-2.83h.4l.54,1.6-.4.59.74.64.45,1.24.88,6.19-.07,7.42,1.17,6.67.07,2.47-.7.42-4.74,1.14-6.78,1.14-6.28.53-8.57.22-3.32-.07-1.54-2.91-1.42-4.71L93,258l-2.32-14.31.36-.4c3.52-6.78,10.71-12,17.94-14Zm-35.93-.56c10.08,2.74,9,33.67,14.08,42.48l-.34.1-1.47-.22-.42-.59-2.13-8-.93-5L82.5,245.59l-1.68-7.38-2.31-5.83-1.07-1.86Zm13.51,0,2.66,1.67,1,.64-4.34,2.26v-.9l.48-3.59Zm-24.8-.3,3,.75,1.86,1.45,2,2.72,1.41,3.43,1.38,4.6,1.19,5.91,3.66,21.77.21,0,.06.73-2-.47-1.21-4.2-.71-4.17,0,0L73,244.75c-.68-5.58-2.94-16.7-10.9-15.95l-.25.41,1,0,2.43.48,1.1.53,2.43,2.35c4.86,10.75,4.36,24.48,7.39,36l-.11.05-1-.2-.37-.28-1.08-4.58-1-5.56-1.83-12.47-1.29-6.95-1.44-4-1.56-2.22-1.82-1.61L62,229.65h-.88l-2.2,1-.68.62.08.12,2.57-1,1.34,0,1.78.48,2.33,1.92,1.54,2.43,1.31,4.16,3.18,19.92,1.61,8,.13,0,.11.95-1.66-.35-.42-1.61-1.35-7.11-2.31-17.43-1.11-5.35-.9-1.78-1.35-1.41c-3.87-2.78-8.13-.52-7.31,4.16L58.9,239l1.59.94.83.14,1.26-.1,1-.74.46-1.06v-1.1l-.44-1-.5-.29-.31.36-.08,1.07-.22.43L62,238l-1-.08-.81-.92-.15-1.27.56-1,1.6-.64,1.15.14,1.2.61.86,2.07,0,1.3-.5,1.53-.91,1.11-1.54.8-2.11.09-2-1-1.49-1.83c-1.45-4.09-.34-6.87,3-9.49Zm8.56-.2.94.12,2.17,1.62,1.32,1.77,2.87,6.16c3.26,11,3.09,22.39,7,33.17l-1.83-.2-.83-2.36-1.68-7.48L81,249.18l-1.54-8-2.69-7.37-1.7-3.49-2.4-2.4Zm15.27,0-.53,4.68h-.58l-3.63-1.33,1.5-1.32Zm-17.71-.22,1.18.2,1.93,1.38c8.53,12,6.46,27.73,11.14,41.11l-2.13-.3L82,268.39,80.65,263l-2.88-18.69c-1.59-4.91-3-13.25-7.8-16.51Zm-2-.05,2.11,1.08,1.52,1.74,2.21,4.33,1.55,4.55,1.91,7.43,2.31,14.58,1.7,8.5L80,269.45l-.43-.37-.81-2.63-1.51-9.74-2.08-12.35L73.61,238,72,233.52l-2.39-3.64-3.15-2.19Zm46.92-.93,3.39,1.6.19.35-2.06,1.35-1-.69ZM95,226.13,98,229l-.12.2-4.13,1.06.87-4Zm18.9-.12.58.4.59,2.25-2.86-.55Zm15.57-.06,1.55.18,1.92,1,.66.71,1,1.53,0,.36-4.1-1-.22-.43.09-1.4-.21-.09-2.4,0-.56-.14.53-.4Zm-90.57-.55.13.44,0,1.69,0,.54-4.06,3v-2.7ZM94,225.34V226l-.9,3.64-.29.14-3.7-2.3.24-.26,1.48-.73Zm13.74-.24,1.61,3.24-.2.23-1.75.59-1.93-.37v-.24l1.93-3.24Zm-6.84-.25,3.17,3.69,0,.23-4.65.17,0-.48Zm7.57-.15,1.58.2,2.87.88-.32.62-1.69,1.79-.65.12-.52-.48Zm-8.32-.49.08.42-1.58,3.81-.18-.07L96.92,227l-1.8-1.81.7-.28Zm2.81-.13,3.79.32.18.34L104.88,228h-.32l-3-3.72Zm27.48-.34v.19c4.07.61,6,3.37,6.22,7.39l-1-.62-.6-1.74-1.93-2.3-1.44-.87-2.21-.55-1.4.19-2.44,1.12-.48,0-.06-.31.29-.56.85-.89,1.15-.57Zm-57-.22-1,3.17L71.19,226l.75-1Zm6.43-.07,2.11,1,.79.72v.36l-1.7.32-2.72-.12-.11.21.22.81.05,1.54-.21.09-2.73-.92.08-1.29,1-1.54,1.53-.93Zm-.55-2.1,2.43.72L83,223l1.19,1.6,0,.46-.58.07-.86-.84-1.32-.75-1.78-.6-2.25.3-1.64,1.48-1,2.53-1.45-.33c-.34-2.36,2-4.72,4.11-5.3Zm24.52-.5c7.42,0,16.34,3.55,22,8.44l-2.29.92c-6.25-5.22-17.32-8.21-25.3-6.7l-3.81.75L91,225.4l-4,1.84-4.77,3.1-.3,0-1.62-1c4.31-4.43,12.53-7.93,18.56-8.28Zm-65-.48.22.47-.12,2.53-4.05,3v-3.12Zm89.46-.29,4.48,3.62,0,.07-4.61-.81-.22-.49-.07-1.44.2-.84Zm-11-1.53c3.44.24,5.62,2.53,4.76,6.19l-.38,0-.57-.36-1.84-2-.87-2.33h-.17l-1.73.58-2.22.17-.06-.29.52-.72,1.16-.83Zm21.94-.11-.74.21-.88.89.1,1.12.5.52.91-.16.54-1,.05-.85Zm-83.57-.08.89.61.14,1.42-.51.7-1.31,0-.73-.57-.06-1.27.43-.69Zm24.85-.26h.3l.16.31,0,2-.32.62-1.63-.19-3,.48.55-.54Zm-38.86-.34.12.24-.07,18.09-.26,0-1.63-.92-.22-.41v-15.7Zm-4.21-.36-.37.16,0,.75.49.66.41,0Zm52.46-.24h1.53l1.53.75,1.46,1.31.57,1.3-2.76-.29-3-1.38-.2.45,0,.12-.66,1.9-1.21,1.55-.5-.07v-3L87.91,218Zm27.61-.93c4.77-.3,8.77,5,6.11,9.53h-.44l-.43-.35.12-3-.5-1.48-1.17-1.57-1.59-.9L118,218l-2,.14-1.44.78L113,220.86l-1.22,0,.09-1.07,1.71-2.1,1.79-1Zm-12.78-1v.18l1.73.29,1.46,1.13.76,1.58.08,1.33-.3.13-2.15-1.21-2-1.89-.38.16-.58.81-2.23,1.57-.09-.05,0-1.24.68-1.39,1-.92Zm-63.25-.09-.25.47.25.54.43.24.15-.27Zm48.84-.26.08.05,2.22.34,2.08,1,1.38,1.5,1,2.19,0,.48H95.74c-2.6-6.46-11.87-4.31-9.44,2.84l.19-.1-.26.61-.77.45-.36-.1-.54-1.74,0-1.6.38-2.21,1.46-2L88,215.49Zm-2.56-.18,0,.08-.18.2-1.38.8-1.35,1.34-1,2-.3.23-.87-.3-1.28-1,.06-.45,2.52-1.3Zm-51.75-.25-.07.69.65.76h.48l-.79-1.45Zm6.58-.24.55.56-.14.92-.62.8-1.2.92L34.87,221v-2.71l6.61-3.9Zm87.15-.13.77,1.13v.09l.63,1-.11.07-2.22-1.28-.37-.44Zm-76.68-.7v.13l1.15.21.53.27-3.16,4.35-.18-.05-.62-2-.34-2.15.53-.31Zm60.27,0,6.21,2,2.62,1.21L125,218l.26-.06,0,.2,2.17,1.41v.13l-1.14.85-1.31.3-1.45-2.67-2.49-1.93-2.51-.72-2,.12-2.22.63-.37-.06-.43-.61-.3-1.41Zm-9.66-.32h.76l2.65.48,2.63,2,.85,2.12,0,1.92-.24,1-.67-.21-.48-2.69-.89-1.25-1.57-1.25-1.59-.44-1.66,0v.11l-1,.31-1.39,1.17-.7,1.72,0,1.8-1.3.39-.36-.1,0-1.54.74-2.38,1.28-1.63.93-.59Zm-7.36-.43.06.88L96,214.89l-.68,1-2-1.11-2.39-.5-2.61.41-.09-.08.28-.19,3.78-1.11Zm-36.71-.09.87.14.35.48.08,1-.5.63-.63.19-.7-.21-.46-.57v-.88l.37-.58Zm-19.42-.2-.12.48.25.51.48.09v-.28Zm62-.25h.53l5.27.36,4.34.74,0,.44-.79,1.3-1.18.48-2.19-2-3.2-1-2,.14-2.42,1-1.75,1.8-.59-.23-.91-1.11-.29-1.41.35-.21Zm36-.12.09,0,4.8,9-5.15,5.68-.63.26-.25-2.16-.15-6.31.22-2.19Zm-10-.51,1,1.82-2,.81-2.25-1.25,0-.1Zm45-.09v2.59l-.45.42-3.43,2.06-.16-.3v-2.22Zm-132.61-.08.79,0,.68.38,0,1.27L41.22,214l-6.35,3.64v-3l.33-.32Zm-5.21,0-.42.3.46.92h.51ZM39.25,209l-.26.17,0,.57.36.58h.38l-.21-1Zm8.15,0-.16,2.3.13,4.49,1,4.15-.48-.13-4.29-3.47.15-.15.07-1.18-.49-1.07Zm79.1,0,.85,1.42-1,.63-2.92,1.18-2.11-1Zm-68.74-.4v.13l.6.12-.51,1-2.61,3.51-.35-.15-.38-.52-.44-1.9,0-1.42.25-.25Zm43.28-.3,4.35.05,6.66.88,4.06,1,3.39,1,6.52,3,5.59,3.46,4,3.43.42,1L136,225.4c-17.9-18.92-49.57-19-66.6,1.13l-1.44.13-2.24,0-.11-.19.84-1.22,2.13-2.38,4.28-4,5.56-4,6.49-3.22,4.76-1.58,5.2-1.21Zm-61.43,0h.81l.51.41.07,1.25-.92,1.06-5.21,3v-3.32l.37-.28Zm49.16,0,1.2,1-.58.29-2,.58-.18-.1Zm84.39-1.56V209l-1.14.86-2.78,1.74-.07-.83,0-1.52Zm-135.28,0,0,.73.51.19v-.48l-.22-.44Zm87.08-.34.88,1.63-5.7,2.43-1,.05-2.09-.76.14-.25ZM90.56,206l2.65,2.37-.17.19-1.91.34-1.72-1.59Zm-52.28-.52h.47l1,.69-.24,1.34-4.63,2.54v-3Zm25.61-.09h.76l.64.65v1l-.42.68-.75.2-.75-.3-.42-.84.21-.76Zm28.77-1.79,4.64,4.14-.41.25-2.39.17-3.2-2.81v-.31Zm30.38,0,.39.3.72,1.2-.24.28-7.22,3-.51-.14,0-1.88.93-.25Zm19.07-.93-1.07,1v1l.57.79.61.2.89-.12.76-.8.11-.88-.47-.75-.82-.44Zm23.17-.21.2,1.42-.15,4.33.15,15.81,7.68,8.38v56.81H143l-3.77-4-2.82-3.62L130,272l-1.75-3.41,1.67-4.49.78-5.5V252.3l-2.38-11.83-.09-1.56.41-2.25.79-1.31.51-.38-.85,1.76v2l1,1.7,1.62.86.81.16,2.14,0,2-.95,1.42-1.8.49-3.05-.69-3.27,25.75-28-.08-.08ZM95,201.06l5.1,4.52,2.09,2-2.38.18-.9-.13L93.65,203l-.23-.45,1.38-1.52Zm26.52-.24,1,1.55-.21.39-6.08,2.44v-2.06l.32-.32Zm-59.69-1.75h1l.94.21v.52l-3,5.18h-.12l-1-2.09-.65-2.4.52-.63Zm35-.47h.27L103.3,204l0,2.64h-.17l-1.08-.82-6.38-5.73Zm23.16-.19.88,1.48-4.54,1.94-.11-.08-.06-1.64.2-.32,2.63-1.07Zm-64.92-1v.86l.6,4.36,1,2.36.11.29-1.2.11-3.4.7-3.44,1.13Zm80.52-.49h.9l.77.94,0,1.07-.79.59-.86-.1-.56-.54-.3-1.06Zm-67.34,0,1,.18.58,1.07-.15,1-.56.5-1.07,0-.44-.41-.23-.77.16-.87Zm75.65-.69,2,8.9-7.11,4.82-.68.31,1.32-4.51,4-9.3ZM99,196l4.22,3.54,0,2.6,0,.08-1.12-.85-4.22-3.81Zm19-.19.27,0,.9,1.4-.15.29-.8.42-2.08.74,0-2.11Zm-79.34-.67.09.08,0,2.69-3.67,2.4-.28.15V197.8Zm126.51-.78.06.09.12.46-.08,6.17-1.24,1.17v.2L154,213.59l-.09,0c.18-3.86,6.11-13.57,8.87-16.8Zm-64.12-.62,2.18,1.73v2.28l-.17.19L99.89,195ZM66.23,193l.33.43-.48,1.06,0,0-1.75,4-.24-.12-.61-.4-1.2-1.71-.3-1.65.13-.56,1.25-.54Zm50.05-.49,1.4,2.15-.25.24-.85.36-.36,0Zm23.65-.58,2.94,1.18-.69,1.79-1.75,3-.64.64-1.07-2.3-1.07-4Zm-36.67-.73-.07,2.39-.23,0-.93-.75,0-.28Zm-64.7-.07h.24v1.53l.12.12-.21.74-3.83,2.58v-2.54Zm134.56-.22,0,.06v2.27l-3.68,2.36-.23-.22v-1.92l.44-.42ZM42.78,189.77l2.71,0,.15.32-2.33,4.18-.65.7-.12-.5v-4.33Zm29-1.3.61,0,.81.88v.9l-.58.88H71.53l-.58-.49-.24-.86L71,189Zm-27-.39,1.76.16-.42.88-.4.11-2.85,0-.29-.17,0-.79Zm105.05-.17-1.11,1-.09.94.7.93.72.15.94-.44.56-.89-.14-.89-.8-.75Zm-36.42,0,2.13,3.51c-.06,5.9-.22,11.75-.08,17.73l-.62,0-1.74-.41,0-11.57.13-9.24Zm-7.26,0,.13.25,0,19.48-.1.1-2-.07-.19-.38,0-17.07Zm26.52-.33h1l.68,1-.12.93-.56.5h-.9l-.41-.21-.3-.59v-1.07Zm32.59-1.14.1.65,0,3.21a47.06,47.06,0,0,0-13.87,21.9l-.79,3.52-.11,1.3-1.15,1.29v.12l-1.84,2-.1-.07c1-12.69,6.67-22.87,15.43-31.75Zm7.89-.23v2.33l-.6.63-3.2,1.94-.15-.29,0-2.11Zm-64.9-.77,0,0,0,4.33-.12,18h-.92l-.17-.32L107,195.05v-8.29Zm28.3,0,4,1.82.38.59-.25.65-1.12,1.85-.86.87-1.22.36-1.33-6.12Zm-25.14-.46h.12l1,1.59-.12,11.23,0,10.73-1-.12v-18Zm-63.21-1,.24.3-1.52,3.34-2.94.09-1.41-.19v-3.16l.17-.3ZM69,183.37l.7,0,.28.22-.47,1.85-1.33,3.85-.24.21-.69-.88L65.6,185.3l.39-.48.92-.58Zm-7.73-.25.12.07.73,2.92L64,189.78l-3.15.83-3.08,1.47,0-.09,1-2.47Zm91.44-.6.19.07,0,9-8.1,2.88v-.29l.48-.91,3.15-5.06Zm-104.93-.37,1.4.12-.36.89-.45.18-3.47,0-2.17-.2-.13-.24v-.64l.18-.09Zm30.79-.55,8.61,14.49-.24,0L59.2,228,59,228l-3.34-2.64c8.76-9.72,15.13-21.48,19.7-33.76Zm-3.88-2.16,1.12.84v1.26l-.75.6-.87-.12-.55-.52-.16-.82.41-.88Zm68.94-1,1.56,7.78-.08.05-1.23-.94-3.93-1.93,1.75-1.83Zm-11.75-.37.71.37.54,1.28-.59,1h-1.18l-.35-.23-.44-.92.22-.88.5-.49Zm-88.39-.52,1,.08,5.85-.07.29.16-.22,1.12-.92,2.6-2.68.13-.55-.15-3.6,0v-3.52l.22-.23ZM159,177.21l-1.1,1,.1,1,.56.59,1.21.08.86-.65,0-1.41-.83-.59Zm-87.4-.38v.54l-1.4,5.29-.44-.14-1.49-1.32-1.06-1.95.13-.4,1.1-.75Zm7.84-.24h.09L91.72,197l-17,19.41-6.58,5.82-3.64,4.62-3.75,1.31.34-.83L88,196l-.25-.71-9-15.18Zm55.55-.44,1.23.12,2.13.58,1.48,1.08-.11.57L137.59,181l-1.81,1.31-.28-.85Zm22.92-.5.12.21-.16.29-2,1.84-.3-.13-.22-1.92.27-.14Zm-112.59,0,5.4,0,.42.27-.12.79-.27.28-8.12.05v-1.27Zm-6.45-1.1.12.23,0,2.33-4.09,2.52v-2.73Zm123.73-1.29v.92l-.1,1.28-.93,5.94-.38.28-7.43-.19,4.61-4.81,2-1.8Zm2.49-1.79h.27l0,2.68.12.12-1.4,8.15-1.84,1.72-6.3-.16-.6.33,0,2.92.1.12-.12.21.09,4.19-1.29,1.84-2.1.73-5.31,2-.14.46,1.63,6.89-1.53,3.87-5.47,3.73v.4l4.53,8,.42,1.37-8.44,9-.18-.19.18-2.06,1.58-1.82,4.86-5-5.57-9.65.54-.53,7.62-5.19v-.75l-2.21-9.24.47-.28,8.45-3.14.13-.61.11-9,.36-.21H162l.31-.42.05-.55,1.39-8.87Zm-88.42-.61.81.4.34.73L77.54,173l-.48.41-1-.06-.63-.48-.06-1.13.53-.68Zm50.26-.06.07.05.82,9.42,2.12,11.83,2,6.2,2.95,7.3.12.06.76,1.83-.06,0-1.83-2.69-15.7-25Zm-74.83-.13.16.3-.73,3.62-.31.47-8.54-.1-.11-1.34.14-2.75.9-.06Zm121.06-.14v2l-3.67,2.32-.3-.08,0-1.86Zm-8.1-.56.22.19v.42l-2.74,1.62-3.48,2.8h-3.63l-.33-.2-.27-4.54Zm-126.13-.08.06,2.38-4.12,2.36v-2.14Zm91.9-1,.79.32.43.79-.18,1.13-1.06.44-.85-.35-.28-.42-.07-1,.55-.75Zm3.69-.11h.38l2,.94v.09l.74.39,1.91,2-.32.58-1.62,1.39-2.19,1.06-.46-.07Zm-82.13-.11.24.47-.25.78-9.67.11-.05-1,.52-.07Zm12.41-.57.34,1.16,1.15,2.57,1.81,2.67-2.9,1.38L63,177.6l-.1-.06,1.72-9.41Zm100.25-.24.28.36.08.78-.38.22-1.32.05-8.71.16-.25-.27v-.93l.7,0,8.27-.1Zm-91.92-.61v1.42l-.82,5-.31.07-.81-.8-2-2.95.38-.74,2-1.38Zm77.46-.11h.29V167h-.29Zm22.56-.95v2.48L169.58,171l-.45-.07,0-2.07.67-.55Zm-46.53-1.72.09,0,.2,4.86-9.57,10.14-.23.61,19.26,30.54.73.61-.09.95-.8,2.91-.44-.51-22.32-35.27.41-.58,12.69-14ZM53,163.66l.25.33-.36,3.81-.21.36-.57.22-1.56-.13-4.16.06-.08.31h-.06l-.09-.36-3.37,0-.14-.36,0-3.48.16-.48,1.15-.12Zm112.25-.25.11.46,0,3.3-.22.23-10.4,0-.1-.86,0-2.82.46-.16Zm-118-2,6,.06.09.19v1l-.21.38L43,163.13l-.35-.21.15-1.28Zm29.79-.19h.51l.86.51.2,1.19-.85.92-1.07-.15-.38-.54,0-1.16Zm87.62-.16.7.32,0,1.3-1.79.19-8.81,0,.07-1.29.27-.21,8.69,0Zm-21.87-.12.1.17-.15,5.12.14,4.81-2.21-2.33-2.56-1.85-.12-.34.73-.52,1.89-1.75Zm-12.35-.46h.44l1,.78-.26,1.49-1.06.37-.9-.52-.18-1,.25-.63Zm-57.07-1,.23,2.06-.32,4.71h-.51l-1.28-.65-1.86-2.09.12-.55,1.92-2.25ZM135.06,158l1.59.88,1.66,1.78.11.55-1.75,2.11-1.32,1.12-.83.3v-2.64l.29-4Zm-8.19-.15.14.28-.19,2.61-.08,2.46-1.18,1.34h-.14l-13,14.46.18.89L136,217l0,2.31-.23,1-2.81-2.6L110.68,182h-.63L85.78,210.56l-3,1.37-4.84,2.34-.06-.12L92.76,197l-13-21.87.75-4.81h.12l1.19,2.12L94.7,194.27l.42,0Zm-73.45-1.1.11,2-.07,1.94-5.09.15,0,0-4.34.09-1.21-.13,0-3.26.14-.61ZM164.85,156l.59.33,0,3.76-.22.38-10.21.15-.08-.23.17-2.29.29-1.9,4.27-.11.06,0ZM53.23,154.79l.17.35,0,1-10.35.18-.35-.29,0-.77.3-.17,1.28-.07Zm111.88-.54.22.18.11.91-2.46.1-7.2.07-.31-.16.2-.94Zm-99.73-.84h.14l.11.38,1.55,1.6,3,2.27-2.44,2.17-2.47,3.49Zm-26.51-.17.17.34,0,2.11-4.13,2.55v-2.6Zm38.75-.57.84.87v1.21l-.72.64-.92-.09-.72-.67v-.86l.35-.68Zm53.48-1.86h.67l.83.64,0,1.2-.56.65H131l-.73-.52.14-1.42Zm4.81-.33,1.07,1.06,1.78,2.65-.07.49-.56.66-1.8,1.18L135,157l-.09-.63.89-5.86Zm37.21-.75,0,0v2.12l-4,2.62-.09-2.29ZM39,149.35,39,151.49l-4.1,2.5v-2.17Zm126.06-.08.12.2.2-.1,0,4.19-9.61.05.74-3.77.26-.47Zm-114.86,0,2.57,0,.29.54.25,4.06-.16.28-2.5.07,0,0-7.87.21,0-.61L45,152.56l4-3.15ZM73.09,149l.14.3.37,6.14-.38.15-2.67-1.44-1.92-2,.15-.49,1.89-1.61Zm92-1.66.19.27v.94l-1.11.19v-.06l-7.28,0v-.91l.45-.4,3.21-.07Zm-20-.61-1.8,9.59L142,152.93l-2.12-3.09,3.2-1.57,1.71-1.36Zm-92.59-.49.28,2.18-.51.2-2.22,0v-.09l2.32-2.26Zm120.59-1.46v2.66l-1.12.74-2.83,1.7-.14-.2,0-2.23.66-.56Zm-124-.3-.82.09-.72.7-.12.52.14.81.49.45,1.36,0,.74-.87v-1ZM76,143.49l.85,0,.64.7.1.94-.42.83-.62.21-.72-.12-.62-.86,0-1.2Zm83-.7,6.11.11.26.26,0,3.47-3.59.12v-.1l-4.47,0,1.17-3.67Zm-111.9-.19,2.11,0,.09.09h4.84l.2.3-.62.66-5.37,5.43-2.26,1.69-.65.26v-.58L46.63,143Zm85.7-.38h.78l.83.81-.05,1.16-.53.53-1.1-.14-.6-.82.08-.91ZM72.36,142l.06.08.25.74.47,5.19-.3.19L71.4,148l-2.79-1.13-.28-.56.51-.9,1.43-1.67Zm65.72-.27,1.89,1.73.83,1.94-2,1.23-2.28.8-.17-.31,1.38-5.39Zm21.7-.72,5.59.19-.09,1-6.43-.07.29-.86ZM58.57,139.39c6.76,24.92-.21,48.65-15.94,68.53l-.13-1v-6.43A73.79,73.79,0,0,0,56.6,150.89l-1.24-7.61.17-.32,2.83-3.52Zm53.9-.45h.17l4.64,8.06,4.54,8.72L95.21,186.44l-.11-.09-9.77-16.17.69-.79v-.08Zm-49.29-.85,1.14.89,3.82,1.89,0,.19-2.34,2.66-1,1.9-.3.2-.27-2.42L63,138.09Zm49.72-.78-.54.36-2.22,2.5.13.12-26.1,29.77,10.66,17.52h.46L123,155.42l-4-7.12.07,0Zm51.44-.48,1,.15,0,3.47-5.66,0-.2-.16L161,136.9ZM162,135.09l3.16,0,.15.25v.73l-.22.07-3.54,0-.06-.39Zm-22-.24.79,1.09,1.36,2.81.17.43-.6.6-2.2,1-1.48,0,.11-.51,1.05-3.45Zm-65.11-.58.85.25.35.7,0,.93-.42.52-.81.13-.47-.18-.62-.71.23-1.18Zm-17-.83-1.24,1.24.33,1.18.71.52,1.25-.25.68-.8v-1l-.9-.87Zm-18.79-.21v2.39l-.51.49-3.66,2.29v-2.55Zm96.48-.16.55,0,.65.34.5.89-.33,1.09-.56.34h-.81l-.67-.61-.05-1Zm-65.3-.25h.43l.36.85,1,5.21-1-.12L67.54,137l-.27-.54,1.39-2.41Zm80-.61-3.47,9.07-1.17-3.95-1.24-2.07-.26-.67,3.42-.93Zm-36.68-1.4.16.08,10.74,19.63.19-.1-.14.23.21.3,2.77,5.13-.15.08-32,36.69h-.39L81.41,170.28,80.78,169l.43-.48v-.08Zm-8.6-.21,1.08,1-.13.4-1.08,1.1,0-2.23Zm-41.38-.74V130l-.45,1.05-3.45,5.4-4,5.17-.3,0v-8.57l.22-.39Zm101.77-.57,0,5.22-2.95,0v-.42l2.18-3.84ZM91.8,129l0,1.36-.09,1.32h-.13l-1.19-1.81.19-.34Zm-53-.14.3.13,0,2.06L37,132.45l-2.08,1.17v-2.34Zm134.36-.68v2.34l-.13.28-3.84,2.53-.06-.07,0-2.17Zm-68.31-1.66,3.22,2.89L107,130.6l-.56-.18L104.72,129l0-2.23Zm38.94-.58,1.3,1.36.66,1.31.15,1.42-.19.34-1.8.58-1.86.23-.67-.12,2.07-5Zm-52-.16v2.16l-1.86.73-.37-.09-.78-1.42.61-.4Zm-23.35,0,1.22,2.72.93,3.59-.62.2-2,0-1.27-.37-1.24-.68,1.1-2.68Zm3.3-.94h.74l.72.52.27.88-.17.64-.48.41-.91,0-.6-.32-.23-.4-.11-1Zm67.36-.16,1.14.45.2,1.4-.53.77-.92.13-.8-.73-.07-1.06.29-.55Zm-71.54-.81.62,1.49-1,1.1-1.76,2.7L64.12,133v1.61l.92,1.23L67,137.33l2.36,1.36,2.7,1.05.2.34.1,1.25L71,142l-1.88,1.89-2,2.88L66.33,149l0,.64.83,1.82,1.39,1.64,1.89,1.65,3.07,1.51v2.15l-.22.27-2,1.51-1.87,2.1L67.68,165l-.58,1.52.15.79,1.47,3.27L70,172.47l2.13,2.31-.29,1.3-1.48.48-4.06,2.07-1.62,1.6-.74,1.17,0,.87,1,3.25,2.77,5.13-.71,1.8L63,193l-3.65,1.58L58,195.84l0,1.46-.11.12.53,4.33,1.87,4-1.62,2.51-.82-.27-3.09.41-3.8,1.16-.95.64-.17,1,0,2.46.65,3.94.36.19-.14.17L51,219l-1.05,1.31h-.27L49.3,220l-.84-2a20.4,20.4,0,0,1-.27-9.45l1.28-1,4.76-1.47,3.56-.24v-.2l-1.43-3.09-.62-2.63v-3.42l.81-2.33,2.23-1.86L61,191.18l3.72-1,.15-.2-2-3.49-.78-2.62-.34-2.66,1-2.45,2.82-2.4L68.78,175l.23-.3-1.72-2.19-1.61-3.42-.58-2.6.25-1.19,1.07-2.52L68,160.57l2.21-2.11.91-.52.12-.38-.41-.43-2.23-1.26-2.8-3-.77-2-.22-3.09,1.07-2.67.87-1.38L69.18,141l0-.4-2-.73-2.61-1.42-1.59-1.61-.51-.9-.37-1.46.31-1.05,1.06-1.47Zm105.58,0,0,.18v2.43l-3.84,2.76-.2-.1V126.5Zm-81.48-1.17.19.33,0,1.66L88,126.1l-.8-1.34.3-.3Zm13.08-.45.55.38,4.56,4,.19.37-1,1.27-.26.08-4.08-3.43Zm42.49-2.7,1,2,.66,2.41-.4.53-2,.75-2.07,0-.27-.31.53-1.16,2.26-3.93Zm-55.41-.21,0,2.19-4.36,1.9-1,.22-.86-1.36.16-.44Zm-26.42-.56-1,1,0,1.15.73.71.81.13.61-.21.79-1-.19-1-.8-.76Zm39.45-1,7.36,6.55,0,.36L111,125.82l-1.41-1.06-4.91-4.31v-2.72Zm54.18-.59-6.08,9.6-.13,0-.06-1.8-.6-3.42L151,119.27l.27-.16,1.54-.16,4.3-1Zm10.61-.34-.36.12.23.75.38.15.17-.29ZM102,116.72l1.91.16.09,6.62,0,10.63-2,2.3h-.23V122.32l-.07-.07,0-5.36Zm6.68-.11,1.09.84,4.79,4.19-1.39,1.66-.36-.16-5.13-4.51-1.82-1.71Zm-36.31,0L89.9,144.34l-.1.69-8.59,9.54-.06-.1L80,141.73,78,131l-2.52-7.33-3.18-7Zm92.79,0,.13,0,0,7.29-.43.52-3.32,5-3.7,7-2.7,6.88-2.6,9.65-1.22,8.61,0,9.22.76,6.24.78,4.21-2.86,3.49-.38.17,0-.17-.12-.07-1.07-4.49L147.5,174l-.47-5.2.05-7.16c.41-14,6.84-29.59,14.93-40.84Zm-65.32,0h.59l.42.44.12,16,0,4.79L99.66,139l0-3.73-.1-.11.12-.22,0-17.43Zm43.68,0,.92.3.38.8-.24,1-.89.44-1.08-.53,0-1,.35-.68Zm-30-.35v.2l3.15,2.82-1.22,1.42-.34.05-4.41-3.89.25-.2Zm52.73-.06,1,.82-.09,1.18.37.73.82.72-.07,1.43.16,47.16.07,26.44,0,18.46-.34.41.12.22.22-.07-.14,5.21-.13.22.28-.12-.13.26,0,3.3.37.55.21-.08-.12.21,4.38,4.58v3.4l-6.38-6.7-.55-.77v-10.2l-.08-.08,0-5.78,0,0,0-89.69ZM91.64,116l.16.31,0,1.87-.86.2-5.19,2.31-.95.25-.89-1.45.35-.34Zm4.37-.09.62.37,0,23.29h-.12l-1.15-1.83.2-.35,0-15.6.06-5.86Zm20.89-.48v.2l1.46,1.46-.84,1.09h-.32l-.68-.45-1.62-1.52,0-.31Zm-24.29-.2,2.25.61v7.93l-.08,12.72-.17.09-2.16-3.4.07-6.3v-7.72Zm80.55-.91V115l-.29.2.29,2.07-3.86,1.64-1.05-.51-.21-.85.42-.75Zm-52.58,0-.11.41-1.19,1.37h-.21l-.6-.39-.53-.52Zm-32.74-.19,2.66,1.06-.13.12-7.22,3-.48-.61-.37-1ZM70.17,114l-.19.93-1.35,4.34-4,8.91-.37-.39-1.92-8.49Zm98.13-.07-.35.19.4,1.28.46,0v-.76Zm-129-1.13-.06,2.43L34.87,118v-2.41Zm45.3-.34,1.85.86-.7.44-3.64,1.7-.72,0-.74-1.16L81,114Zm87.5-.71-.3.27.52,1.15.44,0,0-.58Zm-19.65-.55.48.61.76,2.15v1.21l-.28.17-1.39.33-2.39.13v-.55Zm14.42-.2-.13.22.6.87.34-.08v-.52l-.45-.49Zm-86.27-.4H81l2,1.08-.2.24L80,113.18l-1-1.76Zm92.53-.15v3.14l-2.08,1.27-2.61,1.29-.77.13-.58-.18-.3-.46,0-1,.71-1Zm-25.69-.93.93,0,.72.93-.11.89-.32.45-1,.13-.66-.44-.24-1Zm-75.19-.35L94.86,145,81.45,160.45l-.13-.15,0-4.59,2.57-2.92h.07l7.22-8-.09-.62L71.57,113.44l-.17-1,.68-3.29Zm36.8-.1.67.35.84,1.21.25,1-.23.38-4.19.31-5.61-.17-3.39-.46-1.94-.43,0-.22,1.23-1.59,1-.32,1.42,1.44,1.58.87,2.42.56,1.84-.11,2.32-.9Zm-53.76-.25L55,110.17l-1.06,2.9-3.86,8-3.9,5.84-2.81,2.92L43,130v-7.83l.23-.65,2.6-2.94Zm57.46-.28.13.24,1.52.86,2.21.46,2.56-.23,0,.11-3.55,1.1-3.88.75-.29-.23.23-1.64.58-1.1Zm58-.09-.08.28.64,1.27.48,0-.1-.77-.63-.73Zm-93.66-.36.2.33,2.26,1.4-.31.37-1.08.25-1.26-2.12ZM166,108l-.4.08,0,.12.52,1.07.44,0-.08-.75ZM39.37,107.9l0,2.63-4.52,2.87v-2.7Zm133.78-1.21v2.86l-.3.3-5.49,3.26-1.48-.15-.22-1.06.36-.76.61-.68Zm-17-.57.31.6.68,2.32.06,1.28-.47.32-1,.22-1.83-.09-.85-.29Zm13.81-.83-.16.26.34,1.5.58,0v-.75ZM124,105.13h.32l1.24.57.74.77-.22.53-5,2.33-.9.14,1.46-.82,1.35-1.41ZM72.87,105l2.51,2.17,5.08,8.29,16.89,26.92.65-.09L122,114l7.7-3.67.56-.53V110l-14.41,16.62.11.35,12,21.75.4.23-.85,5-.13.08L114,129.83l-.74.15-1.9,2L81.05,167.38l-.19-.11,0-.67H81l.29-4.27.6-1.15,12.3-13.88h.06l1.71-2V145l-23.58-37.4.34-2.51Zm86.69-.27.48.25,3.89,3.07,0,1.66.56,1-1.17,1.14-2.74,3.37-.14-.28.1-.42,0-4.12-.57-3.9-.59-1.73Zm-60.47-.24,2.48,1.36,1.83,1.76.54,0,.51-.75,2.32-1.64.11,1-.59,1.55-1.41,1.18-2.3.21-1.13-.39L100,107.56l-.62-1.25Zm58.82-.4.3.16.76,1.56.86,3.62.12,3.19-.31,3.26-1.17.85L154.58,118l-2.16.35-2.39.13-.05.38.48.71,1.34,3.17.36,2.87-.13,3.18-1,1.61-1.11,1L147,133.16l-3.83,1-.17.2,1.84,3.32,1.09,3.14.25,2.27-.55,2-2.5,2.54-4.13,2c6,7.64,5,11.36-2.14,17.22l.35.37,2.05,1.2,2.09,1.93,1.12,1.48c2.46,4.5-.1,8.77-3.42,12l4.16,1.95,1.75,1.51.8,1.09.45,1.62-.24.93-1.13,1.57L141,200.1l-.35.31-.59-.84.08-.45,1.88-2.35,2.06-4.57.05-2.46-.72-1-1.31-1.17-3-1.84-2.83-1.13-.26-.52-.09-1.06,1.43-.75,2.57-2.89,1.22-2,.74-2.14c-.48-3.65-4.17-6.1-7.32-7.24l.08-2.24,2.47-2,1.84-2.16,2-3,.08-.95-.73-1.94L139,153.22l-1.86-2.47-1.2-1.06.11-1.1.2-.33,1.66-.62,3.28-1.61,2.15-1.87.74-1.18-.25-1.89-1.74-4.31-1.93-3,.81-1.9,2.34-.26,3.15-.84,2.3-1.17,1.11-1,.06-2.53-.48-3.39-1.87-4,1.54-2.48,2.64.11,5.11-1.34,1-.84.15-1.75-.25-3.65-.94-3.43ZM97.81,104l.63.39c-.85,6.28,9.87,8.08,9.17.37l1.45-.42.22.59-.21,1.92-.8,2-1.5,1.55-2.26.93-2.18,0-1.61-.39L98,108.72l-.69-2.11.16-2.47Zm-28-.22-.63.3-.22,1,.42.78.81-.07.67-.62.17-1-.48-.42ZM83,103.64l1.28,2.42,1.53,1.5,2.4,1.24,2.71.2,2.92-.78.46.36.41,1.31L94.58,111h-.69l-5.83-2-4.07-2L80.58,105l.74-.73Zm90-.25.11.18v2.37L166.09,110l-.91.1-.51-.29-.06-.7.55-.93,1.4-1.14Zm-21.14-.15h.5l1.06.72.14,1-.45,1-1.36,0-.75-.78,0-1.3Zm-20.47-.07,0,.12-.85.74-2.8,1.85-.76.44-.23-.76V104l.3-.49,2.16.09Zm-10.7-1.84.27.53.15,1.17-.21,1.76-.64,1.08-.92.81-2.27.65-1.71-.48-1.49-1.1-1-1.39.16-.49,2.83.49,2.56,1.24.12-.18.77-2.39Zm-58.42,0,.12.24-1.22,6.53-.45.53-.21.91-2.39,6.94-1.57,3.8-1.7,3.16L52,128.07l-3.61,4.67-5,5-.46.06-.09-.66,0-3.09c8.45-6.73,14-18.9,16.35-29.34Zm13-.54.21,0,.09.1,2.87.6,1.34-.2.18.34.18,1.78-.15.93-.2.12-1-.65-3.32-2.65Zm47.15-.53.62,1,.19,2.67-.41,1.93-.75,1.28-2,1.69c-3.94,1.69-8.24,0-9.38-4.35l.18-.32,1.14-.12c1.25,3.2,4.24,4.76,7.5,3.42l1.45-1.2.76-1.39.12-1.75-.41-2,.22-.42Zm-36.29-.47.55.3,1.78,1.81,1,2.54.25.07,1-.42,2.57-.5.41.44-1,1-1.15.68-1.82.23-2.19-.83-1.58-1.9-.33-1.77L86,99.86Zm-1.82-1,.46,0,.38.57-.19,2,.36,1.89,1,1.49,1,.9,2,.82,2.52,0,1.66-1,1.51-2,1.15.24-.21,1-.87,1.36-2.2,1.57-1.94.48-2.57-.13-2.09-1-1.86-1.84-.84-2.42,0-1.81Zm-13-.63.59.74.22,2.47-.48,4.73-1.06,6.67-.26.14-1.34-2.39-3-6.6,4.86-5.3ZM173,98l.14.27v2.46l-.41.41L168.93,104l-.2-.12,0-2.75Zm-37.63-.2.91.52.17.35-1.08,1.25-1,.81Zm5.67,0h1V98l-.9,1.36-3.7,4.06-4.61,3.7-5.25,3.42-5.82,2.62a48.88,48.88,0,0,1-35.9-.74l-8-4.37L74,105l-1.23-1.21-.08-1.2.14-.46,0-2,6.64,5.3,5.93,3.43c18.08,8.44,39.7,4.47,53.06-10.92ZM133,97.2l1.29.31.19.18-.06,1.18-.73,1.46-1.14,1.28-2.09,1.13L128,103l-2.38-.86L123.6,100l.26-.65h.19l2,1.51,1.81.63,2.27-.18,1-.57,1.22-1.46Zm12.74-.33c-7.07,10.3-17.72,19.72-25,29.67l.16.57,8.56,15.21.1.68-.95,3.55-.39.36L117,126.73,133.23,108l5.67-4.94L144,97.43Zm-42.56-.55,3.09,3.81-.13.11-3.9,0L101,100l.13-.49Zm-6-.1h.66l1.55,3.48-.06.11L95.71,99l-.62-.35L95.5,98Zm32.38-.15,2.64,1v1l-.93,1.62-1.49,1-2.59,0-1.39-.72-.87-.8.32-.24,2.26-.37,1.81.28.33-.24-.39-2.14Zm-20.28,0,2.64,2.47.71.79,0,.12-2.43.49-2.61.21ZM93,96l2.74.32-.06.32-1.47,1.75-.56-.09-.23-.43L93,96Zm54.65-.11,2.59,1.9,1.86,1.42a75.64,75.64,0,0,0-14.83,22.92l-.13,0L134,129.29l-3.87,11.89H130l-8.19-14.63,4.8-5.36L135.1,111l.13,0,12-14.28-.13-.11Zm-39.32-.33.11.21-1.42,3.77-.14,0L103.83,96l.34-.24Zm-7.87-.21,2,.38L100.63,99l-.43.39-1.66-3.32Zm-27-.56.41,0,0,.14,3.74.87.22.46,0,1.41,2.27,0,.72.19.08.14-1.22.56-1.55,0-1.35-.32-1.88-1.2-1.21-1.6Zm17.41-.09h.25l.81.55.26.5.42,2-.21.11-3.21-1.5-.07-.29,1.58-1Zm23.94,0L118.58,97l-.23.29-1.83.88-2.64.89v-.53Zm-43.77-.18v.26l.42.67v1.63l-6.41,6.56,1.73,4.27,2.56,4.67.22.71-.49.48-7.49,5-.07.53,2.15,9.34-.11.28-8.75,3.28-.2.84-.08,8.84-.26.12-7.85,0-.44.24-1.48,9.4-.37.54-1.29.84-.07-.08v-3.36L44.15,142l2-1.87.83.08,5.53.07.37-.12.13-.43,0-7.18,1.16-1.68,7.35-2.74.38-.53-1.65-7,1.63-3.9L62.9,116l.18-.32.2.11,3.85-2.69.08-.59-1-1.88L63,103.32l.76-1.09,4.53-4.79.43-.68Zm43-.19-.83,4-.57-.16-2.79-2.65.06-.09,2.11-.5ZM72.4,94.25l1,2.17L75,98l1.7,1,1.63.32,2.08-.2,2.2-1.21.14,0,.19.64L81.57,100l-1.1.45-2.18.36-1.61-.29-1.92-.77-1-.93-1-2.08-.46-2.45ZM125.67,94l1.73,1c-9.31,9.42-26.34,11-37.89,5.07l-5.93-3.61-1.19-1.18,2-.88a33.56,33.56,0,0,0,36.17,3Zm47.49-.78,0,2.52-4.06,3.12-.37-.21,0-2.22ZM35,92.85l7.4,7.82c-.47,35.77-.23,71.7-.83,107.46h-.25l-.92-.57.19-.77-.15-.9-1-.93c.38-34.37,0-68.8.76-103.21l-5.37-5.43V92.91Zm104.52-.07h0Zm-51.43-.7,2,2v.4l-1.28.88-.4.07-.42-3.28ZM120.57,92l3.87,1.35-.87.85-3.37,2.31-.39-.09.58-4.42Zm-33.24-.19.38,3.57-2.07-1.29-.13-.35Zm32.12,0,.13.24-.5,4.08h-.44l-.74-.58-2.11-1.2-.41-.44Zm2.27-1.58,2.06,2-.06.08-3.23-1,.21-.42Zm-27.86-.5-1.41.36-1,.84.15.15L93,90.35l1.8,0,1.09.38.44-.05,0-.13-1-.63-1.32-.26Zm-7.78-.18.86,1.17-.08.56L84.8,93.17l-.66.31L85.51,91l.4-1.35Zm34.23-1.11.68.86-.52.81-4.11,2.5-4.82,1.68-4.64.65-4.48-.06.28-.27,2.54-1.21,2.6-.19,4.64-.93,3.88-1.6Zm45.77,0L168,89.51c0,5.23.09,10.58.06,15.84l-1.82,1.21-.21-.07v-1.85h-.08l0-16.11Zm-46.61-1.25.42.49-.68.73-3.53,2-4.05,1.45-4.66.9v-.23l.56-.5,1.63-1,2-.33,4.74-1.54ZM90,87.08l.17.6,1.51.64,2.13,0,2-.69-.14-.5-1.26.51L92,87.79Zm-5.49-.14.93,1.54-.2,1.26-.74,1.92-1.65,2-1.91,1L79,94.82v0l2-1,1.82-2,1-1.89Zm34.32-1.08.22.57-1.34.95L114.9,88.7l-4.42,1.49v-.3l1.4-1.31,1.07-.19,3.73-1.34Zm-.53-1.35.18.61-.26.46-3.86,1.72-1.4.28L114.32,86l.76-.11Zm-44.1-.78h1.12l2.12.83.72,1.28.14,1.49-.42,1.52-1.54,1L75,89.59,74.3,89,74,88.15l.3-1,.84-.51h.43l1.27.76L77,87l0-.81-.6-.73-1.45-.6-1.8.39c-6.6,7,9.92,13.28,9.22-.61l1-.23.36.74.15,1.58-.51,3-1.25,2.27L80.4,93.43l-2.6.94-2.58.06c-4.76-.9-6.59-6.76-3.08-9.92Zm6.3-.22,1.21.93,0,1.81-.63,3-1.39,2L78.54,92l-1.32.38-1.7-.11-1.23-.44-.9-.7-1-1.77,0-1.41.39-1.31.72-.88,1.19-.46,1,.41.15.27-1.48.1-.91,1.05-.13,1.43.42,1.19.73.67,1.06.39,2.18,0,1.73-1.28,1-2.35Zm37.21-.42.32.37-.1.49-2.52,1.1-.07-.24.76-1.06ZM90.86,83l-.45,1.06-1.88,1.1-.38-.2-.6-.71h-.34l-.15,1.46-.42.81.15.3.71,0L90.35,86H91v.18l2.23.37,2.39-.68h.49v.16l2.7.54,1.11.48h.51v-.47L99.15,84.3H99l-.84.68-1.33-.36L94,83.19l-.61.11-.62.64h-.31Zm26.6-1.33v.77l-.61.12Zm-35.07-.32.8,2.37-1.35-.06-.63-.62,0-.77.38-.61Zm22.41-1.59-.92.52-.31.71.22.4.37-.08.46-.55,1-.18.69.71-.22,1-.91.43-1.6,0-1.13-.35-4.73-2.26L96.12,80l-1.36.45-.49,1,.35.51.81.32L98,82l1.93.3,3.72,1.42,1.71,0,1-.36.87-1L107,80.62l-1.13-.84ZM96.71,74.3l-1.37.23-.33.74h.53l.48-.4,1.1.17.54.71.06.91-.56.63-1.48-.1-2.56-1.56h-.56l-.64.4-.08.55.4.51,2.92.73,2.31,0,.77-.59.24-.66-.15-1.21-.67-.77Zm60.48-.93,5.61,3.27,5.84,2.49,4.47,1.22,0,.44v6.39c-5.15-1.47-13.48-8.87-16.11-13.69Zm-60.34-6-.22.66.56.11,1.57.94,3.11,3.2.51.13v-.29L99,68.49,97.1,67.36Zm9.49-2.46,2,1.09-.79.85-1.13.6-2.24.41-.62-.11,1.46-.62Zm44.2-.14,4,3.14,5.33,3.39,4.23,2.13,6,2.08,3,.66.14.14v3l-.12.12-1.11-.08-3.47-1-4.39-1.84L161.26,75l-5.56-3.42h-.31l-.08.42.39.83L157.91,76l4,4.59,4.53,3.73,3.26,2.1,3.5,1.72v3l-.2.16L169,89.45l-4.68-3.14-5-4.71L155,75.8l-2.41-4.89L151,66.44ZM90,64.38l1.15.51-.08.71-2.72,1.57L89.49,66ZM88.82,64h.44l-.1,1.46-1,1-.73.25-1.53,0-1.2-.67-.45-1.44h.26v.22l.81.92,1.11.33,1-.09.76-.44ZM99,63.94l.27,1.88,1.24,1.43L99,66.77l-2.22-.18-.25-.18V66l.68-1Zm.89,0h.35l.1.91.5.87.9.68,1.3.08,1.08-.41.89-1.69.51.14v.57l-1,1.58-1.11.43-1.41,0-1.12-.36-1.17-1.54Zm73.3-.42v2.92L168.65,70l-.1-.59,0-2,.21-.37Zm-92.86-1,.31.39.48,2.9L81,71.66,81.25,76l.85,4.72-.53.22-.28-.16-.74-3.07-.62-5.11-.15-4.45Zm15-.82-.09.53,1.64,2-1.06,1.69v1l.55.39,1.7-.07,4.21,1.07,3.16,0,1.75-.49,2-1.65,1.58.12.54-.48v-.46l-7.1-2.91-3.56-.33-3.54.84-.85-.35-.73-.89Zm6.22-1.06L99.73,61l-2.39,1-.07.24.26.12L99.09,62l3.25-.35,1.49.17,2.22.64,4,2.16.12-.4-.3-.32-3.32-2-3.93-1.23Zm-21.8-2.26h.17L80.12,61l-.69,3.89-.08,5.55.06,4,1.07,5.83.36,1.07-.23.12-.34.92L80,81.64l-1.2-5.79-.86-6.44.56-6.86Zm15.72-.73-.09.31c2.84,2.8,7.16,1.66,10.64,1.51l2.52.77,2.34,1.8.43.06.11-.22-1.47-1.71L106,58l-3.78-.32v.24l-4.49.2Zm-8.65-.53-2.86.52-1.46.91-1.4,1.86,0,.11.46.18,1.4-.95,2-.65,2.44,0,2.28.93L91,61.33l.3.88L87.1,61.3,84,62v.43l.33.09.85-.41,2.08-.35,2.08.36,2,.84-.18.33L88,62.38H86.82l-2.69.55-.67-.06-1.34-1-.15.44.8,1.56-.71,1.49.17.29.4.11,1-.68.84,1.35.91.64-.06.12-2.61-.93-.51-.1-.32.38.16.19,1.11.13,1.67.7,1.74.25,2.68-.19-3.35,3.58.13.15.51-.23,1.77-1.45,2.13-2.37-.11-.61.32.43-.33,1.66L87.5,76.4l.29.42,2.4,1L92,79.15l.41,1,.42.16v-.91l-1.08-1.58-3.26-1.77L92,65.25V62.1l-1-2.51L89.8,58.25ZM136.1,57l1.05.42.39.5.58,2.61,1.58,9.64,2,18.49,1.36,1.59,1.15.54,2,0,.54-.17.77-.66.65-1,.17-.93-.48-1.28-1.49-1-1.54.37-.55,1-.05-.58.38-1,.88-.53,1.19-.15,1.91,1.27c1.9,2.8,0,6.93-4.31,5.44l-1.38-.8-1.12-1.19L140.93,88l-1.05-4.72-2.61-18.66-1.41-7.42Zm-2.54-.48,1.46.33.27.56,1.51,7.62,1.53,11.32,1.56,10.25,1.21,3.14,1.73,1.79,1.79.76,2.47.18,1.39-.74,1-1,.51-1.23,0-2.26-.56-1.14L148.2,85l-1.46-.68h-1.12l-1.15.43-.76,1.12-.16,1.24.36,1.15.82.41.22-.39.12-1.3.83-.51.76.17.73.73.19.88-.28,1.23-1.29.76h-1.52l-1.13-.51-.83-1.34-.23-1.71.59-2,.94-1L145,83l2.31-.24v.1c4.59,1.27,5.27,6.87,2.47,10.29l-.39-.22-2,1-2.6,0L143,93.09l-1.62-1.56-1.29-2L138.82,86l-.72-3.55-2.49-15.81Zm-4.62-1,1.7.4,1,3.31L133,67l1.67,12.43L136.71,88,138,91.31l1,1.4.47.08.13.56,2,1.59,1.83.64,1.92.09.65-.2-.08-.23-.75-.27h-1.76l-1.65-.57-2-1.63h-.18l.11-.2-.85-1.07-1.75-4.69-1.14-4.7-1.09-6L133,63l-1.48-6.88,1.33.32.69,2.44,1.16,5.83,3.12,19.88L139.63,90l1.6,2.27L143.3,94l2.34.77,1.61,0,1.87-1-.34.47-1.71,1.18-3.41.88-1.78-.15-1.62-.64-1.61-1.27-2.15-2.9-2.28-6.46-1.66-7.41-2.69-17.1-1.09-4.71ZM126,55l2,.37.73,2.06,1.15,6.62-.06.07,2.91,17,1.8,6.51,1.4,3.58,2.29,3.43,2.17,1.59.83.39-.37.17-1.8,0-1.73-1L135.8,94l-1.59-3-1.83-4.65-2.08-7.72-2.74-17.35Zm-2.75-.45h.51l1.56.4c3.66,11.8,2.67,23.67,7.94,35.56l.26-.12-.13.23.59,1.51,2.1,3.12,1.65,1.52-1.38,0-2.13-1.61-2-3.28-2.56-6.16-1.88-7.31-2.46-16Zm-2.49-.41,1.76.28,1.23,3.9,1.6,7.71.2,1.93,1.28,8.4,1.45,6.84,2.59,7.17L132,92.82l1.08,1.7,2,2h-.93l-1.74-1.21-1.06-1.08-1.11-1.78-2.5-5.42-1.68-7-3-18.07Zm-2.31-.35.14.08,1.48.16-.07.13.65,1.64,2.07,7.88,2.82,16.88L127,86.62l2.5,6,1.5,2.15,1.15,1.06,0,.06L131,95.7l-2.56-2.48c-6.84-11.86-4.72-26.83-10.12-39.1Zm-2.23-.21,1.05.21.46.48,1.76,4.51,1.6,7c1.5,8,2,21.77,7.82,28.69l-.1.2-1.78-1.06-.23-.51-1.14-1.42-1.7-3.2-1.16-4.18L118.61,61l-2.46-7Zm-2.32-.09h1.24l.33.37,1.71,4.64,1.46,5.72,1,6.48,2.66,14.72.29-.13-.2.31L123.54,89l1.64,3.17H125l-.49-.36-1.78-2.6L121,85.7,120,82l-3.14-19.34Zm-2.29-.14,1.49,0,1.49,3.8,1.69,6.22,2.62,15.89L120,84.67l1.77,4.13-.19.08-2-3.19-1.51-4.23-3.84-20.91-2-5.65-.74-1.16Zm-3.64-.1,2.51.17L112,55.91l1.56,5.17,1,4.56L117,80.81l-3,4.6-4.59,4.46-5.29,3.36c-10.45,5.65-15.53.82-20.08-8.84l.68-.49,2.56-1.33L90.15,82l.63-.32-.14-1.18c-2.7-2-4.49,2.48-6.71,3l-.15-.1L83.29,82l.34-.75L83,80.71l-.5-1.55-.77-6.27.05-6.65L80.59,59.3l0-2.46.25-.22,1.25-.41,4.2-1,6.2-1,4.29-.41Zm65.14-6.33,0,.14v2.54l-.14.26-5.24,4.46,0,1.86h.08l-.08,16.68.11.87.31.18.37-.22.15-1.26.36-.37,4.1-3.2v2.95l-3.25,2.56h-.74l-2-.6-1.47-.58-.11-19.74,3.54-3.2Zm-17-9.84,15.77.1,1.27.11,0,.19V45.8L164.76,53l0,10.1,0,9.52-.26.15-5.7-2.91-6.09-4.18-2.41-2.14-.5-.2-.23.41.31,2.15,1.56,4.48,2.5,5.2,2.63,3.92,4.66,5.06,3.84,3.1.08,15.2v4l-.23.37-.52.06L148.52,95.5l2.14-2.08.91-1.64.53-2,0-2.09-.68-2.35c-1.92-3.46-7-4.48-9.38-.84l-2.28-19L138.14,57l.2-1.13,1.54-3.57,2.5-4.46,3.12-4.71,4.82-6Zm-7.09,0v.09l-1.73,2-5.75,8.32-2.32,4-1.28,2.7-.66,2.24-.3.17-2.61-.73a110.56,110.56,0,0,0-53.83,0L78.43,52,70.37,40.29l-2.72-3.2Zm-82.53,0,4,4.72,5.32,7.57,4.1,6.81c-2.41,4.56-2.66,11.14-2.38,16.21L79.88,85l-.39,2.81-1,1.62-.39.16,0,0,.24-.22.59-1.12.17-2.09-.8-1.53-.24-.37-1.13-.72-1.66-.46-1.53,0-2.16,1.06-1.3,1.69-.6,2.42.14,2.25L70.4,92l-27,28L43,120l.13-19.69-8.28-8.64,0-53.57.1-1ZM33.94,290.15H174.1v-254H33.94Z"/><polyline class="cls-6" points="70.37 267.62 69.98 269.27 69.68 269.45 69.78 269.65 69.17 270.49 69.12 271.34 68.78 271.79 69.23 271.91 69.31 272.03 72.7 273.09 79.86 274.47 90.44 275.41 98.7 275.76 99.01 275.48 98.84 275.79 103.43 275.86 113.46 275.29 122.4 273.73 129.09 272.02 129.13 271.63 127.48 268.46 126.78 268.6 126.8 268.72 119.56 270.26 112.04 271.15 101.17 271.52 101.13 271.42 92.49 271.42 86.69 270.85 85.11 270.5 84.77 270.5 84.72 270.39 79.92 269.78 73.23 268.31"/><path class="cls-6" d="M62.22,216.67h-.13L61,218.29l.06.29h.32l1.55-.77-.42-.43m3.41-6.83h-.18l.09.18-1.27,2,.09.53.65.49.13,1.93-.57,0-.13-2h-.64l-1,1.4-.39,1,.44.88.67.42.89.07,1-.85.47-1.26.11-1.65ZM70.62,202l-.8,1.63.38.45.88-.22-.4-1.86Zm7.54-21.38-4.24,12.56-2.26,6.16,1.53-.38.68.15,1,.79.09,1.55-.72,1.15-.8.13.84-1.41,0-.9-.45-.68-.88-.22-.75.58-.25,1.4-.12,1.36.42,1.54.91.85c7.81-.15-1.92-12.72,6.31-13.39V192c6.28,2-.89,7.71-.76,2.79l.25-.18.69.94h1l.64-.43.19-.79-.51-.75-1.41-.7H78.37l-1.62,1.38c-.54,3.68,3.07,11.91-3.63,11.83l0,2.41-.57,1.13-1,.81-1,.32H69.17l-.77-.52-.33-1,.25-1.61.55-.66.95-.37.73.52-.36.18-.29-.23-.72.37-.55.73-.17,1,.42.72.67.27,1.74-.28,1-1.29.13-2.31-.8-1.2-1.32-.37-1.4.59c-5.38,6.34,2.42,11.55-7.53,14.18l-.93.53-1.7,1.51-.29,1,.45.9.45.32h.93l.41-.41.57-1.46.38.21,0,.11-.57,1.55-.72.56-1.33.26-.61-.25-.84-1.3-.1-1L55,225.35l4.49,3.56.9-.36,22-26.37,4-4.43.47-.29v-.39l.95-1.07v-.4l-9.12-14.84Zm45.43-4.84h.74l1.57,1.59.33,2.26-1.09,4.63-.19,2.11.22.42.52-.08.25-1.09h.22l.41.45,0,1-.47.38-1-.12-.56-1-.09-2,1-3.2.18-2.34-.4-1.4-.75-.85h-.78l-.51.32-1,2.24.33,1.64.56.51.54-.14.61-2.15.29.77v1.1l-.53,1.06h-1.23l-.73-.69-.45-1.3.11-1.88,1-1.72Zm3.66-6.35-9.8,10.9,5.21,8.18-.18.12,14.41,22.57.36-.23v-.67l-1.94-4.52-2.42-7.18-.95-2.72c-2.93-8.49-4-17.48-4.63-26.41Zm-28.58-2.2.3.25V168l-.63,4.34-.24.51-4,.29-.25-.24.73-5.13Zm7.24-7.79.22.28-.77,5.86-4.89.36-.17-.3.71-4.9.31-.82,1-.19v.09Zm6.57-6.91.17.3-.56,4.89-.25.28-4.6.34-.15-.16v-.71l.74-4.36.37-.23Zm-1.49-7L90.14,169.09l0,.4,5.33,9.33h.51l20.21-23.14.11-.84-4.82-9.09Zm.29-2,.27.23,6,11.43-.35.69-21.5,24.83-.36-.1-6.19-11v-.82Zm1.61-5.11-1.09.85-1,1.07v0c-8.78,9.92-17.39,19.77-26.1,29.77l5,8,.3.81.39.41L92.15,182l-.1.07,3.07,5,27.12-31.31Zm-30.84-1,1,.15.64,1.17v1.87l-.92,3-.21,2.34.29,1.22.66,1h1.34l1-2.06v-1.33l-.65-1.19h-.37l-.57.86-.17,1.29-.2.1-.33-1.32.36-1.12.51-.57,1.28.25.81,1.49.07,1.53-.39,1.36-.89,1.29-1,.41-.8-.1-1.44-1.76-.23-2,1-4.4.22-2.38-.29-.35-.49.12-.12,1-.29.06-.45-.4.09-.94Zm56-17.91-.89.26.37,1.95.47-.13.85-1.6-.12-.21-.39,0Zm-66.84-5.74-.29.37.06.89,1.83,4.07,1.83,5.29.07.63.19.22,1,2.84-.05.16.17.21,1.76,5.8L79,140.07l.6,3.87.1,1.16.81,5.7.26,4.51H81l.64-.63-.09-.09,9-10-.33-.66L88,140.52l-4.86-8.11Zm72.63-7.68-1.1.89-.44.88-.34,1.68.4,3.4.28.07.39-.43.82-1.59-.16-.54-.73-.84-.06-1.63.38-.27.19.41,0,1.81,1-.09.9-1,.23-1-.66-1.26Zm3.42-1.19-1.76.82.66,1.22h.38l.94-1.19.07-.4-.19-.08Zm.21-9.32-17.5,20.83-3,3.78-5.59,6.06.22.31,0,.76,1.66,2.95,0,.14,5,8.75.7,1.46L130,142l.6-.1.81-3.18.77-2.48,3-8.83,1.49-3.38-.57.37-1.63.15-.89-.48-.47-.93.19-1.4.81-1h.48v.24l-.74,1.15v1l.3-.14-.1.18.1.43.8.45.85-.44.4-1.11.08-2-.39-1.39-1-.93h-.6l-1.2.48-1,1.38-.35,1.62.59,5.88-.42,2.19-1.35,1.58-1.91.28-1.39-.6-.76-.81-.34-1.39.52-1.25,1.36-.7.93.22.51.77-.11,1.13-.35-.24-.22-.47-.68-.4-1.1.36-.35,1.08.78.88,1.14.45,1.44-.09,1.26-1,.22-1.12c-.22-3.26-2.58-11.19,3.49-10.88l.11-.2,0-1.78.29-1.2.87-1,.49.4-.27-.49c3.09-1.88,4.84,1,2.94,3.41l-1.22.19-.4-.4.08-.16,1,.12.88-1.14v-1.06l-.23-.43-1.09-.42-1.54.48-.12-.06-.25.6-.1,0-.5,1v1.85l.18-.09-.15.26.78,1.17,1.45.25,1.23-.51,1.59-2.69.5-1.79V109l.4-1.39.94-1.57,1.77-1.12,2.78-.9,2.22-1.84.34-.85,0-.65-.88-1h-.56l-.65.42-.66,1.5-.32-.07v-.67l.58-1.19,1.22-.67h1l.46.44.72,1.1.1.89.28.07.75-.69,1.25-1.54L148,95.67Z"/><path class="cls-6" d="M107.05,48l-9.88.26L89,49.21l-3.46.58L78.3,51.44l-.44.45.64,1.17,1.75,3.36c8.13-1.23,16.66-3.4,25.11-3.28l8.24.17,5.28.35,8.27,1.27,7.8,1.83,2.25.31.62-.4.07-.84,1.39-3.49-.11-.25L128,50l-6.73-.88-10.39-1"/><path class="cls-3" d="M37.42,67.46A127.93,127.93,0,0,1,54.93,93,126.58,126.58,0,0,1,72.45,67.46,126.86,126.86,0,0,1,54.93,42a131.16,131.16,0,0,1-16.1,23.92"/><path class="cls-3" d="M135,258.81a128.34,128.34,0,0,1,17.52,25.5A126.89,126.89,0,0,1,170,258.81a126.47,126.47,0,0,1-17.51-25.48,132.07,132.07,0,0,1-16.11,23.92"/><path d="M172.12,38.14v250H36v-250H172.12m2-2H34v254H174.12v-254Z"/></g></g></svg>