<svg xmlns="http://www.w3.org/2000/svg" viewBox="0 0 208 326"><defs><style>.cls-1{fill:#fff;}.cls-2{fill:#6f7072;}.cls-3{fill:#f72014;}.cls-4{fill:#0087c5;}.cls-5{fill:#faca1f;}</style></defs><title>JH-fr-2c</title><g id="Calque_2" data-name="Calque 2"><g id="FR_-_EN" data-name="FR - EN"><path class="cls-1" d="M14.83,325A13.84,13.84,0,0,1,1,311.18V14.82A13.84,13.84,0,0,1,14.83,1H193.17A13.84,13.84,0,0,1,207,14.82V311.18A13.84,13.84,0,0,1,193.17,325Z"/><path class="cls-2" d="M193.17,2A12.84,12.84,0,0,1,206,14.82V311.18A12.84,12.84,0,0,1,193.17,324H14.83A12.84,12.84,0,0,1,2,311.18V14.82A12.84,12.84,0,0,1,14.83,2H193.17m0-2H14.83A14.83,14.83,0,0,0,0,14.82V311.18A14.82,14.82,0,0,0,14.83,326H193.17A14.83,14.83,0,0,0,208,311.18V14.82A14.83,14.83,0,0,0,193.17,0Z"/><path d="M198.24,131.73v-.45a124.36,124.36,0,0,0-8.83-12.53c-5.16-6.3-10.76-12.12-16.38-17.92-.14,0-.16-.06-.17-.16A16.07,16.07,0,0,1,170,98.61c-1.77-1.87-4-3.28-5.81-5.09C162,92,160,90.18,157.92,88.44h-.16A6,6,0,0,1,156.09,87h-.16c-1.63-1.74-4.76-1.9-4.84-5.28a.86.86,0,0,1,0-.16c-1.63-1.89-2.13-3.94-4-5.46-.06-.22-.29-.26-.34-.49-.59-.43-1.63-1.29-1.66-1.76,0-.14-.07-.15-.17-.15-.44.08-.17-.61-.5-.65-1.16-.57-2.63-1.69-2.83-2.71h.16c2-1.62,3.1,1.83,5.55.84-.76-1-2.06-1.51-2.35-3-.14,0-.15-.06-.17-.16-.29-.48-.85-.66-1.32-.94-1.76-.78-2.69.58-4.54.92-1.19-1.87-.8-3.9-2.42-6,2.24-.59,3.38,2.51,4.94,2.17-.09-.68-.7-.83-1-1.28-.14-4-5-3.11-5.69-6.57,1.54,1,2,2.43,4,2.69,1.1.14,2.58-.56,3.58.07a.67.67,0,0,0,.15-.49c-.26-.39-.79-.51-1-1-1.1-.42-3-.39-3.3-2,1.4.65,2.59.47,3.4-.74a1.21,1.21,0,0,0-.5-.31c-.11.13-.9.38-1,0-1.4-1.08-2.62-3.44-5-2.5a2.84,2.84,0,0,1,1.1-1.66c1.86,0,2.29,1.23,4.08.22a33.1,33.1,0,0,0-3.81-2.85l-1.31,0a1.12,1.12,0,0,1-1.95-.28c-.65-.49-1.45-.81-2.15-1.26A2.77,2.77,0,0,1,129.4,46a26.16,26.16,0,0,0,1.4-2.49,7.19,7.19,0,0,0-.24-2.94A7,7,0,0,0,128.39,38c.68-1.27,1.54-2.36,2.19-3.66s.47-3.72,1.33-5.27c-.07-.33.1-.43.15-.65.34-.79.38-1.87.75-2.64,0-.16,0-.33,0-.49.27-.38.12-1.16.45-1.48v-.17c1-1.29-.64-1.9-1.37-2.41h-.16c-.63.88-1.5-.71-2.12-.27-1-.44-3.26-2.27-4.29-2.68-.08,0-.31.27-.49.18-2-1.14-4.76-3.31-6.61-4.42-.62-.38-2.13-.94-3-1.51h-.11l-.48-.33-13.12.33-.4.12c-.46.11-1,.14-1.13,0h-.16a5.55,5.55,0,0,1-2.59.39H97c-.42.39-1.56.09-2.27.22h-.16a20.59,20.59,0,0,1-6.18.31,1,1,0,0,1-1.14,0,1,1,0,0,0,0,.17c-.8-.28-2.34.23-2.78-.43-3.11-1.2-4.36.54-6.13,2.12-2.19,2-4.34,4.28-6.54,5.55a16.61,16.61,0,0,1-2.56,1.86h-.16c-.44.7-1.36.94-2.08,1.36-.24.26-.68.31-.8.68.48,1.29,2.09,1.84,3.16,2.86a25.83,25.83,0,0,1,3.36,4.5c1.67,2.62,3.06,4.37,2.81,8.28A6.64,6.64,0,0,1,75.92,42c.91,2.62,2.94,7.36.39,9.31-.36.78-1.48.83-2.42,1-.64.6-1.43.63-1.92,1.19-1.47,1.65-.39,4-.51,5.74-.19,0-.29,0-.33-.16a6.76,6.76,0,0,1-1.78.37c-3.19.52-2.53,4-4.42,5.51-.75,1.27-.71,3.27-2.69,3.34-3.76,1.27-7.36,3-11.13,4-.78.22-1.61.83-2.41,1-1.35.34-2.84.63-3.86,1.89-.29,1.25-1.44,2.55-1.37,4.13-1,.94-2.73,1.74-3.83,3-.32.39-.52.89-1.11,1-.3.68-1.07.9-1.43,1.51-5,5.6-8.18,13.9-14.69,18.52a.86.86,0,0,1,0,.16l-2,.05c.17-.2.13-.34-.17-.32a5.46,5.46,0,0,0-2.76.23c-3.47,3.18-5.31,8-7.65,12.26L8.8,117v18.39L9,193.06l.81,1.14v.48c1.59,1.89,2.65,4.74,4.11,6.92a62.76,62.76,0,0,0,5.36,6.73c0,.16,0,.32,0,.48,1.55,1.6,2.9,3.42,4.35,5.13.34,0,.34.43.51.65.38.1.44.53.82.63,0,.05,0,.11,0,.16v.16c2.6,2.4,4.92,5.1,7.51,7.51a15.92,15.92,0,0,1,2.33,2.24c2.12,1.33,3.65,3.3,5.65,4.76a6.73,6.73,0,0,1,1.33,1.28c3.24,2.95,6.83,5.54,10.13,8.43a.79.79,0,0,1,.5.48c1.42,1.63,4.51,1.5,4.51,4.63a5.18,5.18,0,0,1,.69,1.62c.34.59.87,1,1.18,1.61.36.12.42.56.66.8A12.21,12.21,0,0,0,60.62,250c1.93,2.16,3.93,4.24,5.85,6.4-2,1.38-3.26-1.78-5.06-.53-.31.35.08.32.18.65,1.57.58,1.39,3,3.18,3.36,2.29.41,3-1.39,5-.77a12.26,12.26,0,0,0,1.93,5.67c-2.53.27-2.73-1.92-4.77-2.17.87,1.52.78,3.22,2,4.2,1,.81,2.9.63,3.31,2.21-1.84-1.53-4.09-1-6.7-1.3a1.82,1.82,0,0,0,.84,1.28c.25.19.67.19.83.48,1.22.05,2.12.43,2.47,1.41-.94-.15-2.27-.31-2.59.55,1.83,1.19,3.15,4.17,6.1,3.12-.86.62-.74,1.57-1.59,1.67-1.23.16-3-1.51-3.91-.06-.1.78,1,.26,1.16.79.79.07.9.83,1.34,1.28h.16c.3.51,1.26.34,1.8.61.71-.17,1.08-.67,1.94-.71a9.74,9.74,0,0,0,2.32,1.91c.72.09,1.22.4,2,.44-.22,1.26-1,1.95-1.24,2.81a18.05,18.05,0,0,0,.05,2.13,8.22,8.22,0,0,0,2.36,3.38,13.51,13.51,0,0,0-2.34,3.82,4.25,4.25,0,0,1-.44,2.14c0,.16,0,.33,0,.49-.47,1.47-.47,3.38-1.19,4.61a.86.86,0,0,1,0,.16c-.28.48.07,1.56-.44,1.81v.33c0,.71-.48.92-.28,1.81-.06.51.45.42.51.8,6.23,2.17,11.23,5.64,16.42,8.9h1.73l-.66-.47,7.52,1,6-.48h1.79c2.16-.25,4.42-.5,6.67-.67l.54,0a38.07,38.07,0,0,1,11.16.54c2.51-2.2,4.9-4.54,7.53-6.63,1.29-.93,2.54-1.81,3.58-2.54l1-.62a11,11,0,0,1,.92-.74l.42-.3c.34-.23.69-.45,1.07-.66a1.08,1.08,0,0,0,0-1.95,11.54,11.54,0,0,1-3.5-3.36c0-.14-.07-.15-.17-.15a6.76,6.76,0,0,1-2.7-4c-.9-2.23-2.37-2.8-2.1-6.16-.41-.88-.28-1.71-.72-2.76-.73-2.3-2.58-6.36-.37-8.34.3-.56,1.15-.6,1.77-.86,3-.4,4.55-3.7,3.09-7,2.79.16,5.58-1.28,5.58-4.72.5-.26.71-.81,1.11-1.17a2.63,2.63,0,0,1,.47-.66c-.05-.26.15-.29.15-.49a2.63,2.63,0,0,1,.46-1.33v-.16c.18-.88,1.52-.67,2.41-.88h.17c.06-.37.86,0,1-.35,4.54-2.4,11.06-3.46,15.16-5.77a16.32,16.32,0,0,0,2-5,18.46,18.46,0,0,0,4.47-3.38c1.67-1.49,2.93-3.38,4.44-5a1,1,0,0,1,0-.17c1-1.43,1.88-3,3-4.32a1,1,0,0,0,0-.17c1.53-2.1,2.82-4.43,4.74-6.16,1.68-2,3.32-5.25,7.22-4.11a5.88,5.88,0,0,0,2.43-.39,92.9,92.9,0,0,0,7.11-12.09v-.46c.33-.34.6-.58.6-.58l.5-77ZM70.72,277.41c0-.19,0-.29.16-.33a2.29,2.29,0,0,0,2.27-.22C73.7,278.15,71.23,278.56,70.72,277.41Zm52.39,6.24c.29,0,.35.19.65.15.1.51-.12.73-.63.67C123.22,284,122.82,284,123.11,283.65Zm.3-1.31c-1.11.32-1.17,1.65-2.07,2.18-.53-1.29.79-2.1,1.73-2.5.76,0,1.66-.18,1.64.62C124,282.85,124.07,282.2,123.41,282.34Zm2.48,1.73c-.17,1.63-3.3,3.48-4.52,1.59A5.56,5.56,0,0,0,125.89,284.07Zm-2.07-4.53c-.47.62,1.1.52.85,1.45a5.62,5.62,0,0,0-3.71,1.08c-.26-.9-.64-.85-.21-1.8-.42-.36-1,.08-1.29.36a21.6,21.6,0,0,1-.41-3.58c-.39-.38-.1-1.47-.22-2.13,1.24-4.37-5.17-4.93-6.07-2.14-4.26-2.83-5.14,6.12-.88,3.79-1.23-.31-2.44-1.43-1.37-2.76.88,1.57,4.07.89,4.36-1.41,2.88-1.21,3.07,1.77,2.87,4.35.4,1,.12,2.66.25,3.92.17,3.9-.15,7.56,3,8.76.51-1.11-.41-1.7-.72-2.76,2.59,1.93,6.69,0,6.77-2.95-.11-.54-.62-.22-1-.14.3-.41.31-1.08.94-1.17.72,1.48,1.73,2.65,2.23,4.36-1.48.29-1.42,1.51-2.56,2-1.45.65-3.24,0-4.87.28,0,.26-.42.39-.47,1,2.56.77,6.77-.1,7.91-2.49,2.43,4.05-3.14,5.43-5.69,6.84a2.49,2.49,0,0,1-1.44.7,10.24,10.24,0,0,1-2.91.88,3,3,0,0,1-2.1.71h-.16c-5.46,2-12.23,1.69-17.56.59H99c-2.07-1.71-3.43-4.83-3.79-8.58-.18-1.95-.17-4.2-.95-5.7-.77-1.2-2.12-1.79-2.2-3.71a2.35,2.35,0,0,1,0-2.13,6.32,6.32,0,0,0-.22-2.13c-.34-1.37-1.4-2-2-3.05,0-.8.4-1.07.44-1.81.08-1.57-1.11-3.34-.93-4.56s3.55-4.53,4.92-5.36a19.56,19.56,0,0,1,3.7-1.56c-2,1.67-4.22,3-5.25,5,.95,0,2.16-1.13,2.72-2,3.25-2.46,7.89-5.1,12.9-5.06,2.26,0,5.06.73,6.56,2.3a20.62,20.62,0,0,1,1.19,2.1c1.71,2.23,4.24,4,5.86,6.55,2.4,3.86,3.24,8,4.38,12.82C125.33,280.3,124.92,279.56,123.82,279.54Zm-40.65,7.71c-3.18-.69-3.09-5.6-.32-6.54.18,1-.55,1.18-.77,1.82C81.86,284.72,82.62,285.87,83.17,287.25Zm3-4c.79.06.33-1.07,1.11-1a6.85,6.85,0,0,0,.44,4.41c-1.77.45-3.71-4.24-1.27-5.37C86.45,282,86.06,282.4,86.16,283.25Zm4.57.54c-.71.47.16,1.51-.43,2.14-1.78.05-2-1.86-1.55-3.23,2-1.81,4.65-.13,5.11,2.65.41,2.39,0,5.18.67,7.51.53,1.77,1.6,3.09,1.89,4.05,0,.11,0,.21,0,.32A4.77,4.77,0,0,1,92.66,296c-2.64-1.54-3.19-7.87-.89-10.12C91.64,285.06,91.84,284.18,90.73,283.79ZM89,287.92c-.59,1.72.12,5.57.84,7.51-1.58-1.7-2.14-5-2.46-7.14A1.5,1.5,0,0,1,89,287.92Zm-2.76.07a40.18,40.18,0,0,0,1.11,5.86c-1.26-1-1.07-3.45-1.75-5-.75.89.29,2.53.1,3.92-1-.85-.92-2.94-.76-4.56C85.51,288.22,85.66,287.88,86.28,288Zm-2.2-3.54c.06.58.65,1.22.19,1.46-.86-1.22-1.22-4.61.37-5.24C84.58,281.45,83.91,283,84.08,284.45Zm.1,4.25c.32,1.18-.05,3.15-.07,4.09-.84-.37-.9-2.65-.56-3.26,0-.23-.49,0-.5-.31-.53.29-.26,1.34-.44,2-1.16-.17.26-2.1-.87-2.59C82.64,288.65,83.64,288.7,84.18,288.7Zm-3.05,1.55a.62.62,0,0,1,.29-1.16C81.53,289.68,81.25,289.89,81.13,290.25Zm-43.95-148c-.31.87-.38,2-1.42,2.16a12.55,12.55,0,0,1,.09-3.11C36.71,141.2,36.12,142.61,37.18,142.28ZM127.54,37.15a3.84,3.84,0,0,1-3.4.73c0-.72-.24-3.19.08-3.6a12.5,12.5,0,0,1,.56,2.93c1.38-.28-.07-2.14.73-3.29.69.81.39,2.69.58,3.59,1.4-.48.07-3.25,1.38-3.47C127.94,35.23,126.78,36.07,127.54,37.15ZM121.83,43c-.85.1-.87,1-1.27,1.51-.66-1.36,1.07-2.91-.44-4.74,2.29-.79,4.08,4.94,1.27,5.54C121.56,44.47,122.17,43.91,121.83,43Zm-4.5-4c-1,.86-1.51,3-.07,3.77.91-.22-.08-1.54.43-2.3,2.15,0,2.2,2.24,1.56,3.56a4.16,4.16,0,0,1-2.59.55c-3.14-.65-2.22-5.57-2.83-9.25-.39-2.37-1.75-4.34-2.26-6C117.36,28.63,118.53,34.74,117.33,39Zm1.63-.36a11.08,11.08,0,0,0-1.17-7.83c.29,0,.34-.2.65-.18a13.64,13.64,0,0,1,2.14,7.81A6.08,6.08,0,0,1,119,38.67Zm2.76-.07c-.5-2.44-.48-5.43-1.8-7,2,.28,1.69,4.47,2.44,6.65a9.07,9.07,0,0,0,.21-4.59C123.39,33.92,124.72,39.14,121.72,38.6Zm1.5,1.44c1.7.68,2.17,5.58,0,5.72A6.43,6.43,0,0,0,123.22,40Zm1.44-.86c2.47-.72,3.9,5.43,1.46,6.35C125.92,43.59,126,40.72,124.66,39.18ZM77.89,36.24c3.48-3.86,11-6.42,16.74-7.45,1-.18,2.15-.16,3.42-.25.42-.39,1.56-.09,2.27-.22,3.15.56,6.68-.37,8.81.77a8.43,8.43,0,0,1,2.85,3.7c1.36,3.31.34,7.88,2,10.9,2.14,1.28,2.36,4.66,2.13,7.15a9,9,0,0,0,2.2,3.71c0,.86-.54,1.26-.6,2-.14,1.58.95,3.41.76,4.73-.16,1.15-2.51,3.42-3.47,4.17-1.35,1-3.14,1.53-4.33,2.56-.33-.74,1.41-1.6,2.22-2.35A13.21,13.21,0,0,0,115.32,63c-1.95.75-3.36,2.35-5.12,3.56a17.58,17.58,0,0,1-10.82,3.38,9.4,9.4,0,0,1-6.58-2.79c-.42-.47-.5-1.17-.85-1.62-1.07-1.32-2.39-2.22-3.34-3.35a31.76,31.76,0,0,1-6.5-13.26c-.28-1-.19-2.12-.58-3.42C80.62,42.43,77.68,39.73,77.89,36.24ZM69.57,216.41c1.23.08,1.58,1,2.32,1.91a10.11,10.11,0,0,1-.9,2.8C66.65,224.25,65,216.14,69.57,216.41ZM65.46,228.3c-2.83.52-4-2.81-1.74-4.71,1.06-.89,3.39-1.19,3.93,1.06A3.11,3.11,0,0,1,65.46,228.3ZM70.6,212a2.77,2.77,0,0,1,5.39.85C75.51,216,70.27,216.08,70.6,212ZM50.72,143.58a77.22,77.22,0,0,1,6.63-8.18c2,1.32,4.81,5.07,4.61,8.56-.09,1.46-1.35,3-2.18,4.47-2.24,4.14-4.62,9.87-6.49,13.9-1-5.65-3.06-11.78-1.73-17.63C51.65,143.93,50.84,144.12,50.72,143.58ZM45.9,159.73c-1.06-.25-.24-2.3-.72-2.76a3.7,3.7,0,0,1,.64-.67,1.79,1.79,0,0,1,1,1.45.44.44,0,0,1-.65,0C45.85,158.19,46.27,159.34,45.9,159.73Zm0,1.8c-.84.35-.94-1.28-.19-1.14C46,160.6,45.93,161.1,45.94,161.53Zm-.51-7.84a25.77,25.77,0,0,1-.07-2.62,1.14,1.14,0,0,0,1.13-.68c-.11-1.65-2.18-1.14-3.12-1.07-.1-2.33.18-3.32,0-5.72,2,.76-.16,3.91,1.27,5,1.53-.34.13-3.5,1-4.45,1.19.49-.19,1.87.71,2.6.9-.21,1.15-1.31.92-2.15A2.74,2.74,0,0,1,50,146.05c-.58,1,.1,2-.09,2.95a4.26,4.26,0,0,1-1.29.36c-.58.25-.25,1.32,0,1.63s.93.13,1.31.3c-.09,1.72.25,2.75,0,4.58-.89-1.19-.85-3.36-1.58-4.71-.31-.28-.15-1.07-.84-1C46.21,150.82,46.48,152.89,45.43,153.69Zm120,16.2c0-1.24-.08-4.26.5-5.91.56.42,1.79.13,1.82,1.11-.07.81-.75-.08-1.14,0-1.12,3.83.19,12.56-.54,18.18-1-.35-.33-2.45-.57-3.59,0-.65,0-1.3-.05-2,0-.26-.16-.27-.17-.48-1.88.74-.36,3.78-1.17,5.43-.43.06-.43-.33-.51-.65,0-.59,0-1.2,0-1.79a14.5,14.5,0,0,1,.12-1.81c-.34-.26-1.13-.42-1.3.2-.53-.5-.82-1.26-1.34-1.77a53.73,53.73,0,0,0,2.45-6.27c-.44-.49-.8,0-1.63-.13-.12-1.23-.45-2.78.07-3.76.15-.67-.52-1.13.31-1.16,0,.49,0,1,0,1.47-.16,1.12.33,2.27,1.18,1.77.41-.37-.28-2.69.41-3.28,1.22,1.9-.44,7.69,1.22,10.28C166,174.3,165.36,171.87,165.43,169.89Zm9.93,6.63c.7-.23,1.55-.32,1.76-1s-.41-.46-.35-1c.37.62,1.3.65,1.34,1.61-2-.3-1.6,1.44-1.4,2.48l-.65,0c-.23,2.11,0,5.66-.29,8.19-.94-.19-.36-2-.56-2.93.09-.5-.24-1.4.12-1.64A28.18,28.18,0,0,1,175.36,176.52Zm7.58-35.86c.06-.63,1.13.3,1.95,0-.35,1.2.14,1.83.57,3.43,0,.54,0,1.09,0,1.63-.16,3.89.45,9.37-.31,13.92-.58-2.5-.14-5.85-.38-9.16,0-.54,0-1.09,0-1.63,0-1.69.75-5.82-1-6.69-.55,6.55.16,11.95,0,18.66a3.73,3.73,0,0,1-.59,2.47C182.67,156,183,147.1,182.94,140.66ZM83.33,193.33c-.54-4.07,5.3-4,5-.61C88.18,194.86,83.78,196.71,83.33,193.33Zm.65,6.54c-.14,2.58-4.69,2.69-5,.28A2.79,2.79,0,0,1,80.65,197C82.68,196.25,84.08,197.94,84,199.87Zm72.64-17.17c.11.4.63.35,1,.47-2.06,2.87-4.33,6.39-7,8.19a9.36,9.36,0,0,1-4.29-9.06c.14-.82.87-1.31,1.26-2,.64-1.14,1.1-2.63,1.85-4a110.84,110.84,0,0,0,5.4-12.08c1.3,5.48,1.58,9.8,2.34,15.81C156.52,180.48,156.54,181.55,156.62,182.7Zm1.25-15.41c1.12.35.08,2.12,1.53,2.25.54,0,.21-1.7.61-1.32.54.06,0,1.67-.11,2.13-.82.19-.94-.36-1.63-.29-.47,1.71,1.67,4,1.61,5.85C156.17,176.15,158.21,170.33,157.87,167.29Zm4.11,15c-.59-.28-.18-1.6-.53-2.12-.62.49-1.3.77-.94,1.82-.49.13-.48-.27-1-.14.16-.65.08-1.52.27-2.13a2.53,2.53,0,0,0,2.6-.23C162,179.75,162.65,181.76,162,182.25ZM73.22,119a5.86,5.86,0,0,1-.77-1.2l.69.56A4.48,4.48,0,0,1,73.22,119Zm19.16,11.8a109.58,109.58,0,0,0,10.42,6.94c1.3.69,4,2.36,4.94,2.17,3.44-.72,6.79-4.41,9.94-6.14.44.44-.24,1.12-.46,1.32-1.55,1.52-4.86,3-6.73,4.26-3.25,2.25-7.13-.08-10.63-2.19A69.5,69.5,0,0,1,90.25,130C90.94,129.56,91.85,130.41,92.38,130.78Zm66.08,47.29c.4-.16.95-.64,1.3-.36,0,1-.54.73-1.28,1.18C158.48,178.62,158.47,178.35,158.46,178.07Zm-40.85-28.2h0Zm-1.33-.21c-4.64,1.44-5-5.82-.61-5.06C117.65,145,118.14,148.4,116.28,149.66Zm-2.67,4a2.62,2.62,0,0,1-4.85,1.1C107.55,150,113.77,150,113.61,153.65Zm39.06,47.14c-.2,1.43-1.45,2-1.72,3-1.12,1.22-1.84,2.81-3,4-1.37,2.57-3.1,4.8-4.37,7.47a81.13,81.13,0,0,1-5.22-7.23c-.7-.78-1.36-1.59-2-2.41-.43-.21-.64-.67-1.16-.79-.2-3.17.45-5.41.77-8.2,0-1.18.94-1.44,1.58-2h.17c.81-.72,1.43-1.62,2.22-2.35,1.63-2.65,3.34-5.22,5.18-7.65A13.1,13.1,0,0,0,149.2,192c.76.16.39,1.49.86,2A7.75,7.75,0,0,1,152.67,200.79ZM121.05,132c1.86-1.42,4.74-.39,4.77,2C125.9,138.38,118.39,136.8,121.05,132Zm.69,8a2.47,2.47,0,0,1-.1,1.19l-.79,1.13c-1.29,1.09-3.55,1.09-4.12-1.05C115.8,137.81,121.25,137.14,121.74,140Zm-12.51,20.75c-.4,2.79-5.72,2.82-4.91-1.18C105,156,109.63,158,109.23,160.79Zm-5.66,8.49a2.43,2.43,0,0,1-3.47-2.53,3,3,0,0,1,1.72-2.5C105.52,163.34,105.84,168.3,103.57,169.28Zm2.77,20.06c.13,0,.15,0,.16.15a9.45,9.45,0,0,1,3.31,2,.73.73,0,0,1,.66.31,12.45,12.45,0,0,1,1.32.79c1.07.88,2.41,1.48,3.47,2.36.74.46,1.31,1.08,2,1.59-1.45.08-2.91-1.29-3.8-2.36a8.37,8.37,0,0,1-2.15-1.42h-.16a2.4,2.4,0,0,1-.66-.47,1.81,1.81,0,0,1-1.16-.79,10.83,10.83,0,0,0-2-1.1c-.63-.17-.93-.69-1.49-.94-2-.37-3.21-2.23-5.1-2.33-1.7-.09-3.84,1.56-5.46,2.59s-3.21,2.42-4.82,2.9c1.54-1.83,4.36-3.5,7-4.92a13.17,13.17,0,0,1,2.57-1.37C102.43,186.14,104.13,188.63,106.34,189.34Zm52.14-24c.81-.92,1.35.48,1.81.94C159.57,166.72,158.66,166,158.48,165.31Zm-19.39-54.49c-1.13-.24-1.27-1.49-2.17-2.57h-.33c1.35-.06,1-2.44,2.87-2.69C143.18,105.06,143,111.61,139.09,110.82Zm-2.28,6.43a2.65,2.65,0,0,1-3.82-3C133.88,109.92,141.48,114.22,136.81,117.25Zm-6.35,6.54a2.71,2.71,0,0,1-1.51-1.93,2.89,2.89,0,0,1,1.39-3C134.67,116.93,135.28,125,130.46,123.79Zm-.41,3.12c.79,3.24-5.71,5-5.06-.54A2.79,2.79,0,0,1,130.05,126.91Zm-72.62,5.38c-2.55-1.76-2.41-7.3-.21-9a2.66,2.66,0,0,1,1.1-1.34v-.16a18.87,18.87,0,0,1,1.89-2.67V119a55.38,55.38,0,0,0,4.37-7.47c1.55,2.57,3.46,4.74,5.06,7.24.64.9,1.36,1.7,2,2.57,2.76,1.58.78,6.33.39,9.32h.16c-1.14,1.51-2.68,2.65-3.8,4.18-2.1,2.3-3.31,5.45-5.51,7.66A12.3,12.3,0,0,0,59,135.2C58.11,134.6,58.37,132.82,57.43,132.29Zm43.29,40c.18,2.23-.66,3.25-1.71,3.48-3.84.86-4.29-5.49-.45-5.06C99.66,170.83,99.89,171.58,100.72,172.29Zm-4,7.46c0,3-4.55,3.58-5,.94-.27-1.5.48-3.27,2-3.49A2.81,2.81,0,0,1,96.67,179.75Zm-6.29,9.15c-3.44.47-3.63-5.06-.78-5.37C92.81,183.18,93.37,187.76,90.38,188.9Zm92.85-16a27.58,27.58,0,0,1,0-8A15.93,15.93,0,0,1,183.23,172.89ZM177.92,182c0,.59,0,1.19.05,1.79-.26,1.18.22,2.55-.4,3.61-1-2.19.16-5.75-.53-8.17C178.21,179.25,177.82,180.89,177.92,182Zm-19-18.35c-1.05.12-1.51,1-2.27.54-.3-.62,0-1.42.11-2.13,2.58-1.15,5.57.39,7.84,1.12C164,165.63,161.45,163.36,158.93,163.67Zm-2.19-2.73c-.36-.65.32-1,.29-1.81,1.44-.68,2.55,0,4.55-.11C160.89,160.85,158.63,160.5,156.74,160.94Zm-15.58-58.68a3.54,3.54,0,0,1,2.05-3c1.29-.4,2.91,1,3,2.38C146.32,104.11,141.41,105.7,141.16,102.26ZM47.8,157.56c.42.59.14.89.37,1.62a1.24,1.24,0,0,1-1.32-.45C47.45,158.61,47.61,158.06,47.8,157.56Zm2.06,4.36c-1.18.9-2.1-.31-2.16-1.58C48.92,160.34,49.83,160.67,49.86,161.92Zm-.71-2.27a2.61,2.61,0,0,0-1-2.92c.47-1,1,.65,1.8.45a4.63,4.63,0,0,0,.56,2.93A2.42,2.42,0,0,1,49.15,159.65Zm27.91,43.82c3-.66,4,4,1.43,5a2.87,2.87,0,0,1-3.62-1.72C75.39,205.44,75.8,203.75,77.06,203.47Zm106.84-70c0,.78-1.23.41-1.27,1.17.7,1.45,2,2.24,2.22,4.2-.66-.34-1.1.14-1.95.05-.38-1.5.38-2.49-.73-3.25-1.13,3.21-.24,8-.55,10.65a2.93,2.93,0,0,1,0,2.12,33.68,33.68,0,0,1,0,5.24,2.1,2.1,0,0,1,.05,1.8,57.16,57.16,0,0,1,0,5.72c0,1.18.63,2.79-.57,3.29-.34-3.78.39-6.06-.22-9-1.58.58-1.1,3.59-1.15,6.08s-.2,5.65.82,7.18c1-.77,0-2.42.73-3.46.88.89.54,2.48.58,3.76a55.65,55.65,0,0,1-.4,10.31c-.62-.35-.25-1.75-.55-2.44-2.27,1.16-.2,7-1.4,9.36-.74-.89-.21-3.13-.43-4.57,0-.88,0-1.75-.07-2.62-.27,0-.42-.27-.48,0-.21-.86.63-1.45.09-2.62,2.49,1,3.19-2.31.77-2.3-.85-1.62,1.18-2.51,1.53-4-.12-.6-.93-.48-1.64-.45-.3-.8-.33-1.89-1-2.26-.78.33-1,1.48-1.09,2-.53.15-1.4-.1-1.61.7a16.67,16.67,0,0,1,1.25,4.38h0a6.32,6.32,0,0,0-1.47-.45c0-4.4-.27-9.06-.2-14.56,0-1.34.58-3.11-.73-3.58-.87,2.28-.33,4.58-.33,6.72,0,6.52.09,15.23-.24,23.4-1.19-.31.12-2.48-.88-2.76-.61.64-.46,2-1.58,2.17.43-2.16.71-3.93,2-5,0-2.76-.07-7.07-.1-10.8,0-2.13.46-4.19-.45-5.22-.73,0-.71.62-.79,1a31.08,31.08,0,0,0-.06,4.09c-.08,4.21.36,9.26.12,11.78-2.08.48-.54-2.76-2.17-2.24.05.48-.36.51-.3,1h-.17c.29,1.06-.44,1.17-.6,1.81-.58-.06-.77-.54-1.32-.62s0,.81-.64.67c1.29-4.24.22-10.77.6-15.89.55.2.5,1,1.16,1.12s1-.24,1.45-.37c.15,1.56,0,4.15,0,6.06,0,.65,0,1.3,0,2,.09.94-.36,3.23.9,3.41.77-3.82.26-8.84.18-12.77-.82-.81-2.19-1-2.5-2.39.22.42.54.3,1,.14.12,2,3,1.75,3.26.09-.53-1.2-2.49-.91-3.27-.58a15.69,15.69,0,0,1,2.15-5.29c.62.83-.28,3.16.9,3.74,1.28-2.5.16-7.29.39-10.8.09-.5-.25-1.41.13-1.64-.15-.13-.11-.45-.34-.48-1.31.81-.75,3.38-.83,6.23-.08.61.26,1.62-.11,2,0,.27,0,.54,0,.81a1.68,1.68,0,0,0-2-.11,10.11,10.11,0,0,1-.77-4.73c-.54.07-.69.51-1,.85.48,1.46.51,2.87-.56,3.93-.74-.68-.25-1.26-.54-2.11-2.76,1.86,1.08,5.3,1.65,7.65-.44.31-2-.76-3.1-.41a10.11,10.11,0,0,1,0-5.57c-.92,0-1.19.57-1.6,1-.29,1.29.74,3.69-.4,3.77-.65-.51.24-2.84-.73-3.41-1.76-.16-3.47-.37-5.38-.36,4.32-13.15,6.19-27.51,9.07-41.78.61.14.4,1.15.69,1.62,2.12.95,2.2-2.65.9-3.13-.88-.21-.85.46-1.45.53-1-2.63-3.94-3.22-5.66-5.1,2.78-3.33,6-5.29,11.08-6.33,0,.16.19.12.32.16C177.85,112.1,181.2,122.43,183.9,133.44ZM149.18,97.32a2.78,2.78,0,0,1-3.42-.09c-1.65-1.54-.14-4.78,1.84-4.79C149.88,92.44,151.07,95.8,149.18,97.32ZM130.53,66.2a.91.91,0,0,1,1,0,2.91,2.91,0,0,1,2,.77c.16,0,.14.2.18.32C132.79,67.35,131.45,66.59,130.53,66.2Zm-15.19,4.62c-6.19,4.29-17.09,5.45-23.58.58a7,7,0,0,1-2.86-3.69c-.06-1,.9,0,1.29-.53-.08-1.36-1.4-1.41-1.53-2.74a11.73,11.73,0,0,1,3.67,3.84c7.8,5.63,22.67,1.4,27-5.74.87.31,1.29,1.1,2.15,1.42C120.47,66.61,118,69,115.34,70.82Zm-88,68.88,0,0-.06.21Zm16.25,11.09c.45-.14.42.22.82.14.15.68-.3.78-.3,1.32-.24,2.53.49,6.83-.42,9.5A40.74,40.74,0,0,1,43.57,150.79Zm5.34,12.47c1-.07,1.41-.7,2.43-.72,0,.13.16.16.17.33a1.71,1.71,0,0,1-.28,2c-2.69,1.42-5.54-.9-7.83-1C44.22,161.13,46.88,163.38,48.91,163.26Zm2.68,2.88c.29,2.7-2.9,1.9-5,1.92C46.78,165.89,49.92,166.46,51.59,166.14Zm9.18,63.41c3.14-.07,3.85,5.82-.52,5.42a2.44,2.44,0,0,1-2.16-1.91A2.81,2.81,0,0,1,60.77,229.55Zm16.87,31.17c-.86-.14-2.58-.41-3.28-1.23A3.91,3.91,0,0,1,77.64,260.72Zm13.1-3.43a24.49,24.49,0,0,1,13.38-5.08,2.45,2.45,0,0,1,1.95,0c5.93.45,10.66,2.16,12.85,6.56.16,0,.13.2.17.31-.43.28-1.36.09-1.44.69.17,1,1.64,1.51,1.51,2.26-1.61-.76-2.33-2.45-3.5-3.68.13-.37,1,.31,1.3-.19.07-1.25-.81-1.5-1.67-1.76-.35.15-.36.61-.3,1.15a20.31,20.31,0,0,0-9.64-1.89c-7,0-13.52,4.48-17.2,8.77C84.94,262.87,88.31,259.18,90.74,257.29ZM152.17,86.12A2.55,2.55,0,0,1,154.05,90a2.43,2.43,0,0,1-4.58-.87A2.82,2.82,0,0,1,152.17,86.12ZM137.91,68.8c.49-.13.59.15,1,.14,1.31-.37,4.47-2.45,5.05-.13-1.75-1.07-3.31.88-5,.29a2,2,0,0,1-2-.44c-1.32-1.47-1.48-3.45-2.87-4.51-3.25-2.46-8.49-.78-12.28-3.14,1.56,3.58,7.33,1.68,10.49,3.51-1.72-.33-4.42.11-5.55-.85a6.34,6.34,0,0,1-7-8.33c.65.1,1.28.49,1.63.44,1.16,2.7,3.3,3.85,5.66,4.94a34.08,34.08,0,0,1,7.66.79C136.3,63.35,136.65,66.55,137.91,68.8Zm-12-12.31c1.6-.32,4.18.6,4.27,1.86C128.55,57.94,126.6,57.88,125.9,56.49Zm4.78,2.83a.73.73,0,0,1,1.16.63c-.44-.1-1-.05-1.31-.3a4.93,4.93,0,0,1-1.8-.28C129.47,59.13,129.55,59.31,130.68,59.32Zm-4.74-.86c-.26,0-1.48-.33-1.49-1.11C125.15,57.51,125.41,58.12,125.94,58.46Zm9.86-3c.53-.71,1.51.66,1.66,1.43C136.34,57,136.67,55.57,135.8,55.43Zm1-6.89v.16c.64,0,.83.46,1.16.79-.76.57-1.23-.59-2-.6-.33.1-.45.41-1,.34C135.17,48.61,135.87,48.47,136.77,48.54Zm1.61,5.85a3.91,3.91,0,0,0-4.08-.23C135,52.64,138.21,51.93,138.38,54.39Zm-5.85.47c-1,.46-1.63-1-2.79-.91-.11.94.78.85,1.33,1.11a25,25,0,0,1,2.37,3.71c1.56.91,3.95,1,5.1,2.33-2.1-.67-3.65-.39-5.08-1.51s-2.05-4-4.5-4.31c-2-.14-5.09-.34-7.33-.31-2.1-.86-3.77-2.17-4-5,2.78.87,5.93,3.25,10,2.37.28.16.36.51.51.81.37-.06.07-.77.63-.66C130.13,53.15,131.65,53.67,132.53,54.86Zm-.71-2.28c-1-.56-2.75-.33-3.29-1.39C130.16,51.1,131.27,51.54,131.82,52.58Zm-1.1-5c0,.75-.57,0-1,.19.13.93,1.55.49,1.5,1.6-.74,0-1.13-.37-1.8-.45-.38.85,1.33.79,1.5,1.61-5.1-1.18-13,1.73-13.62-4.58,2,0,2.91,1.07,4,2C125.05,48.72,128.16,46.37,130.72,47.54Zm-1.86-2.9c-.57-1.71-.27-3.8-1.6-5.52C130.45,38.76,129.61,42.76,128.86,44.64ZM76.81,38.56c1.66,3.42,4.11,7.51,2.07,11.56-.41-.58,0-2.1-.08-2.94C78.5,44.35,76.44,42,76.81,38.56Zm2.59,13c.44-.86,1-1.58,1.4-2.49A9,9,0,0,1,82,52.34c.2,2.31-1.8,3.73-2.48,5.29C78.1,57.5,76.64,59,75.35,59c.52,1.1,2.05.58,2.77.26a15,15,0,0,0,4-3.21c.35.48-.2,1.76-.44,2.14-1.18,1.9-4.29,2.67-7.6,1.82-.41-.54-.9-1-.53-1.95,2.68-1.66,8.4-.81,7.35-5.25-.57.46-1.21.86-1.26,1.83-2.27.47-5.69,0-7.11,1.64C72.05,52.19,77.51,52.94,79.4,51.58Zm2.84,9.91c-1.58.23-2.49,1.56-4.19,1.74-3.21.34-7-2-9.94-.74,1.43-4.31,8.15,0,11.52-1.43.64-.26.74-.83,1.76-1a10.38,10.38,0,0,0,2.21-3c1.44,2.19,3.29,4.1,3.75,6.94,2.23,2.33.37,7-3.08,7.11,2.19-.65,4-4.68,2.27-6.92a5.69,5.69,0,0,1-.1,2.46,1.53,1.53,0,0,0-1.25,2.15c-1.58,1.53-3.52,1.12-5.83,1.13-.07,1.51,1.68.38,2.14,1.09-1.91.26-4.72.91-4.47,3.38.8,2.68,5.18,2.87,4.86-.77,1.23,1.14.11,3.12-1.55,3.31,0,.36-.69.09-1,.19-.37.59-1.56-.24-1.79.21-.44-.37-.63-.51-.67-1-.81-.59-.68-1.16-1.19-2.1a1,1,0,0,0,0,.17c-.69-1-1-2.76-.26-3.6a22.09,22.09,0,0,1,2.85-3.18c-1.11-.44-3.17.86-5.35.63-1.07-.12-1.68-1-2.63-1.09,0-.31.54-.13.48-.5A3.3,3.3,0,0,0,68,66.26c3.38-2,12.94,3.83,14.1-2.31a14.26,14.26,0,0,1-3.53,1.89c-3.42.83-7.48-2.23-11.57-.87C70.88,61.48,80.28,67.81,82.24,61.49Zm-2.42,14c-2.62-.12-1.52-4.37.75-2.64A2.2,2.2,0,0,1,79.82,75.46Zm-13.59-10c.81.31-.46.5-.13,1.31.05.09.51.25.65,0-1,1,.08,2.87,1.66,1.43.86.56.94,2.54-.09,3-1.33,1.09-2.4-.69-2.3-.93A4.1,4.1,0,0,1,66.23,65.48ZM26.6,202.74c-.39-1.21-.69-2.61-1.07-3.89-.58-2-1.05-3.53-1.43-5.37.36-.67,1.14,0,1.44-.69-.42-1.9-2.09-2.49-2.39-4.52.83-.16,2,.2,2.26-.87a1.2,1.2,0,0,0-2-.77,8.15,8.15,0,0,0-.89-3.25c.46,0,.39.48.82.47,1-7.3-.06-15.68.42-22.92a3,3,0,0,1,.77-2.14c0,5.93.08,12.6,0,19-.06,2.94-.67,7.11.69,8.32,1-4.28.15-9.43.46-14.57.32-5.48-.08-11.33.24-17,.14-2.57-.68-5.18.65-6.56a9.66,9.66,0,0,0,.22,2.45c1.35-.16,1.1-2.65,1.05-3.62.09-.5-.24-1.41.13-1.64a9.14,9.14,0,0,1,.37-4.59c.7,1.67.08,6.33.37,8.33,1,0,.75,1.61,1.83,1.76,1.53.21,1.64-2,.58-3l-1.3,0c-.06-1.88,0-3.14,0-5.24,0-.27,0-.54,0-.82.26-.76-.27-2.29.59-2.47.2.19.2.58.19,1l.06,2.13c.3,1.77-.69,3.5.44,4.74,1.5-1.13.25-6,.8-7.06,1.95,1.24-.78,8,1.38,10.11,1.11-1.79-.27-7,.76-9.35.93.62.31,2.66.25,3.76a6.07,6.07,0,0,1,.08,3.11c0,6.28.12,15.71-.22,24.38-1,0-1.78-.2-2.27.55.12,1.47,1,1.22,2.31,1.25.41,2.06-.29,4.78.18,7.36,1.21-.36.95-1.11.92-2.31-.13-4.68.64-11.49-.22-15.87.89-6,.38-11.31.56-17.19.45-.22,1.26-.72,1.77-.37,0,.21,0,.43,0,.65-.08.92-.36.05-1,.19.26,5.14-.58,11.16.2,14.88,1.39-.07.72-1.86.75-2.8.06-2.73.17-5.53.29-8.19,0-.65-.47-1.87.43-2,.65,3.59-.26,7.44.45,11.44,1.15-.31.9-1.44.91-2.47,0-3.23,0-6.4.09-9.66-.43-.43-.48.21-1,.19.18-.63,0-1.6.44-2a6,6,0,0,1,1.79.12c.24-.68-.05-1.14-.37-2,0-.71.55.14.66.31.57,0,.17-1,.79-1s.18,1.48.37,2.11c-.09.56.25,1.52-.12,1.81.17,5.9-.12,8.58,0,13.57-.09.56.24,1.52-.12,1.81,0,.16,0,.32,0,.48-.72,0-1-.47-2-.27a2.37,2.37,0,0,0,.21,2c.76.15,1.4-.34,1.79,0,.17,2-.48,3.42.28,5.07,2-.42.14-3,1.2-4.45,1.07.09,0,2.83,1.51,1.93,0-.22.28-.27.31-.5.07-.52-.37-.63,0-1,.38-.08.36.29.81.14.06.37,0,.62-.31.66a8.7,8.7,0,0,1-.78,1.16c-.3,2.66,3.87.57,5.41,1.84-4.38,12.73-5.92,26.86-9.08,41.45-.54-.54-.84-1.88-2-1.26-1.66,1.53,1.18,4.78,1.83,1.92.81,3.27,3.82,3.51,5.67,5.42-1.06,2.71-4.07,3.55-6.22,5.23-1.84.14-2.72,1.22-4.69,1.26C32.35,218.56,28.8,209.65,26.6,202.74Zm30.74,32.79c2.64.37,2.92,4.35.3,5.55C52.82,241.92,54,235.05,57.34,235.53Zm13.92,23.71c-1.76-3.45-6.88,2.52-7.54-2.11.75.05.77.87,1.33,1.11,2,.26,3.68-1.77,5.34-1.11,1.12.45,1.21,1.65,1.86,3.07a7.63,7.63,0,0,0,2.52,2.88c2.67,1.66,6.27.48,9.14,1.41.71.23,1.14,1,2.31,1.25-1.57-2.72-7-2.18-10.17-3.51,2.38.26,4.93-.09,7.33.47,3.42.81,5.47,4.13,4.93,8.55-.88.09-1.23-.38-1.81-.61-1.09-3.79-5.72-5.06-9.88-4.83C73.26,266,70.56,263.11,71.26,259.24Zm6.37,7.86c-.42-.08-1,.55-1.14-.3,3.22.57,6.93.62,7.73,3.74-.79.34-1.43-.5-1.81-1.11C80.79,268.83,79.39,267.46,77.63,267.1Zm3.66,3.18a5.15,5.15,0,0,1-3.62-1.71A5.12,5.12,0,0,1,81.29,270.28ZM69.06,269c1-.37,2.82,1.11,3.15,2.53C70.93,270.88,70.38,269.5,69.06,269Zm.56,3.26c1.21.12,1.28,1.44,2.8,1.24C71.39,274.46,69.81,273.54,69.62,272.21Zm2.48-5.14c-1.26-.19-2.39-.49-2.8-1.57,1.36.8,3.52.76,5.08,1.35,1.48,2.1,2.47,4.27,5.48,4.77,2.79.48,6.1-.66,8.32.78a4.36,4.36,0,0,1,1.89,3.88c-2.27-.68-3.73-2.21-6.73-2.12l-1.62,0c-1.72-.25-3.46-.48-4.59-1.35,1.49-.26,3.73.93,5.54.35-2.12-.93-4.25-.57-5.9-1.66C75,270.35,74.26,267.8,72.1,267.07Zm5,11.49a5.35,5.35,0,0,0,2.28.28c-1.24-1.41-3.69-.57-4.29-2.52,1.29.43,2.88,1.69,5.07,1-1.09-1.14-3.23-1.17-4.29-2.35,1.1-.17,3.31,1.29,5.56,1-.85-.89-2.63-.79-3.62-1.55,1.08-.48,2.24.43,3.6.73,4,.88,8.64,1,9.24,5.33-2.53-.64-3.9-2.42-7.05-2.1C81.14,278.65,78.68,280.18,77.1,278.56Zm1.26,4.88c1.25,0,.6-1.87,1.74-2-1.27,1.71-.1,4.62.31,5.87C78.65,287.15,78.24,285.58,78.36,283.44ZM131,286.9c-1.58-2.29-3.58-7-2-10.43.69.47,0,1.14,0,1.8C129,281.18,130.9,283.76,131,286.9ZM127.18,277c-3-5,1.67-9,6.44-9.49.49-.12-.16-.34,0-.65,2.4,2.18-1.23,2.19-3.36,2.7-2.37.57-3.68,2.21-3.15,4.33.94-.59.9-1.8,2.23-2.18,2-.57,4.72.5,5.83-1.12C135.44,275,127.9,272.81,127.18,277Zm-1.3-6.68a4.63,4.63,0,0,1,5.76-3.9,7,7,0,0,1,1.8.28,2.53,2.53,0,0,1-1.47,0A11.11,11.11,0,0,0,125.88,270.33Zm16-9.72a4.91,4.91,0,0,1-3.2,2.21c-2,.3-4.38-.75-6.7-.82-3.17-.1-5.91.93-6.26,3.43,4-3.74,8.17-.38,14-1.17-2.09,4.53-9.36-1.45-12.81,2-1,.8-1.64,2-2.7,2.84-1.62-2.81-4.47-5.37-4.12-8.89a8.12,8.12,0,0,1,1.54-3.8c1.84-2.05,5.53-.42,8.42-1.68,3.37-2.37-2-6.39-3.82-3.18-.48.64.23,1.51-.61,1.66-.87-3.27,2.89-4.46,5.3-3.08.85.48.92,1.49,1.66,1.59.86,2.27.15,5.09-1.16,5.76-.62-.92.8-1.25.76-2.15,0-.33-.71,0-.82-.3-1.47,3.11-7.59,1.78-8.49,5.44.91.55,1.28-.53,2.09-1,1.67-1,4.35-1,6-2.11,0,1.08-1.59,1.12-1.59,1.68,2,.8,5.3-1.94,7.65,0,.38.54-.32.73,0,1.15a3.88,3.88,0,0,0,4.85-1.59c-.38-1.08-1.52-.37-2.45-.27-1.57-3.77,2.8-3.47,3.24-.73A4.65,4.65,0,0,1,141.92,260.61Zm-14.21-9a2.71,2.71,0,0,1,1.78,0,2.89,2.89,0,0,1,.06,2.29C128.06,255.41,126.75,253.05,127.71,251.64Z"/><path class="cls-3" d="M164.51,247.53s-.29,7.95-7.63,15.34-15,14.43-16.67,22.71c-1.09,5.58,1.42,15.91,13.56,15.91,9.61,0,10.74-12.49,10.74-12.49s1.13,12.49,10.73,12.49c12.15,0,14.67-10.33,13.56-15.91-1.64-8.28-9.32-15.33-16.67-22.71S164.51,247.53,164.51,247.53Z"/><rect class="cls-1" x="173.97" y="256.21" width="22.53" height="54.7"/><path class="cls-3" d="M43.13,76.84s.28-8,7.62-15.34,15-14.43,16.68-22.72c1.09-5.57-1.42-15.9-13.57-15.9-9.6,0-10.73,12.49-10.73,12.49S42,22.88,32.39,22.88c-12.14,0-14.66,10.33-13.56,15.9,1.65,8.29,9.33,15.34,16.67,22.72S43.13,76.84,43.13,76.84Z"/><rect class="cls-1" x="10.65" y="13.65" width="22.53" height="54.7"/><path class="cls-4" d="M11.93,194.92A132,132,0,0,1,9.77,177v15.15A7.63,7.63,0,0,0,11.93,194.92Z"/><path class="cls-4" d="M10.74,146c.11-.45.49-.76.62-1.32.08-.35-.13-1,0-1.31.36-1.26,1.51-2.3,1.21-3.79C16.39,128.45,22.06,119,29.6,111.7A25.25,25.25,0,0,0,33,108.51c-1.84-1.18-4.19-1.55-6.41-2.3-2.69-.91-5.6-2.18-8.35-1.92-1.57,1-2,3.43-3.13,4.66-.12.13-.55,0-.65.18-.63.9-.95,2.36-1.55,3.48-.74,1.38-1.86,2.66-2.5,4.14-.2.48-.4,1-.59,1.51v34.39c.22-1.6.42-3.1.7-4.32C10.65,147.58,10.58,146.71,10.74,146Z"/><path class="cls-5" d="M18.17,170.23c-.39,0-.32-.56-.83-.47-.94.42-.53,2.15-1.73,2.33-.94-.46-.82-2.05-2-2.24-1.44,2.52.63,5.39,2,6.82C16.58,174.67,18.32,173.36,18.17,170.23Z"/><path class="cls-5" d="M16.21,183.37c.18-2.06,2.4-3.7,1.15-6.09-1.08.3-.92,1.29-1.42,1.84l-1,0a2.19,2.19,0,0,0-1.17-1.6A4.84,4.84,0,0,0,16.21,183.37Z"/><path class="cls-5" d="M17,190.22c.45-1.71,2.67-5,.5-6.23-.48.6-.27,1.87-1.25,2-.86-.38-1-1.47-2-1.74C13.29,187,15.61,188.92,17,190.22Z"/><path class="cls-5" d="M19.05,193.11c.27-1.25.89-2.59-.25-3.26-.81.55-.36,2.31-1.56,2.49-.87-.71-1.26-1.91-2.5-2.23-.93,2.92,1.77,4.66,3.08,6.31C18.89,195.87,18.81,194.18,19.05,193.11Z"/><path class="cls-5" d="M20.75,196.34c-.61,0-.47-.17-1,0-.52.55-.05,2.07-1.08,2.15-.93-.31-1.39-2-2.48-1.57a1.58,1.58,0,0,0,0,1.79c.65,2,2.46,2.77,3.84,4C20.88,200.94,21.84,197.9,20.75,196.34Z"/><path class="cls-5" d="M16.72,144.09c-3,1.72-.33,6.74.7,8.81,1.67-1.65,6.46-4.05,4.69-8-1.84.15-2.3,1.63-3.53,2.37-.29-.33-.5-.13-.65-.31C18.1,146.3,17.88,144.34,16.72,144.09Z"/><path class="cls-5" d="M22,202.2c-.43.43-.37,1.35-.6,2-1.52.73-1.6-1.42-3.12-1.23-.15.22-.43.33-.64.5.24,3.22,3.22,3.53,5.48,4.62C23.22,206,23.92,202.91,22,202.2Z"/><path class="cls-5" d="M19.78,136.16c-.38,0-.48-.27-1-.14-1.5,1.32-1.61,3.71-1,5.58a9,9,0,0,0,1.7,3.23c1.45-1.29,7.38-5.13,4.87-7.48-1.73.35-2.07,1.67-3.86,2.23C19.52,139,20.4,137.27,19.78,136.16Z"/><path class="cls-5" d="M25.47,202.94c-3.12-9.63-5.62-20.89-4.39-33.6.38-4,1.08-7.45,1.35-11.16.14-1.83.47-4,1.51-4.78,2.3-11.61,6.46-26.52,13.81-34.7,2-2.26,8.43-1.74,11.68-1.26.46,1.27,2.13,3.66.94,5-1.11-2.61-2.43-6.07-6.13-4.1,3.63,3.07,6.28,6.71,10,9.9a29,29,0,0,0-3.53-11c-1.42-2.46-6.34-3.06-10.13-1.71-1.31.47-1.84,1.4-3.53,2A49.07,49.07,0,0,1,33,123.4a11.77,11.77,0,0,1-2.18,3.65c-.95,2.61-2.41,6-3.7,8.76-.94,4.79-2.82,8.25-3.27,12.85C22.13,153.28,21,159.34,20,165.11c-.52.5,0,1.54-.12,1.8a55.33,55.33,0,0,0-.63,7.54,16.26,16.26,0,0,0,.15,6.05c0,1.15.05,2.29.08,3.44a18,18,0,0,1,.78,5.22c0,.25.42.11.33.48,0,.54,0,1.09,0,1.63,3,8.66,4.54,18.26,9.41,25.62.82,2,1.63,4.09,3.38,5.15-2.51-4.18-4.15-9.36-5.88-14.41C27,206,26,204.57,25.47,202.94Z"/><path class="cls-5" d="M21.87,208.75c0,2.39,2.34,3.78,4.18,4.8.17-2.24-.82-3.27-1.42-4.7C24.61,210.91,22.56,209,21.87,208.75Z"/><path class="cls-5" d="M23,127.41c-3.3,1-2.53,6.33-1.39,9.85,2.66-1.73,7-3.48,5.84-7.83-1.65-.58-1.85,1.71-3.4.9C24.16,128.91,24.33,127.6,23,127.41Z"/><path class="cls-3" d="M37.41,105c1-1,2-1.69,2.71-2.36s.89-1.43,1.42-2a65.24,65.24,0,0,1,5.4-5c.1-1,1.15-1.38,1.59-1.84.68-.71,1-1.86,1.56-2.49.23-.24.76-.26,1-.52.71-.87,1.14-2.06,1.88-3S54.32,85.89,55,84.9c1.3-1.94,3.38-3.42,3.92-5.82A43.25,43.25,0,0,0,53,76C48.42,78,43.81,80.07,40.47,83.3c-.3-.3-.47.2-.82-.14,0,.81-.69.93-.77,1.65-2.54,1.89-3.76,5-6,7.19,0,.27,0,.54,0,.82-2.8,3.7-5.15,7.85-8.86,10.69,0,.21-.2.23-.14.49,2.16.72,6.17,2.42,8.7,3.06C35.33,107.74,35.89,106.55,37.41,105Z"/><path class="cls-5" d="M27.41,215.81c0,.81.52,1,1,1.29C28.28,216.46,28.11,215.86,27.41,215.81Z"/><path class="cls-5" d="M29.3,119.4a2.66,2.66,0,0,1-.66-.48c-3.77.81-2.94,5.68-3,9.24,3.31-1.35,6.29-3,7-6.88-1.15-.87-1.91.64-3.24.57C29,121.1,29.47,120.4,29.3,119.4Z"/><path d="M28.51,180.61a24.84,24.84,0,0,0-.07,3.77c0,1.23-.67,3.38.59,4.57.82-.86.37-2.78.38-4.43S30,181,28.51,180.61Z"/><path d="M32.22,179.37c.52,0,1.21.36,1.62,0-1.27-1.94-1.15-5-2.92-6.64-.94,2-2.1,4.59-2.12,6.92.69.13.77-.33,1.3-.36.59.65.06,2,1,2.92C32,181.71,31.45,179.92,32.22,179.37Z"/><path d="M32.68,198.5c-.1-.84-1-.83-2-.76C29.59,199.34,32.25,200,32.68,198.5Z"/><path d="M30.5,182.52c-.17,1.29-.4,3.06.27,4.09C31.6,186.47,32,182.73,30.5,182.52Z"/><path d="M30.18,169.28c-1.66,3.32,3.7,3.09,1.46-.2A3.59,3.59,0,0,0,30.18,169.28Z"/><path d="M33.18,198.66c-.4,1.94-2.66,3.81-1.83,5.44.5.11.48-.3,1-.19a16.86,16.86,0,0,0,.54,2.44c1-.29.5-2,1.24-2.48.48.16.63.68,1.32.62.07-1.7-1.19-3.43-1.59-5.2,1.24.25,2,.2,2.59-.55C35.73,196.72,34.13,198.62,33.18,198.66Z"/><path d="M30.39,164.53c.26,1-.3,2.9.58,3.42.93-.88.7-2.76.7-4.27,0-1.89.12-4.08-.45-5.39-1,.91-.67,2.5-.71,4.27C30.42,163.17,30.76,164.19,30.39,164.53Z"/><path class="cls-3" d="M41.48,138.41c-.86-1.62-2.87-2.88-2.57-5.18,2.18-.26,4.3,1.24,6,.35-.57-1.22-1.93-3-2.4-4.85,2-1,4.48,1,6.52.49-.29-2.52-2.36-3.77-1.79-6.67-2.43-1.24-3.18-4-5.47-4.44-3.19-.55-3.87,2-5,3.55-.39.56-1,1.06-1.43,1.68A41.48,41.48,0,0,0,33.06,127c-.09.22.14.61,0,.82-1.63,3.07-3.68,5.94-2.72,8.74-.49-.15-.28.37-.31.66,2,.7,4.15,2.84,7.38,2.44A8.73,8.73,0,0,0,41.48,138.41Z"/><path d="M32.59,194.91c-.59.67-.17,1.86.07,2.62C35,197.84,34.71,193.93,32.59,194.91Z"/><path d="M32.9,180.5c-1,0-.76,2.69-.25,3.11C33.76,183.24,33.77,181.27,32.9,180.5Z"/><path class="cls-5" d="M35.47,112.38c-3.6-1-4.74,4.09-4.37,7.3,2.07-1.22,6.29-1.74,7.21-4.59-1.36-.23-1.58.62-2.76.55C35,114.56,36.4,113.37,35.47,112.38Z"/><path d="M33.21,153.17c-1.41.47-.3,2-.26,3a22.1,22.1,0,0,1-.58,3c-.35,3.84.44,7.44-.06,10.8.13.37.5.48.83.64a65.3,65.3,0,0,0,.36-11.63C33.49,157,34,154.9,33.21,153.17Z"/><path class="cls-3" d="M42.06,222.65c-1.76.94-4,1-5.64,2.27a40.49,40.49,0,0,0,7.81,6.84,104.41,104.41,0,0,0,2.48-12C44.91,220.25,43.71,221.76,42.06,222.65Z"/><path d="M36.4,170.6a39.48,39.48,0,0,0,0,7.52c1.68-1.65.87-5.28.8-7.38C36.83,170.82,36.86,170.45,36.4,170.6Z"/><path d="M41.85,220.86c.72-.27.39-1.54.43-2.47.41-.24,1.14-.18,1.45-.53-.88-1.69-2-3.09-2.89-4.84-1.2.43-2.5-1.2-3.57.09-.26,2,2.16.66,2.62.76.24,1.7-1,3.51-.69,5.25.74.12.8-.4,1.29-.52C40.91,219.4,41,220.56,41.85,220.86Z"/><path d="M39.69,185.41c1.15-1.29-1.22-2.14-1.65-.94.28.06,0,.21,0,.49C38.53,185.46,39.1,185.33,39.69,185.41Z"/><path class="cls-5" d="M39.5,103.93c-.85,1.59-2.64,2.26-3.32,4,.08.37.87,0,1,.3A128.52,128.52,0,0,0,59.8,82.17c.2-.91,1.14-1.67.75-2.64-4.34,5-7.52,11.21-12.8,15.69-1.8,2.85-4.66,4.69-6.65,7.36a2.1,2.1,0,0,0-.83.54C40.34,103.59,39.08,102.53,39.5,103.93Z"/><path d="M38.28,174.31a1,1,0,0,0,1.14,0c-.6-.43-.05-2.07-1.19-1.94C38.36,173.2,38.07,173.84,38.28,174.31Z"/><path d="M39.47,163c1.18-.13,1.5-2.37.25-3.12l-1,0C37.4,160.76,38.11,163.15,39.47,163Z"/><path d="M41,184.23A30.68,30.68,0,0,0,39,191c.88.2.85-.47,1.45-.53.43.94.27,2,.71,2.6,1.15-.29.71-2.09,1.07-3.14a3.56,3.56,0,0,0,1.47.3A15.46,15.46,0,0,0,42,186.66C42.06,186.09,42,184.19,41,184.23Z"/><path class="cls-5" d="M38.2,110.51c-.19,1.21-.8,2-.9,3.3,1.77,0,5,0,6.65-.66-.61-2.14-3.35-2-5.11-3A.71.71,0,0,1,38.2,110.51Z"/><path class="cls-5" d="M52.81,129.46c-.14-.91-1-1.7-1.68-2.42s-1.35-1.83-1.83-1.59c.28,1.77,2.11,3,.92,4.73-2.32-.19-3.32-1-5.71-.85.31,2.21,2,2.81,2.4,5.18-.19,0-.38.06-.31.33-2.33.17-3.71-.66-5.88-.66.05,2,2.54,2.76,2.73,5.16-1.33.8-4.21.13-5.17,1.28a24.65,24.65,0,0,0,4.1,1.37A50,50,0,0,1,52.81,129.46Z"/><path d="M40.56,181c-.65.71-.12,1.73-.43,2.46C42.16,185.28,43.43,180.62,40.56,181Z"/><path d="M40.3,170.34c.09.51-.34.65,0,1C41,171.42,41.27,170.11,40.3,170.34Z"/><path d="M41,160.51c.56-2.27.3-4.85.31-7.21s.85-5.71-.82-7c-.57,2.62-.15,6.81-.24,10.48C40.26,158.41,39.88,159.89,41,160.51Z"/><path class="cls-5" d="M56.67,221.15c1.47.72,3.23,2.25,5.08,1.67.4-1.45-1.2-1.16-1.52-2.25-.69-2.32,1.92-6.43,2.08-8.39,2-.52,3,1.39,5.07,1.35.28-.33.35-.84.63-1.17-8.93-3.27-15.79-8.71-22.8-14,.19.77-.55.64-.29,1.48,2.93,3.23,7.54,6,11.11,8.4,1,.68,3.6,1.83,3.81,2.85s-1.35,3.77-1.83,5.28c-.3.94.06,1.16-.28,1.81-1,2-3,.37-4.73-.54A88.31,88.31,0,0,1,43.24,211c0,.1-.19-.13-.33-.16-.46,0-.4,1.36-.13,1.48.06.22.24.31.18.65A126.22,126.22,0,0,0,56.67,221.15Z"/><path d="M43.76,185.47c.22-.21.08-.77.3-1-.72-.38-.93-.61-1.63-.13C42.31,185.32,42.9,185.54,43.76,185.47Z"/><path class="cls-5" d="M43.52,209.36c-.2,1.63,4.73,2.8,5.07,1S44.37,208,43.52,209.36Z"/><path class="cls-5" d="M51.94,106.9a7.25,7.25,0,0,1-.83-.63c-2.56.11-2.88,1.4-5,1.92-.87-1.26.85-2.89,0-4.58-1.69-.94-4,.8-3.83,3-.53-.19-.11.54-.64.35.27,1.27-.48,1.56-.26,2.78,1.26.2,2.35,1.78,4,1.87C47.28,111.75,52.54,109.64,51.94,106.9Z"/><path class="cls-3" d="M48.46,218.08a108.38,108.38,0,0,0-3.06,14.8c.59.54.91,1.39,1.83,1.59,1-4.35,1.46-8.89,2.45-13.15C50.12,219.39,50.71,218.19,48.46,218.08Z"/><path class="cls-5" d="M53.81,130.42a32.91,32.91,0,0,0-10,12c.76,0,1.13.49,2,.44A82.56,82.56,0,0,1,55,131.7C55.21,131.21,54.37,130.61,53.81,130.42Z"/><path class="cls-5" d="M47.21,187c-.5,3.42-1.19,6.09-1.71,9.7,6.62,5.7,14,12,23.46,14.64.42-1.41,1.83-1.87,1.86-3.65,1.42-.67,1.68-2.44,2.52-3.66a3.08,3.08,0,0,1-.69-1.29c.43-.83,1.4-1.11,1.58-2.17a16.82,16.82,0,0,1-6.58-3,4.14,4.14,0,0,0-.11,2.46c-1,1.74-2.77-.78-3.45-1.55-1.27.06-2.53.53-3.11-.75.56-1,1.85-1.21,2.06-2.5-2.07-.83-3.52-2.33-5.29-3.47-.09.5.24,1.4-.13,1.64-1,.65-2.59-.59-3-1.73-.93.13-2.13,0-2.46-.92.45-1.15,2.12-1.69,2.05-2.83-1.85-.57-2.85-2-5-2.53a5.25,5.25,0,0,0,.09,1.67C48.68,188.17,48.12,187.26,47.21,187Z"/><path d="M48.1,149.7c0-.19,0-.29.15-.33a3.65,3.65,0,0,0-.21-2.13c-.49-.31-1.18.08-1.47-.12-.43.93-.43,2.61,1,2.75C47.64,149.68,47.91,149.73,48.1,149.7Z"/><path class="cls-4" d="M51.17,75.18c-3.5-1.51-6.13.27-6.26,3.43C46.86,77.33,50,77.2,51.17,75.18Z"/><path class="cls-3" d="M57.19,222.61c-1.92-.88-3.43-2.19-5.6-2.81a42.92,42.92,0,0,0-2.1,7.58,50.2,50.2,0,0,0-.76,8.69c1.33.61,2,1.93,3.47,2.36.77-1.87,2.85-3.32,3.61-5.32C56.88,230.35,56.5,225.71,57.19,222.61Z"/><path class="cls-5" d="M57,133.45a1.12,1.12,0,0,0-1-.63,42.62,42.62,0,0,0-8.54,10.35c0,.11,0,.22,0,.33a12.75,12.75,0,0,0,1.47.29c2.36-3,4.28-5.51,6.63-8.51C56.19,134.82,57,134.53,57,133.45Z"/><path class="cls-5" d="M57.3,187.1c1.47,4.26,4.24,7.16,9.62,7.29a10.5,10.5,0,0,0,5.31,4.29c.9.31,3.66,1.14,4.23-.1-4.33-.58-7.7-1.72-9.57-5.17-5.45.1-8.08-2.75-9.12-7.3-4.2-.59-7.27-2.39-9.08-5.5C49.64,184.8,53.09,186.35,57.3,187.1Z"/><path d="M49.31,145.91c-.35-.14-.49-.49-1-.47a7.72,7.72,0,0,0-.12,1.8C49.35,147.25,49.19,146.62,49.31,145.91Z"/><path class="cls-5" d="M50.2,209.53a1,1,0,0,0,.2,1.3C51.52,210.81,50.9,209.51,50.2,209.53Z"/><path class="cls-3" d="M58.89,185.43c.66,3.22,2.38,6.2,5.21,6.58,4.61-17.94,9.16-35.95,16.82-51-2.94-2.71-5.15-6.2-8.34-8.63a7.12,7.12,0,0,0-3.81,4.18c-.56,0-.4.68-1,.68-1.27,2.9-4,5.82-5.64,8.81-.21.38-.1.93-.3,1.31-.42.81-1.15,1.53-1.57,2.33a109.28,109.28,0,0,0-5.85,13.56c-.68,1.89-1.87,3.54-2.48,5.3-.41,1.21-.44,2.49-.88,3.62a31.09,31.09,0,0,0-1.83,5.44C49,182,54.59,185.29,58.89,185.43Z"/><path class="cls-5" d="M50.88,96.62c-2.23,1.91-2.8,5.41-3,9.23,2.41-1.06,9.49-2.29,8.32-5.93-1.61-.6-2.38,1.6-4.05.92.09-1.41.64-2.08.72-3.78A2.54,2.54,0,0,0,50.88,96.62Z"/><path class="cls-5" d="M51.39,211.79a8.91,8.91,0,0,0,5,6.26c.45-2.69-2.19-5.48-4.4-6.93C52.15,211.66,51.77,211.72,51.39,211.79Z"/><path class="cls-5" d="M66.58,86.74a21,21,0,0,1-4,7.47,104.64,104.64,0,0,1-6.88,11.62c-.95,1.39-2.31,2.57-3.16,3.84-.2.29-.1.72-.31,1-.8,1.06-4.67,3.66-1.52,4.29a55.56,55.56,0,0,0,7.88-10.83c1.69-1.06,2-3.51,3-5.31.36-.63,1.08-1.09,1.43-1.67,1-1.63,1.56-3.54,2.47-5.3,1.22-2.37,2.87-4.8,3.07-7.76C67.27,84.42,67.61,86.23,66.58,86.74Z"/><path class="cls-5" d="M58.39,211.61c-.52-2.15-3.7-2.33-6.07-2l0,1.31C54.07,211.39,56.26,212.67,58.39,211.61Z"/><path class="cls-5" d="M54.45,190.44c.88-.14,1.06.45,1.65.62.41-.57-.1-2.11.1-2.46C55,188.64,54.71,189.51,54.45,190.44Z"/><path d="M55.93,237.69c-.61,1.22,1.11,2.16,2,1.27C58.11,237.76,57.08,237.29,55.93,237.69Z"/><path class="cls-3" d="M54.13,116.66c.08-.68.56-3.13-.41-3.26A4,4,0,0,0,54.13,116.66Z"/><path class="cls-5" d="M57.37,89.43c-3.52,1-2.91,6.15-3.35,9.4,2.91-1.11,8-2.31,7.32-6.89-2-.24-2,1.41-3.88,1.24C56.78,91.94,58,90.63,57.37,89.43Z"/><path class="cls-3" d="M60.49,224.65c-.54-.54-1.33-1.36-2.3-.92.08,1.94-.86,2.9-.53,5.08A12.23,12.23,0,0,0,60.49,224.65Z"/><path class="cls-3" d="M55.43,116.63c.33-1.44,0-3.54,0-5.24C54.18,112.39,55.3,115.79,55.43,116.63Z"/><path class="cls-5" d="M61,246.89a20.22,20.22,0,0,1-2.32-1.9C58.89,246.14,59.9,247.3,61,246.89Z"/><path class="cls-5" d="M58.83,243.35c0-.2.18-.11.33,0,0-.43-.08-.71-.51-.64C58.69,242.94,58.61,243.3,58.83,243.35Z"/><path class="cls-3" d="M56.54,115.46c.72-1.23,0-3.81.19-5.57C55.4,110.82,56.92,113.43,56.54,115.46Z"/><path d="M61,233.31c.47-.15.72-.49.61-1.48C59.67,229.83,58.85,234,61,233.31Z"/><path class="cls-5" d="M63.93,245.68c-1-1.87-2.31-3.46-3.07-6-2.34,2.11,1.27,4.77,1.79,7C63.32,246.58,63.81,246.3,63.93,245.68Z"/><path class="cls-3" d="M58.29,113.78c.22-1.85-.08-4.18,0-6C56.58,108.57,57.69,112.37,58.29,113.78Z"/><path class="cls-3" d="M59.4,105.74c-.47.45-1.61,1.73-.6,2.14a40.35,40.35,0,0,0,1,5.53C59.52,111,60.24,108,59.4,105.74Z"/><path class="cls-5" d="M62.1,237.38c1.33.26,1.5-1,1.58-2.17-.82.33-1,1.28-1.42,2C62.16,237.22,62.07,237.24,62.1,237.38Z"/><path class="cls-5" d="M62,220.69c.44.17,1.33.35,1.13-.52A.74.74,0,0,0,62,220.69Z"/><path class="cls-5" d="M61.29,83.11c-1.61.49-1.79,2.33-2.18,4-.6,1.3,0,2.6-.08,3.27-.24,0-.14.4-.15.66,2.68-1.12,6.89-2.42,6-5.87-1.37.22-1.83,1.33-3.21,1.55C61,85.54,61.73,84.49,61.29,83.11Z"/><path class="cls-3" d="M78.94,99.86a76.91,76.91,0,0,0-9.13-14.17c-1.12.67-1,2.48-1.54,3.63a48.82,48.82,0,0,1-4.68,8.13,31.16,31.16,0,0,1-3.73,7.3c.72,1.48.28,4.17,1.43,5.19.06-1.9-.32-4.24,0-5.89.89.86.22,3.36,1.24,4.07a50.32,50.32,0,0,1,0-5.08c0-.65-.75-1.83.44-1.81a6.47,6.47,0,0,0,.9,3.58,34.77,34.77,0,0,1,.54-4.76c.57.8.14,2.64,1,3.09.45-1.44-.26-4,.19-5.41,1.21,1.13.49,4.3,1.28,5.86,2.76-.4,3-3.23,5.11-4.22.27,1.55-1.62,3.62-3.14,4.5-.49,1.13-1.72,1.55-2.55,2.35-.26,1.38-1.09,2.6-.54,4.27,2-.24,1.46,3.15,2.68,3.21-.08-.56-1.11-2.24-.39-2.77,1.06,1.34,1.31,3.53,2.39,4.85.29-1.48-.81-2.38-.25-3.6,1.16,2.08,1.42,5.1,2.93,6.8-.12-1.72-1.21-3.29-.93-4.88,1.45,1.43,1.53,4.31,2.91,5.82.42-1.73-1.11-3-.61-5.06,1.44,1.84,1.62,5,3.09,6.79.58-1.08-1.43-3.12-.09-3.92.84,1.69.9,4.19,2.24,5.35.09-1.11-.24-2.65-.08-3.27,1.6.71.82,3.94,2.4,4.68,0-.49-.13-1.07.46-1,.74.61.91,1.83,1.53,2.58.66.21.5-.37,1-.35,1,1.45,1.88,3.93,4.47,3.17.22-1.94-.78-3.66-1.28-5.37C85.79,114.75,82.41,107.4,78.94,99.86Zm-10.08.41c-.26,0-.28-.15-.49-.15a24.88,24.88,0,0,1,.95-7.71c1,.39-.17,3.22.76,4.06.88-.58.94-2,1.89-2.5C72.35,96.2,70.49,98.93,68.86,100.27Z"/><path class="cls-5" d="M65.18,216.52c.83-.21.91-1.15,1.26-1.83-1-.21-1.83-1.54-3-1.07h.32C63.66,215.22,64.59,215.69,65.18,216.52Z"/><path d="M65.9,226c.13-1.08-.44-1.46-1-1.44C63.22,224.59,64.21,227.74,65.9,226Z"/><path class="cls-5" d="M68.22,234.44c0-1.84-.7-2.95-2-3.38a9.44,9.44,0,0,0-1.88,3C65.29,234.7,67.17,235.79,68.22,234.44Z"/><path class="cls-5" d="M63.41,197.26c.77.09,1.86-.21,2.29.6a4.9,4.9,0,0,0-.06-2.29C64.37,195.63,63.94,196.49,63.41,197.26Z"/><path class="cls-3" d="M71.52,169.58c-2.11,4.25-3,9.63-4.19,14.82-.52,2.18-1.85,5-1.77,7.74a5.7,5.7,0,0,0,2.62.59c1.1-3.84,1.45-8.41,3-11.85,1.35-7.12,3.65-13.33,5.38-20.09,1.77-4.48,3.12-9.78,5-14.2.55-1.28,2.12-3.24.71-4.44a3.54,3.54,0,0,0-1.57,2.5c-2,2.78-3.27,6.34-4.31,10.08A90.34,90.34,0,0,0,71.52,169.58Z"/><path class="cls-5" d="M66.49,82.82c-.28-1.61-1.81-1.9-3.31-2.21a3.27,3.27,0,0,0-.28,1.81,1.83,1.83,0,0,0,.05,2C63.87,84.87,65,82.83,66.49,82.82Z"/><path class="cls-5" d="M71.67,236a25,25,0,0,0,.37-4.74c-1.24-1.38-1.81-3.46-3-4.84-.52.41-.54,1.3-1.27,1.51-.09,2.05,1.22,2.62,1.41,4.38C70.4,233.09,70.14,235.49,71.67,236Z"/><path d="M70.28,218.85a1.54,1.54,0,0,0-2.12-.27C67.83,220.47,70.26,220.27,70.28,218.85Z"/><path d="M77.26,265.31c.86.06,2.32.3,2.92-.56-3.89-.32-7-1.42-8.25-4.55a.46.46,0,0,0-.48.34C72.13,263.42,74,265.09,77.26,265.31Z"/><path d="M70.07,96.47c-.92-.84.23-3.67-.75-4.06a24.92,24.92,0,0,0-.95,7.71c.21,0,.23.2.49.15,1.63-1.34,3.49-4.07,3.1-6.3C71,94.51,71,95.89,70.07,96.47Z"/><path d="M72.25,213.08c1.06.88,1.68-.1,2.43-.72C73.91,212,71.94,211,72.25,213.08Z"/><path class="cls-4" d="M81.41,13.9a50.91,50.91,0,0,1-8.59,7.91c-1.65,1.3-4,2.29-4.79,3.71,1.16.44,1.56,1.9,3,1.9,1.08,0,2-1.13,3.21-2.05a64.51,64.51,0,0,0,6.06-4.73,17.5,17.5,0,0,1,2.87-2.52c.88-.34,2.52,0,3.75.07a76.49,76.49,0,0,0,25-3.56c2.91,2.89,6.61,4.76,10.42,6.78,2.83,1.5,5.65,3.43,8.88,3.71a4.29,4.29,0,0,0,.26-2.62c-5-2.61-9.63-4.63-14.18-7.67-1-.67-1.9-1.65-2.78-2.35h-5.88C100.34,14.08,88.28,15.2,81.41,13.9Z"/><path class="cls-5" d="M73.41,220.25c0-.17,0-.33,0-.49-1.49,1-1.86,3.11-3.14,4.33-.07,2.25,1.11,3.18,2,4.37,1-1.85.65-4.05,1-6.57C73.65,221.65,73.31,220.75,73.41,220.25Z"/><path class="cls-4" d="M76.43,217.55c-.05-.52.27-.69.13-1.31C76,216.09,76.2,217.48,76.43,217.55Z"/><path d="M76.46,205.28c-.66,1.11.53,2,1.82,1.43C79.09,205.28,77,204.47,76.46,205.28Z"/><path class="cls-4" d="M110.22,27.6a12.47,12.47,0,0,0,4.08.38c1.09-2.05,1.54-4.7,2.11-7.25-1.38-1.67-3.52-2.55-5-4.13a71.19,71.19,0,0,1-27.91,3.15c-2.91,4-7.41,6.42-11.16,9.6,1.24,2,2.29,4.29,4.05,5.79C83.93,28.77,97.52,25.55,110.22,27.6Z"/><path class="cls-4" d="M80.45,296a4.58,4.58,0,0,0-.9,3C80.5,298.59,80.26,297.08,80.45,296Z"/><path class="cls-4" d="M81.51,299.4c.35-.6,1.14-2.2.59-2.63A10.8,10.8,0,0,0,81.51,299.4Z"/><path d="M78.52,68.94c-1,.33-2.92,1-2,2.67,1.06-.56,1.93-1.51,3.36-2.21,2.34-1.14,5.47-1,5.77-3.74-1.34-.18-2.32,2-4.34,2.4A17.8,17.8,0,0,0,78.52,68.94Z"/><path class="cls-3" d="M120,251.17c-3.33-3.47-7-5.62-13.32-5.89-11.23-.48-21,5-24.44,11.89-1.25,2.47-1.73,4.46,1.89,4.53,1.16-1.82,2.66-3.31,3.78-5.16a29.58,29.58,0,0,1,15-6.42c7.52-.76,13.38,1.85,17.22,5.63C122.65,254.66,121.65,252.84,120,251.17Z"/><path d="M81.22,200.26c.74.1.47-.16,1.13-.36C82.29,196.21,78.48,199.87,81.22,200.26Z"/><path class="cls-4" d="M84.22,297a5.68,5.68,0,0,0-1,3.63C84.27,300.18,84,298.39,84.22,297Z"/><path class="cls-4" d="M81.48,211.21a3.94,3.94,0,0,0-.06-2.45A4.09,4.09,0,0,0,81.48,211.21Z"/><path class="cls-4" d="M85,301.93c1.15-1,.88-3.31,1.34-4.94C85.18,297.87,84.9,300.39,85,301.93Z"/><path d="M86.68,36.35c-3.06-.39-7.54.07-7.74,3.14,0,.12.14.19.33.15.67-.21.74-1,1.27-1.34.48,0,.68-.15,1-.68C83,36.38,86.22,38.46,86.68,36.35Z"/><path class="cls-4" d="M86.81,303c.49-1.21,1.3-3.7.86-4.76C87.36,299.65,86.18,301.8,86.81,303Z"/><path d="M86.1,193.76c2-.14.32-3.75-1.33-1.61C84.76,193.34,85.24,193.82,86.1,193.76Z"/><path class="cls-4" d="M90,298.37c-1.06,1.17-1,3.37-1.5,5.11C89.41,302.23,89.56,300.19,90,298.37Z"/><path d="M87.62,262.76a1.79,1.79,0,0,0,2.07-1.84l-.5-.48A1.88,1.88,0,0,0,87.62,262.76Z"/><path d="M84.5,60.62a5.58,5.58,0,0,0,.07,2.78C85.45,62.87,85.4,60.88,84.5,60.62Z"/><path class="cls-4" d="M91.3,300.3c-.31,1.14-1.12,2.37-.89,3.79.81-1.36,1-3.29,1.34-5.11C90.91,299,91.43,299.82,91.3,300.3Z"/><path d="M91,186c-.64-.85-1.12-.86-2.12-.44a2.54,2.54,0,0,0,0,1.47C89.84,187.38,91,187.26,91,186Z"/><path d="M92.38,257.74c-1,0-2.49,1.48-1.25,2.16.72-.43,1.46-.84,1.58-1.84C92.53,258,92.46,257.88,92.38,257.74Z"/><path class="cls-3" d="M86.42,72.84c.92,2.81,3.26,3.75,5,5.28.35.3.37.86.68,1.12,2.24,2,8.13,2.72,12.27,2.48,1.73-.09,3.79-.91,5.5-1.11,2.12-.26,2.28-.88,3.55-1.39,1.46-.6,3-.6,4.36-1.26a22.44,22.44,0,0,0,3-2.2,25.87,25.87,0,0,0,3-2.36,21.4,21.4,0,0,0,1.24-2.49,17.88,17.88,0,0,0,2-4.46c-.85-.67-1.49-1.56-3.13-1.4A23.89,23.89,0,0,1,106.2,76.62a36.87,36.87,0,0,1-12.23-1C92.18,74,89.84,72.92,88.33,71,87.29,71.24,86.26,72.33,86.42,72.84Z"/><path class="cls-5" d="M95,230.19a58.18,58.18,0,0,1-3.33,16.93c.89-.68,2.86-.49,3.54-1.56s.52-4.52.66-6.56c.33-5.05.3-10.91.42-16,.34-.32.12-1.38.11-2-.27-9.38.11-18.66-.47-26.16-.08-1,.07-2.39-.73-3.1,0,.61,0,1.21,0,1.8,0,3.38.53,4.89.35,7.85a11.05,11.05,0,0,1,.1,4.25c-.12,7.17.09,15.53-.59,22.59C94.56,229,95.06,229.9,95,230.19Z"/><path class="cls-4" d="M105.28,299.63c-3.66,0-5.72-.78-9.94-.57a61.17,61.17,0,0,0-1.92,8.23c1.2.42,2.19,2.39,3.8,2.52,1.84.15,5-1.68,7.6-2.15a83.54,83.54,0,0,1,19.51-1,51.67,51.67,0,0,1,8.28-7.4c1-.69,2.41-1.08,2.87-2.36-1.1-.68-2.32-5.12-3.71-5.31-.87-.12-2.46,1.54-3.53,2.21C122.64,297.42,113.86,299.63,105.28,299.63Z"/><path d="M94.37,265.87c.56,0,.66-.78.46-1C94.25,264.8,94.35,265.37,94.37,265.87Z"/><path d="M94.48,257.19c.81.22,2.56-.21,2.73-1.53C96.06,255.34,94.41,255.83,94.48,257.19Z"/><path d="M93.28,181c1.18,0,2.1-.22,1.92-1.51C94,178.22,91.85,179.45,93.28,181Z"/><path d="M101,57.27c-.54-.48-.64-2.19-1.67-1.6-.83,1.86-3.82-1.1-5,1.11a1.88,1.88,0,0,0-1.47-.29c-.47.6-1.55,1.15-1.08,2.15a10.3,10.3,0,0,0-1.33-.78,2.1,2.1,0,0,0,1.2,2.26c2.49-1.61,6.25-1.85,9.38-2.36C101,57.59,101,57.43,101,57.27Zm-8.27,1.35-.82,0c.61-.38.85-1.11,1.43-1.51,1.89.63,3.17-1.06,5.21,0C96.84,57.89,93.75,57.27,92.75,58.62Z"/><path d="M96.75,263.85c-.14-.24-.25-.52-.65-.48a2.64,2.64,0,0,0-.29,1.81c.31,0,.36-.2.65-.18v-.16C96.36,264.32,96.67,264.19,96.75,263.85Z"/><path d="M93,69.9c0-1.09-1-1.22-1.67-1.6,0,.24-.26.28-.31.5C91.46,69.55,92.09,70.65,93,69.9Z"/><path d="M105.1,292.27c-3,2.61-6.11-.7-8.51-1.91,1.44,3.72,6.75,4.86,10.65,3,1,1.13,1.67-.77,2.77.09.7-.59,1.1-1.61,2.24-1.36.14-.48.8-1,.45-1.48a12.05,12.05,0,0,0-4.67,1.91C106.9,291.91,106,293.07,105.1,292.27Z"/><path d="M99.25,286c0-1.22.62-2.47.08-3.11-1.48.17-.41,3.48-2,3.81,0,1.58,1.38,1.28,2.32,1.74,2.29,1.13,4.29,3.38,7.71,2.27.93-.83,2.18-2.15,1.53-4,.14-.67.91-.73.77-1.66C105.89,284,101.16,283.88,99.25,286Zm2.6-.23a3.75,3.75,0,0,1-.46,1.32c-.43-.27-.57.2-.82-.14A1.23,1.23,0,0,1,101.85,285.81Zm5.62,3.79c-2.49,1-5.11-.11-7-1.46,1.17-.2,2.79,1,4.42,1a7.48,7.48,0,0,0,2.91-.73C108,289.12,107.44,289.09,107.47,289.6Zm-2.81-2.06c.62-.08.57-.19,1,.14,0,.43-.38.6-1,.52C104.66,288,104.66,287.76,104.66,287.54Zm1.91-1.35c-1.79-.65-2.7.46-3.55,1.23A1.91,1.91,0,0,1,106.57,286.19Z"/><path d="M97.74,264a1.75,1.75,0,0,0,.44-1.81h-.65C97.52,262.83,96.78,263.79,97.74,264Z"/><path d="M99.44,59.27A11.11,11.11,0,0,1,94.11,61c-.41-.3-.63-.79-1.32-.79C92.61,62.93,100.26,61.5,99.44,59.27Z"/><path class="cls-5" d="M102.29,236.88c-3.88.29-6.38,3.87-4,7.79a29.39,29.39,0,0,0,3.08-.24c.36-.78.09-2.16.75-2.64s1.85-.19,2.13.44c0,.6,0,1.19,0,1.8,1.27,0,2.51.59,3.58-.26C109.41,239.78,105.88,236.61,102.29,236.88Z"/><path class="cls-5" d="M97.58,237.32c1.17-.39,2.27-1.32,3.87-1.56,2.34-.36,4.37.61,5.71.84C106.67,233,97.93,233.08,97.58,237.32Z"/><path class="cls-5" d="M100.37,225c-1.12.29-1.33,1.23-2.4,1.86.25,1-.46,1-.27,2-.43.3-.24,1.39,0,1.8,0,1.44.89,1.85,1.37,2.75.79-.12.61-.34,1.29-.36-.08-1.08.42-1.22.26-2.63.25.16,1.65-.59,2.28-.05.67.74,0,2.85,1.85,2.4C107.68,229.73,104.53,223.93,100.37,225Z"/><path d="M99.13,261a5.49,5.49,0,0,0-.43,2.3C99.56,263.19,100.29,261.16,99.13,261Z"/><path class="cls-5" d="M97.46,192.17c.5.11.47-.29,1-.19.11-.64.1-1.4.61-1.65,1.39-.74,1.67.85,2.31,1.42.85-.15.68-1.76.6-2.31C100.23,187.93,95.84,190,97.46,192.17Z"/><path d="M98.67,255.29c.61.59,2.59,0,3.07-.89C101.23,253.57,98.9,254.06,98.67,255.29Z"/><path class="cls-5" d="M97.93,224.88a7.3,7.3,0,0,1,6.82-.33C104.2,220.83,98.33,221.27,97.93,224.88Z"/><path class="cls-5" d="M100.45,215c-3.18-1.6-3.65,5.29-1.31,6.09.53-.11.79-1,.92-2.15a2.07,2.07,0,0,1,2-.21c.08,1,.29,1.81,1,2.1C105.77,218.77,102.34,212.71,100.45,215Z"/><path class="cls-5" d="M98.59,205.23a5.14,5.14,0,0,0-.35,5.57l1,0c-.1-.85.49-1,.28-2a1.67,1.67,0,0,1,2-.05,2.67,2.67,0,0,0,.37,1.79l.65,0C104.54,207.27,101,203.62,98.59,205.23Z"/><path class="cls-5" d="M98.68,195.58c-.7.81-1.53,1.39-1.24,2.64,0,.55-.23,1.68.21,1.8,0,.46.55.3.35,1l1,0c.15-1-.14-2,.93-2.15,1.56-.16.79,1.36,2,2.08C102.93,198.66,102,195.12,98.68,195.58Z"/><path d="M95.37,65.75c.38-.45-.2-.9,0-1.63.61-1.75,3.51-.74,4.69-1.27C98.07,60.92,91.51,63.71,95.37,65.75Z"/><path class="cls-5" d="M98,212.93l0,1c1.19-1,4-.67,5.36-.3C103.3,211.8,99.42,211.07,98,212.93Z"/><path class="cls-5" d="M97.74,203.94a10.69,10.69,0,0,1,4.89.37C102.5,201.5,98,201.39,97.74,203.94Z"/><path class="cls-5" d="M97.52,194.79c1.24-.48,3.51-.62,4.56.05C102,192.74,97.55,192.34,97.52,194.79Z"/><path d="M98,174.32c.83.11,1-.3,1.44-.85C98.84,170.27,95.32,174,98,174.32Z"/><path d="M96.35,72.6c.93-1-.78-1.87-1.82-1.27C94.62,72.29,95.58,72.34,96.35,72.6Z"/><path d="M100.57,260c0,.8-.62,1.68-.27,2.3C101,262.16,101.44,260.13,100.57,260Z"/><path class="cls-5" d="M97.86,161.56c.39.88-.22,2.11,1,2.27.25-.55.8-.83.77-1.65C99.08,162.05,98.4,161.16,97.86,161.56Z"/><path d="M99,33.27c-.38,0-.62-.24-1.14-.14-.41,1.88-2.52.28-2.38,2.68,1.84-.69,3.36-1,4.67-1.92.45.33.62.14,1,.31a3.16,3.16,0,0,1,1-.52,2.54,2.54,0,0,0,1.15.14c3.09-2,6.11,1.18,8.18,2.09C109.8,31.71,103.12,31.76,99,33.27Z"/><path d="M101.91,261.6a9.27,9.27,0,0,0,.45-1.49.79.79,0,0,1-.49-.15C101.81,260.51,100.93,261.31,101.91,261.6Z"/><path d="M100.76,73.31a1,1,0,0,1,.14-.66c-.35-.41-2.43-.93-2.6.07C98.17,73.22,100,73.71,100.76,73.31Z"/><path d="M103.52,260.9c.12-.58.65-.76.62-1.49-.25-.08-.42-.23-.66-.31C103.11,259.6,102.45,260.76,103.52,260.9Z"/><path d="M101.71,166.05a1.37,1.37,0,0,0,.2,1.8c.66.09.93-.19,1.46-.2A1.2,1.2,0,0,0,101.71,166.05Z"/><path d="M104.23,42.3c1.94-.09,3.2-1.16,4.84-1.92.08,1.28-.94,2.76-.41,3.45,1.41-.84,1.39-3,2-4.63a14.1,14.1,0,0,0-3.31-2.05,9.22,9.22,0,0,0-6.22-1.48A3.62,3.62,0,0,0,99.29,40c-.31.39-.81.6-.78,1.33C100.36,41.27,102.3,42.39,104.23,42.3Zm-3.14-2.37c.77.55,3.06.6,3.72-.59C105.54,41.73,101.42,42.29,101.09,39.93Zm1.73-2c.78.4.74,1.21-.29,1.31C101.92,38.8,102.35,38.17,102.82,37.92ZM106,41a10.8,10.8,0,0,1,.46-1.32c.29,0,.35.19.65.14C107,40.21,106.87,40.9,106,41Zm1.57-2.49c-2.38-.59-5-1.86-7.33-.32C101.28,34.76,106.26,36.69,107.56,38.46Z"/><path d="M104.12,252.21l1.95,0A2.45,2.45,0,0,0,104.12,252.21Z"/><path d="M105,260.7a1.69,1.69,0,0,0,.6-2C104.64,258.63,104,260.43,105,260.7Z"/><path class="cls-5" d="M110.59,89.43c-2,2.11-7.45,2.32-9.76.4C101.38,94.59,110,93.92,110.59,89.43Z"/><path d="M107.18,284.37c1-.7-.46-2.19-1.52-2.25A3.56,3.56,0,0,0,107.18,284.37Z"/><path class="cls-5" d="M105.4,211.12c-.73-5.18-.78-10.51-1.35-15.35-.1-.87-.42-2.65-.33-.48a3.92,3.92,0,0,0,.07,2.78c.13,1-.16,2.4.23,3.1,0,1.37-.12,3.14.26,3.92.07.6-.1,1.45.21,1.79,0,.94-.17,2.65.24,3.43.07.6-.1,1.45.21,1.79a12,12,0,0,0,.25,3.44c.09,2.7,1.2,6.82,1.53,9.28.17,1.29-.15,2.41.37,2,.33,5.13,1.88,10.53,3,14.81.25,1,.19,2,.39,2.45.5,1.06,2.71.78,3.61,1.38-2.61-5.09-4.45-11.79-6-19.32C107,221.24,106.09,216,105.4,211.12Z"/><path class="cls-5" d="M104,192.17c-.12-2.18-.81-.28,0,.49C104,192.5,104,192.34,104,192.17Z"/><path d="M100.8,68.56c.56,0,1-.76.63-1.16A.73.73,0,0,0,100.8,68.56Z"/><path d="M100.65,42.23c.09,1.14.56,1.86,1.68,1.92C102,43.23,101.63,42.43,100.65,42.23Z"/><path class="cls-5" d="M104.13,172.21a2.5,2.5,0,0,0,1.3-.36c.13-.72-.06-1.75.6-2a4.17,4.17,0,0,1,1.63.12c.67,1.09-.13,3.71,1.71,3.56,1.79-1.67,1.54-6.77-1.48-7.49A14,14,0,0,0,104.13,172.21Z"/><path class="cls-5" d="M104.7,101.68c2.4.88,5.17,0,5.8-2.43.37-1.48,0-6.08-1.93-5.68-.92.19-1,1.57-1.07,3-.65.4-2,.56-2.44-.1a10,10,0,0,0-.38-2.12c-1.35-.65-1.83.61-2.41,1.21C102.12,98.62,102.71,101,104.7,101.68Z"/><path d="M107,268.83c-.31.84.38.86.53,1.63.32.15.27.71.83.63.16,0,.19-.14.32-.17.64-1.3,2.39.18,3.73-.09.66-.14.67-.77,1.45-.86.54.35,1.31.39,1.45-.36-.5-.2-1.24-.15-1.48-.62a3.38,3.38,0,0,0,1.46-.2c-.18.92.51.92,1,1.12,0-.55-.31-.69.14-1,.4-.65,1,.41,1.46-.36a6.34,6.34,0,0,0-.7-1.79C114.7,267.24,110.83,268.39,107,268.83Z"/><path d="M107.35,257.86c-.48.16-1,.88-.62,1.33A.87.87,0,0,0,107.35,257.86Z"/><path d="M102.42,68c.56.19,1.51-1.2.92-2.15C102.49,66,102.28,67.47,102.42,68Z"/><path d="M105.13,72.55c-.5-.62-3.09-.86-2.42.71C103.59,73.48,104.88,73.39,105.13,72.55Z"/><path class="cls-5" d="M110.08,102c-1.34,1.85-4.91.87-6.66.65C104,106.33,110.51,105.49,110.08,102Z"/><path d="M107.25,253.61c-.31,1.28,2.79,1.38,2.77.26A2.55,2.55,0,0,0,107.25,253.61Z"/><path class="cls-5" d="M107.41,112.74c2.9-.11,4.23-4.46,2-6.92-1.36-.11-1,2.06-1.41,2.32s-1.55.27-1.79-.11c0-.71.06-1.52-.37-1.79-.45.14-.42-.22-.82-.15a3.81,3.81,0,0,0-.71,4C105,111.71,105.94,112.79,107.41,112.74Z"/><path d="M111.11,265.29c-2,.58-3,.6-2.71,2.2a21.16,21.16,0,0,1,5.16-1.93c.68.08.84,1,1.64.45C115.19,264.19,111.9,265.07,111.11,265.29Z"/><path d="M112.63,260.68c-.41.54.21,1.13,0,2-.76,1.12-2.88.88-4.53.77,0,.16,0,.32,0,.48C110.93,266,116.33,261.85,112.63,260.68Z"/><path d="M106,161c1,.23,1.79,0,1.59-1.35A1,1,0,1,0,106,161Z"/><path class="cls-5" d="M108.28,115.33a3.11,3.11,0,0,0,2.07-2c-1.34.33-4,.9-5.7-.19,0,.22,0,.44,0,.65C105.58,114.7,106.6,115.67,108.28,115.33Z"/><path class="cls-5" d="M105.13,119.66c.42,1.8,1.69,2.7,4.13,2.36,1.45-.6,2.5-5.75-.3-5.72a2.79,2.79,0,0,0-.28,2c-1.74,1.39-1.87-1.07-2.49-1.9-1-.07-.87.86-1.27,1.34C105,118.31,104.65,119.29,105.13,119.66Z"/><path d="M104.19,67.5c.73-.33,1.4-1.46.77-2.15C104.22,65.54,104.12,67,104.19,67.5Z"/><path class="cls-5" d="M110.42,123a6.62,6.62,0,0,1-4.88-.37C105.32,125.6,110.24,125.67,110.42,123Z"/><path class="cls-5" d="M106.23,137.8c1.68,1.31,3.4-.38,4.85-1.1a4,4,0,0,0-.2-1.63c-.52-.24-.71,0-1.3,0-.3.51.06,1.66-.61,1.81-1.6.47-1.26-1.12-1.83-1.75-.75-.13-.73.47-1,.84a1.61,1.61,0,0,0,0,1.8C106.23,137.86,106.22,137.75,106.23,137.8Z"/><path class="cls-5" d="M106.08,131.91c0,2.78,4.7,2.75,4.4.22C109.52,133.19,106.89,132.6,106.08,131.91Z"/><path d="M106.25,65c-.26.78-.46.83-.45,1.65a.79.79,0,0,1,.49.15C106.72,66.33,106.94,65.34,106.25,65Z"/><path class="cls-5" d="M109.28,163.08c-1.27,1-.59,2.49,1.2,2.43C110.43,164.33,110.26,163.28,109.28,163.08Z"/><path d="M106.76,72.83c.86-.08,1.95-.06,2.42-.87-.39-1-2-.47-2.6.06C106.8,72.13,106.51,72.46,106.76,72.83Z"/><path d="M111.66,254.15c0,.33-.44.22-.31.67.29,1,1.93,1.29,2.28.43A2.05,2.05,0,0,0,111.66,254.15Z"/><path d="M107.43,66.6a3.56,3.56,0,0,0,.59-2.47C107.33,64.36,106.75,66.09,107.43,66.6Z"/><path d="M110.21,154.39c1.1.45,2.32,0,1.91-1.52C111,151.89,109.15,152.91,110.21,154.39Z"/><path d="M109,63.62c0,.93-1,1.16-.27,2C109.45,65.63,109.91,63.68,109,63.62Z"/><path class="cls-5" d="M114,155.77a6.74,6.74,0,0,0-1.72,3.31c-.45.19-.34,1.11-.12,1.64-.25.25-.12.84-.13,1.31a1.58,1.58,0,0,0-.12,1.65c-.15,1.85,0,2.77,0,5.07a4.7,4.7,0,0,0-.11,2.29c.64,1.12-.78,3.94,1.09,4.56.86-.73.4-2,.42-3,0-3.58.48-7.47.7-11.14A26.82,26.82,0,0,0,114,155.77Z"/><path d="M110,64.25c.7,0,.8-.63.78-1.33C109.8,62.7,109.92,63.51,110,64.25Z"/><path d="M113.53,70.05c-.58-.15-.3-.27-.5-.64-1.09,0-2.34.7-1.75,1.84C112.18,71,113.18,70.83,113.53,70.05Z"/><path d="M111.9,63.05c.19-.34.65-.92.29-1.31C111.54,61.75,111.47,62.9,111.9,63.05Z"/><path d="M116.22,147.21c-.36-.63-.71-1.26-1.82-1.1C112.63,147.54,115.7,149.27,116.22,147.21Z"/><path class="cls-4" d="M123.93,183c3.08-5.23,4.67-11.63,6.88-17.84a61.79,61.79,0,0,0,1.81-5.93c1.59-6.28,3.85-12.81,5.22-19.76.39-2,1.61-5.59,1-7.06-.4-.93-3.13-2.24-4.95-2.66-3.8-.89-4.19,1-6.08,4.07-2.49,4-4.76,7.12-7.06,10.81-.46.74-1.22,1.38-1.58,2s-.72,2.1-1.07,2.65c-.48.73-1.38,1.42-1.59,1.83a15.8,15.8,0,0,0-1,4.44c-.49,4.66-.36,9.43-.63,14.09-.14,2.26-.73,5-.16,6.88.45,1.46,3.22,2.64,4.64,3.65A26.47,26.47,0,0,0,123.93,183Z"/><path d="M113.5,61.87c0-.19.17-.26.31-.33s0-.22,0-.33-.5-.65-.65-.15C113.39,61.1,113,61.75,113.5,61.87Z"/><path d="M114.77,60.85c0-.3.12-.35.32-.16,0-.33,0-.66,0-1C114.17,59.62,114.35,60.66,114.77,60.85Z"/><path d="M117.36,66.85a1.78,1.78,0,0,0-1.91,1.68C116.37,68.88,117.83,67.85,117.36,66.85Z"/><path d="M122.29,263.22c-.3-3,.1-6.15,2.77-6.61,1.27-.22,2.86.73,3.72-.75-2.48-.21-5.15-.25-7,1.32-.66,2.08-1.42,5.13,0,7.85.54,0,.16-.81,1-.51.09.57-.23,1.58.53,1.46.84-1,.14-4.44,1.49-5.44C122.78,260.28,123.62,262.79,122.29,263.22Z"/><path d="M118,140.13c-.4,1.18,1.67,1.94,2.29.76C120.51,139.52,118.54,139.23,118,140.13Z"/><path class="cls-4" d="M116.58,28.09c.18-2.18,1.75-4.7,1.14-6.57-1.08,1.78-1.37,4.33-1.78,6.75C116.24,28.3,116.29,28.08,116.58,28.09Z"/><path d="M119,66a1.93,1.93,0,0,0,1.59-1.84C119.7,63.25,117.6,65.3,119,66Z"/><path class="cls-4" d="M118.75,23.62c-.57,1.44-.63,3.86-.85,5.09,1.34-1.38,1.18-4.18,2-6.1C119.26,22.48,118.92,23.2,118.75,23.62Z"/><path d="M123.25,135.09a1.1,1.1,0,0,0,.93-1.66C121.84,132.18,121.56,135.13,123.25,135.09Z"/><path class="cls-4" d="M119.86,29.15c1-1.33,1.18-3.55,1.49-5.59A10,10,0,0,0,119.86,29.15Z"/><path d="M125.84,262c1.59.48,3.18-2,4.86-.94,2.68-.77,5.13,1.47,8.65.93.56-.5,2.45-1.34,1.91-1.84C136,262.59,129.21,256.6,125.84,262Z"/><path class="cls-3" d="M125.92,184.93c1.22-.43,1.15-2.1,2.21-2.68,2-5.23,4.51-9.95,5.8-15.84,1.64-3,1.9-7.24,3.67-10.07.91-4.88,2.84-8.78,3.23-14.15.54.19.11-.54.64-.35.27-2.46,1.36-4.13,1.13-7.06-1.09-.14-1.43,0-2.6-.1-1,5-1.73,10.16-3.56,14.32a61.8,61.8,0,0,1-2.52,10c-2,6.62-4.06,13.54-6.52,19.47l0,1.14c-1.21,1.15-1.57,3.08-2.17,4.8C125.67,184.41,125.66,184.81,125.92,184.93Z"/><path class="cls-4" d="M121.51,30.1c1.26-1.24,1.21-3.75,1.65-5.77C122.11,25.78,121.91,28,121.51,30.1Z"/><path class="cls-4" d="M124.38,27.74c-1,.28-.74,1.84-1.07,2.8C124.29,30.2,124.25,28.89,124.38,27.74Z"/><path class="cls-3" d="M157.5,145.21c-1.79-2.15-5.22-3.25-8.05-3.56-1-2.81-2.56-6-5.37-6.42-1.23,2.45-.85,6.43-2.56,8.41-.1.61.29.7.19,1.31a333.13,333.13,0,0,1-12,36.61,10.29,10.29,0,0,0-2.49,4.65c3,2.64,5.21,6.12,8.5,8.46,3.94-2.67,5.65-7.47,8.68-11,.87-3.16,3.24-4.89,4-8.12A66.36,66.36,0,0,0,154,163.46c.79-2.14,2-4.33,2.44-6.77C158,153.21,160.24,148.51,157.5,145.21Z"/><path d="M128.42,127c-4.26-1.74-.34,4.37,0,0Z"/><path class="cls-4" d="M125,25.27c-.79,0-.63.88-.61,1.65C125.1,26.88,125,26,125,25.27Z"/><path d="M125.5,53.39c.27.73,1.1.27,2.12.44C127.54,53,126.26,53.48,125.5,53.39Z"/><path class="cls-4" d="M126.79,26.21c-1.15,1.08-1.17,3.24-1.67,4.95l.65,0A44.7,44.7,0,0,0,126.79,26.21Z"/><path class="cls-4" d="M127.09,31.92c1.13-.94,1.1-3,1.51-4.62C127.36,28.14,127.43,30.22,127.09,31.92Z"/><path d="M130.22,120.52c-.46,2.56,2.23,2.18,2.3.93C132.57,120.46,131.35,119.79,130.22,120.52Z"/><path d="M129.11,61.65c2.5.78,4.81,1.21,5.94,3.13C135.54,61.37,131.33,60.82,129.11,61.65Z"/><path class="cls-4" d="M129.22,32.52c.17-.17.31-1.17,0-1.3C129.22,31.71,128.54,32.35,129.22,32.52Z"/><path d="M138.26,230.76c.2,1.23-.57,3.41.75,4.07a36,36,0,0,0,1-8c-1.75.18-4.62,4.28-3.76,6.32C137.17,233.22,137,230.92,138.26,230.76Z"/><path d="M133.3,93.62a2.21,2.21,0,0,0,0-1.8C132.45,91.91,132.85,93.4,133.3,93.62Z"/><path class="cls-5" d="M161,140.06c.68-3.5,1.4-6.54,1.72-9.7-6.81-5.89-13.66-11.74-23.46-14.47-1.21,2.35-2.86,4.29-4.07,6.64,1.08,1.94-.62,2.56-.88,4.11,3,.33,4.29,1.76,6.42,2.79.24-.94-.2-2.24.41-3.12,1.66.15,2,.77,2.82,2.23,1.34-.19,3.07-.53,3.44.73-.6,1-1.9,1.28-2.22,2.5a22.26,22.26,0,0,1,5.12,3.64c.35-.52-.12-1.82.61-2,1.49-.07,2,.88,2.49,1.9a4.31,4.31,0,0,1,2.62.59c0,.33,0,.65,0,1a2.46,2.46,0,0,0-1.89,2.5c2.06.15,3.22,1.68,4.6,2,.33-.61-.27-1.24.44-1.81C160.2,139.45,160.35,140.17,161,140.06Z"/><path d="M136.58,114.32c-1.22-1.18-3,.37-1.75,1.67A1.33,1.33,0,0,0,136.58,114.32Z"/><path class="cls-5" d="M136.66,90.92c-.12,1.3-.56,2.52-.56,3.61,0,2.54,2.11,4.23,3.07,6,1.59-1.05,1.14-2.43.56-3.62C138.8,95,137.78,91.72,136.66,90.92Z"/><path class="cls-5" d="M145.08,230.27c-.94,1.6-1.76,3.58-2.79,5.46s-2.72,5-2.28,6.61c0,.2.18.09.32,0,.4-1.75,1.6-2.74,1.84-4.63,2.45-3.66,4.55-7.2,6.57-11a87.45,87.45,0,0,0,6.28-9.48c1.28-1.49,3.19-2.66,3.46-4.83-.47,0-.5-.36-1-.3a50.12,50.12,0,0,0-8.18,11.49A68.33,68.33,0,0,0,145.08,230.27Z"/><path d="M141,107.82a2.7,2.7,0,0,0-1.8-.77C137.22,108.52,140.94,110.6,141,107.82Z"/><path class="cls-5" d="M138.07,88.75a20.29,20.29,0,0,0,5.1,2.17c.35-2.82,1.44-5.84.12-8.51C140.85,84,138.55,86.65,138.07,88.75Z"/><path class="cls-5" d="M146.87,243.31c1.8.66,2.37-5.22,2.09-7.41-2.56,1.62-5.84,1.94-6.05,5.55,1.68.74,2.11-1.77,3.72-1.07C146.48,241.24,146.35,242.77,146.87,243.31Z"/><path class="cls-5" d="M143.86,92.86c-1.42-.38-2.9-1.86-3.91-.39-.29,2.42,1.26,3.55,2.2,3.71C142.61,95,143.75,94.4,143.86,92.86Z"/><path class="cls-5" d="M144.7,113.79c.11-1.85-.88-2.54-1.87-3.23C140.59,112,142.93,113.4,144.7,113.79Z"/><path class="cls-5" d="M142.69,131.5c.65-.1,1.95-.71,2.07-1.84a2,2,0,0,1-2.29-.44C142.59,129.93,142.3,131.08,142.69,131.5Z"/><path d="M142.92,100.9c-1.78,1.37,1.71,2.83,1.64.62C144.32,101,143.76,100.81,142.92,100.9Z"/><path class="cls-5" d="M146.66,234.65c.4,0,.4.35.66.47,1.32-.26,2.05-1.8,3.54-1.39.23,1.63-.62,2.22-.24,3.61,3.63-1.08,2.78-5.65,3.36-9.09C151,229.82,146.7,230.21,146.66,234.65Z"/><path class="cls-5" d="M144.49,91.7a2,2,0,0,0,1.25-2.15C144.61,89.94,144.65,90.53,144.49,91.7Z"/><path class="cls-5" d="M145.19,80.4c-2.32,0,.32,2.79.74,3.58.64,1.22.82,2.72,1.7,3.07.43,0,.11-.64.64-.51-.05-.16,0-.88,0-1.15C148,84.62,145.9,80.38,145.19,80.4Z"/><path class="cls-5" d="M145.19,107.23c.59,0,.77-.32,1.29-.36C146.26,105.65,144.43,106.57,145.19,107.23Z"/><path d="M146.68,94.76c0,1.56.72,1.71,1.82,1.43C149.71,94.87,147.52,93.39,146.68,94.76Z"/><path class="cls-3" d="M149.81,103.36c.27-1.48,1.51-3.63.69-5.09C149.79,99.67,146.07,102.9,149.81,103.36Z"/><path class="cls-3" d="M151.76,217c-.09-1.46.19-4.65-.47-6.05a27.74,27.74,0,0,1-.18,6.06Z"/><path class="cls-5" d="M155.66,230.17a4.15,4.15,0,0,0,1.63.13c2.22-2.23,3-5.86,2.87-9.23-2.75,1.06-6.06,2.17-8.2,4.12,0,.6,0,1.2,0,1.8,1.69.71,2.34-1.48,3.88-.91,0,1.7-.55,2.64-.4,3.44C155.64,229.18,155.54,229.74,155.66,230.17Z"/><path class="cls-5" d="M151.18,193c-.09.88.37,1.16,1,1.28a39,39,0,0,0,8.53-10.52,1.56,1.56,0,0,0-2-.11c-1,2.62-3,3.39-4.09,6C153.58,190,152.67,192.07,151.18,193Z"/><path class="cls-5" d="M150,116c.83,1.65,3.75,2,5.9,1.65,0-1.5-2.36-2.3-3.64-2.36C151.34,115.2,150.33,115.1,150,116Z"/><path class="cls-3" d="M152.7,215.52c1.27-.9.45-4.34-.13-5.4C152.61,211.92,152.66,213.72,152.7,215.52Z"/><path class="cls-5" d="M157.39,194.13a34.64,34.64,0,0,0,6.93-9.49,3.16,3.16,0,0,0-2-.44,74.8,74.8,0,0,1-9.17,11C153.81,197.94,156.23,195.26,157.39,194.13Z"/><path class="cls-5" d="M152.46,138.63a3.65,3.65,0,0,0,1.26-1.83c-.39,0-1.45-.24-1.65-.94C152.28,137.06,151.17,138.2,152.46,138.63Z"/><path d="M151.44,89.73c.91-.13,1.84-.25,1.59-1.51C151.86,86.75,149.88,88.46,151.44,89.73Z"/><path class="cls-3" d="M154.28,213.68c.49-.85-.11-3-.42-4.08C154.07,210.89,153.55,212.94,154.28,213.68Z"/><path class="cls-3" d="M151.31,104.46a31.26,31.26,0,0,0,5.44,3c1.76-4.54,2.35-10.21,3.37-15.46a6.89,6.89,0,0,0-3.82-3c-1.7,2.12-3.7,4.84-4.19,8.45A68.79,68.79,0,0,0,151.31,104.46Z"/><path class="cls-5" d="M152.23,109c-.2,0-.22.21-.48.18.58,3.24,1.81,5.8,4.87,6.42C157,112.71,154.11,110.61,152.23,109Z"/><path class="cls-3" d="M155.54,211.85c-.16-.45.3-1.54-.36-1.47C155.34,210.84,154.88,211.93,155.54,211.85Z"/><path class="cls-4" d="M162.94,248.48c-1.95,1-4.53,1.42-5.95,2.93C159.79,252.9,162.84,252,162.94,248.48Z"/><path class="cls-5" d="M158.58,216.52c-.65.71-1.6,1.13-2.23,1.85,0,.87-.07,1.87.38,2.28,2.53.22,3.37-2,5.49-1.61.08,1.35-.41,2.15-.56,3.62a5.85,5.85,0,0,1,.84,1.12c3-.2,4.15-3.45,4.07-6.65-1.81-.31-2.88-2-4.44-1.84C160.88,215.39,160,216.6,158.58,216.52Z"/><path class="cls-3" d="M166.86,188.67c.56,1.81,3.13,3.08,2.4,5.17-1.69.34-4.08-.78-5.71-.51.24,2.2,2,2.84,2.08,5.19-2.23.62-4.32-1.11-6.52-.5.59,2.28,2.15,3.54,2.11,6.5a25.81,25.81,0,0,0,5,4.45,4.53,4.53,0,0,0,4-1.56,35.37,35.37,0,0,0,3.29-5.16,44.8,44.8,0,0,0,3.72-7.78c.56-1.48,1.45-2.61.87-4.44C175.45,187.89,170.68,186.47,166.86,188.67Z"/><path class="cls-5" d="M157.45,116.42c-.14.24-.1,1.35.68,1.13C158.13,116.93,158.22,116.22,157.45,116.42Z"/><path class="cls-3" d="M159.72,109.16a70.4,70.4,0,0,0,3.22-14.8c-.64-.44-.93-1.26-1.83-1.43-.73,5.43-2.08,10.25-2.87,15.61C158.91,108.57,159,109.25,159.72,109.16Z"/><path class="cls-5" d="M159.73,116.36c-.19,2.66,4.08,2.55,5.24,1.35A4.24,4.24,0,0,0,159.73,116.36Z"/><path d="M161.84,176.35c-.2,2.34,2.84,1.68,2.77.43S162.68,175.69,161.84,176.35Z"/><path class="cls-3" d="M172.25,102.64a15.83,15.83,0,0,0-3.83-3.83,21.07,21.07,0,0,0-4.32-3.33,114.58,114.58,0,0,0-2.31,12C164.66,105.76,167.62,103.16,172.25,102.64Z"/><path d="M166.54,142.21a1.75,1.75,0,0,0-2.45-.43C164,143.6,166,143.22,166.54,142.21Z"/><path d="M169,136.26c-.71,0-.71.5-1.3.2-.41-.8-.25-2.2-1-2.59-.83.88-.12,2.36-.9,3.13-.51-.1-1.12-.6-1.46,0a56,56,0,0,0,3.22,5.16C168.05,140.34,169.19,138.26,169,136.26Z"/><path class="cls-5" d="M167.44,192.58l-1.62,0A1.69,1.69,0,0,0,167.44,192.58Z"/><path d="M169.13,108c-.88-.36-.43.4-1.29.36-.59-.66-.52-2-1.68-2.08-.43.7.34,2.56-.59,2.79-.29-.28-1-.19-1.13.2,1.34,1.43,2,3.57,3.37,5A18.54,18.54,0,0,0,169.13,108Z"/><path d="M166.56,142.86a2.9,2.9,0,0,0-.42,2.79,3.5,3.5,0,0,0,1.63.29C168.56,144.71,168,142.61,166.56,142.86Z"/><path class="cls-5" d="M167.48,187.34a4,4,0,0,0,2.58-.88l-.82,0A3.4,3.4,0,0,0,167.48,187.34Z"/><path d="M169.3,175.35c-.14-1.67.86-7.31-.84-7.83a46.8,46.8,0,0,0,.16,13.25c.51.07.1-.75.47-.83.08-.34.32-.53.47-.82,0-.17,0-.33,0-.5C169.15,177.87,169.43,176.39,169.3,175.35Z"/><path d="M168,142.34c.19,0,.18.25.17.48C171.36,144.43,169.93,139.5,168,142.34Z"/><path class="cls-5" d="M170.07,211.57c.06,0,.14.05.11.25,1.21.14,1.34-.74,2.59-.55.33.91-.59,1.69-.25,3.11,2.95,1.55,5.27-3.5,4.39-6.65C174.34,208.61,171,209.56,170.07,211.57Z"/><path d="M171.06,114c.15-1-.87-1.26-1.66-1.27C167.5,113.74,169.87,115.34,171.06,114Z"/><path d="M170.65,150.45c-.88,1-.83,4.91.14,5.73C171.39,154.9,171.69,150.92,170.65,150.45Z"/><path d="M174.5,128.27c.16.28.32.56.83.47.19-2.26,1.34-3.61,1.82-5.61-.53-.23-.72,0-1.31,0-.45-.65.16-2.41-.87-2.44-.29.74-.3,1.74-.76,2.31-.58-.08-1.14-.81-1.64-.45.31,1.85,1.79,3.37,1.59,5.2a2.88,2.88,0,0,0-2-.28C171,129.26,174.11,129.81,174.5,128.27Z"/><path d="M177,143.26c-2.39.43.29,3.24-1.19,4.45-.47-.28-1.27-.68-1.63-.12.18.86,1,1.11.87,2.26-.6,0-.23-1-1-.79a22.24,22.24,0,0,0,.09,3.6c1.33.16.55-1.71,1.25-2.16a7.07,7.07,0,0,1,.88,2.93c-.8-.3-2.33-.48-2.74.71.08.75.46.69.2,1.47,1.15-.74,2.35,0,2.89-1.54.43.63.75-.14,1.14.13-.12,1.63,2.9,1.37,2.93.1-.34-1.09-2.26-.52-2.8-1.41a16,16,0,0,1,1.85-4.46c.35,1.81-.61,4.71.93,4.89.7-.72-.06-2.83.4-3.78a2.08,2.08,0,0,1-.05-1.79,48.09,48.09,0,0,1,0-5.24c0-1.66.33-3.86-.77-4.89-1.1,2.35-.15,6.67-.58,9.66-.71-.42-.68.28-1.46.21a6.33,6.33,0,0,1-.36-1.47c1.9-.45,1.16-4.9.68-5.42-1.12.91-.37,2.81-1,4.28C176.62,144.75,177,144.12,177,143.26Z"/><path class="cls-4" d="M175.39,218.4c0,.11,0,.22,0,.32,5.23.84,8.85,4.28,15.06,3.89,2.5-2.92,4.2-7.14,6.42-10.47a41.42,41.42,0,0,1,1.35-4V177.07a97.41,97.41,0,0,1-8,23.3A78.77,78.77,0,0,1,175.39,218.4Z"/><path class="cls-5" d="M175.55,204.65a1.44,1.44,0,0,0,.35,1.3c1.57.37,2.1-1.56,3.25-.57.24.82-.31.87-.29,1.48s.55.31.34,1c3.57.32,3.47-4.45,3.2-8.91-2.38.75-3.89,2.34-5.6,3.73A2.62,2.62,0,0,1,175.55,204.65Z"/><path d="M174.14,146.93c.76.12,1-.82.79-1.16C174.28,145.79,174.28,146.42,174.14,146.93Z"/><path d="M175.85,130c-.47-.06-.53-.57-1.15-.47-1,.46-.94,2.17-.26,3C175.9,132.85,176.05,131.2,175.85,130Z"/><path d="M175.83,129.06c.57.52,1.66.12,2.1-.38C177.47,127.27,176,127.65,175.83,129.06Z"/><path class="cls-5" d="M180.76,111.1a.78.78,0,0,0-.68-1A1,1,0,0,0,180.76,111.1Z"/><path class="cls-5" d="M183.63,189.4c2,.45,2.73-2.32,4.51-2.08,0,1.4,0,2.78.73,3.43.91.48,1.49-.91,1.6-1.35.56-2.25-.84-5.59-1.48-7.33a19.49,19.49,0,0,0-5.73,5.38C183.45,188,182.94,189.35,183.63,189.4Z"/><path class="cls-5" d="M186.46,118.16c-.24-2.07-2.33-3.56-4-4.65-.75,1.39.65,2.57.75,4.08A4.46,4.46,0,0,1,186.46,118.16Z"/><path class="cls-5" d="M185.07,121.31c-.37,1.31.14,3.07,1.07,3.57.83-.58.13-1.94.92-2.32,1.56-.19,1.77,1.74,3.44.9-.09-3.15-3.12-3.19-5.15-4.29C184.34,119.27,184.93,121.1,185.07,121.31Z"/><path class="cls-5" d="M187.78,172.28c.59,2.51,2.77-.23,3.72-.91,1.31.59.62,3.39,2.18,2.89,2.68-.84-.44-8.26-1.51-8.79C191.54,167.06,187.16,169.7,187.78,172.28Z"/><path class="cls-5" d="M190.38,165.51c1-.59,1.15-2,2.22-2.51,1,.22.89,1.52,1.2,2.43.38,0,.61.24,1.14.13,1-2.66-.2-6.61-2.47-7.79-1.1,2.41-3.21,3.85-3.24,7.28C189.74,165.07,189.68,165.68,190.38,165.51Z"/><path class="cls-5" d="M189.37,137.23c.71-.54.53-1.93,1.24-2.48,1.45.08,1.34,1.82,2.65,2.06,1-3-1.68-4.88-3.25-6.3-.49,1.28-1,2.49-1.4,3.86,0,.54-.37.39-.36.94S189.12,137.62,189.37,137.23Z"/><path class="cls-5" d="M190.28,154.88c-.28.23-.29.66-.28,1.32,0,.05.33.75.33.8l.82,0c.75-.4.43-1.82,1.25-2.16,1.19.26,1,2,2.33,2.08,1.31-2-.65-5.17-1.95-6.5C191.7,151.78,190.69,152.65,190.28,154.88Z"/><path class="cls-5" d="M191.15,137a28.45,28.45,0,0,1-1.22,3.14,3.37,3.37,0,0,0-.24,1.64c-.07.51.12,1.45,1.12,1.13a8.15,8.15,0,0,1,.59-2.14c1.31-.56,1.43,1.49,2.49,1.73C195.05,140.3,192.7,138,191.15,137Z"/><path class="cls-5" d="M192.13,143.71c-.61,1.71-2,3.47-1.49,5.76,0-.17.2-.13.17.16,1.27-.06,1-1.55,1.9-2a1.89,1.89,0,0,1,1.34,1.61c2-1.81-.35-4.14-1.61-5.7C192.41,143.67,192.32,143.73,192.13,143.71Z"/><path class="cls-4" d="M196.57,132.31c.43,3.93,1.08,8,1.66,12.08v-9.71C197.64,133.57,197.06,132.1,196.57,132.31Z"/><path d="M76.59,197.43a2.09,2.09,0,0,0,.4-.19h0A2.09,2.09,0,0,1,76.59,197.43Z"/><path class="cls-5" d="M11.78,175.13a122.19,122.19,0,0,1,.36-18.5c.48-4.06.62-8.41,1.68-11.33.37-1,.46-1.87.74-2.8a78.23,78.23,0,0,1,16.38-29.19,14.61,14.61,0,0,1,1.91-1.69c1-.74,2.38-1.17,3-2.36-.73-.6-1.67-.12-2.28.22-2.66,1.46-5.07,5.31-7.31,6.89-.19.69-.65,1-.62,1.48-2.06,1.44-3,3.93-4.74,5.68-.06,1.6-1.53,1.85-1.55,3.48-1.35.89-2,3.79-3.12,5.48C16,135.56,14,137,13.85,140.24a6.75,6.75,0,0,0-.9,3.13,3.35,3.35,0,0,0-.9,2.8,9.78,9.78,0,0,0-.86,4.77c-.46.15-.44,1.12-.44,1.71,0-.24-.45,1.42,0,1.41-.3.4-.07,1.32-.11,2a4.17,4.17,0,0,0-.1,2.62c-.33.75,0,2.11-.09,3.11a15.34,15.34,0,0,0,.14,5.73c0,.16,0,.32,0,.49-.5,1.24,0,2.59-.09,3.27a6.29,6.29,0,0,1,.05,2.13c0,.65.06,2.27.08,2.94.44.37-.08,1.76.37,2.12a31.67,31.67,0,0,0,.3,5.39c.1,4.34,1.18,6.65,1.55,10.59,1,1.89,1.06,4.7,2.28,6.33C13.06,192.91,12.2,184,11.78,175.13Z"/><path class="cls-5" d="M15.54,169.31c1.46-2.23,3.23-4.43,3.4-7.45-.38,0-.31-.55-.82-.47-1.51.26-1,2.43-2.88,2.36-.62-.78-.24-1.95-1.36-2.42l-.48,0C12.05,164.33,13.9,167.27,15.54,169.31Z"/><path class="cls-5" d="M14.64,152.48c-2.48,2.64-.11,6.86,1.36,9,.63-1.64,4.09-3.45,4.42-5.51.14-.8.07-2.48-1.51-2.25-.86.61-1.18,1.74-2.4,2-.69-1.19-.31-2.48-1.54-3.07C14.81,152.64,14.77,152.51,14.64,152.48Z"/><path d="M30.43,172.71c.08-1-1.69-1.25-2.63-.92-.34-4.55,0-10.69,0-14.72.21.21.7.14,1.14.13a10.4,10.4,0,0,1,.53,1.79c-.38-.1-.14-.85-.83-.63-.33,2.59.16,6.47-.09,9.49-.09.55.25,1.51-.12,1.8,0,.65.09,1.13.52,1.3,1.07-.58.55-1.92.58-3a69.09,69.09,0,0,0,0-8.26,1,1,0,0,1-.07-.58c0,.19.05.38.07.58s.2.14.43.07c.77-.44.45-1.92,1.08-2.49.58-.25,1,.45,1.46-.2.25-1.45-1.3-3.41-.93-4.55,1.2.62,3.18,0,2.57-1.54-1.38-.85-3.14.14-3.88.92-.25-.36-.14-1.09-.52-1.3-1.49-.79-2.1.48-3.07,1.05-.08,7.34-.13,13.52-.13,21.28-.09.66.25,1.73-.11,2.13.18,5.68-.35,10.38.24,16.84,1.26.09.75-1.4.77-2.14,0-2.44.17-6.08.1-9,.09-.83-.26-2.07.1-2.63,0-1.87-.2-3.84.2-4.91C28.65,173.76,30.36,173.6,30.43,172.71Zm-2.6-20.06a6.88,6.88,0,0,1,1.78-.21c-.73,1.43-1.72,2.62-2,4.47C27,155.43,28.25,154.44,27.83,152.65Z"/><path d="M36.75,164.7c-.71.4-.57,2.78-.08,3.6.26-.37.43-.42.47-.66.49.8-.59,1.29-.6,2.14.48.56,1.22,0,1.63,0,.52.63.16,2.18,1.35,2.09a6.54,6.54,0,0,1,.77-2.14,2.06,2.06,0,0,0,1.31.46c.53-.5,0-1.05-.2-1.63-.52-1.74-1.13-4.24-2.4-5.18-.8,1.16-.75,3.12-1.69,4.13,0-.75.25-2.56-.24-2.94.81.14.86-.45,1.45-.52C38.58,160.49,33,163.88,36.75,164.7Z"/><path class="cls-5" d="M49.85,208.39c0-3.45-2.83-5.39-5.22-6.91a1.7,1.7,0,0,0,0,2C45.75,206,47,208.43,49.85,208.39Z"/><path class="cls-4" d="M62.81,78.82a16,16,0,0,1,6.46,4.59,37.36,37.36,0,0,1,6.57,9.16c1.47,1.31,2.12,3.26,3,5a157.54,157.54,0,0,1,10.34,23.8c.89,2.92,1.1,6.56,3.13,8.26-.08,0-.18.14,0,.17,0-.14.13-.2.32-.18,1.61,1,3.13,2.38,4.8,3.49s3.28,2.52,5.27,2.65c-.1-6.6-.58-14.46-1.3-20.26-.46-3.62-1.55-8-2.23-11.39-.65-3.21-.94-5.71-1.51-8.48a39.69,39.69,0,0,0-3.34-10.22,33.11,33.11,0,0,0-2.73-5c-.84-1.07-2.16-1.47-3.14-2.37-.21-.2-.3-.74-.51-1A15.1,15.1,0,0,0,85.5,75c0-1.21-.58-2.52-1.67-2.09,1.33,4.34-3.56,7-7.37,5.09a10.65,10.65,0,0,1-2.7-4.18l-.06-2.46c.09-.6.8-.61.61-1.49-1.26-.14-2.73-.88-3.76-.72.28,5.15-6.15,3.58-6.67.16a31.87,31.87,0,0,0-9,3c-1.49.67-3.18.84-4.52,1.9,3.29.18,5,2,7.24,3.1C59.17,78.15,61,78.2,62.81,78.82Z"/><path class="cls-4" d="M70.21,256.16a54.9,54.9,0,0,0,9.35,3.37A6.8,6.8,0,0,0,81.43,256a16.69,16.69,0,0,1,4.44-4.85,20.42,20.42,0,0,0,3.35-2.7c1.83-2.36,2.92-6.87,3.48-10.88,1.82-13,1.67-28.31,1.1-41.75-.35.42.23,1.71-.61,1.65a7.25,7.25,0,0,1-.39-2.61c-1.21.66.47,4.07-1,4.45,0-1.15-.52-1.81-.4-3.1-.72,1,.06,3.47-.71,4.44-1.17-.55,0-3.61-.92-4.4-.49,2.6-.31,6-1.11,7.88-1-1.14.13-4.48-.45-5.23-.09,1.48-.71,3.46-.85,5.43-.06.91.48,2.21-.42,2.79-.83-2.13.68-4.85-.48-6.37-.49,2.67-.08,6.2-.93,8.53a31.42,31.42,0,0,1-.45-5.06c-1,2.3-.24,6.27-1.26,8.54-.69-1.54-.27-4.85-.48-6.37-.84,3.34-.62,7.71-1.52,11-.94-1.29.07-4.62-.46-5.55-1.16,2.56-.14,7.21-1.72,9.37-.48-3.33.56-7-.06-9-.37,3.29-1.13,7-1.21,10.67,0,1.17.42,2.82-.4,3.78-.5-3-.12-6.86-.39-9.32-.65,3.85-.57,8.39-1.16,12.3-1.11-2.06-.18-5-.19-7.69,0-1.39,0-2.78-.09-3.92-.5,4.84-.55,10.12-1.1,14.91-2,.51,0,4.95-1.32,6.08-.55-.19-.27-1.27-.85-1.45a3.66,3.66,0,0,1-.44,2c-.59,0-.63-.21-1.14,0A39.61,39.61,0,0,1,63.49,248c-.48.44-1.67.21-1.76,1,1.75,1.79,2.78,4.66,5,5.93C67.71,255.47,69,255.67,70.21,256.16Z"/><path class="cls-5" d="M70.11,238.65A11.54,11.54,0,0,0,65,236.16c-.16,2.53-1.36,5.8-.12,8.51A22.21,22.21,0,0,0,70.11,238.65Z"/><path class="cls-4" d="M76.6,164.21c-1.17,3.52-2,7.28-3,10.88C72.21,180.33,71,185,69.9,189.9c-.27,1.2-.93,3.53-.7,4.44.53,2.09,4.49,2.69,6.42,3.11a1.56,1.56,0,0,0,1.38-.2h0c1.61-.8,3-3.77,4-5.48,2.67-4.27,4.69-7.32,7.21-11.3,1.13-1.8,3.1-3.57,3.93-5.5,1-2.29,1-6.51,1.06-9.84.14-5.22.51-10,.29-14.9a36.89,36.89,0,0,0-9.26-6.15C81.29,149.76,79,157,76.6,164.21Z"/><path class="cls-4" d="M93,301.74c-.34,1.27-1.47,2.9-.72,3.94.84-1.74.93-4.22,1.48-6.25C92.88,299.77,93.18,300.88,93,301.74Z"/><path class="cls-5" d="M95.33,151.32c-1,2.3,0,6-.61,8.36h0c-.36.51,0,1.68-.11,2.45h0c0,1.31-.2,3.93-.34,5.9-.08,1-.28,2.14.39,2.6,1.9-1.48,1.27-4.43,1.45-7.4.07-1.27.39-3.21.36-4.91C96.44,155.74,96.75,152.59,95.33,151.32Z"/><path class="cls-5" d="M100.5,156.76c-.17-.94-.14-2.09-.39-2.94-.75-.07-.69-.61-1.47-.29-1.34,2.05-1.34,7.12,2,7.31a20.76,20.76,0,0,0,3.6-5.81c0,.22-.54-.42-1.14-.14C103.14,155.89,102.09,158.41,100.5,156.76Z"/><path d="M102.86,254c.2,0,.19.26.18.49,1,.28,3.09.33,3.07-.89C105.4,252.71,103.35,253.32,102.86,254Z"/><path class="cls-4" d="M142.56,247c-2-1.11-4-3.55-5.66-5.59a68.46,68.46,0,0,1-7.61-11.6,145.63,145.63,0,0,1-10.35-24.12c-.71-2.35-1-4.91-2-7-.5-1.08-3.11-2.47-5.13-3.8-2.52-1.63-4.25-3.51-6.44-3.6,0,0-.28,0-.15.49.07,1.73.2,2.17.24,3.11.13,3,.08,5.54.37,8.49.59,5.9,1.91,12.87,3.06,19.07,1.43,7.64,2.84,15.63,5.72,20.8a24.79,24.79,0,0,0,1.86,3.07c1.11,1.38,2.81,2.25,4,3.49a19.23,19.23,0,0,1,1.68,2.09c.48.68.79,1.83,1.84,2.08.74-.8-.16-1.33-.06-2.29.18-1.77,2.06-3.17,3.49-3.52,4.5-1.1,8.53,3.72,6.39,8.51,1.24.11,2.31.86,3.44.57.29-4.8,6.06-3.34,7,0,2.65-.07,4.66-1.32,6.62-2.12s4.22-1.17,6.13-2.45c-3.17-.54-5.34-2.75-8.07-3.72C146.83,248.23,144.5,248.07,142.56,247Z"/><path class="cls-5" d="M108.35,131.53c2.46.28,3.25-4.09,1.5-5.6-.82.18-1,1-.93,2a3.15,3.15,0,0,1-1.3.2c-.62-.41-.38-1.72-1-2.1C104.57,128,106.39,131.3,108.35,131.53Z"/><path class="cls-5" d="M116.53,79.79A21.9,21.9,0,0,0,113,81.35c-.7,2.13-.42,7.07-.91,9.35a3.67,3.67,0,0,0,0,1.64c-.08,4.16-.15,7.36-.21,11.45-.47.85-.09,1.93-.1,2.46-.21,5.63.27,9.58.21,15.54a1.58,1.58,0,0,0,0,1.79c.19,3.33,0,7.09.41,10.14,0,.5-.12,1.92.21,1.63.62-.26.49-2.94.38-4.27-1.34-15.49.09-34.53,1.67-45.35A27.78,27.78,0,0,0,116.53,79.79Z"/><path class="cls-3" d="M138.35,240.9c1.38-1.6,1.92-4,2.78-6.12,2.6-4.11,4.91-8.49,7.17-12.93,1.25-.83,1.65-2.47,2.51-3.67-.7-1.25-.25-4.48-.78-5.38-.85,1.59.52,5.29-.65,6.56-.61-.86-.4-2.59-.9-3.57-.63,1.72.24,4.45-.35,5.89-1.18-.87,0-4.23-1.1-5.2a19,19,0,0,0-.07,3.76c0,1.28.47,2.92-.4,3.45-.71-1.27-.25-3.77-.94-5.05-.15,2.19.55,5.21-.16,6.88-1.27-1.69-.38-5.41-1.14-6.85-.13,2.88-.08,6.13.06,9-1.15-.63-.59-3.07-1.4-4.06-.34,1.7.35,4.4-.52,5.58-1.21-1.06,0-4.75-1.12-5.86-2.74.53-3.15,4.1-5.59,4.39,1-4.69,6.73-4.85,6.75-10.48-2.18-.21-1.63-3.31-2.88-4.51-.37,1,.83,2.3.25,3.43-1.2-1.64-1.32-4.42-2.58-6-.08,1.58,1.25,3.31.43,4.57-1.42-2.41-1.65-6.08-3.29-8.26-.22,2.19,1.72,4.43,1.46,6.67-2.26-1.91-1.92-6.58-4.27-8.4.64,2.4,2.15,4.78,2,7.48-.59-2.45-2.33-3.69-2.6-6.48-.52.15-.23-.54-.66-.48.26,1.08,1,2.53.58,3.75-1.24-1.6-1.54-4.18-2.9-5.65-.23,1.54,1.46,3.29.26,4.24-1.2-1.86-1.25-4.94-2.92-6.31.1.69.66,1.76.22,2.45-.94-.68-.84-2.46-1.86-3.06-.5-.11-.18.57-.81.35a4.24,4.24,0,0,0-4.14-3.17c.22,3.85,2.33,7.15,2.87,11.21C126.58,220.35,131.32,231.82,138.35,240.9ZM140,226.79a35.89,35.89,0,0,1-1,8c-1.32-.66-.54-2.84-.75-4.07-1.22.16-1.09,2.47-2.06,2.34C135.34,231.07,138.21,227,140,226.79Z"/><path class="cls-5" d="M159.64,146.14c-.81-3.56-4.92-5.71-8.44-6-1.85-3.69-3.88-7.19-9.29-7.13-1.28-1-2.09-3-3.65-2.86,1.5.65,2.17,2.19,3,3.53,5.56,0,8.41,3.15,9.29,7.46A9.17,9.17,0,0,1,156,142.8c.7.38,1.6.54,1.83,1.43C158.53,144.74,158.87,145.67,159.64,146.14Z"/><path class="cls-5" d="M156,142.8c.63.45,1.25.92,1.83,1.42C157.58,143.34,156.68,143.18,156,142.8Z"/><path class="cls-5" d="M138.41,129.65c-1.79-.75-4.22-2.58-6.71-1.47,0,.11,0,.21,0,.32C134.62,128,137.12,130,138.41,129.65Z"/><path class="cls-5" d="M134.93,106.83c-.3,1.29.74.4.64-.34.6-1.67,2.75-3,2.49-4.65-.19-1.24-1.62-2-2.19-3.38C134.94,100.35,134.59,104.14,134.93,106.83Z"/><path class="cls-5" d="M142,244.41a6,6,0,0,0,2.8,1.57,4.62,4.62,0,0,0,.09-3.44C143.9,243.13,142.45,243.29,142,244.41Z"/><path class="cls-5" d="M163.23,112.84c-4.38-2.89-10.88-7-16.33-8.93a2,2,0,0,0-.62,1.17c.39.64,1.94.61,2.16,1.74a16.18,16.18,0,0,1-.61,2c-.42,1.08-.27,2.07-.57,3a19.78,19.78,0,0,1-1.07,3c-1.17,1.86-4.05-2-5.72-.84l0,1.15c8.78,3.2,15.71,8.35,22.46,13.68,0-.72.43-1,.28-1.8-.59-.56-2.54-1.81-3.33-3.19,1.28-.11,2.43,1.33,3.78,1.7a8.55,8.55,0,0,0,.1-2.78c-1.89-1.2-2.27-4-5.3-4,0,.19,0,.39-.32.33.31,2.14,1.24,2.61,2.06,4.21l-.48.5c-2.89-1.06-5.76-3.93-8.76-5.67-1-.59-2.35-.9-2.5-2.08-.12-1,1.33-3.32,1.54-4,.08-.24-.23-.49-.19-.81s.56-.7.63-1-.18-.82,0-1.14c.87-1.93,2.35-.76,3.58-.09,1.46.8,3.3,1.46,4.61,2.34.44.3.64.86,1,1.12.62.43,1.44.54,2,.93,1.18.88,1.95,2.25,3.64,2.53C166.27,114.2,164.45,113.65,163.23,112.84Z"/><path class="cls-5" d="M148.25,246.71a99.39,99.39,0,0,1,14.06-17.52c2.42-2.31,4.67-4.79,7.15-7,.62-1.13,2.12-2,2.36-3-2-.51-2.56,1.69-4,2.23-2.11,2.23-4.1,4.59-6.35,6.7a3.56,3.56,0,0,1-1.9,2,14.07,14.07,0,0,1-3.8,4.35,13.74,13.74,0,0,1-3.16,3.83c-1.47,2.76-3.44,5-5,8,0,.22,0,.43,0,.65C147.91,246.92,148,246.7,148.25,246.71Z"/><path class="cls-5" d="M149.62,81.76a3.75,3.75,0,0,0-2.5-2.23A3.84,3.84,0,0,0,149.62,81.76Z"/><path class="cls-5" d="M182.36,123.49c.33,1.22,1,2.5,1.39,3.73.45,1.58.66,3.3,1.1,4.88.28,1,.82,1.94,1,2.93.11.47,0,1.14,0,1.63.36,2.22,1.5,4.39,1.15,7.17,1,4.15.27,8.66,0,12.44a65.39,65.39,0,0,1-.78,7.87c-.32,1.3-.27,2.94-.55,4.27-.95,4.49-2.7,9.09-3.25,13.66-1.33,4-2.46,8.19-3.6,12.35a79.73,79.73,0,0,0-4,8.12c-1,.67-1.5,2-2.21,3a13.43,13.43,0,0,1-2.68,3.33c-1.14.87-2.14.71-3.4.91-2.24.34-5.92.87-8.14-.46-.36-1.31-1.88-3.68-.77-4.89,1.66,1.73,1.71,6,6,4.44-3.2-3.7-6.22-6.7-9.69-10.24.5,5.16,2.46,10.12,5.53,13.12,4.3.48,8.14.21,11.49-2.25,7.86-9.44,12.38-23.84,14.89-37.17,1.78-4.84,2.74-11.57,3.15-17.42.93-12.92-2.78-23.25-5.32-31.61-1.67-5.48-3.35-11.07-6.56-15.38-.51-1.09-.82-2.38-2-2.74,1.25,2.74,2.46,5.06,3.62,8.26C179.7,116.2,181.48,120.24,182.36,123.49Z"/><path class="cls-5" d="M165.63,185.1c-2.54,5.31-6.42,9-10.43,12.52a16.46,16.46,0,0,0,3.68,4.17c-.21-1.9-1.5-2.67-1.42-4.88,2.4-.39,4.94,1.13,6.19.34-.65-1.54-2-2.66-2.4-4.84,1.27-.87,3.1.19,4.56.21l1.63,0c-.68-1.91-2.54-2.58-2.73-5a17.66,17.66,0,0,1,2.76-.23,3.47,3.47,0,0,1,1.77-.86C168.53,185.5,167,185.38,165.63,185.1Z"/><path class="cls-5" d="M164.7,213.59a2.84,2.84,0,0,1-.63,1c1.87.65,3.24,1.84,5.42,2.15a8.83,8.83,0,0,0,1.22-3.3C168.54,213,166.86,213.69,164.7,213.59Z"/><path class="cls-5" d="M196.38,151.29a1.11,1.11,0,0,1-.14.83c-.07.56-.22,1.58.21,1.95q.09,4.1.2,8.18a4.86,4.86,0,0,0-.1,2.79c-.25,1.93.07,4.42-.5,6.06a9,9,0,0,0,0,1.64c-.29,2.58-1,4.52-1,7.06a29.55,29.55,0,0,0-1.21,3.62c-.26.89-.45,1.34-.61,1.82-.7,2.08-1.05,4.16-1.81,6.1s-2.11,3.58-2.46,5.78c-1.87,1.69-2.62,5.68-4.71,7.15-.39,2.08-2.14,2.85-2.81,4.65a13.72,13.72,0,0,0-2.85,3.51c-.42-.12-1.15.65-1.27,1.34-.75.43-1.61,1.18-2.56,1.86a9.58,9.58,0,0,0-2.55,2.19c2.82.09,4.2-2.59,6.26-3.76,5-4.92,9.25-11.71,12.43-17.32,2.23-7,6-14.42,6.59-23.39.87-13.21.05-29.35-2.63-41.33.06-1.22-.27-2.6-.72-2.76a3.86,3.86,0,0,0-1-2.92c1.21,5.66,2.72,12.13,2.9,18.74C196.13,146.85,195.87,149.32,196.38,151.29Z"/><path d="M179.2,161c-.38-.38-.09-1.47-.21-2.12,0-.33,0-.66,0-1-1.5,0,0-2.94-1.86-2.9-1.22,0-1.34,2-.58,3.13a1.06,1.06,0,0,0-.8.67c.69,2.62-.44,6.32.56,9.48,1.46-.82.59-3.23.85-4.93a16.91,16.91,0,0,0-.12-5.24c.6.1.69-.3,1.29-.19-.55,2.09-1.29,6.18.19,7.84.69-.46.65-1.61.59-2.79.09-.5-.24-1.4.12-1.64C179.21,161.26,179.21,161.15,179.2,161Z"/><path class="cls-5" d="M180.91,197.65c1.53,0,1.49-1.44,3.22-1.22l.06,2.45a2.05,2.05,0,0,0,2,.28c2.17-2.11,1.21-6.48.42-9.34C183.81,191.55,179.47,193.35,180.91,197.65Z"/><path class="cls-5" d="M187.6,125c.1,1.95-1.45,4.46.15,5.88,1.43,0,.56-2.23,1.73-2.5,1.1.23,1.33,1.38,2.31,1.75,1.42-2.61-2-4.79-3.38-5.48C188.84,124.84,187.72,125.3,187.6,125Z"/><path class="cls-4" d="M126.41,312.36c3.85-4.13,8.56-7.45,13.08-10.95a3.75,3.75,0,0,0-2.34-2.23c-5,2.25-8.58,5.83-12.3,9.3a81.39,81.39,0,0,0-28.56,3.31c-5.61-4.19-11.35-8.25-19-10.33a4.29,4.29,0,0,0-.92,2.48A72.49,72.49,0,0,1,84,307.68c2.49,1.33,4.86,3.05,7.26,4.4a27.2,27.2,0,0,1,2.36,1.6H102c.9-.11,1.86-.18,2.77-.29C112.35,312.4,119.07,311.18,126.41,312.36Z"/><path class="cls-4" d="M128.43,67.07a70.41,70.41,0,0,1-4.21,7.3c-2,1-3.23,2.66-5.12,3.72-4.25,7.42-4.39,18.23-5.16,28.92-.35,5,.41,10.19,0,15-.23,3,.17,6.28.23,9.33.72,0-.09-1.47.78-1.34.41.13-.15,1.29.52,1.14.65-.65,0-2.56.73-3.13.35.25-.06,1.3.68,1.13.58-.51.28-1.86.59-2.64.91.22.11,2.24.88,2.6.8-1.57-.07-4.74,1.15-5.92.23,1.28-.36,3.41.59,3.91.28-2.34.62-4.62.8-7a18.22,18.22,0,0,1,.61,4.73c1.21-1.5.1-5.23,1.3-6.74.59.71.3,2.37.73,3.25.54-2.43,0-5,.64-7.21,1,1.27.35,4,.93,4.88.78-3.29.41-7.69,1.2-11,1.13,3-.37,6.83.4,10,.5-3.26.9-7.21,1.21-10.66.07-.8-.43-2,.43-2.46.84,1.9-.25,6.41.37,8.82,1-4,.73-9.2,1.3-13.61.8,3.22.51,7.17.25,10.47.92-1.31.55-3.49.85-5.42.34-2.22-.14-5.61.63-7.71.66,3.55.26,7.81.27,11.45.68-.8.72-2.28.73-3.46,0-2.7,0-5.63.13-8.34,0-1-.58-2.43.57-3,.05.29-.14.82.35.64.76-1.5-.44-5.27.65-6.88.55.25.25,1.41.85,1.61a3.6,3.6,0,0,1,.44-2c.46-.14.42.22.82.14,2.49-3,4.82-6.27,8.09-8.54.6-.42,1.42-.41,1.76-1.19-2.19-3.39-4.39-5.94-8.16-7.49C135.17,69.14,131.75,68.16,128.43,67.07Zm4.87,26.55c-.45-.22-.85-1.71,0-1.8A2.21,2.21,0,0,1,133.3,93.62Z"/><path d="M95.4,53.64a2.37,2.37,0,0,0,3.7-1.56,3.74,3.74,0,0,0-.37-1.95c-.37-.33-1.83-1.14-2.29-.28.24.54,1.3.2,1.49.79,0,1,.27,2.17-.6,2.3-1-2.15-3.89-.46-4.2,1.25a2.22,2.22,0,0,1-2.78-.59c-.57-5.44.15-10.56-1.34-15-.86-.27-.82-1.49-2-1.43-.12,1.54,1.41,2.2,1.22,3.25-2-2.58-7.18-1.21-6.79,2.13.86-1.41,4.64-4.36,5.34-1.44-2.63-.78-4.54.79-5.29,3.4.12.49.89.3,1,.79-.24.15-.63.14-.47.66.62.61,1.26,1.58,2.3,1.26-.27-.78-1.61-1.31-1.51-1.93A7,7,0,0,0,87,44.51c0,.38.48.17.5.48,0,.73-.26.74,0,1.31.76.14.75-.46,1.12-.68a78,78,0,0,1,.7,8.32C90.76,55.92,94.22,56.1,95.4,53.64Zm-11-11.83.65,0c0,.23,0,.47.17.48-.15.17-.31.34-.47.5C84.11,42.94,84.13,42.06,84.37,41.81Zm-1.09,2c1.46.63,2.17-.19,3.07-.9C86.65,44.39,83.58,45.35,83.28,43.8Z"/><path class="cls-3" d="M171.08,221.94c-1.82,1.95-4,3.84-5.55,5.86A85.8,85.8,0,0,0,153,241.86a39.53,39.53,0,0,0-3.45,5.48,25.12,25.12,0,0,0,5.61,3.14c2.12.14,3.56-2.09,5.8-2.27,8.38-4,13.12-11.5,17.76-19.09,1.84-2,3.7-3.92,5.39-6-3-1-7.1-3.47-10.17-3.52C172.83,219.56,171.58,221.41,171.08,221.94Z"/><path class="cls-5" d="M102.37,113.19c.33,1,.36,3,.58,3.58,0,.54-.19,1.79.21,2.13-.25.78.48,1,.2,1.3,0,.62-.29,1.52.22,2.29.1,1.34-.1,3,.26,4.08,0,.77,0,1.71,0,2.13.4,1.26,0,5.11.5,6.65h.26c-.12-.4.52-1.58,0-2.09a245.59,245.59,0,0,0-6.92-50.55,20.74,20.74,0,0,0-3.62-1.38c4.27,7.52,6.17,20,8.06,30.23C102.2,112.09,102.08,112.94,102.37,113.19Z"/><path class="cls-5" d="M100.1,86.58c.85,4.63,10.59,4.72,10.73-.6.29-.13.34-1.19,0-1.8-.14-1.12-.46-1.27-1-2.1a18.24,18.24,0,0,0-2.91.4c-.33.6-.19,1.63-.43,2.3-.26.47-2,.85-2.45-.1,0-.6,0-1.2,0-1.8a11.33,11.33,0,0,0-3.1-.25c-.27.6-.76,1-.93,1.66C99.89,84.94,99.68,86.32,100.1,86.58Z"/><path class="cls-5" d="M186.06,182c1.89-.31,2.8-1.58,3.51-3a.68.68,0,0,1,.65.31c-.4.67.33,3,1.07,3.57,3.17-1.74.69-6.81-.55-9C188.88,176.07,184.72,177.74,186.06,182Z"/><path d="M198,13V312.91H10V13H198m2-2H8V314.91H200V11Z"/><path class="cls-3" d="M29.21,15.92H22.94v2.62h2.52C24.28,23.65,22.94,29,22,32.34c-.85-3.32-2.06-8.7-3.13-13.8H21V15.92H14.73v2.62h1.48c4,19.05,4.53,19.05,5.76,19.05s1.78,0,6.17-19.05h1.07Z"/><path class="cls-3" d="M193.21,16h-6.27v2.62h2.52c-1.19,5.11-2.52,10.49-3.45,13.8-.85-3.32-2.06-8.69-3.13-13.8H185V16h-6.27v2.62h1.48c4,19,4.53,19,5.76,19s1.78,0,6.17-19h1.07Z"/><path class="cls-3" d="M14.73,310H21v-2.62H18.48c1.18-5.11,2.52-10.49,3.45-13.8.85,3.32,2.06,8.69,3.13,13.8H22.94V310h6.27v-2.62H27.72c-3.95-19.05-4.52-19.05-5.75-19.05s-1.78,0-6.17,19.05H14.73Z"/><path class="cls-3" d="M178.73,310H185v-2.62h-2.52c1.18-5.12,2.52-10.49,3.45-13.8.85,3.31,2.06,8.69,3.13,13.8h-2.12V310h6.27v-2.62h-1.49c-3.95-19.05-4.52-19.05-5.75-19.05s-1.78,0-6.17,19.05h-1.07Z"/><path class="cls-3" d="M22,64a8.43,8.43,0,0,1,2.49-5.12c2.39-2.46,4.9-4.81,5.43-7.58A4.32,4.32,0,0,0,25.5,46c-3.13,0-3.5,4.17-3.5,4.17S21.63,46,18.5,46a4.32,4.32,0,0,0-4.42,5.3c.53,2.77,3,5.12,5.43,7.58A8.45,8.45,0,0,1,22,64Z"/><path class="cls-3" d="M186,64a8.45,8.45,0,0,1,2.48-5.12c2.4-2.46,4.91-4.81,5.44-7.58A4.32,4.32,0,0,0,189.5,46c-3.13,0-3.5,4.17-3.5,4.17S185.63,46,182.5,46a4.32,4.32,0,0,0-4.42,5.3c.53,2.77,3,5.12,5.43,7.58A8.45,8.45,0,0,1,186,64Z"/><path class="cls-3" d="M186,262a8.43,8.43,0,0,1-2.49,5.12c-2.39,2.46-4.9,4.81-5.43,7.58a4.32,4.32,0,0,0,4.42,5.3c3.13,0,3.5-4.17,3.5-4.17s.37,4.17,3.5,4.17a4.32,4.32,0,0,0,4.42-5.3c-.53-2.77-3-5.12-5.43-7.58A8.45,8.45,0,0,1,186,262Z"/><path class="cls-3" d="M22,262a8.43,8.43,0,0,1-2.49,5.12c-2.39,2.46-4.9,4.81-5.43,7.58A4.32,4.32,0,0,0,18.5,280c3.13,0,3.5-4.17,3.5-4.17s.37,4.17,3.5,4.17a4.32,4.32,0,0,0,4.42-5.3c-.53-2.77-3-5.12-5.43-7.58A8.45,8.45,0,0,1,22,262Z"/></g></g></svg>