<svg xmlns="http://www.w3.org/2000/svg" viewBox="0 0 208 326">
    <defs>
        <style>
            .cls-1 {
                fill: #fff;
            }

            .cls-2 {
                fill: #6f7072;
            }

            .cls-3 {
                fill: #f8261b;
            }

            .cls-4 {
                fill: #facb1b;
            }

            .cls-5 {
                fill: #001400;
            }

            .cls-6 {
                fill: #1d1d1b;
            }
        </style>
    </defs>
    <title>JH-us-2c</title>
    <g id="Calque_2" data-name="Calque 2">
        <g id="FR_-_EN" data-name="FR - EN">
            <path class="cls-1" d="M14.83,325A13.84,13.84,0,0,1,1,311.18V14.82A13.84,13.84,0,0,1,14.83,1H193.17A13.84,13.84,0,0,1,207,14.82V311.18A13.84,13.84,0,0,1,193.17,325Z"
            />
            <path class="cls-2" d="M193.17,2A12.84,12.84,0,0,1,206,14.82V311.18A12.84,12.84,0,0,1,193.17,324H14.83A12.84,12.84,0,0,1,2,311.18V14.82A12.84,12.84,0,0,1,14.83,2H193.17m0-2H14.83A14.83,14.83,0,0,0,0,14.82V311.18A14.82,14.82,0,0,0,14.83,326H193.17A14.83,14.83,0,0,0,208,311.18V14.82A14.83,14.83,0,0,0,193.17,0Z"
            />
            <path class="cls-3" d="M21.42,69.57C24.76,66.77,31.86,56,30.16,51a4.59,4.59,0,0,0-8.74-.47c-1.59-3.57-6.21-4.1-8.25-.65C10,54.79,17.72,65.92,20.8,69"
            />
            <path class="cls-3" d="M186.86,69.57C190.2,66.77,197.3,56,195.6,51a4.59,4.59,0,0,0-8.74-.47c-1.59-3.57-6.21-4.1-8.25-.65-3.17,4.89,4.54,16,7.62,19.14"
            />
            <path class="cls-3" d="M21.43,254.64c-3.35,2.8-10.45,13.61-8.75,18.56,1.46,4.41,6.85,4.61,8.75.46,1.58,3.58,6.21,4.11,8.24.66,3.18-4.9-4.54-16-7.62-19.14"
            />
            <path class="cls-3" d="M186.87,254.64c-3.35,2.8-10.45,13.61-8.75,18.56,1.46,4.41,6.85,4.61,8.75.46,1.58,3.58,6.2,4.11,8.24.66,3.17-4.9-4.54-16-7.62-19.14"
            />
            <path d="M172.14,39.11v250H36v-250H172.14m2-2H34v254H174.14v-254Z" />
            <path class="cls-3" d="M15,34.43,15,34V29.32H11.49C10.4,36.4,13,43.06,20.7,43.07a8.79,8.79,0,0,0,6.35-3.29l.24-.39.29-.37.46-.77.38-.91.28-.85.09-.48.05-.44.09-2.19V11.91h2.64V8H22v3.91h3.67V25.35L25.46,34l-.05.9-.1.72-.28.77-.13.29-.29.43-.29.47a5.49,5.49,0,0,1-2.91,1.86A5.24,5.24,0,0,1,15,34.61"
            />
            <path class="cls-3" d="M180.46,34.43,180.4,34V29.32h-3.47c-1.1,7.08,1.51,13.74,9.21,13.75a8.81,8.81,0,0,0,6.35-3.29l.23-.39L193,39l.47-.77.38-.91.28-.85.09-.48.05-.44.09-2.19V11.91H197V8h-9.6v3.91h3.67V25.35L190.9,34l-.06.9-.09.72-.29.77-.12.29-.29.43-.29.47a5.49,5.49,0,0,1-2.91,1.86,5.24,5.24,0,0,1-6.39-4.78"
            />
            <path class="cls-3" d="M193.24,289.89l.06.48V295h3.47c1.1-7.08-1.51-13.75-9.21-13.76a8.81,8.81,0,0,0-6.35,3.29l-.23.39-.29.37-.47.77-.38.91-.28.86-.09.47-.05.44-.09,2.19v21.47h-2.64v3.92h9.6v-3.92h-3.67V299l.18-8.6.06-.9.09-.72.29-.77.13-.29.28-.43.29-.47a5.54,5.54,0,0,1,2.92-1.86,5.24,5.24,0,0,1,6.38,4.78"
            />
            <path class="cls-3" d="M27.81,289.89l.05.48V295h3.47c1.1-7.08-1.51-13.75-9.21-13.76a8.81,8.81,0,0,0-6.35,3.29l-.23.39-.29.37-.47.77-.38.91-.27.86-.1.47,0,.44-.09,2.19v21.47H11.25v3.92h9.61v-3.92H17.18V299l.19-8.6.05-.9.09-.72.29-.77.13-.29.29-.43.28-.47a5.58,5.58,0,0,1,2.92-1.86,5.25,5.25,0,0,1,6.39,4.78"
            />
            <path class="cls-4" d="M34.17,273.88v3.34L36,276.07l5.41-3.87-.09-3.06.13-4.3.25-.63.47.15,1.73,1.87.66,1.44.94,3.53,0,3.87L44.94,277l.28.08,1-1.13,1.5-2.89.7-3.29.1-1.76-.51-2.92-.85-2.39.09-.28.43-.15,1.78-.86,1.84-1.1.6-.48,2-1.77.13-.57-2.39-2.06L47.11,253c2.44-3.95,3.06-9.28.13-13.15l-2.77-2c1.18,3.13.74,11.81-2.77,13.47l.18-7.22-.14-8.37.1-5.3-.2-.71.06-1.43V225l.23-5.4.18-.18,6.64,3.38,6.48,3.68,2.32-2,.65-.95L53.73,221l-1.31-.58L34.17,210.5V215l4,2.48c.17,17.79.25,35.56.1,53.34m-4.14-98.3v4.82l.89-.33,3,6.45,3.06,5.64,1.23,1.73L45,194.69l5.09,6.58,6.21,6.32,3.09,2.72,6.35,5.26h.15l2.06-2.15v-.35l-5.88-4.63-6.76-6.54C48.43,194.52,41.83,185,38,175.57l7.76-5.07.36-1-.89-.81-1.36-.77-1.22-.28-.47.48-.15-.29v-1.48l-1-4-.66-.66-1,.48-.53,1-.7,0-3.76,2.06-.24.58,0,0v4.78l1,1-.32.14Zm0-16.54v5.35l.37.19.61.05,2-1.11L40.47,158l.61-1.06-.32-.24-2.23-.09Zm3.62,14.19-1.5-1.11.94-.33,2.58-1.56.1,1.95-.47,1.43ZM41,151.29h-.38v.28l.28.1.85,4.2.66.24,2.72-2.91,2.5-3.87-.19-.78-6.63,1Zm1.36,8.64L41,161.13l.24.67,2.15,2,2.77,1.34-.56.92v1.14l.52,1.43.53.68H47l2-1.69,1.83-1.56,3.25-3.31,1.79-2.24,0-1.05-1.22-.67-1.79-.34-.14.05-.42-.09-.67.48L51,157.41l-1.79-2.77-.27-.35-.2-.28-.65-.09-1,1.1-.18.76h-.33L43.34,159l-.52,1ZM41.64,262.3l-.23-1.38.14-6.49.15-.86.56.33.85-.53,1.59-1.72,1.5-2.92.24.43-.8,3.64-1.12,1.52-2,1.49-.85.77.42.61,1-.24,3.66.05,3,.58.47.19-.61.24-2.35.52-2.68.29h-1l-1.37-.2-.51.3v.71l1.26,1.2,1.42,1.58,1.41,3.2.47,2.48-.8-2.3L44.52,264l-2.22-1.91Zm6.68-122.57-3.15,1.52,2,4.58,1,1.82.7-.53.89-1.76,1-2.58.84-3.2-.19-1.05Zm1.94-17.5-4.8,3.44.09.18,6.21,2.5.14-.29-.14-2.78-.47-2.15-.43-.9Zm-4.11,40.42.2-.27.94-.68,2-2.25.47,1,.33,2.15-.47.63-1.32.09Zm5.14-34.17-4.38,3.16,1.27,1.49,2.92,3.92.57.42.41-.9.15-4.12.09-.33L52,128.78ZM49.35,151.9l-.74,1.1.65.68,2.26,1,.8.24,2,.19.44,2.25L56,159.18l.75.09,2.73-3.73.14.38-.94,3.26L57.35,168c-.24,15.57,4.83,27.69,16.42,38l.75-1,1.08-1.57a45.55,45.55,0,0,1-11.42-15.63l-1.42-3.73-1.22-6-.88-3.92v-3.78l.18-3.59c.39-16,11.83-29.18,25.16-36.27l-1-2-.56-.72-1.6.91-4.85,3-6.35,5.11-3.85,3.83-2.53,3.53-.53.24c3-10.28,1.77-21.65-2.26-31.45l-3.06,2.21-5.77,4.3.27.71,1-.1.28,0,1.22-.42,2.55-1.1,1.59-1.82-.33,1,.56.67,2.32.67.69-.1.67.52-.43.92-.71-.19L62,120.8l-1.22,1.58-4.19-1.54-2.16-.38-.57.34,0,.57.47,1.14,3.11.91,2.17.91L62,126l-.09.86-1.75,1.25-.65.13.18-.33-.27-3-.34-.48-1-.33-.84-.57L55,123.19l-.62.18.62,5.31.56.76-.51.58.05,1.29.51.52,3-.47,2.16-1,.43.15.7.81.94.48,2.25.33-.09.33-.8,0-2,.67-1.46,1.34-.19.53-1.12-.59-2.64-1.1-1.46-.18-.47.95.52,1.2-.43.53-.37,2.33-.7,2.54.41.86-.41.1-.53,1.1.1.81.66.42,3.53,0,2.48-.48.09,1,.49,1.1,1.08,1.2.89.2.38.13-.38.57-.67-.57h-2.2l-1.22.48-.33.81-1-1.33L54,144l-.76.1-.66,1.34.24.62-.33.1-.65,1-2,3.74.2.76Zm1.7,85.8c.71,4.23,3.69,5.22,7.53,4.44l.47.71,2.82,6.69,1.18,4.36,1,3.34,1.12,6.88.24,3.4.29,2.81.36.24,9.17,1.73,1.51.14,5.22.61,3.15.26,4.52.09,2.54.18,8.93-.18.44-.29-1.38-5.31-3.24-9.69-3.47-8.61-1.23-2.63.05-.47.84-1,1.46-1.58.56-.86c5.64-5.36,17.81-14.59,26-9.61l4.52-3.44,1.36-1.29-3.35-3.2-1.5-1.63-2.5-4.05-1.39-.29-2.17-.53-6.5-.76-6-.44c-7.4-.33-14.84-.38-22.16.92-2.42,3.26-6.59,7.71-9.12,11.18l-4.8-.67H62.34l-.85.19-3.47.53-1.14.13-2,.86-2.41,1.82L51,235.64Zm3.82-85-.49-.19.76-1,.85-2.39,1.7,2.48v.76l-.43.19Zm3.85-11.47.47-.86.18-2.67.15-.57.52.13,2.48,2.3-.56.53-1,.52Zm16.09,22.85.32,2.15.47.81.85-.29,1.74-.91,1.41-1.23,2.59-2.35-.09-1,.47,0,2.11.28,1-.86.7-1.38-.19-1.49.28-.33.71.33.38-.24v-.66l.65-.48-.47-.24-.14-.62.1-4.69.28-1.62.84-.38,3.53.09.51-.33.29.14,0-.57-2.54-2.44-1.21-.81-1.7-.09-.09.24-.52.09L85.48,147l-.38,1.52-.27.11-.71.09-1.88.58-1.65,2-.37,1.91-.33.81-.24.34-.38.14-1.37,1.1-.32.91-.66,1.19.2,2.92-.9.33L75,163.19ZM77,177.38,76.22,179l.79,2,1.09,1.29.47.15-.18.57,0,1.82,1.32,2.24.85.53.66.24,1.36.57.66,1.68.51.77.76-1.25,4.9-7.7,1.36-3.15-.8-.15-1.08.15-.94.38-.38.58-.75.38-.32-.68-1.47-1.24-1.46,0,.14-.33L82,177.38l-1.22-.15Zm-.28,50.08-.13-1.19,1-1,1.37.11.85.66-.06,1.58-1,.76H77.44Zm8.48-1.09-.15-1.15.18-.38,1.32-1,1,0,.83.63.38,1-.32,1.15-1.23.71-1.41-.09Zm9.15-.28-.22-1.31,1.31-1.23h1.61l.74,1v1.33l-.89.91-1.37.15-.74-.29Zm9.32-.24.29-1.11,1.12-.91h1.37l.89.91.09,1.72-1.12.95-1.41.11-.75-.39Zm8.61.61.33-1,.85-.77,1.55,0,1,1.14-.09,1.49-.65.57-1.65.39-.94-.72Zm7.82,2.39.41-1.68.71-.42,1.36-.15.76.24.46.68,0,1.82-.83.76-1.74-.06Z"
            />
            <path class="cls-4" d="M40.7,96.66l-1.12,2.82.47,4.06.94,1.63,1.63,2.1.91.48,1.93-1.53-.2-1.14V104l.85-2.06h2.17l3.1.91,5,1.53h4.1l3.1-.57,1.46-.77,2.12-1.91.94-1.91.09-1.86L67.84,95l-1-1.4-1,1.25L64.18,96l-1.93.47-5.88-1.1-3.95-1.33-4.52-.91-3,.38-1.61.63-1.92,1.67m1.41,6.21-.14-.38L42.82,99l.38.24.65-.34-.32.48.14.63.42,0-.85.81ZM44,98.67l2-1.73.18-.09.34.47,2.07,0,1.7-.62.18.57.47.39,3.38.18.15.39.52.33,2.91.24-.23.24.79.71,2.5-.27.14.37.47.2,1.32,0-.14.57-1.46-.44-.6-.09-.76.33.32.62L58,99.86H57l.15.62-2.5-1.58-.61.1.1,1-.34-.38-2.3-1.38H50.35l.7,1.19-1.17-.71L48,97.91H45.64Zm3,1.1h.24l.61.24,0,.09Z"
            />
            <path class="cls-4" d="M81.21,98.19l-.76.57,3.38,3.49,4.2,5.64c12.25,2,25.22,3.11,37.52,1.24l3.67-4.16,5-6,1.31-1.78,3.58.95,1.51.24,4.79.06,1.88-.15,3.87-.86,2.45-1.29,2.11-2,1-2.58-.14-2.24-.89-2.26L154,85.67l-1.27-.39L151.48,85l-2.35.15-.15.19-2.63-5.83-2.64-9-.23-1.62-1.32-9.85L142,56.75l-5.74-1.28-7.81-1.2-7.06-.81-3.15,0-.23.09-.11-.09-1.77-.19-3.21.1-4.88.05-2.17.19,2.3,8.21,1.61,5.08,2.73,6.78,2.68,5.92.18,1.16-.6.71-3.63,4-3.21,2.78-5.44,3.64-2.17,1-.47.24L96,94.36l-3.2.77-1.68.15-2.32-.35-1.92-1.1m-3.2,5.94V98.43l1.09-1h1.59l.85.77L87.13,100l-.6.66-1.18.24-1.09-.39Zm7.85,2.1-.14-1,.24-.63.47-.47,1-.39.94.06.7.33.48,1.58L95,102l-1.27.9-1.3-.13Zm8.65.91-.13-1.63.75-.76.65-.33,1.57.13.78.92,0,1.58-.56.57-.66.38-.57.1-1-.1Zm9.79.81-.42-1.29.47-.91.94-.67h.94l1.13.43.38.95-.38,1.34-.94.63-1.32,0Zm4.14,74.46-.56.37,1.08,1.82,2.72,1.68,1.47-.1,1.59-.9,1.23-1.34.14-.81.33-.68,2.26-.51,1.45-1.58.94-2.25-.18-1.15L128,172l.7-.87,1.22-2.29-.18-2.1.18-.53.71-.67,1.46-2.24,0-1.67-.6-1-1.18-.24-2.31.28-1.5.62-1,1.29-.36,2.48-.85.2-1.65-.09-1.08,1-.38,1.47.14.33-.42,1.87-1.55,0-.09,2.45-.06,4.83-1.88,0-.32.09-2.73.2Zm2.35-30.54L116,148.7c3.75,0,2.29-1.75,4.42-2.34l.52,1,1.13.82,1.22.28,0,.63.8.24,6.82-.1.24-.57-.38-2.44-1.83-1.86-.19-.62v-2.15l-.61-1.35-.56-.57-1.46-1-1.42-.19-.41-.43-.06-1.1-1-1.86-.37-.2-2,3.4-2.73,5.35Zm2.36-45v-1l1.12-1.19,1.37-.1.56.24.66,1.2-.14,1.1-.75.76-1,.34-1.17-.34Zm3.1,93.14-1.37.53,1.37,2.82c7.25-2.79,17.35-11.1,21-17.87l.05.72-1.23,4.91-.09,2.2-.2,2,.1,3.2.28-.2.38.38h.71l1.74-.52,1.59-1.24.14-.81,2,1,2.49,1,1-.19L152,192l-.71-.39.47-.14.38-.52.89-4.69-.33-.86.62-.34.38-1.72-.62-.43h-2.53l-2.36.43-1.51.2.1-1.1-.47-1.1L145,180.11l-.57-.11.13-.47.44.2,2.63,0,1-.61.09-.73,1.26,1.58,3.24,2.83.67-.09.37-.62.1-1.07-.19-.33.7-.33,2.26-4.3,0-.76-.52-.34,1.18-.1.52-.95-.38-.63-2.06-.95-3.77-.67.24-.23-.05-1.53-.89-1.63-.94-.87.56-.33.14.15,1.65.86,2.15.19.29-.63.24.53,1.64,3.06,1.36,1.53.62.1.89-1.14V171h.57l3.33-3.44.11-1,.78.14,1-.85-.05-.83-2.17-1.91-2.53-1.43-2-.71,1.21.34.9-.15.19-1.34-.71-2.1-1-.44c-5.43,3.3-8.26,8.95-12.34,13.49a45,45,0,0,0,1.94-22.13c-1.41-11.21-7.82-20.89-15.94-28.29l-2.26,2.52c11.32,10.1,15.51,19.84,15.52,35-.82,15.37-8.76,27.12-21.13,35.42Zm5.92-94-.13-1.53.7-.66,1.31-.33.91.51.32,1.44-.19.62-.65.57-1.75-.09Zm13.46,9-2.35,2.48a89.11,89.11,0,0,1,30.14,37.81l-6,3.72-2.35,1.91.42.62.94.87,1.64.9h.85l.33-.57.61,4.06.86,2.26.6.18,1.08-.71.14-.67.71.14,4.18-2.49V159.8l-1.5-1.58-.62-.35-1,.24-2.59,1.78v1l-.27-1.34V159l.47-2.63.89-.1,1.17.34,2.88,2.15h.6l.14-2.15-2-1.82.09-.09,1,.29.74-1,.14-3.1-.14-1.73h-.33l-.32-.19-.19.19-.81-1.86-4.59-8.7c-5.41-9.4-13.06-17.06-21-24.18Zm.13,84.11a82.73,82.73,0,0,0,2.5,17.63l.14-.62.29.53.42.24.37-.53,1.94-2.49.13-.9-.8-.57-2-.95-.61,0-.42.58-.2-.24.24-1.19,1.46-.3,1.18-1.15.18-.94,1.93.61,1.88.24.57.24,2.26,0-.1-1-.32-.48-3.11-.67,0-.05,2.68.2.42-.77-.42-1.86.09-.77-.2-1.52-.6-.78.47-.47,0-1.38-.41-.44-2,.2-3.62,1.29-.14-.63-1.6-.9-2.3-.38-.19.38Zm3.44-7.35-.09-.44.43-.33,3.24-1.25.29.05-.38.39-.56,3.11.27,1.14-1.65-1.1Zm.14,13.09.43-.72.6-.62,1.61-1-.29.63.57,3.34-1.13-.29Zm1.61,10-1.23,1.73.18.47.62-.09-.24.81,7.63-5.73,0-.44-.52.44.43-.72-.47-.62-.8,0-1.84.52Zm5.17-110.16L148.94,103l16,9.41,5.37,3,1.36.92,1.5.71v-4.26l-1.59-.9L169.06,110l.06-3.45.28-.23-.28-.2.14-5.31-.09-.13,0-12.62,0-3.44c.51-9.14-.3-18.34.09-27.43L173.2,54V50.58l-3,1.93-4.09,3.23.09.72-.18,6.8-.57-.2-1.46-1.73-1.12-2.66-.53-3,.28-4.54v-.86l-.7.68-1.55,2.57-1.14,4,.29,3.86.85,3.5-3.15,1.52-3.52,3,0,.38L156,72.09l4.28,2.35.19-.2v.58l-.38.48-.89,1.86-.62,2.72.33,4.5.7,2,1.94,2.39,2.26,1.67-1.23-5-.05-1.53.57-2.83,1.09-3,1.3-1.62.57-.2c-.69,10.79,0,21.62-.57,32.41l-4.7-3Zm-2.26,74.79-.14-.23.85-.67,1.41-.18,1.45,0-.47.48-1.27,2.57.15,1L149.74,176l.09-.43Zm5.32,20,.37,2.67.76.38.28-.18,1.6-1.64,2.11-1.58.05-.37-.75-.86-.38-.53-2.68-3.2-.89,0-.47,3.15Zm1.13-9-.38,1.38.43.48,1.08-.33,5.07-2.34-1.45-3.06-1.41-2.67-.61-.39-1.38,2.58Zm.94-21.45L157,164l.44-.42,1.21-.15,1.79.48.71.53-.33-.1L158.2,167l-.28.75-.24-.29Zm.94-94.74.14-.24,1.32-.42,2.1-.48,4.48.24.14-1.05-2.07-2-1.41-2.34-1.08-3.64.23-.24.52,1.77,1.09,2.11,2,1.82h.56l.33-.39,0,9.27-.47-.48h-.47l-1.92,1.86L162,78.45,161.5,80l-.24-.39,0-1.29.61-2.92,1.42-2L166,71.33l-.24-.62-1,.09h-4Zm4.56,103.29-2.77,4.1.09.35.42.42,2.22-.39,1.3-.38,2.5-.57,0-1-.71-4.68-.7-.43Z"
            />
            <path class="cls-4" d="M139.19,229l.25,2.15.6,2.21.67.18.18-.33,1.79-1.77,1.74-.77c7.72.14,10.14,4,18.06,2.83l2-.86,1.64-1.53,1-1.91.61-2.39-.34-3.25-.94-2-1-1.19-2.11-.62-1.38.86.15.66.14,1.82-.38,1.25-1.26.81-1.13.13-1.75-.52-2.53-.53-.85-.38-4.52-1.09-2.63-.05-1.7.14-2.06.53-1.09.57-1.93,2m5.84,1.38-1.61-.1.2-.56,1.08.38,1.51.09.23-.33-.23-.48,2.44,1.2.76-.15-.53-.91,0-.48.56.86.7.62,1.54,1,.67.09-.09-1,1.27.91,1.92.86.48-.18-.57-1.05.84.42,2,.92H162l1-.63.75-.91-.1-.63-1.08.35.39-.15,1.31-1,.43-1.64.18,1.2-.33,1,.24,2.35-.33-.59-.52.35h-.8l-1.93,1.62-.24-.81-1.32,0-2.57.71v-.56l-.81-.43-1.59-.11-1.61.05.05-.47-.56-.43h-2.93l.25-.53-.9-.53-2.54.39v-.28Zm14,.24-.71-.48,1.36.48Zm4.28-4.4-.57-1.19.47.24Z"
            />
            <polyline class="cls-4" points="155.06 201.09 155.19 202.81 155.66 205.1 156.23 205.53 161.39 201.56 161.26 201.33 155.85 199.03 155 199.65"
            />
            <polyline class="cls-4" points="166.38 169.4 166.29 169.73 166.91 170.06 168.41 170.26 173.21 170.45 173.21 166.01 173.15 165.96 173.21 165.78 173.21 165.33 172.82 165.33 172.5 165.24 171.19 165.67 168.23 167.67"
            />
            <path class="cls-3" d="M34.17,134.18v22.41l2.12.2H41.7l-.2-1L41,150.14l1.59-.39,5.1-1.09.42-.34-.38-1.2-2.12-4.87.38.2-.14-.86,5.64-3.2,0-.44-.71-1.14-3.48-4.93.43-.33,3.48-3-.76-.58-3.89-1.72-.91-.24-2.35,1.78-.94.42.15.28-3.1,2-5,3.77-.19-.13m8.27,38.6-5,3L39.2,179l.33.09,2.68-1.52L45,175.85l5.09-3.44,4.27-3.4-.28,1.58,0,.57v1.53l.67,5.64c1.16,8.55,4.13,15.21,8.68,22.33l2.32-2.16.32-.57a48.94,48.94,0,0,1-7.94-18l-.85-7.35.18-4.89,1.18-7,2-6.36-.25-.28-.71,1-2.25,3.53-6,7.22L46.64,170Zm2.79,6-5,3a82.24,82.24,0,0,0,17.64,24.08l3.38-3.06.25-.43a63.25,63.25,0,0,1-9.55-28l-1.61.77Zm-3.67-28.38h-.51v.24h.51Zm18.43,19c-.21,11.81,2.31,20.2,9.6,29.58l3.53,3.59,1.92,1.43.53-.42,2.4-3.4-.71-1.24.1-.91.36-.43,1.94.09,1.26-1.91.47-1c-6.49-5.22-10.5-14.32-10.72-22.74l.14-.11-.14-1.43.34-3.59L72.41,161l2-5.11,2.93-4.48,2.59-2.65,3.67-3.33,6.53-4.59h.66l-.42-1.58-3.71-8.55-.76-.05-2.64,1.1L79,134.56,74.37,138l-2.48,2.39L69,143.88l-2.35,3.24-3.44,6.65-1.84,5.78-.6,3.34-.29,1.73Zm4.9-1.43.09-.72.53-.53.7-.14.6.44.29,1-.38.72-1.21.24ZM65.25,179l-.09-1,1-1,.9.11.65.9v1.05l-.85.68H66Zm2.46-21.42-.1-.9.23-.57,1.09-.58.79.67,0,1.25-1.08.66Zm1.5,31,.37-1.28.81-.39,1.21.62.1,1.35-1,.61-1.27-.33Zm4-40.95v-.81l.76-.59.61,0,.56.53,0,1-.51.53-.94-.05ZM83,161.27l-6.64,5.5.23.44c14.44.11,28.89,0,43.33.22l4.89-3.29,4-3-.15-.38-8,.19-2.64-.05-4.42.09L105,161l-3.15.19-1.74-.09-3.11.09-.18,0Zm-2.36-21.45.71-1,.65-.09.85.62.15,1-.67.67-1-.09Zm3.06,77.28-.05.33.61.15,4.94-.39,2,0,2.07-.2,10.4.15,3.81.18,9.45,1,1.08.34.2-.38-.52,0,.09-.67-2.49-4.11-4-6.55-4.23-8.89-2.83-7-1-2.15A141,141,0,0,1,88.45,211ZM93.86,110.37l-4.71-.57,3.53,5.59,1.55,2.3,4.8,9,3.38,8.12,1,2.58,1.17,2.48,1.27-2.63,4.76-8.12,3.94-6.16,5.88-8,3.11-3.53,0-.71-3.8.09-6.46.33-6,0-5.36-.2Zm-2,102.09-.23-.38,3.85-5.26,4.61-7.08,1.92-2.86.29.09,3.39,6.79,1.37,2.38,3.24,5.94.05.66-9.37-.18-4,.14-2.74-.09Zm4.8-97.21.52-.19,3.89.19,7.49,0,4.23.09h3.06l-.34.77-3.94,5-6.5,10.13L101,122.8Zm5.64,81.92-.38,0,.57.66Zm2.88-66.63-.29.05.18.34Zm12.5,55.05-1,.59,1.32,3.53,2.35,5.64.94,1.34c28.76-12.62,35.22-53.93,10.31-73.93L130,124.9l-1.65,1.78.1.33,1.46.62.24.81v.29l-.71.62h-.71l-1-1-.25,0-2.39,3.2,0,.28,1.89,1.82,2.82,3.54.61,1.1,1.65,2.14,2.49,5.79c3.8,13.27-.06,25.86-10.2,34.83Zm6.4,2.16v-.86l.66-.57h.9l.51.47.23,1-.61.76-.8-.09Zm7.57-7.55c.09-1.48.9-1.34,1.89-.67l.09.95-.34.53-.92.15Zm3.52-40.58v-1.09L136,138l.89-.05.9.44-.09,1.19-.56.57-.9.24Zm2,31.5V170l.8-.57.7,0,.62.47v1l-.62.71-.74.09Zm2-21.79-.06-.87.81-.81h1.07l.67.63,0,1.05-.72.81-.93.1Zm.52,10.36.09-.75.51-.34,1-.14.38.48.15,1.05-.62.75-.94-.09Zm4-33-2.95,2.24,3.86,6.6,2.67,6.07,1.23,3.91c2.2,12,1.22,16.53-1.84,27.53l1.14-1.81,5.55-7,.18.24.94-1.86,2.59-2.72,3.77-3.25,6-4.16,2.21-1.15.46-.57L168,147.27l-.33-.1-5.42,3.35-8.56,7.26c-.37-11.59-2.66-20.64-9.26-30.49Zm5.1-4.65-3.44,3.21,1.36,1.86L149,131l.75,1.39,1.13,2.25,3,8.6.76,4.39.47,4.54.32,1.29,3.77-3,6.44-4.64.76-.38.05-.48-3.73-6.36-3.14-4.92-5.74-7-4.66-4.77Zm10.24,73.56L155.33,199l.09.35.76.24,1.41.57,3.67,1.38,1.09-.62,7.76-5.69,3.09-2.62V170.41l-4.94-.11-2-.18-1.08.14.56,4.45.38,2-.42.34-2.77.56-4.14,1,2.63,6.74-1,.76-5,2.93.2.48,3.67,5.05-.14.2-.39,0,.28.24Zm6.68-19.17-.28,0,.28.24Z"
            />
            <path class="cls-3" d="M34.17,215.85v56.59l.09,1.91h.33l4-3.15c-.39-4.73.14-9.41,0-14.11l-.24-3.39.19-8.79-.15-5.83L38.59,229l-.06-3.82.06-7.28-1-.37L35,216"
            />
            <path class="cls-3" d="M53.17,287.3l-2,2.74.09.09h5.12l.33-.53,3.86-5.3,4.14-5.79,6.59,1.05,4.09.77,2,.09L80,281l-.47,1.77-2.78,7.37h5.93l1.07-3.59,1.9-5.26c5.46.22,10.71.18,16.17.25l2.26,8.12.33.48h5.64l-2.3-7.13-.57-1.38v-.48l3.11-.48,2.26-.14,10.4-1.58,7.66,10.33.9.86h6.11l-1.32-1.64-6.78-7.68-4-5.26-1.22-1.49a90.16,90.16,0,0,1-16.65,2.68c-14.65,1-29.67.54-44-3l-.23.2L59,279.41l-3.62,4.74m3.2,5.5-.19.42,0,.06H74.48l2.82-6.75.33-1.14-.47-.44-3.71-.48-.2,0-4.18-.53-3.76-.66Zm25.63,0-.09.53h18.44v-.29l-1-2.87-1-3.29-.65-.44-7,0-3.1-.15-.93-.09-2.26-.09Zm25-7.12-.14.62,2.35,7h18.11l-3.34-4.78-3.34-4.45-.19-.19h-1.23l-1.59.47-7.82,1.1-2.06,0Zm12.36-3.31-.23.44h.52Z"
            />
            <path class="cls-3" d="M70.39,37.3l-.24.14,2.54,3.12L83.18,53.21l3.29-.85,7.8-1.54,4.24-.33.19,0,2.07-.24h3l2-.29,2.06-.24,2.64-.15,4.14.2,12.42.39,5.64.42,5.27.87,4,1,3.2.86,2.49-3.15,6.72-8.7,3-4.06-.44-.15h-4.59l-3.07,4.26L143.06,50c-4.87-1.13-10.29-1.66-15.29-2.39l3.72-9.47,0-.86h-5.93L122,47.1l-.29.24-9.79-.72-5.26.1-1-.24-3.2-9.23H96.86l3.2,9.65,0,.53c-5.49,0-9.89,1.94-14.92,2.49l-1-1.62-7.8-11m18.67,0H78.29l0,.29,1.41,1.77,5.56,8.27.74.52,2.78-.67,1.23-.14,1.45-.43,2.08-.33,3.1-.44.85.06.47-.3-2.41-7.26Zm28.93,0H104.35L105.76,42,107,45.19a97.68,97.68,0,0,1,13.36.28l.76-.62.47-1.48,1.55-3.54Zm9,.77L130,45.52l.1.52.74.53,3.58.19,3.53.53,3.86.77,1.27.13,5.17-7,2.49-3.64-.13-.33H133.08Z"
            />
            <polyline class="cls-3" points="168.93 63.02 168.84 72.76 168.88 75.54 169.12 80.74 168.97 81.84 168.73 87.97 168.84 90.83 168.73 110.52 173.21 112.47 173.21 54.13 171.79 54.94 169.12 57.23 168.93 57.85"
            />
            <path class="cls-5" d="M172.82,116.59v-.81l-1-.44-9.26-5.11-8.38-4.73-3.9-2.15-.22-.48,1.68-1.38c6.76,3.66,14.09,8.53,21.11,11.51V50.78l-.23,0-6.53,4.54-.42,7.55L165,62.4l-1.22-2.21-1-4.39.1-3.29.7-2.83L165,47l-.19-.34-1.08.14-2.11,1.1-3.87,3.07-2.71,3-1.65,2.35-1.75,3.62-1.18,3.69-.8,5.2c-.13,9.85,5.35,20.09,14.64,23.75l.42-.51c-1.88-5.29-2.71-10.15.79-14.92l-.13,10.14L165.31,103l.18,2.1-.18.29-.05,2.48h-.47l-.61-.38-3.06-1.68-4.89-2.92-1.61-1-4.84-3.2-.15-.15c11.65-2.53,8.63-15.68-.22-13.38-4-7.21-7-19.38-6.73-27.48l.75-1.25,1.5-1.76,11.43-15.15,1.56-1.29.38-.62H69.81l.67.86,1.41,1.62,3.8,4.15L85.86,56.79,86,60.63l0,0,.22,2.68L83.65,67,80.4,73.24l0,.86.38.24,2.44,2.2,1.09,1.91L84.5,80l-.29.57.29,1.25,1.36,1.23-.29.77.11,1.29.74,1.48.24,1.49-.89,2.43.09,1.53.61,1.82-3.86,3-4,3.25c9.78,10.85,24.16,34,24.41,48.32l-8.33,0-1.08-.09A107.6,107.6,0,0,0,75.84,113l-4.24-5.25-1.08-1-.6,0L60.37,114l-2.88,2.39-.47.1c-3.28-7.46-4-9-11-13.53l1-.67,2,.19L53.26,104l4,1,2.87.06,3.15-.63,1.88-.77,2.16-1.76,1.28-2.68.14-2.63L68.4,94.9l-.94-1.07-.89-.33-.43.58-1,1.2L63.66,96l-1.41.09-3.49-.39-2.86-.9-5.83-1.52c-6.75-1.56-11.38,2.33-10.63,9.37l-.85.37-.56.77-.29,1.82-.51,0-1.09,1.1-.47,2.54-.56.8-.43,1.44-.14-3.44v24.28l.05-.2-.05-14.91h.1l1.83,3.2L38,122.41l2.67,2.12.89.33,2.26,1,.38.54-9.35,7.16-.34-.53v13l.1-1.53V134.8l9.45-7.17.23.28.53,2.48-.15.48.09,2.15-1.5,7.13-1.88,4.4-1.6,2.62-2.07,2.63-3,2.63-.19-4.54v95.4l.1-16.83-.1-4.64.19-5.59.28.3-.09.28,0,6.41-.09,1.05.18,10.13.14,10c0,8.14,0,16.22,0,24.38l-.56.38-.14-.29V271l1.93-1.82L36.33,250l-.09-26.76-.1-2.68,0-2.06.24-1.33,1.17.52.44.53-.11,10.51L38,256.24,37.88,268l.09,2.48-1.08,1-1.69,1.29-.05,0-.51.27-.1-.85v2.3l4.28-3.45V235.92l-.14-3,.14-2.77V219.29l.33-.81.7.33,1.23.77c.1,17.51.08,35-.19,52.48l-6.07,4.34h-.28v1.25l.66-.58,6.12-4.15.42-.77.19-6.74.28-.43L43.67,267l1.08,3.35.28,3.25-.38,3.49-.75,1.95L43,280.71l0,.47,1.13-.13,3.53-2.21,3.24-2.9,2.21-2.63L55.7,269c5.4-12.58.5-27.43-11.94-33.31l-.89.28c2.07,4.6,2.59,11-.7,15.2l-.33-.86.18-16,.09-2.57-.14-6,.24-5.64,2.4,1.14,4.85,2.73,5.77,3.2,1,.87,1.35.71.76.82c-4.06.9-6.8,2.05-7.9,6.54v1l.32,1.82.81,1.91.61.58,1.69,1.28.29.44.51-.24,1,.24,2.45-.29.38.38,1.55,3.5,2,5.29,1.7,5.94,1.13,8.69.14,3.77c-4.74,6.06-10.31,12.78-14,19.41h86.83l-5.5-6.17-8.46-10.26-2-2.69-.23-4.68-.15-1.38.24-.63,2-3.16,1.09-1.76,2-3.92.33-1.58-1.23-.81-2.12-2-1-2.58.19-.38.18-1.44-.27-.72-1.41-1,.23-.48,0-1.86-.66-.81-.42-1.34.6-1.87.38-2.63-.8-1.77,7.06-5.44.85-.92c-10.43-11-24.07-33.73-25-48.84l.39-.18,8.37-.06.85.24c2.8,10.8,8,20.81,13.87,30.16l4.42,6.21,2.08,2.58,3.09,3.35.76,0,11.94-9.41.71-.35,1.32,2.74,2.31,4.48,3.15,3.15,2.4,1.82,1.36.77.42.48-.65.56h-1.65l-2.4-.71-4.66-1.49-1.32-.28-1.59-.14-2.35.14-3,.63-1.93,1L140,225.79l-1.32,3.06,0,2,.33,1.57,1,1.39.74.3,1.79-2,1.37-.62,2.16,0,3.81.66,1.65.48,4.47,1.38c7.23,1.67,12.45-1.18,11.9-9.23l1.36-.85.38-2.11,1.26-.95.42-.86.06-1.66,1-1.58v0l.32-.39M34.54,112.19l.14-.57.14.9Zm.52,3.26,0-1.2.18-.15,1.51,1.58.79.91-.88,1.63-.75-.86Zm-.52,45.88.34-4.6h2l2.55.15.32,0,.8.24-3.24,2.68Zm0,9.12.05-1.53.29-.29.36.24,2.26,1.72,1.27.39,1.08-.15.53-2.33L40,164.82l-.66-1.63.05-.3,1.08-.81.52,1.4.61,2.29.15,4.58-.29,1.77-.89,1.15-1.46-.09-1.88-.67-2.45-1.87Zm.05-3.2,0-1.62,1.13-.63,2.67-1.62.24.24.61,2,.05,1.43-3.1,1.62Zm-.05,8.36.05-3.16.47-.33,1.12.72L38.64,174l-3.07,1.53Zm0,6.31.05-2.3.89-.42L37.74,184,35,186.6l-.38-.09.14-2.2L35,184l.27-1.11Zm.34-4.07-.24.34.09-.52Zm.69-65.56.29-1.73.23-.13.43.85,2,2.16-.71.47-.43,1.3-.65-.77Zm-1,76.56.05-.72L38.26,185l.33.28.38,1.16-3.82,3.2Zm.38,3.67-.13-.75.36-.9,4.43-3.7,1.36,2.21,1.68,2.87-1.68,1.61-2.41,1.88-1.35-.15-1.47-1.34Zm-.38,22.37.05-2.66h.23L57,224.07,54.78,226a214.77,214.77,0,0,0-19.63-10.52Zm0,48.13v1.82l.05,0Zm1.23-107.19-.24-.11,1.12-.85,3.87-3.78.24.2.41,4.73-.23.2-3.35-.2Zm.56-47.13.56-1.52.76-.68.38,0,.61,1.34,2,2.15.27.72-1.18,2,.09.71-1.12-.75-1.18-1.4ZM36,177.91l-.47-1.1,1.5-.63c6.76,14.61,16.72,28,29.83,37.24l-1.28,1.29c-11.09-7.64-20.51-19.21-26.94-31.12Zm1.65-59v-1l.47-1,1.46.66,1.27.48-.29.33.2,1.2L39,119.46Zm1.45-2.33-1.31-1,.24-.18.79-1.68,3.2,1.57-.38.68.15.77.42.18.81-1.63.78.25-.09.71-1.12.82-1.56.09Zm-1.13,74-.83.87.09.86.42.52,1,.33.76-.57V191.1l-.57-.67Zm.47-85,.33-1.29.38-.66.61-.09.42,1.34L41,106l1.74,1.77-1,1.57-.51.25L39.67,108Zm1.09,4.59-.71,1,0,.72h.33l.89-1.19.14-.68Zm-.94,66.29-.19-.76c8.66-4.79,15-10.12,20.41-18.54l-.51,2.48L57,167.25c-.42,12.07,1.83,20.28,8.18,30.4l-1.88,1.95c-2.7-2.47-7.67-16-8.05-19.87l-.74-8.66,0-2.63H54l-3.67,3-4.2,3-6,3.54-.69.24Zm.79-53.91-.09-.43.38.39Zm1.94.72-1.7-2.67L40,121l2.64,3.21-.38.1Zm-.85-20.5-.2-3.59c1.86-6.42,8.65-5.4,13.55-3.91l2.59.75,3.76.87,3.2.05,1.51-.48L66.48,95l.51-.33.52.71.42,2-.47,2.11-1.07,2C60.33,106,55,103.3,48.84,101.2v-1l-.66-.62L47,99.1h-.6l-1.32.19-1,0,1.7-1h1.73l1.09.2,1.59.72,1.27,1.52.61.43.2-.91-1.14-1.63.2,0,.47.1,2,1.48,1,1.57.47.24.22-.47-.89-2,1,.38L57,101.15l.8,1.63.52.19.19-.87-.28-.66-.7-1.2.84.19,1.55,1.06.94,1.33.47-.13L61,101.35l-.47-.72,1.23.13,2.3,1,.66.24,0-.57-1.45-1,.75-.29.29,0,2-1.3.47-1-.38-.24-.89.91-1.64.95-1.85.29-.41-.14,1.22-.81.37-1-.42-.09-1.37,1.09-.93.29-1.28.19-.89-.19,2.07-1.34,0-.86L58.67,98l-1.74.38-2.21-.24,2.07-1.28v-.53l-.38-.1-2.35,1.14h-.94l-2.39-.23,1.55-1.48-.1-.58-2.25,1.34-1.14.38-2,.15.61-.92.24-1.28-.42-.19-.85,1.23-3.06,2.93-.14-.82-.75-1.19-.66.39.28.47.47,1.92-.32,1.76.13,2,.38,1.76,1.17,1.91-.56.1-1.36-1-1.08-1.71Zm-.71,94.44-.47-.86,3.77-3,.37,0,.51.67.11.77-3.82,3.09Zm1.41-84.07-.47-.58.89-1.43L42,111l-.05.62-.47.81.24.67.75-.67L43,111l-.62-1,.62-1.29,1.68-1.28,2-.77h1.7l2.07.77.94.66,1.74,2.24,2.92,6,.24.9-11,8.36L44,125.1l-.15-.81-1.08-1.16-1.36-1.71-.18-.92,1.39,1.77,2.7,2.59.14-.44-2.17-2.72-1.08-1.53h.47l1.26,1.58L46.2,124l.2-.68-1-1-2.17-3,.23-.49.28.53L46,121.81l.71.22.09-.52-2.54-3.29-.38-.58.24-.34,1.45,2,2.87,2.81.19-.51-3.9-4.93.1-1,.74,1L48.65,120H49v-.39l-3.62-4.74.36-.52,1,1.38,3.39,3.4v-.67l-1.51-1.62-2.11-3.2-.24-.53,1.51.91.47.19,1.13.33.94.24,1.22-.19.8-.62-.23-.39-.67.24-1.18.24-1.68-.48-1.46-.95.84-.43,1.79-1.34.51-1.76-.36-.24-.67,1.38-1.54,1.15-.95.19.38-1.14.05-2.06-.38-.15-.28.44-.19,2-1.09,1.49-1.32,1-1.88.33ZM40,179.49V179l4.46-2.54,1.23-.76,2.5-1.67,5.68-4.54c-.47,11,3.21,21.59,8.76,30.87l-.85.77c-4-4.07-9.68-21.32-9.27-27.44l-.52-.19-1.18.77-6.24,4.25-3.85,2Zm1.89-60h-.76l.28-.54-.19-.85h.71l.52,0,0,.58Zm-1.42,80.86V199l.66-.6L43.94,196l.53-.72.38,0,3.71,4.91-3.86,3.4-1.17.09-1.23-.61-1.22-1.3Zm1.79-16.62L41,181.11l1.41-.72,4.75-2.81,4.66-3.07c.57,10,4.46,18.78,9.12,27.35l-1.74,1.47c-6.14-8.17-7.46-14.12-10.11-23.57l-.58-.14-2.81,2Zm-.15-28.07-.7-5.3,2.22-.62H44l3-.72.24.19-1.87,2.87L43,154.92Zm-.74,5.7,1-.83.19-.09,1.45,1.29L46,163l2.16.77,2-.29.29-.67-.2-2.24-1.35-2.83-1.74-2.24.18-.28.9-1a13.11,13.11,0,0,1,3.57,10.18l-.75.76-.75.38h-.57l-2.73-.38-3-1.29Zm1.21-12.28h-.36l3.24-5.88h.23L47.52,148l-2.11.54Zm.58-46,.36-1.71.06-.35,1.59-.81,1.42-.09.7.2.66.28.38.57-1.55.24-1.36.91-.72,1.86.05,1.34-.18.1.09.38.47.24-.33.24-.7-1Zm-.9,69.06.47-3.68.09-.42,1.23.33,1.69,1.34-.61.66Zm1.88-57.68-.66-.15,1.27-.38Zm-.94,45.36,1-.86,2.35-2.63.66.18,1.5,2.54,0,.57L46.35,162H46l-1-.48Zm-1.27,93.62.09-.86,1-1.05,1.36-2.63.76-2.87.24-3.4-.2-1.76-.42-1.53.18-.57,1.7,1.57L47.81,242l.69,3.16,0,3.59-.74,2.39-1.46,1.76-.11.57.72.1,1.22.33,3,1.68,2,2.05,0,.53c-2.61,3.06-3.83,2.9-6.63,4.1,2,2.86,2.33,11-.61,13.25,0-4.08-.22-9.19-3.91-11.71l-.13-1.29,1,.47,1.54,1.67,1.38,4,.61.19.24-1.29L45.88,265l-1.5-3L42,259.82l-.18-.76c2.31.73,7,.21,9-1.15v-.39l-3.71-.76-3.77-.14-.89.24-.65-.15,1.12-.57,1.92-1.71,1-1.54.79-3.2-.27-2.06-.52-.33-.51,2.06-1.18,2.19-1.93,2Zm2.73-65.62-1.7-3.2,4.2-2.72,1.3-.83c1.85,8.37,4.77,16.21,10,23l-.57.28-2.82-3-4.33-4.93-3.85-5.2Zm-1.18,10.8-.66.87.1.75.56.81,1.13.3.76-.57.14-1.35-.94-.95Zm2.21-93.34.09-1.19,1.38.62,1.35,1.14-.28.06H46.3Zm0,38.42-.23.15,0,.29Zm-1,94.12-.42-.63,2.36,1.29,2,1.86,1.13,1.87.8,2.48.05,3.49-.43,2.06-.94,2,.15.43,2.16.48,2.81,2,1.75,2.1.19.82-.51.81-2.26,2.25-2.3,1.62-2.26.86c3.07,5.13,1.72,13.36-4.14,15.77l.27-1.34,1.23-1.43,1.17-1.72,1.09-3.45.09-3.53-.38-3.2-.51-1.1-.09-.86,1.18-.39,2.48-1.47,2.49-2.25.19-.91-.37-.67-2.17-2-2.11-1.19-2.08-.87.76-1.14,1-2.88.23-2.52-.6-4.16-.85-1.68-1.23-1.33Zm1.5-95.5-.14-.67,1.88-1,.29,0,1-.72L51.2,139l-.71,3-1.27,3.35-1.08,1.91Zm-.94,62,.67-.58.18-.19,2.59-2.3.71-.24.66.87v.48l-2.22,1.81-.74.76-1,.68Zm.85-36.71L46,166.14l.18-.33,3.35.72.09.19-2.82,2.35Zm.29-27.44.75-3.48.57-3.58L50,136l1,1.76-.67.63-2.77,1.43ZM47.2,122l-.53.11.57.81h.61Zm3.47,5.46-3.8-2,3.86-2.83.37,1.11.47,3.91Zm-3.29,3.58-.18-4.15.23-.15.85.48,1.69.81.14.57L48.79,130ZM46.26,207l.38-.57,3.65-3.25.71-.25,4.19,4.35,0,.29-4.41,4-1.7-.43-2.16-2.05Zm1.83-74.8.09-.58L51.29,129h.32l.2,1.34-.05,3.59.05.42-.24,2.49-1.17-1.33-1.18-1.87Zm.85,20.89.88-1.2.25.28,2.63.77,3.11.24,1.77-.24.62-.33-.09-1.05-1.65-2.59-3.53-3.35.53-1.19.79.39,2.3,2.11L59,150l1.12,2.68-.56,1.16-1.83.85-4.19.09-2.45-.61Zm.61,53.34-.43.7.29,1.16.52.42,1,.29.71-.53.23-1.29-.61-.75-.94-.35Zm.52-55.07,2.45-4.73h.36l2.46,2.49.09.42-1.32,2.68h-1l-.89-.14Zm.51,113.56-.47-.9h.47ZM53,163.24l-.91-4.36,1.94.3,1.54.71-.27.76Zm-1.94,79.57.42.24,0,1.38-.38-.72Zm0,7.74.15-1.19.09-.48.32-.48-.14,3.82Zm.2-13,.13-2.25c2.68-6.28,8.43-4,12-.1l.7,1.19.71.62,1.26,2.25,2,4.06L70,247.39l3.76,10.81,3,10.46.61,3.59-1.61-.14L74,264.65l-1.79-6.21-2.5-7.83-2-5.56-3.72-7.16L62,235.17l-2.26-2L57,231.91l-2.45.1-.56.33v.43l.28.15,1.22-.2,1.41.2-1.92.37-1.5,1.4-.85,1.71.47,2.59,1,1.19,1.64.81,1.56-.14,1.23-.76.7-1.39.15-1.1-.62-2-1.27-.77-1.69.3-1,1.14.28,1.82.66.77h1.42l.47-.73-.1-.76-.81.62-.56,0-.61-.61.09-.91.61-.72,1.65-.05.71,1.24v1.58L57.31,240l-1.27.19-.75-.14-1.42-1.14-.32-.87-.09-1.39.65-1.53,1-.81.94-.29h1.23l1.08.2,1.46,1.23.7,1.68v1.63l-.7,1.67a4.8,4.8,0,0,1-7.77-.43ZM52,211.93v-.42l.38-.2L55,208.92l1.17-.86.89,1.06-4,3.72-.53-.52Zm-.56,57-.09-3,.33-2.63.09.19.14,3.78-.09,5.87-.24.24-.14-.66ZM52.28,245l.18-.47.42.47.11,8-.62-.38Zm1.41-101.74L54.2,142a11.82,11.82,0,0,0,8.7-2.06l-.18-.77-2.31-2L58,135.61l-2.64-.9.14-1.25c3.37.53,7.13,2.74,8.61,6L64,141l-.67.72-3.11,1.19-2.24.48-2.92.24Zm.51-22.08.14-.24,1.22.09,1.61.39L60,122.51,62.34,124l2,1.85.38,1.15c-2.24,2.3-6,4.64-9.26,4.35l0-1.34,1.08-.09.9-.34,2.12-.62,1.18-.62,1.5-1.25.27-1-2.11-1.63-1.74-1-2.44-.9-1.65-.24Zm1.41-1.54-1.12,0,2.64-2.09,3.8-2.78-.38.86L59.34,118l-.81.63ZM53,215l.32-1,.58-1,3.89-3.31,3.91,3.45-.85,1-3.57,3.53-1.32.24-1.46-1Zm-.89,74.31c4.43-6.09,8.27-12.8,13.55-18.19,17,4.3,38.17,4.11,55.45.37l2.29,2.44.86,1.14,7.61,9.14,4.34,4.92-.14.52c-26.91-.25-53.76-.12-80.67-.24Zm.38-24.17.18-2.35.51-.38v8.65l-.51.76-.15-1.38.1-2.24Zm1.77-124.26.49-1.72.56-3.44h.74l1,.28,1.82,1.1-.27,3.16-.38.62-1.37.33-2.1-.05Zm.43-17.16.15-.39,2.11.48,1.83.86.19.77.14,2.58-.38.29-1.59.57-1.65.05-.29-2.49Zm.06,32.59,0-.76H57l.43-.24,1.22,0L56.46,159l-.61-.48Zm-1,97.07-.05-1.73.05-4.92.66.92.09,6.15-.33.2Zm.09,15.2v-6.8l.57-.42.28.15-.09,6.92-.52,1Zm1.32-17.44.15-1.1.47.95v4.3l-.29-.2Zm.33,14.43-.05-5.21L56,260v4.77Zm1.32-53.24-.71.81.19,1,.9.75.94-.13.51-1.1-.09-.59-.76-.75ZM56,226.71l3-3,1.26-1.15-.09-.14,2.22-2.1,5.83-6.36L71,210.55l6.17-8.36c4.39-6.63,11.41-16.34,14.11-23.62l2.12-.24,5.59.15,2.64-.15.47.15c1.3,8.13-6.92,19.05-11,25.14-5.79,7.89-14.71,19.25-21.78,25.72l-.8-.2L62,228.85l-2.26.49-2-1.63Zm1.74-55c.08-19.61,10.06-33.91,26.81-43.07l.61,1.58-.75.33-1.79,1-1.13.53-5,3.3c-11,8.58-18,23.38-17.07,37.51l.42,4.36,1,5.16,1.92,5.59L64.55,192l3.85,6,3.17,3.72,2.15,1.91.38.81-1,.92a46.85,46.85,0,0,1-14.87-28.2Zm-.15,58.91-.36,0,1.36-.53,1.23.47,1.59.48,2.17,1.49,2.72,3.05L69,240.28l3.19,6.84,1.69,4.24,2.87,8.55,3.11,12.29-.24.33-1.18-.09c-2.75-11.5-7.38-28.11-14.24-37.75l-3.86-3Zm1.23-82.24-.18-.47,1.18-.48,2.06,0,.33.38-1.51,3.44Zm.71,70.39-1-.81v-.48L62,214l.38-.15.85.54,0,.38-.75.85Zm1-100.74,1.61-3.1,1.07,2.86.05,1.09-.89-.37Zm2,132.63L59,242.19l.57-.2.51.82,2.44,5,1.79,5.55,1.61,6.49,1,6.27.24,3.82-.24.57-.94-.29-.74-8.74-1.14-5.83ZM61.11,145.5l-.6-1.76,1.36-.43,1.5-.73.2.49-.81,3.06-.37.42Zm-1.59,75.9.33-1,.32-.81,1.09-1.34,3.11-3.2.56.57V216l-1.14,1.1-4,4.3ZM61,134.8l1-1,1.83-.81,1.14-.09L64.46,138l-1.56-1.62Zm.37-12.15-.19-.47,1.51-1.24.85-.1.47,1.77.19,1.86Zm-.66,50.9.47-2.33.42-1.2,1.61-1.76,1-.24.28.57,1.12,1,1.14.09.7-.43.62-1,0-1.33-.42-.77-.9-.68-1.6.2-.89,1.1-.37,0-1.28-1.23-1.08-2.54.33-2.72L63,158.5,64.84,157l1.83-.75.28,1.43.85.9,1.45.19,1-.81.34-1.53-.43-1.25-1-.57-1.55.15-.51-.53-.71-2-.1-1.62.47-1.87.9-1.34,1.92-1.47,1.79-.68,1.41.25c-1.24,2.44.71,4.43,2.77,3.24l.67-1,.14-1.05-.61-.92-.57-.57L73.54,145l-.76-2.44.09-1.23.9-1.73,1-1.05,1.92-1.19h1.93l1.5.77-.32,1.29.27,1.43,1.27.9h1.17l1-.85.33-.86-.29-1.4-1-.81L81,137.62l-.32-.34.13-1.76.47-1.16,1.13-1.28L85,131.59l.85,0,.72,1.1.92,3.4,0,3.15c-2.64,6.62-7.56,5.27-11.61.77l-.43.18,0,.48.85.91,1.45,2.88.47,2v1.91l-.94,2-.85.81-1.59.62-2.17,0-3.75-.81-.15.44c3.07,1.36,5.41,4.46,3.71,7.88L71,160.74l-1.32.87-1.63.62L66.72,162l-1,.39.27.66.85.1,1.17.53,1.83,1.8.38.86.06,2.45c-1.23,3.35-3.38,3.42-5.84,4.15l.1.48.33.19,2.82,0,1.27.53,1.64,1.52L71,177l.06,2.06-1,2.26-2.92,2.28-.15.48.33.2,2.49-.83h1.56l1.37.63c3.33,2.85,1.84,6.84-1,9.22l.28.48c4-2.78,4.94-3.31,8.94,1l-1.27,1.62-.43-.24H77.77l-1.14.91-.5,1.86-.24.2-.9.24h-.42l-2.3-.38-2-1.4-1.42-1.9-.75-2,.14-2.06.89-1.62,1,.28,1.6-.15.61-.57.33-1.67-.28-.86-1.22-1.05-1.52-.1-.33.24-.7.63-.37,1,.09,1.48c-4.83.55-7.14-6.38-3.62-9.36l.89.66.85.15,1.27-.34.74-1,.11-1.59-.2-.42-1.3-1.1L65.72,176l-1,.47L64.13,178l-.61-.11-1.18-.75-1-1.58Zm1.47-42.48-.52-.68H62l1.89-1.61.79-.58.15,2.06v1.05l-.15.39-1.26-.11ZM60.08,241.29l.38-.15.42.37,3.2,5.94,2,5.44L68.17,261l1.28,8.13,0,1.87-1.27-.29-.56-5.07-1.09-6.73-2.17-8.13-2-5.11Zm1.23-4.41-.43-1.44.43.06,2.35,3.34L67.1,246l1.83,4.74,3.38,10.85,2.35,9.74,0,.68-1.6-.21-.24-.23-.51-3.26-1.52-7.35c-2-7.92-4.3-16.17-9.31-22.75Zm-.52,3.44.47-.85.57.47,2.11,3.77,3.25,7.17,2,6.89L71.7,268.9l.23,2.68-1.45-.33c-1.3-10.7-3-20.86-8.94-30ZM61.22,230l-.06-.09.48-.15,1.26.39,2.26,1.28,2.3,2.35,3.06,4.73,2.73,5.59,4,10,3.49,13,1.45,5.78-1.32-.14C77.44,259.9,73.31,242,64.22,232Zm3.15,0H66l1.79,1.29,3.48,4.11,2.26,3.86,4.75,11.44,5.27,15.95,1.5,6.31-.29.18-1.41-.18L82,268l-1.41-5.36-.94-3.34-3.38-10.14c-2.67-6-5.37-13.58-10.35-18.16Zm.79-61.8L65,167l.76-.59.79,0,.71,1-.18,1-.53.42-.94,0Zm-.09,10.31.38-1,.56-.48.89,0,.76.75.14,1.16-.85.76H65.82Zm2.5-21.26.14-1,.69-.72.71,0,.76.67-.1,1.24-.75.58-.75-.1Zm.79,73.65-.52-.71,1,.09,1.89,1.58,2.39,3,2.64,4.35a163.76,163.76,0,0,1,11.66,34H86.28l-.33-.28L84.83,268l-2.45-7.74c-2.93-7.81-6.6-21.21-12-27.49ZM71.13,37.93l.11-.29c7.15.19,14.37.12,21.53.14h4.9l.18,0,8.09,0,8.75.1,12-.06h5.37l.29.06.18-.15.09.2,8.7-.11.71.15,7.9-.15,5.88.15.42.14-2.39,3.15-3.2,4.35-6.21,8.22-2.35,2.78c-8.88-2.5-21.7-3.51-30.68-3.35l-.18.05-3.76,0-3.3.23L97.53,54l-2,.42-1.7.26-6.1,1.19-1.37.24-11-13.43ZM69,188.57l.33-1.16.61-.62.89,0,.79.48.1,1.34-.75.57-.89.09-.48-.24Zm2.62-16.36c-.57-13,6.59-24,17.79-30.15l.47.34v1.1c-18.6,8.1-23,35.77-7.71,49.26l-.2.63-.52.29c-4.74-3.86-8.5-11.29-9.35-17.41ZM71,230.9l.33,0,.76.34,3.09,3.72L76,236l2.07,3.76,1.7,3.4L82,248.31l1.79,5,3.06,9.56,2.73,9.22,0,1.2-1.27-.15c-3.35-12-7.71-28.68-15-39.24Zm2.21-83.43v-.77l.67-.77.79,0,.62.71-.11,1-.45.49-.91-.11Zm-.33,82.82.53-.53,2.62-2.92.43,1.34.94.77,1.46-.1.9-.67.36-1.76-.51-1-1.75-.44.67-.86,1.74-2,1.17-.18.15.62.52,7.17-.33.33-5.37.76-1.12.53-1.18-.24Zm1.42,2.1-.53-.71.85.42.76.67,2.87,3.44,1.51,2.54.36,1.1.43.43,2.63,5.35,2.55,7,5.73,18.11.57,2.68-1.27-.09-3.1-10.62-3.07-10-4.18-10.18-2.68-5Zm.94-60V170l.56-.19,2.06.19-.09,2.39Zm.37-15.15-.19,0,.19.15Zm-.37,16.25c6.07,0,12-.41,18.1-.24l1.23,0H102l6-.15,10.67.15.29.28-.18,2c-14.5-.21-28.92.08-43.42-.19Zm.18-4.78.34-.86c14.33-.06,28.71-.14,43,.05l.09.72c-12.27.37-24.92-.1-37.21.18Zm.23-4.15.53-1.29.38-.72,1.79-1.91-.44-1L78.1,158l.56-1.3L80,155.45l1.36-.48-.28-1.4.42-1.47.8-1.16,1.08-.66,1.6-.09.76-.09.14-1.4.61-1.34.94-.85.94-.44,1.7.15,1.4,1.14.29.92-4.14.18-.62.87.11,6.89-.29.13-1.27-.81-1.7-2.44-.37.1.05.63L85,156.55l.28,2.19-.41,1-1,.57-.74-.06-1.52-.46-1.73-2-.57.14,1.32,2.43.51,1.82-2.44,1.91-2.53,1.67Zm1.23,15v-.72l.33-.19,3.91-.14.56.14-1.13.91.15.58.27.19,2-.87,1.64.1.56.82-.37,1.57-.28,2,1.5-1.53,2.68-2.49.47,0-.09.68-2.44,4.39L83.93,190l-1.27-2.87L81.3,187l-1.41-.81-.56-1-.11-1.52.81-1.45-.19-.71H78.75L77.68,181Zm.15,52.9-.29-.42c7.61-1.91,17-1.16,24.37-1.68l.23.3.29-.15,3.1.18,7,.63,2.44.44v.18l-1.32.39-5.91-.44-3.49-.18-2.45-.06H92.77l-6.06.39-4.8.53-3.62.51Zm.23-33.73.14-1,.33-.33.52-.15.79.19-1.36,1.91Zm.6,35.79-.51-.86,1.27.77,1.5,1.34,1,1.47,2.11,3.84c4,9.59,9.45,22.2,11.24,32.35H93.15l-1.5-4.74-4.24-13.57-3.58-9.89-3.14-6.5Zm1.37-68.35-.56,0,4.85-3.79,2.57-.13,3.78-.11h3.47l1.38.2-2.55,1.86-2.59,2-1.88.1-1.12,0Zm2-92.47.32-1L84.07,68l3-4.5-.43-2.87L87,57l.38-.2,1.32-.28,6-1,8.65-.87,1.68-.24.71.19,1.37,5.07,3.62,11.14,3.38,8,.85,1.91A38.2,38.2,0,0,1,92.77,95.08l-3-.18-1.47-.48-1.12-1.07-.65-2,.13-1.1.61-1.43.14-1.72-.23-.53,1.21-.28.91-1.1-.24-.86-.94,1.1-.94.14-.8-.76c.58-4.21,4.28.84,5.36,1.52l.23-.42-.32-1-.15-2.39-.41-.13-.62.42-1.32-.33-3.62-3.21-1.32-3.15Zm-.6,66.15.13-.72.56-.53h.76l.79.63.11,1.14-.76.67-1-.19ZM79.6,233.88v-.15l2.44-.24-.83,1-.67.24ZM82.28,99.1l-.18-.58,4.14-3.06,1.17.24.57.43,1.12.29.05,1.29-.47,2.72-.85,3.64-1.36-.24-.85-.57-.85-1.34-1.17-1.34,1.36.71,1.57,0,.88-.67.38-1.86-.48-1-.22-.29-1-.48h-1.5l-.74.39L83.22,99l.2,1.19Zm-.94,121.58,1.17-1.19,1.38-.24,4.88-.39,5.74-.24,7,.19,7.49.44,1.78.15,1.57.23,2.29.19.89.29,3,.52.85.72.51,1a152.06,152.06,0,0,0-33.87-2ZM84.5,73.87l-.76.57.19.62,2.82,1.53,1.6.42,1.46-.57.52-.86v-1.2L90,73.72,89,73l-.94.19-.24.33,1,.2.57.62.14,1-.94.63H87.7l-.85-1.16-1-.81ZM81.39,235.26l1.79-1.49.42-.52,1.14-.14.27,0-2.91,2.59Zm1.09,2.63-.53-1c5.25,4.68,13.74,29.92,14.82,36.51H95.41l-1-4.64-2.24-7.41L86,245.3ZM83,172V170l.32-.19,3.48.09,0,2.45H83.18Zm-.52,52.24.18-2.45,3.81-.38,3.67-.24,1,.34.23,5.21,0,2.59-2.35.13-2.26.06-2.92.33-.52-.15Zm.23,11.85.56-.53,3.26-2.67,1.77-.1-2.77,2.35-2.21,1.62ZM86.42,78.35v.48l.14.57,2.77,1.67,2.41,1,2.77,0,1.08-.57.71-1,.09-1.62-.56-1.06-1-.57-1.47.2-.79,1,.09,1,.38.58.28.28,1.07,0,.58-.48.18-1-.85-.81-.41.48.32.51L94,79.6l-.66-.24,0-.62.85-.68.76.11.47.48.09,1.52-.61.67-1.7.2-1.5-.35-3.1-2.39-1.28-.48Zm-2.3,159.06,4.18-3.68,1.56-1,1.74-.09-6.12,5-.65.33Zm.84-13-.46,1,.56,2,.56.44,1.18.14h.61l.85-.44.66-1,0-1.2-.29-.81-.89-.81-1.46-.18Zm.05-8.13,1.84-2.2L94,204.71l5.32-8.16,3.43-6.22c3.9,10.66,7.85,17.9,13.79,27.19l-5.27-.62-7.54-.61-11-.33-5.22.33Zm.61,24.62-.66-1.2h.39l1.18,1.44,2.86,5.2,2.44,5.07L94.94,260l3.62,11.61.18,1.73-1.12-.11a159.67,159.67,0,0,0-11.06-30.87Zm2-135.11-.29-.44a144.59,144.59,0,0,0,38.48,1.88l-.9,1.1-1.13.24-6.62.47h-3l-3.2.14c-7.3-.27-15.43-.32-22.48-2.19Zm.89-45.84-.42.05.51,1.2,1.14,1.49-.15.71.33,3L88.26,67l.28.53L90,67.22l1.79.29,3.11,0,2.21-.81,1.17-.33,1.23.9,1.4.77,1.14,0,.09-.68L97.2,63.78l-3-1.53L93,62l-2.21-.81.94.05.09-.2.24.24,1.84.39,2.53,1.1,3.71,3.1.53.15v-.57L99.21,64,96,61.63l-2.26-1L91,60.28l-.47.3-.09.47-.51-.18Zm-3,178.85.24-.38,7-5.83H94.7v.18l-2.82,2.1-5.32,4.68Zm3.49-182-.33.72.09.42L90,59.18l1.41.63,1.74.33,1.55.53,1.45.2,2.64.85,4.09,2.77h.53l-.38-.95-1.5-1.48-2.41-1.78L96.86,59l-2-.48-4.18-.81-1.18-.92Zm-.85,97.12-.33-.34.28-1.43.19-.29,11.67,0h31.19l0,.33.09,1.43-.23.19-14.82.29-4.85-.09-8,.18-.1-.14-.51.1-11-.05Zm.76,6.69-1-.1.06-1.39.23-.57,2.88-.09,40.34.09-.09,1.58-.42.09-11.1.15-.19.05h-3.38l-.85-.05-.19.05c-7.19,0-14.36-.06-21.54.09Zm-.85-3.4L88,155.3l.36-.24,2.12.05.11,2.19-1.7.11Zm.7-52.94.19-1.49.52-3.16.75-2.82,1,.19,5.59.91.15,2.39-.48,5.17-6.58-.86Zm-1.73,136.1V240l4.83-4.36,4.47-3.2h1.23l.14.24-1.64,1.16-8.38,7.17ZM90.94,67.6l-.61.2.09.37,1.14.57,3,2.68,1.08.57,2.88,1.2.23-.61-.7-.2L95.5,71l-2.73-2.3ZM88.59,242l-.14-.43,5.26-4.77,5.32-4,1.79-.14-5.61,4.25-4.09,3.82-1.92,2ZM93,113.87l-2.17-3.68a149.23,149.23,0,0,0,31.47,1.33,149,149,0,0,0-17.87,25.86l-2.5-6.36-4.65-10-2.53-4.45ZM91.79,99.44l-.85,1.28.38,1.91,1.59.87,1.65-.29,1-1.25,0-1.48-.47-1-1.45-.62ZM89.44,244.63c4,3.39,11,24,11.47,28.53l-1.23.09-.18-1.1-3.24-10.79-3.44-9.47ZM92.07,66l.43-2.3.41.1-.09,1.38ZM89.91,243.62l-.2-.38,2.79-2.78L97.62,236l4.61-3.3,1.69,0,.66.15-1.93,1.1-3.76,2.58-6,5.31-2.21,2.48h-.14Zm5-36.89-4.24,5.5.29.47.18.19h8.29l11.38.24.38-.43c-3.61-5.71-5.72-11-9-16.72l-.51.27-1.88,3.16ZM94.23,66.79l-1.46-.19.38-.34.71-2.19h.23l2.59,1.29.23.51-.89.48ZM93.58,96l-.39-.24,2.08-.37,4.47.48,11,.33,2.44-.14,2.73,0,.33,0,6.11-.52.42,0L127.4,95l1.82-.19.71.24.8.72c-11.18,2-22.65,1.72-33.91.71Zm-1.75,76.19v-1.76l.52-.68,3.24.05-.09,2.34-.74.15-1.43-.06-.18.06Zm.18-6.06L97.48,162l4.19,0h8.94l.61.15-5.32,4-8.57.06Zm-.74,79.37-.24-.57,1.47-1.77,4.7-4.2,3.85-2.93,4.85-3.09,1.6-.15,2.06.1-.09.18-2.77,1.2-2.5,1.25-4.65,3-4,3.58-3.58,4.3Zm.38-33.36c3.75-4.46,7.08-10,10.35-15l1.21,2.52,5,9.28,1.84,3.35-7.44-.15-7.71.06Zm.42,14.72-.1-5.35,3.53-.14,1.13.09,2.92.05.75.15.09,6.21-.15,1.49-3-.11-4.76.11Zm.28,20.46c3.88-6.5,17.91-16.46,26.25-14.34l1.51,1.16.61,1.29,0,2.05-.8,2,.28,1.55-1.18.42-.93,1.1.47.57,1-1.1h.85l.51.77-.14,1.15-.56.57-1.27-.34-2.31-1.76-.7-.92-.52.05.38,1v1.91l.27.81,1-.42,1.27.38,2.86,2.58.67.33.47,1.67.79,1.53,3,2.63-.47,1.45-2.72,4.91L120.48,264l.37,2.53-.09,3.73-.33.33-2.35.43-2.59.63-7.2.9-6.44.53-1.36-4.84-2.87-9.17-3.29-8Zm1.41-22.61v1.25l0,.28,1,1.15,1.46.09,1.12-.42.62-.82.09-1.71-.29-.58-1.08-.77-1.4.1-.71.33Zm1.36-67.33.06-2.25.27-.14,3.25.09.15.57-.24,1.82Zm1.6-42.68-.46.29,0,.24,1.55,3L99,119.93l5,9.89,1.12,2,.38-.09,1.93-3.11,3.82-5.74,5.63-7.44-.27-.54-9.14-.09-.18,0Zm1.08,1.67-.47-.86,1.79,0,.29,0,6.11.1,9.79,0,.13.33-3.24,4-2.64,3.86-2.91,4.54-1.31,2.2-1.14-2.24-1.55-3.2Zm-.27-11.27.14-1.82.13-2.68L98.09,98l4.18.43,3.91.14v4.3l-.28,3.2h-1.28l-.18.06-6.64-.48Zm.36-10.29.43-.33,3.1-1.29,3.92-2.2,4.46-3.35,3.43-3.39,2.3-2.82.39.38.6,1-5.35,5.22-4.71,3.53-5.17,3.34-3.11-.09Zm2.64,5.12-.89,1,0,1.58.24.81,1.37,1,1.41-.15,1.27-1,.32-1-.27-1.48-1-.87-1.32,0Zm-.09,72.26L100.3,170l.23-.24h3l.18.77-.13,1.72ZM105.38,95l-2.39-.2,2-1.2,5.32-3.86,4.52-4,1.68-2,.58-.24.42.58.09.62-3,2.87-4,3.58Zm-4.33,133.25.33-6.6,3.44,0,2.82.29,2.12.29,0,1.14-.47,6.31-.46-.1-3.4-.33h-4.09Zm2.16-71.65.1-1.33.33-.24,2.59-.05.38.09v2.35l-3.06,0Zm1,67.24-1,1.34.29,2.11,1.45.86,1.79-.29,1-1.14V225l-.34-.75-.74-.58-1.27-.19ZM105,146.6c.31-6.57,4.41-10.49,7.15-16.21a182.74,182.74,0,0,1,25.92-31.78l1.7.2,5.59.29,2.26-.29,2.26,1.34.51.61L142.07,109l-2.45,2.63-3.05,3.64-4,5.07-5.36,7.17-5.32,7.63-4.7,8.09-2.12,5.2L105,148.37Zm4-83.73-2.44-8.51h1.32a151.75,151.75,0,0,0,10.25,29.06l-1-1.28L114.23,77l-2.74-6.73Zm-4.23,200.25-.66-.05,0,.39,2,2.05,2.75,2,2.48,1.34,5.55,1,1.38.95.45,0,.11-.91-1.7-1.68-2-.66-2.45-.39L109,265.94Zm2.17-168-.24-.15,1.12-.71,5.93-4.68,4.56-4.4.42.33.29.72L112.4,92l-4,3Zm.46,11.19-.52-.24.09-2.44,0-5,2.74,0,2.73-.09,2.62.09.29,6.56-.23,1.38Zm-1.31,153.21-.71.25.09.47,6.08,4.21,2.39,1,2.17.81-1.51-.09-1.7-.48-2.35-1.29-3.25-2.77-.51.05,0,.37,2.68,2.44,2.77,1.82,2.88.81,1.64.15.47-.68.47.2,1.65.9V267l-1.65-2.2.13-.29,0-2.05-.28-1.24.94-.2.75-.51-.19-.34-1.59.24-1.42-.29-1-.09-2.4.14-1.5.34-1.32.75-.47-.09-2-1.34Zm2.67-204.93.2-.28h.74l.34.24,1,3.82,2.64,8.55,1.65,4.5.94,3.06,2.91,7.31,3.2,6.4-.81-.72-1.68-2.77-3.11-6.07L114,71.76l-.85-2.43-1.88-5.94Zm-.7,116.85.19-1.43.19-.19,3-.05.33.05,0,2.3-.34.13-3.09,0Zm1.23-69.63-.15,1.14.33.83.85.71,1.27.14,1.17-.37.94-1.16v-1.47l-1-1.2-1.27-.2-1.36.48Zm-.42,64.43-.29-.19.75-.58,2.22-1.81L114,162l4.66-.09h7.06l-.42.33-6.08,4-3.2,0-.27,0ZM111,95.28l-1.32-.15,2.88-2.29,7.14-6.07.67.66v.3l-1.79,1.71-4.61,3.73Zm2.78-30.49-3-10.48,1.5-.14a163,163,0,0,0,13.26,36.66l-.23-.09-1.47-1.82-3.19-6.08L117.32,75Zm-3.49,190-1.39-.09.27.38,2.12,1,3.76,3,.94.57.89.29.11-.57-.85-.33-2.68-2.44Zm.39-24.94-.15-3v-2.48l.43-2.15,5,.81,2.25.2.43.37-1.32,7.27-.94-.1-2.91-.52Zm.75-72.6,0-2.11.38-.23,3.29.1-.09,2.34-2.3,0-.81,0Zm1.65-102.8.13-.29,1.37,0,3.73,12.62.6,1.9,4.05,12,4,8.56L130,94.18,128.19,93l-1.27-1.54-2.2-3.67L122.26,82,118,71.13l-2.35-6.92Zm.47,40.82-.71-.2,6.12-4.93-.2-.27L119,90l2-1.73.71.63v.53l-7.25,5.77ZM110.37,262l.85-.61.84-.35,2.73-.24-.24.39-.76,2.06-.18.33-2-.86ZM112,246.16l-.84,1.14.19,1.82,1,1.14,1.32.05.51-.2L115,249l-.23-1.24-.62-.48-.94,0-.79.66.09.91.47.38.57-.05-.25-.81.29-.39.52.35v.57l-.28.42-1.13.3-.85-1,.09-1.19.71-.72,1.88-.15,1.18.29,3.58,2.73,1.12.18.65-.51-.09-1.05-2.62-1.54-1.66-.76-1.4-.35-2.31.06Zm0-20.55-.27.85.56,1.58,1,.62,1.79-.15.94-.71.33-.91-.09-1.38-.76-.82-.8-.42-1.73.24Zm3.44-171.15.29-.33,1.17.18c3.91,13.51,7.67,30.5,16.66,41.63h-.48l-.8-.62-2.82-3.44-1.18-1.76-3-6.22-1.8-4.35L121.19,73,119,66.26Zm-.8,123.93,2.59-.06h2.4l.33-.48-.09-5.34L120,171l.42-.15,1.32,1,.66,1.24.84,1,.38-.15-.51-1.24-.94-1.68-.43-2.29.14-.85.62-1.1,1.55.14,1.41.57,1.55,1.48.57.23.09-.57-.9-1-.75-1.4.1-1.52.37-1.24,1.27-1.24.75-.39,2.6.09.18.59-.56,1.95-2.17,1.82.38.9,0,2-.34.87-1.41,1.63-1.54.61.18,1.06-.29,1.72-.79,1.15-1.27.76h-2l-.2.95-.65,1.88-1.32,1.08-2,.35-1-.29-1.12-1.2ZM117.32,95l-1.4,0,.66-.44,6.06-4.87.43.38.09.63-5.23,4.24Zm-1,11.1-.24-6,.09-1.67,3-.24h.75l2.73-.2,1.65,0,.43,3.54,0,4.3-.28.1-6.11.38-1.85,0Zm-1.65,157.56-.09-.9.24-.58.74-.66-.18.86-.14,1.58Zm3.15-209,.2-.35h1.17c3.63,12.39,8.3,32.51,17.26,42.63l-.79-.09L133,93.94l-1.55-2.15-2-3.44-2.59-5.6-1.84-4.34-2.21-6.32Zm-1.41,93.43,2.08-4.45,3.9-6.69.47-.44.19.59,0,1.66-.29.58.14.48.66.19.47-.43.52-.05,1.18.2,1.21.81.67,1.19.09,2-.76,1.2.38.68h.89l.9.33.8,1.28-.05,1.25-3.48.1-.94-.1.85-.71,0-.81-.65-.06-1,.57-2,.3-1.36-1.16-.38-2.48-.61-.19-.33,1.2-1.12,1.67-1.74,1.38Zm.2,23.94-.29-2.21H118l.89.15.05,2.06Zm.61,13.19-.61-.48v-.47a31.38,31.38,0,0,0,8-50.72l.76-.86c9.09,9.11,12.3,20.82,8.65,33.22a32.71,32.71,0,0,1-12.9,16.83Zm1.92-84.83-.74,1.1,0,1,.23.9,1,.86,1.47.1,1.5-1.09.23-1.58-.46-1.1-.66-.63-1.37-.18Zm.62-5.49-.42-.06L121.55,93l2.5-1.91.61.48-.9,1L121,94.75Zm-1.85,156.17-.69,1.15.13,1.2,1,1.05.83.19.47-.57-.79-.15-.8-1v-.53l1-.81,1.08.05.52.76,1.18,1.25,1.45.09.47-.42-.09-.92-.89-.33-1.46-.86-1.65-.67Zm2.26-196.23.15-.53,1.23.15.14.29,1,4.3,3.24,10.61,2.45,7.26,2.44,6.27,2.46,5.68,1.21,2.33.9,1.64L138,96.09l1.32,1.09.42.67-.95-.09L137,96.28l-2.78-3.5-2-3.34-3.72-8.22-2-5.35-2.79-8.27ZM120.43,232l-2.35-1,.76-4.34.65-3.07,1.65.24,2.26,2.68-.15.15-.7-.39-1.56.1-.94.57-.38,1.58.34,1.19,1,.87,1.46.13.52-.19,1-1,0-1.53,0-.68.28.29,1.08,1.38-1.7,1.16-2.3,2Zm-.32-75.33.13-1.71,1.17-.1h1.42L124,155l0,2.28-3.57.11Zm-.24,32.26,1-3.15.61-.95,1-.87,1.51-.62,1.65.05,1.74.53,4,3.06.15-.53-1.83-2.72-1-3.2.15-2,.74-1.82.72-.81,1.88-.68,1.88-.09,1.13.2,2.44.76.58-.05v-.52l-1.28-.77-2-1.62-1-2.49.14-1.63.57-1.43,2.26-2,1.64-.63,2.54-.14.09-.57-.33-.34-.66,0-1.13-.42-1.83-1.78-.66-2.39.61-2.28,2.31-2.06,2.92-.87.13-.53-.89-.18-.29.05-2-.05-1.17-.33-1.61-1.44-.94-2.24.19-1.34,1.13-2.39,2.62-2L140,143l-.6-.1-1.84.57-1.93.15-1.13-.52-1.32-1.15-1-2.3.51-2.39,1-1.76,1.61-1.62-.43-.63-1.59,1-2.26.53-2-.15-.8-.42-2.35-2.35.85-1.48.62-.86.88.68.58.22,1-.18,1-.81.1-1.16.66-.57,1.26.06.29-.06,1.13.24,2,1.2,1.65,1.72.94,2.43V135l-.8,2-2-.14-1.18.47-.66,1.29.28,1.49,1.23,1.09,1.54,0,.9-.52.42-1.06.09-1.82,1.9.39,1.83,1.3.94,1.33.51,2.11-.19,2.09-.7,1.68-.62.57-1.08-.57-1-.19-1.09.39-.88,1.42.32,1.67,1.18.95,1.46.2,1.27-.77.43-1.32.42.09,1.27.85,1.35,2.26.15,2.33-.47,1.87-1,1.53-1.05.9-.65.24-.71-1-1.41-.85-1.12.34L139,159l.09,1.52,1.09.92,1.41.19,1.46-1.38,1.55,1.47.62,1.43.18,1.69-.32,2-.95,1.62L142,170.21l-1.6.58-.42-1.58-1-.86h-1.31l-.76.57-.61,1.53.61,1.48.94.52,1.47-.13.42.28.79,1.63.15,2.19-.47,2.2-1.56,1.82-1.41.81-1.74.63-1.27-.39.14-.38.14-1.62-.33-.72-.7-.58-.75-.19-.94.19-1,1.15.09,1.47,1,1.11,1.65.14.42,1.05.23,2.15-.6,1.91-1.66,1.64-1.68.86-1.65.09-1.65-.82.37-1.66-.32-1-.8-.72-1.09-.33-1.27.43-.65,1.14.33,1.69,1.08.8,1.51.19.28.48-.14,1.67-.52,1.29-1,1-2.46,1.53-.65,0-.62-1ZM122.5,54.79l.14-.28,1.65.19c3.41,11.83,8.44,36.14,18.86,43.43l-1.46,0-.65-.42-2.41-2.11L135.86,92C130.65,82.34,127,70.84,124,60.34Zm.28,40-.61,0,.52-.24,2.73-2.3.47.29-2,2Zm-.42,103.56-.56-1.43c11-5.46,17.86-12.82,22.86-24.28,6.67-17,2.2-38.43-12.27-49.84l.92-1.06c24.22,19.77,19.91,58.65-6.76,74.13Zm3.34-142-.24-1.38.2-.19,1.31.37c2.71,10.57,8.55,37.54,19.57,42.92-9.93.81-19.1-33-20.46-40.33Zm-1.65,131.24-.14-.62.85-.76h.9l.6.71,0,1.24-.67.48-.61-.19Zm1.28-88.27,0-1.34,5.41-1,1.93-.42,1.78,1-3.15,3.4-.18-1-.85-1-1.12-.1-1.29.38-.7,1.28.14,1.16.53.9,1.45.33v.3l-2.12,2.48-1.18.24-.32-.85,0-2.21Zm0-5.07.33-.24,1-.85,1,.52.19.38-2.08.24Zm2.44-39,.15-.11,1.41.11c2.27,10.79,7.25,28.59,13.88,37.7l1.26,1.34L146.82,96l2,1,.88.19.38.24-1.41.29-2.73-.9-1.36-1-2.64-2.63v-.39l-.09.15C135,83.46,130.64,67.42,128,56.37Zm.24,73.5.66-1,1-.44.51.82-.13.67-.58.57H129Zm2.49-71.83-.18-1.43,1.74.33c2,9.45,7.62,33.62,16,39.28l3.16,1,2-.33h.23l-1.46.91-.33-.1-2-.24-1.41-.48-3-1.91c-6.51-6.65-9.87-20.49-12.84-29.19Zm-1.46,100.36,0-2.39h2.17l.24.48,0,2H130Zm6-91.9-2.21-9.71,2,.39.14,1.47,2.12,10.71,2,7.27.95,2.57.8,2,3.39,7.12,1.55,2.29.23,1.2.61,1.85-.51-.23-1.84-2.54-2.21-4.3L140,80.94l-1.59-4.64Zm-3.47,114.5.56-.81,1,0,.56.87-.27.9-.94.33-.58-.28Zm4.61-120.29-.52-3.39,1.59.24c.75,10.57,3.2,22.27,9.37,31.11l-.47,1c-3.83-5.24-6.74-13.89-8.23-20.22Zm-.9,80.05-.09-1,.7-.71.75-.15,1,.48.09,1.14-.56.77-.9.24Zm2.82-81.73.24-1.19,1,.2.33.28v2.49l1,6.93,1.88,8.65,1.65,4.68,2.49,5.3.51,1.43-.56-.24L144,81.27l-1.88-4.59-1.75-6.54L140,68.89Zm-1,113.18v-1.29l1.27-.62.89.57-.09,1.43-1.09.59Zm2-21.89.11-.9.65-.68.76-.19.89.54.29.6-.2,1-.62.63h-1Zm1.47-88.9-.15-2.77.56-.28.72.43c.38,10.56,2,18.48,6.77,27.91l-.38.39L147,84.09l-1.83-3.92-1.75-5.31-1.51-6.3Zm-.38,52.92.38-.62.56-.53c12.85,9,24.37,23.32,30.1,38.09l-1.21.53c-7.33-15.23-14.8-25-27.81-36Zm-.51,46.35.23-.81.66-.43,1.13.39.13,1.29-.65.75-1-.09Zm-.24,71.65L140,228l.24-.35-.24-.43.33.15.94-1.34,2.49-1.67c6.34-2.25,9.63.65,15,1.91l-.24.19.32,1.15,1.27.63,1.7,0,.75-.19.76-.05-1,.81-1,.43-2.31-.29-1.51-.66-1.69-1.91-.42.14.09,1,.85,1.14-.33.19-2.07-1.24-1.27-1.82-.53,0,.11.67.8,1.72h-.38l-1.6-1.3-1.55-2.24-.51.24.69,1.87.34.61-.66-.19-1.8-1-.92-1.25-.49,0,.49,1.29.36.81L145,226.6l-2.07-1-.52.14.42.47,1.28.95-.58.15-1.36.62-1.46,1.49.23.57,1.94-1.63,1.32-.37,1.64-.1-1.46,1.29-.18.67.42.09,1.55-1.29,2.16-.42.94.27-.56.24-1.27.81-.62,1.1-.79-.09-2,.06-1.88.66-1.32,1.53-.56-.34Zm2.36-101.8.6-.67,1-1.15.56-.33c6.25,7.86,9.72,21.18,9.12,31.39l.49.15,3.8-3.73,3.76-3,5.64-3.87.42-.05,1.32,3.11-3.42,2-6.41,4.5-5.17,5-2.53,3.06L149,168.92l-.8,1c3.35-11.34,2.3-25.35-3.47-35.69Zm.13-18.35,1.28-1.63,4.6-4.4v.87l-.75,1.47-2.35,2.15-2,2Zm.28,87.32-.18-3h1.13l.79.25,1.23.67v.24l-2.88,2.19Zm-.09-4.31.18-4.11.24-.9,3.34,3.29-1.08,1-1.74.66Zm1.32-81.81,2.35-2.26.19-.33,1.32-1,.7,1-.47.28-3.06,2.92Zm-1.08,88.26.7-1.19,1.36-1.25,1.46-.95,2.07-.81,2.59-.72.9.19-.15,1.24-1.13.1-2.72.81-1.42.77-1.55,1.67.1.72,1.55,1.29,2.07.9,1.69.2,1.69.28.72.49-.11.85L151,205l-2.39-.42-1.17-.34-2.92-1.48Zm.42-13v-1.06l.32-.76,1.7-.86.85-.39,2.72-.66,2.83-.44,2,.24-.29,1.25-4.47.33-3.24,1.05-1.23,1.1.2.39,2.71,2.57,2.55,1.29,2,.73-.11,1.23-1.79-.42-2.44-1.1-2.95-2.39Zm-.1,15.14.24,0,2.77,1.86-.18.48-1.36,1.19-.76-.18Zm.57-18.21.94-3.44.28-.53,1.36,1.06.47,1.72-1.59.71Zm2-56.78-.61-1.32.61-.44c5.11,5.9,9.8,20.17,9.77,28l.53.19,4.32-3.69,5.12-3.58,1.32-.48.33.86-2.25,1.38L158,153.33l-4.13,4c.07-10-2-17-6.35-26ZM143.66,208l.71-.13.7.23,1.61,1v.33l-1.23,1.86-.89,1.19-.28-.62-.42-3.2Zm1.94-94.05-.15-.47,1.61-1.54.65-.72,1.18-.75,1.46-.77,1.74.47,1,.92.56,1.2-.41,1.28-4,3.59Zm-.76,65.47.38-1,.05-.27,1.12-2.49,1.94,3.44-1.61.52Zm1.46-53.71-.19-.63,1.75-1.38,1.92,2.69,3.58,6.58,2.54,6.74,1.27,5.3.84,2.35.43.19,1.83-1.29,4-2.63.51-.19.52.87.33,1.19L165,146l-2.73,1.58-6.49,4.87c-.7-8-3.27-15.26-6.82-22.41Zm.62-35,.23-2.09.62-1.05,1.91-1.4,2-.42,2,.52,1.65,1.67.8,1.72.05,3L155,94.66l-1.27,1.08,0-.66H153L150.81,95l1.52-.29,1.59-1.15.81-1.28.22-1.68-.61-2.11-1.78-1.38-1.5-.18-1.32.33-1.18,1.14-.43,1.91.33,1.29L149.88,93l1.83-.09.89-.77.29-1.1-.38-1.53-.85-.48h-1.07l-.81.87.34.62.56-.38.61-.35.66.44,0,1.23-.6.68-1.17.19-.71-.61-.52-1,.43-2,1.45-1,1.7.28,1.27,1.1.28,1.67-.52,1.82-1,.9-1.36.48-2-.24-1.18-.81Zm-.57,121.54-.28.06.09-.39,1.61-1.77,2.67-2.59,2-.62.51.35-1.5,1.23Zm.8-37-.14-1,.56-1,1.65-.81,3.2-.14L156,173l2,1-.6.9-.72-.33-3.9-.67-3,.15-1,.57.28,1.24,1.69,2.44,3.29,3.07-.23,1.14-.37.09-2.31-1.82-2.77-3.38ZM149.22,112l-1,1,.48,1.39,1,.43,1-.67.14-1.19-.74-.77Zm-.51,11,.09-.3h.42l4.52,4.74,5,6.31,4,6.07,1.32,2.57-5.37,3.49-1.88-6.93L154.59,133l-2.32-4.59-3-4.78Zm-.81,77.71-.13-1.69.36-.27,2-.67,1.37.1.09,2.09.42,2.06-.19.57-2.72-.42-.24,0-.8-.48Zm-.57,30.1.67-.66,1.54-.82h1.94l1.22.19-2.11,1.34.27.62,2.12-1.14,2.87-.1.75.38-.6.24-.94.92-.06.9-5.37-1.58Zm.71-41,.56-3.49,1.43-.43,2.35.1.18.33-.58,3.31-.45,1.8-1.61-.43-1.59-.9Zm.19-17.92,2.16-3.35.38-.24.29.3.92,1.71.15,1.19h-1.92Zm1.8-54,4.12-3.73.91,1.05-1.79,1.73-2.26,2ZM151.24,70l1.46-1.82,1-1,3.43-2.26,1.63-.61v-.68l-.6-.86-1-4,.38-3.25,1.12-2.87,1-1.72,2.39-2,.85-.49.19,0-.57,1.64-1.87,2.24-1.14,2.76-.61,3,.14,2.67.89,4.3-1.18.44-2.81,1.77-2.35,2.3,0,.57,1.18,1.58L157,73.48l2.26,1.14.84.53c-3.14,4.61-2.64,12.25,2.73,15.35l-1.79-1-2.21-2-1.09-1.92-.83-3.29.32-3.77,1.22-2.88-.22-.57-.81.11-2.77-1.34-1.38-1.16-.83-.86Zm.38-4.54.27-2.68.29-.29,0,4.83-.38.57Zm.14,11,0-3.92.47.29v4.82Zm0,43,.53-.72,3.76-3.2.88.09.95.19,1.6,1.25,1,1.53.1,1.61-4.05,3.59-.47.2Zm1.32-53-.05-6.93.67-1.33-.09,3.86.09,3.64,0,.33Zm-1.59,100.6v-.33l2.53-2.92.53,2.68.27,1.63-1.88-.34Zm-.38,43.73-.14-.38,6.82-5.35h-.06l3.82-2.87.76-.24.74.44.2.57,1.5,1.71,1,1.39.28.87-1.13-1.2-.65-1.1-2.26-2.06-.52.24,1.17,1.34,2.08,2.91,0,.2-3.48-3.68-.47.09.1.54,1.55,1.76L164,208.2l-.24.44-1.27-1.72-2.54-2.25-.18-.2-.38.06.14.38,1.42,1.67,2.15,2.82,0,.82-2.07-2.77-2.16-1.92-.43,0,.1.34,3.9,4.88-.13.85-.38-.72-3.39-3.47-.52.14,2.07,2.63,1.69,2.43-.23.53-1.65-2.06-2.64-2.63-.47.19,1.52,1.63,2.59,3.87-.95-.48-1.88-.81-2-.1-1.09.58.09.44,2.26-.35,1.69.63.85.85-1.69,1L157,217.67l.05.91.37.14.75-1.47,1.09-.92,1.22-.33-.48,1.67.06,1.34.27.28.25-.09.28-1.77.7-1.43,1.08-1.11,1.08-.57,1.78-.23.62.29.2.51v.29l-.76,1.2-.38-.09.52-1.63-.56-.15-.94,1.49.56,1.33-.56,1.25L162.67,220l-2.21.77-1.64-.06-2.26-.9L155,218.35l-1.93-3.12ZM153,78.69l.18-4.82.53.33.14,5L153.74,81l-.44-.68Zm-1.46,99,.9-1.91.65-.92,2.12.2,1.7.62-2.41,4.73-.42-.09ZM154.39,62.2l.09-3.68.34-2.24h.27L155,65l-.27.28-.2-.18.06-.57Zm.38,8.23-.18-.77L156.32,68l3.06-1.87,1.18-.15.65-.33c-1.92-3.67-2.33-10,.61-13.29l.09,3.07L162.2,58l1.36,3.82,2.21,2.59-.24.81L164,63.92l-1-1.58-.47-1.62-.8-1.91-.61.33.23,2.25.8,2.48,1.6,2.73,1.74,1.53.28.66a14.52,14.52,0,0,0-9,1.15l0,.49,3.48.81,2.64.14,2.53-.2v.06l-2.39,1.91L162,74.53l-1.14,4,.29,1.9.38.39.47-.24.42-2.15,1.08-2,2.12-1.91,0,.77-1.23,1.53-1.36,2.81-.9,3.82.2,3.16.32,2.39-1.88-1.63-1-1.95L159,80.94l.25-1.92.93-2.43,1.23-1.53.09-.68-.8-.09-1.88-.81-1.83-1Zm-.18,5.35.27-.86.29.14.09,1.71-.09,6.56-.33-.44Zm.83,41.91-.51,0V118Zm.43-57.79.15-3.62.18-1.88.09,6.12V64.4L156,64ZM155.9,118l-.9,1.14.19.87.94.9h1.22L158,120l-.2-1.2-.83-.81Zm.1-40.73.23-1.43.28,1.63-.38,1.86Zm.09,7.28v-.87h.23l.09,1.33Zm-1,79.42.2-1.24.13-.48,1.27-.72,1.93.1,1.37.33,2.87,1.15,2,1.62.71,1-.71.62h-.42l-2.07-1.57-2.17-1.15-1.6-.49-1.65.35-.56.85.48,2.49,1.22,2.34,1.69,2.53-1,1.05-1.5-2-1.46-3.21Zm2-110.59.18-.52.2.18Zm-1.93,142.89.32-5.77.58.42,2.26,3.06.47,1.1-2,1.87-1.36,1.1ZM157.26,64l-.18-.61.42.28ZM155.38,200l.57-.11,1.64,1,2.12.68.42.52-2.36,1.91L156,205.3l-.38-1.78-.15-1.81Zm.52-12.24,1.78-5.65.38-1,.76-1.34.89,1.91,1.18,3.49L157,187.52Zm1.18-62.65v-.38l1.36-1.35,2.63-2,.57,1.29-3.72,3.14Zm.75,66.56-1.74-2.62,3.24-1.81,1.23-.44-.43,1.67-.66,4-.14,1.29Zm-2.21,40.92.65-.9.56-.3,2.35-.8,1.43,0-.43.48.14.48.38.15,1.69-1.39.79-.71,1.14.09.32.48.67.48.33-.34-.81-1.81.34-2.25-.11-2.53-.7-2-.94-1.19h.81l1.68,1.81.76,1.29.38,3-.14,2-.56,1.39-1.47,1.77-2,1.15-3.26.43-2.48-.3Zm1.12-33.27-.42-.57,3-2.58.18.67.24,3.88Zm1.18-38.9-.42-.14,2.86-2.3.58,1.34-.05,1.73Zm.7-33.5v-.38l4-3.21,1.56.2,1.41,1.23.85,1.64-.29.14.33.23V128l-4.24,3.64-2.58-3.44Zm-.23,40.91.09-.62L161,165l1.42.77,1.41,1.49-.75.75-2.26,2.49-.61.34Zm2.26,55.06-1.65-1.2.38-.24,1.56,0,.65.58v1.19Zm-.8,4.11-.7-.58.28-.19h.7l1.55-.86,1-1.38-.1-2-.51-.81.42-.24.81.92.41,1,.44,1.67-.2,1.44-.61.75-.89.33-1.74.15Zm-.2-47.66.15-.37,3.16-.82.13.05,1.55-.24.06.09-3.16,5.65-.19-.3Zm.24-1.53.52-.9,1.7-2.54,2.86-3,.38,3.11,0,2.2-3.67.9Zm2.26-52.13-.65,1,.47,1.39.94.43h.56l.89-1-.09-1.11-1.13-.81Zm.47,32.59-1.32-1.1,3.2-2.19.29.09-.52,3.83ZM163,132.5l2.17-1.87,1.65-1.38.84,1.05-.43.63-3.48,2.86Zm-.65,65.09.13-4.1.34-2.2,1-4.35.23-1.11h.15l.47-1.23,2-3.88,2.87-3.67,3-2.58.1,1.8-.14.15.09,2.73,0,13.48L163,200l-.29-.1Zm.65,15.78h-.24l.24-.19.8-.05Zm-.09-12,1-.77.76-.72,1.31-.9,6.45-5,.27,1.28-.14,9.09-.13,6a12.1,12.1,0,0,0-8.1-8.12ZM164.5,135l.05-.48,4.09-3.25,1.23.24,1.54,1.34.57,1.34.19.95-.47,1-2.35,2-1.93,1.53-1-1.91Zm-1,76.8.05-.67.51-.44,1-.37,1.89.1,1.41.51,1,.87-.46,1.1-.52.68-3-1.55.22-.66,0-.77-.47-.09-.7,1.58Zm2.82-6.59-1.7-2.11.62.24,2.11,3.11Zm-.38-42.73-.6-4.69v-.33l.56-2.81.57-.72,1.64-.09,2.54,1.23,2.11,1.62-.09,1.82-3.15-2.19-1.74-.48-.7.62-.43,2.73.23,1.71,1,3.06-.53.52-.69.3Zm.62-73V71.57l.38-15.68,5.78-4,.1,2.1-3.21,2.2-.74,1.24-.11,3.3.06,8.51-.06,4.4-.28,35.16-.09.72L167,109l-.66-.71.15-8.13-.09-7,.14-.72-.11-1.19Zm-2.07,130.14.85-1.15.18-.33.57-.24,1.36,1.38.84,1.25.44,2.33-.62.86-.33.15-.75-1.62-1.36-1.67Zm.24-10.51.27-.63.43-.38.57-.19-.29,1.05.09.33-.75.1Zm1.4-36.52-.19-1.71,4.89.27.43.15-.61.48-4.09,3.91-.38-1.71,0-1Zm1.08-2.63-.6-.19,1.74-1.48,4.14-2.63-.34,4.39Zm-.89,39.57.33-.42-.09-1.25,1.79.15,1.12.62v1.05l-.27.81-1.51-.66Zm1.79-75.6-.7.72.42,1.62.84.38.76-.33.51-.72v-1l-.94-.71Zm-1.79,83,1.18-2.06.23-.66,1.65,1.53,1.27,2,0,1.58-.33.9-.94.68-.67-1.29Zm2.21-53.43-.89-3.26,1.74-1.14,1.59-.71,1.65,1.48.1,1.24Zm-1.36,53.19,0,.68.14.13,1.09-.75.13-1.2-.42-.11Zm1.5-74.89-.56-1.19,3.86-3.16.65,1.06-3.06,2.86Zm1-69.15L170,57.23l2.77-2.06v2.45l-.23,0-1.45,1.39c0,17.2.21,34.72-.06,51.89l-1.5-.71c-.07-9.3.12-18.6.13-27.91Zm-1,80.24.94-.39.52-.33,2.64-.95,0,2.72-.65.77-1-.63Zm1.56-8.12-.75-1.86,3.29-2.78v2.06l-.94,1.14.1.81.84,1,0,1.82-1,.77ZM169,214.14l-.13-.15.51-.18.61-1.44.71.7.85,1.44.13,1.68-.37.71Zm.61-3.31.71-1,.09-.57.47.24,1,1.58.09,1.95Zm2.83-145V59.24l.28-.1,0,12.81.06,1-.15,1.1.05,11.29-.19-.2V82.75l-.18-1.34.14-.47-.14-3.3.14-1.1-.09-1.92.13-1Zm0,21.51.28-1.91-.05,2,.05,9.51-.23-.52-.05-5.26.14-1.48Zm.23,13.33-.23-1.1.32-.09Zm-.14-1.38.09-.72.1.81Zm0,11.47,0-4.69.19-.66-.1,6.21Zm0-5.46v-1l.29.2-.15.85Zm0-1.62.09-2.68.14,1,0,1.92Zm0,45.6-.14-.58.27-.09ZM34.54,37.64H172.82v252.1H34.54ZM33.61,290.7H173.77v-254H33.61Z"
            />
            <path class="cls-6" d="M63.28,273.64l-.05.66.43.29,1,.19,4.25,1.05,2.35.33,1.5.29,4.8.44,4.23.52h1.69l2.07.24,7.53.24,10.62-.19,3.29-.14,8-.87,1.83-.42,5.17-.87,2.36-.57.61-.38L122,271c-11.65,3.21-22,2.82-33.87,2.68l-.8.09-.33-.24-.5-.05-.44.14-.94,0-.56-.15-2,.09-.84-.18-1.7-.06L77.9,273l-1.36-.24-1.32-.09-9-1.58-.67-.13-.27,0"
            />
            <path class="cls-6" d="M85.86,52.27,83.27,53l.09.44,2.83,3.33,1.17-.13,2.78-.53.33.15.33-.34,2.06-.14,1.32-.48,6.64-.92,3.71-.23,6.4,0,5.21-.15.82.19h3.18l3.67.14,1.52.24,3.48.35,8.93,1.38,4.84,1,3.2-4.21-.24-.35-5.12-1-5.59-1-8.14-.86-2.35-.19c-9.37-.35-20.58-.74-29.83,1M145,54.36l-.38.48h.27l.25-.48Z"
            />
            <path class="cls-6" d="M56,226.46l-.47.34V227l2.78,1.53c8.22-6.48,12.93-13,19.09-21.23l4.38-6.4,1.32-2,3.19-5.12,2.17-3.34,2.78-5.84,1.63-4.2L94,177.91l-2.26-.06-.38.15-3.06,6.45-4.88,8.22-2.5,3.68c-5.36,8.35-11.19,16.5-18.25,23.47m4.23,1.43-7.71,7.94,1,.72,5-.15,3.2.24,1.6.33,1.55,0,5.88-7.16,6.5-8.13,4.5-5.4,3-4,4.65-7.07,4.38-7.7,1.41-3.53,1.36-4.87.34-.38c3.45,17.42,13,33,25,45.73l7.1-5.5.24-.42-6.07-7.51-1.79-2.78-5.74-9.21-4.56-7.94-2.91-6.6-1-2.58L111.91,178l-.36-.09-4.61.05-1.89.13,1.27,2.26,1.93,1.62,1,.15.75-.35.46-.76,0-.66.28-.35.1.35.19,1.62-.33.66-1.41.87,2.26,2.62.94,1.77.23,2-.56,4c-.06,2.09,1.77,6.9,4.13,4.35l.11,1.14-.29.72.09.33,2.91,2.59,1.43,2.48.22,1.72-.22.34.41,2.63,1.55,3.29,1.28,1.1,1.21.62.76-.34.42-1h.34l.13,1.82-.37.67.09.38,1.42.81,2.35,2.15.89,1.4,0,1.62-.71.47-.66.06-.6-.48,1-1.16v-1.19l-.67-.85-2-1.63-1.74-.91-1.23-.81-1.5-1.34-1.27-1.54L120,209l-.52-.06-1.5-1.19,1.36-.09L120,207l0-.61-.89-2.3L117.47,202l-.8-.81-2.31-1.1L113.14,199l-.89-2.18-.43-4-1.41-.46-1.08-1.49,0-.57,1.12.76h1.23l.38-.67-.15-1.72-.89-1.82L108.91,184l-1.36-1.1L106,181.44l-2-3.39-.56-.05-.15.39-1.59,2.39-2.44,1.76L96,185.07l-2.44,2.39-.85,2.45.47,1.57,1,.86h1.5l.95-.39-.37.87L94.8,194l-1.89-.24-.28.2-.13,2.57-.29,2.87-.47,1.15-1.09,1.81L89,203.66l-3.29,1.73-1.9.71-.78.54-1.28,1.62.1,1.19.37.67,1,.62.43.09,1.7-.15-.25.35-1.74,1.29H82.15l-.94-.39-1-1.28-.27.18-1.32,6.93L78,219.29l-1.32,1.19-2.54,1.3-2.31.52-2.07.57-1.31.77L67.71,225l.42,1.44,1.5,1,1.5.35c-2,1.2-5.26.78-4.5-2.35l.41-1.24,1.6-1.34,2.31-.77,1.88-.57,1.22-.52-.56-.67L72.92,219l.19-1.63.94-1.37.32,2,1.14,1.19,1.18-.05.79-.75,1-2.39.09-1.87.65-3.44,1.88-3.26,2.26-1.91L86.62,204l1.21-.38.2-.48-1.18-.86-.66-1.53.14-1.34.76-1.14.56,1.71,1.36.92,1.46-.15.85-.9.75-2.26v-3l-.15-1.62-.47-1.3.29-2.19,1-1.92L96.39,184l1.5-1.52-.78-.81-.81-1.44v-1l.29,0,.7,1,1.45,1h1.65l.76-.85.94-1.82-.19-.57-6.92.09c-5.23,13.33-13.48,25.06-22,36.37Zm32.89-15.72L97,209.16l.44.62,4.93.15,3.86,0,.18-.68-4-6.92-.66-.15Zm14-27.62-1.12.14.51,2.67,1.42,4.59,3.24,7.75,3.62,6.87,2,3.31L130.26,214l4.37,5.75,1.7,2,1.6-1.47c-5.12-4.73-10.51-14.18-14.17-20.07-3.9-7-7.28-14.38-8.83-22.28Z"
            />
            <path class="cls-6" d="M70.15,106.84l-.05.1,8.76,11.32,3.8,6L86.24,131l4.47,10.23,1.64,5.3.38,1.87.46.86,3-.1.06-.48L94,141l-2.08-5.44-3.53-7.37-3.09-5.5-4.2-6.59-1.92-2.82-1.64-2.06-1.32-1.76-2.73-2.82-.8-.95-.56-.24-.62.13m4.89-3.67-3.15,2.77.34,1.1,1.5,1.38,3.53,4.45,3.2,4.21,1.5,2.33,3.1,4.65,4.52,8.64,3.29,7.32,3,10.42,5.64.09.19-.81-.76-1.91-1.27-1-.89.81L99,148l-.33-.57.28-1.64.76-1,.47-.68-2-3.15-2.68-4.92.18-2.06,0-3.34-.11-.81-.36-2.06-.82-1.34-.88-.72-1.27.2-.71,1.38L91,126l.09-.9.29-1-2.21-1.44-2.4-2.33-1.32-2.63-.38-4.3-.74-2.21-1.14-1-.84,0-.81.77-.36-.39.09-1.28-1.7-.81-1.45-1.25-.81-1.86.29-1,.61-.52,1.18-.14.89.42.52.77-.71-.2-1,0-.69.81.74,1.62,1.46,1.16,2.5.71,1.78,1.57.9,1.91,0,1.73.43.86,1.55.19,1,.71.15.44-1.22.39L87,118l.58,1.82c5.23,6.35,7.63,2.22,9.07,12.9l1,.15.76.37.51,1.06-.51-.23-1,.18-.94,1.29,1.14,3.25,3.2,5.07,1,1,1.55,1.38,1,2.83.88.13.53-.13,1.07-1.93,6.64-6.82,1.37-2.3.27-1.58-.42-1-.75-.61h-1.32l-1.7.85-.42,0,2.35-1.86h1l1,.28.28-.24-.14-1.58.28-1.82,1.08-3.23,1.32-1.35,1.88-1.24,3.24-1.86,2.73-2.15,1.18-1.82.09-1.44-.62-.77-.5-.13-1.94-.05,1.66-.81,1.64.24.71.66.65.29.89-4.63,1.14-2.92,1.13-1.38,1.46-.72,3.15-1,1.45-.86.14-.53h.85l1-1,.38-.77V102l-.09-.91-1.37-.75.61-.39,1.84-.24,1.08.76.1,1.44,0,.19-.61,1.77-1.6,1.53-1.5.53-2.5,1.23.47,1,.06.81-.62,1.82-.8.72-.23-1.77L134,109l-.94-.1-1.18.91-1.7,2.58-1.55,5.11-1.27,2.77-.94,1-5.77,3.4.51.44,1,1.29,0,1.29-.42,1-.52-1.39-1-.76-1.69,0-1.32.86-.85,1.53-.46,3-.24,2.3.33,1.52-.28,2.34-1.7,3-1.88,1.77-2.35,1.82.1.28,1.32.33.78,1v1.05l-.45.48-.24-.72-1.08-1-1.32.09-1.27.78-1.18,1.85.24.39,5-.13,1.36-.2c2.25-8.11,8.59-16.9,13.51-23.51l5.68-7,2.68-3.49,8.52-9.89,3.62-3.68,1.75-2.15-.34-.57-2.73.15-.37,0L142,98.9,137,98.52l-5.65,6-3.25,4-4.42,5.15-4.38,5.51L111.4,131l-3.15,5.45-2.58,5.59-.9,2,0,.44C100.51,127.64,90.59,113,80,99.62L79,100Zm26.16,15.82-.47.29.09.61.85,1.1,2.26,4.31.83,1.15,4-5.12,1-1.58-.2-.38-.27-.29Zm13.22,26.62-1.79,4.3.09.53.85,0,.75.24.57-.33.6-1.77,1.08-2.59,4.33-7.3,4.9-7.41,2.73-3.73,5.36-7.41,8.75-10,7.15-7.26.65-.87-1.5-.9-.52-.15-1.27,1-7.11,7.65-2.68,3-1,1.44a248.47,248.47,0,0,0-18.29,24.42Z"
            />
            <path class="cls-3" d="M54.48,89.9c3.39-2.65,5-5.58,7.51-9.07A73.42,73.42,0,0,0,70.59,65c1.73-4.19,2.68-8.69,1.59-13.2-2.94-9-13.86-9.46-17.7-1-3.2-7.33-12.56-8.41-16.67-1.34-2.39,3.67-1.54,10-.06,13.89a73.68,73.68,0,0,0,6.9,14c2.42,3.29,5.49,8.73,8.58,11.41"
            />
            <path class="cls-3" d="M152.39,237.18c-3.39,2.65-5,5.58-7.51,9.08a73.11,73.11,0,0,0-8.6,15.78c-1.73,4.19-2.68,8.7-1.59,13.2,2.95,9,13.86,9.46,17.7,1,3.2,7.33,12.56,8.41,16.68,1.34,2.38-3.67,1.53-10,.05-13.89a73.68,73.68,0,0,0-6.9-14c-2.42-3.29-5.49-8.73-8.58-11.41"
            />
            <path d="M171.77,38.68v250H35.61v-250H171.77m2-2H33.61v254H173.77v-254Z" />
        </g>
    </g>
</svg>
