<svg xmlns="http://www.w3.org/2000/svg" viewBox="0 0 208 326">
    <defs>
        <style>
            .cls-1 {
                fill: #fff;
            }

            .cls-2 {
                fill: #6f7072;
            }

            .cls-3 {
                fill: #1d1d1b;
            }

            .cls-4 {
                fill: #facb1b;
            }

            .cls-5 {
                fill: #f8261b;
            }

            .cls-6 {
                fill: #1c1c1c;
            }
        </style>
    </defs>
    <title>JS-us-2c</title>
    <g id="Calque_2" data-name="Calque 2">
        <g id="FR_-_EN" data-name="FR - EN">
            <path class="cls-1" d="M14.83,325A13.84,13.84,0,0,1,1,311.18V14.82A13.84,13.84,0,0,1,14.83,1H193.17A13.84,13.84,0,0,1,207,14.82V311.18A13.84,13.84,0,0,1,193.17,325Z"
            />
            <path class="cls-2" d="M193.17,2A12.84,12.84,0,0,1,206,14.82V311.18A12.84,12.84,0,0,1,193.17,324H14.83A12.84,12.84,0,0,1,2,311.18V14.82A12.84,12.84,0,0,1,14.83,2H193.17m0-2H14.83A14.83,14.83,0,0,0,0,14.82V311.18A14.82,14.82,0,0,0,14.83,326H193.17A14.83,14.83,0,0,0,208,311.18V14.82A14.83,14.83,0,0,0,193.17,0Z"
            />
            <path class="cls-3" d="M21.37,74.32l1.27-.06,1.22.08,1.25.12.39.07a23.88,23.88,0,0,1-3-6.29l-.07-.33,0-.48,0-.14,0,0,.09,0,.07.1a3.76,3.76,0,0,0,3.88,2.48c10.82-2.11-1.36-17.15-5.1-20.43C18,52.83,8.73,63,13.07,68.42a4.56,4.56,0,0,0,4.82,1.21l.73-.33.33-.24.28-.24.23-.26.19-.27.31-.53.19-.37.06-.1.1,0,0,0,0,.14,0,.48-.07.33a23.13,23.13,0,0,1-3,6.29l.4-.07,1.24-.12,1.22-.08"
            />
            <path class="cls-3" d="M186.81,74.32l1.27-.06,1.22.08,1.24.12.4.07a23.88,23.88,0,0,1-3-6.29l-.07-.33,0-.48,0-.14,0,0,.09,0,.07.1a3.76,3.76,0,0,0,3.88,2.48c10.82-2.11-1.36-17.15-5.1-20.43-3.35,3.39-12.64,13.57-8.31,19a4.58,4.58,0,0,0,4.83,1.21l.73-.33.32-.24.29-.24.23-.26.19-.27.31-.53.19-.37.06-.1.1,0,0,0,0,.14,0,.48-.07.33a23.73,23.73,0,0,1-3,6.29l.4-.07,1.24-.12,1.22-.08"
            />
            <path class="cls-3" d="M186.86,251.35l-1.27.05-1.22-.07-1.25-.12-.4-.07a23.36,23.36,0,0,1,3,6.28l.07.33,0,.48,0,.15,0,0-.09,0-.08-.1a3.74,3.74,0,0,0-3.88-2.48c-10.82,2.11,1.37,17.15,5.11,20.43,3.34-3.4,12.63-13.58,8.3-19a4.6,4.6,0,0,0-4.82-1.22l-.73.34-.33.24-.28.23-.24.27-.19.27-.3.52-.19.38-.07.1-.1,0v0l0-.15,0-.48.07-.33a23.21,23.21,0,0,1,3-6.28l-.4.07-1.25.12-1.22.07"
            />
            <path class="cls-3" d="M21.42,251.35l-1.27.05-1.22-.07-1.25-.12-.4-.07a23.36,23.36,0,0,1,3,6.28l.08.33,0,.48,0,.15,0,0-.09,0-.07-.1a3.76,3.76,0,0,0-3.89-2.48c-10.82,2.11,1.37,17.15,5.11,20.43,3.34-3.4,12.63-13.58,8.3-19A4.59,4.59,0,0,0,24.9,256l-.73.34-.33.24-.28.23-.24.27-.18.27-.31.52-.19.38-.07.1-.09,0,0,0,0-.15,0-.48.07-.33a23.21,23.21,0,0,1,3-6.28l-.4.07-1.25.12-1.22.07"
            />
            <path class="cls-3" d="M15,34.21,15,33.73V29.1H11.47C10.38,36.18,13,42.84,20.68,42.85A8.76,8.76,0,0,0,27,39.56l.24-.38.29-.37L28,38l.38-.91.27-.85.09-.48.05-.44.09-2.19V11.69h2.64V7.78H22v3.91h3.67V25.13l-.18,8.6-.05.91-.09.71-.29.77-.13.29-.29.43-.29.48a5.55,5.55,0,0,1-2.91,1.86A5.25,5.25,0,0,1,15,34.4"
            />
            <path class="cls-3" d="M180.44,34.21l-.06-.48V29.1h-3.47c-1.1,7.08,1.51,13.74,9.21,13.75a8.78,8.78,0,0,0,6.35-3.29l.24-.38.28-.37.47-.78.38-.91.28-.85.09-.48,0-.44.09-2.19V11.69H197V7.78h-9.6v3.91h3.67V25.13l-.18,8.6-.06.91-.09.71-.29.77-.12.29-.29.43-.29.48a5.55,5.55,0,0,1-2.91,1.86,5.25,5.25,0,0,1-6.39-4.78"
            />
            <path class="cls-3" d="M193.23,289.67l.05.48v4.64h3.47c1.1-7.08-1.51-13.75-9.21-13.76a8.79,8.79,0,0,0-6.35,3.3l-.23.38-.29.37-.47.77-.38.92-.28.85-.09.48,0,.43-.09,2.19v21.47h-2.64v3.92h9.6v-3.92H182.6V298.76l.18-8.61.06-.9.09-.72.29-.77.13-.29.28-.42.29-.48a5.58,5.58,0,0,1,2.92-1.86,5.25,5.25,0,0,1,6.39,4.78"
            />
            <path class="cls-3" d="M27.79,289.67l.05.48v4.64h3.47C32.41,287.71,29.8,281,22.1,281a8.79,8.79,0,0,0-6.35,3.3l-.23.38-.29.37-.47.77-.38.92-.27.85-.09.48-.06.43-.09,2.19v21.47H11.23v3.92h9.61v-3.92H17.16V298.76l.19-8.61,0-.9.09-.72.29-.77.13-.29.29-.42.28-.48a5.58,5.58,0,0,1,2.92-1.86,5.25,5.25,0,0,1,6.39,4.78"
            />
            <path class="cls-4" d="M47.52,280.94l.34-.1L49,279.6l1.37-3,.28-3.45-.33-2.82-1-3-3.49-6.3,1.41-1.73.71-.67L49,257.47l0-.48-.84-.81-1.79-2.24-.28-.11.09-.52.94-1.1,1.74-3.29,1.28-4.12.24-3.05L50,239.31l-1.18-2.1-1.32-1.3-1-.85L45,234.67l-2.27.33-1.64.81L39.25,238l-.94,1.82-.52,3.3.9,4.44,2.82,5.79-.29.76-3.15,3.49,3,3.49c-2.91,4.83-5.55,10.28-3.66,16,1.69,3.71,4.45,6.27,8.69,4.78m-5-6.88-.38-2.39.47-3.21,1.32-3.1.76-.95.27-.73,1.18,2.21,2,4.83.27,2.19L46.4,276l-1.32,1.25-.8.24,0,.19-1.46-.3-1.09-.95Zm.14-32.21c2-9.64,10.14-2.1,2.3,7.31l-.18-.19-.94-2.68-.76-3.53Zm1.78,14.62V257l.71-.72.52.53-.56.91Z"
            />
            <path class="cls-4" d="M34.49,187.54l.19,3.35v3l.24,1.29-.19,1,2.44,2.49,4.38,4.1,3.53,3,2.58,1.91.15-.9-.24-2.44-.7-3-.43-2.44c-2.64-7.76-5.89-16.18-11.89-21.93.37,2.77-.16,6.85.09,9.65m.28,5.22.15-.87.56-.44,2-5.77.66-1.34,1,1.72.66,1.35-1.55,2.09-3.06,5.11.29.3.94-.2,5.65-3,.36.53.9,2.53-1.46.19-3.53.52-2.25.62.33.53,6.82,2,1.6.05.41.9.25,1.16.28,2-9.36-5.21L35.25,196l-.09-2.48Zm-.34-32.46-.09,2.77,5.41,5,4.24,4.78,2.44,3.4,4.34,7.21,4.92,11.52,2.55,8.12L59,205l.2,1.53.71,1.87,8.17-17.89.66-1.76-2.25-1.62-.7.57L61,197.58c-3.64-13.44-14.26-32.49-26.35-39.71l-.13.72Zm5.09-40.19H39l.47,2.63.85,4.06,1.36,4.82L45,138l0,.47,2.35,5.11,1.75,3L54,153.81l.14.62.28.14,1.32,1.91.85,1.05,1,1.44,2,2.29,2.86,3.11.29.53,6.11,5.92,3.48,3,1,.72,2.82,2.15,9.59,6.41,3.15,1.42,1.28.73,1.41.52.19.48H91.6l.37.43.14,1.53L92,189.66l0,4-.2,2.54.15.28,3.25,1,2.54.42,3.81-.24,1.65-.38,2.59-1.24c4.81,3.59,10.9,3.75,15.41-.58l3,1.82L128,198.4l2.67,0,1.94-.29,1.36-.7c5.64-3.26,2.11-2,8.46-3.73a51,51,0,0,0,18.16,9.36c2.86.43,6.9,2.18,9.7,2.35-3-13.49-9.24-25.9-17.27-37A141.07,141.07,0,0,0,138,153c-6.06-4.24-14.64-10.9-21.73-13.14l.13-3.55-.18-.47.09-1.29v-5l-.13-.19-.91-.33-1-.14-1.88-.57-1.88-.06-.29-.24-.18.2-1.28-.2-3,.44-2.39,1-1.17.23-1.18-1-4.23-1.24-3.49,0-1.59.35-2.17.94-2.83,1.58c-3.77-3.25-9.48-3.27-13.78-1.14l-2.21,2.06-.7-.06-2.16.54-1.08.09a63.8,63.8,0,0,0-26.63-12.37Zm3,2.52.24-.75c1.63.57,3.56.85,4.94,2l-.47.81-.29,2.15.43,3.21,1.45,3.2,1,1.33,2.83,2.15,1.88.63a7.85,7.85,0,0,0,7.9,11.76l-.32.48-.58,2.15.14,1.58.71,2.09,1,1.73,2.79,2.34,2.26.81,2.48-.28c-1.39,6.05,5.11,12.71,11.07,9.46l.27,2.14,1.18,3.4,1.55,1.82,2.06,1.67,2.17,1.1,1.74.28.29,1.49.36.48-.22,1.23-.52.11-2.68-1.4-2.4-1.32-8.09-5.37-5.51-4.43L62.53,160l-1.23-1.43-1.08-1.43-1.07-1.11L58,154.14l-3.85-5.68-3.67-6.27-3.34-6.65-3-7.68-.33-1.11-.29-.29.24-.28-1-4.2Zm6.68,4.54.14-1.19.47-1.47,1.13.27,2,.92.62.19,1.37.58,1.54.94.67.15,1.54,1,.19.24-2.44.24-.66-1L55,126h-.8l-.58.53.15.57,2.4,4.49.71.38,1.08-.33-.38-1.14-.09-.68,3-.42.95-.39,3,1.82,1,.9-.92-.09-1.7.52-1.32.24-1,.14c-4.6,1-7.77,1.52-10.26-3.2Zm7.43,14.93-.23-2,.85-1.82,1.92-1.43L62,134.88l4.36-1.14.67-.53.51.14,2.64,2.58v.34l-1.32.37-1,.24-5.5,1.78-.47-.77-.94-1.1-.76-.09-.89.52.13.58,1,1.95,2.45,3.82,1,0,.66-.54-.89-1.95-.2-.62,7.25-2.3,1.07-.53,1.32,1.2,1.27,1.91c-4.52.9-12.66,7.66-16.55,2.73Zm7.73,9.17.22-.2L65,149l1.27-1.39,1.92-1.44,7.39-4,1.31,1.72-7.29,5.51-1-1.3-.9-.48-1.22,1,.8,1.49,3.43,4.54h.51l1-.68v-.81l-1.18-1.71.76-.86,6.2-4.83.33.47,1.12,1.25c-3.92,3.74-9.71,14.17-14.62,5.11Zm6.06-15.73-.29-2.43h.47l-.23.66.23,1.06.05,1.33-.32-.28Zm3.29,26.81.15-1.67.13-.81,1.64-3.2,4.71-6.17.43.2,1.5,2.06-3.44,5.92L78,159.07l-1.64-1.44-.53,0-.78,1,.18.76,4.8,4.5.56.09.43-.53.13-1.1-1.45-1.48,3.71-6.78h.2l1.12,2.1.51,1.63c-2,4.74-5.6,12.41-10.67,5.72Zm-.14-23.08.29-1,.09,1.39Zm.32-1.91-.18-.1.15-.24Zm-.18-1,0-2.58,1-.77,1.61-.57.42.06-.57.33-1.08.24-.94.86-.24.9v1.68Zm2.12,5.46.29-.92,2.53-2.72.14-1.38-.47-1.67.75.33,1.61,1.52,1.21,2.3,0,2.15-.79,1.91.09.76-.06.82-2.91-.1-2.15-2.19Zm1-9.42a8.62,8.62,0,0,1,7,.34l.1.95L84,136.37l-.13.57v-.48l-.1-1.05-.09-2.59-.28-.81-1.17-.48-.94-.33L79,131.06l-1.21.47Zm2.26,14.38-.47-.9,6.64-.09,4,0,14,.05.2-.05,3.53.09,8.32-.09.65.18,1.5,8.14.62,2.34,1.79,6.25,4.18,9.56.7,1.15,1.51,2.91,1.32,2,1.51,1.76,1.13,1.86-1.79.06h-6.3l-4.61-.06-7.53.06-.33,0-7.29-.14-9,0-.51.1-.47-.34-1-5.83-.39-.66.11-.29-.8-4.1-1.52-5.75a80.69,80.69,0,0,0-8-16Zm4.52-5.25.23-1.63v2.25Zm1.17,28.43-.19-2.24,1.14-4.45.85-1.77,1,2,.89,3.38-.38.25L88,168.77l-1.64-1.3-.42.44.09,1.33.56.91,3.58,3.11.56,2.72h-.56l-1.64-.86-2-1.81-1.18-2.11ZM85,144l.33-.38,1.46-2.48.09-4-.2-1.29.2-4.74.33-.09-.29.67.14,2.62-.18,1.49.37,4.72.52,1.3,1.27,1.33h.52c.67-3.57-.46-7.27.14-10.79l.71-.57,2.53-.72,3-.24.94.09,1.88.33.95.67,0,2.26.09,5.73.19,3.11.47.18,1.22-1.14.71-1.39.14-2.43-.14-6.45.18-.1c.59,3.67-1.21,9,2.26,11.61l.47-.24.1-2.19-.33-4.3.09-4.07.29-.48,1.17-.38.33,0-1.21.37-.29.59v1.09l.19,5.12.1,4.87H99.55c.09-3.69,0-8.31-.29-11.94l-2-.63-1.41-.14-2.73.29-2.77.66-.53.48v3.2l.24,4.21.19,4.06-1.08.15Zm6-2.44,1-2.24,1.7-1.2,1.23-1.76L95,135l-.62-1.29.8.39,1.61,1.62,1.21,2,.29,2.78-.33,1-.9,1.44.09,1H92.69l-1.28-1.05ZM92.73,184l-.15-1.63.8-.33L96,182l-.85.53L93.76,184l-.71,1.49Zm.09,9.85v-.43l2.4.9Zm2.49-5.69-.14-2.06.33-1.1,1-1.2.37-.7-.28-1.1,1.51-.09,2.2.09.15.66,1.12,1.2.09,1.43-.22.77-2.08,2-.41.78.09,1.57.89,1.39-1.31-.19-1.52-.81L96,189.6Zm1.18,6.54,1.69,0,1.32,0,2.64-.42.88-.66-.18-11-.47-.66,7.11.09-.43.71-.24,4,.14,6.73.15.77.89.53,1.41.24,2.46.18,3.42-.81.56.1-3,.71-2.74.15-2.35-.44-1.12-.62.13-2.25-.18-8.88-.51-.14-1.32,1.38-.53,1.19L106,190l.13,2.39-.13,3.49h-.15l-.18-10L104.9,184l-1.07-1-.43-.05-.32,2.77.19,8.32-.85.29-2.45.53Zm10.31-53.66.51-1.25,2.17-2.24v-1.63l-.33-.81-.72-.81,1.7.38,1.79,1.09,1.27,2.11.14,1.77-.32,1.67-1.33,1.53,0,.86-3.24.05-1.27-1.15Zm2.15-9.56h-1.37l1.37-.25,2.41.11ZM110.37,188l-.19-2.2,1.07-1.77.25-1.19-.43-.9,4.38,0,.27.42,1.52,1.49.18,1.48-.52,1.2L114.08,189l-.75,1.82.71,1.86-.85-.48-2-2.34Zm5.31-44.3-2.22,0,1.18-1.34.52-1,.43-.38Zm-1.88-11.82-.38-.13,2,.47,0,.34Zm3.1,13.87-.18-1.53.32.05.67-.11,1.21.5,2.83,1.32,8.28,5.22.38.48.09-.15a94.25,94.25,0,0,1,23,23.37l1.84,2.72,4.38,7.61.65,1.82,1.92,4.15,2.73,7.74,1.36,3.49.05,1.14-.65-.09-4.38-1.23.42-1.34-.27-4.3-.91-2.35-1.32-2.1-2.67-2.25-2.25-.8.83-2.89-.09-2.09-.74-2.78-1.37-2-1.94-1.25-1.87-.62-2.26-.15-.57-.09.61-1.1,0-3.24c-1.11-4.15-4.86-7.31-9.26-6.32l.13-1.53-.42-2.72L136.29,160l-3.06-2.63-1.88-.72-2.73.06-2,.81-.58-3.26L125,151.75l-2.08-2.24-3.24-2-2.08-.37Zm1.41,48.56h-.23l.23-.24Zm0-.24.24-.53.05-1.86h-.2l.11-1.91-.25-3.29.14-3.35-.28-.68.19-.51,2.59-.06.14-.14.15.05,3.56.19.82.23-.73.77-.36,3.73.13,2.49-.22,3.34.18,1.44.42.51,3.11,1-3.15-.61-1-.58.14-.67v-3l.2-3.16-.06-4.49-.61-.09-1.27.81-.65,1.23-.29,2.69v5.88l-.18-.15,0-6.64-.65-2.11-1.18-1.24-.56-.1-.33,2,.09,2.44,0,6.35Zm.38-40.92-.9-3.14c6.53,1.21,7.67,10.17,4.47,15l-1.22-2.5-.79-2.33.36-.39.15-2.2.1-.19,1.17,1,.46.09.24-1.28-.37-1.07-3.2-3Zm2.59,41.44.09-1.14.14.14Zm2.44-26.33c1.64-6.1,6.86-13.18,11.2-4.45v2.54l-.94,2.24-5.61,8L126.83,174l0-.34,3.62-6.54.51-.29,2,1.54.71-1.1v-.77L128.71,162l-.47-.05-.66,1,.1.48,1.21,1.25.15.66-3.42,6.18-.91-1.16ZM126,189l.33-2.15.14-.33.85-1,.8-1.63.09-1.05-.42-.62,1.36-.28,1.7.18,1.88,1.82,0,.48-.09,2.39-2,1.86-1.08,1.34-.09,1.15.89,1.57-.89,0-1.28-.77-1.36-1.33Zm3.67,6.36-.61,0,1.36-.34,3.05-1.48.71-.76v-2.48l.15-2,0,4.87L132,194.62Zm-.1-16.45-.24-.57,4.81-5.35,2-2.1,2.1-1.19,1.23-.15,1.64.33,1.83,1.44,1.14,2.05.09,2-.56,1.54-2.4,2.1-6.77,3.78-1.14.94-.94-1.23-.89-.9.57.18,2.07-1.67,5.12-3.82,1.36,1.58h.71l.94-.81-.18-.73-4.06-5.3h-.46l-1.07.76.13.76.71.92.28,1-6.88,5.82Zm4.61,8.56-.09-1.63h.29l.22.39-.22,1.72-.15.09Zm1-2L135,185h.14l5.31-2.43,3.81-1.58,3.11-.77,1.55.25,1.88,1.2,1.41,2.48.14,2.39-.7,1.62-2,1.52-1.78.72-5.73,1.67-2.88-2.24-.23-.38,4.28-1.44,3.48-1,1.45,1.86,1.32-.43.09-.86-3.38-5.5-.71-.09-1.07.48.09.47,1,1.92-.14.33-2.77,1.1-4.8,1.43-.47,0Zm1.88,6,.06-2.2.09-.29.47.48,0,.58-.1,3.82.14.71-.47.05Zm2.08-55.25,0,.57,1.55,1.14,1.27.63,5.37-12.23.66,2.39,2.16,6.36,3,6.34,4,7.13c2.43,3.72,11.92,15.76,16.37,17.06v-2.92c-7.89-6.17-13.15-13.38-17.59-22.37l-4-9.74-1.93-6.4-1.74-7.28-.42.3-2.92,6.59Zm5.65,58.49-.62-.75c7.33-1.85,13.72-4.62,15.62,5.39l-.62,2.25-2.53-.91-2.54-.76-1.32-.58-2.68-1.72,2.07-.29h.43l.93,1.53.66.44.94-.15.1-.81-2.41-4.63-.51-.24h-.32l-1,.33.24.72.09,1.14-1.5.14-2.12.58Zm15.52-75,.65,3.4.48,2.19,1.87,5.64,2.83,6.46,3.49,5.88,3.24,4.24.56.39V129.1l-.06-.19-1-1.15-4-3.93-7.57-6.06h-.29Zm1.65,4.45-.29-1.3.19.34,2.07,1.2,1.21.85h.53l2,1.3,3.53,1.58,1.6,1.52c1.34,4.22-1.29,8.16-2.31,12.14l-.33-.09-1.73-2.82,2.3-3.45,1.93-3.49-.23-.43-.8.15-4.47,2.44-1.09.81-.41-.58-.94-2.86,1.12-.29,4.85-.72,1-.53-.13-.33-.94-.38-2.55-.67-1.56-.33-1.54-.53-1.55,0Z"
            />
            <path class="cls-4" d="M71.13,91.72l.76,3.2c4,6.83,12.37,5,17.17.15l.56.19.81,2.34,1.21,1.14,1.14.68,1.31.48,3-.06L98.79,99l1.74-1.24,1.28-1.53.42-.24,1.08,1.63,1.59,1.24,1.23.14,2.68-.23L109.9,98l2-2.06.89-1.82.85-3.49,2.21-.38,1.51-.76.89-1.39.56-2.25-.14-1.49L117.84,82l-.71-.77-2.58-1.48c-.26-9.14,2.12-18.1,5.37-26.52a161.45,161.45,0,0,0-30.07,2.33l-1,1.92-3.38,8.17-2.07,6.16-1.17,4.4-.71,4.45L81.77,84l1.84,4.12-.85.47-1.94.61c-2.13-5-6.74-4.68-9.12-.13"
            />
            <path class="cls-4" d="M88,271.18l0,.72.51.44,1.84-.15,6.3-.2,4.71-.09,3.2-.43,2.35-.05,3.44-.48,3.43-.33,2-.62,1.51-.1.79-.75.19-1.2a103.74,103.74,0,0,0,7.34-20.36l.11-5.35-.91-2.39L123.59,238l.74-.72,2.46-1,1.07,2.19,1.65,1.53,1.7.28,1.79-.51,2.15-1.58.85-1.53.42-3.21-.65-2.39-1-1.62-2.45-1.73-3.62-.75-2.77.18-2.54.81-2.44,1.1-2.55,2.12-.61.18-.15-1.95-.56-1.2-1.59-1.77-.71-.38-3.06-.24-2.73,1L106.19,229l-.62.73-2.12-2.5-.75-.24H98.42l-1.84,1.77-.85,1.54L94,235l-.23-.14-1.88.44-1.5.9-.24.24-.56.77L89,238.35l-.29,2.2.43,2.15,1.07,1.62,2.88,1.49,0,2.05L92.73,254l-.94,4.83"
            />
            <path class="cls-4" d="M156.7,48.76c-1.23,5.52,2.26,10.58,4.7,15.15l-3.29,4L161,71l.09.43-1.12,2-2.21,4.54-.66,3.26c-.25,4.62,1.9,9.64,7,9.41,8.29-2.31,6.19-13.79,1.84-18.88l3-3.53.71-1-1-1.3-1.23-1-.65-1,0-.63.89-1.52,1.41-3,1.18-4.6.18-3.25-.61-3.44-.84-2-1.61-1.58-1.83-.81c-4-.6-5.93-.16-8,3.62m3.34,36.56.37-2,.05-.48,1.79-4.12.89-.86.38.59,1.17,3.38.24,3.59-.94,2.29-.81.72-.89.15L162,86,161,84.51Zm0-30-.2-2.81.62-2.21,1.12-.91,1.27-.14,1.28.43.56.62.84,2.91-.22,3.11-1.65,4.16-.81,1.48-1.5-3.06Zm2.16,15.06V68l.65-.43.43.28-.47.87Z"
            />
            <path class="cls-5" d="M34.45,132.44v12.14l.47-.67,1.89-1.2,3.09-.13,2-.44,1.31-.85,1.29-2.16.45.91L45,142.1l-.62,1.09-2.06,2.06.09.44.29.14,1-.2h2.39l2.08,1.14.74,1.35-.8-.28-2.44.09-1.17.48-1.61,1.34-1,1.56-1.41,1.31-1.36.47-1.52-.34-1.36-1.09H36.1l2,4,1,1.53,1.17.33,2-.15-.53,1.82-.09,1.91.85,1.44,2.5,3.34.09-2.06.52-1.14,1.92-1.72L50,160l2.13-1.82.89-1.52.15-1.78.14-.13,1,1.28.47,1.48.05,2.2-.85,1.63.38.52,1.6-.62,1.51.2,1.45.61,1.74,1.87c-4.24-.41-5.56,1.66-7.2,5.44l-1.22,1.05-1.69.2H50l-1.36-.9-.79,0,1.08,1.14,3.62,4.3,2.3,0,1.46-.44L56,176v2l.32.71,2.59,2.54,2.54,2.1.05-.38-.62-2,.24-1.71.76-1.93c3.07-2.45,4.8-4,4.23-8l2.12,2.12.47,1.43-.15,2.15-.61,1.33.1.49.51,0,1.94-1.15,1.77-.19,1.56.38,1.46,1.29c-7.86.9-3,9.19-11.72,7.7l.62.38,5,3.74.79,0,1.09-.33,1.83-.77.14,2,.94,2.44,5.56,3.2-.06-.35-1.22-2.61,0-1.63.09-.87,1-1.71,1.36-1.39.9-1.2.42-2.06-.38-2.28.09-.15,1.43,1.05.79,1.29.19,2.2-.38,1.58.52.57,2.16-1.81,2.22-.53.61.14,1.13.53-1.56.9L88,188.7l-.81,4.39-.94,1.73-1.64,1.09-1.41.48-.89,0-1.41.33,4.27,2.15.29.38H85.2l.18.63-1.64,3.58L72.18,230l-.2.38c4.77-1.26,9.67-1.66,14.54-2.35l2.92-.13,8.46-.2,1.13-.24,3.11.09.47-.18,1.79,0,2.91.13,1.18-.22L109,227l2.35-.85h2.1l2.13,1,1.22.29,1.6.09,4.85.77,1.83-.62,2.44-.29,1.89.14.28-.24-13.6-16.82-5.31-6.21-3.34-.68-1.79-.51-1.64-.92c-4,1-8.48,1.91-12.47.15,1.35-5.69,1.21-10.21.8-15.72C69,176.35,50,155.82,42.07,131.2l-1-.44-1.32-.33H37.37l-1.65.81m-.8,64.87-.43-.2.19,14.24.85,1,9.08,7.41,6.31,4.2,2,1.11.6-1.2,3.49-8-6.49-4.54-9.32-7.61L36,197.58Zm1-50.38-.89,2,.09,1,.47,1.34,1,1,2,.62,1.78-.44,1.83-1.86.06-.62-.47-.19-1.23,1.24-.51.24-1.61-.24-1.07-1.24-.48-1.29.43-1.24L39,144.68l1.32,0,.13-.53-1.21-.34-1.7.61Zm.79-19.84-.94.86.29.43,1,.2,1.56.48,1.26,1,.95.59-.1-.72-1.32-3.88L39,123.26l-.19-.13-.66,1.57Zm1.6-6.07-.47.06.66.57,2.16.19,1.23.38,5.17,1.49,7.71,3,4.95,2.91,3.14,2.24c3.71-4.69,10.05-8.13,16-8l-.27-.42-14.26-16.6L62,102.82l-1.88-2.15c-5.25,2.21-13.44,7.89-16.74,12.41Zm8.84,43.07-.75,1.62.1,1.29.61,1.87,1.69,1.38H51l1.83-1.58.52-1.05-.14-.81-1.51,1.29-.57.24L49.6,167l-.85-1.19-.33-1.34.33-1.14,1.55-1.44-.09-.48-1.46.3Zm15.05,16.73L62,180.81l.33,1.91,1.17,1.39.9.29,1.56,0,.94-.52,1.5-1.73.47-2.05-.43-.28c-1.31,2.69-3.46,3.48-4.79.28l.23-1.62L65,177.27l0-.48-.75.05L63,178ZM77.86,98.85,75,98.37l18,21L95.5,122l3.43.48,2.45.47,2.26,1.15c4.78-1.16,8.08-2.19,13.13-.06l-1,9v5.35l-.09.92.24.66,3.29,1.06,1.65.76,3.67,2.1-.47-.61-.66-1.73.37-2.48-.09-.81-.56-.2-1.79,1.67-1.22.48-1.7.2L117,139.8l1.61-.9,1-1.58.71-4.45.74-1.48,2.31-1.48,2.77-.62-.23-.24-2.63-1.58-1-.42-.76-.59-.27-.28,4.23-9.08,9.45-21.45c-6.17,2-11.43,2.2-17.68,3l-.81.15-7.15-.1-1.88.19-.18,0-3.2-.38-4.38-.19c-2.7,2.13-6.87,2.8-9.36,0A25,25,0,0,0,80.21,99Zm.1,24,1.07.2-.18-.2ZM80.45,189l-1.27,2.39c-.26,7.05,7.9,4.85,7.15-1.14l-.42-.2-.53,1.49L84.21,193h-2l-.94-.76-.29-.77.09-1.85.52-.87.28-.86-.75.29Zm17-35-13.82,0,1.83,4.21,1,.24,12.8-.15,18.53-.09,1.55-.1L118,154.09l-1.22-.09-10.62.09Zm-10,45.4,1.88-.58.38,1.63Zm8-31.54-6.21.09,1,5.11.51-.29,7.87.15,10,0,3.16-.06,5.55.15.19,0h5.26l2.3-.13-2.48-5.13-21.08.06Zm-1.65,47.92,4-8.69.38-.37.43.24,6.15,8.45,0,.61.19.11.27.24-.18.19-2.82-.1H101l-.57,0-.33,0L95,216.22l.46-.19-.51-.09-.09.28-.2-.28Zm3.53-3.23-.67,1.62h4.2l.14-.87-2.4-3.53ZM102,109.93c2.27-.73,9,.47,11.57.1l-3.77,9.55-.51.3-.61-1Zm4.89,2.19-.47.06.14.53,2.35,3.82h.24l1.6-4.26Zm11.15,15.11-.42-1.58,2.17,1-.2.19Zm4.23,4.69L121,134.31l.09,1.43.33.24.66-1.72.75-.87,1-.46,1.74.22.75.92,0,2.44-.8,1.2.47.37,1-.9,1-1.82.09-2.06-.33-1.05L126.74,131l-1.37-.57-1.69.33Zm3.53,12.81-.47-.15c21.3,12.61,37.17,34,44,58l.29-1.49,1-1.19,1.6-1.38-.33-.54-.89-.09-1.83-.57-1.41-1.15-.66-1.58,1,.25h2.53l1-.44,1.79-1.25V180.81c-4.24,4.38-7.11-1-10.06,5.39l-.71-1.67.27-1.62.62-.95,1.88-1.92-.18-.51-1.74.22-2.22-.13-1.69-1-.85-1.15.42,0,2.79,0,1.17-.57,1.83-1.58.71-1.34,1.5-1.39,1-.23,1.74.14,2,1.62h.19v-.66l-2.59-4.73-.85-.62-1.21-.35-2.07.11.47-2.15.09-2-3.29-4.87-.76-.68.29.92.23,2.63c-2.13,5.08-6.82,1.36-8.13,8.84l-.51-.57-1-2.39,0-1.29.71-2.25-.33-.38-.8.28-1.83.3-1.6-.54-1.74-1.72v-.14l2.17-.33,1.27-.43,1.79-1.73c1.88-5.05,2.73-4.66,6.77-4.34l-1.18-1.67-2.82-2.92-2.5.05-1.45.42-.14-.09.23-1-.19-3.11-5-4.48-.48-.19.2.72.42,2.39-.14,1.91-1,1.71-3,2.87-.51.86-.47,2.78.18,1c-4.5-3.66-2.07-4-2-7.36l-.51-.11-.91.63-1.53.72-.95.09L133.7,150l-1.46-1.3v0l1.93-.39,1.27-.77,1.32-1.47,1.79-3.77,1.45-1.06,1.32-.52,2.59.13L143,140l-4.6-3.29-1.64.38-1.65.67-.66.09.09-.86-.18-1.38-.91-1.82L127.58,130l-.52,0,1.47,1.92.51,1,.23,1.25-.38,2.19-.74,1.16-1.75,1.95-.93,2.34.37,2.49Zm5,59.21-1.88.29,5.45,6.83.85,1.1,11.61,14.1c7.25-3.33,20.66-12.14,23.61-20.32l-1.18-.23-2.15-.91L163,203.55l-3.59-.86-3.67-1.09-3.85-1.72-5.27-3.4-.41,0-3.91,2.87-3.76,2.24-3,1.29-2.92.86ZM140,142.67l-1.4,2.43,0,.59.52.24.42-1,1.41-1.16,1.09-.13.61.23,1,1.3.14,1.33-.56,1.24-.9.91.1.29.6.05,1.52-1.1.84-1.63,0-2.39-.62-1-1.32-1.05-1.83.05ZM150.67,111l-.36.24.13.37.33,0,5.74,3.82,8.09,5.83,1.22,1.25.14-.2,4.67,4.45,2.86,3.4V115.86l-1.13-1.2-5.69-4.43-4-2.93-8.1-5.34-1.27,2.9Zm4.76,46.74-1.32,1.47.14.63h.28l1.7-1.44h1.41l.85.57.61,1.11-.14,2-1.6,1.44V164l.93-.14,1.61-1,.94-1.44.09-2.11-.38-1.1-1.79-1.33h-1.3Zm11.38,16.91-1.46,1.44.28.52,1.7-1.2,1.27,0,1,.48,1,1.34.06,1.47-.29.53-1.13,1.05-.94.33-1.08.24.47.57,1.27.06,1.7-.76,1.26-1,.47-1.15-.14-3.2-.94-1-1.46-.57-1.69.15Z"
            />
            <path class="cls-5" d="M40.52,271.47c-.93,3.67,2,10.61,5.92,6.22l1-2.49,0-2.48-1.32-4.07-1.64-3.48-.85-1-2.21,4.39" />
            <polyline class="cls-5" points="41.37 242.56 41.73 246.53 42.31 248.34 43.86 251.07 44.08 251.07 45.31 249.49 47.05 245.47 47.19 242.12 46.72 240.22 45.93 239.45 46.4 239.45 45.51 238.78 43.3 238.78 42.16 240.07"
            />
            <polyline class="cls-5" points="43.81 255.89 42.35 257.47 43.99 259.52 45.36 257.8" />
            <path class="cls-5" d="M51.81,288.48l-.67.82h80.11c-3.44-5.43-7.83-10.23-11.29-15.77l-1.13-.1-3.29.53-7.43,1.34-1.27.09-3.15.33-1.88.15-6.87.24-.29.05H91.08L85.24,276l-10.48-.9-4.85-.92-.56-.27-1.88-.53L65,272.62l-1.65-.34-3.58,5.88-5.46,7.08"
            />
            <path class="cls-5" d="M155.61,36.43H75.09v.09l5.26,7.55,4.29,5.55L87,52.77c11.19-2.24,24.76-3.76,36.18-2.72l4.09.24,1.56.2,2.86.18,3.76.87.38.14,2.58.37,1.42.44,3.34.52.18.57.66-.13.43-.68h.29l.32-.72,1.6-2.81,5.55-8.37,3.44-4.39"
            />
            <polyline class="cls-5" points="159.81 48.95 159.32 50.82 159.47 52.68 160.55 56.59 162.76 61 163.37 61.61 165.73 56.22 166.34 53.34 166.16 50.14 165.45 48.14 164.17 46.9 163.75 46.99 163.75 46.76 163.47 46.46 161.78 46.56 160.79 47.23"
            />
            <polyline class="cls-5" points="160.89 77.91 159.61 81.64 159.9 84.46 160.6 86.04 162.29 87.28 163.75 87.18 164.6 86.33 165.69 84.27 165.73 82.79 165.69 80.58 165.4 78.34 163.9 74.85 163.1 73.8"
            />
            <polyline class="cls-5" points="163.1 66.11 161.55 67.68 161.68 68.17 163.33 69.93 164.64 68.41 164.75 67.97" />
            <polyline class="cls-5" points="166.1 82.21 165.92 82.21 166.01 82.51" />
            <path class="cls-6" d="M155.8,37.2l.19-.39H75c4.44,6.63,9.73,12.92,13.87,19.74l-2.3,5.39-4,11.34-1.36,7.41v2.19l.71,3L82.94,88l-1,.72L80.68,89c-1.07-3.42-3.47-4.28-6.58-3.2l-1.92,1.43-1,1.49-.7,2.2v.94l.8,3.59c-8.51,3-17.16,7.2-24.18,13L42,114l-1.6,2.29-2.07,2.72-3.1-.51-.43-.15V211l.43.28,1,.91,7.43,6.31-.62-.1-2.53.39-1.32.72-1.09,1.52.49,1.67-.91,1.59.06,1,.51.87-.57,1.52.51,1.48L38,230.85l1,1.71L38,234l0,1.24.24.24,3-.09-1.5,1.05-1.32,2.1-1,3.73.18,4,1.41,4.3,1.89,3-.53.95-2.86,3,.09.87.28.68.72.47,1.82,2.1-.75,1.25-1.92,4.15-1.32,5.17C36.29,278.3,37.9,283,45,282.61l1.4-.24,1.32-.77,1.51-1.82L50.39,277l.29-3.11L50.39,271l-1.5-4.35-2.68-4.73.33-.62,2.77-3,.29-.72-3.16-3.38v-.48l1.13-1.44,2-4.2c1.26-4.32,1.58-9.15-2-12.43,5.37-1.08,8.12-2.86,10.87-7.89l6.44,3.16L68,232.14l-1,1.29-1,2,.09,1.53.67,1.67-.11.48-.79,1,.18,1.35-.46.42-.76,1.43.19,1.92-.6.66L61,247.39l-1,.85L60,249l1.64,3.29.94,1.49,0,.19,3.91,7.84-1.09,1.91-.65,3.06-1.23,3.49-2,4.3-3.16,4.73L55.42,283l-4.37,5.44-.24.44h80.68l-.14-.29-9-12.32L118,269.65l2.83-6.49.84-2.05,2.83-8.13,1.36-5.88.14-3-.36-2.83-1.29-2.57,0-.48,1-.63,1.32-.18.65,1.62,1.23,1.28,1.4.68,1.93-.05,1.5-.57,2-1.58.61-1.05.62-2.39-.47-3.07-.24-1.14c12.25-4.09,29.34-12.69,35.32-24.85l1.46.09v0l.42,0V114.47l-.42-.2-1.83-1.65-6.4-4.93-.24-.39,2.77-.38,1.65-.9.7-1.1.15-1.29-.33-.48.53-1.16.32-1.47-.61-.91-.15-.14.38-.86,0-1.82-.42-.68.29-.81-.11-1.14-.74-1,.89-1.58.09-1.08-.37-.54-2.73.1c3.92-2.34,4.08-9.23,2.64-13l-1.22-2.77-1.56-2.43,0-.2,3.16-3.39.28-1.1-3-3.2c4.12-5.87,7.13-20.22-3.2-21.47-5.31-.75-7.37,4.51-7.38,9-.12,4.71,2.64,8.3,4.56,12.24l-1,1.38-2.26,2.44,0,.43,3,3.25-.09.81-1.74,2.82-1.69,4.44L156.7,82l.47,3.43,1,2.69,1.6,2c-5.39.9-8.13,3.3-10.81,8l-2.3-1.14-.94-.35-1.94-1-4.32-1.88.65-.75.2-.15,1-2.15-.2-2.39-.61-1,.85-1.14V85l0-.59.51-.42.43-.66.14-1.58-.28-.81.52-.77,3.75-1.82.67-.57.23-.87L140.65,64l1.09-2,1-4.45,2.35-5.45,1.74-3.35,5.55-7.45M35,124.13l.15-.67h.65l1.32-.38,1.61-1.2.13,1.77-.66,1.14-2.11,1.67.38.72,1,.15.93.33,1.51.77.6.67.53,1.57-2.39-.37-1.66.37-1.83,1.25-.15-.24Zm.24-1.92-.28-.57,0-2,.38-.24,2.86.76-.27.91-1.27,1Zm0,20.37L35,141.52v-.9l.2-7.6,2-1.34,2.5-.39,1.32.48,1.08,1.44,0,.62-1.84-1.05-1.59-.09-.81.24-2,1.62.15.42.42.05,1.28-.86h1.68l1.18,1.16.56,1.8-.51,1.11-1,.76-1.7.43-.51.33.33.44,1.41-.05,2.3-.72,1.26-1.14.53-1.87.38.62,0,1.63-.33.85-1.22,1.25-1.37.76-1.93.1-2.25.28Zm-.18,9.17.09-.71A104.23,104.23,0,0,0,55.8,178.9c5.31,5.48,11.83,9.4,17.88,13.9L71,199.07l-6.88,15.2-5.39,12-.49,0-1.77-1-3.06-1.8,5.41-12.15,1.18-3.1L60,206.9l-1.56-7.35-1.68-5.22-2.92-7.12L52,183.11l-2.3-4.35-2.87-4.4-3.06-4.11-3.25-3.68-4.32-4L35,161.11Zm.18-3.16-.23-.66.09-3.82.56-.63,1.5-.81,1.94,0,2.77-.33L43.57,141l1.09-1.87.42.77.18,2-.69,1.53-2.08,1.86.33.62,1.51-.29,2,.11.85.38,1.64,1.14.39.91c-6.11-1.31-5.09,2.51-9.08,4.92L38,152.85,36.9,152l-.9-1.52,1,.66,1.13.38h1.7l1-.47,1.73-1.92-.32-.62-1.65,1.38-1.23.11-1.12-.48-1.09-1.87.42-1.62,1.7-1.34,1.18,0,.18-.53-.71-.34-1.45.24-2.07,1.29-1,2.06Zm.09,22.91-.42-3.22.28-1.14.8.48h2.16l.85.57.89,1.19L40,171.3l-.32.43,1.21,2,.76.87,1.83.24,1.37,1,.51.91v1.48l-.61,1.11,1.28,2.9.65.53,1.41.19,1.36,1.29.24,1.72L49,187.3l.53,1.79.51.57,1.08.33.85.51.76,1.58-.06,1.49-1.08,1.34.75,2.43,1.93.72.94,1.1.29,1.82-.56,1.1-1,1,.28,2.15,1.12.75L56.6,207l.38,1.8-.42.92-1.7,1.09-.47,1.1-1.23-.67-.23-1-.61-.47-.79-1.48.51-1.63.85-1.09-.67-2.3-.69-.29-.9-.66-.56-1.53.23-1.24.84-1.25-.46-2L50,195.28l-1.36-.46-1.09-1.54.09-1.58.38-.52.24-1-1.09-1.82a2.86,2.86,0,0,1-2.58-4.48l.19-.87-1.08-2.09-.67-.54-1.07,0-1.32-.91-1-1.91.47-1.34.23-1L39.43,174l-1.12-1.11-.8.15-1.14-.33ZM35,186.73l.11-7.16.09-.1,1.41,1.72,1,2.05-2.49,6.84Zm0-9.13.06-2.19.74.62,4.7,6.46.58,1.14,1.27,2.1,2.21,4.88,2.53,7.06,1.84,8.14.15,2.05-.15.34-1-.77a60.07,60.07,0,0,0-11.34-28.25Zm.15,22.9L35,197.1a129.13,129.13,0,0,0,21.07,17.21l0,.62-.85,1.77a124.86,124.86,0,0,1-18.71-14.62Zm4.79,13.95L35,209.86v-3h.23l2.63,2.5,5,4.1,4.7,3.49,3.78,2.63L53.13,221v.48L52.51,223l-.8-.29-8.19-5.35Zm-4.41-20.79L37.75,190l2.15-3.21.52.91,1.27,2.91L37.22,193Zm.94-44-.29-1.3.52,1.11,1,1.19Zm.38,46-.34-.19,3.67-.71,3.25-.34.37.76.52,2.48-3.15-.81-1.7-.33Zm.18,2,.29,0,8,4.5.56.76.62,2.73-.28.48-4-3.25Zm2.78-70.45-1.75-.9,1.23-1.38Zm-1.23,28.06-.66-1.3.43.15,1.68,0L42,153l1.17-1.78,1.23-1.14,2.12-1.1,2.44.14,1,.63,1.17,1.52-.8-.57-2-.77-1.74.3-2.4,2-.47.77.33.37L46,151.94l1.7-.13,1.5.94.47,1.48-.09,1.59L48.46,157l-1.45.67.38.39,1-.2,2.21-1,1.23-2.24,0-1.68.51.81,0,2.25-.84,1.72-1.61,1.29L47,160.17l-1.79,1.57-.84,2.35-.43-.39-1-2.53.14-2,1.18-2.39-.43-.68-1.31.5-2.59-.2ZM38,273.86l.47-4,.47-1.62,1.7-3.78,1.07-1.33.81,1.2.18.95-1.21,2.19-1.32,4.12c-.95,16,18.2,5.17-1.14-13.62l3-3.11.42.13.52,1-1.08,1.29.09.43,2.31,3,2.72,4.1,1.7,3.79.29,1.23.65,2.39,0,3.64c-.79,7.9-9.51,8.26-11.24.77Zm1.56-151.59-.29-1.91,2,.51-.05.44h-.38l.11.43.42.09A93.69,93.69,0,0,0,90.94,183.3l.57,1.23.09,1.2-5.31-2.62-4.9-2.88-9.65-7c-15-13.06-23-25.37-30.1-43.59Zm-1,105.51.09-.61L40.14,226l.38,2-1.36.63Zm.13-2.9-.09-.81.88-.92,1-.52-.19.48.19,1.62-1.18.62Zm-.09,9.83.28-1.05,1.22-.47,2.17.05-.24,1.29-1.12.18Zm.18,10.09c-.93-5,2.23-11.2,8-8.6,5.13,3.07,2.4,13.6-1,16.87l-1.26-1.76,1.35-2.3,1.56-3.73.22-3.11L47,239.78l-1.13-1.24-.94-.47L43.63,238l-.94.44-1.09,1.44-.8,2.72.24,2.72.84,2.92,1,2L45,253.64l3.43,4v.29L45.51,261l-1.09-1.24.1-.42.79-.92.43-.95-2.26-2.67-2.21-3.36-1.84-3.86Zm1-125.36,1.63-2.1L42.87,115l4.23-4.56,4.76-4,2.68-1.73L60.09,102l16.7,19.83v.28A20,20,0,0,0,63,129.29l-.8-.29-3.38-2.29-4.56-2.49-2.64-1-2.44-1.09-.76-.19-5.07-1.73Zm-.9,111.41.33-1,.38-.33.94-.53.43,2-1.32.76Zm.29-8.93-.15-.77.24-.48,1.41-.87-.24.57.1,1.11-.8.62Zm2.77-61.62-1.79-2.77,2.44-.1ZM40.8,232.14l.1-.15,2.35-.86,2.62.05,2.13.33.51.35.56.09.15-.48-1.88-1.1.79-.81,3.35-1.78,2-.24,0-.42-.38-.19-3.33.52-.23-.95.85-2.73-.49-.09-1,1.71-.47,2.54-2.35,2.29-.23-.18.09-1.2-.33-.62.56-.72,0-1.57L46,225.3l.23-.37.19-1.43-.38-.63.47-.82.09-1.29.14-.14,4.38,2.88L57.41,227l.13.81-.65,1.16-2.35,2.53-3.21,2.1-2.15.81-2.69.44-3.39-.2-.23-.37L43.1,233l-.32-.39Zm1.36-95.77L42,135l.51,1.72-.24.38-.18-.33ZM41,226.73l.47-1,.42-.29h1.93l-.24.92.24,1.14-2.41.29Zm.18-2.81.1-.86.61-.67,1.88.09-.24.72.11,1.2-2,.18Zm0-2.92.62-1.29.23-.24,1.69.06.43.27-.47,1.73H41.55Zm-.32,53.19.18-2.66.65-2.63,1.66-3,1.13,2.1,1.59,4.45.1,2.48-.61,1.58-1.18,1.2H42.78l-1.32-1.38Zm.37-44.3.13-.86.48-.38,1.75-.14-.06,1.71-1.93.44ZM41.84,245c-1.6-10.42,9.59-6.77,1.68,4.69l-1.07-2.39Zm.88,12.57.8-.91h.29l.27.82-.74.62-.38-.29ZM44.8,144.49l.13-.29.29-.24.8-1.58.19,0,1.45,3Zm-.28,79.82-.19-1,.56-.59.62,1-.34,1Zm0,5.62-.11-1,.52-.2.47.73-.37.75Zm.41-2.24-.47-.72.1-.75.47-.59.37.25.15,1.2Zm0-5.92-.09-1.1.33-.34.47.87-.33.81Zm.67-56.45-.29-1.19.61-1.33,1.6-1.49,1.36-.77,1.28-.37,2.11-1.73,1-1.62.44-2,.94,1.23.38,1.1.09,2.58-.29.86-.47.86.42.58,1.17-.52,1.75-.06,1.45.67L60.89,164l-1.89.1-1.08.09-1.41.77-1.27,1.53-1.64,3.14-1,.77-2.11.33-1.14-.57-2.77-3.06Zm1.17.05.57,1.82.32.81,1.32,1,2.54.09L53,167.71l.62-1.05-.06-1.1-1.64,1.53-1.32.1-.84-.29-.85-1.25-.23-1.09.32-1.15,1.6-1.53-.13-.52-1.14.34-1.5.75-1,1.68Zm.66-37.75-.15-3.3L48,123l.84.14.38.42-.52,1.78L49,128.1l1.07,2.48,1.64,1.76,2,1.11,2,.23,2.63-.29,6.4-1.43,1.5,1.3-.14.13-3.53.92-1.92.52-2.26.95-1.7,1.58-.79,2c.08,3,1.46,5.52,4.42,6.26l2.16.06,2.82-1,.94-.29,4.85-2.19L74,141.19l.6.1.34.85-7.58,4-2.64,2.35-.75,2.39.24,1.62,1.21,2.3c5.93,5.75,9.94-3.3,14-6.6l.43.38.19.72-4.66,6.21L73.91,158l-.79,2.61.61,2.74.56,1,2.3,1.86c5.07,1.84,6.66-4.54,8.52-7.75l.85,2-1,2.92-.84,4.15.71,3.83,1.6,2.67,2.26,1.77,1.88.82.18,2h-.79l-1.36-.48-2.5-1.57L83.61,174l-.9-2.43-.47-3.4L82,168l-1,.58-2,.61-2.59-.33L74.8,168l-2.25-2.24-1-1.72-.65-2.63.32-1.92-.32-.66-1.94.33L67,158.68l-1.88-1.05-1.69-1.72-.66-1-1-3.05v-1.62l1-2-.15-.49-.9.24-2.95-.37-2.68-1.34-1.28-1.68L53.69,141l.05-1.63.84-2.25.23-1-2.3-.72-1.41-.82L49,132.2l-1.22-2.49ZM47.9,167l-.14-.51,1.17,1.19,1.09.57-.24.24-1.36-.62Zm1.55-15.72.29-.05.33.15,1.07,1.43L51,154.57l-.15-.1v-1L50,151.81Zm1.18,20.8-.33-.54c6.08,2,3.59-9,12.09-5.88l2.17,2.06.6,1.2.43,1.87-.43,1.67-.8,1.38-1.68,1.58-1.94,2-.76,2,.29,2.15H60l-2.11-2-.71-2.24.15-1.49.56-1.58.32-1.29-.6-.18-1.41,1.14-.94.29-1.64.1-1.42-.39Zm.9,30.29-.29-.13.29.33Zm2.21-75.75.37-.19.61-.09.52,1,.94,1.19,3.1-.29,1,.57.1.24-.91.14-1.92.24-.79.39.47,1.76-1,.1-.32-.28Zm-1.28,162c4.29-5.93,9.73-12.34,12.42-19,14.05,4.57,30.14,3.69,44.69,2.35l.89-.2,5.46-.95,1.32-.14.33,0,1.08,1.58,1.21,2,4.8,6.73,4.94,6.78.38.92-.71,0-4.09.11-.85-.39-6.16-8.6-1.87-2.45-.76,0L112,278l-7.15,1-.51.81.24,8.9-.81.15-3.39-.15,0-7.08-.11-1.71-.27-.49-5.74.14-4,.06-6.26-.24-.38.66-.13,7.26-.14,1.44H79.56l-.2-.24v-4.67l.25-4.45-.29-.53h-.8l-7.57-1-5.09-1-.47.33-3.15,5.74-3.76,5.88Zm1.37-113-.23-.48h.7l1.5-.2.76-.28L56.23,178Zm1.83-15.24.29-.62.09-1,.23-.24,1.51,2Zm2.82,6.49L57,169.2l.09.42.38.06,1.08-1.2,1.09-.39,1.36.19,1.32,1.06.38,1-.2,1.62-1.41,1.25.14.48.38.14,1.88-1.48.89-1.68,0-1.91-.61-1.29-.94-.81L61.12,166l-1.61.19Zm.89-29.15v-.39l1.18-.24,1.17,1.82L62,139l8.14-2.35.89.83-.65.33-3.77,1.14-3.2.92-.74.61,1.17,2.59-1,.28ZM61.07,167l.52,0,.75.34,1.23,1.38v1.19l-.48-1.23Zm0,14,.52-2.34.65-1.29,3.35-3.25.65-1.44.24-2.48-.18-.53,1.5,1.16,1,1.38.25,1.91-.81,2.34.19.77.89-.57,1.93-.91,2.21.13.89.48,1.23,1.1-.9.1L73,178l-1.79,1.58-1.88,3.91-1,1-1.65.72-1.07.09-1.32-.39L61.87,183Zm0,67.82.52-.29L65.12,247l.89-1.54,0-1.09.18-.44,3.58-2.39,1.22-.43.14.54.47,0,1-2.49.11-.86-.43-.09-1.36,1.23-1,.77-2.44,1-.71-.1.2-.82.89-.57,1.37.06.22-.53-.8-.34-1-.67-.69-2,.13-1.16.9-1.53,1.69-1.19c5.1-2.3,14.69,2.34,18.77,5.88L88,239.88l.19,2.48,1,2.06,1.22,1.1,1.92.86c1.29,6.93-2.91,19.47-5.22,25.85-6.62-.11-15.78-1-22-3.62l.09-.58,1-4.16.94-1.2.24-1-2.63-5.22Zm1.14-68,.56,2.19.94,1.07,1.21.51,1.79-.27.94-.68,1.27-1.77.25-1.72-.48-.19-.6,1.1-.91,1-1.32.28-.94-.48-1-1.62.28-1.63,1.13-1.29-.14-.48-.7.15L63,178.47Zm1.41,108L62,288.59l.8-1.2L67,280.17l2.73.42,7.06.92,0,2.54-.42,3.86,0,.81ZM63,182.25l.05-.68.2.2.37.48,1.22,1,1.83.2-1.17.48-1.32-.34Zm1-52.15v-.33l3.73-3.31L70,125.14l3.26-1.35L76.5,123l3.11,0,1.78.24,2.49.67,1.41.86.85.28.94-.57,2.41-1,.94-.24c4.42-1.11,9.42-1,13.35,1.58,2.92-1.55,8.89-1.8,12-.43l-.52,4.64c-4.69-1.68-8.48-1.63-12.88.71l-2.21-1.33-3.11-1-3.58,0-2.72.62-1.17.43-2.73,1.72-3-1.58L82.47,128l-2.16-.48-4.28.24L72.74,129l-2.35,2-3.91,1-1.74-1.43ZM64,247.81l-.09.34.09.57.81.44.89-.15,1.74-1.73.9,0,.42.43v1l-.52.53-1,.24.29.51,1.09.06.56-.3.7-1-.14-1.44-1.12-.76H67l-1,.66Zm1.23-27.57-.14-1.06.14-1.09.56-1.43,1.14-.68,1.27.15.79,1.28.1,1.44-.29,1,.25.57.51-.1.14.48.52.19.75-1.29.9-.81.85-.48,1.07,0,.67.68.13,1.34-.37,1.09-1.79,1.93-2.91,2.33-.91.19-.7.71-1.41.63L66,225.68ZM66.91,100l.27-.62,1.65.38.61,0,.19.19,1.89.38,3.66,1.34,1.32,1.16.56,1.23-.27,1.16-.81.66-1.41-.14-1.55-1-.66-.2-.28.38.13.53-.32-.14-.66.33.71,1.82v1.82l-.61.66-.42.11-1.14-.11-1.45-1.71-.81-2.63Zm0,86.84-.58-.53L68,186l1.83-1.29,2.07-4.16L74,178.76l1.17-.43,2.12.19,2.3,1.38L81,181.53l.29,1.81-.81,2.77-2,2.06L77.3,190.5l.1,2.11.56,1.53-1.7-.95-1.12-1.53L74.2,190v-1.05l.27-1.25-.09-1.23-.28-.3-1.89,1.2-1.59.66-1.7-.18-.93-.06Zm-.29-38,.71-.33-.15-.24.76-.09.84,1.34.72.52,6.62-5.15.85-.44.47.95-7,5.74.56,1.25.29.18.41,1.14-1.07.77Zm1.47-16,.32-.24h1.27l.14,2.11Zm-.67,111.32,0,.81.61.66,1,.24.33.06,1.23-.44.7-.47,2.64-2,1.22-.28,1,.52.09,1.16-.66.66-.85,0-.51.13.23.72.89.39,1-.3.79-1.14.1-1.43-.48-1-1-.52-1.45-.24-1.7.39-3.42,1.95Zm1.65,17.48L68,263.35l.13.48.38,0,1.94-2.05,3-.48,3.4-1.25-1,.78-2.62.9-2.59.42-.33.29.33.34,1.27,0,2.55-.48,3.65-1.82,2-.33-.24-.48-2.73.28,1.79-.76L80.5,259l.23-.58-1.17-.62-2.12.18-1.18-.66-2.73-.72-2.58.1.18-.67,1.89-3.3.14-.9-.57.09L71.13,254l-1.07,2.48.09.63-1.79.47-.14.48,1.28.15-.15,2.24Zm.56-86.45.28-2h.33l1.84,1.71-1-.09Zm.1,89.56-.85.62.29.91.89.53,5.36-.87,3.85-1.34,3.53-1.86.85-.18-.15-.48-.83-.05-5.37,1.67-4.24,1.05Zm0-45.26.94-3,.05-.81.33-1.1,1.22.53.14.29Zm.85-86.17.18-1.38.43-.43h-.14a11.11,11.11,0,0,1,15-.25l.14,4.45,0,5.64-1.46,2.39-.52-.09-.14-2.48,0-9.56c-4.57-2.1-6.9-1.12-10.87,1.19l0,5.21-1.85-1.77Zm0,56.21-.23-.39L71,189l2.11-.92.2,1.78.33.76.09.82Zm1.12-96.16-.13-2.63.84-2.2L74,87l1.18-.47,1.83,0,1.37.57,1.12,1.76L79.56,91l-.53.76-1.12.92H76.73l-.7-.87.14-.9.51-.73,1.23,0,.38-.39v-.9l-.94-.91-.71-.24L75,87.75,73.39,89l-.8,2.3.15,1.62,1.08,2.44,2,1.62,2.13.57,1.6,0,1.5-.09L82.38,97c6.23-1.58,6.16-5.56,9.22-8.89l.1.19-.76,2.49-2,3.14-2.68,2.35-2.06,1.15-2.55,1L78,98.5l-1.92-.27L74,97l-1.38-1.53ZM71.61,205l0-2.48.38-1.39,1-1,1.27-.06.51.24.52,1v2.3l.24.38H76l.89-2.35.57-3.44,1.65.77.13.28L77.68,201l-1.32,2.81.19.72.42-.33,1.41-1.44,1.32.06.94.71.29,1.72-1,1.63-3.39,2.76-2.3,1.3-1.23.48-.36-.86Zm2.45-24.8L72.27,183l.09.78.52.23.47-1.25,1.7-1.38,1.5-.09,1.22.76.47.86.05,1.62-.76,1.25-.23.68H78l.94-.92.94-1.62.15-2.35-.53-1.14-.79-.9-1.36-.44-1.88.44ZM74,107.84l-.7-1.16,2.93,2.06L75,109.84ZM72,257.61l.09-.24h.47l.8.63.34.81-.2.86-.74.09-.29-1.38Zm1.6-166,.1-.76.65-1.39,1-.72,1.26-.19.47.34c-7.08,3,4.53,11.31,10.49,1l1.42-.15h.32L89,90.82l-1.64,2.29L85.06,95l-2.39,1.09-1.52.63h-3.8L75.61,96,74,94.07Zm.9,48.41-.38-1.91.09-4.63.33-.63L78,131.63l2.31-.1,1.27.3,1.31.57.19,1.52.15,6.79-.34,3.43h-1l-.47-1.43L82,141l.29-2.24-.9-2-.85-1.2-3-2.48-.47.24,1,1.82.18,1.62-1,1.34-1.88,2.15,0,.48Zm-1.18,90.9.13-.24.67-.38,5.93-1,6.3-.9L96.67,228l.29.15-1.65,1.67L94,230l-5,.23-3.2.25-4.23.47-3.85.67-2.26-.28h-.28Zm.52-1.43,12.74-29.45.89.63.94.43,1.79,1.11-1,2.33-.52,1-8.88,20.16-.15.82.28.19,4.75-.76.94-.1,2.41-.09c11.26-1.36,23.87-.81,35.13.66l.27-.33-.56-1.25-2-2.28-9-10.66-7.2-8.66.85.24,3.76,1.2L111,205l.43.95,1.83,2.21,2,2.48.2.19,9.41,11.37,3.56,4.54h-1.17l-3.62,1-7.24-.57-.76-.62-1.59-.62-2.64,0-.94.24-2.12,1-7.33-.15-11,.48-8.23.72Zm0,28.05.09-.24h.62l1.74.77.09.39-.33.23-1.41.52ZM76.23,37.24l.18-.34,4.85.06.79.14,3.8,5.49,1.29,1.63,2.35,3.38L90.7,49l10.49-1.68,1.32-.33V43l-.37-6,2.06-.1,2.21.2,0,4.35.14,3.34.15,1.43.41.48,1.32,0,6,0H123l.33-.24.24-9.13.13-.14h3.76l-.32,9.18.19.62.75.19,3,.38,5,.48,3.28.66,2,.24.38-.29,2-4.15,3.3-5.45,1.4-2,4.57,0,1.22.19L153,38.82l-5,6.5-3.44,5.54L142.26,56c-17.36-5-35.16-3.19-52.73-.52L89,54.92,88,53,79.27,41.3l-.6-1Zm-1,121.87.29-.72L76,158l1.7,1.57.41-.1,1-1.76,2.3-4.07.8-1,.37.62.19.81L79,160.87l1.7,1.87-.75,1-3.81-3.67Zm2.91-42.34-.83-6.26.32-.19,7.2,1.76.94.43,1.09,1.16L87,115l-.7,1H84.5l-1.61-.86-.6.28.14.48,2.07,1.87,2.44,1.47-1.45,1.44-1.32-2.58-2-2.15-.65.18.51,1,.11,2.1-.85.86-1.05.15-.89-.72Zm-.88,63.33.32-.15.56,0,1.14,1.25,0,.53Zm2.91-78-2-2.34,3.76-.28,1.88-.62,2.35.18,2.73.15,1.51.19c3.7,1.56,5.16,2,8.93,0,7,.36,14-.44,21-.81l7.14-.87,3.2-.66,1.78-.53,1.28-.15.09.06-6.67,15.53-5.52,12.19-1,1.63-3-1.54.76-1.86,8.8-20.55.7-2.2-.74-.19-2.59.48-4.9.57L114,101l-5.28.19h-7l-3.47,0L93.47,101l-.65-.11L91,100.8l-5.54-.72-1.65.2.84,1.71,4,4.55,13.78,15.82.57.9-2.77-1-3.44-.63-.61-.57L92.17,116l-6.5-7.27Zm-1.74-8.22.2-.42h.27l1.6-1.58h1.93L84.46,91l1.21-1.34.89.09,0,.43-1.26,1.58-2,1.34-2.08.86Zm.33,51.34,1.37-.2,3.38.05,32.26.09.24.3.05,1.67-11.76.09-8.09-.14-16.37.05Zm-.33,47.22.42-2.54.81-1.3,1.78-1.9.66-1.24.19-2.3-.33-1.53.2-.09.74.43L84,183.3l.37,2.29-.28,1.33,0,1.1.42.2,1.88-1.72,1.32-.58,1.46-.14,1.41.62-.14.19-.47.29-1.32,1.05-1,2.63L87.46,193l-.61,1.58-.8.71-2,1.2H82.47l-1.54-.68-1.7-1.43Zm1.09-.62.38,2.24.27.57.94.86,1.74.39,1.08-.24,1.79-1.43.75-1.53.34-1.92-.47-.62L85.58,192l-1.18,1.1-1.6.1-1.09-.67-.32-.58,0-2.15.51-.9.28-.78-.47-.09-1,1.25Zm1-100.9.52-.62.13,0L83,89.86,84,89l.43-.09.28.42-1.5,1.25-1.47.48Zm.23,103.33-.42-1.15.37.54,1.88,1.14.62.23-.51.06-1.09-.15Zm1.6-113.88L83,76l1.32-5.11,3.11-8.42,2.48-5.92.81-.24v.34l-1.46,3.19-3,7.94-2,7.07-.94,5.31.15,3.54.56,1.77.9,1.28,1.21.77,1.65.19,1-.33.85-1,.09-1.43-.6-.3-.7.83-.44-.15-.61-.68.29-.84.85-.78,1.21.06.67.48c1.64,2.53.5,4.58-2.12,5.39L86,88.67,84.78,88l-1.32-1.33L82.67,85ZM83.56,153l-.8-1.34,2.73-.06,19.38.2,11.79.06.47.27.29,1.35-.38.38-6.58-.15-26.53-.09Zm-.85,80.77-.24-.48h.42l3,1.43L89.16,237l-.25.44-2.35-1.54Zm1.64-150c-1-7.36,4.41-20.68,7.58-27.62l.76-.15.27.15L91.7,59,87.93,69.46l-1.93,7-.71,5,.15,1.47.65,1.91L87.46,86l1.13.33-.48.38-1.26.1-1.27-.67L85,85.41Zm.05,113.88.1-.13,1.22-.68L87,196l1.09-1.72.56-2.39.85-3,1.41-1.58.56-.2.27.14.06,1.54-1.23,1-.51,1.49,0,1.28.57.58.28-2,.79-1.1.06,2.54-.47,7.59-.2.57-.69-2,.42-2.06-.51-.18-.4.42-2.3,1.53H85.91Zm4.42-32.88-4.14-9.89,3.11-.15.19.05,8.09-.05,21.5.24.32.34,1.45,5.69,1.09,2.72,1.79,4,1.79,4.3-.19.15-4.93-.06-18.07,0-10.12-.1Zm-3-127.65L86,36.9l13.3.06.34,2.72v4.78l-1.75.14-6,1-2.54-3.31ZM84.4,233.19l-.14-.14,1.12-.2,2.17,1,2.79,2.06-.58.57-1.5-1Zm.38-10.43.6-1.61,7.87-17.78,1.74.33v.48l-.8,1.63-.94,2.43-4.81,11.67,0,.46c8.26-.74,15.44-.42,23.61-.18v-.57l-2-2.63-6.44-8.08-3.85-5.12,1.3-.24.34.54,14.73,18,.32.71c-10.6-.84-18.9-1.1-29.54.06Zm.66-37.31-.33-1.92.65.15,1.83,1.23-.78.15-1.37.9Zm.47-87.52.79-.47,2.41-1.68.74,2.5-2.15,0Zm.32-16.05.19-3.34.75-3.4,1.47-4.87.47-1.73,2.49-6.69L92,60.18l.33-.63,1.7-3.62.6-.29c-3,7.72-6.88,18-6.72,26.38l-1.37,1.43Zm-.09,87.5-.09-1.23.24-.15,1.35,1.2.38-.15.15-2.39,1.21,4.93v1.19Zm1.23-29.1L87,132.2l.33-.81,1.27-1.34L90.66,129c3.21-1.41,8.43-1.34,11,1.34l.15,2.81-.09,7.56-.28.77-1.32,1.43-.14-.24V138.8l-.15-2.49,0-4.35-.62-.72-1.37-.52-3.33-.18-3,.37-1.74.58-.9,1,.2,4.78V143l-1-1Zm-.61,148.44-.85-.09-.09-3.83.32-2.57,2.21.09.2.09,9.17,0v4.78l-.2,1.53L87,288.68Zm.47-55.87.09-.18h1l2.07,1.09,1.5,1.43-.85.34-1.31-.95ZM88,199.73l-.18-.38.6.05,1-.43.56,1.72Zm.85-119c-.22-6.64,4.19-19.1,6.68-25.09l.67-.15-3,9.19-1.74,7.5-1.17,5.88.09,4.19-1.09-.33Zm-.79,191.5,0-.66,1.94-5.35,1.59-5.35,1.41-6.66.47-8,.71-.2.33.77.09,5.15-.09,1L94,256.51l-1.41,5.88-3.33,9.75Zm2.06-134.72-.29-4.64.24-.33,3-.81,2.64-.2,2.26.33.84.34.14,3.82.15,7.52-.47.37-1.09.1-.27-.29.09-.86.84-1.24.19-2.05-.32-1.92-.85-1.81-2.88-2.73h-.46l-.43.24.43.57.66,1.77-.43,1.19-2.83,2.45-.79,2,.28,1.34,1,1,.28.48L90.79,144l-.56-.62v-2Zm.2-41-.11-2.39.8-1.48,1.61-1,1.22.29.89,1-.1,1.43-.66.72L92.64,95l-.43-.82-.51-.37-.62.81.09,1.47.38,1.16.94,1,1.37.57,2,.09,1.9-.66,2.06-2.06,1.36-3.35.76-3.4.8-.7c.4,6.26-5,14.27-11.53,9.69ZM89.2,241.6l.18-2.2.47-1.19L91.17,237l1.13-.82,1.6-.43h2.26l2.45.67,1.88,1.53c7.42,6.64.82,27-2.26,34.07h-.71c1.89-7.07,10.76-30-.42-34.93l-2.87-.47-2,.51L91,238.26l-.89,2.24.38,1.62,1.5,1.4.85,0,.18-.57-.41-.66.09-.86.7-.81,1.27-.1.85.67.42.66,0,1.64L94.47,245l-2.3.33-1.23-.39-.89-.95Zm.65-9,1.23-.05.33.15,2.35,1.91,0,.2L93,235Zm9.23-119L91,103.76c5.32.22,10.62.5,15.94.49,5.59.12,10.54-.77,15.81-.77l-8.1,19.45-1.87-.33,3.48-8.9,2.91-7-.09-1-5.93.42-.19.11-3.67.09-6.2.09-6.41-.29-1,0-.38.34.2.43L107.69,122l.29.57-1.14.19ZM89.81,219.18l.8-1.62L94,210l.1-.35,2.49-5.83,1.65.1.66.73,10.35,12.9.94,1.53-2.45-.09-13.08-.11ZM91.7,81.06l.09-3.72L92,75.62l1.88-9.47L97.39,55.3l.89-.14c-2.39,6.65-8.5,23.76-4.23,30.83l1.08,1.3,1.18.66,2,.38,1.84-.34,1.41-1.09.66-1.3,0-2.1-.76-1-.71.09-.14.37.34,1.16-.67.77H99l-.71-1.07L98.46,82c3.5-3.22,5.36,1,4.56,4.24l-.79,1.34-1.7,1.29-1.13.44-2.4,0-1.59-.57-1.32-1.05-1.45-2.35Zm-.38,93.87-.42-1.82,3.75-.05,30.21.2.61.9.28.86-.8.1-13.08,0L100.49,175l-5.55.1ZM90.23,272l1.09-2.86,1.26-4.69,1.51-5.2,1-4.88.37-5.07-.19-1.91-.27-2,.74-.23.66,2.53-.09,6.11-2.26,9.28-2.25,7.17-.94,2Zm1.7-175.69-.14-.85,1.88,1,1.88,0,.76-.28,1.45-1,.61-.72,1-2.24.34-2.06,1-.39c.5,4-3.45,10.18-7.91,7.74Zm-.05-5.48.76-1.78.27-1.23.24,0,.28.91-.65,1.57-.61.62ZM90.85,241l.14-1.25.13-.33.76-1.05,1.08-.72.76-.24L95,237.3l2.26.48c9.82,4.75,1.39,27.72-.58,34.21l-1,.15,1.45-4.54,1.65-5.5,1.28-6,.65-4.6v-4.68L100,243l-1.4-2.49-2.08-1.39h-2.3l-1.14.39-.88,1.28-.29,1.67-.33-.18Zm1.64-59.74-.56-2.06.42-.28h8.57l.18.09,8.94-.09,18.67.24,1.5,2.19H114.84ZM92,201.84l.42-2.06.2-2.44c5,1.45,8.26,1.88,13-.62,4.24,3.67,11.56,3.14,15.75-.47l.85.81,3.29,1.34,3.2.71,3.06-.19,3.47-1.47,2.69-2,2.21-.33,2.16-1,2.91,2.1.34.48c-4.32,3.31-9.15,6.38-14.63,7.12l-3.39-.05-3.38-.81-1.88-1.1-.9,0-.89.58a19.38,19.38,0,0,1-13.08,1.05l-3.34-1.58-1,.24-1.7.48-2.63.29-3.25.09-2.72-.57ZM93.43,79.2l.47-5.26.8-4.44,2.73-9.84,1.74-4.5.9-.24v.44l-2.26,6.58-1.93,6.84-1.27,6.89,0,1.14,0,3.49.27,2.25L95.73,85l.76.72,1.27.81h2.08l1.41-1-.11.57-1.07,1.14-1.61.44-1.36-.15L95.88,87,94.79,85.8,93.72,83Zm-.09,11.71.94-1.67.51.18.34.63-.7,1.28h-.38ZM91.88,272.19l2.64-7.94,2-7.26.76-4.21L97.1,247l-.84-2.35.84-1.53c3.6,8.83-1.35,20.57-4.28,28.86Zm1.27-39-.66-.91,1.6.15L94,233.66Zm.47-36.33-.89-.61v-1.54l.18-.24c2.68,1.06,8.3,1.74,10.64-.23l-.28-3.83.09-1.82-.09-2.13.13-3.07.9.72.84,2.35,0,1.61.13,7.8-1.3.9-3.35.72-1.79.14-3.66-.38ZM92.78,188l.8-3.38,1.68-1.77,1-.29v.86l-.89.87-.81,2.28.14,1.72c.87,3,2.86,3.75,5.55,4.3l.09-.56-.7-.78L99,190l.23-1.15,1.75-1.63.8-1.34v-1.29l-.33-1-1.08-.82.18-.47,1.65.38.19,11.19a11.71,11.71,0,0,1-9.51-.53l0-.57Zm1,27.39-.51,1.05.33.33h.89l.66,0,6.39.19.18.09.53-.13,1.64.24,2.17,0,.09-.66-3.38-4.87-2.44-3.21-1.7-2.29-.53-.48-.51.72ZM96,95.6l-1.13.05.33-.25.61-1.29L97,92.87l.85-2.53h1l-.09,1.73-.9,2-.85.9Zm-.84-3.79.75-1.62L96,90l.89.18.09.3-.51,1.71-.76.86Zm.28-10.88-.15-3,.11-1.73L96,71.89l2.4-9.36,1.36-3.92,1.56-3.73.51-.15.34,0L100.87,58l-2.73,8.73-1.65,9,.05,4,.19,1.63.88,3.06L98.7,85.8l-1.18-.29-1-.76-.72-1.34ZM93.72,272.1c2-6.34,4.53-12.66,5.17-19.27l0-5.88-.61-2.33-1.45-3.35-1.37-1.39h1l1.5,1.05,1.23,1.87c2.75,8-1.49,22-4.43,29.3ZM94.23,216l.94-2.1.61-1.63,2.4-5.06.57.43,0,.2,1.23,1.28,5.21,7.27-4.74-.15Zm.61,18.55.66-3.06.28-.62,1.09-1.34,2-1.29,1.18-.29,1.93.14,1.36.48,1.36,1.58.14,1.82-.56,1.53-.7.72-.94.42-1.47-.24-.74-1.24.52-1.48.51-.53.85.14.74.92.47-.24v-1.58l-1.26-1.1-1.51-.24-2.06.57L97,231.33l-1.07,3.34ZM97.67,81.68c-1.78-5.82,2.66-23.07,5.78-27.19l.61.19c-3.16,6.32-6.55,18.8-5.4,25.9Zm.47,26.73-.85-1h2.4l.18.09h6.35l6.46,0,4.7-.34.22.14-6.38,15.26-1.38,0-1.26-1.15-7-8.51Zm-.09,102L96.49,214l.29.47,4.32,0,.19-.72-1.83-3-.71-1h-.33Zm-1.47,24.23.56-2,.71-1.3,2-1.48,1.14-.09,1.41.48.19.28-1.56,0-2.44,2L97.52,235Zm.85-20.94L98,212.3l.76-1.28,1.5,2.66Zm1.88-135.1a60.94,60.94,0,0,1,5.59-24l.9-.29L104.54,57l-1.93,6.5-1.23,5-.94,5.93-.13,3.2.47,2.54-1-.11Zm-1,156.52.42-1.34.85-1,.38,1.14-.85,1.78-.51-.29Zm.8,36.76,1.23-2.83,2.39-7.35,2.07-8.81.33-7,.62.23c1.38,5.19-2.62,20.89-5.65,25.85Zm1.55-173.49.75-.86.52-.77,1.23,1.72ZM102,80.21l-.81-1.73c-.34-5.9,2.94-20,5.93-24.37l.66.24-.47.81L104,65.87l-1.68,8.22-.18,4.49Zm-2.11,156,.09-.86.51-.72.7.44v.72l-.42,1.14Zm1.59-126.89-.09.39,5.92,7.92,2.07,2.83.51.24.44-.87,4.14-9.94-.24-.42-1.93,0-4.18,0-5.56-.3Zm1.18-14,.18-1.24.66-1.49,1.09-.66,1.31-.06.9.92-.06,1.53-.5.62-1,.19-.85-.91-.61.48.38,1.77,1.32.81,1.46,0,1.54-.43,1.65-1.44.57-1.05,1.18-2.87.65.29-.32,2.34-.76,1.63-1.46,1.53-2.07,1-1.46,0-2.35-.53-.93-1Zm0,15,.79-.06h4.29l5.45.1.1.53-2.82,6.78-.81,1.58L108,117.39Zm-1.42,161.52c2.73-6.21,6.41-18.49,5.32-25.61l1.07-.09.25.52.1,2.72-.3,3.34-.83,5.56-1.61,5.31-2.26,6.21-1.12,2.09Zm.33-34.21.14-1.34.38-.76,1.56-.2-.85,4Zm1.18-104.61,0-2.3c2.42-2.32,9.72-2.46,12.46-.62l0,1.82-2.91-.77-2.17-.19-2.53.19-1.7.29-1.22.66,0,3.11.19,4.59-.1,3.39-.65-.57-.8-1.48-.43-4.41Zm.94-51.43c-1.33-8.08,2.35-19.93,5.12-27.3l.81-.13a109.18,109.18,0,0,0-5.12,21.12l.18,5,.71,3.34,1.59,3.16c2.34,2.66,6.57,4.49,9.32,1.33l.79-1.53.09-1.32-.47-1.49-1.21-1-.76-.14-.56.53.42.57,0,1.29-.62.53-1.26.13-.9-.7-.57-1,.34-1.34,1.27-1.2,1.12-.38h2l1.22,1,.86,1.64,0,2.77-.14,1L117,88.61l-2,1.44-2.55.53-1.59-.29-1.94-.48-.51-.19-2.07-1.91-1.65-2.48Zm.23,9.46.8-3.63,1,1.1.06,1.43-.58,1ZM102.7,271.62c3.19-6.32,6.86-18.69,5.69-25.62l1.18-1.49.18.29.29,3.11-.33,2.87.13.53L108,260.57l-2.46,7.22-1.74,3.78ZM105,95.93l-.15-.19,1.41.1,1.89-1.29,1.26-1.63.53-1.59.7.15,0,1L110,94.07l-.66,1-1.7,1.24-1.44,0Zm.32-17.21c0-8,2.66-17.17,5.23-24.7l.74.09v.38l-.79,1.68-1.83,6.3L107,70l-.32,2-.29,2.06.14,5.59.47,2.63,1,2.29,1.45,1.62,1.55.87,2.68-.1.76-.43.74-1,.33-1.73.43.11.29.81-.2,2.1-.56.9-1.59,1.06c-4.67.35-6.5-1.82-8-6.17ZM104,242.27c-.23-4.83,4.41-6.39,8-4.73l1.61,1.49.89,1.52,1,3.59.1,3.38-.43,3.83-1.83,8.32L110,270l-.56,1.09h-.62l.29-1,3.19-10.28,1.75-7.5.38-3,.09-3.44-.43-3.4-1-2.19-1.69-1.72-2-.43-1.22.09-1.18.48-1.13.72-.84,2.1.14,1,.85,1.34.71-.29-.29-.67.18-1.15.76-.39,1,.15.56.95v1.68l-.47.77-1.5.75-1.5-.48-.71-.86ZM104.2,228l.38,0h2.22v.29l-1.32,1.38-.29-.57Zm.61,9.71-.23-.15c.16-6.1,3.41-12.39,10.2-10.51l1.52,1.1.69,1.34.25,2.14-.71,2-1.08.81-1,.29-1-.33-1-1.34.47-1.39.62-.37,1.37.13.56,1.1.56-.19.24-1.15-.33-1.91-1.28-1.15-1.07-.38-1.65-.15-2.08.59-2,1.91-1.46,2.87-.84,4.06Zm.94-97.89-.27-6.65.18-.61.47-.24,2-.38,1.13-.09,3.44.23,2.39.91.09,6.64-.38,1.72-1,1.38-1.46,1.06h-.51l.09-.77.89-1.05.56-1.28V138l-.65-1.49-1.22-1.29-1.17-.67-1.84-.71-.86.14.15.33L108.9,136l0,1.49-1.82,1.71-.94,1.73.27,1.62,1.17,1.1.06.33-.8,0-.9-.38Zm.33-48.74.61-1.68.71.67v.77l-.51.71Zm.67,20.73-.53.48.1.29,2.35,3.83.81.27.74-1.65.94-3.07ZM104.9,271.42c2.22-5.48,9.68-26.37,3.3-30.92l1.55.19,1.14.86.51,1,.61,3.35c.57,6.58-3.5,19.43-6.26,25.38Zm1.23-79.72.15-5.54.52-1.34.09-.33,1.18-.81.09,10.79.42.68,1.84.66,2.82.2,3.29-.43,1.74-.58.75-.8-.19-9.62.29-.86.89.81.76,1.87v8.7c-2.79,3.77-11.28,4.68-14.45,1Zm1-113.36c-.1-8,2.29-17,5.12-24.32l1.08-.06c-2.85,8.44-9.53,24.44-1.55,32.37l-.19,0-.23,0-1.23-.44-1.32-1.29-.65-1.15-.47-3-.2-.86ZM105.85,240.5l1.08-1.19.29-.19,1.54-.48,1.93.14,1.6,1.19.72,1.49.7,2.81,0,4.83-.09.34v1.43l-1.41,6.78-2.73,9.52-1.6,4.07-1.14-.06c2.45-6.2,8.56-23.15,4.67-30.06l-1.75-1.24-1.78,0L106,241Zm1.55-127.7.38-.14,2.21-.1.14.43-1,2.35Zm.15-20.31.08-.62.91-1.2.18,1.4L108,93.39ZM106.41,235.1l1.28-3.49.74-1.14,1.32-1.39,1.65-.81,1.32-.2,1.7.48,1,1.2,0,1.24-1.63-1-1.57-.1-1.64.33-1.13,1-1.27,2-.67,3-.83.24-.34,0Zm2.64-194.94.14-3,.24-.24,11.09.14.39.57-.1,5.78-6.3-.09-4.71,0-.52,0ZM107,283.24l.09-1.64,1.18-.18,2-.2,4.2-.76.7.13.94,1.45,1.83,2.34,2,2.81.85,1.64c-4.22-.3-11.06.62-13.55-.2l0-2.63Zm1.88-206.38.19-4,1-5.83,2.4-7.94L114.42,54l.61-.09c-2.39,6.65-7.31,20.87-4.1,27.48l-.51,1.34-.62-1ZM108.49,236l.05-1.76,1.3-2.35,1.18-1,1.27-.34.28.05-.61,1-1.54,2.1-.94,2.39Zm.52-49.9.18-3.2.33-.29,1.32,0,.14,1-.65.82-.62,1.47v1.49l.51,2.15,1,1.58,2.7,2.48.56-.33-.94-2,.09-1,1.64-1.77,1.94-1.87.33-1.77-.53-1.38-1.12-.82.24-.24,1.41.38.23.15.23,11-.28.24-3.57.81-3,0-1.88-.48Zm2.91-87.88-1.37-.15L112,96.55l.71-.24,2.73-.2,1.64,0,4.42-.24,3.71-.63,3.82-.48,1-.28,4.23.62c-4.28,1.6-9.57,2.23-14.07,2.62Zm-1.23-23.62C111.18,67.19,113.28,61,116,54l.76-.09-.38,1.2-3.11,10.46-1.55,7.6.19,7.36-.42.15-.39-1.59Zm-.47,161.26.89-2.21.62-.47.61,1.15-.84,2.1-.81-.15Zm.57,34.83c2.35-7.73,6.75-18.63,5.87-26.56l1.37.18.28.48-.18,5.07-2.32,8.84-2.29,6.79-2.21,5.06Zm2.4-190.58-.66-2.64,0-2.67.57-4.4,1.08-5.07,2.64-9L117.8,54l.85-.13.27.13-1.21,3.59L115.12,66l-1.32,7.74-.14,6.16Zm.14,13.6.33-1.08L115,93.78ZM112.1,236.44,113,235l1,.35-.89,2-.53-.24Zm1.7-144.76-.09-.2.75-.28L116,92.34l1.56,1.29-.62.2-1.55-.72Zm-1.64,178.78,1.55-3.43.8-2,.09-.95,1.08-2.49,2.49-8.84.85-4.88,0-3.54.47-.23,1.27-1.34c1.15,5.55-2.55,14.1-3.86,18.49l-.61,1.34-.66,1.87-1.23,2.76-1.08,3-.75.52ZM114.89,79.2l-.15-3.1.24-3.59,1.5-7.69,3.44-11,6.26.24,6,.66,4.14.81L141.68,57l.06,1.1-1,3.86-1.12,1.54,0,.43,6.59,13-1.69.77-1.93.7-1.09,1.2-.38,2.2-.47.29-4,2.67-.42-.42-.38-.06L135,86.09l-.09.81.27.62,2.22-1.72,1.78-.9,1.27-.15,0,.76-.62.53h-1.32l-.51.24,0,.33,1.35.62.85,1.29.2,1.91-.47,1.2-1.61,1.58-1.41.57c-5.72,1.37-13.43-2.59-17.91-5.88,1.08-3.42-.11-7.12-3.77-8Zm-1.23,158.67,1.08-2.24.71-.44-.94,3.21-.2.14Zm.23,32.55c3-7.63,5.83-14.29,7.67-22.61l.19-4.15-.8-2.2-.71-.77-.65-.43-1.23-.19,1.13-.67,1.6.29,1.22,1.2.61,2-.14,3c0,6.5-4.69,18.29-7.71,24.27Zm1.7-179.27.13-.28.67-.11L119.83,93l.27.42-.89.06L118.08,93Zm.51,43.68.33-5.63v-1.91l.38-1.53.57,1.47-.29,2,.42.71.62-.57,2.06-1.63,1.46,0,1.47.53.51.48-1.6.77-1.26.86-1.14,2.19-.42,2.87-.65,2L117,139l-.74.14,0-1.71.7-.34,1-1.48,0-2-.7-.61-.38.19.19,1.87-.75,1Zm-.74,103.91.56-1.92.42-1.24,1.83-2.78,2.74-2.63,1.12-.52,1.41-.76,2.36-.87h3.62c7.46.6,8.41,10.38,2.2,12.15l-2.26-.44-1-.85-.8-1.54.33-2.34,1.28-1.19,1.36.05.6.57.11,1.29-.67.72h-1.22l-.46.57.5,1.15,1.23.58,1.56-.06,1.45-1.1.7-1.47.2-2.3-.29-.9-.76-1.54-2-1.66-2.08-.73-3.09.14-2.79.77L120.3,232l-2.22,2.77L117,237Zm1.3-96.69-.18-1.49c25.43,10.77,46.89,36.87,52.92,64.24l-.62.15-1.26-.48c-6.39-27-25.88-49.88-50.48-61.61Zm2.79-50-2.36-1.82.42-.34,1.27.71,4,2.15.09.29-.94.09Zm-3.64,148.62.72-1.95.66-.58,1.37-.77,1.17.06,1.08.13c6.34,1.71,3.75,11.71,2.67,15.79l-2.86,8.16L117,269.8l-1,.09c3.15-6.38,8.39-19.84,7.53-27.48l-.89-2.15-1-.9-.78-.39-1.75-.19-.94.43-.84,1.25.09.9.33.34.71-.67.61-.2.65.92-.32,1.23-.62.44h-1.59l-.76-.86Zm2-100.55-.47-.43c4.07-1.41,2-5,3.8-8,3-3.28,6.87-2.27,8.38,1.77l-.15,2.57-1,1.73-1.5,1.67-.38.53-.61,1.91.47,3-.47-.3-1.45-1.24-.71-1.68.47-3.1-.56-.48-1.79,1.58-1,.38-1.56.43Zm0,9.51-.38-2,.24-.09,2,.37,2.17,1.34,2.77,2.77,1,2.35.42,3,.33.87,1.46-.9,1-.3H131l1.93.68,2.77,2.48,1.38,2.58.18,1.91-.15,2.06.48.42,1.84-.42,2,.42,2.21,1.34,1.88,2.25,1,2.73.15,2.28-.67,1.25-.32.91c7.17-1.36,11.31,5.92,8,11.13l.42.54,1.88.47,1.75,1.14,1.83,2.1,1.41,2.88.47,2.39v2.67l-.65,1.34-1.23-.42.52-2.17c-1.21-10.92-8.73-8-16.22-6.3l-1.38-1.09.15-.2,4-1.05,3.16-1.19,2-1.64.76-1.86-.11-2.29-.74-1.72-1-1.24-2.06-1.29c-3.88-.8-10.91,3.83-14.2,4.69l-.85-.92,5.92-3.24,2.82-1.87,1.61-1.62.56-1.87-.19-2-.94-1.72-1.13-1.15-1.6-.9-1.73-.24-1.61.43L135.58,171l-6.31,7H129l-.51-.67,0-.53,4.93-6.73,1.65-3.64,0-2.53-.81-1.82-1.68-1.62-1.56-.81-1.79,0-1.41.67-1.59,1.62-2.92,5.83-1-2.1.23-.2,1.38-4.3.23-3.71-.71-2.63-1.17-2.11-2.73-2.3Zm.61-22.42-.46-1.58,2.2,1Zm0-38.18.33,0,6.12,3.49.23.28h-.65L122,91.63l-2.3-1.34Zm-.1,141.71-.84-2.59,3.77.2.27.24Zm-.6,6,.85-1.62,1.4-1.86,2.54-2,3.86-1.59,3.38.06,1.7.66,1.45,1.38.56,1.3.11,2.39L133,237l-1.55,1.1-1.32-.24-.34-.58.71.05.61-.29.67-.62.33-1.29-.29-1.2-1.12-1.14-1.7-.86-2.5-.09-2.3.62-1.55.81-1.6,1.38-1.5,2.06Zm1.18-82.39-.11-.77h.34l3,3.07.09,1.52-1.27-1-.56-.15-.2,2.58Zm1.63-13,.25-.13.56-.2,1.36-.66.28,2.28-.56,0Zm2.07-9.56-1.35,2.59.23,1.48h.37l.57-1.62.71-1,.8-.38,1.78.14.84.87.25,2.39L126,137.6l.09.39.47,0,1.09-1.16.85-1.71-.06-2-.65-1.44-.65-.66-1.5-.72-1.57.28Zm-2.11,104.73c1.49-3,6-5.19,8.79-3.74l-1.12.44-1.27,1.42-1.93-.09-1.93.82L121.75,237Zm.29-23.85-.15-1.44,1-.67h1.56l1.32.77h.56l.13-.68-1.5-1.38-3-2,.18-.28,1.32-1.16,1.21,2.49,2.14,2.29.45-.13-.56-1.43.19-1.88.7-.71,1.08-.09.62.33,1,1.53.71,2.53.46,5.46-1.6-.3L123,214.64l-1.41-.76Zm.88-23.05.1-3.86.61-1.52,1.46-1-.14,9.7v1.73l.33.33,2.87,1,2.77-.05,1-.48,1.32-.43,2.63-1.63,0-6.4.52-.15,1.51,1.82.14,6.45c-3.85,3.82-11.43,4.08-15,0Zm1.89-126.5-.19.63,1.18.09,1.45-.52,4.28-1.45,4.47-1,2.68.09.57-.48.08-1.05L137,58.89l-3.57.48-.74.18-3.92,1.2L125,62.81Zm-1.23,174.06,1.41-1.2.23-.24,1.27-.47,1.47,0-.19.81H126l-1.32.33L123,237.69Zm2.91-42.78-.51-.75.09-6.8.15-3.44.52-.72.89-.23.47.05.85.57c.39,3.4-4.41,2.69-1,8.51l2.54,1.77,1.6.14.09-.53-.42-.28-.85-1.63.15-.19v-.77l1.69-1.43,1.31-1.62.14-2.44.56.67.24,2.63-.18,5.15-2.35,1.34-1.51.53-2.26.19ZM126,173.2l-.28-1.33,3.11-5.45.46-1.43-1.64-1.49.51-.94.29-.2,2.87,2.92h.14l1.64,1.62v.39l-.57.86-1.79-1.58h-.41l-1.88,3.4-2.21,3.53Zm2.59-106.72-1.93.63.14.57.85.38,2.06-.18.76.57,1.5.66,2.88.29,1.78-.42-.33,1.14-1.79,4.06-.09.63.52.09.61-1,1.51-2.68.47-2.76,1.32-.29.51-.53-1.6-.43.09-2,.38-.9.38-2.2h-.38l-1.5,1.72-3,.42Zm.24-1.23-1.85.48.38.51.9.11,1.22-.48,1.79-.62,1.59-.86,2.35-.67,1.61-.2-.09-.57h-.67l-2.25.33-1.31.3Zm-1.85,57-.13-1.38,1.18-1.78,3.71-3,2.82-1.43.29.2,1.21,5.73.06,3.77-.48.78-.85.81-1.5,0-.7-1-.38-2.87h-.38l-.8,1.91-.65,3.88-1.84-.86,1.32-1.53,1.36-2.15.24-1.58-.48-.05-.8,1-.89.67-1.41-.09Zm-.18,21.27.42-2.1.43-1.19,1.79-2.15,1.07-1.73.05-3-.56-1.24,1.92,1,1.37,2,.52,1.71-.24,1.49.05,1.33.29,0,.36.18c2.12-2.14,5.47-2.57,7.44-.09l-1.65.33-1.54,1.16-1.28,2.29L136,145.73c-3,3.33-5.32,2.48-8.37-.43Zm2.06-2.29-.6,1.52.09,1.34.37,1.16,1.75,1.47,2.12,0,.88-.38,1.38-1.14,1-2.35-.19-.67-.43-.05-.47,1.1-1.92,1.53h-1.17l-1.36-.81-.62-1.86.8-1.67,0-.77-.51.05Zm1.94-96.92-.94-.38.52-6.79,2-.14.2,0h11.85l.05.2-2,3.34-2.67,4.87-5.45-.81Zm0,35.89L130,81.68v.44l.61,1.53,1.13.62,1.73,0,1.32-.37L138.06,82l1.8-.28.14-1-1.18-.86-1.17,0-1.74,1-2.78,2.06h-1.45l-.62-.92.19-.61.7-.62L133,81l.13-.57-.46-.58-1.23,0ZM131.3,68l-.56-.58,1.82-.81.53,1.73h-.85Zm-1.09,154.32.43-.81.61-.72.61-.05,1.46.34,1.45,1.09.47-.24v-.75l-2.77-2.49-1.32-.77.29-.14,1-.9h.14l1.09,2.09,1.79,2.36h.61v-.78l-.66-1.58.19-1.43.51-.72.44-.14.84,0,1.18.81,1,2.06.61,3.29.28,4.39-.84,0-3.43-.77-3.26-1.19-1.64-.9Zm.62-17.5c7.23-1.33,10-3.4,15.7-7.63,9.32,5.85,13.75,6,23.38,8.79l-.33,1-1.45,2.15-3.2,3.71-6.5,5.5-3.29,2.2-3.38,2-2.87,1.62-1.46.73-2.91-3.4Zm.23-24.08.43-.43,6.3-5.31,0-.76-1.17-1.9,1-.86,4.13,5.49-.24.42-1,.43-.79-1.29L139,176l-7.19,5.64ZM134.21,150l-1.54-1.25c5.36-1.13,4-3.07,6.72-6.93l1.93-1.05,1.64,0,.57.14,2.44,1.82.56,1c.73,4.77-.21,4.81-3.89,8.12l-1,2.39.23,2.3-2-1.91-.71-1.73.09-1,.71-2.58-.47-.38-1.09.76-1.41.67-1.5.09ZM133,106.73l0-1.63.7-1.14,3.2-2.92,3-1.91L141,98.7l.8,3.29.34,1.73.32,3.39-.37,1.78-1,1-.79.24-.94-.29-.94-1.49.32-2.39-.23-.46-.53.22-.13-.52-.61-.05-.56,1.05-.9,1-1,.49-1.09-.06Zm.6-39.42-.15-1.07.91-.27.52,2.33-.9-.18Zm1.22,68.86-.7-1.62,1.65.81,2.11,1.58-1.17.28-1.69.67Zm-.56-3,.37-.81,8.57-19.69,5.74-13.44,1.37.72,3.8,2.15-4.29,10.13-2.39,5.93c3.37,17.14,11.86,34.62,25.55,45.69l-.15,9.7c-8.28-15.58-21.69-30.17-36.83-39Zm.8-22.41.61-.57,2-3.69-.43,1.72-.61,3.35Zm3.2,42.24L136,151.27l1.28-.09,1.36-.38Zm-.14-77-.71,1.24.05,1.1,1,1,1.45,0,1.08-.47,2-.82.23-.72-.47-.75-1.23.14-1.54,1.48-.76.23-.79-.38.14-.9.6-.63.67.06.18-.53-.94-.34Zm-.66,112.55.14-.24,4-1.15,4.1-1.53.14-.57-1.27-2.1.33-.29.88-.14,1,1.39,2.54,4.43-1,.39-1.45-2-8.34,2.52Zm.33,5.69v-3.78h.09l3.06,3.06-.47.34-1.74.52ZM140.14,143,139,145l.09.82.42.13.43-.9,1.21-1.15,1.28-.23,1.08.66.61,1,.09,1.15-.36,1.1-1.09,1.1.33.48,1.26-.76,1.33-1.54.18-1.86-.33-1.67-1.07-1.1-1.09-.57-1.93.33Zm2.59,13v-1.34l.27-1,1-1.85,3-2.74,1-2.19,0-2.54,1.82,1.59.85,1.1.2,1.32-.2,2.54-.65,1.58.14.57.37.15,1.46-1.11.67-.42,2.1-.11,1.43.44,1.68,2.15c-4.29-.79-3.87,2.36-5.93,5l-2.15,1.48-1.79.19-1.89-.52L144.56,159l-.74-.77Zm.42-13.29.33,0,.56.24,1,1.34-.81-1Zm1.93,10.57-1,1.57.1,1.78.33,1.23.89,1.15,1.17.58,1.75-.06,1.64-.71,1.32-1.77,0-1-.38-.09-.56,1-1.13.71-1.37,0-1-.47-1.18-1.48.1-.95.46-1.25.76-.77,0-.61h-.7Zm-.23,3.58.18,0,.38.72,1.55,1.29-1.13-.24Zm3.94,6.5L147.67,162c8.07-.22,4.15-7.58,10.44-7.08l1.74,1.38,1.6,1.87,1.22,1.92.18,1.91c-2.16,4.89-6.81,1.3-8.09,8.84l-1-1.58-.47-2.34.8-2.77-.51-.33-.56.28-1.85.29-1.26-.39Zm0,33.93-.41-.57,3.32-.57.11-.68-.47-.81.14-.48h1l2.35,4.6-.14.51H154c-1.37-3-1.74-1.89-4.09-1.67Zm1.13-98.6c2.78-5.58,8.14-8.57,14.25-7.65l.29.48-.29.86.47.81,1.05.11.74.33-1.74.72-1.64.14L160,94.26l-1.5-.54-.34.11.25.57,1.59,1-.14.38-2.39,1.34-1.89.91-1.79.29.28.52,1.08.09,2.35-.57.29.18-.19,2.17-.66,1,.33.43.52-.19.8-1.58.42-2.57.72-.53,1.39-1.48.62,1.62L161,98.7l.43,1.48-.43,1.15.43,1.67-.52,1,0,.86-.2.14L156,102.05Zm.71,66.76,1.22-.13.81.09-.52,2Zm.42-46.87L151,117.1l.13-.44,1-1.28.74-.28.62-1.16,1.23.92-.06.37.67.73.74,1.66-.47,1.73-.7.71.28,1.49.61,1.24.57.09.85.77.51,1.1-.18,1.53-.94,1.28.75,2.35.75.57.76.28,1.36,1.44.14,1.72-.76,1.1.47,1.2.81,1.25h.69l1.52.57.51,1.09.29,1.25-.8,2.05,1,1.86.9,1,1.22,0,1,.59.94,1.43.19,1.56-.75,1.11.19.38,1.92,2.21,1.85,0,1.45,1.43-.09,4.06-.67-.48-.74.2-1.56-.14-1-.68-.71-1.42.24-2.16-.29-.57L166.58,151l-.66-.19-1.46-.15-1.09-1-.61-1.29.2-1.2.41-1.28c-2.66-5.21-.8-1.51-4.18-3.79l-.79-1.76.47-1.29.13-1-.57-1.76-.47-.44-1-.19-.93-.62-.81-1.58.11-1,.7-1.2.15-.9-.52-1.91-1.32-.44-1.27-.9-.71-1.73.71-1.71.76-.77.22-.62-.66-2-1.35-.62Zm.38-7,.14-.66.19-.33.8-1.2.32.1,4.61,3.1,10.31,7.8,5,4.87-.05,3.14-4.56-4.48-8.79-7.12-4.76-3.16-1.5-1.19Zm.84,39.39-.65.1.47-3.07.9.72,1.63,2-1.36-.09Zm2-46.22.81-1.66.13-.15,1.52.76,6.62,4.21,4.58,3.49,4.88,4.54,0,2.87-2.72-2.39L164.84,112l-9.46-6.45Zm1.18,53.48-.94,1.29.14.48.34.15.22-.57.76-.68,1.23-.48,1.07.2,1.08,1.33.2,1.87-.43.72-1.36,1.1.09.42.53.06,1.83-1,1-1.44.19-1.82-.38-1.47-1.46-1.25-.94-.24-1.41.24Zm.61,14-.14-2.2.81-1.77,1.65-1.53,2.67-1.15,1-.76,1.08-1.05.8-2.15.52.47.84,2,.05,1.95-.38,1.34-.89,1.49.42.57L166,169l2.63.2,1.23,1.14.47,1-1.65-.09-.94.29-1.88,1.58-.56,1-1.09,1.14c-2.26,1.6-4.66,2.32-6.58-.24Zm1.38-118.43L157.22,52l.24-3.29,1-2.78,2-1.82,1.18-.53,1.83,0,1.32.34,1.5.9,1.7,2.44c1.84,5,.41,10.78-2.59,15l-1-1.63c2.16-4.46,3.83-8,1.45-12.85l-1-1.15-.71-.39-1.32-.24-1.26.29-1.42,1.44-.94,2.59c-.23,6.58,4.15,13,8.76,17.24L165,70.6l-.75-.81,1.08-1.87-1-1.33-3.09-4.26L159,58.46Zm-.91,117.57.29,1.91.24.57,1.17,1.14,1.32.77,2.11-.24,1.69-1,.94-1.25.29-1-.29-.29-1.46,1.3-1.07.52-1.61-.24-1-.81-.56-2,.52-1.38.8-.63,1.32-.81-.24-.42-.85.22-1.37.44-1.54,1.29Zm1.32-86.6-.09-3.64.33-1.58.7-2.29,1.36-2.86,1.33-1.87,1.17,1.67-1.92,3.55-.58,1.66-.6,3.21.15,1.14,1.07,2.72,1.64,1.16,1.6,0,1.17-1,1-1.63.47-3.11-1.18-4.78-1.7-3-2.49-3.49-2.59-2.77,2.91-3.3.82.67.27.77-1.12,1.38-.15.72,2.59,3.1,2.35,3.53L168,78.63l.56,2.63-.1,2.77-.66,2.67-1.27,2-1.64,1-2.17.27-2-.42-1.12-1-.85-1.29Zm-.14,88.65-.51-1.67.14-.48.37,1.38.67,1.15.7.68.84.33.05.23-1.32-.47ZM159.14,121l-.47-3.44,1.18.86a59.81,59.81,0,0,0,13.22,29.68l-.09,2-4.11-5.26-3.27-5.31-2-4.39-2.68-7Zm.15,56.54,2.67.19,1.47-.48,2.06-1.82.76-1.43,1.27-1.2,1.5-.37,1.41.24,1.37,1.14.37.92-.89-.53-1-.2H169l-1.37.53L166,176l-.14.72h.38l1.64-1.1,1-.1,1,.33,1.22,1.49c.53,2.16-1.34,3.58-3.38,3.63l.29.47,1.45.2,2.2-1.05,1.18-1.48.15.29v2.48l-1.6.81-3.63.24-1.36.48-1.41,1.05-1,2c-2-2.84.64-4.58,2.06-6.3l-.23-.39-1.22.15h-2.4l-1.79-.92Zm.65-19.12.38.15.32.85Zm.85-106.53.1-1.77.75-1.62,1.08-.81,1.41,0,1.27,1.34.33.77.28,2.67-.56,2.87-.66,2-1.18,2-2.06-4.39Zm.1,32.12.18-2,.38-1.44L163,77l.74-1,1.09,2.3.7,2.72-.09,1.62L165.2,85l-.51.85-.75.68-1.09-.06-.51-.13-.76-.73Zm0,96.34h.56l.13.11,2,.47-1.23,2.35Zm.46-60.59h.43l4.47,3.63,4.09,4.11-1.5-.62-4.24-2.3L162.07,123ZM162,99.13l.24-.9.23-.15.47.15.15,1.19-.47.62Zm0,5.4.33-.72h.34l0,1.44Zm.24-2.24v-1l.52-.33.38.66-.25,1.11Zm.14-5.83-.05-.77.19,0,.51.24-.23,1Zm1-27.72-.32-.72.65-.58.57.38-.19.35Zm0,37.17.43-.85.1-.81,2.15-.1.11.91-.62,1-.75,0Zm.57-6.68-.28-1.06,2.07-.18.37.09.24.42-.29,1.54-.79.19-1.51,0Zm.57,31.92-.94-3L164,128l7,1.77-.23.24-2.07.43-3.09.52ZM164,97.22l-.18-1.62L165.6,95l.36.24.14,1.2-.41.52Zm-.23,5.88.28-.53L164,102l-.09-.59,2.11-.18.2.62-.09,1-.71.57Zm1.4-10.8.06-.82.37-.42,3-.15-.23.86-1,.48Zm-.41,95.87.05-1.29.56-1.2,1-1,2-.87,2.92-.13,1.6-.53.09,7.13,0,2.39-.62.46-1.64.73-2.17.1-1.09-.53-.88-1.15.09-.23,1.46,1,1.45.05,1.32-.48,1.65-1.48.1-.72-.48,0-1.31.86h-1.74L168,190.08l-.62-1.62.13-.81.86-.86,1.41-.63.75,0,.51-.52-.18-.29c-3.4-.15-4.92-.07-5.64,3.73Zm1-20.17.34-.86.13-1.14.19-.77.42.53,1.23,2.24Zm1-72.84-.19-.52.79-.53.67-.28.42,1.29-.38.66-1,.63-.2-.3Zm-.29,40.53-.19-.67,5.55-3,.29.14-3,5-1,1.38Zm.57-34.65.47-.33.94-.33.41.66-.27.95-1.37.87v-.33Zm.14-3-.2-.35,1.37-.66.51.81-.51,1-.7.47h-.33Zm-.09,7.54V104l1.07-.44.29,1-.85,1Zm-.62,84.88-.1-.62.67,1.1Zm1.36,4.88-.18-.63,1.36.39,2.17-.24,1.12-.33.71-.48-.15,7.83-1.17.35-1.6,1.19-.23-.62.09-.86.56-1.44,2-1.63,0-.67-2.16-.42-1.75-1Zm1.18,3.77-.15-1,1.76,1-1.14,1.25Zm1.46-56.44,2-5.79.36-.81.15,2.59-.09,7.5-2.21-3.25Zm0,62.46.24-.66L171,204l1.18-.81.76.05-.11,1.48.11,1-1.9-.24ZM34.82,36.81H173.11V288.92H34.82Zm-.93,253.06H174.05v-254H33.89Z"
            />
            <path class="cls-3" d="M34.26,151.61l.19,7.46,1.13.81,5.22,4.78,5.54,6.45,4,6,3.62,6.7,2.83,6.59,2.26,7,1.08,3.11.89-.05,1.55-3.63,3.68-8.23.37-1.76-8.8-7.21L51,172.54l-2.22-2.86-.84-.87L44.14,164,43,161.79l-2.26-2.92-1.41-2.1-2.49-4.87-1.93-4.06-.37-.3M55,216.7,52,223.11l.42.52,2.87,1.43,1,.72,15.19-33.55.38-1.38-3.82-2.68-.41.42L64,197,61,203.61l-1.47,2.87Zm17.41,12.72-.84,1.82.22.33.34-.06,3.43.3,1-2.1,9.27-21.08,3.34-7.94-3.63-1.86Z"
            />
            <path class="cls-3" d="M55,103.72l-1.13.63,15.24,17.86,2,2,.67-.33,3.34-1.15-.29-.57-15.09-17.4-2.07-2.54-1.79,1-.8.15.18.18m13.55,24.14-4,3.45,2,1.71,1.59-.38,1.6-.14c5-5.38,11.34-5,16.8-.67l1.41-1.44L90.43,129l2-.48,2.54-.48,2.91.43,2,.62,2.2,1.62.57.05,1-.77,1.5-.66,1.41-.24,3.06-.33,3.33.38,2.87,1.05,0-1,.29-3.59-.38-.29-3.56-.57-3.3.19-2.31.43-2,.72h-.29l-.85.28c-4.94-3.33-12.4-3.44-17.11.53a14.23,14.23,0,0,0-16.28,0Z"
            />
            <path class="cls-3" d="M63,272l-.23.68,1.08.47,3.48,1.19,3.94.62,3.68.78,4.61.62,8.55.33,5.27-.05,5.19-.19,4.56-.29,5.21-.52,2.45-.34,3.1-.52,4.24-.86,1.6-.15.13-.28L117.47,270c-17.44,2.71-35.9,4.32-53-1.29l-.44.77"
            />
            <polyline class="cls-3" points="76.22 98.65 76.59 99.42 77.06 100.08 88.4 113.23 95.64 121.83 96.54 122.6 97.39 122.6 100.72 123.26 100.78 122.88 90.05 110.36 88.08 107.97 80.41 98.94 79.75 98.94"
            />
            <polyline class="cls-3" points="85.35 158.15 84.91 158.06 85.35 158.59" />
            <path class="cls-3" d="M85.82,157.87h-.47l1.32,2.87,1.59,4.63L89.2,169l33.72-.47L121,164l-2-6.32-1.42-.14h-5.44l-17.12.2-4.05.14m3.62,5.74,0-1,1.13.28,2.27,0,.23-.53-.94-.18-1.18-.91.1-.82.56-.57.79-.18,1.65.33,3.25,2,.71.81-2.3,1.82-2.46,1.44-1.26.19-.66-.38-.43-1,.89-1,1-.28.23-.53-1.18-.09-2.16.57Zm13-.59.2-.66.37.09,3.2.53.23-.42-1.21-.29-1-1,.09-.81.66-.66.47-.15.28,0,1.41.33,3.47,2.2.72.86-2.82,2.1-2.35,1.06-1.23,0-.76-.77.06-.52,1-1.05,1.13-.29v-.33l-.37-.15-3.39.52Z"
            />
            <path class="cls-3" d="M88.26,52l-1.5.63,2.49,3.77.69-.29,1.85-.1,0-.09,1.88-.39,2-.18,3.39-.63,3.06-.2,5.79-.61,6.58-.23,1.3-.11a79.8,79.8,0,0,1,26.68,3.49l1.83-4.3C128.65,47.56,109,48.4,92.78,51.15"
            />
            <path class="cls-3" d="M91.64,198.68l-.18,1.25.24.52,4.23,1H99l4.9-1.25.47-.09,1.17.62c4.57,2.55,11.49,1.86,15.71-.9,7.88,4.89,16.56,1.48,22.86-4.32l0-1-.47-.14L141.55,193l-2.35,1.05-1.6.19-3.53,2.58-2.12.76-3.42.29-2.31-.24-2.83-1-1.26-.78-.76-.9-.42-.2c-3.88,3.9-11.44,5.16-15.38.68l-1.84,1-2.44.67-3,.33-2.87-.23-2.3-.68-1.18-.28-.29.19.15.57"
            />
            <polyline class="cls-3" points="107.87 203.55 106.28 203.28 106.32 203.51 107.78 204.89 120.19 220 126.5 227.21 129.93 227.6 129.93 227.36 119.3 214.12 111.11 204.18"
            />
            <path class="cls-3" d="M122.41,116l-4.14,8.94.14.43,2.87,1.29,14.25-31.45.09-.66-3.52-.29m4.19,39-.71,1.19.09.24,4.09,2.67,6.17-14.43,8.89-20.16.05-.58-1.09-.71-2.69-1.4-.32.2Zm4.83,4.49-.27.81,2.44,1.76,1.41,1.25h-.38l.57.42h.32l.34.59,7.06,6.11,2.82,2.92,6,6.69,2.86,4,2.83,4.3,5.55,9.28.65.72.15-.82.14-9.85-.61-.38-3.81-3.15-3.81-3.82-4.65-5.46-3.58-5.35-3.77-6.69-3.2-7.55-2.39-7.26-.66-1.49-.66.2-.61,1.05Z"
            />
            <polyline class="cls-3" points="132.53 203.6 132.28 203.79 138.35 211.16 149.13 224.4 149.55 224.31 150.82 223.68 152.84 222.39 136.98 202.56 135.06 202.98"
            />
            <path class="cls-3" d="M149,236.05l-2.42.1-2.34-.14-2.39-.23-.76-.14a45.71,45.71,0,0,1,5.8,12.12l.14.64,0,.93,0,.28,0,0-.17,0-.14-.2c-1.45-3.41-3.82-4.78-7.43-4.78-6,.49-8.87,4.94-8.15,10.92C132.13,265.6,142.31,277,149,284c6.41-6.54,24.19-26.17,15.9-36.6a8.74,8.74,0,0,0-9.23-2.34l-1.4.64-.63.46-.53.46-.45.51-.37.52-.58,1-.37.72-.12.2-.19,0,0,0-.05-.28.05-.93.14-.64a45.41,45.41,0,0,1,5.8-12.12l-.76.14-2.39.23-2.34.14"
            />
            <path class="cls-3" d="M59,89.84l2.43-.1,2.34.14,2.39.23.76.14a45.71,45.71,0,0,1-5.8-12.12L61,77.49l0-.92,0-.28,0,0,.17,0,.14.19c1.45,3.41,3.82,4.79,7.43,4.78,6-.49,8.86-4.94,8.15-10.92C75.81,60.29,65.62,48.87,59,41.86,52.58,48.4,34.8,68,43.09,78.46a8.74,8.74,0,0,0,9.23,2.34l1.4-.64.63-.46.53-.46.45-.51.37-.51.58-1,.37-.73.12-.19.19,0,0,0,0,.28,0,.92-.14.64a45.27,45.27,0,0,1-5.8,12.12l.76-.14,2.39-.23,2.34-.14"
            />
            <path d="M172.12,37.62v250H36v-250H172.12m2-2H34v254H174.12v-254Z" />
        </g>
    </g>
</svg>
