<svg xmlns="http://www.w3.org/2000/svg" xmlns:xlink="http://www.w3.org/1999/xlink" viewBox="0 0 208 326"><defs><style>.cls-1{fill:none;}.cls-2{fill:#fff;}.cls-3{fill:#6f7072;}.cls-4{fill:#1c1c1c;}.cls-5{fill:#facb1b;}.cls-6{clip-path:url(#clip-path);}.cls-7{fill:#f8261b;}</style><clipPath id="clip-path"><rect class="cls-1" x="33.96" y="36.48" width="140.4" height="254.02"/></clipPath></defs><title>KC-us-2c</title><g id="Calque_2" data-name="Calque 2"><g id="FR_-_EN" data-name="FR - EN"><path class="cls-2" d="M14.83,325A13.84,13.84,0,0,1,1,311.18V14.82A13.84,13.84,0,0,1,14.83,1H193.17A13.84,13.84,0,0,1,207,14.82V311.18A13.84,13.84,0,0,1,193.17,325Z"/><path class="cls-3" d="M193.17,2A12.84,12.84,0,0,1,206,14.82V311.18A12.84,12.84,0,0,1,193.17,324H14.83A12.84,12.84,0,0,1,2,311.18V14.82A12.84,12.84,0,0,1,14.83,2H193.17m0-2H14.83A14.83,14.83,0,0,0,0,14.82V311.18A14.83,14.83,0,0,0,14.83,326H193.17A14.83,14.83,0,0,0,208,311.18V14.82A14.83,14.83,0,0,0,193.17,0Z"/><path class="cls-4" d="M32.65,65c.39-4.51-3.51-8.21-7.56-4.36l-.83-1.19c4.52-2.93,2.29-8.43-2.71-8.69-5.1,0-7.58,5.68-2.95,8.69l-.83,1.19c-4.62-4.37-8.81,1-7.28,5.68A5.23,5.23,0,0,0,15,70.17a3.84,3.84,0,0,0,2.93-1c.81-.61,1-1.77,1.56-2.32.65.34.62.27.59,1a16.41,16.41,0,0,1-2.58,5.58,26.69,26.69,0,0,1,7.83,0,16.3,16.3,0,0,1-2.57-5.58c0-.7,0-.66.59-1,.55.53.77,1.75,1.56,2.32a3.81,3.81,0,0,0,2.92,1c2.39-.08,4.26-2.26,4.69-4.52"/><path class="cls-4" d="M198.09,65c.39-4.51-3.51-8.21-7.57-4.36l-.82-1.19C194.21,56.47,192,51,187,50.71c-5.09,0-7.57,5.68-2.94,8.69l-.83,1.19c-4.62-4.37-8.81,1-7.28,5.68a5.23,5.23,0,0,0,4.52,3.9,3.85,3.85,0,0,0,2.93-1c.81-.61,1-1.77,1.55-2.32.65.34.62.27.59,1A16.39,16.39,0,0,1,183,73.38a26.69,26.69,0,0,1,7.83,0,16.3,16.3,0,0,1-2.57-5.58c-.05-.7,0-.66.59-1,.55.53.77,1.75,1.56,2.32a3.81,3.81,0,0,0,2.92,1c2.38-.08,4.26-2.26,4.69-4.52"/><path class="cls-4" d="M175.63,260.83c-.39,4.51,3.51,8.21,7.57,4.36l.83,1.2c-4.52,2.93-2.3,8.43,2.71,8.69,5.1-.05,7.58-5.69,2.95-8.69l.82-1.2c4.63,4.38,8.82-1.05,7.29-5.67a5.24,5.24,0,0,0-4.52-3.91,3.81,3.81,0,0,0-2.93,1c-.82.61-1,1.77-1.56,2.31-.65-.33-.62-.27-.59-1a16.39,16.39,0,0,1,2.57-5.58,26.35,26.35,0,0,1-7.83,0,16.29,16.29,0,0,1,2.57,5.58c.05.71,0,.66-.59,1-.54-.53-.76-1.75-1.56-2.31a3.82,3.82,0,0,0-2.92-1c-2.38.08-4.25,2.26-4.69,4.53"/><path class="cls-4" d="M10.19,260.83c-.38,4.51,3.52,8.21,7.57,4.36l.83,1.2c-4.52,2.93-2.3,8.43,2.71,8.69,5.1-.05,7.58-5.69,2.95-8.69l.82-1.2c4.63,4.38,8.82-1.05,7.29-5.67a5.24,5.24,0,0,0-4.52-3.91,3.81,3.81,0,0,0-2.93,1c-.81.61-1,1.77-1.56,2.31-.65-.33-.62-.27-.59-1a16.41,16.41,0,0,1,2.58-5.58,26.35,26.35,0,0,1-7.83,0A16.45,16.45,0,0,1,20.07,258c.05.71,0,.66-.59,1-.54-.53-.76-1.75-1.55-2.31a3.84,3.84,0,0,0-2.93-1c-2.38.08-4.25,2.26-4.69,4.53"/><polyline class="cls-4" points="20.69 25.38 25.86 38.86 22.62 38.86 22.62 42.63 32.41 42.63 32.41 38.86 29.49 38.86 22.95 21.65 28.77 11.91 32.41 11.91 32.41 8.12 22.62 8.12 22.62 11.91 24.79 11.91 16.98 24.81 16.98 11.91 20.21 11.91 20.21 8.12 10.44 8.12 10.44 11.91 13.59 11.91 13.59 38.86 10.44 38.86 10.44 42.63 20.21 42.63 20.21 38.86 16.98 38.86 16.98 31.54"/><polyline class="cls-4" points="186.12 25.38 191.3 38.86 188.06 38.86 188.06 42.63 197.84 42.63 197.84 38.86 194.93 38.86 188.38 21.65 194.21 11.91 197.84 11.91 197.84 8.12 188.06 8.12 188.06 11.91 190.22 11.91 182.41 24.81 182.41 11.91 185.65 11.91 185.65 8.12 175.88 8.12 175.88 11.91 179.03 11.91 179.03 38.86 175.88 38.86 175.88 42.63 185.65 42.63 185.65 38.86 182.41 38.86 182.41 31.54"/><polyline class="cls-4" points="187.6 298.62 182.43 285.15 185.66 285.15 185.66 281.38 175.88 281.38 175.88 285.15 178.79 285.15 185.34 302.35 179.51 312.1 175.88 312.1 175.88 315.88 185.66 315.88 185.66 312.1 183.5 312.1 191.31 299.19 191.31 312.1 188.07 312.1 188.07 315.88 197.84 315.88 197.84 312.1 194.69 312.1 194.69 285.15 197.84 285.15 197.84 281.38 188.07 281.38 188.07 285.15 191.31 285.15 191.31 292.46"/><polyline class="cls-4" points="22.16 298.62 16.99 285.15 20.23 285.15 20.23 281.38 10.44 281.38 10.44 285.15 13.36 285.15 19.9 302.35 14.07 312.1 10.44 312.1 10.44 315.88 20.23 315.88 20.23 312.1 18.06 312.1 25.87 299.19 25.87 312.1 22.63 312.1 22.63 315.88 32.4 315.88 32.4 312.1 29.26 312.1 29.26 285.15 32.4 285.15 32.4 281.38 22.63 281.38 22.63 285.15 25.87 285.15 25.87 292.46"/><path class="cls-5" d="M79.82,156.6l-.23,0-.19.15-.68,1.26-.06,1.49,1.19,3.33,1.4,5.9.88,6.46a61.81,61.81,0,0,1-8.48,36.64l-2.88,4.35L66.7,221l-2.56,2.79-1.43,1.26-.15.2,0,.24,0,.23.15.2.79.71.15.1.14,0,.24,0,1-.53.12-.09,5.41-5.5a62.62,62.62,0,0,0,14.12-33l.34-5-.14-7-.9-6.74-1.61-6.46-2-5.42-.1-.17-.19-.15m76.45,38L159,192l-.18-.91-2.17-.19-1.74.72-3,2.24-1,1.67-.71-.09-1.59-.67h-1.14l.58,1.1,4.18,3.39,1-.71Zm-9.22,9.76,1.59-1.73-.36-1.34L147.45,199l-1.5-4.21-1.83,3.67-1.5,2.59-.53.43v.77l1.23,1.38,1.88,4ZM136,196.11l1.88,2,2,1.81,2.12-2.15,2.21-2.34-.51-.86-1.23.53-1.83,1.33-.33-.13-.28-1.59-.94-1.19-2.17-1.25-1.83-.51-3.77-.25,3,3.15ZM66.13,169.82l-6.68,0,.85.15.46.24.34.77.23,2.29.24,1.82c1.09,9.41-.36,17.82-5.41,25.94H56l-1.74,2.68-1.75,2.16-1.13,1.52-4,4.06.14.48,2.63,2.25c7.3-5.77,11.73-13.69,14.59-22.5,2.56-9,1.47-13,.47-21.71Zm76.25-12.14,5.12,0-.51-.15-.85-2.3.19-.42-.29-1.58,0-6.16.71-5.46.28-1.76.6-3,.85-2.68L150.8,129l1.68-2.72,3.11-4.06,5.27-6.6.1-.72-2.69-2.15-3.57,3.49-4,4.68-3.58,5.84c-5.29,10.52-5.89,19.28-3.43,30.53l-.51.39Zm.8,10.8,3.33.15,3.11-.15.14-.86-2.07-1.1-2.87-.09-1.75.43-1.68.91Zm1.32-2.2,1.59-.09,1.13.14,2.16.81,2,1.16,1.37-.53-.15-.72-2.2-1.91-2.26-.87-2.21-.33-1.61.15-2.53.76-2.92,1.87.37,1,1.61.26,1.64-1.11ZM140.87,165c4.8-2.45,9-1.14,12.69,2.48l1.05-.05.8-.61c-4.49-6.87-14.34-6.71-19.2-.38l1.13.62h.9Zm-2-1.39,2.83-1.42,2.62-.53h3.2l3.11.9,1.83,1,3,2.72.61.48,1.27-.48-.47-1.48-2.25-2.34-2.26-1.43-3.44-1.29-2.64-.48-2.39.38-.23-.05-2.41.39-1.21.51L137,162.42l-2.17,2.15-.23.33-.24,1,1.5.53Zm-1.37-1.8c7.23-4.75,15.68-2.66,20.84,4.24l.71-1.19-1-1.58-3.25-3-3.33-1.77-3.24-.77-4.34-.09c-5.58.92-8.24,3-11.67,7.31l1.51.48Zm17.46,5.82c-9.23,2.19-14,1.88-22.87-2.2l-1.54,3-.61,2,1.68.9,3.35,1.43,1.79.57,3.24.83,1.36.18.19.28-.05,4.41.2.37-.24,9.52.71.57,2.67.39,3-.15.71-.24.32-8.4-.13-1,.13-2,0-3.21.38-.28,5.41-.77,3.85-1.28,2.45-1.2.47-.43-.71-3.06-1.08-2.1-1.92.81Zm-26.87-6.06c-3-13.37-2.14-24.75,3-37.61,3.25-7.85,8.56-16.67,15.52-21.66l-1.41-1.43-.94.28L140.63,105l-2.54,2.63-4.56,6.45-3,5.3-3,7.13-1.23,4.15c-3.87,12.76-2.66,29,2.93,41.05l.93-2.72-.33-1.73ZM118,137.47l.42,1.47,5.23-2.39,1-.71,1.6-7.12-6.64,2.78-1.27.62-.24.66Zm0,7.79.72.47,4.89-2.48.74-5.3-.14-1.58L118.77,139l-.61.62Zm.15,6.26.32,1.58,5.14-2.35.09-1.38-.18-2.15.09-3.44-2.12.75-1.08.48-2.17,1.16-.09,1.76Zm1.26,8,5.09-.15-.1-2.39-.85-6.12-5.22,2.45-.18,2.33,0,3.16.47.86Zm20.75,49.79a127.69,127.69,0,0,1-27.46-35.12l-.94.33-.9.58c3.51,11.84,22.38,34.13,32.83,40.76l.94-.33,1.41-.67-1.23-1.48Zm-33.39-66,2.26,6,.47-.09,0-9-1,.11-2.21,1.09Zm-1.89-5.94,1.32,3.83,2-.81,1.17-.76.1-5.64-1.23.33-3.66,2Zm-2.16-5.77,1.75,4.49,5-2.39.15-5.74-1.88.68-5.09,2.63Zm-2.81-7.5,2.39,6.45.56.39L108.7,128l-.09-.9-8.24-4.72H99.24Zm.36,76.37,6.12,3.59,2.87,1.52v-1.19L106.49,197l-.56-.29-2.59,1.16-3.53,1.95Zm14.31,8.08-3.2-8.81-8.19-21.93-.19-.86-3.9-.86,6.58,18.41,7,18.44,3.9,10.57,3.71-.2-.47-1.53ZM99.34,187.41l1.36-.29,1.74-1-.85-3-1.83-5.29-.52,2Zm0,6.07,1.07-.09,3.82-2.06-.75-2.68-.84-2.34-2.36,1.14-.81.53-.18.72Zm-.14,4.63.18,1.53,1.65-.57,5-2.53-.18-1.44-1.47-3.59-3.06,1.4-2.07,1.29Zm-3.11-91.9c6.82,4.73,14.07,8.77,21.22,13l1.27-.43,4.93-2.25,1.14-.33,2.86-1.25,4.47-2.1,1.5-.62.67-.24,2.06-2.72,1-1.86-1.79.43-5.74,2.57-4.47,1.73L120.93,114l-2.68,1-.85.48h-.56l-1.41-1-1.7-.86-6.35-4-1.65-1-4.38-3-5.44-3.59-3.15,1.63.74,1Zm-1.92,12.57,2.26,6.36,2.72,7.07,3.2,8.74,3.67,9.61,3.53.81c-5.46-16-11.69-31.79-17.37-47.74l-3,.67,1.08,4.06Zm-9,65.05,1.37-.39,3.33-1.52.85-.57-.09-6.71-2.79,1L85.23,177Zm-.89-14.63,1,7.41,2-.72,3.39-1.62.09-4.3-.09-1.91-4.94,0-1.27.24Zm0,21.89,1.75-.53,4.79-2.24,0-5.12-.22-1.48-4.48,2.06-.84.66-.29,1.06.06,1.77Zm-1.69,7.74,5-2,3.19-1.49,0-6.69-2.64.9-3.71,1.82-.7,2.83Zm7.34,14,2.12-.77c7.13,4.21,14.33,8.23,21.4,12.42l1.69-.51,1.13-.3v-1.14l-2-1.1-2.12-1.2-5.73-3.44-14.64-8.26-.85.05-5.68,2.52-10.49,4.54-1.5,2.06-1,1.29-1.46,2.11L74.12,220l14.35-6.49ZM72.62,131.11,69.42,128l-.8.09-1.69,1.82-2.5,2.83,1.55.09,2.41-1.67.18,0,.09,1,1,1.66,2.4,1.54,2.06.57,3.15.15-1.64-2.11Zm-4.05-13.05a129.11,129.11,0,0,1,27.66,35.28l1.6-1.05,0-1.11-3-5.68L91,139.29,87.15,134l-6.26-7.65-4.45-4.78-5.52-5.31-4.09-3.34L65,111.7l-.85.24-1.18.68.61.95ZM62,130l.94,2.54,2.68-5.46,1.23-1.67-1.28-1.33-2-3.88L61,123.94l-1.09,1,.71,1.49Zm-2.55,30.06c2.76,2,5.76,1.2,8.47-.52L64.81,159H60.25L59,159.4Zm1.66,1.19-2.08-1-1.26-.81-1,.09-.89.62c3.74,4.55,9.94,4.39,14.12.57l-.33-.86-1.5-.15-1.38.77-2,.81-1.61.1ZM66,163.37l-3.15.43-3-.57-2.06-1L55.13,160l-1.23.33-.29.68,2.84,2.66,2.48,1.38,2.5.63,3.2.14,3-.9,2-1,2.73-2.53-.47-.76-1.14-.34-3,2.38Zm4,.48c-6,4-13,2.15-17.46-3.2l-.33.33-.94.72c5.42,8.63,17.92,8.39,23.34.42l-.85-.81H73ZM58.55,130l-1.32-1.23-.93-.24-3.2,3.67-3.67,4,2,.53,2.15-.57,2.5-1.77,1.41-1.54L58,132l.42,0,1.55.71,1.69.24-1.54-1.87Zm13.08,35.57-2.82,1.61-3.1,1-3.72.19c-3.8-.22-9.08-3-10.91-6.4l-1.56.18c4.17,7.81,12.48,9.39,20.14,6.55l3.71-2.39L76.44,163l-1-1Zm-18.58-5.41c7.3-2.81,17-1.78,23.81,2l1.5-2.78.43-2.24-2.4-1.34L73,154.53l-3.76-1-1.6-.24-.23-.18-.2-9,.15-5.74L65,137.8l-3.76-.05-.65.34-.43.95-.13,2.64L60,152.86l-.18.18-3.81.39-1.18.24-2,.57-2.92,1-2.49,1.39,1.08,3.59.89,1.47Zm-9.54,18.35,1.13-.86,1.12,0,.2.18V178l-.62.72-.09,1.24.89,1.29,1.36.24,1.13-1.1.37-.81-.09-1.67-1.09-1.58-1.12-.72-2.12-.15-1.5.53-1.7,1.82-.27,1-.8.75L42,180.62Zm124.55-30.77-.95-.83-.65.35-1.32,1.86-1,.57-.94.2-.24-.15v-.15l.62-.75-.14-1.69-1-.95-1.21,0-1.32,1.29-.2.67.2,1.38,1,1.68,1.93.95,2.39-.33.9-.53,1-1,.6-1.34.25.76,1.64,1.54,1.45.61,1.7.11.8-.2V147h-.52l-.42-.11-1,1.11-.11,1.19h-1ZM34.71,175.94v4.44l1.13.14,1-.61.19-1.19,0-.44.18-.15,1.36.2,1.42.81,1.18.48-.43-2-1.65-1.48-2.4-.71-1.4,0Z"/><path class="cls-5" d="M119.61,279.6l.29-.15,3.61,1.64.8.66-.09.77-.09.09-1.32-.29-2.59-2m-18.34-.87,2.68.68.66.39-2.45-.73-2.77-.24h-1Zm5.22,2.3.42-.39-.14.15-.18.81-1.76-1.62Zm2.59-2.24,1.07-.34-1.59.76Zm2.15-.68,2.41.05.85.39,0,.18-1.12-.51-2.92.14Zm1.7,2.3,1.7-1,1.87-.77h.14l-2.62,2.39-1.93,1.1h-.38l-.24-.29,0-.09Zm4.28,3.16-.1-2.54.15-2.53.14-.1.85,3.35,0,2.68-.23.33-.09,0-.66-.66Zm-11.62-.43.94-1.25-.09.34.85.33.14.24-.05.77-.56.42-.76-.14ZM98.87,283l-1.66-1.68v-.09l1.57.72,1.5.48,1.31.86.2.52-.29.29-1.13-.15Zm-3.76,2.77L95,283.57l.84-2.83.37,3.21,0,2.05,0,.14-.24.3-.56-.15ZM91.39,283l-1.23.71L89,284l-.27-.27v-.11l1-1.2,2.59-1.28,1.64-.39Zm-9.18-3.06,1.61,1.33,1-.85-1.41,1.34,1,.9,0,.48-.56.43-.9.05-.37-.72.66-.86-.15-1.14L81,279.27l-2.79-.81-2.73-.24h.85l1.94.24,2.44.57Zm8.9-.81H88.62l.75-.11Zm-15.34,1.66-.9-1.33.76.52,1.79.68,1.7,1.19.13.19,0,.53-.29.24-.89-.15Zm-2.3,3.31-.38,1.43-.23.15-.43-.11-.33-1.91.2-.33-.11-1.15,1.09-3.78h.14l.38,3.45Zm-5.22-2.78L67,282l-.8.05-.1-.1-.1-.58,2.32-1.91,2.58-1.1.14.06-.1.38Zm-5.7-4.45,4.52-.33,1.18.33-2.36-.23-2.87.23-3.38,1-.8.33.56-.28Zm7.25.44h-.14l-1.09-.33Zm57.62,1.24-2.73-.72h.61l2.92,1,1.59.91v.1Zm-6.49-.43.23-.14h.19Zm11.14,3.06-.51.38-.81.15-.61-.63,0-.57.43-.18h.65Zm-65.33-7.45,3.71,1.09,1.47.86.74-.24,1.09-1,.34.1,1.17,1.67c7.27-1.55,11.91-1.64,18.91,1.38l1.12-1,.38-.53,1.45,1.38a33,33,0,0,1,19.52-.58l1.46-1.91h.1l1.55,1.49,4.42-1.49,1.37-.14,2.06-.33-.14-1.05L125,270.23a139.18,139.18,0,0,1-32.79,3.4c-9.72-.61-19.53-1.25-29.07-3.35L61.71,272,60.9,273l1.14.29Zm-20.65,16.4h93.7l-10-13L126.34,276h-2.59l-2.77.18-3.44.53-1.73.2h-6.22l-1.55.33-.84.72-1.42.15-1.69-.53-2.27-.34H98l-1.37.34-.84.53L93.55,278,92,277.07l-2.44-.14H86.83l-2.45.14-1.7.38-2.77-.52-2.78-.38-3.44-.35-2.06-1.05-3.1-.51L65,274.1l-3.94.15-3.44,1.95-2.26,3.16Z"/><path class="cls-5" d="M169.79,170.45l1.09.37,1.32-1.62.66-1.23-1.66-.45L170,169.11l-.52.75m-.42.59,1.59-2.21-.09-.86-1.41-.28-2.87,3.44Zm-.89,2.24L167,173.83l-.09,1.3.8,1.33,2,.24.89-1.38.09.38-.32.87-.85.7-1.6,0-1.32-1-.37-.68-.1-1.05,1.14-1.58.65-.38Zm-.76-3.49,1.41-1.86-.65-2.06L166,167.82l-.8.9-.65,1.14,1.18,1.2.94-.57Zm-2.77,7.17.75,1.39,1.6,1.38c9.57,1.86,6.17-13.07-1.37-7.46l-1.18,2.5Zm-.76-7.74.37.38.52.24,3.35-3.87-.15-.24.89-.67-.69-1.82-1,.67-3.05,3.54-.1.19Zm1.36-5.94-1.73,1.93-.71,1.47.52,1.82,5.59-7-.56-1-1.7,1Zm-2.86-.13h.8l1.12-1.34-.23-.77-1-.24-.69,1Zm.8,2.63L166.5,161l-1.78-.11-2.31,2.53v1.2Zm8.37,5.06-.37.57.79,1,.9-.28.84-.92v-2.72l-1,.57Z"/><path class="cls-5" d="M145.57,50.29l-3,.29-2.2,0L138.15,50l-.2-.19c2.91,1.6,8.53.43,11.34-1l-.85.51m-8.75-3.53,1.23-.71.8-.1.18.24-.09.57-1.13,1.1-2,1.2-1.92.72v-.2Zm-5.54.57-.09-2.09.69-2.54.29-.29h.28l.28.38.2,2.06L135,47.42l-.47,1.4-.09.09-.15,0-.18-.38.13-.49Zm-3.44-1.28,2.07,2,.29.48-.06.19-1.12-.57L130,46.43l-1.32-1.29-.09-.2v-.39l.23-.18.89,0ZM115.1,47.71l.14-.05,1.18.39Zm2,.39,3.16-.05,2.45-1,1.45-1.38-.89-1.58.65-.62.94.14.38.52-.14.53-.75.86,1.32,1.58,1.78.85,3,.87,1.55,0-1.37.14-.61-.29-1.65-.14-2.44-1-1.65-1.48c-2.59,1.79-4,2.48-7.52,2Zm-3.38-1.63L116.55,44l1.79-.81H119l.24.15-.09.38-.94-.29.56.81-1.93,1.34-2.92,1Zm-1-1.92-.57,2.21,0-.15-.51-4.72.27-1,.29-.19.24,0,.56,1ZM109,44.22l1.65,1.44.09.38-.18.05-1.27-.77-1.79-.38-1.27-1-.14-.19v-.34l.18-.19,1,.1Zm-18.9-1,0,1.82L90,47.75h.61l2.44-2.24,1.78-1,.61-.14.2.14-.09.58-3.07,2.38-.18-.33-1.42.76-.88.24-.2.09-.13-.42L88.89,44l-.09-1.67.47-.62.43.14Zm8.61,4.25-1.41.72-1.94.44-1.7-.06-1-.77,1.32.53,3.11-.18,2.21-1.2ZM100.32,46l.33-1.16,1.7,1.73,2.58.9,4,.24-1.32.15-1.55-.06-2.86-.57-2.36-1.71Zm.94-1.87-.56.43-.89-.77-.1-.77.66-.46.89.09.43.57Zm-17.49.47,1.23.24,2.91,2.3.42.72-.13,0-3.87-1.63-.75-.87-.09-.46Zm4.65,11.24c10.14-1.67,19.72-2.73,30.1-2.16l13.79,1.2,2.4.38,1.5.06,4.94.9,1.41.19,2,.49.61-.29L147,54.17l-1.88-.24-3.29-.33-2.54-.48-3.63-1.54L134,53l-1.37-1.91-5.27.95-4.75.15-3.72-.68-3.33-.9-1.28-.72-.8.15-1.36,1.33-1.22-1.42-1.89.51-3,.78-3.86.37-2.44.05-.29-.24-.33.19-1.31.1-5-.91-1.23-.28-1.09,1.09-.51.91-1.69-1.67L85,52l-3.61.82h-.67l-.37.62,2.39,3.44,1.94-.29Zm18.25-6,3.2-.13,1.74-.77.71-.43.38.1,1.73,1.05,2.08.51h3.66l2.4-.61,1.23-.62L126.1,50l2.73.47,3.24.15,2.21-.29h.47l2.4,1.63,2.83.57,1.59.19,1.75,0,2.3-.48,2.5-.72,1.5-.95,1.83-2-.84-.47-.85-.63,0-.18.42-.63.81-.09,1.08,1.1,8.89-9.89-.89-.38-4.38-.11-3.76,0H133.45l-3.59-.05-9.59.05-.23-.05-10.11.05-.34-.05-9,.05L89,37.15l-8.28.05-10.86-.05-.29,0-1.54.18,1.41,1.82,1.22,1.71,1.17,1.07L72.34,43l3,3.5,1.13-1,.94.15.42.43v1l0-.09-2,.18,1.41,1.91,2,1.11,1.26.42,2.08.15,3.71-.1,2.41-.47,1.68-.39,1.32.33.24-.09,2.22.44,2.3-.15,2.53-.77,1.14-.75.6-1,.09,0,1.32,1.1,2.17.77,2.11.18Zm-20.22-.38-1.89.2L82,49.33l-1.79-.47-1.4-.76-.72-.53,0-.1c2.47,1.47,6.9,2.81,9.64,1.35v.09Z"/><polyline class="cls-5" points="109.78 134.51 114.39 137.23 117.59 138.91 117.72 135.89 113.54 133.32 110.34 131.59 109.78 132.16"/><path class="cls-5" d="M109.87,142.38l7.24,4.08.81-.35-.1-3-3.9-2.29-3.52-1.88-.58.3m.24,10.36,2.73,1.68,4.56,2.29.52-.2.09-2.57-2.35-1.53-5.46-3-.42,1v2Z"/><path class="cls-5" d="M105.59,165.76l2.92-1.76-1.93-1.58-.47.62m-5,2,2.16,1.49,1.08,1.52.9-.9L106.4,165l-2,.37-1-.33-.42-.52-.29-1.24.53-.91,1.17-.38,1.65.33L104.23,159l-1.7,2.76-2.63,2.39Z"/><polyline class="cls-5" points="90.92 176.9 98.17 181 98.96 181 99 178.04 92.33 174.41 91.86 174.13 90.92 174.13"/><polyline class="cls-5" points="91.11 191.66 93.5 193.15 98.17 195.82 99.05 195.82 99 193.1 96.56 191.47 91.62 188.89 91.06 189.18"/><polyline class="cls-5" points="90.92 183.5 91.44 184.82 98.73 188.79 99.05 187.45 98.91 185.16 95.71 183.25 91.91 181.29 91.01 181.29"/><path class="cls-5" d="M44.3,166.77l1.6.61.66-2.24h-1m-3.35,1.25,1.88.18,2.21-2.48-.27-2.15-2.54,3.34Zm-1.92-6.51-.29.24.19,1,.56,1,2.93-3.49.18-1.19-.66-.57-1,.33Zm-.05,4,.76,1,2.95-3.2.9-1.44-.14-2-1.51.81-3.14,4.3Zm-.52,3.25,1.37.09,1.12-.9,3.35-3.77.41-2.35-1.26.44-.94,1.23-1.36,1.68ZM37.91,160l1.73.48,2.36-3-.71-.42-1.55.33-1,1.19Zm.28-7.44-.28-.59.7-1.29.76-.47,1.36,0,1.5,1,.43.81-.19,1.38-.66,1.11-.85.58h-.52l0-.11,1.32-1-.1-1.77-.8-.9L39.64,151l-.83.19Zm-.95,5.05-1.45,2,1.74.42,1.41-1.76.2-1-1.47-.34Zm-1.31-5.15.62,2.86,1.77,1.39,2.36.39,1.93-.92.85-.76.65-1.67.06-2.15-.66-1.63-1.6-1.29-1.7-.39-1.36.06-1.51.9-.43.72Zm-1,4.73-.22.18v2.06H35l.51.29,2-2.58-.25-1-.93-.43Z"/><g class="cls-6"><path class="cls-7" d="M65.75,267l-2.86,3.38.94.44,6.58.9,1.22.24,3.2.43,2.21.34,7.63.81c14.84,1.24,25.89,0,40.54-3.2l-1-1.48-1.92-2.63c-18,4-36,3.69-54.09.86m46.37,5.54h-.51v.29Z"/><polyline class="cls-7" points="33.96 149.94 34 157.34 34.61 157.64 36.59 155.72 36.35 155.1 35.84 152.71 35.93 151.75 36.46 150.28 37.85 148.85 40.68 147.89 40.82 137.66 40.59 132.97 40.68 127.29 40.44 123.5 39.93 123.56 34.14 127.05"/></g><polyline class="cls-7" points="50.14 156.39 49.25 157.82 49.39 158.59 50.18 159.69 51.26 159.97 51.6 160.03 52.72 159.5 53.19 158.21 52.92 156.92 51.87 156.02 51.08 155.91"/><polyline class="cls-7" points="55.87 154.29 54.79 155.39 54.88 156.53 55.27 157.34 55.87 157.82 57.43 158.15 58.46 157.64 59.07 156.35 58.75 154.82 57.57 154.09 56.58 154.09"/><polyline class="cls-7" points="62.27 153.1 61.48 154.38 61.75 155.67 62.74 156.63 63.54 156.96 64.86 156.77 65.71 155.63 65.61 154 65 153.34 63.96 152.86"/><polyline class="cls-7" points="62.27 146.31 61.71 147.27 61.8 148.5 62.08 149.18 63.02 149.84 64.43 149.99 65.28 149.51 65.86 148.65 65.86 147.84 65.57 147.03 64.9 146.31 64.01 146.02"/><polyline class="cls-7" points="62.33 140.19 61.71 141.53 62.18 143.15 63.22 143.72 64.68 143.3 65.71 142.2 65.75 140.82 64.57 139.62 62.93 139.66"/><polyline class="cls-7" points="68.21 154.68 67.68 155.58 67.92 157.68 68.57 158.3 69.47 158.59 69.94 158.59 70.92 158.26 71.48 157.25 71.45 155.63 70.41 154.62 69.56 154.29"/><polyline class="cls-7" points="72.95 158.26 73.42 159.4 74.22 160.12 75.39 160.12 76.1 159.84 76.86 158.74 76.8 157.21 76.01 156.53 75.12 156.15 73.89 156.2 73.37 156.68"/><path class="cls-7" d="M83.62,56.56l-.65.33,2.63,4A142.79,142.79,0,0,1,142,61l2.26-3,.71-1.34a185,185,0,0,0-37.16-3.35c-6.54.77-13.11,1.12-19.61,2.45"/><polyline class="cls-7" points="133.25 168.82 132.97 169.49 133.57 171.16 134.33 171.68 134.75 171.74 136.16 171.5 136.68 171.11 137.06 169.97 136.78 168.87 135.69 167.97 134.24 168"/><polyline class="cls-7" points="138.94 169.73 138.33 170.78 138.47 171.68 138.8 172.45 139.69 173.02 141.06 173.07 141.77 172.45 142.29 171.26 142 170.21 141.01 169.29 139.83 169.29"/><polyline class="cls-7" points="144.5 183.68 143.56 184.69 143.65 185.98 144.03 186.93 145.24 187.65 146.6 187.41 147.41 186.46 147.5 185.06 147.22 184.4 146.18 183.63"/><polyline class="cls-7" points="144.16 177.42 143.47 178.61 143.69 179.95 144.82 180.96 146 181.05 147.08 180.28 147.41 178.85 147.08 177.9 145.76 176.99"/><polyline class="cls-7" points="144.97 170.87 143.79 172.69 144.39 173.98 145.71 174.51 146.71 174.79 147.83 174.22 148.35 172.64 148.17 171.59 146.94 170.63 145.62 170.49"/><polyline class="cls-7" points="151.92 169.4 150.89 170.63 151.17 172.12 152.02 172.93 152.96 173.17 154.09 172.84 154.83 171.68 154.7 170.21 153.38 169.2"/><polyline class="cls-7" points="156.26 168.96 155.97 170.25 156.3 171.02 157.29 171.74 158.65 171.68 159.59 170.82 159.82 169.05 158.84 168.1 157.85 167.82 156.91 168.1"/><path class="cls-7" d="M168.58,202l-.09,1.43.13.24,2.31-1.48,3.11-1.62c.12-10.31.38-20.62.13-30.94h-.24l-.74.92-1.37,1,.56.38.67,2.1-.15,2.1-.79,1.91-1.89,1.06-1.6.37-.33,5.55"/><polyline class="cls-7" points="115.37 173.41 114.85 174.27 114.34 175.56 114.34 176.9 117.2 181.39 120.08 185.69 123.28 189.94 123.93 191.09 125.68 192.62 127.04 192.86 127.75 192.76 128.45 192.1 128.36 191.04 128.4 183.06 128.45 182.3 128.45 172.21 128.36 172.25 128.45 171.2 127.46 168.77 126.52 168.63 125.02 168.67 123.51 168.67 120.22 168.77"/><polyline class="cls-7" points="80.47 145.21 80.42 150.71 80.33 154.05 80.42 154.33 80.57 156.02 80.47 156.44 81.56 158.93 86.5 158.87 88.65 158.74 93.41 154.24 94.21 152.76 94.21 151.24 94.17 151.19 94.35 150.38 92.05 146.46 89.32 142.25 87.53 139.9 85.56 137.51 84.38 135.71 82.68 134.75 81.33 134.79 80.53 135.27 80.38 138.85 80.42 139.38 80.38 143.44"/><path class="cls-7" d="M136.31,160.36l1.28-1,.74-.14,1.36-.76,1.28-.39-.05-1.76-.76-4.65-.22-6.2.22-1.92.05-1.48,1.18-6.59L142.8,131l2.63-5.83,4.1-6.84,1.36-1.63,4.75-5.2v-.67l-3-2.63-1.82-1.48-1.14-1.25-1.36-.85a55.24,55.24,0,0,0-14.73,20.59v-.09l-2.2,6L130,137.32l-.8,6.79.09,1-.09,3.78.32,4.34,1,5.55,1.28,4.73.6.62m-11.24-53.77c3.36-1,9.89-4.4,12.84-5.64,3-1.52,7.09-2.66,10-4.3l-.81-1.34-.74-.09-.8.24-9.46,3.25c-3.89.91-7.15,0-9.17-3.73l-.85,3.2-.33.53-1.82,1.58-1.47.62-2.53.57-4.43,0c-5.45-1-7.66-2.5-11.38-6.43L98.87,100l.37.77,5.51,3.59,5.88,3.58,6.25,4.12,1-.15Z"/><path class="cls-7" d="M53.57,217.23l5.59,5,1.42,1C77,208,84.18,184.84,76.9,163.23l-3.06,3.05-3,2.06-3.11,1.39c4.11,16.85-2.29,35.49-15.09,46.84M80,224.69l2.24.76,1.61,1.3,1.5,2,.53-3L87.3,224l1.55-1,3.29-.82,3.71-.28A19,19,0,0,1,108,228.7l2.16-2.19-2-1.45L95.58,218l-3.44-1.73-1.32.29-2.53,1L78.5,222l-4.7,2.11-1.7.67-3.62,1.67-1.08.66.14.39,1.56-.19,3.61-1.19,4.51-1.2,1.23-.29Z"/><polyline class="cls-7" points="142 191.9 142.89 194 144.16 194.86 146.42 195.06 148.12 194.49 149.24 193.06 149.53 190.91 149.29 189.94 144.5 190.13 142.15 189.84"/><path class="cls-7" d="M102.87,164.27c3.8,3.6,4.27-5.14,0-1.23"/><polyline class="cls-7" points="64.57 137.36 66.27 137.75 66.74 136.85 66.64 134.7 65.42 133.12 63.72 132.49 61.94 132.59 60.9 133.06 59.73 134.46 59.49 134.97 59.36 137.14 60.16 137.66 62.46 137.32"/><path class="cls-4" d="M61.57,272.76l.36-.47,1.38-1.57c20.25,4,41.34,4.72,61.56-.05l2.22,2.86.1.57-1.85.29-1.3.15-4.2,1.42-1.5-1.42h-.42l-1.41,1.86c-5.49-1.79-13.83-1.48-19.3.57l-1.54-1.52-.61.8-.94.87c-6.92-2.94-11.46-2.92-18.68-1.38l-1.08-1.58-.67-.24-1.21,1.14-.52.15-1.36-.82-3.77-1.1-4.75-.38M35,37.44H173.32v252.1H35Zm97.56,243.65,0,0-.93.77-1.09.18-.85-.86-.09-1,.8-.34h.89ZM35,157.54v11.75l3.16.24.84.2,1.14.76.09.91-.33.34-.9,0-.09-.82-.47-1-.75.42.33,1.4-2.12-.49-.28-1.57-.28-.14-.34,0v6.56l0-.05v3.92h0V256.8l5.7,5.79.61.1,5.88-5.5.56-1.06-.05-6.68.05-9L48,222.58l-.09-7.74.23-1.77,5.79,5.41L64.57,228l.29.57-1.5.38-3.11,1-3.06.81-1,1.15-.76,2.15.05,1.2.94,2.67c2.87,3.3,3.5,1.31,6.26,1.3l.6,5.2,2.12,11.38,1.46,7.55-.47.91-3.62,5.4-7.61,9.56-5.28,5.88-1.69,2-2.58,2.35h1.88l.23-.29,1.51-1.52,6.58-7.7.33.62,1.23.33,1-.7,0-.83-.66-.62-.85-.13,1.76-1.91,1.82-1L64.2,275l2.49-.15,1.84.29,2.45.67,2.3,1.52,1-.28,2.64-.14.27.05,2.08.19,3,.72,1.77.86,1.14-.68,2.3-.52,3.11-.14,2.54.42,1.93,1.34h.6l.85-.62,1.65-.72,2.67,0,2.64.15,1.83.57,2,1.43c1.91-3.62,6.74-3.13,10.06-2.15,3.75-1,12.13-2.59,14.11,2.15h-.14l1.22,1.2,4.85,6.21,1.27,2.24h1.23l-.39-.66-4.28-5.79L125.43,270l-4.08-6.11.9-2.44.61-4.21.33-4.39.79.33h1.42l.56-.37.43-.63.37-1.76-.42-1-1.09-.87-1.83-.33.09-5.07.29-1.34c3.27,2.56,6-2.47,3-4.67l.23-.05,2-1.53,1.18-1.77.29-2.35-.62-2.28-1.12-1.78-1.88-1.62,11.66-6.07,2.25-1.34,2.59-1.24,4.7-2.63c8.59-4,17.21-7.63,25.26-12.85v-1l-3.66,2.15-.72.24-.18-2,.09-2.19-.13-16.25.18-2.63,1.79-.34,1.89-1.57.74-2v-2.77L173,172l.37-.27V151.57h-.09V147.4l.09,0v-1.91l-.09.39-.24-1.49.2-7.08.09-2,0,3.26v-4.41l-.09.34.05-1.78,0,.63v-4.58l-.09,3.91,0-3.73-.05-9.74.05-10.62L173,94.35l0-23.07.19-.15.23.29V70l-5.21-5.64-.56.09-6.22,6-.33,1.2.1,11.82L160.91,94l.09,13.47-.14,6.8L147,102l-2.87-2.72-.24-.37c4.92-2.65,9.38-.64,8.52-7.61-1.06-3.75-3.5-4.72-7-3.29l-.89-6.22-3.43-18,.33-.72L145,57.75l5.12-6.54h.09L153,47.53l6.21-7.08,2-2.2,1-.57.1-.24H67.36l0,.18L69.1,40l2,2.25,3.24,4.15,9.22,12.52,2.92,4.6-.29.86-.94,4.19L85,73.61l-.24.81-.43-.18H82.59l-1,.86-.37,1.2.6,1.86,1,.76,1.68.34,0,3.53-.29,2.77-.66-.42H81.47l-.94.75-.67,1.49.29,1.53L81,90.25l-.85.48-1.74,1.76-1,2.39.14,1.73.6,2.06,1.36,1.76,1.57,1.2.46.62c-9.76,4.58-19.06,10-28.88,14.28l-1.17.76-1.88.77-8.33,4.21L39,123.47,36.82,125l-1.59.94-.2,0v1.53l.76-.57,1.79-1.1,2.21-1.2-.09,2.15.14,20.5-.2.39H39l-1.17.44-1.7,1.43-1,2.34.36,2.68.24,1.23-.71.39Zm94.65,122.69.8-.34h-.2l-.14-.48-1.78-1.06-3-1-3.68.1-.7,0-1.36.87.56.33,1.41-.52,2.92-.05,2.78.71,2.3,1.15Zm43.64-123.12v1.19l-2.95-.24-.67-.52-.51,0-.76-.75V156l.29-.19,1.18-.1.13,1,.38.81.47-.28v-.82l-.28-.62,2.26.19.37,1.92h.09Zm0,3.2v.86l-3.47-.52-.91-.62-.09-1,1.32-.24v1.34l.29.57.47-.28.09-.91-.38-.63,2.08.2.37.19.23,1.58Zm0,1.43v2.53l-2.53-.42-.33,0-1.61-.52-.33-1.05.48-.71.79-.2.58.29-.29.29.29.7-.25.54.25.47.7-.33,0-1.19-.47-.57,2.68.38Zm0,3v2.63l-2.25-.43,0-.28-.18-1.48-.71-.2v.53l-.19,1.15h-.47l-.75-.63-.09-.9.51-.63,2.12.24,1.6.29.37.15Zm0,3.55v2.19l-.65.71-.56.2-.48-.58,1.36-2,.33-.2ZM35.14,159.07l-.06,0h0v-1.48l.15-.09,1.22-1.25.51.24.15.57-1.65,2.21Zm-.06,17.06.33-.24,1.23,0,2.26.67,1.5,1.35.24,1.14-.47-.19L38.7,178l-1.59-.19-.52.37.09.59-.13.94-.81.49-.66-.1ZM173.14,147.4h.09v4.17l-.42.09-1.61-.09-1.35-.58-1.51-1.39-.32-1.1-.34-.09-.8,1.73-.94.9-.85.48-2.21.33L161.2,151l-.95-1.53-.19-1.24.14-.43,1.18-1.15.9,0,.78.77.15,1.38-.66.77.1.48.47.29,1.17-.2,1.09-.66,1.32-1.87.38-.19.79.72,2.59,1.52h1.45l.14-1.43.76-.81.18,0ZM35.37,254.6c0-18.1-.09-36.33.13-54.43.24,18.57.19,37.23.47,55.83l-.42-.3Zm-.14-92.28,0-.09.28-2,2.17.38-.19.52.14.82.56.81.52-.2-.14-.61.42-1.1.52.15.52.75L39.59,163Zm.18,29.91,0-3.38.18.9Zm0-3.49v-.46l.18.37Zm.13-1.81-.18.1.14-.44Zm.11-2-.24.81,0-.62Zm-.29-.57v-.53l.23.15Zm0-.77.22-1.76v2Zm.69-18-.74-.29.18-.13.14-1.63.62-.13,1.88.46-.56.53.27,1.39Zm-.47,1.77.15-.9,2.31.38-.38.61.33,1.16L36,168.3Zm1.18,89.42c-.06-25.19-.2-50.37-.13-75.56l.51-.33q.09,38.51.32,77Zm-.37-104.33.93-2.33.39-.63L39,148.7l1.22,0,1.51.33,1.45,1.2.62,1.48-.06,2-.61,1.52-.74.72-1.74.81-2.17-.33-1.6-1.25Zm.15,6.84,1.12-1.53.27-.48.85.19-.09.53-1.23,1.53Zm1.83,99.17c-.22-26.15-.51-52.67-.15-78.86l.76.63c.13,9-.56,17.95-.09,26.94-.16,17.37.06,34.73.13,52.1Zm-.8-106.58.47,1h.46l.61-1.38.61-.15,1,.2.61.72.09,1.43-1.46,1.14.38.57h.8l1-.66.76-1.25.18-1.58-.51-1.05-1.7-1.14-1.59,0-.91.58ZM38.42,165l.24-1,.51-.06.91.57,0,1-.32.48-.94.09Zm.28,3.21-.18-1.15.56,0,.71.61v.81l-.89.2Zm-.23-8.47.52-.9.94-1.1,1.27-.28.23.13L39.5,160Zm1.37,99.32-.2-20.94.1-3.77.94,3,.14,14.81L40.11,257l.1,1.58.43,1.44.52-.19c-.37-6.79,3.9-12.57,2.68-19.59l-1.79-8.7,0-3.31.34-3.25,1.36-5.26.41-3.14.15-3.93-2.07-11.9v-2.3l1.51-9.7-.09-4.2L43,182.05l-.51-.66.09-.72,1.09-1,.88-.53.29,1.49.8.95,1.37.57q-.15,37.05-.29,74.08l-1.64,1.53-3.91,3.87-1.09-.91ZM39.7,224l-.2-1.35.09-.38,0-11.66.24-3.87.76,2.44,0,11.27-.41,2.2Zm0-35.13v-2.5l.32-2.24.09,3.25Zm.74-22L41.81,165,45,161l.56-.18-.27,1.56L42,166l-1,.82Zm.14-3.05-.09-.3,3-4.11.89-.48.09,1.25-.79,1.29L41,164.27Zm0-2.78-.14-.71.2-.15,1.79-2.63.69-.24.34.29-.14.91-2.5,3Zm.33,18.44.58-.52.23-1,1.54-1.67,1.38-.48,1.92.14,1,.63.94,1.38.09,1.52-.28.63-.94.9-1.09-.18-.7-1,.1-1,.6-.72,0-.53-.47-.33-1.36,0-1.37,1-1.26,1.82Zm-.09-33.07,0-12.8,0-5,.2-4.73,1.54-1,1.41-.67.14,3.54-.18,6.16.14,4.83-.23,12.56-1.37-1.09L41,147.69ZM41.25,168l.37-.39.57-.35,1.45-.09.71.24,1.79,1.91.61,2.26.29.81h.46l.14-1.34L47,168.87l-.2-.72,1.61-.24L50,169l.43-.24-.24-.66L48.49,167l-1.7.06.05-.86-.19-1.3.25-2-.44-.81-.18-1.67-.76-1.29L44.26,157l-.62-.75,1.27-2.89h1.28c-.09,9.83,8.35,18.34,18.15,17.5,3.47,12.13-.62,29.31-9.79,37.9l.2.24-4.23,4.06h-.76l-1.83-2v-3.58l0-.43L48,194l.14-11.29.14-.51L49.34,181l.38-1.14,0-2.39-.53-1.34-.09-2.34-.27-.29-1.32.72h-1.7l-1.92-.48-1.18-2.63,1.18-1.34.09-1.23-.56-.87-.43,0,.14,1.45-.52.7h-.28Zm1.87-1.88.67-.57,2-2.63.15,1.05-2,2.25Zm1.79.48.85-1h.29l-.38,1.34Zm-.18-14.28.32-1h1.41l-.09.9Zm.23-2-.05-.82,1.05-.15.94.2-.34.9Zm-.05-2.2.1-.68,2.45-.13.14.33-.52.81H45.25Zm.2-1.62-.15-.73.19-.61,3.52.09-.65,1.2Zm-.15-2.3v-.86l.38-.29H50l0,.2-.79,1-3.21.06Zm.19-2.06-.1-1,.29-.15,6,0,.81.14-1.27,1.14-4,0-1.51,0ZM45,139.75v-.9l.19-.09,7.11-.2,3.47.2-1.27.53-1,.7h-7.9Zm0-2.39.1-.61.27-.2,3.29.06,1.61.62h2.06l1.7-.71,3.19-.06,1.52.24-.2,1.05-4.79-.09-.19.05-8.14.09Zm0-1.76v-1l4.52-.15.38.3-1,1H45.9Zm0-2.15v-1.09l.29-.24,7-.05-1.17,1.43-5.27.05-.43,0Zm.85-2.1-.79-.33v-.86l.23-.34,8.56,0,.42.15-1.13,1.14-5.17.1-1,.05Zm-.7-4.78-.15-1.15.38-.28L58,125.08l1.27.2.52,1.33-.57-.09-.42,0-6.35.09-6.3,0-.23.11Zm.09,1.91-.09-.81,6.11-.24,9.17.19.33.66,0,.63-2.64,0-1.5-1.2h-.61l-1,1.2-9.32,0Zm-.14-4.35V123l.19-.1,2.73-.14L61,122.6l0,.2-1,1.42-13.61,0Zm.1-2.43.61-.44.84-.38.85-.52H49l8.71-.24,4.89.09v.39l-.89,1.1-4.48,0Zm2.39,33.69v-.62l.58-.53,3.52-1.44,4.89-1.23,1.56-.44-.06-.81.15-7.11-.09-3.07.13-1.1,1.26-.48-.09,3.58-.23,3.73.14,1.58-.18,1.44.14,3.05-.2.24-2.77.58-5,1.24L49,155.06Zm.24,1.48,2.2-1.24,2.84-1,2-.57,1.23-.24,3.85-.38.38-.39,0-9.83.15-4.12.32-.72.47-.24,3.64.06,1.92.48-.15,5.44.2,9.13.47.43,1.68.24,3.73,1,3.38,1.24,2.12,1.19L78,159.26l-1.32,2.44c-8.28-4.37-18.72-4.87-27.09-.44l-.7-1.14Zm2.78,6.41-.52-.86.75-.1c1.78,3.42,7.25,6.09,11,6.4l3.9-.18,3.1-1,2.93-1.67,3.56-3.35.52.48-2.78,3-3.62,2.34-3.29.95-3.38.3-.85-.1-2.92-.2L57,168.54l-2.17-1.07-3.34-3.14ZM50.14,136l3.24-3.53L56.45,129l.6.15,1.27,1.23,1.51,1,.84,1-.6-.09-1.66-.72-.7,0-.52,1-1.36,1.54-2.35,1.67-2,.52Zm1-16.87-.67-.09,1.74-1L67.68,118l.94.81v.33l-4.09,0-.33-.43-.57-.28-.52.77Zm.74,42.63.62-.43.14-.14,3.33,3,2.32,1.2,3.09.9h3.4l2.54-.61,2.91-1.49,2.87-2.48h.56l.53.48c-4.41,6.5-15.12,7.59-20.52,1.71Zm1.32,54.77,5.47-5.73.23,1.53.6.76.29.24-.24.19-1,1.63.09,1,.56,1.19.91.52,1.73,0,.89-.8.53-1.44.65.39,1.37.22.89-.37.7-1.15L66.74,213l-.94-1.06-1.41-.33.51-.61,1.41-.73,0-.57-1-.48-1.13-1-.42.24-.06,1-.41,1L61.61,209l-1.74.2c8.29-12.38,11.41-24.6,8.28-39.19l2.87-1.3,3.1-2.1,2.64-2.63c3.76,10.36,3.27,26.5-1.22,36.8l-.67-1.67-1.12-.72-1.51-.18.94-1,.8-.33.2-.53-1.56-1.16-.94-.28-.14,1.48-.42,1.06-.38-.72-1.41-.91-1.46,0-1.13.71-.56,1.2-.1,1.23.7,1.16,1.37.81-.61.42-.9,1.54.1,1.05.38.57,1.09,1.05h1.54l.94-.71.65-2.1.85.42,1.41.05.94-.57.2.14a64.57,64.57,0,0,1-14.2,19.92l-1.14-.75-5.64-5Zm.91-55.58.09-.24.83-.24c4.46,4.78,11.35,5.09,15.86.29l.8.24.24.39a11.22,11.22,0,0,1-15.29,2ZM54.88,117l.43-.33,1.41-.86,8.56-.06,1,1.16-4.13.09Zm1.42,118.1.42-2.16.18-.13.06,2.43.41,1.52,1.14,1.73v.24l-1-.9-.42-.77Zm2.16-99.6-2.54-.06,1.18-1.09,1.65-.05,0,.29Zm-1.92,24.7.42-.28.75-.09,1.18.76,2.21,1.05,2.12.14,1.68-.09,1.88-.77.2,0,1.32-.77,1.12.09.15.39a9.19,9.19,0,0,1-11.29,1.19ZM59.26,277.5l-1.31.76v.48l.33.09,1.45-.61,3.38-1,2.74-.24,2.36.24,1.39.48.91-.19-.53-.62-2.86-.77-4.66.33Zm-1.51-42.25v-1.92l.62-1.47.56-.53-.38,1.91-.09,1.68.8,2.15,1.22,1.43,0,.2-.45.09-1.32-1.34Zm.15-101.89.18-.63.33-.09,1,.38.13.24-.89.1Zm1.36,101.08.28-1.77.29-1.14.65-.77.28.18-.51,1.55.42,3.43.7,1.29.81,1-.52.09-.8-.62h-.23l-.52-.85Zm.52-74.65-.14-.19.66-.2h4.47l2,.33-1.17.58-2,.58-1.79-.24-.94-.24Zm.47-29.21-.52-.66,1.7-.06.41,1.82Zm-.52,6.36.14-1.86.2-.44,1.08-1.23.93-.44,1.61-.09,1.5.57,1.08,1.39.09,1.91-.28.57-1.4-.33-2.26-.05-2.17.33Zm1.88-22.22-1.6-.19,2.45-1.25,1.23,1.29ZM61,234.38l.14-1.89.46-1.73.66-.66.47,0-.66,2.59.05,1.42.56,1.88L64,237.78l-.94.57-1.12-1.62Zm-.11-108-.56-1.25.9-.86,2.35-3.29,1.74,3.44,1,1.1-1,1.43L63,131.59l-.6-1.73Zm2,107.77L63,232l.67-2.24.84-.24-.24.66L64,231.48l-.24.75.53,2.74,1.41,2.43-.65.1-1.05-1Zm.14-8.6c10-9.18,15.31-19.11,18.53-32.4l.94-5.21.2-4.11.23-2.1-.29-6.51-.89-6.5-1.41-6-1.17-3.23,0-1.25.57-1.05c8.88,20.73,4.75,46-9.69,63.08l-5.41,5.5-.85.48Zm1.46,44.78-.81-.43,1.18-1.48,1.14-2,1.41-1.76a143,143,0,0,0,53.06.14l1.18,1.77,1.54,1.95.9,1.53c-17.75,4.38-36.22,3.7-54.15,1.1Zm0-23.33L63.4,239l1.28-.33.65,6,1,7,1.94,9.56.41,2.67-.94-.24-1.26-6.93Zm.1-13.8.09-1.58.42-1.77.66-.81.66-.14-.61,2.39.19,2.44.79,2,.71.9v.29l-.65.19-1.14-.82Zm-.76-119.81-.37-.59.79-.42.66-.19,1.69,1.1,4,3.29,5.46,5.26,4.47,4.78,6.21,7.65,3.9,5.35,3.71,6.16,3,5.55,0,.81-1.08.71a130.76,130.76,0,0,0-27.52-35Zm4.19,165.83-2.45,2.05.1,1,.37.23,1,0,1.36-.77L71.25,279l.29-.9-.66-.09Zm-2.82-51.66L65.1,227l.65-.38L70.51,222c7.7-2.52,13.66-7,21.31-9.23,7,3.7,13.64,7.84,20.59,11.71l-1.6,1.38-1.45-.51-10.45-6.09L98,218.9l-5.55-3.29c-7.75,2.66-16.69,7.31-24.21,10.46Zm-1-95.88L65,130l.5-.24.62.24Zm1.6,110-.34-3.06.76-.29h.24L68.39,253l.8,5.15,1.17,6H69.8l-.38-.86-1.88-9.46ZM64.72,121.17l-.15-.81.2-.19,5.21,0,1,.86.28.72-6.2,0Zm.52,11.19,2-2.26,1.6-1.67.47,0,3.06,3,3,2.78,1.13,1.43c-2.86.26-7.68-1.06-7.58-4.73l-.6-.2-2.45,1.73ZM66.6,233l.09-1.76.76-2.54.8-.53-.76,2.92.52,2.48.65,1.2,1,1.54-.76.18-1.31-.91Zm0-104-1.18-.22,1-1.35,1.88.1-.38.51Zm-.33-5-.76-1.31,7,0,.52.42.75.77v.33H67.87Zm-.52-12.58c5.5-2.87,11-5.76,16.7-8.36l1.23.28,1.41.57,1.93.53.09-.09,1.36.24.56,1.76L93.27,118l2.26,5.59,1.68,5.16,5.56,14.34,2.22,6.45,0,.57-1-.09-3.15.62-2.31,1-2.1-3.73-2.17-4.4-2.12-3.25-4.37-6.45-6.12-7.41-4.75-5.16-5.69-5.31Zm1.56,127,.32-.62.9-.11.24,2.59.42,6.12,2,12.46.8,5.64-.62-.23-1.4-6Zm-.85-105.25,1-.76.7-.38.38,1.34ZM69,226.93l-.74.1c7.35-3.1,17.13-8.46,23.84-10.37l3.44,1.73,12.46,7,1.6,1.14-1.6,1.62-2.44-2.39-2.17-1.66-2.12-1-2.58-1.06-2.77-.57-3.86.29-3.29.81-1.7,1-1.61,2-.36,2.25c-3.76-5.56-7.44-3.34-12.47-2.1ZM67.12,134.4l.47-.14,1.83.05,1.74,1.34-3.62-.09Zm.13,2.87.29-.72,6.44.1,5.7-.1,0,.87-.15.29-6.8.13-5-.18Zm-.09-10.88.43-.73-.34-.52L74.5,125l1.13.85.32.59-6.76.18Zm1.32,106,0-1.82L69,228.7l.9-.9-.56,2.33.19,1.68.88,2.29,1.61,1.59-.81.33-.8-.33-1.17-1.11ZM68,152.53l-.09-9.71,0-2.68.29-1.14.83.38-.14,2.39,0,8.55.38,1.29,2,.62,2.17.53,3.86,1.38,1.41.81-.15,1-1.88-.71L74,154.14l-3.29-.95Zm1.61,88.93-.19-4,.84-.09.43,4.34.33,4.92,1.93,14.91.42,2.35-.15.86-.37-.49-1.69-9.74-.81-6.21Zm1.17-61.31-1.23,1.2.15,1.66.38.91,1.26.81,1,.15v.33l-.38.68.6,2,1.6.86,1.42-.18,1.17-1.2.05-1.48-.32-1.1,1.54-.24.9-1.09L79,182l-.32-.85-1.32-1.06-1.38,0-1.08.62,0-.77.71-1.76-.15-.43-1.83,0-1,.15.29.75.51,1.87L72.34,180Zm-.52,51.18.66-3.38.37-.54.81-.48.28,0-.51,1-.58,2.52.61,2.15,1.27,1.72,1,.67-.06.2-.52.18-1.21-.47-1.52-1.77ZM69.8,38.87l-1-1.29c13.64-.09,27.44,0,41.1,0l10.12,0,.18,0,8.19,0,5.09,0h16.93l5.26,0,4.29.11.32.13L152,47l-.94-.95-1.13.19-.61.86,0,.52,1,.72.47.24-1.47,1.58-1.41.91-2.35.67-2.35.47-1.7.06-1.5-.2-2.77-.57-2.46-1.62h-.6l-2.17.28-3.2-.15-2.68-.48-2.44-1.09-1.32.67-2.35.62h-3.53l-2-.48-1.74-1.1-.62-.09-.79.48-1.65.71-3.16.14-.28,0-2-.19-2.06-.71-1.42-1.16-.43,0c-1.78,3.51-7,2.76-10.11,1.92-3.55,1.11-11.62,2.35-13.82-1.86l1.08-.11.18.39.85.62,1.51.81,1.79.48,2.67.29,1.94-.2,1.5-.66.14-.48-.37-.29-1.7.57-.8.14-2-.18-.24,0-1.55-.47-1.36-.34-1.94-1V45.89l-.6-.62-1.22-.13-1,.81-2.73-3.16-.51-1.14L71,40.58Zm1.59,202.26-.32-3.92.09-.24.38-.09h.38l.51,6.31,1.22,12.66.53,4.12.89,4.72-.66.19-.29-.81-1.69-12.14-1-8.69ZM70,127.53l.15-.15,6.91.05.61.58.71,1.1-6.63-.06-.19.06Zm1.94,155.6-.24.35.42,2.39.85.18.47-.38.42-1.53.34-2.34-.43-3.87L73,278l-1.17,4.06ZM70.78,138.8l.38-.13h8.09l.38.62-.06.61-4.5.24-.24-.19-2.31,0Zm1,81.54.71-1L75,216l2.36-1.07,8-3.49L91,209l.66,0c8.32,3.92,16.09,9.5,24.23,13.86v.61l-.85.2-1.56.48c-7.09-4.18-14.21-8.32-21.44-12.43l-2.26.81L74,219.58ZM73,233.19l-.94-2.25.14-1.95.57-1.39L74,226.26l-1,2.49.09,2.29.85,1.82,2.12,1.72-.24.24-1.12-.29Zm-.13,6.7-.2-3,.38-.39.47-.05.28.09c.59,9.57,1.16,19.1,2.87,28.59l-.76-.33L75.12,261l-1.79-16.58Zm-.25-109.73.11-.06,1.41-.09,5.12.05.33.33-.1.72-6-.05Zm2.26,148.78-.51.18.09.48.94,1.38,2.45,2,1.12.13.56-.42.06-.81-.28-.43-1.74-1.24-1.75-.63Zm0-1.1-.56.29.09.33.37.09,3.31.28,2.62.77,2,1.49.09.81-.71.9.56,1.15,1.29-.05.79-.62,0-.87-.8-.7,1.7-1.63,2.25-.63h3.29l1.7.44.38-.29-.29-.43-1.83-.47-1.88-.11-1.88.24-2.08.62-1.54,1.29-1.41-1.19-1.61-.91-2.44-.57-2-.23Zm-1.13-47.65c-.2-5.05,6-6.7,9.37-3.5l1.21,1.86,1,3.44.29,3.93-.09,10,.23,10.31.53,5,1.21,4.69H86.41l-.34-.38-1-5-.56-4.78L84.24,253l0-1.49-.19-3.4L84,236.88l-.61-5.74-.85-2.29-2.06-1.73-1-.37H77.27l-.51.23-.75.53L75.12,229l.09,1.58.51,1,1.14,1h1.21l.24-.57-.89-.87.14-1,1-.57.9.24.62.71.23,1.62-.57,1-1.07.77H76.8l-1.12-.53-.85-.94Zm1.23,13.66-.42-5.74.09-2.09,1.08-.24.23,5.2.71,11.62.51,4.25,1.13,6.89.1,1.58-.76-.15L76.8,261l-1.21-10.13Zm.09-101.75L74,140.91l5.69,0v1.15ZM75,132.49l-.51-.62,5.22.11-.24,1.43H76Zm1.09,98.07L76,229.09l.2-.39.75-.75,1.13-.59,1.83.2,1.7,1.34.94,2c1.69,11.48-.29,23.48,2.68,34.88L84,265.65l-.56-1.86-1-7-.43-7-.42-3.14-.38-14.49-.43-2.09L79.44,229l-1.55-.09-1,.62-.42,1.58Zm.56,8.32.1-3.34.19-.2,1.17,0v2.54l.15,1,.38,9.09.65,8.6,1.36,8.51-.13.42-1.23-.24,0-.18-.34-2-1.4-9.69-.24-3.11Zm-.13-95.49-.2-.38,3.24,0,.15,1.38H77.47ZM77.37,212l1.79-3.58.32-.29,4.24-1.9,6-2.54,1.59-.48,1.65.91,16.28,9.37,4,2.43,1.27,3-.33.24-1.61-1.25-14.11-8.25L91.86,206l-3.34,1.24-10.58,4.64Zm.81-76.32L77,134.4l.29-.14h2.35l-.11,1.45Zm-.34,9.95.1-.3.85.06.84-.15.09.57-.19.53-1.17-.05Zm1.84,105.09-.85-15.3.18-.57,1.32-.86.09,3.44.43,10.42.29,4.87.56,4.69.13,1.43L82.92,265l-.09.81-1.23-.34-.94-5.39L80,255l-.25-2.68Zm-.89-103.18.09-.35h.75l.14,1.06-.52.14ZM78.4,96.28l.25-2.15.51-1.07,1.22-1.28,1.32-.67,2.36.09L85,92l.51.86-.19,1.88-.9,1.09-.84.23L84,95.6l.52-1.47L84.15,93l-1.27-.86-1.32.09-1.27,1.16-.52,1-.29,1.1c.14,6.26,9.92,4.78,10.12-.77l-.51-.18-.67,1.47-1.69,1.82-1.88.86-2.08,0-1.26-.72-1.09-1.38.11-1.14.36-1.25.71-.77L82.74,93l.61.52,0,1-.51.86-.95-.24-.7.33.42,1,1,.87,1.32.14,1.32-.25,1.31-1c3.41-4.76.59-9.82.29-15l.52-8.46.33-1.19,1.88,1.1,1.83.85,1.79.34,2-.1L97,73.14l.29-.06-3.86,3.46,0,.37.52.14,2.45-1.67,1.41-1.23.14.13-1.37,3.88-1.45,3.43.09.53.42.39,2.64,1,1.79,1,1.5,1.58.56-.24-.42-1.2-1.37-1.28-2.91-1.64-1.09-.48,3.06-8.27.47-2.63-.7-3.34.32-1.53,1.09-2.43-.19-.43-.84.43L98.35,64l-2,.06-3-.68-2.35.19-.94.23-1.47,1.11-1.07,1L88,63.39l2.88-.53,3.94-.62,4.89-.57,4.81-.3,2.15-.27,6.12-.06,6.25.2.24.24.67,1.81.6,2.86.66,7.76.19,8.79-.15.14.2,5.21-.1,4,.19,3-.9-1.25-.42.11.62,1.52-.71-.24-.18,0-1.47-2.09-.43.09.38,1.67H118l-.29-.38-.65-1.14-.19-.54-.46.34.46.47h-.09l.32,1.45-.37.09-.43-.91-.5-.52-.06-.44-.18-.37-.67.23.53.58-.1.09.57,1.68-.66,1-.72-1.88-.45-.62-.39.29c1.58,3.15.37,8.57,5.74,7.21l1-.85.2-1.43-.29-1.07-.94-.9-1.45-.14-1.08,1,.18,1.05.43.1.18-.67.38-.48.85-.14.7.29.24,1.33-.57,1-1.6.18-1.08-.61-.85-1.28.11-1.2.32-1,1.41-.76,1.6-.19,1.13.43,1.13,1.11.61,1.8,0,1.43-.23,1-.84,1.2-1.37.73-1.51.09-1-.53-1.87-2.3-2.17-4.25-.18-.53h-.48l.14.81.94,2.78,1.56,2.38,2.2,2.21-.32.28-1.56,0-1.26-1.4-1.79-3.29-.89-1.72-.57.19.42,1.39,2.12,3.93,1,1.14-1,.18-1-1-2.83-5.16-.52.24.76,2,2.26,4-1.13-.18-.9-1-2.16-5-.57.18.2.9,2,4.6h-.52l-.74-.67-1.32-2.88-1-3.29,0,0-.4-.82-.41.29.7,3,1.41,3.59-.74-.15-.56-.86-.81-2.48-.37-.81-.72.28.67,1.91.18,1.06-.74-.53-1-2.87-.69,0,.36,1.67-.47-.47-.41-1.81-.62-.29-.23.68-.57-.74h-.84l-.1-.61-.52-.09-.8,1.81-.09-.1-.09-.57-.38,0L97,99.75l-1.5,1.82-1.36.63,1.3-1.82-.18-.67-.52.58-2.21,2-1.27.72-.79,0,1.83-1.23L93.88,100l.42-1.14-.51-.09c-1.61,2.51-4.36,4.48-7.38,4.43l.18-.28,2.06-.77,2.12-1.43,1.74-2.19,0-1c-2.43,3.09-6.39,6.37-10.26,3.63l.89.14,1.37.1,1.09-.14,1.59-.49,2.59-1.89L91,97.13l0-.85-.38-.06-.42.72-2,2.19-2.3,1.25-2.7.18L81.36,100l-1.73-1.43Zm1.28,54-.29-.77.14-.29Zm1.21,4.25-.18-.53.09-3.29,0-5.21,1.22-1.24,3.2-2.87,1-.1,1.41.43,1.22.95.76,1.49,0,1.67-.29.76-2.06,2.15Zm0,1.86.15-.57.18-.1,7.8-7,1.09-.33,1.69.24c5.14,3.52-.15,7.16-3.24,9.7l-2.11.15-4.62,0Zm-.1-12.95,0-4.11,0-.53.14-3.29.58-.34,1.12,0,1.5.86,1.18,1.77.09,1.29-.47,1.19L81,143.92Zm1.08,58.83.2-.9.8-1.82.52-.28,6.68-3,1.17-.39,14.53,8.14,4,2.52,1,2.68h-.27l-18.4-10.61-1-.14-4.52,1.82L82.83,202ZM80.75,87.71,81,87,81.6,86l1.28-.19.65.48v.85l-.61.59-.56.09-.15.52.47.29,1.09-.15.79-1,.71-1.87.24-4.54.37-2.06L86,81.65l.56,4.06,0,1.62L86,88.43l-1.51,1-1.23.33-1.35-.09-.47-.37Zm.1-34.26.15-.24h.51l3.62-.81,3-1.15,1.69,1.63.38-.05.56-1,.9-.91,1,.24,5.09.92L99.2,52l.14-.09.13.14,2.69,0,3.9-.38,3.06-.76,1.64-.48,1.18,1.38.38.06,1.36-1.44.52-.09,1.27.72,3.34.9,3.76.66,4.85-.13,5.07-.92,1.46,2L135.74,52l3.48,1.44,2.55.52,4.56.49-1.41,1.76-.42.19L142.65,56l-1.45-.19-4.93-.91-1.52-.05-2.39-.37-13.78-1.2c-12-.66-23.92.84-35.61,3.2Zm1.6,107.39-.28-1.24,7.76-.2,1.55.1-.75,4.06L91,166l0,1.58H84.42l-.47-2Zm.65,37.37,1.61-6.49,3.58-1.78,2.06-.72.06,5.93-2.93,1.34-1.88.76ZM82.45,77.4,82.26,76l1-1,.89.18.19,1-.66.28-.66-.57-.47.57.76.81,1.21.15.47-.33L85.56,76l.38-2.09,0-4.41.61-3,.24,3-.33,4.21-.65,3.45-.85.9-.53.19-1.26-.15Zm1.17-33.27-.56.66.15.72.88,1,4.15,1.76.61-.33-.65-1.1-3.07-2.44Zm1.14,146.39c2-6.58-2.29-4.93,5.5-8.22l.15.9,0,4.88-4.56,2.09Zm-.14-21.32.09-.53,1-.19,4.51,0,.09,1.67L90.21,174l-3.15,1.48-1.5.57Zm-.9-111.83c9.7-2.6,23.66-3.54,33.68-3.2,8.29.66,18.58,1.09,26.58,3.1l-1.74,2.91-1.74,2.44a146.73,146.73,0,0,0-53.35-.18Zm2.35,171.38-.13-2,.36-1,1.18-1.38.94-.53.47-.06,1.55.35,2.46,2.29.18.62,1.83,3.82.2.72.47-.43-.52-2L93.32,226l-2.88-2.86,2.17-.23L94,224.49l2.64,4.93.47-.06-.43-1.71-2.16-3.78-.84-1.2,1.21.06,1.32,1.58,2.31,4.54.47-.24-.09-.91-1.79-3.21L96,222.67l1.46.2,1,1.82,1.69,4,.47,0v-.9l-1.45-3.31-.56-1.38.36,0,.81.52.66,1.29,1,2.73.7,1.53-.14.24.2.81.47.52.14-.37-.1-.44-.33-.85,0-.44-.33-1.82-1.42-3,1.14.29,1.55,4,.56-.24-.9-2.92,1.09.72.09.67,1,2.19.38-.33-.38-1.58.52.24.56,2.06.48.2.23-.49.75.82.71-.38.1.86.41.15.2-.68.74-1.2.44.72.36-.86.71-1.1,2-1.66.62-.15-1.61,2,.09.35.38,0,1.92-2,1.52-1,1.23-.47v.42l-2,1.2-1.89,2.68.24.48.57-.63,2.49-2.53,3.06-1.38,2,.05-2.68.9L117,227.08l-1.69,2.1.37.62,1.61-1.91,2.21-1.76,2.49-.87,2.82.29.66.34.43.47-1.32-.23h-2.17l-2.68,1.23-2.12,2-.61,1-.09.85.42.11c2.49-5.28,9.6-6.47,12.1-.53v2.43l-.67,1.39L127,236.16l-1,.24-1.94-.15-1.12-.91-.52-1.05.47-1.8,1.12-1,.52.09-.88,1.29.27,1.52,1.18,1,1.41-.13,1.14-1,.79-1.49-.09-2.15-.58-1-1.21-1-1.32-.53L123,228l-1.92.75-1.61,1.44-1,1.87.09.76h.38l1-2.06,1.59-1.33,1.36-.53,1.7-.15,1.41.44,1.45,1.53.11,1.82-.38.81-.94,1H125l-.47-.91.09-.52.47-.72,1.45.1.09-.76-.33-.49-.27-.28-1.23-.63-1.36,0-.94.23L121,231.86l-.85,1.67-.47,2.82,1.28,9,0,3.25.14.53-.34,4.69-.42,1.91-3.71-1.91-1.75-.39-2.44.24-2.07.86,3.39-3.07.94-1-.47-.2-2.82,2-1.51,1.29,1.32-3.58,1.45-3.73.11-1.2-3.39-1.28-2.07-1.48-.8-1.87-.43,0-.22.38.09.77.69,1.44,1.84,1.43,2.3,1.05,1,.72-2.17,5.69-1.27,4.39.51,4.68-.42,1.49-1,1.57.09.52.61.05.62-.53,1.41-.61,1.61-.14,2.71.71,3-.29,1.27-.66,1.64-1.67,0,1.62-.23,1c-10.19,1.64-21,3-31.33,2l-.66-1.49-.94-4.87-.52-8.88,0-18.4.81,1.34.42-.05-.47-1.58,1,.18,1.27,2.11.37-.33-.47-1.48h.66l.38.77.61.57v-.68l-.2-.85.48-.05.75,1.39.47-.15-.38-1.1,0-.77.67-.66,1,2.3.38-.2-1.18-4.55L92.33,227l-1.6-1.09-1.5-.15-.76.24-1,1.29.09,1.52.27.63,1,.77,1.31,0,.9-.9,0-1.25-.66-.87-.65.06.09.48.51.53,0,.71-.38.37-.94.11-.89-.92.38-1.57.75-.43,1.28,0,1.12.85.62,1,0,1.25-.33.86-.61.62-1.56.52-1.59-.28-1.51-1Zm-.56-45.45.09-6,2.4-1.33,2.21-.77.09,6-.6.42-3.29,1.49ZM84.8,90.58l2.4-2.15V89l-.28.48-1.51,1.15Zm3.76,164-1.36.24,1.18,1.14.09.57,1,1.06,2.79,1.91,2.35.95,2.53.05,2.68-.62.8-.48,1.66,1.63.36-.34-1.32-2.91,1.32-1.43v-.57l-.61-.72-2.77-5.31-.29-.24-.32.15.1.57,1.78,3.78v.47l-.6-.38-2.41-1L94.26,253l-2.68.67L89.5,255ZM85.7,91.5l1.5-.87.15,1.57-.24,1.3L86.17,95l0-.29.09-2.1ZM87.77,234l-.38.24.28.18Zm.52,25.09-.52.24.61.86,2.59,2.1,1.83.92,1.6.38,5.65,0,1.92.33,1.93,1.34.28-.28c-3.09-6.6-8.06-1.31-14.11-4.44Zm-.24-24.32-.43-.06.33.44Zm1.51,47.35-1.27,1.44.09.43.47.48,1.41-.38,1.32-.77,2.86-2.34-.18-.66-2,.46ZM87.91,235.3l0,.48.47.14.14-.53Zm.71.77-.71.13.51.53Zm.14.9-.56,0,.09.35.42,0Zm0,.76-.52.05.14.19.27.24ZM87.91,70.36l-.33-3,.75-.24.7,1.1.24.87Zm2.25,164.37-.56-.11.37.59Zm.14.52-.56.05.19.39.33.13Zm-.18.71-.15.35.47.18.11-.47Zm2.06,20.55-1.92-1.14.62-.44,1.73-.66.75-.15-.8,2.35ZM89.23,86l-.67,1.38.09.58.62,1.29,1.79.81,2.77-.15,3.06-1.1,2.4-.48.56-.9.05-.91L99.15,86l-1-.06-3.94,2.49-1.61.53-1.36.14-.94-.38-.61-1,.14-.76.8-.71,1.59.53.38-.53-1.23-.92-1.21,0Zm-.14-44.74-.67.95.1,1.92.8,3.82.38.86.46-.28.85-.2,1.17-.62.2.33,1.21.92,1.88,0,1.94-.43,1.5-.77,2-1.8,2.21,1.62,2.88.57,1.69,0,2.49-.29.43-.37-.29-.44-1.21.2L105,47l-2.5-.85-1.45-1.49.47-.33.47-1,0-.33-.6-.86-1.18-.09-.94.71.09,1.1.89.76-.32,1-.89.85L97,47.71l-3,.19-.94-.37L96,45.27l.14-.9-.51-.43-.81.19-1.87,1-2.4,2.2h-.09L90.55,45l0-1.91L90,41.59Zm2.58,217-.7-.67,1.54.82,2.13.71,2,.13,3.44-.42-.67.48-1.55.29-2.07.13-2.08-.42Zm-3-191.37L89.88,66l1.18-.62,5.73.14,1.74-.29.34.53-.38.48-.28,1.34c-2.47-1.11-6.29-2.34-8.24.37Zm.94,26.82-.42.38,0,.19.52.29.33-1.1L89.88,93l-.51.24Zm1.26-21.18-1.82-1.23,1.21-.72.52,1.29ZM91.48,234l-.51.09.09.44.38,0Zm-.84-125.7-1-3.67,2.3-.53c5.54,15.62,11.63,31,17,46.79l-2.64-.62-3.05-8-3.77-10.18-2.68-7-2.26-6.45Zm-.43,50.09,1.65-1.52,2-1.68-2,3.26Zm-.47-66.43-.14.72.33.29.28-.05V91.63Zm2.12,142.9h-.71l.09.43.48.05Zm0,.72h-.47l.14.28.33.05Zm.23,3.1-.42,1.48.42,1.15,1.27.81h1.36l.94-.86-.13-.76-.76.48-1,.19-1-.9.05-.92.65-.76L95,238.5l1.94.66,4.94,2.5,1.64.18,1.09-.66.14-1-.57-.66-1.31,0-2.78-.34-2.49-1-2.07-.63-1.45-.09-1.09.28Zm-.85-55.2.1-1.76h.43l3.71,1.91,3,1.81.15,2-.19.77-6.77-3.68Zm.1-3-.19-1.62.28-.95,5.51,2.9,1.65,1.11v2.33l-.43.06-5.41-3ZM91.53,195l0-2.09.19-.1.94.3,6.07,3.58v2.14l-.19.2-1.73-.91Zm0-3.53,0-2,.18-.09,4.76,2.48,2.26,1.48,0,2.16h-.42l-4.58-2.65Zm0-3.29,0-2.54.33-.09,6.81,3.72.11,2.77-.2.11-5.36-2.92Zm-.15-11.47v-2.15h.47l.38.24,6.5,3.53-.06,2.34h-.32Zm0-3.4-.05-4.69h.34l1,2.16,1.83,2.39,2.5,2,1.64.91.1,1h-.33L92.47,174ZM93,233.92l-.7,0,.09.42h.47ZM91.48,95.45l-.6.1L91,96l.36,0Zm1.13,139.13-.1.29.43.38.14-.58ZM92,165l-.18-2.35.79-3.47,1.74-3.16a12.58,12.58,0,0,1,22.07,4.3c3.32,14-14.34,22.08-22.54,10.42l-1.41-3.4Zm-.38-70.16-.47.1.43.47Zm0-.81-.38.24.38.24Zm.09-.62-.32.24.51.24Zm2.83-25.61-3.44.09,1.08-.58,2.45-.09,1.64.38.76.48-.7-.24-1.52-.09Zm-3.15,3.77-.11-1.19.29-.48.24,1.19.9,1.05.92.39,1.43-.3.65-1,.09-1.44.29-.09c.85,2.84-1.54,3.55-3.81,2.78Zm2,185.14.18-.95.53-1L95,254l.94-.18,1.41.14,1.21.94.2,1.49v.24l-.29.39-.56-2-1.18-.63H95.62l-.8.43-.94,2Zm.27-98.21-1.26,3.88.43,4.39.89,2.2,1.6,2.54a11.93,11.93,0,0,0,18.62-1c8-12.71-8.28-25.3-18.49-14.72Zm.81,75-.7.1.47.51ZM92.76,96.7l-.25.28.14.29.43.06,0-.63ZM95.62,280l-1,3.53.14,2.24.33.86.89.24.43-.48.14-.38,0-2.1-.42-3.53ZM93.27,95.45l-.28.68.28.28.32,0,0-1.1Zm.47,68.73.09-1.58,1-1.91.71-.62,1.36-.52,1.37-.05,1.88.47,1.68,1.29-.13.53-1.41,1.14L98.06,164l.11.51.65.11,1.79.37,2.44,2.11.76,1.14.37,2.15.57.2.28-1.82.7-1.76.56-.49,1.14,1.19.56,1.82-.09,1.73-.61,1.82-.85.66-1.41.53-1.79.09L102,174l-1.36-1-.65-1.87.51-2.82,1.32-2.05-.29-.28L99,167.29l-2.35.05-2-1.1Zm0-59.79-.42-.57,2.59-1.33c6.46,4.08,12.54,8.88,19.33,12.41l1.5,1h.75l.94-.52,2.64-1.06,3-1.29,5.82-2.33,5.7-2.54.94-.24-.61,1.1-2,2.58-.57.2-4.6,2.1-4.38,1.91-.94.28-4.94,2.25-1.13.38c-7.1-4.14-14.29-8.13-21-12.86ZM94,94.55l-.61.09.1.44.47,0Zm1.7,137.16-.47.28.38.44.37-.33ZM94.17,98l-.24.33.28.29.23-.44ZM96,232.62l-.46,0,.09.33.33.06ZM94.77,97.42l-.51.14v.34l.38.14Zm.29-.68h-.62l.09.44.38,0ZM95,92l-.48,1,0,.43.72.18,1.27-.9,2-.9,1.69-.15,1.46.61,1.5-.76,1.61.3,3.19,1.08,1.61.24.18-.71L108.61,91l-.71-.81-.56.75-1-.14L103.76,89l-.89-.29-1.08,1.1-1.05-.72-.84-.14L98.11,90.2l-1.41.91-.85-.53-.7-.24Zm.5,19.26-.74-2.53H95l1,.82,4.61,2.76,14.49,8.23,1.65,1,.81.15,13.53-6,.29.19-1.37,2.81-.66.87L125.92,121l-7.58,3.25-.8.06L103,116l-6.86-3.86ZM95.2,95.93l-.56,0,.09.43.42,0Zm2.12,184.81-.56.24.13.53,1.69,1.73,1.65,1.05,1.41.18.56-.57-.28-.9-1.51-1-1.5-.43Zm-.43-50.9-.1.39.15.29h.42l0-.53ZM96,98.8l-.48.2v.52l.76-.19Zm2.4,180.42-.94.43.33.34,2.26-.06,2.73.24,2.39.72,1.64,1.58-1,1.25.06.27.6,1,1.13.15.8-.57,0-1.11-.27-.47-.67-.24.23-1,1.47-1.34,1.88-.92,2.87-.13,1,.52-1.61,1-1.51,1.44-.18.44.51.57h.62l2-1.16,2.68-2.39-.14,2,.1,2.62.15.77.78.81.52,0,.38-.63,0-2.86-1-3.92-.47.37-.76.2-1.5.57-.09-.57-1.14-.53-2.54,0-2.2.66-2.5,2.15-2.35-1.52-2.73-.67Zm-.71-36.71-.56-.1.09.39,3.77,3.2,2.11,1.34,1.27-.05.8-.47-.19-.53-.56.28-1.08.05-.8-.57.09-1.1.66-.38,1.28.05,2.39,1.58,1.32.09.52-.33-.14-1-1-.38-1.26-.57-.71.09-1.7-.53-1.64.44-.8,1.14Zm0-11.51h-.56l0,.33.43.2ZM96.23,98.23l-.32.24.41.24.11-.54Zm1.7,133.67-.61,0,.09.24.42.19ZM96.18,97.36l-.09.39.38.19.29-.43Zm.61-.84-.51.18.19.39.42-.2Zm1.85,137.92-.38.57.65.57.85,1.39.38.29.74-.86,1.23.33,2.35,1.86h.85l.85-1,1,.61.32-.14.18.39h.44l2.2-1.69,1.27-.46.89.81.39-.2.46-2.87-.6,0-1,.61-1.64.92L108,236l-.7-.38-.85-.33-1.18.67-1,.1-.84-.3-1.84-.47-1.5-.63ZM96.85,102.29,98,101.15l.71-.2,1.46.77,6.26,4.15,10,6.4.93.44.47-.24,3.3-1.25,11.19-5,.52-.19,8.32-3.64.57,0c-3.34,4.47-6.48,4.43-10.68,6.59-4.72,1.95-8.37,4.23-13.69,5.88l-.93-.33-1.28-.87-1.18-.42-2.64-1.87-1.92-1-6.11-3.86-.33-.33L97.88,103Zm2.06,126.89-.38.29.15.28,0,.38.32.81.29-.14,0-.67-.27-.18.09-.59ZM97.08,71.85l.38-1.77,1,.52.33.59h-.47l-.89.51Zm1,25.86-.56,0,.19.62.47-.24Zm1.45,158.67-.32-1.69,2.4,1.31-1.55.95-.62-.05Zm0-25.24-.42,0,.32.44ZM98.21,96.85l-.47,0,.09.53.43,0Zm.94,24.27-1-2.87L116.74,129l1.13.28,8.47-3.72.79,0-.94,2.54-8.41,3.73-5-2.93-3.63-1.91-2.87-1.67-4-2.3Zm.41,76.9.06-3.58,1.93-1.2,2.63-1.19,1.26,3.14.15,1.11-4.75,2.44-1.13.38Zm.15-5,0-4.32.14-.52.66-.43,2-1,.65,1.82.72,2.48-2.46,1.3-1,.57ZM99,92.55l-.32.24.94.75,1.84.35,2.21-.2,1.12-.72-.23-.66-1.74.75-1.94,0Zm.71,94.38-.09-7,.19-.77,1.45,4.17.76,2.58-1.46.81Zm1.08,42.25-.47.29.2.63.56-.06Zm5.83-33.4-6.86-19.17,3,.66c5.84,15.51,10.92,30.38,17.07,45.7l-3,.14L113,212.78Zm-5.83,34.55-.27.47.61.24,0-.67Zm-.23-30.16-.19-.24,3.21-1.76,2.35-1.06.27.14,2.73,7.17V205l-2.21-1.2Zm-1-99.7-.19-.37.75-.68,2.58,2.58,2.26,1.54,2.54,1.14,3.91,1,4.61,0,2.53-.59,1.61-.71,1.92-1.62.38-.67.61-2.39.76,1.09,1.78,1.49,2.49.86,1.61.1,2.54-.34,8-2.77,2.21-.72.43.06.51.85c-6.38,2.76-12.79,5.54-19.14,8.41l-2.07,1L121,110l-1.84.86-1.42.63-.74.09-6.17-4L104.93,104Zm.18-19.35-.6.53.65,1,1.79.44,2.44.72,1.74-.48.8-1.2,3.87,2.82.56,0-.53-.68-3.29-2.91-2-1.24L103.81,80l-1,.59.27.48.49-.15,1.17-.15.69.57.06.92-.75.57-1.17-.14-2.41-1.49Zm.57,42.82-.47-1.14h.47l8,4.58,0,.43L103,130.49l-.29-.19Zm1,40.72-.79-.57,2.35-2.15,1.36-2.21,1.08,2-.94-.19L103,162l-.7,1.2.32,1.43.62.7,1.17.39,1.32-.24-.76,1.39-.56.57-.85-1.24Zm-.84-7.26.37-2.11.24-.38,1.27-1.28,1.32-.53,2.49.18,1.18.72.94,1.53,0,2.2-.62,1.73-1.45,1.34,0,.42-.89-1.38-.61-2.44-.24-.33-.56.38-.61,2-1,1.47-1.09-1.58Zm.94-60.27h-.71l.14.62.47.19Zm1.93,137.31-.1.29.34.33,1.12-.62.74-.1,2.32.1,1.17.53.33-.24-.42-.53-1.5-.57-2.5.05Zm-.81-137.22h-.65l.09.53.47.19Zm-.33.82-.09.37.33.59.43-.24-.2-.72Zm1.85,130.24-.57.27.23.81.56,0Zm-.81-64.19v-.86l.61-.58,1.08-.14.47.42.1,1.11-.57.58-.37.09-.51,0Zm1.13,65.66-.38.15.33.77.43-.39Zm-1-97.74-.2-.57L107.9,129l1.36-.48-.14,5-4.42,2.11Zm.56,46.08-.14-.67,3.25-.34,3.33-1.1,5,9.42,5.92,8.75,7.11,8.41,4.61,4.83,5.69,5.21,4.05,3.05.36.57-4.36,2.21-3.29,1.85L127.93,224l-1.83,1-2.59-1.19-2.63-.72-1.69-4.5-1.59-3.68-6.17-16.49-5.59-14.85Zm-.19-81.3-.42.24.19.72.42,0,.15-.47Zm.28-11-.7.81,0,.52.71.92,1-.1,2.49.28,4.65,1.67h2.45l1.08-.75.56-1.45L116,86.23l-1.4-1-1.37.11-1.09.85.24.82,1-.68.94-.09.66.57.09,1.3-.85.67H112.6L110.54,88l-3-1.72-2.08-.76Zm.1,12.18-.47.14.32,1,.43,0,0-1Zm1.5,130.52-.51.29.32.61.47,0Zm.19,1.15-.28.19.09.33.47-.09ZM104.37,62l-.61.13,0,.35,1.69,2.33,1.26.81.71.1,5.55,0,2.17.18,2.35.68L119.33,68l.8.27-.14-1-2.36-1.9-2.06-1.19-2-.5L107,63.63l-1.42-.53Zm.89,75.22-.18-.72,3.38-1.76.71-.19-.09,4.91-.94.63-1.65.67Zm1.84,92.43-.57,0,.14.57.43.2Zm-1-64.62.33-1.8.18-.26,1.23,1Zm.42-95.34L105.17,71l.61,1,2.73,5.2.71.87.14-.91-2-4.41,1.37.87,2.11.57,2.92.1.42,0,1.08-.48,1.23-.33,1.27-.53.56-.72.85.2,1.5.19,0-.48-1-.76,0-.19,0-.63L117,68.54l-2.68-1.43-1.41-.19-2.59-.09-1.93.48-1.07.62-1.56-1.58-.47.06,0,.46.58.92Zm1.32,93.19-1.45-1.43.56-.1.74-.57,1.7-.81,1.65-.09,1.27.23,1.46.86.94,1.63v3l-.85,1.38-1.46.87-1.45.14-2.5-.57-1.64-1.43.23-.33,1.5-.78,1.51-.42,0-.58ZM105.73,43.17v.63l.2.33,1.45,1.19,1.79.39,1.41.81.65-.24-.23-.81-1.78-1.58-1.79-1-1.32-.09Zm1.47,100-.38-1.52,1.82-.91.58-.05,0,7.74Zm1.64,96-.76,1.2.15.62.41.52H110l1.94-1.29,2.35-1.43,2.59-.39.88.44.62.9-.18,1-.47.43h-.81l-.75-.43-.7.33.88.91,1,.24,1.07-.39.85-1.09-.09-1.82-.85-.86-1.83-.62-2.59.33-3.11,1.06Zm-1.61-142.8-.61.24.34.66.51-.24Zm.24,1-.56.09.32.86.43-.15Zm1.14-24.91-1.89-1,.48-.33,1-.48Zm.61,189.88.42-2.44,0-.09,2,.66,1.23.35,2.39,0,2.21-.71.33-.72h-.66l-1.46.59-2.3.13-2.08-.43-1.17-.71c6.2,2.1,6.43-1.64,9.22,1.47l-.94.77-1.32.66-2.44.06h-4.52l-.46.38Zm0-5.79v-.38h.47l1.32-.85-.29,1.81-.38.19Zm.76-26.47-.29.19.29.38.32-.24Zm.32-.86-.52.24.33.38.43-.24ZM108.51,95.89l-.1.39.38.28.18-.48Zm.71.81h-.61l0,1,.44.75.41-.37-.32-.62Zm-.94-28.1v-.24l2.48-.72,2.59.15,2.26.86,1.37,1-2.55-1.2-2.86-.33-.19-.05-2.54.38Zm2,82.88-.1-1h.25l1.82.86,5.38,3v4.89l-.67-.39-1.36-2.63-3-3.06Zm0-2.17-.18-.18V147.4l.23-.57,5.09,2.77L117.6,151l-.11,2.11-.14,0L113,151Zm-.93-78.12.13-.68.1,1,.84,1.1-.14.28-.42-.24Zm2.3,159.28-.7.09.56.44Zm-1.51-84.69.14-2.57,5.84,3,1.41,1-.05,2.57Zm.1-3.64,0-2.66.2-.1,3.33,1.77,3.72,2.19.09,2.53-.38.15Zm0-4,0-2.53.28-.11,4.47,2.39,2.45,1.49.14,2.63-.29.09-4.27-2.34-1.61-.81Zm0-3.83v-1.95l.25-.24,3,1.62,3.9,2.39-.1,2.2-2.76-1.43Zm0-3.48V129l.18-.38,3.87,2,3.15,1.86.09,2.26-.33.13-3.9-2.24L111,131.5Zm1.41,126.54v-.85l.38-.91,1.21-1.1.47-.14,1.7.19,1.09,1.1.23,1-.14.81-.47-1.67-1.18-.77-1.27-.06-1,.63-.51,2.06Zm.09-27.85-.38.28.2.38.47-.18ZM110.49,95l-.47.14.18.39.43.14ZM112,228.9l-.61,0,.52.33ZM110.91,96l-.57,0,.15.53.32.15ZM112.28,228l-.38,0v.47h.56ZM111.47,176l-.15-.66.67-.44.56-.19a118.93,118.93,0,0,0,14.78,21.8l1.5,1.77,4.18,4.63,6.93,6.75,4.65,4,.89,1.1-1,.48-.71.23c-11.6-7.93-25.09-24.64-31.42-37.27Zm-.56-79.13-.37.18.13.39.38.24.18-.57Zm0-23.47V72.9h1.74l.79-.72.62-1.82.41.24-.13.77-.61,1.2-1.18.81ZM113.45,231l-.66.14.1.34.42.05Zm-.23-.67-.33.34.56.09,0-.43Zm-1.7-189.69-.33,1.19.53,4.93.36.57.38-.24.61-2.44.24-3.06-.71-1.19-.52-.15Zm2.21,188.87-.56.1.37.49Zm-1.36-135.2-.56.15.09.33.56.24Zm-.05.67-.24.47.14.3.48,0,.19-.62Zm1.32,134-.1.39.38.09,0-.43Zm.85,3.4-.62.19.38.47.38-.24Zm.36-1.4-.65.87.29.48.36-.3Zm.62-.71-.75.14.13.43.43.14Zm-1.18-57.3L115,172l1.64-2.76h2v.19L114.72,173Zm-.22-79.57-.58,0,.09.53.44,0Zm2.24-49.66-3,2.63.09.43.47.24L117,46l2.25-1.58-.19-.29.33.09.24-1-.57-.38h-.75Zm-1.41,132,.57-2,4.9-4.63,3.14-.11H125l1.5,0,.67.1.88,2.19-.5.71-6.69,6.08-1.46,1-1.55,0-1-.37-1.13-1.1Zm1.47,57.89h-.43l.37.42Zm.18-.57h-.38v.33h.34Zm-.13-1-.11.39.2.18.42-.33ZM115.33,92.25l-.48.24.29.44.38-.24ZM114.67,73l.9-2.06.56.06,1.5,1-.52.33-1.54.68Zm.61-25.75-.85.23.42.63,2.31.52,3.11-.14,2.16-.67,1.41-1,.42-.24,1.46,1.3L128.36,49l1.6.15.79.38.15-.14,1.88-.15.32,0,.47-.29-.32-.42-2.72-.1-3-.86-1.65-.82-1-1.24.62-.71.14-.77-.52-.81-1.27-.15-1,.92.89,1.56-1.22,1.16-2.31.9-3.1.05-.33,0Zm1.88,184.24-.61.09.09.42.38.06Zm.44,25.71-.44-2h.38L119,256ZM116.46,91.5l-.38.24.23.37-.18.09.18.53.43.06.1-.48Zm1.79,143.08-.62.15.29,1.05.37-.29Zm-1.14-66.38.09-.77.15-.2.37-4.1-.41-2.48.18-.53,7.06-.15.37,1.77,1.84,6-.24.33-5.27.1-2.87.1Zm1.09,65-.33.95.29.24.36-.14V233Zm.57,25.57-.14-.53,1.54-1.29.14,3-.85.39.1-.59Zm1.13,20.36-.71.19,0,.48.76.86,2.68,2.1,1.5.33.43-.33.14-1.1-1-.82ZM117.82,90.82l-.51.24.38.44.36-.15Zm0,.81-.19.33.33.92.47.05-.23-1.19Zm1.08,67.63-.27-.52,0-3.07.19-2.1,4.56-2.09.75,5.53.09,2-4.8.14Zm-.32-7.78v-3.55l.09-1.52,2-1,1-.48,1.59-.57-.09,3,.18,2.1-.09,1.14-4.47,2.06Zm-.15-6.42.09-5.31.43-.42,5-2.39.11,1-.71,5.06-4.52,2.29Zm-.05-7.64.1-4.6.15-.42,1.12-.53,6-2.52-1.41,6.25-.84.62-4.8,2.21Zm.9,46.12-.14-1.29.38-1.43,3.56-3.35,5-4.39v9.08l-1.5,1.47-3.1,2.68-1.89-.18-1.5-1.16Zm1.27,53.23.09-1.71.29-1.38,1.22-1.78-.52,1.25.09,1.67.53,1.29-1.52.86Zm.18,2.3v-.76l1-1,.8-.48.76,0v.35l-.33,0-1.08.86ZM119.66,89.81l-.47.24.37.53.34-.24Zm0-.57h-.47v.44h.47Zm.14,1.39-.47.1.09.47.48.19.18-.38Zm1.51,170.72c-.33-1.84-.94-15.86,4.32-11.47l0,1.72-.66.61-.75.1-.6-.67.47-.81.36,0,.71.53.19-.75c-4-3.39-3.16,6.48-3.29,7.92ZM120,91.44l-.53.24.34.52.42-.24Zm1.32,150.31.18-1.72.52-1.11,1.83-1.19,1.14-.23,1.17.19.89.95.19,1.48-.42.82-.66.52-1.28,0-.56-.81.76-1.1.51-.09.2-.68h-1.33l-1.08,1.25-.7,2.53-.1,4.31-.56,1.71-.14-4Zm-1-149.44h-.37l.09.38.32,0Zm.28.75h-.47l.38.48Zm-.24-31.58,1.32,0c2.89,9.91,1.83,18.42,2.35,28.38.45,4.92,0,11.51,6.92,10.86l1.37-1,.56-1.34.09-1.34L132,95.32l-.9-.53h-.8l-.61.29.14.28.67.66,0,1.07c-2.27,2.31-4.73-2.55-.8-3.73l1.94.23,1.17.76,1,1.87.15,2.3-.44,1.38-.93,1.16-2.07,1h-3l-1.55-.47-1.6-1.49-1.32-2.58c-2.66-10.46.2-21.5-1.59-32.11Zm3.2,128.12v-1.23l.42-1.1,4.1-3.68,0,7.5.09.86-.47.43-.6.09-1.13-.19-1.65-1.43Zm-.09-124.73-.75-3.3,1.13,0,.24.29.65,2.78.85,5.83.24,3.15.18,3.24.38,3.73,0,4.4.18,1.25L127,96.28l.42,1.28,1.08.76,1.69.15,1.08-.76.39-1.39.14.14.32,1.1-.37,1.35-1.18,1L129,100l-1.54-.66-1.14-1.2-.7-1.81L125,92.59l-.15-2.49-.27-11.75-.29-7.55-.74-4.45.09-.67Zm1,85.54c-.75-9.91,2-22,6.41-30.91l2.95-5.21,4.56-6.45,2.55-2.59,3.53-3.73.61-.19.94,1-1.23.86-2.3,2.19-1.79,2-3.24,4-2.4,4.07-2.5,4.11-1.83,4.35-2.82,8.36-1.37,6.93-.56,7.07.05,3.06.42,4.87,1.26,7.56,1.76,5.68.32,1.58-.61,1.73-.61-1.4-2.27-7-1-5.64-.38-2.3Zm1.27-84.92-.85-3.77h1.32c2.34,9.35,2.84,21.38,2.88,30.72l-1.38.92c-.57-8.46-.29-17.49-1.77-25.9Zm1.51-3.35.1-.23.94,0,.28.75.9,4,.51,4.68.37,2.25.89,13.72.15,4.15-.28.58-1.08.09c-.7-5.86-.71-12.83-1-19.07Zm2,135.16-.09-.62.29-.19h5l.93,0,.57.38.48.72-6.45-.06Zm0-1.72-.14-1.09.37-.29,3.44,0,.85.62.66.91-3.48,0Zm-.14-2.43v-1.1l.9-.1.89.28,1,.87v.29h-2.21Zm.1-2.15-.14-1,.23-.14,1.92-.15,8.47,0,2,.43-.24.86-6.16-.1Zm-.14-2.21v-1.1l.47-.18.27,0,5.18,0,1.32.18,1.69,1.05-.23.2-7.2,0Zm.29-2.09-.29-.81.32-.49,4.38.1.94.91v.29l-.8,0Zm-.25-2.16v-1.19l.28-.15,2.21.15.94,1.09-.51.25Zm0-2.2v-.86l.37-.28,1.32.24.24.9Zm0-2.06v-.95l.23-.15.62.24v1.06Zm.09-2v-.86l.29.86Zm-.94-133.87V45l.18.39,1.32,1.28,1.94.83,1.31.66.37,0,.11-.61-.38-.68L131,44.75l-1-.71L128.69,44Zm1.32,104.53a53.05,53.05,0,0,1,3.94-22.33l.05.29.57,1.58,1.22.76,1.27,0,.09.19-1,1-.85.39,0,.57,2,1.34.57-.15-.1-.71.38-1.68,1.32,1.4.75.33,1.22,0,1.08-.76.71-1.58-.18-1.62-1.79-1.34.28-.24,1-1.29.09-1.19-.38-.92-1-.81-1.42-.18-1.08.86-.8,2-.75-.39-1.13-.13-1.46.57a54.58,54.58,0,0,1,14.2-19.8l1.09.68,1.13,1.25,1.78,1.43,2.87,2.58v.33l-5.08,5.55v-.24l-.18-1.54-.85-1,1-1.35.09-1.38-.27-.91-1.18-.81-1.46,0-.89.42-.65,1.82-1-.53h-1.41l-.9.57-.51.86.15,1.58.7,1,1.69.57-.94.87-1.09.42v.48l1,.42,1.18,1.25.42-.24.14-1.1.43-1,1.36,1.3,1.23.19.94-.39L145.1,125l-2.68,5.94L141,135.41l-1.18,6.64c-.69,5.29.1,10.53.76,15.77a16.12,16.12,0,0,0-8.28,5.83l-.28-.28-1.23-4.59-.94-5.54Zm.51,23.51.28-.81,1.27.48,1.74.57,2.59,1.14,4,.86,1,.54-.05,4.15.05,5.78-.14,1.34v2.11h-.44l-.65-.39.2-2-.15-9.8-.43-.48-3-.86-1.27-.33-.58-.29-3.65-1.25Zm-.24-27.33c.42,2.36,2.32,3.33,4.29,1.71l-.29,1.53-.56.95.23.53.9-.09L136,150l.34-.44-.34-.46-.51-2,.76.39h1.5l.47-.2,1-.9v-1.92l-.28-.67-1.22-1-1.09,0v-.28l.29-1.63-.47-1.05-1.5-.91-1.42,0-.84.59-.57,1.09.47,2.15-.93,0-1.33.86ZM131,199.36l-.51-.92h6.91l1.18,1.11.36.57-1.68.1-5.41-.05Zm-.65-29.11.51-1.68,1.37-2.62a29.67,29.67,0,0,0,27.14.29l.88,1.76.67,2.78-.29.24-2.4,1.19-3.76,1.24-1.22.2-4.23.57-.62.47.06,3.4-.15,2,.15,1.05-.33,8.07-.43.14-2.92.15-2.53-.38-.48-.39.23-9.41-.18-.37,0-4.41-.33-.52-1.54-.24-3.2-.81L135,172.4,131.75,171Zm0-102.08L129.3,62l.94.14,1.32,6.51,1,9.6.2,2.59.27,5.73.44,4.44-.2.24-.89.29-.47-6.16-.18-3.44-.58-7.37,0-1.62Zm4.08,126.21-2.29-2.48,2.73.2,1.79.52,2.06,1.19.85,1.05.29,1.73.69.23,2-1.43.85-.38.19.33-3.86,4-1.74-1.58-1.82-2Zm-3-130.71-.24-1.34.71,0,.43,1.43,1.12,8.51.58,4.68,1.12,12.44-.09,1.47-.81.24c-.7-6.39-.69-12.64-1.64-19Zm1.28,137.6.14-.29,8.89.09-.38.72.18.68-7.47,0ZM132,92.69l.37,0,.81.15,1.63,1.34.9,1.8.09,2.06-.56,1.49-.56,1-.56.37.8-2.09v-2.3l-.85-1.77Zm.8,72.06c3.15-4,6-5.82,11-6.73l4.24.09,3.14.76,3.3,1.73,3.15,3,.9,1.34-.34.57c-6.31-8.53-18.22-8.76-24.7-.48Zm.33-101.32-.24-1h.56l.43,1.24.89,6.12,1,8,.67,5.79.42,6.6-.8.19-.43-4.16-1.45-15.44Zm1.73,140.23.15-.29,5.22-.05,2.3.14.76,1.16-.19.33h-4.37l-2.31,0Zm-.83-111.22-.15-.33.37,0,1,.13,1.47,1.2.65,1.15.38,1.82-.33,2.54-.76,1.23-.85.38.38-1,.47-2.63-.27-1.64-1-1.62Zm.69,73.27.14-.63.2-.28,2.1-2.05,3.07-1.86,1.13-.48,2.26-.38.18,0,2.44-.38,2.55.48,3.39,1.24,2.11,1.39,2.21,2.28.33,1-.75.3-.38-.3-3.11-2.81-1.92-1.05-3.11-.92h-3.38l-2.64.54-2.91,1.47L135.74,166ZM133.91,48l-.14.53.33.71.52.14.27-.28.53-1.48.74-3.63L136,41.69l-.47-.63h-.62l-.51.49-.71,2.62.1,2.26Zm2.45,27.82-1.85-13.24.48.38,1.28,6.55.47,2.92,1.5,11.9.23,2.9.1,2.74-.62.13-.23-.94-.24-1.82-.61-7.13Zm.18,16.34-.42-.48,1.18-.24,1.41,1.34.51,1,.38,3-.09.68-.29.81-.89,1h-.18l.27-.87.05-3-.56-1.73Zm.29,74.28c4.5-5.7,13.89-5.86,18,.42l-.36.29-.76,0-2.12-1.76-2-1.11-3.2-.84-2.77.18-2.93,1-2.63,2.06h-.65Zm-1-103.29.15-.33.61.18,1.13,4.84,2.54,17.39.28,4.21-1,.23-1.18-12.13-.93-6Zm1.61,143v-.33h6.3l.51.77,0,.86-4.66.14-.75-.14ZM136.36,48.48v.61l.14.24,2.3-.85,2.17-1.3L142.15,46l.14-.9-.39-.59-1.13.15-1.26.77ZM138,192.23v-.37l3.4,0,.33,1.39-2.22,0ZM139.09,71l-1.56-7.89.19-.14.52.24.74,3,1.61,8.22.13,1.91.9,4.82.85,7.61-.94.29-.66-4.69-.37-3Zm-1.18-21.71-.57.35.61.66,2.31.67,2.36,0,3-.3,2.92-1,1.32-.86-.2-.63-2.54,1-3,.72-1.5.14L139.79,50Zm.94,42.45-.61-.77,1.12-.1.94.59,1,2.24.05,2.48-.89,2.49-.94.53.7-1.44.15-2.48-.53-2.06Zm.66,75.6-.19-.52,2.58-1.67,2.45-.72,1.56-.14,2.12.33,2.15.81,2.08,1.76,0,.29-.89.34c-3.21-2.35-7.52-3-10.69-.28Zm1.41,42.06-.89-1.05,2.53-.09,2,0,.28.53.47.18.62-.71,4.18-.14,8.47.1v.29l-1.83.9-8.61.15-5.47,0-1.08,0Zm0-13.86-.71-1.43,2.13,0,.09.33Zm-.51,4.59,1.12-1.29.24-.34,1.55.05V199l-.71,1.19ZM139.55,65l-.23-1.58.71.06.18.27L142,73.57l1.79,8.89.71,5.73-.89.39-.43-.15-.28-2.72-1-8.42Zm.9,25.53.52-.24h.42l1.17,1.14.62,1.72.23,2.11-.43,2-1,1.25h-.47l.47-1.43.14-2.78-.28-1.49Zm2.06,120.15.62-.2,10-.14,1.28.19-2.32,1.14-5.88.15-2.53-.09Zm0-8.61v-.42l.47-.39,1.51-2.63,1.46-2.92,1.17,3.4,1,2.3.32,1.14-1.5,1.62-1.7,2.63-1.64-3.44Zm-.09-10.22.09-1.58,2,.24,4.56-.2.14.58-.29,2-1,1.24-1.5.52-2.08-.18-1.12-.77Zm.89-23.76-1-.39.93-.52,1.6-.38,2.77.09,1.75.92-.05.28-2.82.14Zm-.62,29.54,2-1.82-.76,1.87Zm-.23-107.59.09-.13.52-.11,1.32,1.34.66,2-.09,2.68-.62,1.63-.74.43.47-1.77,0-2.5L143.69,92Zm2,66.58c-2.14-7.94-1.16-17.28,1.73-24.89l1.94-4.31,2.62-4.59,1.47-2,2.53-2.73.71-1.1,3.34-2.85,2.07,1.86,0,13.71v15.92l-.85.81L159,148l.14,1.76.8,1.73-.24.47.33.81.52.83.85-.29,1.5-.06,2.07.44.7,1.62.38,1.43-.32.15-.95,1.23.57,1.58h.38l-.1-.62.24-1.19.65-.43,1.13,2.15-.89.72-1.5.14-.91-.29L163,158.83l-.65-1.05-.43-2.39-.38-.24-.42.72L162,159l-.32.66h-1.38l-1.32-.81-.51,0,.42.86,1.47.72,1.88.05c-.6,2.15,0,4.3.27,6.45,1,1.4,1.56,3.17,2.73,4.45L164,174.18l-1.46.22-.27-1.56.05-1.82-1.14-3.83-1.5-2.86-2.55-2.92a17.07,17.07,0,0,0-12.32-4.4Zm1.12,57-.51-.77,3.76-.15.52.19-2.69,1.39ZM144,89.53l.23-.09.56-.09.76.46.18.24,1,2,.11,2.81L146,97l-.62.24.53-2.67-.2-2.44-.94-1.72Zm2.11,117.81.15-.62.84-1,16.42,0v.42l-1,.63-1.69.62Zm1.32-9.65-.47-2,1.83,1.25.52.72ZM146.14,89.48l-.32-.48h.65l1.18,1,.89,1.86.09,2.2-.71,2.3-.65.19.32-1.35.06-2.52-.29-1.25Zm1.42,115.38,1.35-1.49.33-.19,3.86.1,10.4-.05.32.29-.23,1.14-.75.09-13,.29Zm.22-5.94.1-.28,2.64-.14,1,.77,1.07.61,1-1.19h.76l2.21-.15,2.91.15h3.87l.47.14-.28,1.25H148.5Zm.52-3.34-.24-.48h.44l1.63.68,1,.13,1.13-1.86,2.87-2.15,1.6-.66,1.78.13.1.49-2.36,2.48L153,198.21l-.75.53ZM148,89.15l-.52-.53h.76l1.27,1.54.7,2.33L150,94.74l-.7,1.05-.24,0,.24-.52.1-3.07L149,90.63Zm1,112.27-.19-.39,2.88-.24h5.44l6.41.1.23.33-.19,1.2-6.45.09-7.47,0Zm1.69-6.32-1.55-.81,1.83-.18Zm-1.64-6.25.32-9.23.06-4.11c3.83-1.33,8.11-1.39,11.76-3.5l.09.87c-4.41,3-6.38,2-10.55,3.69v3.58l-.22,8.46-.76.37Zm.74,4.34.47-1.24,1.14-.09,1.12.09.62.15-1.27,1.09Zm.33-2.24-.28-.91.47-.29,13.08,0,.47.28-.19,1-3.8-.05-1.85-.63-1.73.05L155,191l-3.77.09Zm.61-100.32-1.26-2,.84.57.8,1.34.47,2.06-.09,1.43-.52.81,0-.14.09-2.67ZM154.65,189l-1.41-.19,2.12-1.28h7.81l.61.18-.1,1.2Zm-.24,8.75,1.23-1.38,6.44-.09,1.13-.06.47.24-.09,1.43-8.51,0Zm9.09-2.15-7.15-.13,1.36-1.45,6,0,.1,1.34Zm-2.73-8.79-4.33-.09,1.36-1.34h5.84l.27.38-.18,1Zm-2.16,6.31-.05-.1,1-1.05.4-.2h2.3l1.59.11-.09,1.2-2.06.13Zm0-8.61.42-.66.5-.58H163l.9.1-.19,1.19-4.37.05-.43.1Zm1.41-2.05.18-.63.66-.81,2.87.05.18.91-.18.53Zm1.08-2.06.13-.72.44-.52,2.11,0,.09,1-.61.28Zm.61-2.19.47-1h1.6l.09.9-.47.24Zm0-33c.52-24.72-.18-49.47.56-74.17l5.5-5.35L169,66.92l.19,26.82-.94-3.44L168,85.56,168,75.1l.23-1.34.37-3.53-.24-2.77-.56-.11-.18.38-.09,3.16-2.5,10.85-.2,1.67.2,3.49,1.59,7.8.24,3.2-.29,4.3L165.32,107l-.83,5.68c0,6.42,3.26,12.87,1.92,19.08-1.59,6.46-2.18,9.35-.09,15.09l-1,1-1,.62-.74-2.2-.49-.29-1.17-.37Zm.56,31.21v-.9l.18-.15,1.7-.15-.24,1.2Zm.83-11.71-.27-.19v-.86l2.06-2.3.91.06Zm-.32-2.48v-.87l.47-.66.57.15.09.33-.9,1.05Zm.71,4.92-.28-.95.61-1.3,1.74-1.86,1.36-1.86,1.32-.72.23.43Zm1.08,38.24.1-8.66.09-1-.09-8.5.22-9.23,1.38,1.19L168,180l-.05,7.18.2,11.6-.09,5-2.61,1.44Zm-.29-36.91.1-1.24.09-.18,2.92-3.4.61-.38.42,1.1-.89.71.15.28-3,3.45-.18-.1Zm.76,7.85-.19-2.06L165.9,172l1.65-1,1.68-.15,1.5.68,1.09,1.1.47,1.23.14,1.73-.52,1.67-1.18,1.05-1.88.72-1.74-.24-1.45-1.24Zm.05-6.46.51-.91L168,166l.36,1.19-1.3,1.78-.67,1.2-.6.38Zm1.93,2.92-1.17,1.72.09,1.28.47.92,1.45,1.05,1.88-.05,1-.87.42-1.09-.18-.82-.47,0-.9,1.44-1.6-.2-.65-1.05.09-1,1-1.05.33-.62-.89-.11Zm1.87-2.68-1.74,0,2.17-2.58.94.19,0,.44Zm4.47-6v-.85l-.09.42Zm-5.12-46.4.05-10.81.69-2.87.4,9.56-.15,7.46Zm.32,25.61.2-3.63.37-1.72,0,4.15-.14.33v2.45ZM170,170.1l-.13-.24.27-.42,1.18-1.47.94.23-.42.85-1.08,1.34Zm-.37-23.36.09-1.58.1-2.67.09-7.55.38-6-.29-2.15v-24l-.09-24.66-.15-8,.24-2.15.57.81,0,3,0,2.15L170.73,96l.2,11-.09,7.17.09,3.87c-.6,10.11.45,19.93-.38,30Zm1.92.48-.18-2.34.23-16.45,0-6.4.11-8.93-.34-40.68.23-2.87.47.44.15,29.82.18,3.29-.13,2.06c-.07,13.83.19,27.6,0,41.43ZM34.1,290.5H174.26v-254H34.1Z"/><path class="cls-4" d="M40.08,145.16l0,2.77,1.51.39,1.7,1.47.41.86.57,2.06c.71-10.19.54-21.14.24-31.3H44.3l-.37-.33-.52.18-.38.11-1.22.85-1.23.91-.32,2.25v6.21l-.15,7.94.15,2.39"/><path class="cls-4" d="M47.41,173.79l-.51,1.34.32.28,1.45,2,.33,1.47-.33,1.2-.94.91c-.19,6.84-.25,13.7-.09,20.55l-.14.43v4.26l0,.24,0,1,.14,1,.38.66.2-.33,4.18-4.44.47-1L54.7,201a42.16,42.16,0,0,0,5.41-19.26l.09-2.72,0-4.41-.18-1.95-.38-1.14,0-1.25-.57-.57-2.35-.86-2.44-1.4-2.26-2h-.24l0,.68-1,3.95-1.22,2.59m-1.93,37.85.23,2.87.15.09a40.48,40.48,0,0,0,14.81-22.41l1.09-5.83.23-6.41-.19-1.33-.28-2.83-.94-3.82-.47-.62-1.79-.09.09.47.67,4.88.13,1.34-.23,4,.05,3-1.23,6.93c-1.51,7.41-6.07,14.11-11.76,18.88Zm.85-10.42.51-.33,2.69-.1.65-.38.53-1.2-.11-1.23-.83-.39L49,196.15l-.33-.09,0-.24,2.22,0,1.69.37.67.67.13,1.62-.75,1.2-1,.53-2.12.15Zm.27-7.17.15-.39,4.47-.09,1.37-.24.51-.95.14-1.53-.61-.62-.6-.15-1.79-.19-3.68-.14.24-.37h2.68l3.58.23.74.67.05,1.19-.19,1.38-1.18,1.16-2.68.15Zm0-8,.37-.24,4,0,2.63-.15,1-.8.19-1.3-.47-.82-1.17-.47-3.11-.24-.18.05-2.59-.14.42-.34,6,0,1,.44.71,1.09L57.14,184l-1.45,1.2L54,185.3l-3.87-.14Zm1.13-7.83c2.51-.53,8.79,1.42,7.43-3.49L56,173.12l-1.89-.28-2.35-.2-.43-.19.39-.24,4.28.19,1,.48.61.91.15,1.24c-.6,3.86-5.26,2.3-7.77,2.53Z"/><path class="cls-4" d="M67.12,264.25l-2.26,3,.24.29,3.43.72,2,.33,4.41.57,6.87.77h1.7l3.9.38,6.11.28,5.14-.09,6-.42,8.09-.92,5.63-.81,2.55-.48,1.12-.48.62-.14,0-.43-1.84-2.68-1.22.2-3.39.76-6.54.91-4.89.52-6.11.09-.2.05C89,266,78.39,266.78,69,264.45"/><path class="cls-4" d="M65.37,110.75,65,111a139.52,139.52,0,0,1,18.17,17.24,147.76,147.76,0,0,1,15,23.48l1.12-.28,2.4-.83.33.06,1.46-.34,1.36,0,.8-.27c-5.93-15.22-11.47-31-16.84-46.36L85.18,103l-2.44-1.14c-5.31,2.56-10.91,5.77-16.32,8.07m8.7,4.72L75,113.14l.51-1,.91-.81,1.59-.66,1.59-.1L81,111l1.64,1.23.71,1.16.37,1.76-.37,4.36.18,2.1.8,2L85.56,125l1.17.15,1.56-.39.8-.86,0-2.15-.27-.66-1.18-1H87l-.29,1.29-.7.33-.19-.48.33-1.05.76-.71,1.32-.19.92.61.91,1.69v2.61l-1.41,1.25,0,.57,1.47.48,1.93,1,1.6,1.47.79,1.25,0,2.2-.37,2.25-.15.14.52,4.06.57,1.29,1.37,1,.89.18.79-.57.06-1.14-.29-.58h-.42l-.76.53-.14-.57.56-.44,1.18.15.52.58.14,1.14-.47,1-1.28.86,1.37,1,1.42,1.48.61,1L101,147l-.29,1.05-1.21.67-.75-.48.13-.23.29.27.85-.47.13-1.15-1.31-2.15-2.31-1.76-2.35-2.15-1-2.39.23-4.3-2,.28-1-.34-.94-1.34.38-1.76.94-.53.19.29-.85.86.28,1.05,1,.81,1.26-.09.71-.57.43-1.49-.61-1.43-1.36-1.39L89.56,127l-1.89-.48L85.79,126l-1.26-.57-.91-1.25-.88-2.87.14-4.63-.14-1.91-.95-2-1.5-1.14-1.23-.29H77.94l-1.18.62-.9,1.44.19,1.48.71,1.53,1.42.66,1.12-.22,1.59-1.54h.38l-.42,1.19-.88.92-1.52.38-1.12-.14-1.47-1.16Z"/><path class="cls-4" d="M86.26,59l-1.55.26,1.46,2.57.8,1.1c11.32-1.37,21.27-3,32.78-1.91a190.18,190.18,0,0,1,21.08,2.25l2.11-3.59-.32-.33L141.11,59l-4.14-.7-2.17-.44-12.13-1.19c-11.49-1-23.07.08-34.43,1.86"/><path class="cls-4" d="M103.24,176.9l-.15.09,4.71,12.67,4.7,12.85,7.77,20.84,1,.39,1.64.38,3,1.43.38-.29,5.88-3,1-.71,3.67-1.78.67-.23,4.56-2.59,1.17-.48.33-.48-1.7-1.47-.89-.58-.94-.72-.29-.38-2-1.57-3-2.63-3.85-4-1.74-2.24-.43-.24-2.82-3-4.71-6-2.58-3.44-2.25-3.62c-2.6-2.94-4.35-7.45-5.93-10.9l-1.23.61-3.1.82m1.74,3.82.38-1.15.42-.52,1.17-.05.47.24-.09.53-.38-.06-.7-.18-.56,1,.84,1.82,2.45,1.68,1,.66,1.32,1.34.6,1.63.15,1.77-.51,2.06.18,1.23,1.75-.86,1.5.38,1.22,1.4v1.67l-.47.72-.57,0c.9-1.53,0-3.75-1.88-3.29L115,193.76l-.33,1,.85,1.67,1.12,1.05,2,1,3.38,1.34c4.6,2.68,2,6.51,2.54,10.24l.94,2.57,1.22,1.44,1.22.71,1.79-.19,1.46-.76,1-1.38,0-1.92-.61-1.25L130.14,208l-1.22-.23-1.17.81-.56,1.1.14,1.91-.57-.77,0-1.29.52-1.34,1.27-1,1.21,0,.76.24,1.7,1.49.7,1.62v2.62l-.66,1.2-1.92,1.19-1.28.24-1.36-.14-1.74-.81-1.36-1.38-1.08-2.21v-3l.23-1.71.18-2.21-.38-1.48-1.35-1.62-1.13-.57-2,0-1.14.82-.89,1.57.09,1.43.33.82,1,.81h1l1.26-.44h.38v.54l-1.26.8c-3.51-.13-4.22-2.78-2.88-5.58l1.75-1.44,0-.44c-6-1.42-5.42-6.61-4.47-11.36l-.66-1.82-1.27-1.15-1.09-.19-1,.81-.28.81.8.92,0,.66-1.09-.62-.56-1.05.14-1.2,1.32-1.47-.76-.58L108.51,182Z"/><path class="cls-4" d="M145,147.27l.42,5.3.9,4.44,2.06.44.29-.15c-3.28-9.78-.53-20.48,3.71-29.49l2.73-3.92,2.17-3,4-4-.15-2.34-.47-.05L157.94,117l-3.38,3.58-2.86,3.88-3.78,7.7-1.54,5-.9,4.59h0l-.19,3.86-.18.29m3.71-3.25-.71,6.69.11,1.14,1.31,7,.43.33.47.05,2.77,1.24,3.58,2.24L158,157l1.32-2L161.8,153l.09-1.1-.37-.09-1.5-1.49-.58.09-4.93.15-2.07.48-1.32,1.25.09.57.81,1,5,.18-.14.48-3.86.15-1.59-.59-1-1.05c.43-4.58,6.21-3,9.37-3.14l-.26-1,.11-1.72L161,145.5l-.05-2.59.05-4.68-.05,0,.14-3.79.15-10.22.18-5.49-.42,0-2,2-2.44,2.63-.7,1.24-1,1.19-.51,1.16-1.17,1.52-.85,1.91-1.65,4.12-.89,3Zm2.21,3.59-.18-1.2.28-.81,1-.82,1.41-.37,4.83-.2,1.89.1-.23.38-4.19.09-3.57.58-1,.91.24.86,1.28.9,6.2.24-1.22.29-4.15,0-1.35-.13Zm1.46-7.65c-.86-4.79,5.53-2.94,7.85-3.31l0,.63-1-.09-4.09.09-1.21.33-1,1.15.09,1,.56.47,1.8.34,2.11-.1,2.55.2-.2.47H155l-1.74-.29Zm1.79-7.89.15-.9.23-.49.75-.76,1.17-.67,3.82-.1V128l-3.49.35-1.18.39-.89,1.38.29,1,1.45.57,3.91.24-.42.48-3.76-.19-1.43-.71Z"/><path class="cls-4" d="M164.06,203.52,164,206l2-.9,2.12-1.16c.07-8.07.4-16.6-.15-24.65l-.65-.06-1.36-.8-1.52-2.3-.14,1.1-.09,1.73,0,5.35,0,5.63"/><path class="cls-4" d="M81.81,69.06c.77-9-7-16.42-15.14-8.71L65,58c9-5.85,4.58-16.86-5.42-17.38C49.4,40.66,44.44,52,53.7,58l-1.65,2.4c-9.25-8.75-17.63,2.1-14.57,11.34,1.16,4,4.75,7.67,9,7.81a7.68,7.68,0,0,0,5.86-2.06c1.62-1.22,2-3.55,3.11-4.64,1.31.67,1.24.54,1.18,2-.6,3.79-3.12,8-5.14,11.16a53.3,53.3,0,0,1,15.65,0c-2-3.25-4.52-7.29-5.13-11.16-.1-1.41-.06-1.32,1.18-2,1.09,1.06,1.53,3.5,3.11,4.64a7.65,7.65,0,0,0,5.85,2.06c4.76-.16,8.51-4.51,9.38-9"/><path class="cls-4" d="M126.52,258.35c-.78,9,7,16.41,15.13,8.71l1.66,2.4c-9,5.84-4.59,16.86,5.42,17.38,10.2-.1,15.16-11.38,5.9-17.38l1.65-2.4c9.25,8.75,17.63-2.1,14.57-11.35-1.17-4-4.75-7.66-9-7.8A7.63,7.63,0,0,0,156,250c-1.62,1.22-2,3.54-3.12,4.64-1.3-.68-1.24-.55-1.18-2,.61-3.78,3.12-8,5.15-11.16a52.69,52.69,0,0,1-15.66,0c2,3.26,4.53,7.29,5.14,11.16.09,1.42.06,1.33-1.18,2-1.09-1.06-1.53-3.5-3.12-4.64a7.63,7.63,0,0,0-5.84-2.06c-4.76.16-8.51,4.51-9.38,9"/><path class="cls-4" d="M172.21,38.66v250H36.06v-250H172.21m2-2H34.06v254H174.21v-254Z"/></g></g></svg>