<svg xmlns="http://www.w3.org/2000/svg" viewBox="0 0 208 326"><defs><style>.cls-1{fill:#fff;}.cls-2{fill:#6f7072;}.cls-3{fill:#f8261b;}.cls-4{fill:#facb1b;}.cls-5{fill:#001400;}.cls-6{fill:#1d1d1b;}</style></defs><title>KD-us-2c</title><g id="Calque_2" data-name="Calque 2"><g id="FR_-_EN" data-name="FR - EN"><path class="cls-1" d="M14.83,325A13.84,13.84,0,0,1,1,311.18V14.82A13.84,13.84,0,0,1,14.83,1H193.17A13.84,13.84,0,0,1,207,14.82V311.18A13.84,13.84,0,0,1,193.17,325Z"/><path class="cls-2" d="M193.17,2A12.84,12.84,0,0,1,206,14.82V311.18A12.84,12.84,0,0,1,193.17,324H14.83A12.84,12.84,0,0,1,2,311.18V14.82A12.84,12.84,0,0,1,14.83,2H193.17m0-2H14.83A14.83,14.83,0,0,0,0,14.82V311.18A14.82,14.82,0,0,0,14.83,326H193.17A14.83,14.83,0,0,0,208,311.18V14.82A14.83,14.83,0,0,0,193.17,0Z"/><path class="cls-3" d="M178.1,263.9a64.1,64.1,0,0,1,8.76,12.75,63.4,63.4,0,0,1,8.76-12.75,63.05,63.05,0,0,1-8.76-12.74,65.58,65.58,0,0,1-8.05,12"/><path class="cls-3" d="M12.66,263.9a64.1,64.1,0,0,1,8.76,12.75,63.4,63.4,0,0,1,8.76-12.75,63.05,63.05,0,0,1-8.76-12.74,65.58,65.58,0,0,1-8.05,12"/><path class="cls-3" d="M178.1,62.21A63.75,63.75,0,0,1,186.86,75a63.33,63.33,0,0,1,8.76-12.74,63.33,63.33,0,0,1-8.76-12.74,65.5,65.5,0,0,1-8.05,12"/><path class="cls-3" d="M12.66,62.21A63.75,63.75,0,0,1,21.42,75a63.33,63.33,0,0,1,8.76-12.74,63.33,63.33,0,0,1-8.76-12.74,65.5,65.5,0,0,1-8.05,12"/><polyline class="cls-3" points="20.69 25.55 25.86 39.02 22.62 39.02 22.62 42.79 32.4 42.79 32.4 39.02 29.49 39.02 22.95 21.82 28.77 12.07 32.4 12.07 32.4 8.29 22.62 8.29 22.62 12.07 24.79 12.07 16.98 24.98 16.98 12.07 20.21 12.07 20.21 8.29 10.44 8.29 10.44 12.07 13.59 12.07 13.59 39.02 10.44 39.02 10.44 42.79 20.21 42.79 20.21 39.02 16.98 39.02 16.98 31.71"/><polyline class="cls-3" points="186.12 25.55 191.3 39.02 188.06 39.02 188.06 42.79 197.84 42.79 197.84 39.02 194.93 39.02 188.38 21.82 194.21 12.07 197.84 12.07 197.84 8.29 188.06 8.29 188.06 12.07 190.22 12.07 182.41 24.98 182.41 12.07 185.65 12.07 185.65 8.29 175.88 8.29 175.88 12.07 179.03 12.07 179.03 39.02 175.88 39.02 175.88 42.79 185.65 42.79 185.65 39.02 182.41 39.02 182.41 31.71"/><polyline class="cls-3" points="187.6 298.79 182.42 285.31 185.66 285.31 185.66 281.54 175.88 281.54 175.88 285.31 178.79 285.31 185.34 302.52 179.51 312.26 175.88 312.26 175.88 316.05 185.66 316.05 185.66 312.26 183.5 312.26 191.31 299.36 191.31 312.26 188.07 312.26 188.07 316.05 197.84 316.05 197.84 312.26 194.69 312.26 194.69 285.31 197.84 285.31 197.84 281.54 188.07 281.54 188.07 285.31 191.31 285.31 191.31 292.63"/><polyline class="cls-3" points="22.16 298.79 16.99 285.31 20.23 285.31 20.23 281.54 10.44 281.54 10.44 285.31 13.36 285.31 19.9 302.52 14.07 312.26 10.44 312.26 10.44 316.05 20.23 316.05 20.23 312.26 18.06 312.26 25.87 299.36 25.87 312.26 22.63 312.26 22.63 316.05 32.4 316.05 32.4 312.26 29.25 312.26 29.25 285.31 32.4 285.31 32.4 281.54 22.63 281.54 22.63 285.31 25.87 285.31 25.87 292.63"/><path class="cls-4" d="M94.17,169.21l2.72-.08.17,0,.14-.13,0-.2L97.18,160l-.13-.52-.13-.15-.21,0-1.34,0-.67,4.05L94,166.86l-.47,2.39m18.36-.2L113,169l1-5.43,1.05-4.9-4,.22-.16-.06-.86,0-.15,0-.36.19-.12.09-.08.19,0,6.82,0,.19,0,2.2,0,.12.07.12.14.11.8.3Zm-7.15-10-3,.19-.16,0-.25.21-.09.22.12,7-.07,1.86.06.2.17.19.19.09,3.18-.06.17-.05.17-.16.08-.19-.07-9.05,0-.12-.11-.17-.25-.17Zm39.1,44.36-.12,0-1.61,0-1.64.86-.82.64-.59,1v1l0,.17.12.13.6.19,3.61-1.32.48-.32.11-.12,0-.14.19-1.6-.27-.45Zm2.77-.16.79-.74.12.1.07.77-.88.08Zm3.35-8.1.72-1.08.55.53-.5.94Zm-1.85.69-.64-.68.22-.68-.1,0,.22-.6.19-.08.57-1.09.78.36Zm7.29-9.44.35-.36.54.47-.71.54ZM141,202.68l.33-2,.73,1,1.68,1.23.38,0,1.17-1,.41.69-.52,1.92.07.19.08.09.14.08.64.06.16,0,1.81-.84.29-.09.13-.08.46-.56.06-.24V203l-.76-1.77L146,198.6l-1.81-1.14.15-.17,2.38.37,2.82-.09,1.27-.61,1-.8.41-.61.05-.12.21-1.46-.6-2.19-2.14-2.56-3.83-3.11-.5,0-.14.07-.08.11-1.16,2.32,0,.2.21.59-.15.11-.15,0-.15,0-.11.07-.1.12-1.33,2.91,0,.2,0,.12.12.07.16.06.74,0,.13-.06.11-.08.44-.56.65-1.8.19.48.92,1.38,1.17,1.12-.57-.21-2.29-.1-2.23.43-.13.2-.65,1.8v.16l0,.12.08.09-.08.1-.69,1.49.14,1.85h-.43l-.16.05-.11.09-.08.16-.76,4.42.14.19.12.07.14,0,.68-.12.12-.08.09-.11Zm12.15-17.59,1.28-1.24.19.08.31.75-1.42,1.91-.75-.4.41-.85Zm8.21-6.6.35-.21.5.28-.2.69-.65-.07Zm-6.42,1.61-2.18-2.4,4.12,2.32,3.08,1.09,1.37.25.73-.09,1-.55.59-.69.06-.12.25-.86-.08-1.64-1.2-3.42-2.44-4-.81-1-.21,0-.45.1-.14.07-.91.89-.28,1.11-.19-.15-.12-.05H157l-.11.06-.8.52-2.44,2.83v.21l0,.13.07.09.13.08.63.06.15,0,.82-.31,1.76-2,.25,0,.93,2.33,1.1,1.4.13.07.13,0,.14,0,.9-.64.59.56-1.8,1.88-.6-.54.48-1,0-.19-.06-.13-1.11-.9-.76-.29-3.63-.16-.15.09-.07.08-.87.08-.14.11-.75.85,0,.16,0,.48-.11.05-.2,0-.14,0-.15.11-1.19,1.49-.05.77-.26,0-.13.08-.6.66-2.14,3.33v.19l0,.12.09.12.34.17h.15l.15-.07,0-.09.77-.29h.14l.09-.1,1.56-2.44.39,1.26,1.66,2.06-3-.62L146,184.88l-.34.73v.16l0,.13.13.13,1.12.68,2,.92,2.91,1,3.06.12,1.31-.52,1-.87.07-.15.45-1.58-.06-.19-.08-.1-.12-.07-.18-1.15Zm-43-2,.19-4.29H92.28L90.89,178l.15.17.15.07.88.17h19.75l.15-.22Zm5.17-28.75-2.83-.18L97,149.22l-.31.76-.25,3.73,19.55-.18,1.2-3.66Zm36-34.81,0,.13,0,.16-.8,1-.09.08L152,116l-.69-.22-2-3.91-1.24-3.59.12-1.29.05-.13.08-.11.12-.07.59-.2.3,0,1.87,4.61ZM40.71,239.77l.22,29.75-4.48,3.35-1.83,1.43,0,4.2.35,0,.86-.41L43,272.8l1.71-1.48,0-6.22-.31-42.23-3-1-.73.21Zm21.74-23L63.63,214l.84-.8,1.22-.5,1.45.56,1,2.61L68,220.87,61.9,221l.13-.24Zm15-2.71.7,3.38-.13,3,.22.24-5.94.13,0-4.22,1.1-3.36,1.8-1,1.29.47Zm13.59-.93.83-1.1,1.36-.42,1.88.79,1.94,1.89,1.83,2.93-1.91,3-2.58.05-3-4.91ZM82,220.52l-.12-4.83,1-2.95,1.55-1.19,1.71.34,1.35,2.26.63,3.24-.2,3Zm24.45-11.72-.41-.92.43.48.13.09.28.06Zm-8.12-1.08.84-.91,1.06-.23,1.76.53,1.94,1.3,1.2,1.23.25.05-3.83,4.1L99,210.5Zm5.8-2.92,1.17,2.24-1.48-1.21-3.29-1.34-2.07.3,1.51-1.66,4.7-4.3.09.11-1,1-.15,2.85ZM57.54,182h-.16l-.39.12-.17.14-5.49,9.85-.1.79.05.14.09.09.1.07.25.05,12.83-.09.16-.17,0-.14,0-.23-.77-1.33-.18-.07-.92-.14-7.81,0-.71-.3,4.12-7-.12-.8-.07-.12-.58-.74Zm16.22,5.13-.71.11L75,182.58l.16,0v.16l.06.12.12.11,2.16.57,2.7,1.48.8,1.07,0,.15-2,.92-3.07.28-1.73-.16-.22-.13Zm-18.21-6.41-12.92-.47-.55,0-.44.27-.08.15,0,.15,0,.16.91,1.6.19.11,1.47.11h6.24l2.44.11-5,8.38.09.25.83,1.28.18.07h.13l.65-.27.07-.09,3.5-6.16,2.64-4.89v-.47l0-.13-.09-.1-.11-.07Zm-1.27-3.21-7.69-.29,2.86-5,1.08-2.14-.05-.77-.6-1.14-.14-.05H49.4l-.19,0-.11.14-5.75,10.21.1.27.11.11.57.25,11.28.38.26-.24.06-.1,0-.14,0-.16-.65-1-.13-.12Zm-7.38-9.81L37.74,167l-.93.23-.87.57-.35.4-.07.12,0,.13,0,.13.07.11.1.09.27.1,8.34.78-.8,1.11L39.91,177l.09.89,0,.12.65,1,.23.12.15,0,.15,0,.1-.07.08-.1,6-10.64-.3-.53-.11-.11Zm-1.16-3.12-2.3-.34H41.86l-1.47,1-.06.19v.14l.16.3.13.14.14.05,4.4.43,3.37.1.17-.13.07-.12v-.13l0-.15-.43-.92-.12-.1-.64-.24Zm121.57-1.32-.33-.06-1.8,1.17h-.4L161.15,167l.09.63,1.41.17,2.65-1.73,0,.59.88,3.07.69.33.77-.59.36.54-1.63,1.64-.46-.37.29-1-.07-.23-1.45-1.26-1.49-.73-1.9-.2-.23-.29-.12-.08-.26,0-1.28,1.14.35.91,3.14,2.84,2,1.22,3.22,1.49,1.05,0,1.11-1,.23-1-.44-3.36-.73-2.76Zm5.11.31-2.9-1.59h-.18l-1.62.65-.34.75,1.55,2.24,2.06,2.1,1.92,1.18.74,0v-4Zm-9.83-2.51-2.43-.06-.24.1-.2.44v.2l.42.88.13.1.16,0,5.85.65,1.43-.75.51-.53,0-.18,0-.13-.07-.12-.09-.08-.13,0Zm11-1.11-.31-.05H173l-2.67,1.51-.51.72.89.46.82-.08,2.11-1.18Zm-138.43-1.3-.14,0h-.13l-.12.07-.09.12,0,.16v3.5l1,1.16,2,1.37H37l-2,1.21-.08.21,0,.81,0,.15.08.1.12.07.14,0,.16-.05,1.77-.93.76-.49.11-.17,0-.57.39.25.16,0h.13l1.79-.72.25-.54,0-.15,0-.16-1.28-1.79L37.4,160l-1.57-1Zm4.31-3.16.4-1,.16,0,.7.53-.45.9Zm5.84,4.09,1.49.17-1.24.28-2.06,1.34-.35.36-.06.16,0,.73,0,.16.13.16.13.09.14,0,.16,0,1.22-.65,2.38-1.86,0-.71h.9l.17-.05.63-.68L49,159l0-.13,0-.13c-1.81-2.53-6.51-5.84-9.44-6.2l-.19.05-1.29,1-.08.15,0,.13.05,1.87.52,2.95.72,2.28L41,164.1l.63.17.18-.06,1.11-.79,0-.2.15-2.57-1-2.91-.14-.12-.11,0h-.15l-.92.6-.39-.62L42,155.94l.49.5-.26.92,0,.17.06.12L44,159Zm122.21-11-.25,0h-.2l-.15.09L161.1,159l.11.84,5.24.46h.76l2.86.24,1.18,0,1.17-.7.36-.91-1.51-.43-2.24-.16v0L164.1,158l.75-1,2.74-4.78.9-1.85Zm-121.29.09.69-.57.35,1.06-.91.17Zm117.67-.23L153.05,148l-.42.46,1,1.69,2.06.12.16-.14,6.05.26-1.14,1.79-3,5.6.71,1.62.84,0L163,153l0-.08,2.32-4.06-.37-.22Zm-112.62-.91-4-1.4H47l-1.55.66-.76.86-.06.13-.24.85.18,1.63,1.23,3.54,2,3.25.75,1,.54.45.18,0,.43-.1.15-.1.86-.91,0-.15.17-1H51l.08.09.12.07.14,0,.52-.14.13-.06.93-.81,1.52-1.74v-.21l0-.12-.08-.11-1.09-.41-.17,0L53,153,51,155.26l-.73-2L49,151.14l-.17-.06h-.14l-.12,0-.73.49-.16-.09,0-.2-.49-.28,1.65-1.72.78.74-.51.52,0,.14v.15l.07.13.36.51,1,.83,2.86.51,1.84-.39.68-.3.12-.1.63-.83v-.44l0-.17-.11-.12-2.1-1.38Zm10-4.09-.3,0-1,.42-1.79,2.94.18,1,.86.08,2.42-3.77Zm-9.13-2.22.43-.78h.2l.39.74-.3.21Zm79.28-1.13,4,.32-1,2.31-.82,2.07-3.35-1.05-2.39-1.63-.26-.73,1.17-.62,2.56-.62Zm4.08-1.09.62-.05-.23.49Zm-80.65,2,.78.53-.29,1,.07.19.08.1.13.07,1,.3,2.38.19,2.15-.16,1-.29.47-.54.07-.11,0-.13,0-.16-.3-.57-.12-.11c-2.73-1.31-8.18-4.15-10.8-1.27l-.52,1.08,0,.16.14,1.84,1.35,2.56,2.1,2.85,1.74,1.77.62.3H57l.12,0,.1-.09,1.06-1.35v-1.36l-.46-2.22-1.51-2-.53-.55c-1-.52-.71-.13-1.54.67l-.73-.84Zm111,3.72-10.07-.07,4.89-8.27-.1-.46-.83-1.32h-.8l-6.64,11.87.74.49,13.74.32.15-.26Zm-8.75-10.44-.24,0-12.06.11-1.16.33.05.28.6.94.62.63,2.51.06,7-.09-4.43,7.55.56,1.2.55.46.75-.39,4.76-8.57.87-1.71Zm-90.86,0-.52-.08-1.06.28-.93,2.42.14.89.84.28Zm65-.31,2-1.05,3-.63,3.46.24-3.2,5.67-.21-.32h-.14l-4-1.73-1.22-1.65ZM57,133.12l.74-1.19.52.27.14.66-.48.51Zm45.2-3.43-2.55,1.82-3.46,1.72-.89-7.77,1.91,2.48,2.07,1.39,1.87.33Zm38.94.35-3-1.88-1.23-1.46-.85-1.59,1.54-.41,3.69.12,2,.53,1.75-.57-.24.29Zm-81.05,2,.86.32c-.19,1.51-.41,1.11.89,1.76l2.21.11,2.33-.51.15-.1.1-.2.59-2.17.07-.09.51-1.46.06-1,0-.17-1-2.06-1.32-1.26-1.34-.81H64l-.12,0-.11.11-.4.82-.56,0-.23-.32.43-1.91,0-.18-.22-.36-.13-.08-.13,0-.15,0-1.13.54-.09.16,0,.13,0,.14.07.12.41.32-.11.67-.81.32.14-1.15,0-.14-.08-.1-.12-.07h-.13l-.14,0-.64.47-.11.12,0,.24.22,1.21,1.24,1.8,3.28,3c-4.13-1.38-10.43-.33-7.67,5.52l3.09,3.39,2.38,1.84.64.28.13,0,.13,0,.12-.06.07-.12,1.1-2.31,0-.2-1-2.37-.74-1.16L61,133.82l-.17,0-.13,0-.14.08-.67,1-.85-.4Zm53.62-9,1.74-2.39,3.32-.17.34,0,13.47-.41-4.38,6.93-4.68,8-3.68,8.13L115.64,156l-2,9.38-1.31,8.35-.4,8.1L112,192.4l1.46,11.77-.52-.1L108,207.51l-1.46-2.24-1-3,.2-2.17,1.65-.51,2,1,3.34,3.54.55-.6v-1.3l-1.13-1.61-1.33-1.42-1.52-1-2.35-.5-1.08.36,1.6-1.2,4.68-2.64-.18-2.65-.85-.07-5.45,3-3.51,2.51-4,3.69-3,3.28-1.72,2.2-.28.49-14.9.15-1.94.08c14-20.79,21.6-45.65,20.17-70.9l1.48-.48,5.1-2.88,3.26-2.35,3.75-3.41ZM69.26,120l-.38-.06L65,121.5l-1.28.69.08.28.6.49-.08.6,0,.16.15.16.17.12h1.61l2-1-.27.64-.85,3.22.55,1.18.78-.26.85-5-.61-.25.61-.6Zm39.1,1-2.92-1.18-2.28-2.19,3.7-3.9,1.89,2,1.35,2.79,0,1.58ZM83,179.75l-2.43.65-1.81,0-.17.06L77,180.14l-.08-.08-.1-.07H76c4.23-12.77,6.62-27.46,4.41-40.87h-.1l-.74-5.23-3.35-13-3-7.9-1.54-3.2-.21-.06h-.17l-2.48.94-.1.15,0,.12v.14l2.78,6.52,2.9,9.1L77.1,139a83.5,83.5,0,0,1-7.61,48v-.73l0-.13-4.63-6.61-4.12-6.89-8.38-16.16-.25.15-2.34,2.09,0,.27.52,1.78,5.34,10.39,4.22,7.5,7.31,10.93,1.12.1-2.84,4.85-.14,0-.06-.1-.1-.08-.13-.06-.73-.08-.12-.07H64l-12.62.14-.95.13-.13.08-.1.13-.08.19v.13l.07.15,1,1.27.13.08,13.25-.34-1.5,2.6-6,7.53-14,15.7.07.2.09.11.13.08,5.42,1.39,3.32.52,5,.19,41.55-1,3.77-5.71,2.24-2.69.09,0,.13-.07,1.65-2,3.65-3.15,3.88-2.45,1.23,4.85,1.22,4,.43.44.12.08h.13l1.91-.08.93-.27.12-.08.09-.1,0-.12-.17-.13-3.58-14.59-.51-4.86-.21-.28-.6-11.86,1-12.58,1.26-7.18.78-3.74,2.48-9.59,4.26-10.68,5.37-10,8.2-12.82,0-.17-.06-.12-.11-.08-.22-.06-1.82.19-.18-.11h-.13l-2.1.29-19.59.65L106,127l-2.53,1.8,1-1,.37-1.58,0-1.07-.4-2.25-.9-1.78-1.45-2-.24,0-.48.17-.51.51-.09.13,0,.15.19.12,2.09,4.68-.06,2-.35.63-1.25.5-2-.74-3.56-3.76-.72.66-1.14-5.45-2.1-7.3-.56-.45-.13-.07H91l-2.56.41-.13.16,0,.14.08.8,0,.13.09.11.15.09,2.79,10.9,1,5.72.87,10.44-.7,14.57-1.65,10.3-3.23,12.66-5.5,13-11.1,19.38.15.12.45.09,22.78-.49,3-3.4-.73,1.45.12,2.28.83,2.18,1.86,2.41.77.72h.42l-.75.93-1.2-2.32-2.12-2.15-1.75-1.15L93.51,210l-.17-.12-.13,0-1,0-1.68.86-.77.93-.06.15-.24,2.41.81,2.7.87,1.67,1.44,1.74-3.27.07.45-.77,0-.15,0-3.16-.58-2.68L88,211.46l-.85-1-1.22-.66h-2l-1.55.81L81.33,212l-.71,1.63-.3,1.33-.36,3.2.45,2.48h-.73l.11-.22L80,219.3l-.17-3-.47-1.94-.85-1.83-1.38-1.71-2.87-.56-1.19.64L73,211l-1.52,2.14-.6,1.82L70.48,218l.28,2.25.27.56-1.46,0v-.08l.1-.08.08-.13.24-1.5-.07-2.78c-.28-2.54-1.54-5.72-4.59-5.39l2.22-.47,1.94-1.09.42-.92v-.17l-.7-1.78-1-1.39-1.1-.92-1.85-.94,1.6.39,3.14,0,1.71-.19,1.88-.5.84-.49.1-.12,0-.25-.21-1.18-.87-1.32L71.62,198l-.91-.49-2.77-.66-.21.31,0,.13v.13l0,.13.11.12,2.56,1.43,1.54,1.47.3.71-.78.49-2.92.41-3.85-.64-.17.23-.39,1-.24,0-.14.07-.13.11-.07.13-.1.69,0,.16.11.12L66,205.25l1.55,1.43.47,1.33-.73.58-2.79.77-3.94-.18-.18-.19-.1-.07h-.92l-.8.5-.41.59-.07.13v.15l0,.12.08.09.12.06.11,0,.41,0,2.19.51,3.3,0v.12l-.63.2-.12.08-1.75,1.89-1.27,3.42-.13,2.42.19,1.89-1.35.06-8,.1-3.3-.89,12.9-13.92,3.23-4.3L64,202l3.8-5.23,4.93-8.58.33.37H72.8l-.26,0-.12.14-.32.58v.17l0,.12.1.09h.15l3.8,1.63,1.44,1.7-.4.76-1.77.89-3.09.72-3.27-.21-.56.46-.11.16,0,.3,0,.19.12.15,1.79.69h.13l1.53,0,2-.25,2-.6,2.06-1,1.19-1.17.07-.17v-.74l0-.16-1.1-1.7L77,190.17l-1.28-.69-1.88-.68c2.11.69,8.06,0,9.37-1.92l0-.15v-.15l-.41-1.29L81,183.59l-2-1-1.6-.56a11.19,11.19,0,0,0,8.25-1.57l.62-.56.1-.13,0-.16-.06-.86-.09-.15-1.57-1.71L83.11,176l-2.15-.8-3.07-.6-.22.13-.09.13-.26.67v.15l0,.12.09.1,4.7,1.34,1.91,1.58-.09.34Zm34.29-64.84-1,.85h-1.57l-1.65-.87-1.9-2-1.35-2.44h-.12l-.06-.12,2-3.11.88,0,2,.09-.1.36v.2l1.68,2.33,1.42,3.53Zm5,.63-1.21-2-.62-2.75,0-3.73,5.9-.09.26,4.59-1,3.32-1.31,1.06-1.48,0Zm8.61-2.31-.6-2.82.13-3.31-.21-.27,6.05-.07-.19.31.13,3.36-.75,3.32-1.59,1.56-1.25,0-.1-.2-.11-.08-.45-.17-.31-.24Zm11.76,2.18-1.06-.75L140.8,113l-.39-3.32.25-2.82.09-.16,9.07-.28,6.57.13,4.16.85-.25.49-8.17,8.1L145.64,124l-3.8-2.3-.64-1.62,2.09-1,3-.59,2.52.25,1,0,.88-1-.53-.65-2-.42-3.07.21,1.72-1.89,1-2.5.35-2.57-.34-3.26h-1.28l-.76,6.68-2,2ZM130.83,170l2-12.17,2.89-9.36,3.19-7.24,5.21,7.58,5.82,10.1,6,12.13.27-.06.56-.28,1.92-1.69.05-.16v-.17l-.47-1.49-3.11-6.62L153.23,157l-3.16-5.57L143.47,141l-2.43-3.2h-.28l-.32.17-.17-.08,2.85-4.84.13.22.12.1.2.09,14.63-.15.16-.19,0-.12,0-.24-.86-1.54-.15-.1h-.15l-13.23.47,1-1.66,6.31-7.92.12.68,4.86,6.37,8,12.42,9,17.23.24-.08.1-.08.07-.12,0-.12v-6.52l-6.14-11.62L160.14,129l-6.61-8.65h-.61l1.38-1.65L165.69,107l.47-1v-.18l0-.12-.1-.12-.12,0-5.49-1.5-6.16-.91L110,104l-3.29,5.1-4.55,5.51-4.77,3.9-2.19,1.25-.59.46-.08.13v.18l.35,2.25.1.12.12.08.62.2.18-.06,3.58-2.41,2.6-2.13.35,1,.07.11.87,1,1.67,1.14,2.24.92,1.15.21,1.42-.25.15-.1,1.56-1.66.28-1.39-.24-2.52-2.18-3.47L108,112.29l.65-.84.62,1.54,1.4,1.82,1.41,1.37,1.54,1,2.06.5,1.3-.23,1-.58.09-.1.71-1,.29-2.08-.62-2.56-2.27-4,2.9,0-.27.29,0,.18,0,3.14.5,2.92,1.56,3,1.53,1,.14,0,.15,0,.13.08h1.75l1.1-.42.1-.07,1.15-1.07,1-2.05.41-1.91.14-3.55-.25-1.63.09-.16h.82l-.4.45-.06.17-.06,1.48.13,2.6.55,1.87,1,2.28,1.38,1.12.83.28h1.46l1-.52.43,0,.15-.12,1.49-1.61.7-1.8.42-3.05-.33-3-.27-.23,1.65,0-.42,1,0,.15,0,3.4.53,2.36.81,1.87,1.12,1.21,1.5.54-2.87,1.84-.53.73,0,.16,0,.17,1.13,2.11.86.62,0,.08-3.62-.12-2.78.61-1.1,1.73v.37l0,.19,1.17,1.75,2,2.1,1.23.77,2.47.44-.29.51-.14-.32-.09-.08-1.87-.35-1.64,0-2.57.38-3,1-1.4.62-.09.12-.67,1.33v.2l.73,1.41,1.4,1.67,1.57.92,1.74.62-1.46-.19-.15-.1h-1l-3.36.61-1.69.61-1.15.66-.4.54-.06.15v.19l.8,1.5,1.34,1.17L129.1,145l1.77.63-1.76-.2-2,.16-1.62.37-2.38,1-1.17,1.19,0,.19v.14l1,1.49,1.07,1,2.57,1.23,2.54.68,1.36.12.15,0,.15-.09.31-.36.05-.15,0-.52-.07-.12-.06-.05-4.08-1L124.47,149l0-.48.67-.49,3.05-.93,4.28.53c-4,11.72-5.78,22.13-5.3,34.43a117.08,117.08,0,0,0,9.1,35.39l.29,0,2.57-.81.17-.28,0-.17,0-.13-3.48-8.89-2-7.38-2.57-11.35-.7-8Zm36.88-84.73L167.39,58l4.33-3.12,1.89-1.65,0-.2v-3.9l-.09-.15-.1-.08-.11,0h-.16l-.13.07-8,6.14-1.43,1.53.43,48,.62.38,2.17.6h.49l.16,0,.12-.09.05-.11,0-.24Z"/><path class="cls-4" d="M118.78,285.64l-1.35-1.55v-.2l1.44.65.6.95-.12.12M89.51,275.42l-2,.07-.66-.74-2-1.32-3.76-1.05,2.21-.12,5.5,1.21,2.91,1.76,3.93,3.43.77-.08.69-.45.29-.38.4.84.67.7.15.1.31,0,5.56-1,4.71.57,2.8,1,2.49,1.61.63,0,.16,0,.55-.33.11-.11.37-.89,1.46,1.53-1,1.1-.07.25.12.57-.2.11-.09.1-.05.16.25,2.9h-.55v-.87l.37-2.57-.11-.19-1-1-2.3-1.39-2.67-.79-3.53.66L105.9,280l-2.41-.7h-2.22l-3.71.73-.71.48-2.21-2.56-.49-.44-2.92-1.65-1.42-.31-.16-.11Zm14,1-10.17-3.18-6.49-3-5.23-2-3.34-1-7-1.18-3.33.4-.95.39-.25.67,0,.17.06.1.13.11.38.11,1.15,0,3.44.59,3,1.4,1.35,1,.16,0H78l1.34-.62v.82l0,.17.63,1.1-2.09.58-.6-.94-3.16-1.7L73,269.91l-2.6-.61H68.05l-2.57.7-5.58,7.18-4.32,4.44L47,289.36l.07.21.08.11.11.05.12,0h90.33l.15-.18.06-.12v-.15L131,279.87l-.34-.13h-.14l-.16.06-.91,1.14-1.65-.8-1.73-.41-2.24-.17-3,.56,2.12-.67,2.93-.41,4.09.44.19-.12.13-.16.06-.13v-.16l-.07-.13-2.74-3.64-.25,0L122,276.69l-4.73.62-6.94,0ZM53.66,254.75l-.8-.35,1-3.83,0-3.79-1.08-3.16-2.07-1.68-.23,0-.17.05-.11.09-.06.11,0,.18,1.26,5.25L51.08,252l-1,2.86,0,.19.08.13,3.28,2.43,2.15,2.14-5,4,.12.26.85,4.66L51.25,272l-1,2.6-1.52,2.22-.44,1.34,0,.18.11.17.12.1.12,0c5.94-2.06,6.5-9,5-14.31l3.87-2.74,1.37-1.36,0-.19v-.12l-.3-.82-2.91-2.83Z"/><path class="cls-4" d="M156.84,59.55l.43-4.55,1.42-2.85.73-.81.68-1.91,0-.18-.06-.12-.09-.08-.28-.06-.14,0-2,1.38-1.27,1-.87,1.53L154.54,55l-.38,2.36v2.78l.65,3.21-2.65,1.78L149.92,67l-.31.61,0,.16,0,.18,1.06,1.29,1.94,1.91,2.18,1.57.92.4L154.81,76l-.21,1.68.09,3.32,1.07,3,1.64,1.41.82.26.17,0,.1-.09.07-.11,0-.13-.15-.11-1.33-4.87.09-3.53,1.18-4.15-3.78-2.94-1.72-1.75L157.76,64l0-.24m-9.14-13.47,4.26-4.42,6-5.37,3-3v-.23l0-.12-.1-.1-.1-.07H70.34l-.14.18,0,.12v.15l0,.13,7,9.8.25.05L78,47.2l.15-.1.63-1,.52.47,1,.48,1.6.43,2,.16,2.16-.15,2.49-.66,1.85-1.11.94-.95.24-.52V44.1l0-.12-.11-.12-2-.9-.61-.81.19-.53.62.21,1.45,1.62.16,0h.29l.1-.07.08-.1,0-.16-.27-3h.71l.1.65-.45,3c1.59,2.84,6.61,4.23,9.47,2.68l1,.83,1.15.47,1.44.34,3.39-.14,2.47-.51.81-.53c1.79,2.81,5.73,5.93,9.24,5l.94,1,1.72,1.14,2.3.76,1.58.29-1,.1-.12-.06h-2.17l-4.86-1.22-3.51-2.25-3.07-2.88-.21.05-1.56.81-.3-.69-.08-.12-1-.8-.2,0-2.23.61-3.14.37-2.87-.13-4.26-1.06-3.11-1.92h-.55l-.38.15L92,47.34l-.36-.7L90.91,46l-.13,0h-.4l-2.5,1.36-4.54,1-5-.41-.18.16-.06.1,0,.15,0,.16.44.81,2.18,2.8.49.08,2.86-.88h0l1.44-.45L91.14,50l5.65,0,5.25.63,8.83,2.09c7.07,2.53,21.82,11,30.61,8.1l.09-.1.2-.63,0-.13-.09-.13-.17-.16-.14-.06-3.12-.22-3.88-1.25-2.28-1.57h-1.45l-1.29.62-.61-2.08,1.81-.58.79,1,2.27,1.34,2.68,1.05,2.49.4,2.25-.07,2-.74Z"/><path class="cls-3" d="M73.45,257.9l-3.89.16-.71.2-.14.08-.12.1-.12.21-.39,3.63-1,3.73,0,.22.08.23.17.17.22.08,2.8-.28c11.19.2,19.28,6.25,29.45,9.25,8.09,2.62,19.17,3.05,27.22-.17l.23-.16.12-.21v-.32l-.29-.59-2.79-3.94-1.9-2.44v-.08l-.12-.21-.18-.15-.24-.05-.47,0-1.81.64a38.86,38.86,0,0,1-22.18-1.62l-.13-.16-.19-.12-.36,0-2.31-.86-10.57-4.51-5.07-1.82"/><path class="cls-3" d="M95.77,49.61C91,49.8,86,50,81.46,51.84l-.27.17-.17.23-.06.23.06.23,5.14,7,.23.18.22,0c23.57-6.86,33.65,10.68,52.7,9.45l.44-.24.15-.12.11-.21.27-2.67.16-.29.06-.19.25-1.63.66-2.25v-.16l-.08-.42-.12-.22-.19-.15-.23-.05c-12.36,2.18-24.4-7.94-36.27-10l-1.29-.25-.42-.22h-.23l-.2.08-4.3-.64-1.94,0L96,49.66"/><polyline class="cls-3" points="111.17 209.12 111.11 209.12 110.95 209.18 108.73 210.86 106.57 212.86 104.33 215.28 102.35 218 102.27 218.22 102.3 218.53 102.4 218.69 102.59 218.77 102.77 218.76 105.42 217.13 105.5 217.16 105.68 217.11 106.27 216.61 112.09 214.35 112.5 214.04 112.59 213.92 112.65 213.74 112.03 210.96 111.48 209.3 111.36 209.16"/><polyline class="cls-3" points="124.2 201.14 124.08 201.15 123.92 201.27 120.5 207.99 119.69 209.84 119.7 210.02 119.8 210.18 126.6 216.29 126.78 216.34 127.33 216.15 127.49 216.05 131.38 207.62 131.37 207.43 131.27 207.27 124.85 201.45 124.38 201.18"/><polyline class="cls-3" points="121.91 187.73 121.73 187.73 121.55 187.78 121.4 187.93 117.82 194.36 117.78 194.54 117.91 195.03 118.02 195.21 123.64 200.53 123.82 200.58 124.32 200.41 124.47 200.3 126 197.37 127.69 193.9 127.71 193.68 127.62 193.48 122.46 188.08 122.22 187.93 122.09 187.78"/><path class="cls-3" d="M58.58,183.87l-.18,0-.13.13-3.62,6.27,0,.19,0,.18.14.15.51.16h7l.56-.17.12-.07.11-.16v-.25L58.88,184l-.12-.11M46.59,161.33l-.13,0-3.32,2.31-.07.11v.2l.09.21.16.12,3.11.4h1.11l.17-.08.12-.16v-.26l-.92-2.68-.13-.13Zm2.73-2h-.07l-.17.07-1.93,1.64-.12.16v.24l.29.94,1.6,3.86L51,170.42l0,0-.2,0-.41,0-.17.11-2.71,5-.36.46-.29.73,0,.2.09.17.16.13,1.16.19,5.6,0,.18-.06.14-.13.13-.22,0-.14,0-.24-.69-1.3,6.32,10.24,5.1,7.26.46.62.12.1.18.05.18-.05.33-.3,1.3-2.32,0-.19-.06-.22L65,186.86l-6-9.18-4-7.21-5.3-10.94-.14-.16Z"/><polyline class="cls-3" points="121.23 173.87 121.11 173.88 120.93 174.02 117.06 179.66 116.52 180.73 116.48 180.97 116.56 181.15 121.01 186.68 121.38 187.07 121.47 187.12 121.64 187.17 122.04 187.07 122.22 186.94 125.67 180.95 125.96 180.02 125.96 179.86 125.89 179.69 122.55 175.24 122.34 174.8 122.27 174.69 121.41 173.91"/><polyline class="cls-3" points="84.58 165.56 84.52 165.56 84.35 165.64 79.94 169.38 79.83 169.54 79.81 169.77 80.14 170.84 81.97 174.87 82.41 175.25 82.53 175.31 82.65 175.33 82.83 175.28 86.58 171.85 87.16 170.99 87.17 170.81 84.87 165.68 84.78 165.6"/><path class="cls-3" d="M162.36,162.92h-1.49l-.11,0-.12.06-.11.16v.25l.92,2.55.06.12.16.11h.18l.62-.24,1.49-1.05h.1l1.06-.73.13-.18v-.4l-.08-.18-.15-.12-2.41-.26-.07-.07m-19.86-28.85h-.07l-.17.08-1.08,1.6-.55,1.25,0,.21.07.17,3.17,4.19,3.35,5.17,5.43,9.07L158,166.52l0,.2.73,1.48.09.08.19.06.22-.08,2.13-1.6.11-.17,0-.19-2.23-5.49-2.13-4.1.22.39.14.15.34.09.19-.05.13-.12.51-.84,3-5.28,0-.28,0-.18-.13-.14-.55-.17-.06-.08-.17-.08-4.82.09-.11-.06-.6,0-.84.23-.18.13-.08.18,0,.24.6,1.16-3.64-6.1,0-.2,0-.19-.13-.13-.19,0-1.37-2,.28.25.18.05.3-.05.13-.13,3.58-5.87,0-.13v-.64l-.12-.16-.17-.08-7.55-.11-.2.06-.39.34-.09.15v.25l1.7,2.62-3.56-5.25-.56-.48-.1-.06Z"/><polyline class="cls-3" points="123.61 162.43 123.54 162.44 123.39 162.51 119.03 166.06 118.42 166.68 118.33 166.81 118.32 167.01 120.83 172.66 121.18 173.16 121.3 173.26 121.48 173.31 121.91 173.21 122.07 173.11 126.24 169.04 126.3 168.96 126.35 168.78 126.35 168.08 123.9 162.56 123.81 162.48"/><polyline class="cls-3" points="86.94 154.22 86.82 154.22 86.63 154.28 85.67 155.19 85.47 155.23 85.34 155.38 85.29 155.54 82.19 158.67 82.09 158.88 82.02 159.25 82.02 159.39 84.43 164.82 84.58 164.92 85.18 165 85.37 164.92 89.87 161.15 90 161.01 90.1 160.81 90.07 160.6 87.27 154.45 87.13 154.28"/><polyline class="cls-3" points="125.96 152.32 125.89 152.32 125.4 152.58 121.43 156.25 121.35 156.35 121.31 156.47 121.41 157.28 123.35 161.49 123.53 161.76 123.65 161.87 123.83 161.92 124.24 161.86 124.41 161.78 128.47 158.41 128.58 158.25 128.65 157.59 127.14 154.17 126.29 152.52 126.14 152.38"/><polyline class="cls-3" points="86.66 140.28 86.48 140.34 86.33 140.47 82.58 147 82.53 147.13 82.57 147.92 82.65 148.12 86.59 153.41 86.71 153.51 86.89 153.56 87.43 153.47 87.6 153.39 91.69 147.36 91.74 147.21 91.69 146.38 91.64 146.23 86.95 140.42 86.84 140.34"/><polyline class="cls-3" points="84.45 127 84.4 127.01 84.14 127.11 83.98 127.27 82.79 129.44 80.75 133.67 80.73 133.83 80.77 134.02 86.05 139.62 86.14 139.69 86.32 139.74 86.95 139.54 87.1 139.42 90.46 133.29 90.62 132.89 90.61 132.7 90.52 132.56 85.58 127.82 85.56 127.61 85.46 127.45 85.29 127.37 85.05 127.39 84.65 127.05"/><polyline class="cls-3" points="81.46 111.13 81.39 111.13 81.22 111.21 80.69 111.91 77.16 119.51 77.14 119.67 77.23 120.22 77.27 120.34 77.34 120.44 83.68 126.17 83.86 126.25 84.11 126.21 84.53 125.99 84.64 125.89 88.31 118.45 88.33 118.34 88.48 118.02 88.52 117.85 88.49 117.4 88.4 117.25 81.64 111.17"/><polyline class="cls-3" points="105.8 108.82 105.62 108.86 101.82 111.05 96.2 113.23 96.11 113.3 95.99 113.45 95.95 114.21 96.86 117.8 96.98 118 97.22 118.19 97.33 118.26 97.52 118.27 97.67 118.21 100.41 116.07 104.06 112.38 106.1 109.6 106.15 109.51 106.17 109.19 106.11 109.01 105.98 108.87"/><path class="cls-3" d="M173.27,192.24l-.65.19-.47.35-5,3.13-13.9,7.65-5.95,2.81-9,4v3.16l.37.14,1.64-.48,6.59-2.72,8.71-4.1,13.5-7.14,4.23-2.8m0-15.36-.11.06L171,183l-5,4.87-2.53,3.28-2.79,4.38.16.33.39.2,1.57-.54,2.44-1.26,6.77-4.49.93-.36.35-.25Z"/><path class="cls-3" d="M101.42,182.31l-2.87.15v-.12l-4.06.08-1.08.25-.82,2.51-1.92,4.66-3.94,8-1.89,3.32.07.13,4.19.2.88-.16,1.34.09.75-.13,1.71-2.11,2.34-2.71,6.57-5.36,5.33-3-.08-.72.17-3.55v-1.29l-1.52-.15m-5-1.06,7.41.07.11.1.09,1.11-.05,4.54.07,1.54-.28.38-1.39.46L104.91,191l-5.12,3.85L95,199.4l-1.26,1.46L93,202.47l-.16.09-1.62,0-8,0-.15-.25c2.84-3.62,7.87-14.74,9.57-20.72l1-.2,3,0Zm9.18-2.51-3.89,0-3,.05-2.62-.08v.08l-9.7.08-4,9.28-1.89,3.78L78,206.17l1.25.09,13.69-.2,1.68-2.54,4.07-4.21,2.66-2.43,4-2.91,2.54-1.53,2.8-1.32.12-.2,0-4.06.18-7.7Z"/><path class="cls-3" d="M45.31,131.56v.1l-3,1.18-1.51.75-3,1.88-2.76,2v7.79l.22-.12,2.48-2.35,5.58-6,3.07-4.72-.18-.49m23.37-18.17-3.67,1.39-7.77,3.41-10.86,5.38-.36-.2-.06.37-1.45.92-6.17,3.18L35,130.35v3.77l17.53-9.45L58.35,122l0,.12,11.34-5.28Z"/><path class="cls-3" d="M121,124.75v.1l-4.17.05-.86,1.33L113.29,130l-2.82,3.31-2.93,2.59-3.15,2.13-2.82,1.51-.16.45-.09,3.69.31.15,11.41-.08,1.78-.23,1.29-3.13,2.72-5.47,2.82-4.74,3.58-5.06-.8-.38H124m-3.59-1.1,5.11.08L127,124c-2.85,4.69-11,15.95-11.25,20.76l-.79.12-14.6-.1.06-5.9.48-.41.69-.26,2-1.05,3-1.95,4.08-3.67,2.42-2.78,2-3,1-1.75.68-.23,1.17,0Zm1.94-2.48-6.8.13c-4,6.36-11.27,12.25-18,15.4v.45l0,0,.17,6.05-.1,4.69.14.13,19.33-.1,1.61-5.29,3.26-6.57,6.7-11.48,2.35-3.19-.06-.13-1.76,0Z"/><path class="cls-5" d="M102.61,268.58l.77.17,2.13.4,3,.24,5.74-.05,5.42-.77,1.87-.65h.28v.14l2,2.55,2.75,3.88.24.49c-7.81,3.16-19,2.76-26.86.16-10-2.87-21.11-10.68-32.34-9l1-3.76.38-3.58.57-.18,3.9-.15,5.08.95,5,1.79,10.59,4.52,2.39.9h.31l-.08.16,4.67,1.52m1.86-.17-.64-.14L99,267l-1.37-.62.11-.36,1.15-2.21.78-3.32.12-4.36-1.66-6.35-.47-.54-.08-.87-2.42-6.17L93.3,237l-.47-2.51-.25-2.59,0-.89.33-1.56.87-1.6,1.66-1,1.36-.18.84.08,1.49.38,1.06.58.79.85.56,1.38-.2,1.33-.65,1-.94.4-1.17-.17-.94-.83.14-1.14.73-.57,1.58-.1.2-.2,0-.77-.84-.88c-4.42-2.3-7.89,2.86-4.82,6.48l1.23.92,1.12.41,1.65.19,2-.29,2.29-1,1.1-1.07,1.07-1.85.73-3.21,1.91-4.77,2.11-3.28,1.15-1.26,1.71-1.39,1.17-.27v.19l-3.26,3.57-2.78,5.41-1,3.27.42.12c1.77-5.79,3.43-9.29,8.24-13.06h1.33l0,.11A23.91,23.91,0,0,0,109,229.38l.33.08,2.12-5,1.73-2.72,3.14-3.51,2.05-1.46,1.35-.12.13.24-2.34,1.83-2.34,2.35-2.26,3.31-.32.86-.1,0-1.29,3.2.06.67h.13l1.23-2.81,1.74-3.34,1.62-2,.55-.5.23-.49,2.88-2.28,2-1.22h.73v.09l.41.09-.1.21-1.26.71-2.23,1.82-2.33,2.44-2.12,3.34-.91,2-.29,1.09.25.13,1.88-4,1.53-2.26,2.59-2.63,2.38-1.8,1.84-1,.09-.16h1.38v.09l1.42.22V217c-4.86.75-9.73,6.4-11.18,10.9l.3.07c1.61-4.26,7-10.58,11.73-10.45v.1l1.26,0,.28.21c-4.77.42-10.28,5.59-11.59,10.08l.31.08.67-1.48,2.46-3.56,3-2.57,2.62-1.49,2.11-.36,2,.1,1,.18,1.82.82.31.42h-.4l-1.05-.43-2.36-.51h-.6l-.26.32c-3.67.36-8.8,5.53-9.59,9h.34c1.47-3.8,6.69-9.44,11-8.61l3.19,1.29,1.66,1.18.83,1.22.25,2.07-.15,1-.65,1.42-.81.82-.08-.08c-2.13,2.31-7.26-.06-5.38-3.37l.67-.63.85-.19.75.13.59.56.11.86-.46.78-.76.32-.14.4.35.48,1,.14.67-.3.09-.24.47-.14.61-.71.62-1.49,0-.28-.39-1.38-1.11-1.13-1.59-.89-1.4-.42-2.37.53-3,2-1.6,1.73L122,228.76l.3.07,1.83-3,2.32-2.36,2.87-1.65h2.13V222l1.38.44,1.14,1,.58,1.38-.16.6-.44.91-.87,1,0-.29.31-.44,0-1.55-1.14-1.3-1.47-.37-1.14.21-1.57.74-1.2,1-1.73,2.15-2.69,6.81-1.43,2,0,0,.53,0v-.14l1.54-.41,1.14.71.08,1.44-.56.62h-.64l-1.7-.86-1-1.25-.22.28.1,3,.16.08.89-.71h.72v.11l.7.65,1.13,1.66,1.19,1L125,244l.12,1.48.67.9,2.16,1.26.27.47-.17.57-1.58,3.71-3.25,5.41-1.44,2,.36,3.29v1.64l-.35,2.64c-5.44,1.67-10.71,1.73-16.34,1.3Zm40.3-64.37h0l.14.26-.17,1.46-.43.3-3.45,1.26-.37-.1v-.89l.51-.89.73-.57,1.56-.81Zm3.72-1.62-.18,0-.86.79-.11.14v.19l.14.33.16.16.21.05,1-.1.15-.12.08-.18-.09-.95-.09-.15-.17-.16Zm3.28-8.44-.18.05-.12.11-.76,1.16v.25l.11.16.82.45.24,0,.18-.08.08-.11.51-.94,0-.24,0-.12-.07-.09-.61-.59Zm-2.11-1.39-.19,0-.14.15-.5,1-.21.15-.31.77,0,.24-.14.42v.24l.07.15.65.67.2.1.2,0,.16-.1,1.3-3v-.19l-.1-.16-1-.44Zm-2.72-5.84,3.71,3,2.06,2.47.55,2-.21,1.4-.35.52-1,.74-1.16.56-2.7.08-2.41-.36-.18.05c-1.59,1.36,2.85.74,4.45,6.13l-.39.49-.32.13-1.78.82-.58,0,.5-1.91-.05-.2-.42-.67-.13-.14-.18-.05-.19.05-1.11,1h-.13l-1.54-1.14-.76-1-.17-.09-.18,0-.16.12-.09.17-.33,2-.52,1.44-.56.1.75-4.24.53,0,.16-.13.08-.17-.13-1.84.62-1.36.12-.17V196l-.1-.19.64-1.72,2-.4,2.2.1.51.2.19,0,.17-.08.12-.16v-.25l-.09-.15-1.14-1.1-.89-1.32-.15-.44-.12-.15-.17-.08h-.18l-.16.12-.07.1-.64,1.76-.4.49-.67,0,1.28-2.79.24,0,.17-.08.22-.23,0-.18,0-.14-.2-.58,1.1-2.2Zm9.9-.8-.18.05-.43.42-.11.21v.16l.23.73.14.13.18,0,.22-.06.77-.62.08-.18v-.19l-.1-.16-.59-.49Zm-1.32-2.22-.18.06-1.35,1.28-.09.15,0,.29-.4.87,0,.18.12.16.79.45.24,0,.18-.08,1.48-2,.06-.16v-.21l-.38-.85-.14-.1Zm7.28-5.57-.2.05-.34.21-.12.13-.06.19v.76l.08.17.16.12.83.08.19-.08.11-.19.21-.79,0-.19-.14-.14-.61-.32Zm-2.46-8.5c4.24,4.66,8,15.12-2.22,10.26l-4.09-2.31-.24,0-.17.08-.11.16v.27l.07.12,2.15,2.37L157,184.2l.17,1.09.09.17.14.12-.43,1.49-.9.79-1.18.46-2.92-.11-2.84-.94-2-.89-1.1-.68.25-.52,3.11-1.09,2.86.59.2,0,.16-.1.07-.19v-.18l-.06-.11-1.61-2-.41-1.26-.13-.14-.19-.05-.19.05-.11.12-1.53,2.38-.86.3-.16.12-.16-.09,2.07-3.21.57-.61.32-.07.13-.15,0-.16.05-.65,1.11-1.38.25,0,.21-.07.14-.11.08-.18,0-.51.69-.78.87-.09.18-.14,3.54.16.56.24,1,.84-.47,1,0,.18.09.16.68.6.17,0,.18,0,.09-.07,1.79-1.88.09-.21v-.19l-.09-.15-.66-.61-.18,0-.22,0-.84.6-1-1.3-1-2.38-.15-.1-.43-.06-.12,0-.1.08-1.69,1.91-.77.27-.5,0,2.33-2.68.74-.48.25.17.18,0,.19-.08.07-.09.29-1.12.81-.78ZM115.26,283.82l-.56.53-1,.61-.57.72,0,.72.19.21.87-.07.66-.65.42-.84.35-1.23Zm-61.85-.14v.21l-.19.1v-.31Zm52.89-.05-.79.31-.26.39v.78l.3.41.87.28.64-.4.27-.81-.27-.56ZM96,282.08h-.31l-2.27,1.06-.59.49-.07,1,.3.19,1-.06,1.81-1.94Zm34.52-.14H130l-.73.56v.93l.56.51h.63l.26-.16-.12-.24.35.09.22-.41v-.81Zm-20.69,0-1,.18-1.28.65.11.44,1.85-.53,1.39.12,1.62.49,1.11.8.32.05,0-.41-.67-.8-1.39-.73Zm-13.33-.25L96,285.2,96,286.89l.43.45.69,0,.38-.52.09-1-.52-3.87-.13-.25Zm1-.19-.21.61,1.93,3.05.94.07.37-.38-.07-.87-.61-.48-2.07-2Zm27.16-.4h-1.2v.08l-1.36.2-1.93.74-1,.82.12.21,2-1,2.61-.48,2.59.34,1.49.67h.38l-.17-.48-1.79-.77Zm-22.91-.49-2,.19-.93.33-.42.37.08.32,2.07-.43h1.07v.08l1,.26,1.4.75.51.68.32,0,.15-.41-.52-.89-1.1-.73Zm-16.16-2.73c-3.1,1.48,1.73,3.57,1,.53Zm4.48-.09-1.29.16-.23.25,0,.27,1.37.15,2,.73,1.7,1.18.3.5h.37l.1-.2-.18-.09.15-.32-.75-.9-1.84-1.13Zm-11.85-3.2h-.4l-.07.56.74,2.35.81,1.25.4.33h.77l.43-.53-.35-1.19Zm-1.75-.46-2.9,1.18-1.13,1.16.1.55.29.18h.8l1-.43,2-2.21Zm4.72-.21H79.9V274l-.78.31-.08.33,1.74-.05,2,.8,1.58,1.68h.41l-.07-.68-1.42-1.64Zm-3.62,0-.21.16L75.71,278l-.53,1.91,0,.73.23.24.53.06.6-.46,1-6.14ZM66.88,272l-.73.51.07.65.65.5.7-.1.39-.31-.06-.81-.8-.44Zm3.62-1.35H69.44v.09l-1,.16-.42.34.11.2,1.78-.08,2.4.54,1.37.91.76,1,.42-.07-.13-.7-.67-.93-1.12-.8Zm-2.39-.94h2.27l2.56.6.07.1,1.56.56,2.53,1.53.56.9h.44l2.13-.59,1,.08,2.13.48,1.61.62,1.66,1.11.73.83,2.18-.09.08.08,1.5.33L94,277.82l.43.58.59.38,1.6,2,.48.06.62-.47,3.64-.72h2.12l2.3.67,1.17.92.36,0,1-.4,2.35-.33v.13l1.15.19,1.35.46,2.14,1.3.94,1-.37,2.47v1.27h.93l.38-.15-.26-3.09h.23v.18l1.06,1.29.68.43h.61l.29-.28v-.64l-.65-.86-2-.92v-.22l1-1.08.88-.6,1.9-.9,3-.56,2.15.18,1.68.38,1.85.9,1-1.28.27.18,4.17,5.79,2.43,3.29H47.35c6.42-5.17,13.83-12.12,18.35-19.05Zm2.92-3.2v.11c6.83.1,14.83,3.43,20.92,6.43,10.69,4.69,24.27,6.81,35.4,2.47L130,279l-.05.08h-.6l-2.41-.37h-1.87v.08l-2.18.29-2.68.85-2.15,1.17-.33,0-.52-.28-.73-1.16h-.34l-.5,1.23-.5.3-.51,0-2.45-1.57-2.89-1-4.36-.53-1.91.16-4,.8-.26-.06-.64-.63-.51-1.09h-.32l-.4.55-.56.35-.71.07-1.87-1.91a16.53,16.53,0,0,0-13.56-4.31l-.52-.92v-1.37l-1.8.82H76.43l-1.33-.94-3-1.43-3.53-.6-1.14,0-.26-.08.16-.43.77-.32Zm-20.65-2.1.45,1.32.46,2.7v2l-.67,2.94-.24.14-.12-1.84-.09-6.48.08-.8Zm8.88-3.83A20.65,20.65,0,0,1,54,273.8l-.09-.07.65-3.46v-2.53L54,264.23l2.92-2,2-1.63Zm46.92-1.35-.09.35.51,1,.19-.1-.11.22.3.57,2.13,1.87,1.68,1,2.39.73,3.7.37,2.43.49,1.37,1.15.24-.2-.33-.63L118.67,264c-4.67-1.38-8.56-.23-12.2-4.85Zm-52.63-1.08,1.24,1.12.39.52-.66.73-.92.57-.18-.1v-2.46Zm56.05-1.4-.23.29c3.73,2.32,5,5.2,9.84,4.7l-.09-.41-1.39,0-2.19-.62-1.32-.78L111,257.35Zm-57.76-.08.95.8.08,4.22-1,.68-.1-.05-.14-.9v-2.33l0-2.42Zm-1.61-1,.76.44.16,2.79,0,3.92-.29.3-.68.18L50,255.8Zm67.13-.42v.08l.41.18-.94,1.92-.12,1-.27.06-.87-.47.33-.35.12-1.26.69-1.19Zm4.54-1.07h-.21l-1.69.55-1.24,0-3.29-.23-1.23.16-1.34.55.18.33,1.76-.42H116v.3l-.39.56-.32,1.71-3.39-2.2-2.44-.83h-.82l-.87.67.17.46,1.35.18,2.12,1,5.18,3.45,2.63.53,1.11,1.7.37-.09-.45-1.9,1.18-2.08-.21-1.9-.37-.31-.13.27,0,1.43-.14.86-.56.92h-.28l-.09-1h.16l0-1.64-.57-1.77,2.49-1Zm-76.48,0,.08.71.09,8.7h-.36l-.18-.34,0-8.77Zm2-1.81.19,12.84-.36-.05-1-1-.07-10.62.89-1Zm72.12-2.14,0,.15-1.09,1.17-1,2-.21.73h.38l2.09-3.84Zm-70.24-1.47.09,1.85.26,19.07-.13.21-.12-.22-.29-1.42-.84-1.78-.14-4.93v-8.7l.18-2.09Zm4.58-3.28c2.62,2.17,5,8.1,5.2,11.52l.17-.09-.11.21.1,2H59l-2.11-2.23-3.58-2.75.53-1.63.43-3.16Zm66.74-.65-.66.13-.62.48-.32,1,.18.85.25.41.68.38.76.11.49-.2.17-.28-.85-.1-.62-.31-.36-.57v-1l.78-.37.8.3,1.67,1.61.16.49.27-.24.93.2.6-.18.42-.51-.13-.44-.52-.32-1.43-.18Zm-70.85-1.54.18.23.72,2.23.33,2.45v2.39l-.71,2.91-.26.09,0-.91,0-3.5Zm.78-1,1.88,1.56,1,3,0,3.65-1.13,4.12,1.06.45,2,1.43,2.84,2.76.26.73-1.26,1.27-4.06,2.86c1.49,5.09,1.17,11.83-4.52,14.1l0-.08.39-1.21,1.52-2.2,1-2.71.31-3.09-.3-2.7L51,263.89l5-4-.13-.41-2.16-2.18-3.25-2.4.89-2.58.32-2.65,0-2.41-1.16-4.93ZM124,239.43l1.06.85.26,1.14-.46.17-.69-.68-.62-1.22.11-.26Zm-14.15-3.65c-3.16.12-4.87,3.65-1.62,5.37,3.61,1.66,5.47-3.12,1.11-3.2v.1l-.28.1-.51.6-.06.74.47.57h.62l.06-.26-.51-.64.46-.52.58.12,1,.65v.73l-.34.42-1.06.38-.62-.12-1.32-.76-.47-.87,0-.95.56-1.07,1.53-.74,1.13,0,2.67,1,6,4.61L121,243.3l1.12.33h1.5l.53-.46-.07-.8-.61-.38-2.16-.48-2.61-1.39-3.74-2.47-2.1-1.12-1.09-.38Zm-1.37-3.65v.3h.12l.08-.3Zm-1.8-.67,0,.45.26-.16-.13-.29Zm2.13-.41-.28.46.45-.11Zm4.23,0,0,0-.13.4.35-.08Zm6-.1-.13.3h.21V231Zm-12.13-.33-.15.32.32.08v-.4Zm6.09-.32,0,.51.36-.08v-.43Zm-4-.08h-.18v.3H109Zm6.12,0h.19v-.28h-.19Zm2.16-.48h-.19V230h.19Zm4.54-.23-.26.19-.25.49.28.25.32-.45Zm-8.59-.24-.18.5.5-.06-.12-.44Zm2.32-.51-.29.46.45-.11Zm1.92.21h.18v-.28h-.18Zm-19.77-3.77v.16c4.42-.27,7.09,4.19,4,7.7l-1.62.85-.72.19-1.84,0-1.35-.89-.49-1.34,0-.93.68-1.06.94-.47h.42l.12.26-.75,1-.1,1,.79,1.12.61.48,1.32.08,1.09-.4.85-1,.42-.8V230l-.65-1.74-1.57-1.3A5,5,0,0,0,93.13,228l-.93,1.69-.3,2.5.31,2.53,1.49,5.42,1.77,4.58.44.45-.17.09.41,1.33.07,0,2.37,7.1.64,5.26-.2.2v1l-.48,2.51-.68,2-.8,1.26h-.64l-.44-.28c5.83-9.28-1.94-19.47-4.45-28.42-1.22-4.72-1.79-10.65,4.16-12Zm-33.8-.32.13.25-1,2.64-.6,3.51.32,4.23.22.4-.08.17,1.62,5.1,2.39,6,2.38,6.95.52,3.63-.26.27H69l-.76-3.31-1.67-4.76-3.31-7.64-2.08-6.78L61,231.32l-.08-.08.37-3.64,1.06-2.74Zm1.21-.07.89,0,.27.13-.35.5L64.7,229l0,.89h-.14l-.07,3.38.45,3.27,3.48,10.21.16-.07L70.39,252l1.15,4.3v1.44H70.46l-1-5.17c-2.44-9.95-9.59-17.41-4.91-27.41Zm2.93,0,.13.24L66.94,228l-.56,3.59,0,2.95.84,4.66,5,13.42,1,3.24.08,1.62-.28.39-.77,0-1.13-5.19L65.68,237l-.51-3.21-.09-2.68.39-3.11,1.29-2.78.69-.49Zm1.34-.13.68.23-1.11,2.68-.66,3.72,0,3.15.2,2.34,1.11,4.17,4.85,12.76.6,2.27.21,1.76-.23.4L74,258l-.47-3.39c-2.92-11-9.91-18.13-4.91-29.5Zm2,0,.17.28-.8,2.74-.48,3,0,3.21.47,3.77c1.12,7.16,6.45,13.37,6.22,20.7h-.85l-.12-.1-.75-4-4.12-11L69.43,238c-.94-3.7-1.11-9.61,1.2-13Zm4,0,.16.28-1.21,3-.48,2.68-.11,2.13.62,4.72L76,242.82l.5,1L78,248l.09,0,2.47,6.9.18,2.55-.35,1.88-1-.24-.18-.18,0-3.59-1.8-5.08-.09-.05-2.42-7-.12.05c-1.69-4.62-4-14.31-.56-18.75Zm3.6,0v.1l.32.1c-7,14.45,8.58,27.31,4.64,35.85l-.77-.08-.5-.43c2.56-7.29-7.94-19.42-6.25-29.8l1.41-4.71.66-1Zm2.23,0,.14.24-.11.23,0,0-1.67,3.83-.35,3.07.49,4.12.38,1.23,3.37,9.82.9,1.92,1.7,5.56.34,3.77-.61,2.55-.54.35-.75-.37c2.55-6.71-2.4-10.58-3.75-16.73-2.34-5.31-4.45-14.55-.45-19.62Zm-4.3,0v.11l.61-.1,0,.86-.67,1.17L76,230l-.19,2.11.14,3.23.4,2.3L78,243l3.1,8,1,3.27.43,2.22,0,1.81-.27,1.23-.29.41-.8-.24-.06-.17.13-1.81-.2-3.07-.16-.06v-.49l-.35-1.18-3.46-8.67-2-5.77-.8-4.39,0-3.47,1.11-4.47.88-1.46Zm-3.86,0v.18l.43.17c-4.53,7.29,1.59,20.22,3.94,26.89l.1-.05.92,2.66.22,1.44.19-.09-.13.23v.57l.21.12-.12.18,0,1.41-.22.61-1.13-.17-.26-4c-3-9.4-9.25-19.66-5.1-29.72Zm10,0,.46.16c-3.24,4.3-2.71,9.73-1.11,14.6l4.44,11.72,1.18,4.16,0,2.22-.26,2.94-.73,1.34-.37.32-.77-.37.69-1.95.13-1.61-.45-4.6c-1.78-7-6-13.07-6.68-20.34l.22-3,.9-3.12,1.44-2.23Zm2.56-.06v.31L84.57,226l-1,2.39-.38,2.36V233l.39,2.72.88,3.52,4.7,12.12.14-.06-.11.2.07.73.34.89.57,3.45-.27,3.73-.54,2.26-.4.23-.47-.11-1.11-.52,1.07-2.31c1.52-6.54-4-15.19-5.75-21.47l-.91-4.23,0-3.49.56-2.42.89-2.35,1.35-1.52Zm2-.1.13.29-.77.86-1.08,2.06-.83,2.58-.26,2.45.35.2-.23.2.33,2.9,1.88,5.8.1,0,.37,1.15,3,7.34,1.21,4.3.13,4.57-.45,3L91,263.46h-.57l-.64-.32v-.34l.37-1,.25-1.47.23-.48v-4.15L90.4,255h.11c-.89-7.56-12.43-23.38-3.67-30.67Zm2.25,0,.1.18-2.21,3.27-.49,1.59-.47,2.87.57,4.43,5.06,14,.21.1-.12.23.54,1.51.73,3,.22,0-.12.09v5.28l-.67,1.29-.36,1.45-.34.66-.47,0-.53-.38,1-4.52v-2l.06-.07-.39-4.07c-1.88-8.21-11.94-21.48-3.25-28.91Zm1.57-.11,1.09.21v.1l-.56.43L90,227.25l-.17.48-.12,0c-4.37,7.72,4.64,19,5.53,26.91l.34,2.24,0,2.67L95,262.73l-1,2-.47.14-.47-.26V264l1.15-3.08.18-2.8-.25-3.44-1.45-4.82-3.88-10.27c-1.84-5.65-2.83-10.09,1.53-14.76Zm8.82-.23c5.89,2.2,6,10.06-.38,11.43-2.93.45-5.41-.58-5.94-3.79l.53-1.68.72-1,.88-.59,1.18-.32,1,.26,0-.13.63.33.72.71,0,.1-.88,0-.49-.41h-.76l-1.14.44-1.08,1.22-.08,1.64.54,1.32.69.71,1.06.51,2.48-.06,1.66-.77,1.21-1.28.71-1.55c.66-5-3.2-6.58-7.68-6.28v0c-11.7,2.81-1.56,20.18.15,25.59l1.09,3.48.42,2.57,0,4-.56,2.19-1,2.3-.62.58H95l-.39-.29c3-6.06,1.27-12.46-1.11-18.39l-.13,0-3.21-8.93-.8-2.66-.18-1.94.06-2.84.68-2.2,1.69-2.38,2.32-1.8.76,0v.11l.87-.12.34.11Zm-54.65-.43,4.39.93,3.53.43,4.48.2,2.94-.17.47.16-1,3.13-.26,2.92.3.55-.33-.1c-.09,9.23,6.25,16.76,8,25.56l.14,3.27-.8,4.34-1.5,3.83-1.23,2.13-3.49,4.74-6.48,6.85-7,6-1.89,1.12H35V279.12l9.75-7.28.34-.86,0-6.58h.31l1.49,1.13,1.36,2.31.64,2.31.2,3.08-.38,2.52-.64,2-1.14,2,.33.15.6-.1,3.92-2.61,2-1.87L55.79,273l2.39-4.19,1-2.9.61-2.6.3-4.28-.6-4.62-1.28-3.66L57,248.14l-2-2.87-2.77-2.75-2.26-1.71-1.11-.51-.12-.2-.5.12-.2.4L48.7,243l.24,2.45-.11,1.74-1.11,3.3-1.35,1.81-1.1.93-.25-.06L44.9,238l.07-.08-.11-.2,0-.41,0-13.79Zm-4.11-1.19,2.56.84.27,36.79.15-.15,0,0-.13.44,0,10.88-1.62,1.4-7,5.24-.7.33v-3.62l1.93-1.5,4.39-3.28-.22-29.94V222.38Zm62.23-.22.08,0-1,2.21h-.48l-.65-.43.22-.45,1.31-1.07ZM164,221.5l-1.29.44-.2.23.2.18h.6l.83-.58Zm-57-1.27.07.08-2,3.14-1,2.29h-.2l-.73-.87.26-.89,1.6-2.73Zm-72-.41,5.2,2.16c.15,15.7.16,31.58.33,47.36L35,273.5Zm132.39-.35H167v.2l-.6.6-.89.33.26.32h.76l1-1Zm-56.46-1v.22l-.52.41-2,2.42-2.2,4.38-.86,2.8-.15.23-.79-2.35.37-1.18,1.9-3.76,1.89-2.19Zm-20.67-1L92,220.06H90.15Zm-33.13-.32.36.23.84,3.32-.46.14-4.75,0,.55-.79,1.71-1.75Zm112.79-1.35h-.13l-1,.79.08.29.62-.11.57-.45ZM55.46,213.3l.8.92.64,1.8-1.38.36H53.25l-.2-.09v-.47Zm10.48-.4V213l.83.42.67,1.12.48,2.46,0,1.93-.08.06-.21,1.45-.37.26-1.09-2.22-.41-2.5.11,0-.19-.8-.34.18-1.17,3.28L63,220l-.36.22-.16-.29V218l.75-2.79,1-1.56,1.2-.75Zm9.35-.52,1.11.56.55,1,.72,1.74.3,2,0,2.16-.28.15-.61-.61-1.11-2.1-.5-2.46H75.1c-.48,1.39-.5,4.17-2.3,5.34l-.29-.81,0-2.57.81-2.9,1.08-1.13Zm10-.51V212l.49.2,1,1.16.69,2,.4,2.13-.06,2.15-.26.15-.36-.1-.88-1.27-.84-2.24-.4-2-.26-.14L84.56,216l-1,2.65-1.09,1.2-.28-.51-.11-1.77.11-2.15.6-2,.73-1.12,1.08-.51Zm8.27,0v.08l1.7,1,1,1,1.21,1.62.55,1.44h-.28l-1.61-1.25-2.93-3-.25.17v.56l.89,2.64.54,2.9h-.33l-.73-.69-1.45-2.48-.51-1.76V213l.33-.66.69-.5ZM57,211.7l.07,0V212l.38.4L59,215.94l1.24,4.54,0,.08-1,.13-.85-3.22-2.09-4.91Zm7.7-.42.1.12c4.61-1.25,5.34,6.09,4.56,9l-1,.14c.35-2.16.8-8.8-3.07-8.24v.08l-1,.41-1,.92-1.24,2.88-.4,4H61l-.13-1.51.13-2.3,1.23-3.3,1.67-1.81.85-.28ZM59,210.91V211l1.47.33,2.15.25.2.22-.5.58-.86,1.45-1.16,3.49-.12.06L59,214.28l-1.44-3.16.21-.2Zm15.46-.33.21.17,1.33.11,1.09.34,1.17,1.5.81,1.73.46,1.88.16,3-.22,1-.2.11h-.67l-.21-.21.12-.21.08-2.47L78.14,215l-.47-1.41-.89-1.21-.64-.35-1-.27-1.23.56-.72.63-.59,1.08L72,216.38l-.11,1.69.12,2.2-.07.38-.62-.13-.26-.52v-.77l-.2-1.16.41-3.07.57-1.74,1.46-2.09Zm6.59-.35,1.28.08-.76,1-1,1.9-.45,1.93-.17.1-.84-2.51-.7-1L77,210.46l.26-.09Zm9.42,0-.89,1.48-.29,1.16-1.65-2.63Zm2.77,0v.09l1.51.36,1.62,1.07,2.08,2.11,1.15,2.22-.51.53h-.21l-.38-1-1.27-1.74L95.36,212l-1.87-.78h-.94v.09c-4.29,1,.2,7.23,1.33,8.64l-.41.07-.72-.17-1.26-1.53-.85-1.63-.77-2.55.24-2.35.71-.83,1.54-.79ZM86,210.14v.12l1,.45.78,1,1.18,2.08.55,2.59,0,3.12-.42.72-.75-.06c1.5-11.77-8.59-12.07-6.5.17l-1.06,0-.39-2.19.35-3.1.3-1.3.65-1.55,1-1.23,1.41-.75Zm25.2-.65.5,1.55.61,2.7L112,214l-5.88,2.3-.58.49,0-.11-2.82,1.73v-.17l2-2.7,2.23-2.39,2.12-2Zm1.54-1,.32.24,1.64,6.23-.13.34-4.38,1.3-3.7,1.6-4.89,2.65.08.15-1,.49-.09-.09.45-1,3.1-2.22,5.24-2.58,3.67-1.21.08-.46-.16-.28-.48-1.7-.51-2.89Zm-16.32-.92,0,1.51.64,2.21-.12,0-2.47-1.54.39-.32,1.47-1.87Zm-32.62-.06,3.3.71-1.2.61-2.23.22-2.21-.15-1.55-.41.15-.34.38-.25,2.69-.39Zm36.86-.71v.09l1.34.4,1.32.7.66.62.53.84h-1.21l-1.55-.51-1.48-1.16-.28-.06,0,.5.69,1.29.81,2.37v.95l-.13.06-.59-.51-1-1.29-1-2.1-.09-1.3.85-.9Zm0-1.92,3,1.23,1.94,1.56.48,1-.52.53h-.21l-1.14-1.17-2-1.34-1.9-.6-1.26.28-.9,1v1.37l.57,1.67.91,1.62,1.56,1.57-.18.68-.55.3c-2.75-2.21-5.65-7.82-1-9.72Zm65.24-.26-.39.46.86.81,1,1.42,1.87,3.36,1,4.52.3,3.83-.51.13-.73.73-.05,1.16.23.24.35-.27v-.81l.37-.69h.4l.06,2.65-.89-.21-.59-.72-.45-.11-.67-4.42-1-3.07-.48-.25-.14.28,1,3.1.52,2.95.16,4.37-.12,1.55-.81.12-.62.6-.07,1.76.14.07.34-.2.06-1.25.18-.35.6-.22.18.24-.09,1.8.13.13-.57.39-.64-.07-.34-.24-1-1.17.13-3.31-.22-3.68-1.26-4.89-.87-1.65h-.26v.47l1.48,4.8.27,4.34,0,3.69-1.4.8v1.7l.37.2.31-.32V228l.53-.13.13.24.18,2.21-.62.07-.61-.31-.41-.51-.91-1.62.15-2.91-.13-2.48-1.16-4.69-1.19-2.68-.47-.36,0,.64.81,1.92.94,3.12.18,1.66-.81.61-1.27.28-.09.17.19.18h.94l1-.35,0-.23h.11l.22,1.22-.31,6.93-.25.29-.75-.06-.51-.52.46-.15,0-1.39.82-.58-.08-.47h-.25l-.23.29-.5.1-.42.53v1.5l-.34-.35-.56-1.39-.9-5-1.24-3.51-1.83-3.62-.2-1.24-.81-1.76-.19-.11-.11.18.55,2.5v1.94l-.41,2H154l.72-1.49.43.53.49,2.35-.26,2.84-.88,1.33-1.1.54-.06-.06-1-3,.25-.24.63-.13.51.91.27,1.41.37.09.2-.38-.68-2.35-.41-.34h-.69v.1l-.67.22-.3-.33-.66-1.22.47-.55-1.06-.68-.94-1.93-.2-.83-.13.07-.05-.38h-.11l-.85-3.26h-.39l-.36.42.91,2.81,3.51,7.81.85,2.75.93-.21,1.53-1.29,1.05-1.93.2-1.53.12,0,.75,2.71.73,4.19.23.47-.06.14.51,1.15.76.8,1.77.47.49-.37.3-2,1,1.11.88.28.7-.11.77-.43-.09-1.91,1.05.71H168l.53-.21.17-6.56.13-.64.06,0v.11l.62.61.9.35.57-.11.46-.52c0-5.08-.64-14.15-5.16-17.62Zm-101.95-.27,2.13,1.28L67.28,207l.29,1.05-.5.26.32-.6-.46-.31-2.47-1-1.08-1.08-.21-.84Zm10-1.29v.11l.17-.08.14.24-2.78,4.51-1.55,2.05-.31.66.32.2,2.76-.12.17.11-.76.87-.17.07-.95,2-.52,2.09-.28.53-.43-2.45-.54-1.25-1.71-1.79,2.8-1.74v-1.25l-1.06-2.18-1.66-1.62.07-.08,3-.1Zm-9.94,0,.07.08.79.26,2,1,1,.87,1,1.33.65,1.66-.35.74-1.78,1-2.74.6-3.57,0-2.22-.5-.4.05.36-.51.67-.42h.68v.14c6.52,1.3,12.76-1.33,3.62-5.74l.08-.55Zm60.25-1.57.4.22,6.43,5.82-3.83,8.26-.41.15L120,209.9l.79-1.74Zm-20.82-1,.08.06v2.41l.65,2.66h-.28l-2-1-2.16-.41.11-.36,1.24-1.27Zm3.54-.55L108,200l1.89,1.35,1.71,1.91.2.63c-1.36.13-4.23-1.44-4.67-2.84h-.32l-.15.27,1,2.35.34,2-.11,1-.35-.13-1.35-2.35-.51-1.9.11-1.67.23-.43Zm0-1.75,2.2.48,1.42.91,1.28,1.35,1,1.51,0,1-.16.28c-6.08-8.33-10.51-3.46-5.27,3.73l-.21.39-.51.32-1.06-1.16-1.2-2.27-.45-1.88.13-2.65,1.39-1.51ZM67.7,198l2.59,1.38,1.32,1.34.16.56-1.31.44H66.9l-1.54-.37.13-.27.8-.35h1.62l2.67.4.26-.07,0-.45-1.8-.87-1.55-1.29Zm.45-.78.56.28,1.8.34.9.49,1.75,1.53L74,201l.19,1.09-.77.44-1.77.48-1.71.18H66.85L65,202.76l-.42-.28.32-.62c2,.68,6,1.09,7.72-.4l-.13-.75-.33-.49-1.53-1.46L68,197.33ZM78.23,196l-.63,1.34-2.67,4.79-.11-.05-.49-1.78-1.52-1.77-.82-.7v-.25h1v.12l2.2-.44Zm33.58-1.1.38,2.92.11,0,.28,2.67-.15.07-2.34-2.14-2.62-.93.16-.29,3.45-2.07ZM64,194.48l.08.08.85.07v.16l-.61.91-9.7.22-3.24.12-.9-1.21.05-.09.85-.13Zm8.61-4.29v.12l.79.11,1.55.63.24-.07-.11.19,1.22.81.85,1.38c-1.67,1.75-5.4,1.93-7.5,1.47l.63-.69,1.38-.44,2.76-.39v.14l1.9.29.58-.22-.1-.55-3.17-1-1-.92-.23-.73Zm.14-1.24.88.16,2,.72,1.21.65L78,191.61,79,193.23v.68L77.93,195l-2,.93-2,.59-1.95.25-1.51,0-1.71-.65V196l.43-.37,2.85.18,1.76-.22,2-.61,1.59-.8.45-.59,0-.54-.45-.87-1-.95-1.77-1-2.22-.74Zm49.16-.83v.09l.29.13,5.15,5.4-1.67,3.46-1.49,2.87-.37.13-5.55-5.27-.12-.39,3.58-6.42Zm-39.29-.33.07.67-.32.23-2.19,4.36-.29.24-1.12-2-2.18-1.87,2.75-.41,2.56-.84Zm-24-3.55,4.2,6.24-.45.16H55.41l-.43-.13Zm17.88-.73v.09l.47.12,1.41.56,2,1.38.15.51-.72.38-2.61.58L75.34,187v.12l-1-.12-.14-.27.5-.33,1.73-.34h1.85v.09l.84.1.48-.19v-.4L77,184.61l-1.06-.87v-.23Zm-19-1.14.56.69.08.61L54,190.61l.13.51.85.33h7.85l.88.13.69,1.2-3.92,0-.06-.07-2.35,0V193l-1.31-.07-5.14,0,.08-.62,5.45-9.75Zm18.16-.32,1.29.15,2,.71,1.89,1,1.79,1.61.37,1.18-.33.39-.77.44-1.65.62-2.81.5-2,0-2.05-.32-.27-.31.33-.5h.42v.12c2,.32,5.89.38,7.43-1.28v-.59l-.74-.89-1.46-1-1.68-.78-1.88-.49Zm10-1.15-.08.79-1.66,3.92-.24.17-2.28-2.39-1.22-.68.09-.17,2.35-.39Zm-43-.26.07.05H45.8l0,.06,9.72.37v.32L53,186.22l-3.51,6.16-.48.18-.74-1.15.08-.17,4.8-8.09-.11-.56-2.64-.11-6.22,0-1.4-.09-.86-1.53.3-.17Zm63.69-.54,3.48.06.26.26,0,1.31-.16.16v8.39l-.17.33-4.58,2.47-2.88,2.08-4.12,3.46-3.73,3.81-2.31,2.9-1.18,0-11.45.09L81.83,201l2.73-4.49,5-10.61.85-2.33.08,0,1.18-3,.47-.43Zm67-2.12v111.4H138.5c-6.09-6.89-10.2-15-16.11-22l.32-1.75.05-2.71-.35-2.81.17-.54,1.28-1.82,3.21-5.25,2-4.66-.27-.77L126,245.44l-.47-1.19.5-3.19-.3-1.3-1.12-1.06.36-1,0-1.21-.64-1.09L123,234.7l.07-.36,2.08-5.81,1.63-2.43,2.09-1.8,1.25-.33.07.12c-3,3.17.18,6.63,3.93,6,5.34-2.06,4.08-8,.16-10.93l.24-.2,2.24-.69,3.62-1.25-1.24-4.7.09-4.2,7.76-3.16,7.3-3.32.77-.59.62-1.57,3.75-6.59,4.86-6.5,3.28-3.39,4.36-4ZM35,177.12a164.29,164.29,0,0,0,19.69,30.63V208L42.56,221.36l-.65,0L40.76,221,35,218.61Zm43.54-.6.4,0,1.93.52,1.81.88.81.73.14.42-1.18.63L81,180l-2,.13-1.87-.36v-.29l2.38-.46,2.67,0,.11-.2-.24-.24-1.24-.26-1.5-.71-1-1ZM78.4,175v.07l2.5.49,2,.75,1.5.86L86,178.82l0,.79-.57.51-1.1.63-1.67.65-1.41.32-2,.07-3.13-.3-.24-.26.29-.87h.55v.12l2,.37,0-.11,1.81,0,2.52-.67,1.17-.71.16-.63-1-1-1-.64L81,176.42l-3.36-.83.24-.59Zm42.83-.76.77.73.22.47,3.39,4.47-.25.84-3.42,6-.3.09-.34-.36-4.46-5.54.52-1ZM87.8,171.61v.1l.66.16.08.14v.69l-1.86,5.58-.41-.17-.14-.27-1.24-1.15-1.85-1.07.2-.42,3.92-3.59Zm80.67-.22h-.53v.12l-.43.28-.14.77.28.57.87.21.58-.4.07-.93Zm-117.68-.68,1.56,3.07,1.62,3-.14.22H48.29l-1.1-.18.23-.63.4-.49,2.67-5Zm28.74-.5,2,4.59-.09.19-3.08-.69-.23-.14,1-3.95ZM35,168.92l.44.33L36,171.2l7.34,14.1L47,191.19l.28-.13-.12.2L50.76,197l6,8.18v.26l-1.18,1.32-.43.08A143.29,143.29,0,0,1,35,175Zm14.69-.41v.18l.43.68,0,.65-1,2.06-3,5.22.22.29,7.87.32.57.22.59.93-.05,0-3.71,0-7.46-.29-.38-.17,0,0,5.65-10.05Zm-12-1.1,9.13.67.16.31-5.92,10.45-.13-.06-.59-.93-.08-.73L43.82,171l1-1.37-.54-.33-5.37-.46-3-.35.32-.36.77-.51Zm46.86-1.48,2.22,4.94-.47.7L82.65,175l-.41-.33-1.75-3.89-.31-1.08Zm-47-.53v.09l.29.11v.28l-.67.42-1.77.93,0-.74,1.76-1.07Zm127.41-.65.15.27-.15.84-2.38,1.55-1-.12,0-.12L162,167l.87-.79Zm-121.49-.13v.1L46,165l.52,0,.08.15.89.05.58.21.4.84L45,166.08l-4.17-.4-.11-.2,1.28-.85Zm123.64-1,1.84,3.47.72,2.7.45,3.25-.2.81-.94.81h-.81L165,173.21l-2-1.2-3-2.76-.25-.58,1-.85.29.37,2,.21,1.37.68,1.36,1.17-.34,1.1.57.58.51.06,1.19-1.24.39-.25.24-.58-.55-.83-.34,0-.68.51-.33-.18-.81-2.82.2-2.31Zm-4.73-.31v.09l2.54.28v.2l-1,.69h-.08l-1.51,1.09-.55.21-.92-2.55Zm-38.75-.49,2.39,5.35v.62l-4.17,4.08-.34.08-.31-.43-2.49-5.56.57-.58Zm45.84-.44,2.75,1.53,1.07,1.15v3.55l-.34-.1-1.72-1.06-2-2-1.43-2L168,163ZM46.59,161.7l.87,2.61-1,0-3-.39v0Zm113.62-.31,2.34.06,5.33.51-.41.4-1.16.63-.9-.08h-.6l-4.37-.52-.35-.76Zm13.06-1.11-.05.85-1.83,1-.63.07-.48-.26.42-.33,1.92-1.06.23-.28Zm-126.36-.16v.22l-2.2,1.72-1.19.62-.07-.07v-.67l.27-.28,2-1.28Zm2.41-.41,5.29,10.94,4,7.23,6,9.19,2.62,3.63L66,192.94l-.25.24c-6.64-9.12-14.68-21.1-18.39-31.84ZM35,159l.69.32,1.49.94,2.15,2.27,1.23,1.73-.17.38-1.66.67-2.89-1.94-.84-1Zm17.31-2.08,4.1,8.55,5,9.11,3,5,.2-.09-.13.21.25.31v.09l4.38,6.2V187l-1.19,2.29-.6-.07-7.22-10.76L55.94,171l-5.33-10.37-.52-1.76Zm88-.65-.32.17-.29.57-1.1,4-1.1,6-.68,5.87-.18,6.57.13,3.95.51,5.77h.37l1.86-4.84,2.17-4.12,3.58-5.75,2.85-4-6.58-12.38Zm-53.39-1.66,2.8,6.14-.09.11-4.51,3.77-.43,0-2.31-5.26.06-.37,3.22-3.27,0-.12.19.1,0-.15,1-.9Zm-47.14-.4-.61.61v.84l.38.37.63.22.74-.49,0-.85-.52-.7Zm13.43-.92.88.32-1.41,1.62-.9.77-.43.12.06-.75ZM40,152.87v.07l2,.78,3.38,2,2.38,2.16.86,1-.55.61h-.81l-1.88-.22-1.19-.55-1.63-1.27.31-1.07-.78-.79H42l-.48.31L40,157.37v.39l.42.61.47.19.84-.6.94,2.76-.15,2.48-1,.69-.35-.09-1.61-3-.69-2.21-.51-2.92,0-1.82,1.22-1ZM126,152.7l.85,1.62,1.48,3.34,0,.45-4.07,3.37-.34.06-.15-.21-1.94-4.21-.06-.59,3.89-3.62Zm1.45-.07v.12l3,.6-.1.54-.88,3.25-.28.43-.41-.37-1.92-4.57Zm33.2-2.14v.1l.67.18v.15l-2.93,5.22-.51.83-.15-.05-3.27-6.19.73-.22h.48l.1.09Zm-46.35-1,2.61.16v.45l-.55,1.13-1.4,4.94-1.37,5.87-1.28,7.53-.67,6.17v2.32c-6-.45-15.65.7-20.34-.18L92,176l1.7-6,1.38-5.86,1.72-9.75.3-4.4.18-.47Zm7.82-.13.58.81,1.51,1.16.51.12v.13l.71.46-.26.51-3.66,3.29-.89.15-.58-.19-.17-.31.24-1.08,1.68-5Zm45.2-.46.79,1.44-.83,1.7-2.69,4.7-.8,1v.34l.26.16,3.25.28,1.48,0v.11l2.47.19,1.14.33-.29.41-.92.56-1,0-2-.17v-.11l-1.62.05-5-.44v-.43l5.68-10.17Zm-27.45-.37v.13l.56.53,2.5,4.18.19-.09-.12.22,2.57,4.33L151.78,170l.14,1-1,1.11-3.61,4.63-3.41,5.47-4.1,7.93L137,198.05l-.14.08-1.6-6.89-.69-4.45-.12-1.41h-.13c-1-12.43,0-25.37,5.28-36.81Zm13.32-.14,10.7.41.92.16-2.18,3.77,0,0-3.59,6.32-.38-.08-.54-1.21,2.9-5.37,1.2-1.91-.1-.49-6.5-.27v.15l-1.75-.11-.6-.74ZM47,147.88h-.5l-.65.61-.05.73.44.44.74.05.49-.43,0-.77Zm82.54-.43,1.46.3.5.23-.73.35-1.82.28-2.6-.15-.25.33.25.16,2.23.68,1.53,1.37-.09.1L129,151l-1.37-.4-1.66-.85-1-.73-.12-.43.41-.42,2.3-.72Zm-82.42-.91v.09l1.1.21,3,1.1,2.93,1.52,2.06,1.35v.31l-.55.71-.62.3-1.54.3c-1.53-.22-2.89.25-4.13-1.63l.47-.48.08-.45-1.06-1-.37.19-1.74,1.82.2.71.33-.09-.11.25.55.35,1-.68,1.24,2,.73,2-.27,1.85-.8.87-.34.08-.45-.36-.71-1-1.94-3.2L45,150.19l-.17-1.5.21-.77.68-.79Zm82-.76,3.36.4.16.3-.31.77c-4.09-.47-3.32-1-7.39.52l-.78.57,0,.67,1.08,1.09,1.49.83,1.54.53,2.48.55v.33l-.26.3-1.33-.12-2.45-.66-2.49-1.18-1-1-.91-1.39,1-1.07,2.28-.94,1.56-.37ZM61,143.8l.13.25L59,147.48l-.36-.09-.09-.61.45-.6,1.21-2Zm64-2v.2l1.11,1.38,2.33,1.71-.36.12-1.8.23-3.42,1.35.06-.73,1.7-3.95Zm-38.36-1.11,4.65,5.74.08.75-4,5.95-.47.09-4-5.3,0-.69Zm45.89-.26.06.07.63-.05,1,.24.12.21-.64.4-1.4.25-3.29-.08-.1.49.29.17,1.52.48,1.9,1.29,0,.22H132l-2-.69-1.9-1.38-.16-.53.78-.45,1.09-.3Zm-79.83-.29h-.2l-.65.48,0,.76.27.39.3-.09v.18l.5,0,.55-.41-.1-.85Zm1.46-.94v.16l2.34.16,3.26,1.14L62,141.69l.25.51-.38.45-.83.25-2.09.15-2.32-.18-1-.29.34-1.17L55,140.68h-.34l-1.41,1.9-.05.59.91.88.42-.1.63-.77.39.16.48.49,1.45,1.92.42,2.09V149l-1,1.25-.49-.24-1.66-1.7-2.07-2.81-1.32-2.48-.13-1.73.49-1,.65-.53Zm78.46-.33v.08l2.55.34.27.33-.33.5-2.14-.3-2,0v.09l-.84.11-1.65.45-1.12.61-.25.48.38.78,1.59,1.23,1.23.64,2.41.74.27.2-.12.41-1.32-.07-2.38-.84-1.8-1-1.26-1.09-.73-1.39.34-.48,1.07-.61,1.61-.59,3.3-.59Zm8.22-.63c6,7.69,13.92,21,17.47,30.57l-1.82,1.61-.51.26a156.53,156.53,0,0,0-16.74-29.46l1.22-2.78ZM71,137.93l-.41,0-.24.77.08,0-.65,2.55-2.3,4.78-4,6.68-3.13,4.42,7,13,.77,1.14h.5c3.22-8.82,4-22.55,2.75-31.81Zm75.05-1,7.5.09,0,.44-3.58,5.87h-.12l-.37-.37-3.76-5.75Zm13.49-1.9.7,1.12v.31L155.74,144l-.39.87.06.14,1.1.13,5.84,0,2.52.15.73-.08.83,1.81-13.3-.31-.38-.23,6.37-11.4Zm-2.65-.33.14.41-.74,1.5-4.73,8.5-.45.25-.3-.31-.34-.7.11-.6,4.2-7.1-.4-.45-.56.05-1.56,0-4.66.08L145,136.2l-.48-.5-.51-.78,1.19-.25v.09Zm-91.11-.08-1.28,3-.29-.12-.08-.56.81-2.15Zm77-.09.49.39,7.38,10.92.17,0-.1.21,4.14,6.94,4.16,8,2.2,5.41L159,168a139.59,139.59,0,0,0-17.85-30.76l.52-1.19Zm-14.09-.15,1.41,2.28,2.09,1.64-3.12.41-3.12,1.07v-.38l2.55-4.86Zm8-1.83,2.19.26-.22.49-.56.39-1.78.5-1.76.11L132,134l-.38.39.15.34,3,.87,1.19,1,.22.71-.31.08-1.36-.32-1.09-.53-1.36-1-.68-1.14.06-.28.79-.61,1.34-.59Zm-78.76-1-.8.57-.3,1,.51.59H58l.36-.19.36-.49,0-.48-.22-.62Zm99.39,0L158,133l-14.37.16-.14-.07.61-1.05,2.2-.2v.11Zm-20.58-.62,1.57,0,1.72.31v.33l-.35.56-3.38-.24-3.13.65-2.18,1.13-.34.74.48,1,.79.81,1.68,1.08,2.54.87.09.18-.37.29h-.69l-2.27-.83-1.5-.87L130,135.35l-.68-1.31.61-1.23,1.29-.57,2.93-1Zm-75.08-.65.1.09,2.29.4,1.91.64.92.5-.54,1.51-2.22.48-2.1-.09-.75-.36.2-1.27-1.26-.47-.45.4-1,2.34.09.49.55.09-.08.16.8.19.79-1.19,1.42,1.32.71,1.1,1,2.32-1,2.19-.58-.24L60,139l-3-3.28c-1.18-2.52-.84-4.3,1.87-5.27Zm9.91-.53c4.39,14.58,4,35.64-2.6,49.29l-.3.06-4.86-8-7.27-14,.25-.67,1.06-1.12,4.53-6.07,4.58-8.08L68.26,138l.51-.86,2.58-7.39Zm13-2.35.55.46.22-.1-.09.17,5.12,4.92-.11.28-3.31,6.08-.51.19-5.23-5.54,2-4.22,1.19-2.16Zm11.73-.24v.09l1.19,1.21,1.6,1.06,1.83.55.12.19-1.27.93L97,132.6l-.5-.06-.5-5.41Zm37.48-1.08.05,0v.21l.51.85,1.88,2.17,1,.69-.26.16L132,131l-1.18.61h-.55v-.23Zm4.69-1,4.27.37,1.06.33v.32l-.28.29-.47.09-1.24,0-2.61-.37-.68-.3h-.26v.3l2.74,3-.1.2-2.35-1.38L136.64,126l-.13-.71Zm-.71-1.82,3.56.1,2.32,1.6h-.34l-1.85-.51-3.78-.12-1.79.49.09.78.77,1.38,1.26,1.5,2.87,1.79-.19.16-2.25-.4-1.12-.7-2-2-1.12-1.7v-.24l1-1.52Zm-68.72-.31-.77,4.56-.28.06-.34-.77.8-3,.36-.8Zm-6.39,0,.13.23-.41,1.8,0,.47.52.36.85,0,.46-1,1.22.74,1.25,1.18.94,2-.07.89L67,131l-.59-.15-1.87-.93-2-1.58L61,126.7l-.89-1.28-.19-1.11.56-.42-.16.8.26.53.57,0,.71-.37.17-1.08-.53-.4Zm42-1.05,2,1.05,2.31.45.06.24-3.24,3.08L105,127l.14-1-.21-2-.47-1.78Zm25-.12.1.35-1.43,1.94-3.53,5.79-4.24,8.28-3.88,9.27-.19.12-17.63.06-.32-.77.15-.09v-9.57l.1-.12,4.26-2.28,2.3-1.56,4.81-3.9.18-.36.25.07v-.12l2.42-2.49,3.7-4.19Zm-28.8-.86.73,1-.09.06.89,1.44.46,1.86-.09,1.56-.38.64-1.22.16-.73-.2-.91-.53-1.81-1.73-1-1.34.15-.3.65.17.38-.07-.09.16.47.12,2,1.14,1.2,1.41h.3l.13-.23-.88-2-.39-1.93.08-1.34Zm10.84-.13,0,.49-.11-.05v-.44Zm41.75-.08,6.47,8.48,7.37,11.25,6.07,11.49v6.42l-.89-1.72-.28-.89-8.29-15.81-.39-.29-5.3-8.36-2.5-3.59-3.91-5.11-.06-.3,1.41-1.57Zm-84.43-.33v1.4l-.89.87-1.48.85-.67.14H64.75l-.11-.1.12-.72-.63-.5,1.06-.48Zm32.9-.91c6.73,8-.75,14.37-6.18,5.85L95.6,124l.23-.13c5.23,7.81,10.84,4.21,5.24-3.87l.43-.44Zm45.4-.77L149,119l-.32.61-.42.28-1.9.39h-1.82l-2.29-.39-.22.43.18.3,2.73,1,1,.81.22.42-.42.59-.69-.15-1.84-.93L142,121.18l-.36-.93.89-.65,1.5-.6Zm-9.13-1.07v.25l-.25.43-1.34,1.59-.21.38-6.12,9.68-3.63,6.55a96.27,96.27,0,0,0-9.62,28.3l.12,0a97.42,97.42,0,0,0,2.81,51.08l-.88.27-1.84.08-.36-.36-1.18-3.81-1.2-4.82-.09-.88-.12,0-1.66-12.94-.22-4.38V178.88h.17l.22-5.13,1.32-8.33,2-9.32,4.19-12.68,3.69-8.13,4.69-8.07,4.47-7.06-.11-.37-13.79.42,0-.08-3.84.21c-3.67,5.6-12.11,13.19-18.46,15.28l-.11-.14-.13-2,3.3-1.64,5.73-4.08,4.22-4.06,4.39-5c7.11-.68,14.7.13,21.74-1v.16Zm10.44-.62v.07l1.45.28.27.32-.58.65-.79,0-1.94-.2V118l-1.61.2-2.25.49-2.1,1-.05.91.58,1.09,1.48,1.2,2.23,1.14-.24.31-.7.23L140.66,122l-1.07-2,.52-.67.63-.27,1.07-.89,1.07-.49,3.74-.65Zm-36.87-.81v.08l2.4,1.48-.42.36-1.43,1.77-.07-.07v-1.3l-.64-2.32Zm7.64-1.37.2.24.56,1.1.78.95.21.55-3.43.09.18-.32.8-.83Zm-12.15-.24c5.63,5.11,1.63,8.78-3.07,3.68l.06-.32,1,0V118l.5.12,1.08.36,1.42,1.12.47,0-.09-.24-.75-1.46-.71-2.14,0-1.18Zm1-1.74,1.06,1.08,2.07,3.29.22,2.4-.24,1.21-1.5,1.58-1.3.24-1-.2-2.16-.89-1.59-1.1-.84-1-.3-.89.67-.41c5.44,6.36,11.17,2.07,4.21-4.41l.43-.82Zm20.43-.69,1.08,3.07,1.27,1.5.75.48,0,.1-5.56.32v-.29l.47-.43.8-1.17.77-1.56Zm-47.08-.64,6.69,6v.32l-.2.41h0l-3.63,7.38-.42.23-6.34-5.72-.09-.49L81,112.14Zm9.56-.34.34.28.3.67,1.72,6,.17,1,.09.07,1.26,6.08.93,8.11v1.95l.11.1.3,4.71L96.17,146l-.59,8.5-1.19,7.41.08.14-.13.06C92.1,177,84.18,195.07,75.67,207.33l.32.08,2.28-.08,15.11-.16.34-.64,1.73-2.2,3-3.25,3.93-3.67,3.48-2.47,5.3-3h.44l.16,2.11-.21.21-2.14,1.06-2.51,1.54-3.64,2.71-3,2.75-1.74,1.8-4.12,4.73-1.23.11-11.36.3-10.4.13v-.09l2.33-3.28,4.8-8.75,2-3.13-.11-.07c5.54-9.24,8.9-19.72,11-30.25h0c3.39-17.08,3-35.05-2.5-51.65l-.19,0-.06-.71Zm65.5-.61-.06.59L154.68,113l-.75,1h-.79l-.55-.55-.89-1.9.55-.33,2.64-.42h1.2l.08-.16Zm-117.13,0-.69.14-.64.51,0,.44.44,0,.34-.34.63-.32Zm99,0c.63,2.89.28,5,3.34,6.83l-2.86,1.93.07.88.51,1.4.85,1.09-4.45.33-.12,0,1.41-2.41,2.31-2.92,0-.27-1-.26-4,.23v-.14l1.37-.75,1.69-2.28.42-1.3.27-2.26Zm-66.92-.4,1.45,3,3,7.91,3.32,13,.78,5.48.11,0,.63,4.89.11,3.82.08.07C80.78,167.33,75.58,187,63.56,202l.1.08-1.84,2.42-.13.34L59,207.78l.11.1L47.24,220.59l.39,0,2.2.74,1.75.31,3.47-.06v.12l2.2-.18.7.13,2.75-.19,36.35-.83.23-.12c3.76-6.33,9.23-12.27,15.66-15.83v-.15h.26l.35,2.48-.17.25-3.46,2.16-3.71,3.2-1.64,2-.07-.06-2.44,2.89L98.39,223l-7.77.18v.08l-8.65.1-6.77.16L57.73,224l0-.12-2.17.1-3.76-.24-3-.46-5.41-1.41,1.32-1.35,12.62-14.11,6-7.57L68.54,190c13.2-25.82,12.39-52.93.53-79Zm76.92,0,.29.38.43,1.2,2.23,4.62-.42.57-3-.53h-1.83L147.4,114Zm-42.57-.83v.19l-2,2.73-3.63,3.65-2.72,2.14-.23-.2-.9-3.48,0-.63,5.63-2.21Zm8.66-.77v.08l.59.65.9,1.33,1.1,2.51.07,1.25-.21.6c-2.23,2.47-5.93-2.15-6.48-4.23l.21-.12.62.39,1.61,1.41,2.33,2.44.32,0,0-.4-1-3.42-.29-2.45Zm11.71-.77c2,10.7-6.56,10.4-5.32.19l.17-.07.36.23.73.94.82,2.24.56,2.43.29-.24.1-1.32.78-2.49.81-1.31Zm15-.22.71,1,.6,1.34.64,2.92h.34l.55-2.19.76-1.65,1.08-1.31.29.2c.79,9.7-6.58,10-5.3-.06Zm-5.37,0,.09,0,.24,2.4-.32,2.18-.53,1.7-.88,1-1,.44-.59-.19-.85-.53v-.29l-.39-.49-.84-2.69v-1.19l-.07-.07.11-1.92.33-.27,1.37,2.25.69,2.85.35.19.76-3.19,1-1.69Zm-20.08-.07v.2l1,1,1.41,2.83.56,2.3-.29,1.92-.64,1c-3.13,2.7-8-2.5-8.71-5.22l.61-.61c3.15,8.43,13.13,7,5.12-3.12l.62-.24.1.2Zm1.61-.07.07.07,1,.11-.11,2.48-1.64-2.47Zm9.5-.17,1,0,.24,1.54-.13,3.49L127.5,114l-1,2-1.1,1-1,.39h-1.54l-.21-.16-.2.09-1.38-1-1.5-2.87-.49-2.83,0-3.09.45-.28h.53l.08.13,0,3.65.08.1.57,2.51,1.28,2.12.69.53,1.73,0,1.37-1.11.69-1.67.47-1.87,0-1.64Zm10-.16.64.19.3,2.85-.4,3-.67,1.69-1.42,1.56-.42,0-.94.49-1.34,0-.72-.24-1.25-1-.94-2.16-.53-1.84-.14-2.52.09-1.45.44-.49.52,0,.17.21-.12.88,0,2.33.59,2.87.81,1.46.68.6.2-.09v.18l.51.17h1.12l.62-.38,1.24-1.31.68-2.33.17-1.67-.11-2.84Zm10.77,0,.25,2.55,0,1.27-.34,1.72-.88,2.23L145,116.39l-1.37.4-1.1,0-1.16-.41-1-1.1-.77-1.77-.53-2.31,0-3.34.35-.84.9-.06-.22,2.52.16,2.41.39,1.56.73,1.44,1.24.88,1.2-.09,1.26-1,.81-1.15.7-2.46.2-4,.09-.18Zm4,0v.12l3.08.18-.55,1-1.67,1.63-1,.58-.07,0-.53-.89-.62-2.24.4-.33Zm-2.44-.12,1.78,4.44,1.86,3.39-.73.91-.42-.14-1.91-3.75-1.21-3.49.13-1.18Zm18-.52,3.76,1.22,2.44,1v41.66a155.51,155.51,0,0,0-19.54-30.3l13.13-13.51ZM108,105.82v.32l-.55,1-3.14,2.17L99,111.83l-3.46,1.11-.15.26.74,2.91.17-.08-.13.23.37,2.08-.43.44-.47,0-.27-.49-1.49-6.13.25-.15,3.38-.94,2.86-1.1,5.31-2.65Zm-70.48-.56.8.14.45.54-.48.37v1l-.56.48-.12-.52Zm8.07-.32-.86.14-.61.33v.48l.26,0,1.15-.45.21-.23Zm109-1.42v.16l2.63.24,3.49.61,5.17,1.41-.39.78-2.48,2.59-8.88,9.1-4.94,5.64-4.54,5.79a90.08,90.08,0,0,0-14.1,40.21,80.31,80.31,0,0,0,2.64,28.58l2.25,8.05.45,1.07,0,.1,3.26,8.32-.08.14-2.43.76v-.17L133.75,210l-2.37-7.56-1.58-6.24c-1.21-6.37-2.56-12.66-2.31-19.24.25-16.93,6.36-38.17,17.44-51.34l-.09-.08,7.58-9.27,8.19-8.12.43-.88-.69-.26-3.74-.77-4.91-.19-2.82.09-.08-.08c-11.65.6-23.42.13-35.11.73v-.1l-1.83,0-.56.2-1.6,2.48-2.89,3.82L103,117.37l-3.67,3-3.56,2.41-.5-.18v-.45l-.08,0-.25-1.65c7-3.85,11.28-9.32,15.34-16.13l19.26-.34.08.08ZM106.1,103l.82.66-1.28,1.18-.52.32-.19-.16.95-2ZM53.67,102h0l0,0Zm51.07-.41v.13l.7,1-1.4,3.09-.62.58-1.55.71-.25,0,1.83-2.77,1.14-2.6Zm-50-.42,1,3.11-.87.15-.3-.56-.45-1.75-.51-.12.34-.37Zm48.55-2.39.08,0,.08.5.64,1.72-1.79,4L100,108l-2,.71,0-.09,2-2.28,2-3.76Zm-62.2-.17v.1l.54.31-.47.15-.15.52v.95l-.26.36h-.5l0-2,.23-.39Zm49.93-.38h-.35l0,.48h.38l.13-.23Zm2.2-.11h-.41l-.09.47h.42Zm-4.52,0h.38v-.39h-.38Zm6.58-.64-.38.2v.41l.5,0Zm-4.14-.33-.16.49.24.09.31-.18-.1-.4Zm6.45,0-.23.28.12.2.25,0,0-.43ZM93.43,97h-.3l0,.52.35-.09Zm-49.78-.09H44l.53.45-.22.12L44,97.9,44.13,99l-.1.4-.41-.13L43.49,99l-.06-1.89Zm55.83-.12-.09.38.07.15.4-.22-.15-.31Zm-12.66,0-.38.85,0,.1h.42l.24-.26-.06-.69Zm2.44-.1L89,97l.06.29.44-.1-.08-.5Zm2.13-.21-.13.24.29.07v-.31Zm4.19,0h-.4l-.05.68h.39l.12-.23Zm5.94-.21-.17.49.58,0-.13-.45Zm-8.18-.07v.2h.21l.09-.2Zm4.39,0-.08,0,0,.31.4-.1ZM87.4,95.9l-.28,0-.11.37h.41Zm2.25,0h-.23l-.13.24.06.31.38-.21Zm10-.13-.08.16.08.35.42-.15-.08-.36Zm-3.94-.08h-.24l-.22.59.55-.06Zm2.41-.3h-.3l-.06.5.36-.09Zm3.65,0-.28.34.11.17.45-.06Zm-54.85-.26-.72.48-.09.29L46,97.22l-.2.06-.65-.65-1.08-.46-.8.15-.73.55.14,1.66-1.4-.74L39.75,98l-.3.42L39.37,105l-.1.12-1.36-.77h-.57l-.7.71c0,5.77.87,13.55,5.19,18l.72-.21.1-.49-1-1.16L39,116.81,38.12,113l-.37-2.72-.07-2,.48-.12.68-.62.14-1.25.46.51.51,3.2.82,2.92.59,1h.37l.14-.28-.94-2.76-.48-2.27-.25-3.52v-3.06l.1-.35.72-.1.64-.56.08-2,.89,1-.05,4.22.14,2-.13.22-.14-.28-.84.12-.86.79-.07.69.39.06.58-.72,1.08-.42,1.2,4.92,1,1.94.51-.07-1.33-3.93-.5-2.7-.16-4.37.06-2.42.78-.22.54-.52L45,98l.11,0,.29.71.45.35c-.63,4,.44,10.1,2.58,13.28l.53,0-.05-.46-.65-1.5-1.14-3.59-.25-1.66.86-.55,1.31-.32-.27-.51h-.57l-1.37.48-.19-.36,0-4.26.16-.72.07-2.68.52-.32.87.57-.48.36,0,1.36-.94.58.15.32.75,0,.44-.57-.1-.54.39-.4,0-.86.24.3.87,2.39-.11.56.24-.12-.11.21.84,4.52,2.62,6,1.28,3.36h.46v-.65l-.27-.88-.33-2.52.47-2.55-.23-.29-.68.77-.24.66-.27.15-.64-2.54.18-2.61.3-.9.54-.58-.16.48.64,2.39.43.37h.84l.77-.27.19.26.62,1.42-.38.21-.09.37.89.43.3.41,1.52,3.21.63,1.81,0,1,.4.18.28-.12.31-.44L60.35,112l-4.17-9.5-.66-2.16-.36-.32-.52.13-.88.59L52.48,102l-1,2.71-.5-1.63-.82-3.58,0-.37L50,97.71l-1.11-1.94Zm53-.27-.16.47h.47l-.09-.47Zm1.88-.15-.11.42.44,0Zm-1.74-.49-.17.36.46-.07ZM83.47,85.66l.77.78.66,1.33-.83-.22L83.52,87l-.28-.91Zm2.63-2.28-1,0-.8.5,0,.83.09.21.75.44,1.84.34,2.53,1.38L94,90l2.38,1.14,2.52.42,1-.21,1.29-.66.8-1.21.09-1.71-1.17-1.4-1.4-.58H98.29l-1.45.87L96.66,88l.32.63.89.6,0-.17.37.25.86,0,.64-.28.39-.79-.06-.63-.56-.5H99l-.21.4.56.57-.14.33-.44.18-.88-.42-.47-.66.43-.75.86-.32.93.1L101,87.69l.19,1.08L100.78,90l-.78.67c-4.53,1.12-8.46-4.67-11.89-6.47ZM87.25,79v.09l-.35.12-.19.53.71,0,.78.35.38.5v1l-.48.29-.8-.13-2.53-2.18H83.52l-.51.57,0,.63.55.34,1.71.31,2.08,1.1h1l.46-.19.47-.59.14-.93-.26-1L88.14,79Zm1.87-2.59v.2l-.47.19v.29h.27l.4-.59,0-.09ZM89,76.1l0,0v.24h.2ZM158.27,74l.15,0,.1,6.51.49,4.32h-.08l-1-2.39-.42-3.11.05-2.5Zm-67.4-1.15-1.56,2.89.49,0v.07l-.45.16,0,.09h.32l.6-.61,1-2.15-.11-.49ZM138,69.71l1.19,5.52.55,1.3,0,.4,2.51,6.23,1.84,5.59.53,1,.88,3.9v3L145.21,99l-1,3-.56.61h-1.37a16.83,16.83,0,0,0,1.52-11.17l-3.43-10.12-.57-1L138,75.09l-1-4.16,0-1.22Zm-2.34-.16.55.17L137.37,75l5.55,15.7.65,5.13-.36,2.68-.64,2.35-1,1.65-.46.3-.82,0a19,19,0,0,0,.91-14.39l.1,0-5.83-15.57-.38-2.67Zm3.85-.14.23.41.78,3.62,1,3,3.15,7.09,1.66,4.2c1.18,3.45,2.29,11.91-.22,14.93h-1.61c3.53-8,.79-12.9-2-20.56l-.15.05-2.84-8.34-.51-2-.09-2.22Zm-6-.06.2,0,0,.06.83.15.18,2.57,5,13.48,1.13,3.49.77,4.41v1.82l-.3,2.88-1.39,4.23-.48.32h-.9l0-.08.76-1.6.66-2.33.38-2.74-.06-4.18c-1-7.58-6.23-14.54-6.89-21.78Zm-1.7-.2.69.18c1.15,9.29,7.67,16.61,7.22,26.18l-.1.11V97l-.43,2.43-1.05,2.77-.55.56h-.47l.09-.94.43-.92.67-3.63.1-2.43L138.1,91,137,86.46,132.55,74.9l-.75-2.32-.09-2.27-.12-.12ZM92,68.9l.72.51-.21.26-.17,1.2-.64,1H91l-.3-.18.65-1L91.86,69Zm38.08-.26,0,.13.95.24.14,3.41,2.84,8.12.12,0c2.66,5.4,5.42,16.62,2,22.4l-1,0,1.11-2.93L136.7,97l0-2.76L135.75,89l-2.85-8.63-2.27-5.69-.71-2.38-.17-3Zm19.32-.22,2.34,2.37,3.45,2.68-.5,1.46-.34,2.15,0,1.94.34,2.76-.13.25a20.75,20.75,0,0,1-5.25-13.61Zm-21.16-.24.95.31v3.36l.1.1.3,1.41,1.5,3.82,2.54,7.08c2,4.22,4.09,14.51.68,18.64l-1.31,0c6.64-13.12-6.63-25.08-5-34.41Zm-1.83-.53.34,0,.64.33-.2,1.8.08,1.77.78,3.36.26.49,4.9,13,.8,4.11.29,4.09-1.18,4.84-1,1.51-1.13-.12v-.32l.46-1,.77-2.35.51-2.79.06-2-.77-5.54c-1.25-6.65-6.24-12.6-6.1-19.62ZM124.63,67H125l.84.36-.39,1.79v1.38l.47,3,2.6,7.34.13,0c2.9,6.66,5.5,15.13,1.6,22h-.81L131,97.54l.11-4.64-.53-2.67-1-4-3-7.74-.12,0-.87-2.32-.83-1.91-.72-2.78V69Zm30.26-.53.21.38,0,2.51h-.25l-1.16-1-.31-.56Zm-31.37-.21v.17l.49.26c-3.75,9.38,12.16,22.8,4.41,36.26l-1.14-.08c2.53-5.25,2.68-7.24,1.2-13.18l-2.8-8-1.3-2.82-1.75-5.43-.37-3.35.12-1.94.55-1.52Zm-1.66-.55.61.27-.1.55h-.17v.4l-.42,1-.06,2.4.47,3.67,1.86,5.48.21-.11-.16.32L125.44,83l.25-.12-.12.21,2,5.42,1.19,5.75v1.92l-.26,2.22-.15,0-.81,2.55-1.36,2h-.91l-.17-.14c8.09-12-7.54-23.9-4.25-36.07Zm34.85-.52.13,1.68,0,4-.55-.15-.61-.61,0-4.14Zm-37-.53v.11l1.37.7-.53.64-.15.53-.07,0-.46,1.86-.05,2.12-.11.11c.56,8,7.32,16.24,7.06,24.71V96.7l-.54,2.48-1,2.55-1,1.13-.56.19-.66-.12v-.1l.92-1.11.9-1.86.57-2.31.15-2.93-.62-4c-2.08-8.41-8.67-16.42-5.81-25.52Zm-31.83-.2-.39.2L88,66.59l-.59.84-.65,1.35L87,70.47l.29.41.38,0,0-2.34.68-1.09.15.24,0,.73h-.13l.09,1.91.59,1.48-1.42.39-1.32.64.17.33,2.23-.64h1.06v.1l2.31.2,2-.06,1-.3.46-.32-.12-.41L94.24,72l-1.84,0,0-.08.37-.44.32-1.06v-.81l3,2,2,.82,1.48.19.81-.28.44-.53-.34-.47c-3.69.42-6.52-4.93-11.25-5.07L89.08,66h1.34l2.13.6,1.48.79L97.3,70l1.38.68.5-.12,0-.09-4.8-3.72-2.24-1-2.66-.36v.16l-.34.12-.06.4Zm70.29-.26.1.21.12,7.32-.26.14-.7-.36-.11-6.65ZM163,64l.3.25.09,8.91-.45.29-.15-9.34Zm-45.18,0V64l.88.37c-3.28,8.72,2.57,16,4.94,24.09l1.17,5.29,0,3.66-.42,1.83-.47,1.18-1.49,2.09-.62.5h-.94c9.78-12.43-9.11-25.57-3.35-39.06Zm-1.67-.74.81.49c-2.19,6.16-.55,12.9,2.27,18.61,2.8,6.21,6.81,15.22.58,20.71h-1.09l0-.1.83-1.13,1.48-2.5.65-2.53V94.34l-.46-3.51c-1.81-5.81-4.58-11.44-6.18-17.32l-.41-2.3-.06-2,.24-3,.46-.58.45-1.72Zm-1.7-.59h.27l.61.31-.58,2.34-.49.69L114,69.05l0,1.62.59,3.59,3,8.54,2,5,.87,2.94.69,3.63v1.49l-.47,2.76-1.37,2.6-.29.12.13.22L117.76,103l-.64.26-.2-.1h-.82l1.43-1.6,1.57-2.21.83-2.39V92.41l-.87-2.93-2-5.38-.11.05L113.72,75l-.84-4.18.06-3.28.54-2.53ZM161,62.36l1.05,1.06.11,2.25,0,8.41-1,1.11H161l-.2-12.82Zm-47.67-.3.54.3a16.84,16.84,0,0,0-1.21,11l.68,2.14,5,14,1,3,.09,3.5-.48,2.68-1.37,2.26L116,102.44l-1.14.71-.67.11-6,.12c-3.35-1.33-5.37-4.95-3.53-8.6l2.11-2,2.94-.73,2.41.36.95.61,1.19,1.42.27,1.44-.29,1.52-.87,1.1-.94.6-1.09.2-1.53-.3-.7-.59.22-.36c3.25,2.06,5.79-2.42,3-4.73l-.93-.5-1.58-.2-.1.08-1,.09c-3.32.88-4.66,4-3.28,7.22l1.6,1.65,1.86.84.06-.15.27.17,1.46.2,1.88,0,1.54-.29,1.93-1.16c9.06-9.78-11.65-27.33-3-39.15Zm-1.52-.71v.13l.63.28c-7.55,11.7,8,25.57,5,36.44a5.85,5.85,0,0,1-6.45,3.93c-2.61-.27-3.57-.44-5.16-2.87l-.16-2.32.31-1.2.91-1.31,2.4-1.18h1.57v.09l.4.13,1.14.8.46,1,.05,1.18-.78,1.1-.75.33-.66,0,.82-1.17,0-.92-.2-.61-.6-.69-1-.5h-1v.1l-.7.21-.76.51-.67,1.07-.18,1.24.18.81.13.06-.07.32.74,1.17.74.66,1.22.71a5,5,0,0,0,7.13-3.28c2.09-10.87-12.08-24.36-5.09-36ZM87.7,60.43l-.33.37.26.49,2.06,2.05,1.27.44,2.6.35,0-.1,1.91.4,2,.55L100,66.27l1.92,1.87.44,0v-.47l-1.2-1.72-1.07-1.07-1.92-1.26-.89-.4-1.79-.52-5.57-.73-1.17-.49Zm10.59-1.84,4.32.27,3.48.76,3.55,1.06,1.17.53-1.48,3.14-.38,2-.16.08c-1.53,9.84,6.94,19.26,7.15,28.92.14,4-2,6.2-6.06,5.13l-1.37-.63-1.32-1.59-.17-1.1.27-1.21.58-.85,1.15-.41,1.38.57.46,1.05-.41.84-.64.33-.77,0-.68-.37-.26.3v.81l.67,1.07,1.25.58,1.22.12,1.18-.17c3.66-1,3.76-7.22-.64-8.15a6.87,6.87,0,0,0-7.48,2.5l-.55,1-.18,1-.31.41-1.44,5-1.45,2.77L98.55,107l-2.2,2.39-1.42.31-.05-.21,2.69-2.83,2.39-4,1.58-4.18.13-1.37h-.34l-.22.36.09.05-1.62,4.34-1.5,2.9L97,106.25l-3.69,3.82-.81.17-.56-.1,3.71-3.89,2.69-4.43L99.54,98l-.08-.26h-.32l-1,2.49-1.25,2.82-1.78,2.72-1.84,2.08-2.85,2.52-.42.11H88.78a21.23,21.23,0,0,0,8.7-12.28L97.11,98,95.85,101l-1.7,3.22-2.39,3L89,109.48l-2,1.25h-1l-.09-.17C89.54,109,94.39,103,95,98.94h-.4a20.28,20.28,0,0,1-10.46,11.74L82,110.56l0-.07,2.84-1.17,2.82-2,2.1-2.25,2-3,1.06-2.27-.09-.53-.35.18-1.75,3.25-2.28,3.07-3.5,2.76-2,1-3.13.63-.83-.32-.09-.17c4.84.18,11.07-5.79,12.07-10.33l-.31-.16C88.28,105,79.92,112.61,74.06,107h.28l.6.37,2.2.6,1.12.16,1.75-.17,2.27-1,2-1.52,1.91-1.89,2-2.77.66-1.5-.08-.56-.38.2-1.13,2.07-1.53,2.18-2.13,2.17-3,1.72-2.16.5-2.85-.69-2-1-.82-.65-1-1.22-.34-1.88.34-1.88,1-1.46L74.16,98l1.79-.2v.11l1.52.51,1,1.07.29,1-.3,1.53-.94.65H76.32l-.6-.51V101l.59-.67.52-.11.17-.43-.37-.59L75.78,99l-1,.37-1.06.91L73,102.05l.3,1.63,1.2,1.23,1,.58.29-.08v.22l1.71.59,2.05-.32L82,104.49l1.64-1.35,1.72-2.21,1.2-2.42-.39-.32c-4.07,10.49-15,7.79-11.31,2.47l.06.06-.08,1.16.29.75.72.92L77,104h1.45l.65-.16,1.35-.63,1.76-1.6,1.71-2.71,2-5.49,1.54-2.17-.27-.47-.75.51-.75.17-1-.21-.61-.88.1-1,.6-.61H85l2,1,.73,1.09.59,0L88.21,88l.08-.08-.17-.49h-.28l-.55.55-.8.14-.76-.65L84.45,85.6l-1-.78.07-2-.25-1.31-.78-.82-2.12-1.22v-.6l1.81-4.2,3.32-5.45,1.18-1.36,0-.46L86.35,64l0-1.47.25-2.14L87,60l3-.78,5.49-.6Zm60.64-.71.28,1.37,1,2,.12,9.64-.09,5.75-.92,2-.13,0,0-1.23V71.93l-.09-.1-.21-13.68Zm-1-3.65.16.29.11,8.57-.14,0-.33-.65-.51-2.51,0-2.18.23-2.18ZM173.27,54v53.47l-5.05-1.8-.26-38,0,0-.05-6.9-.08-2.37Zm-32.15-.09-.64.45.06.81.61.37.84,0,.4-.61-.13-.45-.58-.53Zm-7.45-.16,0,.65.33.47.19-.1L134,55l.78.86,1.19.56,1.65.44h1.57l1-.19.3-.2-.12-.38h-1.7l0,.15-2.23-.51-1.32-.65L134,53.77Zm20.81-.1.12.11L154.26,55,153.87,57v2.76l.61,3.51-.23.32-.94.49-3.75,2.79-.29-.16.44-3.55L151.09,59l1.6-2.9Zm-30.74-3.3c-.68,1.88,4.19,4.61,5.74,2.76l-.24-.29-1.63,0-1.26-.39-.91-.61L124,50.37Zm11.55-.11-.86.25-.81.61-1.73,1.93.11.4,3-1.18,1.13-1.15-.23-.63Zm-39.5-.08v.12l2.22.05,4.62.67,0-.12.4.2,1.33.26,4,1,6.21,2.15c6.24,3.07,19,8.7,26.14,6.8l.07.28-.67,2.29L140,65.58l-.21.4-.27,2.68-.32.19-3.27.12-3.32-.36L128,67.49l-8.32-3.4,0-.07c-11.63-5.36-20.43-8.11-33.07-4.65l-5.1-6.9.15-.1,1.47-.58,4.09-1,0,.1.83-.26,5.19-.41Zm63.84-.82.09,0-.62,1.76-.71.78-1.28,2.57-.56,2.59V60l.86,3.75-4.83,3.87v.49l1.76,1.79L158,72.76c-2,4.23-1.65,8.26.17,12.46l-.64-.22-1.5-1.3-1-2.82L155,77.64l.21-1.6,1-3.1L155,72.42l-2.12-1.51L150.93,69l-1-1.22.27-.54,2.2-1.85,2.82-1.9c-1.33-3.47-1.13-10.71,2.51-12.85Zm13.64-.11v3.81l-1.81,1.57L167,57.83l.28,25.87.06,11.38,0,10.17h-.44l-2.07-.58-.44-.28,0-15.55L164.05,63l0-6.25,1.3-1.37Zm-50.38-1.72-.89.34-.34.8.33.62,1,.35.68-.27.37-.73-.25-.67Zm9.67-1-.51.28-.33.56L131,52.25l-.19.11-.7-2L129.41,49l-.83-.62h-.53v.12l-.3.18-.14.67.34.94,1,1.15.29-.09-.08.17.23.43,1,1.15.43-.25.09.84.42.05.6-1.78.12-.05,1.32-3.82,0-1.17Zm-18.43-.14-.16.49.27.7,1.09.9,2,1.05,1.28.2,1.18-.11.28-.31-.21-.27-1.27-.11-1.49-.49-1.78-1-.93-1.06ZM93.7,46.28,96.52,48l3,1,2.35.32,2.55.12.08-.16.4.07,2.34-.32,2.17-.59.88.73.43,1,.42.1.23-.42,1.25-.65c3.6,4.1,8,6.56,13.54,6.32l.07.1,2-.21v.11l.34.35.23.73,0,.95.15.21,1.72-.82H132V57l1.77,1.22,2.16.93,2.56.63,2.76.2.1.1-.14.44c-5.22,1.7-13.79-1.19-18.59-3.2-9.85-4.82-20.7-8.43-31.77-7.69v0l-5.35.8-1.41.45-.75.08v.12l-2.17.65-.23,0L78.91,49l-.42-.76h0l4.42.37,2.6-.34,2.79-.85,2.14-1.16h.25l.67.6.34.66.59.24.48-1.11.5-.4ZM89.27,44.2H89L87.65,45l-2.09.45-2.26,0-1.79-.4-1.16-.55H80V45l1.45.75,1.63.46,2.6,0,2.51-.75,1.13-1Zm14.32-.06-.22.52.59,1,.63.47,1.68.76,2.81-.12,1.14-.61-.21-.53L109,46h-2.23l-.83-.24-1.35-.64-.86-1Zm-9.1-.93-.15.25.21.63.85.8,1.59.55,2,.07,1-.19,1-.65-.12-.42-1.45.38-2,0-1.31-.39-1.37-1ZM78,43.19l-.84.61-.07,1,.51.48,1.1,0,.58-.75-.11-.76-.8-.58Zm37.48-.56-.85.12-.59.46-1.64,1.91.26.47,2.64-1.18.61-1Zm-13.35-.94-.83.43-.2,1.16.69.48h.8l.66-.43v-1L102.9,42Zm-7.59-1-.91.76L92.89,43l0,.61h.35l1.73-1.17.52-.76,0-.51-.22-.43Zm17.35-.57-.79.32-.24,1.06.44,3.8-.06,0-1.77-2.81-.77-.32-.71.36v.9L110.6,46l.48.08.17-.5.3.42.44-.13.46-3.32,0-1.85Zm61.43-2.88v11L171.18,50l-7.68,5.93-.24.72.07,6.25-.11.36-.37-.17-1.31-1.16-.81-1.17-.7-1.59-.48-2.06-.14-2.8.3-2.27.73-2.36,1.27-1.79-.46-.28-.66.2-1.24.73-3.18,2.36-2.42,2.36-2.44,3.56L150,59.51a22.59,22.59,0,0,0,1.36,19.63l.25-.14-.12.23,1.17,1.86,1.94,2.33L156,84.74l.28-.08-.11.2L157.51,86l2.25,1.42.7.19.2-.38-.92-3-.17-2.1.22-2.46,1.32-3.24,2.14-2.29.2.33.12,27.43-.14,2.12-1.8-.44-3.91-.7-4.06-.48v.2l-3.34-.16-2.16.12-1-.06v-.39l.9-2.23.33-2.46.06-3.47-1.34-6.18c-4.07-12.37-10.13-16.25-4.58-28.61,5-9.29,12.93-15.12,20.33-21.94Zm-11.73,0-2.89,2.93-6,5.35L148.37,50l-5.63,7.19-1.82.69-2.15.06-2.41-.39-2.62-1-2.19-1.3-.81-1.05-.21-.08-1.73.56-1.18.09-1.7-.32-2.23-.73L122,52.62l-1-1.08c-3.6,1-7.39-2.1-9.22-5l-.28,0-.83.56-2.36.49-3.32.13-1.38-.32L102.56,47l-1-.87h-.48v.08l-1.3.44-2,.06-1-.16-1.62-.5L93,44.62l-.72-.94.21-.92.25-2-.16-1-1.07,0-.33.26.29,3.08h-.11L89.91,41.5l-.79-.25-.6.42.06.68.68.92,2,.9c-1,2.25-5.12,3.25-7.31,3.1l-1.91-.15-1.53-.42-1-.43L79,45.76H78.6l-.67,1.08-.46.12-7-9.68Zm-92.28,0,.56.62,1.63,2.43,4,5.31-.09.08,3.24,4.2-.12.09L81,53.34l-.1.07,5,6.48-.38,2.69v2.06l.4,2.51-.31.66L84.2,69.72l-3,4.8-1.48,3.25-.58,1.86.7.82,1.91,1,.78.78.07,1.26-.35,2.88.37,1.26,1,.8-.38,1.79.47,1.25.9.84.68.26c-1,3.44-2.59,9.59-6.83,10.58l.86-1.38.06-1.87-.42-1-1.14-1.18-2.2-.85h-.87V97c-5.14.87-5.7,7.47-1.06,10.95l-.34.37-5.64,2L69,114.84v3.33l.1.09-.22,1.23L60,123.07l-6.27,3-.61.49-.09.54L52,129c-3.26,7.36-10.55,15.92-17,20.59V37.28ZM34.06,290.34H174.21v-254H34.06Z"/><path class="cls-6" d="M71.29,258.13l-2.16,0v.09l-.84.15,0,1.79-.13.14-.08,2.37h1.67l4.48.16,3.26.6,4.64,1.37,12.89,5.6L99.23,272l3.8,1,.35-.05.2.13,2.26.48,4,.43,5.14,0,4.34-.48,3-.7,2.35-.84.26-.26-3-4.08-3.8.8-5.43.65-4.54-.06-.15-.26-.3.09-.2-.16-.42.19-.53-.22-1,0-1.47-.21v0l-3.79-.8-4.45-1.6L86.4,262l0-.11c-4.73-2.08-9.82-3.84-15-3.69"/><polyline class="cls-6" points="128.24 224.03 127.94 224.05 127.96 224.19 128.25 224.08"/><path class="cls-6" d="M173.27,195.63l-.15.14-8.05,4.9-13.73,7.1-12.49,5.59,0,1.57.08.07.22,1,.64,1,5.36-2.21,0,.11,9.72-4.37,11.46-6.16,6.88-4.17m0-25.54c-8.06,7.75-15.75,16.59-20.39,26.92l-6.5,3.3-4.56,1.92-2.94.93-.34.81,0,2-.11.13.32.07.37-.29,5.11-1.95,5.93-2.74,9.93-5L171.91,194l1.36-1v-4.89l-.89.7-7.78,4.92-2.3,1.27,0-.35,2.27-3.4,3.27-4.23,3-3,2.45-2.18Zm-33-13.78-.26.54-.22,2.06-.27,1.13-.69,5.83-.35,10.33.35.06.28-.27,1-2.3,2.41-4.53,2.07-3.08.36-1-2.47-4.34Z"/><path class="cls-6" d="M38.49,193.65l-.17.35v21.69l.34.32,1,.49.35-.19,8-8.4.09-.36-6.27-8.24m-4.42-10.13,2.28,4.58.4.09-.09.35,2.63,4.06,7.47,9.57-.42.53-8.67,9-.67.41-.55-.09-1.83-1-.57-.55,0-1.19-.07-25.17ZM35,176.41v43l4,1.66.28-.08v.18l3.33,1.17L55.41,208l-5.83-7.45-7.53-11.31-5.16-9Z"/><path class="cls-6" d="M104.72,159.47l.15.12.08,9-.08.08-3.11.07-.09-.11,0-1.86-.13-6.94.17-.17m14.59-6.89h-.87v.11l-7,.23-3.08-.08-8.87.11-1.14,6.59,1.36-.07.11.42,0,8.69-1.84.07H93.53l-1.75,5.72.21.22.3-.12,19.89-.07v-.3l.69-5.5-1.05-.1-1.33.17-.72-.29v-2.34l-.05-.05,0-6.77.37-.17.78,0,.07.08,3.86-.21.18-1,1.5-4.94Z"/><path class="cls-6" d="M68.51,148.44h-.29l-3.3,5.65L63,156.83l0,.7,3.88,7.63.37.19.55-1.49,1.08-6.49,0-1.22m.68-40-.42,0-.45.36-4.86,1.87-6.65,3-10,5L35,133.29v4.87l5.63-3.49,4.46-2.36,0,.34-4.94,6.69-3.33,3.43L35,144.32v6.82c7.34-5.14,16.7-16.77,21.06-24l1.38-1.62,1-.71,2.36-1.11,4.36-1.84,4.6-1.74Zm-1.3-5.73-.73.08L58.87,114l-3.37,1.68-.09,0L41.3,122.75l-5.61,3.13-.7.45V131l6.45-3.89L51,122.08l12.57-6L68,114.34l1.23-.79Z"/><path class="cls-6" d="M168.36,111.29h-.25L159.83,120l0,.14,5.11,7.14,3.7,5.62h.08l.14-1.62,0-5.09,0-8.38-.05-5.63.1-.09-.14-.49m-.07-2.27,1.15.81.12,14.11-.07.06.07,12.76-.15.11A116.07,116.07,0,0,0,158.08,120l7.67-7.78,2.57-2.8Zm-1.9-3.48-4.64,4.72.07.08-8.63,9-.21.39,1.07,1.3,3.92,5.35L167,139.85l6.29,11.51V108.22Z"/><path class="cls-6" d="M95.52,53.26c-3.56,0-9,.46-12,2l.21.58,2.78,4,.49-.16L90.82,59l4.42-.48,3.9-.15,5.49.65,5.42,1.46L114,62.24l9.72,4.14.29-.09v.19c4.94,2.24,10.55,3.57,15.94,2.74l0-1.9.34-2.37-.07-.16c-14.11,2.28-25.22-9.52-38.8-11.08"/><path class="cls-3" d="M37.44,67.4A128.29,128.29,0,0,1,55,92.9,126.93,126.93,0,0,1,72.47,67.4,126.51,126.51,0,0,1,55,41.92a131.51,131.51,0,0,1-16.1,23.92"/><path class="cls-3" d="M135,258.76a128.34,128.34,0,0,1,17.52,25.5A126.89,126.89,0,0,1,170,258.76a126.47,126.47,0,0,1-17.51-25.48,132.07,132.07,0,0,1-16.11,23.92"/><path d="M172.21,38.32v250H36.06v-250H172.21m2-2H34.06v254H174.21v-254Z"/></g></g></svg>