<svg xmlns="http://www.w3.org/2000/svg" viewBox="0 0 208 326"><defs><style>.cls-1{fill:#fff;}.cls-2{fill:#6f7072;}.cls-3{fill:#f8261b;}.cls-4{fill:#facb1b;}.cls-5{fill:#001400;}.cls-6{fill:#1d1d1b;}</style></defs><title>KH-us-2c</title><g id="Calque_2" data-name="Calque 2"><g id="FR_-_EN" data-name="FR - EN"><path class="cls-1" d="M14.83,325A13.84,13.84,0,0,1,1,311.18V14.82A13.84,13.84,0,0,1,14.83,1H193.17A13.84,13.84,0,0,1,207,14.82V311.18A13.84,13.84,0,0,1,193.17,325Z"/><path class="cls-2" d="M193.17,2A12.84,12.84,0,0,1,206,14.82V311.18A12.84,12.84,0,0,1,193.17,324H14.83A12.84,12.84,0,0,1,2,311.18V14.82A12.84,12.84,0,0,1,14.83,2H193.17m0-2H14.83A14.83,14.83,0,0,0,0,14.82V311.18A14.82,14.82,0,0,0,14.83,326H193.17A14.83,14.83,0,0,0,208,311.18V14.82A14.83,14.83,0,0,0,193.17,0Z"/><path class="cls-3" d="M21.42,69.57C24.76,66.77,31.86,56,30.16,51a4.59,4.59,0,0,0-8.74-.47c-1.59-3.57-6.21-4.1-8.25-.65C10,54.79,17.72,65.92,20.8,69"/><path class="cls-3" d="M186.86,69.57C190.2,66.77,197.3,56,195.6,51a4.59,4.59,0,0,0-8.74-.47c-1.59-3.57-6.21-4.1-8.25-.65-3.17,4.89,4.54,16,7.62,19.14"/><path class="cls-3" d="M21.43,254.64c-3.35,2.8-10.45,13.61-8.75,18.56,1.46,4.41,6.85,4.61,8.75.46,1.58,3.58,6.21,4.11,8.24.66,3.18-4.9-4.54-16-7.62-19.14"/><path class="cls-3" d="M186.87,254.64c-3.35,2.8-10.45,13.61-8.75,18.56,1.46,4.41,6.85,4.61,8.75.46,1.58,3.58,6.2,4.11,8.24.66,3.17-4.9-4.54-16-7.62-19.14"/><polyline class="cls-3" points="20.69 25.51 25.86 38.98 22.62 38.98 22.62 42.75 32.4 42.75 32.4 38.98 29.49 38.98 22.95 21.78 28.77 12.03 32.4 12.03 32.4 8.25 22.62 8.25 22.62 12.03 24.79 12.03 16.98 24.94 16.98 12.03 20.21 12.03 20.21 8.25 10.44 8.25 10.44 12.03 13.59 12.03 13.59 38.98 10.44 38.98 10.44 42.75 20.21 42.75 20.21 38.98 16.98 38.98 16.98 31.67"/><polyline class="cls-3" points="186.12 25.51 191.3 38.98 188.06 38.98 188.06 42.75 197.84 42.75 197.84 38.98 194.93 38.98 188.38 21.78 194.21 12.03 197.84 12.03 197.84 8.25 188.06 8.25 188.06 12.03 190.22 12.03 182.41 24.94 182.41 12.03 185.65 12.03 185.65 8.25 175.88 8.25 175.88 12.03 179.03 12.03 179.03 38.98 175.88 38.98 175.88 42.75 185.65 42.75 185.65 38.98 182.41 38.98 182.41 31.67"/><polyline class="cls-3" points="187.6 298.75 182.42 285.27 185.66 285.27 185.66 281.5 175.88 281.5 175.88 285.27 178.79 285.27 185.34 302.48 179.51 312.23 175.88 312.23 175.88 316.01 185.66 316.01 185.66 312.23 183.5 312.23 191.31 299.32 191.31 312.23 188.07 312.23 188.07 316.01 197.84 316.01 197.84 312.23 194.69 312.23 194.69 285.27 197.84 285.27 197.84 281.5 188.07 281.5 188.07 285.27 191.31 285.27 191.31 292.59"/><polyline class="cls-3" points="22.16 298.75 16.99 285.27 20.23 285.27 20.23 281.5 10.44 281.5 10.44 285.27 13.36 285.27 19.9 302.48 14.07 312.23 10.44 312.23 10.44 316.01 20.23 316.01 20.23 312.23 18.06 312.23 25.87 299.32 25.87 312.23 22.63 312.23 22.63 316.01 32.4 316.01 32.4 312.23 29.25 312.23 29.25 285.27 32.4 285.27 32.4 281.5 22.63 281.5 22.63 285.27 25.87 285.27 25.87 292.59"/><path class="cls-3" d="M55.32,89.26c3.39-2.65,5-5.58,7.51-9.07a73.42,73.42,0,0,0,8.6-15.79c1.73-4.19,2.68-8.69,1.59-13.2-3-9-13.86-9.46-17.7-1-3.2-7.33-12.56-8.41-16.68-1.33-2.38,3.66-1.53,10,0,13.88a73.68,73.68,0,0,0,6.9,14C47.91,80,51,85.48,54.07,88.16"/><path class="cls-3" d="M153.23,236.54c-3.39,2.66-5,5.58-7.51,9.08a73.11,73.11,0,0,0-8.6,15.78c-1.73,4.2-2.68,8.7-1.59,13.2,2.95,9,13.86,9.46,17.7,1,3.2,7.33,12.56,8.42,16.68,1.34,2.38-3.66,1.53-10,.05-13.89a73.68,73.68,0,0,0-6.9-14c-2.42-3.29-5.49-8.73-8.58-11.41"/><path class="cls-4" d="M34.48,117.89v4.54l2.16-1.67,12.84-8.93-1.79-2.06-.89-.66-5,3.34-5.3,3.77m-2,42.92v21.32l.42.57.85.72,2.88-3.4L42,174.53l.18-1.29L41,171.86l-4.29-6.07.76-1.25,4.32-5.07v-.28l-3.05.1-1.13,1.38-1.75,2.06-.18-.28.18-3.07-.22-.24-.71.05Zm0-21.41v3.91l4.71-3.38.22-.53.1.2,5.56-4.16,2.62-2.06,1.52-.77L49.9,133l1.32,4.54,0,.67-4.8,5-1.64,2.15.19.39,4.14,4.34,3.1,3.35-1.92,5.16-1.88,4.54-.2.66c3-1.12,7.42-4.65,10.35-6l.52-1.62.62-1.25,1-4,.47-.66,0,3.73.34,1.86a39.24,39.24,0,0,0-9.32,15.62c-3.53,11.7-3.39,16-1.17,28l2.73,3.29.09.42,1,1.16,1.61,1.76-.33-2-.94-2.78,0-.75-.89-3.53-.72-4.21-.46-4.36.13-5.68c.16-6.21,8.13-26.83,13.79-27.72l.19-.86-.38-2.3v-.71l.06-.19v-1l-.2-1.25.33-4.43.61-4.06-.29-.2.11-.34-1.74-1.19-1.42-.77-1.27-.9-.65-.24C61.08,141.23,61,145,61,149.82L58.37,147l-1.07-1-.34-.72,3.9-3.72-.14-.95-2.44-5.22-2.59-5-2.35-1.62,0-.33.8-.53,4.61-2.72,1.36-.91.19-.38-2.13-2.39-1.07.28-2.91,1.76-3.82,2.21-.89.24L47,124.31l.56,1.8.76,1.06-.14.14-3,1.91-3,2.2-1.55,1.29Zm0,58.12v3.67l.84-.09,2.64.06.09.13.94-.24.2.05,4.6.09.19-.18.47.18,2.59-.09-3.25-3.63-7.86-.19Zm1.45-20.22v-5l.2-.47L37.49,172l.85,1.68-.29.57-1.92,2.06Zm7-16.34,0,7.17-.13,2.62.18.63,0,9.46.15,9.56.14,1.09,1.21,1.77,1.6,1.92c0-11.43.61-22.91,0-34.32l-1.22-.05Zm17,18.69-1.12,6.78c-.08,10,2.24,20.56,9.26,28l1.56-3.34,1.32-3.07-.81-1.14-1.78-3.29-2.17-5.22c-1.85-8.85-2-13.76,1.32-22.17l3.15-6.31,2.35-3,3.39-3.29.23-.57-.76-4.75-2-.13c-6.13,4.13-9.3,10.18-12.43,16.73Zm9.32,9.69L68,189.49l1.36,2,2.17,4.3,1.12,5.54c3-10.32,5.48-22,4.33-32.78l-1.88,2.73L73.71,173l-2.64,2.19.29,2L71.12,181l-.89,4.21Z"/><path class="cls-4" d="M34.48,224.67v8.84l1.69,1.09,2.31,2.59.18.14L41,241.49l.56,1.82.42.61.32-.09,2-5,2-4.34.28-.39,1,2.58,2.4,6.6.44.71h.88l.53-1.29,2.39-3.77,2.77-2.35,2.26-.77,2.69-.42,0-1.14.52-2.87,1.09-3.25c-2.69-.17-7.9,1.17-10,3l-.56-1-2-3L49,224.8,46.86,223l-.81.58-2.83,3.06-2.3,2.45-.66-.29"/><path class="cls-4" d="M38.81,244.54l-.15,1,.57,2.15.61-.15,11.85.2,1.37,0,.75-1.62.47-1.73c-4.51.21-9.08.07-13.7.06"/><polyline class="cls-4" points="39.75 248.81 39.41 248.94 39.55 249.32 39.46 249.38 39.89 251.82 40.98 251.67 48.36 251.47 51.74 251.62 52.49 248.94 50.28 248.75 48.78 248.94 48.69 248.81 40.59 248.9"/><path class="cls-4" d="M47.93,280.53l.32,2.06,1.09,1.24,1.65.67,1.88-.24,2-1.72.76-1.47.42-4.21.7-3.3,1-2.53,1.63-2.11-.22-.33-2-1.53-1.41-1.43-.74-1.4-.8-3.68.13-.62,2.64-.61,1.12-.77.67-1.34,0-2.06L58.22,254l-1.36-1-1.55-.33-1.45.33-1.7.9L51,255.44,50.38,258l0,3.68,1.18,5.88.85,5.35-.05,5.59-1.13-.39-1.79.2-1.26,1.2m3.43,9.5-.81,1.1h90.22l-.18-.62L139,287.28l-3.3-5.17-2.63-4.92-.8-.9-.8-.24-.38-.06c-3.32-1-11.5-.16-14.81,1.53L115,277l-2.12-.13-2.54,0-2.49.38-2.21,1.05-2.87-1.19-2.68-.24-2.54.29-1.7.61-2.2-.66-1.23-.28-3.06.09-2.91.91-.89-.67-1.23-.48-3.06-.2-2.21.2-2,.76-1.23-1-.94-.42-1.5-.39-2.82-.53-3.57.09-2.31.53-1.36.81-1,.81-.47.77-3.94,4.6L55,285.41ZM62.09,280l.28-.77.7-.38.76.14.38.63-.2.62-1.08.33Zm4.47-8.51-1,1.05.43.77,4.18.15.85.24,2.53.61,1.84,1.06,1.18,0,1.36-1.67.33,1.63.56.9c5.41-1.83,10.62-1.37,15.9.53L96,275l.47.73L97.64,277,101,276l5.69-.38,2.4.14,2.54.24,2.45.67,1.17,0,1.22-1.86,1.46,1.49.67.23,2.91-1,4.09-1.11,2.54-.24H131l0-.9-2-3.34c-6.68,2.32-15.6,3-22.48,3.44a168.56,168.56,0,0,1-39.13-3.26Zm.14,6.07-.66.24.85-.43,1.32-.29-.19.2-.57.19Zm1.92-.48a8,8,0,0,1,5.61.24l-2.35-.37Zm2.68,4.59v-.43l.62-1,.75-.52,2-.62.85.29-.94,1.29-1.18,1-1.23.33Zm4,3.35-.09-1.34.47-1.86L76.91,279l.52,1-.1,3.11L77,285l-.94.86Zm3.06-3.73-.66-1.38.29-.39,1,.39,2.31,2.06.24,1.09-.81.38-1-.48-.85-.77Zm4.43-3-.33-.15,1.41.3.75.61-.62-.28Zm1.83,3.64.75-.92,1.27-.14.24,1.1-.57.62-.94,0ZM89.7,279l-.18-.06.41-.18h2.3l.71.38-.94-.29ZM91,282.74l.13-.35,1-.9,2.16-1.1.47.38-.93,1.82-1.46,1-1,0Zm4.14.85.18-1.77.51-1.19.53.29.47,1.14.28,3.21-.52,1-.89-.38Zm2-2.15.06-.67.56-.24L99,281l1.41,1.48,0,.72-.42.33-.56.06-1-.63Zm3.44-1.86.52-.15,1.88.05,1.18.43-2.31-.33-.37.14Zm4.65,3.4-.18-.83.32-.52,1.32-.23.44.38.09,1-1,.61Zm3.4-3.31.32-.33,1.65-.57,1.12-.09.85.09,1,.24v.24l-.51-.3h-1.65l-.76.2h-.8Zm3.85,3.35v-1l.24-.33,1.7-1.16,1.21-.38-1.17,2.39-.66.44-.38.09Zm4.33,1.57-.56-1.85,0-2.3.27-.81.67,1.1.51.19.23-.77.62-.39,1.55.82,1,1.53-.38.39-1.21-.24-1.42-1-.37.14.37,1.54,0,1.67-.62.37Zm5.84-6.59h-.29l.9-.28.18.09Zm1.45-.43.43-.2,3,.15-.6.2-1.36-.2Zm4.79,1.68-.14-.87,1.66.19.18.86-.56.39-.67-.1Z"/><path class="cls-4" d="M157,37.27H67.17l5,8.36,2.54,3.88L75.35,51l2.77.66,1.79,0,3.49-.09.18,0,1.89-.18,3.67-.63,1-.33,1.46-.72,1.36.48,4.09.28,3.11-.52,2-.86.47-.15,1.7.92,2.68.52,3.86-.28,1.35-.68,2.59.86,3,.1,2-.19,1.6-.72c3.08,2.06,6.28,1.53,9.64.48l1.32,1.14,3.25,1,3.8.29,2.59-.33,3.15-1,1.23-1.58,3.2-3.49.7-.94L155,40.38l1.64-1.77.46-1.29M77.7,53.23l-.75.14,2.4,4.45,1.88-.29,4.33-1L88.11,56l1.59-.18L91,55.43l5.68-.62.11.1c6.23-.63,14.74-.23,20.88,0l7.76.81,3.47.44,2.55.42,2.26.24,2.54.43,3.24.47.9-.14.61.1,1.59-2.53-.18-.86c-9.62,1.26-9.77-5-12.33-.48l-.42-1.67-.51-.76-4.38,1-.85.13-4.66-.1-4.65-1.19-1.32-.43-1.41,1.92-.47-1.1-1-1L109,51l-2.73.57-3.29.3-5.12-.1L94.31,51,93,50.8l-.66.48-.71,1.28-.27.1-.2-.43L90,51.09,89.08,51l-4.59,1.54-3,.57-1.69.19Zm-.18-4.49V48l.8-.38.8.14L79.35,49l.89.57,2.93.24h.36l1.32-.2.09.11-1.3.28H81.85l-1.32-.24-.29.05-1-.81h-.85Zm7.75.81-.13,0,.33,0Zm1.84-3.63-.18-.8.36-.15,1.51.42,1,.72.38-.09-.52-2.15.52-1.34.93.29.52,1.57,0,2.86-.34.49-.56-1.06-.47-.18-.18.81-.62.38-.94-.38Zm5.36,1.44-.09-.24.9-1.73,1.18-1h.74l.29.27v.87l-.53.72ZM95,48.7l-.62-.38.53.13,2.39,0,1.7-.63h.36l-.89.57L97,48.7l-1.23,0,0-.09Zm5.82-2.92-.09-1,.71-.47.7-.15.66.48v.86l-.56.43-.85.14Zm3,1.86-.38-.24,1.56.29.7.24,1.6-.09-.42.18-1.61-.09L105,48Zm3.75-2.52-.09-.77L108,44l.84.1,1.41,1.14.47.86-.18.86-.62-.09h-.65Zm3.2-1.2.06-1.87.66-.67.6.1.53,1.25-.06,2.9L112.09,47l-.47-.37Zm2.32,2.91.88-1.71.62-.59,1.08-.57.71,0,.38.37-.06,1.06L115,46.5l-1.41.57Zm1.45,1.34,1,.38h1.17l1.7-.14,1.65-.67-.29.28-2,.72-2.3,0Zm5.93-.63-.18-.23.27.2ZM121,46l.18-.62,1-.58.79.39.11.86-.67.57-1,0-.29.33,0-.38Zm2,2.29-.18-.38.43.53,2.3.9,1.27-.09.14.09-2,0L123.85,49Zm3.49-3.1v-.63l.42-.28.9.1,1.12.86,1,1.95-.06.92-1.73-.92Zm4,2.29,0-3.34.81-2.11.7-.14.47.48.19,1.29-.8,3.25L131,48.5Zm2,.87.47-.78.66-.9,1.51-.91,1.18,0,.27.28-.14.91-1.07,1-1.56.51Zm.94,1.81,2.07.52,1.08-.09.06.14,2.15-.19.67.05,2.53-.81.05.15-1.51.51-2.95.43-2.54,0-1.32-.48Zm10.44-1.68-.09-.71.67-.53.89-.09.37.39-.05.9-1,.42Zm5.94,8.89-1.47,1.29.05.15.71.53,2.3,1.91,1.46,2.52.85,3.07-.34,1-1.92.3-1.88,1.32-.52,1.29.05,1.34.38,1.29,1.07,1.1,1.37.53h1.32l1.74-.67,1.23-1.09.92-2.26.47-2.1-.09-3.68L157,63l-1.74-11.52.44-2.1.32.15,1.18.28h.38l1.17-.19L159.93,48,160,46l-.28-.85-1-1-1-.62-1.59-.24-.85.09-1.47.77-1.41,2.48-.47,3-.65,3.07-.14,1Z"/><path class="cls-4" d="M90.55,131.38,88,134.05l.66,2,1.5,5.65c2.66-.12,4.32,1.74,2.4,3.25l.51.33,1,1v.81l-.19.9-1,.81.43.72.13,1-.33.7-1.63,1.4.6,5.58.47,2.54c7.51,0,15,0,22.54,0l0-3.53c-7.54-.32-15,.16-22.58,0l0-1,1.32-1.54,2.39-2.19L97.75,151l10.11-11,4.94-5.16,2.12-2.39.65-.3.33-1.76,0-3.72,1.21-10.09.34-2,2-10.72-1.93-.81-1.41-.51-.09,3-.7,1.43-1.7,1.73-1.51.81-1,.14-2.06,1.82-2.69,3-6.81,7.37-7.06,7.4"/><path class="cls-4" d="M89.14,221.6l-.38,1.54,1.36.85,1.93,1.58.14-.18-.37-1.88.14-1.38.56-1.63,2-1.86,1.12-.53,2.5-.81,1.36-1.38,6.16-6.74,4.23-4.69,2.07-2.34,1.55-1.52.34-.63,5.54-5.82.53-.81-.71-2.93-1.41-4.92-1.79-.15-.61-.13-.76-1.25.1-.9.42-.68L114.07,181l.14-1.39,1-1.14-.47-1.15.38-1.19,1.55-1.06-.28-3.44-.71-4.3c-7.43,0-15-.15-22.43,0l.23,3.29c7.08.58,15.35-.41,21.82.44l-2.77,3-3.85,4.1-6.73,7.5-9.08,9.7-.47.91c-.45,7.12-.84,13.6-2.35,20.69"/><path class="cls-4" d="M130.77,152.36v3.73l.5,3.47,1.8-3.43.32-.39.94-1.23,3.2-3.06-.18-.95-.47-3.12.18-1.81.85-3.4,1.6-3.58.1-1.62-.61-.86L136.79,132l-1.47-4.59L133.77,132l-1.5,6L131,147.1m1,18.4-.27.24.37,2.63.71,2.44,1.41.33c9.42-6.19,14.39-17.6,15.14-28.67.51-11.07-2.12-19.28-9.22-27.48l-2.59,6.3c8.5,10.59,7.65,29.75-1.21,39.91Zm9.22,19.36-.61,2.39,4.47,3.53.94.38,1-3.43.24-1.44.14-2.15.28-.29-.24-.28.09-1,.2-3.62.47-.15,3.06,3.11.18.42-1.36,1.53-2.17,2.2-.29.72,4,9,.62.85,1.36,1,1.13.77.38.76-2.69,1.77L148,203.68l2,2.48,2.44-1.23,5.93-3.59L161,203l-.66-3.05h.09l1.37-1,6.95-5,1.66-1.44,3.1-3v-3.82l-4.65,4-6.77,4.74-2.55,1.71H159l-.24.33-1.36-4.58-.8-1.82.24-.62,6.12-6.12v-.24l1.12-.86V182l-2.86-2.91-5.18-5.4,2.25-5.54,1.08-2.11.8-1.82-.65-.28-4.7,2.63-4,2.15-1.51,1L148,176l-.72,1.2-.37-.58.13-.47-.13-1.38-.05-3.4a38.44,38.44,0,0,0,10.54-19.45c1.46-7,2-17.42-.25-24.19L154,124l-1.47-1.54a53,53,0,0,1,2.41,26.34l-2.17,7L150,162l-3.1,4.92-4,4.83-1.74.67.2.82.09,3.09.09,2ZM158.9,215l-.62.51,2.3,2.45,3.11-1.92,5.36-3.67,3.81-3,.66-.66v-4.06l-5.32,4.12-3.48,2.52Zm3.47-86.71-.47.06,2.82,3.38,3.06,0,1.32,0,4.42-.14v-3.48l-9.69.24ZM162.1,134c.68,11.22-.47,23,0,34.36h3.48c.19-10.06.25-20.55-.1-30.59l-2.77-3.35Zm4,33.6-.28.24.38.71,3.52-.09,2.54-3.36-.09.53.19,1.44v1.34l1.13.09V147.28l-1-1L171,147.72l-1.87,2.39-2.92,3.3.23,1.43,4,4.87,1.27,2-1.47,1.76-3.62,4.16Zm3.35-13.77,1.12-1.58,1.41-1.58.33-.09.09,7.41-.7-1Z"/><polyline class="cls-4" points="145.2 96.77 143.97 99.88 144.41 99.88 144.59 99.69 145.72 99.64 148.64 99.02 150.9 98.26 151.17 98.3 153.76 96.86 154.61 96.77 155.55 98.21 157.96 101.61 160.96 104.9 161.29 104.9 163.93 101.94 166.37 98.78 166.75 98.78 166.75 98.3 169.43 100.36 172.39 102.17 173.52 102.93 173.52 93.81 173.47 93.81 171.5 92.28 169.61 90.23 169.01 89.33 168.39 88.17 166.19 83.59 165.57 83.92 162.42 92.62 162.04 93 162.23 93.52 161.99 93.72 161.71 93.48 159.26 88.26 157.61 83 157.05 83.06 154.32 87.5 151.93 90.13 149.38 91.66 146.09 92.52"/><path class="cls-4" d="M154.19,81.77l-.43.66v.39c5.56-.19,10.21,0,15.76.09l0-.57-.76-2.11L154.9,80"/><polyline class="cls-4" points="155.5 77.95 155.41 78.57 159.5 78.66 162.23 78.76 168.49 78.7 168.11 75.98 167.83 76.03 161.9 75.84 156.16 75.89"/><polyline class="cls-3" points="37.78 149.44 34.48 152.16 34.48 159.53 37.58 159.33 39.46 159.38 47.37 159.23 50.19 158.9 51.51 155.65 52.16 153.59 43.89 145.04 43.55 145.04"/><path class="cls-3" d="M34.48,216.78v3.48l1.4-.09,5.28.29h4.13l1.7,0c6-.43,12.11.17,18.16.05l-.09-.47L61.71,217l-5.79-.15-2,.1-.09,0-1.7.09-3.67-.15H43.22l-.32.1"/><path class="cls-3" d="M45.9,183.9l0,9.56,2.68,3.44L51,199.49l-.2-.83L49.53,192v-5.45l-.19-1.42,1.14-8.09,2.06-6.69,1.5-3,.24-.67,1.37-2.53.47-1.58-1.55,1.06-3,2.67-2.17,2.57-3.2,4.32-.09,6.68m1.08,16.39-.32.48h.41Zm14.35-23.84L53,178.5l.09.44,2.55,4.43,2.25,3.49.05.53L52.78,196l.14.76,2,1.25,5.5,3.15.9,1.1-.43,8.6.2,2,.51.54,5.69,1.48.85-1.58c-7.72-8.58-10.61-20.8-8.89-32.11l.43-2.21.7-2.15.75-1.72.9-2.81,2.21-4.4L67,164l2.73-3.49,3.57-3.4v-.33l-.42-.15-.24.06-3.47-1-.29.87-.19,3-.37,1.62-.61,0L64,162.3l-2.53.52-1.18.53-.29,0-.83.38Zm3.71,9.89c-1.88,7.1.85,19.26,5.36,24.76l1.6-3.92-.28-.91-1.79-3.39-1.36-4.15L68,191.3l.13-.76C66.84,182.85,71,171.32,77,166.22l-.33-2.54-.42-1.62c-6.83,5.57-9.1,11.24-11.1,19.54Z"/><polyline class="cls-3" points="54.47 129.69 54 130.08 56.72 132.04 63.78 137.54 68.35 141.03 71.3 140.26 69.47 136.77 66.23 131.47 62.04 125.98"/><path class="cls-3" d="M67.59,269.45l-.23.48.32.47,3.68.81,1.46.19,3.29.77,6.59.77.18.09,4.32.34h.85l2.12.23,3.2.24,1.5.06a152.11,152.11,0,0,0,19-.77l1.32-.19h.66l3.67-.53,4.56-.77,3.38-.52.2-.29h.42l.61-.72.14-.48-1.08-2.15-1.13-.51a148.71,148.71,0,0,1-22.44,2.66l-5.12.15-5.32-.19-4.71-.24,0-.05-10.87-1.14-8.05-1.39-1,.05"/><path class="cls-3" d="M79.17,57.91l0,.15,2.11,3.82a136.28,136.28,0,0,1,20.56-2.81c11.91-1,25.22.45,37.11,2.48l.51-1.15,1.27-2v-.91l-.32-.13-3.86-.83-.38,0,.56-.29-1,.09.33.15-.28.09-8.61-1.29h-.38l-2.82-.51L120,54.29a44.3,44.3,0,0,1-8.05-.72l.19.33-5.31.1-.85-.06-1.79.06-2.63.18-4.14.2-.85-.05-.85.05-2.21-.09-.61.19.1.43c-3.65.34-10.88,1.45-13.78,2.62l.33.2"/><path class="cls-3" d="M79,111.35l.38,1.29,1.88,3.73,2.41-.43,2.62-.86,2.68-1,1.14-.53,3.57-2,.9-.23.41.47,4,3,3.24,1.28,1.42.19,1.22.29,1.6-1.63,1.41-1.91-1.09.29-1.88,0-3-.77-2.68-2-3.58-3.53-.9-1.34-.6-.52c-4.93,2.38-7.21,4.61-12.9,5.39m2.87,6.12-2.31.62.43.87,5.7,14.67L88,134.2h.28l.7-.92,5.5-5.87,8.85-9.08.65-1-1-.2-3.47-1.05-3.06-1.62-2.41-2h-.27l-3.2,1.88-4.38,1.71Z"/><path class="cls-3" d="M96.61,161.05l-3.85.15L93,164l-.14.48.32,3.2,2.17.24,10.91-.13,1-.11,7.38.11.85-.2-.42-2.87-.24-3.44-.23-.18h-.8l-4.65-.15c-3.77.11-7.57.19-11.34,0m-1.65,3.24-.09-.57.71-.72.79.3-.09,1.23-.81.29Zm6.59-.18-.09-.81.47-.24.74.13.15,1-.38.43-.51,0Zm6.86-.06.14-.61.47-.29.47-.05.47.71-.27.63-.85.09Z"/><path class="cls-3" d="M92.76,188.35l-.53,4.1h.44l.27-.37,12-12.72,2.79-3.16,1.83-2.43-.19-.57-14.81-.29-1.27.09,0,1,.09,2.1.14.14,1.27,0,7.49.11-.53.81-2.91,3.16-6.17,7.11m.76-10.18-.65,8.27h.45l4.76-5.2,2.26-2.68-.33-.77-5.93.09Z"/><path class="cls-3" d="M115.43,135.58l-18.3,19.17.29.53,2.3.22,15.14-.09v-2.87l-1.37.11-2.39-.05-.23.05-5.74-.05.8-.91,5.12-5.51,4.14-4.05.33-4.26m-6.44,11.29-2.16,2,.09.53.65.33,3.48,0,2.84,0,.88-.18-.09-2.39.38-6.07-.48,0Z"/><path class="cls-3" d="M101.93,213.72l-1,1.1.14.24,2.26.62,4.18,1.67,3.53,2.1,3.44,3.44,2.48-1.72,3.62-2.14,2.83-1.2,5.36-1.91-1.09-2.78L127,213l-4,.53-4.32,1.82-4.19,2.58c-3.23-2.67-7-5.12-11-6.13m2.21-2.76-1.46,1.66,1.88.63,2.87,1.3,2.77,1.9,2.7,2.05c4.06-2.85,7.73-4.71,12.83-4.78v-.37L124.41,205l-3.67-10.27-.41-.91-1.18,1.2-2.46,2.24-4.23,4.63Z"/><path class="cls-3" d="M134.8,158.81l-3.33,3.34.09,1,.47,2.48c10.46-8.56,14.13-22.41,10.21-35.31l-1.83-4.54L138.24,122l-.65.23L136.45,125c5.47,10.27,6.06,20.79.2,31m-1.89,15.26,1.56.47,1.08.19,2,.53.62-5.5,7.81-2.15,1.36-.53-1-3.86-1.36-4.78,2.73-2,.61-.33,4.8-3.49v-.47L150.28,141l.1-.47,2.06-3.4,3-5.08-.09-.9-7.95-4.68-.56-.19c5.63,14.24,2.53,28.71-7.3,40.09Zm5.92-57-.51,1.19.94,1.1,3.15,4.73,2.59,4.87.14-2.28.15-6.79-.29-1.82-.8-.23-2.35-.83-2.73-.7ZM152.21,165l-.42.62.79-.29,3.06-2.81,2.82-3,.11-.24,3.66-4.5.09-2.14-.09-10,.09-6.93.1-1.48-3.43-4.4-1.6-1.58c2.38,9.2,1.6,22.42-2.31,30.88Z"/><polyline class="cls-3" points="137.49 187.67 137.35 188.11 140.88 194.27 144.46 199.67 146.2 201.77 146.66 201.77 149.72 200.06 150.94 199.58 153.72 197.85 153.53 197.28 149.95 194.65 143.03 189.25 141.96 188.11 141.62 188.11 140.82 187.43 140.35 187.25 139.84 187.1 137.86 187.3 137.49 187.48"/><path class="cls-3" d="M144.5,107.71l-.24.24,1.37,2,1.4,1.47,4-.14,3.2.1,19.29-.05v-3.77c-9.67,0-19.29.23-28.93-.2"/><polyline class="cls-3" points="157.34 172.1 156.44 174.05 156.87 174.86 164.3 182.89 164.58 182.89 166.55 181.37 169.57 179.21 171.22 177.93 173.52 175.92 173.52 168.61 169.9 168.7 168.63 168.7 167.4 168.65 162.37 168.61 160.67 168.75 159.46 168.61 158.61 168.88"/><path class="cls-5" d="M84.54,242.13c3.46,7,7.44,15.55,6.39,23.59l-.85-.09c0-14.19-7.18-20.32-10.44-32.8l.09-.09-.47-3.82.42-2.1L81,224l1.5-1.47,1-.63,1.27.43c-4.88,2.39-4.87,9.35-2.92,13.71m4.71,8.59-2.59-5.28-1.59-4.25-1-4.31.1-2.19.23-1.2,1.22-2.48,2.11-1.49,1.47-.53.56.25,0,.28-1,.15-1.69,1-.9,1.28-.94,2.73v1.91l.81,4,1.74,4.15,1.88,3.88,1.36,2.67,2.3,6.12,2.13,7.59.74,5.5-.29,1.52-1.45-.18v-5l-.94-5.16L89.08,250Zm5,2.41,1.71,4.3L94.26,255l.67,3,.56,2.76.14,5.07-.23.24-1.32-.2c.13-7.45-2.46-15.22-5.61-21.87-2-4.51-8-13.48-3.89-18.31,7.47-6.55,12.61,8.69,3.62,7.59L87,232.21l-.8-1.48.24-1.48,1.21-1,.15.15-.28.48,0,1.14.29.82.94.72,1.79-.2,1-1.05.22-1.52-.65-1.59-1.55-1.47-.85-.29-2.45.33-1.5,1.82-.52,1.73.14,1.47,1.14,3.49,2,4L90,243.6Zm.32-.87-1.37-3.25-.29-.76-2.92-5.92-.14-.14.14-.15,2.45,4.35,2.54,3.4,1.09,1.2.18-.83-2.35-2.9-2.17-3.49-1.78-4,.37-.15.61,1.25,1,1.73L91,239.14l2.77,3.12.47.18,0-.53L92.61,240l-2.3-3.1-1.51-2.63,1-.06L91.06,236l3.43,4,1.32.92-.28-.77-3.77-4.4-.94-1.81,1.18-.39,3.25,4.12,1.27,1,.09-.57-1.08-1.15-3-4,.71-.82,2.48,2.68.76,1,1.41,1.3.38-.23L96.7,235l-3-3.73.14-1.2.23-.18,2.64,3L98.21,235l.57.35.09-.58-1.74-2.16-3.52-4.43.09-.38,1.26.56,2.21,2.16,2.08,2.57.89.72.09-.81-3.85-4.45,1.17-.42,1.56,1.52L100.9,232l.89.68,0,.29.28,0-.05-.48-.56-1.19-3.25-3.53.9-.72,2.15,1.91,1.94,2.48.42-.24-.33-1.19-4.09-3.88.33-.81.7.2,2.12,1.57,1.83,2.35,1,.9.2-.62-.89-1.44-3.16-2.9-2.16-1-.2-.81h1.18l1.84,1,3.24,2.91.9,1.25.71,1.58.56.14.09-.77-.47-1.1-1.23-1.62-2.76-2.63-1.18-.57-.8-.57-1.32-.34-1.32,0-1.32-.62.38-.24,3.11,0,2.07.57,1.75,1.19,3.42,3.72,1.08,2.88h.42l.11-1.25-.72-1.63-1.31-1.71L104.75,223l-1.36-1c-3.8-1.32-6-1.59-8.9,1.34.2-3.77,5.83-3.91,8.47-3l2.44,1.1,1,.81,2.35,2.59.94,1.62,1,3,.47.28c.53-7.75-13.44-15.63-17.64-7.17l.24,2L95,226l.89.24.2-.57-.76-1.09.29-1,.89-.52,1.08.09.8.9.19,1.78-.33.87-1.08.75-1.37.24-1.17-.14-1.31-1.24-.9-1.67-.33-2c.76-3.83,3.89-4.66,7.15-5.11,7.55-.7,13.13,5.06,13.87,12.52l.67-.15,1.32-3,2.06-2.73L116,228l.1,1.16.51.18c.59-4,1.85-7.09,5.79-8.65l-.71.81-1.88,3.25-1.21,3.49.13,1.73.38-.24,1.17-4.36,1.7-3,2.3-2.15,1.32-.57-.94,1.1L123,222.76l-1.22,2.81-1,4,.2,1,.37.23c.55-5.58,3.67-12.86,10.4-12,5.76.31,8.82,8.34,2.68,10.47l-2.17-.15-1.22-.62-1-1.53-.33-.91.13-1.42.34-.77,1.51-.92,1.08.25.51.81V225l-.33.33-1.17.3.23,1,1.23.85,1.4-.09.76-.67.52-.95.29-2.06-.53-1.47-1.22-1.2-2-1.06-1,0c-5.1-.39-7.66,4.26-8.23,8.79-.24,7.39,3.45,16.88,1.92,25.14-4.83-2.42-4.9-1.72-9-.29l.8-1.29,1.37-1.67.94-.9v-.53h-.33l-1.69,1.67-.29.15,2.83-7.23-.61-.62-1.37-.81-1.27-.53-2.77-2.1-.43.24,1.55,1.67,3.73,2.48-.15,1.29-1.13,2.11-2.3,6.26.09,3.87-.18,1.11-1.38,2.48.24.29.33-.09,2.31-.06,3.1,1.05,2.07-.14.75-.28.52-.06,2.12-2.15-.29,3c-9,2.87-18.82,3.19-28.12,3.34l-.19-.86v-2.48l0-.81-.9-5.31L94,251.47Zm81.36-36.69v-1.1L168.67,212l-4.89,3.4-3.2,2.1-1.45-1.59-.14-.18.75-.44,8.46-5.77,3-2.35,1.92-1.44v-1.32l-.71.66-4.51,3.59-9.08,6.12-.61.23-3.53-3.87-4-4.73c2.77-1.38,5.16-3.4,8-4.59l1.83,1.48.9-.05v-.57l-.76-1.82,0-.57,4.33-3,8-6.4.13-.15v-1.1l-1.51,1.34-4.5,3.59-6.78,4.83-.42-.24-.47-1.91,3.29-2.21,8.85-6.87,1.54-1.16v-12.7l-.75.57-1.64,0-.29,0-.18.28-.24-.24-.89-.09-2.74,0-2.92,0-3,0h-2.73l-1-.92.38-.67c5.29-.12,10.75-.17,16-.09v-.67c-5.26-.12-10.56.14-15.8-.15l.71-1.71h2.2l2.92-.09h10v-.81l-2.45.09-7.23-.06-.44.06h-4.65l.57-1,2.49-.14h11.71v-8.27l-.09-.1.09-.09v-14.1l-15.47-18.69-8-9.56-3.9-4.83-2.87-3.44V109l.71-1.34,2.11-.15,1.74.15,13,0,2.15-.09.11.14c3.05-.29,7.22.14,10.48.15v-1.1L170,107l-5.27,0-2.31,0-.79-.18.52-.39L166,102l1.55-1.48,1.36,1,2.73,1.77,1.05.77.46.14v-2.92l-.85-.38-4.18-3.06-1.09-1-2.15,2.66-3.82,4-2.21-2.33-2.11-2.92-1.36-2.58-.52-.39a20.4,20.4,0,0,1-9.7,3.3l.09-.72.52-.76h1.18l2.88-.53,3-1.14,2.31-2,.42-.19,1.27,3.05,1.88,2.92,1.83,1.92,1,.33,1.5-1.38,1.52-1.64,1.69-2.86.57-.63,2.25,2.25,4.09,2.92V99l-1.41-.72-2.36-1.91-2.62-2.87-.29,0L164.58,97l-3.06,3.44h-.38L159.55,99l-2-3.16-1.59-4.07-2.59,2.15-1.61,1-.93.38-2.31.63-2.11.33-.53-.24.44-1.15,1.92-.19,3-1.05L154,91.71l2.54-2.53.71,2.43,1.88,3.87,1.74,2.3.8.28,1-.86,1.74-2.34,2-4.25.76,1,3.29,3.69,2.72,2.1v-.91h-.09l-3.53-3.16-2.86-4.15-.67-.59L165.34,91l-1.74,3.69L162,96.73l-.61.43L159.69,95l-1.79-3.86-.9-3.73-.42,0c-1.64,3.29-6.63,6.84-10.29,6.5l0-1.25,2-.33,1.5-.52,2.12-1.1,2.59-2.35,2.73-4.34.47,1.57,1.64,5,1.65,3.09.62.49.84-.73,2-3.91,1.59-4.88.9,2.54,1.78,3.4L170,91.81l3.15,2.76v-3.2l-1.88-4.1-1.83-6.8-.67-4.87V72.83l1.05-4.07.37-3.48,1.13-.34.85-.61.61-1.49V61.11l-.43-1.23-1.41-1.34-.71-.24-.65-1.38-.7-.77-2.55-1.62-1.83-.2-1-.66-.88-.19-1.56.09L160,53l-2-.06-.8.48-1.09-.52-.37-.62.09-2.77.8.47,1.89.06.93-.59.81-1.52.09-1.62-.52-1.67-1.13-1.05-1.36-.63-2.07.05-1.23.43L153,44.59l-.88,1.76L151,52.62l-.51.18-4.94,0-.94-.23c3.47-5.82,8.9-9.87,13.17-14.87h-1.27l0,.15-6.15,6.25-3.73,4.16L145,50.51l-.85.38-3.06.86-4.1.1-2.25-.43-2.11-.68-1.42-1.23-1.08.28-2.3.53h-3l-2.21-.42-1.05-1c-3.95,2-6,1.06-9.59.09l-.61.33-2.07.43-3,.11-2.08-.44-1.54-1.14-1.79,1-3,.66H94l-2.58-.66-.89.63-2.26.51L85.18,51,83,51.22,77.7,51l-.32.05L77,50.94l-1.22-.29-.8-1.29-7-11.67.1,0H66.6C71,44.5,79.29,57.85,82.08,64.18L81,66.57l-.43,2.63-.24,4.1-.61-.47L78,72.6l-1.12.75-.62,1.11.29,2,1,1.1,1,.33,1.68-.24-.14.77.42,6.88,0,3-.15,2.21-.65,1.85-1.27,1.49L77,94.38l-1.18-.14-.6-.63c2.89.74,3.89-.71,3.29-3.48l-1.22-1.24-1.79-.39-1.42.24-1.35,1-1.09,2.39.15,2,1,2-4.27,1.52-3,1.25-8,3.63-6,3.25-5.23,3L38,114.6l-2.82,2.3-.34.14v1.38H35l6.21-4.87L47,109.73l.51.14,1,1.2-.1.42-3,1.86-5.79,3.92L35,120.85h-.14v1.68l.2-.43,3.85-3L44,115.7l2.16-1.58L49,112.36l.38-.2,3.53,3.58,4.61,5.17L50,125.41h-.47l-1.08-.77-1.13-.87-.7.44.89,1.9.18,1-1.92,1.15L43.46,130l-.71.28-7.9,6.21v1.34L39,134.24l8.7-6.16.51.18.47,1.78-5.78,4.06-8.09,6.26v12.75l0-.09,1.18-.72.94.06,10.06.14.05-.14.33.09.32.05,3,.1.67.75-.2.77L37.16,154,34.85,154v.86H42l7.15-.05,1.79.1-.62,1.77-1.12,0-10.17,0-4.19-.09v1c4.91-.1,10.08,0,15,0l-.47.81-1,.11-2.12-.06-.65.06-4.56.09-5.23-.15-.89.06-.1-.11L35,171l-.05.28L35,174l-.09,5.35,0-.19v1.82l18.21,22,10.06,12.15,2.07,3-.09,1.29c-1.68.58-7.26.1-9.45.24-6.94,0-13.87.1-20.8.05v1.1l1.28-.05,5.92.05,4.19-.14-.14.23-3.2,3.24-1.47,1.78-.88.81-1.51-1-4.19-3.35v3.54l2,1.2,3.91,3.15.71-.19,1.64-2.24,3.58-3.64.71.33,1.54,1.3,2.55,3.39,1.32,2.53.51.33,1.13-.86,3-1.34,2.87-1,2.49-.23,0,.62-.53.86-3.38.44-1.32.28-2.3,1-2.73,2.06-.89-2.16-1.88-3.25-2.64-2.72-.52,0-1.5,1.2-2,2.33-1.41,2.54-.42.42-2.82-2.72-3.58-2.48v1.23l1.79,1,2.55,2.06,1.92,2.44.65-.3,1.32-2.57,1-1.39,1.83-2.1,1-.62.52.38,2.06,2.43,1.88,3.4.71,2.35h.38l2.06-1.82,2-1.3,3.43-1.05,2.12-.09-.18,1.43-2.07.2-2.78.85-3.53,2.54-1.88,2.15-.56-2-1.14-2.84-1.27-2.14-1.64-2-.53-.14-1.82,1.72-1.18,1.91L42,236l-.38.68-1.05-1.44-2.62-3-3.11-2.5v.91l2.55,2.16,1.73,1.91,2.3,3.49.67.43.94-3.17,1.6-3.19L46,230.64l.75-.53,1.18,1.34,1.64,3.11,1.64,5.5.39-.15,1.36-2.1,2-1.91,2.77-1.58,2.17-.77,1.87-.24-.09,1.4c-5.5.41-8.67,4-10.86,8.84l-1.08-3.79-1.94-4.82-.92-1.53-.62-.14-.7.57L44,236.75l-2.12,5.84-.83-2.44-1.56-2.92-2.06-2.39-2.6-2.34v3.2l1.32,3.11,2.06,6.41.49,3.05.41,3.49-.14.39.2.66v2l-.85,3.15-.67,4.35-1.59.57-1,2,.22,2.49,1.28,1.52,1.18.43.51,1.39,1.93,1.62,1.17.72.85.2h.84l.62.19,1.31.76,1.56-.14,1.55.66,1.65.05,1.12-.47,1.13.71,0,3.11-1.14-.44-1.54.06-1.23,1-.7,1.67.18,1.47.61,1.34,1.18,1.2,1.32.38,2-.09,1.28-.57L55,283l1-2.11,1.12-6.07,1.55-.19,4.62.19.14.29A82.52,82.52,0,0,1,49.9,289.76h1.52c3.59-3.66,8.54-8.56,11.7-13a16.09,16.09,0,0,1,12.23-.09L76.62,278h.61l1-.53,1.22-.28,4.47,0,1.56.48.42.57.61.2.61-.39,1.27-.44,1.65-.24,3,.11,2.3.86a12.5,12.5,0,0,1,8.14-.49l1.78,1.06.81-.29,1-.57,2.82-.72,4,.1,2.54.53.89-.53,4.19-1,.94,0,2.16-.33,4.7,0,3,.57,1.46,2.53,2.82,4.78,3.58,5.26.09.53h1.41l-2.06-3.11-3.25-5-4.09-7.17-1.74-2.92-4.61-8.32.14-.58.61-1,.71-2,0-1.38.14-.05-.09-1.92.47-2.48.51.48,1.61.24,1.17-.81.52-1.29-.19-1.82-.79-.95-1-.39h-2.11l.18-1.71-.47-7.61.23-3.14.53-1.92,1.21-1.57,1.28-.67,1.83.09.47.33-.09.39-.47-.39-1.7.15-.79.63-.57,1.52.33,1.67,1.65,1.29,1.08,0,1.69-.33,1.22-.9.91-1.67.13-2.73-.71-1.43-.38-.63a116.91,116.91,0,0,0,34.25-18.45ZM34.85,184.29v1.81l.38.47,4.43,5.07,1.12,1.58,1.59,1.86-1.54.2-1-.06-3.38.1-1.61-.15v1.06l.38,0,5.17-.24,1.5.09,1.23,0,1.27,1.33.61,1c-3.48,0-6.69.12-10.16,0v19.21c9.06-.08,18.18,0,27.24.05l.09-.33L47.37,199.34l-4.85-5.74-2.63-3.49-.61-.53Zm1-19.65,0-1.24.47-.38L39,159.67h1l.15.28-4.05,4.89Zm.15,4-.1-1.86.2-.15,1,1.16,3.11,4,.8,1.28.23.68-2.49,3.15L36.13,180,36,179l.18-1.1,3.11-3.83.27-.81Zm.57-17,.85-.77.84-.52,4.52,0,1.5-.13,4.51.28.9,1.15-4.85.1-1-.1Zm-.1,29.72.84-1.19,2.26-2.54,2-2.53.71-.61v2.15l-2.83,3.49-1.28,1.23,1.57,2.21,2.48,3.73v1Zm.7-15.57-.09-.53,4.7-5.55h.71L42.43,161l-1.88,2.53L39,165.26l-.14.86,3.52,4.73v1.67l-2.29-2.9-1.32-1.88Zm1.88-16.3,1.7-1.16.14-.18,5.79.29.84.81v.43l-4.27,0-2.21,0ZM36.73,267.68l.24,0,.48-.18-.05.81Zm.76-4.06-.71-.05.89-.29ZM37.34,267l-.28-.68.14-1.2.29-.47Zm.95,0v-1.28l.52-.87.7.2-.23,2.19-.29.11Zm.52,2.69-.29-1.4.61-.13.19.13L40,271l-.52-.15Zm-.15-8.75.24-1.77.29-1.38,1.21-2.35,2.35-2.39-.09-.53-.51.11-2,1.91-.24-2,.19-.52c3.65-.17,7.25-.12,11,.06l-.94,4.67-.24,1.43L49.77,261l-1-.1-4.56.1-.56-.29.52-2.87,1.26-2.57.24-1-.8.47-1,1.68-.71,2.24-.85,2.45Zm.8-14.25-.33-1.23.28-.2,3.31,0,4.41.09,2.35-.05h3.3l.65.14-.65,1.44c-4.07.39-8.15-.41-12.2,0Zm4.85-99.11-2.21-.2,1.45-1.24.76-.33,1,1.14.25.53ZM39.08,264.19,38.9,264l.8-.62.43.14-.38.87Zm.76-13.43-.09-1.2.27-.13,10.82.09,1,.19-.47,1.38-3.47,0-3.58,0H40.17ZM40.69,268h-.52v-2.15l.52-1.28.29.18.88.29.38-.38-.05,3.68L41,268.29Zm-.29,1.62-.09-.95.38.2.8.28.85-.43.51,3.73-1-.09-.56-.63Zm3.06-101,0-7.64.13-1.3,2-.09V173.9l-.11,2.74,0,14.91-.19.27-1.45-1.67-.24-.52-.23-6.54.14-.68-.05-11.56ZM40.78,264l.71-.83.37-.14.75.24-.37,1.19-.28-.19Zm1.08-.54-.23.3h.27Zm3.48-118.14c9-11.33,8.37-2.18,3.48-18.5l1.17.77c5.82,15.46,5.28,8.4-2,17.39l.18.38,5.09,5.41,1.22,1.58-2.69,7.07-1.17,2.25-1.4,1h-.43l3.56-8.31,0-1.52Zm-2.4,122.26.1-2.83.18-.29.62.53h1v-.72h-.76l-.65-.62.42-.38.8-.14.65.52L45,264.81l.33,4.73.85,3.78-1.18-.1-.7-.43-.71-1.34L43,268.64l.14-.29,1.41.33.38-.39-.09-.42-.61.05ZM48,109.14l5.59-3.38,2.12-1.1,1,1,.62,2.62-.24,1.49.9.9.42-1.71.8,1.09,1,1.58.47.09L61,111l-1.47-2.81,1.92,1,.53-.06-.09-.7L60.77,108l-3.06-2.58-1.12-1.28,4.13-2-.14.48.19,1,.71.9L63.59,106l1.79.77.71-.2v-5.35l-.56-.91-.11-.33,1.43-.62,1.5-.57L71,97.58l1-.14-.38.19-1.36,1.62-.85,2.83v.85l.89,2.59,1.41,1.62,1.79,1.25,1.22.48,2.22.42,2.06,3.4,1.18,3,3.06,6.79,1.69,4.39L88.71,138l.85,3.38-2.59.3-2-.06.61-.37,1.32-1.49.42-1.81-.42-.61-3.91.22-.23-.09.09-.9-1.65-4-.47-.67-.65.39.23,1-.52-.44-.47-.09-.89.71.19,1,.7.71,1.18-.33.14-1,1,2.39.53,1.34h-4l-2.83.48-3.15,1-.9.14C65.42,127.74,59.83,121.47,51,112.3Zm-1.66,68.55.29-3.59,3.58-4.83,3.67-4.06.13.2-1.26,2.91-2.26,6.83-1.27,7,0,1.68-.25,1.1.14,6.49.76,4.69L50,197.8l-3.62-4.49Zm-.51,89.66.1-2.26.14-.13,1,.28.65-.62.29,1.1.29,2.57-1.18.5-1,.8-.29-2.24.53.47L47,268l.79-.19.29-.62-.23-.14h-.29l-.37.24-.85-.24ZM49.16,145l6.2-6-3.94-10.4,1.26.75,2.87,6.36,1.5,4-.93,1.1L54,143.13h-.33l-1.46,1.58.15.38,2.44,2.78,2.82,3-.18.77-3,7.83-.8.48-1.28.57,3.07-7.78,0-1-3-3.1ZM46.24,264l.62-.44h.56l.27.3-.18.33-.52.29Zm1.69-43.11.14-.19.85-.15,11.38.11,3-.2,1.31.2-1.13,4.54-.66.52-4.28.8L54,228.16l-.38-.49-1.46-2.1-3.06-3.2Zm2.59-94.58,1.08-.67.42-.33,5.69-3.3.62-.1.7.67.37.82-6,3.48-1.45.73ZM46.71,271.07l0-.72.8-.81,1.23-.48,2.17.1.27.43.61,4.07-2.26-.83.57-2-.42-.53-2-.52-.18.19.27.38.67.24.76.39L49,272.26Zm.56,2.11-.37-.87.28-.09,2.21,1.38-.14.24-1,0Zm2.87-89.09.9-6.31.52-2.43,2-6.08,2.35-4.93,3.44-5.53,1.12-1.25,1.32-.48,1-.33.85-.05C56.76,164,53.19,173.88,52,183.81l0,.95V190l.14,1.25.85,5.82,1.69,6,0,.63-3-3.49-1-4.49L50,188.39Zm-2,97,.24-1.28.19-.43,1.51-1,1.12.19.61.86.62.33.42-.9.05-4.83-2.26-13,.09-2.53.56-2.39,1.23-1.92,1.32-.8,1.83-.3,1.41.53.9,1,.37,1.34-.24,1.67-1.21,1.25-1.05,0-1.27-.76-.36,0-.38.72V261l.47,2.25,1.41,3.05L58.65,269l-1,1.06-1.13,2.63-1.18,7.59-.61,1.64-1.36,1.47-1.27.68-2.17-.29-1.12-1ZM53.48,145l-.14-.28,2.49-2.2,2.26-2.39-.23-1.44-3.26-7.59,1.52,1.19L60,141l-1.54,1.43-2.73,2.3.13.57,2.5,2.59.57.46,1.41,1.88-.66,2.09L57.39,158l-1.47.77h-.09l2.79-7.52-.11-.7L55.27,147Zm-.29,42.4.29-1.29.38-.49,1-.13,1,.81-.09,1.14L55,188l-.91.24Zm-1.54,66.23c1.29-6.08,4.77-14.21,9.92-17.92.21,8.14,5.81,16.26,8,23.57l-4.38.14L58,259.36l-.1-.33.19.05,1-1.91.06-1.88-.71-1.47-1.08-.95L56,252.24l-1.83,0-1.74.87Zm4.13-123.39.67-.48,4.27-2.44,1.61-.61,4.13,6,3.39,5.73.38,1.16-1.93.24L65.89,138l-7-5.21ZM53.91,195.9l.37-.77,1.7-2.77,2.24-3.92.53,5L60,198.86l.1,1-1.42-.92-1.35-.66Zm.46-17.31.2-.28L60,174.25l.53-.24L60,175.92l-1.17,5.3-.56,3.87Zm2.31-7.74.66-1.14.75-.39.94.33.28,1.11,0,.33-.74.95-1,.15Zm-2.08,90,.06-.67,7.61,0,1.42-.05,6.2.24.34.95-.34.24-2-.09-3.11,0-1.7-.13-3.19.09H55Zm.44,1.63.14-.24.47-.15,4.7-.05,10.06.2.06.76-5.79.14-.9-.33-.71.43-7.62-.1ZM57,204.73v-1l.52-.86.85-.42.51.09.81.86-.11,1.24-.74.82-1,0ZM60.25,114l-.75.86.15,1.38.79,1,0,.53.53-.24.18.24,2,.77.83.37,1.7.35.33-.35,0-.85.18-.53-.09-3.64-.42-1.08-1-.78h-.85l-.66.24-.75,1.25.05.61-.15.11-.85-.44Zm-4,151-.52-1,6.59.1v.29l-.8.62L60.35,265H57.71Zm.51.86.09-.09.53-.14,3.76.14-1.08,1h-2.5Zm2.68-76.08c-.83-8,2.07-17.87,6.64-24.37l2.21-3,3.62-3.79,2.2-1.82.76-.09.42.39.1,1.14a37.87,37.87,0,0,0-13.69,24.28l-.32,4.21.09,3.34,1,6.16,1,3.55,2.35,5.44,2.87,4.54-.1.44-.79,1.56-1.41-2.05-2.17-3.29-2.59-5.74-1.45-5.2ZM57.1,273.94l.71-2.06.75-1.48.94-.66.75-.92-1.36-1,.14-.28h1.22l2.55,2.62,1.41,1,3.85-3.62-.94,1.86-2.91,4.49-1,.19Zm3.15-109.87,1.28-.58.8-.09L67,162l.09.2-2,2.85-3,5.16L62,170Zm2.55-62.43-.8-.13,1.18-.58v.77Zm-1.09,47.28.24-5,.14-1.86.94-4.83.75.29.75.86-.43,1.68-.78,7.11.09,6.27,0,1.82-.33.22-1,.24-.18-.81-.11-1Zm.76,36.84a35.74,35.74,0,0,1,8.89-22.17l4.37-3.83.18,1.62c-7.2,6.23-10.89,14.4-11.7,23.9l0,4.06.47,4.12L66,198.57l2.49,5.59,1.5,2.35,0,.61-.65,1.19-1.32-1.85-2.59-4.82-1.59-4.54-1-5.7Zm-.57,25.81.28-6.84,2.12,3.82,2.82,3.93.24.76-.38.29-.42-.06-1.84-.56L63,212.24l-.84-.44ZM64.3,159v-.72L65.57,157l1.22.53L67,159l-.85.95H65.06Zm-1.37,80.91-.46-6.23.71-3.09,1.21-2.83.43-.38-.47,1.87-.9,5.06.38,3.54,1.27,4.91,6.4,15.59.8,2.11.28,2.67h-1L70.51,259l-3.3-7.46-2.82-6.79Zm3.86-132-.61.62.09.81.62.48.65,1.1,0,.2-.61.09-.29.28-.24.86L67,113l.7.09.47-.33,0-.14.42-.34,2,4.54.56,2.39.33.72.38-.09.28-1.62.75,1.29.32.23.38-.29.06-.38-.53-1,1.27.48.29-.28v-.49l-.94-.52-2.21-2.15-1.88-2.87-.09-.44h.65l.52-.47L70.27,110l-.94-.28-.33.33-.28.52-.42-1.14v-.53l-.67-1ZM65.1,149l.43-5.83.47-2.86.36-.68,1,.92-.24.57-.56,4.39v3.73l.23,4.87-.79.33-.52-.18ZM62.51,278.77l-.71.71.1.87.57.57.8.15,1-.72.2-.81-.58-.77ZM67.3,120.58l-.74.75.14.86.71.68.94-.34.13-1.29-.51-.52Zm0,2.77-.6.62,0,1,.56.67.81.1.75-.91.34.63,1.12,1.9.8,4,.43.14.42-1.34,1.32,2.3.7.52.37-.33-1-2.1-.47-1.2.38.19,1.22.05.14-.57-1-.58-2.15-1.77-1.65-2.33.42-.1.65-.38.2-1.2-.94-.62-.62.14-.56.91-.52.33ZM66,194.75,65.19,188l.09-3.49,1-5.79L68,174l2-3.88,1.79-2.72,3.06-3.59,1.28-.9.18,1-.09,1.14-2.69,3L71,171.81l-2.73,6.54-.94,5-.29,4.54.38,4.45,1.23,5.05,2.39,5.26.23.87-.83,1.81-1.14-1.87-1.88-3.95Zm-2.82,72.84.14-1,.65-.68.62.06.74.47,0,1-.75.81-.8.09ZM64.35,236v-3l.28-2.35,1.17-3.49,1.74-2.81.23-.1c-8.19,13.88,6.12,26.33,7,39.38l-1.36-.28-.2-2.68-.94-2.63-5.17-11.85-1.74-4.92Zm.28-11.47.47-1.76,1.75-6.08,3.85-9L74,198.05l2.17-8.18a90.68,90.68,0,0,0,.24-32.93c4.79.51,10.06-.92,14.76-1.53l.94,6,.47,5.59,0,10.6-.34,7-.27,8.6-.33,3.11a210,210,0,0,1-3.49,26.08l-2.82-1.14-2.15-.52.09-1.1,1.12.52.85-.67.18-.95-.65-.72-.27-.05-1,.15.15-.58.41-.38.19-1.58-.75-.61-1-.2-.72,1,.05.9.62.92-.15.81-.61-.39-.65-.09-.47.48.09.75.66.68.51,0,.38-.38-.09,1.15c-3.84-1-5.47-.54-8.9-.15l3.73-2.72.7-1.48,0-1.2L77,214.1,75.77,214l-.94.82-.18-1.1-.62-.59-.74,0-1,.42-.93,1.64v1.77l.42,1.38.14,2.35-1.94.71-2.11,1.05-3.2,2.25Zm1-8.08-.72-.52.11-.29.83,0,.24.33Zm2.07-62.32-.57-5.64.37-5.2.57-2.11.8-.43,2.64-.57,4.8-1.29,4-.44,1.79.06.09,1.05.62.66,1.41.15.61.14c-1.66,1.69-7.36,1-9.55,2.21l.29.51h3.71l9.12-.71,2.93-.1-.2.63.15.9.41.44.24-.15.1-1v-.75l.66.47V144l-.8.63-2.4.33-1.69,0,.27-.28.1-1.25-.47-.53-.51.2.18,1,0,1.1-6.44.28-.81.35-.09.23.38.38,4.09-.15,4-.37,3.89-.24.52,0,.71.53v1.2l-1,.81-2.26.33-3.58.39L84,149l-2.82.06-.67.27.15.48c3.84.45,7.88-.25,11.71-.72l.66.63-.18,1-.48.34.1-.43-.38-1.25-.65.81.6,1.11-1.63.57-2.75.38-3.28.19.28-.61.19-1-.61-.72-.47.19.09.9-.09,1.16-1.74.18-1.61.06-.32.24.23.51,1.36.11,6-.39,2.69-.42.94.24v1l-.47.39-1.5.62-1.41,0,.24-1.38-.67-.29-.24,1.05-.56.91-.8.24-1.64,0,.23-1.38-.56-.33-.56,2-1.42.18H77.56l-3.8-.24-3.44-.66Zm-2.5,123.73-.8.92.42.33.71-.81.47,0,1.93-.67,2.59-.34,2.82.28.56.15,1.36.77.24-.57c-2.11-2.08-5.46-1.43-8.09-1ZM66,234.14l.27-3.36.47-2.25.71-1.95,1.27-2.11-.8,2.26-.85,4v2l.34,3.29c1.7,9.8,9.14,18.08,9.26,28.16l-1-.38c-.82-9.37-7.21-16.92-9.13-26ZM65.48,264v-.11l2.26,0,2.24,0v.38l-.45.57-3.3.11Zm4.79-162.5,1-2.3.89-.82,1.5-.61,2.21.09,1.32.67.94,1.28.34,2.06-.57,1.29-1.45.82-1.18-.43-.43-.81v-.67l.61-.62.76,0,.19-.72-1-1-1.13-.38-1.09.38L72.24,101,72,102.56l0,0,.42,1.87,1.31,1.38,2.08,1.05,2.3,0,1.84-.53,1.36-.86.66-.33.52-.67,1.36-2.35.85-2.39.28-4.19-.14-1.73L83.4,86.55l-.94-8.66.42-4.68.14.24,3.86,1.43,2.58,0,2.08-1.1.22.38-1.73,2-.62.8-.42.73h.47l1.6-1.48.23,0-.83,2-2.32,5.11.44.72,3.29,1.72,2.44,1.81.24-.37-1.18-1.44-4.05-2.68,3.4-8.55.22-1.91-.18-2L93,68.87l1.18-2.3,0-.81L92.61,66l-2.15-.48L88.94,65l-2.15-.24-1.85.76-1,1.1-.6.2-.14-1.43.14-.73.37-.28,1.84-.57,1.41-.29.47-.24.65-.1,5.27-1,3.25-.37,11.62-.58,3.24.2c.06,11.1,4,18.46,8.61,28.33l-1.79-2.91-1.79-2.59-1.69-1.86-.38.33.1.44,2,2.58,2.3,3.44,2,4.3-.41-.09L118.3,89.7l-3.11-3.77L114,84.88l-.41,0v.24l4.18,5.31,1.37,2.44H118.1l-2-2.88-3.29-3.48-.52.24L116,91.28l.76,1.19.18.77-1,.37-1.07-1.53-3.06-3.38-.62,0,.09.42L113.78,92l1.5,2.15-.56.9L111,90.8,110,90.08l-.36,0,.09.34,2.44,2.72L114.39,96,114,97.3l-4.56-5.49L109,92l.24.67,1.65,1.95L114,98.39l.41.77-1.32-.38-5-5.41-.49.06,0,.47,3.21,3.68.61,1-.8.24-.81-.33-3.33-4-.56.15.33.86,3.29,3.77-.42.63-.48-.1L106,97.25l-1.32-1.58-.51.15.56,1.28,3.91,3.64-.09,1-1-.33-2.31-1.88L103,96.68l-.47.24.29.86,1.45,1.77,2,1.86,2.32,1.1.32.9h-.75l-.62-.13-2.63-1.58-3-3.4-1-1.77-.58.63,1.28,2.29,3.66,3.44,2.83,1.38,1.45-.14,1,.53.09.29-2.25.14-1.61-.14-1.79-.77-2.62-2.2L100,99.25l-.66-2-.56-.66-.38.47.14.91,1.13,2.29,3.24,3.4,1.51,1.2,1.36.46c2.36.86,6.3.74,7.67-1.8v.84l-.42.83-2.4,1.53-2.06.38-2.88-.35c-4.62-1.35-7.28-5.2-8.66-9.69l-.37.48.15,1,1.5,3.29,2.35,2.83,2.3,1.67,3.06,1.24,2.64.33,2.15-.47,1.79-.73,1.32-1.28.47-1.86-.23-1.25-.8-1-.9-.42-.6.28.65,1v1.2l-.61.48-1,.09-1-.72-.47-1.48.19-1,.85-1,1.59-.53,1.61.39,1.26,1.38c2.71,3.62-.23,7.74-4.28,8l-1.31.37-3-.13-1.8-.48-2.44-.77-2-1.28-2.82-3.2-1.51-3.26-.65-3.1-.61-.33L92.94,100l-1.59,2.15h-.2l.67-2,.09-2.39-.47.13c-.39,3.37-2.1,7.24-5.56,8.23,2-2.43,3.7-5.58,3.58-8.8L89,97.06,88,101l-1.89,3.62-1.92,1.88-1.28.57,1.79-2.34,1.13-2.06L87,99.16l.14-2.53-.28-.28-.19.09L86,100.08l-1.65,3.67-1.27,1.72-2.58,1.91-1.92.62-1.9.06-1.5-.39-1.59-.48-1.85-1.48-1-1.77ZM65.89,273l.76-1.25.65-1c11.54,2,21.8,3.38,33.74,3.2,9.95.32,18.33-1.51,27.84-3.44l.75,1.19,1.23,2.34c-4.4-.65-8.61,1-12.76,2.24l-1.21-1.56-.56-.11L115,276.52l-3.25-.62-1-.33-3.81-.2-2.78.24-2.36.1-1.4.34-1.22.24-.9.42-.89,0-.85-1.53-.66-.52L95,276.09l-.61.53-2.3-.77-3.29-.72-2.64-.28-3.42.24-2,.52-1.32.44-.84-.25-.34-2.1-.56-.24-.36.57L76,275.42l-1.55-.81-1.93-.82-3.85-.66H67.26ZM70.23,158.9l-.85.66v-1.28l.51-2.39,1,.29,1.13.19.61.23Zm-2.46,74.7.25-4,.33-1.66,1.22-3.4,1.59-1.91c-3.51,6.37-2.4,13.07.14,19.54,1.38,3,8.71,17,7.35,22.43l-1-.3-.56-4.35-.7-2.34-6.26-14.91-1.46-4.15Zm-.65,32.17.18-.14,1.9,0-.58,1-.7.06ZM70,191l-.45-.81.6-.28,5.08-1.54v1.1l-.65,2.83-1.74,6-.2-.72L72.06,195Zm-.45-2.16c2.51-3.29,3-7.5,2.44-11.51l.18-.1,4,4.21.14.47-.48,4.78-.6.48-3.34,1.11Zm3-97.15c1.64-2.72,1.67-2.18,3.81-2l.9.18.56.81v1.58l-.76.62L76.2,93l-.76-.72V90.94l-.65.1-.67,1.24.34,1.86,1.27,1L78.08,95l1.31-.84,1.23-1.82.61-2,.09-3.44L81,82.16l0-3.79L81.56,77c-.25,6.22,2.41,9.43.33,16.29L80.76,95l-1.32,1-1.17.59-2.26,0-1.18-.28-1.45-1.11-.85-2.09ZM67.77,270l.71-1.19,2.31-4.51.57-.42,2.82.72a108.41,108.41,0,0,0,21.87,2.33l1.59.09,3.58,0,3.11-.15,3.28-.09c6-.13,11.88-1.6,17.69-2.83l1.79,3.49,1.23,2.3c-18.16,5.09-38,4-56.44.9Zm5-148.65-.76.92.14,1.38.8,1.05,4.18,2.53h1l.23-1.34.14-5.06-.7-1-1.18-.33-1,.37-.6,1.82-1.14-.42Zm-.15-18.44.38-1.52.71-.83.74-.33.38.33-.47.39-.42.77,0,1.43.24.53.94.81.94.24,1.32-.24.61-.14,1.51-.2,2-.85.9-.72-.43.85L80.34,105l-1.46.67-1.08.34-2.68-.34-1.36-.81Zm-3,128.42.79-4.73,1-2.77,2-2.15c-3,3.85-3,8.11-2.31,12.7l1.37,4.93L77,249.61l2.13,5,1.5,5,.42,4.63-.24.58-1.12-.05c0-9.86-7.38-19-9.46-28.47Zm2.26-55.86.6-.39,1.46-1,1.46-1.62,1.27-2.15.15,5.54-.38,4H76.2Zm-.24,56.87L71.5,229l.51-3,1-2.39,1.93-2.06h.42l-.7.57-.94,1.63-1.18,4.1,0,3.17.66,4.15L75,240.44l3.47,7.5,2.55,6,1.45,5.22.61,3.59-.37,2.44-1.13-.29c1.32-7.74-6.23-18.82-8.32-25.57l-1.14-3.68ZM77.38,47.45l-.2,1,.58.57h.74l2,1,3.11.1,2.17-.53,1.92-1.19-.27-.53-1.23.57-2.3.82-3.06-.1-1-.38-.33-1.34L78.88,47l-1,.06ZM71.07,281.07l-.19.66.71.71,1.36-.09,1.23-.72,1.5-2.15-.24-.38H74l-2,.66ZM78.79,56.29l-1.5-2.92h1.77l2.83-.24,2.82-.66.23.05,4-1.34L90,51.09,91,52.42l.66.43L93,50.8l2.81.62,1.23.33,4.76.19.56.05,2.49-.29.33,0,2.78-.38,1.92-.63.76.06,1,1.76.47.24.53-1,.83-1,.85.38,2.12.57,2.68.63,4.61.14,1.56-.2,3.52-.86.42.2.33,2,.66.48.62-1.1.65-.61.62-.2,2.39,1.34,3,.62,3.85.24.67.19-1.57,2.11C120.48,53,99.3,51.3,79.39,56.81ZM77.18,75.5l.11-1,.51-.76.7-.38,1,.28.33,1.1.65.24.58-1.11.18-4.2.29-2.25.71-1.86-.06,4.64,0,1.72L82,73.41l-.51,2L80.15,76.7,79.06,77l-1.12-.24Zm-4,155.23.42-4,.38-1.16L75,223l1.89-1.63h.37l-.7.68-1.32,2.34-.94,3.68c-.66,13.05,12.21,24.22,10.82,37.42l-1.32-.28c.33-10.55-6.37-19.42-9.54-29Zm4.15-133,.18-.29L79,97.25l2.12-1.38,1.22-2,1-2.67.09,1.62-.66,2.3-1,1.67L80.24,98l-1.63.24L78.46,98l-.14.28ZM75.12,207.12l-.52.77.09.33.57.2.38-.39.13.05-.84,3.3.51.15,1.27-3.16.38.95.52-.09.28-4.16.52-2.2.61.57.24.06.8-.34.32-1.19-.74-.68-.9.35-.42-.59-.56.2-.53,2.33-1.17,2.54Zm1.23-6.44-.71.81,0,.81.47.38h.94l.38-1.19-.33-.63Zm2-91.34.29-.14,2.81-.57,1.69-.24.94-.29a16.63,16.63,0,0,0,10.44-8.85,14,14,0,0,0,14.87,11c-6.89,7.8-14.24,15.2-21.22,22.94a174.43,174.43,0,0,0-8.79-21.84Zm1.32-51.61.51-.29L83,56.72l.09,0L86,56.05c4.86-.68,10.68-2.09,15.48-1.76a167.56,167.56,0,0,1,38.61,3.34l-1.22,1.92-1.22,2.72-.85,1.38c-16.24-4.27-37.56-4.7-53.91-.28l-.51-.58-1-2.14ZM75.21,232.21,75,228l.41-2.24,1.23-2.63,1.45-1.48.71-.1-.65.91-1.56,3.3-.18-.05.23.57-.38,1.29.06,2.11.23,2.09.51,2.49c2.85,10.55,10.94,19.79,10,31.3l-1.27-.14c1.26-9.37-6.21-19.23-9.13-27.52Zm3.44-132.9L81,98.74l1.59-1.64,1.32-2.33,0,1.34-.76,2-1.37,1.49-1.12.66-1.41.15Zm.14,4,.51-2.1.43-.09.14.18,1.69-.66,2.08-1.87-.29,1.3-1,1.43L80.29,103Zm.7,25.9-.84.73.09.81.52.71.56.14.8-.47v-1.25l-.56-.53Zm-1.69,60.6-.76,1,0,1.49.34,1.23,1.5,3.55.66,0,1.08-.9,2.25-2.63.52-1.15,0-1.29-.85-.9-.65-.15-1,.48-.71.63-.94-1.2-.74-.33ZM76,280.06l-1.13,3.58.05,1.43.66,1.11.8.09.61-.57.52-1.58,0-2.63.2-.39c2.63,5.41,7.27,2,.42-1.8l-.66.33-.29-.82-.56-.1Zm2.26-117.67.38,1.48.94,1.54,2,2.52H82l1.36-2,1.27-2.87v-1.63l-1-.76-.76-.09-1,.75-.42,1.11-.42-.81-.61-.63-.71-.29-.9.2-.62,1Zm-.06,36.23-.65.52.09,1.1.34.39.71.05.56-.44.13-1-.46-.63Zm-1,32.59L77,227.63l.81-2.83L79,222.52l1.36-1,.71-.19.85.34c-5.68,4.22-3.06,13.29-.56,18.49,3.44,6.59,8.5,17.64,7.67,25.57h-1l0-1.38-.66-5.55-1.83-6.45L80,240.11l-1.88-4.84Zm3-51.28L78.74,183l.38.38,1.08-.95L80,185.09l.27,1.48h.52l.56-4,.71.94.52-.13-.66-3v-3.25l.19-1.34.18.24.91.09.32-.29.38-1-.47-.76-.48-.09-.69.42-.29-.71-.47-.06-.38.59-.52-.68-.79.06-.57.86.05.48.38.66.74.09.58-.27-.15,2.09ZM82.83,73l.14-.24.8-.39.81-.57L84.49,73l-1.23-.19-.29.28Zm0-1.67.23-3.15.42.18,1.37-1.1,1-.33,2.5,0,1.46.52,2.68.29L92.23,69,89.7,68l-2.41-.18L86,68l-1.61.87-.7-.48-.47.13.88,1.73L83,71.59ZM81.52,132v.67l0,.33.85.82.8-.09.61-1-.33-1-1-.48Zm0,39.05-.71.81.11.68.46.56,1-.18.24-1.19-.34-.53Zm1.65-31.84-.29-.7,3.2-.11V139l-.28.54-.37,0-1.18-.06ZM79.59,278.53l-.38.72.23.14.9-.53,2.16-.05,1.27.34,1.6,1.29.29-.62L84,278.29,82.46,278l-1.89.18Zm4.56-135.31h-.94l.47,2,.66-.71Zm1.17-70.49.05-.81.19-.09L86,73.06l.85.53,1.4.06.7-.48.52-1.64.29.15-.23,1.67-.81.72-1.31.15L86,73.79Zm1.94-3.58L86,69.05l.23-.24L88,68.63l2.07.33,1.83.81v.48l-.56-.34-2.74-.8ZM82.32,204.64l-.33.71.24,1.91,1.64,4.45.66.15,3-2.92,1.22-2.19-.19-1.29-.9-.82-.83-.1-.91.63-.47.9L85,204.83l-.76-.76-1.07-.15Zm1.32-57.78,0,1.91h.41l.29-.24.33-1.1-.51-.75Zm3-102.24,0,.68.2.57,2.06,1.77.89,0,.62-.48v-.47l.18,0,.43,1,.52.24L92,47l0,.24.29.26L94,46.88l1.61-1.19.28-1.1-.42-.87h-1l-1.09.77L92,46.88l-.09-.2L92,45.16l-.24-2.06L91,42.05l-.8-.19-.71.91.33,2.72-.89-.63-1.79-.51ZM85.05,178l-1,1.29,0,1.47L85.84,184l1.56,1.86.74-.48,1.74-2.72,1.05-2.44-.11-1.29-.6-.77-.38-.09-.9-.09-1,.66-.51,1-1-1.16Zm1.64-83.54-.28.18.18.39.34-.2Zm0-.39h-.42l.42.29Zm0,1.62-.14.33.25,0ZM87,90.08l-.43,1.2.38.43,1.93-1.15,1.6-.09,1.79.62,4-.57,1.83.52,2.08.86.18-.72-.32-.86-.8-1.86-1,.72-1.56-.05-1.92-1L93.61,88l-.89.57-1-.61-.7-.24-1.09.91-.18-.06-1.46.54L88,88.46H87.4Zm-.85,70.79-.76.75.06.83.47.57h.61l.85-.63.22,2.82-.27,3.73-.51,1.38.09.77.47.09.56-.71.65,4.59.33.14.25-.23v-4.12l-.11-.09.44-.68,1,.86.27-.28-1.68-3.73-.76-4.54.56.1.85,0,.58-.86-.25-.92-1-.37-.8.72-.23-.54-.67-.14-.24,1-.47-.47ZM86.26,195l-1.59,3.25.18.66.56.15.58-.81,0,.9-.37,1.38.33.72.51-.24.7-2.39.62,1,.42-.29-.51-3.29.09-1,.09-2.58.56.39.72.18.51-.48.18-1.37-.47-.59-.74-.09-.47.43-.33-1.48.65-.53.09-1.23-.47-.58h-.79l-.62.48.06,1.2.47.71-.33,1.05-.52-.38-.75,0-.57,1,.47,1.06h.75l.53-.39,0,1.05Zm1-37.19-.71.72.38,1.29.94.2.6-.44.14-1.05-.5-.68Zm1.79-62-.38.09.32.24Zm0-.58h-.38v.34H89Zm-4,133.35.9-1.35,1.36-.86,1.88.09.94.83.56,1-.36,2.16-.81.33-.62-.15-.65-.86.09-.81.9-1.14v-.33l-.52-.35-1.6.39-1.08.91-.56,1v1.72l.32,1.44-.18-.15-.39-1.14ZM88.94,96.35l-.18.38h.32Zm-1.17,50.56v1.57l.7-.19.29-1.43-.29-.68-.42,0-.32.19Zm.61,2.91-.71.19.34,1.87.66-.39,0-1.19Zm-3.06,131-1,1,.2.77,1,.72.79-.1.71-.62.14-1-.27-.44,1.3-1.14,1.18-.42,2.68-.2,1.75.77.14-.57-.39-.44L92,278.53l-2.73.24-1.36.53-1.42,1.33ZM90.37,91.28l-.85.09.45.81,1.61.82,2.77.15,2.22-.59.42-.33-.18-.57-1.28.48-1.69.14-1.79-.23Zm-1.85,43.25c7.38-8.24,15-16.4,22.44-24.62,3.34-.48,6.38-3.25,5.55-6.93l.33-.09.75.86.85.28.37.53-1.5,1.77L111,113l-5.65,6.27-16,17.44Zm1.94-61.42.36-1.52.81.14.51.43,0,.57-.75.15ZM89.56,138l1.73-2,.25-.34,1.4-1.43,2.82-3.3c8-7.93,14.86-16.86,22.83-24.85l.09.33-1.14,6.22-1,6.3-.33-.28-.47-1.48-.23-1.62.14-.63.47-.05.15.29.69-.42.09-1.06-.46-.67-.52,0-.52.25-1,1.47.05,1,.18.81,0,1.2-2.21-.15L111,118.7l-.47,1.16.09,1.72,1,1.24.6.24,1.14-.1.62-.43.27-.81,0-1.14-.67-.63-.83,0-.72.62.32,1.25-.74-.38-.14-.91.23-1,.71-.73,1-.24.94.2,1.09.91.36,1.72-.56,1.86-1.08.92-2.07.75-2.59.06-.52-.24.38-1.4-.42-1-.89-.43-1.08.52.09.72.42.33.76-.09-.09.71c-2.14,1.45-3.25-.49-6.37,3l-.83,2.21.23,2.57-1.88-.24-1.61.39L96,133.33l-.84,2-.61.86-.33,1.43-.43.43-.51-.33-.81.33,0,.82.42.43h1l1-.81v2.72l-.2,1.29-.84,1.19-.14-1.1-1.28-1-1.88-.15Zm1.32-35.55.18-.35.14.2Zm1.88-19.61-.85.49.09.7.47.5,1.23.09,1.74.9,1.64.24,1.27-.33L99.53,84l.43.68,1.17.9.75.39,1.46.95,1,.19.09-.43-3.34-2.29-2.73-2.87L97.23,81l-1.13.09-.76.91.19,1L96,83l.42-1.19L97.7,82l.7,1,0,1-.85.77-1-.09-2-1.38ZM94.17,47.4l-.56.11.18.66,1.14.66,2.58,0,1.69-.53,1.7-1.48.18-.67,1.18,0,1,1.38,1.74.63,2.26-.09,1.73-.57.62-.59,1,.15.29-.24.22-.77.76,1.15.47-.09.56-1.54.1-2.76-.23-1.39-.76-.67h-.85l-.7,1.34.43,3.2-.76-.91-1.27-.91-.94-.14-.75.71,0,.77,1.59,1.86-.89.39-2.3.24-1.6-.39-1.36-1,.32-.39.24-1.09-.76-.82-.85-.09-1.08.81-.13.73.27.75-1.12,1-2,.86-2.53.1ZM89.08,222.8l.62-3.11.38-2.67.61-2,.6.53,1.23-.3.62-1.13.18-2.78-.51-2,1.78.34h1.13l1.41-1.05.38-.81,0-2.15-1-1.14-1-.3-1.13.24-.61,1.11.14,1.19.94.66.66,0,.47-.71-.15-1.1.29-.1.43.48.13,1.09-.32.91-.8.82H94l-1.17-.72-.56-1.82.56-2.05,1.37-1.06.56-.33,1.22-.42,2.82,0,.43.29-.43.95.34,1.2,1.12.62.85-.62v-.67l-.38-.23-.65,0-.24-.34.24-.38,1.18-.72h1.21l.94-.18,1.27-.68,1.84-1.68.66-1.57-.15-3c4.89,1.43,5.68-2.92,7.29-6.18l1.14.2.36-.86-.51-.05-1.22-.48-.75.62-.29-2.24.42-1.91.81-1.05.24,1.19,1.08.85,2,.3.42,1,.53,2.54c-6.12,7.07-13.35,13.95-18.87,21l-6,7.11-.76.73-1.4,1.81v.24l-.43,1.28.24,2.54Zm3.25-77.08-.61.18.19,1.38.52.3.24-.33Zm-.14,9,.19-1.8v-.63l.43-.24,7.94-8.6,3.73-3.87,3.38-3.68,7.76-8.37.09.3-.79,7.87,0,2.3-.42,4.44-.09,7.36-.11,2.88.24,6.4-.51,1-.76-.06L93.23,160l-.29-.76-.42-2.92ZM95,67.91l-.34.19,0,.47,1,2.45.19.71-.8,1.1.29.91h.36l.29.42-.38.33.58.5L98,77.23,101,80l.85.34.18-.48-.89-.59L98.6,76.61l-1.52-1.73-.51-.72L100,75.65l2.73.19.94-.15,3.24-1.33,1.36-.14.28-.39.62.15.94-.15.61-.57-.38-.53-3.81-2.06-2.82-1-3.67-.1-2,.63-1,0-1.32-1.44L95.44,68ZM91.35,213.62h-.66l.09-.23.62-4.21.23-.72.56,2.73.14,1.15v.42l-.33,1-.46-.24Zm.52-9.79.56-2.58,5.08-5.5,14.95-16.3,1.75-1.67.33.48-.47.53-.71,1.34.18,1.2.57.8-.47.28-.93,1.4-.53,2.24,0,3.29-1.08-1.1-1.36-.51-2,.08-.84.58-.76,1.43,0,1.34.66,1.16,1.27.66,1.26,0,1-1v-1.58l-1-.46-.27,0-.9.57.52,1.34-.56.05-.58-.48-.27-.77.18-1.1.71-.62-.19-.28.38.09.33-.14,1.36.1,1.22.9.62,1,0,1.63-.62,1.25-1,.85-.94.44-2.16-.2-1.74-1.38.41-1.4-.22-.23-.52,0-.47.57-1.32-1.1h-.47l-.33.33.24.38,1,1.25-.37.57.13.63.47,0,.62-.42.38.29,1.22,2.29,0,2.34-.76,1.44-1.59,1-2.08-.1-1.17-1-.46-1.68.56-1.63.8-.72.76-.18,1.12.14.61.87-.28.94-.19-.57-.47-.33-.7,0-.47.42-.15.81.15.38.7.52h1.32l.75-.75.19-.87-.19-1-.89-1-1.18-.43-1.26.19-1.23.91c-1.83,2.48-.73,3.84.79,5.74l-4.09-.29-.41.2-1.52.24-1.12.42-1.37,1.28Zm1.21-41.25.06-1.47.27-.15,15.34.09.65-.09,5.18.15.14.81.34,2.86,0,2.15c-7.1-.24-14.25.33-21.36,0ZM96,86.44l-.76.06.24.38ZM93.7,148.77l.47-.44.14-.09.51-1.67-.6-1.34c2.43-2.45,1.49-4.55,1.69-7.26l1.08,1.1,1.83.57,1.74-.24,1.23-1.14.19-1.73-.25-.95-1.26-1.15L99,134.24l-.85.62L97.7,136l.09.72.66.62h.89l.71-.71-.28-.81-.24-.48.84.18.53.77-.09,1.38-.71.77-.81.24-1.36-.14-.9-.77L96.19,136l.19-1.19.7-1.25,1.46-1h1.69l1.18.33,1.37,1.33-.29.29-.23,1,.65.24.67-.54,1.31,1,.51-.05.06-.66-.89-1,.18-1.29-.27-.2-1.09.35L103,133l-1-2.15-.19-1.2.66-2.09,1.54-1.25,1.79-.15,1.32.48.85,1.53-.09,1.82-1,1.15-.85.33-1.23-.14-.47-.81v-.87l.29,0,.13.44.76.43.85-.43,0-1.19-.69-.72-1.51.19-.8,1.19.14,1.34.89,1.1,1.65.34.9-.15,1.31-1,.56-1.19.14-1.58-.47-1.44-1.12-1.23.66,0,1.55.14h2.07l1-.2,1.73-.61,1.6-1.43-.24,2.28-12.88,14-8.79,9.61Zm2.87-84.5-.61.2c1.61,4.34,3.83,2.18,7,2.72l1-.1,2.88.43,1.68.58,1.79,1.28.75.1-.09-.76-2.5-2.06-1.63-.81-2.93-.68H99.05l-1.77-.33Zm.66,130.53-4.8,5,.29-1,.13-3.31.05,0,.8-20.7-.09-4.39-.06-.35.06-1.57.23-.58,13-.19,8.37.09.8,4.84-.2.9.06,1.34-.62.39-8.23,8.88-7.89,8.36ZM96.1,73.06l.33-.33,1.17-.57.85-.09.37,2.19-1.54-.67-.9-.18Zm-3.67,208-1.79,1.52,0,.67.6.76.53.15,1.68-.77L94.64,282l.43-1.39-.34-.34-.65.06Zm5-211.82-.1.33.28.37,1.69-.8,1-.14h2.4l2.16.43,2.07,1,1.7,1.14,1.26.48.15-.57c-3.33-2.52-7.11-4.38-11.29-2.92Zm-2.93,141.6-.79,1,0,.66,1,.44.76-.44.09-1.05-.42-.57Zm1.09,6.74-.71-.09.94-1.06,2-2.52,1.64-1.58.38-.81,1.09-1,.56-1.06,12.23-13.28L118,191.4l1.07-.81.62,2.34-4,4.39-11.94,12.77-.29.66L98,216.92l-1.64.29ZM94.4,242.35l-.09.48.37.24.19-.57Zm.09,3.63-.09.29.09.15.38-.24ZM100,74.4l-.62-1.29.24-1.28.14.71.42,1.2,1.08.57,1,0,.79-.76.43-1.67.47.47-.37,1.62-1.09.72-1.27.24ZM95.2,243l-.42.1.09.34.33,0Zm.52.72-.38.19.38.24.09-.24Zm.53-2.53h-.4v.24Zm-1.38,42.73.33,1.86.76.86.89-.09.43-.72.09-1.72L97,281.93l.61.95,2,1.29,1-.62V282.5l-1.23-1.3-1.08-.67-1.18-.09-.36,1.25-.11-.53-.56-.77h-.61l-.66,2.29Zm2.83-84.88-.57.77.19,1,.85.24.65-.44.1-1-.28-.29ZM97.23,239l-.2.48.34-.09Zm.23,19-.56.05,0,.38L99,260.22l1.68,1,1.61.44,4.56.48,1.5-.15,2.31.33.85.62.56-.18-.38-1.1L110,260.22,108.7,260l-3.15.15-2.16-.15-3.2-.43Zm.65-4.49-.79.42.1.35.69.57,2.08,1.09,3.62,1.54,3.67.27.56-.09,2-.53.75,0,1,.72,1,1.49h.47l-.52-2.06-.89-1.4.85-1.19,0-.72-.53-.38-.13-.91-2.45-3L106.58,247l-.75.09,1.65,1.14,2,2.54,1.88,2.06-3.25-1.4-2.54-.14-2,.38-1.89,1-1.36.23-.75.39.38.33,1,0,3-1.15-.32.58-.52,2.05h-.57l-3.25-1.53Zm.53-16.11h-.38v.34h.34Zm-.19,18.07-.52,0,.09.43.76.44,1.69,1.14,2.78,1.19,2.06.29,2.92-.05,2.31-.9,0-.53-.66.05-1.64.62-1.23.24-2.72-.1-1-.19-2.78-1.38Zm1.08-38.86c6.67-7.4,13.21-15,20.27-22.13l1.18,3.15,4.38,10.86,2.35,5.26,1.5,3.73-4,.9-1.41.57-.94.33-3.91,2-3,2.91-2.36,3.7-.56-2.15-.89-1.88-2.26-3-3-2.3-3.06-1.53-1.69-.1-.75-.28ZM99.67,236l-.18.06.23.2Zm4.47-161.48.43-.9.32-1.44.8.13,1.83.92-.56.24-.85-.15-.24.48Zm-4.09,204.88-1.36.72v.58l2.26-.67.46.38.32-.38,2.5.43,1,.91-.51.66.09,1,.76.66.71.06,1.12-.63,0-1.23-.56-.63h-1.18l-.09-.43-.85-.87-1.08-.52-2.55-.23Zm1.08-45.26-.57-.09.28.52Zm4.42-140.8-.19.11.15.19Zm.52.77h-.33l.33.39Zm.8-1.76-.43-.33v.33Zm.33.24-.37.14.09.24.33,0ZM104,240.2h-.43l.11.42,2.11,1.2L108.1,244l2,2,1.55.19.8-.53.18-1.19-.51-.28-.61,1.34-1.12-.11-.91-1.32.1-1.07.66-.61h1.07l1,.57.88.67,1.18.47,1.14.2L116,244l.14-.9-.47-.48-.9,0L112,241.44h-1.5l-1,.33-.94,1.43-1.08-1.14-2.5-1.49Zm4.51-149.44-.51.37.51.05Zm-4.51,164,.19-1.1.28-.57,1.51-.87,1.41.19.94.72.38,1.19-.29,1.2-.37-.25.14-1-.75-1-1.46-.35-1,.82-.23.86-.29.86Zm5-163.36h-.37v.33h.32Zm.66-2-.42.14.42.29Zm-3.9,141.7h-.28v.29h.28Zm3.48-104.33v.77l0,.38,1,.28.62-.52v-1l-.42-.34-.58,0Zm1.59-38.9-.32-.15.09.3Zm2.26-18.16-1-7.36.22-.82.58-.24.56.44.33-.2.14.62-.09.63.38,3.78,1,5.15L117.16,78,120.22,85l1,1.58c2.11,4.4,7.11,14.12-.56,16.25l-.7.14-.85,0-1.69-.72L116,100.54l-.89-2V96.68l.6-1.44L117.31,94l1.41-.19L120,94l1.08.91.71,1.77-.24,1.25-.85.75-.51.15.33-1.14-.18-1.16-.85-.86-1.7-.13-.94.57-.51,1-.15.71L117,100l.89,1,1.17.62,2.59-.29,1.05-1,.79-1.44.19-2.57-.89-2.87-2.26-4.65L116.8,81l-1.88-4.54-1-3.58Zm-1,15.86-.42.11v.37H112Zm-4,149.64-.48.15.67,2,.6,1.25.61-.62,1.41-.19,1.94.87,1.46.42,1-.62.66.33,1,.44,2.12-1.16.75-.09.46.68.47-.15.29-1.4.42-1.61-.57-.19-1.12.9-.56.19-1.56.14-1.22-.42-1.56-.11-2.35.5-1.41-.06-2-.62Zm6.07-191-1.23,2.15.23.72.57,0,1.64-.61,1.84-1.34.19-1-.89-1-1.09.3Zm-1.61,42.06H112l0,.37.33.15Zm.05-3.21H112v.44h.42ZM108.93,279l-2.06,1.91.38.42L109,280l2.2-.57,1.83.09,1.14.58.18-.58-.85-.77-1.17-.18-1.45,0Zm4.14-195.29h-.47l.11.44.32,0Zm.38-2.76h-.38l.2.43Zm1-33.65-.57.33,1.27,1.06,1.22.28,2.58-.33,1.18-.57,1.46-1.3.94,0,.94-.82,0-.86-.74-.77h-1l-.92.92.18,1.14-1.27.9-1.46.59-2.5.13Zm-1.94,68.19-.29.63.53.68.61-.06.71-.72-.43-.71-.75-.1Zm.94-31.1-.32.09.09.24.32-.09ZM109.36,254l-.57-1.47,2.17,1.24h.79l.2.43-.56.48-1.94.66Zm5.13-190.73.32-1.63,1.32,0v2.69l.05,1.34.66,5.15L119,77.61c2.14,5.81,14.26,22.9,2.67,26.57l-1-.33,1.7-.53,1.74-1.38,1.17-2.59.15-3.11L124.79,93l-2.17-5.17-2.16-4.1-2.83-6.6L115.9,71.3,115,66.57Zm-2.21,171-1.36.63v.42l.32.15.8-.33,1.65-.39,1.64.15,2.08.72.79.23.19-.29-.7-.86-1.27-.52-2.26-.24Zm4.46-169,.28-3.19.67-.2L118,62l0,2,.47,3.88.56,3,1.29,4.11,1.26,3.35L124.92,85l2.55,6.32.94,3.77.15,4.11-.47,1.92-1.27,2.33-1.57,1.44-.89.23-.85-.42.56-.35,1.7-1.8,1.32-2.59.24-3.82-.14-1.38-1.46-5.07-4.42-9-2-4.82-1.69-5.68ZM114.39,181l.15-1.34,1-.57,4.28-.68,7.75-.37.25-.67-2.55-.19h-.89l-1.93.24-2.15,0,.32-.24-.38-1,.19-.71-.37-.15-.67.75.1.77.52.67-.47.14-2.73.2-1,.34-.65-.57.09-.48.51-.83.29,1.34.38.11.27-1.06-.36-.66,1.83-.72,1.79-.2,1.88-.28h1.32l.7.15-.52,1,.61,1.1h.53v-.81l.13-1.43,3.39-.2.19-.57-.24-.24-3.67.05-5.32.43-1.64.33-.47-.61.14-.63.52-.52,1.87-.63,1.18.11L120,173l.29.85.47.05.65-1.91,2.82-.44-.52,1,0,.53.52.38.33-.29.14-1.67c3.16-.57,12.63-.39,15.94,1.82l.24,2.24-.18,8.13-.53,2.77-4.18.92-3.81,1-2.35.28-3.91.1,0-.92-.42-.66-2.31-.29c2-1.9,6.25-1.09,9.37-2.15l.18-.57-.38-.24-2.73.09-6,.43-2.82.15-2,.23-2.12,0,.13-.91-.42-1.09-.47.28-.23,1.76-.51-.62v-.81l1.12-.81,2.59-.29,1.23.1-.44.57.1.91.43.62.41-.09.15-2.15,2.4-.2,4.33-.13.51-.48-.47-.53-1.69.05-3.49.24-2.15-.05.09-.34-.14-.77.14-1.05-.33-.29-.76,1,.15,1.06.61.57-1.93.24h-1.88V180l-.53-.38-.36.29.14,1,.47.77-1-.06-.52-.38Zm1-32.07.32-8.4.62-9.56.27-3.44.14-2.11.71-6.4,1.18-7.89.32-1.82.85-3.58.42-.63,4.7,1.35V108l-.41,1.54.23.81h.42l.43-.62.71.86.65.14.94-.81v-.82l-.33-.48-1,.06-.7.42-.29.09.23-.42v-1.34l.33-.66a25.3,25.3,0,0,0,10.07-.24l2.45-.92,3-2,1-1.2.89-.76h1.08l-.29,1.44-1.07,2.33-1.84,4.93-2.59,6.4-2.44,5.83-3.11,9.81-1.78,8.16-.81,5.07-.14,6.22,0,5.92.56,6.59.71,4.82-.05,1.16H129.5l-4.29.24-2.4.33-5.74,1.05-1-6.31-.43-4.68-.18-3.2v-3.26Zm-2.73,132.38-.57,1,.09.72.48.57h1l.8-.61,1.41-2.25.34,3.68.92,1,.43,0,.75-.44.14-1.57-.38-1.58.91.63,1.88.52.51-.67-.09-.57-.8-1-1.7-1.1-.75.05-.56,1-.48-1.1h-.6l-.47.48-.52-.15-1,.33Zm4.46-183,.33-1.29.52-.57.75,0,.76.38.14,1.38-.94,1,.09.52.56.29,1.61-.38.93-.81.61-1.2V96.35l-.18-1.16v-.48l.51,1.53-.09,2.54-.56,1-1.79,1-1.74-.24-1-1Zm1.79-32.63-.19-3.83,1.13-.1c-.1,13.4,8.78,22.3,11,34.31v3.54l-.45,2.29-1.28,2.48L128,105.43l-.57.24-1.32-.11c10.17-9.61-6.21-26.68-6.86-37.89Zm-1.6,81.24v1.2l.32.7.76.53,1-.09,1-.92.46-.75.33.57,1.09.92.84.09.8-.63.18-1.34-.32-1.34-2.16-3.58-1.08-.81-1.74,2.3Zm.61,9.42-.7.24,1.64,3.29.85,3.34,0,1.58-1.07-.24-.72.91,0,.58.56.61.76.24.65-.76.53.67h.41l.29-.81.75.48.75-.43.15-1.19-.47-.59-.62,0-.85.67-.28-2.06.28-.9-.18-.3.09-2.09.71-3.35-.42-.24-.76.76-.47-3.2-.38-1.48-.47.24L119,155l-.2,2.33Zm.47-21.42-.19,1,.66.76.71,0,.47-.48.18,1.33-.85,1.2.43,1.15.57.28.94-.37.19-1.34-.67-.57.38-1.34.76.62.75-.35.23-.51-.18-1.25-.76-.24-.61.38,0-.86.47-2,1.46-3.11,0-.86-.47-.1-.89,1,.14-.47.19-2.78-.58.09-.69,2.73-.23-.72-.38-.37-.53.13.38,2.11,0,4.78-.46-.44-.85-.09Zm2.3-72.5.38-.47.94.14-.14.52.57,5.46,1,3.67,2.73,6.64,1.65,3.29,3.53,7.9,1.41,5.25.14,3.78-.57,3.44-1,1.87-1.51,1.57h-.56l.69-1,1.43-3.1c2.37-11.21-9.53-23.31-10.49-35.8ZM115.43,259.5l.37-1.43,2.3,1,3.35.24,1.17-.29,1-.72,1.08.62.09-.53-1-1.34,1.18-1.47,0,3.34-.42.06-1.41,1-1.32.53-2.46-.24-.89-.47Zm5-140.84-1.09,2.1.38,1.39,1.12.67.8-.1,1.18-1.39.43,1.25.7.66,1.09.2.89-.77.14-1.86-.23-1L124.41,116l-.56-.52-1.46,1.09-.38.53Zm-4.71,136.25,0-.37,1.66-.72-.1,1.2-.15.52-1-.25Zm.38,2.59-.29-.66,1.56.66,1.5.43,2.17.14,1.08-.24.7.24-.84.14-.9.49-1.41.09-1.74-.39ZM122.9,47.07l-.65.18.09.63,1.13,1,1.32.62,2.45,0,1.54-.81L128.6,48l-.95.39-1.82.33-2-.62Zm-4,139.84-.28-1.1,3.38-.24.15-.09h1.17l-1.5,1.19-.94,2.19.18.68.43.33,3.42-.14.67.05-.23.19.09.76,1.26,3.21.85,1.34.38-.11.19-.37-.19-.86-1.69-3.88-.24-.37c5.42.21,6.35-.52,11-1.69l4.65,8.18,1.79,2.63,5.47,7.5L159.55,218l-2.73,2-.66.19-2,1.25-2.12,1-.85-1.95-.42-2.24-.19-1.49-.51-.76-.52.24.09,2.43-2.72-3.44-.57.48.85,1.43,1.59,2.58h-.65l-1.13-.42-.52.14.2.48,1.64.9,2.54,1.77.18.47-4.56,2.36-.38-1.58-.65-.82-3.53-2.58-.47,1.28-.33,3,.15.66.94,1.86-3.44,1.49-2.64.81.47-.28,1.47-1.73c2.42-5.61-2.22-9.79-7.44-9.94l-.94-2.1-5-11.67-3.76-10.4Zm1.55-19.68-.8.51.1,1.2.79.57,1-.52,0-1.25-.38-.38Zm2.16-103.29.15-1.86,1.36.13c-.23,9.41,5.22,17.69,8.61,26,2,4,3.85,15.3-1.79,17.45,8.91-10.48-6.13-26.9-7.76-37.72Zm.06,44.06-.62,1,.1.76.28.24.89.29.71-.57-.1-1.34-.47-.39Zm-4.62,147.5.14-1.29.52-.73,1.08-.52h1.32l1,.39.57.9-.15,1.25-.28-1-.71-.82-.74-.19-1,.05-.81.72-.36.61,0,.63-.33.33Zm1.22-24.05H119l.33.3Zm5.61-166.32,0-2.58.24-.14,1,.1c-.93,13.73,14.85,27,9,40.81l-2.31,2.39h-.37l.75-.62.9-1.53.89-2.73.42-3.63c-.45-10.47-7.2-17.46-9.45-26.86Zm-.2,45.55-1,1.2.09.57.67.81h.69l.67-.62.18-1.38-.71-.63ZM122,188.83l.19-.68.32-.48.67.2,1.88,0,.27.77-1.59.18Zm4.18-144.39.67,1.58,2.25,1.82.88.37.58-.37.24.86.5.09.81-1.48.42-1.82.62-1.82-.29-1.86-.89-.53-.52,0-.71,1.05-.56,3.83-.52-.86-.46-.58-1.32-1-1-.1ZM121.5,231l-.34.09.24.33Zm-.14,1-.09.35.18.09Zm-.24,46.37-.9.76.38.44.9-.53,2.12-.9,2.35-.06,2.35.33.18,1,.53.77,1.07.18.76-1.14-.33-.86-1.14,0-1.74-.91-2.67-.28-2.12.42Zm4.75-118.52-2.36,4.58.2,1.39.8.76h1.26l1-1.38h.38l.09.42,1,.87h1l.51-.43.29-1.54-.47-1.29-1.7-2.57-1.41-1.4Zm.1-27-1.32,2.11.14,1.29.75.72.94.2.56-.3.85-1.19.38.76,1,1.15,1,0,.62-.57.27-1.92L130,131.42l-.92-1.23-.76.18Zm-1.5,45.55-.91.86.1,1,.41.43.58-.19Zm0-26.56,0,.9.83.57.76-.48.24.72.52.05.33-.71,0,.18.52.57.51.11.52-.48.29-1.16-.53-.61-1.26.24.27-2.53,1-3.31.83-1.23-.13-.68-.43,0-.7.85h-.19l.15-1.95-.06-2-.23-.23-.33.23-.52,3.87-1-.9-.33.42.46,1.63.33,2.58-.28,3.16-.38-.35-.7-.13Zm2.35-86.71,0-2,.37-.39,1.13.15c-.39,9.81,7.4,18.81,9.55,28.67l.37,4.73-.6,4.12-1,2.81-.8,1-1.37,1.25c7.87-10.5-3.32-24.93-6.48-34.65ZM124,182.47l-.19.95.62.72L125,184l-.14-.91-.24-1.11Zm1.64-27.92,0,1.34,1,.29.66-.77v-.72l-.33-.47-.8-.1Zm-.32,39-.85.67,0,.86.65.76.76.1.65-.58.09-1.11-.65-.66Zm-1.7,61.78-.33-1.34,1.65.5Zm.41-23.12.34-1.91.42-1.1.67-1,1.92-1.49,1.55-.29.42,1.2-2.15.53-1.74,1.82Zm.2-3.64v-.42l.71-1.58.61-.81,1.18-1.14,1.59-.92,1-.19-.52,2.25h-1l-1.7.75Zm4.85-163.69.09-1.86,1.23.24.6,5.17,2.35,6,5.51,12.91c1.68,5.06,2,11-.61,15.77l-1.41,1.25c3.38-5.87,2.41-13.48-.29-19.41L131,72.6l-1.59-5.94Zm-4.56,170.82.18-2.29.18-.58,1-2.15,1.46-1.52,1.88-.59h.66l1,.83c-3.9.22-5.37,3-6.12,6.58ZM128,124.25l-.14,1.1.29.58.85,0,.42-.44.5.72.4-.19.83-3,.95-2,1.08-1.05.27-1-.41-.15-.62.39.47-2.1L133,116l-.27-.18-1.23,3.09-.52-1-.71.51.2,1-.2,3.11-.47,2.2-.7-1Zm-2.44,100c1.43-3.17,5.94-4.62,8.74-2.43l.94,1.44.15,1.28-.51,1.48-1,.67-.75-.2.52-.37.42-.82.05-1.71-1.45-1.34H131l-.33.24-1.12.09-1.7.38Zm-.19,15.29.24-3.86.19-1,1.21-2.44,1.88-1.43,1.23-.57,2.4.1.89.28,1.09.72.94,1.81V235l-.38,1-.89,1-1.32.62-1.36-.13-1-.68-.43-1.1.19-.9.8-.72L132,234l.71.57,0,.57-.11.66.67.2.56-.77.09-1.47-.18-.68-1.28-1.32c-3.81-.39-5,2-5.68,5.48v3.25l.27,4.3-.09,2,0,2.25-.61,1.15v-2l0-.81-.66-5.11Zm3.95-112.73-.61.62.18.85.67.59.89-.54.14-1-.56-.58Zm-3.52,134.72c0-2.47-.25-8,.74-9.89l1.65-1.38,1.46-.15.56.33.56,1.11,0,1.23-.91.92-.69-.06-.48-.18-.66-1.25-.7.24-.38,1.63-.28,4.93-.42,1.9Zm5.92-193.27-.62-4.68.25-.19,1,.28c1.2,11.8,10,19.46,9.6,31.65L140.88,100,139.75,102l-.66.81c5-10.11-1.14-19.14-5-28.35Zm-3.3,127.51-.85.52.11,1,.51.63.61.09.62-.33.14-1.07-.29-.57Zm.2-3.73-.94.76,0,.38.81,1.11.74.09.52-.76-.19-1.06Zm3.71-144.33-.18.43.32.29.94.09,2.12-.53,1.18-1,.23-1.23-.52-.53H135l-1.32.81ZM133,49l-.52.1.05.51,1,.83,1.13.27,2.17.3,1.75-.1,3.33-.77,1.5-1,.06-.67-.38-.1-.71.58-2.73.87-2.82.18h-1.27l-1.46-.33Zm-1.41,75.55-.89.77.1.58.5.62.71.09.52-.71v-1.11Zm1.56-15.2-1.27,2,.36,1.38.71.49,1.46-.44.28.77.57.61,1,.2.56-.38.56-.81.09-3.4-.47-2-.47-.57-.52,0ZM134.24,69l-1.08-5.11,1.46.28C136,76.34,150.22,90,140.32,103l.94-2,1.17-3.73.33-4.73-.85-4.69-1.79-5-2.68-5.94-1.64-3.47Zm-4.38,133-.18,3.49.27,1.42.72.68,1.18.29.89-.63.42-1.67.71.37,1.27.24.89-.76.14-1.48-.28-.62L134.33,202l-3.56-2-.67.19Zm1.52-48.66.27-5.16.24-.9,4.7,4.63-.89.38-2.26,1.82-1.83,2.86-.23-.85Zm.6-7.55-.09-1.91.7-3.73,5.88-1.86.33.05-1.4,2.58-1,3.58-.19,3.92.19,1.43-.28.09-1.46-1.58Zm-.09,17.06.19-.67,3.1-3.49,2.35-3.82,1.88-4.25,1.42-5.79.32-3.16-.13-4.48-.48-3.73-1.4-4.54L137,124.58l-.22-.66.94-1.73c9.06,12.77,6.38,32.31-5.55,42.3Zm1-24.08.38-2.58h0l.52-2,1.69-5.35.14,1,.85,3.11,2.35,4.21-4.32,1.38Zm-.38,28.91-.29-1.76c9.17-7.39,13.14-19.94,11.49-31.51l-1.5-6-2.64-5.5-1.27-2-.2-.19.81-1.78c10.57,13.83,9,34.08-3.43,46.23ZM135.61,66l-.29-1.77,1.18.24c2.3,11.46,14.08,23.87,6.64,35.75l-.2-.14c4.92-12.24-3.11-20.15-6.82-31.69Zm-2.78,104.24-.18-1.1c15.58-12.26,19.19-35.56,6.71-51.53l1-2C154,132,151.09,157.81,134,170.57ZM137.4,64.94l.13-.57h.94l4.62-.14.85.37.84-.23,1.42-.19,2,.09,4.56,0,.09,1c-5.22.25-9.89,0-15.14-.1ZM134.76,197.7l-1,.15.1.44,2,1.38,1.74,1.77,1,1.76h-.76l-.52.92.19.71.66.39.65-.05.52-1h.33l.52-.39.24,0h.94l.27-1.28-.65-.81h-.65l-.76.81-.66-.76-1.13-2.54-.24-2.15L137,195.9l-.6,1.33-1.84-2.76-.56,0,1.64,3.68Zm-.38,11.19-.79.34.09.33,1.64,1.1,2,2.3,1.45,2.63-.27.09-.94.57-.58.81.39,1.16.93.38.81-.82.33-1,.61,1.2v.9l.56.62.85.1.47-.43.15-1-.67-.48-1-1.37h.81l.41-.25.24-.95-.65-.86-.9,0-.51.86-1.61-3.2-1-3.4-.43-1.14-.47.29-.13,1.24-1-1.24-.57.1.05.42.47,1.16ZM138,66.9l-.23-1H153l.36.62,0,.66H150.9l-5.18-.09-1.69,0-5.79-.1Zm-.05-3.49.62-.86,3.38.05.8.81-1.22.2h-3ZM139,70.15l-.57-1.91.24-.09L142.8,68l1.51.06.33,0,5.18,0,.37.22c-3.94,3,.67,10,6.12,5.46l-.52,2.34-1.89,5.4-2.53,4.72-.57,0,.28.39-1.41,2-3.2,3-.56-4.36-.67-2.1-.69-2.38Zm-3.3,100.46,3.24-3,.15.38-.38,1.91-.13,1.49Zm3.1-109,.56-.81.72,0,.65.67-.09.34H139Zm1-1.77,2.76-4.58L144,53.52h6.72l-.19,1.34-.94,1.91-1.69,1.49-.09.28L149.25,60l-1.7-.15-3.43-3.49h-.51l-3.44,3.49Zm-1.76,128.24.2-.48,1.83-.19,12.23,9.36.34.44-6.31,3.44-.66-.44-2.31-3.29-1.55-2.43Zm3-73.07-.23-1,.32-.19,2.32.72,2.67,1.1.1,1.43-.15,5.78-1-2-2.82-4.39Zm1.37-54.21.13-.72.72-.66.66-.15.52.15.27,1.29-.66.81h-.7Zm1.78-14.14-.74.81.18.9.56.48,1.23.06.7-1-.09-.77L145,46.5ZM140.5,204.49l-.75.73.51,1.33.85.14.56-.66-.09-1.06ZM142,165.12l-1,.09,1.41-1.72,4-6.69,1.21,4.25.2.77.24,1.48-2.18.67-.61.14Zm31.18-22.47V141l-6.82-8.07-.47-.77.66-.1,4.33-.19,2.3.05v-.81l-3.8.15-4.2.09L163.78,130l-.65-1.06,3.1-.1,6.91.1V110.06c-4.14-.07-8.28,0-12.42,0l-3,0-2.26,0-2.12,0-6.67-.09-.38.24.13.28,7.63,9.22,1.83,2.3,3,3.4,11.95,14.33.66.67Zm-31.47,27.1-.32-1.24.09-.44.85-.62.94-.18.74.86.06,1-.42.63-.94.47Zm-.7,17c1.36-2.24.58-10.31.65-13.72l.94-.34h.33l.29,5.88-.19,4.3-.79,4.87Zm2.91-80.05L145,104l.74-2,.62-.53,1.5-.28,3.82-1,.74-.49,1.65-.52,3.34,4.49,1.41,1.67,1.18,1.43-.89.2h-6.59Zm6.26-43.26-4.61-.09.76-.86,1.12-.06H151l.85.15.24.81Zm-8,146.29,0,1.82.32,2.68.94.95,1.27.15.75-.48.66-1.82.76.53,1.27-.25.6-.76v-1.48l-1.6-1.53-.32-.09-2.26-.92-1.56-.52-.51.15Zm5.26-147.91-.51-.25,1.13-.81,2.16,0,.89.52v.35l-1.5.14Zm-3.62,127.22c1.48-5.59,1.3-11.42,1-17.05l1.38-.54h.27l.14,2.54.06,2.19-.25,5.36-.28,5.11-.38,2.06-.56,1.53Zm1.36-18.45-.42-.09A45.19,45.19,0,0,0,156,145.23l.25-5.92v-1.62l-.49-4.74-.83-4.25-1.47-4.63,0-.39,3.11,3.77a47.83,47.83,0,0,1,1,21c-.76,6.08-5.35,17-9.74,21.21Zm-1.27,55.68.47-.43.33.19Zm5.41-167.85,1.18-1.1,1-2.53,1.07-7.5.89-2.1L154.94,44l1.69-.42,1.74.62,1.27,1.71-.09,2-1,1.19-.38.1-1.27,0-1.08-1.33-.42.24-.47,2.19.18,3.34L157.25,65l-.05,4.58-.66,2.21-1.08,1.38-1.18.82-.9.23-.32,0-1.18,0-.8-.43L150,72.73l-.46-1.24.23-1.39L151,68.63h1.27l1,.66.52,0,.42-1.25-.33-3.16.24-.24-.27-.13-1.05-2.2L151.6,60.6Zm.76,2.54-.43,0v.33Zm-.76,71.54-1.3-5h.27l2.59,1.59,3.38,2.15v.61l-3.43,5.88-.8,1.19-.09-1.34Zm-1.36,20.7-.38.13.19-.33,1-3.25,1.32-7.78,1,1.53,2.84,5.11-.06.38Zm.56-29.74.53-1.19,1-.47.8.23.42,1.54-.33.85-.85.48-1-.24ZM148,177.21l.14-1,2.91-7,.76-.53.8-.15-2.88,7.5.06.59,3.7,4,1.47,1.87-3.48,3.19-1.28,1.49.29,1.15,3.44,8.41-1.32-.91-2.82-6.37-1.51-2.86.13-.43.62-.62,3.24-2.76.34-.63-2.08-2Zm.79-20.79.67-1,.56-.38.8,0,.75.81-.09,1.1-.71.81-.89,0-.57-.42Zm0,47.65,2.6-1.62,1.21-.63,3.58-2.15,1.56,1.14v.38L156,202.3l-5.17,3-.89.29Zm1.89-27.82,3.39-8.6,1.78-1,.14.39-3.1,7.79,0,.38,6.17,6.73v.39l-6,6,1.13,2.9,2.92,7.74-.24.15-1.46-1.47-4.09-9.91.09-.46,2.87-3,1.42-1.23.41-.82-.32-.43Zm1.83-35.18-.19-1.23,1.32-1,1.17.43.34.71-.19,1-.62.72-.85-.09ZM154.56,82l.7-1.44.9,0,.28.1,2-.1,1.89,0,2.11,0,6,.1.2.1.09,1.49-4.14-.11-1.27.11-1.17-.11-6.31.11Zm2.31-23.81-.8-4.15.28-.1,1.37.58.65.33-.28.77-.28,1.48,2.39.81.2-.43-.85-.43-.85-.62.29-1.2,2.26,1.29-.15.86-.7.67-1.32.49-2-.11Zm-.76,19.65.33-1.15.56-.34h5.79l.34.06.7-.1,2.58.1.14-.1,1.56.15v1.47l-3.48,0-6.4,0Zm-2,84.69H154l1.54-3.59,1.64-4.63,1.28-5.26.61-5.59.28-2.86-.14-4-.65-5.25-.34-1.33.1-.44,3.62,4.35.09,14.47,0,3.46-.23,1.28-3.15,4.3ZM153.72,175l1.65-3.93,1.07-3,1.17-2.42,2.13-1.4-3.91,9.32.48,1.1,4.83,5.07L163,182l-2.55,2.59-4.37,4.63V190l1.74,5.49,1.88,5.4h-.43l-.8-.71-.65-1.91-3.53-9.18.24-.91,5.55-5.63,0-.68-4-4.24-1.46-1.55-.51-.09.09-.51Zm3.15-99.75L158,71l.37-4.34,1.28-.14,4.6.09-.14,1.91-.84,2.58-.94,1.48-.09.48.36.15.53-.57,1.17-2,1.27-4,3.67,0,0,1.58-.61,2.2-1.41,2.19-1.9,1.82-.13.53.47.15,2.35-2.16-.14,2.58c-1.93.2-4.52-.08-6.4.09Zm1.74-21.28.33-.18.8.05,1.4,1,0,.52-.47-.1Zm1.13,6.18-.1-.87h.29l1.41-1,.47-.24.33,3.53-.15,1.2-.56-.43-.8,0-.38.62-.18-.24-.43-2.43.38.28,1.27-.33.52.29.09-.38-.47-.39-.76-.24Zm.46,3.49.2-.29.85-.19.45.43-.18.29-.7.18ZM162.42,57l-.66-2.58.85-.09,1.08.48.94,2,.24,2.54-.9-.48-1,.29v.48l.38.15.66-.24.28.27.71,0,.14,1.1-.2.46L165,63l-.76-.38-.65-.15-.53.3.29.53.52-.06.8.52-.66.59h-.61l-.7-.59.13-.37V60l-.18-1.29V57.4Zm-3,119.68-.79-1,.94-.2H161l.89.24,7.11-.1.85-.08,1.3,0,.34.2L170.08,177l-7.47-.24-2.45.09Zm2.21,2.24-1.08-1.28,2-.2,5.18.14,1.46.2-1.84,1.33Zm1.09-35.09.18-8.55,2,2.25q.3,15.06-.1,30.11l-2-.1-.09-1.82.18-4.1-.22-12.81Zm3-84.87L165,55.28l.27-.18,1.18.33.9,1.77.33,1.82-.43-.34-1.13-.24Zm-.34,5.31.37-2.11.06-1.19-.19-.81.13-1,.29.13,1.32.39.47-.24L167.49,63l-.51-.35-.7-.18-.53.28.15.34,1.18.37L167,64l-.75.44Zm-2.77,115.65.18-.14H166l.09.19-2,1.58Zm5.93-120.57L168,56.57l.22.11.85,1,.43,1.82ZM165.81,140l0-1.05h.23l5.28,6.12.37,1-3.66,4.49L166,152.89l-.2-.92.29-1.58,2.77-3.48,1-.91v-.48L166,140.17Zm2.11-75.79V63.7l.38-.38.66,0v.37l-.62.53Zm-2.11,91,.14-.66,1.74,2.24,3.62,4.93-.8.86-3.67,4.73-1,.29-.13-1.1,1.36-1.86,2.35-3.07-.28-1.05-1.42-1.72-.71-1-1-1.2Zm2.58-92.66.28-2.15.14-.15.8.29,0,.48-.29,1.77ZM167,153.7l.85-1.34,2.59-3.4,1.83-2-.09,2.39-.29.15-.42.66-2.64,3.31.09.48.91,1.23.18.2,2.3,3.2.05,2-.33-.09-2.86-3.73Zm3.3-94.45.94.48.18.43-.33-.24-.52.2Zm.18,4.88-.09-.15.47,0Zm-.09-1.38.23-2.39.29,1.52-.29,1Zm-1.22,104.81-1-.2,1.17-1.62,3-3.59v1.53l-.69.81-1,1.54ZM34.85,37.65H173.14V289.76H34.85Zm-.93,253.07H174.08V36.7H33.92Z"/><polyline class="cls-6" points="34.76 127.69 34.48 128.08 34.48 130.89 35.14 131 36.49 131 37.49 129.56 38.76 128.02 41.3 127.93 42.66 125.35 44.83 125.35 45.43 124.92 45.63 124.16 46.43 123.02 48.87 122.87 49.39 121.62 50.28 120.34 52.34 120.14 54.13 116.99 51.89 114.65 51.46 115.5 50.61 116.7 49.3 116.61 47.89 116.75 47.08 118.94 46.66 119.29 43.75 119.38 43.55 120.43 43.13 121.62 42.34 121.92 40.64 121.62 39.89 121.92 39.51 123.35 38.81 124.68 36.78 124.64 36.31 125.06"/><polyline class="cls-6" points="34.48 184.86 34.48 195.99 37.25 195.9 43.75 195.79 43.75 195.55"/><path class="cls-6" d="M70.65,263.33l-1.74,4a143.2,143.2,0,0,0,19.38,2.81l4.7.33,6.5.15,5.64-.33,4.14-.15,2.82-.18,4.42-.53,3.53-.53,7.29-1.24.18-.24-2.26-4.26c-11.74,3.95-24.14,3.45-36.31,3l-2.59-.15-.74-.24-.56,0-3-.38-.34.09-.56-.19-.94-.09-1.12-.35-.71-.09L74,264l-2.11-.48-.29,0"/><path class="cls-6" d="M80.29,108.87l-2.82.27,2.21,3.74,3.06-.76.79-.09,4.85-2,5.08-3,1,1,5.09,4.15,2.54,1.44,3.53.9.33,0,.8-.44,2.58-2.9,1-1.29c-9,.39-13.33-2.47-16.05-11.82l-.37.39.1.71-1.27,2.26-2.31,3-3.44,2.19-1.83,1"/><path class="cls-6" d="M82.17,59.55l-1.88.37,2.3,4.21,1.18,0,1.37-.48,1.12-.29L93.46,62a88.61,88.61,0,0,1,12-1c10.6.13,21.29.6,31.6,3.34l1.47-2.68.56-1.53c-17.72-3.31-34.07-4.41-51.8-1.47"/><path class="cls-6" d="M92,155.89l.09.68,0,1.76,1.79,0H110l3.68-.09h1.28l.09-1.14-.05-2.25-.15-.91c-5.35,0-10.49.23-15.89.1l-.14-.2-.09,0,13.17-14.29,3.53-3.59.23-2.77.18-3.59-.37.39-22.71,24.7"/><path class="cls-6" d="M92.29,194.12,92.14,197l1-.72,7.39-8.12,5.46-5.78,3.43-3.58,1.65-1.87,5.23-5.5-.34-1.71c-7.49.06-15.12,0-22.58.18l-.09.58.09,3.82,1.32,0,3.15,0h8l1.78.05v.15l-11,12-3.81,4.2"/><path class="cls-6" d="M100.56,215.15l-1.64,1.91v.24c4.33-.25,8.89,1.2,11.62,4.78l1.74,3.64,1.26,4.21c2.32-7.53,9-11.24,16.47-11.38l.14-.29-1.79-3.92c-5.31.21-10.62,2-14,6.41-2.13-4.14-7.54-7.26-12.12-7.42L101,214.39"/><polyline class="cls-6" points="155.6 207.65 153.76 210.57 153.87 210.94 154.9 212.43 155.82 213.2 157.2 211.14 158.46 211.29 159.84 211.14 161.25 208.37 162.56 208.55 164.11 208.42 164.16 207.94 164.96 205.93 167.45 205.83 168.02 205.31 169.15 203.07 171.07 203.2 173.52 199.58 173.52 196.75 171.5 196.86 170.98 197.52 169.48 199.67 166.55 199.86 165.38 202.39 162.84 202.54 162.46 203.01 161.61 204.78 160.96 204.84 159.26 204.73 158.84 204.78 158.14 206.69 157.76 207.41"/><polyline class="cls-6" points="165.01 131.81 164.81 131.95 167.22 134.82 169.52 137.49 173.52 142.36 173.52 131.61 167.92 131.61 165.81 131.66 165.66 131.84"/><path d="M172.21,38.68v250H36.06v-250H172.21m2-2H34.06v254H174.21v-254Z"/></g></g></svg>