<svg xmlns="http://www.w3.org/2000/svg" xmlns:xlink="http://www.w3.org/1999/xlink" viewBox="0 0 208 326"><defs><style>.cls-1{fill:none;}.cls-2{fill:#fff;}.cls-3{fill:#6f7072;}.cls-4{fill:#1d1d1b;}.cls-5{fill:#1c1c1c;}.cls-6{fill:#facb1b;}.cls-7{fill:#f8261b;}.cls-8{clip-path:url(#clip-path);}.cls-9{fill:#001400;}</style><clipPath id="clip-path"><rect class="cls-1" x="34.06" y="35.62" width="140.16" height="254.02"/></clipPath></defs><title>KS-us-2c</title><g id="Calque_2" data-name="Calque 2"><g id="FR_-_EN" data-name="FR - EN"><path class="cls-2" d="M14.83,325A13.84,13.84,0,0,1,1,311.18V14.82A13.84,13.84,0,0,1,14.83,1H193.17A13.84,13.84,0,0,1,207,14.82V311.18A13.84,13.84,0,0,1,193.17,325Z"/><path class="cls-3" d="M193.17,2A12.84,12.84,0,0,1,206,14.82V311.18A12.84,12.84,0,0,1,193.17,324H14.83A12.84,12.84,0,0,1,2,311.18V14.82A12.84,12.84,0,0,1,14.83,2H193.17m0-2H14.83A14.83,14.83,0,0,0,0,14.82V311.18A14.82,14.82,0,0,0,14.83,326H193.17A14.83,14.83,0,0,0,208,311.18V14.82A14.83,14.83,0,0,0,193.17,0Z"/><path class="cls-4" d="M21.4,74.32l1.27-.06,1.22.08,1.24.12.4.07a23.88,23.88,0,0,1-3-6.29l-.07-.33,0-.48,0-.14,0,0,.09,0,.07.1a3.76,3.76,0,0,0,3.88,2.48c10.82-2.11-1.36-17.15-5.1-20.43-3.35,3.39-12.64,13.57-8.3,19a4.56,4.56,0,0,0,4.82,1.21l.73-.33.32-.24.29-.24.23-.26.19-.27.31-.53.19-.37.06-.1.1,0,0,0,0,.14,0,.48-.07.33a23.43,23.43,0,0,1-3,6.29l.4-.07,1.24-.12,1.22-.08"/><path class="cls-4" d="M186.84,74.32l1.27-.06,1.22.08,1.24.12.4.07a23.57,23.57,0,0,1-3-6.29l-.07-.33,0-.48,0-.14,0,0,.09,0,.07.1a3.76,3.76,0,0,0,3.88,2.48c10.82-2.11-1.36-17.15-5.1-20.43-3.35,3.39-12.64,13.57-8.31,19a4.58,4.58,0,0,0,4.83,1.21l.73-.33.32-.24.29-.24.23-.26.19-.27.31-.53.19-.37.06-.1.1,0,0,0,0,.14,0,.48-.07.33a23.73,23.73,0,0,1-3,6.29l.39-.07,1.25-.12,1.22-.08"/><path class="cls-4" d="M186.89,251.35l-1.27.05-1.22-.07-1.25-.12-.4-.07a23.66,23.66,0,0,1,3,6.28l.07.33,0,.48,0,.15,0,0-.09,0-.08-.1a3.74,3.74,0,0,0-3.88-2.48c-10.82,2.11,1.37,17.15,5.11,20.43,3.34-3.4,12.63-13.58,8.3-19a4.6,4.6,0,0,0-4.82-1.22l-.73.34-.33.24-.28.23-.24.27-.19.27-.3.52-.19.38-.07.1-.1,0,0,0,0-.15,0-.48.08-.33a23.21,23.21,0,0,1,3-6.28l-.4.07-1.25.12-1.22.07"/><path class="cls-4" d="M21.45,251.35l-1.27.05L19,251.33l-1.25-.12-.4-.07a23.36,23.36,0,0,1,3,6.28l.07.33,0,.48,0,.15,0,0-.09,0-.07-.1a3.76,3.76,0,0,0-3.89-2.48c-10.82,2.11,1.37,17.15,5.11,20.43,3.34-3.4,12.63-13.58,8.3-19A4.59,4.59,0,0,0,24.93,256l-.73.34-.33.24-.28.23-.24.27-.19.27-.3.52-.19.38-.07.1-.1,0v0l0-.15,0-.48.07-.33a23.21,23.21,0,0,1,3-6.28l-.4.07-1.25.12-1.22.07"/><polyline class="cls-5" points="20.69 25.32 25.86 38.8 22.62 38.8 22.62 42.57 32.4 42.57 32.4 38.8 29.49 38.8 22.95 21.59 28.77 11.85 32.4 11.85 32.4 8.06 22.62 8.06 22.62 11.85 24.79 11.85 16.98 24.75 16.98 11.85 20.21 11.85 20.21 8.06 10.44 8.06 10.44 11.85 13.59 11.85 13.59 38.8 10.44 38.8 10.44 42.57 20.21 42.57 20.21 38.8 16.98 38.8 16.98 31.48"/><polyline class="cls-5" points="186.12 25.32 191.3 38.8 188.06 38.8 188.06 42.57 197.84 42.57 197.84 38.8 194.93 38.8 188.38 21.59 194.21 11.85 197.84 11.85 197.84 8.06 188.06 8.06 188.06 11.85 190.22 11.85 182.41 24.75 182.41 11.85 185.65 11.85 185.65 8.06 175.88 8.06 175.88 11.85 179.03 11.85 179.03 38.8 175.88 38.8 175.88 42.57 185.65 42.57 185.65 38.8 182.41 38.8 182.41 31.48"/><polyline class="cls-5" points="187.6 298.56 182.42 285.09 185.66 285.09 185.66 281.32 175.88 281.32 175.88 285.09 178.79 285.09 185.34 302.3 179.51 312.04 175.88 312.04 175.88 315.82 185.66 315.82 185.66 312.04 183.5 312.04 191.31 299.13 191.31 312.04 188.07 312.04 188.07 315.82 197.84 315.82 197.84 312.04 194.69 312.04 194.69 285.09 197.84 285.09 197.84 281.32 188.07 281.32 188.07 285.09 191.31 285.09 191.31 292.4"/><polyline class="cls-5" points="22.16 298.56 16.99 285.09 20.23 285.09 20.23 281.32 10.44 281.32 10.44 285.09 13.36 285.09 19.9 302.3 14.07 312.04 10.44 312.04 10.44 315.82 20.23 315.82 20.23 312.04 18.06 312.04 25.87 299.13 25.87 312.04 22.63 312.04 22.63 315.82 32.4 315.82 32.4 312.04 29.25 312.04 29.25 285.09 32.4 285.09 32.4 281.32 22.63 281.32 22.63 285.09 25.87 285.09 25.87 292.4"/><path class="cls-4" d="M149,236.05l-2.42.1-2.34-.14-2.39-.23-.76-.14a45.71,45.71,0,0,1,5.8,12.12l.14.64,0,.93,0,.28,0,0-.18,0-.13-.2c-1.45-3.41-3.82-4.78-7.43-4.78-6,.49-8.87,4.94-8.15,10.92C132.16,265.6,142.34,277,149,284c6.41-6.54,24.19-26.17,15.9-36.6a8.74,8.74,0,0,0-9.23-2.34l-1.4.64-.63.46-.53.46-.45.51-.37.52-.58,1-.37.72-.12.2-.19,0,0,0-.05-.28.05-.93.14-.64a45.11,45.11,0,0,1,5.8-12.12l-.76.14-2.39.23-2.34.14"/><path class="cls-4" d="M59,89.84l2.43-.1,2.34.14,2.38.23.77.14a45.71,45.71,0,0,1-5.8-12.12L61,77.49l0-.92,0-.28,0,0,.17,0,.14.19c1.45,3.41,3.82,4.79,7.43,4.78,6-.49,8.86-4.94,8.15-10.92C75.84,60.29,65.65,48.87,59,41.86,52.61,48.4,34.83,68,43.12,78.46a8.74,8.74,0,0,0,9.23,2.34l1.4-.64.62-.46.54-.46.45-.51.37-.51.58-1,.36-.73.13-.19.19,0,0,0,0,.28,0,.92-.14.64a45.27,45.27,0,0,1-5.8,12.12l.76-.14,2.39-.23,2.34-.14"/><path class="cls-6" d="M173.65,146.45V139h-.88l.5-1.82.06-3.43-1.94-7.56-.14-5,.29-2.48,2.11-10.22v-4.4l-.61-2.68L171.35,95l-.23-5.55,1.12-8.84-.51-4.78-.61-2-1-1.39-.32.43.47,2.2-.52,4.3-1,4.16-1,5.16-.05,4.16c3.07,17.31,2.35,10.75-.8,26.91l.11,6.74,1.21,7-.18,2.92-.25,1-.56,1.19c-13.16-1.17-10.47,12.38-3.15,8.33l.9,1.38-.38.81L164,151l.22,1.47,0,2.45.29.53-.14.28-.2,1.87.58,1.19-.1,1.48.37,1.1.33,2.24.66.86.75,1.86,1.32,1.25-1.12,1.24-.71.91,2.62,5.68,1.7-.27,1.65-1.07.47-.75.65-2-.56-2.06-1.21-1.32.83-.68,1.32-1.48V164H171.3l-1.65-.19-1.5-.49-.65-.85.09-.62.74-.54.15-.51h-.37l-.76-.77,0-1.29.67-.48.33-.53-1-.72.06-1.52,1.12-.53-.09-.48-.47-.13-.75-1.11v-.67l.51-.76H169l.14-.57-1.51-.11-1.22-1.56-1.08-2.73-.62-.86v-1.67l1.14.57,4.47,1.43,3,.24m.32,55.26v-15.4l-.8-1.24-3.14-5.73-1-2.59-.85-1.48-.75-.38,1.73,7.21.71,6.32v3.91l-.8,7.56.62,3.82.7-.29,3.48-1.62Zm-5.73,2.72.84-.29-.43-1.59Zm-9.32-45.55.85-.57-4.52-13.1,0-.58-.61-1.82-.1-.57-.7-1.91-1,2.25.25.43-.38-.23-.94,2.48L149.43,150l-.09.85,1.46,1,4.74,4.05Zm-1.18,29.92c-.41-14.94-11.13-28.24-24.83-33,.51-8.09,3.86-18.06,7.39-25.51l1.74-3.26,3.8-6.54,4.52-6.36,3.62-4.74,1.27-1.58,0-.28-3.15-1.87c-13.71,15.69-22.23,32.5-23.66,53.53-1.31,16.4,4.52,32.58,12.65,46.5l5.93,8.9.85.42,2.77-1.62L153,209l2.77-6.07,1.55-6.75v-1.72l.2-.9Zm-2.73,1.86-1,8.16-1.13,3.59-2.72,5.6-1.46,2-2.45-3.5-2-3-3.15-6c1.84-6.22,1-13.51-2.82-18.79L135.75,176l-2-1.76-1.08-1.45-.09-1.53-.53-4.87.06-4.83.65.05.52-.33-.19-.92-.84-.22.13-1.4a33.81,33.81,0,0,1,22.11,30.92Zm-1.41,4.12.38-3-.09-1.95-.47-.34-1,.05-.67,1.58-2.15.57-.71.44.37.46,2.35.73.52,1.38.8.24Zm-.09-7.9.09-.67-.09-.38-.85-.76-.74.37-.15,1.4.47.62h.76Zm-1.08,12.24.75-.9-.23-.92-.8-.43-.85.48-.14,1.1.52.52Zm-.33-15.54.8-.38,0-.81-1.41-4.06-.62-.15-1.08.68.23,1.09-3,2.2.18.44,2.64-.25.71.1.56,1Zm-.33,19.79.06-1-1-.52-.7.33-.62.72-3.15-.63-.14.77,2.44,2.05-.18,1.34,1,.77.76-.43Zm-1.32-14.48-.38-2.05-.23-2-.65-.14-1,.18-.28,1.25-.8.39-3.67.81-.28.57.13.71,4.67-.33.85,1.38h1.21Zm-.7-12.09.56-.62-.09-1-.8-.81-.94.33-.18,1.34.6.63Zm-1.13,23.46,1.18-3.68-.14-.85-.43-.44-1-.09-.51,1.14-.41.1-.2-.1-3.33-.28-.76.14,0,.82.66.28,1.6.62,1.88.9-.09,1.07,1,.66Zm-.37-27.58v-.66l-.06-.29-3-3.44h-.33l-.9.9v.59l.52.75-1.79,3.26.52.14,1.93-.9,1-.29.61.42.53.24Zm-1.09,7.18.71-.52L146,176l-.85-.95-.56,0-.9.81.34.68,0,.57-1.79,1.29L140.26,180l.37.8,1.89-.56,2.35-1,1,.72Zm-.7,13.19.56-1.1-.71-1-1.07,0-.57.57-.15,1.16,1,.66Zm-1.36-8.42.94-1.05-.29-1-.84-.48-1.17.18-.49.59.06,1.33.56.43Zm0,16.78.61-.66-.09-1-.42-.52-.94-.14-.71.62-.25.77.76.9Zm-2.21-34.41v-.67l0-.34-.9-.62-.75.44-.1,1.19.47.43.76.09Zm-2,4.78.94-.9-.14-.68-3.11-2.77-.74.53-.38,1,.52.57-.09.43-2.44,3.45v.72l.74.18,3-2.77.81-.19Zm.15,4.83.85-.86-.11-.77-.56-.72h-1.18l-.65.63,0,1.34.52.42ZM139,165.33l.89-1.24-.18-.33-3-2-1.18-.28L135,163l.89.66-.6,2.63.18,1,2.3-2.11Zm-.81,26.43-.09.24-2.68-7L134,179.19l1.22,1.34,2.11,4.21.85,4ZM135.79,220l.52-.44c-6.76-9.41-10.88-20.38-15.57-30.92-2.79-9.44-5.22-17.82-4.42-27.81a84.88,84.88,0,0,1,5.45-25.62l2.64-6.4,4-8.56,4-7.36,1.79-3.05-.09-.29L131.18,108l-.84-.28c-8.56,16-17.8,33.09-18,51.8l-.18,2.48.32,4.54,0,1.11.14,3,.2,1.92.51,3.63,1.79,7.36,4.14,12.29,4.38,9.89,1.88,3.92,4.47,7.79.18.19,4.24,2.81.23.24ZM135,170.2l.09-.81-.56-.81-.9-.15-.84.63-.14,1.05.71.86,1.21-.19Zm-16.51,46.13,2.55-.49-1-1.05-1.27-2L115.38,206,112,198.36l-2.82-8.55-1.46-8.95-.29-1-.8.19-2.67-.14-2.21,0-3.15,11.47L95.1,202.27l-2,5.12L90.07,214l-.52,1.53h.7l1.56-.33,1.88-.81,1.84-4.21L98,204l2.55-7.23,1.56-6.82.42-2,1.08-3.48.7-3.25.29.29-.1.85.43,3.4.56,2.1c1.22,7.94,6.76,22.44,11.94,28.68ZM118.2,110.7l.75-1.33-3.57.57-1.18.52c-3.92,9.76-8.56,22.44-10.4,32.94l-.27-1.35,0-1.85L102.06,133l-2.35-7.56-2-5.45-2.88-6.25-2.81-5-1.13-1.34-2.72.72-.67.42c6.89,10.64,12.1,23,13.08,35.75l1.31.19,5-.1.42-.18.29-2.11,1.55-6.79,2.39-8.07,2.32-6.78Zm-6.26,101.7.62-1.23-.11-.44-.84-.72-.79.24-.43.57v.73l.66.85Zm-1,5.64.7-1.52-.14-1.43-.61-1.68-1.13-1.25-1.46-.81v-.29l.94-1,.56-1.25-.51-2.34-1.32-1.1-1.22-.18-1.32.33-.84.75-.09,1.34.27.81.76.59,1,0,.53-.87-.29-1.14.65-.09.58.66-.29,1.58-1.46.92-1.83,0-.94-.48-.76-.9,0-1.63.27-.67,3.06-2.87.76-1.91-.09-1.48-.43-1.05-.75-.67-.89-.48-1.7.15-1,.9-.46,1.11.09,1.14,1.09,1.05h.94l.69-.91-.22-1.39.83-.09.67.82-.56,1.62-2.46,2.19-.89,1.25-.56,1.53.24,2.05,1,1.29-.1.44-1.22.42L99.1,213v.73l1.27.38.85-.63,1.41-.7,1.69-.24h2.25l2.31.94.76,1.16.19.9-.29.77-.66-1-1.26-.18-.62.75-.09,1.15.38,1,1.22.86,1.32,0Zm-1.18-102.7.57-.91-.06-.52-.65-.82-.76,0-.32.29-.33,1.43.56.52Zm-1.93-2.49,1.7-1.44-.52-.75-1-.2-1.47,1.1-1.88.53-3.29-.2L99.43,111l-.66-1.06-.09-1.67.18,0,.85.9.76.14.47,0,.65-1.1-.28-1.14-.94-1-1.31-.38L98,106l-.88,1.2L96.89,109l.8,2.2,1.13,1.09,1.51,1-1.09,1-.51,1.49.33,2,1.27,1.2,1.88.24,1.23-.57.6-1-.28-1.4-.94-.81-1,.06-.52.9.47.86-.09.29-.47.19-.71-.52,0-1.19.47-.82.8-.52,1.79-.39,1.54.67.76,1.06-.09,1.38-.38.81-2.82,2.54-.67,1.33-.18,2.16.61,1.38,1.5.86,1.65-.15,1.17-1,.44-.87-.38-1.61-.71-.63-1-.19-.62.52-.14,1,.34.49-.09.43-.67,0-.65-.33-.24-1,.8-1.48,1.12-.91,1.42-1.2,1.22-2.48-.23-1.77-.76-1.06-.27-.9Zm-3,17.16.76-.9-.19-1.25-.66-.67-1.12-.19-.52.77-.09,1.29.56.81Zm-.41,3.26.65-.72L105,131.5l-.66-.58-.56,0-.47.48-.14,1.1.42.57Zm.37,64.13.71-1.05-.1-1-.66-.75-1-.2-.72.53-.09,1.57.81.86Zm.1-4.11.38-1-.15-.48-.65-.57-.62-.05-.41.38-.15,1.29.6.62.72.1Zm-5.27,18.16.71-1-.29-.87-.38-.37h-1l-.38.62-.09,1.1.52.57Zm-2.26-97.17.71-.66-.09-.9-.76-.68-.71,0-.56.76,0,1,.61.47ZM95.81,161c-.51-5.75,0-10.7-1.93-16.45-3.7-13.5-10.44-27.07-17.59-39L74.13,104l-2.73,0c4,5.83,7.23,10.08,10.06,16.87,4.66,10.23,9.1,20.84,10.73,32.08.17,10.19-.11,20.75-3.71,30.39l-2.83,7.46-2.82,6.49-3.06,6-1.22,2.06-1.51,3-3.39,5.69-.13.76.79.39,3,1.33,1.14-2.25.79-1,3.53-6.55,4.38-8.94,3.47-8.7,3.58-10.75,1.36-9.08.09-2.34,0-3.93ZM80,159.35l-.15-3.43-.37-3.64-1.78-9.56c-3.12-10.71-9.87-24.83-17.13-33.46L57.43,111,56,113.05l-2.77,5.44-1.45,4.36-1.09,5.88,0,5.92,1,7.83,2,5.6,2.68,5.26,3.24,4.34,5.55,5.22,2.54,1.67,3.07,1.86,4.65,2-.94,6.35-1.88,7.41-3.62,8.27L66,197.22l-1.84,2.72-1.09,2.15-4.65,7-5.54,6.74v.43l3,2.11,1.59-1.54,3.58-4.58,2.12-2.44,3.24-4.64,2.64-5C76,189.09,79.36,176,80,163Zm-4.14-3.43.37,4.92-.09.86-.14.91-.33-.19-.61.33.19.9.75.15-.14.67-.38.82c-8.77-3.1-15.67-10.39-19.52-18.84l-1.69-5.78-.76-4.53.06-6.42.61-4.58,2-5.79L58,115.82l.1-.38,1.12-1.77,1.93,2.49,3.24,5,3.11,5.88c-3.09,7.81.62,18.33,7.76,22.7l.53,3.83Zm-1.13-.43.75-.62-.1-1.11-.52-.57-.83-.14-.85.86,0,1.05.56.53ZM73.89,144l.15.62-1.7-2-1.55-3.49-1-4.4-.14-2.48,3.25,8.26Zm-3.25,9.89,2.41-3.25-.1-.57-.52-.44-3.76,3.16-.71-.48-.56-.05-.67.73,0,.66,3,2.78.46,0,.95-1-.43-.86ZM73,161.7l.06-.57-.76-.82.76-2.91-.33-.72-1.37,1.48-1.18.86-.56-.14h-.67l-.51,1,.09.53,3.11,2.06.89,0Zm-3,52.43.18.18V214ZM69.09,149l0-.75-.56-.92H67.49l-.61.48-.29,1,.61.85,1.14,0Zm-4.85-2.09,3.63-2.68-.38-.81h-.76l-2.86,1.34-1.08.09-.18-.39-.33-.33-.9,0-.56.35,0,.85,1.93,3.54h.85l.79-.57Zm2.69,11.56.51-.77-.18-.86-.85-.43-.75.43-.1.91.29.39.37.37ZM65.05,128l.47-.43-.24-.68-2-.66-1.93-1v-1.09l-.42-.43-1-.15-.67,1.72-.51,3,.27.24,1,.24.85-1.2,1.26,0Zm.18,23.12.47-1-.29-.14-1,.58-2.15.8-.39-.42-.93-.33-.9.85.23.86,3.06,3.44h.56l.81-.9-.48-.91-.18-.82Zm-.85-14.19,1.09-.61-.38-.86-4.8.24-.51-1.2-1-.05-.34,0-.38.49.43,4,.51.48,1.18-.19.43-1.34,1.18-.42Zm.29,4.83.65-.81-.27-.95-.62-.59h-1l-.7.63-.05,1.34.8.57Zm-.56-16.92L65,124l0-.48-.67-.77-.93-.15-.52.48-.14,1.06.56.67Zm-.85,8.12.65-.81-.09-.61-.56-.68-1-.14-.72.68,0,1,.8.63ZM60.2,121.36l1.88.14,0-.53-2.1-1.86-.15-.75.1-.68-.71-.57-.61-.19-.38.38-1.13,2.35-.56,1.91.65.42.85.19.8-1Zm-1.5,22.51,2.77-2.15-.18-.29-2.93.2h-.42l-.89-1.19-1,0-.51.47.42,1.77,1,2.92.75.09.9-.42Zm1.74,1.24-.15-.47-.09.43Zm-.94,4.31.65-.53-.09-1.19-.56-.48-.57-.09-.66.61-.09,1.15.47.48ZM59,132.16l.62-.53-.51-.27L57.47,131l-.94-.62-.09-1-.38-.39-.84-.18-.57.51-.24,4.54.42.63H56l.28-1.14.44-.39ZM58.7,174l.09-.7-4-3.07L48.77,165l-.27.22-.06.73,3.77,10,2.3,7.12.52-.33,1.23-2.54Zm-2.08-47.11.52-.72-.23-1-.56-.33h-.56l-.47.72,0,.91.53.37ZM56,138.8l.66-.86-.09-.7-.47-.68h-.66l-.51.42,0,1.49Zm-5.88,42.06c.63-3.76-3.31-5.61-6.21-3.73l-.7-1.71.34-.53.56-1.81L44,170.69l-.29-1.92.18-1-.09-1.58-.33-.77-.09-1.86-.43-1.1-.13-1.71L42,159.5l-.89-1.77-1.41-1.34,1.88-1.82L41,152.81l-2.12-4.25L37,149l-1.41,1.05-.67,1.62-.18,1.87.47,1.33,1.09.86-1.65,1.82v2.48l2.53.05,2.26.48,1.09.81-.11.81-.7.44v.42l1.14,1.29-.44,1.29-1.07.2c.21.8,3.24,2.27,0,3.14l-.18.59.85.19.78,1.15-.09.81-.42.52h-.85l-.18.77.56-.09,1,.56,1.28,2,.94,2.19.52,1.58-.28.42-3.3-1.38-3.05-.67-2.21,0v7.65l.37.05-.37,1.23V191l.94,3.44,1.18,5.26-.2,5.11-1.08,4.82-.84,3.58v9.23l1.59,5.84.62,4.16c0,5.77-3.26,14.08.79,19.3l.47-.29-.28-1.29,0-3.86L39,241.08l1.37-6.4-.09-3.16-1.64-9-.2-4.19,0-2.39,1.6-5.79,1.13-7L41,198.06l-.62-3.34-.28-1.91-.24-4.1.85-3.07.38-.28,2.3.24,2.46-.44,2.06-.86,1.65-1.71Z"/><path class="cls-6" d="M159.68,36.34l.1-.14H69.94l1.75,2.53,3.47,4.93,5.12,8.16,2.26,3.92C92,52.94,101,52.42,110.86,52.3a165.79,165.79,0,0,1,17.73,1.15c4.63.57,12.56,1.46,17.13,3A87.71,87.71,0,0,1,159,37.11m-9.28,11-.84.77-1,.33h-.33l.33-1.29.37-.62h1.13Zm-1.59,3.21-.71,1.62-.65.77-1.79-.2L142.89,53l-2.16-.82-2-1h-1l-1,.7-.33.2-.29-.62-1.17-1.1-3.62.57-.15.1L127,50.92l-2.83-.57-2.44-.59-3-1.19-1.23-.19L116,49.67l-.51-.42-1-1-.9-.19-1.07.52-3.86,1.1-2.26.44-3.58.14-3.76-.38L96,49.1l-1.27,0-1.36,1.57-.7-.67-1.6-.86,2.07-1.24,1.08.43,2.73.77,3.48.09,2.17-.53,1.68-.9.76-.06,2,.72,2,0L113.5,48l2.44-1.33,2,1.14,1.89.62,1.69.34,4,.14,1.37-.48,2.12,1,2.91.53,3.06-.09,1.93-.29,2.54,1.24,3.2.91,3.38.05Zm-3.53-6.17-.14.62-1.27,1-.85,0-.13.29-2.08.15-.38-.05,1.42-1.53,1.64-1,1-.14ZM140,41.21l-.14,1.53-.29,1-.94,2.73-.56.28,0-3,.42-2.15.76-.81.41.13Zm-3.9,3.49.56,1.15h-.47l-1.47-.62-1.41-1.15-.13-.77.46-.42.48.09Zm-4.24,3-.43.06-1.54-.48.65.09ZM129.63,47h-.43l-1.41-1-1-.06.23-.42-.32-.72.14-.86.84-.24.61.38-.27.81-.06.81Zm-5.22-.24L125,47l-.28.09-.28,0Zm-2.21-5.15v.7l-1.37,1.44L119,44.89l-.76-.19.67-1.28,1.27-1.4.84-.57.84-.09Zm-5.55-1.3.32.81L116.65,44l-.57,1.38h-.19l-.37-.62-2.08-.3-1.64-.8-.71-.91.1-.44.9-.27,1.59,1,1,1.14.57.05.05-3.88.41-.43h.57ZM105.07,45.9l-.42,0-.89-.24-1.28.82-.22,0,.56-.24.89-.86-.56-.81-.05-.77.38-.39.61-.09.65.53-.47,1.48Zm-7.15-3.49.06.68-.48.81-1.73,1.23-1.18.1.47-1.53,1.36-1.24.94-.34Zm-4.56-1.1.15,2.92-.29,1.24-.33.19-.47-.81-.52-2.68L92,40.46l.76-.2Zm-1.68,4.11-.15.24-.47.19-2.26-.28-1.23-.77.24-.63.85-.24,1.32.2Zm-2.55,4.34.85-.28-.38.39L87.1,51l-4,1.39-2,.15-.7-.83L79.67,50l2.5.62h1.5l2.08-.19Zm-6.86-1.28v.19l-.2-.1Zm-.48,0v.14h-.33Zm-1.22-.23.38.18L80,48Zm-1.46-2.11.09.86-.18.62-.15.15-.7-.39,0-.66.56-.73Z"/><path class="cls-6" d="M48.17,289.07h92.18l-.09-.2-2.87-3.29-4.37-6-4.11-6.54-2.67-4.69c-16.43,5.13-37.21,4.4-54,1.77L70.37,270l-3.64-.68-2.53-.42-.85-.33-.56.33-3.15,5.74-4.76,7-4.18,5.11L48.21,289m82.93-11.14-.66.52-.76-.1-.19-1.19-1.07-.81.89.18.32.3.09-.15.67.24Zm-2.08-4,.14.52-2-.57-2.82,0-.33-.06-1.55.24-2.73.72h-.15l-.7.29-.28-.05,3.58-1.67,3.89-1.25,1.47-.19Zm-7.8,5.68v.57l-.47.39-1.84-.24-1.45-.9-.06-.58.89-.1,1.79.2Zm-4.2-4.39.67.14-2,1.2c-3.42-1.16-7.28-1.85-10.64-.06l-.38.3-.89.18-1.08-.42-1.5-.33-2.88.13-3.67.53L93.08,278c-2.87-2-8.22-2.95-11.38-1.63-3-1.84-6.72-1.77-10-1l-2.22-1.25-3.3-.9H62.23l-1.52.47.81-1.81.94-.52,1.83.33,2,.24,2.17,1,2,.91.85-.14,1.12-.82.29.53,1.17,1.05,3.62-.57H82.4l3.91.81.56.29,2.06.67,1.14.57,1.18.19,1-.71.7-.48.61.72,1.32.75.85-.33,3.94-1.19,3.49-.57,3.38-.15,2.17.09,4.42,1,1.12,0,1.14-1.34Zm-.18,6.65.14,1.62-.56.66-.48,0-.46-1.15v-3.39l.42-.53Zm-2.58-2.26-.42.92-.76.95-1.45.85L111,282l.14-.81,1.5-1.48,1.09-.39Zm-8.47.57v.73l-.47.33-1-.05-.18-1,.43-.62-.57-.72,1.13.3-.1.47Zm-8.14,1.54.19.52-.38.29-.79.1-1.32-.82-1.56-1.67h.89L97,281Zm-4,1.43-.09,1-.56.77-.8-.38-.34-2,.23-1.66.72-1.48.33.71ZM90.59,280l-1.08,1.82-1.32,1.29-1,.29-.47-.29.19-.91,1.41-1.43,1.41-.81Zm-8.37,0-.09.66-.29.24L81,281l-.47-.59.47-.81,0-.33-1.7-1.38-.85-.29,1.65.53,1.08.81h.71l-.09.62Zm-6.64.81.14.81-.56.33-.85-.28-1.79-1.82-.23-.77,1.7.48Zm-5.17-2.63.43.24v1.43l-.53,3.53-.7.77h-.42l-.25-.77.34-2.42Zm-1.47-.44-2,1.87-.76.57-1.22.24-.57-.38v-.81l.85-.66,1.65-.78Zm-8.32-1.86.71-.09L61,276l-.1,1.19-.71.68-.94-.24-.13-.82Z"/><path class="cls-6" d="M111,165.76l.66-2.24,0-1.15-.47-1.82-1-1-1.27,0-.56.87.15,1.43-.1,2.06,0,2.15.62.42.94.06m.9-4.31-.38,1.86-.67.87.33-1.2,0-1.14-.52-1.87.56.2Z"/><polyline class="cls-6" points="110.39 156.01 111.09 155.1 111 154.34 110.53 153.67 109.5 153.58 108.92 154 108.83 155.01 109.54 155.86"/><path class="cls-6" d="M110,172.31l.7-1.1-.18-1.05-.8-.77h-.9l-.79,1.1.38,1.29.75.57m-1-10-.09-1.45-.38-1.43-.8-1.86-1.32-1.29-1.23-.2-1.12.39-1.5,1.76-.66,2.39-.14,1.54.18,3.77.57,2,.94,1.39,1.13.85-1.13.15-.8.81-.47,2,.38,1.57,1.55,1.34.71,0,1.21-.09,1.14-1,.56-1.29-.09-1.48-.34-.76L105,170.31l1.22-1,1.22-2,.76-2.92Zm-1.46-2,.14,1.06-.14.57c-.55-2.95-2.32-3.51-3.34-.77l.06,4.87,1,2.21-.47-.06-1.09-1-.6-2-.14-3.15.27-1.28.9-2.15,1.22-.63,1.28.48ZM105.64,173l.19.86-.85.85h-1.6l-.79-1.09v-1.06l.32,0,.38,1,1,.62.75-.2Z"/><path class="cls-6" d="M107.24,153.91l.29-1.19-.47-1.58-1.09-1-.94-.24-1.41.29-1.41,1.39,0,2,.28.85.75.86,1.28.63,1.45-.34.85-.71m-.15-2.73.15.91-.29.18-.13-.81-.71-.57-1.17.06-.52.71-.1,1-.47-.2,0-1.38.89-.72,1.57.15Z"/><path class="cls-6" d="M100.42,162.46l.38-2.06-.11-.61-.83-.86-1.23.18-1,.87-.52,1.25-.24,1.85.38,1.64L98.73,166l1.22.15.61-.38m-.8-1.2-.1.53h-.51l-.61-.57-.47-1.3.09-1.71.57-.92-.14,2.15.47,1.16Z"/><polyline class="cls-6" points="99.95 156.54 100.56 155.73 100.47 154.43 99.91 153.82 98.77 153.67 97.88 154.29 97.92 155.73 98.73 156.54"/><polyline class="cls-6" points="99.62 171.21 99.77 170.49 99.66 170.01 99.01 169.39 98.07 169.39 97.45 169.96 97.31 171.12 98.3 171.98 99.15 171.93"/><polyline class="cls-6" points="39.79 120.51 39.55 119.88 37.25 121.03 34.62 122.7 34.62 138.29 38.8 145.73 39.41 145.73 38.56 139.48 38.33 134.5 38.47 128.2 38.89 124.56"/><path class="cls-7" d="M95.66,269.33c-10.45-.3-21-.94-31.13-3.78l-1,2.1-.62,1.59c9.79,2.43,22.78,3.47,32.84,3.86l4.23-.19,8.23-.29,1.36-.24,7.24-.81,6.73-1.38,1.32-.48,1.17-.24.57-.38-1.8-3-.27-.43A101.47,101.47,0,0,1,98,269.37"/><path class="cls-7" d="M83.05,55.46,84.9,58.9c7.48-2.63,18-3.12,26.05-3.4l.19,0,4.1.19,6,.2,5.88.47,4.75.52,4.56.68,7.35,1.67,1.91-3.64c-20.18-4.08-41.51-5.63-61.61-.38"/><path class="cls-7" d="M130.48,109l.37-1-.56-.57-3.67-3.25-.94-.14-2.92,2.39-4.14,2.58-.75.91-1.13,2.1-3,6.73-3,8.75-2.91,10-1.45,7.17,8.85.24c3.56-12.59,8.6-23,14.67-34.47"/><polyline class="cls-7" points="173.65 184.3 173.65 164.13 172.53 163.99 172.57 165.24 172.24 166.38 171.3 167.35 170.18 167.72 170.07 168.4 171.35 169 172.15 170.35 172.01 172.73 171.68 173.54 170.59 174.41 168.39 174.55 170.79 179.48"/><polyline class="cls-7" points="167.3 191.91 167.63 190.62 166.97 184.88 166.6 186.46 165.09 188.12 164.24 188.36 163.92 188.89 164.48 189.08 165.98 189.85"/><polyline class="cls-7" points="166.79 196.72 167.03 196.12 166.89 195.29 166.41 194.06 165.04 193.14 163.87 193.1 162.98 193.39 162.04 194.09 162.04 194.44 163.78 194.09 165.04 194.59 165.85 195.91 165.66 197.02 165.28 197.97 165.66 198.06 166.6 197.25"/><polyline class="cls-7" points="166.03 203.32 166.83 200.22 166.36 200.36 165.89 201.08 164.62 202.03 162.51 202.51 162.32 202.99 163.16 203.37 164.1 204.24 164.86 206.19 165.04 206"/><polyline class="cls-7" points="165.56 182.92 166.13 181.1 165.85 179.81 164.19 178.56 162.6 178.56 161.06 179.43 160.39 180.49 160.44 181.06 161.71 179.91 162.83 179.76 164.19 180.25 165 181.54 164.91 182.53 164.44 183.45 164.58 183.78"/><polyline class="cls-7" points="163.26 174.7 165.15 175.71 162.51 170.11 162.65 171.21 162.36 172.16 161.1 173.98 161.19 174.46"/><polyline class="cls-7" points="163.78 147.22 164.68 146.03 164.53 144.5 163.74 143.97 163.54 145.97 162.93 146.74 162.23 147.03 160.48 146.83 159.59 146.3 158.8 145.11 158.74 143.4 159.4 141.76 160.72 140.48 162.13 139.9 164.44 139.57 164.68 139.28 164.71 125.71 164.62 122.13 163.83 122.99 162.74 124.52 158.93 130.49 154.66 138.18 154.66 139.37 157.33 147.5 157.62 147.6 159.31 147.84 162.74 147.64"/><path class="cls-7" d="M161.89,187.37l1.13-.3-.28-.38-2.73.1-1,.58-.94,1.19.18,2,.58.63,1,.52,1.36.1-.71-.57-.8-1,.06-1.62.6-.62m-1.74-4.45,1-.71-.52-.39-1.5-.19L156,181.06l.52,2.15.62,3.58.52-1.3Z"/><polyline class="cls-7" points="161.66 201.03 161.99 200.8 160.06 199.79 158.7 199.5 157.71 200.03 156.92 201.26 157.05 202.95 157.95 204 158.65 204 158.13 203.04 158.31 201.61 159.45 200.69 160.57 200.66"/><polyline class="cls-7" points="160.16 208.48 161.06 208.25 160.48 206.81 159.54 206.34 159.36 206.63 159.88 207.63"/><polyline class="cls-7" points="158.83 196.98 160.3 196.25 160.21 195.87 159.12 195.16 157.24 192.2 157.01 196.2 156.81 198.63"/><path class="cls-7" d="M159.68,169.73l.85-1.19c-.49-2.35-.36-3.52-2.91-3.78l-1.41.42-.58.24-.74.68-.47.66-.09.92.32.13.71-1.05,1.08-.85,1.6.24.89.76.56,1.1-.37,1.62m-5.37,1.76.67-1.32,0-.2-1.6-.09-1.23-.48-1.59-.39,3.33,5.46h.2l.27-1.43Z"/><polyline class="cls-7" points="157.62 173.89 159.45 173.32 159.21 172.88 157.14 173.36 155.45 174.74 155.22 176.41 155.59 177.24 156.92 178.56 158.22 178.61 159.03 177.99 158.74 177.71 157.24 177.48 156.68 176.56 156.63 175.03"/><path class="cls-7" d="M157.14,161.65l.52-.15-2.26-2.57-3-2.92-.79-.33.83,1.19.58,1.82-.19.48-.52,1.76.52.15,1.31-.57,2,.52m-6,5.07,1.56-.44v-.37h-.94l-.94-.15-.94-1.38-.06-1.54.67-1.47.65-.57.1-.49-.57-.14c-2,2-4.11,4.31-.79,6.4Z"/><polyline class="cls-7" points="155.96 207.68 156.44 207.53 155.54 204.99 155.13 203.95 152.86 208.58 153.15 208.58 154.98 207.73"/><path class="cls-7" d="M148.4,155.53h.41c.51-4-6.32-5.64-6.06.48l.38.2.33-1.3,1.55-1.29.71-.24,1.23.24,1.12.91"/><polyline class="cls-7" points="139.41 159.5 144.87 163.27 144.54 162.57 144.2 159.11 144.63 158.4 144.16 158.07 143.13 158.74 141.34 159.31"/><path class="cls-7" d="M144.16,150.23l.47-.34-.23-.14-5.65-2.68-2.11-.71.61.71,1.22,1.82.24,2.1.42.24,1.41-1.14.85-.53,1.13-.1m-2.07,5.79.18-.77h-.37l-1.36,1h-1.32l-.71-.33-.9-1.1.11-1.78,1-1.62-.33-.48-.33.24-1.32,2.48-.18,1.63.33,1.09,1.26,1.1,1.94.24.94-.42Z"/><path class="cls-7" d="M131.75,218.62l.13,0-1.5-2.59-2.21-3.53-1.32-3.11-2.12-3.49-3.38-7.65-3.06-7.94-3-10.17-8.52-.14c.72,12.49,6.57,26.08,13.35,36.41,3.26-.86,6.89.68,10,1.34"/><polyline class="cls-7" points="101.65 183.3 102.39 180.49 102.21 179.76 92.85 179.72 92.24 181.81 89.98 188.27 86.58 197.11 81.04 208.3 79.07 211.65 77.89 213.56 76.57 215.23 75.87 216.52 77.37 217.14 79.4 218.52 82.45 221.92 84.33 219.68 87.95 216.9 90.25 215.65 93.36 209.2 96.6 200.6 99.24 192.24"/><path class="cls-7" d="M93.08,144.78l8.28,0c-.53-13.11-6.07-25.54-12.94-36.43-4.59.1-8.15-.92-12.55-2.1l1,1.91,1,1.38L79.3,112,81,115.11l5.55,11.47,3,7.59"/><path class="cls-7" d="M72.14,173.45l1.42-2.29-.1-1.33-.41-1.25-1.23-1-.94-.19-1.74.43-1,.58-.52,1,.13.52,1.51-1.14c3.94-.09,3.15,2.66,1.83,5.16l.47.19m-1.07,3.29h.18l-.66-1-.7-3.25-.48,0-1.59,1.33-1.32.43-1.13,0,.19.33Z"/><polyline class="cls-7" points="68.81 164.96 69 164.81 68.11 164.28 63.59 160.84 64.02 164.52 63.59 165.66 63.82 166.04 65.61 165.24"/><polyline class="cls-7" points="64.63 171.3 65.47 169.35 65.38 168.05 64.91 167.68 64.58 169.11 64.06 170.07 62.97 170.73 61.76 170.73 60.67 170.31 60.02 169.3 59.73 168.4 59.35 168.63 59.35 170.07 59.59 171.16 61.47 172.5 63.31 172.55"/><polyline class="cls-7" points="60.2 163.08 61.1 161.37 60.71 159.41 59.35 158.36 57.33 158.16 56.44 158.54 56.53 159.02 57.85 158.93 58.5 159.31 59.44 160.79 58.97 163.03 58.03 164.13 57.99 164.57 58.32 164.66"/><path class="cls-7" d="M58.93,155.82l0-.14L57,153l-2.13-3.12L54.32,153l-.56,1.09.14.33.8-.13,1.09.33.94.18m-4,4.12,1.13-1.87-.1-.71-.33,0-.32.52L52.21,158l-1,.28-1.3-.24-1-1.09-.14-1.58.57-.77.23-.61-1.31.81-.67,1.33.06,2,1.69,1.34,2,.24Z"/><polyline class="cls-7" points="53.62 166.57 56.44 169.15 55.5 166.96 55.22 165.24 55.88 163.71 55.59 163.03 54.56 163.52 53.56 163.56 51.73 163.14 50.52 162.61 51.27 163.95"/><polyline class="cls-7" points="53.94 118.16 55.31 115.34 55.22 115.05 53.71 115.97 52.87 116.34 51.7 116.54 51.88 117.25 53 120.88"/><path class="cls-7" d="M53.62,185.88l-.38-1.58-2.45-7.54-.66-.29H48.26l-2.78.09L44.3,177l-.84,1,0,1.82.8.14.14-1.44.29-.66,1.45-.72,1.74.43.9.82.62,1.77-.34,1.48c-1.58,2.93-3.06,2.67-5.6,3.1l-.09,3.1,0,14.3.56-.53L45.29,200l3.62-5.54"/><polyline class="cls-7" points="53.15 148.36 52.53 146.93 51.73 146.06 50.32 145.79 49.24 146.21 49.62 146.54 50.89 146.69 51.55 147.94 51.45 149.04 50.94 149.99 48.68 150.84 48.82 151.28 51.08 151.08 52.26 150.57 53 149.42"/><polyline class="cls-7" points="50.13 141.81 51.88 142.72 51.03 137.47 49.76 140.24 48.68 141.15 48.63 141.67"/><polyline class="cls-7" points="50.98 129.3 51.73 125.18 51.55 125.09 51.21 125.62 50.23 126.58 48.02 127.77 47.83 128.14 49.48 129.68 50.74 131.97 50.89 131.87"/><polyline class="cls-7" points="50.98 123.08 51.21 122.08 51.08 121.21 50.18 120.07 49.53 120.22 50 121.36 49.91 122.27 48.59 123.47 47.41 123.23 46.18 123.08 46.33 123.6 47.12 123.89 47.97 124.42 49.76 124.42 50.79 123.6"/><polyline class="cls-7" points="49.06 136.98 50.04 135.46 49.38 133.31 48.21 132.35 47.12 132.31 47.08 132.7 47.59 132.88 48.49 133.89 48.35 135.22 47.92 136.08 46.65 136.74 45.38 136.94 45.1 137.42 47.92 137.37"/><polyline class="cls-7" points="48.63 117.73 48.68 117.44 48.02 116.1 46.65 116.78 47.55 117.63"/><polyline class="cls-7" points="46.56 145.11 47.88 143.68 47.69 143.06 46.14 144.3 45.01 144.41 43.74 143.82 43.22 142.96 43.18 141.63 43.59 141.06 43.83 140.57 43.27 140.48 42.09 141.76 41.8 143.73 42.42 144.98 43.41 145.49 45.15 145.6"/><polyline class="cls-7" points="46.74 150.47 47.08 149.94 46.7 149.65 44.59 149.37 42.89 148.75 43.32 150.13 44.12 152.14 45.2 154.24 45.57 152.66"/><polyline class="cls-7" points="44.73 130.77 46.09 130.16 46.09 129.81 44.12 129.96 43.18 129.63 42.38 128.62 42.38 127.29 42.85 126.43 42.85 126.05 42.29 125.99 41.8 126.28 40.97 127.62 41.11 128.97 41.44 129.68 42.42 130.64 42.94 130.88 43.13 130.92"/><polyline class="cls-7" points="45.57 121.56 45.71 121.12 45.06 120.79 44.07 119.92 42.98 118.12 42.75 118.12 41.39 122.94 41.2 123.95 41.48 123.8 43.13 122.22"/><polyline class="cls-7" points="43.07 135.99 44.12 135.6 44.03 135.18 42.38 134.59 40.26 131.83 40.35 137.37 40.68 139.28 41.86 137.28"/><g class="cls-8"><polyline class="cls-7" points="39.32 149.79 39.65 149.61 37.34 144.87 34.62 140.44 34.62 158.12 35.42 158.16 36.77 156.82 38.09 156.49 38.09 155.77 36.59 155.25 36.07 154.06 35.98 151.67 36.27 150.9 37.62 149.75"/><path class="cls-9" d="M91,279.93l-.18-.38-1.14.2-1.74.9-1.37,1.67-.13,1,.75.48,1-.15,1.5-1.34m25-2.67-.18-.47-1.32,0-1.27.67-1,.91-.38,1.24.57.63h.93l1.32-.81ZM93,279l-.33-.05-.34.44-.65,2.86.14,2.06.65.85,1-.09.57-1.48-.38-3,2.44,2,1.09.38,1.07-.53-.51-1.25-1.65-1-2-.61-.66.33Zm-18.35.72-2.55-1.1-.41.23.28.83,2.45,2.48,1,.18.65-.62-.18-.95Zm45.54-1-1.32-.33-1.79.24-.1.52.71.76,1.69.87,1.69.05.57-.53,0-.62-.38-.43Zm-4-.09-.48-.29-.28.53-.22,3.2.32,1.72.37.58.19.18h.8l.62-1-.29-2ZM71,277.88l-.47-.15-.47.63-.94,2.39-.52,3.06.47.67.81.09.65-.62.65-3.59Zm-1.41,0-.28-.48-2.26.15-1.51.57-1,.53L64,279.84l.62.81,1.12.15.89-.33Zm44.27-.19-2-.71-2.5,0-.61.24-.51,0-2,.62L105,278.93c-2.11-1.86-7-1.6-9.17-.1l.23.34,2-.48,2.93-.33,2,.33,1.52.86-.38.33-.24,1.16.47.51h1.32l.61-.6-.19-.92-.66-.43.9-.91.85-.37,1.59-.48,2.54-.15,1.84.43.9.57.46-.09-.09-.48Zm-35.14-.47-2.45-.54-3.15.24-.67.44.25.33,1.41-.29,2.86.09,2.35.77,1.47,1.2-.38.47-.05.87.47.48,1,.09.76-.66-.1-.72-.47-.57.8-.68,2.44-.57,2.32-.09,2.11.38,1.45.85.53-.24-.85-.85-2.16-.67-2-.24-2.83.24-2.39,1.19-1.84-1.14Zm-16.13-3.64,2.67,0,2.59.47,2.35.91,1.32.77,1.88-.24h4.15l1.87.24.8.28,1.31.77,1-.24,1.63-.29,3,.09,2.49.53,2.16.9.95.73h.46l.2-.34,1.88-1,1.74-.14,1.73-.39,3.3.05,2.11.81c2.8-2.31,8.14-2,11.2-.53,3.14-1.54,9.77-4.08,13.08-2.28l.89,1.62-1.27-.53-2-.43-3.3,0-2.64.68-1.93,1.2-.09.71.67-.24,1.88-1,2.35-.66,3.57.05,1.37.43,1,.57.33,1.34.52.33,1.18-.14,3.38,4.64.85,1.57,1.78,2,.75.95.47.71q-43.78.24-87.58.05l3.44-4.15,4.65-6.7.52.53.85.14.8-.58.33-1.48.14-.13,1.88-.48,1.41-.15,3.06.39,1.74,1.23.38,0-.15-.68-2.07-1.34-2.63-.18-.18-.09-2.88.38-2,.76.33-.76.85-1.2Zm.32-2.82.66-1.15,2.07.49,4.71.81,3.33.48.19.24.33-.15,5.31.63,4.52.47,2.35.19.29.05,7.56.28c10.71.1,21.23-.41,31.57-3.49l.89,2-5,1.68L118,275l-.88,0-1-1-.79-.33-.53,1-.7.7h-.47l-4.8-1-5.26-.1-.58.19-1.77.24-4.2,1-1.68.61-.71.05-.67-.33-.7-1.25h-.37l-1.75,1.4L87,274.68l-4.28-1-4.56-.14-1.92.24-2,.47-.66-.28-1-1.67-.7.72-1.18.66-2.15-1.1-2.5-.95-3-.43ZM64,268.67l2.15-4.89c18.47,3.65,38,4.63,56.41.15l2.62,4.83-.09.18-.47.19-5.17,1.25-1.88.38-2.45.33-1.12.24-4.57.48-1.22.19c-11.85,1-22.84.08-34.62-1.33l0-.11-6.3-.85L64.15,269Zm2.62-10.43,1.18-1.48,1.27.71,2.31.87,2.77,0,2.82-.85.15.27v.39l.18,2.3c-5-2.55-5.38,2.68-10.62-1.25ZM69.23,257l-.38-.72c2.7,1.16,5.64.82,8.38.14l-.28.43-.76.15-2.3.71-2.73-.09Zm-2.35,0,.38-2.69.7,1-.23.25Zm31.8-2.69-.43-.05-1.87,1.05-3.11,1.25-3.2.53-1.88-.29-1.88-.43-.09.43.27.24,1.05.29,2.71.28,2.79-.24,2.91-1,2.82-1.63Zm-16,.06-.33-.15-.09.76.94,3.3-.47,4.16.47,0,.47-.48,2.12-.76c4.44.31,7.29,1.81,11.66-.71l2.36-2.25.61-.82,0-.66-.14-.19L97.65,259l-.94.44-3.35.66-2.53-.57-2.64-.33-2.26.43-1.83.95-.24-2.78Zm-6.63-.68-.47-1.05,1.32.77.94.33v.48l-1.55.61Zm-7.43-.77,1.64-.48-.52.92-.32,1.25-.62-.3-.94-1.05Zm-3.62,0,.18-.66,1.27.9v1.67l-.28.34-.32-.24Zm21.31-.39,1.69-.42-.38,1.77v.28l-.75.1-1.17-.53-.34-1Zm-15,0,.9-.42,1.92.19,1.37,1.67v.81l-.23.24-.58-1.57-1.41-1-1.31.19-.94.86-.38,1.1-.43,0,.29-1.14ZM94,253.89l-.58-2.15.85.14L96.09,253l-.61.33ZM89.6,251.5l1.36-.24,1.14.29.79,1,.24,1.34L93,254l-.7-1.85-1-.59-1.08.06-.94.66-.66,1.49,0-1.44ZM63.82,254l-.09-3.24.7.61.1,1.64.56,1.71,1,1.19v.68l-.38,1-.94-1.2Zm30.3-2.87-2.26-.51-3.38.33-1.79.81-1.89.14-.37.34.14,1.19,1,1.44L85,256.19l-.29,2.19.38.1.52-1.52,1.13-1.11c9.47,1.06,6.81-1.8,13.31-2.82l-.09-.48-.57-.28-2.54.33-1.36-.92Zm-31.89-1.47.32-.62.76.95L63,251.11l.15,2.92,1,2.34.19.39,1.07,1.39.4.37-.15,1.4h-.43l-1.32-1.64-1.17-2-.6-2.82Zm-1.23-2,.43-.46.51.94-.38,1.3-.13,4,.65,3,1.27,2.39L65.66,261v1.49l-.75-.33-1.74-1.62-1.79-3.3L60.62,255l-.18-4.35Zm30.81-1.32V246l-1.13.19-3.25,2.1-2.59,3v.42h.43L87.81,249l1.84-1.58Zm-5.45-4.74-1.41-1h-1.7l-1.55.81H79.63l-.56.43L79,242.9l.57.42,1.37,0,2.87-2.09,1.27.23.89,1.2,0,.42-.67,1H84.14l-.37-.39-.57-.33-.15.81.85.68,1.28,0,.84-.39.61-.95.15-.66Zm-20.1-2.34,0-2.06,1.42,1-.57,2.53Zm-1.68-.33-.15-3.07.76.44.28,2.19.7,2.2.76,1.1v1.48l-.29.38L65.56,242ZM94.49,235l-2.16,0-5.6,1.72-3,.34-.47.47v.76l.61.53.89.24,1.7,0,4.61-2.15,2-.63,2.17.11L96,237l.34,1-.1.58-.71.72-.89.09-.52-.33-.09-.92.29-.28H95l.33-.33-.85-.58-.85.2-.46.85.18,1.53,1.18.76,2.12-.33.61-1.58-.11-1.1-.32-.76-.75-.86Zm-18.82,0-2.62-.9-2.26.18-1,.63-.56,1.14.1,1.2.75.76.65.28,1.18-.18.9-1-.09-.7-.47-.11-.67,1.1-.7,0-.62-.38-.09-1.2.8-.66,1.75,0,1.45.53,1.93,1.29,2,1.1h1.74l.65-.62,0-.77-.56-.63H79.3l-2.22-.61Zm-13.39.44.27-2.3,1.32,1.57-.09,3.58.33,1.54,1.21,3.06,1.18,1.67.23.24-.23,2.06-.75-.77L64,242.84l-1.17-3.38Zm15.09-2.68-.94-.48-.29.24.11,1.91.23.33.69-.33,1.14-.05,2,1.19.94.2.74-.67.62.34,1.17.42,2.31-1.28,1.42-.2.7.62.47-.24,0-.57.47-1.29-.42-.58-1,.58-2.68-.14-1.5.24-.52-.15-.94-.33-1.13.71L79.63,233ZM84,231l-2.54-.33-1.23.42-.85.78.1.66,1-.66,1.54-.39,1.56.29.75.57.57-.14-.06-.38Zm-23.34.44L61,230l1,1.92c-1.44,5.52.79,11.84,4.47,16l.09,1.58h-.23L65,247.86l-.9-1.43-2.36-4.82-1-5.07Zm.76-3.55.47-.14,1.64,3.64L65.23,234l2.59,1.91-.14,1.29-.51-.18-2.32-2.21-1.92-2.63-1.26-2.81Zm1.5.63v-.9l2,3.14,1.88,2,1.43,1-.11,1.31-.47-.11-2.35-2.19-1.12-1.49Zm-3.53.24.53-1.34.7.47c-1.77,7.82-.11,16.92,6,22.47l0,1.58-.56-.15-1.92-2-2.26-3.73-1.88-5.26-1-4.78,0-4.73Zm4.67-.39L63.64,227l1.64,1.86,3.44,2.54-.38,1.43-.7-.15-2.12-2.09Zm40.87-.57.61-.86-1,4.45-.43,4.11-.28,9.75.09,7.55-.28,7.26-.66,4.36-.65,1.38h-.9l.61-1.91.8-4.93v-8.55l.14-14.24.8-4.88ZM64.34,226.7l0-.86,1.23,1.1,1.93,1.43,1.22.52v1.54H68.2L66.41,229Zm1.51-.44-.38-.61.43.14.94.23,2.06.72-.05,1.3-.74-.11-.71-.62ZM107,224.74l.75-.87c-2.29,5.43-2.5,15.69-2.35,20.9.12,4.4.71,18.39-1.27,21h-1c3-12.33-.24-24.58,2.53-37.46Zm22.2-.43,2.41-.68,3.33.53L136,225l1.32,1.43.85,2.68v1.71l-.23,1.11-1.09,2.2-1.68,1.38c-4.73,2.44-9.11-4-4.43-6.45l2.16-.1.42.39-1.59.19-1,.91-.28.76-.14,1.49.36.75,1.14.92,1.6.24,1.46-.39,1.32-1.19.36-1,.38-.24-.38-2.72-.65-1.49-1.7-1.43-1.83-.47-2.77.19-1,.48-1.59,1.28-1,1.73-.66,1.8-.46,3.16-.24,4.6-.34,9.36-.56,6.65-1.21,6.93-.72,1.43-.51,0-.09-.81,1.36-8.65.28-5.45.14-8.55.48-4,.18-2.58.8-3.59,1.7-3.24,2-1.67Zm-20.5-1,1.13-1.57-.15.75-.23.3-1.56,5.68-.32,3.25-.48,10.18.15,3.68v4.21l.09,8.6-.71,6.45-.51.77h-1c2.83-11.87-.85-25.87,2.35-38.86Zm20.74-1.63c6.9-1.29,10.81,3.32,10.31,10.14l-.94,2.73-1.32,1.56-2.26,1.35L134,238l-3,0-2-.86-1.18-1.34-1-1.91-.14-3.44a5.21,5.21,0,0,1,7.47-3.59l1.18,1.14.7,1.68-.09,1.67-.47,1.43-1.45,1-1.79,0-1-.95-.1-1.29.53-1,.74-.33h1.09l.85.86.5-.86,0-.53-.56-.9-1.7-.63-2.06.24-1,.66-1,1.45-.38,2c.89,3.55,3.33,4.73,6.76,3.94l.85-.35,1.85-1.62,1-1.82.57-2.81-.38-2.35-1.23-2.3-2.24-1.57-2.64-.62-2.83.29-2.49,1.09-1.65,1.73-1.7,3.2c-3,11.16-.32,22.82-3.52,34.31l-1.08.19c.6-5.15,1.69-9.6,1.69-15.09,1.07-8.38-1-16.39,3.82-23.95l2.3-2.06Zm-2.12-1.67,1.32-.42,3.67.09,1.74.53.89.86.14.33c-4.13-1.64-9.81-.15-11.76,4.21l-1.5,3.82-.94,5.06-.29,4.12-.18,9.94-.85,8.37-1.36,7-.38.14-.38-.05a140.64,140.64,0,0,0,1.7-21.69l.42-4.4-.09-1.25.65-6,1-4.21,1.09-2.15,1.32-1.73,2.06-1.85,1.09-.24Zm-15-.48.52-.09-.29.24L111,223l-.89,3.25-.71,4.78-.23,10.15.09,3-.09,1.52.09,2.15.11,9.19-.58,7.17-.51,1.19-1.14.09c1.51-6.58.56-13.38.71-20.07,0-7.06-.35-19.35,3.76-25.42Zm-51.78.81,1.59-.95,1.74,0,1.7.62,1.59,1.71,1.61,3.41v.67l-1-.15-2.86-1.24-.62-1.58-1.55-1.38-1.69.09-1.12.86v-1.1Zm54.22-2.19,1.18-.44c-8.77,10.36-2.44,33.77-5.68,47.33l-.71.09-.24-.05.51-3.82.11-11.24-.11-5.73v-4.49c.39-6.72-.29-14.11,3.53-20Zm13-.38,1-.39,2,.62,1,.68,0,0-3.58.43-.24-.1-1.93.77-1.36.76-2.44,2.44L121,224.79l-1.08,3-1,6.84-.48,8.75-.14,4.48-.51,9.19-.47,3.35-.65,3.67-.76.52c2-8,.8-17,1.5-25.22-.11-6.59.44-19.08,8.38-21.33Zm-3.67-.48,3.06-.39-.33.24-1,.2-1.46.48-2.17,1.38-1.47,1.52-1.45,2.45L118.11,226l-1,5.65-.41,8.88-.24,11.94-.23,4.69-.33,3.86-.76,3.5h-.51c2-12.25-.08-25.56,1.69-37.47l1.5-4.2L119.9,220l2.72-2Zm-5.65-.43,2.17-.53,1.51.06c-5,.34-7.46,5.55-8.24,10l-.79,6.21-.15,4.4.09,7.55v4.21l.1,8.79-.8,6.74-.42.77h-.8c3-11.68-3.34-38.17,5.65-47.09Zm4.52-.53.85,0,.28.14c-4.73,1.86-7.38,5.42-8.47,10.42-1.94,12.38.8,25.54-1.79,37.84l-1,.15c3.09-12.64-2.57-34,4.56-45.16l2.93-2.24,2.24-.48Zm-59.12-1.53,3.48-.57c4.93,1.51,7.52,8.47,8.32,13.1l.47-.25-.33-2-1.26-4-1.88-3.49-3-3.2,1.36.38.14.34.43-.09,1.36,1.38,1.5,2.11L76.14,222l1.52,5.11.47-.09,0-.95-.94-3.64L75,218.1l-1.78-2.63.8.24,1.68,1.71,1.18,1.82,1.64,4,.85,3.68h.58l0-.91L79,222.44l-1.68-3.68-1.09-2,.57.14,1.41,1.58,1.75,3.55L81,226.94l.56-.2,0-.9-1-4.06L79,218.48l.51.34.24.18.89,1.25,1.13,2.63.52,3.77.18.2.47-.26-.23-2.09-.46-2.69.37.06,2.4-2.58-.61,1.2-1.27,4.1,0,2.2.34.33.32-2.42.57-2.5,1.88-3.29L89,216.28h.43L88,217.86l-2.55,4.67-.8,3.21.18,1.38.43-.14.19-2.58,1.37-3.19,2.1-3.31,2.22-2,1.79-.9,2-.48c-3.55,1.92-9,8.2-8.47,12.47l.2.14.32-1.23.85-2.44,1.88-3.07,2-2.52,2.86-2.35,1.23-.48,2-.33,1.88.44.1.28c-4.71.49-4.93,1.26-8.52,4.68l-2.21,3.63-1.08,3.36.37.37c1.37-4.81,4.59-9.37,9.36-11.09l2.73-.18,1.93.61,1.83,1.63,1,1.49v.57c-5.71-7.58-14.42.2-15.29,7.26h.33c1.24-4.08,4.83-9.67,9.6-9.65l1.36.24,2,.85,1.36,1.57.66,1.64.14,1.19-.75,2.58-1.88,1.72-1.13.43H100l-1.32-.62-1-1.38-.33-1.44.56-1.62,1.23-.91,1.18.23.7,1-.1.58-.57.91-.7-.05-.42.2V226l1,.81,1.69.06,1.23-1,.66-1.43.19-1.16-.85-2.09-1.13-1-1.64-.77-1.6.2-2.22.75-2.12,2.06-1.26,1.86-1.45,3.11.13.86L93,225.79l1.56-2.49,2.12-2.06,1.17-.57,1.12-.33,2.13.19,1.22.77,1,1.71-.14,1.2-.52,1.15-1.18.76h-1l-.09-.28.7-.34.66-1.24-.38-1.73-1.31-.85-1.66.28-.89.53-1.88,1.77-1.74,3.05-.52,1.63.38.1,1.08-2.3,1.7-2.39.19,1-.1.91-1.35,2.43-.25,1,.43.09.38-.95,1.12-1.63.76.63-1.18,2.34.24.38.32-.24,1-1.91,1,.48L98,231.1l.24.71.38-.91L100,229l.74.26-1.22,2.33-.23,1h.33l1.22-2.15,1.17-1.44,1.14-.33-.43.52L101,232.47l-.38,1.73.38.09.47-1.52,1.84-3.35.24-.09-1,4.19-.62,7.76.2,8L102,252l.15,3.39-.57,6.41-.85,3.43-.56.54-2.58.18-3.68.05L86,265.6l-3.29-.24L80,265.12l-7.2-.72-5.37-1.1-1-.42.09-2.78.67.48,1.77,1.05,1.79.62,2.5-.09,1.93-.57,1.74-.09,1.56.81.41-.15-1-3.58.24-2.78.61-1.62-.1-1.05-1.07-3.83-1.75-6.59,3-1.49L81.09,239l.23-.77-.51,0-1.7,1.53L76.52,241l-1.65.53v.9l2.41,8.75-.94-.68-2.12-2.58h-.33v.34L75,250.16l2.15,2.44-2.53-1.1-2.77-.09-1.7.24-1.59.47-1,.81-.23.06c-1.64-10.6,6.24-22.08.46-31.78l-2-1.82-1.55-.57-1.7-.2-1.83.53-1.17,1.23L58.93,222v1.91L59.4,225l1.13.57.47-.39-.33-.37-.14-1.49.61-.77,1.47.05.79.63.42,1.1-.27,1.58L62.14,227H60.29l-.51-.28-1.42-1.25-.56-1.52v-2.69l.81-2,1-.91c7.52-3.66,12,3.77,12.18,10.6l.43-1-.11-1.63-1.26-4.11-1.45-2.53-2.17-2-2.41-.9-2.53-.15-1.22.39-.66.09-.33,0L61.47,216l1.79-.3,2.64.39,1.36.66,2.44,1.92,1.65,2.2,1.32,2.87,1,4.3.57-.24c-.5-5.31-3.6-12.46-9.79-12.57Zm47.08-4.26,1.08-.13.56.9-.23.48-.56.43-.52.05-.57-.86Zm-12.32-.71.38-.37h.7l.56.71-.66,1.14-.23.15-.81-.48Zm54.61-.14.89-.47.94.33.33.33-.33.38-2.91,1.48Zm1.5-2.86.38-.63.24.53-.49.28Zm1-1.49.29-1.14,1.18,1,1,.42,3.15.24.76.53-.62.43-.65.29-.24-.43-.94-.38-.28.33.61.67-.09.34-3.3,1.71-2.4-1.14,1-.53h.7l.61-.29Zm9.28-2.63.94-.38-.67,2L164.3,203Zm-15.43.53.75-1.15,1.28.47-1.23,3-.94,1.53-1-.77.38-.87-.09-.38-2.35-1.9-.18-.49,1.35.29Zm21.12,0,2.67-1.25v86.65H140.35l-.24-.19-.42-.19-1.79-2-3.15-4.16-1-1.47L128.08,272l-4.71-8.75.95-6.36.84-6.55,0-.8.19-3.73.09-.81,0-.82.14-6.69.33-3.39C130.9,245,146,236.13,139,223.93l-2.77-3.2v-.24l.51-.2,2-.9,2.77-1.64,3-1.19,4.09-1.95,6.82-3.2,1.6-1.11Zm-1.56-.77.61-2.15.62.81.47.82-1.65.91Zm2.17-2.44.43-.09.51.86.14.48-.94.33-.7-1.2Zm-27.75,0,.89-.48.9.39-.06,1.09-.94.47-.74-.51Zm15.14-.62,1.37-.1,2.59.87,2.15,0,1.47-.67.36,0-.78,1.66-1.23.87-1.32.09-.89.53,1.69,1.34.57,1.15-1.65.86-1.18-.86-1.45-.1-2.12-.18-.94-.63-.67-1.52.29-1.58.28,1.81.85,1h.71l-.52-1.1.09-1.1,1-1,.32-.05,1.51.18.94.06-.15-.39-1.73-.81Zm-55.78-.72c3.21-1.29,4.57,1.8,3.39,4.45l-2.92,2.66-.81,1.4.15,2,.75.77,1.09.48h1.74l1.41-.67.7-1.2,0-1-.74-1-1.18.28v.44l.61.71-.57.9-1-.14-.62-1,.2-1.52,1.17-.72,2,.14,1,1,.47,1.43-.14,1-.47,1-1,.81-.14.48,1.74,1,1.14,1.25.84,2.24-.43,1.73-1.21,1-1.56,0-1.08-1.2v-1.33l.51-.53,1,.09.52.58-.09.91h.47l.51-.71-.27-2.06-.62-.86-1.55-.76-1.14-.39-2.91-.05-1.88.57-1.22,1-1.13-.14-.1-.49,2.12-1.43.71-.09.75-.48-.7-.72-.8-1.43,0-1.62.8-2L105,203l.81-1.49-.15-.9-.75-.77-1-.09-.32.42.56,1-.47,1-.8.18-.66-.24-.57-1.34.28-1.14Zm67,.68.13-1.69,1,1.49-.75.57Zm3.19-1.82.23-.24v.86l-.09-.11Zm-21.87.13.61-.37.65.28.25.24-.25,1-.51.27-.75-.57ZM44.39,199.74V197l1.79.13Zm125.79-2.91.7-.72.62.72,1.77,2.39v1.47l-.36.11Zm-22.63,0,.57-1.24h.56l.75.43-1,3.35-.15.62-.43.39-.56-.2-.42-.39.24-.37-.09-.77L142.75,197l.24-.63Zm10.3-.33.14-1.34.81.77-.53.28Zm-54.66-1.2.61-.51h.9l.7.95-.13.85-.48.68-.84-.06-.66-.57Zm-58.84-.62.38-.19,2.92.19-.95,1.63-2.35-.15Zm128.18-.66.51-.72.23.14v1.72ZM44.3,193.72l.24-.95,4.19.13-.34.68-.37.28-2.82.1Zm114.12.43-.24-1.67,1.5.81,2.21-.15,1.52-.61,1.63.09,1.28.77.28.76-.71-.57-.65-.29-.94-.19-1.47.24-.74.57-.05.48,1.83-.24,1.22.48.8,1.43-.61,1.91.48.09,1-.66-.38,1-1.59,1-2.17-.06-2.3-.77-1.74-.09-1.18.66-.14-.57L159,197l1.5-.87-.8-.62Zm12-.24v-1.58l2.72,4-.85.62Zm-66.93-1.77.47-.62h.61l.56.86-.19.72-.47.43-.75-.19Zm41.29-.62.84-.19.71.43,0,.86-.65.52h-1l-.38-.61Zm-100.57.33.29-1,5.46,0-.66,1-.28.29-3.86-.09Zm107.58-.48.28-1.47,1.37.09-.24,4.3-.14.54-.8,0-.38-.34-.18-1-.34-.34-2-.48-.62-.38Zm20-1.52.52-.33.62.33.27.71v1.49l-.94-1.05Zm-1.3,1.1-.1-1.82,2.11,3.2.25.53-.85.53Zm-126.17-.9.11-1.25,6.58.14-.81,1.2Zm121.37-1.34,1.22-1.25.18,1.91-.22.24Zm-121.26-2,4.18,0,3.67.09-.9,1.34-1.41.09-5.5-.18-.29-.29Zm125.82.58-.1-1.39,1.55,2.24.24.77-.66.33Zm1.18-1,.7-.66,1.07,1.52v2.16l-1.21-1.77Zm-19.85-.14.51-.57.7.18.29.92-.23.47-.49.3-.65-.25Zm-116,.67.52-1.57,2.35.14,1.09.24-.47,2.52v3.73l1.36,8.33-.09.27-.33,6.27-1.36,4.83-.81,4-.27,2,.13,4.73,1.79,8.78-.24,4.78-2,9.61-.47,3.11L36.5,247l-.2-3.53,1.38-8.71L37.53,231,36,224.83l-.85-4.54.14-5.45,1.41-6.78,1-5.64L37.48,199l-1.83-7.84ZM148,185.27l1.27-.2.5,2.59.11,1.71-.29.15-1.08-.06-.47-1.34-4.89.39.14-.81,4.24-1,.47-.42Zm-101.38-.2.9-.43h4.65l.47,1-.14.33-7.84-.24.65-.33Zm117.93.66,2.12-1.52.24.91-.62,1.77L165,188.12l-1,.39L164,189c1.77.16,3.88,2.08,3,4l-.81-.68-1.31-.62-2.22.29-1.27.53-1.93-.39L158.22,191v-.44l.29.44,1.32.76.7.14.66-.14-.89-.62-.67-1,.29-1.68,1.5-.95,1.14-.15.56-.33-.29-.29-2.39.05-1.13.43-1.22,1.3v-1l.27-.62,1.09-1,3.2.2Zm-7.05-1.86v-.81l.23.1.19.33Zm-108-1.19,1.41-.09.94.18.27,1.06-3.33-.1Zm94.11,0,1.23-.15.65.48v.77l-.18.33-1.18.57-.8-.47-.1-1.05Zm29.45-1-.23-.62.5.14v.44ZM66.93,188.89,70,180.62l.94.33L68.34,188l-1.27,2.72-2.26,5-3.38,5.68L58,206.87l-4.52,5.73-2.06,2.19-.56,0-.2-.29,1.23-1.38,2.21-2.59,5.41-7.68,4.37-7.52Zm102.54-6.78v-1.68l1.36,2.67L172,185l-.85.52h-.29ZM50.18,180.25l.67-.11.27.57.29,1.07-1.47,0Zm122.11.24-.14-.58,1.12.09v.49h-.45l-.25.27Zm-22.63-1.58,1.23-.35.42,1,1.08,3.25v.44l-.85.28-.61-.24-.6-1.14-3.11.38-.27-.05,3-2.19Zm21.93.38-.29-.77,2,0v.73Zm-77.1-1.39c6.43-.15,12.85.32,19.28.24a138.75,138.75,0,0,0,15.58,38.29l-1.79-.39-3-.53h-3.72l-.6-.57-3-5.21-1.41-2.58-3.67-8.37-2.68-8.27-1-4.73-.85-5.68-.15-.14-.61.14-.09,1.53.56,2.72.52,3.44,1.74,6.8,2.68,6.82,3.85,8.27,3.39,5.68,0,.29-1.45.39-.61-.48-1.18-1.72-3-5.74L110.62,202l-2.44-7-1.46-5.35-1-5.12-.15-1.62-.52-2.92-.6-.34-.67.3c-2.6,11.19-5.18,24.07-10.86,34l-1.93.48c5.3-10.87,8.55-22.62,11.53-34.32l-.76-.18c-3.45,12.66-6,23.63-12.13,35.27l-1.32.57L85.18,218l-2,2.1-.6.48L80,218,77.23,216c7.63-10.95,12.87-23.57,16.6-36.41Zm68,0,1.27-.25.8.49.84,1,.2.24a3.28,3.28,0,0,0-5.37,1.62l.41,0,.29-.37,1.37-.86,1.65.38,1,1.29-.09,1.14-.33.44-.05.81,1.13-.86.47-1.48.14.28.18,1.38-1.64,1.64-1.18.57H162l-1.46-.24-1.88.38-.85.81-.09-.95.51-1.1,1.32-1.33v-.44l-1.69-.15-.93-.81-.29-1.38h1.46l.84-.24,1.79-1.1Zm-113.45-.34.94-.1.42,1.1.14.67h-.38Zm12.88,0,.85-.24.7.37-1.82,1.48-1.52,2.21-.42,2.19.33,2.11,1.55,1.47,1.32.2,1-.53,1.13-1.47L64.85,184l-.7-.81-.24.13-.23,1.1-.51.53-1.28-.19-.42-1.05.23-1.44,1.47-1,1.32.24,1,.75.85,1.78L66,185.84,65.28,187l-1.41,1.14-1.73.24-1.94-.53c2.23,6.08.8,13.68-6.64,14.54l-3.09,1.14-1.84,1.2-1,1.48L47.36,208l.29.85,1,.77.66,0,.71-.43-.09-.33-.62-.53-.23-1,.94-.82,1,.15.81,1.25-.2,1.23-.7.92-1.27.7-1.45,0-1.05-.48-.85-1.14L46,206.81l.52-1.47,1.18-1.63,1.83-1.38,3-.92-.92-1.1-.58-1.14-.18-1.92.65-2,2-1.76c4.28-.8,5.2,5.26.89,5.49l-1-1-.15-1,.62-.77h.79l.66,1.3.75-.63L56,195.53l-1-.85-1.37.19-1.22,1.19L52,197.4l.29,1.77,1.59,1.49h2.26c9.44-6.13-1.15-14,3.67-20.8Zm108.56,0,.24-.34,2.53.15v.53l-.42.09-1.93-.09Zm-.38-1-.09-.72,3.24.09v.63l-.13.09Zm-36.59.52-.09-1.38c5.22,3.45,9.28,14,6.67,19.92l-1-2.15c.61-5.08-1.07-11.94-5.12-15.24Zm10.4-1.11,1.23-.51,2,3.49.18.66-1.41.29-.74-.91-2.83,1.1-1.66.53-.22-.38,4-2.87Zm4.65-1,.61,0,.67.66-.11.68-.32.33-.71.15-.38-.48-.09-1Zm-81.38.68,1.32-.72.57,1.62Zm73.06-.92.61,0,.42.52.14.82-1.12.66-.29,0-.61-.19-.1-1.2.47-.48Zm30.57.35,1.18-.78h1.26v.91Zm-113.07,1,.89-1.77,1.28,1c-3.8,9.53-9.3,20.4-15.68,28.39v-2.15L47,197.5l4.42-7.18,4-8.17ZM38.94,173.5l.24-.33,1.08,0,.85.87.7,1,.84,2.3.53.53.32,1.77-.18.14-3.38-1.43-.72-1.3,0-1.38.18.18,1.27.15.9-.81-.38-.66-.65.61h-.62l-.79-.52Zm3.15.15.8-.68.24.15-.19.62-.65.54Zm130.44-.1.42-.82h.32v.82Zm-10-.1.75-1.33.71,1.77-.56,0Zm-56.5-.81-.51-.66-.19.24.09.72-.51,1-.85,0-.56-.48-.33-1.48-.71.38-.14,1.44.94,1.19.24.06,1.64.09,1-1.1Zm67.13-.75.13-.77v.71Zm-71.31,0,.94-1.2,2.59.09.75.67.66,1.76-.52,1.73-.8.81-1.32.33-1.41-.52-1-1.39-.1-1.2Zm51-.26-.57-1.08h1l-.27,1.28Zm-44.46-1.23.71-.57h.81l.65.9-.29,1.25-.32.24-.75,0-.66-.67Zm-66.79.72L43,169.83l.29.48L42.62,172l-.91.86-.47.15Zm-2.3.14.18-1.43.62.13.79,1.2-.09.73-.51.46h-.61Zm131.23-.62-.43-.86-.56.14.34.9-.1.92-.42.42,0,.48.65.05.66-1.15Zm-72.9-.2.7-.81,1.09.33.23.68-.33.9-.28.29H98.3l-.61-.48Zm75.44-.19-.13-.66h.36v.66ZM35.36,171.83l-.13-2.24h1l2.82.24-.43.28-.29.62.48,1.53-3.2-.1Zm135.89-2.3-.89-.62-.65.24.65.48.7,1.34-.27,1.53-.81.71-1.08.2c1,1.63,3.64-.69,2.83-3.1ZM133,169.39l.56-.48h.9l.51.59v.75l-.19.24-1,.44-.74-.49Zm27.8,1.19.94-1.91.89,2,0,1.05-1.05,1.76-.45,1,2.39.29,1,1,.67,1.82-1.23-.54-1.32-.14-.85.29-2.95,2.15h-1.56l-1-.81h.18l1.41.24,1-.39.13-.47-.19-.2-1.5-.19-.47-.76-.2-1.24.44-.91.61-.62,1.69-.44.18-.57-1.18.09-1.12.35-1.36,1-.7,1.71-.24-.39,0-1.43.38-.81,1-.72,1.08-.18L159,172Zm-17-1.08,1-.83,2.91,3.4.14.48-1.21.77-.52-.73-.57-.09-2.82,1.39.85-1.63,1-1.29Zm-68.85.61-.24-1.57.85.42-.29,2-.75,4.45L73.79,178l-.33,0-.6-1.34.33-2.19.8-.92,1-2.24Zm93.27-1.38.66-.25h1.46l1.07.52.38.59.38,1.14-.05,1.67-.37,1-1.27,1H169l-.28-1.1-1.17-2.39-.33-1.2Zm-30.66-.19.89-.73,2.86,2.83.19.33-.52.48-.56.29-.62-.62-.7,0L137,173.21l-1.42,1-.37-.57,3-3.78-.76-.81Zm35.73-.49v-.57l-.18.05-.56-.24.18-.33.56-.2v2.06l0,.09h-.85l-.79-.76Zm-101.49-.52-1.56-.05-1,.33L67.68,169v.87l1.65-1.05h1.13l1.12.68.62.94-.1,1.39-1,1.82.22.48h.44l1.92-3.07-.51-2.39Zm-2.84-.33,1.32-.29,1.32.38L73,168l1,1.48.15,1.49-1.88,3.91L72.1,177l.24.75-1.27-.47-1.28-1.72-.32-2.39-.62-.14-1.36,1.34-1.36.47-.57-.1L64.29,174l.76-.47,1.08-1.39.51-1.67,1-2.19Zm-27.46.48,1.46-1.3.28.34L43,168l-.65,1.29-.71.66-.47-.46Zm-6.16-.63.19-.77,3.43.24-.18.29-.29,1.34.75.91.43-.24-.33-1,.28-1.14.7.09.53,1-.38.86L40,169l-1.09.15-.7-.24-2.55-.29-.42-.57Zm105.79-1,.79-.18.62.66-.15.63-.42.33h-.52l-.36-.37Zm29.25.77,1.93-1.72.33.2-.38.75.14.15-1,1-.89.33-.47-.05Zm-116.18-.57L53,164.72h1.47v1.52Zm114.49-.62,1.31-1,1,.11h.28v0l-1.07.86-1.09,1.67-.7-.29-.15-.72Zm-1.55-.33.23-1.53.85.43.51.33-1.26,1.39Zm-10.82-1.44,1.5-.14,1.18.76.42.77-1.45-.43-1.27.09-1.5.81-.85,1.4.23.81,1-1.44.8-.48,1.36-.05,1.28,1,.51,1.58-.38,1.14.67-.05.7-1,.13-1.58.29,1.34-.18.86-1,1.44-1.56.81-.94.14-1.61.53L154,173.84l-.33-.9.24-2.06.56-.72v-.33l-.29-.05-2-.15-1.28-.76-.56-.91,1.28-.24,1.07-.52,1.08-1.29,1.27-1.44Zm-116.7-.14-.33-.19-.47.33-.14,1.39.52.52.33-.1-.06-.94Zm1.93.38.8-.62.42.48,0,.86L42,166l-.65.58-.28-.38.22-.43Zm23.43.43-.2-1.44.65.39.62.66-.22.2Zm-29.78-.91.33-.58h2.21l2.26.44.74.72.11,1-.57.68L39,166l-.95-.48-2.35-.05-.47-.57Zm40.13-.19.13-.72.52.2v.71l-.18.1Zm60-.91.65-.81L138.1,163l1.88,1.25.13.44-.8,0-.5.42-1.05-.37L136,166.76l-.56.35.56-2.39.14-1.07-.79-.57Zm32.36-.77.43-.28.56.81-.19,1,.42.2.52-.86,0-.72,3.1.14.34,1.15-.29.81-.89.2-3-.54-1-.75Zm-105.79,2,.81-2.39.65.66.67,1.73-.15,1.33-.19.44.1.62,1.88-1h2.11l1.28.86v.11l-.43.23L66.93,168l-1.12,2.72-.76,1.49-1.27.95-1.08,0-.53-.52,1.09-.1,1.46-1.2.84-2.19-.37-1.52-.38.28-.23,1.19-.38.77-1.41,1-1.41-.24L60.29,170l-.41-1.42-.53,0V170l.09.77-.32-.14-.71-.91L58.27,168l.52-1.25,1.41-1.43Zm104-1.34.6-1.29h.49l-.11,2.19-.42.39-.43-.24ZM39.41,162l.33-1.14.85.76v.82l-.8.28Zm70.69-1.23-.75-.2L109,161l.51.71.38,1.24-.19,1.48-.7,1.05.74.1.72-.67.42-1.05.09-1.43-.09-.58Zm-68.9.09.57-.29.41.71L42,162l-.27.87-.47.18Zm91.15.72.09-1.16.53.3.14.76Zm-97,.24.2-1.62,2.59.22.22,0,.81.43-.42.29,0,1.14-.29.05-2.77-.05Zm64-1.1.19-.67-.93.33-.67,1.48L98,164l.79,1.34.94.15.42-.68-1-1.43-.33-1.24Zm9.79-.72,1,0,.58.57.6,1.23.14,2.06-.6,1.77-.9.81-.47.05h-.33l-.61-.52.28-1.54-.19-4.06Zm33.3-.1.8-.29.29,1.73-1.46-1.1Zm-43.65-.43,1-.19.8.57-.27,1.49v4.49l-.62.23-1.23-.28-.74-.8-.43-1-.15-2.06.76-1.71Zm-59.36.34,1.22-1.39.23.29.15.9-.38.81Zm128.09-1.25.47-.23.7.14-.23.24.23.48-.1,1.58H169l.47-.72-.09-.53-.47-1.1,1.23.34,2.3.14.37.67.19,1.24-.47.44h-1.92l-2.45-.39-.94-.9Zm-13.75,1.15-.14-1.81,1.37,1.33.24.34Zm-48-1.44-.95-.46-1.22.42-1,1.34-.72,2.78.14,3,.58,1.86,1.36,1.34h1.12l-1.18-1.86-.36-2,.18-3.84,1-1.09.76.09.56.63.38,2.39.38.18.37-1.05-.1-1.33-.61-1.59Zm60.24,0,.67-.66.33.18v.48l-.33.43-.14,1.48-.89.67-.29-1Zm-93.46-.91.24,0-.71,3.38.9.62v.2l-.7,1-.52-.28-3.11-2.06.52-1,.65.09.76.24Zm-16.32.34.8-.53,1.14.09,1.3.68-.13.37-2.13,0-.69.28,0,.49,1.37.09.56.38.29.24.65,1.39-.47,2.1-.94.95-.05.53.47.1,2.08-2,.61-1.53-.28-1.71.28.14.66,1.68-.15,1.2-.32.7L59,165.05l-1.18,1.57-.56,2.49L56,167.81l-.46-.81-.29-1.82.66-1.53-.28-.51-1.7.51h-.18l-1.93-.51-.89-.72-.76-1.16,1.23.15,1.27-.33,1.37-1.29Zm-18.72,1.43L39,156.92l.75.52-.14.77-.2.33-1.36,1.11L37,159.41ZM66,156.87l.76-.05.52.53-.38,1-.38.18-.8-.81Zm66.37.81.29-1,.6.44,1.9.76,1.3.62,2.68,1.4a37.61,37.61,0,0,1,15.76,19.82c3.18,10.65,2.29,23.2-4.65,32.17l-.57-.58-.09-.62,2.25-4,2-5.07,1.46-6.4v-1.58l.18-1.47-.14-4.5c-1.14-13.1-10.47-25.59-22.81-29.58Zm-95.53-.76.94-.24.1.28-.9,1.16-1.45,1v-.53l.46-1.09Zm66.66-.14,1.26-.33,1.09.37,1,1.25.89,2.77.14,3.77c-.28,2.88-2.82,8-5.68,4.06l-1-2.91-.09-4.59.61-2.33.65-1Zm-62.61-1.1.41-.28L44,161.6l3.91,9.7,1.74,5.17H46.74l-1.5.14-1.17.67-.28-.28-.47-1.58.51-.68.29-2.05,0-1.63-.28-2.1.28-1.15-.42-2.1-.15-1.82L43,162.66l-.09-1.53-.23-.67-.67-.87-.65-1.76L40,156.49Zm127-.39.41-.09,1.52.2,2.39.22.61.68,0,1-.2.62-3.58-.18.47-.77,0-1-.61-.72-.33.06.37,1-.57,1.23-.88-.62-.06-1.29Zm-17.5,2.2.47-2.33,1.22,1.19.84,1.86-.13,1-.52,1.72.75.1.56-.33,1-.19,1.14.33,1,.53,1.37,1.71-1-.14-1.92.38-2.36,2.78.09.14-1.41.72-1.37.09-.89-.33-.47-.72.94.1,1.85-.29.27-.48-1.18-.09-1.08-.43-.61-1.05,0-1.49.52-1.39.94-1-.1-.29-.57,0-2.15,2.34-.38,1.76.47,1.25-.43-.33-.62-1.15,0-1.68.38-.81,2.16-1.62Zm14.82-1.57,1.08-1.62h.22l.44.75-.57,1.82-1.32,1-.18-.62ZM109.35,154l.86-.09.56.29.09,1.24-.42.42-.94-.13-.47-.82Zm-11.19.33,1.23-.42.85.62.18.19-.09,1.14-.53.53-.94.06-.74-.83Zm-24.32-.8.89-.06.48.44.13,1-1,.57-.85-.33-.1-1.2Zm-18.9.09.32-1.1.75,1.19Zm112.27-1,.51-.75.81,0,.27,1.06-.23,1.47-.85-.18ZM39,151.67l-.56-.3-.61.44-.37.81.24,1.62.79.24,0-.38-.23-1.72.48-.29Zm126.17,1.1,1.26-1.58.71.18-.43.81-.15,1-.18.2L165,154.48Zm-59.7-1.58-1.32-.05-.8.62-.29,1,.15.95.7.48.38-.24-.23-1.14.61-.59.8.06.66.24.14,1.34.47-.06.34-.95-.34-1.05Zm37.63,1,1.37-1.14h.89l1.27.87-1.45-.06-1.38.77L143,154l-.19,2,.37.09.52-1.43,1.69-1.24h1.13l1.09.53.94,1.62.42-.33-.62-2.06c4,2.74.07,5.2-2.06,7.32l-.71,2.39-.75-.57-.47-1.3,0-1.92.37-.62-.05-.18-.61-.19-1.65.95h-1.08l-.18,0-1.42-.33-.84-.66,1.17-.57,1.46-1.58.89-2.63Zm-90.5,0,1.51-1.71.38.9-.15,1.4-.66,1.66,1.28,0,1.5.48,1.23,1-.15.38-1,.19-1.41.81-1.18,1.58-1.73,1.43-1.69.15-.72-.28-.65-.77.42.18,1.88.15,1.42-.86.89-1.39,0-1-.33-.2-.32.57-1,1.19-1.07.3-1.23-.3-1-1.23,0-1.58.67-.81-.19-.48-1,.66-.94,1.68-.09-1,.47-1,1.84-1.43,1.41-.09Zm50.14-1,1.23-.81h2l.9.81.47,1.43-.14,1.2-.38.81-1.23,1-1.69,0-1-.77-.56-1.95Zm-40.35.68,3.15-1.49-1.79,2.72v.62l.8.91-.66,1h-.38L61.19,153l-.84-1.25.94-.92.7.63Zm-18.21-1.29.19-.29,1.18.38L44.86,152Zm92.8-.35-.41,0L136,151l-1,2.3v1.38l.47,1.05,1.32,1.1,1.93,0,.94-.53.85-.95.18-1h-.28l-1.6,1.05-1.6-.24L136,154l.06-1.54.94-1.71Zm-67.12,2.21,2.59-2.35h.38l.09.44-2.64,3.49,0,.71.71.48-1,1.2L68.49,155l-.48-.29-.84-.67-.24-.71.84-.81.28.38.85.28Zm95.2-1.86.67-.73.47.73-1.14.85Zm-128.27-.2,1.14-.62.71.09.47.38-1.05,0-1.07.43-.85,1.67.18,2,1,.87h.9V155l-1-1.25.1-1.9.66-.82,1.31-.09,1.61,3.4-.67,1-1,.43h-1l-1.45-.48L36,154.06v-2.63Zm102.83-1-.52-1.63.47.14.47.2,1,.61-.44.15ZM67.54,147.7l.66-.15.7.29L69,149l-.89.63-1-.24,0-1.14Zm-8.93,0,.79-.2L60,148l.09.94-.94.35-.47-.06-.24-.42Zm104-.06L164,147l.9,1.62-.33.57L164,151l.18,1.44-.09,2.15.34,1-.34,1.91.58,1.49-.1,1.38.46,1.2.29,2.29.65.72.62,1.71,1.46,1.49-1.37,1.14-1.45-3.38-5.14-12.72-1.64-5.07h1l.95,0Zm-26.57,1.29-.15-2.48,1.13.53.66.76.8,1.3.29,2,.41.19,2-1.67,1.17-.14,1.69.81-1.22.81-.61.87-.8,2.52-.66,1.25-1.65,1.48-1.27.19h-.18l-1.41-.29-1.18-.81-1-1.53.05-1.67Zm-1.74-2.57.41-.06.8,1.78-.32,1.53L134,151.23l-.81,2.35.61,2.24-.94-.24-.14-.81.85-5.25Zm23.56.33-.37-1.58h.32l1.22,1.58-.09.2-.52,0ZM50.38,145.07l.51,0,1,.71.34.72-.47-.28-1-.24-1.36.13v.48h.71l.89.35.57,1.38-.1.77-.71,1.14-2.11.66.14.48,2.68-.24.81-.46.74-1.06,0-1.2.28.53V150l-.13.35-1.47,1.23-1.41.24-1.64.63L47,154.06l-.65,1.38-.81-2.1.34-1.53,1.21-1.68-.23-.33-2.39-.43-.85-.68-.47-.95,0-.76,1.41.52,1.93-.33,1.65-1.33,1.17-.68Zm114.33.9.1-1.47,3.11,1.23.75,1,.42,2-.56-.29-1.27-.09-.61.77.24.52,1.22-.58,1,.67v1.58h-1.42l-1.12-1.43-1-2.39ZM63.06,145.4l4.14-1.76.53.27v.2L64,146.69l-.11.72.38.47-.14.44-.51.28-.67.2-1.87-3.64v-.57l1-.24Zm94.13-1.14-.51-1.78,1.63.05-.51,1.73ZM56,141l1.08-.23.42.95.43.38,3.29-.29-1.26.92L58.32,144l.24,1.38h-.38l-.94.38L56,142.05Zm-5.59.11v-.49l.32.15v.34Zm105.87.46-.09-1,3.47.05-.6.72-.43.42-1.32.15Zm-2-.85.56-.91c4.35,12.87,11.3,32.33,18.49,43.73v2.35l-1.54-2.59-1.51-2.82-2.11-4.72-1-.77-.09.48.75,2.44,1.27,5.92.42,4.3.05,4.88-.23,3.06-1.13,6.88-.19.66-1.74.77c7.55-24.36-7.47-52.2-31.57-59.31l.29-1.2c4.79.91,10.91,4.56,14.87,7.41l1.92-4.73H152l2.81,8.51.4.72.36-.2,0-.81L153.75,150l-1.21-4.92.23-1.16Zm-91.16-.58.81-.37.94.14.33.86-.65.86-1.23.09-.47-.76Zm-26.85-.9.76-.57,1.18,2.29.47,2.54-.25-.2-1.45-2.43Zm119.48.24-.06-1.14,8.05.14-.14.28-1.79.48-1.09.57h-3.61l-1.18-.09Zm-107-.39,1.74-.9L50,139.9l-.94,1-.47.33v.48h1.32l.88.44.62,1.25.09.76-.52-.1-2,.24-2,1.34-1.66.76-1.21.15-1.14-1,.05-.15,1.32.24,1.22-.14,1.37-.63.94-1.25-.1-.51-.37.05-.29.52-1.17.62-1.18,0-1.08-.48-.47-.76,0-1.39.42-.57.14-.53-.38-.09-.65.58-.81,1.23-.19-.24.19-1.33,1.79-1.48,1.41-.44,1.13.15Zm6.39-1.8.47-.35.81.29.09.91-.67.58-.7-.49Zm100.75.37.9-1.47,6.86.09.24.42-.14.87-.75.23Zm-119.8-2,.38-.51,1.32,2V138l-.29-.18Zm22.39,1.05v-1.91h1.13L60,136h2l.89-.25.43.15,1.88-.19.09.66-2.11.44L62,137l-1.64.59L60.11,139l-1.18.13Zm-17.35,0-.14-2,1.12.66.09.19Zm116.08-1.56.76-1,5.68.18.15,1.1-.19.15-6.21,0-.28-.19Zm.94-1.78.8-1.11,4.7.15.2,1.16h-4.76ZM41,132.7l0-1.4,1.7,1,1.21.11,2.22-.59,1.22-.09.23-.05,1.56.67.89,1.15-.1,1.19-.41-1.19-1.47-1.09-.89-.15-.14.39,1.14.81.33,1.38-.11.42-.94,1.1-.75.33-1,.11-.52.24.14.48,3-.2,1.12-.76.53-1h.22l0,.51-.61,1.4-1,.72-3.44-.2-1.5.29-2.21,1.48-.11-1.48.44-1L43,136.14l1.14-.54-.09-.42-.57-.15-1.37-.71Zm62.56-1.07.32-.51.71.18.42.77-.51,1.05-.15,0-.75-.37Zm-41.25-.47.84-.15.66.53-.23.92-1,.46-.66-.46,0-1Zm-26.68,0L36,131l1.46,2.39.14,1.34h-.23l-1.93-3Zm123.89.33.43-1,3.62,0,.29.53-.33.62ZM55.82,129.24l.29-.09.18,1.49.38.37,1.42.35,1.17.51-3,.92-.37,1.47-1,.06-.2-.77.34-4.35Zm11.82.72.37-1.09,1.08,1.9-.15,3.64.29,2.39,1.23,4,2.12,3.67,1.68,1.82.38,1,.18,1.19c-4.86-3.36-7.52-9.84-7.38-15.75Zm93.69-1.82,1.32-.13,1.22.13,0,1.34-.29.2-1.88.09-1-.05-.06-.14Zm-112-.09,1.09-.43L50,129Zm53.91,0,.47-.71.89,0,.62.71,0,1.16-.52.47-.57.15-.93-.58Zm-47.74-2.44.42-.43h.56l.47.39v.57l-.42.57-.9-.09Zm-13.84,0,1.65-.9h1.55l3.26,1,1.3-.09,1.18-.62.24.1-.33,1-1.18,1-1.46.77v.39l1.52,1.43.32.63.28,1.42-.94-.52-1.18-.29-2.16.09-.94.53-1.5.05-1.14-.38-.7-1.2,1,.76,1.22.2,1.37-.29,1.08-.61-.19-.3c-3.13.83-4.46-.67-3.1-3.72l-.61-.06-.71.49ZM162,127l1.69-2.39.24.29-.19,2.39-1.55.1ZM37.1,124.85l.58-.39.51.3v.9l-.28.48-.33-.24Zm22.4.53.61-1.49h.75l.37.44L61,125.42l1,.48,3.39,1.25v.53l-2-.15-.94.39-.42-.59-1.37-.09L60,128.62l-1.09-.37ZM63.17,123l.79-.18.95.75-.19.44-.61.48-.76,0-.33-.37Zm-27.43-.13.76-.35.75,1-.33.33-.09.15-.29.2-.52-.48Zm1.94-1,1.26-.49-.57,2.15-.09.11-.94-1.44Zm125.68-.73.47-.33.09,1.82a131.1,131.1,0,0,0-14.44,27.24l-.8-.42-.38-.63,2.21-5.4,4.8-9.6,4.61-7.79Zm-121,.49.47-1.68.8,1.06Zm1.45-2.92,1.41-.71.94.9,2.26.09.33,0,1.41.39.9.85.47,1.48-.29.48,0-.77-1-1.33-.74,0,.47.92-.11,1.29-1.17,1-1-.1L46.23,123l-.09.53,2.16,1,.29-.06H50l-1.47.54-3.14-1.11-1.89.1-.18,0-1.42.51-.13-.33.37-1,1.27-1,1-.19,1.13-.44V121l-.47-.09-1-.86-.47-1Zm14.2-.42.76-1.16.89.63-.28,1.23,1.74,1.34.94,1L60.35,121l-1.79-.1L58,122l-1.08-.28,0-.58Zm-5-.68.1-.48.28.06Zm-4.84-1.25,3.24-1.71,1.08.43,1.41.62-.74.53-1.5.19-.06.71.75,1.38L52.26,120l-.9-.91-1.69-.75-2.55-.11-.94-.48.56-.61,1,.52.75.09.29-.28ZM157,114.34l1.32-.81,1.74.14,1.32,1,.76,2.29-.29,1.44-.79,1.76-1.27,1.11-1.94,1-2.11.48-.19.44.94.86.84,2.25-.14,1.09-.61,1.68-1.69,1.38-1.27.39-1.36-.3-1.28-1.28-.09-1.68.38-1.1,1.17-1,1-.09.94.48.51,1.09-.19.67-.56.58-.94-.15-.29-.81-.43-.29-.36.53,0,1.19.9,1,1.32-.14,1.12-.92.71-1.77-.42-1.91-1.61-1.14-.61-.14-1.36,0-1.69,1.14c-3.82,4.18-2.42,9.23-.66,14.1l-.29,2.87-1.18,2.86L147,146.26l-1.38,1-.94-.57,1.79-1.48,1.31-1.81.76-2.49-.62-2.48-1.26-1.15-1.45-.19-1.32.85-.38.58-.33,1.29.62,1.14.6-.09-.1-.77.57-.72H146l.81,1.16-.19,1.14-.75,1-1.37.42-1.22-.51-1.13-1.31-.19-1.56.62-2,1.31-1.34,1.69-.51,1.83.42h.67l-.56-1.67-.43-2-.1-2.45.57-2.77c2.75-6.37,5.79-4.29,11.1-7.08l1.74-1.91.33-1-.38-1.71-.51-.68-.8-.28-.81.23v.58l.81,1-.1.48-.71.77-1.08-.06-.79-1v-1.19Zm-48.48-.24.6-.81.94.38.09,1-.51.52-.89-.09ZM52.73,114l3.33-1.56-1.5,2.19-.19,0h-.84Zm43.55-1.32.75-.54.66.48.19.81-.43.63-.61.05-.6-.44ZM57,113.38l.84-1.2.81,1c-12.8,19.17-4.26,45.52,17.11,53.09v.87l-.32.33-.62-.48-3.49-1.53L68.72,164l-2.46-1.71-4.88-4.21-1.56-1.82-.65-.86c-7.87-10.21-10.18-24.82-4.9-36.75Zm98.17-2.24,1.64-1.73.8.44a96.19,96.19,0,0,0-19.29,33.88h-.52l-.42-.28.62-2.3,1.82-4.78,3.59-7.6,1.68-3.11,4.34-6.93,1.92-2.67,1.12-1.78,1-.94Zm-69.2-3.73.43-.19-.44.21-.46.75-.75-.15Zm11.76-.58,1.23-.91,1.35.2,1.27,1.58-.51,1.23-.9.15-.74-.62.09-1H99l-.47.66v1.78L99.1,111l1.17.77,1.79.62h3.11l1.55-.43,1.46-1.2,1.23.57-1,.77-.56.48-2,.66v.57l.56.48.9,1.91-.38,2-1,1.57-.28.14-2.11,1.78-.71,1.33v1.06l.66.76,1.13.09.37-.28-.51-1.39.51-.86.94,0,.9,1-.25,1.67-1.12,1-.84.13-1.46-.33-.71-.57-.43-1.14v-1.64l.47-1.14,3.11-3,.56-1-.18-1.71-.85-1.06-.05,0-1-.62-1.78.05-1.42.72-.57.95v1.38l.47.63.91.14.7-.44v-.27l-.57-.24,0-.72.47-.57.94.13.7,1.16-.09.71-.38.76-.94.48h-1.32l-.94-.24-.94-1.2-.18-1.91.51-1.14,1.32-1.1-.09-.29-1.37-.57-1.13-1-.8-1.25-.28-2.39Zm51.61,1.39,1.59-2.43,3.44,2v.29l-2.12,2.1-.14.44-1.88,2.39L150,113c-12,16.3-19.67,33.33-18.77,54.09.89,15.65,8.53,33.81,18.35,45.89l-1.5,1-4.28,1.91-7.11,3.4-1.74.48-1.27-.77-2.91-2.24-.29-.77-2.3-3.53-1.46-3.4-1.37-2.29-2.63-5.27-4.14-10.61L117.4,187,115,178.8l-.94-4.19-.62-7-.18-3.06.09-5.59.24-2.83.52-4.87,1.65-8.22,1.79-5.31,3.13-8.41,3.4-7.6,4.51-8.55v-.14l2.11-4.25.48-.11,1.08.68,3.38,1.47,2.64.68,3.44.13,2.48-.33,2.5-1Zm-26.45-.76,3.2-2.92,2.59,2.68,1.45.9c-4.16,8.38-8.42,15.95-11.89,24.95l-2,5.79-2.5,8.4-.47.2-16.37.09-2.16-.09-1-4.16-2.16-6.83-5.12-12.76-3.31-6.36-.83-2-1.84-3.69-1.22-1.71L78,107.83l1.23.24,3.62.82,4.8.19.75.77.71,1.05,3.06,5.59,3.71,8.36L98.12,131l1.4,5.36,1,7.3.38,1.25.56-.33c-1-14.27-5.51-23.29-12.52-35.75l1.79-.28,1.32,2,4,7.79,2.3,5.59,1.27,3.53,1.79,6.45,1.23,7,.27,3.59.43.37,1.18-.13L106,137.9l.71-2,1.64-6.13,2.73-8.45,1.45-3.93L115,111.8l.85-1.1,1.75-.37c-4.85,10.23-9.65,23.34-11.11,34.5l.62.09.65-2,0-.44.19-1.42,2-7.9,3.15-10,3.85-9.52,2-4,.62-.24,1.12-.53Zm-51.16-2.92,1.07-.57,3.2,2.57,1.12,2.11.76.81,1,1.82,1.51,2.39,2.2,4.73,3.86,8,3.38,8.47,2.64,7.92c5.36,17.93,2.27,37.86-5.84,54.45l-6.3,12.61L78.6,212.4l-.58,1-1.59,2.11c-4.82-2.36-11.05-3.46-15.72-.14l-2.57,3.2-.38.2-2-1.29-1.68-1.34a99.81,99.81,0,0,0,20.12-35c3.12-11.59,4.27-24.67.94-36.36l-2.25-7.65-4.14-9.79-3.11-5.79-.42-1-1.32-1.29.33-.18-1.88-3-3.67-5,6.91-3.49L70,105.31Zm68.38-3.92L139.89,99l1,.29,2.82,1.24.71,1.76,1.37,1.11,1.68,0,1.42-1.16-.15,1-.42,1.1-1.46,1.2-1.74.09-1.79-.47L142,104Zm-.29-2.29V97h.29l1.32.77,2,1.72.18.29L141.72,99Zm.06-2.3.23-1.53,2.3,1.67,2,2.45-.38.57-2.26-2Zm-14.11-2.72-1.79-.87-.15.72,1.14.68,1.74.33,1.55-.33,1-.77.05-.57-.14-.06-1.59.83Zm14.16.29.51-1.73,2.73,2.68,1.55,2.73.28.81-2.35-2.49Zm.69-2.26V90.05H141l2.36,2.21L145,94.89l.76,2.57h-.25l-.33-.85L143.51,94Zm-14.71-2L124.79,89l-1.32.82-1.32.58-1.07.09-.58-.57H120l-.52,1.86.1.77,1-.57,1.79.23,2.59-.29,1.12.48,1.38-.62,1.21.2,2.73.28.71.38.32-.19-.18-2.2-.29-.15-.65.54-1.23-.1-1.79-1.25-1-.18-.8.66Zm15-.19.19-1.34,2.44,2.24,1.88,2.63,1.65,3.64.14.86-.67.1-1.45-3.64-1.73-2.48Zm-2.6-2.35-1.07-.18-1.23.67-.23,1.2.52.22.61-1,1-.15.51.63-.1.86-.61.66-1.79,0-1.63-.58-3.73-2.3L129,86.67l-.75.48-.14.95.56.61,1.36.15,3.62,1.43c2.22,1,6.38,1.11,5.69-2.48Zm2.79.11.41-2.5.33.44.67,2-.19.91Zm-26.44-2.25-.75-.29-1.51.15-.56.61-.47,1.58.18,1.1,1.23,1.38.8.44,2.3.28,5.75-1.62,3.33-.43.56-.57-.47-1L124,85.75l-1.56.15-1,.38L117.77,88l-1.5.42-1.18.29L113,88.25l-.67-.86V86.1l.71-.83.81.06.7.57-.1.66-.24.15-.65.05-.18.57.61.29,1.07-.19.52-1.11-.23-.81ZM141.72,83l.27-1.62,1.09,1.82,1,3.34,0,2.78h-.38l-.41-.68-.1-1.23-.7-2.87Zm-17.08-3-.56-.09-1.23.33-.79.95-.1,1.2.29.81.89.86.8.24,1.74-.09,1.22-.67,2,0,.76-.57.15-.63-.47-.71-1.74-.06-2.5,2h-1.27l-.94-.81-.14-1,.56-.72,1-.14.84.68.52-.06-.1-.62Zm17.46.38.23-2,1.27,1.72,1.69,3.59.94,4.49L146,91.73l-.14.14-1-1.43,0-2.44-.43-3.1-1.36-3.06Zm27.61,2.72L171,76.39c1.83,5.36-1.07,9.37-.7,14.77,0,6.66,3.81,11.13,2.44,18.73l-2.11,9.94-.1,5.35,2.17,9-.38,3.59-.47,1.43-3.49-.34.71-4.44-.33-3.1-1.08-6.18-.09-2.91.33-4.35,1.51-5.35c3.25-9.88-2.47-16-.71-24.95ZM142.28,77l.09-1.28.24.09,1.7,2.3,2.44,5.21.8,3.44.57,5.21-.1.91-.51,2.34-.9-2.15.47-2.63-.19-3-1.41-5.06-1.37-2.74Zm0-2.24.05-1.58c5.4,3.19,9.45,18.33,6.39,24.37l-.74-.47a24.76,24.76,0,0,0-3.87-20.41Zm-29.58-3.2,1.88-.53.75,2-.28-.09-1.88-.83Zm6.81,1,.72-1.67.13.24-.24.85-.18.38-.89.81-.72,0Zm1.28.24.47-2,1,.06.93.75.19.48ZM139,71.38l.33-1,1.45,1.23-.66.3-.14.14-1.41.33Zm-1.55.61.61-1.86.33.24L138,71.8l-.8.72-.62.2-1.5-.06-.94-.33-.7-1.15.05-1,.38,1.38,1.17,1h1.45ZM130.9,70.7l1.5-.57.24,1.19L133,72l-1-.39-1.09-.47Zm11.38,1.15.18-1.87.62.86.52,1.62-.23.3Zm-1.41-2,.85-.81-.33,1.48Zm1.88-.76L143,67.5l1.09,1.43L145,72l-.19,2.2-.51-.58L144.2,72l-.42-1.47ZM134.1,67.5l2.07-.24,2,.29,1.5.91-2-.43-3-.15-3.19.63.66-.57Zm-10.26-1-.32,0-.2.62-.7,1.34-.09-.33c-4-2.15-9.08-.31-12.56,2l.24.68L112,69.6l1.56-.67,1.32-.38,2.44-.57,3.29,0,1.61.66-.34.33-1.55-.33-1.41,0-3.48.24-2.4.82-3,1.57-1.36.2-.09.48.47.27,1,.15,1.27-.33,1.46.77c3.64,2.25,6.68,1.06,10.35.24l-.19.37-3.53,3.4-1.45.91-1.6.91.13.33.67-.09,2.35-1.11,2.45-2,.56-1,1.22-1.34.62-.86-.2-1.1-1-1.48.66-2.11Zm19.15,0,.28-1.49,1.41,1.58L146.23,70l.32,4-.22,1.44-.19.44-.62-.63.11-.68.14-1.62-.39-2.57-.93-2.2Zm-11.24.86-.14-3,.83.57,2,.28,3.53-.85,2.07.19L142,65.68l.11,1.06-1.37,1.33-.84-.57-2.78-.81-2-.15-2.39.48ZM143.17,64l.1-1.34c4.42,2.54,6.28,10.61,4,15.29l-.42-.77.56-3.82L146.8,69l-1.17-2.43Zm-17-1.25-.27-.43-.9.43-1.93.77-1.93-.09-2.29-.53h-3.91c-2.28.24-6.41,2.47-6.82,5.07l.38,0,2-1.82,1.55-.91,1.74-.38c4.7-1,4.46,2.45,10.91-.39l0,1.77,1.18,4.17.47.19.13-.28-.69-2.74-.14-3.14ZM86.87,61.29l.67-.06-.34,2.35-.57,3.35-.47,3.34-.51,10.85.19.95L85,90.49l-.33,2-1,3.22-1.14,2.15-1.64,1.47-1.6.81-.47.29-.23-.09-.53.24-2.11.09-2.68-.72-1.88-1.76-.66-1.67-.14-3L71,91.83l1.13-2,2-1.28,2-.24,1.46.53,1.23,1,1,1.81-.18,1.54-.7,1.53-1.14.57-2.25.09-.1-.38,1.32,0,1.13-1,.51-1.2-.09-1-.42-1-.75-.72-1.74-.42L73.89,90l-1.22,1L72,92.07l-.23,2.43.94,2.39,1.88,1.44,1.23.42,2.82-.09,1.27-.43,1.79-1.43,1.26-2.34.94-4-.09-1.58L84.19,85l0-3.49.23-4.6.94-8.79.44-2.68L86.36,62Zm1,2.68.8-3.2h1C87,72,88.18,80.49,86.73,91.49c-.77,5-2.52,10.07-8,11.23-3.54.26-6.84-.22-8.62-3.72-2.48-5.62-1.54-11.16,5-12.72l2.82.19,1.94,1L81.19,89,82,91.45l-.36,3.24-1,1.72-.85.77L77.93,98l-2.53-.14-1.23-.53L73,95.7l-.37-2.39.84-2.06,1.08-.61.9-.11h.27l1.09.35.9,1.42-.34.77-.8,1-1.36,0-.56-.76h-.43l-.38.76.34,1.3,1.27.75,1.68.06,1.32-.29L79.63,95l1-2.25-.13-1.38-.71-1.86L77.84,88l-1.45-.3-.34-.09-1.59.05-1.38.52-1.92,1.63L69.9,92.3c-.65,3.82-.07,6.85,3.66,8.6,5.46,1.49,9.1-.32,11.24-5.83,2.67-9.89,1.13-18.4,2.63-28.29Zm2.68-3.35.8-.2c-2.46,11.94-.67,26-3.91,37.43L86,100.77l-2.25,2.28-1.84,1.1-2.3.68-3-.11-2.17-.66-.75-.81.18-.2.76.39,4,0,.42-.2,1.88-.37,2.5-1.82L85,99.28l1.54-3.49,1.18-4.87.61-8.9.11-4.29.13-3.63.19-2.39.47-4.5L89.65,66l-.05-.48Zm1.65-.29.7-.24C90.44,72,92.51,85.19,90,96.8c-.94,4.18-2.32,7.48-6.44,9.22l-2.16.52-1.41.39-1.7-.33-1-.48-.24-.53c5,.23,8-1.46,10.59-5.92l1.26-3.79.62-4.39L90,87l.48-8.42,0-1.38.42-6.41.85-8.59ZM93.78,60l.52-.14c-2.29,12.06,0,25.25-2,37.23L91.19,101l-1.77,2.73-2.17,2H87l-1.88,1.23-.9.2-1.78.3,0-.11C96.39,104.7,90.73,73.18,93,64Zm1.09.44.34-.81.78.18C93.81,70.72,96,82,94.81,92.92l-.69,4.83-1.32,3.92-1,2.39-.29.43-2.68,2.25-1.55.57-.62-.24,2-1.39,1.93-2,1.83-3.4.76-2.87c1.8-10.38,0-22.92,1.32-34ZM96.24,62l.6-2.43h.9c-1.83,10.85-.32,21.11-.9,31.83-.4,6.3-1.94,17.65-10.53,16.78l2-.44,1.69-.87,2.08-2,1.08-1.77c4.41-9.55,1.88-24.68,2.68-34.35Zm2.49-2.48.75-.09c-1.34,10.36-.16,20.91-.8,31.34L98.54,93l-.85,6-1,3.2-1.13,2.29-1.55,2-.71.19-.42,0,.93-1.2L95.53,102,97,96.74c1.53-11.63-.24-23.31,1.13-35.4Zm1.83-.29,1.13-.09-.42,1.57L101,63.1l-.14,4.64,0,6.87V87.19l-.6,6.83-1.47,7-1.7,3.58-1,.52,1-2.24,1.55-4.93.89-7.55V81l.09-15.68L100,61Zm1.5,1.1.53-1.34,1.17.09c-1.84,6.53-1.42,13.85-1,20.51L102.54,85l-.24,4.77L102,93.4l-.52,3.16-1.08,3.82L99,102.59c4.24-12,2-24.76,2.59-37.15Zm3.91-.19.51-1.3,1,.11-.75,1.76L106.48,62,106,66.93l0,7.88c.32,5.77.52,16.72-2.54,22.51,2.69-11.2,1.1-21.13,1.89-32.4Zm-2,.76.66-2.06,1,.06c-3.67,13.55,1.67,29-4.66,42l-.09-.09,1.83-6.45V92.88l.66-5.31.06-6.69-.15-3-.05-2.11.29-10.23ZM108.47,59c4.74-.68,13.65.29,19,.68l5.26.47,3.58.48,5.45,1.24.52.53-.09,2.33c-7.08-5.2-7.89,1-12-2.29l-.33.24,1.07,4.11-.65,3.06-.2,2.11,2.55,9.46.09.9-1.92.81-1.7,1.16-1.7,1.86.15.62,1.79-1.49,1.26-.66,2-.72,1.37-.62-.56-2.58L131.51,74l.37-.09,2.5,3.2.47-.15-.1-.53-1.64-2.33-1.65-1.82c2.48,1.84,7.44,2,9.74,0l.23.14,0,4.82-.85,7.7-1.64,10-.05,4.24.65,2.36,1.42,2.48,2,1.82,1.7.57,1.41.09,1.47-.38,1.36-1.09.84-1.88-.19-2.09-.47-.92-1-.57-.52.24.57,1-.14,1-.67.77H145.9l-1-.9-.19-1.43.37-1.07.76-.66.8-.38,1.64,0,1.61,1.19.83,1.72.15,2.77-.61,1.67-1.46,1.29-1.79.77c-6.7,1.32-10.2-5.57-10-11.43l-.38,0c-1,6.61,4.35,14.56,11.72,11.75l-.66.77-.94.57-1.27.29-1.59-.24c-5.71-.78-8.18-7.09-8.94-12.14l-.33,0,0,1.76,1.08,3.88,1.69,3.24,2.6,2.54,2.63,1.19,2.3.57-1,.24-2.41.34-1.74-.67-2.2-2-1.94-2.63-1.45-3.34-.81-3.77-.46-.77-.28.53.79,3.72,1.85,4.16,1.07,1.77,2.68,2.67h-1l-.71-.33-1.84-1.91L134,106.36l-1.88-4.4-.94-3.63-.44-.48-.22.24.22,1.91.91,2.87,2.2,4.5,1.7,2.13-.1.15-.89-.33-1.83-1.91-.47-.87-2-4.39-1-4.06-.38-.1-.05,1,.67,3.09,1.78,4.17,1.37,2-.85-.28-.56-.66L130,105.92l-1.5-3.53-1-4.45h-.38l-.09,1,1.08,4.49,1.31,2.73.19.57-1.37-1.3-1.41-2.85-.56-4.36-.42-.18-.29,1.32.8,3.73h-.47l-2.39,2.49,1-2.3,1-4L125.35,98l-.38-.14-.42,3.49-1.18,2.91L122,106.41l-2.44,2.1-.38.09,1.32-1.53,1.75-2.86,1.22-3,.61-2.77-.43-.72-.37.29-.1,1.91-.84,2.58-1.88,3.59-2.82,2.82-2.78,1.24-1,.05c3.52-1.82,8.37-8.05,8.41-12.19l-.47-.29c-.24,4.66-8.09,15.36-13.17,11.56l.7.06,2.92-.76,2.4-1.3,2.77-2.87L119,102l1.46-3.25.09-1.33-.38-.1c-1.23,5.84-7.45,13.53-14.06,10.62l-1.88-1.77-.89-1.87,1,1.19,2,1.34,1.93.54,2.26-.15,2.1-1,2.08-1.72,1.92-2.49,2.17-4.5-.23-.61-.33.28-.61,1.88-2.3,3.77-3,2.68-2,.9-1.94.09-2-.42-1.7-1.25-1-1.43-.47-2,.43-2.15.33-.82L106,96.71l1.56-.35,1.6.2,1.41,1.25.75,1.56-.28,1.64-1.22,1.23-1.23.05-.71-.57-.18-1.19.65-1,.56,0,.62-.28-.33-.91-1.36-.72-1.41.35-1,.85-.37.71-.38,1.88.52,1.56c4.44,6,11.27-1.51,11.89-6.49l-.32-.2-1.22,2.77-1.37,2.21-2.21,2.15-.75.38-1.6.57-2-.19-1.51-1.09-.79-1.87.52-1.77.93-.72.94-.29.7.2-.7.39-.51.75-.24,1.73c2.47,4.78,8.33-2.92,8.47-5.83h-.47l-1.18,2.52-1.61,2-.18-1.87.76-.9.8-1.58.18-.87-.47-.18-.27,1-1.33,1.82-.56-.77.94-1.76.19-.81-.42-.24-.24.42-1.13,1.86-.89-.52,1.27-2.35-.33-.61-1.61,2.72-.94-.14,1.61-2.92-.43-.61-1.32,2.43-1,1.24-.89.24.32-.57,2-4.3-.1-.48-.29-.2-.28.3L107.09,92l-1.73,2.91c3.29-12.33-.52-23.17,2.58-34.93Zm-2.79-6.49a155.08,155.08,0,0,1,39.1,3.68l-.43,1-1.83,4c-7.67-2.11-19.89-3.25-28-3.25-9-.8-19.59.53-28.37,2.44L83.67,55.7l.34-.3,3.09-.81L89.84,54l6.2-1,5.14-.43h1.5Zm4.9-3,3.1-1.1,1,.24.81,1.34.42.09,1.61-1.48,1.17.34L121.4,50l4.71,1.15,5,.14,2.45-.34.94-.33,1,.53.6,1.28.44.06,1.08-1h.8l1.5.81,2.91,1.09,2.59.44.43.33-.38.86-.8.28-4.52-1-8.93-1.34-3.1-.33-1-.19-4.38-.34-5.45-.48c-11.75-.3-22.66.11-34.15,3l-.62-1.14-.13-.66.75-.2,4.14-1.33,3.29-1.58,1.23-.05,1.54,1.28.52-.33,1-1.34,2.63.62,3.39.54h4.32l3.39-.44Zm33.73-5.2-.71-.2-1.41.48-2.64,2.15-.27.81.36.1,2.6-.25,1.92-.85.66-.82L145,45Zm-53.21,0-1.68-.86-1.85.14-.32.57.14.72,1.36,1,2.78.2.57-.48L92,45.18Zm37-.86-1-.15-.75.59,0,1,.42.43-.84.68-1.88.51-1.79.15-2.35-.39-2-.85-.57-.14.1.72,1.18.81,2.3.47,2.68.15,2.26-.48,1.41-.86,2.08,1.29,2,.66,4,0,1.17-.52-.32-.53-2.12.39-2.73-.29-1.41-.43-1.78-1.34.6-1-.42-.81Zm-23.19-.24-.58-.33-1.26,0-.47.85.23.91.58.24-1.09,1-1.88.58-1.28.28-2.77-.33L95,45.75l-.56-.09-.15.57.94.81,1.74.48,1.41.14,2.17-.29,2-.51L104,45.7c2.68,2.06,6.38,1.45,9.26.24l-.33-.61-2.44.72-3.11.09-1.79-.44-.89-.72.56-.94Zm29.58-.43-1.18-.38-.56.48.09,1,1.27,1.3,1.05.52,1.45.57.7-.18-.94-1.73Zm-36.27-.57-.42-.48-1,0-1.27.87-1.08,1.43-.33,1.1.42.29h.94l1.59-.77,1.27-1.48Zm24.33-.57-.76-.77-1.14.15-1.83,1.82-1,1.95.28.53,1.23-.35,1.7-.94,1.54-2Zm17.49-1.19-1-.2-.47.43-.65,1.9-.2,1.91L137.67,47l.56.42.76-.94,1.36-4.5Zm-47-.63-.71-.14-.61.62-.15,2L92,43.84l.8,2.21.61,0,.56-2.78-.32-2.57Zm24,.28-1.08-.81-.65.48-.38,1,.18,2.48-.09.57-.89-1-2.22-1.3-1.12.38-.09.92.74.9,2,.9,1.83.33.65.92.57-.29L117.3,43ZM73.32,39l-1.63-2.39c28.62.22,57.51-.33,86.11.25l-2.58,3.05L150,47.24l-.43-.44-1.07-.09-.62.33-.61,1.78-1.7.52h-2.63l-2.22-.52-1.39-1.16h-.34l-.13.63L140,49.34l1.32.67,2.68.1.43,0,1.69-.19,1.93-.57.61-.14L147.45,51l-1.22.44-3.71-.11-1.85-.62-1.17-.24-2.3-1.29-1.56.24-3.76,0-2.63-.38L127.32,48l-1.74.48-1.12.05-3.29-.24-2.84-.77-2.53-1.34L114,47.33l-3.49.57-2.87.15-1.09-.29-2-.67c-3.18,2.26-7.27,1.87-10.73.57l-.94-.18-1.17.72-3.29,1.28-3.86.72L82,50.05l-1.64-.38-.62-1.38.8.33,2,.53h3l3.38-.86L90.78,47v-.52l-.42-.09-.9.52-1.13.62-.66.24-1.87.48L82,48.09l-1-.37-1.74-.44.42-.48-.09-.71-.42-.62-1.41,0-3-4.15Zm86-2,.41-.38h13.59v118l-.32.15h-2.21l-1.65-.24.56-.77-.23-1.05-.33-.71.8,0,2.64.23.42,1.33-.1,1.1.42,0v-2.29l-.09-.24h.09v-.86l0,.05h-3.34l.05-1.87-.65-3.2,1.31.33,2.67.15v-1.39l-3.76-.23-.65-.24L165.8,144l-2.39-1.38c3.44.7,5.86,2.57,9.86,2.15v-.68l-1.5,0-2.26-.29-3.29-1.1-3-.81-2.35.2-1,.75,0,.63.75-.39-.19.29v.52h.22l.85-.52,1.42.1.85.9-.24,1.58-.71.86-1.08.29-1.41-.29-1.07-.9-.44-.82-.09-1.53.62-1.77,1.92-1.63,2-.46,7.62.23,2.39-.05V139l-.42,0,.42-1.71v-3.88l-1.12-4.58-.8-3.58-.1-3.84.19-2.19,1.83-8.31v-8.8l0-.06-1.59-6-.48-3.38c-.8-6.9,3.33-12.92-.8-20.22l-.56.29.42,2.34-.28,3-2.17,9.9h-.05c-1,9.15,4.27,16.22.67,24.56l-1.23,5.5-.33,4.83.15,3.29,1.17,7.5L168,136.7l-.8,2.06h-2.06l-.57-.2.28-14.33L164.81,111l.05-4L165,73.86l4.1-3.16,1-.63,3.15,3.07V71.89h-.09l-2.35-2.24-.42-.48h-.61l-5.46,4-.1.82-.32,15.54.05,19.68-.1,3.3-3.3-1.86-4.13-2.54-3.05-1.76-2-1.38.29-1.82v-1.53l-.81-2.44-1.27-1.29.94-4.3-.09-4.83-.76-4.64-1.83-4.92c2.62-6.52,1.47-13.47-4.41-17.59,2.74-7.54,9.36-17.44,14.62-23.46ZM35,36.77v0l0-.19H70.26l1.37,1.91,4.66,6.79,3.95,6.26,5.17,9.65-.1,1.29-1.35,9-.62,8.6-.09,5.68-.14,2.45-.33,2.19-1.27-2.63-2.07-1.57-2.59-.86-2.59.18-2.3.92-1.88,1.38-1.27,2c-2.17,4.08-.36,10.61,3.2,13.35l-3.11,1.67-2.4,1.38,0,0-7.38,3.77-4.52,2.2L46,116.43,35,122v1.53l1.46,1.82,1.32,2.1-.76.44-1.92-2.54L35,125v2.72l.61-.33,1.74,2.48.34,1.19-.24.39-2.31-3L35,128v1.58l.19.18.28.59-.47.22v2.17L36,134l.18.34-.56.38-.61-.48v1.44l1.17,1.58.29.81-.76.42-.7-1.14v1.53l.1.09,3.71,7,1.23-.14-1-5.07-.53-5.87.29-7.23L40,120.7l1.17-.63.47-.09c-4.9,17.67.27,35.49,13.12,48.32a53.14,53.14,0,0,0,18.77,11.09l-.48,1h-.41l-2.88-1-1-.39-4.14-2-3.15-1.82-3.38-2.28-1.09,3.14-.9,1.78-2.77-8.62-.65-.61-.47.33,1.12,2.78L55.64,179l-.14,1-1.32,3.34-.89,1.2C48.84,170,42.78,154.07,35,141v2.77l.57-.14.27.57-.14.09H35V145l1.22,0,.42.51-.18.15L35,145.55v.81l2,0,.33.48L35,147v.72h2.78l.27.57-3,0v.81h1.84l.23.09-1,.63-.56.38H35v.52l.43.05-.19.43-.24.2v4h.57l.74.61-1.31.2v.66l.52,0-.52.48v15.77l0,0h3.05l.15,3.29.61,1.73-.7-.19L35,177.66v1.53l3.43.24,3.72,1h.24l1.83,1.11-.38,0-1.5-.57-2.92-1-2.4-.53-2,0v.72c4.87-.52,7.51,3,11.9,2.24l1.55-1.09-.18-.62-.81.62.43-.68-.38-.42-.76.57H45.42l-1-.71c-1-6.34,9.76-1.26,2.45,4l-2.54.61-3.11-.1-2-.24H35.13l-.14,0v1l.19-.05-.19.33v6.45l1.28,5.07.6,3.83-.66,6.21L35,212v12.13l1.22,4,.71,4.72-1.18,9.52,0,4.63,1.13,4,.7.92.47-.26-.32-1.8-.09-2,.6-4,.94-3.34L40.39,234l-.18-3.1-1.7-8.7-.09-5.26-.05-.2,2.17-8.79.7-3.91-.32-6.41L40,191.85l.05-3.44.65-2.57.33-.24h1.84l.65.18-.09,1.53.05,6.32-.57,56.77-.14.34-4.51,3.48-.66.11-2.12-2-.47-.48v1l2.59,2.3.46.09,5.37-3.92.33-1.14.42-28.58,0-9.65h.32l10.07,5.92,1.5.95,1.51.92L57,221.44v2.39l.65,2.15,1.42,1.2a25.68,25.68,0,0,0,1.83,18.59c-2.5,6.68-1.54,13.64,4.66,17.68-4,9.26-9.29,18.21-16.57,25.23H35V36.77Zm139.22-1.15H34.06v254H174.21Z"/></g><path class="cls-4" d="M124.17,266.13l.47-.38-1.46-3.11A83.46,83.46,0,0,1,111.24,265a142.31,142.31,0,0,1-29.4.1l-1.79-.1-3.62-.34-5.74-.81-4.14-1.1-.8,0-1.41,3.24.19.35,1.32.37,6,1.1,3.2.48,2.16.14,2.26.48,2.78.33c12.71.91,25.71,1,38.19-2"/><path class="cls-4" d="M173.65,187.46v-4.69l-2.15-3.86-.85-1.43L169.42,175l-4-9.08-5.83-14.38-4.19-12.81-.51-.91L153,141.43l.38,1.73,3.71,11,1.32,3.49-1.89-1.49-1.13-1.34-2.77-2.29L150,150.47l-6.91-4.26-5-2.48-.95-.06-1.31-.57-1.7-.18-.65,2.81.23.24,2.39.53,1.38.53,4.36,1.86,5.37,3.2,4.85,4,2.58,2.74,2.73,3.14c10.28,13.53,11.85,27.69,7.71,43.88l3.2-1.58.28-.57.81-2.54.89-6,.14-2.87.19-.09-.14-.49-.19-4.44-.42-3.49-.38-2.1-.09-1.43,1.18,2.28,1,1.64.47,1.05m-22.25-75.66,2.82-3.39-.09-.15-1.37-1-.61-.2c-3.11,6.48-10.9,7.71-16.46,4.15l-.2.11L132.4,111,128,118.4l-4.38,8.84-.14.72-.19,0c-7.13,15.9-10.64,33.9-6.54,51.13l1.84,6.68,4,10.14.23.76,2.82,6.56,4.24,8.22,1.5,2.19,2.55,4.35,1.07,2,.66.62,3.44-1.53,1.63-1,7-3.25v-.38l-2.06-2.91-2.12-3.2-3.2-5.46-5-10.31a75.3,75.3,0,0,1-6.41-33.6,93.29,93.29,0,0,1,11.67-37l3.82-5.31Zm-8.94,4.11.14,1-.66,1.06L137,117.92l-1.65.62-.43-1.82-.15-3,.29-1.78.85-.75.94.14.47,1-.28,1.52.09.39.28,0,.38.24,1.23-1,1.12-.29Zm-1.56,95.77.38,2.49-.32,3.3-1.74-.53-2.26-1-2.08-1.77v-1.35l.67-.46,1.17.18,1.09.82h.18l-.29-.87-1.92-2.06v-.37l1-.38.09.81,1.36,2.33.09-2,.47-.52.9-.29.8.62Zm-.6-97.2-.57.9.14-.76Zm-3.11,12,.1.81-.15.38L134,126.85l-3.81,2-.38-.14-.38-1.73.05-4.15.94-1h1l.76,1-.1,1.24.57-.25-.05.25.19.37,1-.75,1.09-.24Zm-1.08-3.07.18.38h-.27l-1.6,2.1.84-3Zm-.9,77.29.14,2.48-.6,3.53-2.08-.86-1.59-.72-1.84-1.61-.24-1.49.47-.63,1.09,0,1.26,1,.34-.05-.43-1.11-1.41-1.62,0-.33.94-.43.28,1.19,1,2,.47-.15-.19-.18-.19-1.64.52-.75,1-.15.76.72Zm-3.19-63.14-.09,1.2-1,1.47-3.48,2.83-.43-.1L124.17,137l0-2.57.61-.86.91-.1.47.44.45,2.15.58-.29.09.33.42.09.48-.81.6-.57.85-.29Zm-1.27,52.67L129,189l-1.13,4.1-.52.39-1.5-1.05-2.45-2.34-.61-1.43.67-.77h1.07l1.08.86h.2l0-.77-1.38-2.63,1.09-.24.2.11.47,3.34.41.1.19-1.49.66-.81,1,.15Zm-.52-55.15-1.23,1.76.15-2.05Zm-1.88,15.15v1l-.42.82-3.49,3.54-.47-.19-1.7-3.88,0-1.91.47-.57.71-.09.61.48.61,1.32.33.06.33-1.48-.09-2.25,1.36.29-.56,1-.66,1.64.09,1.05,1.22-1.38.9-.3Zm-.85,27.24v.95l-1,2.87-1.28,2.3-.47-.11-2-1.8-1.6-2.3v-1.53l.62-.67h1l1.17,1.1.15-.1-.19-1.1-.9-2.1.14-.23,1.18-.2-.14.77.14,2.68.33.09.28-.86.89-1.16,1.13.39ZM125.06,161v1.43L124,164.72l-1.84,2.63-.38.18-1.69-2.29-1.36-3,0-1.24.56-.57.8-.06.67.59.47,1.52.23.19.28-.19-.19-2.2-.18-1.62.89-.09.14.18-.37,1.49,0,2.3.7-1.58.62-.53.74-.15Zm-10.44,20.69.9-.14-.14-.48-.94-4.1-1-.1-.2,0-13.08-.24-6.44.06-1.09,4.3.71.33,13.17.05Zm.62-36.65.41-2-.13-.38-.85.05-10.72.06-11.29-.15-.2.18L94,148.32l14.9,0,5.56,0ZM92.89,158.88l-.32-5.12L92,149.37,91,144.68l-1.65-6c-4.23-12.06-9.71-25.14-17.63-35.23l-1.89,1-.32.15-2.26,1.29-1,.48-6.2,3.25L60,110l5.55,7.84,2.68,5.07,3.62,7.37,2.58,6.16L76,141.15l.23.13v.44l.71,3,1.27,6.6.66,7.17.1,2.54c.12,13.18-5.11,30-11.76,41.23L63.73,207l-2.91,4-3.15,3.54-2.41,3.06V218l2.92,1.77c3.39-6.73,9.22-5.95,15.57-5l1.07-1,1.43-2.43,1.21-1.68L80.24,205c7.06-13.37,11.58-26,12.65-41.28Zm-4.14,2.82v1.15l-.23.42-.89.49-.9-.11L86,162.18l-.33.09V164l.57,1.67,0,.29H85l.51-2.43-.09-1.15-.33-.29-.42,1.1-.9.91-1-.29L82.4,163l.2-1.58,1.21-2.24L85.37,157h.28l1.27,1.4ZM88,148.36l-.32,1-.53.53-1.21-.39L85,147.84l-.29-.05,0,.81.37,1.2.76,1.81-.47.24H84.8l-.28-3.67-.29-.19L84,149.52l-.8.9-1.14,0-.47-.73v-1.86L83,144.35l.76-1.29,1.46,1.29,1.4,1.58Zm-.85,27,.2,1.49-.72.9-1,.06-.61-.57-.62-1.92-.27.43-.47-.63-.33,1-.94,1.15h-.9l-.51-.52-.14-1.16,1.12-2,2.73-3.16.42.29ZM84.52,135c-.72,2.68-2.21.68-3,.33l.28,1.25,1.37,1.87.09.33-1.08.37-.75-3.23-.43-.35L80.81,137l-.76.86-1-.05-.72-1.2.05-2.43.43-1.87.8-1.95,1.88,1,2.35,2.1Zm-.66,41.43.28,2.78-.24.2-.74-.24Zm-.66,11.05.1,2-.43,1.14-1,.58-.89-.91v-1.29l-.29-.67-.38.24L80,188l-1.65,1.53h-.94l-.52-1,.29-1.14,1.5-1.54,2.73-2,.76-.14ZM80,189.56l-.47,2.35-.42-.24-.43-.34Zm-.19-66-.14.53-.38.37-.79.06L77,123.8l-.09.72-.23-.39h-.38l0,1.68-.62.91H75l-1-1c-.08-2.14.26-3.93.33-5.92l1.41.48,2.59,1.34,1.27,1.29ZM79,127l-.88.53-.15.14L77.17,125Zm-1.3,71.46.18,2.48c-1.67,3.05-2.32.51-2.73-1.15l-.65,1.15-.62,2.39-.19.14-.89-.67,1.88-2.44.18-.76h-.56l-.89.81-1,.2-.47-.34L71.73,199l.56-.81,3.25-2.06,1.6-.67Zm-3.2-18.55.27-1.3A47,47,0,0,1,43.5,117.77l-3.71,1.82-.61.81-.67,3.11-.42,3.25-.41,7.79.23,5.78.56,2.5.15.38-.06.46-3-5.2-1-1.58V142c8,14,13.67,29.32,18.47,44.69l1.85-3.44.14-.33,0,0-3.53-10.14-1.74-5.54.53.29,4.09,3.62,4.84,3.78,2.83,1.63,4.7,2.62,5.5,2.21,1.5.28.33-.76Zm-.33-67.29v.81l-.57.57-1.09,0L71.26,113l-.53.54-.18-.06-.24.33.42,1.35-.27,1-.56.35-.81-.15-.8-1-.42-2.92.24-3.2,2.35.62,2.68,1.47Zm-.85,3.49-.47.33-.43.24L71.82,115Zm-1.23,92.76.09,2.77-.23.63-1.07.81-.76.05-.61-.48-.33-1.67-.52.9-.57,1.11-.28-.43.48-.63.42-1.19-1.88,1-1-.52-.14-1,.52-1.1,2.3-1.82,2.92-1.44Z"/><path class="cls-4" d="M142.93,62.39l1.56-3L144.4,59l-.52-.24-4.19-.82-4.05-.76-7.47-1A178.94,178.94,0,0,0,104.36,55c-6.47.49-14.33.74-20.4,3.48l1.45,3,.75.06.42-.19,2.17-.29,4.85-.91,2.44-.2.76-.13,3.06-.34,4.84-.33c12.38-.24,25.09,0,37.15,3.06"/><path d="M172.21,37.8v250H36.06V37.8H172.21m2-2H34.06v254H174.21V35.8Z"/></g></g></svg>