<svg xmlns="http://www.w3.org/2000/svg" viewBox="0 0 208 326"><defs><style>.cls-1{fill:#fff;}.cls-2{fill:#6f7072;}.cls-3{fill:#1c1c1c;}.cls-4{fill:#facb1b;}.cls-5{fill:#f8261b;}</style></defs><title>QC-us-2c</title><g id="Calque_2" data-name="Calque 2"><g id="FR_-_EN" data-name="FR - EN"><path class="cls-1" d="M14.83,325A13.84,13.84,0,0,1,1,311.18V14.82A13.84,13.84,0,0,1,14.83,1H193.17A13.84,13.84,0,0,1,207,14.82V311.18A13.85,13.85,0,0,1,193.16,325Z"/><path class="cls-2" d="M193.17,2A12.84,12.84,0,0,1,206,14.82V311.18A12.84,12.84,0,0,1,193.16,324H14.83A12.84,12.84,0,0,1,2,311.18V14.82A12.84,12.84,0,0,1,14.83,2H193.17m0-2H14.83A14.83,14.83,0,0,0,0,14.82V311.18A14.83,14.83,0,0,0,14.83,326H193.16A14.84,14.84,0,0,0,208,311.18V14.82A14.83,14.83,0,0,0,193.17,0Z"/><path class="cls-3" d="M32.65,65c.39-4.51-3.51-8.21-7.57-4.36l-.83-1.19c4.52-2.93,2.3-8.43-2.71-8.69-5.1,0-7.58,5.68-2.95,8.69l-.82,1.19c-4.63-4.37-8.82,1-7.29,5.68A5.25,5.25,0,0,0,15,70.17a3.84,3.84,0,0,0,2.93-1c.82-.61,1-1.77,1.56-2.32.65.34.62.27.59,1a16.39,16.39,0,0,1-2.57,5.58,26.69,26.69,0,0,1,7.83,0,16.12,16.12,0,0,1-2.57-5.58c-.05-.7,0-.66.59-1,.54.53.76,1.75,1.56,2.32a3.81,3.81,0,0,0,2.92,1c2.38-.08,4.25-2.26,4.69-4.52"/><path class="cls-3" d="M198.09,65c.38-4.51-3.52-8.21-7.57-4.36l-.83-1.19c4.52-2.93,2.3-8.43-2.71-8.69-5.1,0-7.58,5.68-2.95,8.69l-.82,1.19c-4.63-4.37-8.82,1-7.29,5.68a5.24,5.24,0,0,0,4.52,3.9,3.84,3.84,0,0,0,2.93-1c.81-.61,1-1.77,1.56-2.32.65.34.62.27.59,1A16.58,16.58,0,0,1,183,73.38a26.62,26.62,0,0,1,7.82,0,16.49,16.49,0,0,1-2.57-5.58c0-.7,0-.66.6-1,.54.53.76,1.75,1.55,2.32a3.84,3.84,0,0,0,2.93,1c2.38-.08,4.25-2.26,4.69-4.52"/><path class="cls-3" d="M175.63,260.83c-.39,4.51,3.51,8.21,7.56,4.36l.83,1.2c-4.51,2.93-2.29,8.43,2.71,8.69,5.1-.05,7.58-5.69,3-8.69l.83-1.2c4.62,4.38,8.81-1.05,7.28-5.67a5.23,5.23,0,0,0-4.52-3.91,3.81,3.81,0,0,0-2.93,1c-.81.61-1,1.77-1.56,2.31-.65-.33-.62-.27-.59-1a16.41,16.41,0,0,1,2.58-5.58,26.35,26.35,0,0,1-7.83,0,16.47,16.47,0,0,1,2.57,5.58c0,.71,0,.66-.59,1-.55-.53-.77-1.75-1.56-2.31a3.82,3.82,0,0,0-2.92-1c-2.39.08-4.26,2.26-4.69,4.53"/><path class="cls-3" d="M10.19,260.83c-.39,4.51,3.51,8.21,7.57,4.36l.82,1.2c-4.51,2.93-2.29,8.43,2.72,8.69,5.1-.05,7.58-5.69,2.94-8.69l.83-1.2c4.62,4.38,8.81-1.05,7.28-5.67a5.23,5.23,0,0,0-4.52-3.91,3.78,3.78,0,0,0-2.92,1c-.82.61-1,1.77-1.56,2.31-.65-.33-.62-.27-.59-1a16.39,16.39,0,0,1,2.57-5.58,26.35,26.35,0,0,1-7.83,0A16.47,16.47,0,0,1,20.07,258c.05.71,0,.66-.59,1-.55-.53-.77-1.75-1.56-2.31a3.82,3.82,0,0,0-2.92-1c-2.38.08-4.26,2.26-4.69,4.53"/><path class="cls-3" d="M14.36,28.55l-1.32,0H11.83l0,3.62h2.49c-.37,4.19,0,7.87,3.95,10a6.91,6.91,0,0,0,7.63-1C28.28,43,28.11,42.86,31,42.7V39.17c-1.1-.09-2.34.46-3.1-.63l-.14.28L28,38.4l.28-.86.18-.91,0-.47V14.59l0-.47-.18-.91L28,12.35a7.17,7.17,0,0,0-4.7-4.21,7.1,7.1,0,0,0-8.9,6.45m3.35,18.07c1.39.52,5.06,4.78,5.92,6.07a3.72,3.72,0,0,1-5.92-2.87Zm7.42,3c-2.73-2.49-3.85-5.55-7.42-6.63V14.89l0-.44.19-.72.13-.33.29-.48a3.68,3.68,0,0,1,2.5-1.58,3.72,3.72,0,0,1,4.27,3.55Z"/><path class="cls-3" d="M179.8,28.55l-1.32,0h-1.21l0,3.62h2.49c-.37,4.19,0,7.87,3.95,10a6.92,6.92,0,0,0,7.63-1c2.34,1.82,2.17,1.69,5.07,1.53V39.17c-1.11-.09-2.35.46-3.1-.63l-.15.28.2-.42.28-.86.18-.91,0-.47V14.59l0-.47-.18-.91-.28-.86a7.17,7.17,0,0,0-4.7-4.21,7.1,7.1,0,0,0-8.9,6.45m3.35,18.07c1.39.52,5.06,4.78,5.92,6.07a3.72,3.72,0,0,1-5.92-2.87Zm7.42,3c-2.73-2.49-3.86-5.55-7.42-6.63V14.89l0-.44.2-.72.13-.33.29-.48a3.68,3.68,0,0,1,2.49-1.58,3.73,3.73,0,0,1,4.28,3.55Z"/><path class="cls-3" d="M193.91,295.46l1.32,0h1.22l0-3.63h-2.5c.38-4.19,0-7.86-3.94-10a7,7,0,0,0-7.64,1c-2.34-1.81-2.17-1.68-5.06-1.53v3.54c1.1.08,2.34-.47,3.09.62l.15-.28-.2.42-.27.87-.19.9,0,.48v21.56l0,.48.19.9.27.86a7.05,7.05,0,0,0,13.6-2.24m-3.34-18.07c-1.4-.52-5.06-4.77-5.92-6.07a3.73,3.73,0,0,1,5.92,2.87Zm-7.42-3c2.72,2.5,3.85,5.55,7.42,6.64v14.1l0,.43-.2.72-.13.33-.29.48a3.66,3.66,0,0,1-2.49,1.58,3.71,3.71,0,0,1-4.27-3.54Z"/><path class="cls-3" d="M28.47,295.46l1.32,0H31l0-3.63h-2.5c.38-4.19,0-7.86-3.94-10a7,7,0,0,0-7.63,1c-2.35-1.81-2.18-1.68-5.07-1.53v3.54c1.1.08,2.34-.47,3.1.62l.14-.28-.2.42-.27.87-.18.9-.06.48v21.56l.06.48.18.9.27.86a7.16,7.16,0,0,0,4.71,4.21,7.08,7.08,0,0,0,8.89-6.45m-3.34-18.07c-1.4-.52-5.06-4.77-5.92-6.07a3.73,3.73,0,0,1,5.92,2.87Zm-7.42-3c2.72,2.5,3.85,5.55,7.42,6.64v14.1l0,.43-.2.72-.13.33-.28.48a3.71,3.71,0,0,1-6.77-2Z"/><path class="cls-4" d="M60.15,221.68l-.85.47,3,3,.71.09,3.25-1.14,4.92-1.45,1.61-.42,4.24-.81,3.38-.72,2.68-.29.19,0,2.45-.24,4.79-.09.2,0a82.88,82.88,0,0,1,24.59,3.58l1.23.3,5.5,2,3.9,1.77.9.1.75-.77h.29l3-3.1c-3.65-2.83-10.33-5.11-14.87-6.27l-.47-1,0-.62,1.36-1.47h.29l.52-.72.28-1.29-.42-2.39-1.18-1.82-2-1.58-.43-.51-1.12-1.25.56-1.2.85-.53,1.64-1.67.19-1.33-.8-1.78-1.55-1.14-.71-.81.05-.58.94-1.2.8-1.52,0-.72-.14-1.43-3.44-3.77.29-.77.18.19v-.38l-.23,0,.88-1.86,1.09-3.44-.42-2.15L111,176H107.8l-.09,1.1h.42l1.32,1.14.9,1.49.09,1.52-.34.24,0,.42-.56,1.2-1.37,1.91.15.48-.24.62,0,1.49.51,1.57.9,1.39.8,1,.51,1.05-.13.95-1,.63L107.9,196l.1,2.11.18.34,2.39,1.38.38,1-.6.1-.95.53-1,.81-.52,1.54,0,.46.7,2,4.15,5.11.09,1.24-.44.34-1.17.09-.37.54-.52-.24-.85,1.32.09.87.53.86c-6,0-11.94-1.94-17.45-1.29l1.13-1.43.09-.72-.94-.77-.52-.77-.66-.85.42-.92,2-1.91,2-1.38.38-.09,2.62-2.44.44-1.58-.91-.85-2.15-1.06,1.3-.82L99.1,199l2.12-1.87.7-2,.1-1-1-1.19-.94-1.49.18-.71.7-.77.71-.1,1.83-1.76.34-.63.61-1.47.09-1.2-1-3.06.34-1.48,1.64-1.81.8-.72,0-1.64-1.78.06-2.22,1.73-2.53,3.29,0,.8.51,2.25,0,1.34-3,2.54-.85,2.15-.13.86-.2.42.15.77,1.27,2.25-.24.24-2.91,1.34-1.74,1.47-.71,1.3.33,1.24,1.18,2.29-.53,1.15-.7.1-2.45,1.24L88,206.38l-.85,1.82-.53.76.38,1.43,1.74,2.3.58,1.25-.53.71-.65.28-4.79.44-4.81.72a122.78,122.78,0,0,0-15.76,4.3m7.81-111.83-.32.47,3.47,4.16,1.65,2.72.8,2.15.79,3.68-.23,4.3-.85,3.78L74.32,133l-1.23,1.49,2,2.29,1.22,1c4.4-4.23,6.13-10.92,5.32-16.93L81.08,118,80,114.48l-2.39-4-3.25-4.4-.8-.43ZM80.14,99l-3.62,3.63,2.17,1.48,6.48,2.73,1.18.72,1.66.52,2.57,1.25L92.43,111l.37-.06.75,1-.47.66-2.68.68-1,1,.52,2.63.8,1.92L93,120.6l1.83,2-.1,1.29-1.45.57-.56.72L92.05,127l-.19.09.24,1.06.84,1.2,1.51.85.56,1-1.6,1.58-.37.77.09.67.85,3.14,1.83,2.45.43,1.34-.9,1.67-.56.86-.53,1.77.2,1.62.94,2.11,2,2,1.18.3,1-.11.29-1.38-.85-.86L98,146l.28-1.29,1.42-2.48.23-2.45-.57-.75-.13-.87-1.14-1.38-1-1.78.23-.66.8-.76,1.36-.91.76-1.38-.09-.72-1.14-1.82-.6-.24-1.09-.67v-1l.42-.15,1.32-.76,1-1.63.06-1.23-2.41-3.73L96,116.72l.15-.72.79-.33.48-.38.74-.24.67-1.29-.28-1.29-1-1.72-.29-.43,2.32.29,2.44.38,3.94.71,6,.44.91.24,2.67-.2.8.15-1.79.57-1.17,1.43,0,.62.65,1.64.85.75.2,1.25-.34,1.2-2.07,1.43-.43-.2.2.35-.24.18-2.68.72L108,124.66l.18.66.85,1.07.65.37,1.13.82.33.66-1.22.15-1.18.42-2.2,2-.71,1.43.27,1.38.67,1.16.71.46.42.83-.42,1.47-1.56.77-1,.42-1.22,1.64L103.3,142c1.9,5.77.9,5.34-2.7,8.27l.2,1.29h1.32l3.57-2,1-1,.89-1.38.57-1.76-.57-2,.1-1.48,1.47-1.05,1.77-1.67.94-2.06v-1.62l-.94-2,0-1,2.16-.58,1.9-1.58.6-1.34.23-1.43L114.62,126l.33-1,1.5-.86,2.23-1,.69-.48,2.22-3.53-.15-1.16-.75-1.53-1.07-1,5.4-3.83c7.89-1.54,16.13-4.23,23.94-6.26l-3.06-2.69-1.22-.75c-12.61,4.33-23.29,6.05-36.55,4.58l-4.09-.47-7.47-1.43-2.17-.58-3.15-1-1.79-.39-3.85-1.56-3.73-1.64-1.12-.27Zm44.92,104.77.33,4.1.61,2.34,1.94,4.59,4.41,5.5,1.41,1.24,2.83-3.06.32-.67-.74-.71-2.5-3.16-2-3.77c-1.89-6.3-.56-12,3-17.3l-2.45-2.54-1.32-1.24c-3.34,3.5-5.87,8.53-5.69,13.52Zm-90.78-9.52.33,1.67a36.61,36.61,0,0,0,33.92,1.43c10.39-5.36,18.94-15.5,19.75-27.72a35.67,35.67,0,0,0-10-29.72l-2.68,2.78.65.9-1,0-2.72,2.53-1.43,1.68L72,148l-.09.19L70.08,151l-1.23-1.47-2.15,2.1,2.06,3.06,2.17,4.16.94,4.06.13,2.43-.56,4.35c-3.67,14.91-21.3,19.08-32.17,9.51l-1.37,1.34.15.48,1.69,1.44.62.71-.29.35c1.35,3.52-.81,4.32-3.29,5.53l2.53,4.73-1.54-.67-3-1.85-.23-.24-.28.13Zm6.59.24.38-.24,2.49-.57,1.13-.33.66-.39-.7-2.72.13-.77.81-1.53,1.77-1.29,1.94.48,1.46,1.44.33.75-.33,2.35-1.41,1.92-.05.75,3.81,2.35-.14.52-1.56.05-6.87-1.52Zm.79-4.54.44-1.62,0-3.73h.6L44.68,186l-1.93,2.48Zm10.73-2.39,2.59-.09-1,4.87-.61-2.54Zm2.41,9.32v-.24h.28l3.53-3.25.09-.63-1.32-1.19-.7-1.67.14-1.33,1-1.58.37-.34,1.52-.43,1.73.38,1.32,1.14.56,1.82-.23,2.06.52.67,1.54.29,2.22.29.33.15-.76.46-6.44,2.83-3.2.53ZM63,185.26l-.24-.38,2.08-1,.45,2.58.29,1.1Zm3.81-1.34-.14-1.82H67l1.83-1.62,1.28,0,1.6.53,1.26,1.2,1,2.43.78,0L77,184l.61-.37.51.09c-3.26,4.16-4.31,5.49-9.41,8.84l1.56-3.67.32-1.49-2.15-1L67.21,185Zm3.71-5.2.56-.68.62-1,2.4,3Zm1.09-25.24.18-1.54.47-1.19.57-.61.8-.59c3.86-1.72,4.38,2.77,3.15-5.48,6.65,6.81,8,14.56,8.28,23.75l-.23,0-.14,2L83.49,174l-2.31,5.2-1.55,2.39-.81.72-.22-4.25-.28-.33L77,178l-2-.24-1.61-1.34-.47-1.1.11-1.44.65-1.14v-.62l.42.14.67-.29,1.79-.19,1.3.52,2.12,2,.76-.15,3.33-3.58v-.82l-2.35-4.35-.51,0-1,.72-1.63.66-1.84-.18-1-.48-1-1.29.09-2,.42-.91,1.41-1.24,1.23-.19,1.55.09,1.56.87.56-.39,1.17-3.4.53-2-3.78-2.87h-.71l-.5,1.1-2,1.77-1.79.33-1.7-.57Zm2.35,5.39-.43-1.33.9.19,3.11,0,.09.1h-.24l-3.11,2.29-.23-.62Zm1.26,10.8-1,.15.24-1.25.42-1.19,1.37,1.05,1.83.82-1.45.09Zm44.46-6.11c.28,8.48,4.33,18.13,10.68,23.61l2.63-2.73-.24-.43,1-1.19,3.05-2.82.1-1.19-.33-.24,1.59-2.87,1,1.09.18.35.32.33,2.12-2.24v-.35l-1.83-2.24L137.86,169l-1.36-5.16a19.5,19.5,0,0,1,11.23-19.5c7-3.76,15.45-1.73,21.13,3.58l1.69-1.53-3.1-2.77-.09,0,.51-.24a3.67,3.67,0,0,1,3-5.25l.28-.86-.6-.86-1.79-3.44,0-.05,4.42,2.63.89.57V131.3l-.18-.33-1.79-1-2.68-1.1-1.69-.63-2.54-.86-2.07-.33-3.77-.72c-11.54-.45-19.74,1.37-28.73,9.75L125,142.67,122.33,148l-1.39,4.11-.62,2.63-.1.86-.28,1.53L119.8,160l-.14.53Zm4.41,1.34-.18-3.83.43-3.29,1.74,3.44.75.52,1.93-1.24,1.32-.24h.18l1.93.48.94,1.29.47.2.09,1.66-1.12,1.63-1.32,1h-2.4l-1.74-.81-.47.37-1.7,4.74-.8-3.77Zm.39-9.08c.68-3.2,2.51-9.41,4.8-11.51l.18,4.25.33.53L132,149l.85.15.65.24,1.32,1.29.47,1.82-.33,1.28-1.46,1.1-1.74.34-1.54-.53-1.94-1.92-.38-.09Zm.6,16,.53.09,3.29,2.39.61-.09.6-1.1.81-1,1.74-1,1.45,0,1.61.53.56.81.47,1.34-.76,2.28-1,1.07-1.07.52-2.69.1-.24.23.43,4.17-.19.47L129,179.77l-2.55-5.08Zm4.38-28.11c2.28-4.59,5.68-6.25,9.7-8.89l-.2.57-1.54,3.78.13.48.9.28,1.54.82,1.05,1.57.51,2.44-.24.1-1.74,1.72-1.08-.05-1.92-.33-1.46-1.4-.76-2.15-.42-.33-1.65.53-1.88.39Zm.62,14,1.92-.23,1.6-.38.33.18-.38,1.77.05.58-2.06-1.39ZM131.18,182l-.33-.14.19.24Zm2.73-12.85h-3l3.25-2.24.56,2.54Zm1-21.07-.89-1.24,1.22.61,2.73.82-1.41,2.15Zm6.35-13.77-.7-.28.9-.72,3.29-1.29,2.59-.81,3.47-.82,2.12-.09-3.58,3.34.05.3,1.18,1.38.51,1.14-.13,2.26-.9,1.67-1.93.66-.18-.14-2.26-1.11-1.08-1.66.18-3.16-.65-.38Zm1,5.21v-.23l3.53,2.86-2,1.29-.67.29,0-2.29Zm12.33.24-1.89-.05.57-1.43.7-3.72.76,3,1.18,2.11Zm.65-9.17-.42-.38c4,0,8.26.41,11.91,2.2l-.1.09-3.06.87-1.08.46.37,1.34.24,1.78-.43,1.19-1.45,1.53-.72.48-1.92-.35-.65-.57-1.17-1.82,0-1.52.67-1.48,1.18-1.3-.24-.51Zm7.67,10.37.47-.29,1.08-1.09,1.56-2.35-.33,2,.13,2,.15,1.47-.8-.57Zm-28.37-50-2,.63.85,1.15,2.49,1.66,1.56-2.1L137.11,91l-.8-.81Zm-.36,2.15-.67-.47h-1l1.65,6.92.85,1.49,1.54.9,2.4-.09,1.79-1,1.07-1.86-.14-1.43-1.63-2.06-2.5-3.21-1.55,2Zm-9.14,1.2,2.54,1.67,1.08.39,1.52-1.82,1.21-2.15-.94-.15L127,93l-2.26.43Zm2.88,1.87-4.29-2.5.29,1.88,1.36,6.59,1.55,1.53,1.89.48,2.11-.29,2.26-1.57.8-2-.24-2.43-1.41-5.55-1.88,1.91-1.64,2.3ZM116,235.82l3.58-1.9.32.13.47.09,4.33-4.24-.24-1.11-1-1-1.88-.59H120l-1.74,1.1-1.14,3.5Zm.56,1.1.75.23,2.63-2.38-1.07-.28-1.56.81-1.37,1Zm-.24-141.71,2.78,2.3.71.2,2.35-2.5.66-1.38-2,0-4.47.53Zm2.88,2.3-3.73-2.92.2,2-.15,1.19.42,4.58.9,1.44,1.65,1.15.71.24,2.39-.15,1.51-.71,1.36-1.44.33-1.91-1.32-7.11-2.44,2.43L119.8,97.8Zm-10,136.92,6.26,1.88-2.58-4.69-1.56.67-1.41,1.1-.33.42Zm4-2.29,1.41,2.53,1.05,1.44,1.45-4.06.94-3.4-.09-1.62c-2-3.05-4.91-3.79-7.67-1.29l-1.07,4.78,0,.24-.52,3.1,1.18-.38,2.78-1.91ZM110.68,94.07l-1.5-.24-1.18.52,3.1,3.36H112l2.55-2.59-.14-.81-.33,0Zm.09,3.25-3.49-3.69-.6,4.27-.14,1.71-.06,2.39.62,1.34,1.64,1.54,1.32.37,2.59-.19,1-.29,1.09-.52,1-2.15L115.47,95l-.85.18-2.91,2.69ZM101,232.91l5.6,1,1.55-.11L105.26,230l-.7-.11-2.26,1.82Zm-.28-.68,1.13-.33,3-2.15.32.24,3.3,4.06.56-2.63.89-4.54-.13-1.67-1.37-1.86-1.69-.86-2.46-.1-1.59.58-1.09,1.19-.32,2Zm3.2-139-3.62-.67-.29.86,2.78,3.34.85-.24,2.54-2.09-.15-.92Zm-1.65,3-1.31-1.82-1.75-1.52L98.3,97.6l-.46,3.07,1,1.86,1.12,1,1.23.48,2.91,0,1-.58,1.18-1.06v-1.71l.75-6.36-1.08.43-3,2.2Zm-9.73,136,2.44.39,4.9.1-1.08-1.58-2.54-2.49-2.13,2Zm1-10.17-.89.87-.71,2.13.62,7,2.11-1.87,1.47-1.43.51.19,3.76,4.11.57-1.82.37-6.5-.51-1.38-1.52-1.58-1.5-.53-2.49,0-1.65.68Zm.57-128.52L95,95.21l3.53-2.57-1.08-.81-3.68-1L92.23,90l.61,1.62Zm26.11.2,2.72-.15,5.18-.9,2.86-.77,4.71-1.49.61-.71-1.41-2.34c-13.95,5.62-28.25,5-42.24,0l-1.47,1.3-.56.85c8,3.58,18.7,4.69,27.34,4.56Zm-25.73.57-1-1.82-1.41-1.43L91,93.89,89.88,97.6,89.64,99l1.14,1.8L92.23,102l2.22.24,1.83-.39,1.32-1.14,1-4.26L99,92.59l-3.89,2.58ZM89.51,92l1.78-1.28.25-1-1.37-.11-2,2.44ZM84.67,232.86l3.34,0,3.47-.39-.09-1.05L88.52,229h-.71l-2.15,2.39Zm-.29,0,2.87-3.11.65-.81.33.09,3.91,3.15v-3.86l-.33-4.36L90.11,222l-1.17-.59-2.3,0L85,222,83.76,223l-.8,1.23-.09,1.07ZM83,97l1,1.49,1.88.85,2.26-.09,1.41-.91,1.92-6.5-.56-.57-.76.66-.89.24-.88.58-.85-.23-3.67,3.53Zm-7,137.59,2.59-.37,4.75-1.06-.52-1-3-1.86H79l-1,1.16Zm-2.21-7.93,1.74,7.56.9-.24,2.59-3.68.6.1,3.53,2.19h1l-1.55-8.26-1.83-1.54-2.21-.43-1.52.34-1.12.62-1.09.86Zm-.85,9.23.71-.24L75.4,235l-2.87-2.4-.8-.19-1.32,1.72-.18.91,1.17,1.52Zm-.56-3.25,2.88,2.1-.24-2.39-1.37-5.54-.75-1.19-1.51-1.06H69.42l-1,.34-2,1.47-.52,1.49.1,1.19,4.13,5.41,1.52-1.87.09-.13Z"/><path class="cls-4" d="M54.33,286.25l-.2-1.25.29-2.39.61-2.48.38-.81.56,1.57.15,2.35-.47,3.95-.44.92L55,288M48,264.74l.83.1.53.37.09.82-.52.66-1.07-.14-.38-.57-.06-.77ZM51.41,275l-1.28-.67-1.07-.42-2.26-1.64-.61-1.1v-.13l.37-.2,2.07.48,2.31,1.29,1.07.77,2.22,2.15.13.47Zm-7.63-23.08.58,1.91L44,256.71l-.24.52h-.27l-.24-.24-.43-2.33.81-2.59Zm.11,32-1.32.09-.06-.13,2-1.82,3.81-2.2,2.59-1,3.39-.86h.18a25.68,25.68,0,0,1-7.71,5Zm9.4-28.1,2.54,4.11L58,264.36l1.45,4.43.9,4.36,1.59.77,1.7.85,0,.91L63,277.93l1.73,1.58,3,4,1.79,3.19.85,3.2h4.46l-.51-1.62-2.68-4.68L56.15,254.23l-5.26-9.71L50,242.8l-3.66,2.44-.56,1.58-.2.85,4.67,4.4ZM39.4,252.21l2.32-1.38,1.74-.38.19-1.49-.61-2.1-4.15,1.29-4,.53,2.45,3.58,1,1.58Zm1.52,0-1.79.77-1,.66c2.67,6.12,5.24,9.26,4.57,16.45l-.9,5.68-.89,3-2.55,4.87-1.64,2.73L35,288.39l-.25,1.15,2,.15,31.42.61h1.14c-1.41-5.4-4.8-10.5-8.52-14.53-1.53-5.91-1.68-10.63-7.71-13.38l.51-1.82a26,26,0,0,0-8.38-13l-.36-1.68-1.75.81.61,3.74-1.27.86Z"/><path class="cls-4" d="M169.84,214.51l2.26,4.15.53-.18-.71-3.79L170.13,211l-1.88-2.59-2.92-2.3-2-.15.61,2.78,2.21,4.26,2,2.48,3.26,3.59.47-.33-2.32-4.54-.94-1.3m-9.35,5.93,2.06,2.06,0,.09-1.5,1.62-.34.81,2.17.92,2.26-.15,1.18-.53,1-1,.23-1.38-.28-1.73-.85-1.08-1.31-.68-3,0Zm-5.36,10.55,1,1.44,1.7.77,1.92-.09,1.37-1,.69-1.29.06-2.54-.94-2.68-.95-.09-1.5,1.58-.32-.09-1.47-1.49h-.79l-.85,2-.19,2.45Zm-.25-11.8,1,1.49,2.26-2.39h.23l1.59,1.67.91-.09.79-2.11-.19-2.58-1.31-1.76-1.18-.53-2.07.05L153.76,213l-.47,2Zm-6.39,4.59.71,1,1.5.92,2.77.09,1.56-.71.56-.68-1.51-1.53,0-.29,1.3-1.29-.32-1.14L152,217.8h-2.73l-1.83,1.58-.38,1Zm3.3-11.66,3.47-.91,2.73-1.05,2.77-1.67,1.65-1.82-.33-.42-.29.13-3-.09-3.39.29-1.41.29-2.2.67-2.59,1.37L145,210.21l-.81,1.86v1.54l.61.61,2.68-2.43Zm4.37-3.21c-3.45,1-4.34.26-7.67,2.59l.51-.58,2.79-1.23,6-1.34Z"/><path class="cls-4" d="M169.51,78.45l1.74-.15,1.56-.33L172,76.53l-2.59-3.39L167.92,75l-1.52.91L165,76.2l-.53.23-.52,1,.76,2.28.94-.09m-6.77-19.41.75.11.7.66,0,.95-.47.34-1-.1-.23-.18-.34-1.06ZM156,46.7l3.34-1.85,2.59-1.11,2-.57,1.32-.05,0,.15-1.83,1.67-3.2,2-3.86,1.49-3.15.72V49Zm-2.63-1.76-.85,2.92-.61-1.34-.19-6.16.85-1.78h.09l.47.39.62,3.34Zm13.31,22-1.37-4.54L165,60.29l-.15-3.79,1.09-6,2.77-6.36,3.29-5.3,1.41-1.39-1.65-.37h-3.94l-8,.09L157,37.11H144.17l-.8,0-.76.29.14,1.34.85,3.82.85,1.48-.72-.91-1.26-3.25-.37-1.49L142,37.11l-2.12,0c0,4.05,4.28,11.64,7.42,14l.62,4.25,1.23,3.07,1.59,2.66,1.93,2.16,2,1-.09,2,1.23,4.1,1.88,3.45,2.26,2.76,2.59,2.59.56,1.44,1.5-.48L164,76.39l-.28-.24,1.37-.48-.43-.29,2.64-1.71,2-.39-.94-2.63Zm-3.16,4.1.47-1.44.34-.09.33.48.23,2.35-.61,2.67-.24-.19-.56-1.67Zm-9.41-.52L151.6,66.5l-2.12-4.74-1.32-3.86-.75-3.79-1.36-.9-1.94-.86-.09-.19.56-2.06-.09-1.1-2.68-2.87-2.45-3.49-2-4.06-.24-1-.52-.51-3.2-.06-.24.81,24.61,46,3.57-2.29.62-1.82v-.81l-4.29-4.06Z"/><path class="cls-4" d="M55,105.3l-1.36,1.48v.71l1.22.83,1.37.37,2.35-.13,1.83-1.73.23-1.91-.27-1.1-.67-.67-1.12-.66H55.21l-2,.85.89,1.19m-6.82,7.41.72,1.82,1.3,1.1,2.59.24,2-1.76.47-2-.24-2.25-.76-1.28h-.51l-2,2h-.47l-1.84-2.1-1.09,1.77-.18.48Zm5.42,7.13,5.12-1.15,2.21-1.15.85-.67c-2.68,3-5.66,2.11-9,3.3Zm4.93-3.4-5.22,1.49-1.88.9-1.79,1-2.06,1.67.23.43,1.18-.29,1-.38-1.74.91,1.88.2.38-.15h3.44l3.09-.62,1.79-.72,2.59-1.87,2.3-2.34.58-1.58v-2.39L60,114.66ZM47,99.75l1.13,2.87H49l1.41-1.53.38.1,2.06,1.91L54,101l.23-1.91-.27-1.87-1-1.47L51.22,95,49.43,95l-1.4.81-.81,1.43Zm-.66,5.83,1.55-1.67v-.76l-1.64-.9H44.07l-1.79.85-.52.62-.42,2.11.76,1.81,1.26.86,2.36.33L48,108v-.72Zm-3.9,13,.8,1.73h1l-.6-2.74-2-4L38.8,110l-1.32-1.3-1.64-.47,2.82,4.58ZM42,119.88l1.22.81-.38-1.86-2.3-3.25-2.87-3.82L35.55,108l-.46.15.19,1.91,1.32,3.88,1.54,2.57,2.73,2.78Z"/><path class="cls-5" d="M34.1,178v5.46h.24l5.26-5.37,1.56-1.71.5-.35L57.47,160.5l14.26-14.39,4.38-4.34,2-1.72-.13-.67-8.9-9.46L63,123.65l-1.74,1.58L53,133.32l-12.17,12-6.21,6-.14,2.54.27,3.58,11.43-11.14,9.46-9.56,6.77-6.69.47-.05,7.49,7.59,1.92,1.87.23.81-6.38,6.07-9.41,9.32-22.44,22m.1,25.08-.06,2.4.06,4.3.18,4.43a226.35,226.35,0,0,1,20.13,24l-4.75,4.45.09.48,4,7.5,2.78,5.4,3.57,6.22,7,13.52,8.09,14.29h7.81c-5-18.88-13.64-36.56-23.55-53.24A197.43,197.43,0,0,0,34.85,203Zm9.59,8-1.09.14,3.25,1.86,1.13.53,3.29,1.91L54.84,218l3.77,3,.6.11,3.35-1.1,1.59-.48.94-.39,7.63-2,1.13-.77,5-5.65c8.67-11.73,15.51-20.62,20-34.83l-12,0c-2.38,7.62-6.27,12.56-12.23,17.79A124.45,124.45,0,0,1,48.45,209Zm24.13,17.48L68,229.36l.27.68.61.63,1,.47,1-.34.67-.9-.34-1.49-.94-.81-1.42-.19Zm7.52-1.48-.09.82,1.22,1.24,1.89,0,.75-.9-.15-1.34-.88-1-.76-.27-1.22.18Z"/><polyline class="cls-5" points="46.09 105.64 46.09 105.83 48.03 107.93 50.51 110.08 53.76 106.83 54.8 105.49 50.27 101.06"/><path class="cls-5" d="M73.41,92l-.23,3.59.1,1.06.75,4,1.79,3.35c7.79-7.63,14.05-14.73,22.38-22.08L94.4,71.28,94,69.41l-.56-4,.14-7.08-.14-2.39-.15-3.34-.6-2.73-.52-1.43L91.86,51l-1.08,3.82L88.7,59.9,86,65.06l-2.15,3.39-4.29,7.46-3.85,7.26-1.27,3.68-.38.62.14.24m12.33,6.84-1.14,1,.34,1.39,1.17,1.14,1-.14.7-1,.09-1.44-.7-.71Zm6.29,2.87-.61.86.14,1.29.34.81.7.42,1.37.15.47-.28.56-.86-.09-1.68-.56-.77-1-.33Z"/><polyline class="cls-5" points="79.35 135.21 78.41 136.51 78.6 139.66 82.55 145.3 85.61 151.09 91.99 150.85 92.14 150.23 91.05 142.91 89.69 136.75 87.39 126.85 84.05 117.68 82.5 114.24 81.93 123.23 80.56 131.11"/><polyline class="cls-5" points="86.26 223.92 84.9 224.93 85.27 226.36 85.98 226.93 87.16 227.08 88.19 226.55 88.47 225.56 88.01 224.54 87.25 223.97"/><polyline class="cls-5" points="94.31 223.59 93.64 224.45 93.89 225.78 94.92 226.6 96.52 226.79 97.51 225.59 97.27 224.45 95.95 223.53"/><polyline class="cls-5" points="100.8 210.59 99.9 211.49 99.95 212.69 100.42 214.07 101.6 214.56 102.9 214.51 103.99 212.74 103.75 211.79 103.3 211.02 102.02 210.35"/><polyline class="cls-5" points="101.08 207.01 101.22 207.91 101.51 208.48 102.49 209.29 104.08 209.01 104.56 208.53 104.47 206.53 103.57 205.85 102.45 205.81 101.69 206.05"/><polyline class="cls-5" points="101.78 99.18 100.89 100.56 101.22 101.96 102.25 102.53 104.13 102.38 104.42 101.72 104.13 100.05 102.9 99"/><polyline class="cls-5" points="102.86 201.03 102.02 202.23 102.25 203.22 102.96 203.9 104.18 204.05 105.13 203.22 105.17 202.27 104.75 201.42 104.08 200.98"/><polyline class="cls-5" points="102.77 127.95 102.21 129.05 102.39 130.16 103.1 131.06 104.33 130.87 104.98 129.82 104.84 128.58 103.66 127.95"/><polyline class="cls-5" points="103.01 123.32 102.25 124.37 102.34 125.56 102.68 126.33 103.99 126.95 105.4 126.42 105.78 125.38 105.45 123.89 104.28 123.17"/><polyline class="cls-5" points="103.01 118.72 102.58 119.68 103.15 121.26 104.22 122.03 105.78 121.79 106.58 120.93 106.72 119.26 105.5 117.92 104.04 117.88"/><polyline class="cls-5" points="103.71 224.87 102.9 225.45 103.01 226.69 103.43 227.65 104.69 228.37 106.07 228.37 106.43 228.08 106.68 226.75 106.21 225.74 105.45 224.87"/><polyline class="cls-5" points="103.75 196.92 103.05 197.78 103.15 198.74 103.81 199.49 104.47 199.64 104.84 199.31 105.26 197.88 104.56 196.92"/><polyline class="cls-5" points="104.47 113.04 103.66 114.38 103.75 115.53 104.22 116.53 105.07 116.92 106.21 117.11 107.19 116.72 108.13 115.19 107.8 113.71 106.54 112.9 105.5 112.71"/><path class="cls-5" d="M109.63,147.51l-1.3,2.63.09.57h3.67l.33,0,3.14-.19,5.51-.05c3.56-9.07,10.45-16.37,18.48-21.51,7-5.08,18.33-10.52,26.67-13.09l4.43,5.26,2.81,2.86h.25l0-9.65-8.18-9.13-5.93-7.17-4.09-5.53L153.19,89l.1-.77,4-3.77.29-.53c-6.32-13-13.78-25-20.32-37.76l-3.2-5.73-1.46-2.67-.47-.39-7.85-.1-.38.34,1,2.63,3.91,11.09,3,7.55L137,70.23l3.92,7.63,3.61,6.56L147,89.11l1,1.62-.25.18.58.77.6,1h.2l.23.9.42.35.52,1,.51.39.14.66,1.23,1.34,1.45,2,5.08,7.17,5.47,7,1.07,1.77-.37.14-1.55-.62-1.83-1-1.09-.66h-.32l-2.31-1.4-.19,0-4.28-2.77L149.67,106c-17.14,6.46-12.72.38-24.79,13.86-4.31,6.5-9.46,12.6-12.23,20m-3.06-38.05.33,1.58.8.57,1.08.19.76-.24.74-1,0-1.32-1.56-1.49-1.61.48Zm10-1.38-.62,1.14.18,1.05.94,1,1.56-.19.47-.62,0-1.2-.48-.9-.78-.48ZM129,98.56l-.8,1,.33,1.52.8.87,1.64.18.67-.85.24-1.3-.48-.86-1.22-.72Zm1.37,87.7-.57.71.09.44.57.28,3,3.35,4.61,5,4.23,4.39,2.4,2.2.7.28.14-.28.62.28,27.42-27.72.15-4.39-.05-2.3-.29-.09L150.9,190.47l-4.49,4.63-1,1.15-.7.19L135.41,187v-.29l12.85-13,8-8,13.32-13.2,4.23-4.34.09-6.12c-13.3,13.49-27.11,26.67-39.93,40.53Zm6.25-89.47L135.88,98l.09.9.85.77.94.43,1.32-.39.33-.9-.27-1.43-.76-.77Z"/><path class="cls-5" d="M114.72,240.5l-5,4.64c3.9,10.14,5.06,13.25,4.42,24.13l.18,2,.28,2.48.15,2.1.38.95.09,1.11.23.2.28.51c.46-18.7,27.27-36.6,16.23-55.71l-3.62,3.47-2.83,3M112,227.21l-.53.87.29,1.25.85.71,1.36-.09.7-1.1-.32-1.49L114,227l-1-.22Zm7,2.39-.51,1,.18.81.89,1h.85l1.14-.86,0-1.2-.28-.57-.85-.44-.9-.09Z"/><path class="cls-5" d="M115.75,175.7l-.42.14c-.25,7.81,4.51,24.31,7.9,32.12l.47,0,.89-6.58.43-2.11,1-3.68,2.74-5.83.14-.44.23.06.38-1-.23-1.78L125.59,182l-1.27-1.9-1.93-4.31"/><polyline class="cls-5" points="157 216.42 152.72 221.05 153.52 221.82 157.19 225.59 161.37 220.96 161.43 220.48 157.34 216.57"/><path class="cls-3" d="M167.16,141.06l.29,1.81-.7-.29-.53-.72-.09-1.91.09-1.15,1.27-4.68-.51-.19-.71,1.77-1.88,3.24-1.93,1.64-1.22-.44L161,140c3-.92,2.86-3.67,2-6.17l2.78-.76,2.12-.38.47.48,2.3,3.82.05.57-1.41.48-1.41,1.43m5.3,83.74V207.53L173,217.85c0-4.79-3.14-8.92-6.73-11.71l1.36-.14,2.35-.81,1.57-1.25.56-.81.13-1.62-.42-.68-.23-.23.23-.67.24-2-.47-1.2-.29-2.48-.7-.81-.37-2.44-1.32-1-2.5-.24,6.77-6.5V172.12L173,174.6l-5.74,5.68-11.52,11.86L147.55,200,146,201.75l-1,.57-8.47-8.8-5.79-6.07-.29-.66c14.05-14.16,28.26-28.49,42.57-42.54l.09.1V133.26l0,.52c-33.11-19.42-66.86,20.51-41.62,50.62L129.62,186l-2.3-2.58-2.64-4-2.2-4.63c-6.66-17.07.91-37,17.4-44.73,8-3.16,13.81-4.6,22.43-2.87l3.64.91,2.53,1.05,1.79.43,1.41,1,1.09.33.36.63V130c-11.65-5.14-19.1-5.58-31.13-1.82,5.43-3.86,17.33-9.62,24.4-11.32l1.38,1.62,5.35,5.92v-1.62l-.36-.19-2.93-3.16-4.42-5.4L164,112a147.86,147.86,0,0,1-12.79-17.44,333.69,333.69,0,0,1-17.59-33.18l-2.87-6.91-2-5.46-1.56-4.06-2.26-7.17.1-.19,1.69-.14,5.55.09C140.47,53.12,149.34,68.4,157,84.27l-2,1.58.09.43.36.38.33.06,3.78-3.22c3-2.38,9.68-5.52,13.53-4.68V77.4c-9.88-12.18-10.56-26.38,0-38.43V37.44H100.37v.29l-1.45,1.81-1,.62-.29.66-1.36.83-3.53,2.86-.23-.81.28-.58,3.3-2.58,2.06-2.24.56-.86h-2.2l1.08,0-.57,1-1.27,1.3-3.05,2.34-.39-.29.2-.76L94,39.35l1.37-1.91H89.64l1.18,0c4.25,18.32-4.93,25.74-13.07,41.11l-2.92,5.78-1.18,4.06-.8,5.5.29,3.87.42,2.19,1.23,3.11.09.77L64,114.29l-.29-3.58-.51-.39L62,112.38l-1.78,1.47-2.4,1.1-1.7.48-3.33,1-2.64,1.3-1.79,1.14-1.32.91.24-1.2,1.5-3.38.58,0,1.68.34,1.23-.2,1.5-1.1.71-1.62.47-.62.38,0,2.91.7.24-.33-.38-.61-.51-2,.47-.86.94-.24,1.12-1,.56-1,.34-1.67-.48-1.67-1.68-1.29-1.65-.33-.2-.2.43-1.66.8-2.11-.61-.19-1.6,1-1.32.24-.83-2.44-2.32-1.86-2.26,0L48.07,95l-1,1.2-.41,2.24-.29.53-.89,0-1.93-1-.51.23.89,2.06.18,1.53-1.5.58-1.45,1.44-.48,1.8.48,1.49.88,1.1,1.94,1.1v1.86l-.85,1.58.29.63,2.82-1.2H47l.24,1.1-.89,1.66-1.65,4.74-1.6-4.45-.84-1.67L37,107.07l-1.17-2.3-.48-1.86-.46-.24v8.41H35l1,2.77,1.18,1.91,1.69,2.16L41,119.64l.37.53-1.22.1-2.45.84-1.83,1.64L35.18,124c2.16,4.43-.71-.15.89,6.06l-.38.33.38.39.24.95.8,1.15.14,1.67.29.66,1.17,1,1.92.15.62.14-6.4,6.07v9.61l10.83-10.66,5-4.69,1-1.09,11.43-11.13.47.23,13.87,14.53V140L60.71,156.48,51,166.28,34.85,182V192.8c11.64,6.67,24.64,7,36-.7,16.44-11.26,19.48-34.84,5.83-49.61l1.5-1.77h.43l2.12,2.53L83.25,147l2.21,4.49,1.65,5.59A35.77,35.77,0,0,1,79.35,188c-11,12.87-30.14,16.48-44.5,7.56V197c6.61,2.83,10.35,4.52,17.92,4.26,5.78.45,8.48-1,13.73-2.68-6.82,4.9-15.7,8.51-23.52,11.62l-1.73-.57-.67-.77-4.45-5.35-1.28-1.82v2.48l.1-.28,2,1.86L38.66,208l4.18,5.22,3.58,4.34,4.23,5.7,4.53,6.4,4.32,7.07,4.89,9,4.41,8.22,4.14,8.65,3.77,9,4.14,11L82.22,287l.65,1.64v.9h-7.2L75.3,289l-5.74-10.55-9.21-17.3-8.23-15.68-1.47-2.59.1-.43,1.32-1.28.52-.2v-.66l-.62-.2c-4.69,4.43-10.53,8-17.12,8v1.43c9.91,12.51,10.21,26.18,0,38.53v1.43h1.42l-.05-.05-.91-.15c8.68-11,10.94-23.16,3.4-35.6l1.36-.13,1.36-.48L44,250.87a14.55,14.55,0,0,1,5.92,14c3.74,1.45,4.87,2.59,6.58,6.49l.24,4.68h.43c1.67-4.9-1.93-10.15-6.55-11.65,1-5-2.05-11.66-6.39-14.1l-.56-2.73-.1-.67,1.08-.24.33,1.2,1.75,1.63,2.53,3,1.47,2.25,1.3,3,.85,3.35-.27,1.29.14.44,2,1.14L57,266.22l1.56,2.86,1,2.4.71,4.63L62,277.93,64.15,281l2.3,4.59,1.09,2.72.66.87-.29.24-1.73-.06-.51-1.8-1-3-2.06-3.17-2.3-2.42-2.55-1.68-1-.1-.33.14,1.09.63,1.77.95,1.94,2,1.55,1.78,1.45,3.24.94,2.91-.09.63-28.26-.05-.34.14H90.4l-3.34-.09L86.64,286h.28l3,1.43,2,1.49.15.66h18.81l-.56-.05,2.12-2.15,2.73-2.15.27.14-.18,1-1,.58L113,288.39l-.89,1.15h1.4l-.28-.09.57-.81,1.55-1.45.23,2.26-.9.09h3.64l-1.65-.05c-4.27-22.06,9.93-30.28,16.65-48.36l.9-3.35.6-5.64-.24-3.06-.23-1.67-.42-1.82-1.13-2.33.1-.29,1.59-1.77,9.32-9.08-.06.66.48,3.16.47.09.81-2,1.54-1.29,1.41-.86,2.59-.85,3.9-1.25,2.92-1.43,2.87-2.06-.42,1.58-1.55,3.31-1.47-.5-2.06.26-1.32,1.09-1,2.2-1.18.09-2.08-.75-.41.22.05.48.56.67.13,2.07-2.15,1.43-1.13,1.8.09,1.69.47,1.23,1.36,1.05,1.79.48.29.44-.33,1.47-.81,1.64-.09.51.66.15,1.37-.9,1.59-.39.14.76.76,2,2,1.58,2.25.1,1.52-.67,1.27-2.11.13-1.62,1.23,0,1.32.71.75.24.13-.34-1-2.66.09-.92c2.76-.89,3.93-2.57,2.83-5.44L165.28,218l-1.32-.62-.42-.47.09-1.45.85-1.71-.18-.77-2.6,1.16-.93.18-.34-.81.15-.62,2.44-6.16,1.52,4.54,1.35,2.1,4.43,5.49,1.78,3.25.18,1.38.43.15ZM34.85,156v4.78l0-.09.65-.29,1.14.18,1.5,1.58.65,0c1.78-8,9.34,2,1.28,2.1l.13.67.58.19,1.27,1.29.14,1.44-.52.95-1.36.9-1.23-.28-1.27-1-.38-1,.62-1.61-.09-.59-.62,0,.19-.33-.24-.38-1.88.71-.61-.28V167l1.69-1-.61.95-.75,2.21L35,169l-.1-.91v10.27l0-.24L58.56,155l14.85-14.52.29-.81L63.45,129.11l-.71-.15L59,132.4,45.34,146,34.9,156.2Zm.84-46-.09-1,1.7,3,1.88,2.54L42.47,119l.14.77-.42-.3-1.09-.57-2.58-2.68L37,113.67Zm.67,13.53.24-.3.27.48,1.79-.33.94.44,1.12.27.2.39-1.08.62-.71,1,.52.77.71-1.25,1-.52,1.41,1,.18,2.15-2.86-.61-1.7-.77-1.68-1.67Zm.18,4.63-.14-1.29.47-.2L38.42,128l-.23.59.09.94.47.72.56-.23L39,128.91l.23-.57,2.68.62-.1.39.34,1.14-1.52.09-2.25-.38-1.13-1Zm.24-19.17.47.14,1.27,1.25,2.73,3.49,2,3.92.47,2.1h-.19l-.71-1.48L39,112.66ZM37,122.8l.33-.29.89-.63,1.57-.57,3.38-.62L44,121l-.24,1-1.74.14-1.17.15-.38,1-.8-.43-1.92-.29Zm-.14,7.87.33-.13,1.28.62-.06.76.24.72-.94-.39ZM37.63,252l-2-3,3.44-.42,3.71-1.2.47,1.62-.14,1.05-1.55.35-2.35,1.43-.85,1.23Zm-.52-62.69-.15-.39,1.14-.39,1.45-1,.9-1.35.09-1.62-.18-1.15,1.12.81.18,1.34-.23,3-1,3-.2,1h.43l.29-.24.46-1.15,1.32-2.67,1.18-1.4,1.35-1.14,1.61.57-.14.1-.66.24-1,1.1-.81,1.76.43,2,.09,1.1-2.58.77-2.3.38-.71-1.06Zm.75-55.11.33-.57.89.18,0,.48.42,1-.75-.2Zm.51,46.45-.14-.39.61-.66.43-.15c18.56,15.93,43.86-8.27,28-27.86l.76-.76.32-.2C84.06,169.9,62.12,194.93,41.43,183Zm1-47.85-.13-1.32.24-.15,2.64.09.27,1.34-1.12.34Zm.58,1.49.33-.33,1.64-.24.8,1.19-.71.34-1.83.29Zm0,44.35.43-.47,1.27-1.11.56,2.34v1Zm1.93-54.57L41.3,123l2.53-.14.15.81-1.09.06Zm-.1-18.31.39-1.87.36-.47,1.6-.77h2.08l1.32.72v.33l-1.65,1.77.09.29,1.59,1.67v.28l-2,.68-2-.29-1.13-.76Zm1.32,19.54-.66-.62,1.65-.19.43-.38.27-1.24H46l2.5.43,3.85,1.82v.38l-3,3.11-1,.61-1-1.81,0-.58,1.32-.46.23-.59-.74.09H45.25Zm0,5.07-.47-.77.1-.57,1.22-.05.43,1Zm-.1,1.44.38-.57.47-.15.53.43v.33l-.81.62Zm-.56,44.3,1.18-1c13.06,10.18,29.58-5.75,19.23-19.22l1.23-1.14c11.4,13.75-5.09,32-19.81,23ZM43.08,134v-.47l.57-.05.24.33-.53.39Zm.14,46.56-.65-2.78,3,1.67.24.39-2,.9Zm.33-53.11.05-.66.29-.2.7.15.24.95-.9.33Zm1.28,86.71-2-2.74,7.29,4.12,7.34,5.31.33.51c-2.74-2.1-8.48-4.86-12.12-6.63Zm-.58,67.53L42,283.76l.33.67,1.69-.1,2.92-.91,1.22-.71,1-.3,3.24-2.09.34-.15,2.39-2.1-.23-.48h-.66l-3.39.91-2.68.95Zm-1-29.87-.8,2.72.42,2.57.52.54H44l.43-.87.32-3-.56-2-.38-.39Zm1.5-119.06v-.05l.43-.42,0-1.11-.32-.53.32-.75-.23-1,.72-.76,0-1.3h.65l.34,1.25,1.21,2-3,2.67Zm.43-10.84-.09-.77.22-.24.29-1.38,1-3.16,1.32-2.15.29.29-1.14,2.3-1.35,4.43Zm1.41,60.73-2.26-1.14,3.15-1.19.58.57,1.07,2.29Zm-1.13-26.61-.37-.67,1.45-.33,1.65-1,1.13-1.23-.28-.72-1.12.62-1.18.1-1-.63-.76-1.67.27-1.1,1.09-1.1.85-.38,1.32.24,1.35,1.62h.53l.23-.24.42-1.67,1.41-1.34,1.27-.13,1.18.66.61,1,.14,1.39-.41.86-1.27,1.15-1.43,0-.47.28.11.48,1.12.67.89,1.33v1.54l-.37.81-1.37,1-1.26,0-.89-.63-.85-1.29.6-2.44-.46-.09-1.28,1.1-.65,1-.53,2-.36.24Zm-1.22,54.86c12-4.42,22.68-9.67,32.13-18.64l.13-.05,2.08-1.91,3.15-3.77,3.06-4.83,2.16-4.93.57-1.86.47-1,9.35-.2.29,0,7.24-.2,1.7,1.64.09.47-5.23.1-.36.27-.34,1.34-2.5,7.41-2.68,6.46c-3.51,7.72-9,17.74-15.09,24l.42,1.06c2.54-.61,6.34-1.5,8.9-1.25l.74-1,.05-1.28-1.79-2.15-1-2.36.51-1.32,2.13-1.91,1.87-.92,1.46-.52,1-1,0-1.39-.85-1-.65-1.53.18-.81,1.09-1.05,2.58-1,1.22-.77,0-1.62-1.08-2,0-1,.76-1.82,2.15-1.62,1.14-1.29.18-1.67-.56-1.82L101,181l.85-1.71,2.77-2.15,1.23-.53-2.21,2.53-.85,1.86.1,1.16.65,1.71.19,1.53-.41,1-1,1-2.06,1.29L99,190.32l.24,1.49.74.9,1.05,1.67-.29,1.53L99.52,197l-3.1,1.2-.9.76.11,1,.65.68,1.27.66,1,.87-.24.9-3.14,2.16-2,1.66-1.69,1.16-.79,1.47,0,.77.41.72,1.9,1.52-.14.48-1.56,1.54.14.47,1,.53,2.53-.1,2-4.77,2.79-7.94,7.75-25.61.09,1.86-.33,2.72L107,191.86l-.18,12.61.15,5.55v4.78l.13,1.71,1.17.39,1.09.15,3.81.84-.09-.7-1.41-1.3-1-1.43.32-.34,1.36-.05.34.05,1-.86.76-1.09-.28-.95L111,207.58l-.79-1.34L109,203.85l.09-1,.66-.62,1.88-1,.56-.71-.24-1.11-.84-.77-1.6-.75-.61-1.2.1-.71,2-1.64.62-.81.13-1.62-.71-1.58-1-1.15L109,187l.47-2,.51-.58.81-1.63.09-2.53-.23-1.14-1.18-2.2.29-.19.83,0,.71.8,1.08,1.77.34,2.26-.28,1.05-1.51,2.77v.9l.28,1.53,2.64,3.78.09,1.44-.52,1.19-1.51,1.68.42,1.61,1.61,1,1,1.23-.09,1.58-1.93,1.25-1.08,1.38.28,1.34,1.08,1.25L116,209.1l.79,1.92v2.2L115,214.8l-.74,1,0,.95.7,1.49.71.48,2.35.62,1.75.81,1.54,0-.36-1.58-1.52-8.12-2.07-7.69-2-10.66-.42-2.87L114,179.14v-2.57l-.09-.87-4,0-.85-.14,2.12-2,5,.19,1.59-.24,3.53.09c2.42,8,7.11,12.61,12.7,18.55a18.21,18.21,0,0,0-1.27,21l3.44,3.79.6.81-1.63,1.91-8.24,7.64-.43.15-.7-.38c-8.54-4.29-19.22-6.49-28.75-7.26l-.23-.06-7.06-.24-3.85.15L80.9,220l-7,1.33-3.77,1-2,.43-4.23,1.63-1.22.28-4.19-4.06-3.82-3-4-2.93L45,211.49Zm.85-37.37L48.77,170l2.5,1.19-.05,2.05-.57,1.58-1.79,1.28H47.45l-1.64-1.19Zm2.16-67.72-.15-.25,3.06-3.38.62-.44,3.16,2.92.42.86-3.44,3.53-.56,0Zm.23-6.12.19-2.29.71-1.29,1.18-.68,1.6,0,1.5.67.85,1.28.28,1.77-.24,1.73-.79,1.52L51,100.76l-.71-.09-1.46,1.53h-.36ZM48,120.45l-.39.09c5.09-4.73,11-2.86,15.34-7.68v1.38l-.51,1.43-2.22,2.25-2.54,1.81c-3.34,1.62-5.47,1.25-8.9,1.38l2-1,4.14-1,2.26-.39L60,117.49l1-.77,1.27-1.58.09-.76h-.38l-.61.81-1.5,1.25-2.07,1-5.13,1.14Zm-.29-8.55,0-1.87.14-.43.76-1.19,1.59,1.82h.8l2-2h.13l.57,1,.24,2.1-.43,1.78-1.79,1.56-2.25-.22-1.18-1Zm-.05,60-.75.86.13,1,.76.57.8.05.7-.38.06-1.44-.8-.62Zm-.62,45-.56-.92,2.82,1.29,7.3,4.06,3.43,2.45,3,2.77-2-1.15-5.6-3.15-5-2.44-1.36-.33Zm-.47,53.48-.88.33.05.53.69,1.23,2.4,1.78,1.09.42,1.32.72,3.09,1.05.58-.18-.29-.92-2.4-2.34-1.12-.8-2.41-1.35ZM46,247.53l.15-.58.52-1.43,3.15-2.1.65,1.29L55,252.93l16.28,30.88,2.68,4.63.32,1H70.7l-.76-2.87-1.83-3.3-3.06-4.11-1.55-1.39.51-2,0-1.23-1.92-1-1.43-.68a39.9,39.9,0,0,0-10.15-21.06Zm2.77-125.26-.36-.09,2.15-.39.2,0,3.56-.13,2.12-.44.11.24-2.73,2.68-.76.52-2-1.38Zm-.92,142L47,265l0,1.1.62.82,1.46.23.8-1-.18-1.2-.71-.58ZM50,183.15l-1.27-2.43,2.93.39.36.13ZM49.66,194l-.18-.34.51-.33,1.17-1.91.29-2-.32-1.1L50,187l1.12-.1.81.67,1,2.24.71,4.6.29.28.27-.14,0-1.58.38-3.29.94-2.63.76-.49,1.23-.09-1.32,2.05.32,2.3L58.22,193l-4.36,3.68ZM50,220.77h.39l2.77,1.2,4.29,2.15,2.67,1.47L63.68,228l3.38,3.2.67,1.16-1.08-.81-6.35-4.17-5.5-3-3-1.2Zm2.26-37.14-1.18-.28,1.84-1.78.57-.28,1.79,1,1,.81-.95.19Zm1-7.74-1.36-1.82,0-1.19.38-1.68,1.18-.09,1.6-.48,1.13-.66,1.55,1.29.8,1.19.23,1.58-.52,1.2-.89.75-1.23.68-1.82-.09Zm1.18-71.69-.51-.66,1.4-.63h3.16l.92.57.58.58.23.91L60,106.64l-1.59,1.48-2.16.14L55,107.93l-1-.66V107l1.37-1.49v-.43Zm.27,123-1.59-2.48.32-.09,1.52.71,1.41.57L62,229.14l5.23,3.72,2.59,2.58.13.48-2.72-2.2-.29-.15-5.12-3-4.47-2.21ZM54.8,172l-.8,1,.09.86.89.87,1.37,0,.69-1,0-1L55.74,172Zm-.11,9.14.15-.3,1.75-.23,1.59-.57.14.33L57,182.54ZM54,282.52l-.29,2.54.24,1.28.74,2.05.72.25.65-1.34.47-4.06-.14-2.39-.74-2.06-.44-.09L54.6,280Zm2-142.86.47-1.43,1.18-1,1-.29,1.18.62,1,1.73.84-.2.48-1.82,1.31-1.19,1.37,0L66,137l.53,1.3-.2,1.2L65,140.82,63,140.58l-.38.48.18.42,1.46.72.71,1.38-.24,1.48-1,1-1.13.24-1.22-.53-.76-1.29.34-1.95-.39-.48-.65.19.09-.72-.27-.29-.48.1-1.46.14-.56-.28Zm.66,4.83-.37-.71,1.92-.53,1.56-1-.57.77-1.08,2.77Zm.56,86.6-1.6-2.54,1.65.53,2.82,1.29,2.08,1,3.24,2,4.74,3.53,2.08,2.2.47,1.38-3.44-2.77-3.14-2.34-3.91-2.34L58,231.23ZM57,169.29,58,168.06l.85-2.25,2,0,1.69.67,1.22,1.58.15,1.39-.56,1.24-1.66,1.15-1.13.09-1.23-.38ZM58,161.5l-.15-.46c2.08-2.26,4.72-3.65,6.55-.24l.09,1.89L64,163.8l-.89.82-1.23.46L59,164.8l-.29-1.34Zm.23,20.94L59.45,180l.19-.2,2.59.68,0,.28-3.2,1.63Zm1.32,52.86-1.65-3,.33-.1,3.26,1.34,4.36,2.54,5.41,4.19,2.49,2.49.8,1L75,245l-1.83-1.47L67.06,239l-3.33-1.9Zm.66-67.63-1,.86.24,1.39.7.62,1.09.19.85-.67.22-1.19-.94-1.05Zm.57-7.13-.94.87.18,1.24.71.63,1.12.18.81-.66.13-1.25-.83-.9ZM60,185.78l.34-.28.51-.24,1.28-.29,2,1.67,2.87,3.5.24-.2-2.12-4.73.09-2.1.94-.81.15,1.44.52,1.47,1.59,1.48,1.65.63v.52l-2.12,4.54-2.64-.24-1.86-.43L63.5,189l-.62-1.72-1.59-1.19Zm.47-6.69.76-.48,2.11-1.67-.09,2.72-.28.14Zm1.46,60.12-1.41-2.53.24,0,1.83.76,2.49,1.15,5.5,3.73,4.85,4.05.94,1.39.43,1.49-1.51-1.34L68,242.41Zm1.09,2-.24-.72,2.16,1,4.1,2.54,3.67,2.62,4.51,3.87.94,2.2-5.12-4.35-4.76-2.87-3.76-1.86Zm1.12-62v-2.72l.34-.24,3-.53-.38.72-2.15,2.3Zm.71-25.18.85-.86.23.05L65.67,155Zm0,21.22L66.45,173l.61-1,.71,2v1Zm1-61.18,1.93-1.86c5.63,3.77,7.46,13.31,2.72,18.5l-1.4-1.49.79-1.47,1-3.31-.1-3.15-.37-1.82-1.79-3Zm-.61,131.19-.19-.38h.57l4.79,2.73,4,2.72,3.62,3.44,1.17,1.77v1l-4.41-3.82-4.94-3.2-3.24-1.63Zm1.55-89.56-.32-.53L67,152.9l1.47,1.77L69,156.2Zm1.23,3.92-1.37-2.87.89.06,1.79.38Zm-1.7,69.3-.09-1,.42-1.25,1.84-1.37.89-.3h1.68l1.38,1,.65,1,1.32,5.46.14,1.43-2.21-1.63-.88-.28-.34.54-1.09,1.32Zm1.41-57.35.09-.53,2.46-1L69.7,172l-1.08,2Zm-.09-1.34.85-3,.13-.22,1.66,1.8-.29.44Zm.8-8.31.32-.1,1.7.85-.18.5-1.61,1.56Zm0-1.4,1.22-2,.33-.24.47,1.25.33,2.19h-.37Zm.43,91.39-1.51-2.77.19-.09,1.5.71,3.72,2.29,4.51,3.49L80,258.28l.24,1.3-.81-.72-6.25-4.68Zm-.2-72.16,1.05-1,3.18,1.1,2.59,1.58.9.33v-.33l-2.87-2.63-.24-.2L71.64,176l.69-1.43.52,1.78,1.79,1.53,1.09.23,2.44-.14v4.87l-1.14.42-3.09.92L73.65,183l-.89-1.68-1.7-1.14Zm.2-13.73,1.17-1.47.71-.68.36-.19L71,167.43l-.27.67Zm1.59-14.29-.09-.9.8-1.67,2.58-2.48.29-.77-.38-.06L72,147l3.21-3.21.74-.1.56.59.43,4.34-2-.29-1.84.62-1.45,1.58-.53,2Zm.76-43c3.5-3,6.54-6.55,10-9.66A82.49,82.49,0,0,0,145.15,102l5.22,5,7.34,5.29,1.78.87,4.71,2.72-.15.2-2.62,1-1.41.38-2.07,1L152.07,121l-7.49,4-6.53,4.3-7.71,6.46-4.14,4.77-2.87,4.6-2.12,5-.85,2.21-5.21,0-3.35.1-8.18,0-1.17-1.19-.2-.3,4.8-.09,1.46-5,2.44-6.31.15-1,.28-.14,3.81-8.13,4.09-7.31,3.58-5.11,3.81-6,.47-1.19c-1.73.2-3.42,0-4.9.91v.61l-1.21,1-2.26.43-.71.62.18,1.2,1.13.84.14-.13,1.23,1.38v1.11l-.65,1.28-1.7,1.64-.47.22-3.58,1.44-.89,1,0,1.29c3.9,3.39-.16,4.68-3.1,5.74l-.65.95.13.92.9,1.67.18,1.38-.74,1.91-2.82,2.1-.76,1.63.32,1.72.29,1.92-.94,1.86L103,149.79l-.8.25,2.26-2.29.8-1.49v-2.19l-.8-1.78.18-1.38.62-1,3-2.11.76-1,0-1.63-1.93-2.72.23-1.29,1-.91,1.5-.91,2.17-.75.7-.83-.23-1.32-1.51-.73-1.28-.91.2-.81,2.87-2,2.3-1.87,1.51-1.58.18-1.29-.65-.67-1-1.67.06-.53.41-.72,2.45-.75,1.17-1-.09-.39-5.7-.14-.47.77-1.59,3.44-2.82,8.78-6.64,21.51-1.41,3.88,0-.35.37-3.77,0-2.63.23-5.16.38-13.09v-3.49l.33-7.22-.15-3.87-.41-.14-5.61-1.11-.6.1,0,.53,1.41.77L98,112.62l-.14.95-.76.76-1,.24-.84.72.09,1,1,1.48,1,1.9.89,1.3.94,2.1-.32,1.19-1.23.53L96,126l.11,1.14.65.81,1.27.59,1.13,1.14L99,130.93l-2,1.56-.7,1.1.09,1.16.66,1.47.79,1.1L99,139l0,1.58.09.18-.76,1.44-1.17,2.44.38,2.76.84,1.82.29.82h-1l-.89-1-.76-1.24-.47-2.1.14-1.2L97,142.14l.14-1.91L97,138.94l-2.06-2.81-.81-1.67.52-1.58,1.13-1.15.48-.91-.14-1.24L93.93,128l-.76-1.23.1-.92.37-.42,2.5-1.82.23-1.23-.38-1-4.36-4.16-.94-2,.13-.72.47-.58,1.42-.19c5.33-1.44-2.17-6.09-3.49-6.88l-3-.86,2.21,9,1.89,7.07,1.54,7.36,1.6,9.94.14,2.78.34,3.63.24,3.3-.2,1.24.33.61h4.28l.24.2-1.27,1.29-4.47.24-6.35-.09c-2.87-8.47-6.77-11.91-12.56-18.11l.66-.92,2.21-4,1-3.67.09-5.21-.74-3.21-1.38-3.15-1.69-2.72Zm-.8,146.63-1-2.25.38.05,3.52,1.91L78,258.52,80.61,261l.34,1.38-.34-.18-.23-.29-4.27-3.2Zm.24-20.51.13-.62,1.08-1.43.42.09,2.26,1.87-1.18.48-.65.18-1.21.53Zm2.53-78.19-.56-1.23,1.5.57,1.74-.3,1.46-.81L79,153h.56l3.16,2.53-.76,2.92-.85,2.29c-2.38-1.71-5.22-1.49-6.49,1.25l-.37-1.19.46-.87.81-.77,2.21-1.34,1.56-.48,1.08-.51-.24-.44-4.7.82ZM72,258.38,71.3,257l.34-.1,3.24,1.81,4.38,3.16,2.3,2.54v1L77.37,262ZM73.9,96.32C73.17,79,89.56,67.7,92.43,51.34l.41.91.43,5.11L93,63.43l.51,6.07L95.2,75l2.49,6.34-13.17,13-8.75,8.47-1.09-2.3ZM72.24,237.45l-.28-.72c7.89-3,10.67-3,18.35-3.82,7.21-.25,19.44,1.24,26.2,4.54L115.15,239a61,61,0,0,0-20.57-4l-4.09.09-4.94.42-3.85.77-4,1-3,.9-1.55.92Zm1.37-66,.33-1.09.18-.19,2.4-.63,4.85.39.19-.52L77,168.34l-1.47-.91-1-1.25.18-1.05.38.72,1.56.92,1.88,0,.56-.15,1.94-1.08.41-.2,1.79,3.49.33,1.29L80,173.74l-1.45-1.62-1.46-.77L76,171.11l-1.27.15-.7.38Zm0,90.33-.89-1.91H73l1.55.91,3.8,2.82,3.17,2.68.56.61.27,1.69-1.12-1Zm.56-35,.95-2.26,1-.76,1.09-.62,1.36-.29,2,.38,1.66,1.39,1.4,7.6H83.2L79.73,230l-1-.09-2.62,3.72-.34.1Zm.2,36.6,2.06,1.29,1.56,1.05,4.75,4.2.09.87L75,265Zm2.3,5.16-.85-1.67.23-.2,3.63,2.69.47.28,2.4,2,.75.81.06.77Zm.19-34.46,1.51-2.3.88-.95h.38l2.82,1.77.19.34-4.13.9Zm.89,37.37-.52-1.71,5.17,3.73,1.47,1.86v.86l-3.39-2.68Zm1.12-32.63-.13-.72a48.58,48.58,0,0,1,19-1.91l-.18.24-1.36.42-1.61,0-4.13.2-3.78.33-3.09.53Zm.2,36.12-.61-1.8.19-.06,3,2.16,2.63,2.29.29,1.14-.14.06Zm-.2-34.65.11-.57.33-.15,1.17-.33,4.42-1,.19.05,3.9-.58,4.52-.23.32.23-1.88.91-7.05.81-3.29.67-1.13.14-1.23.39Zm.11,2.06.13-.86,2.46-.72,1.44-.18,4.62-.82,2.73-.05-1.52,1.1-5.83,1-2.2.43Zm0,1.73.23-.72L80,243l6-1.14,1.36-.06-1.26,1.25-3,.42-.28.3-.56-.11-2.08.35Zm.23,1.85-.09-.76.38-.29,1.41-.33,3.95-.53-1,1.2Zm.06,3.35-.15-.72,1.74-.47.33.2-.66.81Zm-.1-1.72,0-.76.85-.33,2.3-.24.47.13-.89.86-1,.24Zm.19,3.45-.15-.11.09-.76.53-.09Zm0,2.39,0-.72,1.13-2.06,3.57-4.35,2.64-2.58,3.67-2.92,1.83-1.2,3.67-1.67,1.7-.61,2.73,0,1.59.24,2.68,1.62,2.32,2.72,3.09,5.84,2,5,1.51,5.73.43,4.11-.29,1.39.11.61-.06,3.31-2.82-1-2.44,0-1,.24-1.18.52.51-.52,2.55-2.39-.06-.72-4,3.06-.42.08,3.2-9.11.33-1.44-1.41-.91L103,253.64l-.85-1.34-.89-.57,0,.72.76,1.29,2.2,1.91-.56.2-2.17-.24-2.17-1-1.35-.09-1,.48-.69,1.19.33,1.58,1.27,1.1,1.21.19.85-.53.09-.67-.51-.09-.8.42-1-.42-.61-1.1.19-.77.89-.52h1.18l1.5,1.14,1.61.92,1.41.14.74-.58.33-1,2.26,1.53-1.54,4.3-2.84,9.27.24,2.48.94,2,1.08,1.1,1.23.81,1.45.48,2.73-.15,1.47-.71,2.06-2,.09.81-.47,1L112,278.7l-4.7,3.34-2.68,2.34-1.36,2.24-1,2-2.59-3.84-2.39-2.24-2.07-1.38-1.46-.66-5.27-1.64-1.27-.29-2-1.19L83.67,270l1.6.44.28.57.24,0,1,.13,4.09,1.19,2.16.15,2.64-.33H97l-.41.23-1.79.63H91.39l-1.88-.44-1.7-.33-2.3-1h-.84l0,.48c3.73,1.46,9.44,3.76,13,.77l1.79,1.43.38.06-.29-1-1.37-1.82,1.61-1.76.14-.91-.61-.58-2.26-1.24L95,264.49h-.51l.27.68,2,2.1-3.11-.67-3.1-.05-1.69.58-3,1.71-1.54,0-.67.39-.27-1L82.59,265l-2.07-7.7L80,255.19Zm.88,24.8-.65-1.82,2.07,1.19,3,2.44.09,1.2-.22-.06Zm1,2.81-.56-1.57,2.24,1.29,2.17,2v1ZM83.49,97.09l.6-.72L87.58,93l.8.24,1-.67.9-.24.56-.48L91,92l-1.83,6.12L88,98.85l-2,.09-1.7-.77ZM82.13,283.57l-.39-1.1.29-.15L85.46,285l.09,1.1Zm2.48-51.67-1.3-6.58.09-.92.69-1.1,1.18-1,1.46-.57,2.12,0,1,.48,1.55,1.82.33,4.19v2.92l-3.29-2.68-.71-.14-.85,1.06Zm-1.12,55.4-.85-2.24L83,285l.29.29.65.19.42.62.61.48.67.86.22,1.38Zm.56,2.15-.29-.77h.62l.75.81Zm1.32-15.15-.67.19.71.75,1.14.59L89.64,277l2.64.61,3,.06,2.49-.43,1.23-.77,0-.9-.46-.44-1-.09-3.44.9-2,.05-3.53-.47Zm.09-41.87.52-.77,2-2.24h.37l2.58,2.2.05.43-3.05.33Zm.09,47.17-.28-1c8.13,2.93,11.93,2.37,16.46,10.9l-1.78.05c-2.77-6.17-7.24-6.12-12.61-8.6Zm.43,2.53-.28-1.24,1.32.47.85.63,5.07,1.72,2.4,1.35L97,286.43l2,2.78-.2.24-1.5,0c-2.57-4.64-5.46-3.9-10-6.31ZM89.37,91.59H89L90.36,90l.65,0-.09.38Zm-3.11,193-.18-1.33,2.11,1,5,1.92,2.55,1.91.52,1.43-2.55-.09-3.33-2.59-2.26-1.05Zm.61-15.43.62-.43,1.83-.95,1.46-.29L89.93,270l-.33.09Zm2.07-102.76.1-3.1.93-.9,3.63-4.07,6.21-6.83,1.13-.28,2.54,2.28,11,10.42.75.44,3.9-3.88,0,2.73.1.53-9,9.32-2.07,2.09-.43.06-12.5-12.1-1.51-1.19-1.69,1.58-2.92,3.1ZM90.07,98.9l.19-1.1,1.08-3.73.85-2.24.94,1,.94,1.72L95,95.75l3.44-2.3-.29,2.92-.94,4.06-1.12,1-1.7.33-2-.24-1.38-1Zm1.79-60.08-.23-1.38,2.35.09-.57,1.14-1.36.92Zm-.61,50.57.29-.43,1.17-1c13.7,4.87,28.31,5.51,41.94,0l1.09,1.77-.33.37-3.24,1.06-1.32.39-2.91.75-5.08.91-2.74.14-2.26.39-6.58-.1-2.54-.29-4-.33-2.07-.38-3.87-.81L92.9,90.1Zm1.55-43.5c1.74-3.26,6.38-3.28,8.56-8.41l1.41.1c-1.66,4.7-6.86,6.21-9.83,9.84ZM93,49l.23-.62,1-1.24L99.81,43l2.31-2.52L104,37.53l.85-.05.32.05-.7,2-1.18,1.67-2,2.15-4.8,3.44-3,3.06Zm.18,42.39L93,90.91l.65.33,3.58,1,.57.44-2.68,2-.71-1.29Zm.33-39.57.8-1.77.66-.9,4.37-3.26.25-.09,1.73-1.19,2.3-2.35L105,40.4l.89-1.86.38.9,2,3.31,3.34,2.61L114,46.7l6.64,1.88,1.88,1,.33,1.54.65,2.48.52,3.35-2.59-1-4.7-1.39-2.73,0-1.7.33-.93-.14,2.07-.63,3.38.1,2.17.53L123,56l.1-.67-2.07-.85-3.81-1.06-1.79-.19-2.82.09-1.23.43-1.26.82-1.7-1.43-.42.24,0,.37L109.54,56l-.89.91-.79,1.1-.06.48.8.81,1.75.9,2.16,1.91.76.53.09-.66-1.7-1.78-.24-.28,0-.09c9.09,2.51,6.81-1.63,12.89-1.82l.47,1.91L128.45,74l-.94,1.91-2,2.58-3.38,3.58-5.32,4.3c-6.61,4-11.86,5.37-16.37-2.19L98,79.55l-1.7-4.5-1.65-5.5-.56-4.3V60.8l-.14-.24.32-1.38.71.24,2.12.63,1.88.13,2.4-.57-2.87,3,.14.53,4-2.87.14.57-2,5.61L99.38,70l.05.38,2.3,1.44,1,.38,2.08,1,1.41,1.82.42,0,.05-.58L105.74,73l-.81-.66-1.31-1.25,2.63.2,2.12,1,1.26.2,1.09-.34.7-.85.11-1.68-.43-.86L110,67.93l-1.31-.05-1,.77.29.61.61-.19,1.22-.18.7.71.15,1.15-.8.67h-1.27l-1.28-1-1.59-.9-.85-.33-1.36.24-.61,1.29-2.12-1.34L103.57,61l1.32-3.69V53.93l-.67-2-1.12-1.53-1.23-.81-1.68-.57-1.27,0-2.46.57-2.53,2.11Zm.47,2-.13-.33,1.54-1.25,1-.48,1.61-.52h2.26l2.06.48,1.18.91L104,54l-2.35-.72-2.26-.09-2.81.38-1.28.76ZM90.73,270.13l.66-1.86,1.13-.71,2.26.18.85.59.32,1.19-.1.52-.46-1.34-1-.72-1.18-.18-1.23.57-.94,2Zm2.87-183,.29-.48,3.28-3.25,1.32-1,.89,1.82,2.16,3.11,3,2.63-1.17-.15-1.14-.24-4.32-1Zm.47-30.88V54.83l.51.44.24.62-.57.57Zm.15,1.87.36-.34.2-.09.47.86h-.38Zm-1.9,167,.67-2,.85-.82,1.55-.61,2.35,0,1.31.47,1.37,1.44.47,1.23-.38,6.32-.32,1.05-3.3-3.58-.9-.33-1.5,1.47-1.65,1.43ZM96.24,58.41l-.57-1.14H96l.42.9.85.58,1.7.1.8-.57.47-1.3.14.38L100,58.61l-1.5.67L96.89,59ZM93.89,247l-.72-.09.61,2,.62,1.25c3-1.89,3.36.58,5.5,1l.8-.71h.38l.79.62.67.05,2.11-1.67.47-.19.38.38H106l.57-1.71-.06-.83-2.58,1.1-1.45.34-1.14-.81-1-.06-2,.77-2.49-.47ZM96.37,54.92,96,54.83l1.8-.66,3.24,0-.24.34-2.73.09Zm-3,177,1.08-1.1,1.75-1.62,2.21,2.15.6.91-4-.1Zm4.84-131.39.2-1.19,1-5.68,1.12,1L102,96.55l1,1,3.2-2.39.38-.15-.67,5.65v1.58l-1,.9-.85.48-2.73,0-1.08-.44-1-.94ZM96.57,268.33h.32l1.92.33-.79.81-1,.33Zm1.21-21.85-1,.71v.48l.33.2.9-.48,1.36-.47,2.2.09,1.8.66.14-.52-.47-.44-1.23-.62-1.92-.19Zm-.09-4.35-.47.05.09.33.85.82,1.22.72,1.75.23,1.92-.38,1.23-1.05.19-1.06-.34-.18-.32.57-.57.67-1.88.63-2.21-.24Zm2.77-148.77.09-.3,3.26.63,1.84.24,0,.33-2.3,1.91-.49.15Zm.48-34.71.7-2.15h.61l1.37.44,0,.61-1.36.58Zm.7,19.45-.51.82.27.76,2.82-1.29,1.18-.14.9.57,1.31.34,1.32-.71h1.46l.89.18,1.75.48.71-.62L114,77.4l-.56-.77-1.41.62h-1.13l-2.31-1.43-.7-.15-1,.67-.85-.67h-.67L103,77.34l-1-.29Zm.7-23.22L102,54.4l1.17.24.67.39-1.23-.2ZM104.51,83l-1.17,1.28,0,.81.36.1,1-1.2,1.85-.71,2.24.38,1.38,1.1.41-.14-.18-.63-.85-.71-1.45-.72-2.31,0Zm-3.34,148.67.47-5.49.28-1.81,1-1,1.46-.53c6.86-.4,5.4,5.54,3.85,10.27l-2.78-3.49-.6-.37-3.16,2.3Zm.7,1,.58-.52,2.24-1.82.34.05,2.3,3.1-.75,0Zm2.5-153.42-.24.35.94.81,2.26.62,2.45-.44,1.22-1v-.48l-.52-.09-.61.33-1.22.38-1.93.06-1.36-.44ZM103,261.73l-.85.24.42.24Zm.23-24.76,1.09-.05,5,1.15,4.7,1.44.2.33-4.62,4.54h-.28l-.53-1-1.54-2.59-2.17-2.43Zm3.44-199.11.27-.42,1.14,0,1.45,3.06L111,41.93l1.83,1.28,7.62,3,1.88,1.34v.91c-5.47-2.39-9.11-1.67-13.73-6.79Zm-3.81,251.63c2.26-7.3,8.07-7.28,11.57-12.43l.18.15v1.58c-3.61,4.43-7.63,4.34-10.34,10.66Zm1-17.54.22-.09,2.08.52h3.76l1.61-.38.36.28-1.88.57-3.71.06-1.7-.43Zm.09,1.77-.14-.72,1.5.44,2.35.33h.8l1.08-.14,2.08-.39,1-.66.42.33.76.44,0,.42-1.66,1.44-2.72.71-2.82-.05L104.6,275Zm0-3.63.09-.68,2.55-1-.09.72-.47,1.48-.85-.05Zm3.44-167-.51-1.16,0-2.24.15-1.72.47-3.39,3,3.11,1.21.81,3.06-2.87.25,0,.27,6.45-.94,1.91-.94.48-.85.25-2.5.19-1.12-.34Zm2.49-53.25-1.18.77.15,1.14.94.44.47-.15,2.06-.43,1.27-.33,3,0,2.86.48,1.7.72,1.5.42.24-.38-.66-.72-2-1-3.58-1.2-3.38-.24ZM105.26,289.4l.43-.58-.15-.18.94-1.54,2.3-2.43,3.26-2.3,2.82-2.68.24,1.29-.33.82-2.5,2.15-3.53,2.63-2.26,3ZM109.78,39l-.57-1.54h1.27l.43.1,1.45,2.82c2.78,2.24,6.87,2.23,9.5,4.63l.15,1.2-2.59-1.29-2.86-1-3.44-1.47-2.4-1.82Zm-.85,19.39,1.17-.95.9-.15.19,1.34Zm-.24,36.09.52-.24,1.36.24,3.17.14.27.06,0,.27-2.26,2.3h-.52ZM107.1,270.28l.42-1.49.61-.57.2,0,.32-.29,1.83-.09.71.24.79,1.14V270l-.41-1-1-.72-1.45-.09-1.08.57-.71,1.86Zm3.47-179.7-.47-.24,1.79-.48,2.27.06.32,0,1.84-.15a56.78,56.78,0,0,0,12.56-1.9l0,.71-3.86,1-.47.1-4.7.71-6.11.15-.29,0Zm-2.91,198.87c2.37-4.46,4.84-3.75,7.4-6.84l.18.57-.24,1-3,2.63-2.68,2.72Zm4.47-251.83.09-.09,1.7,0c1,2.76,5.34,3,7.62,5l.09,1.19L118,42.22l-3.62-1.49-1.46-1.14Zm.29,21.18-.57-1.71.6,1.32,1,.68,1.61.09.69-.38.66-1,.47-.81-.19.52.14.33-.32.68-.85.81-.85.2-1.54-.15Zm-3.21,174.44.42-2.44,0-.28,1-4.54,1.35-1,1.47-.33,1.65.28,1,.62,1.37,1.58.09,1.44-.9,3.29-1.22,3.31-.52-.72-1.46-2.63-.75-.86-3.06,2.09Zm.66,1L110,234l.2-.24,1.36-1.05,1.13-.48,1.87,3.39Zm.09,11.28,4.61-4.54-.13-.24.28.09,3.38-3.39,5.46-5.54,5.36-5.31,3.11-2.72c3.86,6,1.08,16.88-2,22.65-5.17,9.56-12.35,18.55-14.67,29.44l-.23-.57-.62-4.69.14-3.1.1-7.32-.75-3.91-2.26-7ZM116.6,89.05,114.44,89l1.22-.86c3.74.07,9.91-1.67,13.31-1.82l-.23.9-2.92.59-2.26.51-3.58.53Zm-1.54-50.9-.15-.57,2.82,0,1.08.9,1.88,1.2.47,1.54-.62-.2-2.21-.85Zm-2.41,230.64-.14-.42.94.24.14.53-.61.27Zm.42,2.78-.09-.28.7-.77-.09,1.81Zm3.06-175L116,95.55l3,2.35.9.42,1.5-1.77,1.79-1.81,1.18,6.26-.29,1.71L122.9,104l-1.4.68-2.22.13-.51-.18-1.61-1.11-.75-1.23L116,97.8Zm.94-37.24.79-1.77.15-.51.94,0,1.84.71-.7.57-1.9.83ZM116.79,95V94.7l4-.48,1.37,0-.34.71-2.15,2.25-.38-.09Zm3-8.13-2,.06,1.32-1,5.65-.87,2.11-.51,2-.06-.24.81-3.47.72-1.32.33Zm-.58-49.22.38-.2,1,.2-.24.81Zm-2.35,198.85-.18-.18.94-.72,1.36-.72.19.06-1.88,1.71Zm-.14-1.56.81-2.83,1.12-3.53,1.5-1h1.42l1.69.52.89.86.15.72-4,3.93-.23-.06-.48-.19Zm0,35.46-.46-.2.33.53Zm6-185.68-2.22.1,1.23-1.11.76-.14,6.3-.91-.24.81Zm-1.13-46.32.38-.13.47.48,2.2,1.47.38,2-3-2.25Zm.7-.57-.13-.38,1.59.14.15,1Zm.05,4.21,0-.66.38,0,3.15,2.49,0,.81Zm.57,2.58-.15-1,3.91,2.68.38,1.14L125.86,47Zm.32,2.29-.09-.81h.29L127.6,49l.52,1.58-3.06-1.82Zm.47,2.63-.23-1.19,5.32,3.87.52,1.58-2.08-1.34Zm1.88,32.94L123,82.6l1.08-.95,4.42-.72.1.76-.29.14ZM124,51.72l-.09-.66,6.26,4.59.36,1.53-.27-.15-4.9-3.63Zm.52,2.83-.14-.48h.33l2.73,2,3.62,2.39.7,1.07.06.75-3.73-2.57-3-2.54Zm-.19,40.9-.15-1,3.53,2.05,1.14.43,1.79-2.48,1.36-1.4,1.23,4.84.22,2.29-.7,1.77-2.07,1.43-2,.29-1.65-.43-1.41-1.39ZM125.21,57l-.29-.77h.29l7.62,5.7.47,1.38-1.83-1.1-4.2-3.2Zm0,23.46.9-.9,2.58-.29-.14.82-1.6.33Zm.75-20.16-.47-1.68.33.06L128,60.62l6.12,4.44.79,2-3.15-1.86ZM124.46,157l-.14-.48,1.88-2.09,1.79-1.58.65.95,2,1.29,1.18.33,1.59-.18,1.12-.72-.51,1.76-.52.24-2.53.58-3.86-.48-.85.24.66.58,2.73.43,1.64.57,2.07,1.48-.13,1.71-.34-.75-.57-.53-1.41-.57-1.59-.06-1.32.53-1.5,1Zm.93-63-.09-.24,1.79-.34,3.38-.76.29,0-.9,1.53-1.31,1.56-.81-.27Zm1.28-30.92-.52-1.43,3.47,2.76,5,3.4,1.7,1.43V70l-3-1.63-3.91-2.63Zm0,15.48.47-.62.37-.24.81-.06.42.48-.38.35ZM125.3,171.2l.2-1.14,1.07-3.49L127,166l1.84.77,2.12.09,1.26-.71,1.22-1.49.14.42.11,1.25-1.38,1.14-3,1.63-1.7.63.38.48,1-.11,2.16-.66,2.87.05.89.52.29,1.1-.9-.42-1.27-.15-1.41.42-1.79,1.4-.8,1.47h-.29Zm2-105.38L127,64.68l1.08.86L132.92,69l4.14,2.19,1,1.82-.14.1-1.13-.48L135,72l-6.16-4.54Zm.67,2.78-.29-1.15,5,3.87,3,2,3.58,1.86,1,2.48-2.21-1.14-2.87-1.67-3.57-2.58Zm.23,8,0-.06.33-.61v.81Zm.19-6.12.09-.24,1.84,1.67,4.18,3.25,5.65,3.26,1.17.75,1.18,2.59c-4.83-2.1-10.22-5.44-13.45-9.76ZM130,74.9l-.18-.57,3.43,2.92,0,.48.47-.15,2.21,1.62,7.63,4.07L144.87,86h-.23l-3.06-1.58-8.14-5.68L130.38,76Zm-.22,73.66-.15-4.49.42-.44,3.91-1.19.24,1.19.94,1.63,1.73,1.24,2.21.29-.85.9-1.4-.33-2.22-.86-2.77-1.67-.32.14v.19l3.43,3.25.93,1.29.34,1.15-.56,1.14-.67-1.91-1.36-1.23-1.32-.35Zm1.79-69.5-.39-1.29,1.32,1.1,5.88,4.5,2.73,1.71,4,2,1.09.9L147.22,90h-.38l-4.05-1.91-5.35-3.49L132.5,80.4Zm41.61,91.19v-4.49l-.65.28-1.32-.23L170,164.38l-.8,0-.71,1.91-.75.77-.62.22-1,.11-1-.48-.84-1.25-.1-1.14.43-1,1.55-1h1.4v-.63L166,160.31l-.47-1,.27-1.24,1.47-1.19.94,0,1.12.53.9,1.28v1.16l-.56,1,.27.62.8-.53-.33.53.1.53,1.69-.62.89.18v-2.24l-1.88,1,.76-1,.67-2.1.45.24v-9.33c-12.95,12.81-25.84,25.45-38.75,38.38l.09.53.52.57,9.83,10,.85-.1,11.76-11.76Zm-41.39,12.29-.61-4.59.28,0,1.89.1,1.31-.43,1.8-1.62.37-1.77,0-.33.71.81,0,1.38-1,1.53-2.5,2.68,0,.28.51.1,1.75-1.43.13.13L132.69,183Zm1.88-144.72.11-.34,2.68.05.32.33.18.81L139,42.84l2.5,3.59,2.57,2.76.11.91-.62,2.1.33.48,2,.91,1.18.76.7,3.69,1.32,3.86,2.17,4.84,2.5,4.06,3.62,4.34,4.18,4v.53L161,81.26l-3.06,2ZM133,82.4l-.14-.42L136,84.37,141.06,88l1.22.81,6,2.74,1.41,2.9-3-1.14-5.12-2.92-4.18-3.2-3.58-3.4Zm0,10.62h.33l2.73,1.81,1.46-1.9,3.71,4.73.14,1.14-.94,1.63-1.64,1-2.17.09-1.31-.77-.81-1.38Zm.67-.67-.43-.57,1.41-.43,1.51-.68.51.53.28,1-1.18,1.62Zm1.54-5.83c4.76,3.55,9.55,7.61,15.43,9.08l1.23,2.15-1-.15-1.7-.75-4-2-1.74-1-4.1-2.67L135.93,88Zm-.89,76.91C133,143.85,155.81,133.22,169.71,146l-1.05,1c-12.14-10.69-30.77-3.7-32.83,12.62-.14,7.58.74,9.27,4.81,15.53l-.94.71-1.37-1.57-1.13-1.73-1.83-4.06-1-4.35Zm.56,41.61-.09-1.86.29-2.53,1.59-3.88.8-.86,1.37,1.39a11.43,11.43,0,0,0,2.68,15.11l-1.74,1.81-2.59-2.87-1.75-3.59Zm3.35-113.5-.43-.57L140,92.55l3,1.91,6.39,3.38,3.49,1.4L154,100.8l.51,1.1-1.74-.75-1-.39-4.57-2.44-5.88-3.92Zm-1.61,71,.2-3.3.37-.72,1.13,1.06.61,1.05-1.93,2.19Zm.57,3.29-.24-1.14.9.48.75.28.75.53-1,1.77-.47.43-.71-1.87Zm.1-2,.61-.72,0-.24,1.23-1.1.13,3Zm.38-24.62,1.54-3.73.75-1.23,1.36.14,3.11.52c-.84,3,.12,5,3.1,5.94l-1.4.75-.9-.33-2.54-2.48-1.6-2.21-.56,0,.52,1.24,1.55,3.25v2.34l-.28.38-.62.44-.14-1.54-1-1.9-1-.86Zm.27,19-.51-.67,2.53-1.06-.61,2.83-.33.09Zm-.47-1.77,1.08-2.87.71-1,.76,2.73-1.37.73Zm2.91-117.71-.13-1.15,1.27,0C141.69,42,146.33,49,150.66,50l.18-.44c-4.72-2.35-7.64-6.4-7.76-11.84l.38-.15.75,0h11.1l3.38,0,.76,0,8.38-.09h3.89l.85.2-.89.9-3.34,5.31-2.82,6.49-1.08,6,.13,3.92.29,2.24,1.36,4.54L168,70.8l.75,2.15-1.64.28-2.4,1.58.56-2.39L165,69.88l-.6-.81-.85.24-.52,1.62,0,2.39.57,1.78.61.43-.51.18-1.56-1.14-1.61-1.95-1.86-3.49-.9-4.5.09-2.67-2.12-.83-1.87-1.52-1.46-1.77-1.5-3.67.18-.81.18-2.25-.51-.2-.56,1.2,0,2.35.67,2.39.93,1.71,2.68,2.77L157,62.57a14.83,14.83,0,0,0,6.63,14.06l.47,3.2-.79.24-.47-1.15-2.54-2.58L158,73.52l-1.83-3.34-1.17-4,.09-2.15L152.91,63,151,60.86l-1.55-2.58-1.17-3-.67-4.4-1.23-1.1L144,46.66l-2.73-5.21ZM138.61,169.2,140,167l1.18,2.82-1.88-.19Zm.62,1.82-.24-.72.62,0,1.73.61-.23,2.59-.85-.86Zm1.59-75.57-.61-1,1.22,1,4.76,3L148,99.51l3.9,2.12,3.11,1.43.74.28.81.62,1,1.77-5.37-2.39-2.11-1-3.72-2.1-4-3.06Zm-.7,57.08-.15-.78,1.56-.42h1.35l-2,3Zm0,9.74c.13-13.49,15-21,25.34-12.13l-.38.66-.84.48c-12.95-10.06-29.29,5.5-19.15,19.41l-1.17,1-1.56-2.11-1.26-2.76Zm.45-11.66.67-1.1,2.44-2.2,0,2.68-.23.24-1.27.28Zm.85,37.56.53-1.24.23-.43,1.14-.76,1.87.33.23-1-1.21-.52-1.23-1.53.56-1.86,1.18-.86,1-.06.65.3.94,1.19v1.38l-.28.62.38.63.57,0,.93-1.09,1.08-2.73,2,2-2.54.72-1.5,1.34.33.48h.56l1.41-.19.89.48.76,1.29v1.05l-.28.53-1.37,1-1.07.14-.81-.43-.85-1.53h-1.13l-.23,1.29-.42.71-1.27,1H143l-1.22-1.05Zm.72-15.72.22-.9.81.94-.85.82Zm1.92-6-.65-1.19,0-1.14.43-1.25,1.07-1,1.28-.38,2.72.24.34,1.43.74,2.39-2.35,1.86-1.36.33-1.17-.33Zm1.27-66-.27-.33c2.06,1.63,11,6.3,13.73,7l2.3,3-.18.19L158,108.89l-7.09-4.06-2-1.35-3-2.42ZM144,158l.14-1.38.62-1,1.74-1h1.37l1.07.68,1.88,1.86-.65,1-1,2.54-2.59-.11-1.5-.9Zm.48-8.51,0-2.43.24-.24,2.35.42.23.24-2.49,1.82Zm1.45,13.73-.79.8.18,1.2.85.76h1l.62-.52.23-1.25-.29-.57-.79-.53ZM145.81,146l-.23-.1,1-.66,2.21-1.05h.8l-1.26,2.54Zm-1.17,67.49c-.31-6.25,9.34-9,14.43-8.32l-1.93,1-6.72,1.49-3,1.33-2,2.2-.19.87.52,0,.24-.43,1.17-1.25,1.79-1.1,2.3-.85a23.15,23.15,0,0,0,9-3.07c-3.13,4.17-8.91,3.62-13,6.07l-2.4,2.2Zm1.45-57.4-.57,1.34.15.48.8.9,1.22.09.8-.66.14-1.34-.43-.58-1-.53ZM147.64,222l-.14-1.58.29-.76,1.64-1.43h2.5l1.5.66.18.68-1.32,1.29.11.57,1.36,1.38-.29.34-1.36.61-2.54-.09-1.37-.81Zm1.47-68.73,0-.95.41-.85,1-1,1.12-.57,1.65-.1,1,.44,1.55,1.9v1.87l-.27,1.34-.56-.1-2.23.58-1.21.66-1.75-1.71Zm.27-6.88,1.23-2.24.32-.24,2.08,1.53-1,.24Zm.71-12.38-.28-.52,3.91-3.44h.41l2.26,1.44,1.6.9.23.38-.65.58L156.34,136l0,.92.75,1.71.81.86h-1.32l-.66-.67-1.08-2.34-.76-4.59-.37,0-.47,4.93-.75,2.29-.81.72h-.94l.67-1.39.09-2.1-.47-1.34Zm2.16-95.82-1,2,.2,6.36.83,1.91.52-.24.95-3.2.37-2.82-.66-3.53-.69-.63Zm-.09,68.58-.52-.48,1.08.62,3.77,2.06,1.83,1,2.82,1.38,1.14.38,2.35,2.87-.06.29-9.12-5.35Zm-.76,45.12-.65,1.2.09.33,1.09,1,.94.05.89-.66.05-1.2-.85-1-.67-.13Zm1.38-103.18v.61l.23.29,3.42-.77,4-1.56,3.2-2,2.08-1.91-.19-.71-1.74,0-2,.57-2.67,1.14-3.44,1.91Zm1.12,1.86-1.12.09.36,1.11,2.26,2.15,2.92,1.82,1.88.81,1.28,0,.51-.27-.09-1-1-1.25-2.17-1.49ZM151.6,205.1l-.94.09,3.66-3.53.43.09,2.16,1.38,1.78.72.71.33-2,.33-2.35,0-2,.15Zm.8-61.09-.85-.67,1.7-.33,2.62-.1,1,.2-2.41,2.1Zm.56,35-.61-1.14.43-1.68,1.59-1.25,1.18.09.27-.27.11-.57-1.42-1-.85-1.68.71-1.87,1.36-.75,1.05-.06.65.35.94,1.05.19,1.14-.52,1.48.28.67.47-.24,1.51-2,.75-2.16.14-.09,1.83,2-.93.24-2.22,1-1.12,1.39.27.72,1.28-.68,1.22.06,1.36,1.33.14,1.68-.56.9-1.13.81-1.17.06-.67-.3-1.21-1.43-.76.05-.33,1.62-.94,1-.8.53-1.5-.09Zm.33,42.15.47-.61,1.64-1.88,1.56-1.43.75.66.24.15,2.68,2.87-1.84,2-1.18,1.38-.65.54Zm.75-3.73-.32-2.39.41-1.77,1.69-1.53,1.79,0,1,.44,1.18,1.58.18,2.39-.65,1.76-.42,0-1.65-1.67h-.57l-2,2.17Zm.19,11.76-.24-.9.2-2.36.7-1.67h.33l1.5,1.49.62.18,1.55-1.67.42.06.85,2.38,0,2.34-.62,1.1-1.17.91-1.69.1-1.5-.67Zm.85-28.29,1.13-1.1,2.92-2.78.56.63.65,1.76-1.55.72.19.38,1-.24,3.58.3,1.13.47.43.63-1.51.13-.52.48-.19,1.19H162l-2.77-.38-3.29-1.47Zm.74-55.63.57-.53,1.18-1.25.38,0,1.07,2.2Zm2.93-85.51-1,1,.42,1.38.56.43,1.23.1.8-.58.05-1.33-.94-.91Zm-2.12,95.59V153l.65-1.34,1.74-1.29h1.47l1.79,1.38.37,1.2-3.48,3.53-.51-.28Zm2.59-3.29-.9.71.1,1,.6.61.9.34,1-.62-.1-1.38-.66-.58Zm.13-7.37-.75-1.43,2.68.62,2.08.86-.14.24-.71.39-2.17.81Zm0,67.2,1-1.63.57-1.77,1-3.58.56-.52,0,.81-1.08,3.91-1.6,3.11Zm.52-15.35.09-.57,2.92-2.53-.56,1,.47,1.28-.29.57.09,1.29-.42.29-.28,1.53h-.52l-.94-2.3Zm0,22.37,1.14-.71,2.72,0,1.13.57.76.95.22,1.48-.18,1.24-.85.87-1.08.47-2.12.14-1.65-.71.15-.34,1.55-1.67,0-.43ZM162,146.7l.47-.3,1.12-.57,1.09-.05.56,2.78Zm2.49-69.26.37-.67.38-.2,1.41-.27,1.59-1,1.18-1.49,2.26,3,.52.87-.9.18-1.88.15-3.8,1.15-.56,0Zm-1.56,121.87-.13-.72,1.08-.33.22,1.14-.42.29Zm.24-4.64.42-.42.51-.39.49.24-.06.76-.79.33Zm.28,2.15-.13-.62,1.4-.29.37.68-.27.75h-.9Zm.19-4.3.61-.53.34.34-.15.47Zm.24,10.94-.29-.81.9-.18.37,0,.9-.33.42.43.14.67Zm-.2,2,.06-1.05,2.91-.33.65-.92,1.05.53,1.68,0,.38.05-1,.72-2.06.67-1.56.14-.42.29Zm.67,3.1-.47-2.09,1.36.09,2.73,2.15,1.83,2.54,1.75,3.62.56,2.87-1.88-3.49-2.45-3.15-3-4.59-.47.33.56,1.25,1.79,2.77,2.55,3.53,1.92,3.79-2.59-2.88-2-2.53Zm.56-9.41-.29-1,2.5.43,1.83.73,1.88,1.71.47,1-.33,1.43-.09-.62h-1.12l-1.61-.1-1-.29-.57-.37.61-.29,1-.72.19-1.1-.37-.28-.29.37-.52.92-1.08.28L164.67,200Zm0-7.7-.09-.09,1.14-.62,1.59.09-.18.29.18.48v.66l-2.12.24,0-.42Zm1.41-42.11-.79-3.29h.32l1.89,1.67v.39Zm-1.12,44.32.33-.24.7-.24,1.93.14.15,1.62-2.68-.14Zm.56,2.81-.33-.72,2.07,0,2.35.67,1.14,1.38.18,1.48-.27.48-1.65-1.19.13-1.73-.47-.57h-.42V198l-1.68-.43-1.14-.33Zm2.78-4.34-.34-1.16.57.1.75.62.06.9-1.23-.13Zm.62,3.05-.2-1.58h.24l1.23,1.05.18,1.1Zm1,2.49-.38-.06v.25ZM34.85,37.44H173.13v252.1H34.85ZM33.92,290.5H174.07v-254H33.92Z"/><path class="cls-3" d="M35.75,196.88l-1.65-1.06.56,1,1.79,1.91,5,5.7,1.55.33,2.21,1.38,4,2.11c4.05-1.31,4.9-2.35,8.65-3.82l2.45-1.3h.1L67,199.21l.94-.62L71,196.25l.57-.8c-9.87,5.9-21.75,7.5-32.46,3M34,218.85l.27,2.3.62.33,8.18,8.42,5.31,6.21.47,1,.2-.08,3.42,4.48L57.71,249l3.95,6.8L68.29,269l5.18,12.85,2.17,7,.51,1.05,3.67,0v-1.16L77.65,281l-1.45-4.29-5.74-14.15A235.46,235.46,0,0,0,44,221.77l-8-8.4L34.34,212Zm23.18,1.06,3.06,3,.71-.11,1.13-.57,4.41-1.48,10-2.25,3.44-.37.19-.3.19.24c8.75-1.3,17.16-.65,25.92.76,8.1,1.52,15,3.43,22.11,7.46l-1.9,2.06-.65.77-2.48,2.57.13,1.82-.28,3.92-.9,2.81-1.5,3.73-1.93,3.35-2.77,4.3-2.16,4.16-.67.91.42,2.15.34,8.08c3.31-9.13,11.13-16.65,13.59-25.39l1.55-5.83.24-2.57,0-2.78-.65-3.44.18-.33h-.18l.28-.48L133.3,222l.94-1.14L130,215.8c-5.58-8.76-4.67-18.37,2-26.29L129.62,187l-.65-.47-1.83,2.15-2.59,4.54-1.93,5.49L121,193.9l-3.52-11.7-.94-5.26L123,177l-1.23-3.2-.51-1.09-2.12.14h-7.85L108.18,176l-.43-.15-3.06-3-6.49.24-7.19,0-3.34.24-1.55,3.25.23.53,6.78-.15,4,.06-.38,1.23L93.13,185l-3.81,6-3.53,4.69-8.61,9.74-8,8.57-3.58,3.38-1.41.39L58,219.58ZM77,214.69l.43-.33.62-.9L81.7,209l7-9.69,1.14-2.12,1.74-2.53,4.52-8.73,3.24-8.09.43-.72,9-.05,1.13.15,2-.24,2,.05c2.43,13.79,7,33.21,14.33,44.87-15.34-6.13-31-9.73-47.65-7.4Zm25,21.23-.43.15,3.11,2.67,1.93,2.29,2.59,4.3,5.39-5.35.34-.62-2.44-.81-4.7-1.4Z"/><path class="cls-3" d="M78,94.4l.27,3.2.62,3,1.68-1.44,3-2.86.61-.77-.19-1C83.92,84,90.21,78.75,94.35,69.94L94,66.83l-.24-8.18-.57,1.4-2.39,5.29L81.56,81l-1.93,5.3-1,4.21m14.9-4-.75.83a53.94,53.94,0,0,0,14.17,3.82l0-.29h-.32l-2.3-1.43-1.18-1L100.8,85.8l-2-3.44-.51-.67Z"/><path class="cls-3" d="M48.68,169l-.29.43c6.53,4.4,12.24-2.25,8.94-8.64l-.38-.06-3.94,4"/><path class="cls-3" d="M73.61,105.93l-.38.57.53.28,3,3.69,1.88,2.9,1.65,4.31.66,3.63-.1,4.25-.51,3-1.61,4-2.68,4.3.1.33,2.73,2.72.32,0c3.6-6,2.69-2.93,5.61-11.32l.23.48,3.19,9.79,2.08,7.5.74,3.83-5.17-.09-.47,0,.52,1.76,1.13,2.73,9.64-.14,3.67-3.82h.18l4,3.53,7-.19,8.94-.05.62-2.06.41-1.9-.9.24-4.5-.1-4,.14-1.69-.18c5.26-12.27,13.93-22.68,22.85-32.36,12.16-13,6.59-5.47,17.22-11.52l-3.11-3-1.17.81-1.79.72-5,1.81-4.22.91a92.82,92.82,0,0,1-17.28,1.82l-7.51-.2-2.26-.14-4.1-.57-3.15-.58-5.36-1.14L91,105.64l-6.87-2.49-3.67-1.58-1.12-.95-1,.71m3.3,7.56L80,105c5.4,3,14.35,5.5,20.46,6.73l2,.24,6.16,1,4.47.33,7.15,0L123,113l4.84,0,1.56-.29.94,0c-9.49,11.07-17.7,23.55-22.58,37.48l-1.73.09h-4.53l-8-.15L92,142.14,89.88,133l-3.71-12.56-1.74-4.65-1.18-2.62-.75-2.34Zm13.42,51.23,0,.38,12.33,11.9h.47l4.93-5.12.38-1-4.23-4.2-8-7.55-.75.14Zm4.21.57-.13-.72.57-.57.88-.09.57.38.14,1.24-.51.57-.81-.09Zm3.49,4-.14-1.06.61-.76,1.41,0,.89.72v1.57l-.51.54-.9,0-.7-.24Zm4.42,3,.71-1,1,.19.23,1.15-.66.67-.66-.15ZM130.15,37l-2.5.29c4,17,12.6,32.88,21.36,47.79l2.59,4,5.31,7.5,6.11,7.89,3.91,4.16,6.49,6.74.29,0,.09-1.54.18-7.07c-4.45-5.13-8.56-8.26-12.74-13.62l-5.42-6.83-6.1-8.71L145,69.5l-6.58-14L133.06,42.6l-1.54-5.49ZM143,126.48l-5.74,4.19.48.15,3.14-1.58,1.92-.7,6.37-1.78,4.45-.61c8.15-.63,11.2,1.49,18.07,3.77l-5-6-2.86-1.43-3.06-1.91-2-1.11-1-.09-3.25,1.38-5.08,2.45-4.27,2.19Z"/><path class="cls-3" d="M149.48,160.21l-.1,1.63.14,1.15.9,2.44.61.42,2.16-2.39,5.65-5.44.42-.72c-2.86-2.6-6.17-2-8.65.72"/><path class="cls-3" d="M81.64,68.89c.78-9-7-16.42-15.14-8.71l-1.65-2.4c9-5.85,4.58-16.86-5.42-17.38-10.2.09-15.16,11.38-5.9,17.38l-1.65,2.4c-9.25-8.75-17.63,2.09-14.57,11.34,1.16,4,4.75,7.67,9,7.81a7.67,7.67,0,0,0,5.86-2.06c1.62-1.23,2-3.55,3.12-4.64,1.3.67,1.24.54,1.18,2-.61,3.79-3.12,8-5.15,11.16a53.37,53.37,0,0,1,15.66,0c-2-3.25-4.53-7.29-5.14-11.16-.09-1.41-.06-1.32,1.18-2,1.09,1.06,1.53,3.5,3.12,4.64A7.63,7.63,0,0,0,72,79.33c4.76-.16,8.51-4.51,9.38-9"/><path class="cls-3" d="M126.92,258.09c-.77,9,7,16.42,15.14,8.71l1.65,2.4c-9,5.85-4.58,16.86,5.42,17.38,10.2-.09,15.16-11.38,5.9-17.38l1.65-2.4c9.25,8.75,17.63-2.09,14.57-11.34-1.16-4-4.75-7.67-9-7.81a7.68,7.68,0,0,0-5.86,2.06c-1.62,1.23-2,3.55-3.12,4.64-1.3-.67-1.24-.54-1.18-2,.61-3.79,3.12-8,5.15-11.16a53.3,53.3,0,0,1-15.65,0c2,3.25,4.52,7.29,5.13,11.16.09,1.41.06,1.32-1.18,2-1.09-1.06-1.53-3.5-3.12-4.64a7.63,7.63,0,0,0-5.84-2.06c-4.76.16-8.51,4.51-9.38,9"/><path class="cls-3" d="M172,38.48v250H35.88v-250H172m2-2H33.88v254H174v-254Z"/></g></g></svg>