<svg xmlns="http://www.w3.org/2000/svg" viewBox="0 0 208 326"><defs><style>.cls-1{fill:#fff;}.cls-2{fill:#6f7072;}.cls-3{fill:#f5a11a;}.cls-4{fill:#f9ca24;}.cls-5{fill:#0087c5;}</style></defs><title>QD-fr-4C</title><g id="Calque_2" data-name="Calque 2"><g id="FR_-_EN" data-name="FR - EN"><path class="cls-1" d="M14.83,325A13.84,13.84,0,0,1,1,311.18V14.82A13.84,13.84,0,0,1,14.83,1H193.17A13.84,13.84,0,0,1,207,14.82V311.18A13.84,13.84,0,0,1,193.17,325Z"/><path class="cls-2" d="M193.17,2A12.84,12.84,0,0,1,206,14.82V311.18A12.84,12.84,0,0,1,193.17,324H14.83A12.84,12.84,0,0,1,2,311.18V14.82A12.84,12.84,0,0,1,14.83,2H193.17m0-2H14.83A14.83,14.83,0,0,0,0,14.82V311.18A14.82,14.82,0,0,0,14.83,326H193.17A14.83,14.83,0,0,0,208,311.18V14.82A14.83,14.83,0,0,0,193.17,0Z"/><path d="M188.81,177.13c-1.79-1.12-3.4-2.44-5.1-3.67-.59-.1-.8-.6-1.31-.79a5.49,5.49,0,0,1-1.47-1c-2-1.1-4.2-2-6.06-3.17.88-2.52,2.39-5.26,3.12-7.39.85-1.9,1.37-4.13,2.34-5.92,0-.19,0-.29.16-.32a13.52,13.52,0,0,1,1.24-3.45c0-.27.15-.28.16-.49a4.14,4.14,0,0,1,.62-1.81V149c1.19-2.86,1.28-7.46-.81-9.78-2.11-2-1-4.77-.28-7.51.38-2.62.92-5.1,1.17-7.85v-.16a99.69,99.69,0,0,0,.31-10.45c-.37-.39-.08-1.47-.19-2.13,0-1-.37-1.6-.37-2.6-.06-.6-.42-.9-.51-1.46a2.23,2.23,0,0,1-1.32-1.45h-.16a23.56,23.56,0,0,1-4.28-3.68c-.14,0-.17-.16-.33-.16a9.3,9.3,0,0,1-2.3-1.92c-1.23-.33-1.75-1.4-2.79-1.91a14.61,14.61,0,0,1-2.46-1.76,74.56,74.56,0,0,1-7.87-4.93c-.23-2.51-.67-4.71-.94-7.5-.17-1.79-.75-4.22.57-5.07.82,1.73,3.05,4.36,5.09,3.18,1.72,1.21,3.65,2.19,5.41,3.34a1.05,1.05,0,0,0,.81.16c1.23-1.92,1.94-7.25.18-9.15v-.16a2.59,2.59,0,0,1-1.18-2.76c.07-.68-.75-.43-1-.8-1.07-.39-2.82,0-3.59-1.08a1,1,0,0,1,0-.17c-3.77-.89-3.93,4.1-7.39,4.53-.59-2.11-1.94-5-.94-7.82,2.82-1.21,4.45-3.59,5.41-6.61A8.82,8.82,0,0,1,164.19,59c.18-2.74-.42-5.19-2.21-6.34a5.27,5.27,0,0,0-1.83-2.58,2.87,2.87,0,0,0-2.28-.29c-.67.15-1,.69-1.44,1a4.6,4.6,0,0,0-1.32-1.12,2.18,2.18,0,0,1-1.3-.31h-.49a6.53,6.53,0,0,0-1.61,1c-.26.17-.16.7-.31,1h-.16c-.59.08-.78.43-1.29.18l-.82,0c-1.83.25-1,3-2.54,3.63-.63.19-.77.85-1.44,1a1.48,1.48,0,0,1-.64.67v.16a3.82,3.82,0,0,0,.05,2.93c1.68,3.9,3.07,8.09,7.93,8.69a15,15,0,0,1,2.38,6.82c-3.4-.75-5.43-5.18-9.82-4.9-2.78,0-4.14,1.33-5.48,2.7,0,.47-.41,1.47.2,2a8.68,8.68,0,0,0-2.34,6.25c1.34.9,4.13.61,5.53.56.44.2.52.78,1,1,1.9.14,2.67-.83,3.71-1.53,2.5,1.6,4.72-1,5.31-2.86,3.83.67,3.51,5.65,3.57,10.23A13.33,13.33,0,0,1,152.13,87c-1.16-.63-3-2.31-4.09-2.22-1.57.13-1.85,2.28-2.71,3.64-.71,1.14-1.76,1.51-1.74,2.64-3.06-.86-5.17-3.12-7.71-4.94a19,19,0,0,1-3.12-2.24c-1.22-1.64-1.41-5.38-2.07-8-.3-1.14-1.16-2.25-.87-3.09a5.8,5.8,0,0,1-.52-2.44c-.51,0-.29-.81-.35-1.3a5.7,5.7,0,0,1-.52-1.79c-.35,0-.08-.57-.17-.81-.37-1.33-1.06-2.33-1.2-3.9-.22,0-.14-.4-.18-.65a18.93,18.93,0,0,1-1.2-4.22v-.16a8.91,8.91,0,0,1-.7-3.26c-.24-.06,0-.14,0-.33-.37-.33-.22-1.21-.51-1.62-1-1.76.09-4.75-2.19-5,.48-1.45,2-2,2.06-3.46a5.49,5.49,0,0,0-.39-4.08A9.71,9.71,0,0,0,121.29,37c-.42-.94.77-1.3.61-2.46a4,4,0,0,0-.52-2.28c-.26-.61-.95-.78-1.16-1.45a22.53,22.53,0,0,0-2.77-.6,8.55,8.55,0,0,0-.85-2.44c-.16,0-.13-.2-.17-.32a35.32,35.32,0,0,0-4.13-4.34c-.52-.12-.71-.58-1.15-.8a11.91,11.91,0,0,0-1.64-.95,24.83,24.83,0,0,0-7.18-2.5c1-1.93,1.84-3.45-.4-4.56A2.86,2.86,0,0,0,103,12.68a1.29,1.29,0,0,0-.27-.25H87.85a1.72,1.72,0,0,1,.26.33,4.16,4.16,0,0,1-4.16,4c-.06-.92,1.46-2.18,1.41-3.12a2.29,2.29,0,0,0-1.16-1l0-.15H74.3c-.48,1.1-1.84,2.38-.58,3.66-.16.6-.56,1-.63,1.64.51.94,0,1.74.2,2.45.58,1.81,2.71,1.39,4.25,1.73.8-.19.62-1.33,1.61-1.34-1,2.6-2.4,5.31-5.94,4.51.48-3.36-2.89-3.86-6.07-4.15a2.64,2.64,0,0,0,0,1.79c.56,2.77,1.29,4.71,4.77,4.17.53,3.6-.88,5.47-3,7.23-.25-.77.42-1.35.13-2.12-.37-1-2.35-1.06-2.47-2.25-1.09.09-3,.14-4,1.14h0v0a1.62,1.62,0,0,0-.17.19h-.16c0,.13-.16.16-.16.33s0,.54,0,.81c-2.6-.22-3.18,1.52-4.84,2.2a4.22,4.22,0,0,0-.78,2c1.47.47,3.39-.71,5.68-.09.77.64,1.05,1.49,2,1.6s1.69-.86,2.66-1.23l.13,0a2,2,0,0,1,1.41.06c0,1.37,1.21,1.52,2,1.6.12,1,1,1.33,1.81,1.61-.08,1.34-.86,2-.76,3.11-.42,0-.12.64-.64.5.06.65-.37.82-.3,1.47a15.36,15.36,0,0,0-3.18,4.79c-2.86,3.58-4.66,8.2-7.27,12-1.57,5-5.39,8.65-5.44,15.11a13.28,13.28,0,0,1-.6,3.76.45.45,0,0,1,0,.66,28.83,28.83,0,0,1-1.83,7.21v.16a3.45,3.45,0,0,1-.46,1.8c0,.17,0,.33,0,.49-.2,1-1.08,1.31-1.92,1.67a.83.83,0,0,1-.48.17c-4.55,2.8-7.29,7.36-10.7,11.27v.16c-3.21,4.7-6.23,9.58-9.18,14.52V119c-3.39,5.43-6.35,11.28-10,16.48-.45,2.33-3.9,4.67-3.61,7.24.1,1,1,1.81,1.5,2.75a2.33,2.33,0,0,1,.82.8,3.16,3.16,0,0,0,1,1,3.24,3.24,0,0,1,1,1h.16c3.1,2.53,6.72,4.52,10,6.86a12.49,12.49,0,0,1,3.76,1.73c-1.34,3-2.58,6.16-3.91,9.21a1.33,1.33,0,0,1-.31,1v.16a17,17,0,0,1-.93,2.3c0,.19,0,.29-.16.33-.67,1.76-.88,4-1.86,5.42v.32c-.36,1.26-.65,2.58-1.08,3.77a19.18,19.18,0,0,0,.07,3.76c.61,1,1,2.28,1.67,3.23,1.83,2,.6,5,.11,7.18a33.57,33.57,0,0,1-1,5.73v.17c.43.21.21,1.69,0,2.28v.17c-.2,4.7-.64,9.52.22,14a1.1,1.1,0,0,1,.18.82c.76,2.31,2.85,3.22,4.3,4.82h.16c1.68,1.41,3.58,2.59,5.26,4H37a3.61,3.61,0,0,1,1.48,1.28c.46.36,1.22.41,1.48,1a18.53,18.53,0,0,1,2.14,1.43c2.28,1.56,4.93,2.73,7.05,4.46-.07,3.89,2,8.19.84,12.07-1.72-.87-2.45-2.77-4.44-3.36-.57,0-.71.48-1.28.51a29.83,29.83,0,0,0-5.74-3.5c-.43.06-.54.43-.64.82a6.57,6.57,0,0,0-.29,2.13,10.09,10.09,0,0,0-.26,4.09,6.5,6.5,0,0,0,.84,1.78c.27.49.82.69,1,1.28.93.44.15,1.85.69,2.44,2.24.22,3.75,1.2,5.71,1.71,2.65-.91,2.6-4.44,5.94-4.67.5,2.31,2,5.78.77,7.83-2.9,1-4.14,3.57-5.1,6.44,0,1.34-1.81,1.57-1.08,3.12h-.17c0,.17,0,.33,0,.49a4.79,4.79,0,0,0,1.54,4.39c.88.12.85,1.21,1.16,1.94a4.94,4.94,0,0,0,2.95,1.75c.94-.11,1.36-.73,1.94-1.18.66.14.94.68,1.47.95,1.29.75,3.76,0,4-1.69.74-.08,1.79.13,2.27-.2.13,0,.16-.17.32-.17.92-.6.89-2.13,1.42-3.13a.76.76,0,0,1,0-.15c.68,0,.8-.52,1.45-.52.4-.47.73-1,1.12-1.49,0-.05,0-.11,0-.16a4.74,4.74,0,0,0-.2-2.77.72.72,0,0,1-.17-.49.45.45,0,0,1-.34-.48c0-.14-.06-.15-.16-.16a2.63,2.63,0,0,1-.35-1.46c-1.61-2.75-3.34-5.38-7.07-5.93-1.41-1.67-2.18-4.57-2.55-6.81,3.73,1.24,5.44,5.37,10.15,5.06.48-.28,1.39-.14,1.94-.36,0-.19.3-.14.49-.17a9.4,9.4,0,0,0,2.56-2.16c.3-.78.45-1.51,0-2,1.54-1.26,2.48-4.55,2.33-6.41-1.57-1.18-5.43.3-6.84-1.35A5.79,5.79,0,0,0,61.91,243c-2.73-1.18-4.37.92-5.31,2.87-4.07-.68-3.66-5.87-3.89-10.06a77,77,0,0,1,8.5,3.78c1.52-.28,1.92-1.67,2.55-2.82-.73-.85-1.77.38-3.41.06a3.66,3.66,0,0,1-1.52-3.73c1.37-3.53,6.6-1,5.39,2.19.94-.2,1.07-1.21,1.76-1.66,2.52,1.54,4.9,3.37,7.55,5.27,2.39,1.71,3.22,2.38,4.15,5.64.69,2.41,1.23,5.08,1.91,7.64a5.31,5.31,0,0,1,.52,2c.22,0,.14.4.17.65a3.49,3.49,0,0,1,.51,1.29c0,.19,0,.29.17.33,0,.21,0,.43,0,.65.34.31.32,1,.51,1.46-.06.39.3.35.18.81.46.3.31,1.22.51,1.79v.32a23.5,23.5,0,0,1,1.38,4.39c-.07.4.3.35.17.81a16.45,16.45,0,0,1,1.21,4.4c1,2.33,1.1,4.69,2.54,6.32a7,7,0,0,0-2.38,3.95c0,.33,0,.66,0,1a6.7,6.7,0,0,0,.85,2.44,13.53,13.53,0,0,0,2.31,2.41c.49.91-1,2.77-.25,4.08a6.1,6.1,0,0,0,2.47,2.41c.49-.13.59.16,1,.15a.78.78,0,0,1,.81.31h.17c-.11.5.29.47.18,1a3.49,3.49,0,0,1,.5,1.14.77.77,0,0,1,.17.48c.58.51,1,1.22,1.49,1.78.81.7,1.49,1.54,2.31,2.24A5.12,5.12,0,0,1,98.75,302a.72.72,0,0,1,.65.31,22,22,0,0,1,3.27,1.58c1.52.54,3.13.93,4.89,1.56-.62,1.76-.1,3.66-.23,5.39a3.8,3.8,0,0,1,.81,2.15h.55l.22.92h2.42l.43-.92h.41c1.57-1.12,6-2,7-.06,0,0,0,0,0,.06h4a.67.67,0,0,0-.06-.12c-.59-.71-1.62-.88-1.65-1.61.68-1.78,1.74-3.92,4.16-3.49-.27,1.46-1.65,1.71-1.09,3.28.82.67,1.92,1.05,2.52,1.94h.62l.89.59c.06,0,4.08.33,4.08.33l2.19.21L135,313h.61a8.21,8.21,0,0,0,0-1.46,2.34,2.34,0,0,0,.43-3.43c.19-.62.58-1,.79-1.64s-.51-.37-.34-1c-.21,0-.17-.32,0-.32.21-3.22-3.21-2.34-4.57-1.73l-.66-.8.2-.62c.8-2,3-3.48,5.11-2.41-.59,2.69,2.28,3.68,5.09,3.84.51.41.76.23,1.3,0-.1-.5-.39-1.34-.19-1.63-.46-2.64-1.92-4.89-5.1-4.17-.38-2.72.93-6,3.3-7.07a6.93,6.93,0,0,0-.29,2.29,4.45,4.45,0,0,1,2.47,2.25c1.2.28,2.29-.85,3.88-.72.19-.41.64-.55.64-1.15-.2-1.32,1.6-.6,2.09-.85.32-.33.47-.84,1-1a6.36,6.36,0,0,0,1.77-1c.32-.71,1-1.1.78-2.3-1.39.23-6.29,1.16-7.49-1-1.46.62-2.47,1.21-4.2.88a2.23,2.23,0,0,0-2.14-1.6c-.19-.95-.65-1.65-2-1.44-.11-1.85,1.49-3.34,1.87-5.25,4.39-5.1,7.61-12.09,10.9-18.45,2.07-4,4.67-7.15,4.67-12.81a11.09,11.09,0,0,1,.44-2.78c0-.11,0-.22,0-.33.43-4.57,1.79-8.22,2.73-12.29a13.86,13.86,0,0,0,6.43-4.18c.3-.56.87-.87,1.28-1.33a20.15,20.15,0,0,1,2.39-2.81c1.08-1.36,2-2.88,3.18-4.13.66-.75,1-1.83,1.75-2.47,0-.06,0-.11,0-.17a9.1,9.1,0,0,1,1.27-1.82c0-.38.16-.7.48-.82,1.54-2.41,3-4.92,4.42-7.42a43.8,43.8,0,0,1,2.69-4.45c.05-.38.16-.7.48-.82.23-.31.22-.85.63-1,.18-.47.21-1.09.63-1.32,0-.19,0-.29.16-.33.38-.75.67-1.59,1.1-2.3v-.16a3.15,3.15,0,0,0,.64-.5,22.08,22.08,0,0,1,1.9-3c-.05-.26.14-.28.15-.49a19.33,19.33,0,0,1,2.06-3.14c.87-2.09,2.36-3.78,3.32-5.44C194.82,181.76,190.73,179.34,188.81,177.13Zm-57.3,92.5c-1.66-2.48,4.86-5.83,1-8.34-1.1-.72-3-1.35-2.74,1.35-3.27-2.08,3.07-4.36,4.52-1.55C135.69,264.7,132.59,267.14,131.51,269.63Zm2.66,3.71a4,4,0,0,1-.87-3.58A4.65,4.65,0,0,1,134.17,273.34Zm-1.73,3.46c-.54-.31-.14-2.35-.05-3.1C133.19,274.16,133.37,276.36,132.44,276.8Zm-13.23,15.39c1.56-.29,1.59,1,2.14,1.76,2.07.29,2.66-1.95,3-3.47a16.18,16.18,0,0,0,.42-4.26c-.27-2.52-.89-4.76.7-6.54s3.38-1.67,3.83-4.14c.76-4.14-2.26-4.51-2.08-8.46a4.42,4.42,0,0,1,2.25-1.17c-.16.81-.36,1.67-.45,2.13,3.33,4.66.54,10.83-3.36,13.27-.62,4.77.52,10.61-2.52,14.73-.84-.07-1,.54-2,.36-.25-1.67-.82-3.5-2.14-1.92C118.88,293.63,118.61,292.86,119.21,292.19Zm-.49-.15c-.77-.64.52-1.35.94-1.81.33.27,1.2,0,1,.8A2,2,0,0,0,118.72,292Zm4.64-4.32c-.2-1.17-1.11-2-1.35-3.24-.73-3.76,3.31-5.38,2.77-9.36,1.47.24.93,2.69.7,3.09-3.92,2.36-1.86,7.92-1.74,12.76-.42.18-.33.87-.8,1C122.85,290.15,123.59,289,123.36,287.72Zm3.18-14.42c.45.11,1.1,1.45.18,1.47C126.75,274.29,126.06,273.7,126.54,273.3Zm-27.37-26c-.68-.22-.76-1.8-.53-2.44C99.52,245,99,246.47,99.17,247.3Zm-7.8,19.55c-2.46-9.69-5.13-20.16-6.63-29.11,3.93.17,4.88,3.44,7.7,4.77.37,5.49,1.1,9.31,1.38,14.83C89.37,259.54,94.4,263.63,91.37,266.85Zm6,13.29c-.21,1.41-3.16,1.59-3.57.22A6.69,6.69,0,0,0,97.42,280.14Zm-3.1-.93c.11-.33.43-.44.81-.5.22.21.33,1.13-.14,1.14C94.38,280,94.66,279.31,94.32,279.21Zm3.61,2.22c.47-.24.47-.93,1.12-1a5.09,5.09,0,0,1-1.41,3.29c-2.18-.09-4.92,2.08-6.34-.39a19.19,19.19,0,0,1,.12-3.27C93,281.3,95.43,283.09,97.93,281.43Zm-8.62-11.12c.92.2.76-.66,1.45-.68a4.92,4.92,0,0,1-.27,3.27,3.38,3.38,0,0,1-1.68-3.56C89.53,269.39,89.09,270,89.31,270.31ZM76.72,51.13a5.36,5.36,0,0,1,2-5.58,7.57,7.57,0,0,0-1.37,5.89c.27,1.55,1.33,3,1.21,4.23-.26,2.46-2.74,3.57-2.34,6.08.16,1,1.18,1.82,1.34,2.58-1.46.11-2.13-1.61-1.85-4s2.22-3.71,2-6.23C77.65,52.9,76.93,52.23,76.72,51.13Zm8.13-19.72c.37-1,1.06-1.44,1.25-2.8.7-.28,1.35-.61,2.1-.84,1.07.16.18,2.35,1.5,2.25.5-.46-.35-2.26.61-2.29.35,1.57.27,3.58,1,4.72-.21,1.61-2.18,2.17-2.91.86.08-.6,1.49.21,1.78-.52-.66-.7-1.77-.93-1.83-2.26-.69-.13-1.14.45-1.62,0-3.35,2.71-.16,10.25-2.21,13.91-1.22.84-2.14,1.9-3.38,2,.17-1.33,1.44-1.59,1.58-3,1.45,0,1.5-1,1.58-2.31C84.53,38.12,83.76,34.36,84.85,31.41Zm2.12.46c.23,1.49-.6,2.33-.6,3.6,0,1.67,1,3,1.21,4.55.57,3.72-3,5.6-2.93,9.35h-.49c-1.63-3.35,2.17-4.25,2.49-7.06C87,39,84.47,35,87,31.87ZM83,68c-.46.15-.66.54-1.29.52a44.18,44.18,0,0,1-2.12,9.33c-.43-2.09,1.23-5.38,1-7.85a1.56,1.56,0,0,0,.46-1.31c.06-.63-1.63-1-.83-1.29a2.25,2.25,0,0,0,2,.78c-.21-.94-1.73-.52-1.65-1.77A12.18,12.18,0,0,1,83,66.7C83.21,67.19,82.91,67.28,83,68Zm26.81,11.49a6.5,6.5,0,0,1-.73-4.72c.26-.06.29.14.49.15C109.36,76.66,110,78.28,109.81,79.49Zm7.86-16.13c-.13-.94-.9-1.67-.86-2.59.06-1.39,1.08-2.07,1.09-3.45,1.2,1.18,1.1,3.17,1.37,4.71,1.32,7.63,4.08,15.94,5.11,25.06-3.67-.18-4.63-3.16-7.22-4.45-1.06-4.83-1-10.82-1.86-15.32A3.47,3.47,0,0,0,117.67,63.36Zm-1.46.35c.22.41.07,1.61-.62,1.65A1.32,1.32,0,0,1,116.21,63.71ZM112.33,44c.34-1.77,3.51-.88,4.38.09C115.36,44,114.07,43.39,112.33,44Zm2.77,1.09c-.22.54-.35.42-1,.35A.6.6,0,0,1,115.1,45.12Zm-1.67-2.91c-1.45.29-2.08,1.58-2.73,1.68-.56-.89.81-2.62,1.4-3.45,3.06-.74,7.52-1.55,6.06,3.33C116.92,42.83,115.45,41.82,113.43,42.21Zm-2.22,3.3c0,.22-.4.15-.64.18-.06-.43-.07-.82.47-.66C111,45.26,111,45.49,111.21,45.51Zm9.47,3.12c-1.54.1-1.78-1.14-1.83-2.59.4-.09.34-.63,1-.5C118.6,47.05,121.33,46.92,120.68,48.63Zm.35,1.29c.26.8-.8.79-1.13.51a.77.77,0,0,0,.15-.49Zm-1.22,5.25c-1.77-.05-1.08-3.06-1-4.07A2.69,2.69,0,0,1,119.81,55.17ZM47,211.09c-1.28.51-1.51,2.06-2.88,2.49-.68-1.83.11-3.86-1.21-4.55.25-1.05.31-2.26.93-2.95,3.27,1.68,6.4,3.52,9.66,5.23a1.5,1.5,0,0,0,.51,1.46c1.08-.39,1.64-1.29,3.22-1.19a6.84,6.84,0,0,0,.2,1.95c.22.32.72.35,1.15.47.94,3.16-.09,5.28-2.51,6.25-.72-1.7-.42-3.44-1.21-5-1.32-.15-1.32,2.19-2.72,2.49-1-1.15-.27-3.15-1-4.39-1.32,0-2,1.92-3,2.66C46.78,214.7,48,212.05,47,211.09ZM79.77,69.36a41.3,41.3,0,0,1-2.14,8.36c-.3-1.47.71-4.65,1.36-6.39C79.13,70.37,78.71,69.59,79.77,69.36Zm-.11-7.18a.79.79,0,0,1,.83,1.13C79.66,63.51,79.88,62.62,79.66,62.18Zm70.41,37.55c0,.14.07.16.17.16,4.79,2.13,9.31,4.85,13.91,7.45,1.4.79,3.33,1.34,3.95,3-1.58.07-2.8-1.19-4.09-1.89-4.54-2.5-9.31-5.26-14.24-7.61C149.88,100.51,149.45,99.61,150.07,99.73Zm20.3.49c-6.06-3-10.52-7.77-17.37-10,.05-.6.55-.76,1-1,4.17,1.81,7.46,4.53,11.47,6.51C166.74,97.57,169.85,97.56,170.37,100.22ZM78,202.1a2.87,2.87,0,0,1,5.67-.91C84.24,204.55,78.6,205.54,78,202.1Zm-1.82,8.52c-.92-.72-1.88-1.54-1.83-2.91.11-3,4.87-3.38,5.51-.58C80.28,209,79.21,211,76.18,210.62Zm6.44-13.82c-2.6-3.68,4.25-6.71,5-2.37a11.38,11.38,0,0,1-.77,2.63C85.56,197.92,83.51,198.07,82.62,196.8ZM87.48,186c3.88-1.08,5,4.37,2,5.19C85.94,192.12,84,186.91,87.48,186Zm-32,20.76c.71-1.62,2.68-2,4-3C60.05,205.59,57.77,206.71,55.5,206.71Zm3.74.42c-.07,2-2.38,3.69-4.32,3.83C55.86,209.2,57.64,208.25,59.24,207.13ZM53.33,192.7c-1.81-.15-1.54,1.72-3.22,1.69.07-1.16-.24-2.69.1-3.6,0-.35-.41-.34-.81-.31a2.42,2.42,0,0,1,.46-1.63c.19,0,.29,0,.32-.18,2.68,2.64,6.2,4.4,9,6.88,0,1.5-1.34,2.62-2.54,3.46-.71-1.24-.17-2.78-.88-4.06-1.12.25-1.18,1.52-2.24,1.83C53,195.61,53.45,194.75,53.33,192.7Zm.83-8.83c-.19.78-.84,1.11-1.6,1.33a2.21,2.21,0,0,1,.13-2.28A2.49,2.49,0,0,1,54.16,183.87Zm-.35-2.11c2.13.94,3.68,2.47,5.57,3.66C57.22,185.17,55.46,183.09,53.81,181.76Zm.44,7.66c1.55,1.36,4.48,2.06,4.78,4.17a2.5,2.5,0,0,1-1.48-1.12A3.37,3.37,0,0,1,55.41,191c-1.77-1.2-4-1.91-4.77-4.16C51.92,187,53.31,188.4,54.25,189.42Zm3.58.27a25.09,25.09,0,0,1-.22-3.42c-1-.5-1.36.86-2.58,1-.4-.68-.08-1.85,0-2.61,1.95.46,2.78,2.09,4.75,2.53C60,188.89,58.75,189.14,57.83,189.69Zm1.67-6.88c-.78-.75-.1-2.07-.53-3.26-1.22-.12-.83,1.34-2.26,1a23.58,23.58,0,0,1-.2-2.45c0-.34-.71,0-.82-.31.18-.73.39-1.44,1.11-1.65,1.45,2,5.34,1.09,5.58,3.66C62.5,181.09,60.72,182,59.5,182.81Zm95.78-61.62c.89,0,1.6-1.22,2.24-2,.95.81.69,3.12,1,4.06,1.67.13,1.78-1.26,2.56-2,1.11.62.11,3.43.72,4.56,1.12.13,1.08-.88,1.93-1-.38,1.23-.54,2.68-1.4,3.45-3.76-1.95-6.59-4.89-10.5-6.68a6.39,6.39,0,0,1,2.73-1.84A3.74,3.74,0,0,0,155.28,121.19Zm-.57-5.37c1.06-1.79,3.58,1,4.89,1.55.74-.21.65.44,1.31.31,1,1.43,4.12,1.45,4,3.52-1.19.19-1.83-1-2.78-1.58C159.75,118.28,156.89,117.35,154.71,115.82Zm5.72,12.64c.57.45,1.61.93,1.33,1.77-1.63,0-2.8-1.5-4.1-2.38a17.8,17.8,0,0,0-4.26-2.54c-.71-1.42-3-1.22-3.45-2.89.19,0,.28,0,.32-.17h.32A58.16,58.16,0,0,1,160.43,128.46Zm-8-2.32c.7,1.45.14,2.74.71,3.91,1.12-.25,1.27-1.44,2.4-1.68.6,1.22-.25,3.13.24,4.25,1.36-.39,1.67-1.8,3.05-2.18.82,1.74-.9,4.56,1,4.07a3.75,3.75,0,0,1-.78,2c-3.16-2.08-6-4.46-9.36-6.37C149.24,127.89,151.05,127,152.44,126.14Zm-2.52,5.43c1.82.82,3,2.29,4.92,3,.74,1.64,3.61,1.86,3.48,3.86a7.13,7.13,0,0,1-3.45-2.56c-1.73-1.24-3.94-2-5.1-3.83C149.72,131.8,149.92,131.77,149.92,131.57Zm6.63,8.21a2.92,2.92,0,0,1-.28,2.62c-.69-.16-1.08-.66-1.64-1C154.89,140.52,155.69,140.12,156.55,139.78Zm-1.73,3.46c-.84.21-.89-.41-1.31-.63-.25-.25-.69-.29-.82-.64-1.22-.89-2.84-1.37-3.61-2.72a8.27,8.27,0,0,1,3.77,2.39c.13.37.49.48.82.64C154.18,142.47,154.73,142.62,154.82,143.24ZM152.67,151c-3,2.33-5.77,4.28-8.65,7-.85.79-1.4,2.18-2.72,2.49-.83-2,1.15-3.32,2.2-4.44,1.21-1.3,2.66-2.45,3.68-3.65C149,151.81,151,148.7,152.67,151Zm-7.83,7.46c2.45-2.43,6-5.37,9-6.67,1.5.43,2.34,1.56,3.61,2.23.38.32.87.52,1,1.12-.73-.33-2.22-.31-1.8-1h-.16c0,.36-.69.08-1,.18A.45.45,0,0,1,156,154c-1-.18-.86-.62-2.11-.62-1.77.52.35,2.47.71,4.06.19,0,.14.3.17.49.46,0,.31.68.34,1.14-2-.87-3-2.51-4.91-2.86-.35-.07-.43.12-.65.17.28,2,1.17,3.43,1.55,5.36.3.19.14.85.34,1.14-1.32.1-1.34-1.15-2.3-1.43,0-.14.07-.16.17-.17,0-.43-.91.17-.66-.48-.47-.34-1.15-.47-1.48-1-.51-.07-.57.3-1.13.18.1,1.95,1.3,3.6,1.21,5.2,0,.14.07.15.17.16-.39.55-1.52-.65-2-1.11-.19-.08-.5,0-.65-.48-.31.37-.92-.37-1-.8C140.84,162.4,143.6,159.63,144.84,158.41ZM64.33,170A31.93,31.93,0,0,1,60,174c-1,.68-2.9,1.9-3.57.38.93-1.32,2.43-2,3.69-3a33.81,33.81,0,0,1,3.69-2.84c1.09-1.07,2.22-3,3.51-3.32C68.08,166.78,65.81,168.48,64.33,170Zm46.94-29c-3,.87-3.85,4.64-3.28,8.05-.59.12-.63-.34-1.14-.3-.86-4.55,1-9.16,6.36-8.59C113.32,141.57,111.9,140.76,111.27,141Zm0,1.47a6.89,6.89,0,0,1-2.06,3.3C109.17,144,110.23,142.58,111.3,142.47Zm-3-13.66c.73-.15.82.37,1.31.47,1.21-.74,2.46-2.3,2.59-.21.08,1.25-1.3,2.44-2.06,3.3a19.09,19.09,0,0,1-2.79-2.08A2.1,2.1,0,0,1,108.32,128.81Zm-1.51-3.24c0-1,.58-1.48.94-2.14,1,0,1,1.07,2,1.11,1-.21,1.11-1.38,2.09-1.67a1.53,1.53,0,0,1,.84,1.79c-1,.59-1.81,2.43-2.87,3.47A16.69,16.69,0,0,1,106.81,125.57Zm2.07,7.47c.65,0,.65.76,1.47.63.85-.75,1.81-2,2.59-.37a6.2,6.2,0,0,1-1.9,3.13C109.57,136,107.3,134.66,108.88,133Zm.73-15.35c-1.31-1-2.08-2.49-3.15-3.71.82-1.82,1.86-3.43,4.33-3.66.6,1.23,2.15,1.92,2.16,3.23C113,115.31,110.35,116.22,109.61,117.69Zm-8.73-7.37h.49c0,.13.16.16.16.33.31,6.76,1.09,16.43,3.65,24.75-1.44-2.23-1.92-5.1-2.72-7.79A42.73,42.73,0,0,1,100.88,110.32Zm3.69,17.73a86.09,86.09,0,0,1-1.65-11.73c-.38-.48-.08-1.68-.19-2.44a15.09,15.09,0,0,1,.1-3.27,2.83,2.83,0,0,1,1.79.3,83.3,83.3,0,0,0,1.15,20.71C104.78,130.79,104.83,129.27,104.57,128.05Zm1.33-8.67a3.5,3.5,0,0,1,1.27-2c1.22-.09,1.16,1.36,2.13,1.43s.89-.77,1.93-1.17c.7.38.93,1.24,1.33,1.94a13.41,13.41,0,0,1-2.71,3.47C108.16,122.23,107.13,120.7,105.9,119.38Zm3.55,18.88c.7-1.11,2.62,0,3-1.85C115.25,138.1,110.88,140.39,109.45,138.26ZM117,115.61h.16c.47-2.33-.06-5.52,1.36-6.39.53,1.77-.58,3.89-.87,6-.34.32.08,1.37-.47,1.48C116.86,116.68,117.14,115.94,117,115.61Zm-2.49,6.73c.18-4.38.39-9.19,1.58-12.76a.9.9,0,0,1,.65-.17c-.76,5.1-1.09,10.34-2,16C114,125.09,114.52,123.14,114.55,122.34ZM93.62,174.26c1.68-3,7-.63,4.93,3.19C96.46,179.26,92.82,177.93,93.62,174.26Zm7.33,1.52c2.55,1.92.44,6.6-.52,7.84-.82.11-1.17.68-1.61,1.17-1-.1-2.66,1-3.24-.12,3.24-.73,5.4-2.64,5.25-6.61C100.8,177.25,100.13,176.52,101,175.78Zm-7.22,15.13,0-1.31c-.08-.41-.28-.63.32-.65,0,.53.3.68.18,1.3l0,1.3c.38.44.08,1.58.19,2.29,0,5.84.26,11.41-.38,16.33-.25,1.87-.42,3.94-1.54,5.41-.76-.74-.18-2.1,0-3.1A162.46,162.46,0,0,0,93.93,193C93.55,192.65,93.84,191.56,93.73,190.91Zm7.32,10.82a3.3,3.3,0,0,1-1.65-1.12c-1,.06-1.57,1.66-2.4,1.83-.63-.22-.75-1-1.16-1.44,1-1.36,2.07-2.7,3.19-4a12.13,12.13,0,0,1,3.12,2.72A3.34,3.34,0,0,1,101.05,201.73Zm2,4.05a3.83,3.83,0,0,1-1.59,2.14c-.75-.55-1.15-1.46-2.14-1.76a1.61,1.61,0,0,1-3.09-.27,8.06,8.06,0,0,1,3-4.14C100.47,203.16,102,204.25,103.06,205.78Zm-3.87,1.69c.66.51,3.2,2.47,3.3,3.7.14,1.68-2.84,4-4.65,3.5-.33-1.43-2.17-1.94-2.16-3.22C95.69,209.79,98.43,209,99.19,207.47Zm5.14,6.77c-.4-1.35.23-2.33.08-4.73.09-.82-.24-2.06.13-2.61-.21-.48.08-1,0-1.8-.37-.22-.08-1.14-.19-1.63-.43-5.78-1.42-9.05-2.33-13.68a21.52,21.52,0,0,1-1-3.24c.86.66.88,2.18,1.35,3.24a71.7,71.7,0,0,1,3.81,24.75C105.53,214.83,105,214.37,104.33,214.24Zm-3.85-17.56c-.58-.18-.94-.57-1.64-.63-.69.24-.85,1-1.44,1.33-2.4-1.14-.05-3.46.91-4.59C99.55,192.88,102.48,195.18,100.48,196.68Zm-.4-4.57c-.91.09-.78-.29-1.48-.63-.73.2-1,.88-1.43,1.33-1,.1-1.23-.61-1.65-1.11a14.15,14.15,0,0,1,2.06-3.3c1.22.64,1.57,1.22,2.79,1.91C100.5,191.13,100.17,191.5,100.08,192.11Zm-1.21-4.39c-.64.12-.65-.42-1.3-.3s-.66,1.07-1.44,1.16c-3.25-1.18,2.34-4.14,3.05-1.51C98.89,187.09,99.1,187.62,98.87,187.72Zm-6.55,16.6c-.7,3.35-.16,8.6-1.93,11.62-.52-3.57,1.37-7.56,1.61-11.45a9.86,9.86,0,0,1,.74-4.26C92.67,201.6,92.49,203.23,92.32,204.32Zm10.43-17.64c2.6,6.38,5.9,15.57,5.77,25.7,0,.74.33,2-.61,2.46-1-1.24-.79-3.23-.89-4.88-.22-3.58-.5-6.61-1-9.78-.73-4.9-2.45-9.34-3.63-13.49-.25-.84-.81-1.37-1-2.27C102.51,184.5,102.24,186,102.75,186.68Zm-5.9-3.82c.66-1.55,1.33-3.1,2.69-4C99.68,181.13,98.42,182.82,96.85,182.86ZM94,184.54c-3.52,1.16-5.62-2.86-3.48-4.68C93.26,177.48,97.2,182.23,94,184.54Zm3.79-17.2c1.92-1.87,5.16-1.16,5.38,1.38C103.5,173.4,95.56,171.79,97.74,167.34Zm4.11-6.43c1.8-1.84,5.91-.58,5.08,2.69a2,2,0,0,1-1.27,1.49C102.9,167,100.11,162.69,101.85,160.91Zm4.67-2.53c-1.5-1.83-1.21-4.68,1.06-5.07C112.52,152.43,111.39,161.23,106.52,158.38Zm3.57-10.67a2.83,2.83,0,0,1,3.73-.22,3.12,3.12,0,0,1,.86,3.25C113.61,154.47,107.46,151.06,110.09,147.71Zm5.08-7.1c2.65-.68,4.3,2,3.15,4.52C114.81,148.64,111.28,141.62,115.17,140.61Zm3-2c-1.55-2.28-.42-5.33,2.36-4.94C124.55,134.23,122.29,141.46,118.22,138.61ZM122,128.1a3.07,3.07,0,0,1,4.39.58c0,.27,0,.54,0,.82a1.74,1.74,0,0,1,0,1.63C124.92,135,119,131.07,122,128.1Zm4-6.76c2.13-2.43,6.49,1.2,4.44,3.85-1.21.35-1.28,1-2.58.86A3,3,0,0,1,125.9,121.34ZM51.35,170.7c1.72,0,2.68.87,4.24,1.07.8-.59,0-2-.2-2.6-.33-.9-1.66-1.56-1.18-2.76.44-.13.33.32.65.31a1,1,0,0,0,0,.17H55c.14,0,.15.06.16.16,1.21.68,2.23,1.55,3.45,2.22,2.28-.9-.59-3.35-.08-4.73-.19,0-.29,0-.32.17-.56-.55-.18-1.45-.68-1.78,0-.29.27-.38.65-.34v.16c1.64.73,2.48,2.29,4.43,2.71.53-.07.24-1,.3-1.48-.14-.35-.43-.55-.34-1.14-.39-.92-.51-1.91-.86-2.92a9,9,0,0,1,4.6,3.52,6,6,0,0,1-2.07,2.8c-1,.67-1,1.45-1.91,2.16-.22.17-.39-.08-.49,0-1.59,1.34-3.1,3-4.65,3.82-.87.48-1.09,1.15-2.41,1.18C53.65,172.51,52.07,172.05,51.35,170.7Zm7.73,5.75a50.45,50.45,0,0,0,9.27-9c.31-.31.41,0,.81,0-.51,2.7-3.36,4.52-4.12,5.95C63.24,174.44,61.22,177.78,59.08,176.45Zm94.31-71.87c.42,2,.32,3.57,1.06,5.2,1.52-.34,1.32-2.36,2.88-2.66.36,1.4.41,2.82.72,4.56,1.72-.25,1.88-2,3.37-2.5.59,1.07,0,3.29.72,4.56,1.49-.42,1.72-2.07,3.21-2.5.49,1.28-.35,4.38,1.05,4.88a17.25,17.25,0,0,1-.93,2.95c-3.72-1.57-6.06-3.58-9.81-5.06a3.48,3.48,0,0,1-.19-1.47c-1.05-.52-2.17,1.3-3.4,1-.13-.8-.18-2.69-1.66-2.59C149.37,107.55,151.37,105,153.39,104.58Zm.48,9.29c.19,0,.28,0,.32.16-1,2.08-2.83,2.71-4.31,4C150,115.45,152.23,115,153.87,113.87Zm-.09,4.41a9.11,9.11,0,0,1-4.66,3.18C149,119.27,152.08,118.62,153.78,118.28Zm-2.49,17.18a17.29,17.29,0,0,1,.05,3.26c1.2.43,1.66-1,2.74-1.18a7.34,7.34,0,0,1-.11,3.1c-.64-.32-4.78-2.09-4.93-3.19C148.93,136.53,150.32,135.51,151.29,135.46Zm-1.68,6.72c.64,1,0,2.51.38,3.42,1.16,0,1.18-1.21,2.25-1.34.3.5,0,2.05.37,2.93.48,0,.65-.65,1-.34a4.27,4.27,0,0,1-1.1,2.3c-1.78-.47-2.57-2-4.9-1.88a5.24,5.24,0,0,1-1.17-2.43C147.35,143.84,148.11,142.64,149.61,142.18Zm-.71,6c.21.28.77.19.82.64-1.86,2.52-5.3,3.52-6.72,6.47-1.21.65-1.74,1.95-2.71,2.82-.69.11-.52-.68-.83-1C141.88,153.58,144.86,149.76,148.9,148.23Zm-19.67-32a2.75,2.75,0,0,1,1.91-2c2.12-.79,5.4,2.47,3,4.85C132.7,120.52,128.76,119.24,129.23,116.23Zm5.87-8.59c4-1.39,5.52,4.88,1.38,5.21C133.28,113.1,132.35,108.6,135.1,107.64ZM47.36,195.09c0-.19,0-.29.16-.33,1.8.78,2.85,2.34,4.75,3,1.71,2.15,5.16,2.5,6.58,5-1.75-.14-3.76-1.4-5.4-2.53-2.13-1.46-4.28-3.12-6.08-4.63C47.25,195.45,47.11,195.13,47.36,195.09ZM54,202c1.18.32,1.89,1.14,2.95,1.58-.59.77-1.43,1.95-2.57,1.67.08-.74-.34-1-.51-1.46a.71.71,0,0,1-.48.17c-.69.24-.82,1-1.44,1.34-.14.54-.3.08-.81.17-.33-1.61-.15-3-.71-3.9-1.38.09-1.25,1.67-2.56,1.83-.85-1.08.36-3.24-.72-4.39-.73,0-.61.8-1.45.68a21.07,21.07,0,0,1,.77-2.79A47.61,47.61,0,0,1,54,202Zm-1.68,6.07c.71.32,2,.72,2,1.76-.53.34-1.32-.22-1.63-.63A15.19,15.19,0,0,1,48,207c-1.37-.79-3.15-1.27-3.94-2.71.15,0,.12-.2.15-.33h.65A34.31,34.31,0,0,0,52.28,208.07Zm6.06,3.49c.21-1.67,1.59-2.2,1.89-3.79.09-.55-.24-1.51.13-1.79a5.22,5.22,0,0,1,.78-2c-.42-1.36.35-2.46.1-3.92s-1.7-3.18-1.06-5.54c.09-.55-.23-1.51.13-1.79.65-3.58,0-9.08,2.58-11.47.74-.11.7.6,1.47.46.5-1.21-1.21-1.47-1.18-2.75,0-.82,1.2-.44,1.44-1-.49-.48-1.5-.44-2.28-.62.73-1.43,2.41-2.46,3.67-3.81s2.34-3,3.83-4c.89,3.62.16,6.36.17,10.77-.09.66.25,1.73-.12,2.12a25.71,25.71,0,0,1-3.8,16.23c.23.82-.53,1.47-.78,2.46-.51,2-.14,4.75-1.53,5.9.26-1.92,1.49-4.07.54-6.7-.85.34-.37,1.37-.45,2a18.4,18.4,0,0,1-2.8,7.56C59.89,210.18,59.83,211.56,58.34,211.56Zm17.58,2.82c0,1.25-.75,1.62-1.42,2.79-1.92.09-3.2-.22-3.75-1.24C68.52,211.79,75.87,210.23,75.92,214.38Zm54.66,37.8c.76-2.46,1.5-5.49,2.33-7.38.35,1.69-.7,3.59-1.22,5.4a27.62,27.62,0,0,1-1.7,5.25C129.52,254.52,130.22,253.35,130.58,252.18ZM153.75,96.73c1.58-.44,2.52-2.36,3.7-2.67,1.14,1.39.33,3.85,1.22,5.37,1.46-.5,2-1.89,3.36-2.5.51,1.31.32,3.54.73,4.88,1.31,0,2.4-2.16,3.7-2.18.58,1.29.18,3.54.73,5.21,1.42,0,1.34-1.48,2.57-1.67a15.87,15.87,0,0,1-1,5.07c-6.65-2.94-12.59-7.31-19-10-.6-2.74,1.11-5.4,2.48-7.22C153.57,92.05,153,95.63,153.75,96.73Zm-3,16.7c-.1,1.29-1.51,2.17-1.9,3.3-.47,1.35,0,3.52-.91,4.09.26,1.72-.41,3.16-.09,4.74.26,1.27,1,2.25.89,4.39-.07,1.75-.35,3.6-.57,5.4-.39,3.3.1,6.94-2.29,8.69-.6,0-.91-.39-1.47-.47,0,1.42,1.21,1.5,1.34,2.75.09.73-.83.47-1.12.84.19.79,1.62.3,2,.94-.47,1.12-1.54,1.45-2.4,2.16a22.28,22.28,0,0,0-2.07,2.48c-.5.56-1.18.81-1.6,1.33s-.69,1.79-1.76,1.83a27.73,27.73,0,0,1-.29-8.32c.19-3.76-.05-7.57.46-11.43.65-4.93,3.85-8.53,4.82-13.14.35-1.62-.19-3.22,1.23-4.59-.34,1.82-1.08,4.08-.55,6.21.93-.21.52-1.31.62-2,.26-1.74,1.07-3.59,1.38-5.24a3.35,3.35,0,0,0,1.1-1.82C148.7,115,149.65,113.48,150.78,113.43Zm-8.89-7.53c-2.51,1-4.85-.25-4.59-2.7a3.2,3.2,0,0,1,.16-.75l.56-.9C140.06,99.59,145.35,102.81,141.89,105.9ZM115.68,81.51c-1.07,0-2.56-1-3.92-1.24-.17-2.53-1.27-5.12-.93-7.49.31-2.09,2.51-3.51,3.5-4.79A92.33,92.33,0,0,1,115.68,81.51ZM82,65.41a16.23,16.23,0,0,1,.94-1.81c.27-.05.29.15.49.15,0,.38,0,.77,0,1.15A1.73,1.73,0,0,1,82,65.41Zm1.4-4.11c-1,.1-.92-.92-1.32-1.44.44-.38,1.07-.57,1.44-1C84.17,59.37,83.73,60.81,83.38,61.3ZM78.7,63c-1.43.66-1.71-1.26-1.65-1.61.25-1.67,3.27-2.48,4-3.66a8,8,0,0,0-.72-4.56c.4.3.9.5,1.31.8C84.34,59,77.17,58.73,78.7,63Zm4.41-28.81c-.67,0-.32-.72-1-.31-.09.35-.4.48-.31,1h-.17c-.77,3.52.87,5.61.14,8.32-.56,2.07-2.66,3.35-3,5.28a15.78,15.78,0,0,0,.73,5c.29,1.14,1.32,2.38-.11,3.43-.7-3.63-2.17-8.42,0-11.42-.25-.38-.4-.24-.82-.15C80,43.09,82.42,40,80.39,37c-.8.48-.17,1.75-.28,2.77a6.51,6.51,0,0,1-2,3.79,11.84,11.84,0,0,1,3.42-9.2c0-.41.29-.57.48-.82.2-.87,1-1.21,1.43-1.82C84,32.37,83.34,33.49,83.11,34.21ZM75.84,56.86c-.6-.46,0-.78,0-1.31,0-1.55-.94-3-.74-5.54.21-.2.25-.07.48,0C75.8,51.23,77.25,55.27,75.84,56.86Zm2.43,9.75c.89,1.36,0,2.85-.42,4.25-1,3.47-1.65,7.26-3.24,10.5-2.7,1.35-5.51,2.34-8.23,3.56-1.13.51-2,1.46-3.38,1.52,3.85-8.06,6.52-17.77,10.29-26.28C73.89,63.41,75.37,65.75,78.27,66.61ZM41.33,214.44h.33c4.33,2.65,9,4.93,13.28,7.63,1.6.74,4.53.9,4.42,2.86-1.26,0-2.08-.9-3.11-1.42-5.27-2.64-10.65-5-15.07-8.57C41.13,214.67,41.33,214.65,41.33,214.44Zm25.1,5.47c.42-2,3.48-2.35,4.69-.72C74.48,223.67,65.31,225.24,66.43,219.91ZM93.85,259.3a2.54,2.54,0,0,1-.31,1.31C92.86,260.54,93,259.26,93.85,259.3Zm-.42-15.83c.92-.43,3,.76,4.08,1.24,1,4.58,1.67,9.5-2.41,11.64A71.93,71.93,0,0,1,93.43,243.47Zm36.28,14.76c-.48.2-1.16,0-1.45.68-.69-.17-1.16-.58-1.8-.79a4.08,4.08,0,0,1,.63-1.64C128.55,256.45,129.6,256.85,129.71,258.23Zm-2.26,1.18c0,.79-.53,1.09-1,1.49C125.36,260.52,126.81,259,127.45,259.41ZM126.37,263a6.42,6.42,0,0,1,1,2,1.65,1.65,0,0,1-1.45.67A2.31,2.31,0,0,1,126.37,263Zm4.21-1.21c.53-.44,1.29,0,1.62.3.48,1.64-.23,2.93-2,3.46C130.54,264.11,131.64,263.07,130.58,261.81Zm-3.79,27.48c.56.14,0,.66.35,1.14,2.55-2.61-1.34-9.51,2.57-11.79.78,0-.78,1.36.66,1.13-1,1.72-3.08,5.81-1,7.52.45,0,.14-1.39,0-1.79a11.72,11.72,0,0,1,2-4.44,13.88,13.88,0,0,1,.06,3.59c-.27,1.83-1.66,3.08-2.69,4.61-.82,1.22-1.26,2.7-2.38,3.15,0-.16-.2-.13-.33-.16A19.69,19.69,0,0,1,126.79,289.29Zm4.38-31.08c-1-1.9.51-5.42,1.33-8.18a45.89,45.89,0,0,1,2.17-6.57c4.2-1.46,8-3.46,11.61-5.08-.24,2.28-1.73,4.16-2.5,6.24-2.2,5.93-4.36,12.78-7.16,19.38C135,261.8,134,258.63,131.17,258.21Zm18.72-169.9c2.05,1.64.8,6.1-3.17,4.79-.75-1.17-1.48-1.62-1.51-2.92C145.17,88.42,148.11,86.89,149.89,88.31ZM146,99.47c-4.62,3.4-7.16-5.91-.88-4.88A3.36,3.36,0,0,1,146,99.47Zm-10.58-12.4c2.27,1.63,5.08,3.13,6.9,5.28-.7,2.1-2.17,3.45-3.16,5.27-1.57-1.14-2.43-3-4.13-4-.37-2.82-1.21-5.15-1.74-7.81C134.31,85.48,134.74,86.59,135.42,87.07ZM122.65,49.9c1.19,1.72.92,3.78,1.56,6.18,1.65,6.22,3.68,11.94,5,18C130,78,130.89,81.94,132,85.66c.61,2.07,1.62,3.94,1.72,6.17-2.57-1.31-4.83-2.94-7.69-4-2.31-10.73-4.64-19.89-6.66-30.75a3.32,3.32,0,0,0,1.87-5.25C121.6,51.13,122.37,50.75,122.65,49.9ZM121.6,45c-.38-.66.16-1.61.45-2.13-.06-.69-.68.12-.82-.32,1.08-1.54-.47-3.68-1-4.71C122.25,39.17,125.41,43.33,121.6,45Zm-1.67-12.87c-.28.77-.75-.2-1.46,0,.31.93,1.55,2,.7,3.09-1.45-.72-1.34-2.12-2.33-3.4C117.4,30.73,119.25,31.53,119.93,32.15Zm-2.34,6.24c-1.36.38-3.14.1-4.21.4-6.69,2.46-2.24,12.37-2,19.62a2.68,2.68,0,0,1-1.77.68,3.48,3.48,0,0,0-4.9-1.4c-.45-1.17.54-1.23.78-2.13-1.8.07-2.67,3.22-.59,3.77.56.15,1.49-.26,2.11-.2,1.57.15,4.59,1.89,5.34-.9-.51-4.38-1.38-8.22-1.8-11.07a5.44,5.44,0,0,1,1.61-.52c.28,1.65,3.08,1.83,3.75.43-.21-.23-.63-.36-.82-.15A1.45,1.45,0,0,1,113,45.81c.66.31,1.07.88,2,.95.4.08.91-1,1.61-.68.59,1.28-.35,2.15-.6,3.11.7.63.82-1.08,1.45-.51,1.18,8.14-2.1,12.77-4.08,18.84-1.47,1.73-2.63,3.76-4.47,5.13a4.43,4.43,0,0,1-1.6,1.33c-4,2.71-9.16.44-13.51-2.07-2.59-1.49-4.87-4.16-6.75-6.09-.11,1.17,1,2.64,2,3.56,3,2.81,8.43,6.18,12.94,6.81a16,16,0,0,0,5.67-.75c.31,1.83.36,3.94.58,5.87-.16,0-.12.2-.16.33-7.51,4.15-20.13,3.25-26.17-2.19C83.45,75.11,84,70,84.73,65.2c2.34-.09,2.26-3.75,1.39-4.75.08-1.05.49-1.88-.21-2.61a4.17,4.17,0,0,0,.6-3.28c-1.22-.22-.55,1.4-.94,2-1,.25-1.27-.75-1.81-1.44-1.46-1.86-3-3.23-1.88-5.85,2.12.41.83,3.33,2.18,4.53.54-.35.32-1.86.12-2.45.63-.28,1.44.72,2.28.29.23-.49-.08-.87-.18-1.46-1.72-2.64,2.11-4.89,2.47-7.71.39-3.07-1.51-4.21-1.1-7.66,3.26,1.67,5-1.57,5.29-4.33,1.4,2,6.37,3.09,6-.59,2.32.08,5.32-1,6.28-3.2a8.72,8.72,0,0,0,3.93,1.9c0,.88-.7,1.14-.78,2,.53,2.54,5.47,2.6,6,.23-.75-.61-.95.67-1.63.19.08-1.18.51-1.56,0-2.45.85-.08,1.45,1,2,1.6A15,15,0,0,1,117.59,38.39ZM84.83,60.63c.74.32.83,1.87.53,2.77C83.42,63.53,84.27,61.43,84.83,60.63Zm8.86-34.58c-.79.77-.94,2.18-1.9,2.8C90.91,27.7,92.17,25.92,93.69,26.05Zm9.23-1.46c-.73.63-.7,2-1.41,2.63-.93.17-2.19.82-2.92.22,0-.83,1.11-.53,1.11-1.33,0-.23-.48-.05-.49-.32-1,1-3.78,1.31-4.18,3-.1.47-.2,2,.85,2.11.34-.05,0-.72.31-.82.67-.15.84.23,1.47.13,0,.39.26.61.18,1.14a2.9,2.9,0,0,1-3.94-2.7c.43-4.26,7-4.75,11.13-4.92-1,1.07-.6,3.49-2.22,4C102.44,26.79,104.16,25.46,102.92,24.59Zm2.26-.85c.57.19.87.65,1.32,1,.34-.1.46-.42,1-.35,0,2.34,4,2.35,4.29,4.34,0,.65-.93-.39-1-.8C108,27.42,106,26.26,105.18,23.74Zm5.16,7.59c-.33-.16-.7-.28-.82-.64.08-.46.15-.92.8-.83A2,2,0,0,1,110.34,31.33ZM70.59,23.81h0Zm2.56,17.26a28,28,0,0,1,3.64-5.94c1.48-1.82,2.69-3.9,4.13-5.45a47,47,0,0,1,7.86-6.33,22.13,22.13,0,0,1,9.69-3.42c4.7-.55,9.32,1.33,12.55,3.55,2.07,1.42,4,2.95,4.81,5.8-2.5-1.84-4.19-4.61-6.91-5.77-4.34-1.33-8.26-.33-12.82.54a44.37,44.37,0,0,0-11.64,3.78c-4.16,5.33-6.85,11-10.95,15.84,0,.81-1.19,1.9-.76,3.12,2.34.11,2.15-3.57,4-4.47A10.51,10.51,0,0,1,75,47.57c-.24.41-.8.88-1,1.32-.46,1.23.14,2.74.07,4.24-.09,1.82-1.32,3.45-2,5.42-.4,1.11-.37,2.42-.76,3.6-.64,2-1.72,3.95-2.5,6.08-1.82,5-3.51,11-6.07,16.26-.52,1.06-.94,2.43-1.41,3.12-1,1.5-3.46,2.41-5.31,2.86,2.8-6.28,5.41-12.73,8.46-19.23.94-2,2.27-4.37,2.65-6.57.62-3.59-.3-7.23.65-10.46A94.17,94.17,0,0,1,73.15,41.07ZM54.83,83.15c.65-3.46.34-6.55,1-9.48a32.57,32.57,0,0,1,3.44-8.06c2.05-3.83,3.94-7.41,6.15-11,.64-1,1-2.52,2.23-3.14-.45,2.47-1.61,5-1.67,7.37,0,1.52.54,3.22.25,5.22-.36,2.52-2.16,5.81-3.28,8-.87,1.74-1.33,4-2.34,6.24-.84,1.93-2.43,4.4-3.3,6.42-1.17,2.7-1.59,7.11-4.6,6.77C52.9,88.58,54.32,85.87,54.83,83.15ZM51.71,233.38c-3.68-1.41-6.91-4-10.17-6.21-1-.63-2.52-1.11-2.48-2.57,1.33.23,2,1.17,3,1.75.47.55,1.39.65,1.8,1.27.14.24.53.23.82.31a2.84,2.84,0,0,0,1.8,1.12c2.29,2.44,5.87,3.45,8.85,5.07a1.73,1.73,0,0,1,1,1.13C54.73,235.9,52.78,234.31,51.71,233.38Zm7.89-3.72a9.39,9.39,0,0,1-2.87,3.14c-1-1-.19-3.9-1.38-4.71-1.33.58-2.48,2.19-3.53,2.5-1.08-1.08-.2-4.2-1.22-5.36-1.32.59-1.81,2-3,2.66-1.11-.83-.16-3.82-1.05-4.88-1.53.38-2,1.84-3.53,2.18-.4-.73-.12-1.12-.36-1.95-.38-.22-.08-1.14-.19-1.63a3,3,0,0,0-.36-1.79c-1.1.21-1.19,1.41-2.08,1.83-.59-1.32.18-3.25.74-4.91,6.62,3.37,12.26,6.89,18.83,10.15a2.58,2.58,0,0,1,0,1.14A1.74,1.74,0,0,1,59.6,229.66Zm3-3.15c.53-2,3.64-2.38,5-.74.4,1.5.23,3.29-.75,3.93C64.16,230.9,62.05,228.7,62.64,226.51ZM73,237.27c-.83-.63-1.94-1-2.79-1.58s-3.34-2.41-3.46-3.21c-.23-1.45,2.5-3.89,3.16-5.28.9,1.59,3.47,2.62,4.29,4.51s.73,5.16,1.58,7.32C74.72,239.22,74,238,73,237.27Zm13.9,36.83a7.35,7.35,0,0,1-1.19-3.24c-3.25-12.54-7-25.5-10.68-38,.86-.48,1.54,1,2.3,1.44,1.73,1.07,4.24,1.72,5.89,2.84,2,9.82,4.86,19.48,7,30.25-2.23.32-3.2,3-2,5.25A4.58,4.58,0,0,1,86.94,274.1ZM89.24,286c-2.84-1.22-1.06-4.2-.43-6.52-1.49.21-1.39,2-2.39,2.65-.32-1.64,1.47-2.49,2.38-3.47.51-1-.21-2.25.43-3.11,3.47,1.71.11,5-.2,7.52C88.89,284.19,89.57,284.89,89.24,286Zm3.52,6.8a2.81,2.81,0,0,1-3.27-1.41c1,.06.36-.6.46-1.32,1.39-.05,1,1.63,2.29,1.27A1.75,1.75,0,0,1,92.76,292.78ZM92,285.61c1.12,0,3.05.36,4.38-.07,6.38-2.06,2.36-11.7,2-17.5a1.77,1.77,0,0,1,0-1.63c-.27-.32,0-.2,0-.65,1.79-1.13,2.37,1.59,4.09,1.73.9.08,1.48-.54,2.43-.37,0,.7-.42,1.09-.46,1.81.83,0,1.09-.55,1.28-1.17.26-.27.11-1,.14-1.47-.48-1.39-1.84-.7-2.94-.76-1.63-.1-4.14-1.84-5.68.08-.47.6.73,6.78.94,7.82.34,1.7.88,2.81.72,4.4l-1.3,0c-.17-.7.6-.48.63-1-.37-.72-.75-1.44-1.65-1.61-.46.25.37,1-.14,1.31a4.84,4.84,0,0,0-2.43.2c-.33.28.34,1.36-.63,1.48-1-.83-.15-2.16.44-3.11-.8-.62-.79.66-1.45.68-1.26-4.81.26-10.61,2.19-15.22,2.39-5.69,7.12-12.79,14.77-10.68,4.9,1.35,9.57,5.38,13,8.93.29-1.93-2.54-3.43-3.66-5-4.43-2.83-10.65-6.76-17-4.62-.39-1.84-.26-4.23-.58-5.87,2-1.8,4.49-1.94,7.42-2.41.43-.38,1.57-.08,2.27-.2,7-.12,12.8,1,16.8,4.79a73.08,73.08,0,0,0-2.85,14.09c-1.17.55-.94.07-1.77,1.33a3.16,3.16,0,0,0,0,1.95c.25,1,.83,3.81.08,4.9a4.79,4.79,0,0,0,0,2.29c1,.62.47-1.68,1.11-2,1.58.18,1.33,2.27,2.8,2.57,0,1.38,1.5,1.94,1,3.25-1.3-.2-1.4-1.64-2.63-1.92-.45,0,.16,1-.3,1-.62.26-1.36-.2-1.95-.14-.53.5-.07,1.51.36,2a10.93,10.93,0,0,0,0,2.29c-.89,2-2.76,3.29-2.83,5.75-.07,2.28,1.85,4.11,1.4,6.51-3.4-1-4.93,1.29-5.45,4-1.34-1.18-4.37-2.29-5.86-.56,0,.68-.26.94,0,1.31-2.66.47-5.15,1.09-6.12,3.2-1.38-.5-2.1-1.69-3.92-1.73,2.84-3.67-4.42-5.45-5.24-2.36.25.82.89-.39,1.3.14a4.36,4.36,0,0,0,0,2.12C93.5,293.43,92.75,289.79,92,285.61Zm32.77-21.75c-1-.25-1.05-1.62-.68-2.43C125.64,260.77,125.53,263.17,124.76,263.86Zm-8.06,33.92a3.74,3.74,0,0,1,1.1-2.3C118.69,296.22,117.8,297.91,116.7,297.78Zm-9.87,1.8c.9-1.33,1.65-3.64,4.34-2.69-.09.61-1,.47-1,1.16,1.61.29,4.43-1.56,4.66-3.18-.61-1-1.29-.33-2.44-.29a1.73,1.73,0,0,1-.51-1.45c1.33-.89,2.42.47,3.42.92,1,5.95-5.46,5.85-10.12,6.37.24-1.6.58-3.91,2-3.78C106.82,297.52,106.08,298.74,106.83,299.58Zm-2.59.69c-2.21-.12-2.81-2.3-4.9-2-.48-.67-1.18-1.11-1.66-1.77a2.58,2.58,0,0,1,.3-1.8C99.06,297.56,104.32,296.67,104.24,300.27Zm-4.17-7.12c0,.5.11,1.08-.47,1A.59.59,0,0,1,100.07,293.15Zm32.3,5.93Zm2.82-12.85c-2.88,4.8-7.74,10.51-12.29,13.58-4.2,2.84-8.88,5-15,4.49-3-.28-7.81-2.51-10-4.09a14.41,14.41,0,0,1-4-5.16c-.48-.15-.06-.6-.34-.65.32-.43.78.4,1,.64a18.39,18.39,0,0,0,7.07,5.92c4.17.87,9.16-.15,13.79-1a33.08,33.08,0,0,0,8.4-2.58c2.62-1.35,4.38-4.86,6-7.44,1.83-2.85,3.71-5.73,5.39-8.09.84-1.18,2.17-2,1.56-3.78-2.14-.13-2.25,3-3.67,4.14-.7-.64-.06-1.5.13-2.12a22.37,22.37,0,0,1,.61-2.3c.38-.83,1.32-1.41,1.59-2.31.4-1.33-.13-2.66-.06-4.08.08-1.84,1.71-4.83,2.48-7.05.45-1.3.7-2.56,1.08-3.78.74-2.4,1.9-5.12,2.95-8.2,1.64-4.8,4-10.29,6.09-15.12,1.7-.93,3.54-2.54,5.48-2.7-2.46,5.57-5.2,12-8.15,18.42-1.34,2.94-2.87,5.48-3.1,8.86l0,2c0,.27,0,.54,0,.82a3.31,3.31,0,0,1,0,2.28C140.89,273.11,138.38,280.9,135.19,286.23Zm19.16-40.47c-.47,4-.48,7.9-2.44,10a97.57,97.57,0,0,1-9.31,17c-.54-1.1.37-2.11.6-3.11.57-2.47-.12-5,0-8a9,9,0,0,1,.78-2.14c.52-1.56.74-3.35,1.38-4.92,1-2.35,2.26-4.71,3.3-7.23,1.84-4.51,4.53-9,6.11-13.49.6-.06,1.52-.65,2.11-.19A113,113,0,0,0,154.35,245.76Z"/><path class="cls-3" d="M38.21,19.66S48.8,42.27,64.5,48A67.37,67.37,0,0,0,38.21,75.66s-4.71-16.27-25.71-28A49,49,0,0,0,38.21,19.66Z"/><path class="cls-3" d="M168,250.16s10.6,22.61,26.3,28.31A67.36,67.36,0,0,0,168,306.16s-4.71-16.28-25.7-28A49,49,0,0,0,168,250.16Z"/><rect class="cls-1" x="174.78" y="255.85" width="23.2" height="57.05"/><rect class="cls-1" x="9.98" y="13" width="23.2" height="60.45"/><path class="cls-4" d="M75.79,13.27c-.13.68-1,.62-1.44,1-.22,1.61,1.63,1.07,1.5,2.58-.34.42-1.11.42-1.61.68,1,.9-.14,1.95.53,3.1,1.14.05,1.69-.66,2.76-.21,0-.31.12-.35.32-.17.05-.87.46-2.13,0-2.61-.84.25-.67,1.49-1.76,1.5-.15-1.44.74-1.85.93-3-.37-.56-1.4-.43-1.33-1.44.12-.43.51-.58,1.13-.51,0-.65-1.07-1.27-.9-1.82H75C75.12,12.84,75.63,12.88,75.79,13.27Z"/><path class="cls-4" d="M79.2,12.89c0-.15,0-.31,0-.47H76.55C77.31,13,78,13.6,79.2,12.89Z"/><path class="cls-4" d="M79.86,13.86c.11-.63-.62,0-.65.18.9.48,1.88-.14,2.77.28.09.57-.26.72-.48,1,.25.14.25.53.34.81h1c.34-1.11,1.62-1.53,1.1-2.63l-1,0a1.52,1.52,0,0,0-1-1.07h-.59A2.4,2.4,0,0,0,79.86,13.86Z"/><path class="cls-4" d="M100.47,13.2c-.09-.77-1,0-1.13.19C99.9,13.51,100,13.13,100.47,13.2Z"/><path class="cls-4" d="M99.25,18.44c.79-.18.93,0,1.13-.66,0-.46-.81-.17-1-.48a4.1,4.1,0,0,1,.6-2.46C97.14,14.49,99.11,17.2,99.25,18.44Z"/><path class="cls-4" d="M79.74,16.64c.41-1.09-1.81-1.62-1.46-.14C78.45,16.77,79.44,17,79.74,16.64Z"/><path class="cls-4" d="M97.58,15.53c-.12,0-.19-.13-.16-.32-.29.1-1-.18-1,.18.2,0,.11.18,0,.33C96.67,15.94,97.59,16,97.58,15.53Z"/><path class="cls-4" d="M95.85,19a14.38,14.38,0,0,1-.37-3.42C93.91,15.69,94.84,19.52,95.85,19Z"/><path class="cls-4" d="M93.7,16.58c0-.46-.29-.7-.82-.65,0,.2,0,.39-.32.34.28,1.12-.52,1.2-.61,2,.76.1,1-.27,1.45-.51-.19-.14,0-.36-.34-.65C93.39,17,93.49,16.74,93.7,16.58Z"/><path class="cls-4" d="M102,16.12c-.46,0-1.12-.13-1.13.34C101.3,16.43,102,16.58,102,16.12Z"/><path class="cls-4" d="M91.6,16.94l-1.3,0c0,.22,0,.43,0,.65C90.91,17.55,91.42,17.41,91.6,16.94Z"/><path class="cls-4" d="M89.67,18c-.5.13-.21-.56-.82-.31.07.55-.71.26-.47,1,.61.13.75-.55,1.13-.18v-.33C89.61,18.1,89.7,18.09,89.67,18Z"/><path class="cls-4" d="M80.61,20.21a2.59,2.59,0,0,0,1.93-1.5c-.82.28-1.2-.73-1.79-.13C80.89,18.68,80.39,19.5,80.61,20.21Z"/><path class="cls-4" d="M96.93,19c.17,0,.34.14.54-.16.51.07.72-.15.64-.66-.24,0-.6-.05-.65.17C96.84,18,96.06,18.56,96.93,19Z"/><path class="cls-4" d="M94.39,19.18c-.35-.09-.89-.23-1,.34C93.86,19.51,94.38,19.59,94.39,19.18Z"/><path class="cls-4" d="M90.19,20.39c-.14.49-1,.3-.79,1.15C89.84,21.37,91,20.71,90.19,20.39Z"/><path class="cls-4" d="M70.6,23.81c-1.19,0-1.22-2-2.45-1.43.3,1.79.87,4.28,3,3.21C71.51,24.44,70,24.18,70.6,23.81Z"/><path class="cls-4" d="M84.86,21.94c-.67.1-1.29.25-1.28,1A1.53,1.53,0,0,0,84.86,21.94Z"/><path class="cls-4" d="M73.6,28.65c.35-.84,1.25-1.14,1.26-2.3-.85.06-1-.16-1.62,0C73.39,27.11,73,28.43,73.6,28.65Z"/><path class="cls-4" d="M76.83,27.3c-.13-.45.31-.34.31-.66h-.65C76.45,27,76.54,27.26,76.83,27.3Z"/><path class="cls-4" d="M74.76,29.94c-.05-.48.36-.5.31-1,.79-.5,1.41-1.08,1.27-1.82-1.92,2.38-4.69,5.44-6.19,8.75C72,34.26,72.84,31.55,74.76,29.94Z"/><path class="cls-4" d="M75.91,30.9a1.51,1.51,0,0,0-1.6,1.66c1.11-.61,1.49.56,2.13.95a6.37,6.37,0,0,0,1.11-1.65C76.69,31.92,75.71,31.41,75.91,30.9Z"/><path class="cls-4" d="M75,35.16c-1.35.36-1.17-.88-1.8-1.28-.43,1-1.26,1.56-1.42,2.8.87-.07,1.1.51,2,.46A3.54,3.54,0,0,0,75,35.16Z"/><path class="cls-4" d="M64.31,36.15c0,.32-.44.22-.32.66.22,0,.32.22.66.15C64.66,36.55,64.66,36.17,64.31,36.15Z"/><path d="M102.2,40.43c.43-.44,1.79,0,1.78-.84-1.24-.08-2.21-.92-3.43-1.09-4.2-.59-9.13,1.64-10.47,4.74C92.62,40.71,98,38.55,102.2,40.43Z"/><path d="M103.67,40.74c.23,0,.19.35.33.48.46-.25.83.2,1-.5C104.85,40.35,103.72,40.19,103.67,40.74Z"/><path d="M112.54,47.45c-.38,0-.61-.25-1.14-.14a2.58,2.58,0,0,0,1.66,1.93C113.44,48.64,112.5,48.23,112.54,47.45Z"/><path class="cls-3" d="M149.13,61.06c2.23-1.87-1.25-4.21.07-5.55l1,0c0,2.07.51,4.27,2.35,4.86.24-.45-.09-1.46.29-2.13.43,0,.36.52.82.48,1-1.15-.72-3.1.42-3.92.46,0,1.11-.16,1.14.31a15.43,15.43,0,0,0-.74,4.25c1.28-.19,1.11-1.81,3.06-1.35.88-1,.09-3.56,1.89-3.62,0,.23.27.27.33.48-.34,1.78-2.36,2.7-1.54,5.09.13,0,.32,0,.32.15,1.51-.4,2.15-1.66,4.2-1.54a3.3,3.3,0,0,0-1.7-5c-.2-1.86-1.5-3.49-3.13-2.72-.78.37-.56,1.5-1.43,2-.94-1.48-2.74-3.61-4.41-1.56a2.79,2.79,0,0,1-.78,2.14c-.65-.37-1.09-1-2.28-.78-1.09.83-.61,2.14-.6,3.27-1.42.38-3.27.34-3.21,2.17C146.13,59.41,147.07,60.82,149.13,61.06Z"/><path class="cls-3" d="M156.17,64.87c.34,0,.06.71.34.81,1.16-.16,1.18-1.42,2.08-1.83,0,.28.28.36.65.31.41-.73.4-1.86,1.43-2,.13.5-.27.48-.14,1a7,7,0,0,0,1.89-3.62c-2-.32-3.11,1.68-4.34,2.68-.65-1-.4-3-1.84-3.23-1.27.74-1.6,2.4-2.38,3.63a14.51,14.51,0,0,1-2.79-2.24c-1.27.2-.77,2.14-1.91,2.48-1.43-.35-1.49-2.11-3.28-2.07,1.23,3.08,2.51,6.64,6.11,6.75.12-.57-.51-1.22,0-1.63.84.53,1.15.1,1.78-.36.09.46.25.85.34,1.3C155.38,66.78,155,65.05,156.17,64.87Z"/><path d="M110.33,61.68a1.24,1.24,0,0,0-1.15-1.12c-.71-.05-.83.48-1.45.52-.71-.89-2.65-.69-2.92.53C106.51,61.7,108.35,61.55,110.33,61.68Z"/><path d="M103,60.83a7.47,7.47,0,0,0-1.1,2.46c3.33.19,6.34-.12,9.25-.15.33-.73.62-1.24.29-2-.73,0-.79.74-1.28,1-2.23.15-5.47-.08-6.81.27C103.52,62,103.74,60.83,103,60.83Z"/><path d="M90.76,66.41c-.39-.08-.83-.12-.82-.64-.38,0-.31-.56-.81-.48.09,1.73,1.51,2.08,2.32,3.07.08-.25.23-.42.31-.66a.7.7,0,0,1-.33-.65A1.53,1.53,0,0,0,90.76,66.41Z"/><path d="M107.14,65.17l-2.11,0a2.17,2.17,0,0,0,1.06.19A2.17,2.17,0,0,1,105,65.2h-.65c1,1.61,5.2,1.27,5.51-.58C108.62,64.81,108.53,65.28,107.14,65.17Z"/><path d="M108.3,66.62c-1.85,0-3.22.12-3.22,1.52,1-.61,2.55-1.33,3.41-.22,1,1.26-.11,3-.75,4.26-2.41,1.78-3.73-1.12-5.85-.56,0,.4,0,.79-.31.82A2.42,2.42,0,0,0,100.25,71a2,2,0,0,0,1.18,2.27c.33-.05.14-.61.47-.66.46.19.63.68,1.16.8,1.06-.73,2.55,1,4.22.09.69-.12.82-.8,1.44-1C109.7,70.67,110.34,67.54,108.3,66.62Z"/><path d="M92.24,67.53c-.19,0-.28,0-.32.17.17.7.31,1.44,1,1.61C93.54,68.79,92.84,67.79,92.24,67.53Z"/><path d="M95,69a1.23,1.23,0,0,1-.32.5c-.31-.46-.55-1-1.15-1.13a1.86,1.86,0,0,0,1.17,2.27.46.46,0,0,1,.31-.5,1.86,1.86,0,0,0,1.16,1.13c0-.23.26-.28.32-.5C96,70.21,95.89,69.16,95,69Z"/><path class="cls-4" d="M158.35,89.64c.43-2.58-1-7.92-.49-10.6-.11-.33-.82,0-.66-.64-.55-3.2-1.65-5.81-1.62-9.61-.59.11-1.67-.24-1.77.36,1.48,2.43,2.08,5.55,2.57,8.93.07.55-.67.31-.63.83,1.94,1.77,1.5,6.47,1.93,9.43C157.73,88.71,157.63,89.82,158.35,89.64Z"/><path d="M96.83,70.07c-.49.92.59,2.29,1.33,1.94A2.35,2.35,0,0,0,96.83,70.07Z"/><path d="M98.31,71.18c.42.65.84,2.07,1.81,1.61C99.73,72.17,99.17,70.23,98.31,71.18Z"/><path class="cls-4" d="M101.94,85c-4.63-.14-7.66.53-11.2-.14A22.53,22.53,0,0,1,85.67,83c-.58-.26-1.28-.35-1.79-.63-1.55-.82-2.83-2.47-4.09-1.56h-.32c1.76,2.26,4.8,2.65,7.52,3.46,1.22.37,2.24,1,3.43,1.26a34,34,0,0,0,18.81-1.62c.59-.7,2-.64,2.25-1.66-1.83-.86-3.41,1.1-5.34,1.71C104.73,84.41,103.29,84.46,101.94,85Z"/><path class="cls-4" d="M66.73,86.55a8.29,8.29,0,0,0,3.61,1.9c1.65-2.08,3.77-3.71,5.59-5.64-.22,0-.15-.28-.33-.32-1.71.64-3.24,1.45-5,2,1.83.85-.1,3.39-1.11,1.81,0-.43-.07-.93.15-1.14A4.14,4.14,0,0,0,66.73,86.55Z"/><path class="cls-4" d="M87.68,86.54c-3-1.18-5.87-2.42-8.67-3.78A20.85,20.85,0,0,0,87.68,86.54Z"/><path class="cls-4" d="M71.32,89.25a8,8,0,0,0,2.79,2.08A26.06,26.06,0,0,0,79.21,85c-.82-.37-1.1-1.28-2.29-1.27A49.14,49.14,0,0,0,71.32,89.25Zm2.28.13a4.06,4.06,0,0,1-.19-1.63A1.56,1.56,0,0,1,75,87.56C75.59,88.58,75,89.76,73.6,89.38Z"/><path class="cls-4" d="M93.86,87.58A26.75,26.75,0,0,1,88,86.37c.61,1.17,2.38.84,3.42,1.09.57.13,1,.57,1.48.63,5.94.69,12.47-.07,16.85-2.07,1.23-.56,3.47-1.28,3.37-2.51-4.7,2.5-8.61,4.12-15.19,4.17A6.14,6.14,0,0,0,93.86,87.58Z"/><path class="cls-4" d="M124.39,98c.66,1.09,1.16,2.54,2.33,3.23-2.62-6.74-6.26-12.42-11.79-16.13-.46,0-.37.49-.8.5,2.79,3,5.83,5.78,8.26,9.17C123,95.85,123.69,96.88,124.39,98Z"/><path class="cls-4" d="M110.75,87.47c3.32,5,5.39,11.32,7.74,17.34,2.77.11,6,.73,8.29.36a49.49,49.49,0,0,0-11.31-16.79C114,87,112.28,85.49,110.75,87.47Zm12.08,14.33c.87,1.13,0,2.68-1.1,2.47C120.19,104,120.75,100.86,122.83,101.8Z"/><path class="cls-4" d="M82,99c.54-.12.54-1.5.78-2.13.81-2.19,3.41-6.45,3.43-8.87-.95-.18-1.33-.94-2.61-.77-.42,1-1.25,1.63-1.91,2.8-1,1.71-2.36,4.65-2.34,5.75C79.39,96,81.22,99.22,82,99ZM80.7,96.77a1.65,1.65,0,0,1,.13-2l1,0C82.48,95.45,82.18,97.22,80.7,96.77Z"/><path class="cls-4" d="M116.87,104.84a65,65,0,0,0-7.09-16.7c-.61.25-.31-.44-.81-.31-.48.6-1.89.31-2.26,1,1.81,4.65,3.25,11.12,4.81,16.58C114,105,115.17,105.33,116.87,104.84Zm-2.44-.45-1.3,0c.05-.28-.14-.31-.33-.32C111.7,100.64,116.46,101.94,114.43,104.39Z"/><path class="cls-3" d="M59.66,90.75A34.48,34.48,0,0,1,64,95.25c1.32.89,1.87,5.31,3.5,5.65.86.19,2-.82,3.06-1.35,1.92-.93,3.8-.66,4.52-1.87a29.53,29.53,0,0,0-6.91-5.76C65.9,90.48,61.52,87.66,59.66,90.75Z"/><path class="cls-4" d="M83,100.49c.1.39,1-.1,1,.47.15.59-.35.8,0,1.14,1,1,1.39,2.66,2.66,3.39,1.63-5.1,3.48-10,4.12-16.07a4.51,4.51,0,0,0-3.09-.6C86.12,92.68,84.06,96.08,83,100.49Zm1.81,1.44A2.45,2.45,0,0,1,85,99.31C87.36,98.73,87.69,102.71,84.84,101.93Z"/><path class="cls-4" d="M124.57,88.72c.16.28.32,1.53,1.32,1.44A1,1,0,0,0,124.57,88.72Z"/><path class="cls-4" d="M110.22,105.6c-1.47-6-2.45-11.57-4.81-16.41a8.93,8.93,0,0,0-3.56.38c1.4,5,1.67,10.89,1.73,17C105.73,107.94,108.44,106.71,110.22,105.6ZM106.94,103c.38,0,.31.56.81.48.16,1.54-.3,2.49-1.91,2.31A1.73,1.73,0,0,1,106.94,103Z"/><path class="cls-4" d="M96.82,89.82c-.61,4.84-.55,11.08-1.21,15.85,1.88,0,4.2.67,6.66.22.53-4.74-.08-12.92-1.88-16C99.86,89.29,97.61,89.65,96.82,89.82Zm2.68,15.46c-.49.16-1.26-.21-1.3,0-1.3-.91,0-3.25,1.43-2A2.34,2.34,0,0,1,99.5,105.28Z"/><path d="M147.14,89.5c-1.6,4.69,5.3-.07,0,0Z"/><path class="cls-4" d="M127.68,90.3c-1,1.9,1.58,2.69,3.13,3,.7,1.36-1.36,1.32-2.41,1.51.06,1.76.59,3,1.84,3.56.86-.24.91-1.26,2.26-1,.42,1.34-.27,1.91-1.1,2.47-.54,2.51,1.89,3.89,3.63,4,1-1.16-.49-2.89.76-3.77.8-.22.8.38,1.46.31.46-.31.61-.91.95-1.33-3.82,0-7-2.09-6.6-7.07C130.5,91.34,129.2,90,127.68,90.3Z"/><path class="cls-5" d="M60.51,93.51a127.08,127.08,0,0,1,7,18.49C67.7,104.3,65,97.63,61,93.5Z"/><path class="cls-4" d="M30.79,123c3.68,1.32,8.88-.11,11.17-1.81,4.77-3.54,9.38-10.61,10-16.49.38-3.84-.15-8-2.28-10.41-.5-.11-.19.57-.81.35-.08,1.44.9,2.13,1.19,3.08a18.25,18.25,0,0,1-2.52,15.38c-3.31,5-7.72,8.71-14.3,9.21-1.27-.13-3.1-1.23-4.07-.59C29.12,122.72,30.29,122.86,30.79,123Z"/><path class="cls-4" d="M136.38,96.53a4.27,4.27,0,0,0-2-2.06c0,.16-.27.13-.3.3C134.62,95.51,135.43,96.76,136.38,96.53Z"/><path class="cls-4" d="M134.07,94.44a1.09,1.09,0,0,1,.31,0,.05.05,0,0,0,0,0Z"/><path d="M143.07,98.38c1.32.55,2.19-.67,1.75-1.83a1.66,1.66,0,0,0-1.94.52A3,3,0,0,1,143.07,98.38Z"/><path class="cls-3" d="M76.84,99.12c-4,.24-6.57,1.84-9.37,3.25.26,1.4.54,2.76.88,4.07,3.34-1.67,5.91-4.1,9.33-5.7C77.81,99.77,77,99.81,76.84,99.12Z"/><path class="cls-3" d="M140.66,110.66c2.18-.31,5.67-.88,8.44-.3-.17-4.28,0-8.47-1-12.07A69.27,69.27,0,0,0,140.66,110.66Z"/><path class="cls-3" d="M75.6,133.42a31.63,31.63,0,0,1-1.17-12.23c.59-5.23,3.48-8.9,5.81-12.49.64-1,1.76-2.21,1.08-3.45-1.29-.08-1,1.37-2.25,1.34-.43-1.48.39-3.47-.4-4.73h-.49c-2.88,5-3,12.56-4.89,18.53-2.17-1.92-3.26-6.44-3.57-10.06-.08-.88.48-2.25-.7-2.61-.24,6,.11,11.94,1.89,16.79C72.54,127.41,73.12,131.4,75.6,133.42Z"/><path class="cls-3" d="M72.74,117.14c.93-3,1.38-6,2.13-9,.41-1.66,1.28-3.26.9-4.75-1.86.28-3.76,1.91-5.15,3.19C70.61,110.83,71,114.65,72.74,117.14Z"/><path d="M139.27,104.64a1.38,1.38,0,0,0,1.76-1.82A1.27,1.27,0,1,0,139.27,104.64Z"/><path class="cls-4" d="M40.39,104.28c-.51.46.06,2.56.38,3.25A5,5,0,0,0,40.39,104.28Z"/><path class="cls-4" d="M38.8,106.26c-1.21,1.95-2.64,3.31-3.32,5.44C38.09,111.62,40,108.43,38.8,106.26Z"/><path class="cls-4" d="M131.66,106.23c.47.56.38,1.71,1.65,1.44a10.67,10.67,0,0,1,.47-1.31C133,106.49,132.59,105.67,131.66,106.23Z"/><path class="cls-3" d="M83.51,110.11a2,2,0,0,0-1-2.59,8.23,8.23,0,0,0-2.85,4.12C81.21,111.4,82.11,110.52,83.51,110.11Z"/><path class="cls-3" d="M123.33,123.51c3-4.23,5.73-8,7.75-12.86-2.44-1.22-5.91-1.38-9.44-1.48C121.15,113.8,120.42,121.87,123.33,123.51Z"/><path d="M135.15,110.91c.84,1,2.52-.09,1.76-1.5C135.57,109.09,135,109.42,135.15,110.91Z"/><path class="cls-3" d="M97.76,118c.54-2.53-.41-5.54-.45-7.5-1.17.09-.06,2.4-1.09,2.63-1.46-.77-2.32-3.5-4.43-2.54A20.18,20.18,0,0,1,97.76,118Z"/><path class="cls-3" d="M96.21,133.09a38.49,38.49,0,0,0-3,3.47c-1.07,1.17-2.51,1.95-3.36,3.32,2.26.18,4.34-1.57,5.8-2.71.56-.43,1.32-.74,1.77-1.17,1.15-1.07,3.92-5.34,4.11-6.92.32-2.56-1.32-6-1.77-9.44-.41-3.07-.32-6-.64-9.29h-.49c0,.21-.2.23-.15.49.18,5.31,1.5,11.26.58,16C98.56,129.28,96.85,131,96.21,133.09Z"/><path class="cls-3" d="M120,110.18c-1,2-.19,4.84-.36,8-.16,3,0,7.18,1.43,8.79,2.21-1.44.24-2.92-.4-4.89C119.56,118.54,121,112.18,120,110.18Z"/><path class="cls-3" d="M79.23,137c1,.16,2.33-1.76,3-3,1.12-1.93,2.83-4.94,3-6.9.11-1.47-.95-2.72.1-3.59,2.84,5.5-2.44,10.13-4,14.42a3.57,3.57,0,0,0,3.92.92A24.67,24.67,0,0,0,87.35,127c1.09-1,1.33-2.89,3-3.32-.08,1.2-1.38,2.13-1.73,3.29s.06,2.81-.1,4.25c-.32,2.93-1.89,5.65-1.81,8.35,1.72.11,2.93-1.43,4.18-2.52a22.93,22.93,0,0,0,3.68-3.32c.23-.3.26-1,.63-1.64s1.14-1.1,1.43-1.66a10.55,10.55,0,0,0,1.22-4.75c-.11-6-2.62-11.82-6.06-13.94-2.14-1.32-4.24.07-6.16.92-.7-.68-1-1.72-2.13-1.44-2.94.74-5.61,3.72-6.89,5.5-.83,3.3-1.84,6.88-1.12,11.28C75.87,130.21,77.66,136.69,79.23,137Z"/><path class="cls-3" d="M176.13,125.1a24.2,24.2,0,0,0,.21,3.1c.06,6.12-2,11.74-3.8,16.71a37.81,37.81,0,0,1-3.46,6.91c-1.37,2.23-3.32,3.94-4.28,6.27a21.48,21.48,0,0,0,4.44,4,84,84,0,0,0,5.34-11.68A129.73,129.73,0,0,0,180,134.83a68.87,68.87,0,0,0,1.55-24.67c0-.1,0-.2-.16-.16-1.19,3.42-2.55,7.89-3.88,11.49A22.7,22.7,0,0,0,176.13,125.1Z"/><path class="cls-4" d="M148,111.19c-.11-.38-1,0-1.14-.3-.9,0-1.68,0-2.44,0-1.83.25-3.18,1-5,1.23-.37,1.62-1.44,2.55-2,3.95,1.22.09,1.42-.62,2.58-1,2.13-.75,7.22-.71,8.26-1.28,1.76-.72,1.4-1.31,1.13-2A1.49,1.49,0,0,0,148,111.19Z"/><path class="cls-4" d="M145.77,115c-4,.5-8.62,1.46-10.64,4.74,2.48-1.43,4.14-2.88,7.25-3.38.82-.13,1.76-.09,2.76-.2C145.22,115.63,146,115.8,145.77,115Z"/><path d="M133.13,116.82c0-.06-.09-.8-.66-1a1.39,1.39,0,0,0-1.61,1C130.56,118.36,133.21,118.33,133.13,116.82Z"/><path class="cls-3" d="M118.57,119.82c0-.12-.14-.18-.33-.15-1.06,2.9-.71,7.94,1.13,9.77,1-.62.16-1.83,0-2.77A53.35,53.35,0,0,1,118.57,119.82Z"/><path class="cls-4" d="M140.18,121.11c-.66-.47-.71-1.57-2-1.44a2.83,2.83,0,0,0,1.52,3.57C139.77,122.43,140.25,122,140.18,121.11Z"/><path class="cls-3" d="M73.51,134.76c.51-1.67-1-3.28-1.7-5a71.13,71.13,0,0,1-2.72-7.63H68.6a14.25,14.25,0,0,0,1.59,7.82C71.07,131.85,72,133.88,73.51,134.76Z"/><path d="M128.35,122.28a1.3,1.3,0,0,0-.78,2.3C129.83,124.78,129.67,122.36,128.35,122.28Z"/><path class="cls-5" d="M30,127.3a6.89,6.89,0,0,0-3.27-1.91c-.22.85-1.31,1.39-.94,2.3A16.09,16.09,0,0,0,30,127.3Z"/><path class="cls-4" d="M135.91,127.87c-.32-1.52-.78-2.72-2.64-2.24-.14,1.09.54,1.33.69,2.11A5.23,5.23,0,0,0,135.91,127.87Z"/><path class="cls-4" d="M40,129.26c5.42,0,10.39,1.37,15,2.53,1.6,1.1,3.63,1.7,5.56,2.68s3.66,2.55,5.72,2.69a6.93,6.93,0,0,0-3-2.07,58,58,0,0,0-8-3.63,59.92,59.92,0,0,0-12.88-3.05,8.22,8.22,0,0,0-3.08-.12,19.26,19.26,0,0,0-5.52.09c-1.5,0-3.85-.25-5,.24-1.56.34-2.73.19-3.88.72C29.35,129.69,35,129.22,40,129.26Z"/><path class="cls-4" d="M130.7,127.14c.17,0,.12-.21-.17-.16-3.44,4.33-2.31,14.08.79,18.76a24.31,24.31,0,0,0,2.65,2.9c.92,1,1.92,2.13,3.28,2.23.48-1.65-1.55-2.2-2.49-3.06C130.05,143.44,128.06,135.29,130.7,127.14Z"/><path class="cls-3" d="M117.26,129.15c0,1.14.06,2.15,1.16,2.11C118.27,130.31,118,129.45,117.26,129.15Z"/><path class="cls-3" d="M175.37,128.38c0-.13-.15-.19-.33-.16-.22.2-.24.52-.31.66-4,8.05-7.51,16.23-12.45,23.38-.6.86-1.64,1.4-1.75,2.63,1.26.58,1.68,2,3.6,1.9A46.15,46.15,0,0,0,175.37,128.38Z"/><path d="M122.8,130.86c.73.88,2.35.29,1.93-1.33A1.19,1.19,0,0,0,122.8,130.86Z"/><path class="cls-3" d="M70.91,134.31a5.67,5.67,0,0,0-1.67-2.91,4.5,4.5,0,0,0,.37,3.09C70.08,134.47,70.67,134.56,70.91,134.31Z"/><path class="cls-3" d="M102.72,133.63c-.08-1.08,0-2.27-.86-2.6-.88.81-1.18,2-1.9,3a29.6,29.6,0,0,1-1.91,2.31c-1.42,1.61-3.1,2.23-4.48,4C98,139.38,100.48,136.65,102.72,133.63Z"/><path class="cls-4" d="M25.15,136.19c-.64-1.16-2.09-1.48-2.79-2.57C21.75,134.77,24.19,135.58,25.15,136.19Z"/><path class="cls-4" d="M26.61,136.17c1.58,0,2.73-2,4.52-1.71,1.33.18,1.78,1.63,3,2.24,2.39.69,3.68-1.92,5.49-1.89,1.39,0,2.67,2.43,4.27,2.55,1.83.13,3.85-1.94,5-1.88s1.75,1.84,2.62,1.92c-.55-1-1.54-1.61-2.15-2.58-2.43.15-3.11,2-6,1.73a16.52,16.52,0,0,0-3.29-2.89c-2.12.77-3.51,2.27-6.29,2.39-.9-1.06-1.67-2.26-3.3-2.56a18.14,18.14,0,0,1-5.31,2.7C25.21,137.36,26.77,136.53,26.61,136.17Z"/><path class="cls-4" d="M133.72,133.46c0-.57-.86-.33-.82-1-.92-.14-1.13.41-1.78.52C131.39,134.53,132.63,133.78,133.72,133.46Z"/><path class="cls-4" d="M127.06,133.24a7.46,7.46,0,0,0-2.47,7.39c1.38,7.08,5.89,14.35,13.23,15.29a35.73,35.73,0,0,0-.39-3.59C130.65,148.91,127.41,142.74,127.06,133.24Z"/><path class="cls-3" d="M95.21,141.43c1.82,1.29,5.31,1.35,8,1.66,1.09.13,2.12.7,2.92-.21-.31-3.32-1.68-5.54-2.89-7.95A31.21,31.21,0,0,1,95.21,141.43Z"/><path d="M118.83,136c.14.45.2,1,.35,1.46C122.43,138,120.23,133.78,118.83,136Z"/><path class="cls-4" d="M61.06,138.22l-1.62,0a1.56,1.56,0,0,0-1-1.29C58.56,138.08,60.19,139.45,61.06,138.22Z"/><path class="cls-4" d="M28.45,139.24a9.32,9.32,0,0,1,3.9-.06c5.53-.53,15.51.41,21.12,1.45.44.82,1.62.86,2.14,1.6a26.84,26.84,0,0,1,13.78,9.08c.12-2.94-2.41-3.14-3.33-5a93.23,93.23,0,0,0-11.94-6c-2.26,0-3.58-.92-5.86-.88,0-.41-.88-.41-1.63-.14-3.05-.37-5.77-.82-8.62-1-1.2-.36-3.29-.1-4.54-.09-.28.51-.48-.62-.81,0-3.75.07-8.95-.09-11.69.36-1,.34-2.57.17-2.74,1.34C21.56,140.11,24.76,138.79,28.45,139.24Z"/><path class="cls-4" d="M28.45,139.24l3.9-.06A9.32,9.32,0,0,0,28.45,139.24Z"/><path class="cls-4" d="M63.9,142.58c-.25-1.42-2.2-3.93-4.09-1.89a6.57,6.57,0,0,0,1.94-.36C62.81,140.61,62.82,142.86,63.9,142.58Z"/><path class="cls-3" d="M125.15,156c.56-2.56,1.5-5.15,1.18-7.53-.19-1.39-1.08-2.93-1.53-4.38a23.54,23.54,0,0,0-1.7-4.54h-.32c-1,2.11-2.79,3.94-3.8,6.43-.89,2.18-.68,5.25-1,8.18-.76,7-2.48,14.7-3.25,20.29a8.22,8.22,0,0,0,4.25,1.4C122.11,171,123.68,162.67,125.15,156Z"/><path class="cls-3" d="M179.92,138.75c0,.22-.29.15-.32.33a227.1,227.1,0,0,1-9.53,23.83,49.36,49.36,0,0,0,3.81,4.67c2.11-2.38,3.29-6.47,4.71-10.52,1.75-5,6.73-13.35,1.49-18.15C180.07,138.81,180.05,138.72,179.92,138.75Z"/><path class="cls-4" d="M65,141.1c0,.71.42,1,.67,1.45a3.19,3.19,0,0,0,2.1-.52C66.53,141.81,65.91,142.38,65,141.1Z"/><path class="cls-3" d="M69.12,164.86c3-6.32,5.91-12.77,8.95-19.07-2.11-1.69-5-2.55-7.85-3.47,0,.21-.2.23-.15.49.15,4,1.23,8.08-.65,10.62-1.4,1.91-3.84,1.94-6,3.2C65.21,159.51,66.61,162.8,69.12,164.86Z"/><path d="M117.15,142.7c-.44.12-.32-.33-.5-.48-1.58-.23-1.89.6-1.59,1.83C116.1,144.78,117.26,144,117.15,142.7Z"/><path class="cls-4" d="M68.78,143.81c-.94-.39-2.2.18-2.91.54C65.86,145.27,68.88,145.25,68.78,143.81Z"/><path class="cls-4" d="M57.61,145.79c-.06-.6,0-1.29-.66-1.3C56.94,145.16,57.09,145.67,57.61,145.79Z"/><path class="cls-4" d="M58.59,146.1c-.57,1.36-.59,1.54.37,2.6C58.89,147.75,59.46,146.5,58.59,146.1Z"/><path class="cls-3" d="M70.13,166.8c1.09-.05.84-1.32,1.1-2,.92-2.35,2-4.8,3-7.07,1.69-4.12,3.85-7.65,5.5-11.51,0-.13-.14-.19-.33-.16-2.75,4.28-4.59,9.44-7.24,13.83C71.85,162.59,70.06,163.8,70.13,166.8Z"/><path class="cls-4" d="M137.81,145.15h-.65c0,.6,0,1.11.5,1.13C137.57,145.78,137.94,145.71,137.81,145.15Z"/><path class="cls-4" d="M61.9,150a8.41,8.41,0,0,1-.29,2c-1.15-.91-.51-3.68-1.22-5.05-.23,1.27,0,2.18-1.25,2.64,1.35,1.92,1.76,3.89,3.66,6a6.26,6.26,0,0,0,4.51-2.36c-.25-.57.1-1.76-.52-1.95-.67.48-.23,2-1.1,2.3-.48-.54.25-2.35-.53-2.6a10.06,10.06,0,0,1-.93,2.79c-.9-.5-.1-2.76-.86-3.42-.57.89.18,3.07-.76,3.61C62,152.92,63,150.39,61.9,150Z"/><path class="cls-3" d="M81.61,174.46c1.14-8.75,3.92-17.29,6.42-25.25-1.48-1.41-4.53-2-6.37-2.51,0-.1,0-.19-.17-.16a81.59,81.59,0,0,0-9.72,21.71,16.92,16.92,0,0,1,7.38,4.61C79.76,173.45,80.57,174.47,81.61,174.46Z"/><path d="M110.93,149.66c.14,1.55,2.84.94,1.93-1.18A1.4,1.4,0,0,0,110.93,149.66Z"/><path class="cls-3" d="M93.74,150.75a9.85,9.85,0,0,0-4.08-1.24c0,.14-.45.26-.49.34-2.22,4.51-4,11.94-5.23,17.71-.67,3-1.82,6.61-1.48,9,.21,1.5,1.2,2.87,1.69,4.38s.38,3.37,1.54,4.55c2-2,2.82-5.07,4.59-7.26a57.16,57.16,0,0,1,.53-7.84C91.37,163.56,93.19,157,93.74,150.75Z"/><path class="cls-3" d="M103.81,171.65c2.85,1,6.21,2.28,9.45,2.29,2.41-7,3.7-16,4-24.55h-.48c-1.08,2-2.27,3.82-3.48,5.77-2.29,3.69-4.55,7.26-6.64,10.88C105.59,167.87,104.14,169.57,103.81,171.65Z"/><path class="cls-3" d="M94.23,171.64c.8-1.27,1.91-2.39,2.7-3.64,1.46-2.3,2.39-4.92,3.94-7.24,1.42-2.13,3.65-4.38,4.11-7.25q-4.68-1.2-9.29-2.46c-.23,0-.27.27-.48.33-.5.86-.45,2.5-.75,3.77-.2.83-.76,1.62-.94,2.46-.45,2.16-.7,4.72-1,7-.52,3.77-1.36,7.18-.81,10.62C93.06,174.49,93.44,172.9,94.23,171.64Z"/><path class="cls-3" d="M127,178.62c1.21-.21,2.61-3.33,3.33-4.63a95.12,95.12,0,0,0,6.87-16.92,20.72,20.72,0,0,1-9.68-6.53h-.32a.77.77,0,0,1-.15.49c.1.11-.16.18-.16.17-1.11,9.29-4.16,17.42-6.26,25.07a9.54,9.54,0,0,0,3,1.43C124.59,178,126.27,178.74,127,178.62Z"/><path d="M155.49,154.33c.28-.1.95.18,1-.18A.76.76,0,0,0,156,154,.44.44,0,0,0,155.49,154.33Z"/><path d="M109.73,156.21c.16-.5-.36-.29-.65-.32-.19-1.71-2.81-.72-1.94.85C108.24,157.46,108.92,156.17,109.73,156.21Z"/><path class="cls-3" d="M37.8,165.37A13.08,13.08,0,0,0,39,162.25c-.06-1-2.49-4.06-3.8-4.35-.05,0-.11,0-.16,0h-.16a74.72,74.72,0,0,0-4.7,11.17c-1.44,4.21-3.4,8.06-3.54,11.81a6.74,6.74,0,0,0,.37,2.61c.39,1.06,1.19,2.6,2.31,2.9A216.56,216.56,0,0,1,37.8,165.37Z"/><path class="cls-3" d="M137.29,163.76c.72-1.69,1.85-3.65,1.38-5.57h-.49c-.69,2.21-1.87,4-2.17,6.56-.29.31-.43.76-.8,1-.51,2.07-1.72,3.46-2.18,5.59-1.19,2.28-3.18,4.6-3.46,7.23,2.21-2.75,3.68-6.33,5.37-9.71C135.74,167.24,136.55,165.49,137.29,163.76Z"/><path class="cls-3" d="M145.32,168a42.87,42.87,0,0,0-5.65-7.91h-.33c-1.55,3.85-3.07,7.89-4.84,11.51-1.35,2.72-3.38,5.17-3.77,8.22a30.92,30.92,0,0,0,7.68,3.14c1-3.49-1.11-8,1-10.79C140.94,170.13,143.77,170.25,145.32,168Z"/><path d="M103.85,163.81c1.86.41,1.62-3.07-.52-1.78A1.7,1.7,0,0,0,103.85,163.81Z"/><path class="cls-3" d="M33,199.89c.1-1.36-.31-2.79-.23-4.08.31-5.11,1.94-10,3.51-14.42a37.36,37.36,0,0,1,2.82-6.25c1.82-3.13,3.86-5.46,5.39-8.25C43,165.63,42,164,40,163.21a34.11,34.11,0,0,0-3.3,6.58c-3.45,8.26-6.78,16-8.19,25.93-.36,2.51-1,5-1.18,7.52-.1,1.86-.07,3.78-.07,5.72,0,1.78-.24,3.9.74,5.54.88-2.2,1.62-4.67,2.48-7.23S32.81,202.22,33,199.89Z"/><path class="cls-3" d="M35.86,186.29c-1.34,2.83-2.51,7.43-1.78,10.8a42.26,42.26,0,0,0,2.66-6.24c1.89-2.86,3.4-6.24,5-9.22,2.14-3.87,4.24-7.54,6.48-11.21a5.78,5.78,0,0,0-2.8-2.24A40,40,0,0,0,35.86,186.29Z"/><path d="M99.21,168.46c0,.68,0,1.36.36,1.62,1.43.21,2.24-1.15,1.42-2.14A2.35,2.35,0,0,0,99.21,168.46Z"/><path class="cls-3" d="M40.35,213.81c1-3.89,2.24-7.88,3.39-11.81,2.86-9.84,7.26-18.44,11.75-26.47a20.16,20.16,0,0,0-6.23-4.15c-2.34,2.75-4.61,7-6.65,10.56C40.67,185.36,39,189,37.1,193a154.06,154.06,0,0,0-7,17.75c-.53,1.63-1.89,5.29-1.52,6.71.18.67,1.37,1.28,2.15,1.93a57.32,57.32,0,0,0,7.06,5.43,15.58,15.58,0,0,0,1.39-4.59C39.6,218,39.82,215.89,40.35,213.81Z"/><path class="cls-4" d="M142.16,173.48c.25-.82.27-1.61.62-2-1.08,0-1.42.66-1.77,1.33C141.82,172.61,141.65,173.39,142.16,173.48Z"/><path class="cls-4" d="M78.56,197c1.93-1.35,2-5.07,1.66-8-.38-4-1.64-6.43-2.57-8.93-1.89-1.86-3.26-4.25-5.78-5.46h-.32c0,.44-.26.33,0,.65,2.64,2.57,5.4,5,7.12,8.54C79.53,187.84,79.18,193.28,78.56,197Z"/><path d="M95.61,176.68c1.21.1,1.76-.43,1.77-1.5C96.27,173.56,94.17,175.53,95.61,176.68Z"/><path class="cls-4" d="M71.15,179.85c.82.05.41-1.07,0-1.14C70.76,179.07,71.19,179.34,71.15,179.85Z"/><path class="cls-4" d="M76.6,195.75c-.27-2.1-2.34-2.32-3.47-3.53.55-2,3.46-1.67,4.17-3.5-1-1.87-4.5-.47-5.87-1,.63-2.39,2.22-3.84,2.17-6.89-3-.2-2.42,2.7-2.51,5.26a33.86,33.86,0,0,1-.72,6.22c-1.27,4.67-5.32,8.11-4,13,1.9-1.17,1.07-4.65,2.67-5.76,1.45,1,1.51,3.41,3.79,3.53.54-3.57-2.31-5.3-1.91-7.64C72.21,195.78,75.23,196.56,76.6,195.75Z"/><path d="M91.65,182.94a1.31,1.31,0,0,0,1.77-1.33C93.12,180.05,90.3,181.48,91.65,182.94Z"/><path class="cls-3" d="M110.21,186.07c1.15-.81,2.53-1.25,3.53-2.34A30.16,30.16,0,0,0,102.51,182c-.16,3.38,1.92,5.84,2.9,8.6C107.26,189.3,108.35,187.38,110.21,186.07Z"/><path class="cls-4" d="M183.67,191.09c-2,0-3.12,2.2-4.83,2.36-1.94.19-2.69-1.78-4.42-2.54-2,.82-3.55,2-6,2.39-1.1-.9-2.47-1.53-3.13-2.89-2.2-.19-3.66,1.22-5.32,2a11.6,11.6,0,0,1-3.3-3.21c-2-.2-2.71.79-4.54.72a30.22,30.22,0,0,1-2.65-3.54c-1.49.09-1.82.67-3.57.71-1.6-.77-1.37-3.7-3.31-4.52-.33.83-2.18-.29-2.26,1,3.79-1.2,3.56,2.25,4.93,4,1.33,0,2.34-.4,3.73-.39,1.5.86,1.51,3.35,3.15,3.71,1.48.32,2.52-1.15,4.36-.73,1.23.94,1.85,2.51,3.3,3.22,1.78-.14,2.68-2.36,4.84-2,1.17.17,2.56,2.75,3.62,2.87,1.82.22,4.43-2.64,6-2.54s2.31,2.64,3.62,2.88c1.84-.15,3.38-2.84,5.32-2.69,1.3.09,1.43,1.81,3.11,1.74C185.75,192.47,184.58,191.91,183.67,191.09Z"/><path class="cls-4" d="M73.52,186.34c1.19.33,3.09-.09,3.22-1.68C75.3,183.25,73.64,184.63,73.52,186.34Z"/><path class="cls-3" d="M109,191c1-.53,1.35-1.56,2.07-2.32,1.67-1.75,4-2.71,5.78-4.34-4.19.12-13.6,6.38-9.91,10.12A11,11,0,0,0,109,191Z"/><path class="cls-3" d="M115.45,188.93c1.43-1.44,3.34-2.19,4.16-4a3,3,0,0,0-1-.15,20.1,20.1,0,0,0-11.2,10.47,5.41,5.41,0,0,0-.3,1.31c-.15,2.71,1.63,6,2.1,9.43.32,2.38.11,4.85.44,7.34,0,.34-.08,1.36.67,1.46.25-5.41-1.2-10.32-.57-15.5C110.24,195.41,113,191.39,115.45,188.93Z"/><path class="cls-3" d="M123.46,212.79c.64.17.63,1,1.32,1.12a7.92,7.92,0,0,0,5-2c6.24-5.08,4.46-19-.39-24.15a23.43,23.43,0,0,0-5.69,9.56c-.39,1.61.58,2.93-.09,4.24-2.79-5.55,2.87-9.65,4-14.42a13.36,13.36,0,0,0-4.08-1.24,25.82,25.82,0,0,0-2.08,12.44c-1.32.74-1.2,2.89-2.86,3.31.38-1.52,1.61-2.25,1.88-4,.19-1.21-.23-2.5-.06-3.92.32-2.72,2.07-5.77,1.82-8.19-.38.07-1.18-.06-1.3,0-3.6,2.66-8.79,7.09-9.88,11.74a12.85,12.85,0,0,0-.11,3.43c.5,5.78,3.3,12.16,8.34,13.58A39.83,39.83,0,0,1,123.46,212.79Z"/><path d="M87.35,187.91a3.64,3.64,0,0,0,.18,1.47c1.3.66,2.22-.78,1.6-2C88.13,187.09,88,187.57,87.35,187.91Z"/><path class="cls-3" d="M139.92,206.49a44.19,44.19,0,0,0-2-5.85c-1.76-4.63-3.35-9-6.2-12.14,1,2.88,2.32,5.38,2.73,8.6,1.14,9-2,14.08-5,18.86-.71,1.1-2.55,2.42-1.56,4.1,1.32.16,1-1.26,2.25-1.17.67,1.38-.56,3.74.56,4.56,1.28-.22,1.6-1.86,1.9-3,1.37-5,2-10.47,3.33-15.23,3.09,2.38,2.78,8.28,4.1,12.49,1.2-.83.27-3,.25-4.4C140.16,211,140.42,208.71,139.92,206.49Z"/><path class="cls-5" d="M152,233.71c1.2.15,2.45-1.15,3.39-1.36-.42-2.34-1.69-4.65-1.9-7.31-1-12.67,7.53-22.64,16.79-26.22a100.55,100.55,0,0,1-14.66-3c-5.44-1.47-10.23-4.37-14.39-6.63,0-.1,0-.19-.17-.16,0,3.18.09,8.23.37,12.89.12,2.09-.05,4.2.09,6,.17,2.11,1.31,5.13,1.91,7.31a71.76,71.76,0,0,0,4.92,13.15C149.1,229.88,150.92,233.57,152,233.71Z"/><path class="cls-3" d="M134,189.28c2.38,4.88,4.4,9.63,6.4,14.59.9-4.35-1.5-9-3.27-12C136.32,190.53,135.57,189.11,134,189.28Z"/><path class="cls-3" d="M137.55,190.2c.52,1.79,1.17,3.43,2.51,4.37C140.2,192,139.93,190.39,137.55,190.2Z"/><path class="cls-4" d="M75.23,191.86c.1.9,2.21.87,2.28,0C77,191.28,75.82,191.54,75.23,191.86Z"/><path class="cls-3" d="M91.37,195.84c.26-.83-.05-2.48-1.17-2.42C90.3,194.52,90.45,195.58,91.37,195.84Z"/><path d="M83.56,194.66c.29.31.17,1.05.51,1.3C87.08,196.62,85.13,192.05,83.56,194.66Z"/><path class="cls-3" d="M89.25,195.22a4.06,4.06,0,0,0-.64.67c.91,2.76,1.14,6.22,1.77,9.27C92.28,202.5,90.89,197.19,89.25,195.22Z"/><path class="cls-4" d="M75.36,199.37c.2-1.71-1-2-2.31-2.09-.12,1.06.57,1.29.68,2.12A6.9,6.9,0,0,0,75.36,199.37Z"/><path class="cls-5" d="M182.68,200.25c.77-1.15,1-1.1,1.1-2.64a17.58,17.58,0,0,0-5.18.9C180.29,198.75,180.82,200.19,182.68,200.25Z"/><path d="M80.44,202.71a1.52,1.52,0,0,0,1.44-1.33C81.06,199.26,78.41,201.68,80.44,202.71Z"/><path class="cls-4" d="M177.14,199.19c-2-.26-2.39-.09-2.91.21l-1.79,0A25.27,25.27,0,0,0,162,205.15a21.41,21.41,0,0,0-1.91,2.15,25.17,25.17,0,0,0-5.44,15.27l0,1.63c.41,1.38.22,2.83.71,4.24.44,1.22,1.49,3.69,2.66,3.38.28-1.37-.69-2.51-1-3.74a23.52,23.52,0,0,1,.92-13.89c2.17-5.72,8.79-12.91,15.37-13.3a15.72,15.72,0,0,1,5.53.4c.91.32,1.58,1.56,2.61.93C181.7,200.1,178.73,199.93,177.14,199.19Z"/><path class="cls-3" d="M85.29,201.49a146.75,146.75,0,0,0-7.42,12.85c2.32,1.41,5.84,1.57,9.6,1.48C87.26,211.59,88.76,202.57,85.29,201.49Z"/><path class="cls-4" d="M70.58,205.32a2.78,2.78,0,0,0-1.35-3.24C68.53,203.4,68.64,205.44,70.58,205.32Z"/><path class="cls-4" d="M176.87,202a3.57,3.57,0,0,0-3.09-.11c-5.66.79-9.7,4.77-12.85,8.86-1.82,3.64-4.32,8.84-3.5,14.75.27,1.89,1.06,5.3,2.85,5.5.91-1.07-.35-2.22-.7-3.42a19.12,19.12,0,0,1,.92-13.23,19.81,19.81,0,0,1,16.06-11c1.18.19,2.53,1.18,3.58.59C180.27,202.62,178.09,202.37,176.87,202Z"/><path class="cls-4" d="M74,204.94c-2,1.69-3.8,3.38-7.19,3.72-.48.39-1.69-.47-2.45-.35a2.88,2.88,0,0,0-1.15,1.7c4.83.17,6.88-2.28,9.86-2.77C73.2,206.32,73.9,205.93,74,204.94Z"/><path d="M77.75,206.84c-2.12-.67-2.23,2.4-.62,2.13A1.28,1.28,0,0,0,77.75,206.84Z"/><path class="cls-3" d="M112,214.77c.71-.43.07-2.18.93-2.46,1.36.89,2.49,3.41,4.26,2.38A19.91,19.91,0,0,1,111,206.3C110.94,208.78,110.92,212.56,112,214.77Z"/><path class="cls-4" d="M68.27,213.36c1.2-1.47,2.81-2.52,3.5-4.47-3.17,1.18-4.88,2.14-8.89,2.1-1.86-1.88-.32,0-2,0-.72.57-1.41.92-1.1,2.51C62.19,214.65,65.73,213.85,68.27,213.36Z"/><path class="cls-3" d="M136.21,208c-.88,4.87-2.41,9.12-3.18,14.09,2.43-.47,3.76-2,5.47-3.19C138.73,214.89,138.12,210.37,136.21,208Z"/><path d="M74.12,213.59a1.31,1.31,0,0,0-1.92,1.5C73.05,216.26,74.87,215,74.12,213.59Z"/><path class="cls-3" d="M59.85,215c.51,3.54.11,8.63,1.33,11.73a66.35,66.35,0,0,0,7.12-11.86C66,214.69,62.47,215.36,59.85,215Z"/><path class="cls-3" d="M126.63,217.8a9.24,9.24,0,0,0,3.18-4.29,10.74,10.74,0,0,0-4.52,2A3.1,3.1,0,0,0,126.63,217.8Z"/><path class="cls-4" d="M75.48,217.65c.08.39-.29.36-.14.82.6.14.88.62,1.79.46C77.16,217.9,76.59,217.49,75.48,217.65Z"/><path class="cls-4" d="M102.6,217.53a13.3,13.3,0,0,1-3.87,1.7c1.3,5.55,2.63,12.09,5.3,16.73,1.17-.09,2.54,0,3.07-.71-.64-4.39-1.81-11.27-1.56-16.62A28.37,28.37,0,0,1,102.6,217.53Zm-.74,4.59a2.26,2.26,0,0,1-.21-2.61C104.05,218.53,104.07,222.28,101.86,222.12Z"/><path class="cls-4" d="M113.92,235.31c1,.09,1.92.22,2.93.28,1.38-5.68,3.34-11.63,4.43-17.05-2.28.57-4.25.42-6.48,1.09A55.83,55.83,0,0,0,113.92,235.31Zm5-15.1a3.63,3.63,0,0,1-.29,2l-1.46,0a2.28,2.28,0,0,1-.35-1.63A1.56,1.56,0,0,1,118.87,220.21Z"/><path d="M68.08,221.36c.46.13.67.52,1.3.47.2-.61.86-.78.62-1.81C69.22,219.07,68,219.82,68.08,221.36Z"/><path class="cls-4" d="M112.46,235.17c.21-4.35.86-12.22.72-15.52,0-.76-1.52,0-1.79-.46l-1.62,0a9.06,9.06,0,0,0-3.09-.12c-.25,5.75.21,12.16,2,16.3C109.93,235.28,111.52,235.54,112.46,235.17Zm-2.2-15.47c1.27-.1,1.6,2.1.2,2.6C108.91,222.05,109.06,219.79,110.26,219.7Z"/><path class="cls-4" d="M98.37,237.52c-3.63-4.91-5.22-12-8.24-17.5a36.19,36.19,0,0,1-5.68-.23c-.1-.44-1.93-.63-2.44,0a57,57,0,0,0,6.34,10.67c2.37,3,4.82,6.24,8.25,8C97.14,238.14,98,238.09,98.37,237.52ZM86.13,223.35a2.09,2.09,0,0,1,.28-2.45l1.14,0A1.44,1.44,0,0,1,86.13,223.35Z"/><path class="cls-4" d="M91.92,220.16a110.87,110.87,0,0,0,5.08,13c.49,1,1.91,3.61,3,3.87.71.18,1.74-.68,2.43-.69.2-1.3-.78-2.14-1.19-3.24-1.58-4.26-2.23-9-3.63-13.49C95.4,219.77,94.14,219.93,91.92,220.16Zm3.78,3c-1.32.16-1.72-.36-1.65-1.94C95.39,219.46,97.23,222,95.7,223.2Z"/><path class="cls-4" d="M118.31,235.73c1.08.14,1.73.75,3.09.6.73-1.58,1.78-3.36,2.68-5.43.76-1.75,2.36-4.48,2.17-6.08-.15-1.33-3.62-4.67-3.82-5.64C120.88,224.53,118.78,229.33,118.31,235.73Zm6.14-12.18a2.63,2.63,0,0,1-.13,2.12C121.13,226.5,122.44,221.6,124.45,223.55Z"/><path class="cls-3" d="M140.28,218.89a33.43,33.43,0,0,1-8.36,5c-1.53,3.21,2.6,2,4.73,1.23s4.93-1.55,5.31-2.7a16,16,0,0,1-.87-3.58Z"/><path class="cls-4" d="M81.44,234.69c.86-2.43-1.74-2.58-3.14-3.21,0-.33,0-.66,0-1,.51-.52,1.94-.28,2.26-.53,0-1.9-.54-3.19-2-3.56-.57.53-.94,1.23-1.93,1.34-1.19-1.48,1.15-2.36,1.08-3.77-.09-1.57-1.66-2.47-3.62-2.72-1,.6,0,2.8-.43,3.27-.49.69-1.37.17-2-.29-.17.58-.76.76-.63,1.64,4,.13,6.78,2.39,6.29,7.08C78.75,233.5,79.52,234.69,81.44,234.69Z"/><path class="cls-4" d="M87.72,231.65c-2.07-3.1-4-6.11-5.83-9.05a37,37,0,0,0,8.67,14.07c1.14,1.17,2.45,3.25,4.27,2.86,0-1.21-1.38-1.67-2.16-2.41C90.94,235.45,89.3,233.41,87.72,231.65Z"/><path d="M154.65,224.2c0-.54,0-1.08,0-1.62A1.72,1.72,0,0,0,154.65,224.2Z"/><path class="cls-3" d="M150,234.56a29.25,29.25,0,0,1-7.47-10.16c-3.21.57-5.71,1.84-8.4,2.91.6,1.79,2.41,2.26,4.12,3.69.82.69,1.68,1.25,2.62,1.91C143,234.47,147.77,237.9,150,234.56Z"/><path d="M64.61,228.27c.67.1,1.65-.37,1.61-1.17C66.11,225.21,63.05,226.75,64.61,228.27Z"/><path class="cls-4" d="M128,233.78c.56-1.14,2-3.39,1.87-4.61-.18-1.67-2.3-1.89-2.48-3.22h-.49c-1,4-3.45,7.34-4.2,11C125.73,239.19,126.62,236.6,128,233.78Zm-.73-5.22c.19,0,.29,0,.32-.16,1.73-.13,1.09,1.8.19,2.12A1.52,1.52,0,0,1,127.29,228.56Z"/><path class="cls-4" d="M74.87,230.39a3.09,3.09,0,0,0-2.47-2.25A3.58,3.58,0,0,0,74.87,230.39Z"/><path class="cls-4" d="M129.87,238c1.2-1.46,3.77-3.59,4.14-5.29-1.15-.85-1.71-2.32-3.45-2.56-.88,3.41-2.52,5.23-3.93,8.22C128.05,239.85,129.28,238.72,129.87,238Zm1-5.89c1.22-1.12,2.49.71,1.33,1.61l-1.3,0A2.19,2.19,0,0,1,130.91,232.1Z"/><path d="M60.79,232.9c-.31.55-.66,1.27-.14,1.8C62.16,235.41,63.06,232.53,60.79,232.9Z"/><path class="cls-4" d="M50.92,235c-.31,3.45,1.5,6.84.65,10.11,0,.67.76.53.83,1.13.28,2.46,1.38,4.75,1.73,6.83.16,1-.34,3.4,1.5,2.59a52.9,52.9,0,0,1-2.58-9.27c-.09-.51.8-.07.64-.66-1.9-2.5-1.53-6.81-2.29-10.74Z"/><path class="cls-4" d="M83.24,236c.6.24.89.35,1.31.14-.32-.51-.7-1.82-1.33-1.45C83.45,234.7,83.08,235.48,83.24,236Z"/><path class="cls-4" d="M138,235.74c-1-.79-2-1.81-3.12-2.08-1.48,2.32-3.67,3.93-4.93,6.45C133.32,243,136.12,237.88,138,235.74Zm-3.24,0c1.36-.25,1.49,1,1,1.78l-1.46,0A1.37,1.37,0,0,1,134.71,235.79Z"/><path class="cls-4" d="M107.3,237.54c8.72-1.12,16,1.51,21.82,4.05a34,34,0,0,0-14.85-4.66c-1.39-.11-3.26-.66-4.88-.08,0-.18-1.62,0-2.27,0-1.05.27-1.62.77-2.75.37-.72.62-1.48.19-2.1.85l-.81,0c-1.77,1-4.44,1.28-5.64,3,2-.17,3.55-1.66,5.65-2.37A35,35,0,0,1,107.3,237.54Z"/><path class="cls-4" d="M137.23,241.13c.76-.28,1.77,0,2.25-1-.48.23-.58-.07-1.29,0-.55-1.06.05-2,1.43-1.67a.78.78,0,0,0,.17.49c.21.68-.25.72-.31,1.15a4.12,4.12,0,0,0,3.06-1.52c-1.13-.7-1.91-1.77-3.44-2.07-1.79,2.17-4.24,3.69-5.91,6C135,242.68,136.05,241.58,137.23,241.13Z"/><path class="cls-4" d="M109.61,239.79a32,32,0,0,1,18.08,4.11c.31.89,1.74,1.13,1.95.13-3.91-3.23-9.78-4.56-15.67-5.13.14-.37-1.61-.3-2.27-.13a1.54,1.54,0,0,0-1.46,0,3.54,3.54,0,0,0-2.12,0c-.47.29-1.46.08-1.77.52l-1.14,0a28.24,28.24,0,0,0-4.68,1.71c-1,.41-2.57.42-2.9,1.68,1.07.56,1.92-.35,2.92-.38A18.27,18.27,0,0,1,109.61,239.79Z"/><path class="cls-4" d="M45.39,244.25c-.36.3-.38.92-1,1a10.92,10.92,0,0,0-5.91-3.82c-1.14,4.2.47,6.54,2.74,8.77.13.5-.16.6-.14,1,2.51.22,5,2.39,6.16-.42-3.86-.07-7.3-2.68-6.91-5.93,1.67,1.81,3.6,5,7.21,4.46a4.47,4.47,0,0,0,2.74-1.85C47.66,247.42,47.78,244.53,45.39,244.25Z"/><path d="M101.46,258.2c.43.09,2.59-.17,2.73-1.35-1.39.37-1.9.67-3.24.22-2.17-3.28,2.79-7.14,5-3.84.65-.49.86-.29,1.45-.35.35-.71-.41-1.06-.84-1.45-.51-.07-.62.24-1,.34-1.38-1.39-2.63-.43-4.22.07C99.5,253.41,98.72,257.65,101.46,258.2Z"/><path d="M109.17,253.34a1.81,1.81,0,0,0-1.32-1.78C107.35,252.44,108.55,253.62,109.17,253.34Z"/><path d="M110.81,254c.53-.9-.4-1.53-1-1.78-.12,0-.18.14-.15.32A1.81,1.81,0,0,0,110.81,254Z"/><path d="M111.79,254.28a.92.92,0,0,1,.65.15c.5-.87-.45-1.47-1-1.78-.19,0-.26.19-.32.33C111.3,253.43,112.07,253.86,111.79,254.28Z"/><path d="M114.08,255.55c0-.22.28-.15.32-.33-.3-.59-.54-1.21-1.16-1.45C112.88,254.43,113.57,255.25,114.08,255.55Z"/><path d="M115.71,256.17c.23-.75-.17-1.2-.51-1.78h-.49A1.51,1.51,0,0,0,115.71,256.17Z"/><path d="M117.19,257c.39-.66-.31-1.39-.84-1.62A1.36,1.36,0,0,0,117.19,257Z"/><path class="cls-3" d="M53.59,260c0-.41,0-.84-.5-.81-1.13.26-1.29,2.25-2.4,2,.07-.79.72-1,.62-2-2.22-.14-.82,2.26-1.74,3.3-.6.24-.31-.45-.81-.32-.47,1.14-1.09,1.48-.93,3,2.51.14,2.29-2.37,4.34-2.69a5.84,5.84,0,0,0,1.19,3.25c1.64-.48,1.61-2.61,2.7-3.63,1.4.37,1.59,2,3.44,1.9.13-3.22,2.69-1.66,3.89-.39-.69-3.16-2-5.71-5.29-6.12-.06.53.23,1.41-.31,1.48s-.49-.48-1-.48c-.1.5-.24.95-.8,1-.41-.28.18-1.62-.67-1.46A6.32,6.32,0,0,1,53.59,260Z"/><path d="M118.83,258.25c0-.1,0-.2.16-.17-.11-.76-.26-1.5-1.16-1.45C118,257.39,118.05,258.17,118.83,258.25Z"/><path d="M119.82,259.21h.32c.25-.3-.09-1-.34-1.3a.78.78,0,0,0-.48.17v.17C119.55,258.5,119.47,259.08,119.82,259.21Z"/><path d="M105.21,259.44c-.8-1.46-5.7-1.44-5.83.59C100.75,259.8,103.58,259,105.21,259.44Z"/><path d="M106.25,263.67c.67-.52.82-1.56,1.27-2.3-3.6-.2-6.12,0-9.42,0a4.1,4.1,0,0,0-.29,2.13c1,.15.68-.94,1.44-1,2.11.07,4.75-.35,6.5-.11C105.77,263,105.65,263.69,106.25,263.67Z"/><path class="cls-3" d="M60.63,263.59c-1.34,1.69,0,3.45.73,4.89C66.85,268.84,63.59,263.63,60.63,263.59Z"/><path d="M99.26,263.13c.1,1.44,1.89.9,2.45.29a2,2,0,0,0,2.91-.21A19.41,19.41,0,0,0,99.26,263.13Z"/><path class="cls-3" d="M59.74,269c0-2.3-.46-4.05-2.34-4.37-.09.5.23,1.4-.13,1.64-.63.19-.59-.57-1-.15-.58,1.27.45,2.48.21,3.43a1.85,1.85,0,0,1-1.45.35c-.64-1.24,1.1-3-.07-4.24-.83.47-1.15,1.56-2.58,1-.64,1-.3,4.43-2.23,3.13.37-1.84,2.09-2.36,1.55-5.08-1.55,0-2.94,1.5-4.84,1.71-.57,2.07.33,3.94,1.85,4.38.57,1.23.87,2.95,2.32,3.06s1.41-1.17,2.57-2c1.08.88,1.3,2.63,3.61,2.23.85-.67.72-2.3,1.57-3a2.66,2.66,0,0,0,2.29.61,2.21,2.21,0,0,0-.05-2.93C61,269.31,60,269.21,59.74,269Z"/><path d="M142.31,264.56l0,2.28A3.25,3.25,0,0,0,142.31,264.56Z"/><path d="M108.21,274.25c-.57,1.12-1.9,2.3-1.57,3.78.78.1,1-1.13,1.78-.52-.18.84-1.19.88-1.6,1.49,0,.49,0,1,0,1.47,2.47,3,5.64.6,8.11-.45,1.18-.5,2.6-.36,3.07-1.36a35.64,35.64,0,0,1-3-3.38c-.45.47.76,1.23.19,1.79-1.45-1.68-4.64-.64-7.16-1.19C107.87,275.13,109,274.59,108.21,274.25Zm4.92,3c.87,0,2,.37,1.8,1l-1.62,0C113.3,277.87,113,277.77,113.13,277.27Zm-.12,2.62c-1,1.42-4.6,1.87-5.2-.25C109.12,280.74,111,280.15,113,279.89Zm-3.27-1.09a1.3,1.3,0,0,1,1-.18.94.94,0,0,1-.47,1.15A.78.78,0,0,1,109.74,278.8Zm1.28-1.33-1.3,0C109.52,276.78,111.2,276.75,111,277.47Z"/><path d="M119.85,281.08h-.65c-1.77,2.28-4.12,3.05-7.41,3.71a24.49,24.49,0,0,0-5.53-.72c0-.89-1-.95-1.47-.47C108.46,287.89,118.13,285.64,119.85,281.08Z"/><path class="cls-4" d="M138.45,287c.25-.64-.43-.33-.5-.64,0-.1,0-.2-.16-.16,0,.31-.18.36-.15.65C138,287.19,138.16,286.68,138.45,287Z"/><path class="cls-4" d="M136.28,293.71c1.47-1.72,3.64-3.47,4.14-5.62l-.65,0a44.43,44.43,0,0,1-3.5,4.95A76.78,76.78,0,0,1,130.7,300a33.4,33.4,0,0,1-6.56,5.66,39.37,39.37,0,0,1-15,5.14c.9.83,2.59.33,3.74.1a27.44,27.44,0,0,0,8.71-3.24c1.35-.51,2.28-1.43,3.7-1.86a25.15,25.15,0,0,1,4.81-4C132.16,299.12,134.66,296.85,136.28,293.71Z"/><path class="cls-4" d="M145.79,289.64c0-.22,0-.43,0-.65-.69,0-1.38-.07-1.28.67C145.18,289.82,145,289.72,145.79,289.64Z"/><path class="cls-4" d="M143.57,292.61c0,.44,0,.94.18,1.15,1,0,1.6-.49,2.59-.54,0-.32,0-.65,0-1a4.26,4.26,0,0,0-2.26.36c-.11-.49.18-1.4-.2-1.62.09.36-.87.52-1,.18-.12-.71.37-.83.8-1-.09-.23.18-.84-.18-.81-.55,1.06-1.88,1.51-1.57,3C142.57,292.33,143.36,292.16,143.57,292.61Z"/><path class="cls-4" d="M134.17,293.75a2.67,2.67,0,0,0,1.27-1.66c-1.09,1-2.74-2-3.07.54A2.23,2.23,0,0,1,134.17,293.75Z"/><path class="cls-4" d="M132.39,294.1c-.21.6-1.27.37-.95,1.48C132.43,295.91,133,294.27,132.39,294.1Z"/><path class="cls-4" d="M136,296c-.28.74-1.14.93-.93,2.14a3.8,3.8,0,0,0,1.29-.18C136.17,297.37,136.69,296.06,136,296Z"/><path class="cls-4" d="M128.9,299.05c0-.22.22-.31.15-.65h-.49C128.53,298.78,128.61,299,128.9,299.05Z"/><path class="cls-4" d="M140.31,302.13l1.3,0c-.59-1.59-.63-3.88-3-3.21C138.31,300.84,140.68,300.69,140.31,302.13Z"/><path class="cls-4" d="M126.34,301.38h-.49c.06.49-1.16.56-.64,1C125.6,302.06,126.27,302,126.34,301.38Z"/><path class="cls-4" d="M121.48,302.11c0,.67-1,.39-1.12,1a2.52,2.52,0,0,1,1.63.3C122.25,303.05,121.85,302.32,121.48,302.11Z"/><path class="cls-4" d="M130.93,304.24c.71.11.83-.36,1-.83-.17-.32-.29-.69-.66-.8C130.78,302.81,130.94,303.61,130.93,304.24Z"/><path class="cls-4" d="M120.25,306.7c-.24-1.13-.84-1.89-.86-3.25-.78-.17-.68.52-1.46.35.24,1.08,1.81,2,.87,3.25C119.54,307.19,119.71,306.77,120.25,306.7Z"/><path class="cls-4" d="M135.41,310.21c0-1.23-1.13-1.37-1.5-2.26.32-.38.47-.93,1.29-.84,0-1.13-.31-2.2.11-2.93-1.45-.89-3.24,1-2.73,1.84.12.06.8-.58,1.13-.18-.3.78-.51,1.63-1.27,2,.3,1.48,1.89.59,2,2.25-.44.1-1.29-.19-1.46.19a.9.9,0,0,1-.31,1.15c-.24-.41-1.59-.53-1.78,0-.29-.31-.25-.95-.67-1.13-.46.48-.87-.67-1.46-.14,0-.32,0-.65,0-1-1.32.27-.82-1.36-2.28-.94.25,1.16-.59,1.26-.78,2,.37,1,1.69,1,2.14,1.93.88-.27,1.21-1.07,1.92-1.51,1,.24.49,1.9.94,2.36h.9a1.44,1.44,0,0,1,1-.28c.14.09.28.18.41.28h1.49a8.86,8.86,0,0,0-.3-2.1A8.76,8.76,0,0,0,135.41,310.21Z"/><path class="cls-4" d="M115.19,304.82c0,.17,0,.33,0,.49.29,0,1.46-.23,1.61-.84C115.94,304.27,116.06,305,115.19,304.82Z"/><path class="cls-4" d="M121.05,306a20.25,20.25,0,0,0,1.94-.85c.13-.46-.23-.42-.17-.82-.49.18-.5.8-1,1,0-.37-.63-1-1-.48C121.24,305,121,305.7,121.05,306Z"/><path class="cls-4" d="M126.75,306.6c1.39,1.34,3.6-.47,1.91-2C128.29,305.53,127.06,305.62,126.75,306.6Z"/><path class="cls-4" d="M111.47,305.54c-.69.08-1.12.41-1.78.52-.18,1,.5,1.91,1,1.61-.25-.46.77-1.06,1-1.65C111.62,305.82,111.43,305.8,111.47,305.54Z"/><path class="cls-4" d="M117.16,306.43c.43,0,1,.07,1-.35C117.6,306.09,117.25,305.76,117.16,306.43Z"/><path class="cls-4" d="M109.56,308.18c0-.31-.19-.36-.17-.65-.73-.07-1.14.18-1.12.83C108.87,308.47,109,308.07,109.56,308.18Z"/><path class="cls-4" d="M130.5,307.52c.26.68-.91,0-.65.66.22.49.74.67,1.48.63C131.44,308,130.76,308,130.5,307.52Z"/><path class="cls-4" d="M111.85,309.12c-.15-.56-.89-.51-1.15-1,0,.13-.14.19-.33.17.19.87,0,.72-.3,1.31C110.89,310.25,110.87,308.88,111.85,309.12Z"/><path class="cls-4" d="M120.3,309.64c-.07.58-1.08.24-1.29.68.13.52.61.69,1.31.63C120.5,310.52,120.83,309.9,120.3,309.64Z"/><path class="cls-4" d="M110.22,313h.49s0-.06.06-.08a.27.27,0,0,1,.21.08h.1a.66.66,0,0,0-.32-.57A2.65,2.65,0,0,1,110.22,313Z"/><path class="cls-4" d="M91.22,13.68c-.73-.14-1.3-.3-1.47-.63h-.49A13.1,13.1,0,0,1,89,14.7,2.7,2.7,0,0,0,91.22,13.68Z"/><path class="cls-4" d="M81.28,21.67c2.63-1.41,4.71-3.34,7.07-5a99.37,99.37,0,0,1,10.34-3.43c-.59.18-1.89-.34-2,.36-1.56-.08-2.21.74-3.72.71a7.46,7.46,0,0,1-3.23,1C85.31,18.19,80,21.46,77.94,25.64,79.1,24.37,80.54,23.36,81.28,21.67Z"/><path class="cls-4" d="M80.26,28.55c.53-.34,1.09-.66,1.27-1.33-4.28.58-.17-5.17,1.12-1.16a30.64,30.64,0,0,0,5.78-4.34,2.17,2.17,0,0,1-1-2.76A4,4,0,0,0,85,20.47c5,.52-2.8,7.27-2.89,2.17a24.06,24.06,0,0,0-4.31,4.8A2.65,2.65,0,0,1,80.26,28.55Z"/><path d="M139.79,239a.78.78,0,0,1-.17-.49c-1.38-.33-2,.61-1.43,1.67.71-.1.81.2,1.29,0C139.54,239.69,140,239.65,139.79,239Z"/><path d="M131.57,313h1.36l-.41-.27A1.49,1.49,0,0,0,131.57,313Z"/><path class="cls-4" d="M58.44,35.1c.58.07,2.88.32,4.05-.55C61.59,32.59,59.1,34.32,58.44,35.1Z"/><path d="M101.39,50.57c1.06-.84,1.21-2.58,1.89-3.79-.15-.17-.6,0-.49-.48-.86,0-.85,1.09-1.62.68-.11-1.18.68-.76,1.29-1,1.73-2.58-2.08-3.74-4.6-3.35a18,18,0,0,1-2.25,1.5c-1.61.93-3.56.59-3.86,2.18,1.3.59,1.68,2.13,2.17,3.56.68.13.63-.45,1-.67-.22-.66-.78-1-.84-1.78,1.67,1.41,5.45.91,7.49,1C101.72,49.31,100.54,50.08,101.39,50.57ZM96.3,47.22c-.56,0-1-.12-1-.8C95.8,46,96.47,46.46,96.3,47.22Zm1.29-1a2.49,2.49,0,0,0,2.92.44C100.14,48,97.66,47.81,97.59,46.22Zm1.44-1c.24.14.63.12.5.64C99,46.25,98.69,45.66,99,45.22Zm-1.15-1.13c.37-1.2,3.41-1,3.9.6C100.34,44.48,99.48,43.72,97.88,44.09Z"/><path class="cls-4" d="M149.67,75.09c-3.46-.39-5.06,2-6.94,2.23a8,8,0,0,1,7.08-3.54c-1.71-2.52-7.78-3.06-9.25.31.26.62,1.22.51,1.48,1.12-1.4,1.4-4.16,2.09-3.15,5.6a4.47,4.47,0,0,0,3.23-.71c.22.84,1.9.55,2.12.46.5,2.26,2.68-.17,3.71-1.37.86.17.77,1.32,1.65,1.45,2.06-.77,2.59-4.92,5.31-2.7A7.81,7.81,0,0,0,149.67,75.09Z"/><path class="cls-4" d="M164.05,80.57c.51-.25.43-1.08,1.12-1.16a12.26,12.26,0,0,0,5.91,4.15,7.39,7.39,0,0,0-2.42-8.94c-.09-.79-.12-.61.14-1.14-1-.76-3,.18-3.59-1.25-1.55-.07-2.87.76-2.56,2l1.62,0a7.54,7.54,0,0,1,4.59,3c.43.65,1.21,2,.37,2.77-1.49-1.77-3.13-4.62-5.76-4.81a5.1,5.1,0,0,0-4.35,2C161.81,77.26,161.65,80.24,164.05,80.57Z"/><path class="cls-4" d="M116.7,84c1.26,1.66,3.08,3,4.62,4.82a34.53,34.53,0,0,1,4,5.65c1.91,3.4,4.2,7.37,3.77,12-.13,0-.32,0-.32.17l-2,0c-1-.32-2.5-.29-3.91-.59-.76,0-1.23,0-1.94,0a12.88,12.88,0,0,0-4.55.07,8.07,8.07,0,0,0-1.94,0c-1.68.6-3.17.48-4.86.9-1,.24-1.82,1.22-2.74,1.34-2.39.32-3.81-1-6-1.2a52.07,52.07,0,0,0-7.47-.21c-2.43.1-5.59,1.64-7.13,1.09-3.14-6.31-9.36-13.68-15.7-17.53-1.82-1.11-3.49-3-5.74-3.34,0,.47-.89.1-.8.67a47.47,47.47,0,0,1,20.94,20.22c.46.86.55,1.86,1.5,2.43,1.21-.22,2-.83,3.23-1a4.14,4.14,0,0,1,2.1-.53c.57-.3,1.8,0,1.94-.68,5.24.43,9.92.65,14,2.06,4.65-3.67,16.17-2.53,23-1.84C129.45,96.81,124.49,88.91,116.7,84Z"/><path class="cls-4" d="M91.77,109a4.17,4.17,0,0,0-2.1.52A9.93,9.93,0,0,0,91.77,109Z"/><path class="cls-4" d="M80.36,86c-1.63,2.21-3.75,4-5.09,6.45,1,.81,1.65,1.94,3,2.4,1.44-2.72,2.91-5.41,4.25-8.23C81.59,86.27,81.6,86,80.36,86Zm-2,7.22-1.79,0c-.44-1.08.8-2.79,2.09-1.66C78.82,92.37,78.46,92.67,78.37,93.22Z"/><path class="cls-5" d="M57.4,91.6c-1.11-.16-1.93,1.06-3.23,1a26,26,0,0,1-.34,19.76,34.45,34.45,0,0,1-5.23,7.92c-.53.6-1.35,1.06-1.76,1.49-.1.11-.11.62-.15.66-.62.53-1.46.71-1.93,1.17-.49.81-3.39,1.91-4.83,2.85.72.94,1.85.35,2.77.45,7,.79,13.68,3.55,19.09,6,1.94.9,3.79,2.15,5.89,2.53.42-5-.4-10.28-.25-15.51.18-6.16-2.37-11.06-3.34-16.1-.93-1.64-1.61-4.06-2.87-6.65C60.44,95.65,58.8,91.8,57.4,91.6Z"/><path class="cls-4" d="M33.33,119.24c.73-1.32.07-3.76,1.88-3.61s.82,2.61.56,4.07c1.52.87,3.18-.43,4.2-1-.13-.71.26-.92.14-1.64a2.43,2.43,0,0,1-1-2.91c2.34-1.7,2.16,2.18,3.77,2.22.73,0,2.83-2.12,2.38-3.47-.91-1.16-2.86-.54-2.64-3.06.34-.2.63-.46,1-.67,1.92.33,1.81,1.48,3.27,1.42.72,0,2.88-3,2-4.44-1.18-2-4.42,1.29-6.12,0a1.55,1.55,0,0,1-.39-1.17c.49-2.16,4.37-1.54,4.81-4a4.24,4.24,0,0,0-.86-3.25H45.16c-1,1.42-2.51,3.27-3.5,4.47s.41,2.86,1,4.39a.61.61,0,0,0-.64.66A8.89,8.89,0,0,1,36,114.8c-1,0-1.54-.51-2.76-.28-1.07,1.9-2.19,3.76-3.16,5.76A2.8,2.8,0,0,0,33.33,119.24Z"/><path class="cls-4" d="M87.83,106.62c2.29-.38,4.61-.83,6.32-.93,1.11-4.53,1.16-10.12,1.21-15.68-1-.16-2.36-.9-3.08-.28C91.08,95.63,89,100.69,87.83,106.62Zm3.72-1.21c-.63.16-.42-.56-1.14-.31a2.91,2.91,0,0,1,.13-2.29C92.62,102.23,92.75,104.86,91.55,105.41Z"/><path class="cls-4" d="M35.66,112.84c.24,1,.94-.07,1.46.31-.07-.28.24-.43,0-.49C37,113.24,36.34,112.62,35.66,112.84Z"/><path class="cls-4" d="M141,128.28c.28-.64.16-1.45.45-2.13.18-.42.65-.56.8-1,.57-1.73.49-3.88.87-5.89h-.48c-1.27,1.76-1.67,4.37-2.5,6.57-1.65-1-1.79-3.67-4.28-3.85-.29,3.55,2.38,5.13,1.91,7.8-1.66-.44-4.46-1.36-5.85-.55.21,2.49,2.85,2.46,3.64,4.35-1.54,1.34-3.79,1.23-4.5,3.17,1.54,1.34,4.46.31,6.19,1.2-1.09,2.35-2.16,4.08-2.49,6.9,3.54,0,2.85-3,3-5.92a24.2,24.2,0,0,1,1.65-8.19C139.74,129.89,140.54,129.21,141,128.28Z"/><path class="cls-4" d="M24.3,133.27c1.46,1.29,1.46,1,3.25.27A20.09,20.09,0,0,1,30,132.36a4.44,4.44,0,0,1,1.46-.19c1.23.26,2.37,2.2,3.45,2.23,1.34,0,4.52-2.9,6.13-2.38,1.3.88,2,2.63,3.45,2.88,1.71.3,2.89-1.9,5-2,1.39.88,2,2.59,3.62,3.2,1.18,0,2.47-1.09,3.73-.71.86.26,1,1.85,1.8,1.28-.83-.57-.87-2-2-2.25a9.54,9.54,0,0,1-4.2,1c-.81-1.1-1.76-2-2.49-3.22-2.72.29-3.18,1.81-6,2.05-.64-1.16-1.88-1.69-2.48-2.9-3.12.07-3.91,2.41-7.1,2.4a14.79,14.79,0,0,0-3-2.72c-2.2.94-3.28,2.06-5.47,2.86-.94-.57-1.49-1.55-2.63-1.92C23,132.85,23.78,132.81,24.3,133.27Z"/><path class="cls-4" d="M56,137a13.13,13.13,0,0,1-4.53.72c1.1,1.55,2.57.08,4.38-.07,1.44.45,1.38,3.32,3.13,2.89C57.39,139.74,57.44,137.63,56,137Z"/><path class="cls-4" d="M131.56,140.51c1.25.94,1.48.39,2.45.78a3.76,3.76,0,0,0,1.26-2.47A3.12,3.12,0,0,0,131.56,140.51Z"/><path class="cls-5" d="M43.29,164c2.34,3.32,6.21,5.06,10.81,6-.29-2.22-2.56-4-1.88-6.17,2,.81,3.34,2.39,5.41,3.18-.07-2.42-1.81-4-1.24-6.51,2.06.34,2.57,2.31,4.75,2.53,0-2-2-4.14-.91-5.69,1.23.1,1.54,1.16,2.62,1.42-2.88-5.46-6-10.73-8.54-16.51-8.18-1.75-17.82-1.81-27.46-1.51,1.9,5.23,4.77,9.41,7.69,13.58C37.05,157.92,39.74,161.5,43.29,164Z"/><path class="cls-4" d="M31.43,153.06a1.68,1.68,0,0,0-.5-1c-.12.62-.57,0-.81.34a2.47,2.47,0,0,1,0-1.63c-.61.1-.5.91-1.45.68-.21-1.14.7-1.76,0-2.12-.39.53-.27,1.55-1.27,1.48a6.9,6.9,0,0,1,.13-1.63c-.89-.28-.31.88-1.12.67-.82-.79.34-1.88.28-2.94-1.27.39-.41,1.86-1.92,2-.19-1.15.74-2.06.28-2.94-.49.7-.7,1.67-1.6,2-.14-1.48.94-2.61.6-3.76-1,.67-.88,2.35-2.4,2.49-.23-1.07.93-2.37.12-2.95-.4.64-.37,1.68-1.11,2-.89-.48.62-2.14-.37-2.93-.09.93-.72,1.33-1.1,2,0-.19-.18-.09-.32,0a4.65,4.65,0,0,1-.2-1.79c-.46-.13-.41.23-.81.17.24,2.8,2.95,3,4,5A95.45,95.45,0,0,0,33.09,155c.08-1-.69-1.17-.69-2.12A1.46,1.46,0,0,0,31.43,153.06Z"/><path class="cls-5" d="M161.54,157.17c-2.78-.16-4.13-1.8-6.69-2.18-.07,2.53,2.17,3.54,2.05,6.49-2.36-.77-3.68-2.86-6.22-3.49.66,1.76,2.13,4.08,1.88,6.5-1.93.09-2.95-2.1-4.91-2.53,0,2.11,1.87,3.89.91,5.87-1.26-.2-1.74-1.18-2.79-1.59,3.13,5.54,5.83,11.42,9.53,17.14a124.36,124.36,0,0,0,27.14,1.36,73.86,73.86,0,0,0-8.85-15.36A79.52,79.52,0,0,0,161.54,157.17Z"/><path class="cls-4" d="M71.36,173c6.67,3.17,10.27,9.77,10.21,19.09,3.33-2.85,3-7,1.27-11.77A19,19,0,0,0,75.39,171a7.57,7.57,0,0,0-4.09-1.4A9.57,9.57,0,0,0,71.36,173Z"/><path class="cls-4" d="M149.84,176.78c.6.59.61,1.5.85,2.76.56-.24.77.17,1.14-.18-1.58-3-2.73-7.9-5.84-9.86-1,.44-2.57,1.06-2.73,1.84,0-.09-.14-.19-.17,0,.89.19-.27,2.49.86,2.43.56-.73.18-2.39.92-3,.8.56-.13,2.9.87,3.25.75-.56-.09-2.66,1.26-2.63.28,1.64-.49,4.37.57,5.21.7-.54-.06-2.51.6-3.1,1.15.84,0,4,1.37,4.7C149.6,177.73,149.3,176.85,149.84,176.78Z"/><path class="cls-4" d="M179.34,173.69c.18.52-.61,1.39.18,1.47.47-.14.09-1.1.8-1,.51.74-.48,1.79.36,2.28.5-.32.38-1.24,1.28-1.17.6,1-.89,2.31,0,2.78.69.13.68-1.8,1.59-2,.24.14.52.24.5.65-.27,1.24-.93,2.1-.92,3.6,1-.63,1.31-1.94,2.06-2.8.31,0,.55.09.65.31.11,1.34-1.33,2.69-.59,3.6.75-.83,1-2.14,2.07-2.64.5,1.1-.41,1.74-.44,3.11,1.25-.24,1-2,2.08-2.32.36,1-.35,2.31-.27,3.59,1.09-.33.82-2,1.91-2.31,0,.21.29.14.33.32a4.14,4.14,0,0,0-.14,1.63c.71,0,.78-.63,1-1.16a50.29,50.29,0,0,0-15.6-11c.47,1.22,1.61,1.55,1.66,2.58C178.56,173.18,179.15,173.22,179.34,173.69Z"/><path class="cls-4" d="M186.36,186.15c-2.38.09-3.75,0-5.19.41-4.83-.7-9-.12-13.32-.44-7.34-.54-14.37-1.59-21-4.88-1.19-1-2.55-1.85-3.79-2.88s-2.39-2.2-3.46-3c1.56,3.31,5.27,5.44,9,7.2a41.28,41.28,0,0,0,12.24,3.71c2.75.35,5.21.68,7.15.87,4.77.45,8.84.3,13.65.43,3.93.11,8.34.18,9.71-2.12-1.28.39-2.12.21-3.41.55C187.52,186,186.7,185.74,186.36,186.15Z"/><path class="cls-4" d="M183.8,188.64c-.65.33-1.27.28-1.78.52-1.07.49-2.05,1.81-3.22,2s-.84-.32-1.63-.95c-.42-.33-1.17-.4-1.48-.63-.15-.12-.19-.54-.33-.65-1.92-1.42-3.8,1.42-6,1.73-1.13-.88-2.23-1.78-3.45-2.56-.54-.43-1.64-.16-1.62,0-1.78.19-3.33,1.94-4.69,1.38-.35-.14-.8-1-1.16-1.29s-1.12-.56-1.15-1.28c-1.5-.22-2.58.33-3.89.71-1.89-.65-1.91-4-4.43-3l-1.78,0c-.22,0-.31-.23-.65-.15-1-2.53-3.6-5.09-6.72-3.81-.12.57.26.62.19,1.14,1.7.28,2.66-1,3.72-.56,1.48.61,1.2,3.48,2.83,4.37,1.49,0,2.73-.73,3.89-.55a22.89,22.89,0,0,0,2.33,3.55c1.69,0,2.35-1,4.2-.89,1.16,1,1.86,2.38,3.3,3.06,1.8-.4,3.13-2.11,4.84-1.88s2.48,2.58,4.27,3c1.78-.43,3.62-2.62,5.48-2.37,1.51.2,2.26,2.63,3.78,2.55.48,0,.62-.46,1-.67a17.61,17.61,0,0,1,4.19-1.86c1.38.61,2,2,3.61,2.39C187.35,190.3,184.56,190.16,183.8,188.64Z"/><path class="cls-4" d="M183.43,195.83c-.6,0-2.46-.27-3.41.22l-7,.11c-.55-.39-1.33,0-1.95-.14-.43-.41-1.5-.08-1.78.2-.82-.71-2.08-.17-3.25-.28-4.29-.48-7.3-1.42-11.73-2.42a3.47,3.47,0,0,0-2.29-.94c-4-2-7.47-4-11.13-6,.41,1.23,1.51,1.5,2.63,2.24.42.27.78.76,1.16,1,.67.35,1.6.29,2.28.62,1,.48,1.43,1.22,2.46,1.75a39.51,39.51,0,0,0,7.51,2.49c2.73.7,5.52,1.65,7.82,2a74.63,74.63,0,0,0,17.86,0c.93-.1,1.65-.11,2.26-.85C184.7,195.48,183.63,195.64,183.43,195.83Z"/><path class="cls-4" d="M174.56,209.85c-1.78-.45-1.25-2.52-.72-3.91-1.37-1-4.93-.35-4.67,2,.13,1.19,1.6,1.15,1.34,2.92-.29.57-.93.8-1.94.69-.75-.83-.77-2.41-2.15-2.58-1,.83-2.77,1.69-2.55,3.14s3.21,1.22,3,3.05c-.1.77-.45,1.16-1.78,1-.95-.1-1.67-1.84-3.26-1.25-.82,1.27-2.35,3.3-.9,4.91,1.83.63,3.74-1.29,5.35-.58.52.24.55,1,.52,1.79-1.88,1.61-5.8,1.62-4.63,5.3a2.62,2.62,0,0,0,1.65,1.6,25.15,25.15,0,0,0,4.62-5.62c-2.79-4,.85-11.59,5-10.69-.8,1.05-3.08,1.5-3,2.82.94-1.35,3.34-2,4.67-2-.29-.84-1.42.14-1.47-.79.11-1.2,1.66-.42,2.59-.54.94-2,2.35-3.59,3-5.92C175.09,204.27,176.62,208.81,174.56,209.85Z"/><path class="cls-5" d="M148.78,231.56a.19.19,0,0,1,0-.08c-1.79-4.18-3.86-8.57-5.4-13.13-.65-1.91-.71-4.09-2-5.68a46.83,46.83,0,0,0,1.27,8.79C143.66,225.17,146.24,230.17,148.78,231.56Z"/><path class="cls-4" d="M92.91,241.2c-1-1.34-2.42-2.12-3.46-3.21-.39-.4-.62-.88-1-1.29-4.22-4.56-8.22-10.35-8.73-18.14,3-.51,6.27.41,9.59.5a34.37,34.37,0,0,0,7-.77c.76-.11,1.57.12,2.28,0,1.33-.29,2.72-1.47,4-1.54s2.93.66,4.4.91a35.68,35.68,0,0,0,15.41-.74,23.29,23.29,0,0,1,2.5,3.72c3.89,6.11,10.62,12.29,16.82,16.21,1,.66,2.88,1.92,3.9.27-9.9-4-17.64-12.83-22.93-22.65a26.62,26.62,0,0,1-9.71,2.11l-2.27,0a43.19,43.19,0,0,1-9.29-2c-1.5,1.25-3.58,1.82-6.29,2.22-.29.1-1.58-.37-1.78.2-5.55.75-10.65-.5-15.27-.25C79.9,228.16,84.78,236.36,92.91,241.2Z"/><path class="cls-4" d="M170.13,217.1l0,2.28c1.28-.14,1.61-1.21,1.91-2.31a6.77,6.77,0,0,0,2.06-3.3C171.52,213.78,171.15,216.43,170.13,217.1Z"/><path class="cls-4" d="M169.14,216.14c-.79,1.4-1.08,4.12.24,5.21.47-.7-.48-1.76-.53-2.92S169.57,216.47,169.14,216.14Z"/><path class="cls-4" d="M58.45,248.94c.55.12,1,.59,1.47.63,2.85.24,5.13-1.47,6.94-2.73,0,.23.27.27.33.48A9.69,9.69,0,0,1,59.78,251c2.18,2.36,8.48,2.68,9.09-.48-.52-.24-1.12-.4-1.32-1,1.08-1.49,4.15-2.68,2.67-5.59-.81,0-3.18.05-4.87.08-1.44-2-2.76.94-4,1.53-.67-.13-.46-1.18-1.16-1.28-2.13.23-1.77,1.91-3,3a3.48,3.48,0,0,1-2.45-.61C55.17,248.14,56.91,248.58,58.45,248.94Z"/><path class="cls-4" d="M136.51,287.5c-1.17.16-1.59,1-1.92,2,1.1-.2,1.39.43,2,.78.81-.23.82-1.23.94-2.14A.77.77,0,0,1,136.51,287.5Z"/><path class="cls-4" d="M151,290.21c-.23-.37.41-.62,0-.65-1.45.38-2.56,1.34-4.05.88C148.15,292.2,149.3,290.21,151,290.21Z"/><path class="cls-4" d="M130.19,298.87a7.56,7.56,0,0,0,1.44-1.82c-1.71.5-1.43-1.06-2.46-1.27-1.29,1.8-3.29,2.91-4.63,4.65a2,2,0,0,0-1.77,1.33c1.46-.59,3.45-3,4.69-1.38s-2.4,3-3.35,3.65c-.5.13-.21-.56-.82-.32a2.2,2.2,0,0,0,.34,1.14c2.46-1.14,4.1-3.08,5.77-5-.31-.28-1.07-.1-1.62-.14C126.63,297.51,130.32,296.18,130.19,298.87Z"/><path class="cls-4" d="M113.3,308.61c.35.31,1.08.11,1.46,0,.06-1.68-1.2-1.85-.86-3.42-.75-.09-1.25.08-1.46.51.19,0,.19.26.17.49.88,0,.87,0,1.31.47C114,307.56,114,308.46,113.3,308.61Z"/><path d="M73.41,87.75a4,4,0,0,0,.19,1.62c1.42.39,2-.79,1.43-1.81A1.56,1.56,0,0,0,73.41,87.75Z"/><path d="M81.8,94.79l-1,0a1.62,1.62,0,0,0-.13,2C82.18,97.22,82.48,95.45,81.8,94.79Z"/><path d="M85,99.31a2.45,2.45,0,0,0-.12,2.62C87.69,102.71,87.36,98.73,85,99.31Z"/><path d="M121.73,104.27c1,.21,2-1.34,1.1-2.47C120.75,100.86,120.19,104,121.73,104.27Z"/><path d="M107.76,103.52c-.51.08-.44-.44-.82-.48a1.72,1.72,0,0,0-1.09,2.79C107.45,106,107.91,105.06,107.76,103.52Z"/><path class="cls-3" d="M166.61,118.56A93.74,93.74,0,0,1,156,144.85c-.69,1.18-2.67,4.11-2.51,5.1s.6.78,1.32,1.12c1.62.79,3.33,3,5.08,2.86a104.41,104.41,0,0,0,8.69-14.51,147.78,147.78,0,0,0,7.54-15.79c1-2.48,1.47-4.84,2.48-7.87.43-1.32,3.38-6.92,2.3-8.36s-3-2.43-4.61-3.68-3-2.89-4.76-3.51c-1.16,2.48-.72,4.16-1.35,7C169.39,110.77,167.54,114.51,166.61,118.56Z"/><path class="cls-3" d="M89.33,210.57c-.08-4.88,0-9.51-1.34-12.71-1,.29-1.38,1.21-1.75,2.14,2.86,2.73,1.93,9.4,2.51,14.49C89.82,213.66,89.35,211.91,89.33,210.57Z"/><path d="M118.58,222.17a3.65,3.65,0,0,0,.29-2,1.56,1.56,0,0,0-2.1.36,2.26,2.26,0,0,0,.35,1.63Z"/><path d="M94.05,221.26c-.07,1.58.32,2.1,1.65,1.94C97.23,222,95.39,219.46,94.05,221.26Z"/><path d="M101.65,219.51a2.28,2.28,0,0,0,.2,2.61C104.07,222.28,104.05,218.53,101.65,219.51Z"/><path d="M110.46,222.3c1.39-.5,1.07-2.7-.2-2.6S108.91,222.05,110.46,222.3Z"/><path d="M86.41,220.9a2.09,2.09,0,0,0-.28,2.45,1.44,1.44,0,0,0,1.42-2.47Z"/><path d="M127.8,230.51c.89-.31,1.54-2.24-.2-2.12,0,.13-.13.2-.31.17A1.5,1.5,0,0,0,127.8,230.51Z"/><path d="M132.24,233.71c1.16-.89-.11-2.73-1.33-1.61a2.19,2.19,0,0,0,0,1.63Z"/><path d="M134.71,235.79a1.37,1.37,0,0,0-.46,1.8l1.46,0C136.2,236.77,136.07,235.54,134.71,235.79Z"/><path d="M76.58,93.24l1.79,0c.09-.55.45-.85.3-1.64C77.38,90.45,76.14,92.16,76.58,93.24Z"/><path d="M113.13,104.41l1.3,0c2-2.45-2.73-3.75-1.63-.3C113,104.1,113.18,104.13,113.13,104.41Z"/><path d="M90.54,102.81a2.92,2.92,0,0,0-.13,2.29c.72-.25.51.47,1.14.31C92.75,104.86,92.62,102.23,90.54,102.81Z"/><path d="M98.2,105.3c0-.23.82.14,1.31,0a2.42,2.42,0,0,0,.13-2C98.24,102.05,96.91,104.39,98.2,105.3Z"/><path d="M124.32,225.67a2.63,2.63,0,0,0,.13-2.12C122.44,221.6,121.13,226.5,124.32,225.67Z"/><path class="cls-4" d="M66.17,30.73c-1.47,0-1.37,1-2.76.37a3.33,3.33,0,0,0,0,1.63c.56.25,1.55-.27,2.11,0,0,.22,0,.44,0,.65.45.38.93-.3,1.31.15.1,1.06-1.1.86-1,2,1.17-.47,1.69-1.58,1.74-3.13C66.44,32.55,66.09,31.86,66.17,30.73Z"/><path class="cls-4" d="M32.62,126c.35.37,1.21.14,2,.13,4.19-.26,6.28-1.84,9.37-2.93,7.48-5.79,14.92-19.1,8.61-29.84-.55,0-1.16-.07-1.29.35,4.53,8.6.25,20.69-5.11,25.54-.1,0-.19,0-.16.17a3.07,3.07,0,0,0-1,.83c-3.47,3.73-11.36,6.56-16.84,2.88C27.46,125.13,30.52,125.77,32.62,126Z"/><path d="M198,13V312.91H10V13H198m2-2H8V314.91H200V11Z"/><path class="cls-3" d="M22,45.84s3.67,8.07,9.1,10.11A23.7,23.7,0,0,0,22,65.84s-1.63-5.81-8.9-10A17.25,17.25,0,0,0,22,45.84Z"/><path class="cls-3" d="M185.9,46s3.67,8.08,9.1,10.12A23.63,23.63,0,0,0,185.9,66s-1.63-5.81-8.9-10A17.17,17.17,0,0,0,185.9,46Z"/><path class="cls-3" d="M21.9,260.09s3.67,8.07,9.1,10.11a23.62,23.62,0,0,0-9.1,9.89s-1.63-5.82-8.9-10A17.18,17.18,0,0,0,21.9,260.09Z"/><path class="cls-3" d="M185.9,259.85s3.67,8.08,9.1,10.11a23.7,23.7,0,0,0-9.1,9.89s-1.63-5.81-8.9-10A17.21,17.21,0,0,0,185.9,259.85Z"/><path class="cls-3" d="M22,16.05H15.73v2.62h1.81v16.4H15.73v2.62h6.6c.08,0,7.83-.12,7.83-10.82C30.16,17.45,25.05,16.05,22,16.05Zm.33,19H20.15V18.67H22c1.37,0,5.55,0,5.55,8.2S22.38,35.07,22.33,35.07Z"/><path class="cls-3" d="M185.06,16.05h-6.27v2.62h1.81v16.4h-1.81v2.62h6.59c.08,0,7.83-.12,7.83-10.82C193.21,17.45,188.1,16.05,185.06,16.05Zm.32,19h-2.17V18.67h1.85c1.37,0,5.54,0,5.54,8.2S185.43,35.07,185.38,35.07Z"/><path class="cls-3" d="M22.94,310h6.27v-2.62H27.4V291h1.81v-2.63H22.62c-.08,0-7.83.13-7.83,10.83C14.79,308.57,19.9,310,22.94,310Zm-.32-19h2.17v16.4H22.94c-1.37,0-5.54,0-5.54-8.2S22.56,291,22.62,291Z"/><path class="cls-3" d="M186.94,310.05h6.27v-2.63H191.4V291h1.81V288.4h-6.59c-.08,0-7.83.12-7.83,10.82C178.79,308.64,183.9,310.05,186.94,310.05Zm-.32-19h2.17v16.4h-1.85c-1.37,0-5.54,0-5.54-8.2S186.56,291,186.62,291Z"/></g></g></svg>