<svg xmlns="http://www.w3.org/2000/svg" viewBox="0 0 208 326"><defs><style>.cls-1{fill:#fff;}.cls-2{fill:#6f7072;}.cls-3{fill:#f8261b;}.cls-4{fill:#facb1b;}.cls-5{fill:#001400;}.cls-6{fill:#1d1d1b;}</style></defs><title>QD-us-2c</title><g id="Calque_2" data-name="Calque 2"><g id="FR_-_EN" data-name="FR - EN"><path class="cls-1" d="M14.83,325A13.84,13.84,0,0,1,1,311.18V14.82A13.84,13.84,0,0,1,14.83,1H193.17A13.84,13.84,0,0,1,207,14.82V311.18A13.84,13.84,0,0,1,193.17,325Z"/><path class="cls-2" d="M193.17,2A12.84,12.84,0,0,1,206,14.82V311.18A12.84,12.84,0,0,1,193.17,324H14.83A12.84,12.84,0,0,1,2,311.18V14.82A12.84,12.84,0,0,1,14.83,2H193.17m0-2H14.83A14.83,14.83,0,0,0,0,14.82V311.18A14.82,14.82,0,0,0,14.83,326H193.17A14.83,14.83,0,0,0,208,311.18V14.82A14.83,14.83,0,0,0,193.17,0Z"/><path class="cls-3" d="M178.09,264a64.16,64.16,0,0,1,8.76,12.74A63.7,63.7,0,0,1,195.6,264a63.7,63.7,0,0,1-8.75-12.74,65.55,65.55,0,0,1-8.06,11.95"/><path class="cls-3" d="M12.65,264a64.16,64.16,0,0,1,8.76,12.74A63.33,63.33,0,0,1,30.17,264a63.33,63.33,0,0,1-8.76-12.74,65.55,65.55,0,0,1-8.06,11.95"/><path class="cls-3" d="M178.09,62.3a64.23,64.23,0,0,1,8.76,12.75A63.49,63.49,0,0,1,195.6,62.3a63.42,63.42,0,0,1-8.75-12.74,66,66,0,0,1-8.06,12"/><path class="cls-3" d="M12.65,62.3a64.23,64.23,0,0,1,8.76,12.75A63.12,63.12,0,0,1,30.17,62.3a63.05,63.05,0,0,1-8.76-12.74,66,66,0,0,1-8.06,12"/><path class="cls-3" d="M14.35,28.81l-1.32,0H11.82l0,3.62h2.49c-.37,4.19,0,7.87,4,10a6.93,6.93,0,0,0,7.63-1C28.27,43.25,28.1,43.12,31,43V39.43c-1.11-.09-2.34.46-3.1-.63l-.14.28.19-.42.28-.87.18-.9.05-.48V14.85l-.05-.47-.18-.91L28,12.61a7.17,7.17,0,0,0-4.7-4.21,7.1,7.1,0,0,0-8.9,6.45M17.7,32.92c1.39.52,5.06,4.78,5.92,6.07a3.72,3.72,0,0,1-5.92-2.87Zm7.42,3c-2.73-2.49-3.85-5.55-7.42-6.64V15.15l0-.44.19-.72.13-.33.29-.48a3.68,3.68,0,0,1,2.5-1.58,3.72,3.72,0,0,1,4.27,3.55Z"/><path class="cls-3" d="M179.79,28.81l-1.32,0h-1.22l.05,3.62h2.49c-.37,4.19,0,7.87,4,10a6.93,6.93,0,0,0,7.63-1c2.34,1.82,2.17,1.69,5.07,1.53V39.43c-1.11-.09-2.35.46-3.1-.63l-.15.28.2-.42.28-.87.18-.9.05-.48V14.85l-.05-.47-.18-.91-.28-.86a7.2,7.2,0,0,0-4.7-4.21,7.1,7.1,0,0,0-8.9,6.45m3.35,18.07c1.39.52,5.06,4.78,5.91,6.07a3.72,3.72,0,0,1-5.91-2.87Zm7.42,3c-2.73-2.49-3.86-5.55-7.42-6.64V15.15l0-.44.2-.72.13-.33.29-.48a3.68,3.68,0,0,1,2.49-1.58,3.73,3.73,0,0,1,4.28,3.55Z"/><path class="cls-3" d="M193.9,295.71l1.32.05h1.22l0-3.63h-2.5c.38-4.19,0-7.86-3.94-10a7,7,0,0,0-7.64,1c-2.34-1.81-2.17-1.68-5.06-1.53v3.54c1.1.08,2.34-.47,3.09.62l.15-.28-.2.42-.27.87-.19.9-.05.48v21.56l.05.48.19.9.27.86a7.17,7.17,0,0,0,4.7,4.21,7.1,7.1,0,0,0,8.9-6.45m-3.34-18.07c-1.4-.52-5.07-4.77-5.92-6.07a3.73,3.73,0,0,1,5.92,2.87Zm-7.43-3c2.73,2.5,3.86,5.55,7.43,6.64v14.1l0,.43-.2.72-.13.33-.29.48a3.68,3.68,0,0,1-2.49,1.58,3.73,3.73,0,0,1-4.28-3.54Z"/><path class="cls-3" d="M28.46,295.71l1.32.05H31l0-3.63h-2.5c.38-4.19,0-7.86-3.94-10a7,7,0,0,0-7.63,1c-2.35-1.81-2.18-1.68-5.07-1.53v3.54c1.1.08,2.34-.47,3.09.62l.15-.28-.2.42-.27.87-.18.9-.06.48v21.56l.06.48.18.9.27.86a7.17,7.17,0,0,0,4.71,4.21,7.09,7.09,0,0,0,8.89-6.45M25.12,291.6c-1.4-.52-5.06-4.77-5.92-6.07a3.73,3.73,0,0,1,5.92,2.87Zm-7.42-3c2.72,2.5,3.85,5.55,7.42,6.64v14.1l0,.43-.2.72-.13.33-.28.48a3.71,3.71,0,0,1-6.77-2Z"/><path class="cls-4" d="M132.77,217.91l-.19.05-2.19,2.09-.09.15v.18l1.54,3.55c2,8.8-.7,20-5.9,27.32-4.79,7.44-10.92,14.89-14.3,23.09l1.08,5.4.08.09.3.15.18,0,.16-.1,2.43-5.59c8.43-14.12,25.52-29.46,20.83-48.25l-1.55-4.74-2.06-3.21L133,218M56,214.27l-.94.56-1.5.73Zm43.05-2.48,1,.06,2.43.43ZM35,187.59l-.18,0-.13.14-.06.18v4.12l.06.18,16.26,18.63.06.16,1.21,1.39.09.07.13,0,.22,0,2.07-1,.27-.31L55,211l-.06-.18L35.26,187.72l-.09-.08ZM91.53,175.2l-.94,0-6.4.32-.12.07-.1.16L83.84,179l0,.15.12.16.17.08,8.35-.1,8.62.5,1.74.21,9.13,1.42,8.51,2.23,10.57,3.77.12,0,.44-.07.16-.11.77-1.67.52-.8v-.25l-.12-.16c-10-4.83-19.9-7.22-30.91-8.52ZM77,138.51l-.18,0-.13.13L75.22,141v.18l.08.19,2.37,1.57,4.46,1.88c13.14,4.4,27.2,6.57,41,5.05l.77-.14.19-.08.1-.17.16-2.64,0-.15-.11-.16-.17-.08c-16,1.41-32.12-1.76-46.95-7.89ZM54.58,128.16l-.22.05-1.93,1.86-.11.14v.26l.11.14,2.14,2.1,5.85,5.1-.23.05-4,3.56-.1.16,0,.33-.45-.89-.14-.11-1-.39-1.22,0v-1.07l-.09-.2-1-1-.14-.08-.75,0-.17,0-1,.51-.14.14-.67,1.1,0,.2v1.25l-.12-2.08-.09-.15-.62-.62-.14-.08-1.46-.13-.17.08-.89,1.18-.05.09v.19l.09.58-1.22-.12-.17.08-.86.73-.08.11,0,.12-.21,1.39,0,.25,1.23,1.37.16.09.73,0-.52.16-.15.07-.82.7-.11.16-.34.94.08,1.21.06.12.87.69.11.07,1.22.14v.65l.08.23.63.85.1.09.94.29h.17l1.14-.55.14-.15.58-2,.08,1.29,0,.14.49,1,.59.56,1.06.31.68-.18.17-.09.69-.7.09-.15.07-1.5,1.36-.11.14-.09.93-1,.08-.13.1-1.08v-.16l-.67-1-.17-.13L54,144.66l1.5-.77.11-.16.4-1.06v.22l.08.17.16.12.18,0,.18-.08,4.75-4,.11-.16v-.21l2.77,2.42c-6.3,5.06-13.85,16.4-16.16,24.33l-1.54,6-.69,5.61v3l.05.2,2.17,2.58.15.1.19,0,.4-.2.11-.16,0-.19-.1-.2v-5L49.8,171l2-6.1.77-1.64,2.11,3.13,1.27,3.16.55,3.28-.38,3.76-.69,2.24-1.84,3.46-2.2,2.42-.73.49-.07.12v.19l.17.48.08.13,1.29,1.38.09.06.12.06.18,0,.15-.1,3.57-4L58,180.05l1.12-4.35.1-3.83-.46-2.6-.9-2.83-1.77-3.1-1.9-2.17-.15-.1-.53,0,1.54-3.25,4.51-6.86,3-3.57.59-.59-.58.68-.06.11,0,.19.08.18.45.29,4.86.38.56.12.09.18L68,155.08v.15l.21.62.13.13,7.06,1.53.1.08-3.12,6.94,0,.21.08.19,5.19,3.85.29.54L74,173.53l-.34.64,0,.24.08.17,5.38,7,0,.06-7.87,3.64-.09.1-.14.44V186l2.51,7,0,.28-.66.14-2.45-.05L66,193.7l-.16.1-.3.59,0,.14L65,202.07l0,.2.66,1.24.15.11.87.09-1.82,1.44-4.68,3.1-7.89,4.65-5.38,2.54-.33.29-.08.14,0,.19.07.18,1.7,1.35.17.08h.8l-.12.07-.11.16v.25l.1.16,3.24,3,.65.2.26,0,1.89-.95-1.62,1-.13.14,0,.19,0,.18,4.22,4.49.09.07.18,0,1-.3.12-.07.12-.16.06-.56,0-.21-2.6-5.19-.09-.12-.15-.08,3.46-1.75,4-1.58,0,.07v.18l2.17,5.55,0,.09.15.11.48.06h.14l7-2.27.15-.14,0-.19-1.61-6-.1-.17,2.52-.71,6.4-1.13-.35.22-.12.14,0,.24.84,5.51,0,.13.21.36.08.1.17.08,6.35-.61.22-.11.21-.21.09-.2-.28-6.07-.11-.16,1.77-.15,7.18.36-.13.18-.62,6.25.08.17.16.12,6.54.94.67-.08.16-.12.08-.17.92-5.27,0-.6-.06-.17-.12-.15-.73-.19,5.11.93,4.52,1.39h-.44l-.2,0-.13.15-1.46,5.24v.84l.08.18.16.11,5.8,2.07.11,0,.19-.06.14-.13,2-5.82v-.13l0-.17-.13-.15-5.42-2,4.19,1.3,7.26,3.33,2.27,1.26.17,0h.48l.2-.09,2.65-2.6.1-.15V218l-.12-.16-9.53-4.53-.63-.83c-4.41-7.48-8.58-21.64-9.9-30.27l.07-.08.06-.2-.06-.17-.13-.15-.73-.21-1.57-.13-.22.05-.13.14,0,.18.88,5.25,1.63,6.64L114,201.3l2.45,5.43,1.71,3.38,0,.18-.51-.1h-.15l-.15.06-7-1.51-.8-.32-2.07-8-.95-6.61-.4-7.1.08-5.74-.08-.17-.16-.12-2-.24h-.17l-.15.12-.08.16a136.87,136.87,0,0,1-4.88,26l-.09,0-1.1.14-1.81-.19-.18-.09-3.87.28.12-.24v-.21l-.08-.18-.16-.12h-.25l-.15.12-.26.31,5.85-12.84,2.41-6.92,1.77-6.35v-.16l-.08-.19-.15-.11-2.59-.19-.21.05-.13.13-.61,2.71-2,5.08L91.05,196l-4,6.45-3.07,3.85-.56.48L61.51,212l-1.11-.07c25.85-13.53,31.85-47.77,11.17-68.59l0-.14,0-.18-.13-.15-.5-.17-.1-.48-.08-.14-.16-.12-.19,0-.11,0H70l-.43-.4-.11-.08h-.2v-.35l-.09-.15-3.45-3.21,0-.12-.08-.17-.15-.11h-.24l-2.9-2.49v-.1l-.08-.18-.17-.11h-.18l-7-6.17Zm100.87-14.89-.07,0-2.18,1-.08.11-.1.44,0,.18,18.5,21.78,1.44,1.42.21.09h.18l.16-.11.07-.19,0-4.07,0-.19-17.76-20v-.09l-.05-.2-.15-.13Zm3.62-5.23c-7.55,2.75-17.4,9.25-23.14,15.2a42.08,42.08,0,0,0-11.66,26.16A43.53,43.53,0,0,0,128.94,172l1,2,3,4.5,3.26,3.77,2.29,2.06.19,0,.3-.08,0,.17.09.55,0,.12.08.09,13.9,12.11.14.08.26,0,.2-.11,1.92-1.91.08-.15v-.18l-.08-.17-8.09-7.08.42,0,.22,0,3.3-3,.61-.73,0-.26.1.44.07.17.74.61.17.07,1.71,0-.06.86,0,.19.42.81.09.12,1.16.51.22,0,1-.4.13-.12.81-1.3,0-.15,0-1.1.1,1.77.09.21.87.71.1.06.12,0h1.07l.13,0,.69-.5.11-.12.27-1.29v-.14a1.75,1.75,0,0,0,2.26-.88l.09-.2v-1.5l-.09-.2-1.15-1.21-.08-.06-.21,0,.32-.07.21-.12.65-.71.06-.12.23-1.41v-.12l-.34-.88-.12-.16-.61-.45-1.13-.17-.23-1-.09-.17-.72-.72-1.06-.24h-.21l-.69.45-.12.14-.6,1.07,0,.12-.16.87,0-1.09,0-.14-.48-1.11-1.16-.82-.22-.07-.75,0-.11.07-.77.64-.38.73,0,.17v1l-.14-.05h-.78l-.17.07-1.11.86-.09.12-.05.18v1.47l.05.19.27.49.09.11,1.08.61.15,0,1,.07-.86.12-.13,0-1.25.73-.11.16-.34.95,0-.21-.07-.18-.16-.11h-.2l-.17.08-4.66,4-.11.16v.19l.07.16L144,184.77l-.09-.11,3.93-3.79,3.55-4.39,4.88-7.7,2.86-5.85,1.9-6.5.94-5.23.17-5.49-.05-.19L159.94,143l-.1-.08-.18,0-.28,0-.13.14-.05.19v5.14l-.75,5.92-1.92,6.19-.93,2.07a15.24,15.24,0,0,1-2.1-17.23l2.25-3.12,1.71-1.52.08-.09,0-.19,0-.18-1.47-1.78-.15-.11h-.26l-.15.09L152,142.29l-1.28,2.18-1.09,2.68-.77,3.85.08,3.44.51,2.58,1.21,3.3,1.81,2.78,1.45,1.54.09.07.12,0h.49l-.83,1.9-3,5.12-4,5.44-1.61,1.64.39-.5.05-.11,0-.13,0-.19-.13-.13-.43-.19-4.85-.34-.42-.13-.13-.28.47-6.09v-.15l-.23-.61-.13-.13-6.63-1.4-.45-.16,0-.21,2.64-5.47.43-1.35v-.18l-.07-.18-5.37-4.06.1-.51,2.18-2.32,1.94-2.15.07-.12,0-.2-.07-.16-5.4-7,1.33-.73,6.25-2.83.16-.12.34-.51V140l-2.58-7.28v-.07l.35-.18,6.12-.14,1.17-.17.18-.08.11-.16.48-6.73v-2l0-.18-.13-.15-.22,0-.66-.71-.19-.06-.47,0-.11.06-.11.16-.48,7.67-.1.18-5,0-1.25.1-.21.1-1.44,2.15-.08.57,0,.17,2.11,6-4.49,2-1.54.81-.08.11-.89,3.82v.14l.07.18,3.81,5,0,.25-4,4.13-.1.2.07,1.5c-1.89-13.29,3.75-27.07,13.87-35.59l5.31-4.1.1,0,.17-.06,1.87-1.46,4.95-2.9,7.29-3.54.11-.16v-.25l-.11-.16-1.79-1.1Zm-17.58-4.47h-.11l-3.91,1.32-3.23,1-.17.1-.14.2v.24l1.67,5.75.08.13.16.11-.93.28-4.65,1-3,.45.07-.08.05-.19-.93-6,0-.12-.13-.14-.57-.23h-.27l-.15.12-4,.44-.1,0-1.82.22-.16.12-.07.17.23,6.13.12.16.26.12-2.17.13-7.15-.18-.52-.07.48,0,.19-.1.12-.15.57-4.72-.09-1.4-.08-.23-.16-.11-3.3-.39-2.69-.38-.15-.09-.56,0-.13,0-.16.1-.28.53-1,5.54,0,.25.14.15,1.49.36-.68-.1-3.67-.73-.08-.06-2.7-.59L91.6,111,85,108.56l-6.14-3.13-.27,0-.2,0-3.18,3-.09.14v.19l.08.19.16.1.87.32,9.46,5.42,1.63,1.07.76,1.57,2.88,8,2.37,8.39,2.46,10.32.14.15,2.12.44.64,0,.15-.06.13-.13,0-.2-1.39-6.86-2.35-8.95-.44-1.59L92,118.6l-.91-2.27.12-.07.12-.16L97.19,118l2.21.42.22.08.59,4.86.05.15.16.18-.06.07-.06.17,1.2,10.18.07,1.93.23,8.31.11.73,0,.09.13.15,1.81.41h.2l.18-.14.38-.58c1.51-9.42,2.15-16.62,5.1-25.33H110l.17,0,.13-.12,2.91.29L118,120v.16l-2.9,4.52-3.61,7.53-2.22,6.3-1.89,6.82.11.56.08.15.16.12,1.28.1.21-.05.14-.13.68-2.46,1-2.85,3.18-7.34,4-7.19,3.24-4.7.84-1,.26-.16,12-2.39,6.29-1.59L145.3,115l.42-.28,8.89-5.31,3.35-1.5.08-.1,0-.19,0-.18-1.19-1.27-1.71-1.45-.17-.08-.24,0-7.5,3.82-3.11,1.18,0-.09v-.19l-2.34-5.58-.05-.1-.1-.09ZM90,103.09l-.2,0-.13.15L88.11,108l-.11.12-.32,1,0,.17.08.18.16.11L91.77,111l2.36.75h.17l.18-.08.4-.57.05-.12,1.25-4.8,0-.65,0-.19-.13-.14-5.92-2.12Zm29.62-6.25-.81.08h-.65Zm5.53-.6-.59.11-1.26.12Zm-16.39-3.7-.18,0-2.64,2.57-.05.08-.06.19.08.29.13.15,1.38.36,2.58.33.23-.06.14-.13.13-.24,0-.13,0-.23-1.42-3-.15-.16ZM98.31,89.3h-.06L95,90.72l-1.35.72-.14.14,0,.19,0,.18.13.14.68.43,4,1.49h.18l.21-.1.2-.2.1-.21-.26-3.77-.08-.24-.16-.16Zm37.55-.36h-.06l-.25.11-.16.16-1,4.35,0,.19.14.13.22.05-1.1.32.21-.21.08-.15v-.25l-.09-.15-2.7-2.61,0-.06-.08-.18-.15-.11h-.2l-.43.2-.1.14-1.61,4v.2l.08.19.15.11.43.07-1.25.24.12-.06.11-.16v-.27l-1.3-2-1.28-1.48-.09-.08-.19,0-.19,0-.13.14-1.7,3-.5,1.12,0,.16.06.18.13.14.17,0-1.35.13.21-.1.12-.1.08-.17,0-.24-.93-1.79-.88-1.29-.11-.1-.19,0-.18,0-.56.53-1.76,2.85-.06.2.06.19.18.21.18.09-1.59,0,.19-.12.19-.32,0-.12,0-.23-1.54-2.9L115,93l-.18-.06-.77,0-.12.07-2,2.85-.06.17,0,.24.19.32.18.12-.78,0L105.82,96l-2.37-.59,1.12.09.21,0,.14-.14,0-.19L104,91.22l-.08-.14-.16-.12h-.24l-3.09,2.15-.74.81,0,.18,0,.19.14.13,3.28.93-4.31-1.06-5.36-1.92v0l-.18-.12L92.63,92l-.18.06-1.7,1.63-.09.15,0,.18.08.17.15.11,5.55,2.27,6,1.75,6.66,1.2c11.7,1.59,26.11-.78,36.17-7.17l.11-.16V92l-.81-2-.06-.09-.16-.11h-.2L139.78,92l-.79.31.37-.42.07-.12v-.18l-.08-.17L136.06,89Zm5.35-2.22-.18,0-.14.15-1,4.1v.15l.09.2.18.16.12,0,.23,0,2.79-1.46.78-.63.11-.17,0-.18-.35-.88-.12-.15-2.35-1.3ZM94.31,46.87h-.06l-.17.08-.11.14-2.24,5.35C84,65.52,73,75.08,70.55,90.8l-.17,3.7.78,6,1.1,3.63,1.8,3.73.07.09.3.31.21.1h.18l.73-.43,2-1.83.1-.14v-.26l-.11-.17c-5.3-7.74-1.6-22.86,3.54-30L89,64.18l4.87-8.63.89-1.84.6-2.08.11-.1,0-.2-.8-4.17-.05-.11-.13-.14ZM67.45,234.8h-.06l-3.26,1.65-.13.1-.4.49-.06.12,0,.12.25.88.13.13,2.23,1.32.13,0h.12l.35-.15.15-.15.91-3.68,0-.48-.06-.2-.13-.13Zm22-8.28-5.62.41-8.21,1.54-5.88,1.93-5.26,2.29-2,1.27-.1.08-.06.12v.19l.77,1.92.1.19.17.12h.18l5.22-2.48.36-.13-.81.55-.06.11v.18l.07.19,3.06,2.29.13.06.45.11h.15l.12,0,.14-.13L73.44,233l0-.21-.11-.16-.15-.08.64-.22,0,.06-.05.18.05.19,3.07,3.17.08.07.18.05.19-.05.14-.13.44-.76,1.32-3.45v-.19l-.21-.37-.12-.09.88-.22,0,0-.12.16v.26l1.27,2,1.4,1.6.09.07.12.05h.19l.16-.12L85,230.7l0-.24-.08-.17-.17-.12-.48-.07,1.93-.28h.34l-.64.06-.21.08-.1.18,0,.18.87,1.94.94,1.34.18.08H88l.18-.08,2.09-3.09v-.61l-.06-.22.73,0h.36l-.11.13-.12.37v.28l1.13,2.36.56.72.18.08h.76l.18-.08,2-2.73.07-.16v-.49l-.11-.18-.14-.06,1.11.05.76.12-.12.09-.17.2-.07.12v.19L98.74,234l.1.09.18,0,.18,0,2.69-2.52.09-.15v-.25l-.22-.41-.16-.11-.58-.12,1.09.17,1.35.34h-.26l-.12.07-.14.21,0,.2.86,3.6.12.18.24.22.19.09.18,0,2.87-2,.64-.6.09-.15v-.26l-.15-.3-.15-.14-2.32-.65,3.43.83,1.82.67-.13,0-1.28-.41h-.24l-.15.11-.08.18.18,3.47.19.69.13.15.18.05,1.19-.31,3.28-1.46.14-.12.3-.42,0-.19-.08-.18-.15-.11-2.94-1.21,0-.05,3.46,1.27.43.05.2-.11,1.29-1.33.1-.21v-.45l-.07-.19-.15-.1-4-1.68-4.72-1.6-7.16-1.57-6.83-.8Zm29-2.32-.07,0-.17.08-.11.16-2.21,5.69,0,.14,0,.57.1.16,1.36.7.11,0,.52,0,.14-.06,1.62-1.5.37-.62,0-.24-.08-.19L120,229l-.64,0-.13-.12v-.37l.54-.33.47.13.25.53.15.16.19,0,.18,0,2.1-2,.07-.09.06-.17v-.24l-.11-.16-2.16-1.18-2-.9Zm-52.6-1.15h-.07L61.48,225l-1.59,1-.08.08-.07.1v.19l2.23,5,.5.87.08.11.18.08h.52l5.11-2.34.13-.1.17-.32,0-.23-2-5.52-.47-.73-.12-.11Zm39.17-3.37-.56,0-.16.11-.08.16-1.21,6.32,0,.25.16.3.15.14,5.76,1.46h.14l.43-.18.09-.11,1.73-6.48,0-.18-.14-.15Zm-23.77-.76-2.12.36-4.15.87-.73.34-.08.1,0,.19,1.76,6.56.13.13.18.05,6.28-1.16.11-.06.15-.13,0-.25-.92-6-.29-.83-.13-.13Zm9.93-.71-2.09.14-.16.11-.07.18.24,6.85.07.11.16.12,6,.24h.13l.19-.14.37-.57.54-5.09v-1.4l-.08-.19-.16-.1ZM158.85,187l-.45,0-.78.48-.73.28-.12.08-3.88,3.65-.11.14v.26l.3.49.14.13.83.2h.14l.12,0,4.89-4.46.08-.1,0-.18-.11-.65-.05-.12L159,187Zm-6-.87h-.06l-1,.47-.12.13-.33.8,0,.14v.64l.05.18.59.66.09.07.12,0,1-.06.79-.48.09-.08.06-.12.15-1.31-.09-.2-.76-.77-.14-.1Zm-73.2-2.43c-1.51,6.93-6.78,15.68-12.64,19.82l.52-7.09.16-.7,5.33.1.93-.13.13-.06.13-.11,1.42-2.29,0-.18-2.16-6.26v-.12l5.84-2.6Zm78.61-4.06h.34l.81.45.24,1-.89,1.2-.07.16-.09-.12-1.24-.71-.05-.79.17-.61Zm-20.42-.11,3.72.2h2.77l-1.07,1.09-2.51,2,0-.16-.09-.2Zm35.41-7h-.12l-.16.11-3.69,4.13-2.29,1.7-1.9.93-.13.09-.71,1.34,0,.12v.19l.11.16.18.07h.85l.16,0L169,179.4l2.79-2.56,1.55-1.74.28-.66,0-1.64,0-.18-.15-.15ZM131.88,171l5.9,1.15-.56,5.68-.09.16,0,.24.33.77-1.07-1.12L133,173.27l-1.2-2.17Zm-51.09-1.37L81,171v4.08l-.48,5.09-.42,1.77.43-2.09,0-.18-1-1-2.91-4.19,4.12-4.35.08-.13Zm86.76-.59-.12,0-1.44.53-.1.07-.08.09L165.1,171l0,1,0,.13.87,1.28.11.07,1.73.22.16,0,1-.64L169,173l.4-.57.06-.17.11-1.12-.37-.94-.14-.19-1.32-.84Zm-126-1-.13,0-1.11.73-.1.14-.5,1.52v.12l.05.19,1.1,1.32.15.11,1.58.05.13,0,.72-.48.12-.12.38-1.13v-1.16l-.06-.17-.91-1-.08-.07-.12,0Zm86-10,5.06,3.82-2.08,4.79-.34.61,0,.21-.48-1.11-1.4-4.27Zm-50-.72.41.81,2.14,6.66.43,3.15-.71-.76L75.51,164l2.43-5.49,0-.21Zm93.71-.56-.18,0L169,158.11l-3,2.86-2.28,2.92-2.59,5-1.51,3.56-.29,1.43v.2l.11.16.18.09.93-.09.16-.11,2.87-5.73,2.48-4,3-3.59,3.56-2.58.07-.11v-.38l-.1-.22-.64-.66-.15-.08Zm-5-3.44-.12,0-1,.37-.15.11-.64.77-.25.72v.15l.17,1.36.11.16,1.07.6.16,0,.81.05.2-.05.87-.48.15-.13.56-.9.08-1,0-.14-.41-.79-.1-.09-1.28-.72ZM41.41,152h-1l-.22.06-1.26,1-.1.11-.3,1.14.32,1.35.13.2,1.4.76.17,0,1.49-.41.13-.08L43,155l.07-.18-.18-1.55-.11-.15-1.21-1.08Zm7.07-.61-.74.19-.19.12-3.67,7-1.7,2.57-2.73,3.25-1.93,1.66-1.84,1.1-.1.08-.06.12-.07.42,0,.24.59.69.1.08.17.06,1.26-.3,3-2.16,3.62-4.24,2.42-4.39,2.13-5,0-.13,0-1-.06-.2-.13-.14Zm-5.36-6.95H43l-2.48,1.13-2.2,1.46-2.6,2.52-1,1.34,0,.1,0,.13v1.75l0,.14.1.15.19.08h.18l.16-.11,3.26-3.75,2.54-1.91,2-1,.12-.09.68-1.27,0-.24-.08-.19-.15-.1Zm6.3-1,.07.08,1.16.54.25.67-.3,1-.46.38-.43.08L49,146l-.38-.47-.09-.73.86-1.13Zm18.06-.5,0,.17,0,.18,3.72,3.91,2.57,3.28L76,154.06l.46.94-.1-.12-.18-.08h0l-5.52-1.09H70.4l.62-6v-.48l-.1-.2-.53-.55-.15-.09-4.37-.29h-2l1-1Zm-12.19-6.42-.13,0-.88.6-.14.18L54,138.66l0,.16.1.16.6.57.19.08,1.07-.06.21-.09.64-.93,0-.16v-.81l-.05-.18-.56-.68-.16-.12ZM54.4,133h-.3l-.18.05-4.81,4.48-.09.12-.2.42,0,.23.08.19.6.39.13.06.25,0,1.48-.86,4-3.76.1-.16v-.25l-.1-.15-.75-.68Zm58.09-32.42-.14,0-.16.11-.39.9-.51,5.63.09.47.08.15.15.12,3.35.21,3.72-.08.12,0L119,108l.07-.19-.2-6.82-.12-.16-.17-.08Zm37.5-1-.84.2-.5.5-.09.2,0,.24,2.6,5.1.14.16.19,0,.55-.1,2.14-1.36.09-.08.06-.12,0-.18-.09-.2-3.19-3.27-.82-1-.1-.08Zm-18.49-.73-6,1.22-.24.11-.14.14,0,.26,1.06,6.37,0,.12.14.13.66.2,4.63-.88,1.32-.32.7-.35.11-.16v-.24l-1.68-6-.22-.43-.15-.15Zm-33-.77-.19,0-.14.15-1.69,6.08,0,.16.07.49,0,.13.14.13,5.61,1.45h1l.13,0,.16-.11.07-.17,1.1-6.08-.18-.61-.13-.14-3.28-.79Zm-8.74-3.36-.2,0-5,4.73-.1.21,0,.25.18.33.09.11,3.76,1.82.83.2h.14l.17-.08.12-.16,2.26-6V96L92,95.79l-2-1Zm55.12-1h-.06l-5.38,2.57-.13.1-.08.18.06.76,1.68,4.5.56,1,.09.11.36.17.2,0,3.82-1.74,1.92-1.16.11-.16,0-.18L145.9,95.1l-.68-1.17-.13-.13ZM59.66,151l-.13,0-.18.14-3.08,4.51-2.22,3.9v.26l.17.25.17.13h.18l2-.9,3.34-2.56-1,1.27-1.48,2.86-.56,2.16v.15l.25,1.6.08.19,1,.8.16.06,1.92.39,3.31-.3,1.9-.57c-2,.61-5.51,3.07-6.29,5.06l.1,1.17.61,1,.08.08,1.23.71L63,174l2.53.31-1.54.18-3.06.93-1.57,1-.11.14-.47,1.57v.24l1.36,2.33.1.12,2.81,2,1.44.77-2.39-.76L60,182.57H58.33l-.16,0-1.81.84-.09.1L56,184l.12,1.4.05.14,2,3.68,1.89,2.06-3-2.6-1.84-1.08-1.41-.46-1,0-.17.08-.12.19-.13.5,0,.18,6.56,7.63.11.06.11,0,1.06,0,.16,0,1.24-.61A6.08,6.08,0,0,0,64,189.68l2.26-.87.14-.1,1.58-1.82.78-2.17.15-1.34-.39-2-.25-.52,1.87-1.63,1.11-2,0-.14.21-1.92-.22-1.75-.72-1.5-.08-.09-1.19-1.24-.35-.24,1.32-2.68,0-.15.08-2.22-.55-1.85-1.06-1.74-1.25-1.25-.13-.06-2.29-.93A6.11,6.11,0,0,0,60.19,151Zm88-21-.18,0-1.45.81-1.25,1.66-.57,1.76,0,1.91,0,0-2.19.83-.15.08-1.24,1.27-.08.1-1,2.28-.18,1.66.5,2.69-1.28,1-1.43,1.94-.05.09-.39,3.52,0,.23L138,154.4l.09.11,1.22,1.06-1.2,2.22,0,.17-.14,3,1.25,2.87.08.12,1.53,1.51.13.08,2.28.88-.39,2.21.76,2.86,1.93,2.33.14.11,2.16.9.93-.09.18-.13,3-4.33,1.92-3.33.35-.85,0-.21-.08-.19-.16-.11h-.19l-1.81.74-3.66,2.79c1.79-1.89,3.38-4.94,3-7.64l-.6-1-.13-.12-1.89-.69h-2.07l-2.52.43-1.22.34c2.19-.88,5.18-2.7,6.12-5l-.05-1.2-.08-.2L148,153l-2.52-1-3-.33,3.83-.68,2.43-1.42.13-.13.45-1.34v-.24l-.58-1.67-1.66-1.78-3.31-2.06,1.45.53,2,.4h2.72l1.77-.67.13-.14.18-.83-.3-1.69-1.34-2.72-.63-.9-.81-.81,1.44,1.26,1.91,1.26,1.84.73,1.15,0,.1-.07.21-.31.05-.2-.05-.18-6.09-7.14,0-.12-.13-.2-.78-.38Z"/><path class="cls-4" d="M162.2,222.7l.2.54.13.16h0l-.34.34,0-.1m-2.73-1.37-.05.56-.07-.48Zm-1.36-5.67H158l-1.48.65-.13.11-.08.17-.29,1.54.15,1.28,0,.14,1.1,1.26.13.08.64.3h-.73l-.15,0-1.45.61-.13.11-.76,1.46,0,.13-.16,1.36.43,1.06.11.13.79.7.19.1,1.51-.07.22-.08,1.38-1.15.69-1.5,0-.11,0-.23-.45-.87.63.67.09.07.12,0,1-.09-.72.24-.12.07-.11.13-.16.45.11,1.75,1,1.49.06.07,1.27.58,1-.09,1-.68.08-.08.08-.13.43-1.61-.25-1.51,0-.12-.82-1-.15-.1-1.11-.47,1.61-.1,1.16-.84.76-1.05.13-1.37-.35-1.39-.12-.19-1.46-.83-.12,0h-.2l-1.83.7-.1.07L161.26,220l0,.11,0,.12v1.13h-.46l.3-.23.08-.17v-2l0-.12-.94-1.57-.13-.13Zm11.2-1.33.68.89.09.19Zm-1.87-3.45-.13,0-.12.06-.1.16,0,.19.07.17.74,1-.79-.81-.13-.08-.75,0-.19.05-.13.15c-.24,3.76,3.62,6.47,6.28,8.24l.16.07.18,0,.16-.11.08-.18v-1l-.42-2.15-1.57-3.27-.08-.11-2.18-2.2-.14-.08Z"/><path class="cls-4" d="M156.89,212.87l-.29.08-.28,0m3.27-1-1.24.61-.64.16Zm-6.81-1.15-2.69.72-1.85,1.23-.12.13-.19.35-.05.25.08.18.16.11,2.72.37,2.49.88,1.43.26,2.3-.2.11,0,2.24-1.05.1-.08,1.65-1.68.16-.6,0-.19-.13-.14-.55-.2h-.12l-.2,0-.13.14-.11.39-.16.1,0-.08v-.2l-.25-.53-.16-.12h-.24l-1.3.5-1.42.06-2.09-.58Z"/><path class="cls-4" d="M163,211.61h-.12l-.15.12-.8,1.77-.42,2,0,.18.14.14.19.05.18-.05.53-.5c.18.36.53.75.88.32l.78-2.27.15-1-.05-.24-.13-.14-1.12-.35"/><polyline class="cls-4" points="166.33 189.28 165.69 189.29 165.57 189.35 164.84 189.98 164.77 190.09 164.73 190.21 164.99 197.95 165.04 198.12 165.3 198.41 165.44 198.5 166.51 198.64 166.7 198.62 166.86 198.5 166.94 198.33 167.08 197.47 167.06 197.28 166.96 197.12 166.88 193.6 166.84 193.43 166.8 190.11 166.65 189.46 166.51 189.32"/><polyline class="cls-4" points="41.03 127.65 40.85 127.7 40.72 127.84 40.67 128.02 40.54 136.72 40.61 136.91 40.77 137.01 41.31 137.12 41.5 137.09 42.27 136.76 42.35 136.65 42.6 135.66 42.72 128.4 42.66 128.21 42.53 128.06"/><path class="cls-4" d="M53.27,111.63l-1.89.24-1.79.65-1.7,1.26-.9,1-.05.19.05.18.13.14.34.21.13,0,.2,0,1.25-.9.9-.36,1.91-.32h.2l-1.35.25-1.78.63-.13.09-.36.39,0,.18.06.27.13.13.19.05,2.38-.5,2.62.79,2.48,0,2-.57,1.64-.91.11-.1.47-.65,0-.19-.08-.18-.16-.11-2.08-.25-3.76-1.44-.9-.1,0,0m-8.17-1-.06,0-.17.07L45,111l-1.12,2.92v.19l.39.55.17.14,1,.12.22,0,.13-.15,1.2-3.42v-.12l0-.19-.13-.15-.3,0-.19,0-.45.42-.1,0,0-.18-.08-.14-.13-.09Z"/><path class="cls-4" d="M38.52,110l.19.33M36.47,105h-.19l-.19,0-.13.15-.05.18v1.17l.44,2.64,1.79,3.53,1.65,1.64.2.09h.92l.17-.08.12-.16v-.25l-.55-.81.37.44.68.29.13,0,.52-.14.13-.13.05-.19-.43-2.32-.05-.13-1.48-2.33-3.73-3.23-.05-.24-.13-.15Zm12.91-.85.09.18-.19.16Zm0-.91,0,.18Zm-2.74-.29,0,1-.22-.61-.11-.13.1,0Zm.91-.83-.3.23.21-.21Zm-1.76-4.93h-.13l-1.13.72L44.4,98l-.73,1.46,0,.11.07,1.58.08.2.9,1.19,1.17.58-.73-.11H45l-1.25.38-1.12,1-.41.6L42,106.89l0,.17.66,1.09.08.08.86.45.09,0,1.14,0,.14,0,1.38-.67,1-1.32.07-.1.09-1.16-.06-.21h.82l-.39.32-.09.1-.34,1.33,0,.15.21,1.26.07.16.7,1,.12.09,1.42.5.14,0,1-.13.88-.59.07-.06.58-1.12,0-.22-.2-1.36-.93-1.36-.06-.08-1.19-.64.67.09,1.34-.18.13,0,1.13-1,.09-.13.46-1.12,0-.13v-.76l-.39-1.3-.07-.13L52.58,99l-.9-.07-.14,0L49.79,100l-.13.15-.78,1.39,0,.13v.19l.33.89-.8-.76-.28,0,.11,0,.14-.13.25-.69v-.16l-.15-1.81L48.41,99l-.86-1.09-.1-.08-1.57-.63Z"/><path class="cls-4" d="M52.46,268.76l.79,3.26.08.15-.64-.33m-9.38-16.91.51.2,2.41,1.51,2.62,2.67,2.43,4.42.44,1.88-1.16-2.12-1.94-1.95-.1-.08-2-.85-.08-.1L46,258.14l0-.12-1-1.56L43.37,255ZM46.56,251l-.13,0-4,2.94-.13.19v.25l.09.13-.49-.2-.2,0-4.45,1.88-.86.19-.16.06-.19.16-.12.18V257l.06.18,2,2.71,1.23,2.62,2,6,1.33,6.06.37,2.19.24,5.28-.35,4.75,0,.18-.38,2.17v.18l.12.18.17.08h20.7l.18-.06.13-.13.09-.37-.32-2.09-.75-1.54-.08-.1-1.17-1.06-1.24-.36L60,280.15l0-.13-1.86-3.87-.08-.1-2.74-2.74.91.52L60,277.89l2.06,3.36,1.21,2.46.62,3.25.17,2.36.12.18.17.08h6.76l.17-.08.11-.18v-.25l-21.9-33.71-2.59-4-.06-.22-.13-.13Z"/><path class="cls-4" d="M142.58,36.73H135.9l-.11.07-.11.16v.25l7.87,12,17.07,25,.39.7.16.11h.19l.16-.07,1.66-1.31,1.76-1.14.11-.12,0-.19,0-.18-.13-.15-1.13-.42-2.59-1.62,0-.22-.09-.17-.16-.12h-.26l-1.57-1.6L157.25,65l-1.57-3.57-1.17-5.19-.12-1.13,0-.15-.39-.61-1-.55,1.75.86c0,3.89.82,8,4.21,10.29l2.2.74,0,1.73,0,.16L162.5,70l2.27,1.71.2.08H166l4.81-2,.09-.07.08-.09.08-.24v-.21l-1.72-2.46-2-4.67-1.44-4.72L164.54,52,164,46.6V45.14l.31-8,0-.14-.11-.16-.17-.08h-20.4l-.16.12-.07.17.11,2,0,.15.93,1.89.08.1,1.12,1.15.09.06,1.27.31.13.1c-.13,4.84,1.63,7.5,5.14,10.62l-1.22-.69-4-4.19-3-5.08-1.07-5,0-1.35-.05-.18-.15-.14"/><polyline class="cls-3" points="123.79 227.18 121.53 228.94 106.61 242.83 107.47 245.5 109.35 253.96 110.2 259.67 112.11 256.48 114.84 253.25 119.22 245.9 122.42 237 123.52 230.7"/><path class="cls-3" d="M35,219v12.89A73.67,73.67,0,0,1,52.58,251.5l.11-.08,10.79,14.9,12.19,19,2,3.85h5.81l-1.59-3.55L76,274.3,64.15,254.13l-9.28-12.91-4.93-6-10.8-12.35"/><path class="cls-3" d="M121.54,184.09l0,1.19,1.47,6.79,3.71,13.13,6,2.89.15-.06v-.42l-2.12-5.45L130,199l-.07-2.54.23-3.09,1.24-5.27.22-.15-.22-.27-.35.08.07-.29-1.79-.7h0l-1.35-.55-.07,0-1.34-.57M115,182.52l.18,1.5,1.38,5.84,4.74,15.41,2.26,4.65,3.7,2.28,5.81,2.59,2.46.45,2.15-2-1.54-1.9-9.18-4-1.48-1-1.86-6.16-.09,0-3.7-11.94-1.24-4.57Zm-8.79-1.66-.1.11v1.14l1.61,1.74-.08.38-1.48,1.37,0,.65,1.94,2.15.29.65L106.73,191l0,.33,2.36,2.4-1.93,2.34-.07.36,3.43,3.07-.21.43-2.41,2.3.16,1.22,2.36,2,1.29,1.44-1.92,2,.35.21,7.32,1.59.14-.07,0-.46-3.19-6.75-2.6-7.77-3-14.22Z"/><path class="cls-3" d="M102.62,180.29h-1.3l-.49.88.07.3-3.24,10.17L95,198.44,91.22,207l-.08.26,4.35-.33.1.09,2,.2.88-.09V207l-1.54-2.23.17-.39.38-.14,2.83-1.81.19-.86-.19-.52-2.4-3,.34-.42,3.38-2.08-.34-.62-1.53-2,.21-.39,2.24-1.4.12-.34-1.64-2.55.12-.38,2.47-1.88.06-1.18-1.15-1.27-.05-.32,1.81-1.61.09-1.19-.4.17m-12-1.11-.7.54-4.61,9.29-4.56,8.75-1,.39-5.49,1.38L74.61,201l-3.42,3.29-.15-.08v.22l-.57.67.09.19,3-.23,4.09-.81,3.8-1.92,2-1.8,4.73-6,4.43-7.36,2.73-7.46Zm-4.53-.42-2.89.34-.06.25-.91.16-.13.22.58.15-.07.94-2.13,7-2.16,5-2.72,4.62.47,0,3.83-1.05L89,179.89l-.21-.74-.54.07Zm-25.6-30-2.62,3-4,6-1.07,2.07.63,1,1.48,1.48,1.9,2.85L59.14,169l.37,2.58.06,0,.12,4.06-.94,4-1.24,2.5-2.28,3.17-1,1-1.44,1.06-.17.52.25.56L59,195.69l.08-.07,2.06,2.54a33.77,33.77,0,0,0,11.63-20.22,32,32,0,0,0-6.53-23.79Z"/><path class="cls-3" d="M82.29,155.69l2.73,8.5.54.29,3.91-.33,7.08.17,10,1.11,11.27,2.31,8.28,2.55.05-.09-.23-.28-.24-.85-.09,0L123.43,161c-11.43,1.59-26-.24-37-3.64"/><path class="cls-3" d="M147.06,128.28H147l-6.72,7.33c-4.4,7.89-6,16.2-3.93,25.12l2.27,5.38,1.6,2.81,3.13,4.54,3.57,3.26.43.11,5.1-7,1.92-4-2.16-2.44-2.32-4.95-.73-3.48L149,151l1.18-4.41,1.81-3.67,2.31-3,1.59-1.61M132.18,127l-1.36.16-3.72,1-1.36,2.11-5,9.92L118.16,147l.85-.15h3.92l1.61-.37,1.72-6.77,2.48-6.07,2.46-4.76,1.11-1.61Zm5.42-5.63A81.7,81.7,0,0,0,124.54,124l-1.81,2.06-5.54,8.5-2.51,5.14-2.75,6.81,1.54.3h2l1-2.63,4.56-9.38,4.22-7.34.85-.58c6.48-2,7.37.31,11.55-5Zm-27.53-2.25-.16.39,1.6,2.75-3.5,2.6-.07.52,2.43,3.72-3.64,2.24,2,3.28-.58.59-2.21,1.35-.26.46,1.48,2.06-.08.48-2.21,1.83.09.56.92.88.19.42-1.56,1.61-.47.94.32.2,2.92.18,1.81-6.34,2.24-6.71,4.44-9.43,2.47-4-5-.22Z"/><path class="cls-3" d="M75.36,118.39l2.27,5.29.72,3.92.1,3.78-.22,1.85L77,138.47c3.82,2.14,6.06,2.35,9.33,3.39L86,140.1l-3.56-13.31-1.82-6m10.48-5.11-.24.41.53,1.52L93,121.09l3.23,10.53,1.87,8.19,1.14,5.43,3,.49.09-.45-.16-1-1.48-.81-.17-.32,1.39-1.93-.14-.59-1.7-1.72,2-2.9-2.69-2.09-.16-.37,2.27-3.29L98.51,128l-.51-.58,2.91-3.69-1.06-1.09-2.73-2.35-.34-.59L98,117.89Zm-17.67-5.23L71,112.92l.18.31,1.14,1.25,9.21,5.09.56.75.41,1.3-.06.1,4.25,14.87,1.48,5.93,1.27.36,3.18.8L92.51,142l-1.1-4.54-6-18.31-.56-1.4-.88-.27-4.54-2.92Z"/><polyline class="cls-3" points="97.62 66.17 97.44 66.19 94.76 69.81 89.99 77.67 85.8 87.11 85.01 90.25 84.59 95.99 84.56 99.48 85.73 98.6 90.17 94.16 91.95 92.68 91.88 92.59 101.32 84.29 99.81 79.44 97.91 71.14"/><polyline class="cls-3" points="130.66 37.1 123.63 37.1 125.07 40.62 127.55 45.16 127.53 45.24 132.82 54.46 133.37 55.3 140.71 67.51 141.31 68.03 141.9 69.28 148.66 79.17 155.83 89.06 156.93 90.04 160.54 94.32 165.78 100.24 165.78 100.44 166.09 100.34 165.99 100.53 166.44 101.17 168.85 103.52 171.96 106.7 172.87 107.01 173.26 107.35 173.26 94.52 169.94 91.79 160.23 81.81 160.28 81.7 158.12 79.22 157.89 78.47 143.25 58.03 131.51 38.89"/><path class="cls-5" d="M51.41,273.57l-.09,0L50,276.5l-.28,2.55.62.4H51l.65-.52L52,278l-.19-4.09M35,232.32l.76.46,4.78,4.34,4.14,4.29,4.82,5.8-.12.59-3.13,3.12L40,254.78l-4.32,1.58-.13.35c5.73,6.83,9.28,24.06,6.23,32.49H35ZM173.19,37.1l.07.34V94.17h-.38l-5.2-4.58-5.19-5.26-4.17-5-.19-.6,2.69-2.8,5.54-3.78,5.57-2.31-3.14-5c-3.66-8.66-5.58-18.36-3.8-27.73ZM144.24,90.17l.81,1.92c-15.85,9.64-37.45,9.78-54,1.89l1.62-1.58.52.18,0,.06a58.89,58.89,0,0,0,46.8-.32ZM83.93,288l1.58,1.23H84.19l-.41-.89Zm28.88-1.85.07,0-.23.83v1.59l-.23.62h-2.53ZM82,284.69l2.78,1.49,2.89,2,.35,1H86.2l-.2-.41-1.24-1.13-1.89-1L82,285.13Zm30.81-.58.17,1-1.26,1.54-.12-.12-2.46,2.64h-1.38l.11-.35,1.83-2.12,1.6-1.07ZM80.7,282.34,84,284l4.33,2.74,1.39,1.83.06-.23.68.89H88.89l-.1-.28-.94-1.3-6.56-3.86-.64-1.29Zm31.91-.08.14.28v.66l-.85,1.2L108,287.7l-.32.64-.13.05-.37.81H106.1l.09-.44,1.45-2,3.93-3.17Zm-.13-1.38v.66l-1.12,1.54L105.79,288l-.3,1.23h-.93l.09-.33.95-1.9,1.73-1.75,4.39-3.46Zm-33.2-.94h.15l2.75,1.7,4.53,2.41L87,284l-.07.16,3,1.93,2.67,3.14H91.09l-2.15-2.36-3.59-2.57-5.2-2.65Zm32.82-1,.14.25.05.86-1.07,1.52-4.77,3.94-1.53,1.66-1,2h-1.09l.56-1.19,1.62-2.54,5-4.06Zm-33.75-1.1,1.21.85,8.73,4.46,4,3.13,2,2.93h-.88l-.09-.18-3-3.26-11.46-6.59-.67-1.24Zm33.34-1.5.25,1.38-.46,1.12-2.09,2.57-4.22,3.28-2.08,2.57-.82,1.95h-.86l1.61-3.6,1.75-2.09L109,279.9l1.21-1.33Zm-34.52-.19,10,4.55,4.35,2.67,2.89,3,1.85,2.88H94.94l-.16-.38-2.18-2.94L89,283.1l-8.8-4.5-3-2.23Zm-22.35-1v.28L56,276.64l1.44,2.5.72,2.77,0,2.26.21.2.38-.09.26-.65v-1.08l-.43-1.84-1.25-3.11-2-2.43Zm56.45-.79.09,1-.84,1.82-1.59,2.16-5.18,4.57L102.17,286l-1.41,3.2H99.67c1.39-7,6.42-8.12,9.93-12.45Zm-35.59-1L78.4,275l9,4.15,4.34,2.28,2.74,2.22,1.35,2.1,1.62,3.46v0H96.9l-.38-.73-2.36-3.38-3.57-2.88-4.46-2.51-2-.8-5.88-2.85-2-1.75-.57-.79Zm-24.22-.73H51l-2.17,1.07L45,276.53l-.14,1,.54.36.6-.08,1.32-.85,4.11-3.73Zm59.42-.22.13,1.17-2.32,3.67L104,281.35l-2.28,2.29L99.67,287l-.49,2.21h-.91l.75-3.26,2.1-3.61,7.35-6.55ZM109,268.32l-2.43.9-2.68.26v.13l.8.2,2.59-.23,2-.87Zm-32.69-.84.1.51,3,2.79,2.76,1.44,1.88.64,3.56.52,5.24.05,3,.76v-.25l-2.18-1.37c-7.58-2.43-10.48,1.26-17-5.09Zm23.92-.53v.16l1.65.87,2.12.71h2.45l1.91-.63h.61l1.25.85.09.48-1.1,1.5-1.53,1-2.14.59-2.07-.12-1.07-.4-1.63-1.18-.84-1.18-.11-1.52,1.9,1,.49,0V269l-1.94-1.16-.4-.66Zm-20.42-.46v.34l1.15.88,3.79,1.62,3.11.32,2.77-.19,2.13-.78.26-.49-3.06.82-3.65.12-1.72-.34-1.76-.64Zm30.24-.15.06,1.62h-.13l-.6-.67ZM103,264v.29l-.67.68-.55,1.58-1.61-.89v-.52l.25-.24Zm2.73-.07,1.87.77.74,1.08.26.12,0-.39-.63-1.08,1.82.91.12.4-.71.1-1.06.91-.52.17-.53-1.5-1.59-.61-1.2.24-.77.62-.44,1.22-.51-.09-.16-.29.12-.88.82-.9.92-.55ZM88,263.42l2,.78.64.83.35,1.27-.37.1-1-1.49-1.44-.55h-.78l-1.12.54-1,1.63-.5-.45.38-1.13.81-.89Zm-41.4,0-.24.29.14.27.41,0,.82.61,1.26,1.61-.07.1.75,1.9.49,3.22-3.28-1.15H45.7l-.7.37-.17.83.46.61,1.43.4,3.78-.28.1-.11,0-2.26-.83-3.62L49.08,265l-1.8-1.62Zm42.8-.38,3.55,1.11,1.87.21.16.56-1.48.88-1.75.49-.7-1.58-.71-.93-1-.61Zm-2.8,0,0,0-1.94,1.56-.55,1.5h-.58L81.37,265l-.06-.12,2.07-1.16Zm1.22-.69-1.59.22-2.36.61-3.2,1.34L78.43,263h-.66l-.21.4.23.46,1.49,1.3L82.15,267l1.92.78,3.59.72,4.66-.83,1.73.71,2,1.68.22-.13-.09-.48-.73-.42-.07-.3-1.5-1.68.13-.41.43-.27,1.45-1.46v-.75l-.56-.54-1.92.09-2.75-.89Zm.61-5.61-.1.32,2.39,2.25L93,262.48l1,.81.5-.21,0-.15-1-.66L92,259.89l-2.14-2.27Zm-46.77-.85-.11.34L43.06,258l.42,2.06.7-.17-.13-1.4-.55-1.31-1.62-1.38Zm.18-1.13,1.33.56,1.65,1.49.86,1.46.5,2.48.18.22,2,.89,1.87,1.87,1.2,2.19.7,3.06.18,3,.12.21,2.3,1.18,3,3,1.87,3.87.27,3.89.12.12,1.29.35,1.1,1L63.1,287l.33,2,0,.18H42.76c2.28-8.83-.7-25.64-6.46-32.28l.2-.16.89-.19Zm28.52-1.33v.15l-.48.36-1.7.69-1,1.05-.06-1.07.62-.39Zm24-1.22-1.32.73-.24.7v1.21l.83,1,1.22.18.79-.54-.14-.25-.35,0v.1l-.74.2-.92-.49-.1-1.33.94-.88h1.12l1.94,1.22.41.74.72.42.83,0,.22-.39-.06-.59-.4-.25-1.57-.48-2.35-1.33Zm-23.27-.77.28.36-.77,1.2-3.57,1v-1.1Zm1.17-2,.13.16-.66,1.3-4.23,1.38h-.56l-.11-.92.45-.22Zm.9-1.7.1.36-.64,1-5.67,1.67-.21-.29.07-.62,1.58-.61Zm1.34-2.1.07.08-.12.46-.73,1-7,2.23-.17-.7.14-.24,1.48-.65Zm29.13-1.35-1.88,1-1.39.15-3-.3-3.76.44-1.41-.26-1.66-.89-.31.12-.12.37,1,2.23h.36l1.13-.38h.75l2.49,1.36.64-.08,1-1,1,.88L99,248l2.14-1.2,1.17-.16.79.14.3-.19,0-.81.45-1.51Zm-27.73-.6V244l-.73.93-8.44,2.83-.29,0-.06-.63.38-.38,3.69-1.45Zm20.93-1-2,.6-.93,1,.1.08,3.28-1.21.15.21,1.5.2,1.77.82,0,0-.21-.44-1-.74Zm-19.2-1.22.06.24L76.57,243l-10.28,3.24-.18-.09v-.53l.14-.15,3-1.36L76,241.93Zm28.09-.94,1.89.68v.21l-.78.74-.3-.06.26-.48-1.15-.82v-.19Zm-25.95-1.27v.28L78.27,241l-6.09,1.84L66,245.06l-.24-.63.12-.35.85-.43,6.21-2.32Zm25.24,0,3.52,1.16-.24.33h-.48l-2.35-.64-.63-.49,0-.33Zm-5.65-.16c-1.59,2.15-4.2,2-6.12.36l-.14.29,1,1,2,.52,2.15-.49,1.4-1.2.09-.49Zm4.46-1.27,5.61,1.67,0,.18-.38.25-.73-.09-3.77-1.22-.93-.65Zm-22-.4.08.14-1.07,1-.69.24-.08,0-7.93,2.4-6.49,2.5-.13-.8.33-.33,4.89-1.94,5.61-1.83ZM63,237l2.15,7.3,1.19,8.18.1,4.79-.27.64h-.1l-.89-1.45L65,250.07,64.34,244,62.9,237Zm39.37-.72,2.62.57,5.07,1.76.11.4-.58,0-6.86-2-.64-.61Zm-17.81-.71v.16l-1.19.85-1.07.42,0-.13-8.45,2.28L68.37,241v.22l-.21-.13-2.83,1.13-.19-.92.65-.44,5.46-2.07L76,237.41Zm-17.12-.35,0,.4-.86,3.59-.23.11L64.08,238l-.2-.69.41-.49Zm26.17-1.35c14.65.38,15.91,19.81,16.23,30.7h-.43l-2.29-1.19-2.39-.17-4.21.94.06-.56.66.08,1-1,2.72-4-.21-.14-3.87,4.81h-.14l.56-2.1,2.1-6.37,0-.49-2.55-1.49-2.48-3h-.17V250l.47.93,2.08,2.54,1.76,1.18v.47l-2.79,9.34-.59,3.19.05,1.6.42,1.37,1.12,1.73,1.45.91,2,.48,2.18-.08,2.16-1,1.8-1.91h.24l-.64,2.51c-3.66,6-9.7,5.58-12,15.08l-.17-.07-1-2.8-3-3.2-3-2L77.42,274l-2.7-1.93-5.86-9.88,0-1.59.74-2.06.17-1.13-.52-.45-.81.32-1,2.29-.3-.1-.61-1.07c2.69-6.87,3.47-.74,6.06-8,3.44-6.82,10-14.85,17.87-16.16Zm15.56-.81,1.38.45.36-.07-.08.15,3.24,1.33-.26.33-3.21,1.43-1.1.29-.12-.53Zm-36.11-.12-1,4.22-.45-.12-3-2.22.73-.49Zm30.57-1.46,4,1.1.13.24-.58.57-2.79,1.94-.26-.23-.85-3.5.07-.12Zm-25-.11.13.25-1.28,3.32-.45.76-3-3.11Zm5.2-.89.79.1-2.18,4L81.13,233l-1.21-1.91Zm13.91,0,3.67.63.16.3L99,233.78l-1.39-3.19ZM91.53,230h1.91l2.23.27v.31l-2,2.67H93l-.47-.6-1.11-2.36Zm-1.59-.08v.48l-2,2.93h-.31l-.83-1.2L86,230.24Zm-31.3-1.28c4.57,6.82,5.92,18.75,6,26.79h-.18L63,253.07l-.34-6.81-.56-5.2-1.52-6.71-2-5.55ZM64.51,227l-.82.29-.2.36.15.72.7.22.71-.24.08-.78Zm25-.09a61.26,61.26,0,0,1,26.9,5.63v.34l-1.29,1.33-.24,0L109,232l-6.81-1.68-5.26-.78a57.93,57.93,0,0,0-33.45,6.65l-.81-1.94,2-1.23,5.24-2.29,5.83-1.92,8.17-1.53Zm-33.07-.61c4.31,5.33,6.12,18.72,6,25.39l-.23.14-1.31-2-.73-10-1.35-6.65Zm-.09-.43.14.3-.18.1Zm62.19-1.27h.23l2,.89,2.1,1.13,0,.11-2,1.91-.33-.67-.79-.22-.84.51V229l.33.34h.67l-.29.53L118,231.33l-.43,0-1.28-.65v-.43Zm44.19-.85,1.28.53.8,1,.24,1.45-.42,1.5-.93.64-.83.08-1.08-.49-1-1.4-.1-1.57.16-.35.79-.27Zm-55.87-.32-.45.24-.25.49.45.78.69,0,.34-.35.05-.67-.22-.41Zm-40.92,0,.43.65,2,5.46-.13.24-5,2.31h-.41l-.47-.85-2.22-4.91,1.54-1Zm93.1-.91.11,1.15.61,1.2c-1.56,4.92-6.61,2.35-3.77-1.74l1.45-.61Zm-80.12-.14-.85.47v1l.53.29.78-.06.47-.71-.23-.66Zm-26.08-.18c4.88,3.41,7.73,20.69,7.41,26.32H60l-1.44-2-.75-8.3-1.61-7.71-1.82-5-1.67-3.18Zm107.67-.45h.68l.69.66v1.17l-.42.55-.91.1-.75-.81.06-1.06ZM128,221.4v.27l-.27.21,0-.07Zm-35.56-.22v.19l-.17-.09-.38.69.4.73h.83l.41-.4,0-.76-.32-.2-.08-.16Zm-36.18-.84,2.6,5.19,0,.47-.88.29-4.17-4.42Zm-5.87,0c5.66,6.13,7.11,16.66,7.47,24.74l-.19.13-1.56-2.26-1-8.25-1.62-6.82-1.6-4.27-1.56-3.14Zm54.71-.27,6.11,1.62L109.5,228l-.26.1-5.66-1.42-.16-.29,1.22-6.31ZM35,219.41c14,13.61,24.54,28.25,34.57,45l9.64,16.87,3.34,6.29.41.54.09.7.33.42H64.45c.14-6.37-3.49-11.64-8.07-15.68l-2.76-1.59-2-8.34-2.47-4.52-2.68-2.74L44,254.78l-1.29-.49,5.41-4.06,2.23-2.57-.18-.62-7-8.22-5.48-5.16L35,231.44Zm46.33-.12.24.71.91,6-6.21,1.17-1.71-6.37.56-.27,4.15-.86Zm9.9-.71,5.07.22v1.32l-.51,5-.33.48-5.92-.23-.24-6.66Zm24.55-.2-.59.34-.08.6.51.48h.66l.34-.25.12-.61-.51-.56Zm17-.1,2,3.12c8.85,20.58-9.64,37-19.24,52.68l-2.41,5.54-.11-.07L110.93,269l-.52-6.19-.06-4-.87-6.61L107.09,243l2-2Zm-85.22-.21c4.9,3.52,8,18.41,7.75,23.61h-.08l-1.66-2.1-.82-6.72-1.56-6.64-3.71-8Zm117-.06,1.4.81.35,1.26-.1,1.27-.63.86-1.08.79-1.73.1-.41-1.1-.79-.7v-1.05l1.15-1.53Zm-95.94-.83-.38.41-.19.72.31.44.74.08.62-.37,0-.69-.5-.59ZM45.75,217l2,2.6,2,4.41,1.45,4.21,0,.08.31.86,1.05,5.22.38,3.92-.11.17-1.19-1.41L51,232.86l-.56-2,.07-.13-1.75-6.36L45.42,217Zm112.35,0,1.75.5.9,1.49v1.92L159,222.12l-1.4-.62-1.06-1.18-.14-1.16.29-1.55ZM43.33,216l1.27.67c3.12,4.8,6,13.83,6.17,19.35l-1.47-1.73L48,227.74l-1.62-5.06-1.72-4L43.24,216ZM35,215.78l1.72,4.14-.09.05h-.3l-1.12-1.09L35,218.3Zm78.62-.48.51,0,5.84,2.13-2,5.76-5.8-2.08,0-.68ZM40.9,215l1.07.59,1.17,1.23,2.37,4.82,2.05,6.17,1,5.26-.18.09-1.78-2L45.63,227l-1.23-4.05-1.6-4-2-3.89Zm60.23-.46-.58.16-.49.58.51.72h.74l.33-.27v-.63Zm-62.36-.05,1,.34,1.11,1.35,2.21,4.6L45,226.37l.8,3.56h-.22l-1.77-2.06-1.47-5-.37-.64L41,219.53l-2.28-5ZM72,214.2l1.6,5.89-7,2.24-.37,0-2.15-5.48.87-.42Zm13-.28-.69.24-.32.42.14.72.35.21h.73l.42-.58-.07-.68Zm-48.35-.06.19.16.83.2L38.88,216l2,4.63,1.57,4.64.11,1.19-.36-.23-1.19-1.31L36.54,214ZM35,213.74h.55v.12l.42.28,2.78,6,.9,2.89-.1,0-1.79-1.77L35,214.37Zm132.46-1.54h.81l2.18,2.21,1.54,3.17.42,2.09v1l-3.3-2.47-1.66-1.81-.9-1.75-.32-1.74h.62l1.09,1.09,2.26,3.19,1.33,2.62.43-.05,0-.49-1.6-3.27ZM98,212l5.68.8,1.3.32v.54l-.93,5.27-.48.06-6.47-.93.59-6.06ZM163,212l1,.32-.13.91-.76,2.21-.37-.55-.31,0-.58.57.39-1.81Zm-74.78-.19.27,5.87-.21.21-6.25.63-.21-.38L81,212.63l.41-.25,4.79-.57Zm64.52-.67h1.58l2.16.59,1.54-.06,1.33-.51.17.36-2.32,1-2.38.22-3.21-.38-1.51.4.14.22,1.59,0,4.77.44,1.84-.45,1.28-.64.59-.4.13-.42.48.17-.13.41-1.58,1.61L157,214.65l-2.2.21-1.37-.24-2.52-.9-2.68-.35.2-.36,1.85-1.23Zm13.81-.07.08.68-.32.45-1.32-.33.1-.64,1.22.25.13-.37Zm-3-4.16,1.78.4,2.25,1,1,.94.32,1-.41,1.12-1.06,0L166.9,210l-1.59-1.63-1.9-1.33Zm-1.13-2.15-.12.23v.62l.21.24.35-.2,0-.89Zm3-.28-.16.46.12,0-.41,1.16.63-.08.42-.78-.3-.79Zm-2.32-.61c1.89-.16,6.41.67,5,3.58h-.45L165,206.28l-3.44-.08-.73-1,.45-.76Zm-107.91-1.1c4.62,3.2-3.5,5.42-1.54.47Zm93.82-.13,3.42,4.45,3.28,2.57,2.52,1.2-.05.13-.41.16-1.76,0-1.5-.55c-3.24-.22-5.88.82-7.6,3.67l.06.11c5.43-1.83,8.27,5.29,14.87-2.64l.25.3-.07.55-1.36,4.32-.18.13-2.72-.69v.18l-.8.23-1.08.83-.51,2.63-1.79.34-.23.27L155,223l-.62,1.71V226l.9,1.64.89.4,1.75-.06.32.35.49,2h.49l1.11-1.27.65-.21,1.4.58,1.29.05.52-.18.94-.85.49-1.06.17-1.5.32-.39,1.61-.77.13-.29-1.51-1.59v-.28l.75-1.76,0-1.64-.73-1.18-1.28-.55-1.72.06-.24-.73.58-.66,1.19-3.59.58.17c.69,5.91,4.37,5.81,7.54,9.49l.26-.17V289.2h-60l.27-3.27-.2-4.45.27-1.05,1.44-3.86,2.87-4.77,5.79-8.44,2.35-3.11,6.06-9.31c6.13-11,8.41-21.74,1.48-33l.5-.89Zm12.91-.56h-.15l-.08.31.24.83h.52l0-.66Zm3.66-.66h.54l1.87.95.58.93,0,.89-.32.32-3-1.15.3-.16.31-.65Zm-1.94-.35v.15l.56-.07,1.11.28-.27.29.1.47,0,1,0,.1-3.78.35-.31-.08-.36-.56.14-.54.64-.71Zm-1.63-.9-.26.31.11.26h.38l-.06-.57ZM50.74,198.78h1.07l1,1.11v1.24l-.76.75-1,.14-1.14-.75L49.7,200l.32-.64Zm115.31-.09,1.72.69.9,1.29v1l-.16.08-3.06-1.23.21-.69-.44-.93-.48.05-.12.22.3.9-.13.52-3.71.43-.13-.73.58-.81,1.81-.51Zm1.41-.57.26.32h-.22Zm-99.59-2.38,5.32.21v.37l-4.43,5.18-1.36,1.09Zm-3.1-.68-.35,6-.39-.16-.64-.85.15-3.89Zm95.07-.27h1.62l2.52.93.66.65,0,1.7-2.87.74L160.26,200l-.07.83.39.85-.64.87.28,1.28-1.1-.92-2.85-1.68-1.84-.31-.2.28,2.29.83,1.63,1.33.33.6-2.27-.33-.21.25,2.61.93,1.22,1-2.16.33.17.39h.65v-.13l1.45.19,2.75.78,2.78,1.77,1.1,1.73-.12.12-1-.42-.77.09-.41.85h-1l-4.59-1.16-3.67-2-3-2.74-2.36-3.28.09-.44,6.7-6.48Zm-113.18-.61h.77l.74.25.73.87-.13,1.44-.67.66-1.11.16-.74-.34-.61-.8,0-1.47Zm119.67-4.53.11.46,0,3.51h0l.07,3.66.12.13-.14.86-1-.13-.21-.21-.27-7.66.74-.62ZM42.9,188.72l1.06.46.53.68.17.88-.22,1-.7.54H42.53l-.7-.36-.71-1,.07-1.13.73-.91.17.09.25-.21ZM35,188l19.69,23-.22.22-2,1-1.17-1.33.06-.05L35,192.08Zm123.88-.63.1.58-4.81,4.42-.74-.17-.26-.42,3.88-3.65.77-.29.74-.47Zm-6-.87h.24l.76.77-.15,1.13-.7.44-.79,0-.55-.58v-.64l.34-.78Zm-82.36-.1,2.16,6.5-6,0,0-.1.79-1,.65-.14,2.86.12,0-.35L69.72,188Zm8.42-2,.11.09-.63,2.15-2.5,5.5-.35-.3-1.7-5.17Zm-40.7-.54,1.26.46.72,1.12v.9l-.47.8-.46.29H38l-.69-.36-.67-.9.3-1.68ZM151.78,183v1l-.55.63L148,187.5l-.55-.05-.32-.47Zm-16.16-.78,5.1,4.81.35-.09-.11.18.93.93a13.64,13.64,0,0,0-1.65,13.69l.25-.12-.13.24.69,1.35,2.6,3.29-6.06,5.9-.37.16c-8.1-8.48-9.4-20.36-2.18-29.89Zm24.32-.89.4.25,2.87,0,1.15,1.21v1.38l-.64.7-.62.19-1.06-.2-.19.45.15.05-.23,1.19-.6.45-1.06,0-.81-.65-.23-3.85Zm-3-.42.05.94,1.38.76.1,3-.81,1.3-.94.36-1.07-.47-.41-.81.07-1.26-2,.06-.67-.56-.17-.81.42-1.13,1.19-.69,2.66-.37ZM139,179.77l4.26.25.08.27-1.54,1.36L141,182l-2-1.85Zm-47.42,0,9,.6-1.75,6.33-2.4,6.89-6.1,13.38.67.1,1-1.19-.08-.16,4.22-9.17,3.1-8.29,2.27-7.83,1.48.27.13.27-1.22,9.3-2.28,11.58L98.1,207l.5.21.46-.17,1.17-4.25,2.58-12.64,1.16-9.32,1.89.23-.09,5.67.41,7.14.94,6.64,2.14,8.28,1,.07,0-.31-.37-.86L108,200.27l-.83-6.92-.63-10.42.17-1.82,1.46.31.4,2.53,2.09,9.12,3.62,10.78,3.13,6.68,1.18.24-.15-.78-1.72-3.41-2.43-5.38L112,193.43l-1.64-6.62-.87-5.19,1.5.12,2.43.64,9.67,2.62,8,3.18-.8,2.56-.66,4.59.26,4.63L131.4,205,133,208.3l3.63,4.93L129,220.7h-.43l-2.26-1.27L119,216.09l-9.4-2.92-9.47-1.71-9.9-.48-8.81.68-6.74,1.18L66.92,215l-7.3,2.85-6.51,3.3-.57-.15-3.17-3c15-7.15,26.83-13.79,32.71-30.15L84.14,180Zm-41.17-.21,1.73,3.35-.2.37-1.51,1.42-.42-.08-.39-.49-.32-2,0-1.34Zm122.77-.25.08,0v42.12l-.52-3.62-1.36-3.2-1.74-2L169,212l0-.26.68-1.05-.25-1.56-.89-1.14.67-1.36-.34-1.64.55-1-.26-1.58.31-1.62-.9-2.52-1.33-1.63-.08-7.31-.26-.3-1.65.26-.59.65.07,5.24-.15.14-2-.8-1.86-.31-2.71.23-.15-.15.37-.51ZM51.69,177.22l3.14,1.13-.13.92L53,182.16h-.33l-.23-.34-1.46-2.95.07-.55.49-1Zm21.48-2.07.09,0,4.83,6-.23.42-6.61,2.87.6-1.85,3.74-1.74v-.46L73,177.17Zm83.41-.44,1.09.75.45,1,.07,2.06-.13.13.2.36.39-.05.39-2.22.62-1.08.61-.41.95.2.64.65.29,1.24,1.31.18.5.4.32.78-.19,1.34-.66.72-1.12.24-2.26.1-.31-1.32-1-.6h-.56l-1,.77-.26.94-3-.22-1-.57-.28-.5v-1.47l1.13-.87h.65v.13l.56-.14V176l.34-.65.72-.6Zm-100.93-1.1.2.17v.9l-.47,2.6-.3.45-3.2-1.46.41-2.18Zm117.61-.81v1.58l-.21.47-1.5,1.71-2.72,2.51-3.46,1.82-.79,0,.68-1.28,1.92-1,2.35-1.73Zm-40.62-1.34,1.57.23,3.33.69-.58,5-.09.32-.8-.8-2.75-3.85-.81-1.52Zm8.12-.46h.15l.92,1.22-.2,2.82.35.28,2.57.21.63.25,1.19,1.17-.22.1h-1l-4.9-.45Zm-60.31-.43.09.09.12,3-.27,4.9-.38.08-3.07-4.18Zm87.1-1.13,1.33.85.34.88-.1,1-.4.56-.87.59-1.65-.18-.74-1.14v-.87l.66-1.15ZM55,168.53l.44.86.52,3.33-.56.23-2.92.28-.24-.24-.1-1.44.66-.85Zm-13.38-.07h1.15l.86.93,0,1-.36,1.06-.62.44-1.48,0-1.06-1.26.46-1.46Zm-6.6-.22,2.56,2.82,28,32.69-.17.34-1.71,1.49-.9.37-4.17-4.68L35,174Zm58.64-2.36a98.22,98.22,0,0,1,35.9,8.2l2.11,3.29,3.13,3.93v.34l-2.5,3.77-.74,1.61-.32,0-10.57-3.78-8.56-2.23-9.15-1.43-1.75-.22-8.65-.49-8.29.11.2-6.76-.49-5.58,2.52-.34Zm-21-.1,4.55,3.49-.06.1-3.75,3.95-.18-.32v-1.3l.33-.48,1.41-1.46.19-.5-2.54-1.95-.21-1.53Zm-20.17-1.57,1.12,1.26,1.12,2.12-2.51,2.66-.51.07-.78-1.42-.1-.45Zm84.07-2v.2l.41,1-1.42,3.28.45.36,2.84.6.81,1.29h-1.17l-4.82-1,.26-.75,2.46-4.95Zm-82.88-.79h.32l1.87,2.11,1.72,3,.89,2.78c1.73,6.71-.91,13.47-6.07,17.87l-1.3-1.4-.15-.41c7-5.14,7.82-15.89,2-22.31Zm24.44-2.09,1.26,3.76.77,3.69-.57-.13L75.92,164v-.35l1.81-4Zm50.34-.29,4,2.95-1.94,4.23-.27.29L129,163.19l-.94-4.14Zm42.9-1.89.33,0,.63.65v.2l-3.52,2.55-3.05,3.63-2.51,4-2.83,5.69-.75.06c1.2-5.13,5.13-12.38,9.54-15.55Zm-16.36,0-.1.53.2-.13v-.31Zm-71.59-.29h.29l5.24,1.84.4-.06v.18a87.93,87.93,0,0,0,33.83,3.75l.71,2.78,1.11,3.58h-.25l-7.84-2.26-9.07-1.75-6.31-.87L93,163.34l-7.4.18-.25-.25Zm-14.78,0h.67l5.38,1.2-2.78,5.65-.29-.17-.24-1.18,1.39-3.19-.39-.24-3-.67Zm87.7-1.54,1.13,2L156,161.47l-.42.05-.75-.78-1.32-2.16.09-.47Zm10-1.51,1.23.66.39.72-.05.91-.54.84-.87.48-.81-.06-1-.54-.16-1.28.22-.65.6-.7Zm-31.36-1.07.07,1.46-.21.41-1.53,1.64-.09.38,2.39,2,.34,1.54h-.27l-4.46-3.33v-.4l3.58-3.72Zm20.75-.17.24.43.15,1.5-2.84,2.86h-.15l-.51-1.44-.34-2.55.28-.31ZM41.41,152.4l1.16,1,.17,1.36-.82,1.1-1.38.4-1.34-.72-.31-1.26.25-1,1.26-.95Zm7.07-.61,0,1-2.1,4.93L44,162l-3.56,4.16-2.9,2.13-1.14.26-.53-.63,0-.36c5.5-2.53,9.58-10.57,12-15.63Zm11.18-.39c4.36.21,6.49,4.41,5,8.29l2.59,1,1.2,1.18,1,1.65.53,1.71-.09,2.23-1.4,2.84.12.26.39.25,1.19,1.23.72,1.49.2,1.55L70.89,177l-1.07,2-2.06,1.79.34.68.4,1.87-.13,1.25-.76,2.11-1.53,1.77-2.48.93-.15,2.5-.64,1.6-1.2,1.35-1.23.61h-1l-6.51-7.55.12-.4h.79l1.32.43L56.89,189l3.17,2.74.61,0-.12-.49-2-2.16-2-3.68-.13-1.3.19-.36,1.74-.79H59.9l2,.31,3.67,1.15V184l-.35-.36-2-1.08-2.82-2-1.32-2.27.43-1.5,1.58-1.06,2.9-.86,3.31-.41.18-.3-4.42-.51-1.73-.58-1.17-.65-.58-.9-.07-1,.77-1.15,1.86-1.7,2.24-1.42,1.85-.76.28-.42-.24-.33-.16,0v0C55.82,168.27,54.7,163.37,61,156l-.12-.39h-.13L56.4,159l-1.88.89-.12-.16,2.18-3.83Zm2.53-2.68,1,.05,4.72.46-.54,5.44h-.22l-.63-.68,0-3.34-.58-.18-2.68-.18L62,149.08l0-.25Zm9.17-.58,1.37,1.54,3,4.54-.13.09H74.7l-4-.82v-.55l.53-4.71Zm81.59,0,3.3,1.46-.46,2.24-3.41.36-.17-.16.26-2.45Zm-25.12-.92.23,0,3.09,4.08-.23.46-3.14,3.4-.2-.36-.08-3.5ZM64,146.44h1.88l4.29.28.53.54v.38L70,154.07h.62l5.52,1.09.93,1.82.54,1.36-2.54,5.76,4.54,3.37.76.82.06,1.5-4.33,4.55,3.11,4.48.92,1-.74,3.56-.27.36-6,2.66v.42l2.16,6.25-1.38,2.21-.88.13-5.63-.12-.22,1-.5,7-.72-.08-.59-1.17.49-7.54.23-.5,4.25-.27,2.49.05,1-.21.06-.64-2.54-7.08.11-.36,7.89-3.64.21-.37L74,174.34l.28-.56,4.13-4.41-.47-.84-5.17-3.84L76,157.48l-.41-.32-7-1.5-.16-.55.52-6.28-.24-.44-.74-.15-4.8-.37-.27-.17Zm-20.89-1.6.45.08-.64,1.21-2,1-2.62,2L35,152.9v-1.75l1-1.29,2.56-2.48,2.13-1.45Zm24-1.08,2.23,2.15,0,.09-4.51-.19v-.17L66,144.51Zm88.23-.23.08.05,1.82,3.6-.78,1.47-2.69-.94-.52-.36,0-.43.93-1.82Zm4.33-.32,2.15,2.48-.17,5.45-.92,5.19-1.89,6.44L156,168.58l-4.86,7.66-3.52,4.35-4.17,4,.32.44,11.59,10.11-1.92,1.9-.09,0-13.91-12.12-.09-.47c9.61-6.63,16.67-18.81,19.44-30.09l.76-6,0-5.17Zm-90.31-1.45.61.57.18-.07v.19l.3-.16.17.68.62.21-.2.11c21,20.9,14.82,55.22-11.38,68.68l-10.18,5.32h-1L46.87,216l.22-.21,5.41-2.56,7.91-4.66,4.7-3.11,3.45-2.74,2.9-2.76a40.44,40.44,0,0,0,9-35.22,41.84,41.84,0,0,0-12.7-21.58Zm67.47-.3-.38,1.49-.37.47L132.69,145l-.26.42,2.74,3.42-.2,1.82-.28-.12-4.48-5.57-.08-.47Zm21-.32.56.58.33,2.57-.08.85-1.05,1.2-1.71-3.26.36-.63ZM77,138.88c15.35,6.28,30.55,9.2,47,7.92l-.18,3.61,0,3.44.53,5.09c-8.34,1.88-23.33-.14-31.49-2.07L83.52,154l-4.91-2.17-2.31-3.62-2.92-3.6Zm-30-.16,1.26.12.64.64.19,3.9-1,1.26.12,1,.51.63.94.35.62-.11.61-.51.38-1.2.1.19,2.25-.08,1.57.65.63.9-.1,1-.92,1-1.44.09-.16.17,0,1.57-.71.71-.57.15-.88-.25-.51-.51-.43-.85-.15-2.72h-.26L48.74,150l-1,.52-.86-.24-.63-.85v-.86l-.26-.16-1.23-.13-.81-.64,0-1,.31-.88.83-.7,1-.29,2-.07.14-.29-2-.36v.13l-1.32,0-1.17-1.3.21-1.38.86-.73,1.59.19-.17-1.08Zm108.8-.05,1.42,1.71c-7,5.07-7.7,16.19-1.86,22.44l-.78,1.55h-.39l-1.4-1.48-1.76-2.7-1.22-3.25a17.27,17.27,0,0,1,2.47-14.39ZM52,138.56l.94,1V141l1.51-.1.91.39.47,1-.51,1.38-1.49.74-2.56.3-.3-.8-1.22-.56v-3.1l.66-1.11,1-.51Zm117.72-.26,1.44,1c1.21,4.88-5.73,2.15-2.54-.8Zm-109.31-.12.76.65-4.74,4,0-1.12ZM55.29,137H56l.54.62v.76l-.58.85-1,.08-.6-.57.13-1.18Zm77-3h.24l1.81,5.36-3.79,1.78-1.37.4,1.07-3.15Zm31.74-.39h1.38l1.12.76.39.92-.12,1-.71.82-1.41.05-.66-.42-.54-.8-.06-1.27ZM54.4,133.41l.68.64-3.93,3.7-1.48.87-.52-.33.2-.44,4.75-4.44Zm87-.49v.39l-.69.85-.35-.1v.22l-2.56-.18-.55.22v.46l.41.82.74,2.46-.58,1.2-.26.06-2.07-6.24Zm6.3-2.49h.78l.6.3,0,.2,6.13,7.15-.13.22c-2.95.46-5.37-3.17-7.54-4.29l-.08.56,1.92,1.9.6.85,1.31,2.64.3,1.61-.13.64-1.66.63h-2.58l-1.92-.4-2.74-1-.13.47,4.36,2.65,1.61,1.71.54,1.61-.41,1.28-2.38,1.38-5.54,1,.13.25c11.77.29,8.86,5.48.81,8.79l.06.43.57,0,1.89-.54,2.46-.42,1.94,0,1.84.65.57.9v1.29l-.38,1.75-1.33,2.67-2,2.51,0,.33h.53l.54-.54,3.81-2.92,1.72-.72-.32.81L151.52,170l-3,4.31-.73.1-2.09-.89-1.88-2.3-.72-2.66.44-2.45-2.57-1-1.53-1.52-1.23-2.76.14-2.9,1.36-2.49-1.46-1.26L137,151.81l.38-3.43,1.35-1.88,1.46-1.16-.53-2.81.15-1.54,1-2.27,1.26-1.27,2.32-.88.14-.25v-1.88l.51-1.65,1.2-1.59Zm-93.14-1.89h.17l7.12,6.3.15-.08V135l3.2,2.75.18-.08v.21l3.55,3.33v.15l-4.32,3.5-2.29,2.27-3,3.6-4.55,6.91-3.34,7.1-2,6.16-.92,6.33,0,5.22.11.12-.23.12-2.14-2.54c-.56-14.39,8-29.75,18.44-38.83l0-.31-9.8-8.56-2.16-2.08Zm106.18-.26,1,.33.67,1v1.33l-1,.7-1.41,0-.81-1v-1.1l.65-.94ZM41,128l1.32.38-.1,7.16-.21.91-.67.28-.47-.08Zm-.86-.29,0,.28h0l-.25-.29Zm5.32-1.9.1.67.42-.24-.12-.43Zm98.32-1,.9,1.16-.24,3.82-.95,1h-.14l.27-5.41Zm-104.42-.35.75.51,2.22.93-.24.71.41.89.58,0-.22-1.16.21-.4,3.51-.29.25.27,0,.73-.71.57c-2.23.85-7.7,1.28-6.84-2.67Zm117.18-.56,1.06.36.75,1.14-.29,1.19-.69.47-1,.06-.4-.15-.67-.8-.21-.93.54-.86Zm-16-.45.12.21-.41,6.49-5.2-.2-.07-.33,3.68-4.33Zm-94.95-.16-.16.73.38.44.35-.08-.27-1.09Zm96.18-.79.74.84.15-.07v1.94l-.46,6.64-1.14.16-6.21.15-.61.33v.34l2.59,7.29-.29.41-6.28,2.83-1.72,1,5.66,7.31-1.92,2.14L130,156.16l-.18.84,5.5,4.15-.42,1.31-2.68,5.59.12.54.65.23,6.56,1.35.18.55-.48,6.2.25.5.6.2,4.79.33.37.15-.94,1.21H141.6l-3.74-.22-.4-.88.13-.23.6-6.12-6.27-1.2-1.37-3.18.35-.63,2.19-5.08-5.22-4-.09-1.8,4.1-4.24.05-.53L128,146.09l.83-3.74,1.45-.75,4.82-2.13-2.23-6.35.05-.49,1.34-2,1.21-.12,5.19,0,.26-.44.46-7.66Zm-96.15-1.88-.53.32v.65l.29.32.29-.24Zm-2.72-.21h-.38l-.46.57v.85l.59.08Zm110.17-.6,1,.45.64,1.08-.42,1.55-1.76.16-.88-.77-.15-1.41.53-.76Zm-7.88-.08,2.32,2.75h.16l25.6,29.88v5.46l-1.2-1.26L142.38,122l.15-.33Zm-104.94-.93,2.56,1.34,3.3.27.68.37.31.83-.3.43-.87.44-1.8.14-.32.19.24.28.59.12,1.56-.28.87.2.17,1-.68.69-1.26.44-2.45,0-.12-.2,0-1.89h-.41l-.38.93.3,1-1-.24-1.17-.69-.76-.93-.07-.85.55-.69.31.37,2.34,1,1.32,0-.25-.46-1-.25-2.08-.88-.64-.78-.07-1.4Zm.53-4.09.63,1.87,1.51,1.62,1.6,1.22v.1l-.43.05-1.95-.6-1.8-1-.88-1.07,0-.94.22-.8Zm114.68-1v.25L173.26,134v4l-1.41-1.41-18.46-21.7.05-.26Zm-84.84-.35c5.2,5.53,7.58,10.18,7.21,18l-.95,4.77-1.19,3.12-1.55,2.64-1.4,1.77h-.24l-.43-.43-5.64-5.3c4.13-6.44,3.67-13.31-2.07-18.61ZM53.27,112l.08.07.93.1,3.82,1.45,2,.22-.42.56-1.55.88-1.9.56-2.37,0L51.16,115l-2.39.52,0-.08.3-.3,1.72-.61,2.14-.39,3.76.65,1.57-.32-.14-.3c-4,.44-6.49-2.32-10.44,1L47.3,115l.81-.87,1.7-1.26,1.61-.58Zm-8-.92.08,0,.13.43.52.07.5-.5.12,0-1.17,3.36-.94-.11-.34-.45Zm78-.28-.8.32-.15.83.19.37.67.21.78-.5-.09-.71Zm-16.15-.31-.73.34-.05.63.36.5h.72l.43-.47-.08-.61Zm51.94-2.07,1.74,1.06c-10.46,4.42-23.22,12.69-28.73,23a40,40,0,0,0-.76,38.49l.22-.11-.12.21,1.29,2.37,3.36,4.69,4.34,4.56-1.29,1.14-.39.11c-9.74-8.18-15-21.8-14.09-34.52,1.76-19.35,13.23-30.12,29.48-38.84Zm-33.52-.55.53.2L127,114l-2.54.43-4.3.31-.45-.14-.23-5.94,1.63-.21,0,.07,4.42-.48Zm-21.33-.32.46,0,.09.1,2.82.39,3.21.37.09,1.34-.56,4.65-.45,0-5.1-.61-1.76-.41,1-5.43Zm34.75-.09-.88.56.29,1,1,.07.41-.43.07-.7-.49-.52Zm-46.8-.7h-.31l-.48.37-.08.56.32.49h.87l.41-.36v-.54Zm79.13-.64,1.16,1,.8,2.06v2h-.13l-2-5Zm-134.83-.76v.23L40.34,109l1.4,2.23.43,2.25-.34.08-.58-.24-1.6-2L37,106.41h-.17l-.06.58,1.5,3.36,2.56,3.72H40l-1.63-1.62L36.69,109l-.41-2.48v-1.17ZM154.9,105l1.68,1.43,1.13,1.19c-16.62,7.47-30.5,19.23-33.66,38.3l-4.65.3-6.17,0-.77-.16-.13.15-4.55-.32-.1-.47,1.88-6.69,2.2-6.26,3.58-7.49,3-4.62,0-.58h-1v.12l-.72.94-2.34,4.13-3.06,6.36-2.55,7.15-1.8,7-.34.1-1.51-.28.74-5.11,2.64-13.92,1.91-6.06,0-.81h-.88l-.38,1.45-.12,0-1.55,5.64-1,5-2.1,13.49-.34.48-1.79-.39-.31-10.88L100,118.25l-1-.34c1.31,8.87,2.5,17.77,2.22,26.89l-1-.05-.77-.25-.07-1-2-9.28-2.44-8.75-3.39-9.39-.94-.16-.06,0a139.88,139.88,0,0,1,8.12,28.31l-.52.07-5.67-1.16L84,140.57l-6.61-2.71c3.2-10.08,1.12-17.71-6-25.26l7.22-6.84h.12l6.16,3.15,6.62,2.49L97.1,113l2.61.54.07.08,3.8.76,6.82.87,7.18.18,5.64-.35.26-.4.08,0v.2h1.25l5.53-.83,4.66-1,3.53-1.06v-.18l.51.14,8.33-3.16ZM49.84,104.5v.16l1.51.81.88,1.29.18,1.27-.52,1-.81.54c-2.52.61-3.83-1.64-2.9-3.82Zm91.65-.56,2.33,5.51-.69.39-5.31,1.8-1.87.45-1.67-5.75.07-.08,3.24-1Zm-60.74,0-.6,1.38-.56-.13,0-.37Zm34.59-.29-.57.16-.4.49V105l.34.27h.81l.56-.43-.09-.64ZM90,103.46l5.84,2.07v.58l-1.24,4.8-.33.51-2.35-.76L88,109.23l.3-.92.09,0Zm-44.92-.1,1,.16.39,1.09.78.77-.06,1-1,1.27-1.29.62-1.06,0L43,108l-.65-1,.17-1.82.29-.44,1.07-1Zm123.34-.07,1.65,1.67,2.91,7.28h-.65l-.46-.45-2.34-4.69-1.38-3.73Zm-120.2-1,.74.72.12.84-.2.61-.52.32h-.79l-.61-.49V103l.88-.67Zm80.56-.06-.69.78.09.55.47.41.76-.07.45-.34,0-.79-.49-.53Zm-28-.65-.52.41v1l.79.3.68-.49v-.62l-.55-.57Zm11.67-.63,6,.16.2,6.63-3.69.09-3.24-.2-.09-.34.49-5.53ZM150,100l.83,1,3.19,3.28-2.08,1.32-.41.08-2.59-5.1.4-.45Zm15.18-.12.16,0,1.54,1.7.31,1.11,4,9.23-.32.09-.76-.19-1.49-2.28-3.35-8.34ZM51.65,99.28c3.5-.36,3,6.34-1.92,4.78l0-.84-.54-1.48.77-1.4Zm79.85,0,.19.36,1.69,6-.53.28-1.32.32-4.56.87-.47-.14-1.06-6.37.13-.07Zm-33-.77,2.64.72,3.18.74.13.43-1.1,6h-.94L96.91,105l-.06-.49Zm45-.82-.71.38-.08.57.45.71,1.16-.37v-.75Zm-97.72-.15,1.51.59.83,1,.17,1.81-.22.61-.8.2-1.07,1.06-1.26-.61-.83-1.13L44,99.61l.69-1.39Zm42.69-.36-1.26.56.07.8.57.4.81-.11.46-.38,0-.8Zm73.67-.83,1.79,2.07,1.4,4.61,1.9,4.77,1.8,3.71-1.06-.17-1.31-1.88-1.88-3.85-1-3L162,96.35Zm-72.33-1.2,2,.93-2.28,6-.74-.16L85,100.16l-.18-.33Zm55.12-1,.66,1.13L147.7,100l-1.84,1.09-3.72,1.71-.27-.1-.55-1-1.64-4.42-.07-.64Zm-30.07-.78,1.54,2.88-.14.26-1.15.11-2.73-.2-.15-.26,2-2.79Zm44.56-.07,1.74,1.9.28,2.14h0l3,9,2.24,4.54-.58-.19-1.35-1.37L162.48,105l-2-5.75-1.2-5.68Zm-39.34-.13.85,1.23.93,1.8-.25.13-1,.1-2.64.12-.13-.13,1.7-2.79Zm-11.3-.24,1.43,3-.15.24-2.53-.34-1.28-.32,0-.1ZM125.33,92l1.26,1.45,1.25,1.9-1.41.33-3.28.41.48-1.09Zm-21.67-.7.94,3.83-1.15-.1-3.44-1,.64-.69Zm27.11-.44V91l2.82,2.73-.21.21-4,1.15-.47-.07,1.61-4ZM157,90.45,158.27,92l1.82,7.91,1.64,4.65,2.63,5.45-.8-.25-1.12-1.62-2.84-6-2.1-7.42-.67-4.16Zm-58.69-.78,0,.09.27,3.68-.2.21-4-1.44-.68-.44,1.31-.71Zm37.55-.36,3.22,2.32-.32.36-4,1.57,1-4.17Zm19-1.37,1.15,1.36.37,3,1.7,7.06,2.35,6,1.92,3.64-.15.08-.49-.25-1.25-1.73-1.81-3.46L156.94,99l-1.43-5.1-.74-5.6Zm-57.14-.29.19,0,7.31,2.15.47.57-1.62-.16-6.65-2.1Zm43.45-.56,2.3,1.27.34.79-.71.59-2.8,1.46-.09-.11ZM98.77,86.7,103.08,88l1.14.74-.47,0-5.52-1.54Zm1-.76,2.29.65.77.48.18.41h-.32L99.23,86.4l0-.16Zm11.64-.53-2.07.57-1.26,1.22v.24l.33.08c1.7-2.09,4.12-1.78,6.07-.31l.12-.43-1.36-1Zm40.91-.57h.25l.16.35,1.34,1.7.12.62h-.12l1.11,7.41,1.49,5.5,3.51,7.36H160l-.76-.62L158,105.52l-1.81-3.61-1.78-5L153,91l0-1-.23-.44Zm-51.12-.29-.16.67.77.44.24.51-2-.62Zm41.09-.23.21.85-.55.36-5.59,2.2-5.81,1.61-7.21,1.6-.05-.13,1.37-1,2.28-.52,8.4-2.36Zm-.24-1.47.08.87-5.71,2.35-6.39,2.06-4.07.92-.06-.12,1.2-1,7.18-2.1Zm-28.42-.71-.91.63-1.63.55-2.42-.18-1.58-.9-.05.09.1.49,1.22.74,1.39.31,1.92,0,1.38-.61.71-.66Zm28-.75.28.67-.24.33-1.2.7L129,87l-1,.1,1.41-1.43,2-.68.47,0,8.5-3Zm8.33-.12,1.62,2.35.69,6.13,1.21,5.83,1.22,4.18.14-.08,0,.35,2.52,5.66c-5.49-6.11-7-16-7.5-23.93Zm-8.47-1.15.08.67-3.41,1.57-.87.33-6.83,2.17h-.38l1.1-1.39,2-.52Zm-.37-1.42.17.64-.35.36-4,1.58-5,1.49.13-.52.56-.64Zm-29.84-.09-.94,1-1.23-.91h-.51l-1.8,1.13-.73.21L104.32,80l0,1.09-.51,1.38h.52l1.48-.85,1.57-.26,3.33.3,3.3-.42,1.38.2,1.92.93.36-.23v-.41l-1.15-2.25-1.18.44-1.19,0-2.2-1.22ZM147.43,78l.18,0,1.48,2.09.44,5.47,1.05,6.33,1.68,6.39,2.71,5.66-.12,0-1.13-1.17L151.61,99l-1.82-5.19-1.28-5.43-.74-4.81-.36-5.32.12-.11ZM141,77.08,141,78l-1.36.6-4.84,1.76-.23-.06-1.06.52-.42,0,.7-1.25Zm-.27-1.28.21.53-.19.33-1.13.49-5,1.58,0-.15-.2.1v-.21l.63-.8.86-.39Zm4.62-1,1.35,1.92.82,10,1.45,6.62,2.2,6.16-.71-.75-1.79-3.92-1.37-4.21-1.11-5.15-.76-6.32-.18-3.89Zm-4.81-.61.14.92-.37.31-4.7,1.6-.26-.21L136,75.7Zm0-1.58,0,1.07L136.74,75l-.46-.08.5-1,.59-.32Zm2.62-1.34,1.42,2.31.19,4.49.67,6.76L147.1,92l2,5.3-.05.13c-4.47-6.32-5.9-18.59-6.09-26.21Zm-2.81-.2.1.12V72l-.56.33-1.88.57-.39-.06,2-.89Zm-27.47-.45-1,.69.18.32,1-.37.72.21.42.51.07,1-.72.75-.67.17-.89-.11-2.82-2.31h-.79l-.39.72.36.56,2.27.77,1,.82,1.77.25,1.06-.46.5-.79,0-1.43-.67-.9Zm28.55-1.74.85,1.2.34,7.21,1,6.86,1,4.16-.15,0L143.11,84l-1.46-7.15-.57-7.48ZM163.55,66l-.33.38v1.11l.56,1.52,1.69,1.53.55-.09.13-.23-1.75-2L164,66Zm-50.2-2.7-.34.48.89.61,1.61,2.34L117.58,69l1.17.85.56,0-.2-.4-.75-.5-1.77-1.86-2.13-2.9ZM98.77,60.73l.26,1,.35.43-.53,0-1.16-.61,0-.3Zm24.68-.15h.37l1.92.87.27.35-1.77,1-1.77.51-1.15.24-.09-.18.4-.2,1.22-1Zm-7.67-.09.18.65.75,1.31,1.06,1-.45,0-3.54-1.05-1,.1-.2-.2,0-.44,1.38-.77Zm-10.12-.15h.43l.09.19,1.07.58,0,.73-2.77.84,0-.12.26-.14.63-.84Zm11.14-.13,1.32,1.86,2.13.28,1-.48,1-1.58h.33l.06.77-.66,1.2-.89.57-2.08.3-1.48-.7-.52-.67-.33-1.16Zm-17-.37.31,1.1.52.64.9.4,1.54-.11.87-.66.39-1.17.31-.08.34.38-.1.84-.72.85L103,62.6l-1.83.12-1.53-.81-.48-1.61ZM97.57,59l.59.62-.54.77-.14,0,0-1.34Zm22.37-2.11-2.83.37-2.57.87-.07.43.25.13,3.65-1.07h3.08v.11l1.39.21,2.86,1.15,2,1.24.41-.07.05-.13L126.68,59l-3.37-1.51Zm-8.6-.24-.25.3.14.28,2.32,2.46v.22l-2,2,0,.91.5.38,1.49-.17,4.44,1.29,2.73.06,2.6-.62,3.5-1.49,1.91,1.36h.9l.21-.2-.09-.51-1.75-1.46-2.47-1.62-2-.82-3.28-.82-5.13.89-1.64-.57Zm-8.6-2.33,2,.45,1.62,1L107.42,57l.26,1.72-3.37-1.66-2.46-.2-2.06.53-1.25.77.13.26h.58l.23-.23,2.12-.72h1.8v.12l.87.14,1.68.77,1.74,1.19h-.23L105,58.5l-2.9-.63-.13.15-3,.68-.53-.07-1-.72-.09-.43,1.17-1.57,1.74-1Zm57.87-.41L157,54.1l-.22.28-.1.85.41,3.24.86,2.52,1.92,2,1,.09.32-.18,0-.39-.85-.24-1.5-1.71-.93-2.39-.51-2.91.23-.09,1.75.73,2.2.36.81-.32.25-1-.68-.7Zm-49-1.45-.13.2.34.43,1.69,1.09,1.53.41,3.45.58,4.07,0,3.26.86L129,57.66l1.54,1.5h.7l.06-.32c-5-6-10.45-5.62-17.78-5.64Zm50.09-3.91-.57.18-1.26.84-4,3.73-.21.39.45.28,1.89-.87,3-1.95,1.5-1.57-.22-.87ZM94.31,47.24l1,5.25.15,0L96.71,59l.69,9.55L98,74.16l2.56,9.64L75.37,107.61l-.67.38c-3.07-3.8-4.49-12.4-3.79-17.11,2.34-15.54,13.52-25.33,21.14-38.25ZM157,46.91h-.47l-.78.4-.52,1.14.23,4.23.58.22,1.1-2.21.48-2.28-.16-1.08Zm-8.37-4.81-.39.59,0,1.59.91,3.11,1,2,1.4,1.64,1,.42.11-.35-1.39-1.43-1.4-2.61-.6-2.27L149,42.1Zm-39.12-3.54.63,1.95.73,1.21.22-.12-.12.22c4.92,6.94,16.5,8,21.78,13l6,9.93-.16,1.59-.69,1.86,0,.87.34.21h.64l.61-.57.78-1.65.63.92-.12.48-.95,2-.67.85-1.82.83-.91.75-.33.87-1.51,3-2.83,4.71-2.46,3.33c-5,5.41-11.29,9.19-18.7,7.42C99.19,89.1,98.05,72,97.66,62.37l.27-.1,1.81.94,1.21.33h2.72l3.19-.91V63l-.56.15-1,1-2.7,4,.35,0,3.76-4.77-.26,1.37-2.31,7.27.09.47,2.14,1.25,1.9,1.83.78,1.17.41.17v-.52l-2-2.46-2.34-2V71.6l2.7-9.38.52-2.7V57.9l-.31-1.41-1.32-2-1.7-1L102.81,53l-1.64.19-2,.94-1.94,1.91L97,55.76l.46-1.68L99,51.73l5.79-4.91,2.26-2.57,1.83-3.47.51-2.15Zm54.43-1.46-.31,8,0,1.48.52,5.43,1.37,5.36L167,62.15l2,4.73,1.67,2.39,0,.14-4.72,2h-1l-2.21-1.66-1.22-2.35-.06-1.63.1-.11-.19-.29-2.28-.74-1.94-1.9L156,60.36l-.67-2.91-.2-3.05-2.49-1.22L150,50.55l-.91-1.46-1.2-2.62-.27-2.31-.08-1.59-.31-.24L145.92,42l-1.12-1.16-.94-1.9-.12-1.88Zm-21.36,0,0,1.39,1.09,5.07,3,5.18L150.85,53l2.86,1.62.32.52.11,1.15,1.19,5.25,1.6,3.65,1.86,2.7,1.75,1.79.25-.07.07.37,2.77,1.73,1.11.42L163,73.27l-3.25,2.57-2,2.15-.54,1,4.49,5.38,5,5.23,6.65,5.68v11.45l-.07.1-.57-.36-3.7-3.7-5.61-6.08-8.84-10.37L146.7,75.6l-8.37-12.92-9.46-16L125,39.59l-1-2.49ZM123,37.1l.72,1.59h-.3l-1.66-.88-.53-.71Zm-2.72,0L122,38.64l1.79,1.09.12-.2.3.17,1.1,2.24h-.21l-3.88-2.15L119.24,38,119,37.1Zm-2.14,0,.23.65,1.94,2.14,4.67,2.6,1,.7.51,1.05-3.34-1.45L120,40.64l-1.91-1.82-1.08-1.72Zm-2,0,2.69,3.48L122,42.63l5.15,2.58.73,1.49-9-5-2.69-1.9-.2-.64-.84-1-.37-1.11Zm-1.83,0v.49l.44,1,1.31,1.75,1.77,1.32,8.21,4.45,2.74,1.94.1.56h-.23l-.91-.6-9.45-4.81L115,40.64l-1.6-2.77-.13-.77Zm-1.88,0c1.36,7.18,13.25,8.75,17.55,13.27l0,.14-5.75-2.69-1.73-.61-3.92-2-.46-.39-.07.08-2.67-1.75-2.91-3-.86-2.35V37.1Zm-1.52,0c.27,4.79,5.29,7.33,8.89,9.33l.21-.11v.19l9.18,4.24,2.39,2.11,0,.33c-6.26-4.39-17.41-5.72-20.81-12.88L110,37.44l0-.34Zm-2,0c-.42,2.89-1,5.32-3,7.68l-7.09,6.43-2.18,3.11-.24-.15v-.82l1.46-2.54,1.27-1.52,4.94-4.39,2.06-2.36,1.52-3,.8-2.45Zm-1.27,0c-1,8-8.29,9.33-11.51,15.3l-.17-.29.17-1L97,49.67l1.6-2.12,5.67-5,2.81-5.43Zm-1.49,0-2,4.33-1.62,2-4.85,4.15-2.05,3-.25-1.21.24-.72L96.77,47l2.59-2.56.7-.27,3.06-2.79,2.41-4.23Zm-1.46,0-2,3.95-5,4.29L95.27,48l-.13-.26V47l.38-.76,1.08-1.14,4.85-4,1.21-1.86-.11-.09,1.12-2Zm-1.92,0-1.44,3.2-1.16,1.17L94.86,46v-.38l1.28-1.83,3-2.38,2.68-3.68.19-.58Zm-1.63,0-.94,1.82-1.38,1.8-3,2.56-1.28,1.48-.06-.9L96,42.08l2.14-1.74,1.07-1.53L100,37.1Zm-1.88,0-.12.4L98.1,39.39l-3.39,3.34h-.23l.08-1.08,2-2.27,1.06-2.28Zm-2.44,0-1.15,2.23-1,1.29h-.24V37.1Zm-3.14,0L94,45.81l-1.27,3.77-1.8,3.49L89.61,54.9l.08.07c-8,13.23-18,21.84-19.73,37.57l.46,5.65,1,4.78,2.56,6L58.61,123.47l-.44.13-2.14-3-2.28-2.31-3.82-2.39.5-.23h1l2.48.81,3.21-.16L59.9,115l1.61-1.72-.25-.33-1.19.26-2-.2-3.7-1.25-1.8-.35-2.29.5-2.07,1.3-1.56,1.57h-.55l1.8-5.18,1.77.7h1.37l1-.38.9-1.28.2-1.68,1.16-.44,1,0V106l-.59-.6-.82-1.45.77-2.16-.34-1.69-.75-1-.66-.31L51,98.71l-.28-.53-.28-1.74-.37-.24-1.29,1.38-.57.21L46,97h-.46l-1.06.47-1,1.12-.47,2.3-1.81.73-.27.32,1.4,1.53.13.37-.86,1.67-.08,1.61.77,1.38,1.1.5H45.2l.26.91-.57.39-1.4,3.54-.63-.07c-.41-6.58-5.19-5.93-7-10.29H35.6l0,1.82.25,3.36,1.58,3.6,2,2.19-.81,1.07.14,1.54.92,1.34-.68.85-.07.94.27,1-.59,1.07.17,2-.36.53v.84l.64,2.27,1.32,1.8v1.81l-.24,5.3.23.45,1.8-.12.55-.63.12-4.55.13-.8,2.21,1.05,2.78.31.79-.45-.45-.27-1.25.08-1.84-.27-1.87-1-.42-.43.08-1.57.14-.19,2.47-.55,1.16-.54.83-.91-.28-1.5.53-.73L47.84,123l1.8,1.55,2.42,1.22,1.58.17.11-.16-2.38-1-1.64-1.48-.1-.56.48.19,1.54.22.42-.17-.21-.2-1.58-.41-2-1.4,0-.13,1.92-.22.13-.34-2.59-.3-3-1.17L42.48,117l-.9-1.88.2-.9h.61l.84.44-.06.46L42,115l-.25.29.29.37,1.46.22.51-.91c5.39.23,11.32,4.38,13.78,9.28L35,145.84V37.1ZM34,290.16H174.2v-254H34Z"/><polyline class="cls-6" points="50.1 247.47 50.01 247.66 46.51 251.44 49.22 255.56 71.07 289.2 78.37 289.2 74.49 282.18 66.75 270.56 55.04 254.04"/><path class="cls-6" d="M130.48,220l-.41.2-7.81,7.71.28,1.76-.15,2.51-.94,5.36-2.51,5.83-9,15.1-.07.87.18,3.9.77,7.05.86,3.95.26.15c8-18.4,24.32-27.72,20.2-50.54"/><path class="cls-6" d="M136.84,182.72l-.44.77-.11-.07-2.79,5,.17.11-.5.57v.47l-.86,3.57-.13,2.15.25,3.64,1.25,4.52,1.7,3.53,3.63,4.6,2.58-2.63-2-2.75-2.34-4.46c-1.43-5-1.3-11.62,2.51-15.6l-.47-.94m-27.75-3.32-.09.16.27,2,2.35,9.86,1.36,4.31,3.32,9.18,2.67,5.24.69.95,9.86,4.66.73-.44,2.78-2.79-11-5.27-2.66-5.65-2.51-6.6-4-14.92-.32-.14Zm-16.73-2.29L92,186.3l-2,3.75-3.49,5.59-2,2.83-2.19,2.28-2.58,2.07-2.69,1-6.57,1.23-5.61,4.26L60,212.26l1.6.1,22-5.25.67-.55,3.11-3.9,4.08-6.48,4.15-8.26,2-5.14.61-2.8ZM130.56,178l2.08,2.2.26.65-3,.2L128.46,180l-1.11-1.17,1-.46Zm-8.76-3.06,2.91,2.76-.07.08-.47.19-2.91.3-2.85-2.49Zm-10.28-2.45,3.1,2.69-.08.16-2.93.47-.74-.11-3.05-2.2.11-.2Zm-10.76-2,3.58,2.3-.13.22-.76.24-3.15.81L97,172.2l.26-.28Zm-11.36-.41h.41l3.5,2.08-.11.19-2.78,1.18-1.36.24L86,172l.44-.45Zm.39-1.65-1.29.17-4.61.48-.12,1.18.14,0,0,5.65a98.8,98.8,0,0,1,49.19,8.92l2.29-3.14-3.32-4.27a106.17,106.17,0,0,0-36-8.94ZM35,167.33v8.3l25.7,29.62,1.58,1.52,1.62-1,2.6-2-1-.93L48.31,182.84h-.1Z"/><path class="cls-6" d="M118.51,151.84l1.54,1.46v.33l-1.85,1.57h-.47l-2.51-1.41.08-.17m-7.08-2.18,2.67,1.85-.22.4-2.41,1.15h-.92l-3.16-2,.16-.17ZM97.7,150.06l2.18,1.86V152l-1.08.6-1.64.44-.56-.13-2.38-1.86.13-.24Zm-10-2.44,2.35,2.1-.23.29-2.38.46-1,0-2-2,.63-.35Zm-9.6-2.92,2.32,2.37-.17.32-2.61.18-1.91-2.26.21-.17Zm-2.6-3.64-2.66,3.69,3.57,4.33,2.4,1.27,5,1.7,8.94,2.29.7,0,9.7,2,7.37.76,6.64.28,7-.39-.23-4.74.19-3c-13.68,2.14-33.73-.93-46.31-6.69Zm69.91-21.94-.34,0L141.42,122l-.21.37.39.23,31.66,36.53v-8.35Zm-76.76-4.36L66.35,117l0,0-.6.65,3.16,3.76,1.2,2,.7,2.25.32,2.56-.1,3.43-.89,3.45-1.89,3.28-1,1.12,3.1,3.07h.39l.9-.92,1.83-3.2.94-2.91.74-5.05-.45-6.14-1.74-4.14-1.79-3Zm79.25-1-7.28,2.34-6.26,1.59-12.06,2.4-.37.23-.89,1a75.33,75.33,0,0,0-12.33,25.42l3.59.33,2.69-6.53,4.2-8.44,2.11-3.24,3.54-4.46,7.95-1.47,4-.6,1.46-1.46,3.32-2.6,6.09-4.11.28-.39ZM75.3,108.64l-.94.63L72.44,111l11.94,7.5,2.67,8,4.23,13.28.89,4.1,1.37.42,2.81.61-2.66-11.23-2.38-8.4-2.89-8-.81-1.66-1.72-1.14L76.37,109Z"/><polyline class="cls-6" points="95.23 51.33 95.03 51.33 94.41 53.55 93.53 55.35 88.67 63.97 80.71 75.29 77.46 81.47 75.84 86.15 74.98 89.9 74.6 95.52 75.09 100.83 76.3 104.31 77.2 105.77 77.69 106.14 78.09 105.99 85.25 99.1 84.96 98.72 85.01 91.25 85.22 91.04 85.51 89.15 86.54 86.34 88.87 80.96 96.89 67.63 97.36 66.2 97.66 66.08 97.79 64.94 97.14 58.91 97.22 58.76 96.88 58.23 96.61 56.15 96.43 56.04 96.46 55.62 95.67 52.06 95.35 51.9"/><polyline class="cls-6" points="136.02 37.1 129.06 37.1 133.15 44.51 149.09 68.87 156.82 79.06 157.29 79.06 158.86 77.39 161.6 75.15 160.94 73.94 143.85 48.99"/><path class="cls-3" d="M37.42,67.5A128,128,0,0,1,54.94,93,126.45,126.45,0,0,1,72.46,67.5,126.17,126.17,0,0,1,54.94,42,131.72,131.72,0,0,1,38.83,65.93"/><path class="cls-3" d="M135,258.86a128,128,0,0,1,17.52,25.49A126.58,126.58,0,0,1,170,258.86a126.86,126.86,0,0,1-17.52-25.49,131.21,131.21,0,0,1-16.11,23.92"/><path d="M172.06,38.14v250H35.91v-250H172.06m2-2H33.91v254H174.06v-254Z"/></g></g></svg>