<svg xmlns="http://www.w3.org/2000/svg" viewBox="0 0 208 326"><defs><style>.cls-1{fill:#fff;}.cls-2{fill:#6f7072;}.cls-3{fill:#f8261b;}.cls-4{fill:#facb1b;}.cls-5{fill:#001400;}.cls-6{fill:#1d1d1b;}</style></defs><title>QH-us-2c</title><g id="Calque_2" data-name="Calque 2"><g id="FR_-_EN" data-name="FR - EN"><path class="cls-1" d="M14.83,325A13.84,13.84,0,0,1,1,311.18V14.82A13.84,13.84,0,0,1,14.83,1H193.17A13.84,13.84,0,0,1,207,14.82V311.18A13.84,13.84,0,0,1,193.17,325Z"/><path class="cls-2" d="M193.17,2A12.84,12.84,0,0,1,206,14.82V311.18A12.84,12.84,0,0,1,193.17,324H14.83A12.84,12.84,0,0,1,2,311.18V14.82A12.84,12.84,0,0,1,14.83,2H193.17m0-2H14.83A14.83,14.83,0,0,0,0,14.82V311.18A14.82,14.82,0,0,0,14.83,326H193.17A14.83,14.83,0,0,0,208,311.18V14.82A14.83,14.83,0,0,0,193.17,0Z"/><path class="cls-3" d="M21.42,69.57C24.76,66.77,31.86,56,30.16,51a4.59,4.59,0,0,0-8.74-.47c-1.59-3.57-6.21-4.1-8.25-.65C10,54.79,17.72,65.92,20.8,69"/><path class="cls-3" d="M186.86,69.57C190.2,66.77,197.3,56,195.6,51a4.59,4.59,0,0,0-8.74-.47c-1.59-3.57-6.21-4.1-8.25-.65-3.17,4.89,4.54,16,7.62,19.14"/><path class="cls-3" d="M21.43,254.64c-3.35,2.8-10.45,13.61-8.75,18.56,1.46,4.41,6.85,4.61,8.75.46,1.58,3.58,6.21,4.11,8.24.66,3.18-4.9-4.54-16-7.62-19.14"/><path class="cls-3" d="M186.87,254.64c-3.35,2.8-10.45,13.61-8.75,18.56,1.46,4.41,6.85,4.61,8.75.46,1.58,3.58,6.2,4.11,8.24.66,3.17-4.9-4.54-16-7.62-19.14"/><path d="M172,38.5v250H35.87V38.5H172m2-2H33.87v254H174V36.5Z"/><path class="cls-3" d="M14.35,28.71l-1.32,0H11.81l0,3.62h2.5c-.38,4.19,0,7.87,3.94,10a6.93,6.93,0,0,0,7.63-1C28.27,43.15,28.1,43,31,42.86V39.33c-1.1-.09-2.34.46-3.09-.63l-.15.28.2-.42.27-.87.19-.9.05-.48V14.75l-.05-.47-.19-.91L28,12.51a7.2,7.2,0,0,0-4.7-4.21,7.1,7.1,0,0,0-8.9,6.45m3.34,18.07c1.4.52,5.06,4.77,5.92,6.07A3.73,3.73,0,0,1,17.69,36Zm7.42,3c-2.72-2.49-3.85-5.55-7.42-6.64V15.05l0-.44.2-.72.13-.33.29-.48a3.66,3.66,0,0,1,2.49-1.58,3.72,3.72,0,0,1,4.27,3.55Z"/><path class="cls-3" d="M179.79,28.71l-1.32,0h-1.22l0,3.62h2.5c-.38,4.19,0,7.87,3.94,10a6.93,6.93,0,0,0,7.63-1c2.35,1.82,2.18,1.69,5.07,1.53V39.33c-1.1-.09-2.34.46-3.1-.63l-.14.28.2-.42.27-.87.18-.9.06-.48V14.75l-.06-.47-.18-.91-.27-.86a7.21,7.21,0,0,0-4.71-4.21,7.09,7.09,0,0,0-8.89,6.45m3.34,18.07c1.4.52,5.06,4.77,5.92,6.07A3.73,3.73,0,0,1,183.13,36Zm7.42,3c-2.72-2.49-3.85-5.55-7.42-6.64V15.05l0-.44.2-.72.13-.33.28-.48a3.71,3.71,0,0,1,6.77,2Z"/><path class="cls-3" d="M193.9,295.61l1.32,0h1.21l0-3.62H193.9c.37-4.19,0-7.86-4-10a6.93,6.93,0,0,0-7.63,1c-2.34-1.82-2.17-1.68-5.07-1.53V285c1.1.09,2.34-.46,3.1.63l.14-.28-.19.42-.28.87-.18.9-.05.48v21.56l.05.48.18.9.28.86A7.17,7.17,0,0,0,185,316a7.1,7.1,0,0,0,8.9-6.45m-3.35-18.07c-1.39-.52-5.06-4.77-5.92-6.07a3.73,3.73,0,0,1,5.92,2.87Zm-7.42-3c2.73,2.5,3.85,5.55,7.42,6.64v14.1l0,.43-.19.72-.13.33-.29.48a3.68,3.68,0,0,1-2.5,1.58,3.72,3.72,0,0,1-4.27-3.54Z"/><path class="cls-3" d="M28.46,295.61l1.32,0H31L31,292H28.46c.37-4.19,0-7.86-3.95-10a6.93,6.93,0,0,0-7.63,1c-2.34-1.82-2.17-1.68-5.07-1.53V285c1.11.09,2.35-.46,3.1.63l.14-.28-.19.42-.28.87-.18.9-.05.48v21.56l.05.48.18.9.28.86a7.17,7.17,0,0,0,4.7,4.21,7.1,7.1,0,0,0,8.9-6.45M25.11,291.5c-1.39-.52-5.06-4.77-5.92-6.07a3.72,3.72,0,0,1,5.92,2.87Zm-7.42-3c2.73,2.5,3.86,5.55,7.42,6.64v14.1l0,.43-.2.72-.13.33-.29.48A3.68,3.68,0,0,1,22,312.82a3.73,3.73,0,0,1-4.28-3.54Z"/><path class="cls-3" d="M54.47,89.29c3.39-2.65,5-5.58,7.51-9.07a73.35,73.35,0,0,0,8.6-15.78c1.73-4.2,2.68-8.7,1.59-13.21-2.94-9-13.86-9.45-17.7-1C51.27,43,41.92,41.86,37.8,48.94c-2.39,3.66-1.54,10-.06,13.88a73.39,73.39,0,0,0,6.9,14c2.42,3.3,5.49,8.73,8.58,11.41"/><path class="cls-3" d="M152.38,236.57c-3.39,2.66-5,5.58-7.5,9.08a72.72,72.72,0,0,0-8.61,15.78c-1.73,4.2-2.68,8.7-1.59,13.2,2.95,9,13.86,9.46,17.7,1,3.2,7.33,12.56,8.42,16.68,1.34,2.38-3.66,1.53-10,.05-13.89a73.68,73.68,0,0,0-6.9-14c-2.42-3.29-5.49-8.72-8.58-11.41"/><path class="cls-4" d="M32.73,171.69l-.14,2.74.14,1.85,4.05-3.49,11.85-10.51L59,153.2l.05.42-1.46,4.5.24.57-.29.24L56.2,165l-.6,5.64v1.29l-.33,3-.81,16-.8,8.13,0,.95-.23,2.39-1.37,5,0,.38L53.85,210c4-13.47,2.6-27.82,4.34-41.64l1.41-8.4,1.41-5,2.73-7.22,3.47-7.31,1.89-2.78,1.78-2.19.15-.66-.76-2.88-1,.77-3,3.67-2.82,5.26-1.79,4-.51.72-5.22,4.54-1.13,1.25-.29,0-.23.43-2.82,2.39-1,.91L37.63,167.26l-3.11,2.85-.85.58-.32.48H33.2m.66-44.07-.56,1.39.37,1.34.58,0a20.08,20.08,0,0,1,12.65-9.74l0-.57-1.45-1h-.57l-1.88.57-3.58,2.11-2.82,2.28Zm-.22,14.58-.34,2,.34,2.83,1.82,1.14,1.74,1.91.43.06.15-.34-.39-1.81.52.18.85.48.56-.24-.24-1.34.15-.09.9.62,1.27.19.09-.61-.71-.59-2.4-4.54-2-1.67H35.14l-.47,1.15-.67.1Zm-.06-7.78-.28,1.19.37,1.33,1.56.62,0,1.2.47.71,1.41-.18L38.2,138l1.54-1.77,2.45-2.57-.23-.35-.62-.13-1.83.42.14-.53-.28-.66H38.23l.2-.29.65-.43.85-1.82-.32-.81-1.89,1.62-3,1.93Zm.89,23.84-1,1.43.18,1.38.53.83,1.08.66H36.4l1.18-.72.62-.9.09-1.49-1.47-1.47-1.07-.15Zm4,84.26-1.59,1.48.14.25,3.71,2.33,3.53.15.43-.3.37.34.23,4.26,2.31,3.77.62.48.65-1.2,1.36-1.71.94-1.63v-2.87l.29-1.53,4.14-.14,4.65-3.15-.56-.59-.66-.23-4.14-2.34-.43.24-2.12-.06-.23.06-.61-.24L51.4,235l-.6-.66-.43-4L49.29,225l-2.54-6.17-.47-1.57.62-.29a18.06,18.06,0,0,0,13.35,3.82v-.33l-4-4-2-1.2-1.88-.75-1.84-.33L45.86,214l-1.51.15-2.12.42L41.76,216l-1.07,1.72-2.4,2.92-1,2.66.1,5.89-.46,2.72,1.77-1,2.36-2,1.46-2.29.89-3.34.61-5.13.15-.13.27.18,2.26,4.69,1.37,3.73.71,3.82-.2,1.2L47,232.92l-1.84,2.57.09,5.11-.56-.27-4.47.14Zm.85-103.42-2.07.85,0,.39,1.61,1.24,2.12-.62,1.21-.44,2.08-1.19,3.2-2.53,2.54-2.86,2-3.35,1.08-3L53,125.9l-1-1c-1.79,5.76-5.54,10.7-11.07,13.1Zm2.17-26.67-.15.24.19.19,1.88,2.81,1.75,2.39L47.22,119l1.6,0,.32-.44.49-1.52L51,117l.32-.39-.18-2.13-.94-1.73-4.38-3.49-.42.24.1.86.85,1.86L45,111.47l-.67.15.61,2-1.64-1.34-.89-.48Zm2.17,12.71-1.52,1.63v.52h.56l.2,0,1.93-1-.34,1,.29.81,1.5-.39-1.22,2.3.14.62.32.24.91-1,4-2.83,1.27-2,0-1.76-.47-.44-2-.37-.28-.48.09-1-.52-.58-1.5.2-1.41,1.1Zm2.15,119.2-.7-.87.79-1.1,2.73-2.57,3.06,2.81.42.72L49.9,245.2l-1.45,1.29-1.75-1.86-.51-.15Zm1.94-99.41L46.57,146l.09,1.24L47,148l1.12.87h1.7L51,148l.56-1.23-.18-1.29L50,144.21l-1.37-.09Zm3.47-26-.85.87.43,1.43.8.62,1.12-.24.67-.81-.29-1.15-.89-.76ZM51,111.8l-.28.83.89,1.43.51,0,1.32-2.87,1.79-2.67L58.84,105l2.49-1.71-.23-.39,2.26,1.14,3.38,2.16,2,.86L75.16,110l3.16,1,1,.62.42.34v-.29l.43.09,6,15L95,148.27l.53,1.82-3.91-.81-2.16-.53-5.55-1-4-1.28-.23.05-1.09-.86-3.47-2-2.54-.57.66,2.92.84.19,1.89.81,3.58,2.48a19.62,19.62,0,0,1,4.32,21l-2,3.73-1,1.29-3.47,2.9L74.5,180l-4.14,1.44-1.83.42-.38-.13.24-3.31,1.23-7.88.47-.67.42,2.3,1.17-.72L74.13,169l1.08-1.72.76-2.58,0-2.63-.66-2.29-1.12-2.16,0-.53.89-1.71-.42-3.34-.38-1.25c-6.22,10.1-7.55,20.68-8.32,32.35l-.29,13.1-.89,9.36-.8,4.88-1.79,7.07-1.08,2.48.1.35,1.18,1.82.6-1.1,1.65-4.21,1.64-7.26.53-3.55.85-12.52.09-8.27.27-.95c6.52-.68,13.88-4.91,17-10.94,4,.91,8.54,1.64,12.46,2.67l0,.49-1.17,3L80.11,216.85l-.85.39-2.08.72L70.79,221l-6.63,3.48-.19.44,3.24,1.23.8-.33,4-2.1,8.52-3.63,6.64-2.1A87.91,87.91,0,0,1,100.1,216c8.17-.51,16.24.81,24.21,2.48,8.15,2.95,16,5.21,23,10.9l2.68-1.67c-7.48-6.17-16.49-10.88-26.06-12.43l-1.41-3.54-9.41-24.23-3.43-8.12-.18-.87,2.58.68,2.26.33,8.47,1.77,1.27.34c2.93,1.72,6,3.74,9.5,3.87l-.71-2.63c-9.12-2-14.26-10.71-13.73-19.78.75-9.81,9.55-16.93,19.05-16.73l-.62,6.55-.47,2-.18-.34-.52.58-1.38.37-2.67,1.2-2.72,2.59-1.47,4.06.1,3L129.3,169l1.37,1.67.93,1.29-.56.72.76,3.58.56-.57,2.53-5.16,2.08-5.46,2.07-7.74.23-2.86.42-3.35.61-7.45.15-1.43.05-2,.33-4.15.43-6.36.18-4,.65-4.07L144,113l1.59-4.67-.05-1.3-1.22-1.39c-2.46,3.81-3.67,11.44-4.37,15.68-1.75,7.18-1.41,15.29-1.65,22.51-8.17-.92-15.24,3.79-19.23,10.95H119l-.52.24-9.73-2.1-1.22-.53.75-1.73,7-15,10.64-22.28.79-2.15,3.15-1.19,7.44-3.39,3.29-1.67,1.93-1.25-.14-.24-.09-.57-2-1-1.4-.15c-12.58,6.51-24.93,10.74-39.28,9.71-10.29-1-15.26-1.72-24.61-5.59a93.29,93.29,0,0,1-15-8.13l-3.24,1.86.28.29.76.85.38.15L59.36,102l-2.55,1.78-2.35,2.62-1.88,2.49Zm1.73,2.5-.79,1.81.09.73.29.28,1.88.33.61.24-.29,1.19.42,1.1,1.56-.29,1.64-1,2.12-2.81,2.44-2.39-.51-.53-1.46.2-1.41,1,0-1.43-.76-.2.2-.28.56-1.1,0-1.82-.37-.14-2,2.11-1.46.81Zm.38,8.13-.79.42c.26,4.86,3.37,4.54,6,6.84l.65-.53-.56-1.48.56,0,1.14.2.09-.72L59.73,126l.66.14,1,0,0-.61-1-1.25-1.09-1.43L58,121.47l-1.75-1-1.31-.14-.38.38-.41,1.68Zm3.95-23.09h-.37v.24Zm1,20.46-.33.57.66.71.94.24,1.84-.77,2.35-1.43L67.21,116l-.09-1.23-.52-1.06-5.27,4.44Zm1.09,13.14-.62,1.33.09,1.15.29.63,1.23,1H62l1.08-.95.38-1.62-.52-1.35-1.27-1L60.58,132l-.71.1Zm4-37-.47.37L65,98.33l1.52,0,.89,1.14,1.93,1.4.6,0,1.28-.15,1.08.73.28,1,1.74,1.19,2.35.28,1-.18.61.9,1.69,1,.66.34,2.39,0,.52-.53.62,1,1.5,1.15,1.79,0,2.92-.57.32.48.89.72,1.75.67,2.07-.14,1.35-1L98,109l1.74.43H102l.89-.29.38-1.05h.7l1.6,1.19.85.35h1.37l1-.49,1.27-.38.7-.91.62.33.65.2,3.4-.29,1.08-.28,1.5-1.34,1.18.52,3.2-.14.75-.48,1.26-1.39.34.11,2.49.22,1.08-.37,1.74-2.06.14,0,2.12,0,1.27-.57.94-1,.14-1.34-.8-1.67-.79-.29-2.84-2-3-2.68-1.84-1.76-.42.23-.71,1.44H124l-.53-.33-1-.06-2.17.63L119.33,95l-2.44-.47-1.46,0-.85.24-1.36,1.38-2.93-.52-1.36.09-.8.61-.88.15-.53.48L105.37,96l-2.46-.09-1.27.24-.85.62h-.56l-.27-.34-.85-.33-1.27-.39-1-.09-.56.38L95,96.32l-.62,0-.7-.76-1.6-.43-1.36,0-1.56.29-.28-.53-1.59-1-.9,0-2.16.09-1.46-1.34-1.89-.61L79,91.74l-.7-1.06L77,90.11l-1.32.06-1,.27.18-.38.14-1.2-3.38,2-4.14,2.39-1.18,1-.38.05Zm5.41,130-.74.25.38.13Zm1.61-57.4.38-1.86.7-2.53,1.27-3.35.52,1,.19,2.77-.8,2.25-1.79,1.57Zm2.87,57.74-.75,1.82.09.71,1.79,1.09,4.7,3.59,3.1,2.73.23-.59.81-.71h.33l.65.29,2.26-.38,1.23-1.15.42-.66.38-.11,1.23.63,2.3-.24.94-.57,1-1.58.57,0,.6.38-.09.35,1.36.42,2.22-.2.71-.28,1.32-1.1,2.3,1.25,1.74-.05,1.64-.77.24-.38h.47l.56.48,1.74.81,2.49-.24.81-.62,1.36,1.05,1.32.24.56.34h1.18l1-.44.37.06,2.17,1.62,1.32.09.88-.33.66-.1.61.82.2-.15,1.59,1.43.71.2,1.59-.38,2.26,2.15,1.27-.24L133,238l5.27-3.4,3.62-2,2.48-2.06-1.07-1.14-1.28-.77-1.78.24-.7-1.49-.85-.76-1.7-.67h-1l-.75.29-.25-.48-.18.05-.6-1.39-.76-.63-1-.33-2,.15-1.12.18-.56-1.34-1.32-.85-.76-.34-2.11.24-1,.73c-.93-2.8-2.87-3.45-5.64-2.74l-.85,1.34-.71-1.19-1.32-.86-1.92-.48-1.6.48-.61.82-1.22-.11-.33-.51-1.08-.68-2-.43-1.73.57-1.09,1-.42,0-1-1.14-1.22-.38h-.7l-1.65.14-.85.39-1.46,1.62-.37-.33-1.5-.54-1.57,0-2.15.58-1.37,1.57-.84-.57-1-.38-3.3.66-1.36,1.67-1-.23H80l-1.56.67L76.67,225l-1.37-.19-.89.15Zm12.18-11.38.28-.81,1.17-2.48,2.08-5L92.61,197l4.66-12.13,2.22-6.75.65-.95,3,.43.94.39,1.54.18.81.52,1.54,6,6.55,20.84,1.73,4.59,1.23,2.3-.29.66-.51.1-1.84-.3-4.88-.22-.67.13-.28-.28-1.69-5.73-1.7-6.69-1.31-5.46L103,186.56l-.65-2.54,0-.71-.33-.52L99.9,193.2l-3.38,12.05L94,213l-.61.13Zm.47-61,.09-.29,2.35.68,2.27.37,4,.86,2,.29,16.27,3.35,3.29.57.75.44-.46,3.95V166l.23,1.52.83,4,2,3.77.62,1.49-2-.38-10.71-2.3-3.2-.76-10.55-2.2-2.77-.72-1.46-.33L87.58,170l-.14-.24H87l.56-2.26.42-4.3-.7-5.39Zm.42-39.57-.13-.48h1l3.44.68,4.37.66.37.42L98.31,126l2.3,9.94.94,7.64.51,2.29L104,136l2.55-9.32,2-6.16,1.6-4.74.61-.75,1.5-.24,3.39-.39,2.26-.57.65.14-5.63,13.67-4.76,12.15-2.35,8.31-1.12,3.43-.61.06-4.85-1-.52-.33-1.55-4.69L93,130.5l-2.35-6.12Zm8.23.9-.33.11.24.23Zm25.4,61.13v.19l-.27-.24Zm11.49-10.56.09-2.19.89-2.39,2-2,2.11-.77v.92l-.61,2.53-1.55,4.78-.94,2.24-1-.91Zm5.87,23.95-2.35,2.77.89,3.49,2.44-2.83,2.83-3.82,2.26-4.39,2.06-4.78,1.84-1.87,14-12.23,5.93-5.7,4.42-3.91,1.12-.76V153l.34-1.43-.38-.53-.75.57-3.82,3.49-4.65,4-7.62,7.31-1.73,1.44-6.41,5.73-.56,0c6.76-16.9,2.62-36.52,7.85-53.91l-1.26-2-.76-.57c-2.63,8.43-2.75,16.49-3.67,25.09-.39,18.23-1.93,28.2-10.06,44.59Zm5.45,18-3.43,3.25.43,1.91.47.28,3.19-3.14,3-2.25,2.64-1.34.24-.62-.94-.77h-.62l-1.79.68Zm.15-17.83-1,1.4.43,2,.7.72h.42l.94.48.67-.2,1-.82.56-1.52-.6-1.44-.9-.56-1-.19Zm3.9,20.65-2.35,2.11.13.38.72.33,1.27-.38,1.41-1.1-.33,1.28.24.44.74.1-.47.57-.61,1.72.14.67.53.38,1.92-2.06,1.55-.95,2.41-1.77.79-1.38.24-1.49-.71-.38-1,0-1.23-.48.24-1.58-.33-.62h-.7l-1.28.48-1.84,1.57Zm-.75-10.41-.66.13.66,1.45.28,0,1.13,1.34,2,1.95,1.84.77,1.18-.19.14-.77.42-.95.71-.05.85-.43,0-1.19-.88-1.92-1.36-1.38-2.46-1.39-1.4-1.14-.52.09,0,.57.81,1.91-.2-.14-1.08-.38-.89.19.71,1.87Zm3.38,20.11-3.57,2.72.09.44.85.76,1.27-.14,1.74-1.25,3.49-3.76,1.5-2.21,1.41-2.57.09-1-.85-1.05h-.37l-.51,1.1-2,3.53Zm1.52-113.51-3.87-.18.14.48,4.56,4.68,1.56,1,1.88.67h5.08l2.59.58,1.64-1.16,4.09-5.15.94-1.53.24-1.72.29-4.78.61-4.3-1.32.81-.94.53-2.69,2.53c-2.46,4.78-1.75,5.22-2.54,10.56h-.27l-3.2-7.08-1.32-6.4.27-.09,1.14-1.25,2.21-2.68.33-4.54-.28-.52.24-.09.32-.39.53.43,4,.05,3.11-2.68.38-.57-1.32-1.2-2.26-1.24-.85-.38-2.48,0-.9.48-.09-4L161.05,75l-1.74-2.5-3.2,4.5-.42,4.63-.61-.19-2.26-.19-1.74.15-.28.09L148.64,83l-1.37,1.58,0,.38,4.65,2.48,1.32.15,2.63.15,0,2,.32,3,.34,1.67.28,3.26.85,3.91,3,8.33.06.66-1.89-1.2-4.14-2Zm-.86,3.92-.51,0,.43.29Zm3.68,95-.11.77.33.72.85.72,1.28-.24.33-.57-.11-1.34-.78-.72-.9-.05Zm.18-6.4.29,1.29.84.67.37-1.29,1.14-2.82,2.63-3.82,1.73-2,4.11-2.83,4.18-1.62.09-.63-1-.81-.8-.14L165,186l-.66.28-2.4,1.39-3.66,3.15-2.08,2.68-1.41,2.57Zm1.08-114.6,3.62-3.68.62-.15.51.33,3,2.73-.05.14-.05.44-3.81,4.19Zm.62,116.32-.48,1.63.1.53.51.66,2,.39.51,1.81.41.23,1.61-.42,1.41-1.43,1.27-2.43,1.5-1.78.29-.76-.56-.09-1.38.66-.93.53.43-1.06-.33-.81-1.46.39,1.08-1.86.09-1.11-.47-.09-.56.76-1.32,1.05-2.68,1.82Zm-.14-22-.24.81.33,1.25,1.5,1.14,1.46-.05,1.13-.85.57-1.25-.25-1.49-1.36-1.14-1.59-.05-1.09.86Zm.61,30.3-.43.47.7,3,1.79,1.9,3.3,2.35.09-1-.75-1.91.62.37,1.07.38.14-.95-.61-1.2.33.11,1.69,1.53,1.56.18.13-.51-.75-.74-2-3.14-.89-1-.38-.48L160,207.26l-1.6-.24-.65.37-.25,1.34-.27.44Zm4.23-3.25-.37.49,1.59,1.08.8,0,2.82-1.25,2.73-1.82,2.53-2.3,2.32-3,0-1.91-.41-.38-1.45,1.95-2.36,2.63-3.2,2.44-3.38,1.58Zm6.57-15.78-2.1,2.17.28.46,1.32,0,.94-.38-.15.47.33.82,1.23-.14-.89.81-1,1.62.35.92.61-.49,2.48-1.77,2.35-1.82.29-1.38-.29-1.91-1-.33-.23-1.77-.38-.24-.47-.05-1.41.53ZM165.85,179l-.66.13.1.38.85.77,1.82,3.83,2.3,2,1.18,0,.43-1.1.85-.53.14-3,.15-.81-.49-1.25-1.26-.81-2-2-.38.33.06.9.47,1L168,178.1l-.71.14.27.77.15,1-.75-.62Zm3.63-14.54-1.42,1.76.19,1,1.5,1.48,1.32.14,1.32-.81.66-1.91-.62-1.19-1-.72-1-.09Z"/><path class="cls-4" d="M59.4,257.92,57,257.77l1.7,3.11,1.07,3.38,1,5.31.28,3,.28,3.55v4.49L61.1,287l-.71,2.48-.32.48.89.14,7.85.06,6.11-.3,2.5.06.43-.59-.29-2.61-1.27-2.17-2.67-3,1.5,1.24L77,285.2l.85,2.05.33,2.3.28.15,1.79,0,.33-.34L80.38,287,79,284.2l-2.17-3.06-2.44-2.39c-1-3.88-3-8.64-6.73-10.46l-1-4.31-1-1.76-1.92-2.74L62,258m.8,12.62.85-.53,1.32.19.23-.72.18.77,1.65,1.38-1.32-.9-.65-.15-.15.72-.56.53-.7.24-.71-.72Zm.7-12.86-.61.24,5.46,5.69,1.7,2.43,1.83,3.78L73.66,275l1,1.88,1.08.23.62.28-.24,1.11.09,1.1,5.65,6,.85,1.53.65,2.39.61.19.53.53,4.37.05L80.85,277.6,67.36,256.38l-1.09.49Zm.29,28.34.09-.72L66,283.58l4.75-2.39v.38l-5.46,4.64-1.12.18Zm2.26-6.27v-.51l.56-.39,1-.05,1.28.44,1.4,1.14-1.87.15-1.27-.1ZM70.18,286l.47-1.86.89-2,.52,1.68-.18,2.24-.72.9-.71-.42Zm13.59-5.35-.24.42H84Z"/><path class="cls-4" d="M75.68,86.05l-.47,2.57h.38L90.08,80l.22-.39C87,75.1,83.54,67.49,82.79,62l-1,2.63-1.41,3L78.88,72l-1.27,4.58"/><polyline class="cls-4" points="121.4 245.34 117.22 247.83 120.88 253.95 123.23 259.39 124.6 265.6 126.15 261.83 128.27 256.1 130.24 247.88 131.89 238.75 129.39 240.18 124.89 242.9 123.37 244.06 121.69 245.14 121.31 245.01"/><path class="cls-4" d="M123.89,37.3,119,37.21l.06.38,5.12,8.26,7.49,12.57,1.59,2.5,6.78,10.79,2.25-1,2-.42.29-.77L143,68.18l-3.4-3.54-2.54-3.92-2.26-5.35-1-4.12-.46-.42-1.79-.57-.1-.24.1-2.11-.76-.76-4.37-5-.85-1.43-1.31-3.29m3.48.18-1,.3.34,1.48,1.32,3.15,2.07,3.25,3,3,.62,2.59,1.36,3L137,57l3.2,2.67.24,1.67.89,3.07,2.44,3.82,1.83,1.71,4.7.39.11-.15-.76-1.23.09-.44-.36-.09.23-.72L149,66l-1.42-5.45,0-.81-.47-2.92-.19-1.34a41.91,41.91,0,0,1,.94-18l-1.12-.14-9.7,0-6.82.1-.47.62.1.81,1.36,3.45,2.12,2.87-2.5-2.83-1-1.58L128.74,38Zm8.19,6.65-.14-2,.61-1.67h1l.24,1.34-1.27,3.53Zm0,3.5.14-.24,0,1.32Zm1-1.4,0-.19,3.76-3.39L143.09,41l.79.33v.77l-.37.67-3.3,2.06Zm.72,1.16-.25-.35.29-.18h2.49l1.27.62.14.76-.56.38-1.51-.14Zm3.38,8.88-.19-.19.85.61.79.25.15-.73.51-.61.85-.1.57.58.09.81-.66.57-1.36-.14-.33.67-.09-.77Z"/><polyline class="cls-3" points="33.63 175.38 33.3 176.09 33.3 202.99 33.49 203.38 34.47 200.9 35.32 199.52 37.06 197.88 39.04 196.98 40.69 196.84 41.2 196.84 43.17 195.07 45.72 193.58 47.27 193.01 50.1 192.48 51.13 192.39 52.54 192.11 53.99 192.11 54.66 191.43 54.33 190.86 54.51 188.23 54.66 184.21 54.98 179.54 55.41 174.08 56.3 166.19 57.34 160.79 59.64 152.68 59.78 151.62 55.87 155.49"/><polyline class="cls-3" points="48.36 238.8 44.22 243.05 45.96 244.96 48.82 247.44 48.96 247.16 52.4 243.53 52.81 242.9 48.73 238.99"/><path class="cls-3" d="M63.45,220.2l-.56,1.2.27.14,7.11-3.29,6.4-3.07,2.77-1.86c5.62-12.53,12.15-24.63,17.64-37.18l-3.15-.76L91.82,175,76.71,207.3l-.74.81-2.64,1.34-2.26,1.05-5,2.25-1.32,4.49m1-.57-.09-.67.52-.43.66.24-.06.9-.56.2Zm.81-6.6-.34,1.29.24.29,2.35-1,1.93-1,5-2.24,14.73-31,.56-1.53-1.45-.38L78.36,198.22,77,201.38l-2.21,4.24L72,207l-5.12,2.11ZM69,174,69,175.42l.15.62.61.87,1.68,1.23c3.34.7,5.67-1,6.08-4.44l1.79-.34,1.63-1.23,1.18-2.35v-1.2l-.69-1.81.74-1,1.18-2,0-2.05-1-2.52-1.83-1.35.23-1.1,0-1.43-.65-2.48-1.74-1.38L77,150.86l-2.59.19.52,2.57.13,2.26L74.32,158l1.09,2.91,2,1.34-.89.53L75.59,164l-.33,1.38.28,1.54L76,168l-.09.33-1.74.11-2,1.77-.67,2.15-1.32-.82-.6.38Zm2.22,39.43.84-1,.47.24,0,1.14-.61.33Zm4.89-2.25.43-1,.84-.23.14,1.19-.32.52Zm3.06-6,.9-.81.56.33-.23.9-.67.48ZM81.65,200v-.71l1-.48.38.48,0,.81-.7.34Zm2.59-4.87v-.57l.7-.48.62.43-.15.86-.79.09Zm2.26-4.69v-.62l.56-.33.47,0,.24.76-.42.44Zm2.35-5.4.71-.62.61.49,0,.76-.8.18Zm2.06-3.25-.27-.61.65-.77.53.24.14.77-.34.33Zm1.47-4,.52-.77.56.15.24.53,0,.28-.51.42-.52,0Z"/><path class="cls-3" d="M66.56,109.56l-.47,0,.89,5.16.23,1.72L70,117.54,74,119l1.6.86,11.63,26.86.32,1.15.8.7,1.55.15,1.42.35,2.53.66h.71l0-.72-3.58-8.84-3.71-8-1.7-4.39-5.83-12.44c-3.09-3-8.19-3.18-11.86-5.44m.81,7.83-1-.09.18.91.33.86,5.69,2.34,8.52,19.36,2.63,6.59.29.15,1.45.19-.75-2.34L75.16,120.66l-.75-.59Zm2.44-1.9,0-.68.43-.42.42,0,.52.53v.62l-.43.37ZM76.39,118l.09-.68.47-.27.52.09.18,1-.51.38Zm2.54,4.91.51-.42H80l.32.42-.09.81-.61.11Zm3,6.89.47-.53.56.1.47.67-.23.43h-.8Zm3.33,7.32.38-.73.8.38.14.87-.8.23Zm2.55,6.68-.15-1,.62-.15.65.34.09,1-.65.39Z"/><path class="cls-3" d="M69.1,255.9,67.21,257c7.17,10.82,14.28,23.05,21.55,33.69h5.92l1,.05C88.27,279,81.21,267,73.24,255.62l.23-.33h-.38l-1-1.58"/><polyline class="cls-3" points="72.48 87.87 72.57 89.49 72.53 90.17 72.86 90.26 75.73 88.58 76.53 83.66 78.88 73.57 80.67 67.7 82.92 62.68 82.5 56.37 81.65 56.75 80.57 58.66 77.8 65.79 76.67 68.6 75.01 74.1 72.81 84.52"/><path class="cls-3" d="M88.34,155.26l-1.7-.19.53,1.62.83,3.53L88,164l-.28,2.72.28.48,2,.33,1.69.48c9,1.62,18,3.17,26.81,5.31l-1-2.72-.89-5.79.23-3.29-.42-.33-.71-.1-23.23-4.83m-2.82,5,.09-.63.47-.47h.52l.84.42.23.68-.37.86-1,.28Zm5.07,1.58-.13-1.2,1-1,.8.09,1.26.81,0,1.38-.75.86-1.09.06Zm6.4,2.1-.2-1.29,1.14-1.43,1-.48,1.27.24.85,1.1v1.53l-.33.8-1.32.91h-1.21l-.9-.67Zm7,.81-.14-1,.38-.62.7-.34.9.34.19,1.1-.29,1.25-.89.24Zm4.57.81-.1-1.05.66-.48.76.38.09,1-.29.57-.65.06Z"/><path class="cls-3" d="M113.69,141.73l-5.56,11,.1.28,3.58.77,16.08-32,.85-1.16,2.21-.9,2.73-1.19,7-2.73h.42l.8-2.92,2-5.2,0-.53-.37,0-5.74,2.64-1.79.75-3.1,1.49-1.32.81L128,114l-1.32,1.68-5.4,10.75m-9.79,52.43-1.27-.11,3,7.75,2.17,4.88,3.19,7.07,5.37,12,1.3,1.15,7.38,2.87.49.43.36-.09L139,217l1.22.2.09-.3-1.17-6.49-.38-.44-2.91-.9-6-2.2-3.34-1.44L122,196.26,114.3,180.2l-.48-.9Zm1-31.07.34-.71.37-.2.61.24-.56,1.06Zm.29,5.63-.09.54,1.79.38.56-1,.8-1.91,3.58-7L130,123.23l2.58-1.15,7.82-3.24.41-2.26-2.86,1.11-1.88.81-.94.34-6.4,2.67Zm.23,30,.1-.66.28-.19.57.13.09.81-.47.29ZM114.49,143l.18-.77.52-.39.66.39-.37,1H115Zm1.64,36.6-1.41-.1,8.9,18.5,3.28,6.65,2.78.9,2.82,1.25,5.65,1.95.27-.09.09.14-.27-2.15-9.5-3.73-2.44-4.78-7.38-15.38L117.4,180Zm-.74,9.08.09-.76.56,0,.47.53-.29.81-.61-.38Zm1.21-49.8.24-.52.65-.53.38.24v.81l-.89.48Zm2.12,55.82-.52-.81.32-.47.58,0,.27,1Zm.09-59.79.14-.76.19-.29.61-.14.24.47-.38.92Zm3.53,27.24-1.27,2.25.29,2.88.94,1.76.65.43.94.86-.47,1.38.56,2.63.94,1.39,1.79,1.33,2.07.24L130,179.1l2.62,2.44.58.15v-1L131.75,174l.1-.48.78-1.82-.32-.29-2.59.05.05-2-.89-2.39L127.33,166l-.14-.39.56-.33.94-1.62.19-1.73-.38-1.52-.18-.48,2.21-.62,1.45-1.06.71-2.24.75.33,1.22.06,1.79-.72L137,154l1.32-4.4-.18-1.19-2,.05-1.5.28-1.27,1.54-2.11-.53-1.51.24-2,1.76-.71,1.53-.61,1.16-1.65.27L123,156.45l-.94,2.34.71,1.91.09.81Zm-.89,39.34-.14-.48.56-.48.7.53v.57l-.42.34Zm.27-72.11.2-.54.65-.24.2.87-.72.33Zm2.59-4.6,0-1.14.38-.29.65-.06-.09.2-.14,1Zm.58,83.58-.15-.42.47-.48.47-.18.57.51-.24.81-.76.15ZM127,118.93l.8-.71,0,0,.43.13-.05.92-.71.42Zm2.59,91.71-.14-.72,1-.47.48.29.1.86-.52.42Zm2.06-94.06.15-.66.42-.24.7.15.1.81-.43.44Zm3.2,95.26.8-.67.56.1-.09,1.28-.7.2Zm2.74-97.11-.2-.81.67-.34.6.19,0,.91-.62.19Z"/><polyline class="cls-3" points="113.13 37.16 112.51 37.54 112.64 37.92 113.45 38.97 118.25 47.24 121.02 51.73 126.06 60 126.95 61.25 126.86 61.44 129.3 65.17 132.74 70.66 132.97 70.66 135.27 74.29 135.74 74.53 140.41 71.43 133.63 60.43 124.04 44.95 120.42 39.03 118.67 36.88 118.16 37.12 116.93 37.21"/><path class="cls-3" d="M124.79,265.6l-.19.77h.32l.29,3.05.42,3.26.67-1.25,3-7.06,3.39-11.23.94-3.93.43-3.24.14-.59,1.22-8.25-.1-.39-3.57,2.39c-.43,2.58-1.25,5.33-1.65,7.83l.14.29-.47,2.16,0,.57-2,6.5-1.59,4.93-.67,1.47.14.24"/><path class="cls-3" d="M148.12,171.84l-.33.95.47.67c7.22-8.07,17.43-15,24.75-23l-.11-.54.06-22.11-.24-.2-1.55,1.62-2.12,1.3-1.36.37-1.74.15-1.23,1.05-2.26,1.63-1.88.86-2.17.57-1.12.15-3.24.33-1.43.57-.56,1.16v0l-.22.38-.1,1.58-.24,1.48.09,4.77-.18.72.18,1-.32,3.29-.09.33.09,1-.57,4.84-.23.13.23.38-.47,5.17"/><polyline class="cls-3" points="158.79 80.31 154.84 84.43 154.94 84.86 155.69 85.77 158.7 88.86 159.12 89.01 162.28 85.52 162.32 85.28 162.51 85.33 163.17 84.47 163.17 84.05 159.68 80.88"/><path class="cls-5" d="M96.38,289.79h.94l-.19-1.15,1.65.91.14.24h1.69L97.7,288l-.8-1.19h.23l4.28,1.43,1.6.86.51.72h1.23l-1.37-1.49-2.72-1.19-1.32-.28-1.23-.53-1.64-.76-.29-.73h.34l.84.49,1.32.47,1.79.58,1.13.19,2.45,1.1,2.49,1.86v.29h.94l-1-1.29-2-1.3-1-.66-4.56-1.24-2.78-1.44-.8-1.09,1.65.85,2.68.91,4.85,1.44,2.44.81.85.57,1.65,1.54.14.9h.94L109.6,288l-1.41-1.34-2.46-1.05-1.21-.23-5.14-1.58-.85-.39-2-.77-1.65-1.38-.14-.38,2,1.1,2.68,1.1,8.47,2.2,2.87,1.2,1.23,1.33.69,1.67.06.29h1l-.84-2.39L111,285.88l-3.29-1.16-1.74-.48-6.6-1.71-1.45-.62-2.26-1.25-2.06-2-.15-.54c5.79,5.13,14.11,4.05,20.27,8.22l1,2.21.06,1.19h1.07l-.33-1.39-1.13-2.34c-5.67-4-13.2-3.44-19-7.22l-2.69-2.39-2.87-6.25a42.27,42.27,0,0,0,1.31-17.54c2.95-4.61,11.82-16.53,18.49-13.2l2,1.87,2.17,2.67,4.47,6.27,1.74,3c5,9,4.53,13.69,5.17,23.41l-1.59-1.53.79-.86,0-.95-2.53-1.1-2.74-.2-1.59.3-2.06.86,5-5.74.09-.62-1,.48L117,270.24l-2,2.05,2.88-11.37-.13-.67-1.09-.57-.84-.24-2.21-1.05-1.23-1.1L111,254.57l-.62.19.47,1.58.71,1.23,1.55,1.63,3.49,1.68.13.77-1.3,5.73-1.28,5.24-.33,2.35,0,1.86.85,2.21,1.55,1.58,2.17.9H121l1.7-.66,1.5-1.25,1.14-2,.09,1.16-.38.72L124,281,121,283.19l-3.53,3.16-1,3.44h1l.14-1.49.42-1.14.9-1.05.62-.77,3.52-2.57,2.87-2.92.19.81-1.55,1.91-3.91,3.06-1.23,1.57-.7,2.59h.85c.39-4.92,4.24-4.45,6.78-8.07l.09.57-.94,1.19L122.53,286l-.94,1.62-.76,2.2h.76l1.54-3.2,3.3-3-.24.62-1.59,1.53-1.27,2.63-.61,1.39h1.12l-.18-.05.65-1.53.67-1.1,2-2.06v.44L126,287l-1,2.77h.89v-.57l.56-1.29.9-1.15.33.57.46,2.29-.19.15h1.32l-.6-2.15-.81-3.88-1.09-4.19v-.73l.85-1.24a120.05,120.05,0,0,0,11.49-42.68c10.86-7,22.19-13.53,33.2-20.36V198.22l0,.77-.42.71-1.89,2.43-2.49,2.17-2,1.32-1.41.77-2.48,1-1.09-.72c5.47-2.12,8.31-3.81,11.8-9.17v-5.35l-.09.57-2.68,1.82-2.12,1.86-.18-.1.42-1,2.2-1.76.2-.39-.34-.33-1.07.33-1.14.24,0-.38,1.13-1.29-.24-.66-.85.66-1.35.81-1,.09,1.09-1.09,2.95-3.3,1.65-.52.19,1.91,1.22.34v-5.5l-.66.24-.28,1.14-1,0-1.7-1.49-2.16-4.1-.75-.62h.61l1.45,1.28.48,0,.13-.7-.7-1.49.33-.09,1.64,1.2.47,0,.09-.47-.78-1.53,0-.33,2.86,2.3V166.91l-.13.62-.85.72-1.37.09-1.27-1.19-.09-.9.32-.63,1.23-1,1.13-.15.79.63.24.67V154l-4.51,4.1L147.7,176.71,146.14,178l.42-1,1-2.54,5.18-4.81,19.56-17.89V150L162,159.41l-13.73,12.81-.14-.29.94-2.58.38-1.24.83-4.31.61-3.62c1.1-7.94.51-16.19,2.08-24l1.6-.44,4.14-.29,1.79-.46,2.63-1.34,2.69-2.45.79.06,1.6-.24,2.06-.92,2-2.1v-1.87l-.89,1.58-1,1.06-.11-1-.56-.47,2.59-2.35v-2.63l-.8,1.87L168.3,127l-1.89.86-1.83-.15-1-.52-.43-.81,1.41,0,1.88-.62,3.07-2.58,2.1-3.78.67.86,0,1v-2.54l-.56-.33-.19-1.1-.47-1.15-.76-.67-1.08-.48-.71-1.24-1.17-1-1.79-.48.67-1.77,2.44-2.63.81-1.38.65-2.68,0-3.49.33-3,.66-1.77-.23-.62-.94.67-1.94.91-2.06,1.82-1.41,2.44-.94,2.48-.76,6.12-2.63-6.21L158.7,97l.09-.9,1.88-1.92,1.09-1.34.42.11,2.49.09,2.73-.67.47-.76-.05-4.4-.18-.19c3.38-3.28,4.85-2.85-.47-5.89l.18-2-.22-2.77-.53-.68-2.49-.57-2.35-.09-1.23-1.82-.8-1-.61-.09-2.25,2.92-.76-.24-2-.1-1.79.38-1,.68-.44,2.24.44,3.2-1.93,1.16-2.45,2,.2.53,3.8,2.34-.28,2.11.52,3.14,1,.53h3.57l.48.06c0,7.15,1.7,10.5,3.9,16.67l-2.54-1.58-2.54-1.14-4.23-1-3.2-.14-.51,0-.72.71,1.5,1.38,1.66,2.15,2.91,2.21,2.59,1,4.51.3-1.09.77-3.71,3.82-5.69-7.22-2.11-3.2L144.5,105,132.59,84.58l-4.18-7.32L127,74.39l-.79-1.24-5.23-10-5.83-13.48-3.91-10.27-.14-.81v-.62l.62-.1.52.33,22.05,36,.9.68c5.37-4.16,8.77-5.18,15.38-4.3l.19-.58-.57-1-1.79-4.78-.94-4.59-.79-8.5c0-4.33-.46-9.44,1.6-13.43H79.53A27.38,27.38,0,0,0,81,47.82a119.92,119.92,0,0,0-13,44.5L40.22,109l-4.34,2.63-1.88,1v14.85l1.14-1.62L37.72,123l3.62-2.58L44.55,119l.94,0,.74.76-.74.2-3.62,1.47-3.31,2.21-2.63,2.92-1.5,2.24-.43.39v4.68l.85-.77.14-.24,2.26-1.34,2.12-1.82-.29,1-.52.72-2,1.38v.44l.28.13,2.07-.52.13.48-1.17,1.29L38,135h.34l1.54-1.14,1.52-.3-.2.15-2,2.3-2.35,2.19-1,.19-.41-.05.09-1.76-1.51-.48L34,136v5.65l.81-.15.51-1.34,1,.2,1.41,1.23,2.07,4.12L41,146.75l-.8-.1-1.61-1.39-.51.34.65,1.62-.09.39h-.23l-1.6-1.34-.61.38L37,148l.09.91-.33-.57L34,146.21v12.68l0-.14.94-.87,1.41-.18,1.27,1.14.15,1.14-1.22,1.34-.85.34-1.08-.28-.67-.92v11.23l26-23-.62,1.82-1.17,2L53.43,157,34,174.28v1.47l4.7-4.3,19.43-17.06c-3.77,13-3.35,23.51-4.18,36.71l-1.13.48-2.21.18-2.86.39-1.7.57L43.37,194,41,196.45H39.28l-.81.24-1.78.66-2.22,2.39-.47.44v8.46l0-.24,1.27.86.2,1.34.74,1.29,1.37.57.47.72,1,1.29.9.43,1.46.43-.53,1.58-1.74,2-1.45,1.92-.84,3.68.14,3.73-.38,2.72-.47,1.38.38.24L39.37,231l1.6-1.34,1.37-1.71,1.21-4,.56-5.69.29.3,2.21,5.06,1.65,5.6.05,2.39-2.92,3.05L43,234.45l-2.87.56-.71.68-.09,1.24,0,2.06.24,1.76L38.1,241.8l-1.5,1.82L38,245l2.35,1.34-.23,1.62.09,1.73.32,1.57.42.43,2.84.62h1.87l.52.77,1.61,2,.7.13,2.12-3,.89.24,1.88.09,1.74-.42,1.08-.57.33-2.25L56.3,249l.19-.43-.42-2.39,3.53-2.42.61-1.2-.81-.86-2.95-1.73,0-3.58L56.2,235l-.37-.47L54.42,234l-3.34.28-.33-.9.14-1.4-.52-3.77-1.27-4.82-1.92-4.68-.28-1.07L50,219.54l2.35.86,2.59.52,2.93.48h2.82l.37-.43,2.26,3.29,9.26,15.53,7.06,12,1.84,3.38,5.41,10.28,5.32,11.9,3.33,8.08.65,2.35m-36.35,2h1.22c1.06-9.27,1-23.08-3.24-31.5l1.83.2,1.93-.15.94.63,2.91,3.91,1,2.54.61,3.2.71.42,1.88,1.54,1.6,2,1.45,2.54,1.23,4.1c2.58,2,6.64,7.13,6.35,10.57h3.44L83.25,288l-1-2.09-5.73-6,.19-2.44-1.88-.52-.7-1.34-1.23-3.79-2.07-4.68-2.58-3.86-5-4.84.14-.28,3.62-1L78.54,275.4l7.11,10.85,1.7,3.54h1.32l-.62-1.19-19.9-31.51-.19-.42,4.1-2.58c7.61,11.74,15.23,23.51,22.34,35.55l-.09.15h1.45L86,274.35l-1.47-2.24L72.71,253.32l-.79-.28-1.09,1-3.94,2.44-1.61.53-3.57.72H58.22l-1.26-.3-.47.3c4.8,8.47,4.72,20,4,29.52ZM34.1,37.69H34V38Zm.37,168.76.34-2,.37-.76,1.88-1.91,2.55-1.82,1.73-.38,1.79.53.66,1.09-2.39.24-1.7.91-2.77,2.77-1.41,3.15-.62-.37Zm.11-3.69-.2-.19V202l.61-1.53,1.94-2.06,1-.62,1.12-.28,2-.06.9.54-.2.85-.89,0-1.79.43L38,200l-.43.15L37.11,199l-.47-.2-.29.34.15.57.66.63Zm1.73,7.55-.1-1,.1-.61.42-.86.71-.1.14-.62-.52-.53.81-1.05.42,1.16.94.57-.71,1-.8,2.44-.37.87Zm.42-7.79-.27.53.74.9.67-.24-.48-.72Zm.8,28.34.38-1.05h.52L39.7,228l1.7-3.82,1.41-7.7c1.07,4.61,0,11.38-4.29,14.06Zm.1,12.76c1.2-2.37,5.23-3.9,7.24-1.86l-1.12,1.38.74.86.57,1-1.51.81-1.5.1-2-.49Zm.19-17V224l.09-.91.52-1.82,3.33-3.92.15.2-.85,3.29L39.55,226,38,229.19Zm-.19-87,.28-.15,2.35-.71.47-.34.61-.09a20.83,20.83,0,0,0,10.73-12.9l.42.81,0,.81-1.27,3.25-1.88,3.05c-2.1,2.74-7.31,7-10.78,7.12Zm1,65.86-.71-.24,2.17-2,1.45-.9.9-.2,1.59.15,1,.58.18,1-1.13-.1-1.26-1.39-.43.24.84,1.29-1.69,1-1.83,1.72L39,206.3ZM38.56,212l.11-1.73,1.07-2.39,1.51-1.67,1.6-1.05-.15.51.81,1.11-.76,1.29-.7,2.25-1.36-.24-.76-1-.47.14.42,1,.76.71.89.15.47-.35.52,2.26.74.52.06.77-2.73,0-1.22-.76Zm1.9-14.34-.53.18.33.53.43-.19ZM41.53,200l-.37.24,0,.53.56.43.15-.91Zm.61-87.46-.47-.57,1,.24,1.65,1.58,1.27,1,.18-.63-1.07-2,.18-.34,1.56,1.15.61.24.18-.63-.61-.66-.85-1.77.1-.42c2.38,2.16,5.07,2.94,4.94,6.82H49.54l-.53.24-.38,1.82-.32.14-1.47-.33-2-1.72-1.12-1.82Zm-.23,84.32c3.19-3.76,7.32-4.53,11.94-4.45l-.19,2.48L53,201.8l-1.17,5.59-.57.53-2.07,1-2.59,1.24-.14-.38-.57-.62-1.35-.05-1.51.85.94-2.33,1-1.14,2.2-1.45,1.7-.33-.23-.67-1.75.3-.42-.15.09-1.44,1.27-3.06,1.84-1.48,1.21-.67-.09-.33c-3.68-.32-3.46,4-6.26,4.5l0-.39,1.17-1.54,3.1-2.52,0-.62-1.65.75-3,2.63-.38-.52.05-.18,3.34-3,0-.43-.76.19-3.62,3,.24-1.05,1.12-1.25,2.55-2,0-.38-.51-.05-1.88,1.1L42.61,197ZM43,212.31l-.14-1.14v-.57l.36.09,2.08-.86.8.48-2.48,1.76Zm.33-86.26-.71.09.42-.24,1.32-2,1.32-2.3,1.59-1.19,1.18-.06-.13.63.37,1.38,2,.24.38.34,0,1.48-.56,1-1.47,1.53-1.73,1L46,129l-.2-.19,1-1.54-.13-.71-1.93.57.7-1.38.24-1-.42-.13Zm.42,80-.57-.92.53-.27,1.17-.11.47.2-1.13,1.1Zm0,9.21h.47l.18.15,2.73,5.31L48.4,224l1.36,5.7.1,3.29-.32-.42-.2-1.44-.71-4.35-1.79-5.17Zm.56-2.33-.05-.15,2.08-1.47,2.48-1.2,1.79-.77-.09.39-3.44,3.1-.42,1L45,213.56Zm.65,1.72-.32-.47.7.24Zm.2,28.82-.14-.43.5-.67,3-3,2.17,2L52,242.75l-.42.78-3,3.1-.61-.42Zm0,4.92.66-2.39.48-.28,1.82,2,.66.2,1.5-1.54.34.48.27,2.11-.61,1.91-1.69,2.63-.7.52-1.79-2.87Zm.81-8.07-.52-1.58v-2.1l1.08-2.15,1.65-1.77,1.45,1.33.23.44.9,1.91,0,2.81-.43.63-1.5-1.25-.71-.09-1.77,1.82ZM45.34,129.4l.28-.52.14.42Zm.94,85.26c6.32-.31,8.83.46,12.66,5.92-5.23-.38-8.73-.87-12.89-4.77l.05-.19C49,218,52.77,218.57,56.3,219l-.19-.67L54.19,218l-2.35-.77-2.74-1.1Zm.38,27.82-.09.9.09.48,1.18,1.1H49.2l.7-1,.09-1.57-.6-.82-1.23-.18-.85.14ZM47,147.32l-.14-1.11.56-.81,1-.8,1.14,0,1.08.8.37,1-.19.92-1.41,1.23-1.6-.18Zm.33,96.26v-.87l.85-.67.74.49.18.85-.18.53-.94.28Zm3.15-29.69-2.68-.14,2.39-2.39L52,209.21h.33l5.59,7.13,2.78,3.95h-.34l-.7-.57-.75-.75-1.79-2.06-2.26-1.73-2.53-1.05Zm.32-93.76-.13-.9,1.13-.59.74.44.24.9v.24l-.61.57H51.6Zm.24-7.61c1.13-3.57,5.36-8.67,8.9-10.22l.79.72c-4,2.59-7.44,6-9.08,10.56ZM51.5,241.1v-.44l1.6-.57,2,.18,2.82,1.4,1.37,1-1.9,1.73L55,245.49l-2.35.13L51.55,245,53,243.1l-.14-.81ZM54.66,117l-2.5-.39.51-1.52,1.57-1.62,3.19-2.11,1.51-1.81.09.9-.37,1.25-2.36,1.58.09.43.57,0,.38-.28,1.21-.44.39,0-.28,1-.57,1,.13.38.33.2,2.13-2.06,1.36-.24c-2.7,1.63-3.41,6.25-7.15,6l.33-1.86Zm-2,90.95c2.64-9.94,2.06-22.19,3-32.74.75-13.74,5.37-31.64,14.3-42.2l.51,2.11c-6.6,8-11.61,22.58-12.59,33-1.47,13.83-.58,28-4,41.54Zm.11-83.82-.15-1.25,1.61,0,.22-.25.24-1.68,1-.13,1.31.57,1.65,1.58,2.35,2.72-.75,0-1.32-.9-.56.06.09.51.56.63.71,1.52-.75-.09-1.17-.9-.85-.06.33.53,1.08,2-.14.19-.8-.58-1.84-1L53.76,126Zm1.64,86.3c2.81-8.23,3-22.26,3.39-30.92.46-14.92,3.51-30.81,12.7-42.86l.41.18.29,2.11-3.9,6.88.09.48,2.31,1.38.33-.09,2-3.63.28-.05.43,2.48L71,149.52l-.62.52-3.71-1.67-.76.19L64,153.77l-1.46,2.92.05.48,2.07,1.14h.79l2.17-5,1,.33-.95,2.74-.84,2.19-.75,1.82-2.93-.28-1.54-.59-.38.24-1.32,10.33.09.81.38.24,2.08,0,.42-.29.8-6.3H65.1l-.24,3.53-.38,3.16,0,1.28-.37,1.25H61.43l-1.83.14-.43,1.44,0,4.67-.24,2.5.14,1.9.42.34,2.26-.1L62,184l.52-6.12h1l.24,0,.05,3.31-.15,3-.28,2.87-3.39-.19-.89.34-.94,9.26.46.81,2.17.11.33-.33.57-5.75h1.31l0,1.78-.33,6.49-.14.24-2.73-.24-.66-.33-1.17-.1-.34.81-1.74,8.66.2,1,2.62.57.47-.3,1-5.25.33-.76,1.41.24-.81,4.69-.89,4.1-1.27-.19-3.25-.86Zm2.39,2.87,3,.62,1.22.06,1.42-7.41.46-3L60.54,203l-1.14,0L58,209.07l-1-.34.94-5.87.71-2.39,2.53.43,2.46.14v-.91l.13-4.58L64.1,192,64,190.57l-2.58-.28-.81.13-.28,2.26L60,196.3l-.23.2-.51-.14.27-4.74.44-3.53,4-.1.33-.29.18-4.58.2-2.59v-3.34l-1.28-.33H61.66l-.42.71.15,1.05-.29,3.25-.24,2-.85-.24.38-8.55.24-.33,4-.06.47-.27.38-3.36.65-7.17-.33-.28-3-.15-.42,5.4-.47,1.48-.85-.13.89-9.08.28-.44,4.24.72.65-.43,2.5-6.45.32-1.39L68,152.24,67,152l-.56.87-1.27,3.77-.47.62-.52,0-.42-.37.09-.48,2.91-6.8,1.7.68,1.69.86.9,0,2.16-3.29.43,1.76V151l-3,6-2,5.49L67,169.74,65.8,181.59l-.65,13L65,197.94l-.29,4.1-1.18,8.12-2,7.8L61,219l-1.32-1.81-1.27-1.69Zm20.52,76.52h1.26l-.32-2.15-1.13-2.54-2.54-2.77L72.3,281l-.62-2.78-1.79-3.38L68,272.53l-2.21-1.91-.09-1.14-.47-2.3-1.65-3.34-3.62-3.63-.56,0,.09.39.94.81,2.36,2.72,1.68,3.25.39,2.78-.61-.15-.9.05-.89,1,.23,1,.89.75,1.14-.19.74-1.28,2.17,1.95,1.69,2.11L71,278.51l.23,2.48,2.63,1.92,2,2.25,1.22,2.09.28,1.39ZM58.22,120.42l-.13-.25,2.45-1L63.59,117l2.92-2.78.27,1.54-3.71,3-2,1.24-2.26.95Zm.44-20.27L58,99.52l1.93-.9c13.34,10,32.17,14.86,48.64,13.48a76.17,76.17,0,0,0,20.83-4.73l4.9-2.15,3.62-1.82,1-.77.84-.42,2.12.71,0,.39c-12.13,7.45-21.91,9.55-35.64,11.18-14.38,1.13-35.6-5.1-46.95-13.92ZM59,135.61l-.09-1.77.14-.18,1.13-1.25,1.36.05.66.57.71,1.24-.24,1.39-1.17,1-1.61-.1Zm2.68,84.59c4.59-14.1,4.57-25,4.94-39.85.46-9.68,2.53-20,7.53-28.35l.23,1.87c-4.64,8.49-7.5,26.64-6.86,35.74l-.19,5.94-.1,4.58-.79,6,.09.24-1,5.93-1.74,5.63-1.51,3ZM63,222.31v-.62l1.5-3L65.61,216,67,210.55l1.07-11.18.34-10.14.09-3.92.19-.62,1.88-.13,3.24-.92,1.79-.76,1.13-.44,2-1.47.94-.39,1.79-1.43,2.35-2.57,1.5-2.21.53-.19,9.35,1.72,3.67.92-.7,2.28-8.65,23.18-1.94,4.87-3.11,6.71-1.22,1.76-3.66,1.09-4.9,2-6.39,3L64.16,224Zm.75,63.09-.38,1,.7.81.62,0,1.17-.46,5.37-4.89-.1-.66-1.74.53-3.76,2ZM64,96.62l-.1-.68h.23L68.77,93l.47,0-1.79,3.16-1.32,1.14h-1ZM67,225.84l-2.12-1c10.31-7,23-10.49,35.28-11.62,7.91,0,14.1,0,21.82,1.91,8.67,2.42,20.34,6.07,27.09,12.24l-.79.63-1.08.47C125.34,213,95,211,71.3,223.45Zm-1.14,53.53-.28.81.81.68,1.5.51,2.53-.18.2-.53-.52-.48L68,278.94l-1.36-.1Zm-.23-53.1.43-.1.18.15,1.94.86,1.45.77,1.79,1,4.14,2.63,3.2,2.63.42.47-1.74-1-3.76-2.1-2.35-1-3.53-1.1-.47-.38ZM68.44,118.4l-2.35-12,.24-.13.56.37h.47l1.08.63,5.31,2.39,4.66,1.58,1.12.47,3,.67,1.69.62,1.08,1.63,5.18,11.71L92.2,131l3.61,11.77,1.6,7-.24.24-1-.24-6-1.2-5.46-1.24-1.41-.19-2.82-.77-3.21-2-2.67-1.11-1.41-.62-1.42-6.78Zm.24,113-.47-1c11.6,2.71,21.21,13.2,22.43,25.37l0,5L90.21,265l-.94,3.59-.56-1c3.5-15.9-3.39-30.19-19.18-35Zm.13-131.72-.71-.9V97.61l.34-1.14,2-4-.14-.38,2.26-1.48,1.09-.47-3.25,6.06h-.84l-.33.29.18.62,1,.67.94.15.29-.29V97l-.29-.28,2.27-4.63.61-.92,1.83-.76,1.08.34.62.75.14,1.73-1.55,3.54-1,2-1,.24.09.47,1,.76h1.17l.2-.62L76.39,99l2.15-5.17,1.14-1.25.65-.27.85.09,1,.53.71,1,0,1.38-2.08,5.44-1.12.59.61.71,1.56.39.52,0,.18-.72-.85-.62,1.27-3.87.94-2,.9-.91,1.55-.1,1.08.62.67,1.38-.71,4.89L87,102.78l-.29,0-.56.22.15.59,1.07.51h1.37l0-.71-.71-.52,1-5.74L90,96l.44-.14,1.35-.15.71.24,1.08.82.38,1-.38,5-.37,1.09-.66.47,0,.3.9.57H95l.15-.81-.89-.53.94-6.16,1.27-1.2h1.84l1,.62.67,1,.09,6.26-.94.34v.57l.38.24,1.82.15.48-.2,0-.66-.62-.39-.34-.52.06-5.27.34-1.14.92-.66,1.37-.39,1.8.52.56,1,.65,3.53.24,2.87-.75.48.28.47.19.19,2.07-.1.18-.66-.37-.29-.61-.24-.43-3.29-.09-3.16.75-.9,1.56-.59,2,.25.94,1,.76,3.68.29,2.24L113,104l.42.77,1.47-.1.65-.43v-.48l-.42-.33-.56-.05-.9-4.73.18-2.06,1.7-1.48.65-.1,1.32.3,1.32,1,1.08,3.77.24,2.11-.47.39.09.42.47.33,1-.18,1-.48,0-.68-1.17-.37-1.18-5,.34-1.81,1.65-1.16,1.21,0,1.32,1.24L126,99.72l-.2.85.29.63h.65l1-.63v-.51l-.89-.54-1.74-5.15.09-1.3.62-.75,1.41,1.43-1.32,1,.38.71.79-.09c1.35,2.71,4.35,9-1.22,8.79l-.57-.28-.75-1.25-1.45-5.49.37-.77v-.1l-.14-.57-1.09.15-.88.52.13.44.7.33c.21,2.9,3.89,9.14-2,8.93l-.9-.48-.85-1.43-1.09-4.78,0-.72.75-.71-.28-.57-1.56.14-.89.57.28.52.7.2c1,3.91,2.32,9.48-3.61,8.42l-.89-1-.47-2.49-.62-3.72.14-.2,1-.33.42-.48-.67-.53-2.25.24-.8.48.1.43.65.28.66.2.47,5.3-.33,1.29-1.22,1.39-1.6.24-1.36-.15-.67-.66-.65-1.82-.29-3.68.34-1.82.27-.05.38-.66-.41-.33-1.66-.06-.79.39.19.53.84.33.19,2.67-.24,3.49-.85,1.14-1.36.77H99.71l-1.4-1-.76-1.73L98,100.2l.56-.14.29-.72L98.26,99l-1.83,0-.47.28.13.57.85.39-.28,5.31-.57,1.23-1.36,1.1-1,.15-1.32-.29-.85-1-.51-2,.85-5,.65-.33.19-.77-.42-.28-.67-.15h-.18l-1.14.15v.52l.61.57-.74,5.36-.8,1.53-1.37.66-1.64,0-1-.57-.6-1.48v-1.53l1.31-5L87,98l0-.67-.81-.53-1.31-.14-.37.38.51.68.1.46L84,102.63l-.79,1.58-1.32.72c-5.59.15-2.47-5.92-1-8.51l.9-.15-.05-.76-1.36-.62-1.12.19.51,1.19-1.12,3.35-.94,2.15-1.23.91-1,.1-.94-.19-1.14-.77-.33-.9.15-1L74,97.67l1.79-3.26.9-.14.09-.76-.32-.33-1.23-.24-.52.28L75,94,72.34,99.1,71,100.15h-1Zm-.24,83.93v-.81l.29-.53,2.17-.44,3.57-1.14,3.29-1.91,2.82-2.49,2.08-2.58a19.48,19.48,0,0,0-1.09-22.51l-3.48-3.25-2.72-1.73-1.88-.61-.24-1.87c10.53,3.09,16.4,15.3,13.07,25.77-3.06,7.7-8,12.35-16.09,14Zm-.09-37.81.85-1.67,1.27-2.3,1-1.43.34,2.2-.43.43-1.88,3.39h-.33ZM69,181.1v-.85l.33-.14,3-.77,2.64-1.1,3.39-2.43,2.53-3,1.84-3.25,1-4A16.87,16.87,0,0,0,74.27,148l-.18-1.28.79.09,1.09.53,3.09,2.3,2.64,3.14,1.79,3.4,1.18,4,.23,4.5a18.31,18.31,0,0,1-14.07,16.2Zm.15-89.55,1.12-9.08,1.84-8.65,1.41-5.12,3-8.55,2.44-6.07L81,49.82l.42-.15L81.79,52l-.05,2.63-3.52,8L76.58,67.8l-2.26,7.35-1.61,7-.94,7.3-.32.86Zm2.06,190.5-1.36,4.06.14.81.8.67.62.14.47-.42.56-1.34-.29-3.06-.47-.77Zm.23-46.27L70,233.54c4.44.35,12,6.36,14.2,10.28,4.91,6.93,4.7,14.19,4,22.26l-1.43-2.48.67-4.54q-.16-15.69-13.93-22.61Zm-1.45-61.13.51-1.86.38,0L73,175l.43-.28-.76-1.82.19-1.82c2.35-3,3.51-2.08,6.22-.52l.09-.53-2.21-2.24-.62-1.34.24-2.3,1.56-1.58,2.35-.72,0-.51-.76-.15-.19.05L77.14,161,76,160l-.56-1.48.09-.85.42-1.16,1.64-2.09v-.34L77,154l-1,.57L75.21,152l.61-.24,1.89.24,1.32.92.74,1.66,0,1.87L79,158.16l.06.29c4.39.6,4.55,5.77.79,7.8l1,1.23.29,1.64L80.48,171l-.89.9-.94.44-2.32.09,0,.38v1.77l-.56,1.23-.57.59-1.65.76-1.68.05-1.13-.92Zm.85-4,.42-2.1.38-.14,1-1.14,1.09-2.35.13-2.49-.65-2.48-.1-.91.62-1.11a8.75,8.75,0,0,1-1.94,12.34Zm2.4,68.25-1.27-2.15h.42l1.69.72,2.41,1.38,2.53,2,3.2,3.5a23.78,23.78,0,0,1,4,17.49L84.94,260l.2-2.19-.24-3.07-1-4.1-2.21-4.15-3.38-4.16-3-2.39ZM72.57,89.25c1.1-10.63,4.5-23.07,9.28-32.41l.13.53.23,4.88-1.5,3.3L78.54,71.8l-1.4,5.36L75,88,72.86,89.4ZM73.33,229l-.14-1.54,1-1.14,1.32-.57,1.36.76,2.35,6.12-.33.47-4.38-3ZM75,242l-1.12-1.9h.24l2,1.19,2.91,2.91,2.64,3.59,1.6,4,.9,4-.11,2.44-1.3-2.44-.67-4.07-1.59-3.48L78.09,245l-2.68-2.25Zm1-154.8c1.25-7.26,3-17,6.49-23.51l.14,1.05-1.26,3.44-2,7L77.8,82.61l-.43,4-.61.39ZM78.36,248l-1.5-3.05,2,2.28,1.79,3.16.52,2ZM77.85,226l.51-1.33.23-.29.94-.57.91-.2.94.1,1,1.2,1.6,6-.38.43.15.57.65.09,1.09-.42.23-.57-.8-.39-1.37-6,0-1.1.51-.91,1.32-.86,1.51-.09.75.42,1,1.63,1.12,5.36-.8.62.33.62,1.74-.25.66-.57-.28-.57h-.62l-1-4.69.42-2.53,1-.91,1.18-.53h1.45l1,.68.62,1.14.74,5.7-1.36.51.33.68,1-.05.43.05,1.7-.38.13-.67-.33-.25-.79,0-.8-4.74,0-.94.46-1.54,1-.85c5.51-2.25,4.29,4.46,4.51,7.63l-.74.44.09.53.56.28,2-.24v-.72l-.8-.29-.38-1.86.34-4.44,1.12-1.38,1.09-.39,1.27-.09.5.24,1.23.86.56,2-.23,5.1-1,.58.65.71,1.84.06.42-.24-.14-.68-.85-.28.23-5.35.76-1.54,1.27-.85,1.41-.09,1.09.42.88,1.2.2,2.39L115.1,228l-.67.33.06.54.46.42h1.74l.1-.72-.66-.37.66-4.89.52-1.57.65-.81,1.79-.52,1.46.28.89,1.19.14,2.3-1.31,5.11h-.51l-.43.44.23.42.8.48,1.32,0,.23-.62-.7-.53.79-3.49,1-2.43.69-.81.9-.35c5.47,0,2.4,5.71,1.27,8.47l-1.08.14,0,.58.83.57,1.52.15.13-.57-.51-.49c.79-1.89.75-5.86,3.62-6.79l1.5.11,1.32.85.23.95-.28,1.64-2.26,4.81-.79.15-.39.29.52.76.95.29.61-.24-.24-.81,2.5-5,1.45-1.24,1.41.05,1.28.72.33,1.38-.58,2.15-1.63,3.29-.67,1-2.73,1.49,3.3-6.12.95,0,0-.77-1.09-.71-.88-.15-.48.48.42.77c-.52,1.78-3.74,9.57-6.53,4.87l.09-1.43,2.3-5.5.9-.05.09-.76-1.08-.57-.94-.05-.38.33.52.86-1.7,4.36-.74,1.43L127,235l-1.64-.23-1.27-1.58.09-1.33,2-5.46.85-.14.15-.61-.33-.3-1.23-.42-.89-.11-.34.29.11.39.65.57v.57l-.42,1.54-1.55,4-1.09.95-1.32.06-1.21-.72-.76-1.53,1.08-6.12.89-.24V224l-.36-.34-1.47-.37-.89.37.75.82,0,.85-.85,5.12-1,1.15-1,.14-1.37-.18-1.07-.87-.53-1.06.53-5.92.83-.52-.18-.58-1.32-.37-1.07.33.13.62.71.38c-.3,2.75.22,9.79-4.8,7l-.74-1.1-.25-2.58,0-3.44.24-.38.79-.3-.33-.71-2-.09-.52.18v.57l.85.53.18,5.59-.42,1.29-1.17,1-1.74,0-1.23-.54-.7-1.47-.89-5.55.83-.66-.22-.68-1.93.06-.62.51.15.39,1,.38.51,4.6.2.71-.29,1.44-.71.66-1,.43-2.12.1-1-.86-.43-.77-1.07-5.35.42-.53.14-.81-1.13,0-1,.24-.37.61.52.44.8.23.7,4.64-.33,2-.75.87-.94.42-1.18.2-1-.39-1-1-1.37-5.08.11-.42.51-.68-.37-.46-1.23,0-1,.66-.09.49.6.34.81.18.84,3.4.25,2.39-.29,1-1.41,1.1H84.2L83,233.34l-2-5.44.34-.57-.29-.72-1.18.19-.66.62.14.53.85.24,1.7,4.67.13,1.82-.33.63-.36.18-1.09-1-.43-.44,1.12-.76.25-.53-.34-.33H80L78.54,229ZM78.74,88l-.8-.48.71-.47c13.74,6.28,29.88,7.2,44,1.52L123,89l.06.44c-12.58,5.71-30.1,5.2-42.43-.68Zm-.47-2.3c.87-6.1,2.28-14.18,4.88-19.63l.34,1.86-.9,2.48-1.88,7-1.36,8-.76.47Zm1.7.53.83-.53.24-.23a53.79,53.79,0,0,0,29.36,4L118,87.63l3.3-1.25.61,1.1-.56.48-4.19,1.34-5.84,1.38-1.21.11c-7.26,1.62-18.81-.1-25.78-2.74Zm.32-1.61L80.8,81l1.14-5.31,2-6.89.46,1c-1.26,5-2.55,9.2-3,14.24l-.71.48Zm0-46,.42-.77.24-.05L82,38l-1.36,2.33ZM81,42.08,80.53,42l.7-.92.19-.61,1.17-1.78.76-.85.94,0,.13.24-.51,1Zm-.06,1.34.53-.77,1.69-1.43L84.33,40l1.18-2.11,1.22.11-.94,1.52-2.44,2.19-2.17,2.45Zm.53,2.19-.13-.46L82.07,44l4.14-3.67,1.65-2.5h.85v.39L87,40.83l-3.24,2.44Zm.23,1.63.24-1,.75-1.05,2.45-1.86,3-2.59,2-2.91.94,0v.29L89.7,40.41l-1.23,1.34-3,2.2-3.62,3.48Zm3.25,104L82.17,148l.47-.09,11.44,2.24,8.79,2.1,1.68.29c3.86,1,9.5,1.75,13.28,3-3.8,8.46-1.56,18.46,4.74,25-12.21-2.23-24.38-4.87-36.49-7.41C88.92,168,89,161.47,87.17,156ZM82.07,49.1l1-2,2-1.86,3-2.11,2.73-2.67.42-1.05.72-1.19,1.4,3.05,1.23.9,1.46.77,4.42,1.38,2.63.87,1.4.29c3.82,1.2,7.88,2.46,10.58,5.68l2.64,6.31-.94,4.3L115.81,68l.41,7-2.35,3.2-3.47,4.06-4,3.73-1.79,1.19c-4.36,2-6.27,2.53-9.46-1.68l-1.22-1.71L93.18,83l-3.44-5-2.35-4c-4.88-9.34-4.49-13.27-4.89-23.23Zm.2,34.32.61-4,0,0L84.62,72l.42-.75.37.71-.74,3.72L83.91,78l0,.86-.38,1.77-.37,2.19ZM83,48.48l-.51,1.1.13.86L84,51.93v.43l-.85.9.1.62.66.33,2.86,1.2,2.32.05L90.5,55l1-.66H92l-4.74,5.44-.2.63.71-.15,4.75-5.16-2.26,9.18-.65,2.14.09.63.33.33,2.77,1,1.7,1.11,1,1.48,1,2.06.42-.24V71.9l-1.18-2.29-1.46-1.48-2.15-1-1.47-.81.33-1.62,1.23-4.83,1.36-5.78.28-3.4-.7-2.2-1.56-1.67L89,45.66l-2.91.3-1.55.75Zm-.29,36.1.62-.44a43.66,43.66,0,0,0,12.1,3.1l.74,1.05-3.34-.51-1.69-.35-6.17-1.77Zm.53-34.47L83,49.73l1.54-1.29,2.17-.86,2.64-.15,1.88.57.8.53.28.81-2.12-.52-2.3,0-1.59.39-.38.15-1.27.86-.14.57Zm1.26,189.06-.51-.81a54.79,54.79,0,0,1,45.29,1.29v.29l-.6.33-4.7-1.76-2.83-.81-4.81-1.29-3.09-.53-4.24-.52A54,54,0,0,0,88.2,238Zm.91-185-1.52-.77,1.23-.66Zm-.67,28-.56.06,1-5.46,1-3.16.33.53-.33,2.3-.94,4.39Zm-.38,1.38.57-.28,1.27.28,2.59.87,5.41,1.28.23.63-4.37-1-.24.06Zm.85,156.72c3.68-2,11.5-3.52,15.34-3.91l3.47-.11h2.36l6,.53,4.7.86,4.71,1.34,5.08,1.9.28.39-1,.68c-5.19-2.13-11-3.91-16.6-4.16l-.15-.29-.18.29A50.62,50.62,0,0,0,86,241.28l-.56-.77Zm.47-189.6L86,50.3l1.31-.63,2.35-.09,2.11.35.76.51-2.4-.57L88,49.93l-1.23.28Zm.24,30.49L86.41,79l.51-2.92.34-.58.51,1.15-1,4.06Zm0-28.14.36-.81.2.9,1.08,1,1.5-.24.85-.86.28-1.34.38.09v.87l-.29.76-1.27,1.09-1.5.15-.76-.39ZM87,82.89l-.9-.52.56-.44,5.75,1.58.56.81H92Zm0,160.25-.38-.9a43.55,43.55,0,0,1,16.84-3.35l-1.55.87-2.48.18-4,.66-4,1Zm.61,1.16-.14-.39c2.4-1.08,10.28-3.57,12.43-2.87l-.53.34-2.73.47-5.31,1.25-.66.19-1.12.47Zm0-35,2.12-1.14,3.91-1.29,1.92-.53L95,209.21l-1,2.48-.42,1.19-.41-.33-1.52-.66L89.79,211Zm.8,36.52-.18-.81,2.06-.71,3.77-1.11,3.9-.62-.56.86-5.84,1.38-2.25.87ZM88.2,81.23v-.11l.47-.28,2.39.67.29.72L90.44,82Zm-.34-1.15.38-1.86.28-.44.47.38.38,1Zm1.37,167.17-.2-.52,3.53-1.24,3.49-.72-.52.72-2.68.66-2.73,1Zm.42,1.2.14-.29,4.52-1.38-.85,1-2.21.77-1.32.39Zm-.42-130,.56-.33,3.11-2.77,1.41,0,.84,2L96.23,121H94.59l-2.45-.72Zm1.36,131.67-.29-.15,2.17-.85-.27.58ZM92,282.86l-.29-.05.29.24Zm.8-230-1.65.72.47-1.72,1.07.43Zm-.62,229.59-.23.44h.32ZM91.87,76.54l-.39,1L92,78l.89-.48,2.49-1.2,1.23.72,1.74.06,1.18-.63,2.71.67,2.17,1.06.53-.11L104,75l-.65-.23-.85.75h-.43l-3-1.76-.74,0-.67.72-.37,0-1-1h-.65l-2.44,1.78-.76-.72-.47,0ZM92,201.91l-.14-.44.47-.39,1.26-.48,1.23-.27,2.3.33,0,.86-.75,2.34-.38,1-.75-.19-1-.57Zm.75-75.86.19-.61.37-.59,2.31-2.19,1.18-.58,1.21,3.3.29,2.06-1.94,0-2-.53Zm.66-86.21-.61-2.11,1.17.05.89,2.1,1.27,1.3.67.38,5.64,1.86L108.46,45l2.92,1.43L114,48.68l.2.66c-5.7-5-14-4.45-19.72-8.07Zm.56,157.38-.23-.82,1.45-.81,1.42-.28h.19l2,.33-.34,1.53-.94,2.72-1.74-.72ZM94.4,66.07l-.75.62.09.77,1,.63,2.3-.06,2.21,1.25,1.88.09.52-.19.76-1,0-1.15-.56-1.15-1.08-.71H99.49l-.91.9.71.38.61-.53h.8l.76.77.14,1.16-.72.81-1.63-.24L97.6,67l-1.69-1Zm.51,207.71-.36.66.09.3.89.23,4.79,2.1,2.26.57H105l2.08-.61,1.31.19,1.78,1.2.48.05,0-.44-2.11-2.1L110,274.4v-.8c-4.46-2-9-3.4-13.26.27l-1.09-.38Zm1.23-60.84-1.55-.1.7-1.52.56-2.2,4.67-15.87,1.79-8.31.6,3.92,1.61,8.88,1.64,6,2.45,8.61-5.79-.15-3.71.24ZM95,77.74l-.5.13,0,.39,1.3,1,1.9,0L99.62,79l1.17-.87-.23-.47L99.34,78l-.85.42-2.35-.05Zm.44,197.71-.44.19c2.93,2.37,9.32,4.87,13,2.3l-.14-.48-2.26.86-1.87.15-2.22-.33-2.39-1ZM94.82,82l-.09.57.14.24.53,0,.56-1.1L97.32,81h2.06l1.23,1.09.85.81.33-.37-.29-.82-1.22-1.15-.43-.14-1.74-.48-1.64.38L95.4,81ZM95,131.21l.67-1,1.65-1.44,1.17-.38.53,1.63.41,2.72h-.56l-2.11-.53Zm.4-86.06-.53,0,.1.2,1.08,1.14,1.92,1,2.41.51,3.29-.18,3.58.18,1.59.54,2.63,1.91.61.09-.13-.66-2.35-2.21-1.79-.86-2.08-.67-5.92.05-2.64-.19Zm.09-5.79-.58-1.49.34-.18,1.32.29.51.85,1.32,1.43.71.2.89.72h.85l1.64.75,2.54.68,1.88.57,1.13.48,1.18.38,1.69.72,1.6,1.05.52.86-1.56-.86-3.86-1.67-7.65-2L96.9,40.79Zm.8,237.86-.67,0,0,.37,2.4,2.2,1.64.91,2.22.67,4-.05,3.47-.09,1.65.38,1,.34,0-.44-1-.9L110,280l-2-.57-2.35.15-4.94,0-2.26-.81Zm-.57-84.54-.19-.92,1.23-.66,2,0,1.27.48L99,195.07l-1.5-.68Zm.33-76.85-.2-.53,3.3.23,6.58.11,3.44-.44.23.06-1.74,4.81.1.59-3.86,12.9-1.84,9.12-1.54-9.89-2.64-10.94-1-2.39Zm.09,20,1.22-1.2.39-.33,1.74-.66h.27l1.09,6.34.79,6.65-.18,2.54-1.46-.44-1.22-1.23.65-.87,1.23-.44.22-.75-1.3-.1-1.51-.86.1-.29,1-1.09,1.23-.62v-.57l-1.65-.39-1.46-.91v-.52l1.22-1.2,1.74-.82-.18-.57-.9-.09-2-.67Zm1,51.81.1-.58,1.41-.67,1.26,0,1,.28-.09,1-.74,3.07-.29-.44-.42,0L98,189.14ZM97.41,49l-.51.09,0,.3L98.78,51l.27.54-1.64,1.76.19.67,1.08.47,4.61,1.45h3.2l2.82-1,1.41-1.1,1.23.28.94-.28.24-.82-5.7-2.52L105.55,50l-2.26-.1-2.86.63-1.14-.29Zm.23,225.25,1.56-1.16,1.41-.57,1.55-.09-.75.77-.71,2.15-1.41-.44Zm.11-235.82-.29-.57,1.79-.14.46.25L101,39.41l1,.52,2.39,1.1,3.35.81,2.44,1,2,1.47-.09.39-1.69-.9L99.62,40.22Zm.69,16-.47.24,1.88,2.19,1.75,1.91,2.39,2,.81.24.13-.39-2.48-2.1L101,56.71ZM98.68,184l-.1-.77.53-.33,1.17-.38,1.22.14-.09,1.34-.33,1.81-.76-.15-1-.9ZM98.44,53.64l.14-.33.76-.71.85-.39.24,1.91L100,54ZM99.85,179.1l.53-.48.79-.52.62.24-.1,3.06-.19.09-.94-.87Zm.81-130.24-1.08.77.32.39,2.55-1,2.72.19,2.35.72,4,2,.9.24.09-.53-2.17-1.25-3.09-1.33-2.45-.67-1.56,0Zm.28-10.55-.24-.48h2.64l.47.67,1.36,1.1,1.08.28,5,2,.29,1-2-1-2.07-.67-2.73-1-1.23-.29ZM101.41,54,101,52.74l.52,1,.9.71,1.36,0,1-.47,1-2,.09,1.19-.47.87-1.65.91-1.5-.19Zm.23,221.52V274.4l.47-.8,1.32-1,1.88.15.62.29.65,1.05v1.05l-.51-1.47-1.14-.59-1.55.15-.89.77-.65,1.62Zm1-26.14-.09.38.76,2.25.42.9,1.14-1,.79.15,2.39,1.53.85.09,1.09-.85,1,.76.6.2,2.69-1.77.6.7.43,0,.1-1.63.32-1.47-.51-.15-3,1.53-.53-.1-1.08-.57-1.27-.05-1.55.68-2.68-.68-1.79-.81Zm.47,17.3-.47.05.11.28,1.59,1.19,1.94,2.15,2.62,2.48.62.15.09-.48-.85-.72-2.16-2.53Zm-.5-117.87-.15-1.19.15-.13,0-1.77.38-.11,1,1,.42,1.58-1.23.81Zm.93,38.95-.93-9.6.27-.18,1.23.28,1.27,1.1,0,.81-1.94,1,.14.48,1.51.24,1.17.81-.32.68-2.12,1.43.18.57.76,0,1.41.44,1.09,1-1.38,1.38-.79.44-1.13.52.42.47,1.88.39,1.41.71.53.63-1.56,1.47-2,.82Zm-.79-43.29.51-3.16.94.24,1.32,1.44.18.81-.32.29-1.51.66Zm.51-4,.9-4.25,1.83,1.24,1,1.53.06.86-.62.57-1.5.39Zm3.87-51.91-3.35.11,1.18-.82,3.2-.43.18.06,1.7-.34,2.53-.43,3.3-.76,4.32-1.43.24.9-.62.24-2.82,1-4.51,1.11-3.2.57Zm-2.93,47.19,1.18-3.83,2,1.09,1.23,1.4.13,1-1.45.59-.85.14-1.41-.29Zm1.61,62.88-1-4.34,1.14,0,1.87.63,1.37.95-.33.63L107,198.27Zm.18,59.56-1,1.1.18,1.62,1.27,1.25,1.55.13.76-.66v-.48l-.62-.09-.32.29-1.27-.11-.7-.76.09-1.06.65-.61,1.55.15,2.92,2.1,1.37.23.75-.09.79-.68-.18-.71-.89-.57-2.35.05L108,258.1Zm-.85-219.57-.76-.9,2.79.15,1.13.66,1.87.72.61.62v1l-.47-.1-1.17-.76Zm0,112.61.9-2.69.8-2.52,1.17-3.4L114,127.1l1.28-2.39,1.27-3.59,3.15-7.11,1-.86,3-.81,5.35-1.73,5.47-2.39,1.79-.66,6.39-3.54.43.28.7,1.4-1.93,4.63-1.69,6.45-.94,5.65-.47,4.81-.43,5.88-.09,9.62-.51.38c-8-.37-15.6,4.4-19.39,11.51l-8.79-1.91-2.07-.39-2.35-.61Zm.7,93.34-.41.33.61,1.1.94.81.89.38,1.65.19,1.55-.48,1.22-1.14.23-1-.47-.2-.56.77-.94,1-1.18.2-1.59-.15Zm-.37-113.22,1.32-4.11h.38l1.64.71,1.65,1.86.05.92-.76.52-2,.62ZM106.76,55h-1.07l.47-.59.8-2.13.85.13,2.06.95-1.21.87ZM106,200l.09-.24h1.87l2.55.73,1.08.71-.89,1.43-2,1.91-1.09.48Zm1.4,48.71-.84.66.22.44,1.9-.72,2.3-.1,1,.49.69.24.11-.77-1.5-.77h-1.94ZM106.54,38l-.61,0,.51.33Zm.89,236.85-.32-1.53.83.3,1.13,0,.15.39-1.14,1.05-.7.19ZM107,126.34l1-3.34.43-.72.65,0,1.38.82,2,2.1-.05.77-1.31.52-1.5.24-1.9-.14ZM109.12,186l-2-7.37.22-.15,8.52,1.73,2.49.42,5.32,1.07,1.65,1.14,4.5,2.15,2.64.72.89.53,2.77,14.37,1.18,5.85,2.78,14.33h-.38L136,218.91l-3.11-1.14-4.42-1.58-4.14-1.29-.65-.09-2-.62-2.91-.68-1.36-2.63-3.24-8.4Zm.75-99.52-2.67.15.37-.28,1.22-.48.14,0,1.61-.13,2.53-.53,6.35-1.82.1.43-1,.47-4.41,1.34Zm-.18,125.9-1.79-6.07.76.19L112,208l1.5,1,.95.75L113,210.84l-1.41.72-1.5.9ZM108.56,121l1.08-3,.33-.82,1.17-1.91.85.14.94.48,2.12,2.3-.42.42-2.08,1.29-2,1Zm.14-83,1.55-.11-.14.68Zm2.11,46.87h-1.74l1-.71L116,82.8l1.39-.52,1.33-.44.19.68-.28.18-2.63.92Zm.8,155.05-.65-.77,3.94.52,7.06,1.91,2.26,1,.38.28-.52.48-2.12-.81-2.44-.72-5.74-1.49-1.83,0Zm-.6-157,.8-.72,1.59-.38L118,80.41l.2.43-1,.52-4.41,1.25Zm1.88,158.48,1-.05,3.62.76,5.36,1.78-.42.42-4.65-1.43-4.57-1ZM113,80.65l.8-.76,3.62-1.1.14.71-2.64.91Zm6.59-32.36L113.22,38l.18-.11.94-.14,4.67.14,8.92,14.54,11.11,18,.23.81-3.89,2.64-5-7.84-8.8-14ZM115,244l-.7-.9.29-.11,1.21.24,3.53,1.07,1.14.23.74.43-.61.53-4.33-1.25Zm-.23,30.79.47-.44,1.37-.72-.43,1.82-.61-.05Zm.47,2.19.47,0,1.13.37,2,.2,2.31-.44.57,0-1.6.72-3.25-.05ZM116,279l-.75-1.1.57.2,2.2.42,2.64-.19.37-.29.47.09,1.32-.77.42-.84h.24l1,.66.06.48a7.61,7.61,0,0,1-7.49,1.91ZM114.78,78.46l.5-.44,1.56-.43-.42.43-.76.24Zm1.53,167.41-.46-.67,1.75.29,1.68.66-.51.39Zm.76,29.73v-.86l.47-.87.47-.42,1.51-.59,1.5.35.61,1.05-.18.81-.33-1.05-1-.77-1.32.2-.9.85-.33,1.44Zm-.42-205.32.66-8,1-3.11.43.92L118,65.83l.15,6.84.61,3.87,1.18,3.3,2.62,4.78c4.34,6.22,8.82,8.35,15.43,11.13l.76,1.86C128,94.18,119.56,86.44,117.22,75Zm.42,96.83-.23-4,.94-4.54c2.78-8.5,11.19-15.15,20.17-14.34v1.39c-10.12-.28-18.41,7.22-19.61,17.39-.37,9.69,5.11,17.48,14.25,20.17l.33,1.34c-7-1.08-12.71-6.5-14.91-13.29Zm1,81.53-.14-.48,1.56-.85-.6,2.52ZM119,72.76l-.24-3.82.24-5.41.36-2.09,1.37,2.77c-3.16,11.26,4,24.8,15.06,27.87L137,94.37a26.12,26.12,0,0,1-17-16.63Zm.51,178,.9-3.83.18-.43.8-.43-.62,3.64-.56,2.19Zm0-84c-1.66-10.55,7.79-20.76,18.16-20.13l-.09,1.15-2.46.1-2.5.48-2.62,1-3.11,1.91-3.1,3.29L122.3,157l-1.09,2.77-.79,4.21.45,4.16,1.18,3.78,1.9,3.05,2.44,2.58,2.49,1.82,2,.82,1.26.66.38,1.2c-5.43-1-10.54-6.22-12.13-11.47ZM121.07,39.6l-1-1.77,3.67,0,1.78,3.44L127,43.22,131.33,48,131,49.82l.09.44,2.35.75.42,2.3L135.89,59l1.88,3.44,2,2.78,3.82,3.62.6.86-3.76,1L125.16,46.09Zm-.24,213.54,1.56-7.7.8-.43-.85,5.35-1,3.53ZM121,71.9l-.2-3.11.15-.48.47-2.61,1.08,2.1c-1.32,8.43,4.16,17.81,11.67,21.36l.89,2a22.19,22.19,0,0,1-13-13.86Zm1.21,201.4h.29l1,.39,0,.37-.89.38Zm.29-17.2-.47-.67v-1.06l1.12-4.39,1-5.5.76-.62,0,1.1-1.17,6.64Zm-.65-90.9.56-1.67.47-.59,1.45-1.23v-.53L124,161l-.79-1.25.09-1.58.47-1.08,1.27-1.25.61-.34,1.88,0,.47-.22-.14-.49.43-2.29.71-.95,1.82-1h1.56l1.18.67.61.23.61-1.38L136,149h1.36l-.13,1.2-.85.75.14,1.34-.52,2.06-.6.63-1.57.18-1-.75-1.08-1.34-.8-.06.76,1.91-.2,2-1.5,1.38-.91.44-1.44-.15-1.83-1.1-.67,0v.33l2,1.86.65,1.25v2.57l-1.41,1.58-1.88.77-.89.33.42.48,2.67.1,1.28.57.71,1.43.18,1.77-.8,1.39-1.5,1.62.09.33.66,0,1.32-1,.94-.57,1.41-.18-.24.71-.09.62.42,2.2-1,0-.28.28-1,.19-2.3-.28-1.32-1.05-.56-1.34-.09-1.29.74-2.26,0-.61L124,169,122.66,168l-.7-1.33Zm1.59,93.62L123,257l1.92-7.31.91-6.46,1-.62,0,.72,0,.19L125.68,251l-1.46,5.59ZM123.1,71.23l.09-1.86,1.46,2.53.18,2.39,1.42,4.21,2.07,3.39,3.66,3.5,1,2-2.12-1.09-2.78-2.68-2.72-4.21L123.75,75Zm.79,188.84.15-.81.09-.83.23-.28.62-1.57,1.73-7.17L128,241.8l1-.47-1.21,8.17-2.5,9.56-.94,2.24Zm.8,2.86,2-5.79,2-8,1.23-8.37,1.17-.85c-.57,7-3,17.28-6,23.65Zm1,7.5-.47-5.2,1.75-4.07,2.25-6.88,1.79-8.41.94-5.78.33-.92,2.17-1.47.09.38-1,8.13-2.21,9.55-2.68,8-2.46,6.12Zm.25,5.06-.14-2.87,1.41-3,1.83-4.48,2.21-6.69,2.31-8.66,2-12.81,2.35-1.44c.13,4.3-1.16,9.16-1.59,13.49-2.15,9.84-5,19.74-9.93,28.53Zm.6-198.43-.47-1.8.85,1.08,3.62,6.7-.47-.34-1.6-2Zm1.55-35.84L127,37.87h.76l.32,1.05.95,1.73,2.06,2.68,2.41,2.33,1.93,1.2v.33l.6,2.68,1.56,2.87,1.84,2.39,2.25,2,.46,3,1.7,3.64,1,1.34,2.71,2.63.67-.15c-2.65-2.62-5.78-5.88-5.5-10,4.87,1.34.93-5.53-.43-1.1l-.42-.15L139.51,54l-1.09-1.42-1.59-3.07-.42-2.82-1.84-1.19-2.16-2.11L131,41.12l-.09-.51-.9-2.3.23-.48h4.38l12.46.1a59.16,59.16,0,0,0,2.41,31.58l-3.62,0-1.52-1.34-2.12-3-1.12-2.59-.65-3.35-2.17-1.62-1.79-2.2-1.6-2.85-1.08-4-1.36-1.31-2.17-2.52Zm.24,55.25L127.89,95l.38-.18,2.77,2,2.64,2v1.91l-1.27,1.19-1.32.14-.75-.52Zm.89-2-1-1.11,3.62,2.15L134.66,97l2.26.86,2.35.76.61.62,1.51,2.68-1-.38-2.83-1.43-3.81-2.16Zm.81,74.55-1.18-3.25,0-2,.67-2.48,1.07-1.82,1.93-1.86,1.79-.95,1.6-.39.27.06-.46,1.28-.94.48-1.08.43-1.61,1.58a6.66,6.66,0,0,0,.34,9.17l-.61,1.58-1.13-1Zm.09,8.41.13-.76,1.09.24.52,2.24-.24.24-.79-.72ZM131.8,174l.14-.92,1.78-3.47,1.88-5.75,1.7-7,1.46-9.47.24-2.68.09-9,.38-7.37.79-7.65.51-3,1.47-5.78,1.7-4.21.89-1.34.52.68c-5.72,16.2-4.09,29-6.12,45.3-.13,6.93-3.44,16.89-7,22.75Zm.65,2.43c13.1-20.54,4.88-46.44,13.64-68.29l1.27,1.91,1.79,2.39,1,1.67-3.72-.86-.56.48-.85,4.45-1.22,5.35.42.33,2.82.62.56-.52,1.28-5.64.84.14.14.86L148.53,126l-.47.85-2-.33-2.48-.28-.29.48-.52,7.11-.37,2.48.51.54,2,.09.56.24.61-.19.6-6,.49-.11.18.29-.38,6.12-.32,1.91h-2.88l-1.4.19-.34,2.68-.37,7.65.46.62,2.65.15.32-.35.09-2.43.33-3.49.25-.71.7.18-.28,6.51-.24,2.29-2.3,0-.19,0-1.93.24-.38,1.2-.52,5.15-.56,3.93.38.62h.85l.18.09,2,.1.18-1.1.38-3.68.52-2,.8.13-.71,6.32-.38,3.05-4.61-.72-.42.39-.9,2.43-2,4.78.24.82.88.33,1.42.72.74-.44,1.23-3.39.7-1.48,1,.48-2.74,6.59-.56.72-2.64-1.34-1-.38h-.47l-1.93,3.06-.28,0-.43-1.43Zm1,5.22-.09-.87.94-1.52,1.41-2.11,2.77,1.1,1.13.81H140l.32-.33,2-5.21,1.5-3.06-.28-.52-1.47-.77-.84-.29-.47.43L139.6,172l-1,1.9-.89-.34,2-5.88.62-.85,3.2.48,1,.52.61-.39.51-4.91.43-2.3.42-3.73-.42-.33-2.11-.05-.42.24-.34,1.67-.27,3.35-.44,1.43-1.3-.24.22-1.47.7-6.84.44-.81,3.24.09.85.34.43-.63.18-4.69.33-3.82-.19-2.1-2.4-.09-.47.43-.42,6.45-1.46-.09.33-7.17.18-1.58.34-.43,3.8.28.38-.33v-.33l.52-5.45.27-4-.36-.33-2.31,0-.42,2.28-.29,3.69h-1.41v-1l.2-3.73.5-3.87,2.5.43,1.93.15.42-.82,1.59-7.06.06-2.35-2.73-.52-.42.42-.33,2-.94,3.86-1.51-.19.34-2.35,1.54-6.43h.19l4,.94,1.28,1.39c-4.81,16.35-2.22,34.89-6.35,51.52-2.44,7.34-5.28,16.62-10.67,22.47l-.58-2.21,3.77-6.59.23-1-1-.53-1.14-.77h-.61l-2.16,3.82Zm.62,3.05.65-.86,1.65-2.82.65-.2.62.59-.47,1.23-2.59,4.16Zm1.92,9.41-.47-2.09c6.15-6.48,11.5-21.7,12.7-30.26l.94-9.27.34-4.2.22-4.69.43-7.17,1.36-11.76,1.08-5.54.62-1.19,1,1.34-.39,1.52L152.53,128c-1.11,22.67-1.48,44.49-14.34,63.9Zm0-154-.66,2.11.15,1.47.56,2,.42.19-.14.24.19.53,1.69-.57,3.39-1.73,1.74-1.23.89-1.1,0-.77-.56-.57-1.23,0-5.92,5,.7-1.81.66-2.19-.18-1.29L137.3,40Zm1.61,6.31-.71.38.71.77,1.83,1.05,1.12.29,1.08-.19.47-.86-.32-.63-1.23-.66Zm.23,188,2.16-3.81,1.37-.82,1.36.33.7,1Zm1.6-22.93.66-.62,0-.24,4-3.25,3.29-1.82,1,.15.24.51-1.93.77-3.1,2.11-3.82,3.87Zm2.87-18.65-.14-1.62.94-.86,1.12-.15.9.35.8,1.09-.29,1.48-1,.87-1.55-.15Zm3.42,20.07-.88.06,2-2,1.41-2,2.06-1.77,1.18-.33h.48l-.29,1.24.2,1,.42.23,2.12.29,0,.33.11.2-.58,1.53-1.26,1.14-1.56,1-2.2,1.72-.95,1.29-.27-.14.51-1.86,2.26-1.64-.15-.51-2.49.81.52-1.44.33-1.14-.62-.11-.47.68-.88,1Zm.11-12.08-.15-.2,1.07.24.91.63.52.24.18-.57-.65-.67-.76-1.54.71.06,1.41.95.52.09,0-.62-.7-.72-.71-1.76c2.4,2.14,5.37,1.94,5.88,6.4l-1.74.2-.42,2h-1.17l-2-1.23ZM147,224l-1-.66c4.27-2.25,7.12-6.36,9.17-10.66l.33.57.23.86-2,3.44-3.1,3.83L148.82,223Zm1.14-117.09-.2-.24,3.48.34,3.44.82,3.2,1.47,2.77,2.39-2.58-1.43-4.66-1.44-2.3-.62-.71.34.27.43,2.7.53,2.3,1,2.35.9,3,1.67-.43-.18H158l-2.73-.35-2.58-1-2.41-2.1ZM148,84.71l1.52-1.44,1.07-.66,1.7-.81,2.06-.15.94.24.47.63-1.45,1.86.19.43,1.31,1.48-.09.38-1.22.57L152.06,87Zm4.85,50.38c.78-5.35.46-10.34,2.55-15.44l1.39-.57,3.59-1.73-.06.3.85.75,1,.15,1.55-.86v.53l-1,2-2.26,1.91-1.69.57-.9.2.38.57,1.88-.33.29,1.53-1.23,2.67-.76,1.06-2.06,1.29-.57.24.15.38h.94l1.27-.58,1.5-1.53.65-1.1,1.52-1.24.65.24-1.7,1.91-2.91,2.25,0,.38.47.19,1.54-.81,2.93-2.58.18.81-3.25,3-.6.39.18.42,2-1.14,2.57-2.2.14.1-.56,1.38L160,132.89v.47l1.23-.33,3.09-2.48.38.13-.23.59-3.35,2.39-2,.81-3.53.18Zm1.23,71.69-.14-.72.56-.53.7-.09.71.52.09,1.1-.47.47-.89.06Zm0-6.84.47-1.77,1.26-3.06,1.89-2.82,4.18-3.82,2.64-1.58,2.44-1.1,1-.09,1,.81c-6.43,1.46-12.67,7.78-14.16,14.24Zm1.54,3.53-.13-1.43.51-1,1.08-1.19,2.74-1.77,1.31-1.39v.62l-1.46,1.86.43.53,1.51-.53.36.05-.94,1.92.29.53,2.26-1.64.51-.09-.37.24L162.42,202l-1.28,2.39-1.32,1.23-1,.24-.56-.15-.1-1.61-1.18-.34Zm-.13-23.6.32-1,1.18-1.09h1.32l1.13.9.14,1.53-.52.9-.75.49-1.37.23-1.22-1.14Zm.09-95.06-.23-.49L159,80.65l3.29,3.43v.39L159,87.81l-.42.06Zm.94,127.5-.56-2.53.61.05,1.18-.15.56-2.09,1.36.14,1.56,1,1.41,1.87,2.44,3.59-1.12-.44-2.41-2.19-.61.09,1,2,.05.77-1.88-1.4-.61.33.7,1,.56,1.06.29,1.2-2.87-2.15Zm.33-94.33h-.47l.09-.33,3.72-3.26.19-.62h1l1.3.57,0,.53-3.2,1.91Zm-.47-27.54.09-1.91.52-1,2,1.43,2.36-2,.29.66.27,2.59-.8,2.1-1.59,2-.71.24-1.46-1.82Zm.29-10.31-.15-2,.33-1.09,1.79-3,.89-.77.9,1.2,1.21,2.15.53,2.09L162,80l-.78,1.61-1.18-1-1.28-1.2L157.05,81Zm.69,16.63-.19-2.39.62.47.29,1.54-.15.14.15,2,1.17,4.3,1.36,3.64,2.54,5.25,0,.76-.61-.57-2.92-5.73-1.74-5.83Zm.72-14.24-.85,1,.27,1.58.81.66,1.54.15.67-.63.24-.52L160.49,83l-1.32-.72Zm0,2.06v-.83l.65-.52.52,0,.57.48.14,1-.38.57-.9,0ZM161,117.21l-.1-.09,2.31-1.59.7-.27-.05,1.71-.18-.13-1.22.57-1,.18Zm1.12,7.64-.56-1.23,1.36.09,1,1.38.42.06.2-.48-.89-1.1,1.27-.57,2.44-1.82.6.14.34.81.51.24-.33.44-2.11,1.81-1.51.76h-1.6Zm-.56-2.33.62-.44.56-.57h.37l.57.92-.76.33Zm.62-9.27-.53-.2.42-.14Zm.32-30.36-.18-.37,1.59-.92,1.47,0,1.83.37,2.31,1.73.13.48-.75.86-2.45,1.43-2.39.1-1.6-.81,1-1.25.05-.66Zm1.14,38-.15-.33.24-.14,1.22-3.07,1.23.15,1,1.1.14-.77-.29-.61-1.32-.77-.74.29-.38-2.11-.62-.39-.46-1,3.05,0,1.32,1.2.33.7.14.92-.38,2.05-1.32,2.19-2.39,2-.19-.81Zm.22-11.32.14-3.11.1-1,.85-3.72,1.55-2.58,1.88-1.82,1.23-.66c-1.62,6.78,2.13,7.8-4.47,13.62l1-4,1.31-4.16,1.64-4.06-.19-.38L167,100.2l-1.12,2.39-1.27,5.74-.38,2.48Zm1,19.78.51-.42h1l1.5-.48,1.46-.86.42,1.14.38.14.29.06-1.23.75-1.79.63-1.92-.24Zm.56-3-.56.19.32,1.06.46,0,.1-.81Zm.56-6.78-.56-.1.18.76.38,0Zm.74,9.56-.69.24.51.62.38-.15Zm2-8.18-.94-.67,1-1.63.72-2.43.56.19.56,1v1.34l-.47,1.67-1.08,1.62Zm1,2.72-.76.2.8,1,.43.29.28-.68ZM34,37.69H172.29v252.1H34Zm-.93,253.06H173.23v-254H33.07Z"/><path class="cls-6" d="M60.16,223.12l-5,3.25.9,1.95,1.45,2.87,9.26,14.54,4.85,7.65.34-.3,1,1.44,17.46,27.33,4.5,7.61.85.48,1-.39.06-.57-1.51-5.64L90.5,271.87l-5.79-12.28-3.1-5-.94-1.87-9.46-16.38-.56-.68,0-.09L69,232.73l-1.74-3-3-5.3A93.58,93.58,0,0,1,81.7,216.1L91,195.59,96,183.69l2.62-7.26-.18-.29-2.08-.3-13,26.73L78.12,212.7l-.65,1L67.59,219l-2.21,1.08-3,2.12m5.68-26-.23,2.77.23.15,5.83-2.63,2.64-1,.79-1.47,4.11-8.57,4.83-10,.43-1.53-1.37-.33H85L83.49,176l-2.69,2.72L80,181l-5.18,11.18-.74,1.1-4.76,2.06Zm-.18-6,.09,4.27,1.12-.24,4.11-1.86,3.29-7.08,1.45-3.64,0-.66L76.15,182l-1.5.62-2.73.81-3.67.72ZM87.3,167.87l-.8,2.86c11.34,1.85,22.77,5.08,34.15,6.84l-.28-.62-1.27-2-1-2.53-.56-.24-23.93-4.82L87.77,166Z"/><path class="cls-6" d="M67.12,105.59l-2-.85.71,4.4,1.12.77,2.73,1.42,5.17,2.53,3.29,1.2,1,1,2,4.16c4.31,9.7,9,19.42,12.94,29.25l1,.24,2,.57-2.26-7.41-5.17-13.8-5.56-12-2.8-5.55-2.84-1L74.56,109m-3.68,19.74-1.17-.1.7,3.44.24.86,1.36.29,2.17,1.1,1.5.91,2.12,5.16,3,6.27,4,.94,0-.13-7.29-15.68-1.41-.77Zm.33,5.54-.33.05L72.06,140l1.09,3,2.15.77L79,145.55l-.2-.57L76,138.58l-1.45-2.83-2.26-1.1Z"/><path class="cls-6" d="M69,87.43l-.47,4.89h.33l3.2-2a128.48,128.48,0,0,1,8.09-30.92l2-5.11v-.86l.1-.33-.57-3.69-.41-1.09-1.61,2.72L76.29,59,74,65.17l-2.39,7.59-1.74,8.36-.75,5.26"/><path class="cls-6" d="M88.62,151.62,84,150.81l1.93,2.92L87,156.36c9.8,1.94,19.76,3.94,29.49,6.25l1.08-5.2-5-.87L102,154.34l-2.72-.47m7.24-2.88-.56.77.09.34,1.79.43,1.5.28.33-.38,5.14-10.26,0-.73.29.05,6.82-14.25,5.64-12,.85-.57,3.3-1.34,3.85-1.76,5.92-3.06,3.63-2.39,7.42-4.4.09-.81-.56-.72L141.82,83.9,136.41,75l-.58-.86-.51.19c-7.56-12.12-15.69-24.3-22.57-36.66l-2.21-.09c4,14.26,10.51,27.77,17.82,40.57l3.06,5.31,1.79,3.4,2,3.38,3.06,5.26,4.33,7.28v.37l-4.47,2.68-5.41,2.43-5.08,2-2.77.87-1.38,2.63-7.14,14.81-8.29,18.59ZM129,133.31,120,151.86l.09.38,1-1.34,3-2.87,1.45-.81,5.51-11.47.51-.53,6.91-3.14.2-2.87-1.79.57L131,132.41l-1.61.48Zm.32,9.81-1.08,2.19,1.74-.57,1.89-.91,2-.24,1.75-.34,2.73-.09.22-.66.15-9.08-6.16,2.72Z"/><polyline class="cls-6" points="102.87 145.37 102.67 145.17 102.67 145.46"/><path class="cls-6" d="M108.33,178h-.39l.9,3,2.5,7,4.51,11.62,2.67,6,2.22,5.94.8,1.62.76,1.38c7.13,1.45,11.91,3.49,18.67,6.6v-1l-.94-4.5a91.38,91.38,0,0,0-14.73-5.06l-.56-.95-7.9-17.89-6-13.23m10.26,2.09-.38.06.28.86,6.31,14.15L128.5,197l2.45,1,3.29,1.43,1.79.39.28.28.75-.1-.75-3.58-.61-.39-5.42-2.19-.32-.38-5.27-12.09Zm6.48,2.69-1.12-.43,3.76,8.7.76,1.19,1.54.57.76.09,2.08.48v-.42l-1.75-8.13-3.48-1Z"/><polyline class="cls-6" points="116.37 230 116.08 230.29 116.46 230.47 116.56 230.14"/><path class="cls-6" d="M128.07,266.47l-2.67,5.73.32,3,.62,3.11h.28c6.57-12.91,11.18-28.81,11.89-43.35l-.32-.14-3,1.86-1,6.74-1.32,6.73-1.64,6.8"/><path d="M171.23,38.68v250H35.07v-250H171.23m2-2H33.07v254H173.23v-254Z"/></g></g></svg>