<svg xmlns="http://www.w3.org/2000/svg" viewBox="0 0 208 326"><defs><style>.cls-1{fill:#fff;}.cls-2{fill:#6f7072;}.cls-3{fill:#1d1d1b;}.cls-4{fill:#facb1b;}.cls-5{fill:#f8261b;}.cls-6{fill:#001400;}</style></defs><title>QS-us-2c</title><g id="Calque_2" data-name="Calque 2"><g id="FR_-_EN" data-name="FR - EN"><path class="cls-1" d="M14.83,325A13.84,13.84,0,0,1,1,311.18V14.82A13.84,13.84,0,0,1,14.83,1H193.17A13.84,13.84,0,0,1,207,14.82V311.18A13.84,13.84,0,0,1,193.17,325Z"/><path class="cls-2" d="M193.17,2A12.84,12.84,0,0,1,206,14.82V311.18A12.84,12.84,0,0,1,193.17,324H14.83A12.84,12.84,0,0,1,2,311.18V14.82A12.84,12.84,0,0,1,14.83,2H193.17m0-2H14.83A14.83,14.83,0,0,0,0,14.82V311.18A14.82,14.82,0,0,0,14.83,326H193.17A14.83,14.83,0,0,0,208,311.18V14.82A14.83,14.83,0,0,0,193.17,0Z"/><path class="cls-3" d="M21.42,74.32l1.27-.06,1.22.08,1.25.12.4.07a23.6,23.6,0,0,1-3-6.29l-.07-.33,0-.48,0-.14,0,0,.09,0,.07.1a3.77,3.77,0,0,0,3.88,2.48c10.82-2.11-1.36-17.15-5.1-20.43-3.34,3.39-12.63,13.57-8.3,19a4.56,4.56,0,0,0,4.82,1.21l.73-.33.33-.24.28-.24.23-.26.19-.27.31-.53.19-.37.06-.1.1,0,0,0,0,.14,0,.48-.07.33a23.13,23.13,0,0,1-3,6.29l.4-.07,1.24-.12,1.23-.08"/><path class="cls-3" d="M186.86,74.32l1.27-.06,1.22.08,1.25.12.4.07a23.6,23.6,0,0,1-3-6.29l-.07-.33,0-.48,0-.14,0,0,.09,0,.07.1A3.77,3.77,0,0,0,192,69.87c10.82-2.11-1.36-17.15-5.1-20.43-3.35,3.39-12.63,13.57-8.3,19a4.56,4.56,0,0,0,4.82,1.21l.73-.33.33-.24.28-.24.23-.26.19-.27.31-.53.19-.37.06-.1.1,0,0,0,0,.14,0,.48-.07.33a23.13,23.13,0,0,1-3,6.29l.4-.07,1.24-.12,1.23-.08"/><path class="cls-3" d="M186.91,251.35l-1.27.05-1.22-.07-1.25-.12-.4-.07a23.36,23.36,0,0,1,3,6.28l.08.33,0,.48,0,.15,0,0-.09,0-.07-.1a3.76,3.76,0,0,0-3.89-2.48c-10.82,2.11,1.37,17.15,5.11,20.43,3.34-3.4,12.63-13.58,8.3-19a4.59,4.59,0,0,0-4.82-1.22l-.73.34-.33.24-.28.23-.23.27-.19.27-.31.52-.19.38-.07.1-.09,0,0,0,0-.15,0-.48.07-.33a23.21,23.21,0,0,1,3-6.28l-.4.07-1.25.12-1.22.07"/><path class="cls-3" d="M21.47,251.35l-1.27.05L19,251.33l-1.25-.12-.4-.07a23.36,23.36,0,0,1,3,6.28l.08.33,0,.48,0,.15,0,0-.09,0-.07-.1a3.76,3.76,0,0,0-3.89-2.48c-10.82,2.11,1.37,17.15,5.11,20.43,3.34-3.4,12.63-13.58,8.3-19A4.59,4.59,0,0,0,25,256l-.73.34-.33.24-.28.23-.23.27-.19.27-.31.52-.19.38-.07.1-.09,0,0,0,0-.15,0-.48.07-.33a23.21,23.21,0,0,1,3-6.28l-.4.07-1.25.12-1.22.07"/><path class="cls-3" d="M14.39,28.49l-1.32,0H11.85l0,3.62h2.5c-.37,4.19,0,7.87,3.95,10a6.92,6.92,0,0,0,7.63-1c2.34,1.82,2.17,1.69,5.07,1.53V39.11c-1.11-.09-2.35.46-3.1-.62l-.15.28.2-.43.27-.86.19-.91.05-.47V14.54l-.05-.48-.19-.9L28,12.29a7.2,7.2,0,0,0-4.7-4.21,7.1,7.1,0,0,0-8.9,6.46M17.73,32.6c1.4.53,5.07,4.78,5.92,6.07a3.72,3.72,0,0,1-5.92-2.87Zm7.43,3c-2.73-2.5-3.86-5.56-7.43-6.64V14.83l0-.44.2-.72.13-.33.29-.48a3.68,3.68,0,0,1,2.49-1.58,3.73,3.73,0,0,1,4.28,3.55Z"/><path class="cls-3" d="M179.83,28.49l-1.32,0h-1.22l0,3.62h2.5c-.38,4.19,0,7.87,3.94,10a6.91,6.91,0,0,0,7.63-1c2.35,1.82,2.18,1.69,5.07,1.53V39.11c-1.1-.09-2.34.46-3.09-.62l-.15.28.2-.43.27-.86.19-.91.05-.47V14.54l-.05-.48-.19-.9-.27-.87a7.19,7.19,0,0,0-4.71-4.21,7.1,7.1,0,0,0-8.89,6.46m3.34,18.06c1.4.53,5.06,4.78,5.92,6.07a3.72,3.72,0,0,1-5.92-2.87Zm7.42,3c-2.72-2.5-3.85-5.56-7.42-6.64V14.83l0-.44.2-.72.13-.33.29-.48a3.66,3.66,0,0,1,2.49-1.58,3.72,3.72,0,0,1,4.27,3.55Z"/><path class="cls-3" d="M193.94,295.4l1.32,0h1.21l0-3.63h-2.49c.37-4.19,0-7.86-3.95-10a6.93,6.93,0,0,0-7.63.95c-2.34-1.81-2.17-1.68-5.07-1.53v3.54c1.11.09,2.34-.47,3.1.62l.14-.28-.19.43-.28.86-.18.9,0,.48v21.56l0,.48.18.9.28.86a7.05,7.05,0,0,0,13.6-2.24m-3.35-18.07c-1.39-.52-5.06-4.77-5.92-6.07a3.73,3.73,0,0,1,5.92,2.87Zm-7.42-3c2.73,2.5,3.85,5.55,7.42,6.64v14.1l0,.44-.19.71-.13.33-.29.48a3.65,3.65,0,0,1-2.5,1.58,3.71,3.71,0,0,1-4.27-3.54Z"/><path class="cls-3" d="M28.5,295.4l1.32,0H31l0-3.63H28.5c.37-4.19,0-7.86-3.95-10a6.93,6.93,0,0,0-7.63.95c-2.34-1.81-2.17-1.68-5.07-1.53v3.54c1.11.09,2.35-.47,3.1.62l.15-.28-.2.43-.27.86-.19.9,0,.48v21.56l0,.48.19.9.27.86a7.05,7.05,0,0,0,13.6-2.24m-3.34-18.07c-1.4-.52-5.07-4.77-5.92-6.07a3.73,3.73,0,0,1,5.92,2.87Zm-7.43-3c2.73,2.5,3.86,5.55,7.43,6.64v14.1l0,.44-.2.71-.13.33-.29.48A3.65,3.65,0,0,1,22,312.6a3.72,3.72,0,0,1-4.28-3.54Z"/><path class="cls-3" d="M149,236.05l-2.43.1-2.34-.14-2.39-.23-.76-.14a45.71,45.71,0,0,1,5.8,12.12l.14.64,0,.93,0,.28-.05,0-.17,0-.14-.2c-1.45-3.41-3.82-4.78-7.43-4.78-6,.49-8.86,4.94-8.15,10.92C132.18,265.6,142.37,277,149,284c6.4-6.54,24.18-26.17,15.89-36.6a8.74,8.74,0,0,0-9.23-2.34l-1.4.64-.63.46-.53.46-.45.51-.37.52-.58,1-.37.72-.12.2-.19,0,0,0-.05-.28.05-.93.14-.64a45.41,45.41,0,0,1,5.8-12.12l-.76.14-2.39.23-2.34.14"/><path class="cls-3" d="M59,89.84l2.42-.1,2.34.14,2.39.23.76.14a45.71,45.71,0,0,1-5.8-12.12L61,77.49l0-.92,0-.28.05,0,.17,0,.14.19c1.45,3.41,3.82,4.79,7.43,4.78,6-.49,8.87-4.94,8.15-10.92C75.86,60.29,65.68,48.87,59,41.86,52.63,48.4,34.85,68,43.14,78.46a8.74,8.74,0,0,0,9.23,2.34l1.4-.64.63-.46.53-.46.45-.51.37-.51.58-1,.37-.73.12-.19.19,0,0,0,.05.28-.05.92-.14.64a45,45,0,0,1-5.8,12.12l.76-.14,2.39-.23,2.34-.14"/><path class="cls-4" d="M34.51,121.94v2l0,.2.29.66,2.06,2.58,2.35,1.87.71.24.19.27-.61.5-1.65,1.89-1.73,3.22.09.57.47.52,2.91.86,3-.09L41,139.67l-5.5,10.13-1,1.63v6.3l.09.43.28-.57,9-13.24,4.32-5.49L50.68,137l.91-1.08-.05-2-.8-.86-1.94-2.72-2.73-5.55-.89-.67-1.26,0-.43-.1-1.27.91h-1l-.8-.34-2.13-.72-3.62-2.34m-.13,48.23v5.63l1.65.3.36.47.11,2.39-.24,4.21L35.63,186l-1.12,3.59,0,.67h0v10.85l.09.18,1.88,1.88-1.32,1.19-.65,1.25v5.68l1,1.58,1.65,1.1-1,1.15-1.22,2.2-.37,1.23v8.79c.19,2.73.05,5.55,0,8.27l.13.83.43,1.14.66,2.72.28,3.54.47,2.49.09,5.35L35.82,255l-1.31,2.81v.44l.42.43.65-.15,1-.47.33.14.62,4.06-.8.57-1,2.35L36,267.6l1.74,5.65,1.46,5L40,279.6l.65-.33,1.9-9,.51-3.11.09-2.35-.6-1.47L41,262.11l.53-4.16,1.45.86,1-.05.18-.42-1.08-2.92-1.18-5.21,0-.57-.1-3.64.72-5.64,2-10.18.79-6,2-1.91L50.59,219l1.6-1.86L55,213.21l3.63-5.82,3.43-7.21.94-1.64,1.22,2.78,1.83,2.87a95,95,0,0,1-4.84,21.93L59.3,231l-2.68,5.37.09.37,2.59,2.05,1.73.87c5.49-9.37,5.68-20.63,7.67-31.07l.24.33,1.79.91L69.08,211l.09.48.47.28,1.69.73-2.82,1.19.14.47.29.14,2.49.83.56.42-1.37.43-.7.2-1.74.66.14.48.62.29,2.77.81,1.08.48L68.18,220l-.85.47.43.39,5.69,1.29-.1.24-6.76,1.43v.48l2,.53,4.94,1-.52.14-5.83,1.16-.85.46.33.53,5.73,1,1.66.33.13.24L68.89,231l-1.41.24-1.78.67.32.56,7.66.77,4.1.34-.47.29-.57-.05-1.07.09-2.13.48-1.69.24-.76.53-1.41.18-.85.48L68,236l-1.85.9-1.68,1-1.32,1.05-1.32,1.43,0,.24,4.57,3,2.48,1.77,1.52,1.39.51-.14.81-1.2,1.87-1.86,2.13-1.15,1.21-.43,2.73-.05,1.13-.24,1.75.39.79-.24a53.14,53.14,0,0,1,15.34,3.82l1.6.53,6.77,2.91,1.55,1,.47.14.66.15,3-3.25,3.48-2.82c-3.43-2.57-8-3.49-11.29-5.58-6.37-2.31-11.44-4.3-18.25-5l9-1.8,1.26-.44-.18-.42-8.14-1.53L86,229.24l-.61-.35.33-.09,7.58-1.38.13-.57-.47-.26-6.54-1.23-2.11-.57,7.34-1.58.18-.53-4.7-1-1.7-.24-2.1-.47,1.54-.52,2.87-.77.71-.57-.38-.33-6.77-1.34.42-.3,2.73-1.05.94-.62-.38-.42-4.09-.58-1.32-.14v-.15l2.16-.66,1.46-.72-.32-.62-3.3-.44-1.17-.33,1.79-.57,1.5-.91-.18-.44-3.87-.66v-.09l1.23-.53,1.32-.77-.47-.37-4.15-.54.47-.38,1.18-.61L77,205.2,74.82,205l-.29,0-.42.39-1,1.05.51,1.1.8.2.76.24-1.13.81.6,1.29,1.14.18.74.2-.22,0-1.42.82.47,1.2,2.91.43L75.85,214l0,.47.57.91,1.36.09,2,.48-.67.24-2,1,.52,1.34,1,.24,3,.53.43.14-1.37.38-2.25.77,0,.63.65.86,1.9.18.09.15.94,0,2.15.57-4.09.82-.42.63.24.57.6.95,4.76.81.38.24-3.62.63-.81.62.43,1.14.65.9,5.41,1.11.67.2-4.43.84-.89.54,0,.57-2.44-.06,0-1-.53-.39-2.53-.42-.38,0-1.7-.33.47-.19,3.44-.86.19-.91-.61-.67-1.41-.48L75.2,228l-1.27-.44.56-.18,1.88-.39,1.31-.43.67-.43-.29-1.05L73.82,224l2.36-.38.88-.38L77,221.92l-.65-.77-2.39-.62-.48-.28,1.93-.29.65-.39-.14-1.14-.51-.53-2.63-.76-.34-.14,2.41-.77.09-.81-.56-.81-1.6-.53-.66-.34,1.17-.42.56-.68-.28-.62-.28-.28-1.55-.57,1.08-.72,0-1.06-1.6-1,.52-.66.09-1-.56-.62.33-.35,1-.22,1.45-.77,1.83-1.67,1.37-2.3.24.57,5.64,7.32,2.12,2.33,3,3.78,2.5,2.54L92,219.05l2,2.19a225.58,225.58,0,0,0,24.32,21.42l1-.43,3.62-1.34,2.55-.72.56.25-.38-.43-1.09-.44-3.09-2.05L119.36,236l-4.14-3-11.38-9.52-3.35-3-1.17-.81-3.9-3.54-8.19-8.94-4.32-4.83-1.32-1.8L79.23,198l-2.17-3.05-.13-3.59.1-.19c17.45,15.69,38.71,26.56,60.53,34.46l4.29-4-.62-.62-6.3-5.54-6.31-5.88-.42-.72H128l-1.23-1.58-1-1.34-1.08-1.67-2.21-4.63-1.09-3.83-.14-2.24c-.25-7.77,5.55-13.5,10.49-18.55,7.69-6.92,19-14.82,23.23-24.85a85.75,85.75,0,0,0,18.58,5.4v-5.69l-.38.24-1.26-.24,0-.85.27-4.64.8-4.92.61-2.3V124.8l-.23-.38-1.5-1.52.9-.68.83-1.1V114l-2.15-1.86,2.15-2.49V88.49l-.32-.73L172,77.63l.27-4.34,1.32-3.73V67.17l-.09-.06-.23.34L171.9,68l-.66-3.49.15-.72,1-.91.52-1.29.09-2.39-.76-2.82-2.71-9.32-.62-.91-.56.38-1.08,4.36-1.7,8.31.23,2.06.43,1.1,1.55,1.47-.28,2.26L167,68l-1.56-1-.94.29.09.76.57,1.06,1,4.25.51,3.2c.95,8.5-3.29,17-3.71,25.42-8.21,6.93-12.92,15.72-17.4,25.39l-.29-.06c-3.57-9.22-4.06-1.92-2.35-13.18l1.37-5.64.37-1.82,1.55-5.5,1.18-3.34,1.5-3.39,2.4-4.83.24-.92L148,86.23h-.29l-1.55,2.92-.28,1L144.43,94l-1.12,3.45a93.92,93.92,0,0,0-3.78,22.5l-.7-.27h-.42l-.8-.72,1.56-1.4.09-.66-1.79-.86v0l1.7-1.25-.47-.53-1.75-.72-.13-.18,2-.68.79-.57-.23-.52L136,110.37l4.09-1.35-.71-.8-2.53-.67L135.4,107l.28-.2,4.14-.81.85-.42-.38-.44-4.7-1.09-1.32-.44,1.55-.48,2-.27,3.48-.74.1-.51-5.56-1.2-1.13-.38,6.87-1.53.09-.53-.42-.19-2.3-.47L137.32,97l-3.42-.72,0-.09.52-.2,4.84-1.1,3.06-.85,0-.48-.47-.2-1.79-.13-4.47-.53-.18-.1-2.41,0-3.44-.48c2-.61,4.47-.48,7-1.23l1.23-.39,3.2-.91L143.82,88l3.06-2.39.05-.48-1.27-.37-2.31-1.87-4.89-3.59h-.94L135,81.93l-2.15,1.39-2.35.48-2.12.33h-1.23l-1.84-.53-.42.2-1.59-.24-5.32-1-7.29-2.33-3.48-1.34-6.54-2.83-1.56-1.24-.46.34-3.2,3.39L92.4,81l.57.48,4,2.09,2.21.81,1.84,1.06.94.1L107,88l2.26.58,1.92.9,1.51.29,1.22.34.85.28,2.16.38,2.87.57,2.73.35,1.88.09,1.32.24,2.59.14,0,0-.85.29.09.81.61.42,4.29.44.33.33-.47.19-.06,0-1.12.24-1.65.28-1,.53.09.77,1.09.75,1.64.24,3.11.77-.28.15-3.58.75-.8.54.29.86.32.24,1.18.37,2.26.44.65.28-2.53.38-1,.59.32,1.23.42.48,3.25.95-2.49.58-.43.43.14.67.61.71,2.12.58.94.43-.42,0-2.11.82-.06.62.42.82,1.56.42,1.08.53-.43.1-.93.28-.7.71.65.81,1.5.59-1.17.85.29,1.19,1.5.77-.8.92,0,.57.8.76.05.23c-3.51.64-4.62,2.75-5.88,5.7l-.85-1.1-.62-1.25-1.77-3-1.52-1.68-2.26-3-3.75-4.3A192.54,192.54,0,0,0,89.82,82.74L87.19,84l-.57-.1-.66.43-2.82.77c4.31,3.27,8.08,6,12.41,9.46l2.5,2,5.7,4.83,7.2,6.26,6.76,7.17,7.24,8,2.5,3.2,3.76,5.4.29,2.93-.09,0a151.71,151.71,0,0,0-25.27-17.87,153.86,153.86,0,0,0-33.53-15.83l-4.52,3.55.09.47,4.9,4,8.41,8.09c7.22,8.79,8.85,19.7.33,28.24-8.24,10.11-22.24,17.32-27.75,29.92l-.47,0-5.79-2.25-4.45-1.34-7.45-1.66-1.18-.14ZM34.88,99l.14,1.58.47.9,1,1.07,1.28.51.24-.38,1.92-.33.94-.72-.75,2,.19,1.81-.29-.28-.33.14L40,106l1.37,1.58.8.38,1.36.09.9,0,1.54-1.25.81-1.76-.2-.48-.18-1.34-.47-1.34.51.19,2.12.24-.28.3.09.57.57.48-.38.09V104l.85.28,3.25,2.2,2.53,2.67c-4.91-1.22-5.6.38-10.11,2.35L43,111.41l-1.17-.84-.56.23.1,1,.56,1.23,1,.92,1.51,1.14,1.6.53,3.15,0,2-.85,3.87-3.12,1.13-.09.94.82.23.23,2,.15-.62-2.1.57-2.06c3.64-4.93,8-2.84,8.57-11.71l-.76-3.16-.67-.85-.56.39.1,1.47L64.85,97l-4.61,4.45-1.79,3.14-.62,2.11-.14,2-.94-1.29-3.43-3.35-3.25-2,.47-.52.76-1.87-.2-1.82-.74-1-1.37-1-.75-.06-.09.29-1.84.44-.85.71,0,.49,1.27,1.8L45.6,101l-.18.38L43,103.05l-1.36-1.38-.76,0,.14-.24-.32-1-1.28-1.2,1-1.15.14-.77-.79-.61-2-.1.09-.38-.81.13L35.4,97.61Zm5.55-7.55L39.34,93.4l.24,1.06.34,1.2.6,1.32.71.3L43.3,95.6l1.56,1.48.42,0,.43-.39.32-1L46.16,94l.38.2.06-.67L45.89,92l-1.46-1L43,90.68l-1.36.2Zm1.36,6.78-.37,1.16.09.33,1,1.1h.94l.61-.48.38-.86-.2-1-.74-.71-.85-.19ZM42.92,215l-1.73-1.34.51-.14,1.84-1.86.56-1.73,0-2.81L43,204.61l-1.45-1.33.47-.2,1.23-1.23,1-2.39.15-5.17-.38-3.4-.47-3.14-.62-5.07-.28-3,.38-2.3,2.73.81,1.59.57,3,1.34,1.27.44,3,1.77,1.18,1h.61l.19-1.76,1.08-3.26L59.53,175l2.64-3.77,2.21-2.15.27-.77c8.45-7.82,18.48-14.17,24.93-24L92,139c2.77-10.29-1.43-21.07-9-28,8.69,2.68,17.08,7.08,25,11.66l7.38,3.87,4.8,3.2,5.17,3.24,6,4.41.85,1.1,2,3.59,2.16,2.19.95.66,1.73.68,2.36.14c5.82-1.11,5.53-8.61,5.21-13.19,3.72-8.11,9.37-19.24,17.13-24.14l.18.44,1.93,2.52,1.27.92c-3,1.86-3.68,5.34-2.21,8.46l1.54,1.67.2.28-1.18,1-1,2-.34,1.29-.18,1.1c-.51,6.71,2.5,13.89,1.75,20.31l-3.58-1.25-1.27-.38-4.1-1.58-3.89-2.25-.58.2c-4.83,19.64-30.33,25.22-35.55,44.06-2.56,10.75,2.59,20.92,10.44,27.87-18.08-5.91-34.79-15.54-50.33-26.52L74,183.63c-2.53-3.39-6.67-5-10.11-1.95l-1.52,2.67-.89,3.25.06,3.64.18,2c-3.62,8.71-9,18.59-16.28,24.7l-.24-.2-.13.29-.34-.62Zm22.16,26.76-.38-.19,2.92.05.38-.39.09,1.11-1.36-.68Zm.33-51.61L65.5,188l.65-1.82,1.29-1,1.59,0,1.41,1.3,1.36,2.48L73,193.43l0,4.21-.24,1.43-.61,1.77-1.32.77-1.23-.24-1.36-1.25-1.12-2.06-1.28-4.15ZM70,240.69l.43-1.47.42-.33,1.41-.06,1.18.34,1.93,1.52.51.83-1.4.47-1.37.67-.76.77-1.5,1.43-.46-1.34ZM100.92,36.2H83.34L77,36.34l2.26,5.21,1,3.58c.63,8.79.72,17.07-1.78,25.53l.71.13.22-.42.9-.3,1.36-.94L84.37,66l1.78-3,.66-3.2a11.81,11.81,0,0,0,6.63-11l1.37-.72,2.53-2.53,1.38-2L101,39.26l.51-2.35-.42-.24ZM77.64,241v-1l.24-.72.79-2,1.14-1.1h1l1.12.71L83.14,239l.65,2.16-.23.33-1.4-.1-1.51-.2-1,.06-1.17-.09-.47.27ZM83.47,68.07l-3.2,2.3.23.66,4.67.86L91,63l7.57-11.19,1.23-2,7.33-10.89.34-.39.32-.72,1-1.14.13-.47h-4.19l.15.42-.52.15-1.42,3-1.77,2.68-3.58,3.91-2.21,2.35.33,1.92-1.36.23-.76.91v.38l-.8,3.06-2.26,4.59-3,4.54ZM80.79,40.92l-.14-.46,1.17-.11,1.37.44L85,41.84l2,1.62,2.3,2.48-.47-.09-3.1-1.38-2.84-1.53ZM83.23,50l-.18-.82,2.06-1.33L86.9,47l1.79-.11-.09.48-2.31,1.82-.8.2-1.23.76Zm.47,8.46-.23-.91.65-.76h.61l.57.42V58l-.7.63Zm.76,178.84.42.09.52-.09-.7,1.05Zm.8,4,.89-1.73,1.75-1.62,1.17-.43,1.5,1.39,1,1.86.09,1.87c-2.41-1.09-2.91-.86-5.5-1.16ZM89.07,42l-.1-2.1.57-.8.71.18.36,1.91V44l-.41.81-.85-1.54Zm6.06,201.59L94,243.14l.85-1.25L97,240.08l1.47-.38,1.17,1.49.62,2.09v2.1l-.38-.19L98.43,245l-.76-.54-.84-.23-.34.05-.51-.33ZM96.69,42.12l.89-1.66L97,42Zm.76-1.77L98.34,38l-.06.57-.61,1.82Zm2.62,39.81-1.17-4.3.51-.24.48.57.47-.09,1.54,1.05,2.64,1.49,2,.9L105,80.69l-2.3,1.2L101.3,82l-.43-.33ZM100,289.07h4.18l0-.05-.74,0,.61-.3,2.3-3.58,2.82-3.82,4.09-3.92.15-1.06-.42-1.38.94,0,1.23-.73a29.28,29.28,0,0,1,11.65-17.92l-2.49,3-1.78,3.05-.76,3.44c-3.81,1.19-6.89,6.95-6.68,10.81l-.19.09-3,2.48-1,1.34-2.35,3.88L107,288.15l.27.63-.36.29h24.78c-5.18-9.31-4.66-24.11-1.7-34.17l-.51-.11h-.28l-.38.35-.19-.53-4.52-1.14-.79.42-5.6,8.66-11.43,16.91L100,288.92Zm4.56,0h.38l-.23-.09Zm-2.44-43,.65-.63.62-.53,1.73-.86,1.65-.33.89.71,1,2.63.52,2.45-.58-.54-.79-.18-1.13-.63Zm5.64-165.94h.47l1.32.57,1.55.63.85.57h.37l2.12.48-.61,1-1.51,1.52-1.26.92-1.23.13-1-1.23L107.84,82ZM111,289h-1.45l.51-.44.15-.76.19.81ZM112.3,93.84l-1,.38,0,.37,3.67.77,1.41.24,3.77.72,2.63.29-.05.24-7.61,1.33-.62.48L115,99l8.76,1.86,0,.15-6,1.24-1.59.54.33.42,7,1.19,1.23.39L120.35,106l-.81.48.29.37,2,.63L125,108l2,.43-2.21.8-2.07.92.19.24.61.33,4.09.53.85.28L125,113l-.13.38,1.22.37,3.52.63-3.2,1.43.15.48.34.14,3.65.53-2.67,1.33.28.48,4.22.62-1.45.72v.44l.38.09,2.68.28.24-.62.79-.61,0-.68-.7-.81-1.09,0L133,118l1-.71-.09-1-.72-.57-1.73-.15v-.09l.28-.1,1.41-.67V114l-.47-.7-2.17-.29-.47-.29,2-.81v-1l-.24-.49-3.42-.57,2.44-1,.09-.81-.28-.57-4.42-1.1,2.87-.77.57-.52v-.48l-.67-.77-4.89-1,4-.77.42-.37-.14-.82-.62-.91-4.85-1-.5-.19,3.14-.44,1.23-.42.19-.77-.38-.81-.75-.81-5.41-1.14-.47-.15,4.65-.9.66-.35-.28-.57-1,0L122.33,92l-3.82.76-4.42.82ZM115,86.71l-.7-.39.66-.66.19,1.29ZM116.39,83l.15-.09,3,.57,1.14.42,1.41.2,1.45-.24.29.39h-.56l-1,1.91-1.7,1.57-.88.44-1.09-.2-1.41-1.86ZM118,284.24l.18-3.06.2-.33.32,0,.75,2.11.25,2.48-.43.67-.51-.29Zm1.59-193.32,1.47-.63-.19.48-.47.2Zm.58,189.2-.43-.52,4.32,1.86,2.5,1.63,1.32,1.48-.29.48-.8-.15-2-.66-2.68-2.1Zm-.05-1.62v-.28l1.08-1.3,2.77-1.47,1.23-.2.09.77-1.5,1.34-1.7.86ZM122.7,88.62l.8-1.19.33,1.06-.38-.11Zm.42,179.27.52-.91.33-.19.85.19.13,1.1-.7.62-.75-.47Zm2-181.09-.8-2.39.56-.28,2.07.33,1.5.34,2.22,0-.14,1.62-1,2.29-1,1h-1.08l-1.36-1.1Zm2,169.19-.1-.14,1.23-.71Zm3.48-165.94.85-1.1.79-1.9.66,1-.66-.14-.94,1.68Zm2-5.2-.14-.53,1.84-.72,1.93-1.67,1.07-1.24.44,1,.45,2.39-.13,2.15-.65.72-1.79-.09-1.41-.63Zm3.11,5.4-1.5-1.06.7.39,1.41.43-.34.1Zm.13,44.84-.78-4.65.13-2.43.32-1.78.81-1.53,1.6-.57,1.12.57L140.2,126l.89,1.82,1.23,3.77.56,4.78-.19,2-.66,1.38-1,1-.67.15-1.21-.24-1.37-1.2-1.32-2.63Zm2.93-45.94.51-.62.57-1-.61,1.67Zm1.55-4.49-.28-1.19,1.22.57,1.69.09.52-.33.18.57-2.53-.14Zm1.92,138.5-1,2.82.24,3.72.56,1.43.56-.51L144,228c3.6-2.47,7.42-7,7.33-11.76l1,1.38,3.4,3.35,3.24,1.91c-2,2.23-1.79,4.68,1,5.93h.8l2-.57.61-.73,0-.57-1.22-1.53.93-1,.29-.87-.76-.62-2.25-.29.23-.24v-.72l-.61-.33.19,0,.14-.33-1.32-.58-2.86-2.09-2.26-2.5,1.23.39,2.15.05,1.79-.44,1.89-.85,3.09-1.34h2l1.17,1,.47-.34v-1l-.65-1.34-2.12-1.63-2-.8-2.25-.06-1.37.43-2.77,1.3-2,1.77-1.5.76-.33,0-.94-1.1-2.2-.19.65,1.91-.09,1.68-1.38,1.76-2.15,1.53L143.91,221Zm15.85-34.89-.94,2,.05.54.42.57,1.74,2,1,2.15.62.76,2.3,4.5,1.12.28,1.65-.28.9-.82,3.15.77.32.66.38-.18,1.51.9,1.17.86.09.11v-3.54l-.18-.28-2.55-2.59-2.06-1.38,1.88-1.82,2-3.11v-1.39l-.85-.52-2.06-.72-1.32-.14-2,.14.85-1.28,4-7,2.3-4.3v-6.74l-11,16.2-2.26,2.63-.94.15Zm4.34,31.12-.38,1,.42.09.09,1.29.61,1.58.67.2,1.65-1.34.51-.09,1.32,1.28.42,0,.28-.09.53-1.14,0-2.39.53.37-.06-1-1.35-1.63-1.09-.42-2.16.24L163,218.43Zm.65,10.22-.56,1.87.18.61.76,1.15,1.45,1,1.79.05,1.14-.43,1.27-1.25.65-2.39-.51.2-.29-1.29-.85-1.39h-.41l-2,1.72L164.08,228l-.56-.1-.65,1.29Zm2.16-5.35-.84,1.1.09.9.75,1,1.08.09,1-.81.09-1.23-1-1Zm4-1.73-1.32.87.1.71.84.81.61,1-1.26,1.29.47.71.85.34,1.5.28,0,.29.9-.15,1.59-1.38v-3.2l-.42-.81-.75-.77-.89-.29-.2.33Z"/><path class="cls-5" d="M40.15,202.9l-1.28,0v0l.76.43.29-.19,1.31.62,1.17,1.2.62,1.38.14,2.3L42,211.5l-2.26,1.58.09.43,1.22.8.84.68,2.55,3.63H45l3.57-3.35,3.25-3.53,3.57-4.83,2.22-3.83,3.62-7.3.79-1.25c-.55-4.71-1.22-9.78,2.88-13.14,6-3.41,9.19,2.9,11,7.59h.34l3.47,2.59,7.44,5.06,10.26,6,7,3.94,3.63,1.71c5.64,3.23,13.68,6.84,20.17,8.12l-.37-.53-5.74-6.31c-3.68-5-6.81-12.86-5.55-19.35l-.85-.48-.24-.28L112.07,188l-4.23-2.26-4.06-2.52-8.5-4.93-5.55-3.77h2.73l21.11.19,9,.24,2.5-.43,2.68-2.82-.53-.19-11-.11-3.62-.13-4.61,0-.29-.05h-6.58c-12.84-.16-25.71-.26-38.57-.52l.05-.06-1,.06-1.89,2.57-.56,1.16-.9,1.23-1.31,2.68-1.08,3.4-.18.38-.53-.34-4-2.24-.62,3.68-2,6.65L45.37,196l-1.83,1.86-.71,2.29-1,1.58m22.39-12.18.33,3.67.75,3.53,1.84,3.7,1.5,1.38.85.38h1.12l1-.19,1.08-.82,0-.48.15.06.79-2.15.06-4.84-.29-2.24-1-3.35-1.23-2.57-1.83-1.68-1.47-.23H67.1l-.71.18L65,185.22l-.33.8-.47,2Z"/><polyline class="cls-5" points="34.13 147.46 34.13 153.29 34.17 153.62 35.54 150.38 38.55 144.92 41.98 139.09 44.1 136.61 40.1 136.13 39.78 136.18 38.17 135.84 36.72 135.22 37.93 132.98 39.87 130.97 41.56 130.07 41.79 129.34 39.25 128.2 36.76 125.81 35.45 124.22 34.84 122.51 34.46 122.03 34.27 123.18 34.17 131.5 34.17 144.35"/><path class="cls-5" d="M81.55,152.48l-.9,1c22.1.39,44.21.42,66.32,1.1l.94-1.19,1.93-2.87,1.79-3.38,1.09-3.11,4.74,2.24c.72-7,1.62-10,5.36-16.25l1.51-1.57.47-1.11,1.18-3,1.07-1.14,1.08-.24v-.29l-1.17-.09-1.31-1.53-1.05-2.35.48-3,.9-1.24,0,0,1.73-2.39h0l-1.36-1-1.32-1.53-1.17-2.77-.66.24L159.86,110l-4,4.64-2.91,3.87-3.48,6-2.68,5.68-1,1.49.47,2.63L146,138.8l-.38,2.15-.94,2.06-1.32,1.39c-4.51,2.3-7.49-.35-9.84-4.11l-1.22-3.2-.65-.72-7.34-5.31-7.85-5-11.67-6.79-6.59-3.45-8.65-4-1.89-.75-4.18-1.53-2-1-.65,0,.24.42,2.06,2.26,3,3.58,2.11,3.1,2.3,4.68.62,1.91,1,6.31,0,3-.18.51.36,1.2,9.89,4.74,6.3,3.38,7.15,4.16,3.34,2.49,0,.57h-.42l-.23,0-5.27,0-7-.18-19-.29-2.91,0-.33-.11m51.54-26-1.26,3,.14,4.74.28,2.39.95,2.78,1.07,2.43,1.79,1.72,1.18.48,1.6-.05,1.31-1,.94-1.34.2-1.25,0-4.4-.33-2.28-1.12-3.69-1.23-2.52-1.88-1.87-.71-.24-1.21-.1Z"/><path class="cls-5" d="M160.43,94.26c3.44-17.5-7.44-26-13.32-41.19l-1.93-6.36V45.42l-.09,0L144.43,48,144,51.91l.09,4.65.25,2.91c6.15,8.92,15.76,21.38,12,33.07l1.32.67,1.56,1.05.94.48"/><polyline class="cls-5" points="34.51 210.88 34.51 216.7 34.88 216.61 34.98 215.84 35.78 214.84 37.61 213.6 37.89 213.45 35.96 212.55"/><polyline class="cls-5" points="34.51 198.84 34.51 204.96 34.6 204.99 36.05 203.65 37.48 202.75 36.01 201.7 34.6 199.5 34.84 199.41 34.69 198.78"/><path class="cls-5" d="M47.16,240.23c1.13,14.72,14,25.11,15.9,39.56l.33-.19.79-3.25-.18-.57.09-.68,0-3,.2-4.72-1.27-2.06-4.47-8.07-1.46-2.39-2.92-5.5-2-5.69-.85-4.11.1-1.3,0-4.91-.74-.57-3-1.69L47,234.86"/><path class="cls-5" d="M86.25,68.69,84.6,71l.1.49,2.86.66,2,.78h.8c4.48-7.44,11.29-15.76,14.82-23.62l.13,0,3.81-6.93,3-6.26h-4.14l-5.27,8"/><path class="cls-5" d="M98.85,282.32l-2.72,6.31V289h3.56l.38.05h.42l3.58-5.64,19.34-28.92.13-.71-1.83-.3-1-.51-2.31-.54H118c-4.31,6.66-9.75,12.49-13.59,19.46"/><polyline class="cls-5" points="165.36 187.42 163.57 189.32 164.04 190.05 166.63 189.08 169.27 189.08 169.36 189.13 171.43 189.66 171.53 190.18 170.39 192.24 168.46 194.2 166.4 195.49 166.92 196.15 168 196.49 169.92 197.55 172.31 200.12 173.54 201.32 173.54 173.41 170.11 180.2"/><polyline class="cls-5" points="170.25 122.75 170.11 123.03 171.33 123.36 172.37 123.99 172.56 124.22 173.07 124.66 173.54 126.14 173.54 120.4 173.49 120.51 171.48 122.37"/><polyline class="cls-5" points="173.54 109.26 170.45 112.42 172.71 114.24 173.27 115.14 173.54 115.29"/><path class="cls-6" d="M34.88,169.3v44.26l.14-1.4,2,1.58-.74.81L35,216.43l-.14-.39v23l.14-.86c.68,5.5,2.84,12.86,0,18.07h-.14v2.3l.61-.2,1.08-.62.29,1,.33,3.49-1.09,1-.7,2.06.14,1.47,3.57,11.86.47,1,.47-.09.38-1.54,2.12-9.27.23-3.49-.71-1.91-1.41-1.1L41,259l.28-1.24,1.27.86,1.08.14.29-.38c-4.54-10.06-1.66-18.68.47-29h.36l3.31,2.24c-2,7.74.28,15.89,3.8,22.8l5.21,8.93,3.87,7.94,2.16,6.07.43,2.72-.09,1.58.09,7.07H76.79l-.14-.33,1.79-3.58,1.41-1.4,2.44-1.62,2.44-1,3.17-.67,2.62-1,2.68-2-.6,1.66-.34,0-1.83,1.14-2,.86-2,.57-3.8,1.49-2.53,1.77-1.42,1.38-1.17,2.82h9.77l-.13-.38h.24l.13-.52L89.4,286h.33l-.42,2.15-.34.53h1.42l-.39-.23.43-1.49.65-2.91,3.21-7.41,2.54-5.55,4.6-9.08,2.41-3.77,2.58-3.3,1.13-1.67,2.87-3.54L114,246.1l3.67-2.67,3.26-1.54,3.24-1.24,1.17.15-2.68,4.78-3.52,7,.56.48,3.24.76.19.34c-7.46,11.64-15.3,22.93-22.86,34.5h1.27l.23-.66,20.55-31.3,1.94-2.64,3.67.71-3.06,2.3-4.23,4.45-1.61,2.15-2.72,5L114.8,274l-1.23.67-1.12.2.32.61.19,1.78-3.81,3.58-.9,1.09-4.74,6.74h3.76l1.55-4.15,1.51-2.68,2-2.48,3.11-2.49c0-4.51,2.46-9.2,6.68-11l.61-3.11,1.27-2.48,2.82-3.44,1.74-1.15.67-.19-1.09,3.25-.66.09-1.69,2-1.37,3.25.2,1.58.27.28.61-2.72,1.65-3,.85-.62c-1,9.71-1.51,20,2.53,29.11h1.18c-4.77-6.87-4.73-26.66-1.12-34.31l-6.12-1.2-4.19-.95v-.34l2.4-4.77,5.46-9.71,4.62-6.5,5.16-5.74,3.85-3.44,5.79-4.19,1.88-1.25.43-.09-.23.42-1.74,1.87-2.26,1.33-2.35,1.91L141.94,224l-.71,2.49.09,2.15.38,1.82.47.7c2.36-6.5,8.8-5.78,9-15.09l1,1.53,3.91,3.67L159,223l-.51.62-.81,1.53.34,2,1,1.32,1.7.68v.9l0,.81.29.2,1.41-.14.27.77.76,1.61,1.5.91,2,0,1.36-.68.75-1,.85-2.14,1.45.52.34-.09-.48-1.29.19-.82.66-.19,1.17-1.05v-4.16l-1-.91-.74-.28-.43-.62.32-1.82-.65-.15-1.27.44-.79-1.53-.91-.95-1.23-.49-1.86.14-1.56,1.2-.7,1.58-.62.53-1-.44-.52.14.09.77-1.13-.43-1.55-.9-3.48-3.16-.46-.76c3.54,1.58,7-.51,10.11-2.11l2,0,.75.42.19.29.8.28.24-.85-.8-1.77-2.35-1.77-1.88-.63-1.52-.18,1.79-.92,3.82-1.71,4.23-1.63,2.15-.71v-2.77l-1.92-1.19-2.17-.87-2.24-.33-.05-2.83-.91-3.58-1.45-2.49-.19-.42,2.49-1.05,2.35,0,2.5.57.18.62-1.17,2.06-2.07,2-1.79,1.14.2.53,2.44,1.05,2.68,2.44,1.12,1.47v-1.58l-1.63-1.76-2.87-2.06,1.64-1.53,1.88-2.76.48-1.68-.48-.57-1.22-.48-2.45-.57-2.26.24,1.51-2.3,5.4-9.71v-2l-2,4.21-2.44,4.1-3.15,5-1.92,1.91-1-.91-1.32-.72-.14-.28.38-.29,1.84-2.2,3-4.1,6.73-10v-6.5l-2.67,2.62L152.19,185l-1.08-1-13.22-14.29.38-.58.33-.15,7.06-6.3,4.18-4.49,2.44-3.25,1.79-3.2,1-1.63,6.11,2.29,4.27,1.29,3.06.72,4.7,1v-1.05c-7.17-.94-12.31-2.95-18.71-5.64-5.57,15.7-27.24,23.37-33.21,38.71l-1,5.31,0,1.67.52,3.15,1.36,4,1.79,3.24,2.77,4,1,1.3,6.29,6.11,5.79,4.78.56.71L138,223.45c-6.87-4.21-17.61-14.81-19.81-23.27-6.82-22.63,16.84-30.76,29-45.22l3.25-4.69,2.63-5.92c5.47,3.36,13.69,5.62,20,6.55v-.81l-1.17-.2-.33-1.14.52-5.35.71-4.12.27-.9v-7l-.13.72v1l-.19.09.09.73-.75,4.54-.19.85-.28.62-.14-.42.52-2.44.47-3.49.47-4.88-.28-1.86-.57-1.34-1-1-1.59-.72-1.69.19-.85.77.09.53h.47l.09.37h1l.61.09,1.27,1.25.19,1.67-.56-1.38-.76-1-1.08-.48-1,.24.09.42,1,.15,1.13,1.1v1l-.28-.68-.85-.71h-.75l.1.34.8.61.32,2,0,4.24-.6,4.08.09.9-.33,1.49.24,1.05.42-.06.23-3.29.33-1.1.14-1.29.42.76.24-.15.38-2.19.28-5.4.19,1.1-.19,4.06-.14.72-.33,2.87-1.23,4.34.11.68-.29,1.1-.52,3.34-.47,1.24-.47-.09-.75-.39c.83-7.35-4.55-18.38-.05-24.47l1.65-.71,2.07.14,1.78,1.05.76,1.25.27,1.62v-3l-1.3-1.25-.15-.29H172l1.17-1.2v-7.87l-1.88-1.49,1.65-1.76.23-.3V87.19l-.32-2.06-.71-5.87L172,74.85l.27-1.67.94-2.57v-3.2l-1.3.66-.62-3.39.09-1,.66-.53.9-1.67.09-2.3-3.85-12.76-.47-.15-.33.35-2.4,10.7-.06.86-.18.91.09,1.72.56,1.57,1.32,1.34v1L167.1,68l-1.74-1-.89.43c4.49,9.59,1.71,19.45-.66,29.15l-3.38-2.3c3.44-17.5-7.44-26-13.32-41.19l-1.93-6.36,0-3.49,0-2.3-.47-4.34H77.17C81.74,45.1,81.63,62,78.24,70.51l.25.33,1.59.48,2.12.2,2.59.61,3.47,1,.15.2L85,79.15,82.49,83,78,90.15l-3.4,5.27-3.85,4.63-3.86,3.35-7.57,5.29c.77-2.81,4.8-3.47,6.54-5.73A9.15,9.15,0,0,0,66.82,93l-.29.94-1,2.2-2.21,2.34-3,2.88-1.69,3-.8,3.35.13,1.06L56.66,107l-3.2-3-3.34-2.06,1-1.62.18-1.82-.51-1.29-1-1-1.56-.75.43-1.73-.38-.09-1.55.33-.47-1.53-1.5-1.52-1.74-.49-1.79.38L40,92.07l-.57,2-.33.24L38,93.79h-.62l.29.86L37.75,96l-.8.24-1.73,1.52v3.11l.51.48.23.38,1.88,1.15.2,1-.29.76.29.68.56-.2,1.12-.13.53,1,1.17,1.29.76.33,2,.06,1-.53,1-1.15.79-1.63h.8l.61.44.48-.24-.19-.62.19-.19,2,.94,3.86,3.5.61.86L54,108.65l-2.44-.05-2.17.57-4.24,2.06-2,0-1.23-1-.6.28c.21,3.58,3.8,4.63,6.73,4.87l-4.29,2L37.37,120l-1.32.38-1.17.2v40.86L36.34,160l4.89-4.78,15.66-15.44,14,15.2.1.38c-5.73,4.85-14.22,12.18-17,19.6l-.62-.29-7-2.53-6-1.63-4.14-.86-.24.05m-.7,41.2-.43-1.25.81,1.15,1,1.29,1.73.87-.83,0-1-.46Zm-.38-4.07v-.66L36,205l-.23.47Zm0-2.57v-2.63L36.48,203Zm.7-3.35-.7-1.82,0-4.54.19-2.2,1-5.54,1.09-7.31L37,175.6h.53l0,1.53-.15,2.5.15,1.61-1.27,5.83-.85,6.22-.33,3,.13,1.72.57,2,1.7,1.58,1.17.33,1.7-.19.56-.47.24-.67-.47-.11-.15-.33L39,200.07l-.94-.66-.6-1.29.41.33,1.45,1.43,1.23-.09.09-.53-1-.15-.75-.57-.67-1.43-.18-2.28.43-4.89,0,1.06-.24,5.59.24.52.75,1,1,.29.11-.49-.71-.33-.61-1.53.09-3.4.33-3.77.52-3.16.14-1.33-.57-.1-.24,1.48-.13-.33.42-4.74.29-1-.09-1.57h-.29c-.94,6.22-2.3,12.51-2.21,18.83-1.22-6.78,2.22-13.5,1.65-20.26l-.85,2.1.38-3.06,2.35.48,1.07.48c-1,6.39,1.94,13.42,1.37,20.31-.33,4.17-2.26,6.75-6.49,5Zm-.18-15.16L35,187l0-11.71,1.14.15.32.47,0,1.35,0,2.67-.23,2.48Zm.6-11.36-1.17-.59.1-2.9.14-.44,3.66.58,1.41.33L46,172.94l5.07,1.8L54,176.08h.51c3.12-10.06,16.59-19,22.92-25.13,20.2-17.5,10.26-32.55-7.72-46.74l2.35-2.06,2.91,2.1,5,4.5,5,5.49L88,118.4c15.84,31-20.41,36.67-31.15,59.08l-1.27,4.24c-5.08-3.6-11.18-5.3-17.11-6.88Zm-1.17-19.26.37-3.3.29-.62,4.71-8.75,2.91-4.54,2.06-2.2,2.59,1.82-1.65,1.76-4.7,6.32-6.21,9.45Zm0-6.31.29-23.9.88,1.2,3.44,3,.85.37-1.32,1.2-1.37,1.58-1.45,2.87.18.77,1.14.51,2.06.57,1.32.11,1.74-.2-2.08,3.31-5.45,10.18Zm1-24.24-.69-1.48.18-.14,2.17,1.34,2.44,1,2.12.33-.06.68.24,2.72.76,2.87,1.59,2.86-.52.63-2.44.75-3.3-.33L37,135.31l1.37-2.57,2.07-2,1.61-.86.14-.48-.61-.48-1.89-.71-1.93-1.53Zm-.13,132.73-.2-.15.67-1.82,1-3.25c.41-4.48-.88-11-1.41-15.43L36,237l.15,1.43.32,1.05.15,1.73.51,3.05.34,3v4.65l-.29,1.62-.47.95.23.72.57-.77.56-3.62.14-1.64.33.2.28-.14,0-1.2-.13-3.1.42.95.42-.24-.18-2.77-1.47-9.08-1-8.9.33-4.25.47-1.52.38-.57,1-.87,1.12,0,.2-.27-.38-.39h-1l-.94.33-1.36,1.77.61-1.38,1-1,1.38-.29,1.31,1,.37-.29-.46-.77L40,216l-1.7.15-1.5,1.19-.89,2.3-.18-.2.88-2.44,1.56-1.2,1.45-.09.9.29,1.22.76.28-.19c-.79-2.23-3.74-1.77-5.41-1l.57-.71,1.55-.77c6.73.05,5.35,10,5,14.24-2.21,11.53-5.11,17.83-1.08,29.16l-1.14-.67-.85-1.38-1.07-3-.61-.44-.42.24-.29,1.49-.94,2Zm.27-47.13-.14-1,.76,1.53,1.26,1.19-.79-.38Zm.47-10.85L36,197.16v-2.39l.67-5,.41-2.69,0-1.34.49-1.23.18.53L36.9,189l-.23,2-.37,4.11.33,3.19.65,1.4,1.5,1.14h1.74l-.69.24-1.09,0-1.32-.57Zm-.42,26,.15-3.63.09.13.18,6.27-.18-.09Zm.06-125-.11-1.58.58-1.2,1.07-.75h1.7l.88.57v.29l-1.35,1.2.94.9.94,1.29-.94.81-2,.14-1-.57Zm.27,166.8-.13-1.86.09-.63.84-1.25.29.15,1,7.26.51,1,.61-.33.94-8,.24-.15.56.68.29.81.13,2.58-2,10.23-2.26-6.89Zm.29-35.7-.24-3.06.6,3.72,1.32,8.51.11,2.11-1.28-7.08ZM36.63,209v-1.57l.6-1.15.81-.66.65-.11,1.7.15v-.38l-.85-.52.56-.06.09-.38L39,203.76l1.74.24,1.26.81.8,1.1.38,1.71L43,209.39l-.75,1.82-1.46,1.34-.24-.53.19-.09.19-.76h-.52l.18-.35-.18-.33-1.22.09-1.17-1-.38-.9.18-1.29.67-.72,1.5-.24.09-.44-.38-.18H38.4l-.7.48-.8,1.14L37,209.2l.43.87,1.51,1.14-1.18-.33Zm.56,31-.47-2.87H37l.75,5.16-.33-.95Zm.18,17.48.15-.66,1.55-2.63,1.36,2.63L39,268.32Zm.05-31,.28,3,1.64,11.71.38.19.11-1.33-1.23-8.36-.2-2.21L38,223l.74-3.2.9-.9-.38-.57-1,.9-.56,1.58L37.33,223Zm.71-18.36v.63l.09.47.65.53.85.24.11-.38-1-.86.06-.48.75-.52,0-.38-.65-.11Zm.13,14.43.2,3.73.41,2.72.38.11,0-1.2-.14-1.34-.18-.9.09-2.68.37-2.1.66-.53.09-.48-.89.1-.65,1Zm.2-33.07.65-3.58.14.34-.56,3.24Zm1.73-94.24V93.45l.33-.86,1.41-1.14,1.84-.15,1.45.91L45.84,94l-.13,1.82-.62.82L43.45,95H43l-1.68,1.71H41Zm.38,9.56V103.2l.8-1.48,1.37,1.38.56.19,2.16-1.71.57,1,0,1.86-.89,1.68-1.64.85H42.6l-1-.52ZM41,213.6l.75-.33,1.55-1.72.67-1.82-.05-2.92-.95-2.24-1.59-1.38.85-.53.78-1,1-2.44,2.35-3.11L48,193.29l2.12-4.88,1.61-8,.56.19,3.8,2.59.34-.24.24-1.67.74-2.44,1.23-2.69,2.68-4,.51-.47,10.12.05.19,0,9.68.05,4.14.1,13.64.09.2,0,17.87.19,7.44.14,1.12.24c-6.2,5.5-10.93,13.49-10.06,22.08l1.21,5.88,1.47,3.49,1.88,3.44,2.64,3.53c-16.16-3.32-34.57-15.12-47.71-24.56-2.29-5-6.37-8.77-11.57-5.11l-1.65,2.72-.94,3.44.11,5.74-.38,1.15L57.41,201l-4.23,6.12-2.64,3.49L47,214.37l-2.63,2.15-.29,0-1.5-1.81Zm.8-114.36.32-1,1-.57.76.48.41.82-.23.76-.42.44-1,.09Zm.8,12.76.28,0,.13.19.72.76,1.13.39,3.2,0L50.59,112l2.5-1.34,1.5-.09.24,0c-3.23,2.91-6.53,5.23-10.82,3Zm0,68.53.28-3.29h.56l2.54.8,3.58,1.39.9.48c.32,5.66-2.57,13.17-6.13,17.49l-.14-3.4-.37-3.91-.41-2.63ZM43,127.05l.15-1.06.28-.9.75-.48,1.08.29,1.42,2.82,2.49,4.39,1.32,1.64v1.76l-.89.9-1.14.2-1.12-.38-1.17-1-1.27-1.82-1.37-3.14Zm.67,1.53,1.23,3.82,1,1.58,1.88,1.53,1.18,0,.47-.28.09-1-.38-.66-1.69-.24-.95-.81-1.54-3-.42-4-.39-.09-.56,1Zm1.12-16.25-.09-.24c3.38-.31,5.45-4,9.55-2.39l-2.44.52-4.23,2-1,.3Zm.43,110-.43-3.16c7.86-6.14,13-15.06,17.17-24l.29.95L62,197.44l-2.93,6.17-4.89,8.32-3.11,4.3-3.18,3.69Zm.89-16.4-1,2.19.24,1.4.43.86,1.4,1h1.55l1.18-1.11.32-1.28-.18-1-1-.86-1.27,0-.8,1.15.42,1.05.9.34,0,.52-.84.1-.61-.28-.67-1.25.53-2.1,1.83-2c5.5-2.55,6.56-.83,9-8l1.17-5.26,1.79-6.21,1.13-2.63,1.32-1.91,1.31-1.06,1.89-1,3-.1,1.6.15,3.58,1.29,1.12.77,5.93,4.49,4.18,3.91,3.44,4.45L92,196.72c6.49,6.66,14-2.15,19.34,5.41l0,1.52-.8.59-.84-.05-.52-.54.8-.13.56-.53.06-.9-1-.63-1.13.53-.62,1,.38,1.29,1,1,1.45.14.91-.38,1.12-1.2.23-1.34-.84-1.91-1.07-1-1-.68-2.44-.9-1.89-.15-3.56.19-.25.05.76-2-.15-1.91-.83-1.4L99.46,191,98.23,191l-2,.14-1.41,1.24-.52,1.34.66,1.77,1.41,1.05,1.31,0,1.14-.48.79-1.23-.19-1-.89-.67-.8.1-.52.62.25.72.51.53-.33.28-1.23-.15-.89-1.2.42-1.23,1.56-1,1.7.29,1.5,1.28.56,1.35-.18,1.62-.85.9L98.9,198l-1.84,0-2.63-.95-3.06-2.58-3.47-4.35-4.24-4.4-3-2.53c-3.32-3.08-7.51-5.5-12-6-12,0-9.22,16-14,23.17l-2.08,1.64-1.17.28-1.41-.24-1.22-1-.85-1.76.66-1.82,1.41-1.16h1.41l.43.29.6,1.11-.18,1.08-.42.35-.47-1.05-.29-.29h-.89l-.61.81.09,1,.76.75,1,.3,1.14-.44.79-1.09.19-1.91-.37-.86-1.46-1.2-1.18-.2-1.18.24-1.5,1.25-.89,1.87.09,1.71.66,1.38,1.79,1.73-1.84,1ZM45.84,97.46l.56-.61,1.14-.34,1.3,0,1.14,1,.43,1.29-.14,1.67-.76.81-1.09.48-1.82-.09-.71-.53,1.27-1.29.09-.72Zm.65,131-.09-1.35.14-.23.9-.57.66.53.09.75-.27.29.18.52.94-.33.61-1.05.33-3.68,1.08-2.2,2.07-1.82,1.46-.48,1.36-.13,1.84.52,1.45.9.53-.28-.15-2.15L58.83,216l-1.32-1.2L60.6,214l1.79-1.64.43-.66.47-2.44-.52-1.15-1.17-.76-1.13.09-.8,1.15,0,.53.57.37.37-.61.57-.25.52.72-.56,1.1-.94.06-.29,0-1.09-1.38.34-1.43,1.45-1.23,1.52.13.33-.13.09-1.82.33-1.07L64,203l1,.62.09.87-.38.51-1.12-.47-.47.68.09,1.67.67,2.09v2.3L63.06,213l-1.61,1.48-1.83.91,1.09,2.33,0,2.78-.93,1.91-.62-1.2-1.41-1.05-1.5-.47h-1.7l-1.27.57-1.6,1.52-1.09,2.89.11.66.56,2.15,1.32,1.34,1.41.62,1.74-.05,1.17-.67.89-1.38,0-1.82-.94-1.2-.66-.19-1.18.3.8.85.14,1.28-.8.68L54,227l-.85-1.34.09-1.1.53-1.05,1.17-.77,1.07,0,1.09.39.94.75.66,1.29.1,1.93-.58,1.47-1.5,1.38-.66.29-2.29.06-1.23-.48-2.45-2.11-.32.58-1,1.05H47.58ZM46.4,125.53l.52-1.93v-.95l.75-2.91,1.7-3.16,1.13-.72,1.27-.42,1.45,0,1.28.86-.7,1,.47.91-.11.1-1.4,0-1,.46.32.87.11,1.81-.38,2.06-.85,1.62.27.39.44-.34,1-2.48.23-2.59-.13-.9,2.16-.05.8-.19,1.22-1,.66.19,1.46.09,0,1.58-.37.68.1.46.7.2-.33,1.58-1.17.39-1.61,1.42-1,0-1.88,1L52.1,127l-1.56,3.07.09.57.34,0,1-2.34,1.59-1.82,2.4-1.19.89-.1,1.7-1.34.94-.38.85-2.43,1.27-1.82-.15.72.42,1.86.76.57.42.2-.75,3.1-1.55,3.06-2.26,2.15-3.48,1.82-2,.71-1.93.06-2.77-4.17ZM48.28,238.6l.11-4.69.36-1.67h.38L53,234.86l1,.48,5.45,3.73,2.82,1.86,7.71,5.46-2.21,4.06-1.79,5.07-.94,4.4-.8,8.21.15,3.35,0,3.62L64,277.31c-3.11-12.63-12.93-22-15.15-34.12ZM48.66,103v-.57l.33-.1,1.28.54,3.67,2.48,2.53,2.76,1.36,2.54.09.8c-2.72-4-2.64-4.64-7.47-7.73ZM53,114.77l.7-.49.56-.42,1.6-.19L57.83,115l-.23.48.09.72,1.23,1.23-.33.14L57,117.2l-3.15-2.09Zm1.5,2.76.38-.86,1,.63,0,.47-.85.48Zm1.75-4.39-.14-.18,1.07-.58,1.28,0,1.27.43L61.36,114l-.37.63.1.9.41.9-2.77-1.86Zm1.18,123.6c5.14-9.26,8.25-21.55,9.86-31.89l.67.49c-.8,10.37-3.09,24.14-7.25,33.55h-.66Zm1.21-96.12-.94-1.14.65-.2,7,.24,18.53.48,1.41.24-.71.91L73,141Zm-.61-2.06,1.32-1.19c8.88.36,18.19.29,27,.77l-.74,1.1-3.63-.15L76.23,139Zm.57-22.37-.14-.46.47-.25L60.33,117l-.56.2Zm.22-10.12L60.09,103l.62-.86L63.91,99l2.24-2.43c0,3.51-4.37,5.44-6,8Zm.57,35.36.61-.09,18.72.53H82.2l2,.18-.79,1-13.93-.27-8.74-.11Zm.61-35-.27-.11.79-1.28,4-3.3,1.32-2.11.89-2.19,0-1.15-.43-.1.43-.75.28,1v2.15l-.37,1.52-1.37,2.34-2.92,2.06Zm-.18,11.8.85-.34.09,1.1-.56.81-.38.34Zm.23,18.4,1.41-1.34.06.09c8.36.53,17.1.31,25.34.81l-.14,1.07-.85,0-7.52-.19-11.57-.24-4.52,0Zm1-23.71-.28-.18,1.18.13,2.06.34.14.76.42.48,1.61.1.22-.67-1.07-.15-.2-.24.91-.09.7.05-.09.76-1.08.92-1.74.13ZM61.78,144l-.33-.52,4.25,0,7.51.24,9,.14.51.19-.8.77-6.49-.05-13.12-.34Zm-.18-28.68.52-.48.94.53.42.67-.66.29Zm.94,19.5-.47-.2,1.13-1,24.08.72-.14,1L72.41,135l-.37.15-.1-.1Zm-.37,56,.46-4.39.23-.29.43.53,1.23.24-.14,1.47-1.14,0-.65.19V189l.76.33h1l0,1.72-1.09.1-.75.33.38.62,1.69.19.19,1.34-1.94.53Zm.13-69.92.14-1.19.19-1.2.9-.42v1.48l-.29,2-.42.15Zm.29,119.39,1-.77.94-1,1.65-.9.7-.09.85-.53.8,0L68,238l-.56,3.17-1.18-.06-2.22.19Zm-.05-69.63c6.3-7,12.23-11,19.05-17.17,21.57.28,43.15.5,64.72.83v.27l-6.11,6.13-8.61,7.11-4.33,3.64-15.48-.24-11.47-.15-.33.06-32.13-.39ZM62.82,195l.13-.24.2.19,1.12-.19.76-.09.33,1.34-1.65.81v.52l.56.24,1.47-.48.52,1.3-1.7,1.09-.33-.39Zm0-9.37.94-2.19.28-.53L66,181.34l2.45-.43,1.5.28L72,182.64l1.33,1.76.7,1.44-1.32.09-.76.66L71,185.36l.24-.09,1.41-1v-.68L72,183.4l-1.55,1.34-1-.63.76-1.62-.2-.86-.78.52-.44,1.68-1.31-.1.14-.28v-.92l-.52-1-.71.52.67,1.77-.58.28-1.83,1.82-.94-.44Zm.33-40.19.09-.19,15.29.23,2.49.2-.65,1.05-5.75-.14-.32.05-10.12-.2-.65-.72Zm.61-12.57,1-.95.41-.15,9.5.33,12.43.35.38,0-.09,1.05-5.18-.19-11.76-.29-3.76,0Zm.51,149.17-.09-.77.34.24L70,286.3l1.66,2.38-1.46-.09-.66-1-1.08-1.52-2.82-2.25Zm.62-99-.71.2,0,.57,1.42,1,.14-.76ZM64.38,284.2l-.11-.73,3.39,2.83,1.57,2.19-.85.19Zm0,4.25.23-1.05.89.81v.47Zm.28-8.18-.14-1,4,3.87,1.89,1.3,2.63,2.9.7,1.34-1.41-.09-1.26-2.35-3.73-3-2.25-2.16Zm.09,6.21-.18-.66h.33l1.45,1.52.67,1.15-.38.1Zm.1-8.31.41-2.53h.29l.38.76,1.5,1.48,1.6.86,1.7.33,1.88-.42,1.46-.81,1-2.35,0-3.29-1.21-4.93-1.75-6-.1-.75,1.27-.77L76,257.24l.89-2.63-.38-.19-.47,1-2.1,2.2-.52.18-2.88,1.88,1.56,4.25,1.08,4.63-1.5-.72-1.52-2.06-.56.2.9,1.49,1,1.14,1.79,1.14.22.29h-.66l-.79-.33-1-.14-1.8-.15-1,.1-2.57,1.57.18.54,1.18-.34v.76l-1.23.09.47,1.16-1.09,1.19c-.66-10.26.43-27.17,11-32.36,9.24-1.75,18.46,8.7,22.67,15.78l1.12-.44h1.56l.79.63.24.9-.71,1-.56-.24h-1.27l.47,1,.1,1.19-7,14-2.91,2.25-2.35,1.09-2.55.53-4.51,1.62-1.84,1.25-1.92,2.06-1.41,2.91-.29-.57-2.06-2.49-6-4.92-2.25-3.2-.47.24c1.79,4.89,8.65,6.64,10.77,11.89l-1.27.05-.23-.77-1.14-1.57-2.77-2.58-4.09-3.4Zm.09-77.72.32-.33,1.61-.81.62,1.35h-.38l-1.23,1.28ZM65,147.5v-.19c3.93-.07,10.47,0,14.35.29l-.89,1-11-.15-1.18.06Zm.18,42.16.34-2.54.71-1.19,1.18-1.05L69,185l1.32,1.15,1.32,2.39.74,2.11L73,194.2l.09,2.82-.47,2.63-.75,1.19-1,.62-1.27-.14-1.08-1-.24-.2-.94-1.62L66,194.72Zm.24,52.57-.14-.2,1.75.1,1.12.62.38-.13-.38-1.34.38-2.59.8-1.47,1.08-1.11L71.8,236l1.61.62,1.79,1.48.6.91.57.19.19-1,.56-1.38,1.32-1.62,1.37-.77,1.18-.05,1.26.62,1.54,1.53.81,2.26.33.18,1.41-2.44,2.07-1.24,1.5-.05,1.14.53,1.45,1.95.7,2.78.29.18,1.12-1.56,1.52-1.06,1.36-.47H99l1.36,1.23,1.27,2.36.48,2.76h.33l.13-.34,1.41-1.14,2-.86,1.83-.15.41.43,1.23,2.11.85,2.91,0,1.81-.61.68-.28-1.58-1.27-3.54-1-1.05-1.88.29-1.27.67-2.21,1.63-.85-.53-.18-2-.56-1.91-.53-.92-1.17-1.14-1.27.19-1.88,1.25L93.63,243l-.52,0-.94-.48-.51-2.59-.94-1.52-1.65-1.29-1.13.33-1.51,1.25L85,241.08h-.85l-.32-1.38-1-2.39L81,235.78l-1.23-.05-.91.77L78,237.78l-.71,3.35-.8.33-1.08-1.29L73,238.54l-2.12-.13-.51.28-.67,1.25.38,3.38.56,2.06-.65.09Zm.43,33.11-.14-.13,1.59-1,1.93.39,2.83-.34,2.06-.86v.29L71.71,275H69.17l-1.32-.42-.7-.06.38.53,1.73.52,2.45,0,.33,0,2-.81-.09.48-1.5,1.19-1.61.54h-.37l-1.17.14-1.79-.38ZM65.74,131l1-1,1.69.11,5.17,0,2.73.14,11.2.33.09.39-.14.72-20.74-.43Zm.38,58.07.18,3.45.47,2.1,1.5,3.82L70,200.18h.9v-.39l-1.17-1L69,197.5l-1.32-4.79.34-3.1.84-.76.79.33.9,1.44.38-.11.13-1.09-.79-2.11-1.56-1.09-1.5.34-.94,1.28Zm1.64,43.16-1.61-.19.29-.19,4.8-1.1,4-1.06.05-.42c-3.89-1.56-5.21-.64-8.52-1.62l3-.72,4.84-1,.19-.48-3.24-.67-2.59-.37L67.15,224l7.67-1.53.09-.37-.76-.35-2.91-.51L68,220.34l1.36-.38,3.29-.67,1.08-.47-.23-.39L71.8,218l-2.68-.81-.51-.28,3.29-1,.89-.53-.18-.39-1.55-.42-2.12-.91,2.86-1.1.14-.44-2.58-1,1.64-.91.24-.71-1.65-.63-.42-.39,1.51-1.19.09-.72-.42-.33.14-.29,1,.53.2.72-1.09,1,.24.39,1.5.57.29,1-1.37.66,0,.44,1,.38,1.23.67-.09.53-2,.7,0,.44,2.82.86.42.85-.09.39-1,.14-1.79.63v.38l1.41.43,1.74.38.75.48.19.86-1.27.28-1.45.2-.9.42,0,.19,1.18.35,1.79.42,1.5.53.23,1-.79.33-3.11.53-.62.34.71.38,4.7.91.2.76-.38.28-3.85.77-1.14.48.19.28,1.69.38,1.23.11,3.38.76.24,1-1.56.3-3.67,1,.34.43,5.68.62.2.68-1.17.18-1.42-.18-1.55-.15-4.7-.34Zm-.61-28.63-.94-1.15h.42L67.85,201l.89,1L68,204.15ZM67,149.42l.38-.2.47.06,9.65.24-.89.9-6.78,0-2.12-.11Zm.33-20.08,1.14-1.09,7.67.19,2.25.09,8.93.24.15.95-3.3.09-3.9-.13Zm.52,143v-.9l1.09-1.1,1.79-.1.8.43.61,1.14-.24.82-.37-1.06-1-.85-1.41,0-.52.2Zm.76-121,.18-.14,6.68.18-.61.77L69.5,152Zm0,53.38.52-.95.42-1.29.71,0,.47,2.15-.15.48-1,0Zm.58-77.13.41-.48.62-.57h4.65l4.42.19,7.57.09.24.43-.09.82-2.21-.09-12.09-.24-.28,0Zm1.12,25.61.09-.37,3.49.18-1,.52-1.41,0-.34.1Zm1.27,97.64-.85.2,0,.52.33,2.06,1.12-.77.76,0,1.55,1.38,1.31.38L77,253.8l.67.42,1,.05.93-.62,1.65-1.14h1.08l.62.86.43-.15.65-2.53-.24-.39-1,.34-3,.86H78.39l-2.16-.19-.85.28-1.56.06Zm-.24-47.36-.14-1,.9-.57.09.38,1.56,1.38-1,.87-.9.29-.27-.15Zm-.14-77.85.43-.43,1.08-1,13.36.33.23.24.38,1.35-14.11-.24Zm1.6,63.14-.61-1.34,1.56-.58.47-.57.56,1.24,0,.62-.6,0ZM73,272l-.66-1.49,1.32.29.18.63-.56.57Zm-.19-70.26-.38-.2h.43l.57-1.28.18.34.67.28,1.07.24.19.33-1.17,1.73-.29-.54Zm.33,33.79.29-.15,2.44-.51,1.88-.24-.42.48-1.55,2.57-.09-.24ZM73.54,191l-.42-1.44,1.5-.38.58-.62.27.81.09,1.25Zm.76-88.23-1-1h.47l1.21.57,1.23.39,5.45,2.24,2.92,1.15,3.86,1.87,3.47,1.62,10.73,5.92,6.59,3.87,10.44,7,6.49,4.67,5.5,5-.13.19c-10.92-8.38-23.26-15-35.47-21.27-5-2.42-9.39-4.06-14.44-6Zm-1,97.35.8-2.06,1.56.39.43-.24-.06.63.1.18-.47,1.49-1.51-.77Zm.91,49.94-.76.92.38.23.56-.43,1.41-.66,2.64,0,1.41.48.09-.58-1.23-.66-2.62-.1-.38,0Zm-.76-43.49v-.33l.85-.48.18-.52h2v.29l-1.68.75.14.39,1.27.14,3.67.54-3.06,1.08-.19.59,4.61.66-.05.24-1.79.66-1.78.77.09.3.66.28,2.4.19,2.12.43-.66.29-1.7.52-1.79.81.57.38,5,.63.6.33-3.76,1.29-.89.53.47.38,3.33.43,4,1-.52.3-2.44.57-2.83.86.1.33,1.88.43,3.11.43,3.71.67-.15.15-4.37,1-3.15.76.09.48,2.64.43,6.73,1.39-.19.23-3.63.63-.65.18-4.24.87,0,.33,1.09.29,1.83.19,6.49,1.15,2.59.43.43.24h-1l-8.88,1.86-2.45-.14-.7-.2.89-.33,3.49-.57.32,0,1.27-.46-.23-.35-5.51-1-1.31-.35-.76-1.29.14-.57,5.08-1,.06-.39-4-.81-2.41-.29-.36-.77-.2-.67,5-.95.19-.48-.75-.24L81.87,222l-2-.18-.76-.24-.24-.87.57-.29,1.75-.33,1.68-.57,0-.48-3-.62-1.37,0-.76-.48-.18-.62,3.09-1.2,0-.53-3.94-.57-.38-.57.09-.33,2.68-1,0-.53-1.14-.15-2.3-.42-.23-.72,2.3-.9-.13-.49-2.22-.14-.57-.29-.18-.71,1.45-.82-.18-.52L74,207.2Zm0-83.15,1.13-1.15h3.15L78,122l.13.24,7,.15.41.57.11.77-9.19-.15-.32,0Zm.34,69.83-.29-1.49.71.09,1.55-.38.29,1.72.09,2.39-.43-.33-1.36-.05-.42.24v-1.38h.6l1.18-.2.14-.67-.79-.18Zm.18,53.23h-.38l.25.63,2,1.43,1.08.15,1.7-.54L80.08,247l.06-1-1.32,1.2-1.61.48-1.88-.28Zm0-49.17-.18-1.44.42.28,1.5.1.38-.47.09.85-.14,1.16-.8-.39Zm.42,62.22-.27.87.74.9,1.37-.06L77.73,260l1.74-1.34,1.23.19.56,1L81,261.2l-1.08.67-.8-.37-.65-.06,0,.48.89.63,1.46-.06.89-1.05.25-1.58-.53-1.24-1-.67L79,258l-2.12,1-1.5.1Zm.8-138,1.08-1.1h7.06l.75.11.51.9-.32.24-8.65-.2Zm1.28,67.92.23,0,5.69,4,5.26,3.35,1.56,1L96.49,202c10.05,5.37,19.94,11.47,31.1,14.1l1.93,1.86,7.1,6-1.22-.19-2.54-1-2-.7-5-2.15L122,218.34l-4-2-1-.42c-13-6.77-25.78-14.12-37.11-23.51Zm.51,9.08.34-1.87c13.34,18,28.22,30.27,46.28,43.4l-.2.2-2.25.66-2.4,1.14c-15.17-10.77-28.06-24.53-39.33-39.37Zm.09-78.81,1.42-1.33,4.18.09.66.76,0,.57ZM78.29,37l4.52-.09,15.33,0,0,.15L97,40.83,95.7,43.31l-1.88,2-2,1.1.29.48c4.93-1.16,5.91-6.25,7.19-10h1.93v.53l-.94,2.63L98,44.17,95.7,46.76l-2.35,1.72c-.26,5-2.39,8.94-6.92,11V60.9L85.35,64l-2,2.73-2.17,2.1-1.51.81.71-3,.61-.1,1.36-1.24,1-1.53.74-2,.18-2.19-.51-.14-.32,2-1,2.39L81.59,65l-.85.66c.79-8.12,1.48-17.11-.93-25Zm.56,242.55-.41,1.05.28.42,2.07-1.71,1.37-.38,4.42-.57L89,277.6l2.64-1.34,2.86-2.39.18-.57-.56-.11-.79.59-3.1,1.76-2.93.81-3.85.33-1.51.24-1.82.92Zm1.23-7L78.39,275l.1.44.36,0,.62-.81,1.52-1,1.54.24,2.82.63,2.08-.34,3-.67,3.71-2.29,0-.67-.66-.15-1.18.15-.78-.33-3.2-1.16c-4.8-1.35-3.94,1.5-8.38.44l-.57.76Zm-1.59,16.06c1-6.28,9.46-6,13.53-9.08l.11.28-.29.38-2.91,2-3.49,1.2-2.35,1.19-.75.33-.79.87-.71,1.52-.7,1.38Zm.65-196.9h.67l.46.14,2,2,.33.95.51.77.38-.09L84,94.5l1.92-1.62,1.84-.53,1.56.19,1.5.73,1.32,1.42.61,1.3.19,1.82-.62,1.47-1.41,1-.85.33-1.45-.14-1.13-.67-.8-1.43.09-1.1.56-.77.94-.48.81.24.56.77,0,.9-.56.33-1.32.11,0,.37,1.27.92,1.41-.34,1-1.28.11-2-.39-.76-1.13-1.15-1.32-.57-1.45-.06-1.41.73L85,95.36l-.65,2.16.42,2.42.94,1.69,1.88,1.53,2.06,1,2.73.19.85-.28,1.36-.86L96,101.49l.62-2.21,1,.15,1.45,1,.81,1.38.6,2.25-.27,2.19.42.44.34-.1,4.41.23,2.21.5,2.39,1.19,1.79,1.71,1.14,2,1.64,4.3,1.31,2.67L118,121.5l1,.63.94,0,.56-.81-.36-.43-.85-.72.52-.81h1l.66.67.32,1-.42,1-.9.81-1.21.11-1.51-.53-1.89-1.62-2.1-3.83-.67-2-.51-.72L112,115l-1.74,1.38-1.5.09-1.09-.37-1.12-1-.53-1.73.38-1.2.94-.8H109l1.08.86.06,1.05-.57.75h-.9l-.51-.75.42-.63,0-.52-.61,0-.8,1.38.13.92,1.14,1,1.36.14,1.17-.76.58-1.67-.72-2.21-2-1.71-2.36-.86-3.38-.67-2,.14-2.5.53.24-.81.38-2.44-.2-2-.8-1.52-.61-.39c-2.13,3.84-3.16,4.56-7.62,4.34-6.78-1.1-6.65-7-9.21-12.08Zm.06,26,1.54-1.34.28-.18.89.71.34,1Zm1.21,152.79.43-.14.15.14h1.86l-.6,1.82-.52-.24Zm.38-230.6-.33.2.09.81,1.22,1.38,2.08,1.44,1.73.91,3.91,1.77.47-.1v-.34l-1.41-1.62-3.29-2.87-2.64-1.38Zm.61,228.26-.85.87v.42l.85-.24,3-3.2,1.32-1,0-.34-1.09.19-2.3,2ZM81,70.42v-.09l.57-.39,3.81-3.25,1.92-1.77,3.2-4.5,2.41-4.58,1.17-4.3.66-.62,1.32-.06.23-.33-.52-1.05.09-1.15a33.18,33.18,0,0,0,8.9-11.46L107,37l-.1.48L86.62,68l-2.25,3.25L83.28,71Zm-.14,218.17L82.34,286l1.32-.95,1.27-.72,3.15-1.15,3.15-1.68-.15.72L90,283.28l-3.62,1.44-2,1.76-1.23,2.2Zm.61-14.39h-.37l.14.44.7.28,2.45.77,2.31.09,1.92-.38,2.44-1,3.82-2.3.23-.57-.18-.18c-3.92,2.33-6,3.63-10.58,3.71Zm1.09-121.72.8-1,.47-.38,2.3-2.49L89.67,144l2.08-4.6.94-3.47.09-5.74-.38-2.83-1-4.25-1.64-3.49-.62-1.38-2.82-3.73v-.33l.76.09,2.53.76,7.62,3.07,2.93,1.34a174,174,0,0,1,32.54,19.68c2.07,5.78,10.07,10.1,13.12,2.58l.8-2.81.1-6.46.51-1.58,3.3-5.53,5-7.37,3.2-3.82,2.91-3,2.59-2,1.46,1.82,1.63,1.29-.7.2-1.74,2-.76,2.58.29,1.86.71,2,1.7,1.62-.57.35-1,1.23-1.09,2.63-1.92,2.3L160.37,132l-2,4.5-1.23,4.15-.42,4.3-.18.1-2.08-1.15-1.5-1-.76.15-.83,2.78-1,2.39-2.26,3.91-.9,1.25c-16.85-.3-33.71-.44-50.56-.62Zm.14-68,1-1.48,6.16-9.84.09-.62-1.63-.24-3-1,10.21-15.2,4.7-6.78,6.58-10,1.6-2.39L118.8,37l-.62,2.3-1.41,4.36-4.23,9.41-5.27,10.22-2.91,4.39L102,70.75C96.9,77.84,92,82.84,83.38,84.7Zm.37,150.07v-.09l.7-.05,3.4.44-.38.28L85,237l-.51-.72ZM84.46,47.66l-1.55,1.86.18.63.76.33,1.32-.43,1.59-.71L89,47.48l.09-.81-.32-.24-1.27.09-1.41.34ZM82.94,272.34l.76-1.87,1.18-.76h1.88l1.55,1.05.42,1.2-.23.33-.66-1.1-.7-.63-1.45-.37-1.32.48-.85,1.71Zm1.14-216-.8,1,.1.85.61.67.8.15.79-.62.24-.91.8-.14,2.17-1.73,1.55-2.39.71-2.2.18-2-.38-.68-.56.05.14,1.49-.32,1.76-.85,1.82-1.47,1.92-2.06,1.52L85,56.36Zm-.42,185.77.19-.1,5.17.82L93.63,244l2.77,1,3.15.91,7.34,3.2,1.89,1.14-.38.72-.47.06-5.56-2.93-2-1-.8-.19-4.47-1.67-5.64-1.49-3.38-.66ZM84,288.63v-.18l.43-1,2.4-2.15,3.53-1.53-.39.81-2.06,1.62-1.83,2.39Zm1-203.06-.19-.33,2.35-.72,2-1,.74,0,4.23,3.2,6.88,5.83,7,6.5,7,7.12,5.27,5.88,7,8.64,2.21,3.2,1.61,3-.2,2.06C119.71,113.3,106.16,101.7,91.28,90Zm1.36,119,.53-1.19L88,202.7l1.31,0,1.17.38,1.61,1.29,1.69,2.72,1.93,4.3.42-.53,1.46-1.52,1.09-.28,1.64.14,1.36,1.05.43.85-.05,2-1.18,1.14H99.69l-.88-.57-.58-.72.11-.86.56-.57.61-.1.62.48v.68l-.38.28v.48l.32.14.71-.38.42-1-.18-1.14-1.13-.86-1.14-.15-1.12.53-.8,1.62.19,1,.61,1.67,1.78,1.53,2,.76,2.87.62,1.64.09,2.22-.22,1.74-.53-.71,2.19.1,2.35.37,1.62,1.18,1.3c1.67-4.36,4.76-5.22,9-4.27,7.14,2.69,5.11,9.67,9.26,13.15h-.57l-.46-.1-1.57-1.38-.41-1.15-.76-1c-2.85,4.93-8.6,4.24-9.74-1.29l.47-1.95.95-1,1.51-.75,1.78.33,1,.86.46,1.05-.09,1.38L121,229l-.76.33-1.09-.52-.37-.81.52-.95,1,0,.52-.18-.2-.58-.92-.52-1.09-.05-1.08.76-.66,1.34.33,1.92,1.12,1.29.91.57,1.68.24,1.41-.58,1.41-1.63c1.25-4.06-.61-6.77-4.28-8.26l-2.16-.48-1.74.25-1.59.9-1.32,1.62-.61,2.44-1-.19-1.28-.86-.85-1.15-.89-2.34.1-1.44.09-.71-.09-.86c-4.13.32-8.64.11-11.43-3.48l-1.14-1.78-1.93-5.11-1.78-3-2.26-1.92h-.8l-.79.63.09.42.94.72v.66l-.52.44-.76-.05-.69-.57Zm1.18,39.77.47-.1,3.94,1,6.46,2.15.6.24,2,.95-.19.81-5.13-2L89,245Zm.8,25.57-.19-.24,2.21.67.8.71-.42.34-1.08.43Zm.85-231.22-.57,1.14L89,42.55l.85,2.19.75.54.51-.78.15-2.85-.56-2.39L90,38.77Zm2.26,208.76-1.47-1.19.2-.15,3.47,1.2.33.05,4.57,1.66,2.11,1,0,.87-5.37-2.06ZM93.44,238l-1.31-2.34.65.19L94,236l2.82.9-1.32.63-1.79,1.28Zm.34,11.77-1.23-1.25,5,1.71,2.82,1.2.09.62-.27.29ZM94.1,80.88v-.29l.28-.09,2.92-2.63L98,80.22l1.32,3.44L96,82.13Zm.8,170.05h.42l4.75,1.91,0,.86-1.4-.38-3-1.34Zm1.37-130-.76,1.38.15,1.64.56.9,1.5,1.29,2.59,1.25,2.62.14,3.68-.1-.84,2,.09,1.25.42,1.29,1.79,1.82,1.14.62h2.24l1.09-.53,1.27-1.38,0-1.78-.58-1-1.45-.86-1,0-.85.24-1.23,1.29.24,1.14,1.23.81.79-.48.06-1-.67-.57.38-.24.9-.06.69.57.43,1.15-.43.86-1.27.86-1.88-.18L107.69,132l-.65-1.49.09-1.33,1.08-1.19,1.22-.62,1.79-.06,2.55.92,2.91,2.43,5.32,6.45,3.57,3.69,4.23,3.24,4.47,3.16,1.84.9,2.68,1h3.47c10.07-3.65,6.12-16.64,11.44-23.95l2.15-1.62,1.43-.2,1.07.3,1.46,1.34.38,1.81-.52,1.2-1.92,1.29-1.28-.33-.62-1,0-.44.66-1.09.14.57.7.91.89-.15.58-1.09-.24-1-.79-.66-1.65.2-.81.57-.56,1.23,0,.63.57,1.67,1.32,1.05c3.19,1,4.83-1.7,4.84-4.49l-.61-1.62L159.52,123l.06-.53,1.88-1.71,1.59-2.17.14-1.66-.37-1.3-1.51-1.23-1.32-.2-1.26.81-.75,1.78.22.81,1,1,1.13.15.89-1.06-.05-1.09-1.31-.81.19-.29,1.12.09.67.9.14,1.16-.61,1.52-2.12,2c-13.69,2.49-6.92,18.09-14.63,25.37l-2.74,1.43-1.32.15-1.54-.09-2-.53L133,145l-6.21-5-4.05-3.91L119.5,132l-2.35-2.49-2.73-2.19c-5.51-3.07-7.61.27-13-1l-1.83-.53L97.45,124l-.62-1.29.13-1,.85-.66,1,.13.38.68h-.86l-.6.62.28.91.57.33.93-.15.67-.42.27-1.24-.18-.67-.65-.76-1.23-.59-1.37.34Zm1.07,133.25L96.49,253l1.74.57,1.66.9-.2.57Zm.8,1.19V255l1.32.53.14.91-.41.53Zm.09-176.93V76.87l.72-.72.37,2,1,3,.94,1,1,.09,2.3-.86L106.51,80l.57-.2.61.48.15,1.87.32,1.43.76,1.53,1.18,1.19,1.41-.33,2.26-1.72,1.07-1.62,1.42.24.37,2.05.94,2.1,1.83,1.49,1.13-.35,2-1.71,1.08-2,.8.15.43,1.82,1,2.06,1.56,1.32,1.31.2,1-.91.84-1.44.61-3,.67-.49,1.59,1.69,2.12,1.29,2.06.14.52-.29.53-1.29-.06-3.06-.75-1.91.05-.48.47,0,3.24,2.39.43.24.94.75-1.41,0L140.56,83l-.74,0,.38,1.72-.2,1.77-.83,1.82L138,89.48l-.52.15-1.13-.09-2-1-1.84-2.1h-.33c-1.45,6.25-6.89,6.29-8.23.24l-.51,0c-2.82,6.51-7.33,3.83-8.32-1.92-4.08,5.66-8.16,3.59-8.67-3.38l-.47.42-2.3,1.73-2.35.61-.76-.19-1.22-2ZM99.75,75l.56-.63h.47l1.5,1,4.9,2.49,6,2.29c3.7,1.47,8.4,1.46,11.3,3.3l-1,0-6.35-1.34-1.88-.68-2-.62-4.85-1.62-6.69-2.91Zm.42,181.37.7-.76,1.93-.52,3.15-1-.88,1.06-3.82,1.23Zm.37-1.47.44-.57,2.15-.77,2.26-.63.85-.53,1.22-.09-.66.77L102,254.66Zm.33-1.34v-.34l.29-.19,3.15-1.09,2.15-.63.53.43-3.3,1Zm.29-15.15h.38l3.75,1.47,1.17.72-1.21.44-2.5,1.29-.51-1.82Zm0,13.86v-.39l1.12-.53,2-.75h1l.14.42-2.17.66Zm.33-179.13-.15-.29.42-.33,4.95-1.68,1.22-.27v.27l-.29.19ZM101.43,251v-.62l1.79-.63h.43l.1.43Zm.43-177.12.42-.29L107.36,72l.28.23-5.21,2Zm.1,183,.32-.18,1.79-.68.56-.09-.18.38-1.93.76Zm.19-172,.22-.24,1-.18,2.48-1.34.38,1.52,1.17,2.39L105,86.32Zm1.31-13.8L102.9,71l.47-.52,2.16-.77,2.68-.71v.53l-1.84.57Zm-.09,3.47.18-.18,2-.66.24,0,1.5-.63v.44L103.93,75Zm1.46-5.38-.29-.06,1.6-.77.43.2Zm.13,6.25.24-.14,1.69-.73.15.44-1.47.57Zm.94-8.7,1-1.19,1,.33.75-.24-.7-1.71,5.88-11.53.42.15,3-1.77,3.25-1.54L122.7,49l3.06.05,1.83-.39,1.74-1.58.8-1.39.28-1.33-.28-.2-1.89,2-1.68.49-2.5.28-3,.48-1.92.81-2.79,1.57-2.26,1.82L115.41,49l.46.27,2.64-2,1.93-.76,4.51-1.1,1.9-1,2-1.16,2.31-2.24,1.46-3c2,4.74,7.95,5.69,9.92,10.55-2.6-2.56-5.6-2.35-8.09.15l-.76,2.09-.14.68.57,3.86,1.69,6.46.76,3.34-1.45.81-2.22,2.06-1.22,2.63.13.44.29.13.56-1.14,1.32-1.44,1.83-1.28,2-1,.14-.81-.8-2.26-1.84-6.16.56.09,1.32,1,1,1.58.43,0,.06-.62-.29-.57-1.32-1.53-1.88-1.25.38-.14,2.17.62,2.67-.13L143,54.69l-.14-.67-1.27.39.29-.62.56.18.51-.13-.56-1.49.9-.9c.76,9.95-.63,26.32-10.35,31.77-9.07,2.79-19-8.67-23-15.57h-.75l-.94.33-1.35-.19Zm3.72,221.9h.89l1-3.78,1.68-3.15,2.59-2.2.76-.24.09-.52-.61-.05-1.41.72-2.17,2.15-1.13,1.91-.76,1.82Zm-2.2-211.81.18-.68H108l2.63,1.11,3.58,1.43,5,1.73,1.69.71-2.35-.38-6.31-2Zm.36-1.72.29-.39.56.09L111.41,76l1.89.66,2.06,1,1.74.48,1.23,1v.24l-3.15-1-5.46-2.16-.85-.23Zm.34-1.24v-.58l.28-.15.85.39,2.35.91,3,1.29,1.05,1-1.88-.57Zm.28-1.69.29-.33h.41l3.15,1.29,1.23,1v.37l-4.27-1.67Zm.52-1-.14-.67,2.39.76.61,1.06Zm1.92,174.68-1.78-4.3,3.1,1.43.47.2,2,1.38-3.38,3.16ZM109,69.56l.52-.87.6,1.49Zm2.92,19,.84-.33,2-1.49,1.51,3L115,89.58,113,89.06Zm.9,5.88-.62-.38.52-.06.33.06,1.74-.44,2.06-.28,4.52-1,1.51-.14,1.7.48-4.52.75-1,.44.15.43,2.77.38,4,.92.51.81.19,1-4.23.81-1,.28v.35l4.19.85,2.1.29.58,1-.33.47-3.16.48-1.79.59.34.37,3.15.62,1.68.24,1,.29.32.87-3.11.75-1.17.48.39.33,4.93,1,.28.87-3.29,1.14.29.53,4,.57.14.9-2.77,1,.13.38,3.4.48.27.81-2.44,1,.23.39,1.27.09,1.55.2.19.85-1.65,1,.43.44,1.13.15.7,0,.47.91-.76.24-.36.76-2.17-.09,1.74-.81.09-.53-3.95-.43-.85-.29.58-.19,2.44-1-.23-.38-4.43-.68,0-.18,3.53-1.25.18-.43-.47-.29-2.41-.24-2.39-.51,2.21-.78,1.83-.71-.22-.48-4-.53-1.69-.37,4.33-1.63,0-.48-6.4-1.2-1.18-.42,5.41-1.38.38-.54-1.6-.42-6.22-1.1-1.22-.09v-.11l1.7-.43,4.52-.86,1.79-.48-.24-.38-3.72-.76-2.63-.48-2.87-.67-.29-.15.61-.18.24,0,2.59-.57,5.31-1,.19-.38-1.18-.39L121.53,96l-6.84-1.25ZM114,53.21l-.33.48.2.19c6.28-2.37,5.47-4.57,13.68-2.3l.09-.48-.79-.42-.33-.15-2.82-.77-3.67.39-1.32.53Zm.65.81-.45.52.45.53,1.18.1.72-.34L119,56.27l2,.42,3.38-.18,1.7-.52,1.32,0,1,.2.56-.44.24-.86-.71-1.44.09-.38,1.14-1.48.18-1-.38-.24-.56.71-1.26,1-3.06-.81h-2.35l-2.74.37-3,1.39v.1Zm.91-5.78.61-1.11h.38L118.18,46l1.7-.81,2.72-.81,3.67-1.58.67-.33,2.44-2L131,37h.74l.06.58-1.13,2.68-2,2.15-2.49,1.49-2.5,1L119,46.14Zm1.22-2.34.33-.24,1.07-1.16,2.08-1.14,1.7-.51.93-.39c3.81-1.25,4.52-2.19,5.79-5.4l1.17-.06c-.27,4.76-7.8,6.78-11.28,7.8Zm1.89,9.6-1.32-1.2.18,0,1.41-.62,1.27,2.1Zm-.82,218.37-.32,2,.32,1.2.44.05.09-2.59,1.32-3.1,1.41-1.72,1.59-1,.19-.47-.66-.1-1.79,1.2-1.64,2.1Zm-.41-229.94.74-1,.53-.39,4.79-2,1.37-1.07,1-2.39h1.79l.06.2-.71,2-1.14,1-2,1.07-2.82,1Zm.18,238.54.23,2.82.38.81.62.49.85-.11.27-1.67-.47-2.63-.7-1.38-.57-.48-.41.66Zm.81-240.87v-.24l.6-.57,2.12-1,1.37-1.29.76-1.43,1.87,0-.89,1.81-1.32,1-1.69.67Zm1,237.57-.51.05.13.57,3.53,3.35,2.12,1.58,1.93.67,1.41,0,.14-.77-1.26-1.52-2.45-1.62Zm-.23-239.44v-.19l.75-1.91.47-.63h1.74l-.43,1.11-.84.77Zm2.11,236.67-1.64,1.77.1.66.28.15,1.73-.15,1.74-.75,1.74-1.34.48-1.29-.43-.35-.89-.09ZM120.25,54.65,120,53.4l.6,1.05,1.7,1,1.37-.09,1-.72.53-1.44.32,0-.41,1.49-1.42,1.2-2-.2Zm1,139.59v-.76l.37-.23,1,0,7.44.1,4.56.14H136l.18.05h1l6.17.18-.85,1.07-1.18,0-3.94-.15-10.4-.19-4.09-.14ZM122.7,91l-1.32-.29,2.21-2.1.29.61L125.42,91l-.14.15Zm-1.22,101.47-.15-.92,2.88-.05,19.56.47,1.28.15-1,.95h-1.5l-8.94-.33-9.08-.18Zm.14,3.62-.2-.95,6.64.18h3.29l10.12.29-.15.2-.94.85-2.44-.09-5.21-.09-2.23-.15h-4.79Zm0-5.44v-.86l.29-.15,1.69,0,5.08,0,9.31.2,6.11.19,2.74.14-1.09,1.1-1-.05Zm.23,7.44-.14-1h4.52l11.76.2,1.65.18-1,1-2.26,0-11.58-.15Zm.06-9.45.41-1,16.14.33,10.26.33-1.14,1.24c-8.19-.46-16.66-.58-24.88-.71Zm1,11.84-.79-1.58,8,.11,6.78.19.85.2-1.51,1.32-4.14,0Zm-.42-139.83-.24.48,1-.09,2-1.25L128,56.84l-.25-.39-.7.24-2.86,2.78Zm0,126.07.65-.91c9.15.28,18.4.07,27.52.68l-1.18,1-4.46-.09-21.17-.59-.18.06Zm.61,80.49-.24.81.14.42.47.44,1,.19.71-.76.14-1-.66-.71h-1Zm.1-65.42v-.53l8.37.09,3.62.09,0,.29-.84.9-10.58,0Zm1.12-16.88-.89-.14.75-1,7.1.24h5.09l5.17.1,8.51.23.94.92v.38l-7.47-.29h-2.92l-3.76-.15-12.32-.33Zm.47,19.54-.61-1H133l.47.19-1,.92h-3.86ZM124.77,74.1l-.18.57.09.48.27.19.76-.43.65-.06,2.93-.94c4.83,1.53,2.19-1.37,8.18,1l.33-.43-.33-2.35-.56.15-1.09.71-2.31-1.72-1-.09-.85.67-.61-.38-.84-.2-.52.11-2.41,1.71L126.18,73l-.29-.63-.47-.2-.27.63Zm0,108.78.75-1.07,5.4.1,1,.05,7,.1,9,.19.66.28.7,1.05-5.7-.24L128.81,183l-.19.05Zm.6,22.59.11-.23,5.44,0,.33,0,.34.14-1.14,1.16-4.32-.06Zm.25-150.25.6-1.2.09-.53.34,0,1.22,1.09,0,.68ZM126.23,181l.62-.66.18-.09,4.8-.06,10,.2,4.85.15.71.7-.15.29-9.82-.29Zm.62-116.74-.29,1,.42,1.53,1,.81,1.23.09,1-.37,1.32-.62,2.1-.24.67-.57-.14-1.1-1.09-.57-1.21.38L130.5,66l-1.45,1-1-.2-.76-1,.29-1.14.65-.53.91,0,.83.38.2-.77-.89-.61h-1.37Zm-.15,143.08.15-.14h2.53l.38.24L128,208.82Zm1.13-28,.52-.68.46-.33,13.74.2,2.35.13.85,1.07-6.31-.11h-2.73Zm.19-86.6.56-.2,1.55.06,5.37.42.75.15,5.07.42.42.3-8.09,1.87-.7.42.19.33,2.16.39.2.14,5.26.87.52.28-7.67,1.62.29.53,5.21.9,1.56.53-.29.15-3.76.77-2.35.37-.85.33v.39l6.64,1.48-.15.24-3.85.86-1.41.52.09.33L138,108l1.7.72-3,.75-1.27.63.47.57,1.65.38,1.79.81-.65.25-2.36,1,0,.34,2.32,1,.13.24L137,115.68l.14.48,1.27.42.65.53-1.74,1.58.76.76-.37.2-1.09-.92,0-.33.8-.63.24-.61-1.33-.53-.7-.66.09-.49,1.41-.76-.27-.44-1.27-.42-.95-.77.39-.28.89-.2,1-.47v-.38l-2.77-1-.52-.58.09-.47.19-.14,2.07-.44.65-.37-.09-.34-2.07-.63-1-.19-.83-.57-.15-.71,3.48-.72-.09-.53-3.91-.9-.61-1.2.32-.38,2.22-.34,1.87-.47-.22-.43-4.19-.82-1.08-.48.13-.62,5.09-1.09.14-.53L130,96.74l-.94-.51,0-.53,5-1.2.19-.33-.37-.29-2.55-.28-3.15-.53Zm.33-13.82-.15.72h.42l.8-.9,1.65-.68,2.22.35.7.42.13.29.71.28-.18-.76-1.89-1.43-1.88,0-1.55.62Zm.85-3.77-.85.1.7.77,1,.38,2,.09,1.5-.29,1.37-.95-.19-.81-1.41.9-3.06.33Zm.22,102.37,1.18-1.1,8.66.09,1.92,0,1.84.19.89,1.1ZM131.91,91l-1.21,0,.75-.67,1.17-2,1.18.9,1.41,1.15-.66.19-1.37.2Zm-.18,84.39-.18,0,.78-.81,9,.14.67.95-7.91-.13-.18,0Zm.24-45,.14-.34.33.24,1.17.15.66-.39-.09,1.38-1.36.15-.67.57.47.35.71-.06,1.08-.14.14,1.34-2.16.42Zm.76-1.11-.9.39.23-1.95.38.37,1.27.2.56-.2-.15,1.39Zm-.67-1.85.18-1.49.38-.86,1.18.67.89-.09-.46,2-1.56-.62Zm.94,9.41-.52-1.91,2.31-.3.33,1.35-1.74.57-.24.58Zm-.24-12.57,1-1.48.28-.29.24.48.56.53.89.37-.8,1.34-.7-.48Zm.66,13.71,0-.47.7-.1,1.42-.57.5,1.43-1.59.48-.38.57-.38-.57Zm.85,35.71-.89-.1.74-.72,5.46.14.71.81-2.4-.09Zm-.71-135.4L133.42,37l1,.11.18.66,1,1.86,2.17,2,5,4.34.94,1.58L143.53,49l0-.24-.7-1.38-1.38-1.43-6.11-5.35Zm1.52,103.14-.9-1.72h1.08l1.22-.67.7,1.24-.51.14-1.17,1.05.14.53.56.15,1.6-1.44.94.85-.8,1.64.27.66.67-.18.47-1.2,0-.68H140l.67.2-.24.33.57,1.62h.56l.14-.57-.42-1.52.42-.34,1.89-1.81,1.17.53.51-.34v.43l-.93,2.1-1.7,1.52-1.5.53-2.5.06-2.35-1.58ZM134.41,122l1.27-1.1.66-.14h.33l.37,2.44-.89.43-.09-.39-.85-.86Zm.28-69.68-.33-.09,2-1,1.13-.49,1.88,0,1.93.66.19-.38-.94-.71-.89-.2L137,50l-1.83.81-.66,0,.14-.51,1.84-1.25,1.88-.48,1.93.24,1.65.81.7.92c-2.19,2.12-2.8-.44-6.49.95Zm.14,2.48v-.57l.85-.66.23.24L136,55Zm.43,76.8c-1.18-10.16,5.44-9.93,7.15-.09l.47,3.25,0,3-.42,1.34L141,140.53c-3.11.88-4.15-2.84-5-5.17Zm0,40.35.47-.48,2.59-.05.33.57Zm.9-133.45-.71-1.62,1.13.09.42,1.53.94,1.34,3.81,2.92,2.12,2.3.38,1-.24.34c-1.83-3-5.3-4.16-7.34-6.93Zm.71,15.92-.06-1.05.42,1L138,55l1.41,0,1-.71.09.14-.36.48-1,.72-1.37-.15Zm1,80.58h-.62l.11,1.44.74,1.76,1.14.9h1.68l1-1.32.25-1,0-3.15-.61-2.83L140,127.09l-1.45-1.52-.56-.28-.85.33.66.43.94,1,1.22,3.22.51,3.34-.23,2.25-.46.66H138.7Zm.09-12-.46-2.52,1.54.13.56.48-.23.24-.56,1.87Zm-.28-85.16-.18-.72.89-.19,1.5,2.63,3,2.25,1.37,1.76,0,.72-2-1.86-4-3.45Zm1.09,41.52,0-.42,1.73-3,1.32-3.35,1.8-5.73.7-5.74-.09-1.72V56.12l.09-5.68.42-1.91c2.55,10.45,9.48,18.66,13.17,28,1.53,3.4,3.37,13.76,1.5,17.15l-12.09-8.22Zm.69,44.17.72-1.39.27-.72,1,.77.47.77-1,1-.29.71Zm.19-85.88-.19-.57,1-.11.71.63.79,1.67,1,.72,1.37,1.53v.53l-3.82-3.16Zm.29,51.14,1-2.5.15-1.76h3.47l.66.38.48.67-2.26,1.63-2.08,1.05Zm.37,31.4c1.06-11.33,3.08-22.76,7.49-33.27l.5,0,2.64,2c-5.29,10-8.14,20.7-9.73,31.88Zm1.32,6.06-.71-1.24.43-.1,1.18-1.23.51.71.29.91ZM142,229.13c-.88-7.58,3.44-7.45,7.29-11l-.47,1.05-1.69,1.72-.76.57-2.16,1.92-1.08,1.76-1,2.77.09.54.29.18.18-.18-.56,1.1Zm0-191.21-.11-.81.2,0,1.65,0,.32,1.81L144,40.11,142.79,39Zm-.05,89.23,1.93-1.05.75,2.19-.38-.24-1.69.44Zm.23,84.4v-.67l.24-.24.23.48,1.09,0,.09.33Zm.62-70.69-.43.24.1.53.65.72.66.24.32-.63Zm0,87.13.09-.62,1.17-2.21,4.33-4.25,1.79-2.48c-.69,5.24-4.73,5.9-7.25,9.8Zm1.83-17.35-1.6-.48.62-.38,1.5-.1L148,212l-.52.14-2.5-.38Zm-1.74-81.1.61-.3.8-.18.47-.57.65,2.28-.47-.19-1.68.3Zm.18-8,.38-.75h.61l.33.33.61-.24.15-1.78-.76-2.34-.14-1.76.9-2.11,1.79-1.77,1.59-.71,0-.57-.43-.54-.7-2.52.47-2.39.66-1,.33.91,1.65,1.34,1.5.43,1.5,0,1.32-.42,1.74-1.53,1-2.59-.18-2.24-.62-1.29-1.35-1.25-1.18-.42-2.26.24-1.09,1-.6,1.64.46,1.61,1,.87,1.18-.06.29-.42-.81-.81-.09-.92.75-.75.89,0,.71.67.47,1.15-.47,1.57-.84.67-.81.33-1.54-.28L150.4,102l-.88-1.8.18-2.15.8-1.25,1.5-1.14,1.37-.2,1.65.14,1.64.91,1,1.3.57.33.28-.59,1-1h1.17l1,.86.11,1.33-.47.58-.71,0-.52-.48.29-1-.1-.38-.9.18-.74,1.31-.2,2.09-.33,2-1.22,2.1-2.07,1.52-1.12.33-1.61.11-1.21-.38-1.61-.92-.47,0-.33.9.15.92.56,1.86,1.46,1.67-.9.09-1.83.33L146.08,113l-1.14,2.42.33,1.78,1.23,1.14,1.23,0,.74-.76.1-.91-.43-.57-.32.62-.66.39-.57-.68.29-.81.56-.38.79,0,.91.86.23,1.29-.43.9-1.65,1-1.21-.28-.42.28.13,1.05-.42,1.63-.75.62-1-.14Zm.71,11.86-.33-1.34.8-.33.34,0,1-.37.38,4.19.05.2-.53,3.62-.56-.37-1.23-.24.2-1.48,1.69-.1.1-.67-.85-.28-.94-.09-.1-1.49,1.69-.43.1-.57-.33-.25Zm1.6,73.31V206l.57-2.72.56.38.09,1.24-.37,1.63-.38.24Zm.51,2.77-.36-.57.88-.2.95.92-.42.53Zm0-7.11,1.22-4,.43-1,1.12-1.62L150.4,194l3.91-2,1.5-.57h2l1.5,2,3.25,5.88-.9,4.69-1.41,3.35-1.13,1.38-1.79.66h-1.5l-1.08-.72-.18-.28L155,208l.11-.9-.29-.44.14-.24.8.2,1.59-.59-.56-1.43L157,202l.76-1.85.23-.77-.47-.1L156.7,201l-.7,2.9.14,1.78-1.79,0-1.22.29-.94.9-.7-.18-1.37-.06-.28-1.14.47-1.58-.85-.2.42-1.56,1.05-.29,1.5-1.35.65-.09,1.88-.76,1.61-1.33,1.45-2.45.33-1.48-.37-.1-.95,2.11-1.87,2.1-1.79.86-1.18.19-.43.38-1.4,1.15-.84.29-1.14,2.92-.89,1.14-.09-.14-.05-1.77-.62-.91Zm.33-72.32-.14-1,.37-.9,2-4.54,3.85-6.89,4-5.87,3.15-4,3.76-3.25.24,3.2-.33.15-4.5,4.21-1.9,2.29L153.84,117l-2.12,3.2-4.28,7.88.05.15-1.09,2.33Zm1.59,78.77H148l4.75,3.1-.24.19-.47.24-1.36.2-1.32-.39-1.61-1.19.34-1.25Zm.53-1.82-.09-1.05.74-.92.11,1.68Zm.51,1.19-.13-.18.32-.2,1,.53.48.81-.53.19Zm2.63.81-1.17-1.52,1.28.09,1.63.81,2.68,1.87-.51.37-.85.54h-1.36L151.25,210Zm1.14,7.84-1.64-3.35h.22l1.37,2.2,1.65,2.06,3.58,3,2.53,1.25.05.39-.52.18-1.41-.81-3.48-2.29L152.81,217Zm.33-9.51,1.08-.57.37.72-.33.71Zm2.95,6.84h-1.5l3.29-2.63,2.59-1,2.4-.09,1.88.57,2,1.78-.29.19-.56-.78-1.5-.66h-3.11l-1.22.48-2.07,1.29Zm-.78,1.05-.62-.15,1.18,0,1.5-.34,4.51-2.1,2.12-.15.71.3-1.31.24-2.36,1.33-2.64,1-2.4.2Zm2.48-70,.29-2.29,0-1,1.55-5.54,2.91-5.93,1.56-1.91,0,1.48.38,5.35,1.27,7.27.18,5.64-6.2-2.06-.57-.15Zm.8,45.35.19-1.14,1-.95,1-.15,1.56.57.93,1,1.37,2.19,1.09,2.54.51,3.25-.24,1.49-.65.81h-1l-.36-.39-3.2-6-1.51-2Zm.19,35.56.09-1.48,1.47-1.34,1.59-.18,1.13.33.19.48-1.28,1.29.11.47,1.35,1.73-.56.47-1,.39-1.12.09-1.27-.71Zm1.56-36.8-.72.67.1.76.51.62,1.32.1,1.6,1.43,1.17,2.78.29,2.44-.18.48.23.71.51.06.29-.63.09-2.49-.61-2.53L163.16,191l-1.89-1.58h-.81Zm3.47,33.89-.75-2,.09-.63.66-1.53,1.65-1.15,1.36,0,1.08.57.62,1.29.09,1.87-.76,1.38-1.31-1.34-.7-.09Zm-.14,8.51-.27-1.49.09-.95.61-1.11,2,1.73,1.09-1.05L168,228l.6,1,.33,1.63-.6,1.9-1.37.82H165l-1-.71Zm1.14-125-.49-3.53.58-5.11,2.06-10.39.56-3.82.58-4.49-.29-3.91L167,71.85l-1.18-3.34.15-.24,1.26,1.14L168,70.7l.93,3,.85.25.29-1.06,1-2.39L172.46,69l.1.38-.66,1.77-.66-.52-.43,1-.42,2.2L170,76.43l-.46.2-.1,3.49-.23-.14-.52.33.28,2.3.15,1.62-.06.29-.65.24,1.45,10.94.14,5.79-.23-2-.47-2.78-.42.15.18,1.86.11,4.21-.39,2.06-.84.66.09.29.89,0,.62-.81.41-1.29-.41,2-1,1.15v.39h.67l.74-.59.57-1.23.43-4c.06-5.09-1.56-11.52-1.65-16l.33,2,.75,4.21.61,5.86.14,1.58,0,4-.09,1.91-.66,2L169,108.22l-.94-.19-.48.28.58.49.94,0,1.12-.48.71-1-.19.77-1.26.95-1,0-1.54-.81.09.72-.67-.06.15.63.85.77.89.28h2.26l.84-.33-.65.77-1.08.47-2.21-.33-1.74-1.78ZM164.75,226v-.71l.76-.72.56-.13,1,.76-.09,1.1-.61.57h-1ZM165,117.53l.47-1.76.56-1.2,1.27-1.14.42.24-.57.48.09.42.53.15-.2.48.43.09,1.32.15,1,.9v2l-.84.76-1,.11-.47.38,1.27.61,1.5-1,.52-.77v.53l-1.22,1.23-2.35.1.1.34.8.43-.85.09.89.77-1.36-.19-1.23-1-.6-1ZM166.63,60l.15-1.87,1.55-7.78.56-1.58L172,58.51l.09,2.3-.61,1.62-.42.1-.15-1.24-.18-.81-.76-5.65-.47-.66-.42.19-.46,2.33,0,.35-.74,5.53-.61-.42Zm1.7,49.89.18-.09,1.56-.15,1.64-1.34v.25l-1.08,1.09-1.23.44Zm1.27,15-.9-.24.52-.1,1.5.62.85,1.16.42,1.86v2.11l0,1.42-.2,1.92-.65,5-.56,2.66-.19,3.4-.34.53-.09-.53-.56-.18.28-1.87.71-1.72.7-3,.19-2,.38-2.87.13-4.73-.56-2ZM168,69l.75-6.12.7-5,.24,1,.76,5.64.47,4.45-1.52,2.72ZM168.23,224v-.34l1.13-.71,2,0,1.12,1,.47,1.77-.47,1.52-1.12.87-1.52,0-1.36-.67,1.32-1.35v-.42Zm.23-106-.09.29.29.28.89-.13.61-.86-.2-1.2-1-.62-.65.29.94.9,0,.67Zm1.41-3-.27-.37.79.33.62,1Zm-.36,33.89.23-1.39,0,1.82Zm.13-15.34.19-3.44v3.44Zm1.17-42.82L170,84.9l.49,1.9.88,5.46.24,3.16Zm-.42,22.32L171,113l.13.06,1.28,1,.61,1.43-1.32-1.62Zm-.09,1,.47.15.71.66Zm.66,34.65-.15-.09,0-1.82.28-1.53v2.34l-.19.33Zm0-70.25-.06-1.64.06-2.52.18,0c-.48,4.15,1.07,10.37,1.12,14.06l-.51-3.16L171,79.06ZM172,101.58l-.18-.15.09-2.63.14.72Zm-137.11-65H173.16v252.1H34.88ZM34,289.64H174.1v-254H34Z"/><path class="cls-3" d="M34.51,174.7v31.78h0l.85-1.43.8-.77,1.13-.57,1.88-.43V203L36.9,202l-1.32-1-.89-2.3c-.82-8,3.24-15.92,2.07-23.33l-1.6-.57"/><path class="cls-3" d="M41.89,181.3c.1,5.36,2.91,14.06.66,18.58l.19.1c5.36-5.09,8.08-12.56,8.56-19.88l-.85-.38-.38-.43-.7-.2-4.89-2-1.88-.37-.38-.2-.38,1.72"/><polyline class="cls-3" points="47.21 160.6 45.66 161.7 45.71 161.98 48.19 164.72 48.71 164.85 49.09 163.71 50.59 161.13 52.95 158.88 52.28 160.88 52.76 162.9 53.55 163.76 54.59 164.19 56.19 164.04 57.65 162.57 58.5 160.79 59.43 157.83 60 154.57 60.42 150.38 60 149.94 59.15 149.89 56.8 150.18 54.54 150.38 51.72 151.08 51.25 151.32 50.83 151.38 48.57 152.33 46.88 153.96 46.22 156.06 46.88 157.59 47.95 158.25 49.93 158.21 51.68 157.4 51.68 157.83 48.48 160.22"/><path class="cls-3" d="M50.78,240l.9,4.25,1.17,3.3,3.48,6.79,2.87,5.07,4.37,7.41L64.65,268l.38-1.1-.18-1v-3.11l-1.75-3-5.83-9.89.14-.48-.28-.1-.8-1.53L54.83,244l-1-4.34.15-3.79-.18-1.14-2.46-1.58-.6,3.73m5.73-.28-.32.71.41,4.35,1.09,3,1.88,4.2,5.41,9.51-.09,1.05.65.09c.52-5.06,3.22-9.43,5.23-13.95l-9.64-6.45-3.4-1.95Z"/><path class="cls-3" d="M68.83,163.47l-4.45,4.68v.24l.36.09,4.62.1,20.13,0,.33,0,21.4,0,.85.1,19.28.18,6.86-5.73,4-3.77,2.68-3-.09-.3c-22.25-.36-44.71-.21-67-.33l-1.6,1.24-4,3.25m2.07,3.07-.37-.24.24-1.11,1.41.39h1.92l.19-.29-.75-.19-1.18-.86-.18-.2.32-1,.71-.52,1.59.14,2.36,1.19,2.16,1.87-.19.28-3,2.26-1.7.86-1.5,0-.74-.62v-.91l.56-.71,1.45-.53v-.43H76.14Zm12.19-.48.09-1.16,3.11.68.74-.34-1-.38-1-.95.33-1.16.7-.33,1.47.15,3.65,2.33.72.87-3.2,2.29-1.61.72-1.07,0-.52-.42-.2-.19.11-1,1.5-1.3-1.36-.13-2.21.61Zm11.52.24.18-1.11.09-.09,1.47.57,1.79.19.33-.28-.85-.29-.8-.9.14-.87,1-.86,1.37.15,1.93,1,2.54,2.21v.38l-2.54,1.67-2,1-1,.2-1.08-.2-.62-.81.2-.86.61-.57.75-.24.23-.39-.65-.05H99.84l-1.5.53Zm12.79-.48.15-.72.47.14,3,.67.33-.29-1.09-.38-1-1.09.38-1.16,1.07-.48,1.52.39,4.09,2.83.05.57-2.55,1.71L114.69,166l-1.45-.13-.7-.77,0-.53.56-.76,1.69-.62-.15-.33-3,.24-.57.28Zm13.21.81v-1.39l1.79.53,1.88-.19-.7-.39-.89-1.19,0-.48.84-.77,1.55.35.58.18,3.24,2.15.23.72-3.95,2.67-.84.38-1.23-.13-.65-.82.09-.52.42-.68,1.12-.42.29-.48-1.65,0-1.83.58Z"/><path class="cls-3" d="M81.87,84.46,81,85.66c6.62-.23,13.36-4.47,17.41-9.65L102,71.8l4.32-6.12L109,61.1l4.05-8L115.74,47l3.48-8.51.52-2.2-2.92-.09c-4.75,14.11-17.59,45.19-34.66,47.51m3-4.56L83.9,81v.39c8.39-2.61,17.61-14.91,21.67-22.37l4-7.54L112,45.57l.14-.68,1.18-2.48,1.75-4.49.41-1.63-4.75,0-.33.37L109,40l-2.86,5.45-2.92,5.64C99,58.46,94,64.79,89.4,71.89Z"/><path class="cls-3" d="M84.46,149.52l-1.52,1.32.2.73.47-.2.09.15c12-.1,24.54.58,36.42.24l2.95,2,2.4,0-1.12-.94-9.51-6.47-2.68-1.62-6.87-3.82-.66-.29-4.5-2.39-6.88-3.29-1.17-.24-.33,1.43-1.32,4.54-1.7,3.2-1.5,2.39m3,1,1.93-3.62,1.74-4.51h.65l.9.39,5.36,2.59,7.76,4.58,1,.91-11.47-.14-6.58-.05Zm4.37-6.93-2.31,5.6.61.86,12.7.1.33-.35,0-.7-2.17-1.34-3.94-2.15-4.47-2.11Z"/><path class="cls-3" d="M85.35,171.63h-2l.05.44,4,2.87L90.61,177l12,6.92,4.61,2.44,8.76,4.15.61-.85,0-.72.85-3,2-4,1.88-3,2.68-3.49,1.7-2c-12.86-.16-25.84.44-38.62-.37m11.23,4,.35-.13,10.15,0,1.55.09.18.05h5.79l1.18.24L114.89,183l-.94,2.63-.33.33a135.4,135.4,0,0,1-12-6.64l-.09.1Zm4.06.68-.57.33.19.66,1.64,1.16,7,3.73,1.93.85.75-.24,2.16-5.44-.09-.63L115,178l-1.6-.14-.19.05Z"/><path class="cls-3" d="M88.64,288l-.14,1.1,2.4-.05c4.61-12.76,10.42-25.53,18.87-36.18l2.68-3.25,2.21-2.06,4.37-3.2,3.33-1.62,2.59-.86.24-.15.14.05,1-1.48-.28-1.2-.47.63-1.27.24-1.47.18-.27.11-2.26.57-.9.52-4.27,2.25-4.29,3.83-3.57,4.39L102.48,258l-.43.84-.66.92-1.59,2.78L94.19,274,92,278.65m.53,9.6-.15.62.38.2h4.28l2.78-5.46.7-1.67h.1c4.79-9.87,11.27-18.72,17.69-27.52A65.21,65.21,0,0,0,124,244l-.27.24-2.68,1.53-2.93,1.81-5.21,4.82c-6.7,6.75-12.64,16.6-16.19,25.24Z"/><path class="cls-3" d="M139.58,75.77l-2.06,3.62.09.54,13.5,9.31.52.1.28-.81.19-2.87-.43-2.44-.94-3-3.33-6.49-4.05-7-.52-.14-.33.47-1.65,6m2.26-14.82,0,3.35.33,1.1,6.21,10.57,3.11,6.21,1.12,4.1.18,1.82.11,3.92-.38,1,.09.24,2.44,1.62.62.05.47-4.21-.29-4.78L156,78.82l-3-6.06-3.9-6.55-4.38-7.83-1.09-2.64-.18.25Z"/><polyline class="cls-3" points="148.24 167.44 147.29 173.21 147.4 174.37 147.73 174.74 152.9 174.46 155.4 173.84 156.61 173.5 159.01 172.46 160.95 170.64 161.37 168.91 161.08 167.72 160.33 166.81 159.67 166.48 158.31 166.43 156.57 167.1 155.96 167.24 157.13 166 158.96 164.57 161.69 163.47 161.98 162.9 160.99 161.41 159.49 160.12 158.92 160.03 158.54 161.08 157.22 163.38 154.93 165.81 154.68 165.81 155.07 164.9 155.29 162.99 154.78 161.56 153.13 160.46 151.96 160.46 150.69 161.32 149.37 163.56"/><path class="cls-3" d="M156.57,142.35l-.2.81.1,1.86.37,1,.85.38,1.56.62,5,1.57,2.07.24-.05-5.63-.8-3.78-.79-6.12-.24-3.77.71-3.59,0-.81c-4.18,3.75-6.35,8.28-8,13.66"/><path class="cls-3" d="M170.11,121.8l-3,.85.8.38,2.4.33,1.45.87.91,1.72.37,2.78c0,7.33-3.41,14-2.31,21.5l2.64.34.18.05V117l-.38,1.1-.88,2.19"/><path d="M172.06,37.62v250H35.91v-250H172.06m2-2H33.91v254H174.06v-254Z"/></g></g></svg>