<svg xmlns="http://www.w3.org/2000/svg" viewBox="0 0 208 326">
    <defs>
        <style>
            .cls-1 {
                fill: #fff;
            }

            .cls-2 {
                fill: #6f7072;
            }
        </style>
    </defs>
    <title>TC-fr-2c</title>
    <g id="Calque_2" data-name="Calque 2">
        <g id="FR_-_EN" data-name="FR - EN">
            <path class="cls-1" d="M14.83,325A13.84,13.84,0,0,1,1,311.18V14.82A13.84,13.84,0,0,1,14.83,1H193.17A13.84,13.84,0,0,1,207,14.82V311.18A13.84,13.84,0,0,1,193.17,325Z"
            />
            <path class="cls-2" d="M193.17,2A12.84,12.84,0,0,1,206,14.82V311.18A12.84,12.84,0,0,1,193.17,324H14.83A12.84,12.84,0,0,1,2,311.18V14.82A12.84,12.84,0,0,1,14.83,2H193.17m0-2H14.83A14.83,14.83,0,0,0,0,14.82V311.18A14.83,14.83,0,0,0,14.83,326H193.17A14.83,14.83,0,0,0,208,311.18V14.82A14.83,14.83,0,0,0,193.17,0Z"
            />
            <path d="M24.89,37.92C21.94,37.92,17,36.16,17,24.4c0-12.19,5.51-13.51,7.88-13.51.81,0,7.88.37,7.88,13.26C32.77,37.53,25.69,37.92,24.89,37.92Zm0-23.91c-3,0-4.79,3.89-4.79,10.4,0,3.88.63,10.39,4.79,10.39,0,0,4.78-.12,4.78-10.65C29.67,16.15,26.66,14,24.89,14Z"
            />
            <rect x="11.32" y="11.09" width="3.1" height="26.63" />
            <path d="M188.89,38C185.94,38,181,36.2,181,24.44c0-12.2,5.51-13.51,7.88-13.51.81,0,7.88.37,7.88,13.25C196.77,37.56,189.7,38,188.89,38Zm0-23.91c-3,0-4.79,3.89-4.79,10.4,0,3.88.63,10.39,4.79,10.39,0,0,4.78-.12,4.78-10.65C193.67,16.18,190.66,14,188.89,14Z"
            />
            <rect x="175.32" y="11.12" width="3.1" height="26.63" />
            <path d="M183.19,287.8c2.95,0,7.89,1.76,7.89,13.52,0,12.19-5.52,13.51-7.89,13.51-.8,0-7.87-.37-7.87-13.25C175.31,288.19,182.39,287.8,183.19,287.8Zm0,23.91c3,0,4.79-3.88,4.79-10.39,0-3.89-.62-10.4-4.79-10.4,0,0-4.78.12-4.78,10.66C178.41,309.58,181.42,311.71,183.19,311.71Z"
            />
            <rect x="193.66" y="288" width="3.1" height="26.63" />
            <path d="M19.2,282.87c2.94,0,7.88,1.75,7.88,13.51,0,12.2-5.52,13.51-7.88,13.51-.81,0-7.88-.37-7.88-13.25C11.32,283.25,18.39,282.87,19.2,282.87Zm0,23.9c3,0,4.78-3.88,4.78-10.39,0-3.88-.62-10.4-4.78-10.4-.05,0-4.78.13-4.78,10.66C14.42,304.64,17.42,306.77,19.2,306.77Z"
            />
            <rect x="29.66" y="283.06" width="3.1" height="26.63" />
            <path d="M28.05,52.92c-1.79,0-2.87,1.67-3.94,2.32a1.43,1.43,0,0,1-.81.2,1.72,1.72,0,0,1-.18-1.84c.63-1.11,2.24-2.23,2.24-4.09s-1-3.62-3.32-3.62-3.31,1.77-3.31,3.62,1.61,3,2.24,4.09a1.69,1.69,0,0,1-.2,1.84,1.45,1.45,0,0,1-.79-.2c-1.07-.66-2.15-2.32-3.95-2.32a3.44,3.44,0,1,0,0,6.87c1.8,0,2.87-1.67,3.95-2.32a1.36,1.36,0,0,1,.91-.19c.95,3.36-2.17,8.61-2.17,8.61A10.62,10.62,0,0,1,22,65.44a10.62,10.62,0,0,1,3.32.45s-3.52-5.32-2.26-8.6a1.33,1.33,0,0,1,1,.18c1.08.65,2.16,2.32,3.95,2.32a3.44,3.44,0,1,0,0-6.87Z"
            />
            <path d="M192.05,52.92c-1.79,0-2.87,1.67-3.94,2.32a1.43,1.43,0,0,1-.81.2,1.72,1.72,0,0,1-.18-1.84c.63-1.11,2.24-2.23,2.24-4.09s-1-3.62-3.32-3.62-3.31,1.77-3.31,3.62,1.61,3,2.24,4.09a1.69,1.69,0,0,1-.2,1.84,1.45,1.45,0,0,1-.79-.2c-1.07-.66-2.15-2.32-3.95-2.32a3.44,3.44,0,1,0,0,6.87c1.8,0,2.87-1.67,3.95-2.32a1.35,1.35,0,0,1,.91-.19c1,3.36-2.17,8.61-2.17,8.61a12.47,12.47,0,0,1,6.64,0s-3.52-5.32-2.26-8.6a1.33,1.33,0,0,1,1,.18c1.08.65,2.16,2.32,4,2.32a3.44,3.44,0,1,0,0-6.87Z"
            />
            <path d="M180,273c1.8,0,2.87-1.67,3.95-2.32a1.31,1.31,0,0,1,.8-.2,1.68,1.68,0,0,1,.18,1.83c-.63,1.12-2.24,2.23-2.24,4.09s1,3.62,3.32,3.62,3.32-1.76,3.32-3.62-1.62-3-2.24-4.09a1.67,1.67,0,0,1,.19-1.83,1.26,1.26,0,0,1,.79.2c1.08.65,2.16,2.32,4,2.32a3.44,3.44,0,1,0,0-6.88c-1.79,0-2.87,1.68-4,2.33a1.34,1.34,0,0,1-.9.19c-.95-3.37,2.16-8.62,2.16-8.62a12.21,12.21,0,0,1-6.64,0s3.53,5.33,2.26,8.6a1.37,1.37,0,0,1-1-.17c-1.07-.65-2.15-2.33-3.95-2.33a3.44,3.44,0,1,0,0,6.88Z"
            />
            <path d="M16,272.74c1.8,0,2.87-1.67,3.95-2.32a1.31,1.31,0,0,1,.8-.2,1.7,1.7,0,0,1,.18,1.84c-.63,1.11-2.24,2.23-2.24,4.09s1,3.62,3.32,3.62,3.32-1.77,3.32-3.62-1.62-3-2.24-4.09a1.69,1.69,0,0,1,.19-1.84,1.41,1.41,0,0,1,.79.2c1.08.65,2.16,2.32,3.95,2.32a3.44,3.44,0,1,0,0-6.87c-1.79,0-2.87,1.67-3.95,2.32a1.34,1.34,0,0,1-.9.19c-.95-3.36,2.16-8.61,2.16-8.61a10.62,10.62,0,0,1-3.32.45,10.62,10.62,0,0,1-3.32-.45s3.53,5.32,2.26,8.6a1.37,1.37,0,0,1-1-.18c-1.07-.65-2.15-2.32-3.94-2.32a3.44,3.44,0,1,0,0,6.87Z"
            />
            <path d="M62.15,40.89c5.59,0,8,4.11,8,8.44s-3.87,6.92-5.38,9.51a8,8,0,0,0-1.07,5h-3a8,8,0,0,0-1.08-5c-1.51-2.59-5.38-5.19-5.38-9.51S56.56,40.89,62.15,40.89Z"
            />
            <path d="M85,65.66c0,5.63-4.09,8-8.39,8s-6.88-3.9-9.47-5.41a7.86,7.86,0,0,0-4.95-1.08v-3a7.86,7.86,0,0,0,4.95-1.08c2.59-1.52,5.17-5.41,9.47-5.41S85,60,85,65.66Z"
            />
            <path d="M37.93,65.67c0-5.63,4.09-8,8.39-8s6.88,3.89,9.46,5.41a7.86,7.86,0,0,0,4.95,1.08v3a7.86,7.86,0,0,0-4.95,1.08c-2.58,1.51-5.16,5.41-9.46,5.41S37.93,71.29,37.93,65.67Z"
            />
            <path d="M63.81,62V74.12c0,5.7,8.06,11.22,8.06,11.22H52.43s8.06-5.52,8.06-11.22V62Z" />
            <path d="M147.93,40.89c5.59,0,8,4.11,8,8.44s-3.88,6.92-5.38,9.51a8,8,0,0,0-1.08,5h-3a8,8,0,0,0-1.07-5c-1.51-2.59-5.38-5.19-5.38-9.51S142.34,40.89,147.93,40.89Z"
            />
            <path d="M170.73,65.66c0,5.63-4.08,8-8.38,8s-6.89-3.9-9.47-5.41a7.86,7.86,0,0,0-4.95-1.08v-3a7.86,7.86,0,0,0,4.95-1.08c2.58-1.52,5.17-5.41,9.47-5.41S170.73,60,170.73,65.66Z"
            />
            <path d="M123.7,65.67c0-5.63,4.09-8,8.39-8s6.89,3.89,9.47,5.41a7.86,7.86,0,0,0,4.95,1.08v3a7.86,7.86,0,0,0-4.95,1.08c-2.58,1.51-5.17,5.41-9.47,5.41S123.7,71.29,123.7,65.67Z"
            />
            <path d="M149.59,62V74.12c0,5.7,8.06,11.22,8.06,11.22H138.21s8.06-5.52,8.06-11.22V62Z" />
            <path d="M104.51,79.91c5.59,0,8,4.11,8,8.43s-3.87,6.93-5.38,9.52a7.9,7.9,0,0,0-1.07,5h-3a8,8,0,0,0-1.07-5c-1.51-2.59-5.38-5.19-5.38-9.52S98.91,79.91,104.51,79.91Z"
            />
            <path d="M127.31,104.68c0,5.63-4.08,8-8.39,8s-6.88-3.9-9.46-5.41a7.86,7.86,0,0,0-4.95-1.08v-3a7.86,7.86,0,0,0,4.95-1.08c2.58-1.52,5.16-5.41,9.46-5.41S127.31,99.06,127.31,104.68Z"
            />
            <path d="M80.29,104.68c0-5.62,4.08-8,8.38-8s6.89,3.89,9.47,5.41a7.86,7.86,0,0,0,5,1.08v3a7.86,7.86,0,0,0-5,1.08c-2.58,1.51-5.16,5.41-9.47,5.41S80.29,110.31,80.29,104.68Z"
            />
            <path d="M106.17,101v12.12c0,5.7,8.06,11.22,8.06,11.22H94.79s8.06-5.52,8.06-11.22V101Z" />
            <path d="M103.09,245c-5.59,0-8-4.11-8-8.44S99,229.6,100.51,227a8,8,0,0,0,1.07-5h3a7.91,7.91,0,0,0,1.08,5c1.51,2.6,5.38,5.2,5.38,9.52S108.68,245,103.09,245Z"
            />
            <path d="M80.29,220.18c0-5.62,4.08-8,8.38-8s6.89,3.89,9.47,5.41a7.86,7.86,0,0,0,5,1.08v3a7.78,7.78,0,0,0-5,1.08c-2.58,1.51-5.16,5.41-9.47,5.41S80.29,225.81,80.29,220.18Z"
            />
            <path d="M127.31,220.18c0,5.62-4.08,8-8.39,8s-6.88-3.9-9.46-5.41a7.83,7.83,0,0,0-4.95-1.09v-3a7.86,7.86,0,0,0,4.95-1.08c2.58-1.52,5.16-5.41,9.46-5.41S127.31,214.56,127.31,220.18Z"
            />
            <path d="M101.43,223.85V211.73c0-5.7-8.06-11.22-8.06-11.22h19.44s-8.06,5.52-8.06,11.22v12.12Z" />
            <path d="M61.44,113.15c5.59,0,8,4.11,8,8.44s-3.87,6.92-5.38,9.52a8,8,0,0,0-1.07,5h-3a7.91,7.91,0,0,0-1.08-5c-1.51-2.6-5.38-5.2-5.38-9.52S55.85,113.15,61.44,113.15Z"
            />
            <path d="M84.25,137.93c0,5.62-4.09,8-8.39,8S69,142,66.39,140.52a7.86,7.86,0,0,0-5-1.08v-3a7.86,7.86,0,0,0,5-1.08c2.58-1.51,5.17-5.41,9.47-5.41S84.25,132.3,84.25,137.93Z"
            />
            <path d="M37.22,137.93c0-5.63,4.09-8,8.39-8s6.88,3.9,9.46,5.41a7.78,7.78,0,0,0,5,1.08v3a7.86,7.86,0,0,0-5,1.08c-2.58,1.52-5.16,5.41-9.46,5.41S37.22,143.55,37.22,137.93Z"
            />
            <path d="M63.1,134.26v12.12c0,5.7,8.06,11.22,8.06,11.22H51.72s8.06-5.52,8.06-11.22V134.26Z" />
            <path d="M147.22,113.15c5.59,0,8,4.11,8,8.44s-3.88,6.92-5.38,9.52a7.91,7.91,0,0,0-1.08,5h-3a8,8,0,0,0-1.07-5c-1.51-2.6-5.38-5.2-5.38-9.52S141.63,113.15,147.22,113.15Z"
            />
            <path d="M170,137.93c0,5.62-4.09,8-8.39,8s-6.88-3.89-9.46-5.41a7.86,7.86,0,0,0-4.95-1.08v-3a7.86,7.86,0,0,0,4.95-1.08c2.58-1.51,5.16-5.41,9.46-5.41S170,132.3,170,137.93Z"
            />
            <path d="M123,137.93c0-5.63,4.09-8,8.39-8s6.89,3.9,9.47,5.41a7.78,7.78,0,0,0,5,1.08v3a7.86,7.86,0,0,0-5,1.08c-2.58,1.52-5.17,5.41-9.47,5.41S123,143.55,123,137.93Z"
            />
            <path d="M148.88,134.26v12.12c0,5.7,8.06,11.22,8.06,11.22H137.49s8.07-5.52,8.07-11.22V134.26Z" />
            <path d="M62.15,284.77c5.59,0,8-4.11,8-8.44s-3.87-6.92-5.38-9.52a8,8,0,0,1-1.07-5h-3a7.91,7.91,0,0,1-1.08,5c-1.51,2.6-5.38,5.2-5.38,9.52S56.56,284.77,62.15,284.77Z"
            />
            <path d="M85,260c0-5.62-4.09-8-8.39-8s-6.88,3.89-9.47,5.41a7.86,7.86,0,0,1-4.95,1.08v3a7.78,7.78,0,0,1,4.95,1.08c2.59,1.51,5.17,5.41,9.47,5.41S85,265.62,85,260Z"
            />
            <path d="M37.93,260c0,5.62,4.09,8,8.39,8s6.88-3.9,9.46-5.41a7.78,7.78,0,0,1,4.95-1.08v-3a7.86,7.86,0,0,1-4.95-1.08c-2.58-1.52-5.16-5.41-9.46-5.41S37.93,254.37,37.93,260Z"
            />
            <path d="M63.81,263.66V251.54c0-5.7,8.06-11.22,8.06-11.22H52.43s8.06,5.52,8.06,11.22v12.12Z" />
            <path d="M147.93,284.77c5.59,0,8-4.11,8-8.44s-3.88-6.92-5.38-9.52a7.91,7.91,0,0,1-1.08-5h-3a8,8,0,0,1-1.07,5c-1.51,2.6-5.38,5.2-5.38,9.52S142.34,284.77,147.93,284.77Z"
            />
            <path d="M170.73,260c0-5.62-4.08-8-8.38-8s-6.89,3.89-9.47,5.41a7.86,7.86,0,0,1-4.95,1.08v3a7.78,7.78,0,0,1,4.95,1.08c2.58,1.51,5.17,5.41,9.47,5.41S170.73,265.62,170.73,260Z"
            />
            <path d="M123.7,260c0,5.62,4.09,8,8.39,8s6.89-3.9,9.47-5.41a7.78,7.78,0,0,1,4.95-1.08v-3a7.86,7.86,0,0,1-4.95-1.08c-2.58-1.52-5.17-5.41-9.47-5.41S123.7,254.37,123.7,260Z"
            />
            <path d="M149.59,263.66V251.54c0-5.7,8.06-11.22,8.06-11.22H138.21s8.06,5.52,8.06,11.22v12.12Z" />
            <path d="M61.44,210.74c5.59,0,8-4.11,8-8.44s-3.87-6.92-5.38-9.51a8,8,0,0,1-1.07-5h-3a8,8,0,0,1-1.08,5c-1.51,2.59-5.38,5.19-5.38,9.51S55.85,210.74,61.44,210.74Z"
            />
            <path d="M84.25,186c0-5.63-4.09-8-8.39-8s-6.89,3.89-9.47,5.41a7.86,7.86,0,0,1-5,1.08v3a7.86,7.86,0,0,1,5,1.08C69,190.07,71.56,194,75.86,194S84.25,191.59,84.25,186Z"
            />
            <path d="M37.22,186c0,5.63,4.09,8,8.39,8s6.88-3.9,9.46-5.41a7.86,7.86,0,0,1,5-1.08v-3a7.86,7.86,0,0,1-5-1.08c-2.58-1.52-5.16-5.41-9.46-5.41S37.22,180.34,37.22,186Z"
            />
            <path d="M63.1,189.63V177.51c0-5.7,8.06-11.22,8.06-11.22H51.72s8.06,5.52,8.06,11.22v12.12Z" />
            <path d="M147.22,210.74c5.59,0,8-4.11,8-8.44s-3.88-6.92-5.38-9.51a8,8,0,0,1-1.08-5h-3a8,8,0,0,1-1.07,5c-1.51,2.59-5.38,5.19-5.38,9.51S141.63,210.74,147.22,210.74Z"
            />
            <path d="M170,186c0-5.63-4.09-8-8.39-8s-6.88,3.89-9.46,5.41a7.86,7.86,0,0,1-4.95,1.08v3a7.86,7.86,0,0,1,4.95,1.08c2.58,1.51,5.16,5.41,9.46,5.41S170,191.59,170,186Z"
            />
            <path d="M123,186c0,5.63,4.09,8,8.39,8s6.89-3.9,9.47-5.41a7.86,7.86,0,0,1,5-1.08v-3a7.86,7.86,0,0,1-5-1.08c-2.58-1.52-5.17-5.41-9.47-5.41S123,180.34,123,186Z"
            />
            <path d="M148.88,189.63V177.51c0-5.7,8.06-11.22,8.06-11.22H137.49s8.07,5.52,8.07,11.22v12.12Z" />
        </g>
    </g>
</svg>
