<svg xmlns="http://www.w3.org/2000/svg" viewBox="0 0 208 326">
    <defs>
        <style>
            .cls-1 {
                fill: #fff;
            }

            .cls-2 {
                fill: #6f7072;
            }

            .cls-3 {
                fill: #1c1c1c;
            }
        </style>
    </defs>
    <title>TC-us-2c</title>
    <g id="Calque_2" data-name="Calque 2">
        <g id="FR_-_EN" data-name="FR - EN">
            <path class="cls-1" d="M14.83,325A13.84,13.84,0,0,1,1,311.18V14.82A13.84,13.84,0,0,1,14.83,1H193.17A13.84,13.84,0,0,1,207,14.82V311.18A13.84,13.84,0,0,1,193.17,325Z"
            />
            <path class="cls-2" d="M193.17,2A12.84,12.84,0,0,1,206,14.82V311.18A12.84,12.84,0,0,1,193.17,324H14.83A12.84,12.84,0,0,1,2,311.18V14.82A12.84,12.84,0,0,1,14.83,2H193.17m0-2H14.83A14.83,14.83,0,0,0,0,14.82V311.18A14.83,14.83,0,0,0,14.83,326H193.17A14.83,14.83,0,0,0,208,311.18V14.82A14.83,14.83,0,0,0,193.17,0Z"
            />
            <path class="cls-3" d="M32.69,65c.39-4.51-3.51-8.21-7.56-4.36L24.3,59.4c4.52-2.93,2.29-8.43-2.71-8.69-5.1,0-7.58,5.68-2.95,8.69l-.82,1.19c-4.63-4.37-8.82,1-7.29,5.68a5.24,5.24,0,0,0,4.52,3.9,3.84,3.84,0,0,0,2.93-1c.81-.61,1-1.77,1.56-2.32.65.34.62.27.59,1a16.41,16.41,0,0,1-2.58,5.58,26.69,26.69,0,0,1,7.83,0,16.49,16.49,0,0,1-2.57-5.58c0-.7,0-.66.59-1,.55.53.77,1.75,1.56,2.32a3.84,3.84,0,0,0,2.93,1c2.38-.08,4.25-2.26,4.69-4.52"
            />
            <path class="cls-3" d="M198.13,65c.39-4.51-3.51-8.21-7.56-4.36l-.83-1.19C194.25,56.47,192,51,187,50.71c-5.1,0-7.58,5.68-2.95,8.69l-.83,1.19c-4.62-4.37-8.81,1-7.28,5.68a5.23,5.23,0,0,0,4.52,3.9,3.84,3.84,0,0,0,2.93-1c.81-.61,1-1.77,1.56-2.32.65.34.62.27.59,1A16.41,16.41,0,0,1,183,73.38a26.69,26.69,0,0,1,7.83,0,16.3,16.3,0,0,1-2.57-5.58c0-.7,0-.66.59-1,.55.53.77,1.75,1.56,2.32a3.81,3.81,0,0,0,2.92,1c2.38-.08,4.26-2.26,4.7-4.52"
            />
            <path class="cls-3" d="M175.67,260.83c-.38,4.51,3.52,8.21,7.57,4.36l.83,1.2c-4.52,2.93-2.3,8.43,2.71,8.69,5.1-.05,7.58-5.69,2.95-8.69l.82-1.2c4.63,4.38,8.82-1.05,7.29-5.67a5.24,5.24,0,0,0-4.52-3.91,3.81,3.81,0,0,0-2.93,1c-.81.61-1,1.77-1.56,2.31-.65-.33-.62-.27-.59-1a16.22,16.22,0,0,1,2.58-5.58,26.35,26.35,0,0,1-7.83,0,16.45,16.45,0,0,1,2.56,5.58c0,.71,0,.66-.59,1-.54-.53-.76-1.75-1.55-2.31a3.84,3.84,0,0,0-2.93-1c-2.38.08-4.25,2.26-4.69,4.53"
            />
            <path class="cls-3" d="M10.24,260.83c-.39,4.51,3.51,8.21,7.56,4.36l.83,1.2c-4.52,2.93-2.29,8.43,2.71,8.69,5.1-.05,7.58-5.69,2.95-8.69l.83-1.2c4.62,4.38,8.81-1.05,7.28-5.67a5.23,5.23,0,0,0-4.52-3.91,3.81,3.81,0,0,0-2.93,1c-.81.61-1,1.77-1.56,2.31-.65-.33-.62-.27-.59-1a16.41,16.41,0,0,1,2.58-5.58,26.35,26.35,0,0,1-7.83,0A16.47,16.47,0,0,1,20.12,258c0,.71,0,.66-.59,1-.55-.53-.77-1.75-1.56-2.31a3.82,3.82,0,0,0-2.92-1c-2.39.08-4.26,2.26-4.7,4.53"
            />
            <path class="cls-3" d="M90.1,56.52c.77-9-7-16.42-15.14-8.71l-1.65-2.4c9-5.85,4.58-16.86-5.42-17.38-10.2.09-15.17,11.38-5.9,17.38l-1.65,2.4c-9.25-8.75-17.63,2.09-14.57,11.34,1.16,4,4.75,7.67,9,7.81a7.68,7.68,0,0,0,5.86-2.06c1.62-1.23,2-3.55,3.11-4.65,1.3.68,1.24.55,1.18,2-.61,3.79-3.12,8-5.15,11.16a53.37,53.37,0,0,1,15.66,0c-2-3.25-4.52-7.29-5.13-11.16-.1-1.41-.07-1.32,1.17-2,1.09,1.07,1.53,3.51,3.12,4.65A7.65,7.65,0,0,0,80.48,67c4.76-.16,8.51-4.51,9.38-9"
            />
            <path class="cls-3" d="M45.18,269.27c-.78,9,7,16.41,15.13,8.71L62,280.37c-9,5.85-4.59,16.87,5.42,17.38,10.2-.09,15.16-11.37,5.9-17.38L74.94,278c9.24,8.75,17.63-2.1,14.57-11.35-1.17-4-4.75-7.67-9-7.8a7.63,7.63,0,0,0-5.86,2.06c-1.63,1.22-2,3.54-3.12,4.64-1.3-.68-1.24-.55-1.18-2,.61-3.78,3.12-8,5.15-11.16a53,53,0,0,1-15.66,0c2,3.26,4.53,7.29,5.14,11.16.09,1.42.06,1.33-1.18,2-1.09-1.06-1.53-3.5-3.12-4.64a7.63,7.63,0,0,0-5.84-2.06c-4.77.16-8.51,4.51-9.38,9"
            />
            <path class="cls-3" d="M162.9,56.52c.77-9-7-16.42-15.14-8.71l-1.65-2.4c9-5.85,4.58-16.86-5.42-17.38-10.2.09-15.17,11.38-5.9,17.38l-1.65,2.4c-9.25-8.75-17.63,2.09-14.57,11.34,1.16,4,4.75,7.67,9,7.81a7.68,7.68,0,0,0,5.86-2.06c1.62-1.23,2-3.55,3.11-4.65,1.31.68,1.24.55,1.18,2-.61,3.79-3.12,8-5.15,11.16a53.37,53.37,0,0,1,15.66,0c-2-3.25-4.52-7.29-5.13-11.16-.1-1.41-.07-1.32,1.18-2,1.08,1.07,1.52,3.51,3.11,4.65A7.65,7.65,0,0,0,153.28,67c4.76-.16,8.51-4.51,9.38-9"
            />
            <path class="cls-3" d="M90.1,205.28c.77-9-7-16.42-15.14-8.71l-1.65-2.4c9-5.85,4.58-16.86-5.42-17.38-10.2.09-15.17,11.38-5.9,17.38l-1.65,2.4c-9.25-8.75-17.63,2.1-14.57,11.34,1.16,4,4.75,7.67,9,7.81a7.68,7.68,0,0,0,5.86-2.06c1.62-1.22,2-3.55,3.11-4.64,1.3.67,1.24.54,1.18,2-.61,3.79-3.12,8-5.15,11.16a53.37,53.37,0,0,1,15.66,0c-2-3.25-4.52-7.29-5.13-11.16-.1-1.41-.07-1.32,1.17-2,1.09,1.06,1.53,3.5,3.12,4.64a7.65,7.65,0,0,0,5.85,2.06c4.76-.16,8.51-4.51,9.38-9"
            />
            <path class="cls-3" d="M162.9,205.28c.77-9-7-16.42-15.14-8.71l-1.65-2.4c9-5.85,4.58-16.86-5.42-17.38-10.2.09-15.17,11.38-5.9,17.38l-1.65,2.4c-9.25-8.75-17.63,2.1-14.57,11.34,1.16,4,4.75,7.67,9,7.81a7.68,7.68,0,0,0,5.86-2.06c1.62-1.22,2-3.55,3.11-4.64,1.31.67,1.24.54,1.18,2-.61,3.79-3.12,8-5.15,11.16a53.37,53.37,0,0,1,15.66,0c-2-3.25-4.52-7.29-5.13-11.16-.1-1.41-.07-1.32,1.18-2,1.08,1.06,1.52,3.5,3.11,4.64a7.65,7.65,0,0,0,5.85,2.06c4.76-.16,8.51-4.51,9.38-9"
            />
            <path class="cls-3" d="M118,269.27c-.78,9,7,16.41,15.13,8.71l1.66,2.39c-9,5.85-4.59,16.87,5.42,17.38,10.2-.09,15.16-11.37,5.9-17.38l1.65-2.39c9.24,8.75,17.63-2.1,14.57-11.35-1.17-4-4.75-7.67-9-7.8a7.63,7.63,0,0,0-5.86,2.06c-1.63,1.22-2,3.54-3.12,4.64-1.3-.68-1.24-.55-1.18-2,.61-3.78,3.12-8,5.15-11.16a53,53,0,0,1-15.66,0c2,3.26,4.53,7.29,5.14,11.16.09,1.42.06,1.33-1.18,2-1.09-1.06-1.53-3.5-3.12-4.64a7.63,7.63,0,0,0-5.84-2.06c-4.77.16-8.52,4.51-9.38,9"
            />
            <path class="cls-3" d="M126.5,242.39c.77-9-7-16.42-15.14-8.71l-1.65-2.4c9-5.85,4.58-16.87-5.42-17.38-10.2.09-15.17,11.38-5.9,17.38l-1.65,2.4c-9.25-8.75-17.63,2.09-14.57,11.34,1.16,4,4.75,7.67,9,7.81a7.68,7.68,0,0,0,5.86-2.06c1.62-1.23,2-3.55,3.11-4.65,1.31.68,1.24.55,1.18,2-.61,3.79-3.12,8-5.15,11.16a53.37,53.37,0,0,1,15.66,0c-2-3.25-4.52-7.29-5.13-11.16-.1-1.41-.07-1.32,1.18-2,1.08,1.07,1.52,3.5,3.11,4.65a7.65,7.65,0,0,0,5.85,2.06c4.76-.16,8.51-4.52,9.38-9.05"
            />
            <path class="cls-3" d="M45.18,120.51c-.78,9,7,16.41,15.13,8.71L62,131.61c-9,5.85-4.59,16.87,5.42,17.38,10.2-.09,15.16-11.37,5.9-17.38l1.65-2.39c9.24,8.75,17.63-2.1,14.57-11.35-1.17-4-4.75-7.67-9-7.8a7.63,7.63,0,0,0-5.86,2.06c-1.63,1.22-2,3.54-3.12,4.64-1.3-.68-1.24-.55-1.18-2,.61-3.78,3.12-8,5.15-11.16a53,53,0,0,1-15.66,0c2,3.26,4.53,7.29,5.14,11.16.09,1.42.06,1.33-1.18,2-1.09-1.06-1.53-3.5-3.12-4.64a7.59,7.59,0,0,0-5.84-2.06c-4.77.16-8.51,4.51-9.38,9"
            />
            <path class="cls-3" d="M118,120.51c-.78,9,7,16.41,15.13,8.71l1.66,2.39c-9,5.85-4.59,16.87,5.42,17.38,10.2-.09,15.16-11.37,5.9-17.38l1.65-2.39c9.24,8.75,17.63-2.1,14.57-11.35-1.17-4-4.75-7.67-9-7.8a7.63,7.63,0,0,0-5.86,2.06c-1.63,1.22-2,3.54-3.12,4.64-1.3-.68-1.24-.55-1.18-2,.61-3.78,3.12-8,5.15-11.16a53,53,0,0,1-15.66,0c2,3.26,4.53,7.29,5.14,11.16.09,1.42.06,1.33-1.18,2-1.09-1.06-1.53-3.5-3.12-4.64a7.59,7.59,0,0,0-5.84-2.06c-4.77.16-8.52,4.51-9.38,9"
            />
            <path class="cls-3" d="M126.5,93.63c.77-9-7-16.42-15.14-8.71l-1.65-2.4c9-5.85,4.58-16.87-5.42-17.38-10.2.09-15.17,11.38-5.9,17.38l-1.65,2.4C87.49,76.17,79.11,87,82.17,96.26c1.16,4,4.75,7.67,9,7.81A7.68,7.68,0,0,0,97.07,102c1.62-1.23,2-3.55,3.11-4.65,1.31.68,1.24.55,1.18,2-.61,3.78-3.12,8-5.15,11.16a53.37,53.37,0,0,1,15.66,0c-2-3.25-4.52-7.29-5.13-11.16-.1-1.41-.07-1.32,1.18-2,1.08,1.07,1.52,3.5,3.11,4.65a7.65,7.65,0,0,0,5.85,2.06c4.76-.16,8.51-4.52,9.38-9"
            />
            <path class="cls-3" d="M28.43,14.51l.05.37v21l-.05.42-.05.15,0,.39-.24.51a3.91,3.91,0,0,1-2.2,2,3.72,3.72,0,0,1-4.47-2L21.28,37l-.19-.77,0-.37v-21l0-.42.19-.72a3.68,3.68,0,0,1,1.83-2.06A3.73,3.73,0,0,1,28.34,14m3.47.62a7.06,7.06,0,0,0-14.11,0V36.15l.05.48.19.91.29.86.18.43.47.81.56.77a7,7,0,0,0,12.37-4.26Z"
            />
            <rect class="cls-3" x="11.12" y="8.24" width="3.15" height="34.26" />
            <path class="cls-3" d="M193.87,14.51l0,.37v21l0,.42-.06.15,0,.39-.24.51a3.93,3.93,0,0,1-2.21,2,3.73,3.73,0,0,1-4.47-2l-.14-.33-.19-.77-.05-.37v-21l.05-.42.19-.72a3.68,3.68,0,0,1,1.83-2.06,3.73,3.73,0,0,1,5.23,2.3m3.47.62a7.06,7.06,0,0,0-14.11,0V36.15l.05.48.19.91.28.86.19.43.47.81.56.77a7,7,0,0,0,12.37-4.26Z"
            />
            <rect class="cls-3" x="176.56" y="8.24" width="3.15" height="34.26" />
            <path class="cls-3" d="M179.94,309.51l-.05-.37v-21l.05-.43.05-.15,0-.38.24-.52a3.86,3.86,0,0,1,2.2-2,3.72,3.72,0,0,1,4.47,2l.15.33.19.77,0,.38v21l0,.42-.19.72A3.72,3.72,0,0,1,180,310m-3.47-.63a7.06,7.06,0,0,0,14.11,0V287.87l-.06-.48-.18-.92-.29-.86-.18-.42-.47-.81-.56-.77a7,7,0,0,0-12.37,4.26Z"
            />
            <rect class="cls-3" x="194.1" y="281.51" width="3.15" height="34.27" />
            <path class="cls-3" d="M14.5,309.51l-.05-.37v-21l.05-.43.05-.15,0-.38.24-.52a3.85,3.85,0,0,1,2.21-2,3.7,3.7,0,0,1,4.46,2l.15.33.19.77,0,.38v21l0,.42-.19.72a3.66,3.66,0,0,1-1.83,2.05A3.73,3.73,0,0,1,14.59,310m-3.47-.63a7.06,7.06,0,0,0,14.11,0V287.87l-.05-.48-.19-.92-.28-.86-.19-.42-.47-.81-.56-.77a7,7,0,0,0-12.37,4.26Z"
            />
            <rect class="cls-3" x="28.66" y="281.51" width="3.15" height="34.27" />
        </g>
    </g>
</svg>
