<svg xmlns="http://www.w3.org/2000/svg" viewBox="0 0 208 326">
    <defs>
        <style>
            .cls-1 {
                fill: #fff;
            }

            .cls-2 {
                fill: #6f7072;
            }

            .cls-3 {
                fill: #f72014;
            }
        </style>
    </defs>
    <title>TD-fr-2c</title>
    <g id="Calque_2" data-name="Calque 2">
        <g id="FR_-_EN" data-name="FR - EN">
            <path class="cls-1" d="M14.83,325A13.84,13.84,0,0,1,1,311.18V14.82A13.84,13.84,0,0,1,14.83,1H193.17A13.84,13.84,0,0,1,207,14.82V311.18A13.84,13.84,0,0,1,193.17,325Z"
            />
            <path class="cls-2" d="M193.17,2A12.84,12.84,0,0,1,206,14.82V311.18A12.84,12.84,0,0,1,193.17,324H14.83A12.84,12.84,0,0,1,2,311.18V14.82A12.84,12.84,0,0,1,14.83,2H193.17m0-2H14.83A14.83,14.83,0,0,0,0,14.82V311.18A14.82,14.82,0,0,0,14.83,326H193.17A14.83,14.83,0,0,0,208,311.18V14.82A14.83,14.83,0,0,0,193.17,0Z"
            />
            <path class="cls-3" d="M22,45.84s3.67,8.07,9.1,10.11A23.7,23.7,0,0,0,22,65.84s-1.63-5.81-8.9-10A17.25,17.25,0,0,0,22,45.84Z"
            />
            <path class="cls-3" d="M185.9,46s3.67,8.08,9.1,10.12A23.63,23.63,0,0,0,185.9,66s-1.63-5.81-8.9-10A17.17,17.17,0,0,0,185.9,46Z"
            />
            <path class="cls-3" d="M21.9,260.09s3.67,8.07,9.1,10.11a23.62,23.62,0,0,0-9.1,9.89s-1.63-5.82-8.9-10A17.18,17.18,0,0,0,21.9,260.09Z"
            />
            <path class="cls-3" d="M185.9,259.85s3.67,8.08,9.1,10.11a23.7,23.7,0,0,0-9.1,9.89s-1.63-5.81-8.9-10A17.21,17.21,0,0,0,185.9,259.85Z"
            />
            <path class="cls-3" d="M24.85,38.08c-3,0-7.89-1.75-7.89-13.51,0-12.2,5.52-13.51,7.89-13.51.8,0,7.87.37,7.87,13.25C32.73,37.7,25.65,38.08,24.85,38.08Zm0-23.9c-3,0-4.79,3.88-4.79,10.39,0,3.88.62,10.4,4.79,10.4,0,0,4.78-.13,4.78-10.66C29.63,16.31,26.62,14.18,24.85,14.18Z"
            />
            <rect class="cls-3" x="11.28" y="11.25" width="3.1" height="26.63" />
            <path class="cls-3" d="M188.85,38.12c-2.95,0-7.89-1.76-7.89-13.51,0-12.2,5.52-13.52,7.89-13.52.8,0,7.87.37,7.87,13.26C196.73,37.73,189.65,38.12,188.85,38.12Zm0-23.91c-3,0-4.79,3.89-4.79,10.4,0,3.88.62,10.39,4.79,10.39,0,0,4.78-.12,4.78-10.65C193.63,16.35,190.62,14.21,188.85,14.21Z"
            />
            <rect class="cls-3" x="175.27" y="11.29" width="3.1" height="26.63" />
            <path class="cls-3" d="M183.15,288c2.94,0,7.88,1.76,7.88,13.51,0,12.2-5.51,13.52-7.88,13.52-.81,0-7.88-.37-7.88-13.26C175.27,288.36,182.35,288,183.15,288Zm0,23.91c3,0,4.79-3.89,4.79-10.4,0-3.88-.63-10.39-4.79-10.39,0,0-4.78.12-4.78,10.65C178.37,309.74,181.38,311.88,183.15,311.88Z"
            />
            <rect class="cls-3" x="193.62" y="288.17" width="3.1" height="26.63" />
            <path class="cls-3" d="M19.15,283c3,0,7.89,1.76,7.89,13.52,0,12.19-5.52,13.51-7.89,13.51-.8,0-7.87-.37-7.87-13.25C11.27,283.42,18.35,283,19.15,283Zm0,23.91c3,0,4.79-3.88,4.79-10.39,0-3.89-.62-10.4-4.79-10.4,0,0-4.78.12-4.78,10.65C14.37,304.81,17.38,306.94,19.15,306.94Z"
            />
            <rect class="cls-3" x="29.62" y="283.23" width="3.1" height="26.63" />
            <path class="cls-3" d="M103.46,71.7s9.63,19.22,23.9,24.07a59.6,59.6,0,0,0-23.9,23.54S99.17,105.47,80.09,95.5C80.09,95.5,96.85,89.31,103.46,71.7Z"
            />
            <path class="cls-3" d="M103.46,199.76s9.63,19.22,23.9,24.07a59.6,59.6,0,0,0-23.9,23.54s-4.29-13.84-23.37-23.81C80.09,223.56,96.85,217.37,103.46,199.76Z"
            />
            <path class="cls-3" d="M147.49,41.62s9.63,19.23,23.91,24.08a59.61,59.61,0,0,0-23.91,23.53s-4.29-13.83-23.37-23.8C124.12,65.43,140.89,59.23,147.49,41.62Z"
            />
            <path class="cls-3" d="M60,41.62s9.63,19.23,23.9,24.08A59.62,59.62,0,0,0,60,89.23S55.73,75.4,36.65,65.43C36.65,65.43,53.42,59.23,60,41.62Z"
            />
            <path class="cls-3" d="M147.49,108.63s9.63,19.22,23.91,24.07a59.6,59.6,0,0,0-23.91,23.54s-4.29-13.84-23.37-23.81C124.12,132.43,140.89,126.24,147.49,108.63Z"
            />
            <path class="cls-3" d="M60,108.63s9.63,19.22,23.9,24.07A59.6,59.6,0,0,0,60,156.24s-4.29-13.84-23.37-23.81C36.65,132.43,53.42,126.24,60,108.63Z"
            />
            <path class="cls-3" d="M147.49,169.68s9.63,19.23,23.91,24.08a59.61,59.61,0,0,0-23.91,23.53s-4.29-13.83-23.37-23.8C124.12,193.49,140.89,187.29,147.49,169.68Z"
            />
            <path class="cls-3" d="M60,169.68s9.63,19.23,23.9,24.08A59.62,59.62,0,0,0,60,217.29s-4.29-13.83-23.37-23.8C36.65,193.49,53.42,187.29,60,169.68Z"
            />
            <path class="cls-3" d="M147.49,236.69s9.63,19.22,23.91,24.07a59.6,59.6,0,0,0-23.91,23.54s-4.29-13.84-23.37-23.81C124.12,260.49,140.89,254.3,147.49,236.69Z"
            />
            <path class="cls-3" d="M103.84,138.09s9.63,19.22,23.9,24.08a59.54,59.54,0,0,0-23.9,23.53s-4.29-13.84-23.37-23.8C80.47,161.89,97.24,155.7,103.84,138.09Z"
            />
            <path class="cls-3" d="M60,236.69s9.63,19.22,23.9,24.07A59.6,59.6,0,0,0,60,284.3s-4.29-13.84-23.37-23.81C36.65,260.49,53.42,254.3,60,236.69Z"
            />
        </g>
    </g>
</svg>
