<svg xmlns="http://www.w3.org/2000/svg" viewBox="0 0 208 326">
    <defs>
        <style>
            .cls-1 {
                fill: #fff;
            }

            .cls-2 {
                fill: #6f7072;
            }

            .cls-3 {
                fill: #f8261b;
            }
        </style>
    </defs>
    <title>TD-us-2c</title>
    <g id="Calque_2" data-name="Calque 2">
        <g id="FR_-_EN" data-name="FR - EN">
            <path class="cls-1" d="M14.83,325A13.84,13.84,0,0,1,1,311.18V14.82A13.84,13.84,0,0,1,14.83,1H193.17A13.84,13.84,0,0,1,207,14.82V311.18A13.84,13.84,0,0,1,193.17,325Z"
            />
            <path class="cls-2" d="M193.17,2A12.84,12.84,0,0,1,206,14.82V309.18h0v2A12.84,12.84,0,0,1,193.17,324H14.83A12.84,12.84,0,0,1,2,311.18V14.82A12.84,12.84,0,0,1,14.83,2H193.17m0-2H14.83A14.83,14.83,0,0,0,0,14.82V311.18A14.82,14.82,0,0,0,14.83,326H193.17A14.82,14.82,0,0,0,208,311.18h0V14.82A14.82,14.82,0,0,0,193.17,0Z"
            />
            <path class="cls-3" d="M178.05,263.9a64.1,64.1,0,0,1,8.76,12.75,63.4,63.4,0,0,1,8.76-12.75,63.05,63.05,0,0,1-8.76-12.74,65.58,65.58,0,0,1-8.05,12"
            />
            <path class="cls-3" d="M12.61,263.9a64.1,64.1,0,0,1,8.76,12.75,63.4,63.4,0,0,1,8.76-12.75,63.05,63.05,0,0,1-8.76-12.74,65.58,65.58,0,0,1-8,12"
            />
            <path class="cls-3" d="M178.05,62.21A63.75,63.75,0,0,1,186.81,75a63.05,63.05,0,0,1,8.76-12.74,63.33,63.33,0,0,1-8.76-12.74,65.5,65.5,0,0,1-8.05,12"
            />
            <path class="cls-3" d="M12.61,62.21A63.75,63.75,0,0,1,21.37,75a63.05,63.05,0,0,1,8.76-12.74,63.33,63.33,0,0,1-8.76-12.74,65.5,65.5,0,0,1-8,12"
            />
            <path class="cls-3" d="M28.34,14.67l.05.38V36l-.05.43-.06.15,0,.38-.23.52a3.91,3.91,0,0,1-2.21,2,3.72,3.72,0,0,1-4.47-2l-.14-.33-.2-.77L21,36v-21l0-.43.2-.72A3.65,3.65,0,0,1,23,11.85a3.72,3.72,0,0,1,5.22,2.29m3.48.63a7.06,7.06,0,0,0-14.11,0V36.31l.05.48.18.92.29.86.18.42.47.82.57.76a7,7,0,0,0,12.37-4.26Z"
            />
            <rect class="cls-3" x="11.02" y="8.41" width="3.15" height="34.26" />
            <path class="cls-3" d="M193.77,14.67l0,.38V36l0,.43-.05.15,0,.38-.23.52a3.91,3.91,0,0,1-2.21,2,3.72,3.72,0,0,1-4.47-2l-.14-.33-.2-.77,0-.38v-21l0-.43.2-.72a3.65,3.65,0,0,1,1.83-2.05,3.73,3.73,0,0,1,5.22,2.29m3.48.63a7.06,7.06,0,0,0-14.11,0V36.31l0,.48.18.92.29.86.18.42.47.82.56.76a7,7,0,0,0,12.38-4.26Z"
            />
            <rect class="cls-3" x="176.46" y="8.41" width="3.15" height="34.26" />
            <path class="cls-3" d="M179.84,309.67l-.05-.37v-21l.05-.42.06-.15,0-.39.24-.51a4,4,0,0,1,2.21-2,3.72,3.72,0,0,1,4.47,2l.14.33.2.77,0,.37v21l0,.43-.2.71a3.64,3.64,0,0,1-1.83,2.06,3.73,3.73,0,0,1-5.23-2.3m-3.47-.62a7.06,7.06,0,0,0,14.11,0V288l0-.47-.18-.92-.29-.87-.18-.42-.48-.81-.56-.77A7,7,0,0,0,176.46,288Z"
            />
            <rect class="cls-3" x="194.01" y="281.67" width="3.15" height="34.27" />
            <path class="cls-3" d="M14.41,309.67l-.06-.37v-21l.06-.42.05-.15,0-.39.23-.51a4,4,0,0,1,2.21-2,3.72,3.72,0,0,1,4.47,2l.14.33.2.77,0,.37v21l0,.43-.2.71a3.64,3.64,0,0,1-1.83,2.06,3.72,3.72,0,0,1-5.22-2.3M11,309.58a7.06,7.06,0,0,0,14.11,0V288l-.05-.47-.18-.92-.29-.87-.18-.42-.47-.81-.56-.77A7,7,0,0,0,11,288Z"
            />
            <rect class="cls-3" x="28.57" y="281.67" width="3.15" height="34.27" />
            <path class="cls-3" d="M122.83,50.87a127.93,127.93,0,0,1,17.51,25.49,126.58,126.58,0,0,1,17.52-25.49,126.86,126.86,0,0,1-17.52-25.49A131.21,131.21,0,0,1,124.23,49.3"
            />
            <path class="cls-3" d="M86.57,88a128.29,128.29,0,0,1,17.51,25.5A126.93,126.93,0,0,1,121.6,88a126.51,126.51,0,0,1-17.52-25.48A131.51,131.51,0,0,1,88,86.41"
            />
            <path class="cls-3" d="M50,50.87A127.56,127.56,0,0,1,67.54,76.36,126.58,126.58,0,0,1,85.06,50.87,126.86,126.86,0,0,1,67.54,25.38,131.21,131.21,0,0,1,51.43,49.3"
            />
            <path class="cls-3" d="M122.83,126.48A128.22,128.22,0,0,1,140.34,152a126.86,126.86,0,0,1,17.52-25.49A126.58,126.58,0,0,1,140.34,101a130.87,130.87,0,0,1-16.11,23.92"
            />
            <path class="cls-3" d="M50,126.48A127.85,127.85,0,0,1,67.54,152a126.86,126.86,0,0,1,17.52-25.49A126.58,126.58,0,0,1,67.54,101a130.87,130.87,0,0,1-16.11,23.92"
            />
            <path class="cls-3" d="M122.83,198.93a128.22,128.22,0,0,1,17.51,25.49,126.86,126.86,0,0,1,17.52-25.49,126.79,126.79,0,0,1-17.52-25.48,131.13,131.13,0,0,1-16.11,23.91"
            />
            <path class="cls-3" d="M86.57,236a127.93,127.93,0,0,1,17.51,25.49A126.86,126.86,0,0,1,121.6,236a126.58,126.58,0,0,1-17.52-25.49A131.16,131.16,0,0,1,88,234.47"
            />
            <path class="cls-3" d="M50,198.93a127.85,127.85,0,0,1,17.52,25.49,126.86,126.86,0,0,1,17.52-25.49,126.79,126.79,0,0,1-17.52-25.48,131.13,131.13,0,0,1-16.11,23.91"
            />
            <path class="cls-3" d="M122.83,274.54A128,128,0,0,1,140.34,300a126.93,126.93,0,0,1,17.52-25.5,126.51,126.51,0,0,1-17.52-25.48A131.13,131.13,0,0,1,124.23,273"
            />
            <path class="cls-3" d="M50,274.54A127.63,127.63,0,0,1,67.54,300a126.93,126.93,0,0,1,17.52-25.5,126.51,126.51,0,0,1-17.52-25.48A131.13,131.13,0,0,1,51.43,273"
            />
        </g>
    </g>
</svg>
