<svg xmlns="http://www.w3.org/2000/svg" viewBox="0 0 208 326">
    <defs>
        <style>
            .cls-1 {
                fill: #fff;
            }

            .cls-2 {
                fill: #6f7072;
            }

            .cls-3 {
                fill: #f72014;
            }
        </style>
    </defs>
    <title>TH-fr-2c</title>
    <g id="Calque_2" data-name="Calque 2">
        <g id="FR_-_EN" data-name="FR - EN">
            <path class="cls-1" d="M14.83,325A13.84,13.84,0,0,1,1,311.18V14.82A13.84,13.84,0,0,1,14.83,1H193.17A13.84,13.84,0,0,1,207,14.82V311.18A13.84,13.84,0,0,1,193.17,325Z"
            />
            <path class="cls-2" d="M193.17,2A12.84,12.84,0,0,1,206,14.82V311.18A12.84,12.84,0,0,1,193.17,324H14.83A12.84,12.84,0,0,1,2,311.18V14.82A12.84,12.84,0,0,1,14.83,2H193.17m0-2H14.83A14.83,14.83,0,0,0,0,14.82V311.18A14.82,14.82,0,0,0,14.83,326H193.17A14.83,14.83,0,0,0,208,311.18V14.82A14.83,14.83,0,0,0,193.17,0Z"
            />
            <path class="cls-3" d="M60.33,90.1S60.62,87,68,79.62,83,65.19,84.63,56.91C85.72,51.34,83.21,41,71.07,41c-9.61,0-10.74,12.49-10.74,12.49S59.2,41,49.6,41C37.45,41,34.93,51.34,36,56.91c1.64,8.28,9.32,15.33,16.67,22.71S60.33,90.1,60.33,90.1Z"
            />
            <path class="cls-3" d="M147.8,90.1s.29-3.09,7.63-10.48,15-14.43,16.67-22.71C173.2,51.34,170.68,41,158.54,41c-9.6,0-10.74,12.49-10.74,12.49S146.67,41,137.07,41c-12.14,0-14.66,10.34-13.56,15.91,1.65,8.28,9.33,15.33,16.67,22.71S147.8,90.1,147.8,90.1Z"
            />
            <path class="cls-3" d="M60.33,156s.29-2,7.63-9.34S83,132.25,84.63,124c1.09-5.58-1.42-15.91-13.56-15.91-9.61,0-10.74,12.5-10.74,12.5s-1.13-12.5-10.73-12.5C37.45,108.06,34.93,118.39,36,124c1.64,8.28,9.32,15.33,16.67,22.71S60.33,156,60.33,156Z"
            />
            <path class="cls-3" d="M147.8,156s.29-2,7.63-9.34,15-14.43,16.67-22.71c1.1-5.58-1.42-15.91-13.56-15.91-9.6,0-10.74,12.5-10.74,12.5s-1.13-12.5-10.73-12.5c-12.14,0-14.66,10.33-13.56,15.91,1.65,8.28,9.33,15.33,16.67,22.71S147.8,156,147.8,156Z"
            />
            <path class="cls-3" d="M147.81,235.83s-.29,3.09-7.63,10.47-15,14.43-16.67,22.72c-1.09,5.57,1.42,15.9,13.56,15.9,9.61,0,10.74-12.49,10.74-12.49s1.13,12.49,10.73,12.49c12.15,0,14.66-10.33,13.56-15.9-1.64-8.28-9.33-15.33-16.67-22.72S147.81,235.83,147.81,235.83Z"
            />
            <path class="cls-3" d="M60.33,235.83s-.28,3.09-7.62,10.47S37.69,260.73,36,269c-1.1,5.57,1.41,15.9,13.56,15.9,9.6,0,10.73-12.49,10.73-12.49s1.14,12.49,10.74,12.49c12.14,0,14.66-10.33,13.56-15.9C83,260.74,75.3,253.69,68,246.3S60.33,235.83,60.33,235.83Z"
            />
            <path class="cls-3" d="M147.81,167.8s-.29,1.95-7.63,9.33-15,14.44-16.67,22.72c-1.09,5.57,1.42,15.91,13.56,15.91,9.61,0,10.74-12.5,10.74-12.5s1.13,12.5,10.73,12.5c12.15,0,14.66-10.34,13.56-15.91-1.64-8.28-9.33-15.33-16.67-22.72S147.81,167.8,147.81,167.8Z"
            />
            <path class="cls-3" d="M60.33,167.8s-.28,1.95-7.62,9.33-15,14.44-16.67,22.72c-1.1,5.57,1.41,15.91,13.56,15.91,9.6,0,10.73-12.5,10.73-12.5s1.14,12.5,10.74,12.5c12.14,0,14.66-10.34,13.56-15.91C83,191.57,75.3,184.52,68,177.13S60.33,167.8,60.33,167.8Z"
            />
            <path class="cls-3" d="M103.89,120s.28-2,7.62-9.36,15-14.44,16.67-22.72c1.1-5.57-1.41-15.91-13.56-15.91-9.6,0-10.73,12.5-10.73,12.5S102.75,72,93.15,72C81,72,78.49,82.34,79.59,87.91c1.65,8.28,9.33,15.33,16.67,22.72S103.89,120,103.89,120Z"
            />
            <path class="cls-3" d="M104,203.83s-.29,2-7.63,9.36-15,14.43-16.67,22.72c-1.09,5.57,1.42,15.9,13.56,15.9,9.61,0,10.74-12.49,10.74-12.49s1.13,12.49,10.74,12.49c12.14,0,14.66-10.33,13.56-15.9-1.65-8.28-9.33-15.33-16.68-22.72S104,203.83,104,203.83Z"
            />
            <path class="cls-3" d="M24.82,38c-2.95,0-7.89-1.76-7.89-13.52C16.93,12.32,22.45,11,24.82,11c.8,0,7.87.37,7.87,13.25C32.69,37.64,25.62,38,24.82,38Zm0-23.91c-3,0-4.79,3.88-4.79,10.39,0,3.89.62,10.4,4.79,10.4,0,0,4.78-.12,4.78-10.65C29.6,16.26,26.59,14.12,24.82,14.12Z"
            />
            <rect class="cls-3" x="11.24" y="11.2" width="3.1" height="26.63" />
            <path class="cls-3" d="M188.81,38.06c-2.94,0-7.88-1.76-7.88-13.51,0-12.2,5.52-13.52,7.88-13.52.81,0,7.88.38,7.88,13.26C196.69,37.67,189.62,38.06,188.81,38.06Zm0-23.91c-3,0-4.78,3.89-4.78,10.4,0,3.88.62,10.39,4.78,10.39.05,0,4.79-.12,4.79-10.65C193.6,16.29,190.59,14.15,188.81,14.15Z"
            />
            <rect class="cls-3" x="175.24" y="11.23" width="3.1" height="26.63" />
            <path class="cls-3" d="M183.12,287.91c2.94,0,7.88,1.76,7.88,13.52,0,12.19-5.51,13.51-7.88,13.51-.81,0-7.88-.37-7.88-13.25C175.24,288.3,182.32,287.91,183.12,287.91Zm0,23.91c3,0,4.78-3.88,4.78-10.39,0-3.89-.62-10.4-4.78-10.4-.05,0-4.78.12-4.78,10.65C178.34,309.69,181.34,311.82,183.12,311.82Z"
            />
            <rect class="cls-3" x="193.59" y="288.11" width="3.1" height="26.63" />
            <path class="cls-3" d="M19.12,283c2.95,0,7.88,1.76,7.88,13.52,0,12.2-5.51,13.51-7.88,13.51-.81,0-7.88-.37-7.88-13.25C11.24,283.36,18.32,283,19.12,283Zm0,23.91c3,0,4.79-3.88,4.79-10.39,0-3.88-.62-10.4-4.79-10.4,0,0-4.78.12-4.78,10.66C14.34,304.75,17.35,306.88,19.12,306.88Z"
            />
            <rect class="cls-3" x="29.59" y="283.17" width="3.1" height="26.63" />
            <path class="cls-3" d="M22,64a8.43,8.43,0,0,1,2.49-5.12c2.39-2.46,4.9-4.81,5.43-7.58A4.32,4.32,0,0,0,25.5,46c-3.13,0-3.5,4.17-3.5,4.17S21.63,46,18.5,46a4.32,4.32,0,0,0-4.42,5.3c.53,2.77,3,5.12,5.43,7.58A8.45,8.45,0,0,1,22,64Z"
            />
            <path class="cls-3" d="M186,64a8.45,8.45,0,0,1,2.48-5.12c2.4-2.46,4.91-4.81,5.44-7.58A4.32,4.32,0,0,0,189.5,46c-3.13,0-3.5,4.17-3.5,4.17S185.63,46,182.5,46a4.32,4.32,0,0,0-4.42,5.3c.53,2.77,3,5.12,5.43,7.58A8.45,8.45,0,0,1,186,64Z"
            />
            <path class="cls-3" d="M186,262a8.43,8.43,0,0,1-2.49,5.12c-2.39,2.46-4.9,4.81-5.43,7.58a4.32,4.32,0,0,0,4.42,5.3c3.13,0,3.5-4.17,3.5-4.17s.37,4.17,3.5,4.17a4.32,4.32,0,0,0,4.42-5.3c-.53-2.77-3-5.12-5.43-7.58A8.45,8.45,0,0,1,186,262Z"
            />
            <path class="cls-3" d="M22,262a8.43,8.43,0,0,1-2.49,5.12c-2.39,2.46-4.9,4.81-5.43,7.58A4.32,4.32,0,0,0,18.5,280c3.13,0,3.5-4.17,3.5-4.17s.37,4.17,3.5,4.17a4.32,4.32,0,0,0,4.42-5.3c-.53-2.77-3-5.12-5.43-7.58A8.45,8.45,0,0,1,22,262Z"
            />
        </g>
    </g>
</svg>
