<svg xmlns="http://www.w3.org/2000/svg" viewBox="0 0 208 326">
    <defs>
        <style>
            .cls-1 {
                fill: #fff;
            }

            .cls-2 {
                fill: #6f7072;
            }

            .cls-3 {
                fill: #f8261b;
            }
        </style>
    </defs>
    <title>TH-us-2c</title>
    <g id="Calque_2" data-name="Calque 2">
        <g id="FR_-_EN" data-name="FR - EN">
            <path class="cls-1" d="M14.83,325A13.84,13.84,0,0,1,1,311.18V14.82A13.84,13.84,0,0,1,14.83,1H193.17A13.84,13.84,0,0,1,207,14.82V311.18A13.84,13.84,0,0,1,193.17,325Z"
            />
            <path class="cls-2" d="M193.17,2A12.84,12.84,0,0,1,206,14.82V311.18A12.84,12.84,0,0,1,193.17,324H14.83A12.84,12.84,0,0,1,2,311.18V14.82A12.84,12.84,0,0,1,14.83,2H193.17m0-2H14.83A14.83,14.83,0,0,0,0,14.82V311.18A14.82,14.82,0,0,0,14.83,326H193.17A14.83,14.83,0,0,0,208,311.18V14.82A14.83,14.83,0,0,0,193.17,0Z"
            />
            <path class="cls-3" d="M21.42,69.57C24.76,66.77,31.86,56,30.16,51a4.59,4.59,0,0,0-8.74-.47c-1.59-3.57-6.21-4.1-8.25-.65C10,54.79,17.71,65.92,20.8,69"
            />
            <path class="cls-3" d="M186.85,69.57C190.2,66.77,197.3,56,195.6,51c-1.45-4.41-6.85-4.61-8.75-.47-1.58-3.57-6.2-4.1-8.24-.65-3.17,4.89,4.54,16,7.62,19.14"
            />
            <path class="cls-3" d="M21.43,254.64c-3.35,2.8-10.45,13.61-8.75,18.56,1.46,4.41,6.85,4.61,8.75.46,1.58,3.58,6.2,4.11,8.24.66,3.18-4.9-4.54-16-7.62-19.14"
            />
            <path class="cls-3" d="M186.87,254.64c-3.35,2.8-10.45,13.61-8.75,18.56,1.46,4.41,6.85,4.61,8.75.46,1.58,3.58,6.2,4.11,8.24.66,3.17-4.9-4.54-16-7.62-19.14"
            />
            <path class="cls-3" d="M28.29,14.67l.06.37V36l-.06.42-.05.15,0,.38L28,37.5a4,4,0,0,1-2.21,2,3.72,3.72,0,0,1-4.47-2l-.14-.33L21,36.4l0-.37V15l0-.43.2-.71A3.64,3.64,0,0,1,23,11.84a3.72,3.72,0,0,1,5.22,2.29m3.48.63a7.06,7.06,0,0,0-14.11,0V36.3l.05.48.18.92.29.86.18.43.47.81.56.77A7,7,0,0,0,31.68,36.3Z"
            />
            <rect class="cls-3" x="10.98" y="8.4" width="3.15" height="34.27" />
            <path class="cls-3" d="M193.73,14.67l.05.37V36l-.05.42,0,.15,0,.38-.23.52a4,4,0,0,1-2.21,2,3.72,3.72,0,0,1-4.47-2l-.15-.33-.19-.77,0-.37V15l0-.43.19-.71a3.71,3.71,0,0,1,7.06.23m3.47.63a7.06,7.06,0,0,0-14.1,0V36.3l.05.48.18.92.29.86.18.43.47.81.56.77a7,7,0,0,0,12.37-4.27Z"
            />
            <rect class="cls-3" x="176.42" y="8.4" width="3.15" height="34.27" />
            <path class="cls-3" d="M179.8,309.66l-.05-.37v-21l.05-.43.06-.15,0-.38.24-.52a3.88,3.88,0,0,1,2.21-2,3.72,3.72,0,0,1,4.47,2l.14.33.19.77.05.38v21l-.05.43-.19.72a3.69,3.69,0,0,1-1.83,2.05,3.73,3.73,0,0,1-5.23-2.29m-3.47-.63a7.06,7.06,0,0,0,14.11,0V288l-.05-.48-.19-.92-.28-.86-.19-.42-.47-.82-.56-.77A7,7,0,0,0,176.42,288Z"
            />
            <rect class="cls-3" x="193.97" y="281.67" width="3.15" height="34.27" />
            <path class="cls-3" d="M14.36,309.66l0-.37v-21l0-.43.06-.15,0-.38.23-.52a3.91,3.91,0,0,1,2.21-2,3.72,3.72,0,0,1,4.47,2l.14.33.2.77,0,.38v21l0,.43-.2.72a3.65,3.65,0,0,1-1.83,2.05,3.72,3.72,0,0,1-5.22-2.29M11,309.57a7.06,7.06,0,0,0,14.11,0V288l-.05-.48-.18-.92-.29-.86-.18-.42-.47-.82-.57-.77A7,7,0,0,0,11,288Z"
            />
            <rect class="cls-3" x="28.53" y="281.67" width="3.15" height="34.27" />
            <path class="cls-3" d="M67.5,67.79c2.73-2.13,4-4.48,6-7.29a58.87,58.87,0,0,0,6.91-12.69A17.17,17.17,0,0,0,81.73,37.2c-2.37-7.27-11.14-7.6-14.23-.77-2.57-5.89-10.09-6.77-13.4-1.07-1.92,2.94-1.23,8,0,11.16A59.41,59.41,0,0,0,59.6,57.74c1.94,2.64,4.41,7,6.89,9.17"
            />
            <path class="cls-3" d="M140.3,67.79c2.73-2.13,4-4.48,6-7.29a58.87,58.87,0,0,0,6.91-12.69,17.17,17.17,0,0,0,1.28-10.61c-2.37-7.27-11.14-7.6-14.23-.77-2.57-5.89-10.09-6.77-13.4-1.07-1.92,2.94-1.23,8,0,11.16a59.41,59.41,0,0,0,5.54,11.22c1.94,2.64,4.41,7,6.89,9.17"
            />
            <path class="cls-3" d="M67.5,144.45c2.73-2.14,4-4.49,6-7.3a58.79,58.79,0,0,0,6.91-12.68,17.2,17.2,0,0,0,1.28-10.62c-2.37-7.26-11.14-7.6-14.23-.76-2.57-5.9-10.09-6.77-13.4-1.08-1.92,2.94-1.23,8,0,11.16a58.82,58.82,0,0,0,5.54,11.22c1.94,2.65,4.41,7,6.89,9.17"
            />
            <path class="cls-3" d="M103.9,106.11c2.73-2.13,4-4.49,6-7.29a59.1,59.1,0,0,0,6.91-12.69,17.19,17.19,0,0,0,1.28-10.62c-2.37-7.26-11.14-7.6-14.23-.76-2.57-5.89-10.09-6.77-13.4-1.08-1.92,3-1.23,8,0,11.16A59.2,59.2,0,0,0,96,96.06c1.94,2.64,4.41,7,6.89,9.17"
            />
            <path class="cls-3" d="M103.9,215.91c-2.72,2.13-4,4.49-6,7.29A58.48,58.48,0,0,0,91,235.89a17.17,17.17,0,0,0-1.28,10.61c2.37,7.27,11.14,7.6,14.23.77,2.57,5.89,10.09,6.77,13.4,1.08,1.92-2.95,1.24-8,0-11.16A59.84,59.84,0,0,0,111.8,226c-1.94-2.64-4.41-7-6.89-9.17"
            />
            <path class="cls-3" d="M140.3,144.45c2.73-2.14,4-4.49,6-7.3a58.79,58.79,0,0,0,6.91-12.68,17.2,17.2,0,0,0,1.28-10.62c-2.37-7.26-11.14-7.6-14.23-.76-2.57-5.9-10.09-6.77-13.4-1.08-1.92,2.94-1.23,8,0,11.16a58.82,58.82,0,0,0,5.54,11.22c1.94,2.65,4.41,7,6.89,9.17"
            />
            <path class="cls-3" d="M140.3,183.78c-2.72,2.14-4,4.49-6,7.3a58.4,58.4,0,0,0-6.92,12.68,17.21,17.21,0,0,0-1.28,10.62c2.37,7.26,11.14,7.6,14.23.77,2.57,5.89,10.09,6.76,13.4,1.07,1.92-2.94,1.24-8,.05-11.16a59.75,59.75,0,0,0-5.55-11.22c-1.94-2.65-4.41-7-6.89-9.17"
            />
            <path class="cls-3" d="M67.5,183.78c-2.72,2.14-4,4.49-6,7.3a58.4,58.4,0,0,0-6.92,12.68,17.21,17.21,0,0,0-1.28,10.62c2.37,7.26,11.14,7.6,14.23.77,2.57,5.89,10.09,6.76,13.4,1.07,1.92-2.94,1.23-8,0-11.16a59.75,59.75,0,0,0-5.55-11.22c-1.94-2.65-4.41-7-6.89-9.17"
            />
            <path class="cls-3" d="M140.3,257.1c-2.72,2.13-4,4.49-6,7.29a58.71,58.71,0,0,0-6.92,12.69,17.19,17.19,0,0,0-1.28,10.62c2.37,7.26,11.14,7.6,14.23.76,2.57,5.89,10.09,6.77,13.4,1.08,1.92-2.94,1.24-8,.05-11.16a59.84,59.84,0,0,0-5.55-11.23c-1.94-2.64-4.41-7-6.89-9.17"
            />
            <path class="cls-3" d="M67.5,257.1c-2.72,2.13-4,4.49-6,7.29a58.71,58.71,0,0,0-6.92,12.69,17.19,17.19,0,0,0-1.28,10.62c2.37,7.26,11.14,7.6,14.23.76,2.57,5.89,10.09,6.77,13.4,1.08,1.92-2.94,1.23-8,0-11.16a59.84,59.84,0,0,0-5.55-11.23c-1.94-2.64-4.41-7-6.89-9.17"
            />
        </g>
    </g>
</svg>
