<svg xmlns="http://www.w3.org/2000/svg" viewBox="0 0 208 326">
    <defs>
        <style>
            .cls-1 {
                fill: #fff;
            }

            .cls-2 {
                fill: #6f7072;
            }
        </style>
    </defs>
    <title>TS-fr-2c</title>
    <g id="Calque_2" data-name="Calque 2">
        <g id="FR_-_EN" data-name="FR - EN">
            <path class="cls-1" d="M14.83,325A13.84,13.84,0,0,1,1,311.18V14.82A13.84,13.84,0,0,1,14.83,1H193.17A13.84,13.84,0,0,1,207,14.82V311.18A13.84,13.84,0,0,1,193.17,325Z"
            />
            <path class="cls-2" d="M193.17,2A12.84,12.84,0,0,1,206,14.82V311.18A12.84,12.84,0,0,1,193.17,324H14.83A12.84,12.84,0,0,1,2,311.18V14.82A12.84,12.84,0,0,1,14.83,2H193.17m0-2H14.83A14.83,14.83,0,0,0,0,14.82V311.18A14.82,14.82,0,0,0,14.83,326H193.17A14.83,14.83,0,0,0,208,311.18V14.82A14.83,14.83,0,0,0,193.17,0Z"
            />
            <path d="M78.12,61.57c-2.13-4.09-9.28-10-13.53-13.41s-4.18-6.27-4.91-6.27-.48,2.83-4.74,6.27S44.85,56.33,42.73,60.42,40.39,71.15,47.41,74.6c4.51,2.21,8.31-.64,10.7-3.4.38,7.52-9.62,17.46-9.62,17.46a36.85,36.85,0,0,1,20.08-.24s-8.88-11.8-7.65-17.94c2.47,3.16,6.77,7.19,11.29,5C79.23,72,80.25,65.66,78.12,61.57Z"
            />
            <path d="M165.59,61.57c-2.13-4.09-9.28-10-13.53-13.41s-4.17-6.27-4.91-6.27-.47,2.83-4.73,6.27-10.1,8.17-12.22,12.26-2.34,10.73,4.68,14.18c4.51,2.21,8.31-.64,10.7-3.4C146,78.72,136,88.66,136,88.66A36.82,36.82,0,0,1,156,88.42s-8.88-11.8-7.65-17.94c2.48,3.16,6.77,7.19,11.3,5C166.7,72,167.72,65.66,165.59,61.57Z"
            />
            <path d="M78.12,128.58c-2.13-4.09-9.28-10-13.53-13.42s-4.18-6.26-4.91-6.26-.48,2.82-4.74,6.26-10.09,8.17-12.21,12.26-2.34,10.74,4.68,14.18c4.51,2.22,8.31-.64,10.7-3.4.38,7.53-9.62,17.46-9.62,17.46a36.85,36.85,0,0,1,20.08-.24s-8.88-11.79-7.65-17.93c2.47,3.15,6.77,7.18,11.29,5C79.23,139,80.25,132.66,78.12,128.58Z"
            />
            <path d="M165.59,128.58c-2.13-4.09-9.28-10-13.53-13.42s-4.17-6.26-4.91-6.26-.47,2.82-4.73,6.26-10.1,8.17-12.22,12.26-2.34,10.74,4.68,14.18c4.51,2.22,8.31-.64,10.7-3.4.38,7.53-9.61,17.46-9.61,17.46a36.82,36.82,0,0,1,20.07-.24s-8.88-11.79-7.65-17.93c2.48,3.15,6.77,7.18,11.3,5C166.7,139,167.72,132.66,165.59,128.58Z"
            />
            <path d="M129.88,196.31c2.13,4.09,9.28,10,13.53,13.42s4.18,6.26,4.91,6.26.48-2.82,4.74-6.26,10.09-8.18,12.21-12.26,2.34-10.74-4.68-14.18c-4.51-2.22-8.31.64-10.7,3.4-.38-7.53,9.61-17.46,9.61-17.46a36.76,36.76,0,0,1-20.07.23s8.88,11.8,7.65,17.94c-2.47-3.15-6.77-7.18-11.29-5C128.77,185.87,127.75,192.22,129.88,196.31Z"
            />
            <path d="M42.41,196.31c2.13,4.09,9.28,10,13.53,13.42S60.11,216,60.85,216s.47-2.82,4.73-6.26,10.09-8.18,12.22-12.26,2.34-10.74-4.68-14.18c-4.52-2.22-8.32.64-10.71,3.4C62,179.16,72,169.23,72,169.23a36.8,36.8,0,0,1-20.08.23s8.89,11.8,7.66,17.94c-2.48-3.15-6.77-7.18-11.3-5C41.29,185.87,40.28,192.22,42.41,196.31Z"
            />
            <path d="M129.88,263.45c2.13,4.09,9.28,10,13.53,13.41s4.18,6.27,4.91,6.27.48-2.82,4.74-6.27,10.09-8.17,12.21-12.25,2.34-10.74-4.68-14.18c-4.51-2.22-8.31.63-10.7,3.4-.38-7.53,9.61-17.46,9.61-17.46a36.76,36.76,0,0,1-20.07.23s8.88,11.8,7.65,17.94c-2.47-3.15-6.77-7.19-11.29-5C128.77,253,127.75,259.36,129.88,263.45Z"
            />
            <path d="M42.41,263.45c2.13,4.09,9.28,10,13.53,13.41s4.17,6.27,4.91,6.27.47-2.82,4.73-6.27,10.09-8.17,12.22-12.25,2.34-10.74-4.68-14.18c-4.52-2.22-8.32.63-10.71,3.4C62,246.3,72,236.37,72,236.37A36.8,36.8,0,0,1,52,236.6s8.89,11.8,7.66,17.94c-2.48-3.15-6.77-7.19-11.3-5C41.29,253,40.28,259.36,42.41,263.45Z"
            />
            <path d="M85.51,233.11c2.13,4.09,9.28,10,13.53,13.42s4.18,6.27,4.91,6.27.48-2.83,4.73-6.27,10.1-8.17,12.22-12.26,2.34-10.73-4.68-14.18c-4.51-2.22-8.31.64-10.7,3.4-.38-7.52,9.61-17.46,9.61-17.46a36.82,36.82,0,0,1-20.07.24s8.88,11.8,7.65,17.94c-2.47-3.16-6.77-7.19-11.29-5C84.39,222.67,83.38,229,85.51,233.11Z"
            />
            <path d="M121.85,91.65c-2.13-4.09-9.27-10-13.52-13.42S104.15,72,103.42,72s-.48,2.82-4.74,6.26S88.59,86.41,86.46,90.49s-2.34,10.74,4.68,14.18c4.52,2.22,8.32-.64,10.71-3.4.38,7.53-9.62,17.46-9.62,17.46a36.86,36.86,0,0,1,20.08-.24s-8.89-11.79-7.66-17.93c2.48,3.15,6.77,7.19,11.3,5C123,102.09,124,95.74,121.85,91.65Z"
            />
            <path d="M29.58,54.25c-.9-1.75-3.93-4.27-5.74-5.74s-1.77-2.68-2.09-2.68-.2,1.21-2,2.68-4.28,3.5-5.18,5.24a4.27,4.27,0,0,0,2,6.07c1.92,1,3.53-.27,4.54-1.45.17,3.21-4.07,7.46-4.07,7.46a15.47,15.47,0,0,1,8.52-.1s-3.77-5.05-3.25-7.67c1,1.35,2.87,3.07,4.79,2.12C30.05,58.71,30.48,56,29.58,54.25Z"
            />
            <path d="M193.58,54.25c-.9-1.75-3.93-4.27-5.74-5.74s-1.77-2.68-2.09-2.68-.2,1.21-2,2.68-4.28,3.5-5.19,5.24a4.28,4.28,0,0,0,2,6.07c1.91,1,3.53-.27,4.54-1.45.17,3.21-4.07,7.46-4.07,7.46a15.48,15.48,0,0,1,8.52-.1s-3.77-5.05-3.25-7.67c1.05,1.35,2.87,3.07,4.79,2.12C194.05,58.71,194.48,56,193.58,54.25Z"
            />
            <path d="M178.42,271.29c.9,1.75,3.93,4.27,5.74,5.74s1.77,2.68,2.09,2.68.2-1.21,2-2.68,4.28-3.5,5.18-5.24a4.27,4.27,0,0,0-2-6.07c-1.92-.94-3.53.28-4.55,1.46-.16-3.22,4.08-7.47,4.08-7.47a15.47,15.47,0,0,1-8.52.1s3.77,5.05,3.25,7.67c-1.05-1.34-2.87-3.07-4.79-2.12C178,266.83,177.52,269.55,178.42,271.29Z"
            />
            <path d="M14.42,271.29c.9,1.75,3.93,4.27,5.74,5.74s1.77,2.68,2.09,2.68.2-1.21,2-2.68,4.28-3.5,5.18-5.24a4.27,4.27,0,0,0-2-6.07c-1.92-.94-3.53.28-4.54,1.46C22.75,264,27,259.71,27,259.71a15.47,15.47,0,0,1-8.52.1s3.77,5.05,3.25,7.67c-1-1.34-2.87-3.07-4.79-2.12C14,266.83,13.52,269.55,14.42,271.29Z"
            />
            <path d="M24.83,38c-2.95,0-7.89-1.76-7.89-13.51,0-12.2,5.52-13.52,7.89-13.52.8,0,7.87.38,7.87,13.26C32.7,37.61,25.63,38,24.83,38Zm0-23.91c-3,0-4.79,3.89-4.79,10.4,0,3.88.62,10.39,4.79,10.39,0,0,4.78-.12,4.78-10.65C29.61,16.23,26.6,14.09,24.83,14.09Z"
            />
            <rect x="11.25" y="11.17" width="3.1" height="26.63" />
            <path d="M188.82,38c-2.94,0-7.88-1.76-7.88-13.52,0-12.19,5.52-13.51,7.88-13.51.81,0,7.88.37,7.88,13.25C196.7,37.65,189.63,38,188.82,38Zm0-23.91c-3,0-4.78,3.88-4.78,10.39,0,3.89.62,10.4,4.78,10.4.05,0,4.79-.12,4.79-10.65C193.61,16.26,190.6,14.13,188.82,14.13Z"
            />
            <rect x="175.25" y="11.21" width="3.1" height="26.63" />
            <path d="M183.13,287.89c2.94,0,7.88,1.75,7.88,13.51,0,12.2-5.51,13.51-7.88,13.51-.81,0-7.88-.37-7.88-13.25C175.25,288.28,182.33,287.89,183.13,287.89Zm0,23.91c3,0,4.78-3.89,4.78-10.4,0-3.88-.62-10.4-4.78-10.4,0,0-4.78.13-4.78,10.66C178.35,309.66,181.35,311.8,183.13,311.8Z"
            />
            <rect x="193.6" y="288.08" width="3.1" height="26.63" />
            <path d="M19.13,283c2.95,0,7.88,1.76,7.88,13.51C27,308.66,21.5,310,19.13,310c-.81,0-7.88-.38-7.88-13.26C11.25,283.34,18.33,283,19.13,283Zm0,23.91c3,0,4.79-3.89,4.79-10.4,0-3.88-.62-10.39-4.79-10.39,0,0-4.78.12-4.78,10.65C14.35,304.72,17.36,306.86,19.13,306.86Z"
            />
            <rect x="29.6" y="283.15" width="3.1" height="26.63" />
        </g>
    </g>
</svg>
