<svg xmlns="http://www.w3.org/2000/svg" viewBox="0 0 208 326">
    <defs>
        <style>
            .cls-1 {
                fill: #fff;
            }

            .cls-2 {
                fill: #6f7072;
            }

            .cls-3 {
                fill: #1d1d1b;
            }

            .cls-4 {
                fill: #1c1c1c;
            }
        </style>
    </defs>
    <title>TS-us-2c</title>
    <g id="Calque_2" data-name="Calque 2">
        <g id="FR_-_EN" data-name="FR - EN">
            <path class="cls-1" d="M14.83,325A13.84,13.84,0,0,1,1,311.18V14.82A13.84,13.84,0,0,1,14.83,1H193.17A13.84,13.84,0,0,1,207,14.82V311.18A13.84,13.84,0,0,1,193.17,325Z"
            />
            <path class="cls-2" d="M193.17,2A12.84,12.84,0,0,1,206,14.82V311.18A12.84,12.84,0,0,1,193.17,324H14.83A12.84,12.84,0,0,1,2,311.18V14.82A12.84,12.84,0,0,1,14.83,2H193.17m0-2H14.83A14.83,14.83,0,0,0,0,14.82V311.18A14.83,14.83,0,0,0,14.83,326H193.17A14.83,14.83,0,0,0,208,311.18V14.82A14.83,14.83,0,0,0,193.17,0Z"
            />
            <path class="cls-3" d="M21.28,74.47l1.27,0,1.22.07,1.25.12.4.07a23.66,23.66,0,0,1-3-6.28l-.07-.34,0-.47,0-.15,0,0,.09,0,.08.1A3.75,3.75,0,0,0,26.39,70C37.21,67.91,25,52.87,21.28,49.59,17.94,53,8.65,63.17,13,68.57a4.57,4.57,0,0,0,4.82,1.21l.73-.33.33-.24.28-.24.24-.26.19-.27.3-.52.19-.38.07-.1.1,0,0,0,0,.15,0,.47-.08.34a23.21,23.21,0,0,1-3,6.28l.4-.07,1.25-.12L20,74.42"
            />
            <path class="cls-3" d="M186.72,74.47l1.27,0,1.22.07,1.25.12.4.07a23.36,23.36,0,0,1-3-6.28l-.07-.34,0-.47,0-.15,0,0,.09,0,.07.1A3.77,3.77,0,0,0,191.83,70c10.82-2.11-1.37-17.15-5.11-20.43-3.34,3.39-12.63,13.58-8.3,19a4.57,4.57,0,0,0,4.82,1.21l.73-.33.33-.24.28-.24.24-.26.19-.27.3-.52.19-.38.07-.1.1,0v0l0,.15,0,.47-.07.34a23.21,23.21,0,0,1-3,6.28l.4-.07,1.25-.12,1.22-.07"
            />
            <path class="cls-3" d="M186.77,251.5l-1.27.05-1.22-.07-1.25-.12-.39-.07a23.88,23.88,0,0,1,3,6.29l.07.33,0,.48,0,.14,0,0-.09,0-.07-.1a3.76,3.76,0,0,0-3.88-2.48c-10.82,2.11,1.36,17.15,5.1,20.43,3.35-3.39,12.64-13.57,8.31-19a4.58,4.58,0,0,0-4.83-1.21l-.73.33-.32.24-.29.24-.23.26-.19.27-.31.52-.19.38-.06.1-.1,0,0,0,0-.14,0-.48.07-.33a23.43,23.43,0,0,1,3-6.29l-.39.07-1.25.12-1.22.07"
            />
            <path class="cls-3" d="M21.33,251.5l-1.27.05-1.22-.07-1.24-.12-.4-.07a23.57,23.57,0,0,1,3,6.29l.07.33,0,.48,0,.14,0,0-.09,0-.07-.1A3.76,3.76,0,0,0,16.23,256c-10.82,2.11,1.36,17.15,5.1,20.43,3.35-3.39,12.64-13.57,8.31-19a4.58,4.58,0,0,0-4.83-1.21l-.73.33-.32.24-.28.24-.24.26-.19.27-.31.52-.18.38-.07.1-.1,0,0,0,0-.14,0-.48.07-.33a23.73,23.73,0,0,1,3-6.29l-.39.07-1.25.12-1.22.07"
            />
            <path class="cls-4" d="M28.27,14.6l.05.37V36l-.05.43-.05.14,0,.39-.23.52a3.91,3.91,0,0,1-2.21,2,3.72,3.72,0,0,1-4.47-2l-.14-.34-.2-.77,0-.37V15l0-.42.2-.72A3.64,3.64,0,0,1,23,11.77a3.73,3.73,0,0,1,5.22,2.3m3.48.63a7.06,7.06,0,0,0-14.11,0V36.24l.05.48.18.91.29.87.18.42.47.81.56.77a7,7,0,0,0,12.38-4.26Z"
            />
            <rect class="cls-4" x="10.96" y="8.34" width="3.15" height="34.26" />
            <path class="cls-4" d="M193.71,14.6l0,.37V36l0,.43-.05.14,0,.39-.24.52a3.86,3.86,0,0,1-2.2,2,3.72,3.72,0,0,1-4.47-2l-.15-.34-.19-.77,0-.37V15l0-.42.19-.72a3.68,3.68,0,0,1,1.83-2.06,3.74,3.74,0,0,1,5.23,2.3m3.47.63a7.06,7.06,0,0,0-14.11,0V36.24l.05.48.19.91.29.87.18.42.47.81.56.77a7,7,0,0,0,12.37-4.26Z"
            />
            <rect class="cls-4" x="176.4" y="8.34" width="3.15" height="34.26" />
            <path class="cls-4" d="M179.78,309.6l-.05-.37v-21l.05-.43.05-.14,0-.39.24-.51a3.86,3.86,0,0,1,2.21-2,3.71,3.71,0,0,1,4.46,2l.15.33.19.77,0,.37v21l0,.42-.19.72a3.68,3.68,0,0,1-1.83,2.06,3.73,3.73,0,0,1-5.23-2.3m-3.47-.62a7.06,7.06,0,0,0,14.11,0V288l0-.48-.19-.91-.28-.87-.19-.42-.47-.81-.56-.77A7,7,0,0,0,176.4,288Z"
            />
            <rect class="cls-4" x="193.94" y="281.6" width="3.15" height="34.27" />
            <path class="cls-4" d="M14.34,309.6l-.05-.37v-21l.05-.43.06-.14,0-.39.24-.51a3.89,3.89,0,0,1,2.21-2,3.72,3.72,0,0,1,4.47,2l.14.33.2.77,0,.37v21l0,.42-.2.72a3.68,3.68,0,0,1-1.83,2.06,3.73,3.73,0,0,1-5.23-2.3M11,309.51a7.06,7.06,0,0,0,14.11,0V288l-.05-.48-.18-.91-.29-.87-.18-.42-.48-.81-.56-.77A7,7,0,0,0,11,288Z"
            />
            <rect class="cls-4" x="28.51" y="281.6" width="3.15" height="34.27" />
            <path class="cls-3" d="M67.49,69.38l2-.09,1.94.12,2,.19.64.12a38,38,0,0,1-4.83-10.09l-.11-.53,0-.77,0-.23,0,0,.14,0,.12.16c1.2,2.84,3.17,4,6.17,4,5-.41,7.38-4.11,6.79-9.08C81.49,44.8,73,35.29,67.49,29.46c-5.32,5.45-20.11,21.78-13.22,30.45a7.28,7.28,0,0,0,7.68,2l1.16-.53.52-.39.45-.38.37-.42.31-.43.48-.84.31-.61.1-.16.16,0,0,0,0,.23,0,.77-.12.53A37.35,37.35,0,0,1,60.9,69.72l.63-.12,2-.19,1.94-.12"
            />
            <path class="cls-3" d="M140.29,69.38l2-.09,1.95.12,2,.19.64.12a38,38,0,0,1-4.83-10.09l-.11-.53,0-.77,0-.23,0,0,.14,0,.12.16c1.2,2.84,3.17,4,6.18,4,5-.41,7.37-4.11,6.78-9.08-.91-8.36-9.38-17.87-14.91-23.7-5.32,5.45-20.11,21.78-13.22,30.45a7.28,7.28,0,0,0,7.68,2l1.16-.53.52-.39.45-.38.37-.42.31-.43.48-.84.31-.61.1-.16.16,0,0,0,0,.23,0,.77-.12.53a37.35,37.35,0,0,1-4.82,10.09l.63-.12,2-.19,1.94-.12"
            />
            <path class="cls-3" d="M140.29,146l2-.08,1.94.11,2,.2.63.11a38.19,38.19,0,0,1-4.82-10.08l-.12-.53,0-.77,0-.23,0,0,.14,0,.12.16c1.2,2.83,3.17,4,6.17,4,5-.42,7.38-4.12,6.78-9.09-.91-8.36-9.38-17.86-14.9-23.69-5.32,5.44-20.11,21.77-13.22,30.44a7.24,7.24,0,0,0,7.68,1.95l1.16-.53.52-.38.45-.38.37-.43.31-.43.48-.84.31-.6.1-.16.16,0,0,0,0,.23,0,.77-.12.53a37.44,37.44,0,0,1-4.82,10.08l.63-.11,2-.2,1.94-.11"
            />
            <path class="cls-3" d="M103.89,107.69l2-.08,1.94.12,2,.19.63.12A38.4,38.4,0,0,1,105.65,98l-.12-.53,0-.77,0-.23,0,0,.14,0,.12.16c1.2,2.83,3.17,4,6.17,4,5-.41,7.38-4.12,6.78-9.08-.91-8.37-9.38-17.87-14.9-23.7-5.32,5.44-20.11,21.78-13.22,30.45a7.28,7.28,0,0,0,7.68,2l1.16-.54.52-.38.45-.38.37-.43.31-.43.48-.84.31-.6.1-.16.16,0,0,0,0,.23,0,.77-.12.53A37.5,37.5,0,0,1,97.3,108l.63-.12,2-.19,1.94-.12"
            />
            <path class="cls-3" d="M103.87,216.19l-2,.08-1.95-.12-2-.19-.64-.12a38.12,38.12,0,0,1,4.83,10.09l.11.53,0,.77,0,.23,0,0-.14,0-.12-.16c-1.2-2.83-3.17-4-6.18-4-5,.41-7.37,4.12-6.78,9.08.91,8.37,9.38,17.87,14.91,23.7,5.32-5.44,20.11-21.78,13.22-30.45a7.28,7.28,0,0,0-7.68-2l-1.16.54-.52.38-.45.38-.38.43-.3.43-.49.84-.3.6-.1.16-.16,0,0,0,0-.23,0-.77.12-.53a37.5,37.5,0,0,1,4.82-10.09l-.63.12-2,.19-1.94.12"
            />
            <path class="cls-3" d="M67.49,146l2-.08,1.94.11,2,.2.63.11a38.19,38.19,0,0,1-4.82-10.08l-.12-.53,0-.77,0-.23,0,0,.15,0,.11.16c1.21,2.83,3.18,4,6.18,4,5-.42,7.38-4.12,6.78-9.09-.91-8.36-9.38-17.86-14.9-23.69-5.32,5.44-20.11,21.77-13.22,30.44A7.24,7.24,0,0,0,62,138.51l1.16-.53.52-.38.45-.38.37-.43.31-.43.48-.84.31-.6.1-.16.16,0,0,0,0,.23,0,.77-.12.53a37.44,37.44,0,0,1-4.82,10.08l.63-.11,2-.2,1.94-.11"
            />
            <path class="cls-3" d="M67.47,182.07l-2,.09-2-.12-2-.19-.64-.12a38.06,38.06,0,0,1,4.83,10.08l.11.54,0,.76,0,.24,0,0-.14,0-.12-.16c-1.2-2.84-3.17-4-6.18-4-5,.41-7.37,4.11-6.78,9.08.91,8.36,9.38,17.87,14.91,23.69,5.32-5.44,20.11-21.77,13.21-30.44A7.26,7.26,0,0,0,73,189.59l-1.17.53-.52.38-.44.39-.38.42-.3.43-.49.84-.3.61-.1.16-.16,0,0,0,0-.24,0-.76.11-.54a37.76,37.76,0,0,1,4.83-10.08l-.63.12-2,.19-2,.12"
            />
            <path class="cls-3" d="M140.27,182.07l-2,.09-1.94-.12-2-.19-.64-.12a38.06,38.06,0,0,1,4.83,10.08l.11.54,0,.76,0,.24,0,0-.14,0-.12-.16c-1.2-2.84-3.17-4-6.17-4-5,.41-7.38,4.11-6.79,9.08.91,8.36,9.38,17.87,14.91,23.69,5.32-5.44,20.11-21.77,13.22-30.44a7.28,7.28,0,0,0-7.68-1.95l-1.16.53-.52.38-.45.39-.38.42-.3.43-.49.84-.3.61-.1.16-.16,0,0,0,0-.24,0-.76.12-.54a37.44,37.44,0,0,1,4.82-10.08l-.63.12-2,.19-1.94.12"
            />
            <path class="cls-3" d="M140.27,255.39l-2,.08-1.95-.12-2-.19-.64-.12a38.12,38.12,0,0,1,4.83,10.09l.11.53,0,.77,0,.23,0,0-.14,0-.12-.16c-1.2-2.83-3.17-4-6.17-4-5,.41-7.38,4.12-6.79,9.09.91,8.36,9.38,17.86,14.91,23.69,5.32-5.44,20.11-21.77,13.22-30.45a7.25,7.25,0,0,0-7.68-1.94l-1.16.53-.52.38-.45.38-.37.43-.31.43-.49.84-.3.6-.1.16-.16,0,0,0,0-.23,0-.77.12-.53A37.5,37.5,0,0,1,146.86,255l-.63.12-2,.19-1.94.12"
            />
            <path class="cls-3" d="M67.47,255.39l-2,.08-2-.12-2-.19-.64-.12a38.12,38.12,0,0,1,4.83,10.09l.11.53,0,.77,0,.23,0,0-.14,0-.12-.16c-1.2-2.83-3.17-4-6.18-4-5,.41-7.37,4.12-6.78,9.09.91,8.36,9.38,17.86,14.91,23.69,5.32-5.44,20.11-21.77,13.22-30.45A7.26,7.26,0,0,0,73,262.91l-1.16.53-.52.38-.45.38-.38.43-.3.43-.49.84-.3.6-.1.16-.16,0,0,0,0-.23,0-.77.12-.53A37.5,37.5,0,0,1,74.06,255l-.63.12-2,.19-1.94.12"
            />
        </g>
    </g>
</svg>
