<svg viewBox="0 0 32 32">
  <g fill="none" fill-rule="evenodd">
    <path
      fill="#98C301"
      fill-rule="nonzero"
      d="M16 0H5.8C2.6 0 0 2.6 0 5.8V16h16V0z"
    ></path>
    <path
      fill="#9B59B6"
      fill-rule="nonzero"
      d="M0 16v10.2C0 29.4 2.6 32 5.8 32H16V16H0z"
    ></path>
    <path
      fill="#F39C13"
      fill-rule="nonzero"
      d="M32 16V5.8C32 2.6 29.4 0 26.2 0H16v16h16z"
    ></path>
    <path
      fill="#5E8B99"
      fill-rule="nonzero"
      d="M16 32h10.2c3.2 0 5.8-2.6 5.8-5.8V16H16v16z"
    ></path>
    <path
      fill="#FFF"
      d="M3.7 24.2c2.6-2.4 4.1-4.7 4.1-4.7s1.5 2.3 4.1 4.7c-2.6 2.4-4.1 4.7-4.1 4.7s-1.5-2.3-4.1-4.7zM11.2 7.3S9.5 5.9 7.9 3.6C6.2 5.8 4.5 7.2 4.5 7.2c-.4.4-.7 1-.7 1.5 0 1 .7 1.8 1.7 2 .8.1 1.5-.1 1.9-.7-.2 1.5-.9 2.1-.9 2.1l.2.2s.6-.3 1.1-.3c.5 0 1.1.3 1.1.3l.2-.2s-.7-.7-.9-2.2c.5.5 1.2.8 1.9.7 1-.2 1.7-1 1.7-1.9 0-.5-.2-1-.6-1.4zM24 12.3c2-2.6 4-4.2 4-4.2.5-.4.8-1.1.7-1.8 0-1.1-.8-2.1-2-2.3-1.1-.2-2.3.4-2.7 1.5-.4-1.1-1.5-1.7-2.7-1.5-1.1.2-2 1.1-2 2.3 0 .7.3 1.3.7 1.8.1-.1 2.1 1.6 4 4.2z"
    ></path>
    <path
      fill="#FFF"
      d="M16.5 0v15.5H32v1H16.5V32h-1V16.499L0 16.5v-1l15.5-.001V0h1z"
    ></path>
    <path
      fill="#FFF"
      d="M26.8 22.9c-1 0-1.8.7-2 1.6h-.2v-1.2c.9-.2 1.6-1 1.6-1.9 0-1.1-.9-2-2-2s-2 .9-2 2c0 1 .7 1.8 1.6 1.9v1.2h-.2c-.2-.9-1-1.6-2-1.6-1.1 0-2 .9-2 2s.9 2 2 2c1 0 1.8-.7 2-1.6h.2v.3c0 2.3-1.2 2.7-1.2 2.7l.2.2s.7-.3 1.4-.3c.6 0 1.4.3 1.4.3l.2-.2s-1.2-.4-1.2-2.7v-.3h.2c.2.9 1 1.7 2 1.7 1.1 0 2-.9 2-2 0-1.2-.9-2.1-2-2.1z"
    ></path>
  </g>
</svg>
