<svg xmlns="http://www.w3.org/2000/svg" viewBox="0 0 208 326"><defs><style>.cls-1{fill:#202020;}.cls-2{fill:#fff;}.cls-3,.cls-5{opacity:0.25;}.cls-4,.cls-5{fill:#f0efef;}</style></defs><title>black-back</title><g id="Calque_2" data-name="Calque 2"><g id="CARTES"><path class="cls-1" d="M13.59,324A11.71,11.71,0,0,1,2,312.2V13.81A11.72,11.72,0,0,1,13.59,2H194.41A11.72,11.72,0,0,1,206,13.81V312.2A11.71,11.71,0,0,1,194.41,324Z"/><path class="cls-2" d="M194.41,4A9.71,9.71,0,0,1,204,13.81V312.2a9.71,9.71,0,0,1-9.59,9.8H13.59A9.71,9.71,0,0,1,4,312.2V13.81A9.71,9.71,0,0,1,13.59,4H194.41m0-4H13.59A13.71,13.71,0,0,0,0,13.81V312.2A13.7,13.7,0,0,0,13.59,326H194.41A13.69,13.69,0,0,0,208,312.2V13.81A13.7,13.7,0,0,0,194.41,0Z"/><path class="cls-1" d="M13.59,317.65a5.41,5.41,0,0,1-5.35-5.45V13.81a5.41,5.41,0,0,1,5.35-5.46H194.41a5.41,5.41,0,0,1,5.35,5.46V312.2a5.41,5.41,0,0,1-5.35,5.45Z"/><path class="cls-2" d="M194.41,10.35a3.41,3.41,0,0,1,3.35,3.46V312.2a3.4,3.4,0,0,1-3.35,3.45H13.59a3.4,3.4,0,0,1-3.35-3.45V13.81a3.41,3.41,0,0,1,3.35-3.46H194.41m0-4H13.59a7.42,7.42,0,0,0-7.35,7.46V312.2a7.41,7.41,0,0,0,7.35,7.45H194.41a7.41,7.41,0,0,0,7.35-7.45V13.81a7.42,7.42,0,0,0-7.35-7.46Z"/><g class="cls-3"><path class="cls-4" d="M101.8,235.86c-1.46,1.84-6.85,3.82-12.21,3.32-4-.37-7-3.85-8.07-4.86s-3.28-1.7-4.59-.5-1.28,3.21.35,4.74A16.16,16.16,0,0,0,88,242.14C94.68,242,99.86,238.81,101.8,235.86Z"/><path class="cls-4" d="M102.16,237.34C99.07,243.06,84.3,251.27,79.57,251c-3.23-.18-4.69-2.4-4.23-5.22.36-2.21,3-3.37,5.72-2.9C88.43,244.15,96.41,242.69,102.16,237.34Z"/><path class="cls-4" d="M102.45,238.69c-1.45,2.4-6.08,5.66-9.62,7.76-1.1.65-2.6,2.05-1.57,3.32s2.52.36,3.33-.37C97.92,246.45,101.37,241.77,102.45,238.69Z"/><path class="cls-4" d="M102.82,239.61c-2.48,6.77-12.16,15.21-19.88,18.48a3.35,3.35,0,0,0-1.61,5.18c1.09,1.55,3.29,1.41,5,.42C92.35,260.31,101.19,246.94,102.82,239.61Z"/><path class="cls-4" d="M88.23,265.14c-1.25,1.46-1,3.93.44,4.8,1.79,1.12,3.68.18,4.74-1.47,3.85-6,8.26-18,10-28.24C100.76,249.4,92.61,260,88.23,265.14Z"/><path class="cls-4" d="M103.67,240.41c-1.64,10.34-7.08,26-7.36,30.11-.12,1.81.72,3.46,2.73,3.68a3.09,3.09,0,0,0,3.3-2.8C103.19,263.77,103.48,251.78,103.67,240.41Z"/><path class="cls-4" d="M106,236c1.45,1.85,6.84,3.82,12.19,3.32,4-.37,7-3.84,8.08-4.86s3.27-1.7,4.59-.5,1.29,3.21-.35,4.75c-1.81,1.71-5.93,3.67-10.72,3.57C113.06,242.13,107.88,238.93,106,236Z"/><path class="cls-4" d="M105.58,237.46c3.09,5.72,17.85,13.94,22.59,13.67,3.23-.18,4.69-2.4,4.23-5.22-.37-2.21-3.05-3.37-5.73-2.91C119.3,244.27,111.33,242.81,105.58,237.46Z"/><path class="cls-4" d="M105.28,238.81c1.45,2.4,6.08,5.66,9.62,7.76,1.1.65,2.6,2.05,1.57,3.33s-2.51.35-3.32-.37C109.82,246.57,106.37,241.89,105.28,238.81Z"/><path class="cls-4" d="M104.91,239.74c2.49,6.77,12.17,15.21,19.89,18.47a3.35,3.35,0,0,1,1.6,5.18c-1.09,1.56-3.28,1.41-5,.43C115.39,260.43,106.55,247.06,104.91,239.74Z"/><path class="cls-4" d="M119.5,265.27a3.37,3.37,0,0,1-.44,4.79c-1.78,1.12-3.67.18-4.74-1.47-3.84-6-8.26-17.95-9.95-28.24C107,249.53,115.12,260.14,119.5,265.27Z"/><path class="cls-4" d="M104.07,240.54c1.64,10.34,7.07,26,7.35,30.11.13,1.8-.72,3.45-2.72,3.68a3.11,3.11,0,0,1-3.31-2.81C104.55,263.9,104.26,251.9,104.07,240.54Z"/><path class="cls-4" d="M107.25,210.17c0,.14,0,.3,0,.45a4.08,4.08,0,0,1-.39,1.75,7.27,7.27,0,0,0-2.9-.6,7.38,7.38,0,0,0-3.09.68,4.08,4.08,0,0,1-.43-1.83c0-.12,0-.24,0-.36a9.22,9.22,0,0,1,6.77-.09Z"/><path class="cls-4" d="M112.43,202.61a19.74,19.74,0,0,0-8.51-1.93,19.54,19.54,0,0,0-8.6,2,9.63,9.63,0,0,0-2.29-.27l-.51,0a21.25,21.25,0,0,1,22.7-.07h-.41A10.47,10.47,0,0,0,112.43,202.61Z"/><path class="cls-4" d="M97.94,203.68a9.08,9.08,0,0,0-1.22-.58,18.76,18.76,0,0,1,14.32,0,11.14,11.14,0,0,0-1.2.59,17.91,17.91,0,0,0-5.92-1A17.68,17.68,0,0,0,97.94,203.68Z"/><path class="cls-4" d="M97.3,224.09c.64.09,1.28.73,1.33,2.79.09,2.78-2.4,7.61-7.32,7.61-6.2,0-12.47-8-12.47-14.35,0-9.42,4.92-17.26,13.21-17.26,6.49,0,10.4,4.1,10.4,7.29h.78c0-3.33-3.19-8-11.19-8-7.4,0-14.1,6.49-14.1,17.87s7.17,18.1,13.56,18.1c6.81,0,11.07-5.22,11.07-11.45,0-6.43-3.69-9.36-6.6-9.43a4.17,4.17,0,0,0-4.44,4.26c-.06,2.18,1.26,4.12,3.11,4.18C96.28,225.74,97.27,224.86,97.3,224.09Z"/><path class="cls-4" d="M83.38,230.36a3.87,3.87,0,0,0,4.3.56c1.36-.87.49-2.43,1.18-3.73.79-1.48,2.83-1.72,4.39-.83s1.83,3.58.91,5.12c-1.13,1.89-2.88,2.29-5.28,2.1A9.62,9.62,0,0,1,83.38,230.36Z"/><path class="cls-4" d="M80.55,225.62a2.27,2.27,0,0,0,2.44,1.2c1.3-.21,1-1.45,2.51-1.53a1.88,1.88,0,0,1,1.84,2.21c-.13,1.07-1.2,2-2.87,1.94A4.21,4.21,0,0,1,80.55,225.62Z"/><path class="cls-4" d="M79.84,223.93A1.8,1.8,0,0,1,81,221.37a1.11,1.11,0,0,0,.86-1.46,1.26,1.26,0,0,0-1.59-.83,2.07,2.07,0,0,0-1.41,1.82A4.35,4.35,0,0,0,79.84,223.93Z"/><path class="cls-4" d="M82.13,218.34a1.3,1.3,0,0,0,1.37,1.32c.82-.07,1-1,1-1.69a3,3,0,0,0-2.61-2.47c-1.75-.24-3.31,1.09-3,3.36a2.2,2.2,0,0,1,1.7-2A1.52,1.52,0,0,1,82.13,218.34Z"/><path class="cls-4" d="M85.14,214.63a1.8,1.8,0,0,0,2.27,1c.82-.43,1-1.42.42-2.59a4.44,4.44,0,0,0-4.51-2,5.14,5.14,0,0,0-4,4.42,3.49,3.49,0,0,1,3.39-2.36A2.64,2.64,0,0,1,85.14,214.63Z"/><path class="cls-4" d="M88.81,210.88a2.18,2.18,0,0,0,3.35,0c.74-.93.45-2.71-1.29-3.84a7,7,0,0,0-5.87-.32,9.78,9.78,0,0,0-4.81,5.21,6.3,6.3,0,0,1,5.56-2.68A3.75,3.75,0,0,1,88.81,210.88Z"/><path class="cls-4" d="M91.23,220c-.75,2.34-2.5,1.55-3.71,2.53a1.74,1.74,0,0,0-.37,2.4,1.76,1.76,0,0,0,2.54.23C90.87,224.17,91.44,221.64,91.23,220Z"/><path class="cls-4" d="M89.46,218.28a1.75,1.75,0,0,0,2.49-.17c1.68-1.78,5.25-1.61,7-.26-1.5-3-7.42-4.44-9.6-1.54A1.54,1.54,0,0,0,89.46,218.28Z"/><path class="cls-4" d="M102.64,223.05A8.19,8.19,0,0,0,100,218c-.76-.63-1.31-2.1-.29-2.87a2,2,0,0,1,2.61.44C104,217.22,103.39,221.47,102.64,223.05Z"/><path class="cls-4" d="M93,208.3c.53,2.78-.47,3-.93,3.85a1.07,1.07,0,0,0,.36,1.47c.56.34,1.31-.16,1.65-.94C94.55,211.56,93.89,209.84,93,208.3Z"/><path class="cls-4" d="M87.23,203.88c3.45-1.84,10.59-.95,12.49,3.42,1.14,2.6.55,4.4-1.09,5a3.28,3.28,0,0,1-4.11-2.66C93.91,206.28,91,203.05,87.23,203.88Z"/><path class="cls-4" d="M110.43,224.09c-.63.09-1.27.73-1.33,2.79-.08,2.78,2.41,7.61,7.32,7.61,6.21,0,12.47-8,12.47-14.35,0-9.42-4.91-17.26-13.21-17.26-6.49,0-10.4,4.1-10.4,7.29h-.77c0-3.33,3.18-8,11.19-8,7.39,0,14.1,6.49,14.1,17.87s-7.17,18.1-13.56,18.1c-6.83,0-11.07-5.22-11.07-11.45,0-6.43,3.69-9.36,6.59-9.43a4.17,4.17,0,0,1,4.45,4.26c.06,2.18-1.27,4.12-3.11,4.18C111.46,225.74,110.46,224.86,110.43,224.09Z"/><path class="cls-4" d="M124.35,230.36a3.85,3.85,0,0,1-4.29.56c-1.36-.87-.49-2.43-1.18-3.73-.79-1.48-2.84-1.72-4.39-.83s-1.83,3.58-.91,5.12c1.14,1.89,2.87,2.29,5.28,2.1A9.56,9.56,0,0,0,124.35,230.36Z"/><path class="cls-4" d="M127.19,225.62a2.27,2.27,0,0,1-2.44,1.2c-1.3-.21-1-1.45-2.52-1.53a1.89,1.89,0,0,0-1.84,2.21c.14,1.07,1.2,2,2.87,1.94A4.22,4.22,0,0,0,127.19,225.62Z"/><path class="cls-4" d="M127.89,223.93a1.79,1.79,0,0,0-1.13-2.56,1.11,1.11,0,0,1-.87-1.46,1.26,1.26,0,0,1,1.6-.83,2,2,0,0,1,1.4,1.82A4.26,4.26,0,0,1,127.89,223.93Z"/><path class="cls-4" d="M125.6,218.34a1.3,1.3,0,0,1-1.36,1.32c-.82-.07-1-1-1-1.69a3,3,0,0,1,2.61-2.47c1.76-.24,3.32,1.09,3,3.36a2.21,2.21,0,0,0-1.7-2A1.54,1.54,0,0,0,125.6,218.34Z"/><path class="cls-4" d="M122.6,214.63a1.81,1.81,0,0,1-2.27,1c-.82-.43-1-1.42-.42-2.59a4.44,4.44,0,0,1,4.5-2,5.15,5.15,0,0,1,4.06,4.42,3.49,3.49,0,0,0-3.39-2.36A2.63,2.63,0,0,0,122.6,214.63Z"/><path class="cls-4" d="M118.94,210.88a2.19,2.19,0,0,1-3.36,0c-.75-.93-.46-2.71,1.29-3.84a7,7,0,0,1,5.87-.32,9.82,9.82,0,0,1,4.81,5.21,6.3,6.3,0,0,0-5.56-2.68A3.7,3.7,0,0,0,118.94,210.88Z"/><path class="cls-4" d="M116.51,220c.74,2.34,2.5,1.55,3.7,2.53a1.72,1.72,0,0,1,.37,2.4,1.76,1.76,0,0,1-2.54.23C116.87,224.17,116.3,221.64,116.51,220Z"/><path class="cls-4" d="M118.27,218.28a1.73,1.73,0,0,1-2.48-.17c-1.68-1.78-5.25-1.61-7-.26,1.49-3,7.42-4.44,9.59-1.54A1.54,1.54,0,0,1,118.27,218.28Z"/><path class="cls-4" d="M105.09,223.05a8.19,8.19,0,0,1,2.63-5.1c.77-.63,1.32-2.1.3-2.87a2,2,0,0,0-2.61.44C103.78,217.22,104.35,221.47,105.09,223.05Z"/><path class="cls-4" d="M114.77,208.3c-.53,2.78.47,3,.92,3.85a1.07,1.07,0,0,1-.35,1.47c-.56.34-1.31-.16-1.65-.94C113.19,211.56,113.85,209.84,114.77,208.3Z"/><path class="cls-4" d="M120.51,203.88c-3.45-1.84-10.6-.95-12.5,3.42-1.13,2.6-.54,4.4,1.09,5a3.29,3.29,0,0,0,4.12-2.66C113.82,206.28,116.7,203.05,120.51,203.88Z"/><path class="cls-4" d="M119.45,200.2a11.79,11.79,0,0,1,4.93-.52c1.35.2,1.68.82,1.68.82a1.14,1.14,0,0,0-.18.58.51.51,0,0,0,.67.42.74.74,0,0,0,.52-.67,1.06,1.06,0,0,0-.46-.89s.41.21,1.11.54.65,1.65.65,1.65a.91.91,0,0,0-1.2-.11.89.89,0,0,0-.41,1.18c.24.42.83.74,1.67.21.37-.22,1.06-.94.49-2.66a4.05,4.05,0,0,1,1.26,1.83c.55,1.49.15,3.12-.86,3.69s-1.26-.14-1.43-.78a.77.77,0,0,0-1.11-.56,1.36,1.36,0,0,0-.51,1.95c.36.71,1.64,2.07,3.8.68,2.4-1.56,1.41-5.05,0-6.45a5.56,5.56,0,0,1,2.26,3.8,10.42,10.42,0,0,1-.31,3,1.11,1.11,0,1,0,2.13.58c1.08-2.73-1.46-6.33-3.68-7.66a6.92,6.92,0,0,1,4.18,3.13,9.18,9.18,0,0,1,1.12,3.8c.11,1,.76,2.11,1.71,1.89.73-.17,1.28-1,.92-2.53-.82-3.66-6.49-6.17-6.49-6.17s1.67.51,2.74.95a24,24,0,0,1,4.13,2.32c1.57,1.11,2.68,4.51,2.57,7s-2.15,3.54-2.61,3.23a1.58,1.58,0,0,0-.13-1.67,1.52,1.52,0,0,0-2.19-.26c-1.15.75-.8,2.28-.34,3.14a2.86,2.86,0,0,0,3.7,1.11,5.44,5.44,0,0,0,3-4.51c.38-2.4-1.45-5.83-2.2-6.9a12.08,12.08,0,0,1,2.2,2.85,11.28,11.28,0,0,1,1.28,4.94c0,2-1.19,3.91-1.85,5.12a2.27,2.27,0,0,0,.6,3.19c.93.52,2.24.13,3.29-1.65a8.23,8.23,0,0,0,.55-6.29,19,19,0,0,0-4.75-7.78,24.41,24.41,0,0,1,6.46,7.16,15.86,15.86,0,0,1,1.9,8.38c0,2.14-1.31,6.72-3.89,8.53s-4.73,1.1-5,.71a1.91,1.91,0,0,0,.06-1.79,1.8,1.8,0,0,0-2.54-.55,2.58,2.58,0,0,0-.71,3.8c.52.86,2.81,3,7.21.75s5.59-9,5.52-11.37a18.07,18.07,0,0,0-2.25-8.59,27.47,27.47,0,0,0-7.23-7.89c-2.27-1.63-8.6-4.12-8.6-4.12s1.34.07,2.63.07,7.08.76,8.1.86a1.83,1.83,0,0,0,2-1.57,1.51,1.51,0,0,0-1.93-1.57c-1.41.28-4.41,1.12-6.15,1.56a20.19,20.19,0,0,1-5.85.14c1.32-.21,7-.86,10.66-3.9a7.72,7.72,0,0,0,2.82-4.55c.14-1.21-.18-2-.77-2.33a.87.87,0,0,0-.94.16,9.34,9.34,0,0,0,.41-4.14c-.38-2.22-1.88-3.79-3.46-3.45a3.6,3.6,0,0,0-2.45,3.39c-.12,2,.65,5.48-1.07,8.66s-6.17,5.14-7.05,5.31a16.78,16.78,0,0,1-2.54.06c3.16-.77,7.7-3.85,7.58-9.06,0-1.59-1.15-2.81-2.17-2.76a2.13,2.13,0,0,0-1.86,2.41c0,1.81.67,2.69.14,4.63s-3.17,3.9-4.11,4.25a25,25,0,0,1-4.42.05c1.71-.24,4.72-2.32,5.4-4.3a2.88,2.88,0,0,0-1.87-3.86,2.63,2.63,0,0,0-2.84,2.28c-.14,1.13.48,2.33.29,3.32-.34,1.79-3.44,2.93-4.21,3.16a6.91,6.91,0,0,0,2-2.18,1.2,1.2,0,0,0-.69-1.75,1.49,1.49,0,0,0-1.71,1c-.15.48-.28,2.89-1.36,3.45a.35.35,0,0,0-.48,0,.3.3,0,0,1,.18.39c-.11.27-.83.34-.83.34l-.19.83A31.78,31.78,0,0,1,119.45,200.2Zm14.56,8a1.16,1.16,0,0,1-1.22,1,1,1,0,0,1-.57-1.06,10.75,10.75,0,0,0,.31-3.32,8.57,8.57,0,0,0-1.34-3.2C132.51,202.62,134.8,205.67,134,208.24Zm3.2-2.94a5.75,5.75,0,0,1,.94,2.23c0,.57.06,1.67-.71,1.85s-1.24-.82-1.34-1.36a11.63,11.63,0,0,0-1.14-4,7.83,7.83,0,0,0-1.53-2A12.22,12.22,0,0,1,137.21,205.3Zm9.14,8.41a9.09,9.09,0,0,1-.47,5.86c-.73,1.41-2,1.89-2.82,1.52s-1-1.56-.48-2.7c.41-.93,1.88-3.29,1.85-5.37a12.43,12.43,0,0,0-2-6.29A22.59,22.59,0,0,1,146.35,213.71Zm-2.73-14.88a1.26,1.26,0,0,1,1.61,1.32,1.52,1.52,0,0,1-1.66,1.28c-1.16-.16-7-.81-7-.81S142.06,199.2,143.62,198.83Zm-6.51-4.6c1.91-3.3,1-7.15,1.18-8.73.2-1.42.91-2.8,2-3,1.8-.35,3.25,2.16,3.12,4.6a12.87,12.87,0,0,1-5.15,9,23.77,23.77,0,0,1-7.74,3.39A13.08,13.08,0,0,0,137.11,194.23Zm-4,4.81a21,21,0,0,0,5.56-2.84,13.38,13.38,0,0,0,4.49-6.08.8.8,0,0,1,1.06-.27c.44.27.6.85.55,1.74a8.16,8.16,0,0,1-2.74,4.6,15.14,15.14,0,0,1-5.45,2.75,39.06,39.06,0,0,1-5.68,1.21l-1-.2S131.35,199.64,133.15,199Zm-2-4.09c.68-1.86.11-3.54,0-4.95-.06-.71.37-1.83,1.31-1.93,1.16-.13,1.84,1.34,1.87,2.37.18,5.43-5.13,8.49-7.21,8.66A9,9,0,0,0,131.19,195Zm-6.51-2.51a.89.89,0,0,1,1-.4.62.62,0,0,1,.26.84c-.27.44-.64.49-1,.88a1.5,1.5,0,0,0-.38,1.43A3,3,0,0,1,124.68,192.44Zm7.72-2.33a1.27,1.27,0,0,1,1.26,1.37c.22-.35.25-2.11-.75-2.54-.55-.24-1-.08-1.17.37A.67.67,0,0,0,132.4,190.11Zm9.59-.43a4.84,4.84,0,0,0,0-5.59c-.74-1-1.68-1.11-2.29-.46a1.16,1.16,0,0,0,.46,1.82,3.14,3.14,0,0,1,1.76,1.71A3.35,3.35,0,0,1,142,189.68Zm2.39,1.71a.71.71,0,0,0-.66-.76c-.4,0-.72.42-.69.9s.25.67.27,1.05a2.12,2.12,0,0,1-.79,1.86A3.67,3.67,0,0,0,144.38,191.39Zm-.75,8.66c.15.33-.08.33.08.66a.53.53,0,0,0,.74.22,1,1,0,0,0,.36-1.25c-.29-.54-.74-.71-1.61-.51a13.7,13.7,0,0,0-2.49.76C141.22,199.82,143.28,199.31,143.63,200.05ZM133,207.55c-.32.32-.52.7-.24.92a.65.65,0,0,0,1-.23c.72-1.17-.46-3.06-.46-3.06A2.39,2.39,0,0,1,133,207.55Zm3.87,1.38a.56.56,0,0,0,.88-.15c.62-1.08-.5-3-.5-3a2.35,2.35,0,0,1-.19,2.27C136.76,208.34,136.59,208.69,136.85,208.93Zm5.83,10.51a1.09,1.09,0,0,0,.66,1.38,1.06,1.06,0,0,0,1.4-.78c.25-.82-.51-1-.72-1.55a2.78,2.78,0,0,1,.33-2.37A8.68,8.68,0,0,0,142.68,219.44Zm3.52,8.7a14.27,14.27,0,0,0,1.24-15.41c1.51,5.18,0,9.07-1,10.43a12.64,12.64,0,0,1-3,2.68,2.11,2.11,0,0,0-.4,3.09C143.78,229.66,145,229.68,146.2,228.14Zm-2.93-1.54a18.13,18.13,0,0,1,2.61-2.26c-.53.71-1.51,1.57-1.13,2.76a1.13,1.13,0,0,1-.53,1.42.9.9,0,0,1-1.16-.35A1.54,1.54,0,0,1,143.27,226.6Z"/><path class="cls-4" d="M87.44,199.45a11.47,11.47,0,0,0-4.93-.52c-1.34.19-1.67.82-1.67.82a1.16,1.16,0,0,1,.17.57.5.5,0,0,1-.66.42.75.75,0,0,1-.52-.66,1,1,0,0,1,.45-.9l-1.11.55c-.7.33-.64,1.63-.64,1.63a.92.92,0,0,1,1.19-.1.88.88,0,0,1,.41,1.18c-.24.42-.82.74-1.67.22-.36-.23-1.06-.95-.48-2.66a3.91,3.91,0,0,0-1.26,1.81c-.55,1.5-.16,3.13.85,3.71s1.27-.15,1.44-.79a.76.76,0,0,1,1.1-.56,1.35,1.35,0,0,1,.5,2c-.35.7-1.63,2.06-3.78.67-2.4-1.56-1.42-5.05,0-6.44a5.55,5.55,0,0,0-2.27,3.8,10.37,10.37,0,0,0,.32,3,1.31,1.31,0,0,1-.8,1.49,1.29,1.29,0,0,1-1.34-.91c-1.08-2.73,1.47-6.33,3.69-7.65a6.85,6.85,0,0,0-4.18,3.12,9.22,9.22,0,0,0-1.13,3.8c-.1,1-.76,2.11-1.7,1.89-.74-.17-1.29-1-.93-2.53.82-3.66,6.49-6.16,6.49-6.16s-1.67.49-2.73.94a23.18,23.18,0,0,0-4.13,2.33c-1.58,1.1-2.68,4.5-2.58,7s2.15,3.54,2.62,3.22a1.57,1.57,0,0,1,.12-1.66,1.51,1.51,0,0,1,2.19-.25c1.16.75.81,2.28.34,3.13a2.85,2.85,0,0,1-3.7,1.1,5.41,5.41,0,0,1-3-4.49c-.38-2.41,1.46-5.85,2.2-6.91a11.89,11.89,0,0,0-2.19,2.85,11.16,11.16,0,0,0-1.29,4.94c0,2,1.19,3.92,1.85,5.12a2.27,2.27,0,0,1-.59,3.2c-.93.52-2.24.13-3.3-1.65a8.34,8.34,0,0,1-.55-6.3A19.12,19.12,0,0,1,65,205a24.39,24.39,0,0,0-6.47,7.15,16.13,16.13,0,0,0-1.9,8.39c0,2.15,1.32,6.73,3.89,8.53s4.73,1.1,5,.71a1.86,1.86,0,0,1-.06-1.79,1.8,1.8,0,0,1,2.53-.55,2.59,2.59,0,0,1,.72,3.8c-.53.86-2.82,3-7.22.75s-5.59-9-5.51-11.38A18,18,0,0,1,58.25,212a27.51,27.51,0,0,1,7.23-7.9c2.28-1.62,8.6-4.12,8.6-4.12s-1.33.06-2.63.07-7.08.77-8.09.86a1.84,1.84,0,0,1-2-1.57,1.51,1.51,0,0,1,1.93-1.57c1.42.28,4.41,1.12,6.16,1.56a20.48,20.48,0,0,0,5.84.14c-1.31-.21-7-.86-10.65-3.89a7.71,7.71,0,0,1-2.82-4.56c-.14-1.21.17-2,.77-2.33a.83.83,0,0,1,.93.16,9.33,9.33,0,0,1-.41-4.14c.38-2.22,1.88-3.79,3.47-3.45a3.6,3.6,0,0,1,2.45,3.39c.12,2-.66,5.48,1.07,8.66s6.16,5.14,7,5.3a16,16,0,0,0,2.55.07c-3.17-.77-7.71-3.84-7.59-9.05,0-1.6,1.15-2.82,2.18-2.77,1.34.06,1.86,1.3,1.85,2.42,0,1.8-.66,2.68-.14,4.62s3.18,3.91,4.12,4.26a27,27,0,0,0,4.42.05c-1.71-.25-4.72-2.33-5.41-4.31A2.89,2.89,0,0,1,81,190.08a2.62,2.62,0,0,1,2.84,2.28c.14,1.13-.48,2.33-.29,3.32.34,1.78,3.44,2.93,4.22,3.17a6.72,6.72,0,0,1-2-2.19,1.18,1.18,0,0,1,.68-1.74,1.48,1.48,0,0,1,1.72,1c.15.48.28,2.9,1.36,3.45a.32.32,0,0,1,.46,0,.29.29,0,0,0-.16.39c.1.26.82.35.82.35l.19.83A27.91,27.91,0,0,0,87.44,199.45Zm-14.56,8a1.17,1.17,0,0,0,1.23,1,1,1,0,0,0,.57-1.06,10.45,10.45,0,0,1-.31-3.33,8.3,8.3,0,0,1,1.33-3.18C74.39,201.86,72.1,204.92,72.88,207.48Zm-3.2-2.94a5.83,5.83,0,0,0-.94,2.24c0,.56-.06,1.67.72,1.84s1.24-.82,1.34-1.36a11.31,11.31,0,0,1,1.14-4,7.59,7.59,0,0,1,1.52-2A12.22,12.22,0,0,0,69.68,204.54ZM60.54,213a9,9,0,0,0,.48,5.85c.72,1.4,2,1.89,2.82,1.51s1-1.55.48-2.68c-.42-.94-1.89-3.3-1.86-5.38a12.46,12.46,0,0,1,2-6.29A22.73,22.73,0,0,0,60.54,213Zm2.74-14.89a1.25,1.25,0,0,0-1.61,1.32,1.51,1.51,0,0,0,1.65,1.28c1.16-.15,7-.8,7-.8S64.83,198.45,63.28,198.07Zm6.5-4.6c-1.9-3.3-1-7.15-1.18-8.73-.2-1.42-.9-2.8-2-3-1.79-.35-3.25,2.16-3.12,4.6a12.9,12.9,0,0,0,5.15,9,23.77,23.77,0,0,0,7.74,3.39A13.07,13.07,0,0,1,69.78,193.47Zm4,4.81a21.19,21.19,0,0,1-5.55-2.83,13.21,13.21,0,0,1-4.49-6.09.82.82,0,0,0-1.07-.27c-.44.28-.59.85-.56,1.74a8.23,8.23,0,0,0,2.76,4.61,15.15,15.15,0,0,0,5.44,2.74A39.46,39.46,0,0,0,76,199.39l1-.2A32,32,0,0,1,73.74,198.28Zm2-4.09c-.67-1.85-.1-3.55,0-5,0-.71-.37-1.83-1.31-1.92-1.16-.12-1.85,1.34-1.88,2.38-.17,5.43,5.13,8.47,7.21,8.65A9,9,0,0,1,75.7,194.19Zm6.52-2.51a.9.9,0,0,0-1-.4.63.63,0,0,0-.26.84c.28.44.65.49,1,.89a1.44,1.44,0,0,1,.38,1.43A3,3,0,0,0,82.22,191.68Zm-7.73-2.33a1.27,1.27,0,0,0-1.26,1.37c-.21-.34-.25-2.11.75-2.55.56-.23,1.06-.06,1.17.38A.66.66,0,0,1,74.49,189.35Zm-9.59-.43a4.85,4.85,0,0,1,0-5.59c.74-1,1.69-1.1,2.3-.45a1.16,1.16,0,0,1-.46,1.81A3.19,3.19,0,0,0,65,186.4,3.34,3.34,0,0,0,64.9,188.92Zm-2.39,1.72a.71.71,0,0,1,.66-.77c.41,0,.72.42.69.9s-.24.67-.27,1.06a2.08,2.08,0,0,0,.79,1.84A3.65,3.65,0,0,1,62.51,190.64Zm.76,8.65c-.16.33.08.33-.09.67a.54.54,0,0,1-.74.21,1,1,0,0,1-.36-1.24c.3-.55.74-.72,1.62-.52a13.7,13.7,0,0,1,2.49.76C65.68,199.06,63.62,198.55,63.27,199.29Zm10.65,7.5c.31.32.51.7.23.93a.67.67,0,0,1-1-.24c-.72-1.17.46-3,.46-3A2.38,2.38,0,0,0,73.92,206.79Zm-3.87,1.38a.56.56,0,0,1-.88-.15c-.63-1.09.49-3,.49-3a2.33,2.33,0,0,0,.2,2.27C70.13,207.58,70.3,207.93,70.05,208.17Zm-5.83,10.52a1.09,1.09,0,0,1-.67,1.37,1.06,1.06,0,0,1-1.4-.78c-.25-.81.51-1,.73-1.55a2.77,2.77,0,0,0-.34-2.36A8.72,8.72,0,0,1,64.22,218.69Zm-3.53,8.69A14.27,14.27,0,0,1,59.45,212c-1.5,5.18,0,9.07,1,10.43a12.49,12.49,0,0,0,3,2.68,2.11,2.11,0,0,1,.4,3.09C63.11,228.89,61.93,228.92,60.69,227.38Zm2.93-1.54a17.63,17.63,0,0,0-2.6-2.26c.53.71,1.5,1.57,1.12,2.76a1.13,1.13,0,0,0,.54,1.42.91.91,0,0,0,1.16-.35A1.54,1.54,0,0,0,63.62,225.84Z"/><path class="cls-4" d="M103.36,187.93a4,4,0,0,1-3,.82,3.54,3.54,0,0,1-2-1.2.88.88,0,0,0-1.12-.11.78.78,0,0,0,.09,1.16,4,4,0,0,0,2.62.87A4.24,4.24,0,0,0,103.36,187.93Z"/><path class="cls-4" d="M103.45,188.29c-.76,1.4-4.37,3.41-5.52,3.34a1,1,0,0,1-1-1.27c.08-.55.74-.82,1.39-.71A6,6,0,0,0,103.45,188.29Z"/><path class="cls-4" d="M103.52,188.63a8.11,8.11,0,0,1-2.35,1.89c-.27.16-.63.5-.38.81s.61.09.81-.09A7.51,7.51,0,0,0,103.52,188.63Z"/><path class="cls-4" d="M103.61,188.85c-.6,1.66-3,3.72-4.86,4.51a.82.82,0,0,0-.39,1.27.93.93,0,0,0,1.23.11C101.05,193.91,103.21,190.64,103.61,188.85Z"/><path class="cls-4" d="M100.05,195.09a.82.82,0,0,0,.1,1.17.84.84,0,0,0,1.16-.35,21.18,21.18,0,0,0,2.43-6.91A19.09,19.09,0,0,1,100.05,195.09Z"/><path class="cls-4" d="M103.82,189c-.4,2.53-1.73,6.35-1.8,7.36a.77.77,0,0,0,.67.9.75.75,0,0,0,.81-.68C103.7,194.76,103.77,191.83,103.82,189Z"/><path class="cls-4" d="M104.38,188a3.94,3.94,0,0,0,3,.81,3.45,3.45,0,0,0,2-1.19.87.87,0,0,1,1.12-.11.77.77,0,0,1-.08,1.16,4,4,0,0,1-2.62.87A4.26,4.26,0,0,1,104.38,188Z"/><path class="cls-4" d="M104.29,188.32c.75,1.4,4.36,3.41,5.52,3.35a1,1,0,0,0,1-1.28,1.13,1.13,0,0,0-1.4-.71A6,6,0,0,1,104.29,188.32Z"/><path class="cls-4" d="M104.21,188.66a8.17,8.17,0,0,0,2.36,1.89c.26.16.63.5.38.81s-.61.09-.82-.09A7.88,7.88,0,0,1,104.21,188.66Z"/><path class="cls-4" d="M104.12,188.88c.61,1.66,3,3.72,4.86,4.51a.82.82,0,0,1,.39,1.27.91.91,0,0,1-1.22.11C106.68,193.94,104.52,190.67,104.12,188.88Z"/><path class="cls-4" d="M107.69,195.12a.77.77,0,1,1-1.26.81A21.11,21.11,0,0,1,104,189,19.1,19.1,0,0,0,107.69,195.12Z"/><path class="cls-4" d="M103.91,189.08c.41,2.52,1.73,6.34,1.8,7.36a.74.74,0,1,1-1.47.21C104,194.79,104,191.86,103.91,189.08Z"/><path class="cls-4" d="M104.69,181.65a.49.49,0,0,1,0,.12.87.87,0,0,1-.1.42,1.87,1.87,0,0,0-.7-.15,1.76,1.76,0,0,0-.76.17.92.92,0,0,1-.1-.44v-.09a2.1,2.1,0,0,1,.86-.17A2.3,2.3,0,0,1,104.69,181.65Z"/><path class="cls-4" d="M106,179.8a4.79,4.79,0,0,0-4.18,0,2.1,2.1,0,0,0-.56-.07h-.13a5.16,5.16,0,0,1,5.55,0h-.1A3.68,3.68,0,0,0,106,179.8Z"/><path class="cls-4" d="M102.42,180.07a1.68,1.68,0,0,0-.3-.15,4.68,4.68,0,0,1,1.76-.35,4.77,4.77,0,0,1,1.74.34l-.29.15a4.37,4.37,0,0,0-1.45-.25A4.15,4.15,0,0,0,102.42,180.07Z"/><path class="cls-4" d="M102.26,185.06c.16,0,.31.17.33.68a1.89,1.89,0,0,1-1.79,1.86c-1.52,0-3-2-3-3.51,0-2.3,1.2-4.22,3.23-4.22,1.59,0,2.54,1,2.54,1.78h.19c0-.81-.78-2-2.73-2s-3.45,1.59-3.45,4.37,1.75,4.43,3.31,4.43a2.67,2.67,0,0,0,2.71-2.8c0-1.58-.9-2.29-1.61-2.31a1,1,0,0,0-1.09,1,.93.93,0,0,0,.76,1C102,185.46,102.26,185.24,102.26,185.06Z"/><path class="cls-4" d="M98.86,186.59a.93.93,0,0,0,1,.13c.33-.21.12-.59.29-.91a.78.78,0,0,1,1.08-.2,1,1,0,0,1,.22,1.25,1.23,1.23,0,0,1-1.3.52A2.43,2.43,0,0,1,98.86,186.59Z"/><path class="cls-4" d="M98.17,185.43a.56.56,0,0,0,.6.29c.31-.05.23-.35.61-.37a.46.46,0,0,1,.45.54.63.63,0,0,1-.71.48A1,1,0,0,1,98.17,185.43Z"/><path class="cls-4" d="M98,185a.44.44,0,0,1,.28-.62.26.26,0,0,0,.21-.35.31.31,0,0,0-.39-.21.51.51,0,0,0-.34.45A1.07,1.07,0,0,0,98,185Z"/><path class="cls-4" d="M98.55,183.65a.32.32,0,0,0,.34.32c.2,0,.24-.25.23-.41a.71.71,0,0,0-.64-.6.64.64,0,0,0-.72.82c.06-.28.23-.47.42-.48A.36.36,0,0,1,98.55,183.65Z"/><path class="cls-4" d="M99.29,182.75a.43.43,0,0,0,.55.23c.21-.09.26-.34.11-.63a1.1,1.1,0,0,0-1.1-.49,1.27,1.27,0,0,0-1,1.09.85.85,0,0,1,.82-.59A.66.66,0,0,1,99.29,182.75Z"/><path class="cls-4" d="M100.18,181.83a.55.55,0,0,0,.83,0,.69.69,0,0,0-.32-.94,1.71,1.71,0,0,0-1.43-.08,2.36,2.36,0,0,0-1.18,1.28,1.53,1.53,0,0,1,1.36-.66A.87.87,0,0,1,100.18,181.83Z"/><path class="cls-4" d="M100.78,184.06c-.18.58-.62.38-.91.62a.43.43,0,0,0-.09.59.43.43,0,0,0,.62,0A1.63,1.63,0,0,0,100.78,184.06Z"/><path class="cls-4" d="M100.35,183.63a.43.43,0,0,0,.61,0,1.4,1.4,0,0,1,1.7-.07c-.36-.74-1.81-1.08-2.34-.38A.37.37,0,0,0,100.35,183.63Z"/><path class="cls-4" d="M103.57,184.8a2,2,0,0,0-.64-1.24c-.19-.16-.33-.52-.08-.71a.5.5,0,0,1,.64.11A2.06,2.06,0,0,1,103.57,184.8Z"/><path class="cls-4" d="M101.21,181.2a.92.92,0,0,1-.23.94.25.25,0,0,0,.09.36c.14.08.32,0,.4-.24A1.34,1.34,0,0,0,101.21,181.2Z"/><path class="cls-4" d="M99.8,180.11c.84-.45,2.59-.23,3,.85.28.63.14,1.07-.26,1.21a.82.82,0,0,1-1-.65A1.57,1.57,0,0,0,99.8,180.11Z"/><path class="cls-4" d="M105.47,185.06c-.15,0-.31.17-.33.68a1.9,1.9,0,0,0,1.79,1.86c1.52,0,3-2,3-3.51,0-2.3-1.2-4.22-3.23-4.22-1.58,0-2.53,1-2.53,1.78H104c0-.81.77-2,2.73-2,1.81,0,3.45,1.59,3.45,4.37s-1.76,4.43-3.32,4.43a2.67,2.67,0,0,1-2.71-2.8c0-1.58.91-2.29,1.62-2.31a1,1,0,0,1,1.09,1,.93.93,0,0,1-.76,1C105.72,185.46,105.48,185.24,105.47,185.06Z"/><path class="cls-4" d="M108.87,186.59a.91.91,0,0,1-1,.13c-.34-.21-.13-.59-.3-.91a.76.76,0,0,0-1.07-.2,1,1,0,0,0-.22,1.25,1.22,1.22,0,0,0,1.29.52A2.39,2.39,0,0,0,108.87,186.59Z"/><path class="cls-4" d="M109.57,185.43a.56.56,0,0,1-.6.29c-.31-.05-.23-.35-.61-.37a.46.46,0,0,0-.45.54.62.62,0,0,0,.7.48A1,1,0,0,0,109.57,185.43Z"/><path class="cls-4" d="M109.74,185a.44.44,0,0,0-.28-.62.27.27,0,0,1-.21-.35.32.32,0,0,1,.39-.21.49.49,0,0,1,.34.45A1,1,0,0,1,109.74,185Z"/><path class="cls-4" d="M109.18,183.65a.32.32,0,0,1-.34.32c-.2,0-.24-.25-.22-.41a.71.71,0,0,1,.63-.6.65.65,0,0,1,.73.82c-.06-.28-.23-.47-.42-.48A.37.37,0,0,0,109.18,183.65Z"/><path class="cls-4" d="M108.44,182.75a.43.43,0,0,1-.55.23c-.2-.09-.25-.34-.1-.63a1.09,1.09,0,0,1,1.1-.49,1.27,1.27,0,0,1,1,1.09.87.87,0,0,0-.83-.59A.66.66,0,0,0,108.44,182.75Z"/><path class="cls-4" d="M107.55,181.83a.54.54,0,0,1-.82,0c-.18-.23-.12-.66.32-.94a1.71,1.71,0,0,1,1.43-.08,2.36,2.36,0,0,1,1.18,1.28,1.54,1.54,0,0,0-1.36-.66A.91.91,0,0,0,107.55,181.83Z"/><path class="cls-4" d="M107,184.06c.18.58.6.38.91.62a.43.43,0,0,1,.08.59.42.42,0,0,1-.61,0A1.63,1.63,0,0,1,107,184.06Z"/><path class="cls-4" d="M107.39,183.63a.42.42,0,0,1-.6,0,1.43,1.43,0,0,0-1.72-.07c.37-.74,1.82-1.08,2.35-.38A.38.38,0,0,1,107.39,183.63Z"/><path class="cls-4" d="M104.17,184.8a2,2,0,0,1,.64-1.24c.19-.16.32-.52.07-.71a.5.5,0,0,0-.64.11A2,2,0,0,0,104.17,184.8Z"/><path class="cls-4" d="M106.53,181.2a.92.92,0,0,0,.23.94.27.27,0,0,1-.09.36c-.14.08-.32,0-.4-.24A1.34,1.34,0,0,1,106.53,181.2Z"/><path class="cls-4" d="M107.94,180.11c-.84-.45-2.59-.23-3.06.85-.28.63-.13,1.07.26,1.21a.81.81,0,0,0,1-.65A1.59,1.59,0,0,1,107.94,180.11Z"/><path class="cls-4" d="M106,81.79c1.46-1.84,6.84-3.82,12.19-3.32,4,.37,7,3.85,8.08,4.87s3.27,1.69,4.59.49,1.28-3.2-.35-4.74a16.1,16.1,0,0,0-10.71-3.57C113.08,75.65,107.91,78.84,106,81.79Z"/><path class="cls-4" d="M105.6,80.32c3.09-5.73,17.86-13.94,22.59-13.67,3.23.18,4.69,2.4,4.23,5.22-.37,2.21-3,3.37-5.72,2.9C119.33,73.51,111.35,75,105.6,80.32Z"/><path class="cls-4" d="M105.3,79c1.45-2.4,6.09-5.66,9.63-7.76,1.09-.65,2.6-2,1.57-3.32s-2.52-.36-3.33.37C109.84,71.2,106.39,75.89,105.3,79Z"/><path class="cls-4" d="M104.94,78.05c2.49-6.78,12.16-15.22,19.88-18.49a3.34,3.34,0,0,0,1.6-5.18c-1.09-1.54-3.28-1.4-5-.42C115.41,57.34,106.57,70.71,104.94,78.05Z"/><path class="cls-4" d="M119.53,52.51c1.24-1.46.94-3.93-.44-4.79-1.79-1.12-3.69-.18-4.74,1.47-3.85,6-8.26,18-10,28.23C107,68.25,115.14,57.64,119.53,52.51Z"/><path class="cls-4" d="M104.09,77.24c1.64-10.35,7.07-26,7.35-30.11.13-1.8-.72-3.46-2.72-3.68a3.09,3.09,0,0,0-3.3,2.81C104.57,53.88,104.28,65.86,104.09,77.24Z"/><path class="cls-4" d="M101.81,81.68c-1.45-1.85-6.84-3.83-12.19-3.33-4,.37-7,3.85-8.08,4.86s-3.27,1.69-4.59.5S75.66,80.5,77.3,79c1.81-1.71,5.93-3.67,10.72-3.57C94.7,75.53,99.88,78.72,101.81,81.68Z"/><path class="cls-4" d="M102.18,80.19c-3.09-5.72-17.86-13.94-22.59-13.67-3.23.19-4.69,2.4-4.23,5.22.37,2.22,3,3.37,5.73,2.91C88.45,73.38,96.43,74.84,102.18,80.19Z"/><path class="cls-4" d="M102.48,78.84c-1.45-2.4-6.08-5.66-9.63-7.76-1.1-.65-2.6-2.06-1.57-3.33s2.52-.35,3.33.37C97.94,71.08,101.39,75.76,102.48,78.84Z"/><path class="cls-4" d="M102.84,77.92C100.36,71.14,90.68,62.71,83,59.44a3.34,3.34,0,0,1-1.6-5.18c1.09-1.55,3.28-1.4,5-.43C92.37,57.22,101.21,70.59,102.84,77.92Z"/><path class="cls-4" d="M88.25,52.39c-1.24-1.46-1-3.93.44-4.8,1.79-1.12,3.69-.18,4.74,1.47,3.85,6,8.26,18,10,28.24C100.78,68.12,92.64,57.52,88.25,52.39Z"/><path class="cls-4" d="M103.69,77.12c-1.63-10.34-7.07-26-7.36-30.11-.12-1.81.73-3.46,2.73-3.69a3.1,3.1,0,0,1,3.3,2.81C103.21,53.75,103.5,65.74,103.69,77.12Z"/><path class="cls-4" d="M100.51,107.48c0-.15,0-.3,0-.46a4,4,0,0,1,.39-1.73,7.42,7.42,0,0,0,6-.08,4,4,0,0,1,.44,1.81c0,.13,0,.25,0,.37a9.22,9.22,0,0,1-6.77.09Z"/><path class="cls-4" d="M95.33,115a19.7,19.7,0,0,0,17.11-.05,9.63,9.63,0,0,0,2.29.27l.51,0a21.2,21.2,0,0,1-22.7.07H93A10.4,10.4,0,0,0,95.33,115Z"/><path class="cls-4" d="M109.82,114a10.35,10.35,0,0,0,1.21.58,18.8,18.8,0,0,1-14.31,0,12.14,12.14,0,0,0,1.2-.59,17.91,17.91,0,0,0,5.92,1A17.68,17.68,0,0,0,109.82,114Z"/><path class="cls-4" d="M110.45,93.57c-.63-.09-1.27-.74-1.33-2.81-.08-2.77,2.41-7.6,7.32-7.6,6.21,0,12.48,8,12.48,14.35,0,9.42-4.92,17.26-13.21,17.26-6.5,0-10.4-4.09-10.4-7.28h-.78c0,3.32,3.19,8,11.19,8,7.4,0,14.1-6.48,14.1-17.87s-7.17-18.11-13.55-18.11c-6.83,0-11.08,5.23-11.08,11.47,0,6.43,3.69,9.36,6.59,9.42a4.17,4.17,0,0,0,4.45-4.26C116.29,94,115,92,113.12,92,111.48,91.91,110.48,92.79,110.45,93.57Z"/><path class="cls-4" d="M124.37,87.29a3.85,3.85,0,0,0-4.29-.55c-1.37.86-.5,2.42-1.18,3.72-.79,1.48-2.83,1.72-4.39.83s-1.83-3.58-.91-5.12c1.13-1.88,2.88-2.29,5.28-2.1A9.61,9.61,0,0,1,124.37,87.29Z"/><path class="cls-4" d="M127.21,92a2.28,2.28,0,0,0-2.44-1.2c-1.3.21-1,1.45-2.51,1.54a1.9,1.9,0,0,1-1.85-2.21c.14-1.08,1.21-2,2.87-2A4.23,4.23,0,0,1,127.21,92Z"/><path class="cls-4" d="M127.92,93.72a1.81,1.81,0,0,1-1.14,2.57,1.1,1.1,0,0,0-.86,1.45,1.24,1.24,0,0,0,1.59.83,2.09,2.09,0,0,0,1.41-1.82A4.37,4.37,0,0,0,127.92,93.72Z"/><path class="cls-4" d="M125.62,99.31A1.28,1.28,0,0,0,124.26,98c-.81.06-1,1-1,1.68a3,3,0,0,0,2.61,2.47c1.75.24,3.31-1.09,3-3.36a2.19,2.19,0,0,1-1.7,2A1.52,1.52,0,0,1,125.62,99.31Z"/><path class="cls-4" d="M122.62,103a1.79,1.79,0,0,0-2.27-1c-.82.42-1,1.41-.42,2.58a4.43,4.43,0,0,0,4.51,2,5.15,5.15,0,0,0,4.05-4.42,3.51,3.51,0,0,1-3.39,2.37A2.65,2.65,0,0,1,122.62,103Z"/><path class="cls-4" d="M119,106.77a2.19,2.19,0,0,0-3.36,0c-.74.93-.46,2.71,1.29,3.84a7.08,7.08,0,0,0,5.87.33,9.83,9.83,0,0,0,4.8-5.21,6.26,6.26,0,0,1-5.55,2.67A3.68,3.68,0,0,1,119,106.77Z"/><path class="cls-4" d="M116.53,97.62c.75-2.34,2.5-1.55,3.71-2.53a1.73,1.73,0,0,0,.37-2.39,1.77,1.77,0,0,0-2.54-.24C116.89,93.48,116.32,96,116.53,97.62Z"/><path class="cls-4" d="M118.29,99.37a1.74,1.74,0,0,0-2.48.17c-1.67,1.78-5.25,1.61-7,.26,1.5,3,7.42,4.44,9.6,1.54A1.53,1.53,0,0,0,118.29,99.37Z"/><path class="cls-4" d="M105.11,94.61a8.32,8.32,0,0,0,2.63,5.1c.77.62,1.32,2.1.3,2.86a2,2,0,0,1-2.61-.44C103.79,100.43,104.37,96.19,105.11,94.61Z"/><path class="cls-4" d="M114.79,109.34c-.53-2.78.47-3,.92-3.83a1.07,1.07,0,0,0-.35-1.48c-.56-.33-1.31.17-1.65,1C113.21,106.09,113.87,107.81,114.79,109.34Z"/><path class="cls-4" d="M120.53,113.77c-3.45,1.85-10.6,1-12.5-3.41-1.13-2.6-.54-4.41,1.09-5a3.3,3.3,0,0,1,4.12,2.66C113.84,111.37,116.72,114.61,120.53,113.77Z"/><path class="cls-4" d="M97.33,93.57c.63-.09,1.27-.74,1.33-2.81.08-2.77-2.41-7.6-7.33-7.6-6.2,0-12.47,8-12.47,14.35,0,9.42,4.92,17.26,13.22,17.26,6.49,0,10.39-4.09,10.39-7.28h.78c0,3.32-3.18,8-11.19,8C84.66,115.5,78,109,78,97.63s7.17-18.11,13.56-18.11c6.82,0,11.07,5.23,11.07,11.47,0,6.43-3.69,9.36-6.59,9.42a4.18,4.18,0,0,1-4.46-4.26C91.48,94,92.82,92,94.66,92,96.3,91.91,97.3,92.79,97.33,93.57Z"/><path class="cls-4" d="M83.41,87.29a3.85,3.85,0,0,1,4.29-.55c1.36.86.49,2.42,1.18,3.72.79,1.48,2.83,1.72,4.39.83s1.83-3.58.91-5.12c-1.14-1.88-2.88-2.29-5.28-2.1A9.61,9.61,0,0,0,83.41,87.29Z"/><path class="cls-4" d="M80.57,92A2.28,2.28,0,0,1,83,90.83c1.3.21,1,1.45,2.52,1.54a1.9,1.9,0,0,0,1.84-2.21c-.14-1.08-1.2-2-2.87-2A4.23,4.23,0,0,0,80.57,92Z"/><path class="cls-4" d="M79.86,93.72A1.81,1.81,0,0,0,81,96.29a1.09,1.09,0,0,1,.86,1.45,1.25,1.25,0,0,1-1.59.83,2.07,2.07,0,0,1-1.41-1.82A4.37,4.37,0,0,1,79.86,93.72Z"/><path class="cls-4" d="M82.15,99.31A1.3,1.3,0,0,1,83.52,98c.82.06,1,1,1,1.68a3,3,0,0,1-2.61,2.47c-1.75.24-3.32-1.09-3-3.36a2.19,2.19,0,0,0,1.7,2A1.51,1.51,0,0,0,82.15,99.31Z"/><path class="cls-4" d="M85.16,103a1.79,1.79,0,0,1,2.27-1c.82.42,1,1.41.42,2.58a4.44,4.44,0,0,1-4.51,2,5.15,5.15,0,0,1-4-4.42,3.51,3.51,0,0,0,3.39,2.37A2.65,2.65,0,0,0,85.16,103Z"/><path class="cls-4" d="M88.82,106.77a2.19,2.19,0,0,1,3.36,0c.74.93.46,2.71-1.29,3.84A7.08,7.08,0,0,1,85,111a9.85,9.85,0,0,1-4.81-5.21,6.29,6.29,0,0,0,5.56,2.67A3.69,3.69,0,0,0,88.82,106.77Z"/><path class="cls-4" d="M91.25,97.62c-.74-2.34-2.5-1.55-3.71-2.53a1.73,1.73,0,0,1-.37-2.39,1.78,1.78,0,0,1,2.55-.24C90.89,93.48,91.46,96,91.25,97.62Z"/><path class="cls-4" d="M89.48,99.37a1.75,1.75,0,0,1,2.49.17c1.67,1.78,5.25,1.61,7,.26-1.5,3-7.42,4.44-9.6,1.54A1.54,1.54,0,0,1,89.48,99.37Z"/><path class="cls-4" d="M102.67,94.61a8.27,8.27,0,0,1-2.63,5.1c-.77.62-1.32,2.1-.3,2.86a2,2,0,0,0,2.61-.44C104,100.43,103.41,96.19,102.67,94.61Z"/><path class="cls-4" d="M93,109.34c.53-2.78-.47-3-.93-3.83a1.08,1.08,0,0,1,.36-1.48c.56-.33,1.31.17,1.66,1C94.57,106.09,93.91,107.81,93,109.34Z"/><path class="cls-4" d="M87.25,113.77c3.45,1.85,10.6,1,12.5-3.41,1.13-2.6.54-4.41-1.09-5a3.3,3.3,0,0,0-4.12,2.66C93.93,111.37,91.06,114.61,87.25,113.77Z"/><path class="cls-4" d="M88.3,117.45a11.56,11.56,0,0,1-4.92.52c-1.35-.2-1.68-.81-1.68-.81a1.15,1.15,0,0,0,.17-.58.49.49,0,0,0-.66-.42.73.73,0,0,0-.52.66,1,1,0,0,0,.46.89s-.41-.21-1.11-.54-.65-1.64-.65-1.64a.94.94,0,0,0,1.2.11.91.91,0,0,0,.41-1.19c-.25-.42-.83-.74-1.67-.21-.37.22-1.06,1-.49,2.66a4,4,0,0,1-1.26-1.82c-.55-1.5-.16-3.12.86-3.7s1.26.15,1.43.78a.77.77,0,0,0,1.1.56,1.34,1.34,0,0,0,.51-2c-.35-.71-1.63-2.07-3.79-.68-2.4,1.56-1.42,5,0,6.45a5.59,5.59,0,0,1-2.27-3.8,10.76,10.76,0,0,1,.32-3,1.3,1.3,0,0,0-.79-1.48,1.28,1.28,0,0,0-1.34.89c-1.08,2.75,1.46,6.34,3.68,7.67a6.87,6.87,0,0,1-4.17-3.13,9.07,9.07,0,0,1-1.13-3.8c-.11-1-.76-2.11-1.71-1.89-.73.17-1.28,1-.93,2.53.82,3.66,6.49,6.17,6.49,6.17s-1.67-.5-2.72-1A23.7,23.7,0,0,1,69,113.39c-1.58-1.1-2.68-4.5-2.57-7s2.15-3.54,2.61-3.24a1.6,1.6,0,0,0,.12,1.67,1.52,1.52,0,0,0,2.19.26c1.16-.75.81-2.28.35-3.13A2.86,2.86,0,0,0,68,100.86a5.45,5.45,0,0,0-3,4.51c-.37,2.4,1.46,5.84,2.21,6.91A11.89,11.89,0,0,1,65,109.43a11.35,11.35,0,0,1-1.3-5,11.63,11.63,0,0,1,1.86-5.12,2.27,2.27,0,0,0-.6-3.19c-.93-.52-2.24-.13-3.29,1.65a8.27,8.27,0,0,0-.56,6.29,19,19,0,0,0,4.76,7.78,24.41,24.41,0,0,1-6.47-7.15,16,16,0,0,1-1.89-8.39c0-2.14,1.31-6.72,3.89-8.53s4.73-1.09,5-.7a1.87,1.87,0,0,0-.06,1.78,1.8,1.8,0,0,0,2.54.55,2.58,2.58,0,0,0,.71-3.79c-.53-.86-2.82-3-7.21-.76s-5.6,9-5.52,11.38a18.06,18.06,0,0,0,2.24,8.57,27.55,27.55,0,0,0,7.24,7.9c2.27,1.63,8.6,4.13,8.6,4.13s-1.34-.07-2.63-.08-7.08-.76-8.1-.86a1.84,1.84,0,0,0-2,1.57,1.51,1.51,0,0,0,1.93,1.57c1.42-.28,4.42-1.12,6.16-1.56a20.92,20.92,0,0,1,5.85-.14c-1.32.21-7,.86-10.66,3.9a7.72,7.72,0,0,0-2.82,4.55c-.14,1.21.18,2,.76,2.33a.9.9,0,0,0,.95-.15,9.31,9.31,0,0,0-.41,4.14c.37,2.21,1.88,3.78,3.46,3.45a3.65,3.65,0,0,0,2.46-3.4c.11-2-.66-5.48,1.06-8.66s6.16-5.14,7-5.3a16.92,16.92,0,0,1,2.55-.06c-3.16.76-7.7,3.84-7.58,9,0,1.61,1.14,2.82,2.17,2.77A2.11,2.11,0,0,0,77,127.58c0-1.81-.66-2.69-.13-4.63s3.17-3.9,4.11-4.25a26,26,0,0,1,4.42,0c-1.71.24-4.72,2.33-5.4,4.3a2.89,2.89,0,0,0,1.86,3.86,2.63,2.63,0,0,0,2.85-2.28c.14-1.13-.49-2.33-.3-3.32.35-1.79,3.44-2.93,4.22-3.16a7,7,0,0,0-2,2.18,1.2,1.2,0,0,0,.68,1.75,1.5,1.5,0,0,0,1.72-1c.15-.48.28-2.89,1.36-3.45a.33.33,0,0,0,.47,0,.3.3,0,0,1-.17-.38c.1-.28.82-.35.82-.35l.2-.83A29.38,29.38,0,0,1,88.3,117.45Zm-14.56-8a1.15,1.15,0,0,1,1.23-1c.39.09.61.62.57,1.06a10.65,10.65,0,0,0-.31,3.31,8.5,8.5,0,0,0,1.34,3.2C75.25,115,73,112,73.74,109.41Zm-3.19,2.94a5.65,5.65,0,0,1-.94-2.23c0-.57-.06-1.67.71-1.84s1.24.82,1.34,1.36a11.42,11.42,0,0,0,1.14,4,7.56,7.56,0,0,0,1.52,2A12.33,12.33,0,0,1,70.55,112.35Zm-9.14-8.41a9.1,9.1,0,0,1,.47-5.86c.73-1.4,2-1.89,2.82-1.51s1,1.55.48,2.69c-.41.93-1.88,3.29-1.86,5.38a12.66,12.66,0,0,0,2,6.28A22.54,22.54,0,0,1,61.41,103.94Zm2.73,14.88a1.25,1.25,0,0,1-1.61-1.32,1.53,1.53,0,0,1,1.65-1.28c1.16.16,7,.81,7,.81S65.7,118.45,64.14,118.82Zm6.51,4.6c-1.91,3.31-1,7.15-1.18,8.73-.2,1.42-.91,2.8-2,3-1.79.34-3.24-2.16-3.12-4.61a12.88,12.88,0,0,1,5.16-9,23.77,23.77,0,0,1,7.74-3.39A13,13,0,0,0,70.65,123.42Zm4-4.81a21,21,0,0,0-5.56,2.84,13.28,13.28,0,0,0-4.49,6.09.82.82,0,0,1-1.07.26c-.43-.27-.59-.84-.55-1.74a8.23,8.23,0,0,1,2.75-4.61,15.31,15.31,0,0,1,5.45-2.73,39.35,39.35,0,0,1,5.67-1.22l1,.2S76.41,118,74.61,118.61Zm2,4.1c-.67,1.85-.1,3.54,0,4.94.06.72-.37,1.84-1.31,1.94-1.16.12-1.85-1.35-1.88-2.38-.17-5.43,5.14-8.48,7.22-8.65A8.94,8.94,0,0,0,76.56,122.71Zm6.52,2.51a.91.91,0,0,1-1,.39.61.61,0,0,1-.25-.84c.27-.44.64-.49,1-.88a1.49,1.49,0,0,0,.38-1.42A3,3,0,0,1,83.08,125.22Zm-7.73,2.32a1.28,1.28,0,0,1-1.26-1.37c-.21.35-.24,2.11.76,2.55.55.23,1.05.07,1.16-.38A.66.66,0,0,0,75.35,127.54Zm-9.58.43a4.84,4.84,0,0,0,0,5.6c.73,1,1.68,1.1,2.29.45a1.17,1.17,0,0,0-.46-1.82,3.15,3.15,0,0,1-1.76-1.7A3.37,3.37,0,0,1,65.77,128Zm-2.4-1.71A.72.72,0,0,0,64,127c.41,0,.72-.42.69-.9s-.24-.67-.27-1.06a2.1,2.1,0,0,1,.8-1.84A3.69,3.69,0,0,0,63.37,126.26Zm.76-8.65c-.15-.34.08-.34-.08-.67a.55.55,0,0,0-.74-.22A.94.94,0,0,0,63,118c.29.56.74.72,1.61.52a13.7,13.7,0,0,0,2.49-.76C66.54,117.83,64.48,118.34,64.13,117.61Zm10.65-7.5c.31-.33.52-.7.24-.93a.65.65,0,0,0-1,.23c-.72,1.17.46,3.06.46,3.06A2.38,2.38,0,0,1,74.78,110.11Zm-3.87-1.39a.56.56,0,0,0-.88.16c-.63,1.08.49,3,.49,3a2.32,2.32,0,0,1,.2-2.27C71,109.31,71.17,109,70.91,108.72ZM65.08,98.21a1.1,1.1,0,0,0-.66-1.38,1.07,1.07,0,0,0-1.41.78c-.23.82.51,1,.74,1.55a2.82,2.82,0,0,1-.34,2.37A9,9,0,0,0,65.08,98.21Zm-3.53-8.7a14.27,14.27,0,0,0-1.23,15.41c-1.51-5.18,0-9.06,1-10.43a12.61,12.61,0,0,1,3-2.68,2.1,2.1,0,0,0,.41-3.09C64,88,62.79,88,61.55,89.51Zm2.94,1.55a18.58,18.58,0,0,1-2.61,2.25c.53-.71,1.5-1.57,1.12-2.75a1.15,1.15,0,0,1,.54-1.43.9.9,0,0,1,1.16.35A1.56,1.56,0,0,1,64.49,91.06Z"/><path class="cls-4" d="M120.32,118.21a11.74,11.74,0,0,0,4.92.52c1.35-.2,1.68-.82,1.68-.82a1.1,1.1,0,0,1-.17-.57.5.5,0,0,1,.66-.43.76.76,0,0,1,.52.67,1,1,0,0,1-.46.89s.41-.21,1.12-.54.64-1.64.64-1.64a.92.92,0,0,1-1.19.1.88.88,0,0,1-.42-1.17c.25-.43.83-.74,1.68-.23.36.23,1,1,.48,2.67a4,4,0,0,0,1.26-1.82c.55-1.5.16-3.12-.85-3.7s-1.27.15-1.44.78a.77.77,0,0,1-1.1.56,1.35,1.35,0,0,1-.51-2c.36-.71,1.64-2.07,3.79-.68,2.4,1.56,1.42,5.05,0,6.44a5.56,5.56,0,0,0,2.26-3.79,10.44,10.44,0,0,0-.32-3,1.31,1.31,0,0,1,.79-1.49,1.29,1.29,0,0,1,1.35.91c1.08,2.74-1.47,6.33-3.69,7.66a6.89,6.89,0,0,0,4.18-3.13,9.18,9.18,0,0,0,1.13-3.8c.1-1,.75-2.11,1.7-1.89.74.17,1.28,1,.93,2.53-.82,3.66-6.49,6.16-6.49,6.16s1.67-.49,2.73-.94a23.32,23.32,0,0,0,4.13-2.32c1.58-1.11,2.68-4.5,2.58-7s-2.16-3.54-2.62-3.23a1.6,1.6,0,0,1-.12,1.67,1.52,1.52,0,0,1-2.19.26c-1.16-.76-.81-2.28-.34-3.14a2.85,2.85,0,0,1,3.7-1.1,5.43,5.43,0,0,1,3,4.49c.38,2.41-1.46,5.85-2.21,6.91a12.16,12.16,0,0,0,2.2-2.84,11.23,11.23,0,0,0,1.29-5c0-2-1.2-3.91-1.85-5.12a2.26,2.26,0,0,1,.59-3.19c.93-.52,2.24-.13,3.29,1.65a8.26,8.26,0,0,1,.56,6.29,19.12,19.12,0,0,1-4.76,7.78,24.24,24.24,0,0,0,6.46-7.15,16,16,0,0,0,1.91-8.39c-.05-2.14-1.32-6.72-3.9-8.53s-4.72-1.09-5-.71a1.89,1.89,0,0,1,.06,1.79,1.79,1.79,0,0,1-2.53.55,2.59,2.59,0,0,1-.72-3.8c.53-.86,2.82-3,7.22-.74s5.59,9,5.51,11.37a18,18,0,0,1-2.24,8.58,27.5,27.5,0,0,1-7.24,7.89c-2.27,1.63-8.59,4.13-8.59,4.13s1.33-.07,2.62-.08,7.09-.77,8.1-.86a1.84,1.84,0,0,1,2,1.57,1.52,1.52,0,0,1-1.93,1.58c-1.42-.29-4.42-1.13-6.16-1.57a20.48,20.48,0,0,0-5.84-.14c1.31.21,7,.86,10.65,3.89a7.74,7.74,0,0,1,2.82,4.56c.14,1.21-.18,2-.77,2.33a.87.87,0,0,1-.94-.16,9.37,9.37,0,0,1,.42,4.15c-.38,2.21-1.89,3.78-3.47,3.44a3.59,3.59,0,0,1-2.45-3.38c-.12-2,.65-5.49-1.07-8.67s-6.16-5.14-7-5.3a15.51,15.51,0,0,0-2.54-.06c3.17.76,7.7,3.84,7.58,9,0,1.61-1.14,2.82-2.17,2.77a2.11,2.11,0,0,1-1.85-2.41c0-1.82.66-2.69.13-4.63s-3.17-3.9-4.1-4.25a26.11,26.11,0,0,0-4.43,0c1.71.24,4.72,2.32,5.41,4.3a2.9,2.9,0,0,1-1.87,3.86,2.62,2.62,0,0,1-2.84-2.28c-.15-1.13.48-2.33.29-3.32-.34-1.78-3.45-2.93-4.22-3.17a6.83,6.83,0,0,1,2,2.19,1.19,1.19,0,0,1-.68,1.74,1.48,1.48,0,0,1-1.72-1c-.15-.48-.28-2.9-1.36-3.45a.34.34,0,0,1-.47,0,.3.3,0,0,0,.17-.39c-.1-.27-.82-.36-.82-.36l-.19-.82A28.82,28.82,0,0,0,120.32,118.21Zm14.56-8a1.18,1.18,0,0,0-1.23-1,1,1,0,0,0-.56,1.07,11.29,11.29,0,0,1,.31,3.31,8.84,8.84,0,0,1-1.35,3.2C133.37,115.79,135.66,112.73,134.88,110.17Zm3.19,2.94a5.63,5.63,0,0,0,1-2.24c0-.56,0-1.67-.72-1.83s-1.24.81-1.34,1.35a11.1,11.1,0,0,1-1.14,4,7.44,7.44,0,0,1-1.52,2A12.22,12.22,0,0,0,138.07,113.11Zm9.15-8.42a9.12,9.12,0,0,0-.48-5.85c-.73-1.4-2-1.89-2.82-1.51s-1,1.55-.48,2.69c.42.93,1.88,3.29,1.86,5.37a12.49,12.49,0,0,1-2,6.29A22.57,22.57,0,0,0,147.22,104.69Zm-2.74,14.89a1.25,1.25,0,0,0,1.61-1.32,1.52,1.52,0,0,0-1.65-1.28c-1.16.15-7,.8-7,.8S142.93,119.21,144.48,119.58Zm-6.5,4.6c1.9,3.31,1,7.15,1.17,8.73.21,1.42.91,2.8,2,3,1.8.35,3.26-2.16,3.13-4.61a12.88,12.88,0,0,0-5.16-9,23.64,23.64,0,0,0-7.73-3.39A13.12,13.12,0,0,1,138,124.18Zm-4-4.81a21.07,21.07,0,0,1,5.55,2.84,13.25,13.25,0,0,1,4.49,6.08.81.81,0,0,0,1.07.27c.43-.28.59-.85.55-1.74a8.29,8.29,0,0,0-2.75-4.61,15.15,15.15,0,0,0-5.44-2.74,39.46,39.46,0,0,0-5.69-1.21l-1,.2S132.21,118.77,134,119.37Zm-2,4.09c.67,1.86.1,3.55,0,5-.06.71.37,1.84,1.31,1.93,1.16.12,1.85-1.34,1.88-2.38.17-5.42-5.13-8.47-7.22-8.65A9,9,0,0,1,132.06,123.46ZM125.54,126a.91.91,0,0,0,1,.4.61.61,0,0,0,.25-.84c-.27-.44-.64-.49-1-.88a1.45,1.45,0,0,1-.38-1.43A3,3,0,0,0,125.54,126Zm7.73,2.34a1.27,1.27,0,0,0,1.25-1.38c.22.35.25,2.12-.75,2.55-.55.23-1.05.06-1.17-.38A.66.66,0,0,1,133.27,128.31Zm9.59.42a4.84,4.84,0,0,1,0,5.59c-.73,1-1.69,1.11-2.29.46A1.17,1.17,0,0,1,141,133a3.13,3.13,0,0,0,1.77-1.71A3.34,3.34,0,0,0,142.86,128.73Zm2.39-1.71a.72.72,0,0,1-.67.76c-.4,0-.72-.42-.68-.9s.24-.66.27-1.06a2.08,2.08,0,0,0-.8-1.84A3.65,3.65,0,0,1,145.25,127Zm-.76-8.66c.15-.33-.08-.33.08-.66a.53.53,0,0,1,.74-.22,1,1,0,0,1,.36,1.25c-.29.55-.73.71-1.61.51a13,13,0,0,1-2.49-.76C142.08,118.59,144.14,119.1,144.49,118.36Zm-10.65-7.5c-.31-.32-.51-.7-.24-.92a.65.65,0,0,1,1,.23c.73,1.18-.46,3-.46,3A2.33,2.33,0,0,0,133.84,110.86Zm3.87-1.38a.55.55,0,0,1,.88.16c.63,1.08-.5,3-.5,3a2.28,2.28,0,0,0-.19-2.26C137.63,110.07,137.45,109.72,137.71,109.48ZM143.54,99a1.09,1.09,0,0,1,.66-1.37,1.07,1.07,0,0,1,1.41.78c.25.81-.51,1-.73,1.55a2.77,2.77,0,0,0,.33,2.37A8.86,8.86,0,0,1,143.54,99Zm3.53-8.69a14.27,14.27,0,0,1,1.23,15.41c1.51-5.18,0-9.07-1-10.43a12.64,12.64,0,0,0-3-2.68,2.11,2.11,0,0,1-.4-3.09C144.64,88.75,145.83,88.73,147.07,90.27Zm-2.94,1.54a18.13,18.13,0,0,0,2.61,2.26c-.53-.71-1.5-1.56-1.13-2.75a1.13,1.13,0,0,0-.53-1.43.91.91,0,0,0-1.16.35A1.54,1.54,0,0,0,144.13,91.81Z"/><path class="cls-4" d="M104.38,129.72a4,4,0,0,1,3-.81,3.53,3.53,0,0,1,2,1.19.88.88,0,0,0,1.11.12.79.79,0,0,0-.08-1.17,4,4,0,0,0-2.62-.87A4.27,4.27,0,0,0,104.38,129.72Z"/><path class="cls-4" d="M104.29,129.36c.75-1.4,4.36-3.41,5.52-3.34a1,1,0,0,1,1,1.27c-.09.55-.74.83-1.4.72A5.94,5.94,0,0,0,104.29,129.36Z"/><path class="cls-4" d="M104.21,129a8.32,8.32,0,0,1,2.36-1.9c.26-.15.63-.5.38-.81s-.62-.09-.81.09A7.75,7.75,0,0,0,104.21,129Z"/><path class="cls-4" d="M104.12,128.8c.61-1.65,3-3.71,4.86-4.51a.83.83,0,0,0,.4-1.27.93.93,0,0,0-1.23-.11C106.69,123.75,104.53,127,104.12,128.8Z"/><path class="cls-4" d="M107.69,122.56a.82.82,0,0,0-.1-1.17.85.85,0,0,0-1.17.35,21.5,21.5,0,0,0-2.43,6.91A19.4,19.4,0,0,1,107.69,122.56Z"/><path class="cls-4" d="M103.92,128.61c.4-2.53,1.73-6.35,1.8-7.36a.77.77,0,0,0-.67-.9.75.75,0,0,0-.81.68C104,122.9,104,125.82,103.92,128.61Z"/><path class="cls-4" d="M103.36,129.69a4,4,0,0,0-3-.81,3.45,3.45,0,0,0-2,1.19.88.88,0,0,1-1.12.12.77.77,0,0,1,.08-1.16,3.91,3.91,0,0,1,2.62-.87A4.21,4.21,0,0,1,103.36,129.69Z"/><path class="cls-4" d="M103.45,129.33c-.75-1.4-4.36-3.41-5.52-3.35a1,1,0,0,0-1,1.28,1.12,1.12,0,0,0,1.4.71A6,6,0,0,1,103.45,129.33Z"/><path class="cls-4" d="M103.53,129a7.85,7.85,0,0,0-2.36-1.89c-.27-.17-.63-.51-.38-.82s.62-.08.81.09A7.81,7.81,0,0,1,103.53,129Z"/><path class="cls-4" d="M103.62,128.77c-.61-1.65-3-3.72-4.87-4.51a.83.83,0,0,1-.39-1.27.94.94,0,0,1,1.23-.11C101.06,123.71,103.21,127,103.62,128.77Z"/><path class="cls-4" d="M100.05,122.53a.82.82,0,0,1,.11-1.17.83.83,0,0,1,1.15.36,21.12,21.12,0,0,1,2.43,6.9A19.2,19.2,0,0,0,100.05,122.53Z"/><path class="cls-4" d="M103.83,128.58c-.41-2.53-1.74-6.35-1.81-7.36a.75.75,0,1,1,1.48-.22C103.71,122.87,103.77,125.8,103.83,128.58Z"/><path class="cls-4" d="M103.05,136a.41.41,0,0,1,0-.11.91.91,0,0,1,.1-.43,1.79,1.79,0,0,0,.7.15,1.91,1.91,0,0,0,.76-.16.89.89,0,0,1,.1.44V136a2.1,2.1,0,0,1-.86.17A2.3,2.3,0,0,1,103.05,136Z"/><path class="cls-4" d="M101.78,137.85a4.81,4.81,0,0,0,2.08.47,4.9,4.9,0,0,0,2.1-.48,2.6,2.6,0,0,0,.56.06h.12a5.17,5.17,0,0,1-5.54,0h.1A2.78,2.78,0,0,0,101.78,137.85Z"/><path class="cls-4" d="M105.32,137.58a1.68,1.68,0,0,0,.3.15,4.72,4.72,0,0,1-1.76.35,4.87,4.87,0,0,1-1.75-.34,2.1,2.1,0,0,0,.3-.15,4.38,4.38,0,0,0,1.45.26A4.16,4.16,0,0,0,105.32,137.58Z"/><path class="cls-4" d="M105.47,132.6c-.15,0-.31-.18-.32-.69a1.89,1.89,0,0,1,1.79-1.86c1.51,0,3,2,3,3.51,0,2.3-1.2,4.22-3.23,4.22-1.59,0-2.54-1-2.54-1.78H104c0,.81.78,2,2.73,2s3.45-1.59,3.45-4.37-1.76-4.42-3.32-4.42a2.65,2.65,0,0,0-2.7,2.79c0,1.58.9,2.29,1.61,2.31a1,1,0,0,0,1.09-1,.91.91,0,0,0-.76-1C105.72,132.19,105.48,132.41,105.47,132.6Z"/><path class="cls-4" d="M108.88,131.06a1,1,0,0,0-1-.13c-.33.21-.12.59-.29.91a.78.78,0,0,1-1.08.2,1,1,0,0,1-.22-1.25,1.2,1.2,0,0,1,1.29-.51A2.39,2.39,0,0,1,108.88,131.06Z"/><path class="cls-4" d="M109.57,132.22a.56.56,0,0,0-.6-.29c-.31,0-.23.35-.61.38a.47.47,0,0,1-.45-.55.62.62,0,0,1,.7-.47A1,1,0,0,1,109.57,132.22Z"/><path class="cls-4" d="M109.74,132.64a.44.44,0,0,1-.27.62.28.28,0,0,0-.22.36.31.31,0,0,0,.39.2.53.53,0,0,0,.35-.45A1,1,0,0,0,109.74,132.64Z"/><path class="cls-4" d="M109.18,134a.31.31,0,0,0-.33-.33c-.2,0-.25.25-.23.41a.71.71,0,0,0,.63.6.65.65,0,0,0,.73-.82c-.06.28-.23.47-.42.48A.38.38,0,0,1,109.18,134Z"/><path class="cls-4" d="M108.45,134.9a.45.45,0,0,0-.56-.23c-.2.1-.25.34-.1.63a1.1,1.1,0,0,0,1.11.49,1.25,1.25,0,0,0,1-1.08.86.86,0,0,1-.82.58A.66.66,0,0,1,108.45,134.9Z"/><path class="cls-4" d="M107.56,135.83a.54.54,0,0,0-.83,0c-.18.22-.11.66.32.93a1.75,1.75,0,0,0,1.43.09,2.47,2.47,0,0,0,1.18-1.28,1.58,1.58,0,0,1-1.36.66A.91.91,0,0,1,107.56,135.83Z"/><path class="cls-4" d="M107,133.59c.18-.58.61-.38.91-.62a.42.42,0,1,0-.53-.64A1.65,1.65,0,0,0,107,133.59Z"/><path class="cls-4" d="M107.39,134a.41.41,0,0,0-.6,0,1.43,1.43,0,0,1-1.72.06c.37.74,1.82,1.08,2.35.38A.36.36,0,0,0,107.39,134Z"/><path class="cls-4" d="M104.17,132.85a2,2,0,0,0,.64,1.25c.19.15.32.51.07.7a.49.49,0,0,1-.63-.11C103.84,134.28,104,133.24,104.17,132.85Z"/><path class="cls-4" d="M106.53,136.46a.92.92,0,0,1,.23-1,.24.24,0,0,0-.09-.35c-.14-.09-.32,0-.4.22A1.38,1.38,0,0,0,106.53,136.46Z"/><path class="cls-4" d="M107.94,137.54c-.85.45-2.59.23-3.06-.84-.27-.64-.13-1.08.27-1.21a.81.81,0,0,1,1,.64A1.57,1.57,0,0,0,107.94,137.54Z"/><path class="cls-4" d="M102.27,132.6c.15,0,.31-.18.32-.69a1.89,1.89,0,0,0-1.79-1.86c-1.51,0-3,2-3,3.51,0,2.3,1.21,4.22,3.23,4.22,1.59,0,2.54-1,2.54-1.78h.19c0,.81-.78,2-2.73,2s-3.45-1.59-3.45-4.37,1.76-4.42,3.32-4.42a2.65,2.65,0,0,1,2.7,2.79c0,1.58-.9,2.29-1.61,2.31a1,1,0,0,1-1.09-1,.91.91,0,0,1,.76-1C102,132.19,102.26,132.41,102.27,132.6Z"/><path class="cls-4" d="M98.86,131.06a1,1,0,0,1,1-.13c.34.21.13.59.29.91a.78.78,0,0,0,1.08.2,1,1,0,0,0,.22-1.25,1.2,1.2,0,0,0-1.29-.51A2.39,2.39,0,0,0,98.86,131.06Z"/><path class="cls-4" d="M98.17,132.22a.55.55,0,0,1,.59-.29c.32,0,.24.35.62.38a.47.47,0,0,0,.45-.55.62.62,0,0,0-.7-.47A1,1,0,0,0,98.17,132.22Z"/><path class="cls-4" d="M98,132.64a.44.44,0,0,0,.28.62.28.28,0,0,1,.21.36.31.31,0,0,1-.39.2.53.53,0,0,1-.35-.45A1,1,0,0,1,98,132.64Z"/><path class="cls-4" d="M98.56,134a.31.31,0,0,1,.33-.33c.2,0,.25.25.23.41a.71.71,0,0,1-.63.6.65.65,0,0,1-.73-.82c.06.28.23.47.42.48A.38.38,0,0,0,98.56,134Z"/><path class="cls-4" d="M99.3,134.9a.44.44,0,0,1,.55-.23c.2.1.25.34.1.63a1.09,1.09,0,0,1-1.1.49,1.25,1.25,0,0,1-1-1.08.87.87,0,0,0,.82.58A.68.68,0,0,0,99.3,134.9Z"/><path class="cls-4" d="M100.19,135.83a.53.53,0,0,1,.82,0c.18.22.11.66-.32.93a1.75,1.75,0,0,1-1.43.09,2.41,2.41,0,0,1-1.17-1.28,1.55,1.55,0,0,0,1.35.66A1,1,0,0,0,100.19,135.83Z"/><path class="cls-4" d="M100.78,133.59c-.18-.58-.61-.38-.9-.62a.42.42,0,0,1-.09-.59.42.42,0,0,1,.61,0A1.65,1.65,0,0,1,100.78,133.59Z"/><path class="cls-4" d="M100.35,134a.41.41,0,0,1,.6,0,1.43,1.43,0,0,0,1.72.06c-.37.74-1.82,1.08-2.35.38A.37.37,0,0,1,100.35,134Z"/><path class="cls-4" d="M103.57,132.85a2,2,0,0,1-.64,1.25c-.19.15-.32.51-.08.7a.5.5,0,0,0,.64-.11C103.9,134.28,103.75,133.24,103.57,132.85Z"/><path class="cls-4" d="M101.21,136.46a.92.92,0,0,0-.23-1,.25.25,0,0,1,.09-.35c.14-.09.32,0,.4.22A1.38,1.38,0,0,1,101.21,136.46Z"/><path class="cls-4" d="M99.8,137.54c.84.45,2.59.23,3.06-.84.28-.64.13-1.08-.27-1.21a.79.79,0,0,0-1,.64A1.59,1.59,0,0,1,99.8,137.54Z"/></g><path class="cls-5" d="M145.78,309.49H21.86a4.89,4.89,0,0,1-8,1.72A5.09,5.09,0,0,1,15.5,303V67.17h1V303.84a2.35,2.35,0,0,0-1.54.53,4.17,4.17,0,0,0-.5,6.19,4,4,0,0,0,6.07-.47,2.43,2.43,0,0,0,.54-1.61H145.78v1ZM46.2,298.07A2.33,2.33,0,0,0,44,296.29a5.83,5.83,0,0,0-4.29,1.78h4.43a.7.7,0,0,1,.32-.2.74.74,0,0,1,.78.2Zm99.58,6.8v-.52H26.72v-5.9h1.85a.51.51,0,0,0,.42.27h.09a2.49,2.49,0,0,1-1.42,3.33c-.25.11.4.48,1.44-.35a1.76,1.76,0,0,0,.39,2.33,1.77,1.77,0,0,0,.4-2.33c1,.83,1.68.46,1.44.35a2.49,2.49,0,0,1-1.43-3.33H30a.54.54,0,0,0,.42-.27h.82a2.45,2.45,0,0,0-.33,1.79c.39,1.73,2.65,2,4,1.51,1.68-.6,3-2.06,4.32-3.3h4.61a1,1,0,0,0,0,.63,1.47,1.47,0,0,0,1.86.77,1.71,1.71,0,0,0,1-1.4h3.5a.14.14,0,0,0,.27,0,2.38,2.38,0,0,1,2.55,1.61c.11.26.47-.4-.35-1.45a1.18,1.18,0,1,0,0-.82c.82-1,.46-1.71.35-1.45A2.4,2.4,0,0,1,50.51,298c0-.06-.06-.09-.14-.09a.13.13,0,0,0-.13.14l-3.5,0A2.81,2.81,0,0,0,44,295.81c-2.06-.2-3.49.94-4.84,2.26H26.72V285.42c1.3-1.37,2.42-2.83,2.23-4.92-.11-1.29-.87-2.68-2.23-2.8l0-3.56a.13.13,0,0,0,.14-.14.13.13,0,0,0-.09-.14,2.45,2.45,0,0,1,1.58-2.6c.26-.1-.4-.47-1.42.37a1.79,1.79,0,0,0-.41-2.34,1.78,1.78,0,0,0-.4,2.34c-1-.84-1.68-.47-1.43-.37a2.45,2.45,0,0,1,1.59,2.6.13.13,0,0,0-.09.14.12.12,0,0,0,.13.14v3.56A1.64,1.64,0,0,0,25,278.75a1.52,1.52,0,0,0,.74,1.89,1,1,0,0,0,.63,0v4.7c-1.22,1.38-2.66,2.67-3.24,4.39-.5,1.41-.22,3.71,1.49,4.1a2.32,2.32,0,0,0,1.75-.33v.84a.56.56,0,0,0-.27.43v.09a2.44,2.44,0,0,1-3.28-1.44c-.1-.26-.46.4.36,1.45a1.19,1.19,0,1,0,0,.82c-.82,1-.46,1.71-.36,1.45a2.43,2.43,0,0,1,3.28-1.44v.1a.57.57,0,0,0,.27.42v1.88h-5.8V67.17H20V304.61l-.17.18-.06,0a.58.58,0,0,0-.6.34.14.14,0,0,0,0,.06,4.13,4.13,0,0,1-4.5.62c-.45-.18-.09,1.06,2.18,1.33a3,3,0,0,0-2.32,3.33,3,3,0,0,0,3.3-2.34c.25,2.3,1.48,2.66,1.3,2.21a4.3,4.3,0,0,1,.6-4.57.58.58,0,0,0,.4-.36.45.45,0,0,0,0-.33l.17-.19ZM20.55,298.45v1.82a.09.09,0,0,1,0,0,2.16,2.16,0,0,1,1.74-1.77Zm0,2.36v3.29l1.84-1.88a1.52,1.52,0,0,1-.56,0,1.73,1.73,0,0,1-1.28-1.43Zm.26,3.54h3.11a1.65,1.65,0,0,1-1.27-1.28,1.35,1.35,0,0,1,0-.63l-1.87,1.91Zm3.89,0h1.65v-1.67a2.17,2.17,0,0,1-1.65,1.67Zm-1.15-2.8h.08a1.1,1.1,0,0,1,1,.34A.71.71,0,0,1,24.4,303a.72.72,0,0,1-.88-.26c-.07-.12,0-.17.13-.07a.41.41,0,0,0,.68-.44.71.71,0,0,0-.7-.38,1,1,0,0,0-.71,1.15,1.3,1.3,0,0,0,1.6,1.07,2,2,0,0,0,1.36-2.62A3.53,3.53,0,0,0,25,300l-1.49,1.51Zm1.23-1.76a3.27,3.27,0,0,0-1.39-.84,2,2,0,0,0-2.58,1.38A1.31,1.31,0,0,0,21.87,302a.92.92,0,0,0,1.12-.71.67.67,0,0,0-.37-.71.41.41,0,0,0-.43.68c.09.11.06.21-.06.14a.74.74,0,0,1-.26-.89.68.68,0,0,1,1.12-.22,1.23,1.23,0,0,1,.34,1l1.45-1.46Zm-1.2-1.27a4.09,4.09,0,0,1,1.48,1l1-1.05H23.3l.28.07Zm1.74,1.24a4.39,4.39,0,0,1,1,1.52,1.46,1.46,0,0,1,.05.2V298.7l-1,1.06Zm18.78-1.31a.78.78,0,0,0,0,.5,1,1,0,0,0,1.57.48,1.27,1.27,0,0,0,.58-1h-.86a.47.47,0,0,1-.14.33.52.52,0,0,1-.69,0,.36.36,0,0,1-.13-.33Zm-12.07,0a2.21,2.21,0,0,0-.62,1.61c.24,1.7,2.27,1.75,3.6,1.27a11,11,0,0,0,3.76-2.88Zm-5.68-5.79v-6.85a11.49,11.49,0,0,0-2.84,3.83c-.46,1.34-.42,3.41,1.26,3.65a2.11,2.11,0,0,0,1.58-.63Zm0-12.27v-.31A.35.35,0,0,1,26,280a.57.57,0,0,1,0-.71.48.48,0,0,1,.34-.15v-.87a1.23,1.23,0,0,0-1,.58,1,1,0,0,0,.47,1.62.76.76,0,0,0,.49,0Zm.37-2.14v1a.76.76,0,0,1,.2.79.79.79,0,0,1-.2.33v4.5a6,6,0,0,0,1.74-4.36A2.32,2.32,0,0,0,26.72,278.25Z"/><path class="cls-5" d="M15.51,67.17v-45A5.06,5.06,0,0,1,13.82,14a4.93,4.93,0,0,1,8.06,1.73H62.22v1H21.06a2.4,2.4,0,0,0-.52-1.57,4,4,0,0,0-6.08-.5,4.14,4.14,0,0,0,.47,6.17,2.28,2.28,0,0,0,1.58.55V67.17ZM26.74,46.91a2.32,2.32,0,0,0,1.74-2.26,6,6,0,0,0-1.74-4.36v4.5a.84.84,0,0,1,.19.33.81.81,0,0,1-.19.8v1ZM20.05,67.17h.51V27.09h5.8V29a.52.52,0,0,0-.26.43v.09A2.43,2.43,0,0,1,22.8,28c-.1-.25-.46.42.36,1.47a1.7,1.7,0,0,0-2.29.4,1.7,1.7,0,0,0,2.29.41c-.82,1.05-.46,1.71-.36,1.46a2.44,2.44,0,0,1,3.29-1.45v.1a.5.5,0,0,0,.26.42v.84a2.32,2.32,0,0,0-1.75-.33c-1.7.39-2,2.69-1.49,4.1.59,1.72,2,3,3.24,4.4v4.69a.89.89,0,0,0-.62,0A1.5,1.5,0,0,0,25,46.41a1.64,1.64,0,0,0,1.37,1.05V51a.15.15,0,0,0,0,.28,2.44,2.44,0,0,1-1.58,2.6c-.26.11.4.47,1.42-.37a1.8,1.8,0,0,0,.4,2.34A1.78,1.78,0,0,0,27,53.53c1,.84,1.68.48,1.42.37a2.45,2.45,0,0,1-1.58-2.6.13.13,0,0,0,.09-.14.13.13,0,0,0-.14-.14V47.46c1.35-.12,2.11-1.51,2.22-2.8.19-2.09-.93-3.55-2.22-4.92V27.09H39.16c1.36,1.32,2.78,2.46,4.84,2.27a2.82,2.82,0,0,0,2.76-2.27l3.49,0a.13.13,0,0,0,.14.14.14.14,0,0,0,.14-.09,2.4,2.4,0,0,1,2.55,1.61c.1.26.46-.4-.36-1.45A1.7,1.7,0,0,0,55,26.91a1.7,1.7,0,0,0-2.29-.41c.82-1.05.46-1.72.36-1.45a2.37,2.37,0,0,1-2.55,1.61.14.14,0,0,0-.14-.09.12.12,0,0,0-.14.13h-3.5a1.65,1.65,0,0,0-1-1.39,1.47,1.47,0,0,0-1.86.76,1,1,0,0,0,0,.63H39.28c-1.36-1.24-2.63-2.7-4.32-3.3-1.39-.5-3.65-.22-4,1.52a2.43,2.43,0,0,0,.32,1.78h-.82a.53.53,0,0,0-.42-.27h-.09a2.49,2.49,0,0,1,1.42-3.33c.25-.11-.4-.48-1.43.36a1.78,1.78,0,0,0-.41-2.34,1.78,1.78,0,0,0-.4,2.34c-1-.84-1.68-.47-1.42-.36a2.48,2.48,0,0,1,1.41,3.33H29a.53.53,0,0,0-.42.27H26.74v-5.9H62.22v-.53H20.31l-.18-.18s0,.1,0-.05a.62.62,0,0,0-.33-.62l-.06,0a4.3,4.3,0,0,1-.61-4.58c.18-.45-1-.08-1.3,2.22a3,3,0,0,0-3.29-2.35,3,3,0,0,0,2.31,3.35c-2.26.26-2.62,1.51-2.18,1.33a4.11,4.11,0,0,1,4.5.61.55.55,0,0,0,.35.4.41.41,0,0,0,.33,0l.18.18V67.17Zm6.31-46.36H24.63a2.18,2.18,0,0,1,1.73,1.77V20.81Zm-2.32,0H20.81l1.85,1.87a1.37,1.37,0,0,1,0-.57,1.69,1.69,0,0,1,1.4-1.3Zm-3.48.27v3.16A1.65,1.65,0,0,1,21.82,23a1.19,1.19,0,0,1,.62,0l-1.88-1.9Zm0,4v1.68H22.2A2.17,2.17,0,0,1,20.56,25Zm2.75-1.16s0,.05,0,.08a1.17,1.17,0,0,1-.34,1,.68.68,0,0,1-1.12-.21.73.73,0,0,1,.26-.89c.12-.08.16,0,.06.13a.42.42,0,0,0,.43.69A.72.72,0,0,0,23,24a.93.93,0,0,0-1.13-.72,1.3,1.3,0,0,0-1.05,1.62,2,2,0,0,0,2.57,1.39,3.52,3.52,0,0,0,1.42-.86l-1.49-1.51Zm1.74,1.25a3.35,3.35,0,0,0,.82-1.42,2,2,0,0,0-1.36-2.62,1.29,1.29,0,0,0-1.59,1.08.93.93,0,0,0,.7,1.13.65.65,0,0,0,.7-.37.41.41,0,0,0-.67-.44c-.11.1-.21.06-.13-.06a.7.7,0,0,1,.87-.27.71.71,0,0,1,.21,1.14,1.16,1.16,0,0,1-1,.35l1.44,1.48Zm1.24-1.22a4.21,4.21,0,0,1-1,1.5l1,1.05V23.61c0,.1,0,.19-.07.29Zm-1.21,1.76a4.22,4.22,0,0,1-1.5,1l-.19.05h2.72l-1-1.05Zm1.28,19.11a.69.69,0,0,0-.49,0,1,1,0,0,0-.47,1.61,1.23,1.23,0,0,0,1,.58v-.87a.48.48,0,0,1-.33-.15.56.56,0,0,1,0-.7.37.37,0,0,1,.33-.13v-.31Zm0-12.27a2.17,2.17,0,0,0-1.58-.64c-1.67.25-1.72,2.32-1.25,3.66a11.1,11.1,0,0,0,2.83,3.83V32.5Zm5.69-5.79h6.73A11.27,11.27,0,0,0,35,23.82c-1.32-.47-3.35-.42-3.59,1.29a2.17,2.17,0,0,0,.62,1.6Zm12.06,0h.3a.36.36,0,0,1,.13-.32.51.51,0,0,1,.69,0,.48.48,0,0,1,.15.33h.85a1.27,1.27,0,0,0-.57-1,1,1,0,0,0-1.59.48.77.77,0,0,0,0,.5Zm2.1.38h-1a.74.74,0,0,1-.78.21.85.85,0,0,1-.32-.21H39.7A5.8,5.8,0,0,0,44,28.87,2.31,2.31,0,0,0,46.21,27.09Z"/><path class="cls-5" d="M62.22,15.68H186.14A4.89,4.89,0,0,1,194.19,14a5.08,5.08,0,0,1-1.69,8.19V67.21h-1V21.33a2.37,2.37,0,0,0,1.55-.53,4.17,4.17,0,0,0,.5-6.19,4,4,0,0,0-6.07.48,2.34,2.34,0,0,0-.54,1.6H62.22v-1ZM161.8,27.11A2.31,2.31,0,0,0,164,28.88a5.83,5.83,0,0,0,4.29-1.77h-4.43a.74.74,0,0,1-.32.19.75.75,0,0,1-.78-.19ZM62.22,20.3v.52H181.28v5.9h-1.85a.51.51,0,0,0-.42-.27h-.09a2.5,2.5,0,0,1,1.42-3.34c.25-.1-.41-.47-1.44.37a1.78,1.78,0,0,0-.4-2.34,1.79,1.79,0,0,0-.39,2.34c-1-.84-1.69-.47-1.44-.37a2.5,2.5,0,0,1,1.42,3.34H178a.52.52,0,0,0-.42.27h-.83a2.39,2.39,0,0,0,.34-1.78c-.39-1.74-2.65-2-4-1.51-1.69.59-3,2.05-4.32,3.29h-4.62a.86.86,0,0,0,0-.63,1.45,1.45,0,0,0-1.85-.76,1.65,1.65,0,0,0-1,1.39h-3.5a.13.13,0,0,0-.13-.13.14.14,0,0,0-.15.09,2.38,2.38,0,0,1-2.55-1.61c-.11-.26-.46.4.36,1.45a1.7,1.7,0,0,0-2.29.41,1.7,1.7,0,0,0,2.29.41c-.82,1.05-.47,1.71-.36,1.45a2.4,2.4,0,0,1,2.55-1.61.15.15,0,0,0,.15.1.14.14,0,0,0,.13-.15h3.5A2.8,2.8,0,0,0,164,29.36c2.06.2,3.49-.94,4.84-2.25h12.43V39.75c-1.3,1.37-2.42,2.83-2.23,4.92.11,1.29.87,2.68,2.23,2.8l0,3.56a.13.13,0,0,0-.14.14.14.14,0,0,0,.09.14,2.45,2.45,0,0,1-1.58,2.6c-.26.1.4.47,1.42-.37a1.77,1.77,0,0,0,.41,2.33,1.77,1.77,0,0,0,.4-2.33c1,.84,1.68.47,1.42.37a2.45,2.45,0,0,1-1.58-2.6.14.14,0,0,0,.09-.14.13.13,0,0,0-.13-.14V47.47a1.64,1.64,0,0,0,1.37-1,1.52,1.52,0,0,0-.74-1.89,1,1,0,0,0-.63,0V39.87c1.22-1.39,2.65-2.68,3.24-4.4.5-1.41.22-3.71-1.49-4.1a2.32,2.32,0,0,0-1.75.33v-.84a.56.56,0,0,0,.27-.42v-.1a2.42,2.42,0,0,1,3.27,1.45c.11.25.47-.41-.35-1.47a1.7,1.7,0,0,0,2.29-.4,1.7,1.7,0,0,0-2.29-.4c.82-1.06.46-1.72.35-1.46a2.41,2.41,0,0,1-3.27,1.44v-.1a.61.61,0,0,0-.27-.43V27.11h5.8v40.1H188V20.56l.17-.18.05,0a.59.59,0,0,0,.61-.34l0-.06a4.09,4.09,0,0,1,4.5-.61c.44.18.08-1.07-2.18-1.33a3,3,0,0,0,2.32-3.34,3,3,0,0,0-3.3,2.34c-.25-2.3-1.49-2.66-1.3-2.22a4.32,4.32,0,0,1-.61,4.58.57.57,0,0,0-.39.36.45.45,0,0,0,0,.33l-.18.19Zm125.23,6.42V24.9a.07.07,0,0,1,0,.05,2.17,2.17,0,0,1-1.74,1.77Zm0-2.36V21.08L185.61,23a1.18,1.18,0,0,1,.56,0,1.67,1.67,0,0,1,1.28,1.42Zm-.26-3.54h-3.12a1.65,1.65,0,0,1,1.27,1.28,1.09,1.09,0,0,1,0,.62l1.88-1.9Zm-3.89,0h-1.65v1.67a2.18,2.18,0,0,1,1.65-1.67Zm1.14,2.8h-.07a1.14,1.14,0,0,1-1-.35.7.7,0,1,1,1.08-.88c.07.13,0,.17-.13.07a.41.41,0,0,0-.67.44.7.7,0,0,0,.7.38,1,1,0,0,0,.7-1.15,1.29,1.29,0,0,0-1.59-1.07,2,2,0,0,0-1.36,2.62,3.53,3.53,0,0,0,.84,1.44l1.48-1.51Zm-1.22,1.76a3.31,3.31,0,0,0,1.39.84,2,2,0,0,0,2.57-1.38,1.3,1.3,0,0,0-1.05-1.62.94.94,0,0,0-1.13.71.71.71,0,0,0,.38.72.42.42,0,0,0,.43-.69c-.1-.1-.06-.21.06-.14a.76.76,0,0,1,.27.9.69.69,0,0,1-1.13.21,1.2,1.2,0,0,1-.34-1l-1.45,1.46Zm1.2,1.27a4.09,4.09,0,0,1-1.48-1l-1,1h2.8l-.28-.07Zm-1.74-1.24a4.39,4.39,0,0,1-1-1.52,1.46,1.46,0,0,1,0-.2v2.77l1-1.05ZM163.9,26.72a.72.72,0,0,0,0-.5,1,1,0,0,0-1.57-.48,1.28,1.28,0,0,0-.58,1h.86a.43.43,0,0,1,.14-.33.52.52,0,0,1,.69,0,.36.36,0,0,1,.13.33Zm12.07,0a2.26,2.26,0,0,0,.62-1.6c-.25-1.71-2.28-1.76-3.6-1.28a11,11,0,0,0-3.76,2.88Zm5.68,5.79v6.85a11.07,11.07,0,0,0,2.83-3.83c.47-1.34.43-3.41-1.25-3.65a2.13,2.13,0,0,0-1.58.63Zm0,12.27v.31a.32.32,0,0,1,.31.12.55.55,0,0,1,0,.71.44.44,0,0,1-.33.15v.87a1.22,1.22,0,0,0,1-.59,1,1,0,0,0-.47-1.61.75.75,0,0,0-.49,0Zm-.37,2.15v-1a.76.76,0,0,1-.21-.79,1,1,0,0,1,.21-.33V40.3a6,6,0,0,0-1.75,4.36A2.36,2.36,0,0,0,181.28,46.93Z"/><path class="cls-5" d="M192.49,67.21V303a5.06,5.06,0,0,1,1.69,8.19,4.93,4.93,0,0,1-8.06-1.72H145.78v-1h41.15a2.46,2.46,0,0,0,.52,1.58,4,4,0,0,0,6.09.5,4.14,4.14,0,0,0-.47-6.17,2.28,2.28,0,0,0-1.58-.55V67.21ZM181.26,278.26a2.33,2.33,0,0,0-1.74,2.26,6,6,0,0,0,1.74,4.36v-4.5a.79.79,0,0,1-.2-.33.82.82,0,0,1,.2-.8v-1Zm6.69-211h-.51V298.08h-5.8V296.2a.53.53,0,0,0,.26-.43v-.09a2.42,2.42,0,0,1,3.28,1.44c.11.26.46-.41-.35-1.46a1.18,1.18,0,1,0,0-.81c.81-1.05.46-1.71.35-1.46a2.43,2.43,0,0,1-3.28,1.45v-.09a.5.5,0,0,0-.26-.43v-.84a2.32,2.32,0,0,0,1.75.33c1.7-.39,2-2.69,1.49-4.1-.59-1.72-2-3-3.24-4.4v-4.7a.83.83,0,0,0,.62,0,1.5,1.5,0,0,0,.75-1.88,1.65,1.65,0,0,0-1.37-1.05v-3.56a.13.13,0,0,0,.13-.14.13.13,0,0,0-.09-.14,2.43,2.43,0,0,1,1.58-2.6c.26-.11-.4-.47-1.43.37a1.79,1.79,0,0,0-.39-2.34,1.78,1.78,0,0,0-.41,2.34c-1-.84-1.68-.48-1.43-.37a2.45,2.45,0,0,1,1.59,2.6.13.13,0,0,0-.1.14.14.14,0,0,0,.15.14v3.56c-1.35.12-2.11,1.51-2.22,2.8-.19,2.09.93,3.55,2.22,4.92v12.65H168.84c-1.36-1.32-2.79-2.46-4.85-2.26a2.81,2.81,0,0,0-2.75,2.26l-3.49,0a.13.13,0,0,0-.14-.14.13.13,0,0,0-.14.09,2.4,2.4,0,0,1-2.55-1.61c-.1-.26-.46.4.36,1.45a1.18,1.18,0,1,0,0,.82c-.82,1.05-.46,1.71-.36,1.45a2.37,2.37,0,0,1,2.55-1.61.13.13,0,0,0,.14.09.12.12,0,0,0,.14-.13h3.5a1.65,1.65,0,0,0,1,1.39,1.46,1.46,0,0,0,1.86-.76,1,1,0,0,0,0-.63h4.61c1.36,1.24,2.63,2.7,4.32,3.3,1.38.5,3.65.22,4-1.52a2.43,2.43,0,0,0-.32-1.78h.82a.56.56,0,0,0,.42.27h.09a2.49,2.49,0,0,1-1.42,3.33c-.25.11.4.48,1.43-.35a1.76,1.76,0,0,0,.41,2.33,1.77,1.77,0,0,0,.4-2.33c1,.83,1.68.46,1.43.35a2.48,2.48,0,0,1-1.42-3.33H179a.56.56,0,0,0,.42-.27h1.84v5.9H145.78v.53h41.91l.18.17s0-.09,0,.06a.65.65,0,0,0,.34.62l.06,0a4.29,4.29,0,0,1,.61,4.57c-.18.45,1.05.09,1.3-2.21a3,3,0,0,0,3.28,2.35,3,3,0,0,0-2.3-3.35c2.26-.26,2.62-1.51,2.17-1.33a4.1,4.1,0,0,1-4.49-.61.59.59,0,0,0-.35-.4.45.45,0,0,0-.33,0l-.18-.18V67.21Zm-6.31,237.15h1.73a2.18,2.18,0,0,1-1.73-1.77v1.78Zm2.32,0h3.22l-1.84-1.87a1.56,1.56,0,0,1,0,.57,1.71,1.71,0,0,1-1.4,1.3Zm3.48-.26v-3.17a1.69,1.69,0,0,1-1.26,1.29,1.19,1.19,0,0,1-.62,0l1.88,1.91Zm0-4v-1.68h-1.65a2.2,2.2,0,0,1,1.65,1.68Zm-2.75,1.17a.25.25,0,0,1,0-.08,1.18,1.18,0,0,1,.34-1,.69.69,0,0,1,1.12.21.73.73,0,0,1-.26.89c-.12.08-.16,0-.06-.13a.41.41,0,0,0-.44-.68.7.7,0,0,0-.37.71.93.93,0,0,0,1.13.71,1.3,1.3,0,0,0,1.05-1.62,2,2,0,0,0-2.58-1.38,3.42,3.42,0,0,0-1.41.85l1.49,1.52ZM183,300.06a3.26,3.26,0,0,0-.82,1.41,2,2,0,0,0,1.36,2.62,1.29,1.29,0,0,0,1.59-1.07,1,1,0,0,0-.7-1.15.68.68,0,0,0-.7.39.41.41,0,0,0,.67.43c.11-.1.21-.06.13.06a.7.7,0,0,1-.87.27.71.71,0,0,1-.22-1.14,1.16,1.16,0,0,1,1-.35L183,300.06Zm-1.25,1.22a4.34,4.34,0,0,1,1-1.51l-1-1v2.84l.06-.28Zm1.22-1.77a4.22,4.22,0,0,1,1.5-1l.19-.05h-2.72l1,1.05Zm-1.28-19.11a.69.69,0,0,0,.49,0,1,1,0,0,0,.47-1.6,1.23,1.23,0,0,0-1-.59v.87a.42.42,0,0,1,.32.15.53.53,0,0,1,0,.7.35.35,0,0,1-.32.13v.31Zm0,12.27a2,2,0,0,0,1.57.63c1.68-.23,1.73-2.31,1.26-3.65a11.1,11.1,0,0,0-2.83-3.83v6.85ZM176,298.46h-6.73a11.17,11.17,0,0,0,3.76,2.89c1.32.46,3.35.42,3.59-1.28a2.23,2.23,0,0,0-.62-1.61Zm-12.06,0h-.3a.36.36,0,0,1-.13.32.52.52,0,0,1-.69,0,.48.48,0,0,1-.15-.34h-.85a1.27,1.27,0,0,0,.57,1,1,1,0,0,0,1.59-.48.79.79,0,0,0,0-.5Zm-2.11-.38h1a.74.74,0,0,1,.78-.21.85.85,0,0,1,.32.21h4.42A5.81,5.81,0,0,0,164,296.3,2.33,2.33,0,0,0,161.78,298.08Z"/></g></g></svg>