<?xml version="1.0" encoding="UTF-8"?>
<svg viewBox="0 0 208 323.9" xmlns="http://www.w3.org/2000/svg">
  <defs>
    <style>
      .cls-1 {
        fill: #5e8b99;
      }

      .cls-2,
      .cls-5,
      .cls-6,
      .cls-7 {
        fill: #fff;
      }

      .cls-3 {
        opacity: 0.95;
      }

      .cls-4 {
        fill: none;
      }

      .cls-5 {
        opacity: 0.05;
      }

      .cls-6 {
        opacity: 0.1;
      }

      .cls-7 {
        opacity: 0.15;
      }
    </style>
  </defs>
  <title>blue-back</title>
  <g data-name="Calque 2">
    <path
      class="cls-1"
      d="M13.59,321.9A11.67,11.67,0,0,1,2,310.18V13.71A11.66,11.66,0,0,1,13.59,2H194.41A11.66,11.66,0,0,1,206,13.71V310.18a11.67,11.67,0,0,1-11.59,11.72Z"
    />
    <path
      class="cls-2"
      d="M194.41,4A9.66,9.66,0,0,1,204,13.71V310.18a9.67,9.67,0,0,1-9.59,9.72H13.59A9.67,9.67,0,0,1,4,310.18V13.71A9.66,9.66,0,0,1,13.59,4H194.41m0-4H13.59A13.65,13.65,0,0,0,0,13.71V310.18A13.66,13.66,0,0,0,13.59,323.9H194.41A13.66,13.66,0,0,0,208,310.18V13.71A13.65,13.65,0,0,0,194.41,0Z"
    />
    <g class="cls-3">
      <polygon
        class="cls-4"
        points="106.96 157.46 67.47 222.57 201.7 145.74 201.7 145.74 173.34 161.98"
      />
      <polygon
        class="cls-4"
        points="118.8 269.33 118.75 269.35 118.77 269.3 67.44 222.61 67.44 222.62 96.42 319.5 173.95 319.5"
      />
      <path
        class="cls-4"
        d="M160.19,69.85l41.51,62.36V13.31a8.05,8.05,0,0,0-3.4-6.42L160.17,69.74Z"
      />
      <polygon
        class="cls-4"
        points="123.87 129.58 173.34 161.98 123.87 129.58"
      />
      <polygon class="cls-5" points="67.44 222.62 67.44 222.61 67.43 222.59" />
      <path
        class="cls-5"
        d="m123.84 129.56-66.29-43.41 68.53-80.65h-112.79a7.9 7.9 0 0 0-7.37 6.07l101 145.89z"
      />
      <polygon
        class="cls-5"
        points="15.67 177.34 67.43 222.59 67.47 222.57 106.96 157.46 106.92 157.46"
      />
      <path
        class="cls-5"
        d="M151,5.5l9.16,64.24L198.3,6.89a7.23,7.23,0,0,0-4.19-1.39Z"
      />
      <path
        class="cls-5"
        d="m9.39 318.3a7.2 7.2 0 0 0 3.9 1.2h83.13l-29-96.88z"
      />
      <path
        class="cls-5"
        d="m15.67 177.34-10-8.72v143.08a8.05 8.05 0 0 0 3.69 6.6l58-95.68z"
      />
      <path
        class="cls-5"
        d="m15.67 177.34-10-8.72v143.08a8.05 8.05 0 0 0 3.69 6.6l58-95.68z"
      />
      <polygon
        class="cls-6"
        points="67.44 222.61 118.77 269.3 151.03 174.75 201.7 145.74 201.7 145.74 67.47 222.57"
      />
      <path
        class="cls-6"
        d="m201.7 311.7v-77.59l-82.9 35.22 55.2 50.17h20.16a7.93 7.93 0 0 0 7.54-7.8z"
      />
      <polygon class="cls-6" points="201.7 225.99 151.03 174.75 201.7 225.99" />
      <polygon class="cls-5" points="67.43 222.59 67.44 222.61 67.47 222.57" />
      <polygon class="cls-6" points="67.43 222.59 67.44 222.61 67.47 222.57" />
      <path
        class="cls-5"
        d="M106.93,157.46,5.92,11.57a7.28,7.28,0,0,0-.22,1.74V168.62l10,8.72Z"
      />
      <path
        class="cls-6"
        d="M106.93,157.46,5.92,11.57a7.28,7.28,0,0,0-.22,1.74V168.62l10,8.72Z"
      />
      <polygon
        class="cls-5"
        points="15.67 177.34 15.67 177.34 5.7 168.62 5.7 168.62"
      />
      <polygon
        class="cls-5"
        points="15.67 177.34 15.67 177.34 5.7 168.62 5.7 168.62"
      />
      <polygon
        class="cls-6"
        points="15.67 177.34 15.67 177.34 5.7 168.62 5.7 168.62"
      />
      <polygon
        class="cls-5"
        points="173.34 161.98 160.19 69.85 160.19 69.86 160.18 69.74 123.87 129.58"
      />
      <polygon
        class="cls-5"
        points="123.87 129.58 160.18 69.74 151.01 5.5 126.08 5.5 57.55 86.15"
      />
      <polygon
        class="cls-5"
        points="123.87 129.58 160.18 69.74 151.01 5.5 126.08 5.5 57.55 86.15"
      />
      <polygon
        class="cls-7"
        points="106.96 157.46 173.34 161.98 123.87 129.58"
      />
      <polygon
        class="cls-5"
        points="123.84 129.56 106.92 157.46 106.96 157.46 123.87 129.58"
      />
      <polygon
        class="cls-7"
        points="123.84 129.56 106.92 157.46 106.96 157.46 123.87 129.58"
      />
      <polygon
        class="cls-6"
        points="173.34 161.98 201.7 145.74 201.7 132.21 160.19 69.86"
      />
      <polygon class="cls-5" points="173.34 161.98 160.19 69.86 160.19 69.85" />
      <polygon class="cls-6" points="173.34 161.98 160.19 69.86 160.19 69.85" />
      <polygon class="cls-6" points="118.75 269.35 118.8 269.33 118.77 269.3" />
      <polygon
        class="cls-6"
        points="201.7 225.99 151.03 174.75 118.77 269.3 118.8 269.33 201.7 234.11"
      />
      <polygon
        class="cls-6"
        points="201.7 225.99 151.03 174.75 118.77 269.3 118.8 269.33 201.7 234.11"
      />
      <polygon class="cls-6" points="201.7 145.74 151.03 174.75 201.7 225.99" />
      <polygon class="cls-5" points="201.7 145.74 151.03 174.75 201.7 225.99" />
    </g>
    <path
      class="cls-2"
      d="M194,25.75V15h-9.74a9.93,9.93,0,0,1-1-4H24.72a10,10,0,0,1-1,4H14V25.75a11.33,11.33,0,0,1-5,.56V297.06a11.33,11.33,0,0,1,5,.56V309h9.75c1,1,1,5,1,5H183.28a13.4,13.4,0,0,1,1-5H194V298.14a11.5,11.5,0,0,1,5-.56V26.31A11.33,11.33,0,0,1,194,25.75ZM14,26.87V296.5h0a11.18,11.18,0,0,0-4-.5V27.36a11.18,11.18,0,0,0,4-.5ZM193,16v9.42C190,24,186.39,19,184.68,16ZM25.75,12H182.26a14.09,14.09,0,0,1,.86,3H24.88A13,13,0,0,1,25.75,12ZM15,16h8.32C21.61,19,18,24,15,25.42Zm0,292V298c3,1.41,6.61,6.05,8.32,10.05Zm167.26,5H25.75a9.42,9.42,0,0,0-.87-4H183.12A31.42,31.42,0,0,0,182.26,313ZM193,308h-8.32c1.71-3,5.32-8.11,8.32-9.52Zm0-10.62c-4,1.5-7.63,6.62-9.46,10.62H24.46c-1.83-5-5.46-9.64-9.46-11.15V26.52C19,25,22.63,20,24.46,16H183.54c1.83,4,5.46,9,9.46,10.52V297.38Zm5-.85a11.32,11.32,0,0,0-4,.51V26.87h0a11.18,11.18,0,0,0,4,.5V296.53Z"
    />
    <path
      class="cls-2"
      d="M102.37,126.12H80.74a13.37,13.37,0,0,0-13.39,13.36v21.68h35ZM90.65,150.93a4.81,4.81,0,0,1-4.45-1.63,8.53,8.53,0,0,0,2.12,5l-.38.37a5.32,5.32,0,0,0-5.17,0l-.38-.38a8.54,8.54,0,0,0,2.17-4.95,4.83,4.83,0,0,1-4.42,1.54,4.71,4.71,0,0,1-3.89-4.55,4.65,4.65,0,0,1,1.46-3.48,52.9,52.9,0,0,0,7.77-8.39,52.8,52.8,0,0,0,7.67,8.47,4.67,4.67,0,0,1,1.44,3.49A4.74,4.74,0,0,1,90.65,150.93Z"
    />
    <path
      class="cls-2"
      d="m67.35 165.16v21.6a13.37 13.37 0 0 0 13.39 13.36h21.63v-35zm18.08 27.76a63.27 63.27 0 0 0-9.43-10.76 63.36 63.36 0 0 0 9.45-10.78 63.64 63.64 0 0 0 9.49 10.76 63.17 63.17 0 0 0-9.51 10.78z"
    />
    <path
      class="cls-2"
      d="M141.35,161.16V139.48A13.38,13.38,0,0,0,128,126.12H106.37v35Zm-24.5-25.83a5.61,5.61,0,0,1,6.15,3.49,5.62,5.62,0,0,1,6.19-3.42,5.51,5.51,0,0,1,2.85,9.43,61.68,61.68,0,0,0-9.12,9.84,62,62,0,0,0-9-9.94,5.51,5.51,0,0,1,2.94-9.4Z"
    />
    <path
      class="cls-2"
      d="M106.37,200.12H128a13.38,13.38,0,0,0,13.4-13.36v-21.6h-35Zm11-20.53a4.57,4.57,0,0,1,4.51,3.81h.36v-2.79a4.58,4.58,0,1,1,1.63,0v2.8h.35a4.57,4.57,0,1,1,0,1.49h-.36v.62c0,5.24,2.76,6.18,2.76,6.18l-.43.43a6.79,6.79,0,0,0-6.28,0l-.44-.43s2.76-.94,2.77-6.18v-.62h-.36a4.58,4.58,0,1,1-4.51-5.3Z"
    />
  </g>
</svg>
