<svg xmlns="http://www.w3.org/2000/svg" viewBox="0 0 207.85 323.89"><defs><style>.cls-1{fill:#212228;}.cls-2{fill:#fff;}.cls-3,.cls-5{fill:none;}.cls-3{stroke:#fff;stroke-miterlimit:10;}.cls-4{opacity:0.2;}</style></defs><title>classic-back</title><g id="Calque_2" data-name="Calque 2"><g id="CARTES"><path class="cls-1" d="M13.58,321.89A11.65,11.65,0,0,1,2,310.18V13.72A11.66,11.66,0,0,1,13.58,2H194.27a11.67,11.67,0,0,1,11.58,11.72V310.18a11.66,11.66,0,0,1-11.58,11.71Z"/><path class="cls-2" d="M194.27,4a9.66,9.66,0,0,1,9.58,9.72V310.18a9.65,9.65,0,0,1-9.58,9.71H13.58A9.65,9.65,0,0,1,4,310.18V13.72A9.66,9.66,0,0,1,13.58,4H194.27m0-4H13.58A13.65,13.65,0,0,0,0,13.72V310.18a13.65,13.65,0,0,0,13.58,13.71H194.27a13.65,13.65,0,0,0,13.58-13.71V13.72A13.65,13.65,0,0,0,194.27,0Z"/><path class="cls-2" d="M191.92,26.64V16h-9.2a13.88,13.88,0,0,1-1-5H26.08a13.77,13.77,0,0,1-.95,5H15.92V26.64a11.42,11.42,0,0,1-5,.55v269a11.33,11.33,0,0,1,5,.56V308h9.21c1,1,.95,5,.95,5H181.76a13.88,13.88,0,0,1,1-5h9.2V297.26a11.5,11.5,0,0,1,5-.56V27.19A11.42,11.42,0,0,1,191.92,26.64Zm-176,1.11V295.63h0a11.18,11.18,0,0,0-4-.5V28.24a11.45,11.45,0,0,0,4-.5ZM190.92,17v9.31c-3-1.4-6.1-6.31-7.78-9.31ZM27.09,12H180.76a34.26,34.26,0,0,0,.84,4H26.24A34.86,34.86,0,0,0,27.09,12ZM16.92,17h7.79c-1.68,3-4.79,7.91-7.79,9.31Zm0,290v-9.93c3,1.4,6.11,5.93,7.79,9.93Zm163.84,5H27.09a9.63,9.63,0,0,0-.85-4H181.6A34.26,34.26,0,0,0,180.76,312Zm10.16-5h-7.78c1.68-3,4.78-8,7.78-9.41Zm0-10.5c-4,1.5-7.11,6.5-8.9,10.5H25.83c-1.8-5-4.91-9.53-8.91-11V27.4c4-1.5,7.11-6.4,8.91-10.4H182c1.79,4,4.9,8.9,8.9,10.4V296.5Zm5-.84a11.32,11.32,0,0,0-4,.51V27.75h0a11.45,11.45,0,0,0,4,.5V295.66Z"/><path class="cls-3" d="M20.24,30.17c4.31-.61,8.13-5.67,8.22-9.67H178.08s2.34,9.11,9.34,11.47V293s-7.25,4.53-8,11.53H28.73s-3-10.29-9.13-11.12C19.6,286.82,20.24,30.17,20.24,30.17Z"/><g class="cls-4"><path class="cls-5" d="M28,23.68l-5.38,5.4A11.25,11.25,0,0,0,28,23.68Z"/><path class="cls-5" d="M20.23,189.28,181.78,27.15a18,18,0,0,1-2.5-4.4l-159,159.61C20.24,184.67,20.23,187,20.23,189.28Z"/><path class="cls-5" d="M20.09,248.12,187.31,80.3V73.39L20.1,241.2C20.1,243.56,20.09,245.87,20.09,248.12Z"/><path class="cls-5" d="M20.11,239.71l167.2-167.8V65L20.12,232.79C20.12,235.14,20.11,237.45,20.11,239.71Z"/><path class="cls-5" d="M20.25,180.87,178.87,21.67c-.29-.87-.41-1.43-.41-1.43h-5L20.26,174C20.26,176.26,20.25,178.57,20.25,180.87Z"/><path class="cls-5" d="M20.13,231.31,187.31,63.52v-6.9L20.14,224.39C20.14,226.73,20.13,229,20.13,231.31Z"/><path class="cls-5" d="M164.69,304.24l22.62-22.69v-6.91l-29.5,29.6Z"/><path class="cls-5" d="M148,304.24l39.33-39.46v-6.9L141.1,304.24Z"/><path class="cls-5" d="M139.63,304.24l47.68-47.85v-6.9l-54.56,54.75Z"/><path class="cls-5" d="M20.07,256.52,187.31,88.68v-6.9L20.08,249.6C20.08,252,20.07,254.29,20.07,256.52Z"/><path class="cls-5" d="M20.15,222.9,187.31,55.14V48.23L20.16,216C20.16,218.32,20.15,220.62,20.15,222.9Z"/><path class="cls-5" d="M173.05,304.24l14.26-14.3V283l-21.14,21.21Z"/><path class="cls-5" d="M156.34,304.24l31-31.07v-6.91l-37.85,38Z"/><path class="cls-5" d="M179.77,304.24c.78-7,7.54-12,7.54-12v-.81l-12.79,12.83Z"/><path class="cls-5" d="M20.58,46.37l26-26.13H39.73L20.59,39.45C20.59,41.48,20.58,43.8,20.58,46.37Z"/><path class="cls-5" d="M20.54,63.18,63.32,20.24H56.44l-35.89,36C20.55,58.46,20.54,60.77,20.54,63.18Z"/><path class="cls-5" d="M20.52,71.59,71.68,20.24H64.8L20.53,64.67C20.53,66.9,20.52,69.2,20.52,71.59Z"/><path class="cls-5" d="M20.49,80,80,20.24H73.15L20.51,73.07Q20.51,76.44,20.49,80Z"/><path class="cls-5" d="M20.47,88.4,88.39,20.24H81.51l-61,61.24Q20.49,84.87,20.47,88.4Z"/><path class="cls-5" d="M20.45,96.81,96.74,20.24H89.87L20.47,89.89C20.47,92.16,20.46,94.46,20.45,96.81Z"/><path class="cls-5" d="M28,23.68a11.25,11.25,0,0,1-5.38,5.4l-1.95,2c0,1.37,0,3.72,0,6.92L38.26,20.24H31.38Z"/><path class="cls-5" d="M28.84,20.24a7.24,7.24,0,0,1-.14,1.21l1.2-1.21Z"/><path class="cls-5" d="M131.27,304.24l56-56.23V241.1l-62.92,63.14Z"/><path class="cls-5" d="M20.56,54.78,55,20.24H48.09L20.57,47.86C20.57,50,20.56,52.32,20.56,54.78Z"/><path class="cls-5" d="M20.41,113.62l93-93.38h-6.87L20.43,106.7C20.42,109,20.42,111.29,20.41,113.62Z"/><path class="cls-5" d="M20.35,138.84,138.52,20.24h-6.88L20.37,131.92C20.36,134.21,20.36,136.52,20.35,138.84Z"/><path class="cls-5" d="M20.33,147.25l126.55-127H140L20.35,140.32C20.34,142.62,20.34,144.93,20.33,147.25Z"/><path class="cls-5" d="M20.19,206.09,187.31,38.37V31.46L20.2,199.17C20.2,201.49,20.19,203.8,20.19,206.09Z"/><path class="cls-5" d="M20.21,197.68,186.43,30.86a11.9,11.9,0,0,1-4-2.91L20.22,190.76C20.22,193.08,20.21,195.39,20.21,197.68Z"/><path class="cls-5" d="M20.39,122,121.81,20.24h-6.88L20.41,115.11C20.4,117.39,20.4,119.7,20.39,122Z"/><path class="cls-5" d="M20.17,214.49,187.31,46.75v-6.9L20.18,207.57C20.18,209.9,20.17,212.21,20.17,214.49Z"/><path class="cls-5" d="M20.37,130.43,130.17,20.24h-6.88L20.39,123.52C20.38,125.81,20.38,128.11,20.37,130.43Z"/><path class="cls-5" d="M20.43,105.22l84.67-85H98.22L20.45,98.29C20.44,100.57,20.44,102.88,20.43,105.22Z"/><path class="cls-5" d="M20.05,264.93,187.31,97.07V90.16L20.06,258C20.06,260.42,20.05,262.72,20.05,264.93Z"/><path class="cls-5" d="M89.5,304.24l97.81-98.16v-6.91L82.62,304.24Z"/><path class="cls-5" d="M20,273.34,187.31,105.46V98.55L20,266.42C20,268.86,20,271.18,20,273.34Z"/><path class="cls-5" d="M81.14,304.24,187.31,197.69v-6.9l-113,113.45Z"/><path class="cls-5" d="M97.85,304.24l89.46-89.77v-6.91L91,304.24Z"/><path class="cls-5" d="M29.11,304.24H31l156.3-156.86v-6.9L27.72,300.64A27.6,27.6,0,0,1,29.11,304.24Z"/><path class="cls-5" d="M72.78,304.24,187.31,189.31V182.4L65.9,304.24Z"/><path class="cls-5" d="M106.2,304.24l81.11-81.39V216l-88,88.29Z"/><path class="cls-5" d="M47.72,304.24,187.31,164.15v-6.9l-146.47,147Z"/><path class="cls-5" d="M39.36,304.24l148-148.47v-6.91L32.48,304.24Z"/><path class="cls-5" d="M56.07,304.24l131.24-131.7v-6.91L49.19,304.24Z"/><path class="cls-5" d="M64.43,304.24,187.31,180.92V174L57.55,304.24Z"/><path class="cls-5" d="M20,281.74l167.3-167.9v-6.9L20,274.82C20,277.37,20,279.68,20,281.74Z"/><path class="cls-5" d="M20.29,164.06,163.59,20.24h-6.88L20.31,157.14Z"/><path class="cls-5" d="M122.92,304.24l64.39-64.62v-6.9L116,304.24Z"/><path class="cls-5" d="M20.31,155.65,155.23,20.24h-6.88l-128,128.49Q20.32,152.18,20.31,155.65Z"/><path class="cls-5" d="M20.27,172.46,171.94,20.24h-6.88L20.29,165.54Q20.28,169,20.27,172.46Z"/><path class="cls-5" d="M114.56,304.24l72.75-73v-6.91l-79.63,79.91Z"/><path class="cls-5" d="M20,293a7,7,0,0,1,3.71,1.82L187.31,130.61v-6.9L20,291.63C20,292.33,20,292.79,20,293Z"/><path class="cls-5" d="M20,290.14,187.31,122.23v-6.91L20,283.23C20,286.15,20,288.48,20,290.14Z"/><path class="cls-5" d="M27.23,299.64,187.31,139v-6.91L24.44,295.54A18,18,0,0,1,27.23,299.64Z"/><path class="cls-2" d="M31.38,20.24H29.9l-1.2,1.21A9.3,9.3,0,0,1,28,23.68Z"/><path class="cls-2" d="M20.62,29.66V31l1.95-2A7.54,7.54,0,0,1,20.62,29.66Z"/><path class="cls-2" d="M20.59,39.45,39.73,20.24H38.26L20.6,38C20.6,38.44,20.6,38.93,20.59,39.45Z"/><path class="cls-2" d="M20.57,47.86,48.09,20.24H46.61l-26,26.13C20.58,46.85,20.58,47.35,20.57,47.86Z"/><path class="cls-2" d="M20.55,56.26l35.89-36H55L20.56,54.78C20.56,55.26,20.55,55.76,20.55,56.26Z"/><path class="cls-2" d="M20.53,64.67,64.8,20.24H63.32L20.54,63.18C20.54,63.67,20.53,64.17,20.53,64.67Z"/><path class="cls-2" d="M20.51,73.07,73.15,20.24H71.68L20.52,71.59Z"/><path class="cls-2" d="M20.49,81.48l61-61.24H80L20.49,80Z"/><path class="cls-2" d="M20.47,89.89l69.4-69.65H88.39L20.47,88.4Z"/><path class="cls-2" d="M20.45,98.29,98.22,20.24H96.74L20.45,96.81Z"/><path class="cls-2" d="M20.43,106.7l86.15-86.46H105.1l-84.67,85Z"/><path class="cls-2" d="M20.41,115.11l94.52-94.87h-1.48l-93,93.38Z"/><path class="cls-2" d="M20.39,123.52,123.29,20.24h-1.48L20.39,122Z"/><path class="cls-2" d="M20.37,131.92,131.64,20.24h-1.47L20.37,130.43Z"/><path class="cls-2" d="M20.35,140.32,140,20.24h-1.48L20.35,138.84Z"/><path class="cls-2" d="M20.33,148.73l128-128.49h-1.47l-126.55,127Z"/><path class="cls-2" d="M20.31,157.14l136.4-136.9h-1.48L20.31,155.65Z"/><path class="cls-2" d="M20.29,165.54,165.06,20.24h-1.47L20.29,164.06Z"/><path class="cls-2" d="M20.26,174,173.42,20.24h-1.48L20.27,172.46Z"/><path class="cls-2" d="M20.24,182.36l159-159.61c-.16-.39-.3-.76-.41-1.08L20.25,180.87Z"/><path class="cls-2" d="M20.22,190.76,182.45,28c-.24-.26-.46-.53-.67-.8L20.23,189.28C20.23,189.77,20.22,190.27,20.22,190.76Z"/><path class="cls-2" d="M20.2,199.17,187.31,31.46v-.24c-.31-.11-.59-.24-.88-.36L20.21,197.68Z"/><path class="cls-2" d="M20.18,207.57,187.31,39.85V38.37L20.19,206.09Z"/><path class="cls-2" d="M20.16,216,187.31,48.23V46.75L20.17,214.49Z"/><path class="cls-2" d="M20.14,224.39,187.31,56.62V55.14L20.15,222.9Z"/><path class="cls-2" d="M20.12,232.79,187.31,65V63.52L20.13,231.31Z"/><path class="cls-2" d="M20.1,241.2,187.31,73.39V71.91L20.11,239.71C20.1,240.21,20.1,240.71,20.1,241.2Z"/><path class="cls-2" d="M20.08,249.6,187.31,81.78V80.3L20.09,248.12Z"/><path class="cls-2" d="M20.06,258,187.31,90.16V88.68L20.07,256.52C20.06,257,20.06,257.52,20.06,258Z"/><path class="cls-2" d="M20,266.42,187.31,98.55V97.07L20.05,264.93C20,265.43,20,265.93,20,266.42Z"/><path class="cls-2" d="M20,274.82,187.31,106.94v-1.48L20,273.34C20,273.84,20,274.34,20,274.82Z"/><path class="cls-2" d="M20,283.23,187.31,115.32v-1.48L20,281.74C20,282.25,20,282.75,20,283.23Z"/><path class="cls-2" d="M20,291.63,187.31,123.71v-1.48L20,290.14Z"/><path class="cls-2" d="M24.44,295.54,187.31,132.09v-1.48L23.69,294.82Q24.08,295.17,24.44,295.54Z"/><path class="cls-2" d="M27.72,300.64,187.31,140.48V139L27.23,299.64C27.41,300,27.57,300.31,27.72,300.64Z"/><path class="cls-2" d="M32.48,304.24,187.31,148.86v-1.48L31,304.24Z"/><path class="cls-2" d="M40.84,304.24l146.47-147v-1.48L39.36,304.24Z"/><path class="cls-2" d="M49.19,304.24,187.31,165.63v-1.48L47.72,304.24Z"/><path class="cls-2" d="M57.55,304.24,187.31,174v-1.48L56.07,304.24Z"/><path class="cls-2" d="M65.9,304.24,187.31,182.4v-1.48L64.43,304.24Z"/><path class="cls-2" d="M74.26,304.24,187.31,190.79v-1.48L72.78,304.24Z"/><path class="cls-2" d="M82.62,304.24,187.31,199.17v-1.48L81.14,304.24Z"/><path class="cls-2" d="M91,304.24l96.34-96.68v-1.48L89.5,304.24Z"/><path class="cls-2" d="M99.33,304.24l88-88.29v-1.48L97.85,304.24Z"/><path class="cls-2" d="M107.68,304.24l79.63-79.91v-1.48L106.2,304.24Z"/><path class="cls-2" d="M116,304.24l71.27-71.52v-1.48l-72.75,73Z"/><path class="cls-2" d="M124.39,304.24l62.92-63.14v-1.48l-64.39,64.62Z"/><path class="cls-2" d="M132.75,304.24l54.56-54.75V248l-56,56.23Z"/><path class="cls-2" d="M141.1,304.24l46.21-46.36v-1.49l-47.68,47.85Z"/><path class="cls-2" d="M149.46,304.24l37.85-38v-1.48L148,304.24Z"/><path class="cls-2" d="M157.81,304.24l29.5-29.6v-1.47l-31,31.07Z"/><path class="cls-2" d="M166.17,304.24,187.31,283v-1.48l-22.62,22.69Z"/><path class="cls-2" d="M174.52,304.24l12.79-12.83v-1.47l-14.26,14.3Z"/></g><path class="cls-1" d="M104,211c-27.26,0-49.44-21.87-49.44-48.74S76.69,113.51,104,113.51s49.45,21.86,49.45,48.73S131.22,211,104,211Z"/><path class="cls-2" d="M104,114c27,0,49,21.6,49,48.23S131,210.48,104,210.48,55,188.88,55,162.24,76.92,114,104,114m0-1C76.41,113,54,135.1,54,162.24s22.4,49.24,49.94,49.24,50-22.09,50-49.24S131.49,113,104,113Z"/><path class="cls-2" d="M102.64,138.24h-14a8.68,8.68,0,0,0-8.69,8.67V161h22.72ZM95,154.33a3.1,3.1,0,0,1-2.89-1.06,5.57,5.57,0,0,0,1.38,3.26l-.25.25a4.17,4.17,0,0,0-1.67-.45,4.4,4.4,0,0,0-1.68.43l-.25-.25a5.49,5.49,0,0,0,1.41-3.21,3.13,3.13,0,0,1-2.87,1,3.06,3.06,0,0,1-2.52-3,3,3,0,0,1,.94-2.26,33.69,33.69,0,0,0,5-5.44,34.23,34.23,0,0,0,5,5.49,3,3,0,0,1,.93,2.27A3.05,3.05,0,0,1,95,154.33Z"/><path class="cls-2" d="M79.92,163.56v14a8.68,8.68,0,0,0,8.69,8.66h14V163.56Zm11.73,18a41.06,41.06,0,0,0-6.15-7,41.06,41.06,0,0,0,6.14-7,41.06,41.06,0,0,0,6.15,7A41.5,41.5,0,0,0,91.65,181.57Z"/><path class="cls-2" d="M127.92,161V146.91a8.67,8.67,0,0,0-8.68-8.67h-14V161ZM112,144.22a3.63,3.63,0,0,1,4,2.26,3.63,3.63,0,0,1,4-2.22,3.58,3.58,0,0,1,1.85,6.12,39.75,39.75,0,0,0-5.92,6.38,39.65,39.65,0,0,0-5.85-6.45,3.55,3.55,0,0,1-1.08-2.66A3.59,3.59,0,0,1,112,144.22Z"/><path class="cls-2" d="M105.24,186.24h14a8.67,8.67,0,0,0,8.68-8.66v-14H105.24Zm7.16-13.31a3,3,0,0,1,2.93,2.47h.23v-1.82a2.94,2.94,0,1,1,1.06,0v1.81h.23a3,3,0,1,1,0,1h-.23v.4c0,3.4,1.79,4,1.79,4l-.29.27a4.39,4.39,0,0,0-4.07,0l-.28-.28s1.79-.61,1.79-4v-.4h-.23a3,3,0,1,1-2.93-3.43Z"/></g></g></svg>