<svg xmlns="http://www.w3.org/2000/svg" viewBox="0 0 208 326"><defs><style>.cls-1{fill:#3b3b3c;}.cls-2,.cls-4,.cls-5,.cls-6{fill:#fff;}.cls-3{fill:none;}.cls-4{opacity:0.05;}.cls-5{opacity:0.1;}.cls-6{opacity:0.15;}.cls-7{fill:#e74c3c;}.cls-8{fill:#98c301;}.cls-9{fill:#f39c13;}.cls-10{fill:#9b59b6;}.cls-11{fill:#5e8b99;}</style></defs><title>funbridge2-back</title><g id="Calque_2" data-name="Calque 2"><g id="CARTES"><path class="cls-1" d="M13.59,324A11.71,11.71,0,0,1,2,312.2V13.81A11.72,11.72,0,0,1,13.59,2H194.41A11.72,11.72,0,0,1,206,13.81V312.2A11.71,11.71,0,0,1,194.41,324Z"/><path class="cls-2" d="M194.41,4A9.71,9.71,0,0,1,204,13.81V312.2a9.71,9.71,0,0,1-9.59,9.8H13.59A9.71,9.71,0,0,1,4,312.2V13.81A9.71,9.71,0,0,1,13.59,4H194.41m0-4H13.59A13.71,13.71,0,0,0,0,13.81V312.2A13.7,13.7,0,0,0,13.59,326H194.41A13.69,13.69,0,0,0,208,312.2V13.81A13.7,13.7,0,0,0,194.41,0Z"/><path class="cls-1" d="M13.59,319.65a7.41,7.41,0,0,1-7.35-7.45V13.81a7.42,7.42,0,0,1,7.35-7.46H194.41a7.42,7.42,0,0,1,7.35,7.46V312.2a7.41,7.41,0,0,1-7.35,7.45Z"/><polygon class="cls-3" points="107.31 157.46 67.81 222.57 202.05 145.74 202.05 145.74 173.68 161.98 107.31 157.46"/><polygon class="cls-3" points="119.15 269.33 119.1 269.35 119.12 269.3 67.79 222.61 67.78 222.62 96.77 319.5 174.3 319.5 119.15 269.33"/><path class="cls-3" d="M160.54,69.85l41.51,62.36V13.31a8.05,8.05,0,0,0-3.4-6.42L160.52,69.74Z"/><polygon class="cls-3" points="124.22 129.58 173.68 161.98 124.22 129.58 124.22 129.58"/><polygon class="cls-4" points="67.78 222.62 67.79 222.61 67.77 222.59 67.78 222.62"/><path class="cls-4" d="M124.19,129.56l0,0h0L57.9,86.15,126.43,5.5H13.64a7.9,7.9,0,0,0-7.37,6.07l101,145.89Z"/><polygon class="cls-4" points="16.02 177.34 67.77 222.59 67.81 222.57 107.31 157.46 107.27 157.46 16.02 177.34"/><path class="cls-4" d="M151.36,5.5l9.16,64.24L198.65,6.89a7.23,7.23,0,0,0-4.19-1.39Z"/><path class="cls-4" d="M9.74,318.3a7.17,7.17,0,0,0,3.9,1.2H96.77l-29-96.88Z"/><path class="cls-4" d="M16,177.34h0l-10-8.72V311.7a8,8,0,0,0,3.69,6.6l58-95.68v0Z"/><path class="cls-4" d="M16,177.34h0l-10-8.72V311.7a8,8,0,0,0,3.69,6.6l58-95.68v0Z"/><polygon class="cls-5" points="67.79 222.61 119.12 269.3 151.38 174.75 202.05 145.74 202.05 145.74 67.81 222.57 67.79 222.61"/><path class="cls-5" d="M202.05,311.7V234.11l-82.9,35.22L174.3,319.5h20.16A7.93,7.93,0,0,0,202.05,311.7Z"/><polygon class="cls-5" points="202.05 225.99 151.38 174.75 202.05 225.99 202.05 225.99"/><polygon class="cls-4" points="67.77 222.59 67.79 222.61 67.81 222.57 67.77 222.59"/><polygon class="cls-5" points="67.77 222.59 67.79 222.61 67.81 222.57 67.77 222.59"/><path class="cls-4" d="M107.27,157.46,6.27,11.57a7.28,7.28,0,0,0-.22,1.74V168.62l10,8.72Z"/><path class="cls-5" d="M107.27,157.46,6.27,11.57a7.28,7.28,0,0,0-.22,1.74V168.62l10,8.72Z"/><polygon class="cls-4" points="16.02 177.34 16.02 177.34 6.05 168.62 6.05 168.62 16.02 177.34"/><polygon class="cls-4" points="16.02 177.34 16.02 177.34 6.05 168.62 6.05 168.62 16.02 177.34"/><polygon class="cls-5" points="16.02 177.34 16.02 177.34 6.05 168.62 6.05 168.62 16.02 177.34"/><polygon class="cls-4" points="173.68 161.98 160.54 69.85 160.54 69.85 160.52 69.74 124.22 129.58 173.68 161.98"/><polygon class="cls-4" points="124.22 129.58 160.52 69.74 151.36 5.5 126.43 5.5 57.9 86.15 124.22 129.58"/><polygon class="cls-4" points="124.22 129.58 160.52 69.74 151.36 5.5 126.43 5.5 57.9 86.15 124.22 129.58"/><polygon class="cls-6" points="107.31 157.46 173.68 161.98 124.22 129.58 107.31 157.46"/><polygon class="cls-4" points="124.19 129.56 107.27 157.46 107.31 157.46 124.22 129.58 124.19 129.56"/><polygon class="cls-6" points="124.19 129.56 107.27 157.46 107.31 157.46 124.22 129.58 124.19 129.56"/><polygon class="cls-5" points="173.68 161.98 202.05 145.74 202.05 132.21 160.54 69.85 173.68 161.98"/><polygon class="cls-4" points="173.68 161.98 160.54 69.85 160.54 69.85 173.68 161.98"/><polygon class="cls-5" points="173.68 161.98 160.54 69.85 160.54 69.85 173.68 161.98"/><polygon class="cls-5" points="119.1 269.35 119.15 269.33 119.12 269.3 119.1 269.35"/><polygon class="cls-5" points="202.05 225.99 151.38 174.75 119.12 269.3 119.15 269.33 202.05 234.11 202.05 225.99"/><polygon class="cls-5" points="202.05 225.99 151.38 174.75 119.12 269.3 119.15 269.33 202.05 234.11 202.05 225.99"/><polygon class="cls-5" points="202.05 145.74 151.38 174.75 202.05 225.99 202.05 145.74"/><polygon class="cls-4" points="202.05 145.74 151.38 174.75 202.05 225.99 202.05 145.74"/><path class="cls-7" d="M153.08,278.86a.79.79,0,0,0-1-.65l-3.65,1a.92.92,0,0,0-.48,1.05l.3,1.32L144,282.85a.87.87,0,0,0-.59.92.39.39,0,0,0,0,.15l2.07,9.09h10.78Z"/><path class="cls-2" d="M100.79,300.83h6.58v.83h-6.58v5.18h-.88V295.39h7.69v.89h-6.81Z"/><path class="cls-2" d="M118.29,295.39v7.1c0,6-8.75,6-8.75,0v-7.1h.87v7.1a3.51,3.51,0,1,0,7,0v-7.1Z"/><path class="cls-2" d="M121.08,295.39l7.69,9.45v-9.45h.87v11.43h-.35l-7.7-9.43v9.43h-.88V295.39Z"/><path class="cls-2" d="M141.23,298.71a2.32,2.32,0,0,1-1.49,2.2,2.79,2.79,0,0,1,1.83,2.55c0,2.54-1.91,3.36-4.28,3.36h-5.42V295.39h5.42C139.54,295.39,141.23,296.41,141.23,298.71ZM134,300h3.29c1.36,0,1.8-.57,1.8-1.22s-.43-1.41-1.8-1.41H134Zm0,4.83h3.29c.88,0,2.14-.29,2.14-1.37s-1.26-1.57-2.14-1.57H134Z"/><path class="cls-2" d="M153.22,306.82h-2.56L147.33,303h-2.07v3.82h-2.15V295.38h5.43a3.79,3.79,0,0,1,4.11,3.79,3.39,3.39,0,0,1-2.89,3.59l3.46,3.9Zm-8-9.42v3.66h3.28a1.83,1.83,0,1,0,0-3.66Z"/><path class="cls-2" d="M154.12,306.82V295.39h2.14v11.43Z"/><path class="cls-2" d="M168.34,301a5.41,5.41,0,0,1-5.71,5.81h-4.49V295.39h4.49A5.4,5.4,0,0,1,168.34,301Zm-8.06,3.74h2.35a3.66,3.66,0,0,0,0-7.31h-2.35Z"/><path class="cls-2" d="M178.25,298.19a4.37,4.37,0,0,0-2.91-1.15,3.9,3.9,0,0,0-3.93,4.21,3.61,3.61,0,0,0,3.93,3.82,3.77,3.77,0,0,0,2.58-.91v-2H175v-1.92h4.9V305a5.71,5.71,0,0,1-4.56,2.06c-4.29,0-6-2.82-6-5.83,0-3.21,2-6.18,6-6.18a6.08,6.08,0,0,1,4.25,1.74Z"/><path class="cls-2" d="M190.18,306.82h-8.55V295.39h8.55v2.09h-6.41v2.63H190v2h-6.18v2.58h6.41Z"/><path class="cls-8" d="M113.17,282.7l-7.7-3.05a1,1,0,0,0-1,.36c-.29,0-4.61,13-4.61,13h10.81l3-9.33A.77.77,0,0,0,113.17,282.7Z"/><path class="cls-9" d="M124,281.8c0-.08-.85-.37-.84-.45L118.38,279a.79.79,0,0,0-1,.36L110.69,293h11.45l2.47-5.05Z"/><path class="cls-10" d="M133.21,279.31a.79.79,0,0,0-.94-.59l-8.52,1.93a.77.77,0,0,0-.6.7.6.6,0,0,0,0,.23l1.45,6.38,1.14,5.05h6.14l.56-.16,2.53-5.73Z"/><path class="cls-2" d="M127,287.76a19.49,19.49,0,0,0,2-3.9,19.27,19.27,0,0,0,3.6,2.5,19.25,19.25,0,0,0-2,3.9A19,19,0,0,0,127,287.76Z"/><path class="cls-2" d="M109.66,288.44a17.66,17.66,0,0,1-1.1-3.69,17.68,17.68,0,0,1-3.57,1.43,1.62,1.62,0,0,0-.95.85,1.59,1.59,0,0,0,2.08,2.12,2.86,2.86,0,0,1-1.38,1.2l.06.17a2.25,2.25,0,0,1,.89.18,2.17,2.17,0,0,1,.68.58l.17-.06a2.87,2.87,0,0,1,.08-1.84,1.61,1.61,0,0,0,1.12,1.14,1.59,1.59,0,0,0,1.85-.81A1.61,1.61,0,0,0,109.66,288.44Z"/><path class="cls-2" d="M117.56,291a18.7,18.7,0,0,1,3.74-1.45,1.67,1.67,0,0,0,1-.88,1.65,1.65,0,0,0-.51-2,1.67,1.67,0,0,0-2.11.1,1.66,1.66,0,0,0-3.13-.92,1.65,1.65,0,0,0-.09,1.32A18.54,18.54,0,0,1,117.56,291Z"/><polygon class="cls-2" points="152.79 290.09 150.54 288.22 151.67 285.52 151.02 285.25 149.98 287.75 147.9 286.02 147.45 286.56 149.69 288.43 148.57 291.13 149.22 291.4 150.26 288.9 152.34 290.63 152.79 290.09"/><path class="cls-11" d="M146.52,285a.78.78,0,0,0-.4-1l-7.37-3.79a1,1,0,0,0-1,.26c-.29,0-5.87,12.55-5.87,12.55h11.2Z"/><path class="cls-2" d="M141.69,288.7c-.53-.27-1.1,0-1.51.05a1.16,1.16,0,0,1-.5-.08l0,0h0c.06-.11.1-.18.11-.21a1.12,1.12,0,0,1,.33-.32c.35-.21,1-.28,1.26-.8a1.11,1.11,0,1,0-2-1c-.27.52.05,1.08.07,1.49a1.22,1.22,0,0,1-.06.46,1.62,1.62,0,0,0-.14.25,1.16,1.16,0,0,1-.35-.35c-.23-.35-.3-1-.84-1.25a1,1,0,0,0-1.53.43,1.06,1.06,0,0,0,.54,1.5c.53.27,1.09,0,1.5-.05a1.09,1.09,0,0,1,.49.08l-.43.84c-.36.69-1.7.82-1.7.82l2.4,1.24s-.68-1.18-.33-1.87c.15-.28.31-.58.44-.84a1.11,1.11,0,0,1,.36.36c.22.34.3,1,.83,1.25a1.09,1.09,0,1,0,1-1.93Z"/><path class="cls-7" d="M54.86,47.14a.79.79,0,0,0,1,.65l3.65-1a.92.92,0,0,0,.48-1l-.3-1.32,4.26-1.23a.88.88,0,0,0,.6-.92.8.8,0,0,0,0-.15L62.41,33H51.64Z"/><path class="cls-2" d="M107.15,25.17h-6.58v-.83h6.58V19.16H108V30.61h-7.69v-.89h6.81Z"/><path class="cls-2" d="M89.65,30.61v-7.1c0-6,8.75-6,8.75,0v7.1h-.87v-7.1a3.51,3.51,0,1,0-7,0v7.1Z"/><path class="cls-2" d="M86.86,30.61l-7.69-9.45v9.45H78.3V19.18h.35l7.7,9.43V19.18h.88V30.61Z"/><path class="cls-2" d="M66.71,27.29a2.32,2.32,0,0,1,1.49-2.2,2.79,2.79,0,0,1-1.83-2.55c0-2.54,1.91-3.36,4.28-3.36h5.42V30.61H70.65C68.4,30.61,66.71,29.59,66.71,27.29ZM74,26h-3.3c-1.36,0-1.8.57-1.8,1.22s.43,1.41,1.8,1.41H74Zm0-4.83h-3.3c-.88,0-2.14.29-2.14,1.37s1.26,1.57,2.14,1.57H74Z"/><path class="cls-2" d="M54.72,19.18h2.56L60.61,23h2.07V19.18h2.16V30.62H59.4a3.79,3.79,0,0,1-4.11-3.79,3.39,3.39,0,0,1,2.89-3.59l-3.46-3.9Zm8,9.42V24.94H59.4a1.83,1.83,0,1,0,0,3.66Z"/><path class="cls-2" d="M53.82,19.18V30.61H51.68V19.18Z"/><path class="cls-2" d="M39.6,25a5.41,5.41,0,0,1,5.71-5.81H49.8V30.61H45.31A5.4,5.4,0,0,1,39.6,25Zm8.06-3.74H45.31A3.4,3.4,0,0,0,41.74,25a3.39,3.39,0,0,0,3.57,3.55h2.35Z"/><path class="cls-2" d="M29.69,27.81A4.37,4.37,0,0,0,32.6,29a3.89,3.89,0,0,0,3.93-4.21,3.61,3.61,0,0,0-3.93-3.82,3.79,3.79,0,0,0-2.58.91v2h2.92v1.92H28V21a5.71,5.71,0,0,1,4.56-2.06c4.29,0,6,2.82,6,5.83,0,3.21-2,6.18-6,6.18a6.08,6.08,0,0,1-4.25-1.74Z"/><path class="cls-2" d="M17.76,19.18h8.55V30.61H17.76V28.52h6.41V25.89H18v-2h6.18V21.3H17.76Z"/><path class="cls-8" d="M94.77,43.3l7.7,3.05a1,1,0,0,0,1-.36c.29,0,4.61-13,4.61-13H97.25l-3,9.33A.78.78,0,0,0,94.77,43.3Z"/><path class="cls-9" d="M84,44.2c0,.08.85.37.84.45L89.56,47a.78.78,0,0,0,1-.36L97.25,33H85.8l-2.46,5Z"/><path class="cls-10" d="M74.74,46.69a.77.77,0,0,0,.93.59l8.52-1.93a.77.77,0,0,0,.6-.7.6.6,0,0,0,0-.23L83.34,38l-1.15-5H76.05l-.56.16L73,38.88Z"/><path class="cls-2" d="M80.91,38.24a19.49,19.49,0,0,0-2,3.9,19.27,19.27,0,0,0-3.6-2.5,19.25,19.25,0,0,0,2-3.9A19.39,19.39,0,0,0,80.91,38.24Z"/><path class="cls-2" d="M98.28,37.56a17.66,17.66,0,0,1,1.1,3.69A17.68,17.68,0,0,1,103,39.82a1.62,1.62,0,0,0,1-.85,1.59,1.59,0,0,0-2.08-2.12,2.91,2.91,0,0,1,1.38-1.2l-.06-.17a2.18,2.18,0,0,1-.88-.18,2.14,2.14,0,0,1-.69-.58l-.17.06a2.87,2.87,0,0,1-.08,1.84,1.61,1.61,0,0,0-1.12-1.14,1.59,1.59,0,0,0-1.92,2.08Z"/><path class="cls-2" d="M90.38,35a18.7,18.7,0,0,1-3.74,1.45,1.67,1.67,0,0,0-1,.88,1.64,1.64,0,0,0,.52,2,1.66,1.66,0,0,0,2.1-.1,1.66,1.66,0,0,0,3.13.92,1.65,1.65,0,0,0,.09-1.32A18.54,18.54,0,0,1,90.38,35Z"/><polygon class="cls-2" points="55.15 35.91 57.4 37.78 56.27 40.48 56.92 40.75 57.96 38.25 60.05 39.98 60.49 39.44 58.25 37.57 59.37 34.87 58.72 34.6 57.68 37.1 55.6 35.37 55.15 35.91"/><path class="cls-11" d="M61.42,41a.77.77,0,0,0,.41,1l7.36,3.79a1,1,0,0,0,1-.26c.29,0,5.87-12.55,5.87-12.55H64.88Z"/><path class="cls-2" d="M66.25,37.3c.54.27,1.1,0,1.51,0a1.16,1.16,0,0,1,.5.08l0,0h0a1.65,1.65,0,0,1-.11.21,1,1,0,0,1-.33.32c-.35.21-1,.28-1.26.8a1.11,1.11,0,1,0,2,1c.27-.52,0-1.08-.07-1.49a1,1,0,0,1,.07-.46l.13-.25a1.16,1.16,0,0,1,.35.35c.23.35.31,1,.84,1.25a1.09,1.09,0,1,0,1-1.93c-.53-.27-1.09,0-1.5,0a1.11,1.11,0,0,1-.49-.08l.43-.84c.36-.69,1.7-.82,1.7-.82l-2.4-1.24s.68,1.18.33,1.87c-.15.28-.31.58-.44.84a1.22,1.22,0,0,1-.36-.36c-.22-.34-.3-1-.83-1.25a1.09,1.09,0,1,0-1,1.93Z"/></g></g></svg>