<svg xmlns="http://www.w3.org/2000/svg" viewBox="0 0 208 323.9"><defs><style>.cls-1{fill:#72627f;}.cls-2,.cls-5,.cls-6,.cls-7{fill:#fff;}.cls-3{opacity:0.85;}.cls-4,.cls-8{fill:none;}.cls-5{opacity:0.05;}.cls-6{opacity:0.1;}.cls-7{opacity:0.15;}.cls-8{stroke:#fff;stroke-miterlimit:10;stroke-width:2px;}</style></defs><title>purple-back</title><g id="Calque_2" data-name="Calque 2"><g id="CARTES"><path class="cls-1" d="M13.59,321.9A11.67,11.67,0,0,1,2,310.18V13.71A11.66,11.66,0,0,1,13.59,2H194.41A11.66,11.66,0,0,1,206,13.71V310.18a11.67,11.67,0,0,1-11.59,11.72Z"/><path class="cls-2" d="M194.41,4A9.66,9.66,0,0,1,204,13.71V310.18a9.67,9.67,0,0,1-9.59,9.72H13.59A9.67,9.67,0,0,1,4,310.18V13.71A9.66,9.66,0,0,1,13.59,4H194.41m0-4H13.59A13.65,13.65,0,0,0,0,13.71V310.18A13.66,13.66,0,0,0,13.59,323.9H194.41A13.66,13.66,0,0,0,208,310.18V13.71A13.65,13.65,0,0,0,194.41,0Z"/><g class="cls-3"><polygon class="cls-4" points="107.29 157.46 67.8 222.57 202.03 145.74 202.03 145.74 173.67 161.98 107.29 157.46"/><polygon class="cls-4" points="119.13 269.33 119.08 269.35 119.1 269.3 67.77 222.61 67.77 222.62 96.75 319.5 174.28 319.5 119.13 269.33"/><path class="cls-4" d="M160.52,69.85,202,132.21V13.31a8.05,8.05,0,0,0-3.4-6.42L160.51,69.74Z"/><polygon class="cls-4" points="124.2 129.58 173.67 161.98 124.2 129.58 124.2 129.58"/><polygon class="cls-5" points="67.77 222.62 67.77 222.61 67.76 222.59 67.77 222.62"/><path class="cls-5" d="M124.17,129.56l0,0h0L57.88,86.15,126.42,5.5H13.62a7.9,7.9,0,0,0-7.37,6.07l101,145.89Z"/><polygon class="cls-5" points="16 177.34 67.76 222.59 67.8 222.57 107.29 157.46 107.26 157.46 16 177.34"/><path class="cls-5" d="M151.34,5.5l9.17,64.24L198.63,6.89a7.21,7.21,0,0,0-4.19-1.39Z"/><path class="cls-5" d="M9.73,318.3a7.14,7.14,0,0,0,3.89,1.2H96.75l-29-96.88Z"/><path class="cls-5" d="M16,177.34h0L6,168.62V311.7a8,8,0,0,0,3.7,6.6l58-95.68v0Z"/><path class="cls-5" d="M16,177.34h0L6,168.62V311.7a8,8,0,0,0,3.7,6.6l58-95.68v0Z"/><polygon class="cls-6" points="67.77 222.61 119.1 269.3 151.36 174.75 202.03 145.74 202.03 145.74 67.8 222.57 67.77 222.61"/><path class="cls-6" d="M202,311.7V234.11l-82.9,35.22,55.15,50.17h20.16A7.93,7.93,0,0,0,202,311.7Z"/><polygon class="cls-6" points="202.03 225.99 151.36 174.75 202.03 225.99 202.03 225.99"/><polygon class="cls-5" points="67.76 222.59 67.77 222.61 67.8 222.57 67.76 222.59"/><polygon class="cls-6" points="67.76 222.59 67.77 222.61 67.8 222.57 67.76 222.59"/><path class="cls-5" d="M107.26,157.46,6.25,11.57A7.28,7.28,0,0,0,6,13.31V168.62l10,8.72Z"/><path class="cls-6" d="M107.26,157.46,6.25,11.57A7.28,7.28,0,0,0,6,13.31V168.62l10,8.72Z"/><polygon class="cls-5" points="16 177.34 16 177.34 6.03 168.62 6.03 168.62 16 177.34"/><polygon class="cls-5" points="16 177.34 16 177.34 6.03 168.62 6.03 168.62 16 177.34"/><polygon class="cls-6" points="16 177.34 16 177.34 6.03 168.62 6.03 168.62 16 177.34"/><polygon class="cls-5" points="173.67 161.98 160.52 69.85 160.52 69.86 160.51 69.74 124.2 129.58 173.67 161.98"/><polygon class="cls-5" points="124.2 129.58 160.51 69.74 151.34 5.5 126.42 5.5 57.88 86.15 124.2 129.58"/><polygon class="cls-5" points="124.2 129.58 160.51 69.74 151.34 5.5 126.42 5.5 57.88 86.15 124.2 129.58"/><polygon class="cls-7" points="107.29 157.46 173.67 161.98 124.2 129.58 107.29 157.46"/><polygon class="cls-5" points="124.17 129.56 107.26 157.46 107.29 157.46 124.2 129.58 124.17 129.56"/><polygon class="cls-7" points="124.17 129.56 107.26 157.46 107.29 157.46 124.2 129.58 124.17 129.56"/><polygon class="cls-6" points="173.67 161.98 202.03 145.74 202.03 132.21 160.52 69.86 173.67 161.98"/><polygon class="cls-5" points="173.67 161.98 160.52 69.86 160.52 69.85 173.67 161.98"/><polygon class="cls-6" points="173.67 161.98 160.52 69.86 160.52 69.85 173.67 161.98"/><polygon class="cls-6" points="119.08 269.35 119.13 269.33 119.1 269.3 119.08 269.35"/><polygon class="cls-6" points="202.03 225.99 151.36 174.75 119.1 269.3 119.13 269.33 202.03 234.11 202.03 225.99"/><polygon class="cls-6" points="202.03 225.99 151.36 174.75 119.1 269.3 119.13 269.33 202.03 234.11 202.03 225.99"/><polygon class="cls-6" points="202.03 145.74 151.36 174.75 202.03 225.99 202.03 145.74"/><polygon class="cls-5" points="202.03 145.74 151.36 174.75 202.03 225.99 202.03 145.74"/></g><path class="cls-2" d="M101.3,124.68a3.85,3.85,0,0,1,.3,1.52A4,4,0,0,1,99,129.94c2.09.86,5-.86,5-8.57,0,7.69,2.89,9.43,5,8.57a4,4,0,0,1,0-7.5l.14-.13-5.07-5-5.07,5,.17.17A4,4,0,0,1,101.3,124.68Z"/><path class="cls-2" d="M88.25,127.91a4,4,0,0,1,.8,1.32,4,4,0,0,1-1.19,4.41c2.26.11,4.42-2.5,1.76-9.74,2.65,7.22,6,7.87,7.63,6.36a4,4,0,0,1-3.8-2.62,3.88,3.88,0,0,1-.23-1.42,4,4,0,0,1,1.41-3l.08-.17-6.5-3-3,6.45.22.09A4.13,4.13,0,0,1,88.25,127.91Z"/><path class="cls-2" d="M77.1,135.37a4.28,4.28,0,0,1,1.21,1,4,4,0,0,1,.4,4.55c2.16-.67,3.29-3.85-1.71-9.76,5,5.89,8.32,5.38,9.36,3.39a4.05,4.05,0,0,1-4.47-1.16,4.23,4.23,0,0,1-.71-1.25,4,4,0,0,1,.29-3.3l0-.2L74.35,128l-.62,7.08.23,0A4.13,4.13,0,0,1,77.1,135.37Z"/><path class="cls-2" d="M66.15,147a4.09,4.09,0,0,1,3-.81,3.73,3.73,0,0,1,1.47.5,4,4,0,0,1,1.94,4.14c1.81-1.37,1.77-4.74-5-8.59,6.71,3.84,9.67,2.23,10,0a4,4,0,0,1-5.7-.51,4,4,0,0,1-.86-3.2l-.05-.18-6.93,1.84L65.92,147Z"/><path class="cls-2" d="M62.9,160.79A4.07,4.07,0,0,1,65.48,159a4,4,0,0,1,4.81,3.19c1.22-1.89,0-5.05-7.63-6.39,7.63,1.34,9.86-1.18,9.37-3.37a4,4,0,0,1-4.18,2,3.72,3.72,0,0,1-1.36-.51,4,4,0,0,1-1.91-2.71l-.11-.16-5.88,4.09,4.12,5.82Z"/><path class="cls-2" d="M64.61,174.86a4.07,4.07,0,0,1,1.81-2.55,4.17,4.17,0,0,1,1.45-.56A4,4,0,0,1,72,173.68c.5-2.19-1.72-4.75-9.37-3.42,7.63-1.33,8.85-4.45,7.64-6.34a4,4,0,0,1-3.26,3.26,4.15,4.15,0,0,1-1.45,0,4.05,4.05,0,0,1-2.73-1.89l-.16-.12L58.6,171l5.88,4.08Z"/><path class="cls-2" d="M77.65,183.88c-.3-2.23-3.26-3.88-10,0,6.71-3.84,6.78-7.19,5-8.55a4,4,0,0,1-1.93,4.16,3.92,3.92,0,0,1-1.37.47,4,4,0,0,1-3.22-.85l-.19-.05-1.85,6.87L71,187.74l0-.23a4,4,0,0,1,.82-3,4,4,0,0,1,1.17-1A4.08,4.08,0,0,1,77.65,183.88Z"/><path class="cls-2" d="M86.43,191.56c-1-2-4.4-2.54-9.39,3.36,5-5.89,3.89-9,1.74-9.73a4,4,0,0,1-.38,4.58,4.19,4.19,0,0,1-1.12.9A4.09,4.09,0,0,1,74,191l-.19,0,.63,7.09,7.15-.64,0-.23a4,4,0,0,1-.28-3.1,4.19,4.19,0,0,1,.75-1.35A4.07,4.07,0,0,1,86.43,191.56Z"/><path class="cls-2" d="M97.34,195.8c-1.67-1.52-5-.9-7.67,6.34,2.65-7.22.54-9.82-1.72-9.73a3.93,3.93,0,0,1,.48,5.66,4,4,0,0,1-3,1.4l-.18.08,3,6.45,6.5-3-.1-.21A4,4,0,0,1,93.33,200a3.89,3.89,0,0,1,.24-1.53A4,4,0,0,1,97.34,195.8Z"/><path class="cls-2" d="M106.71,201.34a3.77,3.77,0,0,1-.3-1.51,4,4,0,0,1,2.64-3.75c-2.09-.86-5,.86-5,8.57,0-7.69-2.89-9.42-5-8.57a4,4,0,0,1,2.67,3.75,4.11,4.11,0,0,1-.27,1.41,4,4,0,0,1-2.36,2.34l-.14.14,5.07,5,5.07-5-.17-.17A4,4,0,0,1,106.71,201.34Z"/><path class="cls-2" d="M119.76,198.11a3.88,3.88,0,0,1-.8-1.31,4,4,0,0,1,1.19-4.42c-2.26-.1-4.42,2.51-1.76,9.75-2.66-7.23-6-7.87-7.63-6.36a4,4,0,0,1,3.8,2.61,3.88,3.88,0,0,1,.23,1.42,4,4,0,0,1-1.41,3l-.08.17,6.5,3,3-6.46-.22-.09A4.09,4.09,0,0,1,119.76,198.11Z"/><path class="cls-2" d="M130.92,190.65a4,4,0,0,1-1.62-5.52c-2.16.68-3.29,3.86,1.71,9.76-5-5.89-8.32-5.37-9.37-3.39a4,4,0,0,1,4.48,1.17,4.11,4.11,0,0,1,.71,1.25,4,4,0,0,1-.29,3.3l0,.19,7.15.62.61-7.09-.23,0A4.1,4.1,0,0,1,130.92,190.65Z"/><path class="cls-2" d="M141.86,179.05a4.08,4.08,0,0,1-3,.8,3.87,3.87,0,0,1-1.47-.49,4,4,0,0,1-1.95-4.14c-1.79,1.36-1.76,4.74,5,8.59-6.71-3.84-9.67-2.23-10,0a4,4,0,0,1,5.7.52,4,4,0,0,1,.86,3.19l.05.19,6.93-1.85L142.09,179Z"/><path class="cls-2" d="M145.11,165.24a4.08,4.08,0,0,1-2.58,1.79,4,4,0,0,1-4.81-3.2c-1.22,1.89,0,5,7.63,6.39-7.63-1.34-9.85,1.18-9.37,3.37a4,4,0,0,1,4.19-2,4.15,4.15,0,0,1,1.35.51,4,4,0,0,1,1.91,2.71l.11.16,5.88-4.08-4.12-5.83Z"/><path class="cls-2" d="M143.4,151.16a4,4,0,0,1-1.81,2.55,3.92,3.92,0,0,1-1.45.56,4,4,0,0,1-4.17-1.92c-.49,2.19,1.72,4.75,9.37,3.41-7.63,1.34-8.85,4.45-7.64,6.35a4,4,0,0,1,3.26-3.26,3.93,3.93,0,0,1,1.45,0,4,4,0,0,1,2.73,1.89l.16.12,4.11-5.84L143.53,151Z"/><path class="cls-2" d="M136.94,138.51a4.06,4.06,0,0,1-.82,3,4.14,4.14,0,0,1-1.17,1,4.08,4.08,0,0,1-4.59-.41c.29,2.23,3.26,3.89,10,0-6.71,3.85-6.79,7.19-5,8.56a4,4,0,0,1,1.93-4.17,3.85,3.85,0,0,1,1.37-.47,4.06,4.06,0,0,1,3.22.85l.19.05,1.85-6.87L137,138.29Z"/><path class="cls-2" d="M121.57,134.47c1.05,2,4.41,2.53,9.4-3.37-5,5.89-3.89,9.06-1.74,9.73a4,4,0,0,1,.38-4.57,3.9,3.9,0,0,1,1.12-.91,4.07,4.07,0,0,1,3.32-.29h.2l-.63-7.09-7.14.63,0,.23a4,4,0,0,1-.47,4.46A4.08,4.08,0,0,1,121.57,134.47Z"/><path class="cls-2" d="M110.67,130.23c1.67,1.51,5,.89,7.67-6.35-2.65,7.23-.54,9.83,1.72,9.73a4,4,0,0,1-1.22-4.42,4.11,4.11,0,0,1,3.76-2.64l.18-.07-3-6.45-6.5,3,.1.21a4,4,0,0,1,1.1,4.35A4.06,4.06,0,0,1,110.67,130.23Z"/><path class="cls-2" d="M117.24,162.89a1.21,1.21,0,0,1,0,.38,15.38,15.38,0,0,0-8.24,4c2.82,2.14,5.84,4.15,8,4.15,3.69,0,9-3.7,9-8.33s-5.37-8.33-9-8.33c-2.12,0-5.13,2-8,4.14A15.38,15.38,0,0,0,117.24,162.89Z"/><path class="cls-2" d="M103.91,150a1.21,1.21,0,0,1,.38,0,15.14,15.14,0,0,0,3.42,7.48c2.13-2.79,4.13-5.76,4.13-7.84,0-3.66-3.73-8.94-8.4-8.94s-8.4,5.32-8.4,8.94c0,2.29,2.41,5.63,4.75,8.64A15.19,15.19,0,0,0,103.91,150Z"/><path class="cls-2" d="M91,163.26a1.15,1.15,0,0,1,0-.37,15.29,15.29,0,0,0,7.63-3.47c-3-2.32-6.36-4.67-8.65-4.67-3.69,0-9,3.69-9,8.33s5.37,8.33,9,8.33c2.3,0,5.64-2.36,8.65-4.67A15.39,15.39,0,0,0,91,163.26Z"/><path class="cls-2" d="M107.71,168.64a15.24,15.24,0,0,0-3.43,7.48,1.15,1.15,0,0,1-.37,0,15.21,15.21,0,0,0-4.11-8.28c-2.35,3-4.76,6.36-4.76,8.64,0,3.66,3.73,8.94,8.4,8.94s8.4-5.33,8.4-8.94C111.84,174.39,109.84,171.43,107.71,168.64Z"/><path class="cls-2" d="M111.11,163.08a17.71,17.71,0,0,1-7-7,17.84,17.84,0,0,1-7,7,17.77,17.77,0,0,1,7,7A17.84,17.84,0,0,1,111.11,163.08Zm-9.33,0a2.32,2.32,0,1,1,2.32,2.3A2.3,2.3,0,0,1,101.78,163.08Z"/><path class="cls-8" d="M153.5,163.29A49.47,49.47,0,1,1,104,114.23,49.26,49.26,0,0,1,153.5,163.29Z"/><path class="cls-2" d="M194,25.75V15h-9.74a9.93,9.93,0,0,1-1-4H24.72a10,10,0,0,1-1,4H14V25.75a11.33,11.33,0,0,1-5,.56V297.06a11.33,11.33,0,0,1,5,.56V309h9.75c1,1,1,5,1,5H183.28a13.4,13.4,0,0,1,1-5H194V298.14a11.5,11.5,0,0,1,5-.56V26.31A11.33,11.33,0,0,1,194,25.75ZM14,26.87V296.5h0a11.18,11.18,0,0,0-4-.5V27.36a11.18,11.18,0,0,0,4-.5ZM193,16v9.42C190,24,186.39,19,184.68,16ZM25.75,12H182.26a14.09,14.09,0,0,1,.86,3H24.88A13,13,0,0,1,25.75,12ZM15,16h8.32C21.61,19,18,24,15,25.42Zm0,292V298c3,1.41,6.61,6.05,8.32,10.05Zm167.26,5H25.75a9.42,9.42,0,0,0-.87-4H183.12A31.42,31.42,0,0,0,182.26,313ZM193,308h-8.32c1.71-3,5.32-8.11,8.32-9.52Zm0-10.62c-4,1.5-7.63,6.62-9.46,10.62H24.46c-1.83-5-5.46-9.64-9.46-11.15V26.52C19,25,22.63,20,24.46,16H183.54c1.83,4,5.46,9,9.46,10.52V297.38Zm5-.85a11.32,11.32,0,0,0-4,.51V26.87h0a11.18,11.18,0,0,0,4,.5V296.53Z"/></g></g></svg>