<svg xmlns="http://www.w3.org/2000/svg" viewBox="0 0 208 326">
    <defs>
        <style>
            .cls-1 {
                fill: #e74c3c;
            }

            .cls-2 {
                fill: #fff;
            }

            .cls-3 {
                fill: #212228;
                opacity: 0.6;
            }
        </style>
    </defs>
    <title>red-back</title>
    <g id="Calque_2" data-name="Calque 2">
        <g id="CARTES">
            <path class="cls-1" d="M13.59,324A11.71,11.71,0,0,1,2,312.2V13.81A11.72,11.72,0,0,1,13.59,2H194.41A11.72,11.72,0,0,1,206,13.81V312.2A11.71,11.71,0,0,1,194.41,324Z"
            />
            <path class="cls-2" d="M194.41,4A9.71,9.71,0,0,1,204,13.81V312.2a9.71,9.71,0,0,1-9.59,9.8H13.59A9.71,9.71,0,0,1,4,312.2V13.81A9.71,9.71,0,0,1,13.59,4H194.41m0-4H13.59A13.71,13.71,0,0,0,0,13.81V312.2A13.7,13.7,0,0,0,13.59,326H194.41A13.69,13.69,0,0,0,208,312.2V13.81A13.7,13.7,0,0,0,194.41,0Z"
            />
            <path class="cls-1" d="M13.59,317.65a5.41,5.41,0,0,1-5.35-5.45V13.81a5.41,5.41,0,0,1,5.35-5.46H194.41a5.41,5.41,0,0,1,5.35,5.46V312.2a5.41,5.41,0,0,1-5.35,5.45Z"
            />
            <path class="cls-2" d="M194.41,10.35a3.41,3.41,0,0,1,3.35,3.46V312.2a3.4,3.4,0,0,1-3.35,3.45H13.59a3.4,3.4,0,0,1-3.35-3.45V13.81a3.41,3.41,0,0,1,3.35-3.46H194.41m0-4H13.59a7.42,7.42,0,0,0-7.35,7.46V312.2a7.41,7.41,0,0,0,7.35,7.45H194.41a7.41,7.41,0,0,0,7.35-7.45V13.81a7.42,7.42,0,0,0-7.35-7.46Z"
            />
            <path class="cls-3" d="M110.9,128.06c-.8,0-.9-.05-.9-.05l-.92-.11c-3.16-3.3-3.35-11.72-3.35-11.72l-1.5,0a34.07,34.07,0,0,1-.89,6.51,13.35,13.35,0,0,1-2,4.65l-2,.54-1.31.18s-.48,0-1.06,0L98,129h14Z"
            />
            <path class="cls-3" d="M64.32,152.09c-3.47,0-8.24,3-8.24,6.21a6.32,6.32,0,0,0-12.6,0c.07,6.5,9.17,10.58,11.59,16.15.13.31.91.78,1.06,1.06,2.84-5.43,12.53-10.42,12.54-17.27C68.66,155.05,65.3,152.7,64.32,152.09Z"
            />
            <path class="cls-3" d="M99,121.63a5.74,5.74,0,0,0,6-5.44,6,6,0,0,0,12,0c0-6.32-9.27-10.94-12-16l-1.06-1.06-.46,3.18C99.78,106.58,93,110.75,93,116.19A5.73,5.73,0,0,0,99,121.63Z"
            />
            <path class="cls-3" d="M112.64,210.13A6,6,0,0,0,108.3,212a13.27,13.27,0,0,1-1.76,1.82,8.22,8.22,0,0,1,2.53-3.81h0a6.8,6.8,0,0,0,1.94-4.84,6.18,6.18,0,0,0-6-6.21,6.28,6.28,0,0,0-6,6.32,6.54,6.54,0,0,0,1.94,4.73h0a8.57,8.57,0,0,1,2.65,3.74c-.61-.39-1.55-1.27-1.55-1.83V212a6.28,6.28,0,0,0-4.55-1.87,6,6,0,1,0,4.44,10.1,21.32,21.32,0,0,1,2.39-1.76,19.62,19.62,0,0,1-.92,4.26,9.94,9.94,0,0,1-1.25,2.58l-.41.18L99.77,227H96.89l.94,1h14.1l-1.06-1h-1.46l-.38-.36-.25-.17c-2.39-2.16-2.92-6.68-3-8.18a11.11,11.11,0,0,1,2.23,1.58,6,6,0,1,0,4.67-9.74Z"
            />
            <path class="cls-3" d="M165.36,162.93l-2.29-.36-.78-.54a36.24,36.24,0,0,1-7.39-7.6,9.28,9.28,0,0,1-1.9-5h0l-1.17-1.06-.06,1.88-4.22,7.93c-.33.37-.67.74-1,1.09L144,161.72l-.83.62-5.05.6,1.06,1.06h.56c1.09,0,2.08.93,3,1.53a37.53,37.53,0,0,1,7.52,7.27,23.33,23.33,0,0,1,1.5,2.3v2.36l1.06,1.06a8.78,8.78,0,0,1,1.59-4,38.23,38.23,0,0,1,6.9-8c1.5-1.19,3.18-2.48,5.16-2.55Z"
            />
            <path class="cls-2" d="M61.29,151.38A6.07,6.07,0,0,0,55,157.24a6.32,6.32,0,0,0-12.6,0c.07,6.85,9.78,11.8,12.65,17.21,2.84-5.43,12.53-10.42,12.54-17.27A6.1,6.1,0,0,0,61.29,151.38Z"
            />
            <path class="cls-2" d="M97.89,120.57a6.15,6.15,0,0,0,5-2.49,27.74,27.74,0,0,1-.65,3.5c-.82,3.25-2.38,6.42-5.35,6.42h14c-4.08,0-5.49-6-6-9.91a6.19,6.19,0,0,0,4.95,2.44,5.72,5.72,0,0,0,6-5.42c0-6.32-9.27-10.93-12-16-2.71,5-12,9.62-12,16A5.73,5.73,0,0,0,97.89,120.57Zm6-5.42Z"
            />
            <path class="cls-2" d="M111.58,209.07a5.94,5.94,0,0,0-4.33,1.87,14.12,14.12,0,0,1-1.77,1.84A8.13,8.13,0,0,1,108,209h0c1.19-2,1.94-3.12,1.94-4.87a6.2,6.2,0,0,0-6-6.23,6.09,6.09,0,0,0-6,6.1,6.2,6.2,0,0,0,1.94,4.54,19.22,19.22,0,0,1,2.55,3.94,11,11,0,0,1-1.61-1.56,6.22,6.22,0,0,0-4.49-1.87,6,6,0,1,0,4.49,10.1,20.46,20.46,0,0,1,2.4-1.77,21.22,21.22,0,0,1-.92,4.51c-.81,2.48-2.44,5.11-5.41,5.11h14c-5.13,0-6-7.57-6.19-9.58a10.28,10.28,0,0,1,2.23,1.48,6,6,0,1,0,4.67-9.83Z"
            />
            <path class="cls-2" d="M161.23,161a36.51,36.51,0,0,1-7.5-7.6,9.69,9.69,0,0,1-2-5,8.63,8.63,0,0,1-1.59,4,38.48,38.48,0,0,1-6.89,8c-1.51,1.19-3.19,2.48-5.16,2.54a7.29,7.29,0,0,1,3.57,1.58,36.9,36.9,0,0,1,7.52,7.25c1.21,1.67,2.48,3.54,2.55,5.7a8.89,8.89,0,0,1,1.59-4,38.53,38.53,0,0,1,6.9-8c1.5-1.19,3.19-2.48,5.16-2.55C163.8,162.86,162.48,161.83,161.23,161Z"
            />
        </g>
    </g>
</svg>
